<?xml version="1.0" encoding="utf-8"?>
<!-- Generator: Adobe Illustrator 23.0.3, SVG Export Plug-In . SVG Version: 6.00 Build 0)  -->
<svg width="3236.5" height="1856.4" version="1.1" id="圖層_1" xmlns="http://www.w3.org/2000/svg" xmlns:xlink="http://www.w3.org/1999/xlink" x="0px" y="0px"
	 viewBox="0 0 3236.5 1856.4" style="enable-background:new 0 0 3236.5 1856.4;" xml:space="preserve">
<style type="text/css">
	.st0{display:none;fill:#020202;}
	.st1{display:none;}
	.st2{display:inline;fill:#FFFFFF;}
	.st3{display:none;fill:#FFFFFF;}
	.st4{clip-path:url(#SVGID_2_);}
	.st5{fill:none;stroke:#E0C9A4;stroke-width:1.088;stroke-miterlimit:10;}
	.st6{fill:none;stroke:#E0C9A4;stroke-miterlimit:10;}
	.st7{fill:#E0C9A4;}
	.st8{fill:none;stroke:#E0C9A4;stroke-width:5;stroke-miterlimit:10;}
	.st9{opacity:0.2;}
	.st10{fill:none;stroke:#FFEB38;stroke-width:3.5;stroke-miterlimit:10;}
</style>
<rect class="st0" width="3236.5" height="1856.4"/>
<g class="st1">
	<path class="st2" d="M891.3,1146c0,0,0,0-3.8-4.5C889.2,1144.2,891.3,1146,891.3,1146z"/>
	<path class="st2" d="M3220,1543.9c-6.4,1.3-10.2,6.4-14,10.2c-2.5,2.5-5.1,3.8-7.6,3.8c-14,1.3-27.9-2.5-41.9,2.5
		c-2.5,1.3-5.1,2.5-8.9,3.8c-3.8,1.3-5.1,6.4-8.9,5.1c-6.4-1.3-11.4-8.9-19.1-10.2c-7.6-2.5-16.5-1.3-24.1-1.3
		c-5.1-7.6-15.2-10.2-24.1-8.9c-6.4-5.1-12.7-12.7-15.2-20.3c-2.5-3.8,2.5-8.9,5.1-12.7c10.2-12.7,15.2-26.7,14-41.9
		c0-2.5,2.5-5.1,3.8-6.4c7.6-5.1,15.2-10.2,17.8-19.1c1.3-5.1-1.3-10.2-3.8-15.2c-3.8-3.8-10.2-3.8-12.7-8.9
		c-3.8-6.4-1.3-12.7-1.3-19.1c-7.6-3.8-16.5,2.5-24.1,0c-3.8-7.6,1.3-16.5-2.5-24.1c-7.6-2.5-15.2-3.8-21.6-10.2
		c6.4-11.4,7.6-24.1,15.2-35.6c3.8-6.4,3.8-14-3.8-19.1c-26.7-19.1-49.5-38.1-68.6-66.1c-1.3-1.3-2.5-1.3-3.8-2.5
		c-2.5-2.5-3.8-5.1-3.8-7.6c0-5.1,0-11.4,0-16.5c-1.3-14-6.4-27.9-8.9-41.9c3.8-5.1,5.1-10.2,7.6-15.2c5.1-5.1,12.7-1.3,16.5,3.8
		c2.5,5.1,1.3,12.7,5.1,17.8c1.3,1.3,3.8,2.5,5.1,2.5c6.4,0,12.7-1.3,19.1-1.3c6.4,0,10.2-5.1,16.5-6.4c5.1-2.5,10.2-7.6,11.4-12.7
		c1.3-12.7,0-24.1,0-36.8c6.4-2.5,12.7,2.5,19.1,0c3.8-2.5-1.3-7.6,0-11.4c8.9-1.3,16.5-11.4,24.1-5.1c6.4,6.4,8.9,19.1,19.1,20.3
		c6.4,0,12.7,2.5,17.8-1.3c5.1-5.1,6.4-12.7,8.9-20.3c0-1.3,1.3-2.5,2.5-3.8c3.8-7.6,1.3-14-1.3-21.6c-5.1-8.9-15.2-20.3-6.4-29.2
		c2.5-2.5,3.8-5.1,6.4-8.9c8.9-11.4,21.6-20.3,24.1-34.3c2.5-12.7,1.3-26.7,1.3-39.4c10.2,1.3,20.3-1.3,21.6-11.4
		c2.5-8.9,3.8-19.1,0-27.9c-1.3-1.3-5.1-2.5-6.4-5.1c-1.3-1.3-1.3-3.8-2.5-5.1c-14-12.7-20.3-30.5-22.9-48.3c0-2.5,1.3-6.4,2.5-8.9
		c7.6-10.2,11.4-20.3,20.3-27.9c10.2,0,21.6,0,31.8-1.3c1.3-7.6,2.5-14-3.8-20.3c-30.5-29.2-61-55.9-92.7-82.6
		c-6.4,0-14-2.5-20.3,1.3c-3.8,3.8-6.4,7.6-8.9,11.4c5.1,5.1,10.2,8.9,11.4,16.5c0,3.8-1.3,7.6-3.8,10.2
		c-14,16.5-24.1,35.6-41.9,48.3c-6.4,2.5-16.5,6.4-20.3-1.3c2.5-7.6,1.3-15.2-1.3-21.6c-11.4-20.3-24.1-38.1-34.3-57.2
		c-11.4-11.4-27.9-16.5-40.7-25.4c-7.6,3.8-14,10.2-21.6,14c-8.9,5.1-19.1,3.8-29.2,3.8c-3.8,0-6.4,2.5-8.9,5.1
		c-1.3,2.5-3.8,5.1-6.4,6.4c-1.3,1.3-1.3,2.5-2.5,3.8c-29.2,16.5-57.2,30.5-86.4,43.2c-6.4,2.5-12.7,3.8-19.1,3.8
		c-2.5,0-6.4-1.3-8.9-2.5c-12.7-8.9-21.6-20.3-34.3-26.7c-2.5-1.3-3.8-5.1-6.4-7.6c-1.3-3.8-2.5-7.6-3.8-11.4
		c-1.3-6.4-5.1-12.7-2.5-17.8c2.5-8.9,14-17.8,24-13.2c-0.3,0.6-0.7,0.9-1,0.9c-2.9,2.9-3.8,6.3-2.6,9.8c1.3,2.5,0,7.6,5.1,7.6
		c3.8-1.3,6.4-7.6,11.4-7.6c2.5,1.3,3.8,3.8,5.1,6.4c0,2.5-1.3,5.1-5.1,7.6c-2.5,2.5-2.5,5.1,0,8.9c5.1,6.4,14,3.8,20.3,3.8
		c3.8-10.2,10.2-19.1,12.7-30.5c-8.9-7.6-21.6-12.7-25.4-22.9c-5.1-11.4,5.1-20.3,8.9-30.5c1.3-6.4-1.3-14,3.8-19.1
		c3.8-2.5,6.4-6.4,7.6-11.4c1.3-10.2-2.5-21.6,2.5-30.5c5.1-7.6,12.7-14,12.7-22.9c0-10.2-1.3-19.1,5.1-27.9
		c8.9-10.2,16.5-20.3,24.1-31.8c7.6-2.5,16.5,1.3,22.9-2.5c5.1-2.5,1.3-11.4,2.5-17.8c-17.8-2.5-36.8,2.5-54.6-1.3
		c-5.1-12.7-14-21.6-21.6-33c-10.2-14-26.7-27.9-16.5-45.7c14-7.6,27.9-15.2,40.7-25.4c1.3-1.3,2.5-3.8,2.5-5.1
		c-1.3-8.9,0-17.8-2.5-26.7c-8.9-5.1-16.5-12.7-26.7-16.5c-3.8-1.3-6.4-3.8-8.9-6.4c-3.8-2.5-7.6-2.5-10.2-5.1
		c-2.5-2.5-5.1-5.1-8.9-6.4c-2.5-2.5-5.1-5.1-7.6-7.6c-7.6-12.7-17.8-19.1-26.7-29.2c-3.8-6.4-8.9-8.9-12.7-15.2
		c-6.4,5.1-14,8.9-15.2,16.5c0,12.7,1.3,25.4-8.9,34.3c-11.4,2.5-19.1-6.4-27.9-12.7c-7.6-5.1-19.1-3.8-25.4,2.5
		c-6.4,7.6,1.3,19.1-3.8,27.9c-1.3,1.3-6.4-1.3-7.6,0c-7.6,12.7-11.4,26.7-17.8,39.4c-2.5,6.4,5.1,14,3.8,20.3
		c0,3.8-2.5,8.9-6.4,12.7c-3.8,2.5-6.4-2.5-10.2-3.8c-7.6-1.3-11.4,6.4-16.4,10.6c-8.9-9.8-17.1-20.1-25.2-30.5
		c-5-7.5-34.3-51.8-34.4-51.8c-0.1,0-50.4-24-57.8-27.3c-7.4-3.3-23.1-27.8-23.2-31.2c0-3.4,3.3-37.9,0-39.1
		c-3.3-1.2-14.6-12.7-17.2-21c-2.7-8.3-4.3-31.9-7.1-39.9s-11.4-14.6-14.4-17.9c-3-3.3-25.1,1.3-27,3.3s3.2,9.3,0,14.6
		s-51.3,2-65.3,4c-14.1,2-23.4,13-34,17.8c-10.6,4.7-23.2-6-23.2-6s-8.3-11.7-17.4-6.1c-9.1,5.6-5.1,17.9-7.8,21.7
		s-27.4-11.8-30.2-18.4c-2.8-6.5,8.9-8.6,0-17.1c-8.9-8.4-19.5-20.3-20.1-28.6c-0.7-8.3-0.7-43.2-7.3-48.3
		c-6.6-5.1-8.6-7.7-11.3-11.7s-9.3-19.2-12.6-22.5s-58.5-12.6-70-13.9s-102.3,15.3-112.3,21.9c-9.9,6.6-16.6,13.4-26.8,15.6
		c-10.3,2.2-17.6,10.5-24.9,10.7s-15.1,5.8-23.4,0c-8.4-5.8-17.9-12.4-28.7-13.1c-10.8-0.7-21.3-1.2-27,2.4s-27.5,20.3-30.5,24.2
		c-3,3.9-14.3,9.3-19.6,13.3c-5.3,3.9-19.3,34-21.2,38.7c-1.9,4.7,17.2,16.3,11.9,24.2c-5.3,8-8.8,11.9-15.1,14.8
		c-0.2,0.1-0.4,0.2-0.6,0.3c-6.1,2.9-11.8,7.6-11.8,7.6s-0.1,0.2-0.3,0.8c-2.1,1.7-3.6,3-3.6,3s-2.4,0.9-2.7,12.8
		c-0.3,11.6,6,51.7,12.4,57.8c0.2,0.2,0.3,0.3,0.5,0.4c6.6,4.6,31.3-12.9,29.9-6.2c-1.4,6.8-16.7,36.6-16.7,40.6s10.1,27,4,31
		c-6,4.1-17.2,2-28.2,4s-53.4,20.2-53.4,20.2s-36.4-11.5-51-13.2s-40.3-15.9-44.6-25.3c-4.2-9.2-8.7-36.3-14.5-38.8
		c-0.2-0.1-0.3-0.1-0.5-0.2c-6-1-9.5,0.6-9.1,4.1s-4.1,24-4.8,29.3c-0.7,5.3-11.1,21.6-8.1,22.7c3.1,1.1,8.5,28.1,8.1,31.3
		c-0.4,3.2-3.3,5.7-9.6,13.9c-6.3,8.3-0.3,6.3-8.5,13s-17.3,14-19.8,18.2c-2.5,4.3-3.2,10.9-10.5,11.7c-7.3,0.7-17.5-11.4-19.7-16.8
		l-9.7-40c0,0-19.1,5.5-25.7,4.6c-6.5-0.9-4.3,9.6-12.4,11s-11.4-5.9-15.2-3.1c-3.8,2.9-9.5,3-5.9,5.6s14,4.2,8.9,11.5
		s-35.6,15.6-41.9,16.4s-0.9-1.9-6.3,0.7c-5.3,2.7-4.2,6-10.1,5.7s-9.4-5.2-9.6-1.8c-0.2,3.4-5.4,29-13.8,36.1
		c-6.6,5.6-5,10.5-3,15.3c-2.3-2.8-6.5-5.8-13.6-6.7c-16.9-2-30.2-3.1-35.5-6.6s-21-17.7-25.5-19.6s-21.9-18.6-29.7-21.3
		c-7.8-2.7-24.1-9.7-29.2-17s-8.4-14.2-11.5-16.5s-5.7-3.9-8.3-6c-2.6-2,0.9-3-6.8-9.2c-7.7-6.1-6.1-11-9.9-11.2
		s-5.5,15.8-11.6,14.8s-17.3,8.9-17.3,8.9s8.9-8.3,0-10.3c-8.9-2.1-6.5,1.3-8.9-2.1s-0.8-10.3-4.6-14c-3.8-3.7-18.6-9.3-23.6-10.1
		c-5-0.8-18.1,3.4-18.1,3.4s19.4-8.4,7.8-12.8c-11.6-4.5-18.8-5.4-18.8-5.4s0.3-15-5.9-16.6s-3.7-3.5-16.1-1.5
		c-12.5,2-19.4,9.9-26.6,14.8c-7.2,4.9-8.5,2.6-11.8,1.4s-31.8,1.6-34.9-1.4c-3.1-3-30.4-32.6-33.4-36.1c-2.9-3.5,1.7-15.8-3.1-18.7
		c-4.7-2.9-10.7-4.7-12.1-9.6c-1.4-4.9-16-37.2-21.5-42.6s-6.8-12-13.9-12.7c-7.1-0.7-16.8,1.5-26-5.5s-5.6-11.5-14-10
		s-24.7,16-32.8,11.7c0,0-18.6-4.4-18.6-12.5s-1.7-12.8-7.1-14.1c-5.5-1.2-19.8,11.4-32.6,1.3c-12.8-10.1-32-21.5-42.9-28.1
		s-8.3-13.6-27-15.4c-18.7-1.8,0.9,12.7-29.2,13.4c-30.1,0.7-58,1.5-65.3-4.2s-10.6-14.4-28.5-3.8c-17.9,10.6-18.6,10-24.2,10
		c-5.6,0-5,4.4-26.2,2.8c-45.3-3.3-39.8,22.8-56.8,21.1c-16.9-1.6-24.9-1.7-31.5-2.3c-6.6-0.5-9-21.6-18.8-21.4
		c-15.2,0.4,2.6,19.6-20,14.9c-7-1.4-0.9,9.3,0,15.9c0.9,6.6,0.9,22.1-7.9,22.2c-8.9,0.1-10.2-5.6-12.2-3.7
		c-12.2,11.3,5.9,26.2,0,32.4c-12.2,13-8.1,34.8-20.3,44.4c-8.5,6.7-15.6-4.5-19.8,10.4c-2.1,7.4-20.8,4.5-27.9,6.2
		c-9.9,2.4-19.3-3.9-22-4.9s-2.3-5.5-22.8-7.5s-9,3.3-29.6,1.6c-20.5-1.7-26.9-3.7-48.8,3.7c-21.9,7.4-28.1,39.9-38,36.8
		c-9.9-3-5.1-1.1-18.8-0.8c-13.7,0.4-17.7,6.3-30.3,9.3s-35.5,19.9-35.5,19.9s-2.2,9.6-10.2,16.9s-12.6,22.5-10.6,27.2
		c2,4.6,5.3,3.3,2.7,13.9c-2.7,10.6-0.7,11.9,0,19.9s-6.2,19.2-3.1,37.1c3.1,17.9-0.9,23.9,10.4,27.8c11.3,4,9.3,1.3,21.9,20.5
		c0,0,25.1,35,35.5,39.6s10.2,14.2,19.3,12.4c9-1.8,26.1-6.5,28,1.8s-2.6,12.5,7.9,10.4c10.4-2.1-9-6.4,26.8-9.1
		c35.8-2.7,37.3-6.9,40.3,7.6c3,14.4-1.5,26.3,0,36.8s-3,19.7,10.4,19.7s17.9-1.8,20.9,17.6c3,19.4,6,26.3,7.5,46
		c1.5,19.6-3,21.1-6,36s-8.9,17.9-1.5,28.3c7.5,10.4,0,26.8,14.9,25.4c14.9-1.5,25.6,1.5,30,6c4.3,4.5,8.6,13.4,14.7,6
		c6.1-7.5-7.8,1,14.1-20.1c13.3-12.9,17-17.1,17.8-18.4c0.5,2.9,3.6,17,11.2,18.4c8.5,1.6,9.9-0.4,8,12.9c-2,13.3-3.3,27.8,8,39.1
		s29.8,14.6,31.8,53s8,35.2-5.3,56.4s-22.5,31.8-24.5,39.1s4,49,13.9,53s9.9,4,14.6,0c4.6-4-2-14.6,12.6,0s6.6,11.9,11.9,18.6
		c5.3,6.6,2.5,7.3,11.5,18.6c9,11.3,28.7,39.1,40.1,40.4s9.4,9.9,25.3,3.3s10.6-7.3,12.6-22.5s10.5-33.7,14.9-37.1s16.3-10,16.3-10
		s7,28.8,30.7,41.3c23.7,12.4,51.5,18.4,81.4,15.7c29.8-2.7,17.2-2,29.8,0.7s9.3,7.3,23.2,1.3s25.1-10.6,25.1-10.6s6,4,17.3,8
		s13.3,14.9,36.5,15.7c23.2,0.8,20.5-1.2,31.8-5.8c11.3-4.6,2.9-6.1,21.3-8c18.4-1.9,35-9.6,44.3,1.4c2.4,2.9,4.2,5,5.5,6.5
		c-2-3.4-3.1-8.3,2.7-12.7c10.3-7.8,20.4-17,26-5.8c5.6,11.3,6.2,39.1,8.9,44.4s4.6,8.6,13.9,7.3c9.3-1.3,55-25.2,72.2-25.8
		c17.2-0.7,35.7,8.5,38.8,7.6c3.1-0.9,7.4-2.2,14.5-4.4c7.1-2.1,7.7-1.2,18.3,1.4c10.6,2.7,20.5,3.3,33.1,3.3s27.8,0,36.5-4
		c8.6-4,4.6-3.4,22.5-8.3c17.9-5,27.8-16.9,27.8-16.9s4,19.9-4,27.2c-8,7.3-11.9,11.3-23.2,11.3s-24.5,0.7-24.5,0.7
		s-2.7,7.3-25.2,16.6c-22.5,9.3-27.4,11.2-37.8,7.3c-10.4-3.9-11.3-4.6-32.5-5.3c-21.2-0.7-23.9-4.6-31.2,4
		c-7.3,8.6-21.9,26.5-19.2,25.2s26.5,13.3,35.8,8c9.3-5.3,21.1-15.1,27.8-15.1s3.4-0.2,12.6,5.1c9.3,5.3,33.8,19.2,45.7,29.8
		c11.9,10.6,9.7,12.9,18.6,13.3c8.8,0.4,9.9,17.9,18.6,22.9c8.6,5,13.9-8.3,9.9,12.9c-4,21.2,0,50.4-1.3,53c-1.3,2.7-8,42.7-8,42.7
		c0.8,1.8,2.1,3,3.4,4.3c8.9,15.2,12.7,31.8,25.4,43.2c10.2,0,21.6,0,31.8,0c0,8.9,2.5,19.1-2.5,26.7c-7.6,8.9-15.2,17.8-24.1,25.4
		c0,12.7,7.6,22.9,12.7,34.3c1.3,1.3,3.8,2.5,5.1,2.5c8.9-1.3,17.8-2.5,25.4,2.5c1.3,1.3,2.5,2.5,3.8,3.8
		c17.8,10.2,38.1,16.5,53.4,31.8c1.3,2.5,3.8,3.8,6.4,6.4c1.3,2.5,2.5,5.1,5.1,6.4c2.5,1.3,6.4,2.5,8.9,2.5
		c16.5-5.1,24.1-21.6,36.8-31.8c14-54.6,12.7-114.3,39.4-165.1c19.1-24.1,36.8-47,57.2-69.9c15.2-26.7,26.7-54.6,39.4-82.6
		c19.1-3.8,38.1,2.5,55.9-5.1c5.1-2.5,8.9-5.1,15.2-6.4c2.5-1.3,3.8-3.8,6.4-5.1c20.3-3.8,39.4,0,59.7-1.3
		c8.9,5.1,15.2,11.4,22.9,17.8c2.5,2.5,6.4,3.8,10.2,6.4c2.5,1.3,3.8,3.8,5.1,6.4c2.5,16.5-5.1,31.8-15.2,45.7
		c-6.4,10.2-10.2,19.1-15.2,29.2c2.5,19.1,8.9,35.6,15.2,53.4c19.1,19.1,36.8,38.1,57.2,57.2c1.3,1.3,3.8,2.5,6.4,2.5
		c17.8,0,35.6,1.3,53.4-1.3c7.6-11.4,15.2-21.6,25.4-31.8c1.3-1.3,3.8-2.5,6.4-1.3c8.9,3.8,17.8,11.4,26.7,15.2
		c5.1,1.3,8.9,3.8,14,6.4c1.3,1.3,3.8,0,5.1,1.3c19.1,12.7,29.2,31.8,44.5,48.3c2.5,3.8,5.1,8.9,7.6,12.7
		c-11.4,31.8-5.1,64.8-6.4,97.8c-15.2,5.1-29.2,11.4-40.7,22.9c-2.5,2.5-3.8,7.6-2.5,10.2c2.5,7.6,11.4,11.4,12.7,20.3
		c3.8,26.7,1.3,53.4,1.3,80c0,2.5-3.8,2.5-6.4,3.8c-1.3,0-1.3,1.3-2.5,2.5c-1.3,0-2.5,1.3-3.8,1.3c-1.3,1.3-1.3,2.5-2.5,2.5
		c-14-2.5-27.9-7.6-41.7-9.2c-2.7,6.6-2.7,13,2.3,18.1c12.7,10.2,21.6,22.9,35.6,31.8c7.6,6.4,12.7,14,19.1,20.3
		c1.3,1.3,5.1,2.5,6.4,2.5c26.7,2.5,52.1-1.3,78.8,1.3c6.4,11.4,11.4,22.9,15.2,35.6c8.9,3.8,19.1,7.6,26.7,15.2
		c-1.3,6.4-1.3,12.7-1.3,19.1c5,0.2,8.7,0.3,11.5,0.3c100.3,2.2,199.4,1,299.7,1c-1.3-6.4,2.5-14-2.5-19.1c-8.9,0-19.1,1.3-27.9,0
		c-12.7-2.5-20.3-12.7-30.5-19.1c0-20.3,0-40.7,0-61c6.4-7.6,15.2-15.2,16.5-26.7c0-8.9,0-16.5,0-25.4c14-10.2,26.7-21.6,41.9-33
		c6.4-5.1,11.4-10.2,17.8-14c8.9-6.4,14-11.4,22.9-17.8c15.2-10.2,5.1-31.8,7.6-48.3c20.3-3.8,39.4,1.3,59.7-2.5
		c-1.3-12.7,1.3-24.1,6.4-35.6c8.9-17.8,15.2-35.6,21.6-54.6c7.6-1.3,17.8-3.8,22.9,5.1c5.1,11.4,10.2,21.6,15.2,31.8
		c2.5,2.5,3.8,5.1,6.4,8.9c10.2,12.7,24.1,19.1,34.3,30.5c24.1,10.2,52.1,3.8,68.6-16.5c0-16.5,1.3-34.3,1.3-50.8
		c0-7.6-1.3-16.5-2.5-24.1c-2.5-15.2-15.2-26.7-20.3-40.7c-2.5-10.2,0-19.1,0-29.2c4.6-3.4,9.1-0.7,13.7-2c0.3,0.1,0.8,0,1.6-0.6
		c0-1.3-1.3-1.3-1.3-2.5c1.3-5.1,1.3-10.2-1.3-15.2c-7.6-12.7-15.2-22.9-24.1-34.3c-3.8-3.8-8.9-6.4-14-5.1
		c-19.1,2.5-36.8,2.5-55.9,2.5c-2.5,0-5.1-1.3-6.4-2.5c-2.4-11-2.6-20.9-4.5-31.9c-0.1-0.4-0.1-0.7-0.2-1.2c0.6,0.4,0.9,0.9,1.2,1.3
		c3.3,3.6,8,7.3,13.7,3.9c0-1.3,1.3-2.5,1.3-2.5c-16.5-21.6-35.6-39.4-49.5-62.2c-5.1-7.6-5.1-16.5-1.3-24.1c1.3,0,3.8,0,6.4,0
		c-1.3-3.8,3.8-6.4,0-10.2c-7.6-5.1-17.8-1.3-26.7-2.5c-2.5-5.1,0-11.4,0-16.5c3.8-1.3,8.9,2.5,12.7,1.3
		c12.7-6.4,17.8-20.3,27.9-30.5c7.6-6.4,17.8-8.9,26.7-3.8c2.5,11.4-2.5,24.1,0,36.8c2.5,7.6,10.2,12.7,11.4,20.3
		c6.1,23.4,1.6,46.7,2.5,70.1c0,0.7,0,1.5,0.1,2.3c6.4,0,12.7,1.3,19.1,0c11.4-3.8,19.1-20.3,33-16.5c15.2,5.1,30.5,8.9,47,7.6
		c3.8,0,6.4,1.3,10.2,2.5c1.3,1.3,2.5,2.5,3.8,3.8c12.7,5.1,22.9,12.7,33,22.9c7.6,8.9,12.7,19.1,21.6,26.7c2.5,1.3,5.1-2.5,5.1-5.1
		c-2.5-12.7-2.5-24.1-1.3-35.6c1.3-5.1-1.3-12.7,6.4-15.2c10.2,6.4,19.1,14,27.9,21.6c6.4,21.6-3.8,41.9-12.7,61
		c6.4,12.7,11.4,25.4,10.2,39.4c-6.4,6.4-16.5,6.4-25,10.7c1.6,2.5,2.9,3.9,3.8,4.6c3.4,4.2,6.7,8.4,8.5,14c1.3,1.3,2.5,2.5,3.8,3.8
		c3.8,10.2,14,16.5,15.2,26.7c3.8,17.8-2.5,34.3,3.8,50.8c0,1.3,7.6-3.8,7.6,0c2.5,16.5,0,31.8,3.8,48.3c3.8,14,7.6,27.9,12.7,41.9
		c3.8,8.9,11.4,17.8,15.2,26.7c1.3,3.8,3.8,8.9,2.5,14c-1.3,7.6-10.2,10.2-14,15.2c0,14,5.1,26.7,1.3,40.7
		c-3.8,8.9-11.4,16.5-15.2,25.4c3.8,8.9,10.2,17.8,16.5,25.4c6.4,3.8,14-2.5,19.1-7.6c3.8-2.5,6.4-1.3,8.9,1.3
		c10.2,12.7,3.8,27.9-5.1,40.7c-1.3,1.3-1.3,3.8-1.3,5.1c5.1,7.6,12.7,11.4,19.1,17.8c1.3,1.3,2.5,1.3,3.8,1.3
		c6.4-1.3,11.4-5.1,16.5-8.9c14-7.6,29.2-10.2,44.5-6.4c3.8,15.2,0,31.8,1.3,47c95.3,0,190.6-1.3,285.8,1.3
		c2.5-17.8-1.3-35.6,1.3-54.6c1.3-8.9-6.4-14-12.7-19.1c-8.9-8.9,0-24.1-6.4-34.3c-19.1-31.8-33-62.2-54.6-94
		c-11.4-15.2-24.1-26.7-36.8-38.1c-2.5-7.6,5.1-16.5,10.2-21.6c10.2-7.6,21.6-8.9,31.8-15.2c12.7,7.6,22.9,20.3,36.8,24.1
		c8.9,3.8,17.8,0,26.7,2.5c6.4,8.9,19.1,16.5,29.2,8.9c0-10.2-2.5-20.3,2.5-29.2c2.5-3.8,7.6-5.1,12.7-3.8
		c20.3,10.2,43.2,16.5,66.1,11.4c0-16.5,0-31.8,0-48.3C3231.4,1546.5,3225.1,1543.9,3220,1543.9z"/>
	<path class="st2" d="M3153.9,978.6C3153.9,989,3160.3,979.7,3153.9,978.6L3153.9,978.6z"/>
	<path class="st2" d="M2734.8,723.7c0.3-0.3,0.6-0.6,1-0.9C2733.4,722.6,2733.9,723.9,2734.8,723.7z"/>
	<path class="st2" d="M2557,436.6C2559.5,432.9,2545.5,422.5,2557,436.6L2557,436.6z"/>
	<path class="st2" d="M2467.3,1321.5c0.7,3.1,1.9,1.8,1,0.1c-0.4-0.4-0.8-0.9-1.2-1.3C2467.2,1320.7,2467.2,1321.1,2467.3,1321.5z"
		/>
	<path class="st2" d="M2412,1207.3C2413.1,1211.6,2418,1206.2,2412,1207.3L2412,1207.3z"/>
	<path class="st2" d="M1225.6,1434.7C1217.3,1434.7,1224.2,1446.2,1225.6,1434.7L1225.6,1434.7z"/>
</g>
<path class="st3" d="M2510.6,280.1l-16.8-14.1l35.2-31.6l-8.3-9.3l-12.9,11.5c-4.6-5.7-9.5-11.8-9.5-11.8l12.9-11l-8.5-6.5
	l-14.4,12.4c0,0-54.6-59.4-57.6-60.8c-3-1.4-70.1-30.6-70.1-30.6l-92.5-13.5c0,0-84.2-47.9-90.8-48.7s-17.8-5.1-17.8-5.1
	s-68.5-41.8-108.2-47.6s-50.5-5.9-55.1-6.4c-4.5-0.4-44.3,8-44.3,8l-7-15.1l-8,3l4,15.5L1931,22l-5-15l-7.6,4v13.2
	c0,0-33.1-0.3-41.1,0s-49.2,9.9-73.3,21.5c-24.1,11.6-46.6,34.4-56.7,40.9s-44.4,48-52.1,50.1s-36.8,43.5-36.8,43.5l-19.3-15.5
	l-3.7,4.8l18.5,17.1c0,0-19.9,42.7-55.3,61.1s-55.2,20.6-55.2,20.6s6.2-22,0-22s-16.7-1.1-16.7-1.1l-6.2-18l-4.5,1.7l6.6,16
	c0,0-2.7,3.6-8.9,2.8s-4.4,6.3-6.6,9.1c-2.2,2.8,0,23.5,0,23.5l-40.1,5.5c0,0,24.5-21,22.9-23.6s-10.5-1.4-12,0
	s-12.9,17.6-15.5,18.1s-76.1,12.2-76.1,12.2s-2.5-24.2-5.6-22.9c-3.1,1.3-5.9,3.9-6.1,4.2c-0.2,0.4,3.5,25.4,3.5,25.4h-24.6
	c0,0-0.3-2.7-4.7-4.9c-4.3-2.2-8.4-8.8-11-8.5s-0.7-20.1,0-30.1s2.6-11.3,0-14s-13.2,9.5-18.2,6.1s-4.6-7.9-8.1-9.3
	c-3.5-1.4-6-11.2-16.7-1s-14.4,13.9-15.2,21.3c-0.8,7.5,1.2,34.8-25.3,39.7c-26.5,4.9-44.5-4.7-49.1-3.9s-17.5,2.5-18.7,0
	c-1.1-2.5,4.8,1.5-1.1-2.5c-6-4,3.2-4.7-10.3-6.7s-26.3-4.9-34.9-5.1c-8.5-0.2-57.5-19.4-64.5-26.7S1061.9,241,1064,239
	s16.7-5.8,19.3-7.6c2.7-1.7,8.6-0.4,2.7-1.7c-6-1.3-14.3,0.1-19.4,1.7c-5.1,1.6-9.3-0.7-11.5-13.5s5.9-24.9,5.9-24.9
	s1.4-4.4-3.3-5.4s-11.3,20.9-11.3,20.9l-10.1-6.2c0,0,8.9-19,5.5-19.7s-6.9-0.7-6.9-0.7l-7.8,14.6l-12.6-5.7c0,0,7.8-16.1,5.2-18.1
	s-6.1,1.3-7.3,3.3s-7.3,14.8-7.3,14.8l-8.9-3.2l4.4-17.6c0,0-5.2-5.3-7.9-2.7c-2.7,2.7-8.5,14.6-8.5,14.6l-9.7-4l3.8-18.6
	c0,0-3.2-4-7.3,0s-6.6,17.2-6.6,17.2l-9.9-4c0,0,5-19.2,2.8-19.2c-2.3,0-7.7,0-7.7,0L946,170l-13.9-0.7l2.9-19.5c0,0-5.5-4.2-7.7,0
	s-6.4,14.2-6.4,14.2l-9.1-4c0,0,4.3-13.9,1.8-15.2s-40.1,35.1-40.1,35.1s-27.3-13.9-33.9-13.3c-6.6,0.7,0-8,0-8s11.3,2.7,12.6-2
	c1.3-4.6-0.4-9.9-5.5-9.9s-7.1-2-7.1-2l3.9-9.9c0,0,16.7,4.6,12.4-2c-4.3-6.6-46.8-12.9-46.8-12.9s4,6.9,5.6,7.6
	c1.7,0.7,21.2,4.6,21.2,4.6v9.3c0,0-14.2-3.3-24.2-3.3c-9.9,0-9.8,5.3-9.8,5.3s15.4,4.1,15.9,6.4c0.5,2.2,3.5,10.9,0,12.2
	s-23.5-8-23.5-8s-11.3-18.6-17.5-21.9c-6.2-3.3-96.5-27.2-101.1-27.2S561,101.8,561,101.8l-34.8,6.8c0,0-0.6,0.2-1.7,0.5l-1.9-8.4
	l-2.6,0.6l1.9,8.5c-2,0.6-4.6,1.3-7.7,2.2l-1.7-7.8l-2.6,0.6l1.8,7.9c-7.8,2.2-18.1,5.1-28.8,8.1v-7.3h-2.7v8.1
	c-6.3,1.7-12.6,3.5-18.7,5.2l-1.5-6.7l-2.6,0.6l1.5,6.8c-6.5,1.8-12.5,3.5-17.8,4.9l-1.7-7.7l-2.6,0.6l1.7,7.9
	c-8.7,2.3-14.6,3.9-15.3,3.9c-3,0-61.7-8.6-62.8-6.6c-1.1,2,0,6.6,0,6.6l62.8,8V168c0,0-46.8-9.9-49.1-6.6
	c-2.3,3.3-103.1,102-105,102.4c-2,0.4-44.4,10.1-46.4,9.9s-53.4,21.9-53.4,21.9l-5.5-7.5l26.9-29.1c0,0-3.7-8-6.4-6
	s-31.8,37.6-31.8,37.6l9.3,13.8l-90.8,59l-24.3,19.9c0,0,23-16.9,35.5-19.9c12.6-3,16.6-9,30.3-9.3c13.7-0.4,8.8-2.3,18.8,0.8
	c9.9,3,16.2-29.4,38-36.8c21.9-7.4,28.3-5.5,48.8-3.7c20.5,1.7,9.1-3.6,29.6-1.6s20.2,6.5,22.8,7.5c2.7,1,12.1,7.2,22,4.9
	c7.1-1.7,25.8,1.2,27.9-6.2c4.2-14.9,11.3-3.7,19.8-10.4c12.2-9.6,8-31.4,20.3-44.4c5.9-6.3-12.2-21.1,0-32.4
	c2-1.9,3.3,3.9,12.2,3.7c8.9-0.1,8.9-15.6,7.9-22.2c-0.9-6.6-7-17.4,0-15.9c22.6,4.7,4.8-14.5,20-14.9c9.8-0.2,12.2,20.9,18.8,21.4
	c6.6,0.5,14.6,0.6,31.5,2.3c16.9,1.6,11.4-24.5,56.8-21.1c21.2,1.5,20.6-2.8,26.2-2.8c5.6,0,6.3,0.7,24.2-10
	c17.9-10.6,21.2-2,28.5,3.8c7.3,5.7,35.2,4.9,65.3,4.2s10.5-15.3,29.2-13.4c18.7,1.8,16.1,8.8,27,15.4c10.9,6.6,30.1,18,42.9,28.1
	c12.8,10.1,27.1-2.5,32.6-1.3c5.4,1.2,7.1,6,7.1,14.1s18.6,12.5,18.6,12.5c8.1,4.3,24.4-10.2,32.8-11.7c8.4-1.5,4.8,2.9,14,10
	c9.2,7,18.9,4.8,26,5.5s8.4,7.3,13.9,12.7c5.5,5.4,20.1,37.7,21.5,42.6s7.4,6.7,12.1,9.6c4.7,2.9,0.1,15.3,3.1,18.7
	c2.9,3.5,30.3,33,33.4,36.1c3.1,3,31.5,0.3,34.9,1.4c3.3,1.2,4.6,3.5,11.8-1.4s14.1-12.8,26.6-14.8s10-0.2,16.1,1.5
	c6.2,1.7,5.9,16.6,5.9,16.6s7.2,0.9,18.8,5.4c11.6,4.5-7.8,12.8-7.8,12.8s13.1-4.3,18.1-3.4c5,0.8,19.8,6.4,23.6,10.1
	c3.8,3.7,2.2,10.6,4.6,14s0,0,8.9,2.1s0,10.3,0,10.3s11.3-9.9,17.3-8.9c6.1,1,7.8-14.9,11.6-14.8c3.8,0.2,2.2,5.1,9.9,11.2
	c7.7,6.1,4.2,7.1,6.8,9.2s5.2,3.7,8.3,6c3.1,2.3,6.3,9.2,11.5,16.5c5.1,7.3,21.4,14.3,29.2,17c7.8,2.7,25.2,19.4,29.7,21.3
	s20.1,16.1,25.5,19.6c5.3,3.5,18.5,4.5,35.5,6.6c7.1,0.8,11.3,3.9,13.6,6.7c-2-4.8-3.6-9.6,3-15.3c8.3-7.1,13.5-32.7,13.8-36.1
	c0.2-3.4,3.8,1.5,9.6,1.8c5.9,0.3,4.7-3,10.1-5.7c5.3-2.7,0,0,6.3-0.7s36.8-9.1,41.9-16.4s-5.3-8.9-8.9-11.5s2.1-2.8,5.9-5.6
	c3.8-2.9,7.1,4.4,15.2,3.1c8.1-1.4,5.8-11.9,12.4-11c6.5,0.9,25.7-4.6,25.7-4.6l9.7,40c2.2,5.4,12.4,17.5,19.7,16.8
	c7.3-0.7,8-7.4,10.5-11.7c2.5-4.3,11.6-11.6,19.8-18.2c8.2-6.7,2.2-4.7,8.5-13s9.2-10.7,9.6-13.9c0.4-3.2-5-30.2-8.1-31.3
	s7.4-17.4,8.1-22.7c0.7-5.3,5.2-25.8,4.8-29.3c-0.4-3.5,3.1-5.1,9.1-4.1c0.2,0,0.4,0.1,0.5,0.2c5.8,2.5,10.3,29.6,14.5,38.8
	c4.3,9.5,30,23.7,44.6,25.3c14.6,1.7,51,13.2,51,13.2s42.4-18.2,53.4-20.2s22.2,0,28.2-4c6-4.1-4-27.1-4-31s15.2-33.8,16.7-40.6
	c1.4-6.8-23.3,10.7-29.9,6.2c-6.6-4.6-13.2-46.3-12.9-58.2c0.3-11.9,2.7-12.8,2.7-12.8s1.4-1.3,3.6-3c0.2-0.6,0.3-0.8,0.3-0.8
	s6.1-5.1,12.5-7.9c6.3-2.8,9.8-6.8,15.1-14.8s-13.8-19.5-11.9-24.2s15.9-34.8,21.2-38.7c5.3-3.9,16.6-9.3,19.6-13.3
	s24.8-20.6,30.5-24.2s16.2-3.1,27-2.4s20.4,7.3,28.7,13.1c8.4,5.8,16.1,0.2,23.4,0s14.6-8.4,24.9-10.7c10.3-2.2,16.9-9,26.8-15.6
	S2040.4,66,2052,67.3c11.5,1.3,66.7,10.6,70,13.9s9.9,18.6,12.6,22.5c2.7,4,4.6,6.6,11.3,11.7c6.6,5.1,6.6,40,7.3,48.3
	s11.3,20.2,20.1,28.6c8.9,8.4-2.8,10.5,0,17.1c2.8,6.5,27.6,22.2,30.2,18.4c2.7-3.8-1.3-16.1,7.8-21.7c9.1-5.6,17.4,6.1,17.4,6.1
	s12.6,10.8,23.2,6s19.9-15.8,34-17.8s62.1,1.3,65.3-4s-1.9-12.6,0-14.6s24-6.6,27-3.3s11.6,9.9,14.4,17.9c2.8,8,4.5,31.6,7.1,39.9
	c2.7,8.3,13.9,19.8,17.2,21s0,35.7,0,39.1s15.8,27.9,23.2,31.2c7.4,3.3,57.7,27.3,57.8,27.3s29.4,44.3,34.4,51.8
	c8.2,10.4,16.4,20.7,25.2,30.5c-11.5-14.1,2.5-3.7,0,0c3.2-2.7,5.9-6.8,9.4-9.1c0.5-1.7,1.2-2.6,3.9-1.6l0,0c0.9-0.1,1.9-0.2,3,0
	c1,0.3,2,1,2.9,1.7c3,0.7,6.1,1,8.5,0.8c2-2.3,3.5-4.9,4.4-7.4c0.2-4.4,0.1-9.6-1.1-12.8c-1.6-3.9-3.4-7.9-2-11.4
	c6.4-12.7,10.2-26.7,17.8-39.4c1.2-1.2,5.5,0.9,7.2,0.2c0.7-0.9,1.3-2.1,1.7-3.4l0,0c0.1-0.4,0.2-0.8,0.3-1.2
	c0.6-3.3,0.2-6.8-0.1-10.2c-0.3-2.6-0.7-5.1-0.5-7.6c0.1-0.8,0.4-1.5,0.9-2.3c0.4-1.2,1-2.4,1.9-3.5c3-3,7-4.8,11.3-5.4
	c2.6-1.2,4.6-1.9,4.6-1.9L2510.6,280.1z M1682.4,220.4c-2.2-8.5,6.9,0,6.9,0l-1.8,18c-0.8,0.9-10.2,4.4-10.2,4.4
	S1684.6,228.8,1682.4,220.4z M1602.9,258.6c26-19,48.5-36.7,74.2-61.2c1.6,1.3-5.6,36.8-11.2,44.3c-7.2,9.7-19.8,16.6-31.7,19.4
	c-9.7,2.3-32.5,2.4-33.2,1.3C1600.3,261,1601.7,259.6,1602.9,258.6z M1470.8,297.9h13.9c-4.8,1.5-13.9,6.5-13.9,6.5V297.9z
	 M1387.9,324.9l4.8-3.6v9.8c-2.2-0.4-7.8,0-7.8,0L1387.9,324.9z M1536,306.9l11.6-14.5l-8.6-8.9l50.6-14.1l-12.8,8.5
	c0,0,0,0-2.3,7.8C1572.2,293.5,1536,306.9,1536,306.9z M1810.7,62.5l-2.8,6.7l-24.9,5.7c0,0,6.5-6.6,17.9-13.6s21.9-11.2,21.9-11.2
	l4,8.7L1810.7,62.5z M1993.9,23.1l-103.4,20.8l-2-7.4h27.3l78-16.4L1993.9,23.1L1993.9,23.1z M2014.4,26h-11.1c0,0-1.5-6.5,2-6
	C2008.5,20.5,2012.2,25.7,2014.4,26h0.5C2014.8,26.1,2014.6,26.1,2014.4,26z M2036.9,32l-11.7-4v-8l16.9,8
	C2041.1,29.5,2036.9,32,2036.9,32z M2494.6,298.2c2-5,7.3-5.6,10.1-5.8s0,3.4,0,3.4l-7.3,8.3
	C2497.4,304.1,2492.6,303.2,2494.6,298.2z"/>
<polygon class="st3" points="5.5,300.4 5.5,270.6 31.2,246.3 74.3,261.9 93.1,278.9 93.1,304.5 68.3,317.4 34.4,317.4 13.3,329.8 
	0,317.4 "/>
<polygon class="st3" points="115.1,246.3 133.9,246.3 140.3,266 136.7,283 121.5,283 112.3,262.3 "/>
<g>
	<g>
		<defs>
			<path id="SVGID_1_" d="M3219.5,1544c-6.4,1.3-10.2,6.4-14,10.2c-2.5,2.5-5.1,3.8-7.6,3.8c-14,1.3-27.9-2.5-41.9,2.5
				c-2.5,1.3-5.1,2.5-8.9,3.8c-3.8,1.3-5.1,6.4-8.9,5.1c-6.4-1.3-11.4-8.9-19.1-10.2c-7.6-2.5-16.5-1.3-24.1-1.3
				c-5.1-7.6-15.2-10.2-24.1-8.9c-6.4-5.1-12.7-12.7-15.2-20.3c-2.5-3.8,2.5-8.9,5.1-12.7c10.2-12.7,15.2-26.7,14-41.9
				c0-2.5,2.5-5.1,3.8-6.4c7.6-5.1,15.2-10.2,17.8-19.1c1.3-5.1-1.3-10.2-3.8-15.2c-3.8-3.8-10.2-3.8-12.7-8.9
				c-3.8-6.4-1.3-12.7-1.3-19.1c-7.6-3.8-16.5,2.5-24.1,0c-3.8-7.6,1.3-16.5-2.5-24.1c-7.6-2.5-15.2-3.8-21.6-10.2
				c6.4-11.4,7.6-24.1,15.2-35.6c3.8-6.4,3.8-14-3.8-19.1c-26.7-19.1-49.5-38.1-68.6-66.1c-1.3-1.3-2.5-1.3-3.8-2.5
				c-2.5-2.5-3.8-5.1-3.8-7.6c0-5.1,0-11.4,0-16.5c-1.3-14-6.4-27.9-8.9-41.9c3.8-5.1,5.1-10.2,7.6-15.2c5.1-5.1,12.7-1.3,16.5,3.8
				c2.5,5.1,1.3,12.7,5.1,17.8c1.3,1.3,3.8,2.5,5.1,2.5c6.4,0,12.7-1.3,19.1-1.3c6.4,0,10.2-5.1,16.5-6.4
				c5.1-2.5,10.2-7.6,11.4-12.7c1.3-12.7,0-24.1,0-36.8c6.4-2.5,12.7,2.5,19.1,0c3.8-2.5-1.3-7.6,0-11.4c8.9-1.3,16.5-11.4,24.1-5.1
				c6.4,6.4,8.9,19.1,19.1,20.3c6.4,0,12.7,2.5,17.8-1.3c5.1-5.1,6.4-12.7,8.9-20.3c0-1.3,1.3-2.5,2.5-3.8c3.8-7.6,1.3-14-1.3-21.6
				c-5.1-8.9-15.2-20.3-6.4-29.2c2.5-2.5,3.8-5.1,6.4-8.9c8.9-11.4,21.6-20.3,24.1-34.3c2.3-11.7,1.5-24.5,1.3-36.4
				c1.1,5.5,5.3-1.6,0-2.8c0-0.1,0-0.2,0-0.2c10.2,1.3,20.3-1.3,21.6-11.4c2.5-8.9,3.8-19.1,0-27.9c-1.3-1.3-5.1-2.5-6.4-5.1
				c-1.3-1.3-1.3-3.8-2.5-5.1c-14-12.7-20.3-30.5-22.9-48.3c0-2.5,1.3-6.4,2.5-8.9c7.6-10.2,11.4-20.3,20.3-27.9
				c10.2,0,21.6,0,31.8-1.3c1.3-7.6,2.5-14-3.8-20.3c-30.5-29.2-61-55.9-92.7-82.6c-6.4,0-14-2.5-20.3,1.3
				c-3.8,3.8-6.4,7.6-8.9,11.4c5.1,5.1,10.2,8.9,11.4,16.5c0,3.8-1.3,7.6-3.8,10.2c-14,16.5-24.1,35.6-41.9,48.3
				c-6.4,2.5-16.5,6.4-20.3-1.3c2.5-7.6,1.3-15.2-1.3-21.6c-11.4-20.3-24.1-38.1-34.3-57.2c-11.4-11.4-27.9-16.5-40.7-25.4
				c-7.6,3.8-14,10.2-21.6,14c-8.9,5.1-19.1,3.8-29.2,3.8c-3.8,0-6.4,2.5-8.9,5.1c-1.3,2.5-3.8,5.1-6.4,6.4
				c-1.3,1.3-1.3,2.5-2.5,3.8c-29.2,16.5-57.2,30.5-86.4,43.2c-6.4,2.5-12.7,3.8-19.1,3.8c-2.5,0-6.4-1.3-8.9-2.5
				c-12.7-8.9-21.6-20.3-34.3-26.7c-2.5-1.3-3.8-5.1-6.4-7.6c-1.3-3.8-2.5-7.6-3.8-11.4c-1.3-6.4-5.1-12.7-2.5-17.8
				c2.5-8.9,14-17.8,24-13.2c-0.3,0.6-0.7,0.9-1,0.9c0.3-0.3,0.5-0.5,0.9-0.8c-2.4-0.2-1.9,1.1-1,0.9c0,0,0.1-0.1,0.1-0.1
				c-2.9,2.9-3.8,6.3-2.6,9.8c1.3,2.5,0,7.6,5.1,7.6c3.8-1.3,6.4-7.6,11.4-7.6c2.5,1.3,3.8,3.8,5.1,6.4c0,2.5-1.3,5.1-5.1,7.6
				c-2.5,2.5-2.5,5.1,0,8.9c5.1,6.4,14,3.8,20.3,3.8c3.8-10.2,10.2-19.1,12.7-30.5c-8.9-7.6-21.6-12.7-25.4-22.9
				c-5.1-11.4,5.1-20.3,8.9-30.5c1.3-6.4-1.3-14,3.8-19.1c3.8-2.5,6.4-6.4,7.6-11.4c1.3-10.2-2.5-21.6,2.5-30.5
				c5.1-7.6,12.7-14,12.7-22.9c0-10.2-1.3-19.1,5.1-27.9c8.9-10.2,16.5-20.3,24.1-31.8c7.6-2.5,16.5,1.3,22.9-2.5
				c5.1-2.5,1.3-11.4,2.5-17.8c-17.8-2.5-36.8,2.5-54.6-1.3c-5.1-12.7-14-21.6-21.6-33c-10.2-14-26.7-27.9-16.5-45.7
				c14-7.6,27.9-15.2,40.7-25.4c1.3-1.3,2.5-3.8,2.5-5.1c-1.3-8.9,0-17.8-2.5-26.7c-8.9-5.1-16.5-12.7-26.7-16.5
				c-3.8-1.3-6.4-3.8-8.9-6.4c-3.8-2.5-7.6-2.5-10.2-5.1c-2.5-2.5-5.1-5.1-8.9-6.4c-2.5-2.5-5.1-5.1-7.6-7.6
				c-7.6-12.7-17.8-19.1-26.7-29.2c-3.8-6.4-8.9-8.9-12.7-15.2c-6.4,5.1-14,8.9-15.2,16.5c0,12.7,1.3,25.4-8.9,34.3
				c-11.4,2.5-19.1-6.4-27.9-12.7c-7.6-5.1-19.1-3.8-25.4,2.5c-6.4,7.6,1.3,19.1-3.8,27.9c-1.3,1.3-6.4-1.3-7.6,0
				c-7.6,12.7-11.4,26.7-17.8,39.4c-2.5,6.4,5.1,14,3.8,20.3c0,3.8-2.5,8.9-6.4,12.7c-3.8,2.5-6.4-2.5-10.2-3.8
				c-7.5-1.3-11.3,6.2-16.2,10.4c1.4-3.8-10.1-12.4-1.6-1.4c-8.3-9.3-16.1-19.1-23.8-28.9c-5-7.5-34.3-51.8-34.4-51.8
				c-0.1,0-50.4-24-57.8-27.3c-7.4-3.3-23.1-27.8-23.2-31.2c0-3.4,3.3-37.9,0-39.1c-3.3-1.2-14.6-12.7-17.2-21
				c-2.7-8.3-4.3-31.9-7.1-39.9s-11.4-14.6-14.4-17.9s-25.1,1.3-27,3.3s3.2,9.3,0,14.6s-51.3,2-65.3,4c-14.1,2-23.4,13-34,17.8
				c-10.6,4.7-23.2-6-23.2-6s-8.3-11.7-17.4-6.1c-9.1,5.6-5.1,17.9-7.8,21.7s-27.4-11.8-30.2-18.4c-2.8-6.5,8.9-8.6,0-17.1
				c-8.9-8.4-19.5-20.3-20.1-28.6c-0.7-8.3-0.7-43.2-7.3-48.3s-8.6-7.7-11.3-11.7s-9.3-19.2-12.6-22.5c-3.3-3.3-58.5-12.6-70-13.9
				s-102.3,15.3-112.3,21.9c-9.9,6.6-16.6,13.4-26.8,15.6c-10.3,2.2-17.6,10.5-24.9,10.7s-15.1,5.8-23.4,0
				c-8.4-5.8-17.9-12.4-28.7-13.1c-10.8-0.7-21.3-1.2-27,2.4c-5.7,3.6-27.5,20.3-30.5,24.2s-14.3,9.3-19.6,13.3
				c-5.3,3.9-19.3,34-21.2,38.7c-1.9,4.7,17.2,16.3,11.9,24.2c-5.3,8-8.8,11.9-15.1,14.8c-0.2,0.1-0.4,0.2-0.6,0.3
				c-6.1,2.9-11.8,7.6-11.8,7.6s-0.1,0.2-0.3,0.8c-2.1,1.7-3.6,3-3.6,3s-2.4,0.9-2.7,12.8c-0.3,11.6,6,51.7,12.4,57.8
				c0.2,0.2,0.3,0.3,0.5,0.4c6.6,4.6,31.3-12.9,29.9-6.2c-1.4,6.8-16.7,36.6-16.7,40.6s10.1,27,4,31c-6,4.1-17.2,2-28.2,4
				s-53.4,20.2-53.4,20.2s-36.4-11.5-51-13.2c-14.6-1.7-40.3-15.9-44.6-25.3c-4.2-9.2-8.7-36.3-14.5-38.8c-0.2-0.1-0.3-0.1-0.5-0.2
				c-6-1-9.5,0.6-9.1,4.1c0.4,3.5-4.1,24-4.8,29.3c-0.7,5.3-11.1,21.6-8.1,22.7c3.1,1.1,8.5,28.1,8.1,31.3
				c-0.4,3.2-3.3,5.7-9.6,13.9c-6.3,8.3-0.3,6.3-8.5,13c-8.2,6.7-17.3,14-19.8,18.2c-2.5,4.3-3.2,10.9-10.5,11.7
				c-7.3,0.7-17.5-11.4-19.7-16.8l-9.7-40c0,0-19.1,5.5-25.7,4.6c-6.5-0.9-4.3,9.6-12.4,11c-8.1,1.4-11.4-5.9-15.2-3.1
				c-3.8,2.9-9.5,3-5.9,5.6c3.6,2.6,14,4.2,8.9,11.5c-5.1,7.3-35.6,15.6-41.9,16.4s-0.9-1.9-6.3,0.7c-5.3,2.7-4.2,6-10.1,5.7
				c-5.9-0.3-9.4-5.2-9.6-1.8c-0.2,3.4-5.4,29-13.8,36.1c-6.6,5.6-5,10.5-3,15.3c-2.3-2.8-6.5-5.8-13.6-6.7
				c-16.9-2-30.2-3.1-35.5-6.6s-21-17.7-25.5-19.6c-4.5-1.9-21.9-18.6-29.7-21.3c-7.8-2.7-24.1-9.7-29.2-17
				c-5.1-7.3-8.4-14.2-11.5-16.5c-3.1-2.3-5.7-3.9-8.3-6c-2.6-2,0.9-3-6.8-9.2c-7.7-6.1-6.1-11-9.9-11.2
				c-3.8-0.2-5.5,15.8-11.6,14.8c-6.1-1-17.3,8.9-17.3,8.9s8.9-8.3,0-10.3c-8.9-2.1-6.5,1.3-8.9-2.1c-2.4-3.4-0.8-10.3-4.6-14
				s-18.6-9.3-23.6-10.1s-18.1,3.4-18.1,3.4s19.4-8.4,7.8-12.8c-11.6-4.5-18.8-5.4-18.8-5.4s0.3-15-5.9-16.6
				c-6.2-1.6-3.7-3.5-16.1-1.5c-12.5,2-19.4,9.9-26.6,14.8c-7.2,4.9-8.5,2.6-11.8,1.4c-3.3-1.2-31.8,1.6-34.9-1.4
				c-3.1-3-30.4-32.6-33.4-36.1c-2.9-3.5,1.7-15.8-3.1-18.7c-4.7-2.9-10.7-4.7-12.1-9.6c-1.4-4.9-16-37.2-21.5-42.6
				c-5.5-5.4-6.8-12-13.9-12.7c-7.1-0.7-16.8,1.5-26-5.5s-5.6-11.5-14-10s-24.7,16-32.8,11.7c0,0-18.6-4.4-18.6-12.5
				c0-8.1-1.7-12.8-7.1-14.1c-5.5-1.2-19.8,11.4-32.6,1.3c-12.8-10.1-32-21.5-42.9-28.1c-10.9-6.6-8.3-13.6-27-15.4
				c-18.7-1.8,0.9,12.7-29.2,13.4c-30.1,0.7-58,1.5-65.3-4.2s-10.6-14.4-28.5-3.8c-17.9,10.6-18.6,10-24.2,10c-5.6,0-5,4.4-26.2,2.8
				c-45.3-3.3-39.8,22.8-56.8,21.1c-16.9-1.6-24.9-1.7-31.5-2.3c-6.6-0.5-9-21.6-18.8-21.4c-15.2,0.4,2.6,19.6-20,14.9
				c-7-1.4-0.9,9.3,0,15.9c0.9,6.6,0.9,22.1-7.9,22.2c-8.9,0.1-10.2-5.6-12.2-3.7c-12.2,11.3,5.9,26.2,0,32.4
				c-12.2,13-8.1,34.8-20.3,44.4c-8.5,6.7-15.6-4.5-19.8,10.4c-2.1,7.4-20.8,4.5-27.9,6.2c-9.9,2.4-19.3-3.9-22-4.9
				s-2.3-5.5-22.8-7.5c-20.5-2-9,3.3-29.6,1.6c-20.5-1.7-26.9-3.7-48.8,3.7c-21.9,7.4-28.1,39.9-38,36.8c-9.9-3-5.1-1.1-18.8-0.8
				c-13.7,0.4-17.7,6.3-30.3,9.3c-12.6,3-35.5,19.9-35.5,19.9s-2.2,9.6-10.2,16.9c-8,7.3-12.6,22.5-10.6,27.2
				c2,4.6,5.3,3.3,2.7,13.9c-2.7,10.6-0.7,11.9,0,19.9c0.7,8-6.2,19.2-3.1,37.1c3.1,17.9-0.9,23.9,10.4,27.8
				c11.3,4,9.3,1.3,21.9,20.5c0,0,25.1,35,35.5,39.6c10.4,4.6,10.2,14.2,19.3,12.4c9-1.8,26.1-6.5,28,1.8c1.9,8.3-2.6,12.5,7.9,10.4
				c10.4-2.1-9-6.4,26.8-9.1c35.8-2.7,37.3-6.9,40.3,7.6c3,14.4-1.5,26.3,0,36.8s-3,19.7,10.4,19.7c13.4,0,17.9-1.8,20.9,17.6
				c3,19.4,6,26.3,7.5,46c1.5,19.6-3,21.1-6,36c-3,14.9-8.9,17.9-1.5,28.3c7.5,10.4,0,26.8,14.9,25.4c14.9-1.5,25.6,1.5,30,6
				c4.3,4.5,8.6,13.4,14.7,6c6.1-7.5-7.8,1,14.1-20.1c13.3-12.9,17-17.1,17.8-18.4c0.5,2.9,3.6,17,11.2,18.4c8.5,1.6,9.9-0.4,8,12.9
				c-2,13.3-3.3,27.8,8,39.1s29.8,14.6,31.8,53s8,35.2-5.3,56.4s-22.5,31.8-24.5,39.1s4,49,13.9,53c9.9,4,9.9,4,14.6,0
				c4.6-4-2-14.6,12.6,0c14.6,14.6,6.6,11.9,11.9,18.6c5.3,6.6,2.5,7.3,11.5,18.6s28.7,39.1,40.1,40.4c11.4,1.3,9.4,9.9,25.3,3.3
				c15.9-6.6,10.6-7.3,12.6-22.5s10.5-33.7,14.9-37.1c4.4-3.4,16.3-10,16.3-10s7,28.8,30.7,41.3c23.7,12.4,51.5,18.4,81.4,15.7
				c29.8-2.7,17.2-2,29.8,0.7s9.3,7.3,23.2,1.3s25.1-10.6,25.1-10.6s6,4,17.3,8s13.3,14.9,36.5,15.7c23.2,0.8,20.5-1.2,31.8-5.8
				c11.3-4.6,2.9-6.1,21.3-8c18.4-1.9,35-9.6,44.3,1.4c2.4,2.9,4.2,5,5.5,6.5c-2-3.4-3.1-8.3,2.7-12.7c10.3-7.8,20.4-17,26-5.8
				c5.6,11.3,6.2,39.1,8.9,44.4s4.6,8.6,13.9,7.3c9.3-1.3,55-25.2,72.2-25.8c17.2-0.7,35.7,8.5,38.8,7.6c3.1-0.9,7.4-2.2,14.5-4.4
				c7.1-2.1,7.7-1.2,18.3,1.4c10.6,2.7,20.5,3.3,33.1,3.3c12.6,0,27.8,0,36.5-4c8.6-4,4.6-3.4,22.5-8.3c17.9-5,27.8-16.9,27.8-16.9
				s4,19.9-4,27.2c-8,7.3-11.9,11.3-23.2,11.3c-11.3,0-24.5,0.7-24.5,0.7s-2.7,7.3-25.2,16.6s-27.4,11.2-37.8,7.3
				c-10.4-3.9-11.3-4.6-32.5-5.3s-23.9-4.6-31.2,4c-7.3,8.6-21.9,26.5-19.2,25.2s26.5,13.3,35.8,8s21.1-15.1,27.8-15.1
				c6.7,0,3.4-0.2,12.6,5.1c9.3,5.3,33.8,19.2,45.7,29.8c11.9,10.6,9.7,12.9,18.6,13.3c8.8,0.4,9.9,17.9,18.6,22.9
				c8.6,5,13.9-8.3,9.9,12.9c-4,21.2,0,50.4-1.3,53c-1.3,2.7-8,42.7-8,42.7c0.8,1.8,2.1,3,3.4,4.3c8.9,15.2,12.7,31.8,25.4,43.2
				c10.2,0,21.6,0,31.8,0c0,8.9,2.5,19.1-2.5,26.7c-7.6,8.9-15.2,17.8-24.1,25.4c0,12.7,7.6,22.9,12.7,34.3c1.3,1.3,3.8,2.5,5.1,2.5
				c8.9-1.3,17.8-2.5,25.4,2.5c1.3,1.3,2.5,2.5,3.8,3.8c17.8,10.2,38.1,16.5,53.4,31.8c1.3,2.5,3.8,3.8,6.4,6.4
				c1.3,2.5,2.5,5.1,5.1,6.4c2.5,1.3,6.4,2.5,8.9,2.5c16.5-5.1,24.1-21.6,36.8-31.8c14-54.6,12.7-114.3,39.4-165.1
				c19.1-24.1,36.8-47,57.2-69.9c15.2-26.7,26.7-54.6,39.4-82.6c19.1-3.8,38.1,2.5,55.9-5.1c5.1-2.5,8.9-5.1,15.2-6.4
				c2.5-1.3,3.8-3.8,6.4-5.1c20.3-3.8,39.4,0,59.7-1.3c8.9,5.1,15.2,11.4,22.9,17.8c2.5,2.5,6.4,3.8,10.2,6.4
				c2.5,1.3,3.8,3.8,5.1,6.4c2.5,16.5-5.1,31.8-15.2,45.7c-6.4,10.2-10.2,19.1-15.2,29.2c2.5,19.1,8.9,35.6,15.2,53.4
				c19.1,19.1,36.8,38.1,57.2,57.2c1.3,1.3,3.8,2.5,6.4,2.5c17.8,0,35.6,1.3,53.4-1.3c7.6-11.4,15.2-21.6,25.4-31.8
				c1.3-1.3,3.8-2.5,6.4-1.3c8.9,3.8,17.8,11.4,26.7,15.2c5.1,1.3,8.9,3.8,14,6.4c1.3,1.3,3.8,0,5.1,1.3
				c19.1,12.7,29.2,31.8,44.5,48.3c2.5,3.8,5.1,8.9,7.6,12.7c-11.4,31.8-5.1,64.8-6.4,97.8c-15.2,5.1-29.2,11.4-40.7,22.9
				c-2.5,2.5-3.8,7.6-2.5,10.2c2.5,7.6,11.4,11.4,12.7,20.3c3.8,26.7,1.3,53.4,1.3,80c0,2.5-3.8,2.5-6.4,3.8c-1.3,0-1.3,1.3-2.5,2.5
				c-1.3,0-2.5,1.3-3.8,1.3c-1.3,1.3-1.3,2.5-2.5,2.5c-14-2.5-27.9-7.6-41.7-9.2c-2.7,6.6-2.7,13,2.3,18.1
				c12.7,10.2,21.6,22.9,35.6,31.8c7.6,6.4,12.7,14,19.1,20.3c1.3,1.3,5.1,2.5,6.4,2.5c26.7,2.5,52.1-1.3,78.8,1.3
				c6.4,11.4,11.4,22.9,15.2,35.6c8.9,3.8,19.1,7.6,26.7,15.2c-1.3,6.4-1.3,12.7-1.3,19.1c5,0.2,8.7,0.3,11.5,0.3
				c100.3,2.2,199.4,1,299.7,1c-1.3-6.4,2.5-14-2.5-19.1c-8.9,0-19.1,1.3-27.9,0c-12.7-2.5-20.3-12.7-30.5-19.1c0-20.3,0-40.7,0-61
				c6.4-7.6,15.2-15.2,16.5-26.7c0-8.9,0-16.5,0-25.4c14-10.2,26.7-21.6,41.9-33c6.4-5.1,11.4-10.2,17.8-14
				c8.9-6.4,14-11.4,22.9-17.8c15.2-10.2,5.1-31.8,7.6-48.3c20.3-3.8,39.4,1.3,59.7-2.5c-1.3-12.7,1.3-24.1,6.4-35.6
				c8.9-17.8,15.2-35.6,21.6-54.6c7.6-1.3,17.8-3.8,22.9,5.1c5.1,11.4,10.2,21.6,15.2,31.8c2.5,2.5,3.8,5.1,6.4,8.9
				c10.2,12.7,24.1,19.1,34.3,30.5c24.1,10.2,52.1,3.8,68.6-16.5c0-16.5,1.3-34.3,1.3-50.8c0-7.6-1.3-16.5-2.5-24.1
				c-2.5-15.2-15.2-26.7-20.3-40.7c-2.5-10.2,0-19.1,0-29.2c4.6-3.4,9.1-0.7,13.7-2c0.3,0.1,0.8,0,1.6-0.6c0-1.3-1.3-1.3-1.3-2.5
				c1.3-5.1,1.3-10.2-1.3-15.2c-7.6-12.7-15.2-22.9-24.1-34.3c-3.8-3.8-8.9-6.4-14-5.1c-19.1,2.5-36.8,2.5-55.9,2.5
				c-2.5,0-5.1-1.3-6.4-2.5c-2.3-10.4-2.6-19.8-4.2-30c0.1-0.3,0-0.7-0.2-1.1c0-0.3-0.1-0.5-0.1-0.8c-0.1-0.4-0.1-0.7-0.2-1.2
				c0.6,0.4,0.9,0.9,1.2,1.3c3.3,3.6,8,7.3,13.7,3.9c0-1.3,1.3-2.5,1.3-2.5c-16.5-21.6-35.6-39.4-49.5-62.2
				c-5.1-7.6-5.1-16.5-1.3-24.1c1.3,0,3.8,0,6.4,0c-1.3-3.8,3.8-6.4,0-10.2c-7.6-5.1-17.8-1.3-26.7-2.5c-2.2-4.5-0.5-10-0.1-14.7
				c1.4,0.6,3.2-1.9,0.1-1.7c0,0,0,0,0-0.1c3.8-1.3,8.9,2.5,12.7,1.3c12.7-6.4,17.8-20.3,27.9-30.5c7.6-6.4,17.8-8.9,26.7-3.8
				c2.5,11.4-2.5,24.1,0,36.8c2.5,7.6,10.2,12.7,11.4,20.3c6.1,23.4,1.6,46.7,2.5,70.1c0,0.7,0,1.5,0.1,2.3c6.4,0,12.7,1.3,19.1,0
				c11.4-3.8,19.1-20.3,33-16.5c15.2,5.1,30.5,8.9,47,7.6c3.8,0,6.4,1.3,10.2,2.5c1.3,1.3,2.5,2.5,3.8,3.8
				c12.7,5.1,22.9,12.7,33,22.9c7.6,8.9,12.7,19.1,21.6,26.7c2.5,1.3,5.1-2.5,5.1-5.1c-2.5-12.7-2.5-24.1-1.3-35.6
				c1.3-5.1-1.3-12.7,6.4-15.2c10.2,6.4,19.1,14,27.9,21.6c6.4,21.6-3.8,41.9-12.7,61c6.4,12.7,11.4,25.4,10.2,39.4
				c-6.4,6.4-16.5,6.4-25,10.7c1.6,2.5,2.9,3.9,3.8,4.6c3.4,4.2,6.7,8.4,8.5,14c1.3,1.3,2.5,2.5,3.8,3.8c3.8,10.2,14,16.5,15.2,26.7
				c3.8,17.8-2.5,34.3,3.8,50.8c0,1.3,7.6-3.8,7.6,0c2.5,16.5,0,31.8,3.8,48.3c3.8,14,7.6,27.9,12.7,41.9
				c3.8,8.9,11.4,17.8,15.2,26.7c1.3,3.8,3.8,8.9,2.5,14c-1.3,7.6-10.2,10.2-14,15.2c0,14,5.1,26.7,1.3,40.7
				c-3.8,8.9-11.4,16.5-15.2,25.4c3.8,8.9,10.2,17.8,16.5,25.4c6.4,3.8,14-2.5,19.1-7.6c3.8-2.5,6.4-1.3,8.9,1.3
				c10.2,12.7,3.8,27.9-5.1,40.7c-1.3,1.3-1.3,3.8-1.3,5.1c5.1,7.6,12.7,11.4,19.1,17.8c1.3,1.3,2.5,1.3,3.8,1.3
				c6.4-1.3,11.4-5.1,16.5-8.9c14-7.6,29.2-10.2,44.5-6.4c3.8,15.2,0,31.8,1.3,47c95.3,0,190.6-1.3,285.8,1.3
				c2.5-17.8-1.3-35.6,1.3-54.6c1.3-8.9-6.4-14-12.7-19.1c-8.9-8.9,0-24.1-6.4-34.3c-19.1-31.8-33-62.2-54.6-94
				c-11.4-15.2-24.1-26.7-36.8-38.1c-2.5-7.6,5.1-16.5,10.2-21.6c10.2-7.6,21.6-8.9,31.8-15.2c12.7,7.6,22.9,20.3,36.8,24.1
				c8.9,3.8,17.8,0,26.7,2.5c6.4,8.9,19.1,16.5,29.2,8.9c0-10.2-2.5-20.3,2.5-29.2c2.5-3.8,7.6-5.1,12.7-3.8
				c20.3,10.2,43.2,16.5,66.1,11.4c0-16.5,0-31.8,0-48.3C3230.9,1546.6,3224.6,1544,3219.5,1544z"/>
		</defs>
		<clipPath id="SVGID_2_">
			<use xlink:href="#SVGID_1_"  style="overflow:visible;"/>
		</clipPath>
		<g class="st4">
			<g>
				<polygon class="st5" points="3135.2,1655 3215,1655 3215,1682 3193.4,1682 3179.2,1672.9 3152.6,1672.9 				"/>
				<polygon class="st6" points="2383.6,1198.7 2390,1189.5 2379.9,1169.8 2376.3,1154.7 2362,1135.9 2362,1119.4 2339.1,1106.5 
					2339.1,1156.5 2334.1,1176.7 2323.1,1175.3 2323.1,1162.5 2310.2,1171.2 2304.7,1180.8 2296,1167.5 2296,1157 2255.7,1124.4 
					2246.5,1126.3 2250.6,1136.4 2259.8,1138.6 2258.9,1160.2 2271.3,1173.5 2292.3,1215.2 2298.3,1218.4 2301.1,1239.5 
					2309.8,1239.5 2318,1217.5 2334.5,1225.3 2327,1246.9 2335,1253.7 2327,1268 2334.1,1285.8 2327,1300.1 2344.6,1304.2 
					2352.4,1287.7 2366.6,1295 2359.3,1311.5 2368.9,1325.7 2392.3,1323.9 2407.4,1299.1 2407.4,1252.4 2383.6,1222.1 				"/>
				<g>
					<polygon class="st6" points="2197,1130.8 2176.8,1138.2 2162.6,1136.4 2162.6,1148.7 2171.3,1157.4 2162.1,1166.6 
						2146.5,1169.8 2146.5,1185.9 2131.4,1189.1 2129.1,1201.9 2111.7,1201.9 2104.3,1211.6 2092.4,1211.6 2092.4,1201.9 
						2081.4,1201.9 2081.4,1242.7 2115.3,1212.9 2142.9,1212.9 2173.1,1179 2185.5,1179 2185.5,1188.2 2194.7,1188.6 2194.7,1162.5 
						2213.5,1143.2 2226.3,1131.3 2217.6,1119.8 					"/>
					<polygon class="st6" points="2383.6,1198.7 2390,1189.5 2379.9,1169.8 2376.3,1154.7 2362,1135.9 2362,1119.4 2339.1,1106.5 
						2339.1,1156.5 2334.1,1176.7 2323.1,1175.3 2323.1,1162.5 2310.2,1171.2 2304.7,1180.8 2296,1167.5 2296,1157 2255.7,1124.4 
						2246.5,1126.3 2250.6,1136.4 2259.8,1138.6 2258.9,1160.2 2271.3,1173.5 2292.3,1215.2 2298.3,1218.4 2301.1,1239.5 
						2309.8,1239.5 2318,1217.5 2334.5,1225.3 2327,1246.9 2335,1253.7 2327,1268 2334.1,1285.8 2327,1300.1 2344.6,1304.2 
						2352.4,1287.7 2366.6,1295 2359.3,1311.5 2368.9,1325.7 2392.3,1323.9 2407.4,1299.1 2407.4,1252.4 2383.6,1222.1 					"/>
				</g>
				<g>
					<polygon class="st6" points="2130,862.1 2130,879.1 2150,899 2148.4,930 2169.9,930 2169.9,917.2 2193.3,917.2 2193.3,867.2 
						2193.3,832.3 2178.2,817.2 2163,826.8 2163,842 2148.4,857.1 2126.8,842 2105.2,812.2 2092.4,812.2 2116.7,851.1 					"/>
					<polygon class="st6" points="2197,1130.8 2176.8,1138.2 2162.6,1136.4 2162.6,1148.7 2171.3,1157.4 2162.1,1166.6 
						2146.5,1169.8 2146.5,1185.9 2131.4,1189.1 2129.1,1201.9 2111.7,1201.9 2104.3,1211.6 2092.4,1211.6 2092.4,1201.9 
						2081.4,1201.9 2081.4,1242.7 2115.3,1212.9 2142.9,1212.9 2173.1,1179 2185.5,1179 2185.5,1188.2 2194.7,1188.6 2194.7,1162.5 
						2213.5,1143.2 2226.3,1131.3 2217.6,1119.8 					"/>
					<polygon class="st6" points="2383.6,1198.7 2390,1189.5 2379.9,1169.8 2376.3,1154.7 2362,1135.9 2362,1119.4 2339.1,1106.5 
						2339.1,1156.5 2334.1,1176.7 2323.1,1175.3 2323.1,1162.5 2310.2,1171.2 2304.7,1180.8 2296,1167.5 2296,1157 2255.7,1124.4 
						2246.5,1126.3 2250.6,1136.4 2259.8,1138.6 2258.9,1160.2 2271.3,1173.5 2292.3,1215.2 2298.3,1218.4 2301.1,1239.5 
						2309.8,1239.5 2318,1217.5 2334.5,1225.3 2327,1246.9 2335,1253.7 2327,1268 2334.1,1285.8 2327,1300.1 2344.6,1304.2 
						2352.4,1287.7 2366.6,1295 2359.3,1311.5 2368.9,1325.7 2392.3,1323.9 2407.4,1299.1 2407.4,1252.4 2383.6,1222.1 					"/>
				</g>
				<g>
					<path class="st7" d="M936.4,238.9c0.2,0,3-8.8,3-8.8l16.3,10.7l-7.6,8.7L936.4,238.9z"/>
					<polygon class="st7" points="954.5,252 961.4,245.1 971,253.4 965.2,261.4 					"/>
					<polygon class="st7" points="971,264.8 978.8,258.7 993.7,274.5 986.1,280.2 					"/>
					<path class="st7" d="M990.5,286.6c0.7-0.5,7.3-6.4,7.3-6.4l13.1,15.8l-10.2,6.2L990.5,286.6z"/>
					<polygon class="st7" points="1005.1,307.3 1015.2,302.2 1019.8,307.3 1012.5,316 					"/>
					<polygon class="st7" points="1016.8,320.6 1022.8,314.1 1036.3,328.1 1028.1,337.8 					"/>
					<polygon class="st7" points="1035,342.1 1041.8,331.1 1070.7,344.2 1067.5,356.6 					"/>
					<polygon class="st7" points="1096.4,361.8 1102.1,352.7 1120,357.2 1120,367.3 1108.2,370.3 					"/>
					<polygon class="st7" points="1082.4,367.3 1092.4,367.3 1092.4,377.7 1087.4,377.7 1080.8,372.5 					"/>
					<polygon class="st7" points="1051.2,355.4 1064.3,360.2 1061.8,368.5 1051.2,365 					"/>
					<polygon class="st7" points="1046.4,363 1046.4,349.9 1033.8,345.3 1032.4,349.4 					"/>
					<polygon class="st7" points="1138.8,347.6 1149.6,347.6 1150.5,361.5 1140,361.5 					"/>
					<polygon class="st7" points="1158.3,349 1168.4,349 1164.5,367.3 1154,367.3 					"/>
					<path class="st7" d="M1129,377.7c0.7,0.2,37.1,0,37.1,0v17l-13.3,18.6l-25.5-17.8L1129,377.7z"/>
					<polygon class="st7" points="1154,422 1167.5,405.9 1181.2,415.9 1207.4,415.9 1218.4,423.3 1239.8,400.8 1245.4,404.7 
						1237.4,415.9 1252.8,427.6 1253.9,438.5 1253.9,438.5 1241.3,447.9 1229.7,440.2 1180.2,440.2 					"/>
					<polygon class="st7" points="1219.1,376.7 1226.4,382.2 1215.6,395.4 1222.5,400.8 1215.6,408.4 1202.8,395.4 					"/>
					<polygon class="st7" points="1174.6,385.2 1198.2,400.8 1191.8,408.4 1170.7,392.6 					"/>
					<path class="st7" d="M1282.3,410c0.9,0,12.6,0,12.6,0v14.4h-12.6V410z"/>
					<rect x="1279.8" y="429.7" class="st7" width="14.2" height="10.8"/>
					<rect x="1299.5" y="429.7" class="st7" width="24.3" height="11.9"/>
					<polygon class="st7" points="1328.9,430.8 1353.7,430.8 1353.7,441.6 1327.7,441.6 					"/>
					<rect x="1362.6" y="429.7" class="st7" width="25.2" height="8.8"/>
					<rect x="1299.5" y="410" class="st7" width="24.3" height="14.4"/>
					<rect x="1329.1" y="410" class="st7" width="24.5" height="14.4"/>
					<polygon class="st7" points="1357.1,410 1373.4,410 1373.4,415.5 1384.8,415.5 1384.8,421.2 1357.1,421.2 					"/>
					<polygon class="st7" points="1392.6,405.2 1414,405.2 1428.9,400.8 1428.9,413.2 1392.6,418.7 					"/>
					<polygon class="st7" points="1394.2,427.4 1405.5,427.4 1405.5,422.4 1430.7,422.4 1430.7,434.1 1412.5,438.5 1394.2,438.5 
											"/>
					<polygon class="st7" points="1436.4,398.7 1450.6,394.4 1450.6,408.4 1436.4,413.2 					"/>
					<polygon class="st7" points="1438,418.7 1452.5,413.2 1458.4,422.4 1458.4,427.6 1438,434.1 					"/>
					<polygon class="st7" points="1462.6,408.4 1475.9,408.4 1491.9,400.8 1493.5,413.2 1463.9,425.6 					"/>
					<polygon class="st7" points="1498.6,396.8 1501.3,410 1529.3,400.8 1525.4,388.4 					"/>
					<polygon class="st7" points="1533.9,386.8 1537.3,397.4 1561.2,389.8 1554.7,379.5 					"/>
					<polygon class="st7" points="1490.1,379.5 1499.9,379.5 1499.9,388.4 1503.8,388.4 1503.8,391.6 1490.1,391.6 					"/>
					<polygon class="st7" points="1510.3,372.8 1522.9,372.8 1522.9,384.1 1513.9,384.1 1513.9,378.5 1509.1,378.5 					"/>
					<rect x="1533.9" y="371.5" class="st7" width="9.9" height="7"/>
					<polygon class="st7" points="1570.4,346.9 1577.9,366 1590,360.2 1582.7,342.8 					"/>
					<polygon class="st7" points="1597.6,347.6 1604.5,347.6 1604.5,356.8 1596.7,356.8 					"/>
					<polygon class="st7" points="1619.6,341 1631.8,336.4 1636.6,347.6 1624.2,351.3 					"/>
					<polygon class="st7" points="1644.7,355.4 1638.7,355.4 1638.7,367.1 1625.8,372.8 1629.7,379.5 1643.5,372.8 1652.8,372.8 
											"/>
					<polygon class="st7" points="1655,377.5 1643.7,378.5 1618.5,388.8 1618.5,395.6 1663.5,405 1660.4,389.1 					"/>
					<polygon class="st7" points="1713.7,227.1 1724.2,236.9 1713.7,247.7 1726.3,259.1 1745.7,236.9 1722.2,217.7 					"/>
					<polygon class="st7" points="1726.1,213.3 1757.9,237.3 1757.7,230.5 1798.2,181.2 1784,180.2 1766.8,187.6 1750.3,211 
						1733.4,205.1 					"/>
					<polygon class="st7" points="1776.8,149.6 1801.4,169.5 1818,150.7 1802.1,139.9 1795.5,148.6 1783.6,140.8 					"/>
					<polygon class="st7" points="1864,129.1 1867.9,138.3 1901.6,126.8 1897.7,118.3 					"/>
					<polygon class="st7" points="1786.1,196.5 1805.2,211 1835.3,159.3 1822.8,151.3 					"/>
					<polygon class="st7" points="1769.6,216 1796.2,226.6 1796.2,238.4 1757.9,238.4 1757.7,230.5 					"/>
					<polygon class="st7" points="1758.2,247.7 1796.2,247.7 1796.2,263.5 1758.7,263.5 					"/>
					<rect x="1758.9" y="269.4" class="st7" width="37.3" height="8.5"/>
					<rect x="1759.4" y="285.7" class="st7" width="36.8" height="6.6"/>
					<path class="st7" d="M1759.8,299.1c0.8,0,19.3,0,19.3,0v10.8h7.6l-11.1,12.2h-14.9L1759.8,299.1z"/>
					<rect x="594.6" y="258.9" class="st7" width="26.7" height="9.7"/>
					<polygon class="st7" points="592,273.6 619.3,273.6 622.5,281 618.1,293.3 610.5,293.3 609.2,282.8 592,281 					"/>
					<rect x="590.1" y="291.9" class="st7" width="12.8" height="12.9"/>
					<rect x="626.8" y="273.6" class="st7" width="28.2" height="14.4"/>
					<rect x="626.8" y="257.4" class="st7" width="9.8" height="10.2"/>
					<rect x="642.2" y="257.4" class="st7" width="11" height="10.2"/>
					<polygon class="st7" points="621.9,251.6 640.9,251.6 642.2,235.2 626.4,236.2 					"/>
					<polygon class="st7" points="646.3,235.2 646.3,251.6 657.3,251.6 657.3,234.3 					"/>
					<rect x="661" y="246" class="st7" width="27.3" height="6.9"/>
					<polygon class="st7" points="688.3,241.2 661,241.2 661,234.3 688.3,232.4 					"/>
					<rect x="694.4" y="246" class="st7" width="27.3" height="6.9"/>
					<polygon class="st7" points="721.6,241.2 694.4,241.2 694.4,232 721.6,230.1 					"/>
					<rect x="694.4" y="259.1" class="st7" width="27.3" height="6.9"/>
					<rect x="694.4" y="272.2" class="st7" width="27.3" height="6.9"/>
					<rect x="661" y="259.1" class="st7" width="27.3" height="6.9"/>
					<rect x="661" y="272.2" class="st7" width="27.3" height="6.9"/>
					<rect x="661" y="285.3" class="st7" width="27.3" height="13.1"/>
					<rect x="638.7" y="297" class="st7" width="14.4" height="7.8"/>
					<rect x="624.3" y="314.6" class="st7" width="16.5" height="18.3"/>
					<rect x="663.7" y="321.9" class="st7" width="42.2" height="8.3"/>
					<polygon class="st7" points="725.5,230.1 725.5,241.2 749.7,241.2 774.5,262.5 780.7,278.1 804.1,249.5 816,254.1 823.3,239.4 
						809.3,231.6 802.5,241.7 770.8,241.7 746.1,228.8 					"/>
					<polygon class="st7" points="725.5,246 725.5,264.8 730.7,264.8 730.7,256.1 737.1,256.1 737.1,246 					"/>
					<polygon class="st7" points="742.4,246 742.4,257.4 748.6,257.4 748.6,266 771,266 756.7,251.6 746.1,251.6 746.1,246 					"/>
					<polygon class="st7" points="724.7,272.2 746.3,272.2 746.3,278.1 728.6,278.1 728.6,294.2 703.2,294.2 703.2,288 724.7,288 
											"/>
					<polygon class="st7" points="780.2,288 804.8,257.4 838,279.1 831.1,288 805,272.2 788.7,293.3 					"/>
					<polygon class="st7" points="821.5,253.3 826.8,246 842.4,252.8 835.2,260.5 					"/>
					<polygon class="st7" points="841.4,269.4 848.3,259.1 870.3,278.1 862.7,286.1 					"/>
					<polygon class="st7" points="835.9,293.3 844.2,283.5 855.9,293.3 848.4,302.7 					"/>
					<polygon class="st7" points="870.3,288 870.3,294.2 893.4,294.2 893.4,283.5 878.4,283.5 878.4,288 					"/>
					<polygon class="st7" points="899.5,288 910.5,288 910.5,293.3 920.9,293.3 920.9,300.9 899.5,300.9 					"/>
					<polygon class="st7" points="868.1,300.9 886.7,300.9 886.7,307.3 867.6,307.3 867.6,311.5 878.4,314.1 873.5,323.8 
						846.7,310.9 846.7,306.6 859.5,306.6 859.5,297 868.1,297 					"/>
					<polygon class="st7" points="834.3,239.8 855.9,253.5 862.7,243.4 846,233.4 					"/>
					<polygon class="st7" points="860.2,258.7 869.2,264.8 883.6,246.3 869,247.2 					"/>
					<polygon class="st7" points="870.3,271.3 881.9,279.1 897.6,255.4 887.8,248.5 					"/>
					<polygon class="st7" points="889.6,278.1 898.5,279.1 911.8,263.2 902.5,257.4 					"/>
					<polygon class="st7" points="907.2,278.1 907.2,285.3 932.5,285.3 932.5,276.1 923.5,270.5 					"/>
					<polygon class="st7" points="937.7,285.3 924.7,300.9 935,307.3 947.1,291.2 					"/>
					<polygon class="st7" points="939.8,309.1 951.5,294.5 962.7,309.1 949.2,321.9 					"/>
					<polygon class="st7" points="892.3,310.4 897.6,303.8 907.2,308.2 900.7,316.9 					"/>
					<polygon class="st7" points="878.4,327.4 887.8,314.1 897.6,320.8 887.8,333.4 					"/>
					<polygon class="st7" points="892.3,337.8 899.8,342.8 909.1,328.4 901.7,323.8 					"/>
					<polygon class="st7" points="902.7,349.7 915,358.6 924.7,343.8 913.7,336.2 					"/>
					<polygon class="st7" points="918.7,361.5 927.2,366.4 935.9,352.7 929.5,347.4 					"/>
					<polygon class="st7" points="907.2,318.3 913.7,324.9 927.3,309.1 920.9,303.8 					"/>
					<polygon class="st7" points="919.9,330.2 939.8,346.7 944.4,340 944.4,323.8 933.8,314.1 					"/>
					<polygon class="st7" points="939.8,360.5 947.1,347.6 962.7,349.9 962.7,363 955.6,372.5 					"/>
					<rect x="948.5" y="333.4" class="st7" width="19.9" height="9.4"/>
					<polygon class="st7" points="952.6,325.9 967.3,314.1 976.5,329.3 					"/>
					<polygon class="st7" points="979.9,336.2 992.8,351.3 986.3,355.4 972.8,345.3 					"/>
					<polygon class="st7" points="969.8,352.7 980.6,360.1 968.5,371.2 					"/>
					<polygon class="st7" points="972.8,374 985.2,364.6 993.9,375.4 979.2,385.2 					"/>
					<polygon class="st7" points="906.1,391.2 911.8,384.3 910.2,377.7 906.1,377.7 906.1,372.5 914.8,366.4 947.1,391.2 
						932.5,407.2 					"/>
					<polygon class="st7" points="892.3,380.2 897.6,380.2 897.6,372.5 906.1,364.6 899.2,356.9 892.3,367.3 					"/>
					<polygon class="st7" points="881.9,371.2 886.7,371.2 886.7,361.5 895.8,352.7 881.9,340.3 868.1,342.8 880.9,356.9 					"/>
					<polygon class="st7" points="860.2,338.1 874.9,338.1 874.9,332 835.9,311.6 838,305.4 813.5,288 804.3,303.8 					"/>
					<polygon class="st7" points="753.4,272.6 771,272.6 771,288 792.4,302.2 802,302.2 802,308.2 785.7,308.2 764.9,293.1 
						764.9,278.1 753.4,278.1 					"/>
					<rect x="737.1" y="291.2" class="st7" width="21.8" height="7.1"/>
					<rect x="737.1" y="302.7" class="st7" width="21.8" height="7.1"/>
					<rect x="703.2" y="302.7" class="st7" width="21.8" height="7.1"/>
					<rect x="661" y="302.7" class="st7" width="27.3" height="7.1"/>
					<polygon class="st7" points="954.5,381.5 964.3,370.3 964.3,378.3 975.6,391 969.4,395.8 					"/>
					<polygon class="st7" points="937.9,412.1 945.4,404.3 955.6,413.2 944.4,425.3 					"/>
					<polygon class="st7" points="976.2,397 989.2,385.2 994.9,390.1 987.3,398.7 995.5,398.7 996.3,408.9 983.4,408.9 					"/>
					<polygon class="st7" points="1015.7,417.5 1024.1,425.3 1016.8,433.1 1024.1,439.2 1035,425.3 1020.9,413.2 					"/>
					<polygon class="st7" points="1004.7,367.3 996.3,374.1 996.3,383.7 1004.1,383.7 1004.1,376.8 1011.4,373.4 					"/>
					<polygon class="st7" points="1015.7,380.2 1003.8,390.4 1012.8,399 1025.3,388.6 					"/>
					<polygon class="st7" points="1061.1,404.3 1073.2,404.3 1079.9,418.7 1074.8,426.8 1064.3,426.8 					"/>
					<rect x="870.3" y="233.4" class="st7" width="13.3" height="10"/>
					<path class="st7" d="M890.3,246.3c0.2,0,0-7.3,0-7.3h13.5v10.5l-5,4L890.3,246.3z"/>
					<polygon class="st7" points="906.1,255.4 911.8,241.9 932.1,247.4 942.8,255.6 929.3,272.2 					"/>
					<polygon class="st7" points="936.4,273.6 949.7,259.1 962.7,268.2 951.3,283.2 					"/>
					<polygon class="st7" points="957.2,286.1 968.5,273.8 978.3,288 965.1,297.9 					"/>
					<polygon class="st7" points="970.1,302.2 982.3,294.2 993.7,309.1 979.5,318.3 					"/>
					<polygon class="st7" points="984.3,321.9 996.3,314.1 1002.6,321.7 990.5,330.4 					"/>
					<polygon class="st7" points="993.9,333.3 1006.8,324.9 1021.7,345.8 1006.5,352.7 					"/>
					<polygon class="st7" points="1012.5,358.6 1023.9,352.7 1041.8,374 1028.1,380.2 					"/>
					<polygon class="st7" points="1037.9,385.2 1046.4,375.5 1056.7,376.7 1054.7,392.6 					"/>
					<polygon class="st7" points="1072.1,394.6 1072.1,380.2 1082.9,381.5 1087.9,387.4 					"/>
					<polygon class="st7" points="1086.6,426.2 1100.3,399 1118.4,400.8 1120,423.5 1104.2,440.5 					"/>
					<polygon class="st7" points="1036.1,447.3 1052.8,460 1052.8,471.4 1037.9,471.4 1037.9,461.3 1025.3,461.3 1025.3,451.9 					
						"/>
					<polygon class="st7" points="1135.6,413.2 1127.4,422.6 1135.6,428.6 1142.3,417.2 					"/>
					<polygon class="st7" points="1148.4,423.3 1140.4,432.4 1148.4,439.2 1156.2,428.6 					"/>
					<polygon class="st7" points="1163.1,432.4 1156.2,442.8 1170.7,454 1180.2,440.2 					"/>
					<polygon class="st7" points="1184.4,459.2 1175.3,472.6 1191.3,482.2 1198.2,470.7 					"/>
					<polygon class="st7" points="1194.8,440.5 1188.6,451.9 1205.8,462.7 1222.3,441.6 					"/>
					<polygon class="st7" points="1239.2,449.4 1226.4,463.9 1242.2,476.5 1253.9,458.1 					"/>
					<polygon class="st7" points="1261.5,464.1 1250,479.8 1286.9,508.6 1299.5,488.6 					"/>
					<polygon class="st7" points="1305.7,494.4 1292.5,512.5 1320,527.6 1332.6,509.9 					"/>
					<polygon class="st7" points="1338.1,515.9 1327.7,535.2 1338.1,544.6 1358,543.7 1358,521.6 1346.1,522.8 					"/>
					<polygon class="st7" points="1265.5,446.5 1253.9,458.1 1243.6,449.4 1253.9,438.5 					"/>
					<polygon class="st7" points="1262.8,462.1 1273,451.6 1282.3,458.1 1271.1,468.4 					"/>
					<polygon class="st7" points="1276.1,471 1285.9,460.5 1296.3,467.6 1287.2,478.3 					"/>
					<polygon class="st7" points="1291.1,480.8 1299.5,470.7 1310.5,477.4 1302.4,488.3 					"/>
					<polygon class="st7" points="1307.7,491.8 1314,479.8 1341.4,479.5 1343.8,492.1 1332.6,507.4 					"/>
					<polygon class="st7" points="1345.2,496.9 1357.1,496.9 1357.1,518.5 1348,518.5 1339.1,512.6 					"/>
					<polygon class="st7" points="1346.5,478.6 1346.5,492.5 1358,492.5 1358,478.3 					"/>
					<polygon class="st7" points="1362.6,478.1 1362.6,489.5 1376.6,489.5 1375.8,477.6 					"/>
					<rect x="1362.6" y="496" class="st7" width="12.6" height="18.8"/>
					<polygon class="st7" points="1381.6,494.4 1383.2,504 1392.6,502.8 1413.7,476.5 1397.7,476.8 					"/>
					<path class="st7" d="M1284.9,449.4c0.7,0.2,35.1-1.5,35.1-1.5v26.9h-5.7l-31.9-23.3L1284.9,449.4z"/>
					<polygon class="st7" points="1362.6,448.3 1386.9,445.4 1388.7,460.5 1364.2,462.9 					"/>
					<polygon class="st7" points="1396.1,445.4 1417.4,443.9 1400.9,460.5 1395.2,460 					"/>
					<polygon class="st7" points="1412.5,462.9 1429.8,443.9 1438,443.9 1440.8,454.2 1416,466.6 					"/>
					<polygon class="st7" points="1444.5,441.6 1462.6,434.1 1467.2,445.4 1446.7,454.2 					"/>
					<polygon class="st7" points="1467.2,432.9 1492.1,423.7 1497.4,437.5 1472.4,445.4 					"/>
					<polygon class="st7" points="1418.1,476.1 1446.6,460.5 1452.7,472.6 1428.9,490.2 1420.4,490.2 					"/>
					<polygon class="st7" points="1451,458.1 1457.5,470.7 1464.2,470.7 1466.2,451.2 1463,451.5 					"/>
					<polygon class="st7" points="1474.7,450.5 1474.7,459.2 1486,459.2 1494.6,453.4 1491.5,449.1 					"/>
					<polygon class="st7" points="1502.5,464.1 1488.7,485.4 1499.7,490.2 1507.3,470.7 					"/>
					<polygon class="st7" points="1415.3,494.4 1428.9,494.4 1430.7,503.1 1415.3,505.4 					"/>
					<polygon class="st7" points="1503.8,417.2 1503.8,430.8 1529.3,430.4 1530.8,407.5 					"/>
					<polygon class="st7" points="1507.3,435.7 1507.3,444.2 1525.2,443.9 1525.2,434.1 					"/>
					<rect x="1516" y="449.1" class="st7" width="11" height="15"/>
					<polygon class="st7" points="1538.8,407.5 1538.8,423.7 1547.5,423.7 1547.5,417.2 1563.9,412 1563.9,400.8 					"/>
					<polygon class="st7" points="1538.8,429.7 1538.8,439.1 1545.9,439.1 1545.9,435.1 1558.9,435.1 1558.9,423.7 1550.2,423.7 
						1550.2,429.7 					"/>
					<polygon class="st7" points="1535.9,445.4 1535.9,457.7 1548.8,457.7 1556.8,454.1 1555.9,440.5 1547.5,440.5 1547.5,445.4 
											"/>
					<polygon class="st7" points="1572.6,397.4 1580.2,395.8 1581.6,405 1571.9,407.5 					"/>
					<rect x="1563.9" y="423.7" class="st7" width="11.7" height="12.6"/>
					<polygon class="st7" points="1561.2,441.6 1561.2,447.6 1574.5,447.6 1574.5,440.5 					"/>
					<polygon class="st7" points="1576.7,413.2 1583.6,410.9 1596.7,441.6 1584.5,440.5 					"/>
					<rect x="1588.4" y="399.2" class="st7" width="9.2" height="14"/>
					<rect x="1602.9" y="414.1" class="st7" width="6.6" height="8.3"/>
					<polygon class="st7" points="1600.6,399.2 1633.4,428.6 1635.7,418.7 1606.2,395.8 					"/>
					<polygon class="st7" points="1621,399.2 1655.4,422.4 1668.9,410.9 					"/>
					<polygon class="st7" points="1646.9,439.1 1663.5,455.1 1679,436.2 1689.3,437.5 1696.2,428.6 1676,412.2 					"/>
					<polygon class="st7" points="1745,428.6 1765.9,415.5 1774.9,403.8 1804.2,449.1 					"/>
					<rect x="1798.5" y="469.8" class="st7" width="19.7" height="16"/>
					<polygon class="st7" points="1619.9,571.9 1630.2,567.5 1647.6,603.3 1646.2,631.5 1625.6,620.5 1629.7,592.5 					"/>
					<polygon class="st7" points="1593,642.9 1614.6,631.5 1619.9,640.9 1597.8,652.1 					"/>
					<polygon class="st7" points="1600.6,655.8 1622.1,644.3 1627.4,653.7 1605.4,664.9 					"/>
					<polygon class="st7" points="1608.6,668.8 1630.2,657.4 1635.4,666.8 1613.4,678 					"/>
					<polygon class="st7" points="1616.6,681.9 1638.2,670.4 1643.5,679.8 1621.5,691.1 					"/>
					<path class="st7" d="M1587.3,649.4l14.9,28.7c0,0-16.3,6-16.3,5.3C1585.9,682.6,1587.3,649.4,1587.3,649.4z"/>
					<polygon class="st7" points="1636.6,642.7 1667.8,686 1676.9,678 1646.5,637 					"/>
					<polygon class="st7" points="1636.6,702.5 1645.5,713.8 1667.1,713.8 1667.1,724.1 1643,724.1 1628.6,706.4 					"/>
					<polygon class="st7" points="1663,692.9 1663,701.6 1674.9,701.6 1674.9,693.6 					"/>
					<rect x="1693.9" y="637" class="st7" width="9.4" height="7.3"/>
					<rect x="1643" y="532.6" class="st7" width="13.8" height="10.1"/>
					<rect x="1594.7" y="478.8" class="st7" width="13.9" height="10.5"/>
					<rect x="1538.9" y="500.1" class="st7" width="13.9" height="10.5"/>
					<rect x="1470.7" y="510.6" class="st7" width="19.7" height="10.5"/>
					<rect x="1367.8" y="565.4" class="st7" width="15.1" height="8.1"/>
					<rect x="1401.9" y="559.4" class="st7" width="11.9" height="8.1"/>
					<rect x="1417.1" y="542.6" class="st7" width="9" height="8.1"/>
					<rect x="1339.3" y="563.5" class="st7" width="9" height="8.1"/>
					<rect x="1332.5" y="550" class="st7" width="9" height="8.1"/>
					<rect x="1281.7" y="598.6" class="st7" width="9" height="8.1"/>
					<rect x="1242.6" y="616.1" class="st7" width="9" height="16.2"/>
					<rect x="1249.4" y="635.8" class="st7" width="9" height="8.1"/>
					<rect x="1268.1" y="653.5" class="st7" width="9" height="8.1"/>
					<rect x="1221.9" y="645.2" class="st7" width="9" height="8.1"/>
					<rect x="1167.1" y="563.5" class="st7" width="9" height="8.1"/>
					<rect x="1109.3" y="561.3" class="st7" width="9" height="8.1"/>
					<rect x="1081.2" y="556.3" class="st7" width="9" height="8.1"/>
					<rect x="1090.2" y="510.7" class="st7" width="9" height="8.1"/>
					<rect x="1055.2" y="503.4" class="st7" width="9" height="8.1"/>
					<rect x="1024.3" y="606.7" class="st7" width="9" height="8.1"/>
					<rect x="1008.1" y="606.7" class="st7" width="9" height="8.1"/>
					<rect x="988.6" y="606.7" class="st7" width="9" height="8.1"/>
					<rect x="1109.3" y="503.6" class="st7" width="9" height="8.1"/>
					<rect x="1127.7" y="490.3" class="st7" width="9" height="8.1"/>
					<rect x="1132.2" y="472.4" class="st7" width="9" height="8.1"/>
					<polygon class="st7" points="1195.7,523.5 1186.7,525.9 1186.7,499.6 1195.7,499.6 					"/>
					<rect x="1224.6" y="542.6" class="st7" width="9" height="8.1"/>
					<rect x="1172.9" y="620.1" class="st7" width="9" height="8.1"/>
					<rect x="1230.9" y="680.1" class="st7" width="9" height="8.1"/>
					<rect x="1585.2" y="467.3" class="st7" width="8.6" height="7.3"/>
					<rect x="1612.4" y="469.9" class="st7" width="10.4" height="6.6"/>
					<rect x="1643" y="459.2" class="st7" width="11.2" height="10"/>
					<rect x="1667.9" y="454.1" class="st7" width="12.1" height="8.6"/>
					<rect x="1702.3" y="459.2" class="st7" width="9.5" height="7.4"/>
					<rect x="1700.5" y="427.7" class="st7" width="9.5" height="13.9"/>
					<rect x="1716.8" y="468.4" class="st7" width="9.2" height="9.2"/>
					<rect x="1671.4" y="522.3" class="st7" width="11.5" height="9.5"/>
					<rect x="1687.5" y="519.4" class="st7" width="15.7" height="11.8"/>
					
						<rect x="1715" y="513.4" transform="matrix(0.7421 -0.6703 0.6703 0.7421 97.4784 1292.0471)" class="st7" width="25.5" height="11.9"/>
					
						<rect x="1714.4" y="446.8" transform="matrix(0.7421 -0.6703 0.6703 0.7421 142.1955 1270.8739)" class="st7" width="16.4" height="7.6"/>
					<rect x="1838.7" y="191.7" class="st7" width="7" height="7"/>
					<polygon class="st7" points="1921.3,154.8 1911.3,158.9 1903.4,139.9 1913.8,136.8 					"/>
					<rect x="2091.2" y="158.9" class="st7" width="22.9" height="8.3"/>
					<rect x="2046.6" y="141.6" class="st7" width="9.8" height="7.6"/>
					<rect x="1991.5" y="149.2" class="st7" width="9.7" height="9.7"/>
					<polygon class="st7" points="2213.9,214.6 2213.9,225.6 2193.3,225.6 2193.3,238.8 2234.6,238.8 2234.6,229.6 2234.6,225.6 
						2234.6,214.6 					"/>
					<polygon class="st7" points="2159,202.2 2169.9,202.2 2180.5,202.2 2180.5,217.1 2186.4,223 2186.4,241.2 2173.7,251.3 					
						"/>
					<polygon class="st7" points="2285.3,221 2279.8,221 2279.8,213.3 2267.3,213.3 2267.3,245.8 2252.3,245.8 2252.3,236.6 
						2240.1,236.6 2240.1,264.2 2252.3,264.2 2252.3,255.6 2279.8,255.6 2279.8,253.5 2279.8,245.8 2279.8,240 2285.3,240 					"/>
					<polygon class="st7" points="2329.9,230.5 2321.1,230.5 2321.1,213.3 2301.8,213.3 2301.8,230.5 2290.8,230.5 2290.8,243.1 
						2301.8,243.1 2301.8,248.9 2321.1,248.9 2321.1,243.1 2329.9,243.1 					"/>
					<polygon class="st7" points="2203.7,235.7 2203.7,255.3 2177.4,255.3 2188,266.6 2213.9,266.6 2213.9,264.2 2213.9,255.3 
						2213.9,235.7 					"/>
					<rect x="2326.9" y="213.3" class="st7" width="12.2" height="5.3"/>
					<rect x="2344.6" y="211.6" class="st7" width="12.1" height="12.1"/>
					<rect x="2366.9" y="219.8" class="st7" width="10.7" height="5.2"/>
					<rect x="2387.1" y="214.6" class="st7" width="9.8" height="7.8"/>
					<polygon class="st7" points="2333,277.3 2318.9,270 2318.9,255.9 2333,255.9 					"/>
					<g>
						
							<rect x="2397.6" y="300.1" transform="matrix(0.7794 -0.6265 0.6265 0.7794 340.2014 1574.359)" class="st7" width="16.5" height="7.9"/>
						
							<rect x="2405" y="309.4" transform="matrix(0.7794 -0.6265 0.6265 0.7794 336.0272 1581.0887)" class="st7" width="16.5" height="7.9"/>
						
							<rect x="2412.5" y="318.7" transform="matrix(0.7794 -0.6265 0.6265 0.7794 331.8529 1587.8186)" class="st7" width="16.5" height="7.9"/>
						
							<rect x="2420" y="328" transform="matrix(0.7794 -0.6265 0.6265 0.7794 327.6711 1594.5359)" class="st7" width="16.5" height="7.9"/>
					</g>
					<polygon class="st7" points="2372.3,284.3 2410,284.3 2402.4,274.7 2366.3,277.3 					"/>
					<polygon class="st7" points="2426.3,347.9 2435.4,342.4 2446.4,356.5 2461.1,356.5 2473.9,367.8 2482.9,370 2479.8,382.5 
						2444,368.7 					"/>
					<polygon class="st7" points="2497.3,393.4 2506.3,387.4 2534.5,426.2 2525.6,440.2 					"/>
					<polygon class="st7" points="2538.2,448 2543.6,437.8 2558,442.9 2555,458.4 					"/>
					<polygon class="st7" points="2555,458.4 2569.6,458.4 2569.6,450 2580.6,450 2580.6,437.8 2562.8,430.4 2567.9,425.1 
						2583.1,430.6 2591.8,416.9 2585.8,399.9 2595.6,399.9 2606.6,374.5 2622.8,374.5 2602.6,417.3 2617.6,440.6 2594.1,468.4 
						2570.8,468.4 					"/>
					<polygon class="st7" points="2618.8,358 2638.7,358 2638.7,377.3 2630.8,377.3 2624,393.2 2633.5,393.2 2633.5,402.9 
						2624.7,402.9 2624.7,427.4 2643.6,449.4 2633.5,458.4 2617.6,440.6 2602.6,417.3 2622.8,374.5 					"/>
					<rect x="2657.1" y="384.3" class="st7" width="6.4" height="6.4"/>
					<rect x="2651.9" y="399.6" class="st7" width="10.1" height="12.2"/>
					<polygon class="st7" points="827.9,349.7 817.9,371.2 849.2,383.8 864.8,411.8 899.2,430.9 897.6,402.6 878.6,396.2 
						867.1,370.1 					"/>
					<rect x="848.3" y="588.4" class="st7" width="23.1" height="26.4"/>
					<rect x="1101.9" y="530.2" class="st7" width="18.1" height="8.4"/>
					<rect x="1066.7" y="455.8" class="st7" width="9.2" height="12.5"/>
					<rect x="1094.7" y="460.5" class="st7" width="10.9" height="10.9"/>
					<rect x="959.6" y="451.6" class="st7" width="12.5" height="12.5"/>
					<polygon class="st7" points="306.1,347.9 308.9,356.5 334.3,347.9 331.8,339.4 					"/>
					<polygon class="st7" points="339.2,337.2 350.8,334.5 356.9,349.4 345.6,354.6 					"/>
					<polygon class="st7" points="360.2,336.6 378.6,330.2 384.7,344.6 365.1,351.3 					"/>
					<polygon class="st7" points="384.7,330.2 400.3,325 407,339.4 389.9,344.6 					"/>
					<polygon class="st7" points="291.5,334.5 328.1,322.5 333,334.5 296.5,345.3 					"/>
					<polygon class="st7" points="337,320.4 348,317 351.7,328.5 340.5,332.6 					"/>
					<polygon class="st7" points="356.9,315.7 374.8,310.6 379.5,322.5 360.9,328.4 					"/>
					<polygon class="st7" points="380.4,309.7 395.9,304.8 400.4,315.2 384.7,320.6 					"/>
					<polygon class="st7" points="333,304.4 344.3,301.1 346.9,311.7 335.6,314.6 					"/>
					<polygon class="st7" points="351.7,299.9 369.9,295.5 374,305.6 355.7,310.6 					"/>
					<polygon class="st7" points="375.8,294.6 391.6,290.4 394.6,301.1 378.7,304.8 					"/>
					<polygon class="st7" points="354.4,359.1 382.9,353.9 383.8,365 355.7,370.8 					"/>
					<polygon class="st7" points="392.2,351.3 408.7,350.1 409.6,361.4 392.2,363.2 					"/>
					<polygon class="st7" points="407.8,309.1 414.4,304.8 421.5,313.5 409.6,321.8 407.8,320.6 					"/>
					<polygon class="st7" points="423.1,299.3 442.2,284.5 450.4,293.2 429.3,309.6 					"/>
					<polygon class="st7" points="409.6,327.3 424.4,317.8 451.3,345.3 444.5,351.3 424.8,331.4 411.9,334.8 					"/>
					<polygon class="st7" points="433.3,313.3 454.1,297 472.9,314.6 470.9,332.6 458.7,342.9 					"/>
					<polygon class="st7" points="447.1,281.1 454.6,290.4 465.6,279.6 456.3,271.6 					"/>
					<polygon class="st7" points="462.2,266.9 471.2,273.6 486.2,243.8 474.2,241.2 					"/>
					<polygon class="st7" points="483,268.6 490.9,274.7 484.4,282.8 476.9,277.1 					"/>
					<polygon class="st7" points="467.7,295.5 472.9,290.4 480.1,297 472.9,304.2 468.5,301.1 					"/>
					<polygon class="st7" points="481.3,233.7 532.2,246 533.7,233.7 527.5,230.1 493.4,224.3 482.7,228.8 					"/>
					<polygon class="st7" points="492.5,248 532.4,253.9 532.4,266.3 545.5,267.7 545.5,276.8 515.5,272.6 515.2,258.3 490.9,256.1 
											"/>
					<polygon class="st7" points="544.6,237.7 565.5,237.7 565.5,249.8 544.6,248.9 					"/>
					<polygon class="st7" points="543.5,252.8 557.6,254.1 557.6,259.4 569.5,259.4 569.5,269.2 579.1,268.6 578.4,282.8 572.3,288 
						555.9,282.8 557.4,267.5 542.8,265.4 					"/>
					<polygon class="st7" points="571,237.1 610.9,225.2 618.1,241.2 579.1,256.1 					"/>
					<polygon class="st7" points="617,223.3 628.7,219.5 633.7,230.4 621,235.1 					"/>
					<polygon class="st7" points="636.6,217.5 656,211.1 656,226.7 638.3,228.8 					"/>
					<rect x="662.1" y="209.9" class="st7" width="27.4" height="16.5"/>
					<rect x="696.5" y="209.9" class="st7" width="22.9" height="14.4"/>
					<polygon class="st7" points="728.6,209.9 742.4,209.9 742.4,224.3 728.6,223.1 					"/>
					<polygon class="st7" points="533.7,222.7 556,215.5 563.1,226.4 560.9,230.2 541.5,231.4 					"/>
					<polygon class="st7" points="563.1,214.2 580.7,208.4 580.7,222.2 567.9,227.3 					"/>
					<polygon class="st7" points="586.5,207.1 605.3,200 605.3,215.5 586.5,222 					"/>
					<polygon class="st7" points="611.9,198.1 622.5,194.7 621.6,209.9 611.9,213.3 					"/>
					<polygon class="st7" points="628.4,193.3 639.4,188.5 656,188.5 656,200 644,201.3 628.4,208.4 					"/>
					<polygon class="st7" points="662.1,188.5 688.3,188.5 688.3,200 663.1,200 					"/>
					<rect x="697.4" y="188.5" class="st7" width="26.1" height="10"/>
					<rect x="728.6" y="187.6" class="st7" width="12.4" height="10.9"/>
					<rect x="747.4" y="187.6" class="st7" width="15.8" height="12.4"/>
					<rect x="771" y="190.8" class="st7" width="23.4" height="11.5"/>
					<polygon class="st7" points="747.4,224.3 750.9,209.9 761.2,218.1 759.6,228.8 					"/>
					<polygon class="st7" points="763.3,209.9 790.5,209.9 790.5,217.1 782.7,221.3 769,221.3 763.3,215.6 					"/>
					<polygon class="st7" points="766,225.2 787.3,225.2 794.4,221.3 802,228.8 800.4,236.4 792.1,238.9 772.4,238.9 764.9,231.4 
											"/>
					<polygon class="st7" points="799.2,209.9 807,209.9 819.4,200 843.5,208.4 841.9,223.5 830.2,217.1 827,220 840.3,230.1 
						833.2,236.2 810.5,225.2 803.4,225.2 797.2,217.1 					"/>
					<polygon class="st7" points="846.7,226.4 849.7,211 867.6,215.5 859.3,233.9 					"/>
					<polygon class="st7" points="878.4,218.1 887.8,219.4 887.8,227.5 878.4,226.4 					"/>
					<rect x="902.7" y="221.3" class="st7" width="9.2" height="10.1"/>
					<polygon class="st7" points="918.5,225.4 932.5,226.4 931.1,237.3 916.9,236.2 					"/>
				</g>
				<g>
					<g>
						<path class="st8" d="M2721.6,554.3l7.6,17.4l-4.9,17.1h-13.1l-59.9-85l0.3-34.2l7.9-35.5l21.4-20.5h39.1v-25.1l-33.9-47.7
							v-17.7l-8.6,23.8h-22.9l-18.6-16.2h-11.6l-5.5,6.4V358l5.5,13.1l-21.7,46.2l15,23.2l-23.5,27.8h-23.2c0,0-44.3-27.8-45.2-28.1
							c-0.9-0.3-31.5-52.3-31.5-52.3l-50.1-19.3l-77.7-91.4H2333l-28.7-15h-27.5l-17.1,21.7h-55.3l-30.6-32.7L2138.3,133l-54.1-24.5
							l-36.1,3.7l-50.7,19.9h-67.3l-94.8,27.2l-12.5-7.9l-65.1,79.2l3.7,115.3l-85.9,61.8l-49.2,47.4l-38.8-11l-57.2,24.8h-14.7
							l-22,40.4l-52.3-4.6l-51.1,14.1H1348l-118.3-78.3h-49.5l-59.6-42.2l-24.2-3.4l-13.1-16.8l-39.7-7.9l-68.8-98.1l-40.7-28.7
							l-37.3-9.2v-19l-23.2-3.4l-55.3-17.7l-14.4,11.6H662l-95.7,29.3h-26l-11.3-8.6l-37-6.4l-15.3,7.6l-21.7,37L403,306v16.5
							l-86.2,16.5L189,378.2l-20.2,14.7l-13.5,43.4v46.5l19.6,33.6v18.3l53.3,46.8h33.9l34.9-6.9l67.9-25.2l8.7,15.6L326.5,614v23.8
							l26.6,21.6l-9.6,26.6l24.8,11.5L387,725l-14.2,38.5l11.9,18.8"/>
						<path class="st8" d="M175,516.4l60.5,44l31.8-4.9h37.3l41-31.2l39.7-12.2l28.7-28.1l48.9-41.6L450.7,402l31.8-60.5l-6.1-19
							l33-34.5l50.1,19.3l25.1-28.1l3.7-27.5h33.6l4.4-15.4l119.7-7.3l24.8,12.8h31.6l6.9-10.1l19.7,11l17-9.2l22.9,13.8l14.7-0.9
							c4.6,1.8,69.2,42.6,69.2,42.6l75.7,98.1l34.4,11l29.5-8.5"/>
						<polyline class="st8" points="414.1,484 439.7,573.8 426.9,627.6 405.5,661.9 386.5,675.3 381.2,716.6 						"/>
						<polyline class="st8" points="387,725 431.8,672.3 445.8,704.1 448.9,759.1 477,770.7 489.3,806.2 501.5,830 497.8,867.3 
							508.8,893.6 519.8,953.5 548.6,960.9 570.6,985.3 612.3,1004.2 						"/>
						<polyline class="st8" points="1266.1,1481.2 1319.3,1391.3 1306.4,1379.4 1239.5,1379.4 1211,1357.4 1211,1299.6 1189,1249.2 
							1228.5,1216.1 1355,1158.4 1438.6,1141.3 						"/>
						<line class="st8" x1="1313.8" y1="1489.4" x2="1281.8" y2="1454.7"/>
						<polyline class="st8" points="1374.2,1096.9 1476.1,1037.3 1516.4,1044.6 1546.7,1037.3 1607.2,1053.8 1628.3,1020.8 
							1651.3,1008.9 1693.5,953.8 1731.1,930 1772.3,895.1 						"/>
						<polyline class="st8" points="1431.5,1128.4 1454.1,1128.4 1468.8,1141.3 1485.3,1141.3 1493.4,1111.6 1544.9,1080.6 						
							"/>
						<polyline class="st8" points="1477.9,1191.4 1484.3,1163.8 1509.1,1163.8 1525.6,1133.6 1525.6,1115.3 1553.1,1115.3 
							1557.7,1090.5 						"/>
						<polyline class="st8" points="1524.2,1042.8 1524.2,1063.9 1573.3,1103.3 1597.2,1140.9 1602.7,1167.5 1609.5,1172.1 
							1632.5,1158.8 1650.3,1174.4 1658,1207.5 						"/>
						<polyline class="st8" points="1730.1,1414.5 1696.2,1345.5 1709,1287.7 1737.5,1268.9 1737.5,1240.4 1762.7,1207.5 
							1751.2,1181.3 1772.3,1145.1 1772.3,1115.7 1751.2,1072.2 1757.7,1051.1 1783.8,1057.5 1792,1045.1 1785.2,1025.4 
							1800.8,1005.2 1791.1,969.9 1794.8,944.2 1772.3,936.9 1772.3,913.5 1772.3,885.1 1740.2,821.3 1665.5,793.8 1611.8,775 
							1593.5,745.7 1586.2,725.9 1524.7,717.7 1509.6,738.3 1497.2,742.9 1486.6,734.6 1486.6,723.6 1473.3,717.7 1473.3,696.6 
							1432.1,662.2 1422.9,648 1422.9,624.1 1408.7,624.1 1394.9,632.8 1369.7,640.6 1369.7,658.1 1357.3,665.9 1300.9,678.2 
							1244.5,707.1 						"/>
						<polyline class="st8" points="1285,686.4 1277.5,747.9 1315.1,778.2 1319.3,798.8 						"/>
						<polyline class="st8" points="1292.5,682.5 1262.4,599.8 1238.1,593.9 1230.3,602.6 1230.3,626 1184.4,646.6 1077.1,708 
							1051.9,705.3 1023.5,700.3 991.8,736.5 997.8,755.7 991.8,772.2 952.9,785.5 940.9,771.8 961.6,747 955.2,720.9 917.1,722.8 
							908.8,723.2 898.8,738.3 898.8,757.6 872.2,785.5 857,849.7 831.8,872.2 808.4,851.1 798.3,817.6 808.4,789.2 836.4,773.6 
							857.5,737.9 899.7,705.3 884.5,680.1 882.2,645.2 848.3,615 848.3,588.4 870.3,588.4 931.8,624.1 961.1,617.3 996.9,591.1 
							1032.2,586.1 1065.7,600.3 1103.3,601.2 1103.3,624.1 1113.4,635.6 1076.7,676.9 1045.4,683.3 1006.5,667.7 985,677.8 
							941.4,667.7 902.4,696.8 917.1,722.8 						"/>
						<polyline class="st8" points="731.8,349 741.5,371 694.2,371 641,383.8 613.5,399 601.1,388.9 614,370.5 663.1,356.3 
							700.2,341.7 741.5,331.1 767.6,318.3 809.8,340.3 867.1,370.1 878.6,396.2 907.9,406 924.4,406 929,426.5 919.9,443 
							958.4,443 964.3,485.6 969.8,502.6 1045.4,529.2 1045.4,546.6 1008.4,546.6 955.2,538.4 922.1,537.5 913,525.5 915.3,513.2 
													"/>
						<polyline class="st8" points="694.5,343.6 741,350.8 766.7,336.2 791.5,357.7 849.2,383.8 864.8,411.8 902,432.4 905.2,449.9 
							894.2,461.8 905.2,478.3 929.9,468.7 935,490.2 						"/>
						<polyline class="st8" points="964.3,485.6 1013.9,456.8 1079.4,428.8 1096.4,394.7 						"/>
						<polyline class="st8" points="976.2,478.7 989.1,490.2 1106.9,496.6 1120.2,478.7 1125.7,461.3 1144.5,461.3 1151.4,485.6 
							1168.9,494.4 1183.1,526.9 1203.2,521.4 1211,494.1 1256.9,516.4 1307.3,523.2 1333.9,546.6 1361,546.6 1361,518.5 						"/>
						<line class="st8" x1="862.7" y1="243.4" x2="873.5" y2="211.6"/>
						<line class="st8" x1="867.6" y1="228.8" x2="896.8" y2="233.9"/>
						<polyline class="st8" points="1241.3,447.9 1253.9,438.5 1314,479.8 1418.1,476.1 1463,451.5 1491.5,449.1 1512,477.2 						
							"/>
						<path class="st8" d="M1262.8,446l173-5.8l150.4-51.7l89.3,19.1c0,0,20.8,18,22.2,18c1.4,0,26.6-0.5,26.6-0.5l109.6,39
							l10.5,17.9l-23.4,17.9h-13.3l-27.5-26.1l-23.8-7.8l11.9,36.2l11,20.6l-12.4,30.3l13.8,30.3l-10.1,24.6l-24.8,16.2l-16.5,27.5
							l11.5,40.4l-0.9,37.1l12.4,39.4l-3.2,18.8l-13.3,6.4l-29.8-11.5h-50.4l-34.4-11l-12.8-20.2l-2.8-33.9l-39.4-17.4l-13.3-32.1
							l-30-24.8l-14.4,19.7l-26.6-38.5l-10.5-28.4l-6.4-18.8l-15.6-30.3l5.2-41"/>
						<polyline class="st8" points="1426.1,440.5 1377.6,494.4 1380.7,518.5 						"/>
						<polyline class="st8" points="1493.5,509 1519.2,586.1 1585.7,639.7 1621,621.8 1624.2,591.1 1558.9,456.3 						"/>
						<line class="st8" x1="1621" y1="621.8" x2="1643" y2="637"/>
						<path class="st8" d="M1733.9,428.6c1.1,0.4,26.5-15.8,26.5-15.8l11.5-19.7l-5-39.9l-10-4.1"/>
						<polyline class="st8" points="1766.8,353.1 1780.6,353.1 1801.2,336.2 1815.4,302.7 						"/>
						<polyline class="st8" points="1761.1,338 1796.2,299.5 1796.2,226.6 1835.3,159.3 						"/>
						<polyline class="st8" points="2570.8,468.4 2610.1,490.7 2630.3,536.5 2657.8,570.5 2660.1,637 2645,668.2 2640.9,719.5 
							2606,786 2565.2,818.6 2538.1,818.6 2513.8,791.5 2500.1,795.2 2504.7,905.2 2550.5,917.2 2555.3,927.2 2536.9,1008.6 
							2490.4,1073.4 2464.8,1075.2 2453.1,1127.8 2434.2,1149.8 2415.9,1144.3 2401.2,1150.4 2400.6,1181.3 2396.3,1210.9 
							2418.3,1242.7 2425,1292.9 2411,1330.8 2411,1393.1 2434.2,1424.3 2434.2,1476.3 2401.2,1563.7 2381,1576 2349.2,1560.1 
							2330.9,1560.1 2330.9,1594.3 2318.6,1629.8 2252.6,1687.2 2209.8,1687.2 2195.1,1705.6 2173.1,1705.6 2160.3,1679.3 
							2140.7,1679.3 2129.7,1719.6 2080.2,1719.6 2055.1,1687.2 2022.7,1687.2 1970.7,1604.1 1928.5,1564.3 1928.5,1525.8 
							1956.1,1476.3 1927.3,1433.5 1927.3,1391.9 1949.9,1368.7 1942,1355.9 1910.2,1371.7 1869.9,1380.9 1853.3,1361.4 
							1787.3,1361.4 1787.3,1385.8 1762.9,1414.5 1719.4,1414.5 1666.2,1358.9 1653.4,1314.3 1679,1269 1679,1231.1 1648.5,1196.9 
							1630.8,1196.9 1570.9,1196.9 1547,1207.9 1499.9,1207.9 1458.4,1176.7 1431.5,1128.4 1353.8,1085.6 1284.7,1089.3 
							1200.3,1134.5 1114.7,1131.5 1012.6,1159.6 990,1159.6 981.5,1145.5 978.4,1113.7 931.9,1099.1 921.5,1121.1 895.9,1130.8 
							799.9,1096.6 776.6,1107 709.4,1113.7 677,1108.8 634.8,1036.1 605.4,994.5 588.3,966.4 596.9,954.8 593.8,938.9 579.7,927.2 
							563.9,866.1 545.5,816.6 508.2,773.2 490.5,708.4 452,675.3 434.2,633.8 431.6,607.9 						"/>
						<polyline class="st8" points="2555.3,927.2 2591.3,937.3 2610.1,963 2602.3,1103.8 2616.1,1126.3 2663.3,1137.3 2682.6,1157 
							2726.1,1251 2756,1246.9 2775.2,1279.4 2763.3,1315.7 2775.2,1354.2 2775.2,1410.6 2823.4,1494 2823.4,1532.6 2806.4,1574.3 
							2806.4,1622 2823.4,1655 2823.4,1678.4 2833,1689.4 2847.7,1709.6 2895.8,1731.1 2899,1768.7 2888.9,1800.8 2904.1,1855.5 
													"/>
						<polyline class="st8" points="2895.8,1731.1 2898.9,1677.5 2954.5,1621.2 2958.2,1605.3 2944.1,1589.4 2967.4,1539.9 
							2977.1,1459.8 2991.8,1366.9 2943.8,1281.3 2933.7,1221.9 						"/>
						<polyline class="st8" points="2991.8,1366.9 3002.8,1498.3 3032.2,1547.8 3070.7,1572.3 						"/>
						<polyline class="st8" points="2600.6,949.9 2677.5,938.2 2719.7,905.2 2770.5,886.9 2793.1,842.9 2840.8,827 2885.4,800.7 
							2943.8,804.3 2971,830.6 2980.2,881.4 3008.3,894.8 3025.4,919.3 3045.6,927.2 3098.2,942.5 3116.5,996.3 3106.1,1047.1 
							3107.4,1090.5 						"/>
						<polyline class="st8" points="3098.2,942.5 3116.5,927.2 3116.5,841 3121.4,778.1 3103.7,775 3093.9,817.2 						"/>
						<polyline class="st8" points="1787.3,1361.4 1885.7,1414.5 1921.8,1495.3 1907.8,1535 1908.4,1585.7 1871.1,1610.8 1887,1694 
							1883.9,1709.3 1862.7,1705 						"/>
						<polyline class="st8" points="1885.7,1414.5 1927.3,1391.9 1910.2,1371.7 						"/>
						<polyline class="st8" points="2022.7,1687.2 2033.7,1712.3 1991.5,1747.8 1981.7,1768.6 1992.7,1805.2 2027.6,1835.8 
							2036.2,1855.5 						"/>
						<polyline class="st8" points="2236.1,1687.2 2181.7,1749.6 2181.7,1774.1 2198.2,1785.1 2202.5,1829.1 2215.3,1855.5 						
							"/>
						<path class="st8" d="M2231.2,1071.5c0,2.4,0,35,0,35l56.9,119.7l3.7,21.4l26.9,13.5l4.3,23.2l-4.9,20.2l33,9.8l15.3,15.9
							l44.6,0.6"/>
					</g>
					<g>
						<path class="st8" d="M534.5,810.7c-1.1,0-2.2-0.3-3.3-0.8c-3.4-1.8-4.6-6-2.8-9.4l36.6-67.5c0.7-1.3,1.9-2.4,3.2-3l60.1-27
							c1-0.5,2.2-0.7,3.3-0.6l44.8,3.3l71.8-21.6c0.7-0.2,1.4-0.3,2.2-0.3l94.1,2.8l15.3-22.6l-18.2-46.7c-1.4-3.6,0.4-7.6,3.9-8.9
							c3.6-1.4,7.6,0.4,8.9,3.9l19.5,50.1c0.8,2.1,0.6,4.5-0.7,6.4L854,697.5c-1.3,2-3.6,3.1-5.9,3l-96.8-2.9l-72,21.6
							c-0.8,0.2-1.7,0.3-2.5,0.3l-44.3-3.2l-56.4,25.3L540.6,807C539.3,809.3,536.9,810.7,534.5,810.7z"/>
					</g>
				</g>
				<g class="st9">
					<polyline class="st8" points="2156.4,323.8 2160.6,361.5 2148.3,397.6 2148.3,421.9 2129.7,418.3 2125.2,437.7 2137,464.6 
						2130,479 2108.3,488.5 2101.3,506.2 2137,563 2141.2,590.5 2142.6,636.9 2185.9,711.9 2188.4,725.4 2216.8,738.6 2217.9,777.9 
						2206.7,790.9 2193.3,832.3 2193.3,870.5 2193.3,917.2 2169.9,917.2 2169.9,930 2148.4,939.2 					"/>
					<polyline class="st8" points="2193.3,870.5 2376.4,934.2 2408.7,930.2 2451.7,910.5 					"/>
					<polyline class="st8" points="2211.2,999.4 2199.9,964 2131.4,931.1 2098.5,916.5 2075.2,916.5 2016.4,879.1 1961.4,893.1 
						1939.4,885.8 1895.3,908.6 1857.7,907.5 1839.7,920.4 1777.6,910.3 					"/>
					<polyline class="st8" points="1766.1,895.4 1706.7,890.6 1679.2,912.8 1648.6,912.8 1608.4,897.4 1567.4,890.6 1531.2,868.4 
						1493.8,799.9 1452.6,709.9 1410.9,697 1362.6,704.4 1337,701 					"/>
				</g>
			</g>
			<path class="st6" d="M3216.8,1544.9l-15.1,13.3h-40.4l-22.9,11.9l-19.3-12.8h-24.3l-8.3-8.3h-15.1l-17.4-20.2l21.1-34.9v-22
				l20.6-19.3v-16l-17-12.4v-19.3h-25.2v-23.4l-22.9-9.2l18.8-48.6l-45.9-38.1l-38.1-43.6v-22.9l-8.7-36.2l10.1-18.3h9.6l11.5,25.2
				h24.8l25.2-15.6v-41.3h20.2v-11l20.2-7.8l16,22.5h23.8l14.7-33.5l-15.6-35.8l37.1-46.8v-42.2h10.5l11.9-6.4V941l-21.1-22.9
				l-10.5-25.7V875l19.7-31.2h33.5v-17.4l-94.5-86.2h-21.1l-10.5,11.9l10.5,10.5v13.3l-45.9,54.1h-18.3v-20.6l-38.5-64.7l-38.1-22.5
				l-29.8,17.4h-25.2l-17,17.4l-92.2,44.5h-16l-42.6-34.4l-9.6-30.3l12.8-14.2h13.3l-5,10.5l6.9,8.7l10.5-9.2l6.6,8.5l-7.6,7.6
				l5.5,11.5h17l11.9-29.8l-26.1-21.1v-15.6l10.1-17.4v-14.2l11-12.8V620l14.7-21.6v-25.2L2822,531h24.3v-18.8h-52.7l-42.6-61v-16
				l44.9-29.3v-30.3l-53.7-33.5l-49.5-53.2l-15.1,13.8v18.8l-6.4,17.9h-16l-17-13.3l-18.3-0.5l-7.3,9.6v22h-9.2l-17.4,42.6l6,17
				l-8.7,13.8l-15.1-5.5l-11,11.5l-42.6-52.3h-17.4v-11l-22.9-5.5v-11.5l-29.3-17v-11l-42.2-53.7v-18.3h-8.7v-6.9h8.7v-10.5h-9.6
				v-11.5h9.6v-22h-79.3v7.8h-57.8h-23.8V205h-6.9v7.8h-14.7v-8.7l9.2-11.5l-8.7-5.5l-9.6,11.9v6.4l-13.3,0.5v-7.3l-10.1-3.7
				l-6.9,7.3h-10.5l10.5-13.3l-11.9-42.2l-20.2-0.5l-7.3-16.5l-55.9-28l-39.9,6V88.5h-52.7l-79.3,30.3l-12.4-30.3l-58.7,12.8
				l-51.4,30.3l-46.8,60.5l-23.4-19.3l-5.5,5.5l23.8,20.6l-35.3,39.4l34.4,31.2l3.2,22l-63.7,49.1l-17,48.4l-29.1-62.4l-217.6,72
				h-152.9l-39-26.8l7.6-11.9l-31.6-27.3l-6.2,7.3l26.1,21.8l-21.1,28.9l-21.8-16.3v-15.6l7.8-14.9l-47.9-18.1v6.9h-16.3v17
				l-29.6-7.8v-19.5h-8.9v10.3h-11.7v-21.6h-9.4v13.5h-19l-5-8.7l17-13.5l-5-6.9l-17.9,12.2l-19.9-26.1l19.9-17l-7.1-7.6l-19,15.1
				l-17.9-21.1l12.6-20.2h-10.8L976,244.7l-36.5-26.1v-25.2h-10.3v20.9l-26.6-3.7v-19.3h-9.4v15.6l-25.2-6.4v-16.5h-11v13.5l-30-9.4
				v-15.6h-11.7v11.2h-6.4v-13.8H797v11h-20.9v-12.2h-11.9v12.2H713v-9.6h-10.8v10.3h-15.4v-8.3h-22.2v7.8h-31v-9.9h-9.4v14.4
				l-96.1,31.4l-5.5-6h-6.2v9.4l-25-4.1l-16.7,8.5L453,261.6l-24.3,21.2l-11.6,8.6l-9.2-6.7h-14.1v-10.4h-8.6v14.1h-54.4l-7.3,32.7
				h-21.4L271,342.1l-43.1-5.5l-83.5,48.6l-19.3,55.9l-3.7,74.3l36.7,34.9l23.8,26.6l30.3,8.3l19.3,15.6l48.6-15.6l19.3,9.2
				l-12.8,38.5l22.9,44.9l24.8,31.2l-7.3,52.3l25.7,48.1l27.5,16.1l31.2-30.3l22,29.3l33.9,48.6l10.1,30.3l-4.6,25.7L459,967.6v40.4
				l6.4,18.3l-6.4,18.3l17.4,0.9l13.8-12.8l49.5,76.1l24.8,11l13.8-6.4v-16.5l12.8-27.5l39.4,6.4l3.7,24.8l13.8,11.9l41.3,14.7
				l49.5-4.1l34.9-4.1l23.8-6.4l40.4,21.1l40.8,12.4h94l12.8,21.6h28l76.1-22.9h106.4l-16.5,18.3h-66.5l-44,29.8v14.7h21.6l8.3,8.7
				h9.6l8.3-6.4h82.5v12.4l-44.5,33.9v22.5h19.3l29.3,37.1v33l-43.1,29.8l31.2,55.9h34.4v23.4l-28.4,31.2l15.1,33.5l22,0.9
				l58.7,33.5l19.7,18.3h12.8l31.2-29.8l20.2-115.1l13.8-43.6l64.7-81.6l37.6-79.3h46.3l35.3-15.6h56.4l36.2,28v20.6l-32.1,59.2
				l17.4,51.8l59.6,58.7h55.5l29.3-35.3l57.3,28.9l44,54.1l-6.4,33v66l-38.5,20.2l-5.5,13.3l14.7,20.2v80.2l-14.7,9.6l-41.7-8.7
				l-1.8,13.8l63.7,59.2h79.8l14.7,34.9l26.6,16v21.7h311.4v-19.4h-33.5l-28.4-19.7v-60.1l17.4-19.7v-33.5l89.4-70.2v-19.7v-23.4
				h60.1v-19.3l28.4-72.9h18.3l26.1,46.8l39.4,33.5h35.3l27.5-19.7V1483l-21.6-43.1v-27.5h14.7V1395l-30.3-40.8h-71.5l-5-33.9
				l11,7.8l5-5l-28.4-33.9l-23.4-31.2v-21.6h6.9v-12.8h-26.6v-16h14.7l32.1-33.9h21.6v38.5l13.3,20.2v72h20.6l24.8-18.8l28.9,9.2
				h28.9l37.1,23.4l26.6,32.1h5v-47.2l6.9-8.3l28.4,22.9v26.6l-14.2,33l10.1,24.3v17l-24.8,9.2l32.6,48.6v50.9h11.5v37.6l17,55.9
				l15.1,28.9v13.8l-12.4,9.6v43.1l-15.6,24.3l19.7,26.6l21.6-11.9l11.5,17l-14.7,31.6l22.5,20.2l33.9-16.5h29.3v48.3h286.6v-62.9
				l-15.1-13.8v-25.7l-61.9-103.6l-34.4-35.8l11.5-18.8l33.5-15.1l36.2,25.2h23.4l13.3,11h18.3V1589l11.9-8.3l31.2,14.2h38.5v-7.8
				v-42.2H3216.8z M2014.9,279.3h-13.3l-5.5-10.5h-11.9l-36.2,27.1h-14.2l-15.1-16.5l55-38.1h33.9l7.3,19V279.3z M2105.2,812.2
				l21.6,29.8l21.6,15.1L2163,842v-15.1l15.1-9.6l15.1,15.1v34.9v50h-23.4V930h-21.6l1.6-31l-19.9-19.9v-17l-13.3-11l-24.3-39
				H2105.2z M2213.5,1143.2l-18.8,19.3v26.1l-9.2-0.5v-9.2h-12.4l-30.3,33.9h-27.5l-33.9,29.8v-40.8h11v9.6h11.9l7.3-9.6h17.4
				l2.3-12.8l15.1-3.2v-16l15.6-3.2l9.2-9.2l-8.7-8.7v-12.4l14.2,1.8l20.2-7.3l20.6-11l8.7,11.5L2213.5,1143.2z M2228.1,329.7v-33.9
				l28.4,16v27.1l-8.3,19.3h-9.6L2228.1,329.7z M2407.4,1299.1l-15.1,24.8l-23.4,1.8l-9.6-14.2l7.3-16.5l-14.2-7.3l-7.8,16.5
				l-17.7-4.1l7.1-14.2l-7.1-17.9l8-14.2l-8-6.9l7.6-21.6l-16.5-7.8l-8.3,22h-8.7l-2.8-21.1l-6-3.2l-21.1-41.7l-12.4-13.3l0.9-21.6
				l-9.2-2.3l-4.1-10.1l9.2-1.8l40.4,32.6v10.5l8.7,13.3l5.5-9.6l12.8-8.7v12.8l11,1.4l5-20.2v-50l22.9,12.8v16.5l14.2,18.8
				l3.7,15.1l10.1,19.7l-6.4,9.2v23.4l23.8,30.3V1299.1z"/>
		</g>
	</g>
	<g>
		<path class="st10" d="M891.3,1146c0,0,0,0-3.8-4.5C889.1,1144.2,891.3,1146,891.3,1146z"/>
		<path class="st10" d="M28.4,441.1c-2.7,10.6-0.7,11.9,0,19.9c0.7,8-6.2,19.2-3.1,37.1c3.1,17.9-0.9,23.9,10.4,27.8
			c11.3,4,9.3,1.3,21.9,20.5c0,0,25.1,35,35.5,39.6c10.4,4.6,10.2,14.2,19.3,12.4c9-1.8,26.1-6.5,28,1.8c1.9,8.3-2.6,12.5,7.9,10.4
			c10.4-2.1-9-6.4,26.8-9.1c35.8-2.7,37.3-6.9,40.3,7.6c3,14.4-1.5,26.3,0,36.8c1.5,10.4-3,19.7,10.4,19.7
			c13.4,0,17.9-1.8,20.9,17.6c3,19.4,6,26.3,7.5,46c1.5,19.6-3,21.1-6,36c-3,14.9-8.9,17.9-1.5,28.3c7.5,10.4,0,26.8,14.9,25.4
			c14.9-1.5,25.6,1.5,30,6c4.3,4.5,8.6,13.4,14.7,6c6.1-7.5-7.8,1,14.1-20.1c13.3-12.9,17-17.1,17.8-18.4c0.5,2.9,3.6,17,11.2,18.4
			c8.5,1.6,9.9-0.4,8,12.9c-2,13.3-3.3,27.8,8,39.1c11.3,11.3,29.8,14.6,31.8,53c2,38.4,8,35.2-5.3,56.4
			c-13.3,21.2-22.5,31.8-24.5,39.1c-2,7.3,4,49,13.9,53c9.9,4,9.9,4,14.6,0c4.6-4-2-14.6,12.6,0c14.6,14.6,6.6,11.9,11.9,18.6
			c5.3,6.6,2.5,7.3,11.5,18.6c9,11.3,28.7,39.1,40.1,40.4c11.4,1.3,9.4,9.9,25.3,3.3c15.9-6.6,10.6-7.3,12.6-22.5
			c2-15.2,10.5-33.7,14.9-37.1c4.4-3.4,16.3-10,16.3-10s7,28.8,30.7,41.3c23.7,12.4,51.5,18.4,81.4,15.7c29.8-2.7,17.2-2,29.8,0.7
			c12.6,2.7,9.3,7.3,23.2,1.3c13.9-6,25.1-10.6,25.1-10.6s6,4,17.3,8c11.3,4,13.3,14.9,36.5,15.7c23.2,0.8,20.5-1.2,31.8-5.8
			c11.3-4.6,2.9-6.1,21.3-8c18.4-1.9,35-9.6,44.3,1.4c2.4,2.9,4.2,5,5.5,6.5c-2-3.4-3.1-8.3,2.7-12.7c10.3-7.8,20.4-17,26-5.8
			c5.6,11.3,6.2,39.1,8.9,44.4c2.7,5.3,4.6,8.6,13.9,7.3c9.3-1.3,55-25.2,72.2-25.8c17.2-0.7,35.7,8.5,38.8,7.6
			c3.1-0.9,7.4-2.2,14.5-4.4c7.1-2.1,7.7-1.2,18.3,1.4c10.6,2.7,20.5,3.3,33.1,3.3c12.6,0,27.8,0,36.5-4c8.6-4,4.6-3.4,22.5-8.3
			c17.9-5,27.8-16.9,27.8-16.9s4,19.9-4,27.2c-8,7.3-11.9,11.3-23.2,11.3c-11.3,0-24.5,0.7-24.5,0.7s-2.7,7.3-25.2,16.6
			c-22.5,9.3-27.4,11.2-37.8,7.3c-10.4-3.9-11.3-4.6-32.5-5.3c-21.2-0.7-23.9-4.6-31.2,4c-7.3,8.6-21.9,26.5-19.2,25.2
			s26.5,13.3,35.8,8c9.3-5.3,21.1-15.1,27.8-15.1s3.4-0.2,12.6,5.1c9.3,5.3,33.8,19.2,45.7,29.8c11.9,10.6,9.7,12.9,18.6,13.3
			c8.8,0.4,9.9,17.9,18.6,22.9c8.6,5,13.9-8.3,9.9,12.9c-4,21.2,0,50.4-1.3,53c-1.3,2.7-8,42.7-8,42.7c0.8,1.8,2.1,3,3.4,4.3
			c8.9,15.2,12.7,31.8,25.4,43.2c10.2,0,21.6,0,31.8,0c0,8.9,2.5,19.1-2.5,26.7c-7.6,8.9-15.2,17.8-24.1,25.4
			c0,12.7,7.6,22.9,12.7,34.3c1.3,1.3,3.8,2.5,5.1,2.5c8.9-1.3,17.8-2.5,25.4,2.5c1.3,1.3,2.5,2.5,3.8,3.8
			c17.8,10.2,38.1,16.5,53.4,31.8c1.3,2.5,3.8,3.8,6.4,6.4c1.3,2.5,2.5,5.1,5.1,6.4c2.5,1.3,6.4,2.5,8.9,2.5
			c16.5-5.1,24.1-21.6,36.8-31.8c14-54.6,12.7-114.3,39.4-165.1c19.1-24.1,36.8-47,57.2-69.9c15.2-26.7,26.7-54.6,39.4-82.6
			c19.1-3.8,38.1,2.5,55.9-5.1c5.1-2.5,8.9-5.1,15.2-6.4c2.5-1.3,3.8-3.8,6.4-5.1c20.3-3.8,39.4,0,59.7-1.3
			c8.9,5.1,15.2,11.4,22.9,17.8c2.5,2.5,6.4,3.8,10.2,6.4c2.5,1.3,3.8,3.8,5.1,6.4c2.5,16.5-5.1,31.8-15.2,45.7
			c-6.4,10.2-10.2,19.1-15.2,29.2c2.5,19.1,8.9,35.6,15.2,53.4c19.1,19.1,36.8,38.1,57.2,57.2c1.3,1.3,3.8,2.5,6.4,2.5
			c17.8,0,35.6,1.3,53.4-1.3c7.6-11.4,15.2-21.6,25.4-31.8c1.3-1.3,3.8-2.5,6.4-1.3c8.9,3.8,17.8,11.4,26.7,15.2
			c5.1,1.3,8.9,3.8,14,6.4c1.3,1.3,3.8,0,5.1,1.3c19.1,12.7,29.2,31.8,44.5,48.3c2.5,3.8,5.1,8.9,7.6,12.7
			c-11.4,31.8-5.1,64.8-6.4,97.8c-15.2,5.1-29.2,11.4-40.7,22.9c-2.5,2.5-3.8,7.6-2.5,10.2c2.5,7.6,11.4,11.4,12.7,20.3
			c3.8,26.7,1.3,53.4,1.3,80c0,2.5-3.8,2.5-6.4,3.8c-1.3,0-1.3,1.3-2.5,2.5c-1.3,0-2.5,1.3-3.8,1.3c-1.3,1.3-1.3,2.5-2.5,2.5
			c-14-2.5-27.9-7.6-41.7-9.2c-2.7,6.6-2.7,13,2.3,18.1c12.7,10.2,21.6,22.9,35.6,31.8c7.6,6.4,12.7,14,19.1,20.3
			c1.3,1.3,5.1,2.5,6.4,2.5c26.7,2.5,52.1-1.3,78.8,1.3c6.4,11.4,11.4,22.9,15.2,35.6c8.9,3.8,19.1,7.6,26.7,15.2
			c-1.3,6.4-1.3,12.7-1.3,19.1c5,0.2,8.7,0.3,11.5,0.3c100.3,2.2,199.4,1,299.7,1c-1.3-6.4,2.5-14-2.5-19.1c-8.9,0-19.1,1.3-27.9,0
			c-12.7-2.5-20.3-12.7-30.5-19.1c0-20.3,0-40.7,0-61c6.4-7.6,15.2-15.2,16.5-26.7c0-8.9,0-16.5,0-25.4c14-10.2,26.7-21.6,41.9-33
			c6.4-5.1,11.4-10.2,17.8-14c8.9-6.4,14-11.4,22.9-17.8c15.2-10.2,5.1-31.8,7.6-48.3c20.3-3.8,39.4,1.3,59.7-2.5
			c-1.3-12.7,1.3-24.1,6.4-35.6c8.9-17.8,15.2-35.6,21.6-54.6c7.6-1.3,17.8-3.8,22.9,5.1c5.1,11.4,10.2,21.6,15.2,31.8
			c2.5,2.5,3.8,5.1,6.4,8.9c10.2,12.7,24.1,19.1,34.3,30.5c24.1,10.2,52.1,3.8,68.6-16.5c0-16.5,1.3-34.3,1.3-50.8
			c0-7.6-1.3-16.5-2.5-24.1c-2.5-15.2-15.2-26.7-20.3-40.7c-2.5-10.2,0-19.1,0-29.2c4.6-3.4,9.1-0.7,13.7-2c0.3,0.1,0.8,0,1.6-0.6
			c0-1.3-1.3-1.3-1.3-2.5c1.3-5.1,1.3-10.2-1.3-15.2c-7.6-12.7-15.2-22.9-24.1-34.3c-3.8-3.8-8.9-6.4-14-5.1
			c-19.1,2.5-36.8,2.5-55.9,2.5c-2.5,0-5.1-1.3-6.4-2.5c-2.4-11-2.6-20.9-4.5-31.9c-0.1-0.4-0.1-0.7-0.2-1.2
			c0.6,0.4,0.9,0.9,1.2,1.3c3.3,3.6,8,7.3,13.7,3.9c0-1.3,1.3-2.5,1.3-2.5c-16.5-21.6-35.6-39.4-49.5-62.2
			c-5.1-7.6-5.1-16.5-1.3-24.1c1.3,0,3.8,0,6.4,0c-1.3-3.8,3.8-6.4,0-10.2c-7.6-5.1-17.8-1.3-26.7-2.5c-2.5-5.1,0-11.4,0-16.5
			c3.8-1.3,8.9,2.5,12.7,1.3c12.7-6.4,17.8-20.3,27.9-30.5c7.6-6.4,17.8-8.9,26.7-3.8c2.5,11.4-2.5,24.1,0,36.8
			c2.5,7.6,10.2,12.7,11.4,20.3c6.1,23.4,1.6,46.7,2.5,70.1c0,0.7,0,1.5,0.1,2.3c6.4,0,12.7,1.3,19.1,0c11.4-3.8,19.1-20.3,33-16.5
			c15.2,5.1,30.5,8.9,47,7.6c3.8,0,6.4,1.3,10.2,2.5c1.3,1.3,2.5,2.5,3.8,3.8c12.7,5.1,22.9,12.7,33,22.9
			c7.6,8.9,12.7,19.1,21.6,26.7c2.5,1.3,5.1-2.5,5.1-5.1c-2.5-12.7-2.5-24.1-1.3-35.6c1.3-5.1-1.3-12.7,6.4-15.2
			c10.2,6.4,19.1,14,27.9,21.6c6.4,21.6-3.8,41.9-12.7,61c6.4,12.7,11.4,25.4,10.2,39.4c-6.4,6.4-16.5,6.4-25,10.7
			c1.6,2.5,2.9,3.9,3.8,4.6c3.4,4.2,6.7,8.4,8.5,14c1.3,1.3,2.5,2.5,3.8,3.8c3.8,10.2,14,16.5,15.2,26.7c3.8,17.8-2.5,34.3,3.8,50.8
			c0,1.3,7.6-3.8,7.6,0c2.5,16.5,0,31.8,3.8,48.3c3.8,14,7.6,27.9,12.7,41.9c3.8,8.9,11.4,17.8,15.2,26.7c1.3,3.8,3.8,8.9,2.5,14
			c-1.3,7.6-10.2,10.2-14,15.2c0,14,5.1,26.7,1.3,40.7c-3.8,8.9-11.4,16.5-15.2,25.4c3.8,8.9,10.2,17.8,16.5,25.4
			c6.4,3.8,14-2.5,19.1-7.6c3.8-2.5,6.4-1.3,8.9,1.3c10.2,12.7,3.8,27.9-5.1,40.7c-1.3,1.3-1.3,3.8-1.3,5.1
			c5.1,7.6,12.7,11.4,19.1,17.8c1.3,1.3,2.5,1.3,3.8,1.3c6.4-1.3,11.4-5.1,16.5-8.9c14-7.6,29.2-10.2,44.5-6.4
			c3.8,15.2,0,31.8,1.3,47c95.3,0,190.6-1.3,285.8,1.3c2.5-17.8-1.3-35.6,1.3-54.6c1.3-8.9-6.4-14-12.7-19.1
			c-8.9-8.9,0-24.1-6.4-34.3c-19.1-31.8-33-62.2-54.6-94c-11.4-15.2-24.1-26.7-36.8-38.1c-2.5-7.6,5.1-16.5,10.2-21.6
			c10.2-7.6,21.6-8.9,31.8-15.2c12.7,7.6,22.9,20.3,36.8,24.1c8.9,3.8,17.8,0,26.7,2.5c6.4,8.9,19.1,16.5,29.2,8.9
			c0-10.2-2.5-20.3,2.5-29.2c2.5-3.8,7.6-5.1,12.7-3.8c20.3,10.2,43.2,16.5,66.1,11.4c0-16.5,0-31.8,0-48.3
			c-5.1,1.3-11.4-1.3-16.5-1.3c-6.4,1.3-10.2,6.4-14,10.2c-2.5,2.5-5.1,3.8-7.6,3.8c-14,1.3-27.9-2.5-41.9,2.5
			c-2.5,1.3-5.1,2.5-8.9,3.8c-3.8,1.3-5.1,6.4-8.9,5.1c-6.4-1.3-11.4-8.9-19.1-10.2c-7.6-2.5-16.5-1.3-24.1-1.3
			c-5.1-7.6-15.2-10.2-24.1-8.9c-6.4-5.1-12.7-12.7-15.2-20.3c-2.5-3.8,2.5-8.9,5.1-12.7c10.2-12.7,15.2-26.7,14-41.9
			c0-2.5,2.5-5.1,3.8-6.4c7.6-5.1,15.2-10.2,17.8-19.1c1.3-5.1-1.3-10.2-3.8-15.2c-3.8-3.8-10.2-3.8-12.7-8.9
			c-3.8-6.4-1.3-12.7-1.3-19.1c-7.6-3.8-16.5,2.5-24.1,0c-3.8-7.6,1.3-16.5-2.5-24.1c-7.6-2.5-15.2-3.8-21.6-10.2
			c6.4-11.4,7.6-24.1,15.2-35.6c3.8-6.4,3.8-14-3.8-19.1c-26.7-19.1-49.5-38.1-68.6-66.1c-1.3-1.3-2.5-1.3-3.8-2.5
			c-2.5-2.5-3.8-5.1-3.8-7.6c0-5.1,0-11.4,0-16.5c-1.3-14-6.4-27.9-8.9-41.9c3.8-5.1,5.1-10.2,7.6-15.2c5.1-5.1,12.7-1.3,16.5,3.8
			c2.5,5.1,1.3,12.7,5.1,17.8c1.3,1.3,3.8,2.5,5.1,2.5c6.4,0,12.7-1.3,19.1-1.3s10.2-5.1,16.5-6.4c5.1-2.5,10.2-7.6,11.4-12.7
			c1.3-12.7,0-24.1,0-36.8c6.4-2.5,12.7,2.5,19.1,0c3.8-2.5-1.3-7.6,0-11.4c8.9-1.3,16.5-11.4,24.1-5.1c6.4,6.4,8.9,19.1,19.1,20.3
			c6.4,0,12.7,2.5,17.8-1.3c5.1-5.1,6.4-12.7,8.9-20.3c0-1.3,1.3-2.5,2.5-3.8c3.8-7.6,1.3-14-1.3-21.6c-5.1-8.9-15.2-20.3-6.4-29.2
			c2.5-2.5,3.8-5.1,6.4-8.9c8.9-11.4,21.6-20.3,24.1-34.3c2.5-12.7,1.3-26.7,1.3-39.4c10.2,1.3,20.3-1.3,21.6-11.4
			c2.5-8.9,3.8-19.1,0-27.9c-1.3-1.3-5.1-2.5-6.4-5.1c-1.3-1.3-1.3-3.8-2.5-5.1c-14-12.7-20.3-30.5-22.9-48.3c0-2.5,1.3-6.4,2.5-8.9
			c7.6-10.2,11.4-20.3,20.3-27.9c10.2,0,21.6,0,31.8-1.3c1.3-7.6,2.5-14-3.8-20.3c-30.5-29.2-61-55.9-92.7-82.6
			c-6.4,0-14-2.5-20.3,1.3c-3.8,3.8-6.4,7.6-8.9,11.4c5.1,5.1,10.2,8.9,11.4,16.5c0,3.8-1.3,7.6-3.8,10.2
			c-14,16.5-24.1,35.6-41.9,48.3c-6.4,2.5-16.5,6.4-20.3-1.3c2.5-7.6,1.3-15.2-1.3-21.6c-11.4-20.3-24.1-38.1-34.3-57.2
			c-11.4-11.4-27.9-16.5-40.7-25.4c-7.6,3.8-14,10.2-21.6,14c-8.9,5.1-19.1,3.8-29.2,3.8c-3.8,0-6.4,2.5-8.9,5.1
			c-1.3,2.5-3.8,5.1-6.4,6.4c-1.3,1.3-1.3,2.5-2.5,3.8c-29.2,16.5-57.2,30.5-86.4,43.2c-6.4,2.5-12.7,3.8-19.1,3.8
			c-2.5,0-6.4-1.3-8.9-2.5c-12.7-8.9-21.6-20.3-34.3-26.7c-2.5-1.3-3.8-5.1-6.4-7.6c-1.3-3.8-2.5-7.6-3.8-11.4
			c-1.3-6.4-5.1-12.7-2.5-17.8c2.5-8.9,14-17.8,24-13.2c-0.3,0.6-0.7,0.9-1,0.9c-2.9,2.9-3.8,6.3-2.6,9.8c1.3,2.5,0,7.6,5.1,7.6
			c3.8-1.3,6.4-7.6,11.4-7.6c2.5,1.3,3.8,3.8,5.1,6.4c0,2.5-1.3,5.1-5.1,7.6c-2.5,2.5-2.5,5.1,0,8.9c5.1,6.4,14,3.8,20.3,3.8
			c3.8-10.2,10.2-19.1,12.7-30.5c-8.9-7.6-21.6-12.7-25.4-22.9c-5.1-11.4,5.1-20.3,8.9-30.5c1.3-6.4-1.3-14,3.8-19.1
			c3.8-2.5,6.4-6.4,7.6-11.4c1.3-10.2-2.5-21.6,2.5-30.5c5.1-7.6,12.7-14,12.7-22.9c0-10.2-1.3-19.1,5.1-27.9
			c8.9-10.2,16.5-20.3,24.1-31.8c7.6-2.5,16.5,1.3,22.9-2.5c5.1-2.5,1.3-11.4,2.5-17.8c-17.8-2.5-36.8,2.5-54.6-1.3
			c-5.1-12.7-14-21.6-21.6-33c-10.2-14-26.7-27.9-16.5-45.7c14-7.6,27.9-15.2,40.7-25.4c1.3-1.3,2.5-3.8,2.5-5.1
			c-1.3-8.9,0-17.8-2.5-26.7c-8.9-5.1-16.5-12.7-26.7-16.5c-3.8-1.3-6.4-3.8-8.9-6.4c-3.8-2.5-7.6-2.5-10.2-5.1
			c-2.5-2.5-5.1-5.1-8.9-6.4c-2.5-2.5-5.1-5.1-7.6-7.6c-7.6-12.7-17.8-19.1-26.7-29.2c-3.8-6.4-8.9-8.9-12.7-15.2
			c-6.4,5.1-14,8.9-15.2,16.5c0,12.7,1.3,25.4-8.9,34.3c-11.4,2.5-19.1-6.4-27.9-12.7c-7.6-5.1-19.1-3.8-25.4,2.5
			c-6.4,7.6,1.3,19.1-3.8,27.9c-1.3,1.3-6.4-1.3-7.6,0c-7.6,12.7-11.4,26.7-17.8,39.4c-2.5,6.4,5.1,14,3.8,20.3
			c0,3.8-2.5,8.9-6.4,12.7c-3.8,2.5-6.4-2.5-10.2-3.8c-7.6-1.3-11.4,6.4-16.4,10.6c-8.9-9.8-17.1-20.1-25.2-30.5
			c-5-7.5-34.3-51.8-34.4-51.8c-0.1,0-50.4-24-57.8-27.3c-7.4-3.3-23.1-27.8-23.2-31.2c0-3.4,3.3-37.9,0-39.1
			c-3.3-1.2-14.6-12.7-17.2-21c-2.7-8.3-4.3-31.9-7.1-39.9c-2.8-8-11.4-14.6-14.4-17.9c-3-3.3-25.1,1.3-27,3.3
			c-1.9,2,3.2,9.3,0,14.6c-3.2,5.3-51.3,2-65.3,4c-14.1,2-23.4,13-34,17.8c-10.6,4.7-23.2-6-23.2-6s-8.3-11.7-17.4-6.1
			c-9.1,5.6-5.1,17.9-7.8,21.7c-2.7,3.8-27.4-11.8-30.2-18.4c-2.8-6.5,8.9-8.6,0-17.1c-8.9-8.4-19.5-20.3-20.1-28.6
			c-0.7-8.3-0.7-43.2-7.3-48.3c-6.6-5.1-8.6-7.7-11.3-11.7c-2.7-4-9.3-19.2-12.6-22.5c-3.3-3.3-58.5-12.6-70-13.9
			c-11.5-1.3-102.3,15.3-112.3,21.9c-9.9,6.6-16.6,13.4-26.8,15.6c-10.3,2.2-17.6,10.5-24.9,10.7c-7.3,0.2-15.1,5.8-23.4,0
			c-8.4-5.8-17.9-12.4-28.7-13.1c-10.8-0.7-21.3-1.2-27,2.4c-5.7,3.6-27.5,20.3-30.5,24.2c-3,3.9-14.3,9.3-19.6,13.3
			c-5.3,3.9-19.3,34-21.2,38.7c-1.9,4.7,17.2,16.3,11.9,24.2c-5.3,8-8.8,11.9-15.1,14.8c-6.3,2.8-16.3,11.7-16.3,11.7
			s-2.4,0.9-2.7,12.8c-0.3,11.9,6.3,53.6,12.9,58.2c6.6,4.6,31.3-12.9,29.9-6.2c-1.4,6.8-16.7,36.6-16.7,40.6c0,4,10.1,27,4,31
			c-6,4.1-17.2,2-28.2,4c-11,2-56.9,24-56.9,24s-32.9-10.6-47.5-12.3c-14.6-1.7-51.3-24.7-55.6-34.1c-4.3-9.5,2-33.9-4-34.8
			c-6-1-9.5,0.6-9.1,4.1c0.4,3.5-4.1,24-4.8,29.3c-0.7,5.3-11.1,21.6-8.1,22.7c3.1,1.1,8.5,28.1,8.1,31.3c-0.4,3.2-3.3,5.7-9.6,13.9
			c-6.3,8.3-0.3,6.3-8.5,13c-8.2,6.7-17.3,14-19.8,18.2c-2.5,4.3-3.2,10.9-10.5,11.7c-7.3,0.7-17.5-11.4-19.7-16.8l-9.7-40
			c0,0-19.1,5.5-25.7,4.6c-6.5-0.9-4.3,9.6-12.4,11c-8.1,1.4-11.4-5.9-15.2-3.1c-3.8,2.9-9.5,3-5.9,5.6c3.6,2.6,14,4.2,8.9,11.5
			c-5.1,7.3-35.6,15.6-41.9,16.4c-6.3,0.7-0.9-1.9-6.3,0.7c-5.3,2.7-4.2,6-10.1,5.7s-9.4-5.2-9.6-1.8c-0.2,3.4-5.4,29-13.8,36.1
			c-6.6,5.6-5,10.5-3,15.3c-2.3-2.8-6.5-5.8-13.6-6.7c-16.9-2-30.2-3.1-35.5-6.6c-5.3-3.5-21-17.7-25.5-19.6
			c-4.5-1.9-21.9-18.6-29.7-21.3c-7.8-2.7-24.1-9.7-29.2-17c-5.1-7.3-8.4-14.2-11.5-16.5c-3.1-2.3-5.7-3.9-8.3-6
			c-2.6-2,0.9-3-6.8-9.2c-7.7-6.1-6.1-11-9.9-11.2c-3.8-0.2-5.5,15.8-11.6,14.8c-6.1-1-17.3,8.9-17.3,8.9s8.9-8.3,0-10.3
			c-8.9-2.1-6.5,1.3-8.9-2.1c-2.4-3.4-0.8-10.3-4.6-14c-3.8-3.7-18.6-9.3-23.6-10.1s-18.1,3.4-18.1,3.4s19.4-8.4,7.8-12.8
			c-11.6-4.5-18.8-5.4-18.8-5.4s0.3-15-5.9-16.6c-6.2-1.7-3.7-3.5-16.1-1.5c-12.5,2-19.4,9.9-26.6,14.8c-7.2,4.9-8.5,2.6-11.8,1.4
			c-3.3-1.2-31.8,1.6-34.9-1.4c-3.1-3-30.4-32.6-33.4-36.1c-2.9-3.5,1.7-15.8-3.1-18.7c-4.7-2.9-10.7-4.7-12.1-9.6
			c-1.4-4.9-16-37.2-21.5-42.6c-5.5-5.4-6.8-12-13.9-12.7c-7.1-0.7-16.8,1.5-26-5.5c-9.2-7-5.6-11.5-14-10
			c-8.4,1.5-24.7,16-32.8,11.7c0,0-18.6-4.4-18.6-12.5s-1.7-12.8-7.1-14.1c-5.5-1.2-19.8,11.4-32.6,1.3
			c-12.8-10.1-32-21.5-42.9-28.1c-10.9-6.6-8.3-13.6-27-15.4c-18.7-1.8,0.9,12.7-29.2,13.4c-30.1,0.7-58,1.5-65.3-4.2
			c-7.3-5.7-10.6-14.4-28.5-3.8c-17.9,10.6-18.6,10-24.2,10c-5.6,0-5,4.4-26.2,2.8c-45.3-3.3-39.8,22.8-56.8,21.1
			c-16.9-1.6-24.9-1.7-31.5-2.3c-6.6-0.5-9-21.6-18.8-21.4c-15.2,0.4,2.6,19.6-20,14.9c-7-1.4-0.9,9.3,0,15.9
			c0.9,6.6,0.9,22.1-7.9,22.2c-8.9,0.1-10.2-5.6-12.2-3.7c-12.2,11.3,5.9,26.2,0,32.4c-12.2,13-8.1,34.8-20.3,44.4
			c-8.5,6.7-15.6-4.5-19.8,10.4c-2.1,7.4-20.8,4.5-27.9,6.2c-9.9,2.4-19.3-3.9-22-4.9c-2.7-1-2.3-5.5-22.8-7.5
			c-20.5-2-9,3.3-29.6,1.6c-20.5-1.7-26.9-3.7-48.8,3.7c-21.9,7.4-28.1,39.9-38,36.8c-9.9-3-5.1-1.1-18.8-0.8
			c-13.7,0.4-17.7,6.3-30.3,9.3c-12.6,3-35.5,19.9-35.5,19.9s-2.2,9.6-10.2,16.9s-12.6,22.5-10.6,27.2
			C27.7,431.8,31,430.5,28.4,441.1z"/>
		<path class="st10" d="M3153.9,978.6C3153.9,989,3160.3,979.7,3153.9,978.6L3153.9,978.6z"/>
		<path class="st10" d="M2734.8,723.7c0.3-0.3,0.6-0.6,1-0.9C2733.4,722.6,2733.9,723.9,2734.8,723.7z"/>
		<path class="st10" d="M2556.9,436.6C2559.5,432.9,2545.4,422.5,2556.9,436.6L2556.9,436.6z"/>
		<path class="st10" d="M2467.3,1321.5c0.7,3.1,1.9,1.8,1,0.1c-0.4-0.4-0.8-0.9-1.2-1.3C2467.1,1320.6,2467.2,1321,2467.3,1321.5z"
			/>
		<path class="st10" d="M2412,1207.3C2413,1211.6,2417.9,1206.1,2412,1207.3L2412,1207.3z"/>
		<path class="st10" d="M1225.5,1434.6C1217.2,1434.6,1224.1,1446.2,1225.5,1434.6L1225.5,1434.6z"/>
	</g>
	<polygon class="st10" points="5.5,300.4 5.5,270.6 31.1,246.3 74.3,261.9 93.1,278.8 93.1,304.5 68.3,317.3 34.4,317.3 13.3,329.7 
		0,317.3 	"/>
	<polygon class="st10" points="115.1,246.3 133.9,246.3 140.3,266 136.6,283 121.5,283 112.3,262.3 	"/>
</g>
</svg>
