<svg xmlns="http://www.w3.org/2000/svg" width="147.59" height="107.33" viewBox="0 0 147.59 107.33"><defs><style>.a{fill:#454545;}.b{fill:#58595b;}.c{fill:#414042;}.d{fill:#dadada;}.e{fill:#e7e7e7;}.f{fill:#f1f2f2;}.g{fill:#ee3e3e;}.h{fill:#d8d8d8;}.i{fill:#bababa;}.j{fill:#303030;}.k{fill:#3a3a3a;}.l{fill:#7a7a7a;}.m{fill:#272727;}.n{fill:#383838;}.o{fill:#c3c3c3;}.p{fill:#c13533;}.q{fill:#b33232;}.r{fill:#646464;}.s{fill:#474747;}.t{fill:#7e7e7e;}.u{fill:#d0d0d0;}.v{fill:#ea696a;}.w{fill:#525252;}.x{fill:#fff;}</style></defs><path class="a" d="M147.54,77.95l-8.03-4.63-.32,4.6,8.03,4.64Z"/><path class="b" d="M116.9,42.72l-.06-.93-.08-2.26-7.29,4.01-.04.62v.01h0v.02l.02-.01.44.21,2.96-1.57V44.5l.6.03.04-.02v.06Z"/><path class="c" d="M3.15,35.67l4.3,3.04-.02,4.54L0,37.46Z"/><path class="d" d="M52.29,9.77,38.15,5.11,2.98,25.25l14.14,4.66Z"/><path class="e" d="M103.22,23.53,62.87,0,27.69,20.14,68.04,43.66Z"/><path class="f" d="M103.4,23.97,63.04.45,27.87,20.59,68.22,44.11Z"/><path class="g" d="M145.44,69.66,107.65,91.48l-1.87,13.42,37.8-21.82Z"/><path class="h" d="M144.09,71.34,109.24,91.55l-1.34,8.11,34.85-20.21Z"/><path class="g" d="M114.21,46.78c-11.37,9.99-19.7,14.34-36.71,21.03l30.07,23.72,37.79-21.82-.35-1.7Z"/><path class="i" d="M103.22,23.53,67.91,43.45,75.36,70.3c17.45-6.53,27.89-12.71,39.09-22.81Z"/><path class="j" d="M102.83,25.72,70.16,44.5l8.42,22.38c15.44-6.02,25-11.25,34.56-20.1Z"/><path class="k" d="M102.35,26.7,70.71,44.88l8.15,21.67c14.96-5.83,24.21-10.9,33.47-19.46Z"/><path class="l" d="M86.8,80.23l-8.3,3.91,1.89,8.84,6.41-3.91Z"/><path class="m" d="M96.38,102.31a4.847,4.847,0,0,0,1.74-4.24A14.959,14.959,0,0,0,91.24,86.4a5.05,5.05,0,0,0-4.39-.65c-.21.08-3.21,1.86-3.34,1.96a4.909,4.909,0,0,0-1.69,4.21,14.959,14.959,0,0,0,6.88,11.67c1.78,1.01,3.4,1.15,4.61.56Z"/><path class="n" d="M81.17,92.29a14.959,14.959,0,0,0,6.88,11.67c3.77,2.14,6.8.38,6.77-3.92a14.943,14.943,0,0,0-6.88-11.67C84.16,86.23,81.13,87.98,81.17,92.29Z"/><path class="o" d="M83.2,93.7a10.3,10.3,0,0,0,4.73,8.03c2.59,1.47,4.68.26,4.66-2.7A10.287,10.287,0,0,0,87.85,91C85.26,89.53,83.18,90.73,83.2,93.7Z"/><path class="l" d="M20.8,38.79l-9.22,4.52,2.1,8.7,7.12-4.38Z"/><path class="m" d="M29.74,63.9a4.9,4.9,0,0,0,1.74-4.24A14.959,14.959,0,0,0,24.6,47.99a5.067,5.067,0,0,0-4.4-.65c-.2.08-3.2,1.86-3.33,1.96a4.874,4.874,0,0,0-1.69,4.2,14.959,14.959,0,0,0,6.88,11.67c1.78,1.01,3.4,1.15,4.61.56Z"/><path class="n" d="M14.52,53.89A14.959,14.959,0,0,0,21.4,65.56c3.77,2.14,6.8.38,6.77-3.92a14.959,14.959,0,0,0-6.88-11.67C17.52,47.83,14.49,49.58,14.52,53.89Z"/><path class="o" d="M16.55,55.3a10.3,10.3,0,0,0,4.73,8.03c2.59,1.47,4.68.26,4.66-2.7a10.3,10.3,0,0,0-4.73-8.03C18.62,51.13,16.53,52.34,16.55,55.3Z"/><path class="p" d="M75.8,67.74,65.54,49.79,30.18,29.14l-14.57,2.3L2.9,25.18V41.47l7,8.23,3.54,2.27c.34-4.64,3.87-6.41,8.17-3.92,4.53,2.61,8.2,8.94,8.2,14.14,0,.27-.01.52-.03.77l50.3,28.98.21.09c-.02-.26-.03-.52-.03-.77,0-5.19,3.67-7.29,8.2-4.67,4.17,2.41,7.62,7.98,8.13,12.9l9.28,5.36,1.87-13.44Z"/><path class="q" d="M11.8,51.17l1.91,1.36c1.54-9.22,15.21-2.12,15.78,9.95a8.032,8.032,0,0,0,1.07.58C30.57,48.12,12.88,37.81,11.8,51.17Z"/><path class="q" d="M78.33,90.44l1.95,1.12c1.19-10.17,15.12-3.46,16.01,7.8a9.659,9.659,0,0,0,1.16.65C97.46,85.07,79.43,76.94,78.33,90.44Z"/><path class="h" d="M78.69,68.76,68,43.37,27.73,20.12,14.18,28.66,2.9,25.18,107.72,91.39l-.46-1.6Z"/><path class="i" d="M29.47,31.01l-3.1-1.75-8.23,3.37,6.69,3.87Z"/><path class="r" d="M80.38,91.2,29.42,61.77l.06,1.77L80.44,92.96Z"/><path class="s" d="M145.8,77.64l-40.31,23.37,1.19.7,40.31-23.37Z"/><path class="c" d="M109.75,100.48l-3.68.18-6.66-3.82L97.4,98.17l9.72,7.91Z"/><path class="r" d="M105.42,102.72l-8.03-4.63-.31,4.6,8.02,4.64Z"/><path class="c" d="M2.9,37.31l4.31,2.48-.02,3.87L5,44.88.72,38.08Z"/><path class="r" d="M0,37.46l5.03,2.91V44.9L0,42Z"/><path class="t" d="M103.01,90.15l-2.66-1.53v1.32l2.66,1.53Z"/><path class="k" d="M68.72,45.78,36.16,26.7,25.76,38.04,73.91,66.25Z"/><path class="k" d="M54.8,37.9l-3.57-2.1L48.54,50.27l3.57,2.09Z"/><path class="u" d="M54.09,36.17l-1.71-1L49.25,52l1.71,1Z"/><path class="l" d="M73.82,66.18l-.63-.54-.98,3.33.63.55Z"/><path class="l" d="M49.28,51.8l-.62-.5-.86,2.24.28.43Z"/><path class="d" d="M28.7,31.2l-3.1-1.76-8.23,3.37,6.68,3.86Z"/><path class="l" d="M27.16,38.76,25.85,38l-.51,1.36.33.57Z"/><path class="v" d="M145,67.99l-37.71,21.8.42,1.7L145.43,69.7Z"/><path class="b" d="M147.59,77.94,105.1,102.63v4.66L147.59,82.6Z"/><path class="w" d="M103.06,26.83l-.47-.28L92.45,32.38l17.93,10.51Z"/><path class="k" d="M103.16,26.41h-.59l3.59,15.8h.59Z"/><path class="d" d="M25.4,34.66l-4.86-2.8-.89.41,5.3,2.98Z"/><path class="p" d="M78.69,68.76,14.18,28.66,2.9,25.18,107.72,91.39l-.46-1.6Z"/><path class="b" d="M30.57,53.39v2.97L78.33,84.01v-3.2Z"/><path class="b" d="M71.85,65.04l-6.02,3.43v3.36l.74.32,3.56-4.44,2.42-2.3Z"/><path class="b" d="M72.56,65.39l-6.02,3.43v3.37l4.07-2.34.37-2.72,1.56-1.11Z"/><path class="x" d="M79.05,16.11,61.16,25.72l-8.95-5.01,17.9-9.61Z"/></svg>