<svg xmlns="http://www.w3.org/2000/svg" width="20.006" height="20.042" viewBox="0 0 20.006 20.042"><defs><style>.a{fill:#fff;}</style></defs><g transform="translate(0 0)"><path class="a" d="M144.806,199.343a4.22,4.22,0,0,1-3.277-1.471.191.191,0,0,1,.02-.272h0a.191.191,0,0,1,.265.02,4.155,4.155,0,0,0,4.713,1.013,2.378,2.378,0,0,1-1.326-.243c-1.461-.96-.8-1.982-1.77-3.217s-1.832-1.2-3.2-.99a1.6,1.6,0,0,1-1.917-1.338.1.1,0,0,0-.2-.01c-1.686,4.554,3.383,10.189,8.586,6.138A5.721,5.721,0,0,1,144.806,199.343Zm-3.8-1.546a.09.09,0,0,1-.171,0l-.194-.64-.668-.023a.09.09,0,0,1-.048-.164l.548-.382-.184-.643a.09.09,0,0,1,.141-.1l.533.4.554-.374a.09.09,0,0,1,.135.1l-.219.632.527.412a.09.09,0,0,1-.057.161l-.668-.013Z" transform="translate(-137.79 -188.098)"/><path class="a" d="M250.757,204.125a4.22,4.22,0,0,1,3.5-.788.191.191,0,0,1,.147.229h0a.191.191,0,0,1-.224.143,4.155,4.155,0,0,0-4.379,2.016,2.378,2.378,0,0,1,1.207-.6c1.745-.108,1.828,1.107,3.345,1.513s2.184-.141,3.153-1.126a1.6,1.6,0,0,1,2.336-.079.1.1,0,0,0,.163-.11c-1.382-4.655-8.818-6.125-10.552.238A5.725,5.725,0,0,1,250.757,204.125Zm3.965-1.04a.09.09,0,0,1,.139-.1l.539.4.549-.382a.09.09,0,0,1,.137.1l-.21.635.533.4a.09.09,0,0,1-.055.162l-.668,0-.219.631a.09.09,0,0,1-.171,0l-.2-.637-.668-.013a.09.09,0,0,1-.051-.163l.543-.39Z" transform="translate(-240.009 -195.906)"/><path class="a" d="M210.508,146.237a4.22,4.22,0,0,1,.113-3.59.191.191,0,0,1,.259-.085h0a.191.191,0,0,1,.082.253,4.155,4.155,0,0,0,.857,4.744,2.379,2.379,0,0,1-.28-1.319c.332-1.716,1.529-1.493,2.3-2.861s.41-2.149-.3-3.334a1.6,1.6,0,0,1,.507-2.282.1.1,0,0,0-.066-.186c-4.853.174-8.136,7.005-2.409,10.276A5.728,5.728,0,0,1,210.508,146.237Zm-.016-4.1a.09.09,0,0,1-.061-.16l.518-.423-.233-.627a.09.09,0,0,1,.133-.107l.562.362.524-.415a.09.09,0,0,1,.143.094l-.17.646.556.37a.09.09,0,0,1-.045.165l-.667.038-.18.644a.09.09,0,0,1-.171.008l-.242-.623Z" transform="translate(-202.552 -137.578)"/><path class="a" d="M256.817,257.348a4.22,4.22,0,0,1,1.849,3.079.19.19,0,0,1-.172.212h0a.191.191,0,0,1-.206-.168A4.155,4.155,0,0,0,255,256.947a2.378,2.378,0,0,1,.949.957c.65,1.623-.477,2.083-.386,3.651s.819,2.029,2.059,2.64a1.6,1.6,0,0,1,.809,2.193.1.1,0,0,0,.156.12c3.985-2.775,3.045-10.3-3.54-9.943A5.724,5.724,0,0,1,256.817,257.348Zm2.233,3.438a.09.09,0,0,1,.138.1l-.206.636.535.4a.09.09,0,0,1-.054.162h-.668l-.216.633a.09.09,0,0,1-.171,0l-.207-.636-.668-.01a.09.09,0,0,1-.052-.163l.541-.393-.2-.639a.09.09,0,0,1,.139-.1l.541.393Z" transform="translate(-245.08 -246.486)"/><path class="a" d="M161.711,267.451a4.22,4.22,0,0,1-2.371,2.7.191.191,0,0,1-.254-.1h0a.191.191,0,0,1,.1-.247,4.155,4.155,0,0,0,2.357-4.206,2.378,2.378,0,0,1-.623,1.2c-1.348,1.113-2.129.18-3.6.744s-1.683,1.4-1.888,2.764a1.6,1.6,0,0,1-1.843,1.438.1.1,0,0,0-.067.185c3.856,2.952,10.734-.232,8.394-6.4A5.724,5.724,0,0,1,161.711,267.451Zm-2.6,3.174a.09.09,0,0,1-.055.162l-.668,0-.219.631a.09.09,0,0,1-.171,0l-.2-.637-.668-.013a.09.09,0,0,1-.051-.163l.542-.391-.194-.64a.09.09,0,0,1,.139-.1l.539.4.548-.382a.09.09,0,0,1,.137.1l-.209.635Z" transform="translate(-152.155 -254.698)"/></g></svg>