<svg xmlns="http://www.w3.org/2000/svg" xmlns:xlink="http://www.w3.org/1999/xlink" width="305.943" height="331.454" viewBox="0 0 305.943 331.454"><defs><style>.a{fill:#fff;}.b{fill:#d8d9da;}.c{fill:#c5c5c7;}.d{fill:#ececed;}.e{fill:#403f41;}.f{fill:#b0b1b3;}.g{fill:#58595a;}.h{fill:url(#a);}.i{fill:#6f7072;}.j{fill:#9b9c9e;}</style><linearGradient id="a" x1="0.5" y1="1" x2="0.5" gradientUnits="objectBoundingBox"><stop offset="0.437" stop-color="#fff"/><stop offset="0.652" stop-color="#fcfcfc"/><stop offset="0.759" stop-color="#f5f5f5"/><stop offset="0.841" stop-color="#e8e8e8"/><stop offset="0.911" stop-color="#d5d5d6"/><stop offset="0.972" stop-color="#bdbebf"/><stop offset="1" stop-color="#b0b1b3"/></linearGradient></defs><g transform="translate(0)"><path class="a" d="M311.168,316.636,148.5,250.672,229.834,202Z" transform="translate(-126.266 -130.432)"/><path class="b" d="M166.384,245.909l55.554-33.245,55.554,78.3Z" transform="translate(-121.243 -127.436)"/><path class="c" d="M170.721,242.639l100.062,40.576L220.752,212.7Z" transform="translate(-120.024 -127.427)"/><path class="d" d="M212,217.692l119.592-71.567L414.374,261.88l-121.04,70.449Z" transform="translate(-108.431 -146.125)"/><path class="e" d="M273.792,207.311l13.744-8.225,30.334,42.435-13.911,8.1Z" transform="translate(-91.076 -131.25)"/><path class="b" d="M165.983,313.777l-25.012,14.968L313.283,398.6l25.012-14.568L165.983,313.777" transform="translate(-128.38 -99.038)"/><path class="f" d="M330.7,402.529,168.026,336.2V247.917l137.658,55.822L330.7,289.182Z" transform="translate(-120.781 -117.535)"/><path class="g" d="M253.06,302.4,222,289.806v62.821l31.061,12.664Z" transform="translate(-105.623 -105.77)"/><g transform="translate(33.441 124.827)"><path class="h" d="M258.5,284.638V388.009c0,2.323,3.153,4.208,7.045,4.208s7.045-1.884,7.045-4.208V290.352Z" transform="translate(-128.812 -232.048)"/><path class="h" d="M244.035,381.88c0,2.323,3.155,4.206,7.045,4.206s7.045-1.883,7.045-4.206V284.487l-14.089-5.714Z" transform="translate(-132.874 -233.696)"/><path class="h" d="M229.57,375.751c0,2.323,3.155,4.206,7.045,4.206s7.045-1.883,7.045-4.206v-97.13l-14.089-5.714Z" transform="translate(-136.937 -235.343)"/><path class="h" d="M186.178,357.362c0,2.324,3.153,4.206,7.045,4.206s7.045-1.883,7.045-4.206V261.025l-14.089-5.714Z" transform="translate(-149.124 -240.285)"/><path class="h" d="M171.713,351.234c0,2.323,3.155,4.206,7.045,4.206s7.045-1.883,7.045-4.206V255.159l-14.089-5.713Z" transform="translate(-153.187 -241.932)"/><path class="h" d="M157.249,345.1h.006c0,.027-.006.053-.006.081,0,2.322,3.153,4.206,7.045,4.206s7.045-1.884,7.045-4.206c0-.028-.006-.054-.006-.081h.006v-95.81l-14.089-5.714Z" transform="translate(-157.249 -243.58)"/></g><path class="a" d="M140.972,325.463v12.29l172.311,69.854v-12.29Z" transform="translate(-128.38 -95.756)"/><path class="a" d="M131.141,340.767v12.29l172.311,69.854v-12.29Z" transform="translate(-131.141 -91.457)"/><path class="c" d="M303.272,292.389V405.781L278.333,420.3l-.073,12.268-12.592,7.334V452.2L399.3,374.419V236.5Z" transform="translate(-93.358 -120.742)"/><path class="b" d="M131.141,342.37l12.592-7.311L316.044,404.89l-12.592,7.334Z" transform="translate(-131.141 -93.061)"/><path class="i" d="M280.295,202.327l30.84,42.052,4.91-2.858L285.71,199.086Z" transform="translate(-89.25 -131.25)"/><path class="j" d="M220.752,212.7l-50.031,29.94,1.114.452,49.442-29.651Z" transform="translate(-120.024 -127.427)"/></g></svg>