<svg xmlns="http://www.w3.org/2000/svg" xmlns:xlink="http://www.w3.org/1999/xlink" width="969" height="557" viewBox="0 0 969 557">
  <defs>
    <linearGradient id="linear-gradient" x1="0.366" x2="1" y2="0.712" gradientUnits="objectBoundingBox">
      <stop offset="0" stop-color="#ceedf3" stop-opacity="0.4"/>
      <stop offset="1" stop-color="#bae9e7" stop-opacity="0.839"/>
    </linearGradient>
    <linearGradient id="linear-gradient-2" x1="0.416" y1="0.125" x2="0.921" y2="0.652" gradientUnits="objectBoundingBox">
      <stop offset="0" stop-color="#baf9f7" stop-opacity="0.4"/>
      <stop offset="1" stop-color="#c7f6f6" stop-opacity="0.659"/>
    </linearGradient>
    <linearGradient id="linear-gradient-3" x1="0.5" x2="1.139" y2="0.678" gradientUnits="objectBoundingBox">
      <stop offset="0" stop-color="#95f3e6" stop-opacity="0.659"/>
      <stop offset="1" stop-color="#c4f8f8" stop-opacity="0.82"/>
    </linearGradient>
    <linearGradient id="linear-gradient-4" x1="0.5" x2="0.5" y2="1" gradientUnits="objectBoundingBox">
      <stop offset="0" stop-color="#bff3f3" stop-opacity="0.471"/>
      <stop offset="1" stop-color="#d8fcff" stop-opacity="0.651"/>
    </linearGradient>
    <linearGradient id="linear-gradient-5" x1="0.5" x2="1.168" y2="0.845" gradientUnits="objectBoundingBox">
      <stop offset="0" stop-color="#abe6e6"/>
      <stop offset="1" stop-color="#aff6ec"/>
    </linearGradient>
  </defs>
  <g id="Group_4355" data-name="Group 4355" transform="translate(299.565 620.883)" opacity="0.96">
    <path id="Path_2224" data-name="Path 2224" d="M-155.343-540.156l-13.24,7.494,108.977,61.68,13.922-7.793Z" opacity="0.43" fill="url(#linear-gradient)"/>
    <path id="Path_2225" data-name="Path 2225" d="M-299.565-620.883V-606.8l79.853,45.2,13.029-7.293Z" fill="#a2ded8" opacity="0.31"/>
    <path id="Path_2226" data-name="Path 2226" d="M5.743-449.99l-14.129,8,119.828,67.821,14.876-8.327Z" transform="translate(2.819 -0.354)" opacity="0.6" fill="url(#linear-gradient-2)"/>
    <path id="Path_2227" data-name="Path 2227" d="M177.9-353.623l-15.078,8.534,123.812,70.076,15.853-8.873Z" transform="translate(4.504 -0.558)" opacity="0.51" fill="url(#linear-gradient-3)"/>
    <path id="Path_2228" data-name="Path 2228" d="M519.428-143.258,661.435-62.883V-82.97l-124.951-69.94Z" transform="translate(8 -1)" opacity="0.72" fill="url(#linear-gradient-4)"/>
    <path id="Path_2229" data-name="Path 2229" d="M354.02-255.044l-16.049,9.084,130.245,73.717,16.865-9.44Z" transform="translate(6.267 -0.77)" opacity="0.67" fill="url(#linear-gradient-5)"/>
  </g>
</svg>
