<svg xmlns="http://www.w3.org/2000/svg" width="92.137" height="69.574" viewBox="0 0 92.137 69.574"><defs><style>.a{fill:#707376;}</style></defs><path class="a" d="M-201.437,365.165a6.543,6.543,0,0,1,5.945,3.65,6.172,6.172,0,0,1,3.025-.73,6.722,6.722,0,0,1,6.675,6.675v1.564a5.613,5.613,0,0,1,2.294-.417,6.722,6.722,0,0,1,6.675,6.675v2.92c.1,1.877,1.043,36.712-6.988,46.828a2.177,2.177,0,0,1-1.669.834,2.2,2.2,0,0,1-1.356-.521,2.264,2.264,0,0,1-.313-3.129c5.945-7.4,6.362-34.208,6.049-44.012h0v-2.92a2.315,2.315,0,0,0-2.294-2.294,2.315,2.315,0,0,0-2.294,2.294v15.54a2.139,2.139,0,0,1-2.19,2.19,2.139,2.139,0,0,1-2.19-2.19V374.656a2.315,2.315,0,0,0-2.294-2.294,2.315,2.315,0,0,0-2.294,2.294v21.693a2.139,2.139,0,0,1-2.19,2.19,2.139,2.139,0,0,1-2.19-2.19v-24.4a2.315,2.315,0,0,0-2.294-2.294,2.315,2.315,0,0,0-2.294,2.294V400a2.139,2.139,0,0,1-2.19,2.19,2.139,2.139,0,0,1-2.19-2.19V374.864a2.315,2.315,0,0,0-2.294-2.294,2.315,2.315,0,0,0-2.294,2.294v36.19a2.031,2.031,0,0,1-1.669,2.086,2.393,2.393,0,0,1-2.5-1.043l-6.571-11.368a2.117,2.117,0,0,0-1.356-1.147,2.294,2.294,0,0,0-1.46.209c-.73.417-.73,2.086-.209,3.859.313.73,6.362,17.73,13.037,24.4a2.267,2.267,0,0,1,0,3.129,2.123,2.123,0,0,1-1.564.626,2.3,2.3,0,0,1-1.564-.626c-7.509-7.509-13.767-25.343-14.08-26.073h0c-1.252-3.859-.417-7.3,1.982-8.969a6.265,6.265,0,0,1,4.9-.834,6.539,6.539,0,0,1,4.067,3.233l2.4,4.172V374.656a6.722,6.722,0,0,1,6.675-6.675,6.811,6.811,0,0,1,3.025.73A7.15,7.15,0,0,1-201.437,365.165Zm-7.092,43.282a2.268,2.268,0,0,0,0,3.129c.1.1,7.613,7.718,6.675,18.043a2.22,2.22,0,0,0,1.982,2.4h.209a2.166,2.166,0,0,0,2.19-1.982c1.147-12.411-7.613-21.172-7.926-21.485A2.177,2.177,0,0,0-208.529,408.447Zm38.276-25.031a2.08,2.08,0,0,0,2.19,1.877h.313a2.229,2.229,0,0,0,1.877-2.5,17.8,17.8,0,0,0-5.11-10.638,2.24,2.24,0,0,0-3.025.209,2.179,2.179,0,0,0,.209,3.129A14.3,14.3,0,0,1-170.253,383.416Zm8.865,2.19a2.08,2.08,0,0,0,2.19,1.877h.313a2.229,2.229,0,0,0,1.877-2.5c-1.982-13.871-9.6-20.546-9.908-20.859a2.274,2.274,0,0,0-3.129.209,2.179,2.179,0,0,0,.209,3.129C-169.836,367.564-163.161,373.508-161.388,385.606Zm-72.276,5.632a2.163,2.163,0,0,0-3.025.417c-4.276,5.632-3.963,10.951-3.859,11.16a2.166,2.166,0,0,0,2.19,1.982h.209a2.15,2.15,0,0,0,1.982-2.4,13.518,13.518,0,0,1,3.025-8.135A2.3,2.3,0,0,0-233.664,391.238Zm-4.693-7.718a2.163,2.163,0,0,0-3.025.417c-8.448,11.159-7.718,21.276-7.718,21.693a2.166,2.166,0,0,0,2.19,1.982h.209a2.113,2.113,0,0,0,1.982-2.294c0-.1-.521-8.969,6.779-18.773A2.163,2.163,0,0,0-238.357,383.521Z" transform="translate(249.115 -363.591)"/></svg>