<svg xmlns="http://www.w3.org/2000/svg" width="254.931" height="480.374" viewBox="0 0 254.931 480.374">
  <g id="Group_4320" data-name="Group 4320" transform="translate(-460.08 469.025)" opacity="0.1">
    <g id="Group_4319" data-name="Group 4319" transform="translate(460.08 -469.025)">
      <path id="Path_2199" data-name="Path 2199" d="M715.011-451.578a20.541,20.541,0,0,1-2.569,5.852,14.637,14.637,0,0,1-12.5,6.389,209.545,209.545,0,0,0-29.289,2.045,206.973,206.973,0,0,0-39.143,9.423,209.465,209.465,0,0,0-66.687,37.875A209.887,209.887,0,0,0,525.253-345.9a207.747,207.747,0,0,0-32.89,83.68,214.659,214.659,0,0,0-2.441,25.556,207.791,207.791,0,0,0,10.795,75.088,207.347,207.347,0,0,0,37.395,66.958A210.591,210.591,0,0,0,592.9-47.728a207.22,207.22,0,0,0,73.1,26.6,196.9,196.9,0,0,0,27.63,2.64c2.189.046,4.381.2,6.577.206A14.692,14.692,0,0,1,714.465-7.837c.165.508.363,1,.546,1.5V-.867a16.077,16.077,0,0,1-6.223,9.605,22.462,22.462,0,0,1-5.993,2.611H689.936a7.79,7.79,0,0,0-1.243-.246,220.062,220.062,0,0,1-31.24-3.5,236.867,236.867,0,0,1-80.334-30.093,239.566,239.566,0,0,1-60.971-51.953,238.307,238.307,0,0,1-35.3-56.3A237.63,237.63,0,0,1,460.6-211.33c-.147-2.067.06-4.178-.518-6.213v-22.5a9.9,9.9,0,0,0,.253-1.405,207.645,207.645,0,0,1,2.351-23.634,237.954,237.954,0,0,1,26.728-79.044,239.168,239.168,0,0,1,57.041-69.309,237.365,237.365,0,0,1,75.877-42.746,233.536,233.536,0,0,1,78.243-12.831,14.453,14.453,0,0,1,9.994,4.1,17.094,17.094,0,0,1,4.444,7.871Z" transform="translate(-460.08 469.025)" fill="#e08874"/>
    </g>
  </g>
</svg>
