<svg xmlns="http://www.w3.org/2000/svg" width="321.625" height="598.089" viewBox="0 0 321.625 598.089">
  <g id="Group_4321" data-name="Group 4321" transform="translate(-455.58 473.526)" opacity="0.54">
    <g id="Group_4319" data-name="Group 4319" transform="translate(460.08 -469.025)">
      <path id="Path_2199" data-name="Path 2199" d="M772.705-447.629a25.189,25.189,0,0,1-3.151,7.177,17.95,17.95,0,0,1-15.329,7.835,256.963,256.963,0,0,0-35.918,2.508,253.811,253.811,0,0,0-48,11.556,256.868,256.868,0,0,0-81.779,46.447A257.386,257.386,0,0,0,540-318.032a254.764,254.764,0,0,0-40.333,102.619,263.248,263.248,0,0,0-2.993,31.34,254.817,254.817,0,0,0,13.238,92.081A254.272,254.272,0,0,0,555.772-9.881a258.25,258.25,0,0,0,67.183,57.5A254.117,254.117,0,0,0,712.6,80.232a241.464,241.464,0,0,0,33.883,3.238c2.684.056,5.373.241,8.065.253a18.017,18.017,0,0,1,17.489,12.814c.2.623.445,1.23.67,1.845v6.7c-1.253,4.762-3.482,8.88-7.632,11.779a27.546,27.546,0,0,1-7.349,3.2H741.955a9.551,9.551,0,0,0-1.524-.3,269.863,269.863,0,0,1-38.31-4.294,290.473,290.473,0,0,1-98.515-36.9,293.782,293.782,0,0,1-74.769-63.711,292.239,292.239,0,0,1-43.29-69.046,291.409,291.409,0,0,1-24.832-98.817c-.181-2.535.074-5.123-.636-7.619v-27.6a12.143,12.143,0,0,0,.31-1.723,254.63,254.63,0,0,1,2.883-28.983,291.808,291.808,0,0,1,32.777-96.933A293.3,293.3,0,0,1,566-400.859a291.085,291.085,0,0,1,93.048-52.42A286.388,286.388,0,0,1,755-469.013a17.724,17.724,0,0,1,12.256,5.03c2.863,2.64,4.325,6.045,5.45,9.652Z" transform="translate(-460.08 469.025)" fill="none" stroke="#e08874" stroke-miterlimit="10" stroke-width="9"/>
    </g>
  </g>
</svg>
