<svg xmlns="http://www.w3.org/2000/svg" width="171" height="122.558" viewBox="0 0 171 122.558">
  <g id="Group_4370" data-name="Group 4370" transform="translate(-1549 -69.442)">
    <g id="Group_4369" data-name="Group 4369" transform="translate(3712.707 -257.688)">
      <path id="Path_2209" data-name="Path 2209" d="M-2102.383,446.087l-15.413,18.8h29.284Z" transform="translate(0 -72.102)" fill="#f2811e"/>
      <path id="Path_2210" data-name="Path 2210" d="M-2117.8,501.652v21.886h10.106V509.975h9.073v13.563h10.106V501.652Z" transform="translate(0 -105.782)" fill="#f2811e"/>
      <rect id="Rectangle_233" data-name="Rectangle 233" width="27.743" height="6.782" transform="translate(-2024.784 380.458)" fill="#f2811e"/>
      <path id="Path_2211" data-name="Path 2211" d="M-2035.043,327.13v91.551h27.742V327.13Zm11.1,80.3h-6.268v-6.268h6.268Zm0-14.574h-6.268v-6.268h6.268Zm0-15.361h-6.268v-6.268h6.268Zm0-14.967h-6.268V356.26h6.268Zm0-15.361h-6.268V340.9h6.268Zm11.029,60.263h-6.268v-6.268h6.268Zm0-14.574h-6.268v-6.268h6.268Zm0-15.361h-6.268v-6.268h6.268Zm0-14.967h-6.268V356.26h6.268Zm0-15.361h-6.268V340.9h6.268Z" transform="translate(-50.158)" fill="#f2811e"/>
      <path id="Path_2212" data-name="Path 2212" d="M-1881.652,489.13v27.743h27.743V489.13Zm12.022,16.954h-9.042V500.5h9.042Zm0-8.665h-9.042v-5.583h9.042Zm12.6,8.665h-9.042V500.5h9.042Zm0-8.665h-9.042v-5.583h9.042Z" transform="translate(-143.132 -98.192)" fill="#f2811e"/>
      <path id="Path_2213" data-name="Path 2213" d="M-1957.565,401.236v40.689h27.743V365.478Zm11.885,30.14h-7.6V426.29h7.6Zm0-9.453h-7.6v-5.086h7.6Zm0-8.665h-7.6v-5.086h7.6Zm0-10.763v3.057h-7.6v-3.057l7.6-9.5Zm11.56,28.882h-7.6V426.29h7.6Zm0-9.453h-7.6v-5.086h7.6Zm0-8.665h-7.6v-5.086h7.6Zm0-9.059h-7.6v-5.086h7.6Zm0-8.665h-7.6v-5.086h7.6Zm0-8.914h-7.6l7.6-9.5Z" transform="translate(-97.119 -23.244)" fill="#f2811e"/>
    </g>
    <text id="可持續城市和社區" transform="translate(1549 163)" fill="#f2811e" font-size="21" font-family="PingFangHK-Semibold, PingFang HK" font-weight="600"><tspan x="3" y="22">可持續城市和社區</tspan></text>
  </g>
</svg>
