<?xml version="1.0" encoding="utf-8"?>
<!-- Generator: Adobe Illustrator 23.0.3, SVG Export Plug-In . SVG Version: 6.00 Build 0)  -->
<svg version="1.1" id="圖層_1" xmlns="http://www.w3.org/2000/svg" xmlns:xlink="http://www.w3.org/1999/xlink" x="0px" y="0px"
	 viewBox="0 0 581.6 408.4" style="enable-background:new 0 0 581.6 408.4;" xml:space="preserve">
<style type="text/css">
	.st0{fill:#F6E8D7;}
	.st1{clip-path:url(#SVGID_2_);}
	.st2{fill:#ABC178;}
	.st3{fill:#CC773E;}
	.st4{fill:#7F3724;}
	.st5{fill:#EF8B46;}
	.st6{fill:#B55232;}
	.st7{fill:#E5B67F;}
	.st8{fill:#74CCE5;}
	.st9{fill:#767769;}
	.st10{fill:#B1C0C9;}
	.st11{fill:#C6CDC7;}
	.st12{fill:#ABADB0;}
	.st13{fill:#99432B;}
	.st14{fill:#F6C785;}
	.st15{fill:#9EACB2;}
	.st16{fill:#E0E9ED;}
	.st17{fill:#67923D;}
	.st18{fill:#99AF74;}
	.st19{fill:#F4A64A;}
	.st20{fill:none;}
	.st21{fill:none;stroke:#333333;stroke-miterlimit:10;}
	.st22{fill:#819990;}
	.st23{fill:#7D8E86;}
	.st24{fill-rule:evenodd;clip-rule:evenodd;fill:#1D305D;}
	.st25{fill:#304E94;}
	.st26{fill:#223971;}
	.st27{fill-rule:evenodd;clip-rule:evenodd;fill:#223971;}
	.st28{fill-rule:evenodd;clip-rule:evenodd;fill:#16223E;}
	.st29{fill-rule:evenodd;clip-rule:evenodd;fill:#B5D2DE;}
	.st30{fill:#DCF1F8;}
	.st31{fill-rule:evenodd;clip-rule:evenodd;fill:#304E94;}
	.st32{fill-rule:evenodd;clip-rule:evenodd;fill:#B10200;}
	.st33{fill:#333333;}
	.st34{fill:#799289;}
	.st35{fill-rule:evenodd;clip-rule:evenodd;fill:#915B3C;}
	.st36{fill-rule:evenodd;clip-rule:evenodd;fill:#191847;}
	.st37{fill-rule:evenodd;clip-rule:evenodd;fill:#B28B67;}
	.st38{fill-rule:evenodd;clip-rule:evenodd;fill:#2F3676;}
	.st39{fill-rule:evenodd;clip-rule:evenodd;fill:#E4E4E4;}
	.st40{fill-rule:evenodd;clip-rule:evenodd;fill:#5C63AB;}
	.st41{fill-rule:evenodd;clip-rule:evenodd;fill:#E87613;}
	.st42{fill-rule:evenodd;clip-rule:evenodd;fill:#DDE3E9;}
	.st43{fill-rule:evenodd;clip-rule:evenodd;fill:#FF9B21;}
	.st44{fill-rule:evenodd;clip-rule:evenodd;fill-opacity:0.1;}
	.st45{fill:#D6663E;}
	.st46{fill:#B9EDE6;}
	.st47{fill:#37394E;}
	.st48{fill-rule:evenodd;clip-rule:evenodd;fill:#D4A181;}
	.st49{fill-rule:evenodd;clip-rule:evenodd;fill:#BA8B72;}
	.st50{fill-rule:evenodd;clip-rule:evenodd;fill:#DB2721;}
	.st51{fill-rule:evenodd;clip-rule:evenodd;fill:#FF4133;}
	.st52{fill-rule:evenodd;clip-rule:evenodd;fill:#E5CFA5;}
	.st53{fill-rule:evenodd;clip-rule:evenodd;fill:#F9E3B2;}
	.st54{fill-rule:evenodd;clip-rule:evenodd;fill-opacity:0.4;}
</style>
<g id="Layer_2">
	<g id="Layer_1-2">
		<path id="Path_160-2" class="st0" d="M12.4,181.2c-15.5,48.1-20.3,118.9,9.6,162.1c35.1,50.8,101.7,52,157,48.1
			c27.6-1.9,55.4-5,83-3.2c31.4,2,61.6,12.2,92.4,17.4c119,20,183.1-70,213.4-172.8c15.3-52,23-106.4-6.1-155.6
			C527.9,20,465,0.9,401.9,0C365-0.4,328.5,7.3,295,22.7c-34.8,16-64.9,40.4-100.1,55.8c-21,9.2-36.9,6.5-59.2,6.8
			C73.7,86.2,31,123.9,12.4,181.2z"/>
		<g>
			<defs>
				<path id="SVGID_1_" d="M12.4,181.2c-15.5,48.1-20.3,118.9,9.6,162.1c35.1,50.8,101.7,52,157,48.1c27.6-1.9,55.4-5,83-3.2
					c31.4,2,61.6,12.2,92.4,17.4c119,20,183.1-70,213.4-172.8c15.3-52,23-106.4-6.1-155.6C527.9,20,465,0.9,401.9,0
					C365-0.4,328.5,7.3,295,22.7c-34.8,16-64.9,40.4-100.1,55.8c-21,9.2-36.9,6.5-59.2,6.8C73.7,86.2,31,123.9,12.4,181.2z"/>
			</defs>
			<clipPath id="SVGID_2_">
				<use xlink:href="#SVGID_1_"  style="overflow:visible;"/>
			</clipPath>
			<g class="st1">
				<path class="st2" d="M7.5,316.4h574v-78H127.6C73.2,238.4,20.1,268.6,7.5,316.4C7.5,316.4,7.5,316.4,7.5,316.4z"/>
				<g id="building2">
					<polygon class="st3" points="193.5,158.6 148.5,163.4 148.5,110.2 193.5,110.2 					"/>
					<rect x="148.5" y="102.4" class="st4" width="45" height="10.8"/>
					<polygon class="st5" points="185.5,158.6 140.5,163.4 140.5,110.2 185.5,110.2 					"/>
					<rect x="140.5" y="102.4" class="st6" width="45" height="10.8"/>
				</g>
				<polygon class="st7" points="206.5,151.4 93.5,171.4 93.5,309.4 206.5,309.4 				"/>
				<rect x="7.5" y="316.4" class="st8" width="560" height="98"/>
				<path class="st2" d="M7.5,413.4h518v-84H115.9C66.8,329.4,18.9,361.8,7.5,413.4C7.5,413.3,7.5,413.3,7.5,413.4z"/>
				<rect x="264" y="224.1" class="st9" width="24.5" height="61.3"/>
				<rect x="257.3" y="232.5" class="st10" width="24.5" height="53"/>
				<polygon class="st11" points="288.5,224.1 264,224.1 257.3,232.5 281.8,232.5 				"/>
				<g id="building3">
					<rect x="217.9" y="197.4" class="st9" width="42.4" height="106"/>
					<rect x="206.3" y="211.9" class="st10" width="42.4" height="91.5"/>
					<polygon class="st11" points="260.3,197.4 217.9,197.4 206.3,211.9 248.7,211.9 					"/>
				</g>
				<rect x="234.2" y="253.3" class="st12" width="60.7" height="50.1"/>
				<polygon class="st11" points="306.5,238.9 245.8,238.9 234.2,253.3 294.9,253.3 				"/>
				<polygon class="st13" points="525.5,201.9 303.8,201.9 292.2,216.3 525.5,216.4 				"/>
				<rect x="292.5" y="216.4" class="st5" width="72" height="89"/>
				<rect x="364.3" y="216.4" class="st6" width="161.2" height="89"/>
				<path class="st14" d="M188.6,176.5c0,0-42.2-2.4-56-0.1c-14.9,2.5-57,19.9-57,19.9l-0.2,113l113,0.2L188.6,176.5z"/>
				<g id="building1">
					<polygon class="st10" points="292.5,216.4 321.5,207.4 321.5,75.4 292.5,98.4 					"/>
					<path class="st15" d="M525.5,204.4h-204v-129c0,0,37.8,14.8,50,14.2c9.3-0.5,39.8-14.2,39.8-14.2s24,14.7,35.6,14.2
						c9.3-0.4,30.6-14.2,30.6-14.2s18.1,14.5,26.2,14.2c7.2-0.2,21.8-14.2,21.8-14.2L525.5,204.4z"/>
					<path class="st10" d="M525.5,216.4H364.3v-118c0,0,28.5,13.6,39,13c8-0.4,27.7-13,27.7-13s16.5,13.4,26.4,13
						c8.1-0.3,26.5-13,26.5-13s15.7,13.3,22.7,13c6.2-0.2,18.9-13,18.9-13L525.5,216.4z"/>
					<path class="st16" d="M364.5,216.4h-72v-118c0,0,26.9,11,36.6,11c9.4,0,35.4-11,35.4-11L364.5,216.4z"/>
				</g>
				<path class="st17" d="M56,279.4L56,279.4c15.2,0,27.5,12.3,27.5,27.5v9.5l0,0h-55l0,0v-9.5C28.5,291.7,40.8,279.4,56,279.4z"/>
				<path class="st18" d="M72,288.4L72,288.4c15.2,0,27.5,12.3,27.5,27.5v0.5l0,0h-55l0,0v-0.5C44.5,300.7,56.8,288.4,72,288.4z"/>
				<path class="st17" d="M525,279.4L525,279.4c15.2,0,27.5,12.3,27.5,27.5v9.5l0,0h-55l0,0v-9.5C497.5,291.7,509.8,279.4,525,279.4
					z"/>
				<path class="st18" d="M541,288.4L541,288.4c15.2,0,27.5,12.3,27.5,27.5v0.5l0,0h-55l0,0v-0.5C513.5,300.7,525.8,288.4,541,288.4
					z"/>
				<polygon class="st19" points="206.5,151.4 93.5,171.4 75.5,196.4 138.1,185.4 188.5,176.4 				"/>
				<path id="Path_160-3" class="st20" d="M12.5,180.4c-15.7,48-20.6,118.8,9.2,162.2c35,50.9,101.6,52.2,156.9,48.6
					c27.6-1.8,55.4-4.8,83-3c31.4,2.1,61.5,12.4,92.4,17.6c119,20.4,183.3-69.5,213.8-172.2c15.4-52,23.3-106.4-5.7-155.6
					C528.4,20.6,465.6,1.3,402.4,0.3c-36.9-0.5-73.4,7.1-106.9,22.4c-34.8,15.9-65,40.3-100.3,55.5c-21.1,9.1-37,6.4-59.2,6.7
					C74,85.6,31.2,123.2,12.5,180.4z"/>
				<g>
					<path class="st21" d="M162.9,298.2l5.6-20.6h2.4"/>
					<path class="st21" d="M184.4,298.5l-4.8-20.6h-2.1"/>
					<path class="st21" d="M191.9,298.2l5.6-20.6h2.4"/>
					<path class="st21" d="M213.4,298.5l-4.8-20.6h-2.1"/>
					<path class="st21" d="M220.9,298.2l5.6-20.6h2.4"/>
					<path class="st21" d="M242.4,298.5l-4.8-20.6h-2.1"/>
					<path class="st21" d="M249.9,298.2l5.6-20.6h2.4"/>
					<path class="st21" d="M271.4,298.5l-4.8-20.6h-2.1"/>
					<path class="st21" d="M278.9,298.2l5.6-20.6h2.5"/>
					<path class="st21" d="M300.4,298.5l-4.8-20.6h-2.1"/>
					<polygon class="st22" points="311.5,307.3 311.5,297 301.6,297 296.1,297 291.7,297 290.1,297 286.1,297 284.5,297 281.1,297 
						279.5,297 275.4,297 273.7,297 269.9,297 268.3,297 264.5,297 262.9,297 259.1,297 257.5,297 254.1,297 252.5,297 248.5,297 
						246.9,297 243.1,297 241.5,297 237.9,297 236.3,297 232.3,297 230.7,297 227.3,297 225.6,297 221.7,297 220.1,297 215.5,297 
						208.7,297 149.8,297 149.8,307.3 158.8,307.3 166.8,319.3 157.4,319.3 157.4,326.4 167.4,326.4 167.4,319.3 171.5,319.3 
						163.5,307.3 183.5,307.3 172.5,319.3 166.5,319.3 166.5,326.4 189.6,326.4 189.6,319.3 177.3,319.3 188.5,307.3 298.5,307.4 
						288.1,315.3 291.5,315.4 293.8,321.4 303.8,321.4 303.8,314.3 294.5,314.4 303.4,307.3 					"/>
					<polyline class="st22" points="272,307.4 284,314.4 272.6,314.4 272.6,321.5 294.5,321.5 294.5,314.4 290.2,314.4 278.2,307.4 
											"/>
					<path class="st23" d="M149.5,303.2c11.8-0.6,23.5-1.3,35.3-1.5c24-0.6,47.7-0.1,71.6,1.6c17.9,1.3,36.5,2.2,54-0.4l1.1-0.2v4.5
						c0,0.4-13,1.3-14.2,1.3c-5.6,0.4-11.1,0.4-16.7,0.7c-14.5,0.9-29.1,0.1-43.5-0.9c-10.6-0.8-21.3-1.6-32-1.7
						c-18.6-0.2-37.1,1-55.4,2.6l-0.1-5.3C149.5,303.9,149.5,303.2,149.5,303.2z"/>
				</g>
				<path id="Path_160-4" class="st20" d="M12.4,181.2c-15.5,48.1-20.3,118.9,9.6,162.1c35.1,50.8,101.7,52,157,48.1
					c27.6-1.9,55.4-5,83-3.2c31.4,2,61.6,12.2,92.4,17.4c119,20,183.1-70,213.4-172.8c15.3-52,23-106.4-6.1-155.6
					C527.9,20,465,0.9,401.9,0C365-0.4,328.5,7.3,295,22.7c-34.8,16-64.9,40.4-100.1,55.8c-21,9.2-36.9,6.5-59.2,6.8
					C73.7,86.2,31,123.9,12.4,181.2z"/>
				<g id="ship">
					<polygon class="st24" points="212.9,269.3 217.5,269.3 217.5,256.6 219.6,256.6 219.6,269.3 231.6,269.3 231.6,249.3 
						234.8,249.3 234.8,269.3 238.9,269.3 240.4,274.8 211.5,274.8 					"/>
					<rect x="242.1" y="285.4" class="st25" width="35.5" height="19.9"/>
					<rect x="259.9" y="285.4" class="st26" width="17.8" height="19.9"/>
					<path class="st27" d="M243.6,286.7h2.8v17.2h-2.8V286.7z M247.9,286.7h2.8v17.2h-2.8V286.7z M252.2,286.7h2.9v17.2h-2.9
						L252.2,286.7L252.2,286.7z M256.5,286.7h2.7v17.2h-2.7L256.5,286.7L256.5,286.7z M260.7,286.7h2.8v17.2h-2.8V286.7z M265,286.7
						h2.9v17.2H265V286.7z M269.3,286.7h2.7v17.2h-2.7V286.7z M273.4,286.7h2.8v17.2h-2.8V286.7z"/>
					<path class="st28" d="M260.7,286.7h2.8v17.2h-2.8V286.7z M265,286.7h2.9v17.2H265V286.7z M269.3,286.7h2.7v17.2h-2.7V286.7z
						 M273.4,286.7h2.8v17.2h-2.8V286.7z"/>
					<rect x="278" y="285.4" class="st25" width="35.5" height="19.9"/>
					<rect x="295.8" y="285.4" class="st26" width="17.8" height="19.9"/>
					<path class="st27" d="M279.5,286.7h2.8v17.2h-2.8V286.7z M283.7,286.7h2.8v17.2h-2.8V286.7z M288,286.7h2.9v17.2H288V286.7z
						 M292.3,286.7h2.7v17.2h-2.7V286.7z M296.5,286.7h2.8v17.2h-2.8V286.7z M300.8,286.7h2.9v17.2h-2.9V286.7z M305.1,286.7h2.7
						v17.2h-2.7V286.7z M309.3,286.7h2.8v17.2h-2.8L309.3,286.7z"/>
					<path class="st28" d="M296.5,286.7h2.8v17.2h-2.8V286.7z M300.8,286.7h2.9v17.2h-2.9V286.7z M305.1,286.7h2.7v17.2h-2.7V286.7z
						 M309.3,286.7h2.8v17.2h-2.8V286.7z"/>
					<polygon class="st29" points="337.5,297.1 313.5,297.1 303,305 246.5,305 242.2,297.1 209.7,297.1 223.3,325.9 310.8,325.9 
											"/>
					<rect x="209.6" y="274.2" class="st30" width="32.7" height="22.7"/>
					<path class="st31" d="M212.7,279.8h12.2v7.8h-12.2V279.8z M227,279.8h12.2v7.8H227V279.8z"/>
					<polygon class="st32" points="216.3,311.1 218.1,314.9 320.9,314.9 324.5,311.1 					"/>
				</g>
				<polygon class="st22" points="484.5,307.3 484.5,297 474.6,297 469.1,297 464.7,297 463.1,297 459.1,297 457.5,297 454.1,297 
					452.5,297 448.4,297 446.7,297 442.9,297 441.3,297 437.5,297 435.9,297 432.1,297 430.5,297 427.1,297 425.5,297 421.5,297 
					419.9,297 416.1,297 414.5,297 410.9,297 409.3,297 405.3,297 403.7,297 400.3,297 398.6,297 394.7,297 393,297 388.5,297 
					381.7,297 372.8,297 372.8,307.3 381.8,307.3 381.8,321.3 380.5,321.3 380.5,328.4 390.4,328.4 390.4,321.3 389.1,321.3 
					389.1,307.3 425,307.3 425,321.3 423.6,321.3 423.6,328.4 433.6,328.4 433.6,321.3 432.3,321.3 432.3,307.3 468.1,307.3 
					468.1,312.3 466.8,312.3 466.8,319.4 476.8,319.4 476.8,312.3 475.4,312.3 475.4,307.3 				"/>
				<path class="st33" d="M400.3,282.5c1.1-1,2.2-1.9,3.4-2.8V297h1.6v-18.5c1.3-0.9,2.6-1.7,4-2.4l1.6-0.8c1.1-0.5,2.4-1.1,3.6-1.5
					V297h1.6v-23.7c1.2-0.4,2.5-0.7,3.8-1l1.6-0.3c1.3-0.2,2.6-0.4,4-0.5V297h1.6v-25.6c0.5,0,1,0,1.5,0s1.3,0,1.9,0l1.6,0.1
					c1.3,0.1,2.6,0.3,3.8,0.5v25h1.6v-24.8c1.3,0.3,2.6,0.6,3.8,1l1.6,0.5c1.3,0.5,2.6,1,3.8,1.5V297h1.6v-20.9
					c1.4,0.7,2.8,1.5,4.1,2.4l1.6,1.1c1.2,0.9,2.4,1.8,3.4,2.7V297h1.5v-13.1c1.4,1.3,2.7,2.7,4,4.2l1.6,2c1.7,2.2,3.1,4.5,4.4,6.9
					h5.4c-5-10-19-31.6-45.9-31.6c-28.9,0-42.8,23.3-46.9,31.6h6.8c1.3-2.4,2.9-4.6,4.5-6.8v6.8h1.6v-8.8c1.3-1.5,2.6-2.9,4-4.2"/>
				<polyline class="st34" points="442,307.4 442,312.4 440.6,312.4 440.6,319.5 450.6,319.5 450.6,312.4 449.2,312.4 449.2,307.4 
									"/>
				<line class="st21" x1="416.5" y1="272.4" x2="426" y2="296.9"/>
				<line class="st21" x1="427" y1="296.9" x2="437.5" y2="269.2"/>
				<line class="st21" x1="437" y1="296.9" x2="447" y2="274.9"/>
				<line class="st21" x1="448" y1="296.9" x2="458" y2="281.9"/>
				<line class="st21" x1="415.5" y1="296.9" x2="404" y2="275.9"/>
				<line class="st21" x1="404.4" y1="296.5" x2="392" y2="285.9"/>
				<g id="Head_Front_Short-2">
					<g id="Head-2">
						<path class="st35" d="M391.7,312.3c1.1-1.2,1.7-2.8,1.7-4.5c-0.3-4.9-7.2-3.9-8.6-1.4s-1.2,8.8,0.5,9.3c1.3,0,2.6-0.4,3.6-1.2
							l-0.9,6.6h5.5L391.7,312.3z"/>
					</g>
					<path id="Hair-2" class="st36" d="M392.1,313.5c0.7-3,2.6-5.1,2.3-6.5c-0.1-0.8-0.8-1.5-1.6-1.7c-0.4-1.8-1.9-2.6-4.3-2.3
						c-3.6,0.4-5.8,1.9-4.9,5.2c1.1-0.2,2.3-0.1,3.4,0.2c0.5,0.2,0.8,0.7,1,1.6h0.7c0.6-1.1,1.3-1.5,1.9-1.2s0.8,1,0.4,2.1l0.3,2.5
						H392.1z"/>
				</g>
				<path id="LegLower" class="st37" d="M337.6,357.8c0,0.5,0.5,0.9,1,0.9c4.8,0.3,9.7,0.3,14.5-0.1c5.3-0.6,10-1.2,11.6-1.6
					c4-0.9,2-6.4-0.1-6.4c-3.2,0-12,1.7-26.4,4.9c-0.5,0.1-0.9,0.6-0.8,1.1L337.6,357.8z"/>
				<path id="LegLower-2" class="st38" d="M344.3,364.2c0.1,0.5,0.7,0.9,1.2,0.8c0,0,0.1,0,0.1,0l21.2-5.8c4.2-0.9,1-9.4-1.3-9.4
					c-4.5,0-18.5,3.1-22.8,3.9c-0.5,0.1-0.9,0.6-0.9,1.1c0,0.1,0,0.1,0,0.2L344.3,364.2z"/>
				<g id="Lower-Leg">
					<path id="LegLower-3" class="st35" d="M387.8,371.5c-3.4-4.8-7-9.5-10.9-13.9c-1-1-1.9-1.9-2.7-2.8c-2.6-2.6-7.7,1.7-5.1,4.1
						c6.4,5.8,15.8,13.7,16.5,14.4C386.7,374.3,388.9,373,387.8,371.5z"/>
				</g>
				<g id="Accessories_Shoe_Flat-Sneaker-3">
					<path id="shoe-3" class="st39" d="M387.4,370.4c0.4,0.3,0.8,0.7,1.1,1.1c0.1,0.2,0.3,0.5,0.4,0.8c0.2,0.5,0,1.1-0.4,1.3
						l-9.7,5.6c-0.5,0.3-1.1,0.2-1.4-0.3c-0.1-0.1-0.1-0.2-0.1-0.3c-0.1-0.3,0.1-0.6,0.3-0.8c0.5-0.4,1-0.8,1.3-1
						c0.1-0.1,0.1-0.1,0.2-0.2l3.8-5.3c0.1-0.1,0.2-0.1,0.3,0l0,0l0.5,0.4c0.2,0.2,0.5,0.2,0.8,0.2c0.4,0,0.8-0.2,1.2-0.4
						c0.4-0.3,0.7-0.7,1-1.1l0,0C386.9,370.3,387.2,370.3,387.4,370.4C387.4,370.4,387.4,370.4,387.4,370.4L387.4,370.4z"/>
				</g>
				<g id="Accessories_Shoe_Flat-Sneaker-4">
					<path id="shoe-4" class="st39" d="M339.5,359.8c-0.3,0.5-0.6,0.9-1,1.2c-0.2,0.2-0.5,0.4-0.8,0.5c-0.5,0.3-1,0.2-1.3-0.3
						l-6.8-9c-0.4-0.4-0.3-1.1,0.1-1.4c0.1,0,0.1-0.1,0.2-0.1c0.3-0.2,0.8-0.1,1,0.2l1.2,1.2l0.2,0.2l5.7,3.1
						c0.1,0.1,0.2,0.2,0.1,0.3l0,0l-0.3,0.5c-0.1,0.2-0.2,0.5-0.1,0.8c0.1,0.4,0.3,0.8,0.5,1.2c0.3,0.4,0.7,0.7,1.2,0.9l0,0
						C339.6,359.2,339.7,359.5,339.5,359.8L339.5,359.8z"/>
				</g>
				<path id="Leg-and-Butt" class="st40" d="M376.8,355.9c7.1-1.2,11.8-1.9,14.2-2.4c6.8-1.2,8.8-4.9,7.6-12.9H386
					c-1.7,0.5-8.6,3.5-20.9,8.9c-2.2,1.1-1.8,4.3-1.4,5.4l10.6,18.1c0.3,0.5,0.9,0.7,1.4,0.4c0,0,0.1,0,0.1-0.1l8.4-5.4
					c0.5-0.3,0.6-0.9,0.4-1.4c0-0.1-0.1-0.1-0.1-0.1l-7.6-9.8l-0.1-0.2C376.5,356.1,376.6,355.9,376.8,355.9z"/>
				<g id="Body_Hoodie">
					<path id="Skin-2" class="st35" d="M375.9,337.2l-7.4,5.4c-1.7,0.4-3.4,1.1-5,2c-0.3,0.3-0.7,0.9,0.6,0.8s2.7-0.1,2.9,0.3
						s-0.6,1-0.3,1.6c0.2,0.4,1.4-0.6,3.5-3l7.3-3L375.9,337.2z M404.2,337.2h-4.8c3,9.6,4.6,14.7,4.8,15.3c0.5,1.3-0.6,3.3-1.1,4.4
						c1.6,0.7,1.4-1.9,3.4-1c1.8,0.8,3.2,2.4,5.3,1.1c0.3-0.2,0.5-0.8-0.1-1.2c-1.7-1.2-4.1-3.2-4.5-3.9
						C406.7,351.1,405.7,346.2,404.2,337.2L404.2,337.2z"/>
					<path id="Coat-Back" class="st41" d="M390.4,317.1l-2-0.4c-7.4,6.4-10.5,18.7-19.5,25.2l2.2,2.7
						C386.9,342.8,390.8,327.8,390.4,317.1z"/>
					<path id="Shirt-2" class="st42" d="M399.2,342.3h-17.7c-0.8,0-0.7-1.2-0.5-1.8c1.3-6.8,6.6-14.1,6.6-23.8l5.1-0.8
						C396.9,322.8,398.3,331.1,399.2,342.3z"/>
					<path id="Coat-Front-2" class="st43" d="M399.2,321.7c0.8-0.2,1.5-0.8,1.8-1.6c2-3.5,1.2-5.5-0.8-6.1s-4,0.7-7.3,0.7
						c-0.2,0-0.3,0-0.5,0l-1.7,0.1c-4.8,16.3-6.1,27.1-4,32.5h14.6c0.7,1.7,1.6,3.4,2.5,5.1h4C408.1,340.4,405.3,330.1,399.2,321.7z
						"/>
					<path id="Shade" class="st44" d="M398.1,339.4c-0.4,3.7-1.2,6.3-2.1,8h5.2C400.1,345.1,399.1,342.5,398.1,339.4z"/>
				</g>
				<g id="bicycle">
					<path class="st45" d="M135.2,315.1h-6.4c-0.6,0-1.2-0.5-1.2-1.2c0-0.6,0.5-1.2,1.2-1.2c0,0,0,0,0,0h6.4c0.6,0,1.2,0.5,1.2,1.2
						C136.3,314.5,135.8,315.1,135.2,315.1C135.2,315.1,135.2,315.1,135.2,315.1z"/>
					<path class="st46" d="M149,334.9c0.3,0,0.5-0.1,0.5-0.4c0-0.3-0.1-0.5-0.4-0.5c0,0-0.1,0-0.1,0c-10.4,0-18.9,8.5-18.9,18.9
						c0,0.3,0.2,0.5,0.5,0.5s0.5-0.2,0.5-0.5c0-0.4,0-0.9,0-1.3l17.9,1.5l0,0h0.1l0,0v0l0,0l0,0l0,0l0,0l0,0l0,0l0,0l0,0l0,0l0,0
						l-14.3-10.9C138.1,337.7,143.4,335,149,334.9z M148.3,352.6l-17.1-1.5c0.3-3.2,1.5-6.3,3.4-8.9L148.3,352.6z"/>
					<path class="st9" d="M104.4,370.3c0,0.6-4.2,1-9.3,1s-9.4-0.4-9.4-1s4.2-1,9.4-1S104.4,369.8,104.4,370.3z"/>
					<path class="st9" d="M158.4,370.3c0,0.6-4.2,1-9.4,1s-9.4-0.4-9.4-1s4.2-1,9.4-1S158.4,369.8,158.4,370.3z"/>
					<path class="st47" d="M95,370.4c-9.7,0-17.5-7.8-17.5-17.5c0-9.7,7.8-17.5,17.5-17.5s17.5,7.8,17.5,17.5c0,0,0,0,0,0
						C112.5,362.5,104.7,370.4,95,370.4z M95,336.8c-8.9,0-16.1,7.2-16.1,16.1S86.2,369,95,369s16.1-7.2,16.1-16.1
						C111.1,344,103.9,336.8,95,336.8z"/>
					<path class="st45" d="M95,368.6c-8.7,0-15.7-7-15.7-15.7s7-15.7,15.7-15.7s15.7,7,15.7,15.7c0,0,0,0,0,0
						C110.7,361.6,103.7,368.6,95,368.6z M95,337.9c-8.3,0-15,6.7-15,15s6.7,15,15,15s15-6.7,15-15S103.3,337.9,95,337.9z"/>
					<path class="st47" d="M149,370.4c-9.7,0-17.5-7.8-17.5-17.5s7.8-17.5,17.5-17.5c9.7,0,17.5,7.8,17.5,17.5c0,0,0,0,0,0
						C166.5,362.5,158.7,370.4,149,370.4z M149,336.8c-8.9,0-16.1,7.2-16.1,16.1S140.2,369,149,369c8.9,0,16.1-7.2,16.1-16.1
						C165.1,344,157.9,336.8,149,336.8z"/>
					<path class="st45" d="M149,368.6c-8.7,0-15.7-7-15.7-15.7c0-8.7,7-15.7,15.7-15.7c8.7,0,15.7,7,15.7,15.7l0,0
						C164.7,361.6,157.7,368.6,149,368.6z M149,337.9c-8.3,0-15,6.7-15,15s6.7,15,15,15s15-6.7,15-15S157.3,337.9,149,337.9z"/>
					<path class="st46" d="M149.7,352.2c-4.3-4.2-6.4-11.2-6.5-11.6l-2.3-9.5c0-0.1,0-0.1,0-0.2l-2.7-10.7l3.1-2.2
						c0.2-0.1,1.9-1.4,1.4-2.9s-2.9-2.2-7.8-2.2c-0.5,0.1-0.9,0.5-0.8,1c0,0.4,0.4,0.8,0.8,0.8c5.1,0,5.9,0.8,6,0.9
						c-0.2,0.3-0.4,0.6-0.7,0.8l-3.6,2.6c-0.3,0.2-0.5,0.6-0.4,1l1.4,5.9c-0.8,1.3-9.2,15.1-22,15.5l-5-22.2
						c-0.1-0.5-0.6-0.8-1.1-0.7c-0.5,0.1-0.8,0.6-0.7,1.1l2,8.9l-16.6,23.7l0,0v0.1c0,0,0,0.1,0,0.1v0.1c0,0,0,0.1,0,0.1l0,0l0,0
						c0,0,0,0.1,0,0.1v0.2c0,0,0,0.1,0,0.1s0,0.1,0,0.1c0,0,0,0.1,0,0.1c0,0,0,0.1,0,0.1c0,0,0,0.1,0,0.1l0.1,0.1l0.1,0.1l0.1,0.1
						l0,0h0.1l0,0l0.2,0.1l0,0h0.2l0,0l22.7,2.2h0.1h0.2h0.1h0.1l0,0l0,0l0.1,0l0,0l0,0l0.1-0.1l0,0l0,0l21-22.6l1.9,7.9l0,0
						c0.1,0.3,2.2,7.8,7,12.5c0.2,0.2,0.4,0.3,0.6,0.3c0.3,0,0.5-0.1,0.7-0.3C149.8,353.3,150,352.7,149.7,352.2
						C149.7,352.3,149.7,352.2,149.7,352.2z M116.5,354.1l-19.8-1.9l14.7-21L116.5,354.1z M118.2,353.2l-2.2-9.8
						c5.8-0.3,11.6-3.1,16.8-8.3c2-2,3.8-4.2,5.4-6.6l0.6,2.5L118.2,353.2z"/>
					<path class="st45" d="M115.8,320.3H108c-2-0.1-3.8-1.2-5-2.9c-0.3-0.5-0.2-1.3,0.4-1.6c0.5-0.3,1.2-0.2,1.6,0.3
						c0.7,1,1.8,1.7,3.1,1.9h7.9c0.6,0,1.2,0.5,1.2,1.2C117,319.8,116.5,320.3,115.8,320.3L115.8,320.3z"/>
					<path class="st47" d="M119.1,353l1.8-6l-1.3-0.4l-1.8,6h-0.1c-1.4,0-2.6,1.2-2.6,2.6c0,0.9,0.4,1.7,1.2,2.2l-1.8,6l1.3,0.4
						l1.8-6h0.1c1.4,0,2.6-1.2,2.6-2.6C120.3,354.3,119.8,353.5,119.1,353L119.1,353z"/>
					<path class="st45" d="M122.6,347.5h-4.7c-0.5,0-0.8-0.5-0.7-0.9c0-0.4,0.3-0.7,0.7-0.7h4.7c0.5,0,0.9,0.3,0.9,0.7
						c0,0.5-0.3,0.9-0.7,0.9C122.7,347.5,122.7,347.5,122.6,347.5z"/>
					<path class="st45" d="M117.5,364.4h-4.7c-0.5,0-0.8-0.4-0.8-0.8s0.4-0.8,0.8-0.8l0,0h4.7c0.5,0,0.8,0.4,0.8,0.8
						S117.9,364.4,117.5,364.4z"/>
					<path class="st46" d="M113.9,351c-1.3-10.4-10.8-17.8-21.2-16.5c-9.4,1.2-16.5,9.1-16.6,18.5c0,0.3,0.2,0.5,0.5,0.5
						s0.5-0.2,0.5-0.5c0-5,2.1-9.8,5.8-13.2l12.1,13l0,0h0.1l0,0H95h0.2l0,0l0,0l0,0l0,0l0,0l0,0l0,0l0,0L93.7,335
						c0.4,0,0.9-0.1,1.3-0.1c9.2,0,17,7,17.9,16.1c0,0.3,0.3,0.4,0.5,0.4c0,0,0,0,0,0C113.7,351.5,113.9,351.3,113.9,351z M94.7,352
						l-11.6-12.5c2.8-2.5,6.3-4.1,10.1-4.5L94.7,352z"/>
					<path class="st45" d="M117.7,349.9L117.7,349.9L95.3,350c-1.4,0-2.6,1.2-2.6,2.6c0,1.2,0.8,2.2,1.9,2.5l21.5,5.1l0,0
						c0.5,0.1,1,0.2,1.5,0.2c2.9,0,5.3-2.3,5.3-5.3S120.6,349.9,117.7,349.9C117.7,349.9,117.7,349.9,117.7,349.9L117.7,349.9z
						 M117.7,359.7c-2.5,0-4.6-2-4.6-4.6c0-2.5,2-4.6,4.6-4.6c0,0,0,0,0,0l0,0c2.5,0,4.6,2,4.6,4.6
						C122.3,357.6,120.2,359.7,117.7,359.7z"/>
					<path class="st47" d="M97.9,352.5c0,1.4-1.1,2.6-2.5,2.6c-1.4,0-2.6-1.1-2.6-2.5c0-1.4,1.1-2.6,2.5-2.6c0,0,0,0,0.1,0
						C96.7,350,97.8,351.1,97.9,352.5z"/>
				</g>
				<g id="humaaans_standing-22">
					<g id="humaaan-12">
						<g id="Head_Front_Pony">
							<g id="Head">
								<path class="st48" d="M240.6,292.7c-0.8-1.5-1-3.3-0.5-5c1.7-4.9,8.3-1.9,9,0.9s-1.2,9.2-3.1,9.2c-0.7,0-2.1-0.8-3.4-2.1
									l-0.9,6.9l-5.6-1.5L240.6,292.7z"/>
							</g>
							<path id="hair" class="st36" d="M242.6,292.9c-1.1,1.1-2.3,1.9-3.2,1.6c-1.8-0.5-2.4-3.3-1.8-5.9c0-0.1,0-0.2,0.1-0.3
								c-2.3,0.8-4.5,3-7,2.3c-3.5-0.9-3-8.3,1.9-7c3.3,0.9,4.8,1.8,6,2.9c0.4-0.7,1-1.2,1.7-1.6c0.2-0.1,0.4-0.2,0.7-0.2
								c0.2,0,0.3-0.1,0.5-0.1c1.2-0.1,2.4,0.1,3.6,0.3l0.8,0.2c0.4-1.3,1.7-2,3-1.7c1.3,0.4,2,1.7,1.7,3c-0.3,1.2-1.6,2-2.8,1.7
								c-0.9,0-1.8-0.1-2.7-0.3c0,0.4-0.1,0.9-0.2,1.3c-0.1,0.4-0.3,0.9-0.5,1.3c-0.1-0.3-0.4-0.5-0.7-0.6c-0.8-0.2-1.5,0.2-1.8,1
								c0,0,0,0,0,0C241.5,291.7,241.8,292.5,242.6,292.9C242.6,292.9,242.6,292.9,242.6,292.9z"/>
						</g>
						<g id="Bottom_Standing_Jogging">
							<polygon id="Leg" class="st49" points="232.5,322.4 250.3,352.2 263.6,377.4 266.5,377.4 244.1,322.4 							"/>
							<g id="Accessories_Shoe_Flat-Sneaker">
								<path id="shoe" class="st39" d="M261.9,376.9c-0.2,0.5-0.4,1.1-0.4,1.6c0,0.6,0.1,1.3,0.2,1.9h13.6c0.4-1.2,0.1-1.8-0.6-1.9
									s-1.4-0.2-1.9-0.3l-6.3-2.8c-0.1-0.1-0.3,0-0.3,0.1c0,0,0,0,0,0l0,0l-0.4,1c-0.5,0.3-1.1,0.4-1.7,0.5c-0.5,0-1-0.2-1.5-0.4
									l0,0C262.3,376.5,262.1,376.6,261.9,376.9C262,376.9,262,376.9,261.9,376.9L261.9,376.9z"/>
							</g>
							<path id="Pant" class="st50" d="M260,373.6l5.6-1.7c-2.4-7.3-5.4-15.4-9-24.1s-7.4-17.2-11.4-25.4h-15.7
								c4.2,9.7,9,19.1,14.4,28.1C248.6,358.6,254,366.3,260,373.6z"/>
							<path id="Leg-2" class="st48" d="M231.2,322.4c-1.7,10.5-4.9,24-5.3,24.4s-7.6,2.8-22.1,7.4l0.6,2.5
								c17.3-2.5,26.5-4.4,27.4-5.8c1.4-2.1,8.4-18.4,11.1-28.5L231.2,322.4z"/>
							<path id="Pant-2" class="st51" d="M208.9,352l1.1,4.1c13,1.1,20.9,0.3,23.9-2.5c2.9-2.8,6.3-13.2,10-31.2h-15
								c-2.4,14.8-3.7,22.5-4,23.1S219.3,348.3,208.9,352z"/>
							<g id="Accessories_Shoe_Flat-Sneaker-2">
								<path id="shoe-2" class="st39" d="M204.6,353.2c-0.5-0.1-1.1-0.2-1.7-0.1c-0.6,0.1-1.2,0.3-1.8,0.5l2.4,13.4
									c1.2,0.1,1.8-0.2,1.8-0.9s-0.1-1.4-0.1-1.9l1.7-6.7c0-0.1,0-0.3-0.2-0.3l0,0l-1-0.2c-0.4-0.5-0.6-1-0.8-1.6
									c0-0.5,0-1,0.2-1.5l0,0C205,353.5,204.9,353.3,204.6,353.2L204.6,353.2z"/>
							</g>
						</g>
						<g id="Body_Trench-Coat">
							<path id="Skin" class="st48" d="M253.7,320.5l6.6,6.9c1.7,0.8,3.3,1.8,4.8,3c0.3,0.4,0.6,1-0.8,0.7s-2.7-0.6-3-0.2
								s0.5,1.1,0,1.7c-0.3,0.4-1.3-0.9-3-3.7l-6.9-4.4L253.7,320.5z M219.8,312.2l4,1.5c-6.5,8.8-10,13.4-10.5,13.9
								c-1,1.1-0.6,3.5-0.5,4.7c-1.8,0.1-0.7-2.4-3-2.2c-2.1,0.2-4,1.2-5.6-0.8c-0.2-0.2-0.3-0.9,0.6-1.1c2.1-0.5,5.2-1.7,5.8-2.2
								C211.4,325.2,214.5,320.6,219.8,312.2z"/>
							<path id="Back-Arm" class="st52" d="M255.3,321.4c1.1,0.1,2.1,0.5,3.1,1c0.5,0.3,0.7,0.9,0.4,1.5c-0.2,0.3-0.4,0.5-0.8,0.5
								c0.2,0.2,0.4,0.4,0.6,0.6l-2.6,3.6c-7.3-5.4-14.3-9.8-16.6-17c-0.8-2.4,0.9-9.9,1.3-12.7l2.7-0.6
								C245.7,306.8,249.8,314.7,255.3,321.4z"/>
							<path id="Shirt" class="st36" d="M227.4,322.9c7.3,2.1,13.2,3.2,17.6,3.1c0.6,0,0.9-2.3,0.8-3c-2.1-10.4-3.4-18-2.2-24.7
								c-1.3,0.2-2.6,0-3.7-0.5C233.9,304,230.3,311.6,227.4,322.9z"/>
							<path id="Coat-Front" class="st53" d="M225.8,323.8c-0.2-0.3-0.3-0.7-0.1-1l0.3-0.7c0.2-0.4,0.6-0.7,1.1-0.7
								c0.1-0.3,0.3-0.7,0.4-1c1-2.9,0.7-5.9,1.2-8.8c-4.4,2.6-8.8,7.6-13.2,15l-4.2-2.1c0.3-0.6,0.6-1.2,0.9-1.8
								c-0.5-0.4-0.8-1.8-0.4-2c0.5-0.2,1-0.2,1.5-0.2c6.3-11.7,14.6-19.5,24.9-23.6l1.3,0.2l1.4,0.3c-2.6,10.4,4.3,35.2-3,54.1
								c-7.3,0.3-16.5-6.3-27-4.1C212.5,339.6,221.4,331.6,225.8,323.8L225.8,323.8z"/>
							<polygon id="Shade-Lapel" class="st44" points="239,297.4 237.1,300.9 239.1,304.2 236.4,306 240.2,316.2 235.2,305.8 
								237.8,304 236.1,301.1 							"/>
							<path id="Buttons" class="st54" d="M238,319.4c-0.5-0.2-0.7-0.8-0.5-1.3c0.2-0.3,0.5-0.5,0.8-0.6c0.5,0.1,0.9,0.6,0.8,1.1
								C239,319.2,238.5,319.5,238,319.4z M238.2,325.1c-0.5,0.1-1-0.3-1.1-0.9c-0.1-0.5,0.3-1,0.9-1.1c0.2,0,0.4,0,0.5,0.1
								c0.5,0.2,0.7,0.8,0.5,1.3C238.9,324.9,238.6,325.1,238.2,325.1z M237.5,330.6c-0.5-0.2-0.7-0.8-0.5-1.3
								c0.2-0.3,0.5-0.5,0.8-0.6c0.6,0,1,0.4,1.1,0.9c0,0.6-0.4,1-0.9,1.1C237.8,330.7,237.7,330.7,237.5,330.6z"/>
						</g>
					</g>
				</g>
			</g>
		</g>
	</g>
</g>
<animateTransform id="bi1" xlink:href="#bicycle" dur="1s" values="-50 100;30 0" begin="0s;bi1.end+4s" calcMode="spline" keySplines="0 0 0 1" type="translate" attributeName="transform"/>
<animateTransform id="bi2" xlink:href="#bicycle" dur="4s" values="30 0;550 0" begin="1s;bi2.end+1s" calcMode="spline" keySplines="0.7 0 0.3 1" type="translate" attributeName="transform"/>

<animateTransform xlink:href="#ship" dur="20s" repeatCount="indefinite" from="400 0" to="-400 0" type="translate" attributeName="transform"/>

<animateTransform id="bu1" xlink:href="#building1" dur="1s" values="0 -250;0 0" begin="0s;bu1.end+5s" calcMode="spline" keySplines="0 1 1 1" type="translate" attributeName="transform"/>
<animate xlink:href="#building1" attributeName="opacity" from="1" to="0" begin="bu1.end+4s" dur="1s" />

<animateTransform id="bu2_1" xlink:href="#building2" dur="1s" values="0 100" begin="0s" type="translate" attributeName="transform"/>
<animateTransform id="bu2_2" xlink:href="#building2" dur="1s" values="0 100;0 0" begin="1s;bu2_2.end+5s" calcMode="spline" keySplines="0 1 1 1" type="translate" attributeName="transform"/>
<animate xlink:href="#building2" attributeName="opacity" from="1" to="0" begin="bu2_2.end+4s" dur="1s" />
<!-- 
<animateTransform id="bu3_1" xlink:href="#building3" dur="1s" values="0 100" begin="0s" type="translate" attributeName="transform"/>
<animateTransform id="bu3_2" xlink:href="#building3" dur="1s" values="0 100;0 0" begin="1s;bu3_2.end+5s" calcMode="spline" keySplines="0 1 1 1" type="translate" attributeName="transform"/>
<animate xlink:href="#building3" attributeName="opacity" from="1" to="0" begin="bu3_2.end+4s" dur="1s" /> -->
</svg>
