<?xml version="1.0" encoding="utf-8"?>
<!-- Generator: Adobe Illustrator 23.0.3, SVG Export Plug-In . SVG Version: 6.00 Build 0)  -->
<svg width="1920" height="1080" version="1.1" id="_2019" xmlns="http://www.w3.org/2000/svg" xmlns:xlink="http://www.w3.org/1999/xlink" x="0px" y="0px"
	 viewBox="0 0 1920 1080" style="enable-background:new 0 0 1920 1080;" xml:space="preserve">
<style type="text/css">
	.st0{fill:#70CCB8;}
</style>
<g>
	<path class="st0" d="M1289.6,659.8l7,6.5l5.3,12l6.3,12.1l5,8.6l4.7,4l6.7,5.3l8.1,5.3l5.2,0.8l-0.1,5.3h5.4l2-4h10l9.7-1.4
		l8.8-1.1l6.1,1.8l8.4,0.6l4.5-1.9l7.3-3.9l3.3-0.7l4.7-0.7l7.3-0.7l1.3,1.3l10,25.4l-3.3,2l-46.9,24l-0.6,0.7l0.7,2.7l1.3,2
		l0.8-2.7l2.2-1.1h3.2l3.2,1.1l3.2,2.2l3.2,1.1l2.2,2.2l2.2,1.1l3.2,2.2h2.2l1.1-2.2l-1.1-7.5l-1.1-4.3v-2.2l1.1-2.2l5.4-2.2
		l4.3-1.1h3.2l5.4,2.2l2.2,1.1h3.2l4.3-2.2h5.4l2.2-1.1l-1.1-9.7l-2.2-3.2l-2.2-5.4l-2.2-5.4l-1.1-6.5l1.1-2.2l3.2-2.2l2.2-1.1v-2.2
		l2.2-3.3l2.2-3.2l1.1-1.1l-1.1-1.1h-4.3l-6.5-1.1h-2.2l-5.4,2.2h-6.6l-3.2-1.1h-2.2l-3-1.1l-3.6-0.9l-5.2-0.6l-5.8,1.5h-3.6
		l-6.1-1.7l-2.6-1.1l-4.5-0.8l-4.5,2.2l-3.7,1.5l-4.7,1.1l-8.4-1.1l-3.9-3.5l-6.5-0.7l-8.4-1.3l-9-3.2l-6.5-5.2l-7.1-8.4l-4.5-7.1
		l-2.6-7.8l-0.7-5.2l-1.3-5.8l-5.8-5.8l-4.5-3.2l-8.4-5.8l-3.4-3.5l0,0l0,0l0,0l0,0l0,0l0,0l0,0l-0.9-3.2v-5.6l1.1-4.4l-1.1-6.7
		l-2.2-5.1l-5.4-7.5v-16.2l3.2-5.3l2.7-2.2l4.8-2.2l6.5-1.1h4.3l2.2-1.1l-1.1-2.2l-1.1-2.2l-1.1-1.1l2.2-2.2l2.2-3.2l1.1-4.3
		l1.1-4.3l1.1-6.5l-1.1-3.2l2.2-3.2l3.2-4.3l3.2-4.3l2.2-1.1l5.4-1.1h5.4l4.3-1.1l2.2-4.3l1.1-6.5l4.3-4.3l9.7-6.5l5.4-3.2l6.5-4.3
		l4.3-5.4l4.3-5.4l1.1-1.1v-1.1h-2.2l-3.2,2.1l-2.2,1.1l-4.3-1.1l-4.3-2.1l-4.3-1.1l-4.3-1.1l-3.2-2.2v-3.2l-2.2-3.2l-4.3-2.2
		l-2.2-3.2l-5.4-5.4l-6.5-7.5l-3.2-5.4h-1.1l-1.1,3.2v10.8l1.1,8.6v2.2l-1.1,4.3l1.1,7.5v6.5l-2.2,3.2h-6.4l-4.3-1.1h-2.2l-3.2,1.1
		h-2.2l-2.2-1.1l-4.3-2.2l-4.3-3.2l-3.2-2.2l-4.3-2.1l-3.2-2.2l-1.1-2.1l-5.4-7.5l-12.9-17.2l-1.1-1.1h-1.1l-3.2,1.1l-3.2,1.1h-3.2
		l-1.1,1.1v4.5l-2.2,4.1l-2.2,1.1h-1.1l-4.3-2.2l-3.2-2.2l-2.2-2.1l-2.2-3.2l-2.2-4.3l-3.2-3.2l-3.2-2.2l-3.2-1.1l-5.4-3.2l-4.3-1.1
		h-7.5l-2.2,1.1h-3.2l-3.2-1.1l-4.3-1.1l-3.2-2.1l-2.2-1.1l-2.2-2.1l-2.2-1.1l-2.2-1.1l-4.3-3.2l-1.1-2.2l-1.1-2.1l-2.2-1.1h-6.5
		l-3.2-1.1l-3.2-1.1h-2.2l-3.2,2.1l-1.1,1.1h-1.1l-2.2-2.2l-3.2-1.1l-2.2-4.3l-3.2-3.2l-3.2-1.1l-5.4-2.2l-2.2-1.1l-2.2-3.2
		l-1.1-2.1l-2.2-1.1h-4.3l-1.1-1.1l-1.1-2.2l-3.2-2.2l-2.2-1.1l-2.2-4.3l-2.2-3.2l-1.1-3.2l-3.2-4.3l-2.2-1.1v-1.6l2.2-1.6l1.1-4.3
		v-2.2l-2.2-4.3l-2.2-1.1l-1.1-3.2v-3.9l1.1-2.5l3.2-2.1l4.3-2.2l2.2-3.2v-4.3l-1.1-3.2l-1.1-3.2l-1.1-3.2l-1.1-2.2v-2.2l1.1-1.1
		h2.2l2.2-3.2l2.2-4.3l-1.1-2.2l1.1-3.2h-3.2l-1.1-1.1v-1.1l3.2-2.2l3.2-2.2l0.4-0.8l-3.7-1.4l-2.2-1.1l-1.1-1.1v-2.2l-1.1-1.1v-2.2
		l-1.1-1.1l-2.2-2.2l-1.1-2.1l0,0l-1.1-1.1l1.1-3.2l2.2-2.2l2.2-1.1l3.2-2.2l2.2-2.2l1.1-1.1l1.9-1.7l-1.3-4v-4l-4-4l-2.6-4
		l-5.3-7.9l-6.6-5.3l-5.3-4v-2.6l-2.6-1.3v-1.6l2.6-2.3h-4.6l-3.3-2.6l-4-4l-2.6-5.3l-1.3-4l-5.3-2.6l-7.9-4l-6.6-2.6l-2.6-1.3
		l-4-6.6l-2.6-4l-5.3-4l-4,1.3l-1.2-1.3l2.6-2.6v-5.3l1.3-4l2.6-2.6l-1.3-1.3l-2.6-1.3l-1.3-2.6v-1.3l-5.3-1.3l-5.3-2.6l-4-2.6
		l-1.3-5.3v-4.1l4-3.8l1.3-2.6l-5.3-5.1h-2.1l-3.2,1.2l-2,0.6l-1.1-1.7l4.4-2.8v-2.6l-4.4,1.2l-4.9,0.2l-7.9-5.3l-9.3-7.9l-1.3-1.3
		l-4,1.3l-5.3-4l-1.3,2.6h-1.3l-4-2.6l-4-4l-4-2.7l-4-5.3h-52.5l-8.2,1.3l-14.5,2.6l-10.6,4l-6.6,4c0,0-7.9,5.3-9.2,6.6l-7.9,7.9
		l-10.6,11.9L817.2,175l-11.9,14.5l-6.6,7.9l-7.9,5.3l-5.3,5.3l-11.9,10.6l-5.3,6.6l-5.3,2.8l-10.8,4.3l-1,1l-0.1,0l0.7,2.5l1.1,5.4
		v5.4l-2.9,5.4l-2.6,4l-3.1,1.4h-2.2l-2.2,1.1v8.6l2.2,2.2l3.2,2.1v1.1l-2.2,1.1l-1.1,3.2l-2.2,5.4l-3.2,5.4l-2.2,3.2H725l-1.1-1.1
		l-1.1-2.2v-5.4l-1.1-2.1h-2.2v2.2l-1.2,4.2l-0.5,4l0.1,0l-0.8,6.4l1.3,10.6l4,5.3l1.2,0.5l-0.1,0.2l7.9,3.4l10.6,5.3l10.6,6.6
		l3.5,5.9l0.2-0.1l0.4,0.7l4,4l2.6,4v9.2l-1.3,7.9l-5.3,7.9l-7.9,5.3l-6.6,2.6l-4,2.6l-2.6,2.6l-5.3,2.6l-6.6,2.6l-4-1.3h-4l-4,2.6
		l-5.3,4l-4,2.6l-5.3,2.6l-7.9,13.2v8.4l-0.6,6l8.2,3.7l4.3,1.1l14,7.5l0,0l40,12.9l3.1,0.8l5.4-2.3l2.3-5.4v-4.9l20.5-44.8h2.3
		l7.7,3.6l1.4-3l-7.3-3.4l-1.8-2.1l17-37.2l10.9-5.7l243,235.3l9.6,12.4l14.3,14.3h5.3l24.4,24.9h5l22.7-23.9v-4.8l-28.9-30
		l-0.1-1.7l1.5-14.4l-1.5-4.5l-30.6-30.2l-7.3,7.3l-4-0.7l-6.4-3.4l-3.6-2.7l-51.9-48l-4.8-2.9L879.3,352.6l0.7-3.3l9.4-26.7l4,1.3
		l93.9,90.1l-0.4-0.4l-21.8,22.2l5.3,5.2l21.7-22.3l53.1,51l36.8-38.8l12,11.4l31.4,33.4l20.7,24.1l21.1,25.9l6.9,9.5l0.2,0.2
		l2.5-2.3l2,3.3l0.7,1.3l4.4,5.1l-2.6,1.8l1.3,1.8l2.4-1.7l3.7,7.2l-5.9,4.5l0.6,0.8l-20.3,14.5c-0.6,0.4-0.7,1.3-0.3,1.9
		c0.4,0.6,1.3,0.7,1.9,0.3l20.4-14.6l0.6,0.8l6.1-4.6l0.2,0.2l13.9,20.2l1.1,1.6c-0.4,0-0.7,0.2-1,0.5c-0.4,0.5-0.6,1.1-0.4,1.8
		l-6.4,6.4l2.3,2.3l6.4-6.4c0.6,0.2,1.3,0,1.8-0.5c0,0,0.1-0.1,0.1-0.2l1.4,2l11,8.8l5.4,0.9l0.1,0.1l-0.1-0.1l-5.3,4.7l33.4,40.8
		l4,4.7l29.7,16.3 M1281.9,647.9L1281.9,647.9L1281.9,647.9L1281.9,647.9z"/>
	<path class="st0" d="M896.3,487.9c-0.3-0.5-0.9-0.7-1.4-0.4l-70.2,36.8c0,0,0,0,0,0c-0.5,0.3-0.7,0.9-0.4,1.4
		c0.2,0.3,0.5,0.5,0.9,0.5c0.2,0,0.3,0,0.5-0.1l70.2-36.8c0,0,0,0,0,0C896.3,489,896.5,488.4,896.3,487.9
		C896.3,487.9,896.3,487.9,896.3,487.9z"/>
	<path class="st0" d="M825.5,498.4c0.2,0,0.4-0.1,0.5-0.2c0.5-0.3,0.6-0.9,0.3-1.4l-28.7-44.1c0,0,0,0,0,0c-0.3-0.5-0.9-0.6-1.4-0.3
		c0,0,0,0,0,0c-0.5,0.3-0.6,0.9-0.3,1.4l28.7,44.1C824.9,498.2,825.2,498.4,825.5,498.4z"/>
	<polygon class="st0" points="1468.2,800.8 1465,803 1460.7,804 1460.7,804 1456.4,805.1 1449.9,808.3 1443.4,809.4 1439.1,812.6 
		1434.8,813.7 1430.5,815.9 1426.2,815.9 1418.7,810.5 1410.1,802.9 1409,801.9 1409,800.2 1410.1,799.7 1406.8,794.3 1404.7,793.3 
		1400.4,792.2 1397.2,791.1 1388.5,784.6 1383.8,779.5 1385.4,788.5 1432.9,836.7 1442.8,846.6 1443.6,846.7 1444.3,846.7 
		1445.4,845.6 1445.6,844.7 1445.3,843.7 1433.6,830.7 1450.6,814 1454.3,811.3 1454.3,811.2 1463.4,820.4 1465,815.8 1466.1,811.5 
		1468.2,806.2 1469.3,804 1469.3,800.8 	"/>
	<path class="st0" d="M1177.7,587.2c-0.1,0.1-11.4,8.7-15.3,11.3c-2.5,1.7-11.7,0-16.9-1.5c-0.7-0.2-1.5,0.2-1.7,0.9
		c-0.2,0.7,0.2,1.4,0.9,1.7c1.1,0.3,8.2,2.3,13.8,2.3c1.9,0.1,3.7-0.3,5.3-1.1c4-2.7,15-11.1,15.4-11.4c0,0,0.1-0.1,0.1-0.1
		c0.6-0.5,0.6-1.3,0.1-1.9C1179.1,586.8,1178.3,586.7,1177.7,587.2z"/>
</g>
</svg>
