<?xml version="1.0" encoding="utf-8"?>
<!-- Generator: Adobe Illustrator 23.0.3, SVG Export Plug-In . SVG Version: 6.00 Build 0)  -->
<svg width="3840" height="2160" version="1.1" id="_2019" xmlns="http://www.w3.org/2000/svg" xmlns:xlink="http://www.w3.org/1999/xlink" x="0px" y="0px"
	 viewBox="0 0 1920 1080" style="enable-background:new 0 0 1920 1080;" xml:space="preserve">
<style type="text/css">
	.st0{clip-path:url(#SVGID_2_);}
	.st1{fill:none;stroke:#FF8300;stroke-width:2.5;stroke-miterlimit:10;}
	.st2{fill:none;stroke:#FF8300;stroke-width:2.5;stroke-linecap:round;stroke-linejoin:round;stroke-dasharray:8;}
	.st3{fill:none;stroke:#FF8300;stroke-width:2.5;stroke-linecap:round;stroke-linejoin:round;stroke-dasharray:7.77,7.77;}
	.st4{fill:none;stroke:#FF8300;stroke-width:2.5;stroke-linecap:round;stroke-linejoin:round;}
	.st5{fill:none;stroke:#FF8300;stroke-width:2.5;stroke-linecap:round;stroke-linejoin:round;stroke-dasharray:8.59,8.59;}
	.st6{fill:none;stroke:#FF8300;stroke-width:2.5;stroke-linecap:round;stroke-linejoin:round;stroke-dasharray:7.75,7.75;}
	.st7{fill:none;stroke:#FF8300;stroke-width:2.5;stroke-linecap:round;stroke-linejoin:round;stroke-dasharray:9.49,9.49;}
	.st8{fill:none;stroke:#FF8300;stroke-width:2.5;stroke-linecap:round;stroke-linejoin:round;stroke-dasharray:7.27,7.27;}
	.st9{fill:none;stroke:#FF8300;stroke-width:2.5;stroke-linecap:round;stroke-linejoin:round;stroke-dasharray:8.02,8.02;}
	.st10{fill:none;stroke:#FF8300;stroke-width:2.5;stroke-linecap:round;stroke-linejoin:round;stroke-dasharray:9.66,9.66;}
	.st11{fill:none;stroke:#FF8300;stroke-width:2.5;stroke-linecap:round;stroke-linejoin:round;stroke-dasharray:5.47,5.47;}
	.st12{fill:none;stroke:#FF8300;stroke-width:2.5;stroke-linecap:round;stroke-linejoin:round;stroke-dasharray:10.15,10.15;}
	.st13{fill:none;stroke:#FF8300;stroke-width:2.5;stroke-linecap:round;stroke-linejoin:round;stroke-dasharray:8.33,8.33;}
	.st14{fill:none;stroke:#FF8300;stroke-width:2.5;stroke-linecap:round;stroke-linejoin:round;stroke-dasharray:5.44,5.44;}
	.st15{fill:none;stroke:#FF8300;stroke-width:2.5;stroke-linecap:round;stroke-linejoin:round;stroke-dasharray:4.82,4.82;}
	.st16{fill:none;stroke:#FF8300;stroke-width:2.5;stroke-linecap:round;stroke-linejoin:round;stroke-dasharray:5.18,5.18;}
	.st17{fill:none;stroke:#FF8300;stroke-width:2.5;stroke-linecap:round;stroke-linejoin:round;stroke-dasharray:4.28,4.28;}
	.st18{fill:none;stroke:#FF8300;stroke-width:2.5;stroke-linecap:round;stroke-linejoin:round;stroke-dasharray:6.28,6.28;}
	.st19{fill:none;stroke:#FF8300;stroke-width:2.5;stroke-linecap:round;stroke-linejoin:round;stroke-dasharray:6.92,6.92;}
	.st20{fill:none;stroke:#FF8300;stroke-width:2.5;stroke-linecap:round;stroke-linejoin:round;stroke-dasharray:8.32,8.32;}
	.st21{fill:none;stroke:#FF8300;stroke-width:2.5;stroke-linecap:round;stroke-linejoin:round;stroke-dasharray:4.32,4.32;}
	.st22{fill:none;stroke:#FF8300;stroke-width:2.5;stroke-linecap:round;stroke-linejoin:round;stroke-dasharray:6.8,6.8;}
	.st23{fill:none;stroke:#FF8300;stroke-width:2.5;stroke-linecap:round;stroke-linejoin:round;stroke-dasharray:7.35,7.35;}
	.st24{fill:none;stroke:#FF8300;stroke-width:2.5;stroke-linecap:round;stroke-linejoin:round;stroke-dasharray:7.58,7.58;}
	.st25{fill:none;stroke:#FF8300;stroke-width:2.5;stroke-linecap:round;stroke-linejoin:round;stroke-dasharray:7.84,7.84;}
	.st26{fill:none;stroke:#FF8300;stroke-width:2.5;stroke-linecap:round;stroke-linejoin:round;stroke-dasharray:7.83,7.83;}
	.st27{fill:none;stroke:#FF8300;stroke-width:2.5;stroke-linecap:round;stroke-linejoin:round;stroke-dasharray:6.62,6.62;}
	.st28{fill:none;stroke:#F08219;stroke-width:2.5;stroke-linecap:round;stroke-linejoin:round;stroke-dasharray:8;}
	.st29{fill:none;stroke:#FF8300;stroke-width:3;stroke-linecap:round;stroke-linejoin:round;stroke-dasharray:8;}
	.st30{opacity:0.8;}
	.st31{fill:#666666;}
	.st32{display:none;}
	.st33{display:inline;}
</style>
<g>
	<defs>
		<rect id="SVGID_1_" width="1920" height="1080"/>
	</defs>
	<clipPath id="SVGID_2_">
		<use xlink:href="#SVGID_1_"  style="overflow:visible;"/>
	</clipPath>
	<g class="st0">
		<path id="Pre1900_Kln" class="st1" d="M1923.5,380.4h-6.6l-14.6-9l-3.2-10.4l-3.9-12.3l-4.5-9.2l-5.5,2.6l-1,8.5l4.5,14.2
			l1.9,13.6l-5.8,11.6l-11,7.8l-9.4,2.4l-8.6-3.2l-5.4-2.1l-6.5-2.1l-3.2-1.1v-3l-4.3-1.3l-2.2-2.1l-1.1-3.2l-2.2-3.2l-2.2-3.2
			l-2.2-3.2l-2.2-2.1v-2.3l1.1-2v-17.2l-1.1-2.1l-1.1-2.2v-2.3l0.5-1.5v-2.1l-1.1-1.1l-1.1-1.1v-1.7l-1.1-1.5l-1.1-2.2l-1.1-1.1
			l-2.2-2.2l-15.1-14l-1.1-1.1l-2.1-2.7l-2.2-3.8l-3.2-6.5l-1.1-3.2l-1.1-4.3v-2.9l-1.1-2.5l-2.2-2.1v-1.1l-1.1-5.4v-3.2l-1.1-2.2
			l-1.1-3.2l-1.1-2.1l-1.1-2.1l-1.1-1.1l-1.1-1.1l-1.1-1.1l-1.6-0.5h-5.4l-3.2-1.1l-3.2-1.1l-2.2-1.1l-1.1-1.1l-1.1-1.1l-1.1-1.1
			l-2.2-3.2l-1.1-1.1l-2.2-1.1l-2.2-1.1l-3.2-1.1h-13l-6.3-3.2l-1.1-1.1l-2.2-1.1h-4.3l-2.2,1.1l-2.2,1.1h-5.4l-2.2,2.1l-2.2,1.1
			h-3.2l-3.2,1.1l-2.2,2.1h-2.2l-4.3,1.1l-1.1,3.2l-1.1,3.2l-1.1,2.1h-2.2l-2.2,1.1h-5.4l-2.2-1.1l-2.2-2.1l-2.2-1.1l-1.1-1.1
			l-1.1-1.1h-2.2l-2.2,1.1l-1.1,1.1l-2.2,1.1l-5.4,5.4l-1.1,1.1v1.8l-2.2,2.5l-1.1,2.1l-1.1,2.1v2.3l1.1,0.9l1.1,1.1h3.2l1.1,1.1
			v2.1l1.1,2.1l2.2,3.2v6.5l-2.1,2.2l-1.1,2.1l-1.1,2.2l-1.1,3.2l-1.1,3.2v3.2l1.1,1.1l1.1,1.1l1.1,1.1h1.1l2.2-1.1l1.1-1.1l2.2-2.1
			l3.2-1.1l3.2-1.1h3.2l2.2,1.1l1.1,2.2l1.1,2.1l2.2,4.3l3.2,4.3l5.4,2.1l7.5,2.1h5.3l5.4,2.2h2.2l5.4,2.1l2.2,1.1l4.3,1.1l2.2,1.1
			l1.1,1.1v2.1l1.1,1.1l1.1,1.1h2.2l1.1,1.1l1.1,1.1l1.1,1.1l1.1,2.2l1.1,3.2v2.1l1.1,7.5l1.1,10.8l1.1,3.2l2.2,2.1v2.2l-1.1,2.1
			v6.5l1.1,2.1l2.2,3.2v3.2l-2.2,5.4v2.1l2.2,4.3l2.2,3.2l1.1,3.2v3.2l1.1,3.2l2.2,3.2v3.2l3.2,3.2l2.2,1.1h3.2l1-1.1l1.6,1.1
			l0.6,2.1l1.1,3.2l1.1,3.2v5.4l-3.2,4.3l-1.1,1.1h-1.6l-1.6-1.1h-1.1l-3.2,3.2l-1.1,2.2l-1.1,7.5l-2.2,6.5l-1.1,4.3l-4.3,6.5
			l-1.1,3.2l-4.3,3.2l-2.2,5.4l-1.1,5.4l-3.2,4.3l-2.2,2.1l-1.1,4.3l-2.2,7.5l-1.1,5.4l-1.1,5.4l-1.1,3.2l-3.2,3.2l-3.2,5.4
			l-2.2,3.2l-3.2,2.2l-2.2,4.3l-2.2,4.3l-5.4,4.3l-7.5,5.4l-6.5,4.3l-5.4,3.2h-6.3l-2.3,2.2l-4.3,3.2l-2.2,2.2l-1.1,3.2l-1.1,2.2
			l-2.2,2.2l-1.1,1.1v2.2l-1.1,3.2l-2.2,2.2l-3.2,2.2l-5.4,6.5l-2.2,3.2l-3.2,8.6v2.2l2.2,3.2l1.1,1.1h5.1l3.5-1.1l2.2-1.1h3.3
			l5.4-4.3l1.1-1.1h3.2l1.1,1.1l2.2,1.1h2.2l2.2-1.1l2.2-1.1h2.2l3.2,1.1l1.1,1.1v2.2l-2.2,2.2l-1.1,1.1l-1.1,1.1l-1.1,4.3l-2.2,4.3
			v2.2l1.1,6.5l1.1,5.4l1.1,3.2l5.4,3.2l4.3,3.2l4.3,3.2h3.9l3.7,1.1l3.2,1.1l3.2,1.1l3.2,2.2l1.1,3.2l1.1,4.3l-0.1,3.1l3.8,2.3
			l3.8,2.3l1.5,6.1v6.8l-4.6,13.7h-8.4l-2.6,3.5l2.2,4.3l1.1,2.2v2.2l-1.1,2.2l-1.1,8.6l-2.2,8.6l-3.2,3.2l-2.1,1l-1.1-1.1l-1.1-2.2
			l-1.1-1.1l-1.1-1.1h-3.2l-4.3,2.2l-3,3.2l-1.3,2.2l-1.1,2.2v2.2l-1.1,2.2l-9.7,10.8l-2.2,1.1l-1.1-2.2l-1.1-1.1l-3.2,1.1l-2.2,1.1
			l-2.2,2.2v8.6l1.1,3.2l-1.1,2.2l-5.4,6.5l-2.2,2.2h-2.2l0.1-1.1l-2.2-1.1l-1.5,2.2l-1.7,4.3v5.4l-9.7,10.8l-3.2,4.3l-7.5,5.4
			l-2.2,1.1h-3.2l-3.2,1.1l-1.1,2.2h-1.5l-1.7-1.1h-1.1l-1.1,3.2l-1.1,4.3v4.3l-1.1,3.2l-2.2,3.2l-3.3,2.1l-3.2,1.1l-2.2,2.2
			l-2.2,3.2l-2.2,3.2l-1.1,2.2l-1.1,3.2l-1.1,3.2l-3.2,1.1l-3.2,1.1l-2.2,1.1l-1.1,3.2l-3.2,3.2l-3.2,1.1h-2.2l-3.2,2.2h-2.5
			l-2.9,1.1v2.8l3.2,2.5l2.2,2.2v3.2l-2.2,2.2l-1.1,1.1h-2.2l-1.1-1.1l-1.1-1.1l-1.1,1.1v6.8l-2.2,4l-9.7,11.8l-2.2,2.2l-5.4,10.8
			l-1.1,2.2l-3.2,1.1l-4.3,1.1l-2.2,1.1h-7l-2.7-1.1l-5.8-0.3l-6.9-1.5h-7.5l-7.6-0.8l-6.1-2.3l-4.9-1.6h-2.2l-1.1-1.1l-2.2-2.2V906
			l-1.1-1.8l-4.3-2.2h-6.5l-2.2-1.1l-2.2-1.1l-3.2-2.2l-3.2-3.2l-7.5-5.4h-5.4l-2.2-1.1l-3.2-1.1l-3.2-2.2l-2.2-1.1l-1.1-1.1
			l-1.1-1.1l1.1-2.2l2.2-5.4V873l3.2-4.3l2.2-2.2l2.2-5.4l4.3-6.5l8.6-11.8l5.4-6.5l2.2-5.4l1.1-5.4l3.2-9.7l1.1-4.3l2.2-5.4
			l1.1-2.2v-3.2h-1.1l-3.3,2.2l-4.3,1.1l-4.3,1.1l-6.5,3.2l-6.5,1.1l-4.3,3.2l-4.3,1.1l-4.3,2.2h-4.3l-7.5-5.4l-8.6-7.5l-1.1-1.1
			v-1.6l1.1-0.5l-3.2-5.4l-2.2-1.1l-4.3-1.1l-3.2-1.1l-8.6-6.5l-5.4-5.8l-1.3-4.7l-2-4l-2-3.8l1.1-3.2l2.2-1.2h3.2l3.2,1.1l3.2,2.2
			l3.2,1.1l2.2,2.2l2.2,1.1l3.2,2.2h2.2l1.1-2.2l-1.1-7.5l-1.1-4.3v-2.2l1.1-2.2l5.4-2.2l4.3-1.1h3.2l5.4,2.2l2.2,1.1h3.2l4.3-2.2
			h5.4l2.2-1.1l-1.1-9.7l-2.2-3.2l-2.2-5.4l-2.2-5.4l-1.1-6.5l1.1-2.2l3.2-2.2l2.2-1.1v-2.1l2.2-3.2l2.2-3.2l1.1-1.1l-1.1-1.1h-4.3
			l-6.5-1.1h-2.2l-5.4,2.2h-6.5l-3.2-1.1h-2.2l-3-1.1l-3.6-0.9l-5.2-0.6l-5.8,1.5h-3.6l-6.1-1.7l-2.6-1.1l-4.5-0.8l-4.5,2.2
			l-3.7,1.5l-4.7,1.1l-8.4-1.1l-3.9-3.5l-6.5-0.7l-8.4-1.3l-9-3.2l-6.6-5.2l-7.1-8.4l-4.5-7.1l-2.6-7.8l-0.7-5.2l-1.3-5.8l-5.8-5.8
			l-4.5-3.2l-8.4-5.8l-3.4-3.5l-0.9-3.3v-5.6l1.1-4.4l-1.1-6.7l-2.2-5.1l-5.4-7.5v-16.2l3.2-5.3l2.7-2.2l4.8-2.2l6.5-1.1h4.3
			l2.2-1.1l-1.1-2.2l-1.1-2.2l-1.1-1.1l2.2-2.2l2.2-3.2l1.1-4.3l1.1-4.3l1.1-6.5l-1.1-3.2l2.2-3.2l3.2-4.3l3.2-4.3l2.2-1.1l5.4-1.1
			h5.4l4.3-1.1l2.2-4.3l1.1-6.5l4.3-4.3l9.7-6.5l5.4-3.2l6.5-4.3l4.3-5.4l4.3-5.4l1.1-1.1v-1.1h-2.2l-3.2,2.1l-2.2,1.1l-4.3-1.1
			l-4.3-2.1l-4.3-1.1l-4.3-1.1l-3.2-2.2v-3.2l-2.2-3.2l-4.3-2.1l-2.2-3.2l-5.4-5.4l-6.5-7.5l-3.2-5.4h-1.1l-1.1,3.2v10.8l1.1,8.6
			v2.2l-1.1,4.3l1.1,7.5v6.5l-2.2,3.2h-6.5l-4.3-1.1h-2.2l-3.2,1.1h-2.2l-2.2-1.1l-4.3-2.2l-4.3-3.2l-3.2-2.1l-4.3-2.1l-3.2-2.2
			l-1.1-2.1l-5.4-7.5l-12.9-17.2l-1.1-1.1h-1.1l-3.2,1.1l-3.2,1.1h-3.2l-1.1,1.1v4.5l-2.2,4.1l-2.2,1.1h-1.1l-4.3-2.2l-3.2-2.1
			l-2.2-2.1l-2.2-3.2l-2.2-4.3l-3.2-3.2l-3.2-2.1l-3.2-1.1l-5.4-3.2l-4.3-1.1h-7.5l-2.2,1.1h-3.2l-3.2-1.1l-4.3-1.1l-3.2-2.1
			l-2.2-1.1l-2.2-2.1l-2.2-1.1l-2.2-1.1l-4.3-3.2l-1.1-2.2l-1.1-2.1l-2.2-1.1h-6.5l-3.2-1.1l-3.2-1.1h-2.2l-3.2,2.1l-1.1,1.1h-1.1
			l-2.2-2.1l-3.2-1.1l-2.2-4.3l-3.2-3.2l-3.2-1.1l-5.4-2.1l-2.2-1.1l-2.2-3.2l-1.1-2.1l-2.2-1.1h-4.3l-1.1-1.1l-1.1-2.2l-3.2-2.1
			l-2.2-1.1l-2.2-4.3l-2.2-3.2l-1.1-3.2l-3.2-4.3l-2.2-1.1v-1.6l2.2-1.6l1.1-4.3v-2.1l-2.2-4.3l-2.2-1.1l-1.1-3.2v-3.9l1.1-2.5
			l3.2-2.1l4.3-2.1l2.2-3.2v-4.3l-1.1-3.2l-1.1-3.2l-1.1-3.2l-1.1-2.2v-2.1l1.1-1.1h2.2l2.2-3.2l2.2-4.3l-1.1-2.2l1.1-3.2h-3.2
			l-1.1-1.1v-1.1l3.2-2.1l3.2-2.2l0.4-0.8l-3.7-1.4l-2.2-1.1l-1.1-1.1v-2.1l-1.1-1.1v-2.1l-1.1-1.1l-2.2-2.1l-1.1-2.1l-1.1-1.1
			l1.1-3.2l2.2-2.1l2.2-1.1l3.2-2.1l2.2-2.2l1.1-1.1l1.5-2.1l-1.3-4v-4l-4-4l-2.6-4l-5.3-7.9l-6.6-5.3l-5.3-4v-2.4l-2.6-1.3v-1.6
			l2.6-2.3h-4.6l-3.3-2.6l-4-4l-2.6-5.3l-1.3-4l-5.3-2.6l-7.9-4l-6.6-2.6l-2.6-1.3l-4-6.6l-2.6-4l-5.3-4l-4,1.3l-1.3-1.3l2.6-2.6
			v-5.3l1.3-4l2.6-2.6l-1.3-1.3l-2.6-1.3l-1.3-2.6V184l-5.3-1.3l-5.3-2.6l-4-2.6l-1.3-5.3V168l4-3.8l1.3-2.6l-5.3-5.1h-2.1l-3.2,1.1
			l-2,0.6l-1.1-1.7l4.4-2.8V151l-4.4,1.2l-4.9,0.2l-7.9-5.3l-9.3-7.9l-1.2-1.1l-4,1.3l-5.3-4l-1.3,2.7H965l-4-2.6l-4-4l-4-2.6
			l-4-5.3h-52.3l-8.2,1.3l-14.5,2.7l-10.6,4l-6.6,4c0,0-7.9,5.3-9.2,6.6l-7.9,7.9l-10.6,11.9L817.2,175l-11.9,14.5l-6.6,7.9
			l-7.9,5.3l-5.3,5.3l-11.9,10.6l-5.3,6.6l-5.3,2.8l-5.4,2.1l-5.4,2.1l-1.1,1.1l0.7,2.5l1.1,5.4v5.4l-2.9,5.4l-2.6,4l-3.1,1.4h-2.2
			l-2.2,1v8.6l2.2,2.1l3.2,2.1v1.1l-2.2,1.1l-1.1,3.2l-2.1,5.4l-3.2,5.4l-2.2,3.2H725l-1.1-1.1l-1.1-2.1v-5.4l-1.1-2.1h-2.2v2.1
			l-1.2,4.2l-1.3,10.6l1.3,10.6l4,5.3l9.2,4l10.5,5.3l10.6,6.6l4,6.6l4,4l2.6,4v9.2l-1.4,7.8l-5.3,7.9l-7.9,5.3l-6.6,2.6l-4,2.6
			l-2.6,2.6l-5.3,2.6l-6.6,2.6l-4-1.3h-4l-4,2.6l-5.3,4l-4,2.6l-5.3,2.6l-4,6.6l-4,6.6v8.4l-1.3,14v36.5l2.6,8.4l5.6,9.2l6.6,5.3
			l5.2,7.4l4.1,8.5v5.3l1.3,2.6l4,4l7.9,1.3l7.5,3.1l8.6,4.3l7.5,4.3l4.3,4.3l4.3,5.4l1.1,3.2l3.2,3.2l1.1,3.2l0.6,2.4v2.1l-5.4,5.3
			l-4,9.3l-1,12.1l-5.4,6.5l-1.1,7.5l2.2,5.4l3.2,5.4v5.4l-1.1,4.3l-2.2,2.2l-1,0.6l-3-0.3l-3.7-2.8l-5.3-2.6l-2.6-1.3l-2.6-2.6
			l-2.6-5.3l-1.3-2.6h-2.6l-4-1.3l-4-2.6l-1.3-4V590l-2.6-2.6l-5.3-2.6l-4-4l-2.6-2.6l-4-2.6l-5.3-1.3c0,0-4-1.3-4-2.6
			c-0.2-1.4-0.7-2.7-1.3-4v-4.9l-4-4.3l-2.6-4l-4-2.6l-2.6-4l-4-2.6l-4-1.3l-5-1.2l-6.6-2.6l-9.5,7.5c0,0-5.3-1.3-6.6-2.6
			c-1.7-1.4-3.4-2.8-5.3-4l-2.6-5.3l-1.3-1.3h-4l-2.6,1.3l-2.6,2.6l-6.6,2.6l-6.4-10.2l-11.8,2.7l-4,1.3l-2.6,1.3l-1.3,4v2.1
			l-2.6,1.8l-4,2.6l-4,2.6l-2.6,2.6l-2.6,4l-4,2.6l-5.1,6.6l-4,4l-2.6,6.6l-2.7,9.2l-2.6,10.6l-1.3,9.3l-2.6,13.2l-5.3,7.9l-2.6,4
			l-4,1.3l-4-2.6l-4-1.3l-2.6,2.6l-2.5,11.8l-4,13.2l-2.6,9.2l-4,9.3l-2.6,6.6l-2.5,9.2l-2.6,10.6l-1.3,9.3l-1.3,5.3l2.6,7.9l2.6,4
			v7.9l-2.6,6.6l-5.3,7.9l-6.6,6.6h-6.6l-2.6-4V748l-5.3-4.8l-1.3-4l-2.6-6.6l-2.6-4h-9.2l-4,1.3h-17.1l-5.3,2.6l-6.6,1.3l-5.3,5.4
			l-1.3,5.3l-5.3,2.6l-1.3,5.3l-2.6,4h-2.6l-2.6-2.6v-3.6l-1.3-5.7l-1.3-4v-5.1l-1.3-2.8l-1.3-5.3l-2.6-5.3l-1.3-2.6l-1.3-5.3
			l-1.3-9.2l2.6-5.3v-11.8l-1.3-5.3l-2.6-5.3l-2.6-5.3V659l-1.4-9.6l-1.3-7.9v-7.1l1.3-7.4l1.3-7.9l-1.3-5.3l-1.3-6.7l-2.6-3.9
			l-2.6-1.3l-5.3-1.3l-2.6-4l-1.3-2.6v-9.5l1.3-3.7l1.3-4l2.6-2.6l6.6-2.6l2.6-1.3l4-9.3l2.6-6.6l2.6-6.6l1.3-4l4-4l5.3-1.3l4-4
			l2.6-5.3l1.3-4v-10.4l1.3-4v-5.2l2.6-2.6v-6.6l-5.3-4l-5.4-5.3l-2.6-1.3l1.3-6.6l2.6-5.3l1.3-5.3v-2.6l-2.6-2.6l-1.3-6.6l-4-5.3
			l-1.3-4l-4-1.3l-1.3-1.3l-4-2.6v-4l-1.3-1.3l1.3-5.3l2.6-1.3l2.6-1.3l1.3-1.3v-4l-1.2-2.5v-4l-1.3-2.6l-1.3-4v-4l-2.6-4l-2.6-1.3
			l-4-2.6l-2.6-2.6v-14.4l-2.6-5.5v-1.7l-1.4-3.4l-1.3-5.3v-26.4l-1.3-4v-4l2.6-2.6l2.6-4l4-7.9v-5.2l-1.3-4l1.3-4V285l-5.2-4
			l-8-1.3l-9.3-2.6l-13.2-2.6l-15.8-1.3l-9.2,1.3l-1.3,2.7v7.9l-1.3,5.3l-2.6,6.6l-1.3,6.6l-1.3,9.2l-1.3,9.3l-2.6,4l-6.6,5.3
			l-1.3,4l-1.3,6.6l-5.3,6.6l-5.2,5.2l-5.3-2.6l-5.3-7.9l-4-4l-2.6-4l-1.3-4l2.7-17.1l-1.3-11.9l4-13.2l2.6-4l2.4-2.6h2.9l4-1.3
			l3.2-0.6l3.4-0.7l2.6-1.3l1.3-1.3l2.6-2.6l-1.3-2.6l-2.6-2.6l-2.6-4l-1.3-5.3l-1.3-4l-2.7-1.2l-1.3-1.3H288l-2.6-2.6L284,248
			l-6.6-6.6l-7.9-7.9l-1.3-2.6l1.3-2.6l-1.3-4l-4-2.6l-7.9-5.3l-4-6.6l-1.3-6.6l2.6-2.6l6.6-1.3h6.6l5.3,2.6h6.6l6.6,2.6l5.3-6.6
			l5.3-7.9l-2.6-5.3l-0.2-7.9h-3.7l-5.2-5.2l-6.6-13.2l-5.3-14.5l-4-13.2l-1.3-9.4v-6.4l-1.3-6.6l-5.3-4l-7.9-7.9l-7.9-4l-1.3-4
			l-4,1.3l-4-2.6l-2.6-1.3l-5.1-2.5l-1.3-4h-1.3l-2.7,2.7h-5.3l-4-4l-2.6-5.4v-3.8l-4-4l-6.6-5.3l-6.5-5.2h-2.6L185,50l-5.3-5.3
			l-4-1.3l-2.6-2.6l-4,1.3l-6.6-4l-2.8,3.9l-2.1,3.2l-2.2,3.2l-4.3,3.2l-4.3,2.2l-6.5,1.1h-2.1L136,56l-3.2,1.1h-3.2l-1.1-2.2
			l-2.1,1.1l-3.2,2.2H121l-1.1-1.1l-1.1-2.2v-2.1l-1.1-1.1l-1.1,1.1v9.7l2.1,7.5l2.2,4.3l1,2.8v4.8l-2.2,1.1h-3.2l-1.1-3v-3.5
			l-1.1-4.3l-1-2.2l-2.2-3.2l-3.3-3.2l-3.2-2.1l-3.2-2.2h-2.2l-1.1,1.1v2.2l2.2,2.1l6.5,4.3l3.2,3.2l1.1,3.2l-1.1,2.2l-1.1,2.2
			l-3.2,2.2l-5.4,1.1L96.2,84H84.3l-3.2-2.2L80,79.7l-1-2.1l-3.2-1.1h-2.2l-4.3,1.1l-8.6,3.2l-3.2,1.1l-2.2-1.2v-2l-1.1-2.2
			l-1.1,0.8v1.4L52,81.9L51,84l-4.3,2.2l-3.5,1.2h-3.4L37,86.2l-1.1-1.1L31.6,84l-8.3,3.3l-10.1,3.2l-2.2,1.1L9,92.6l-2.2,1.1
			l-2.2,1.1h-5.4l-3.2-1.1l-3.2-1.1l-3.2-1.1l-3.2-2.2l-1.1-1.1l-1.1-2.2l-1.1-2.2l-1.1-3.2v-2.1l-1.1-3.2v-2.2l-1.1-2.2l-1.1-2.2
			l-1.1-2.2l-1.1-2.2l-1.1-2.2l-1.1-2.2l-1.1-3.2l-1.1-3v-11l-2.1-2.2l-3.2-1.1h-2.2l-3.2-2.2l-3.2-1.1l-3.2-1.1h-4.3l-3.2-1.1
			l-4.3-1.1l-3.2-2.1l-1.1-1.1l-1.1-1.1l-1.1-1.3v-1.9l-1.1-1.1l-1.1-1.1l-1.1-1.1l-1.1-1.1l-1.1-2.2l-2.2-2.1l-1.1-2.1l-2.2-3.2
			v-22.6L-75-14l-1.1-2.1l1.1-2.1l3.2-2.4v-1.9l-2.2-2.1l-2.2-2.2h-2.2l-3.2-1.1l-2.2-2.1l-2.2-3.2l-1.1-4.3l-1.1-3.2l-1.1-3.2
			l-3.2-1.1l-2.2-1.3v-7.3l-2.2-1.1h-2.2l-2.2,0.2l-3.2-0.2l-2.2-1.1l-2.1-1l-1.1-2.2v-3.2l-2.2-2.2l-2.2-1.1l-2.2-3.2l-1.1,1v2.2
			l1.1,3.2v22.6l1.1,3.2l1.3,1l2.9,1h4.8l2.7,0.3l2.2,2.2l1.1,2.1l1.1,2.1l1.1,4.3l1.1,4.3v4.3l1.1,5.4l3.2,5.4v3.2l2.2,3.3v2.8
			l-1.1,3.6v4.3l1.1,3.2v2.2l-1.1,2.1l-1.1,2.1v6.5l-1.1,2.1l-2.2,1.1v1.1l1.1,3.3V40l-1.1,2.2l-1.1,2.2l-1.1,2.2v5.4l-1.1,2.1
			l-1.1,2.1l-1.1,2.2l-2.2,1.1h-2.2l-3.2,1.1l-4.3,1.1l-3.2,1.1h-1.1l-2.2,1.1l-1.7,1.1h-1.5l-1.1-1.1l-1.1-1.1v-2.2l1.1-2.2V54
			l-1.1-1.1l-2.2-1.1h-4.3l-2.2-1.1h-2.1l-1.1-2.2l-1.1-2.2l-1.1-2.2l-1.1-3.2v-3.2l-1.1-3.2l-2.2-3.2l-3.2-1.1l-2.4-1.1h-3
			l-2.9-1.1h-3.6l-2.1-3.2l-1.1-2.2v-3.2l1.1-3.2v-3.2l-1.1-3.2l-1.1-2.2l-1.1-3.2l-3.2-1.1l-2.2-2.2l-1.1-4.3l-1.1-4.3l-0.8-4.2
			v-3.1l-2.4-1h-1.8l-2.1-1l-2.1-1.1l-1.6-1h-8.9l-0.9-1h-4.3l-1.1-1.2l-2.1-2.1l-2.1-2.1l-2.1-2.1l-1.1-1h-2.1l-3.2-1h-4.2
			l-3.1-1.1l-4.2-1l-3.1-2.1l-2.1-2.1l-2.1-1.1l-3.1-1l-2.1-1L-236-41l-2.1-1h-5.3l-3.1-1l-3.2-2.1l-2.1-3.2l-2.1-3.2l-1-3.2
			l-1.1-3.2L-257-61l-1-4.2v-22.1l1-4.2v-8.4l-1-4.2v-3.2l-1-4.2v-6.3l1-4.2l1-4.2v-7.4l2.1-4.2l1-3.1l1.1-3.1l1-3.2l1.1-2.1
			l1.1-2.1l-1.1-2.1v-5.3l-1.1-2.1l1.1-1.1l2.6-1h2.6l3.1-1.1l3.1-1.1l2.1-2.1l3.1-3.1l3.1-2.1l2.1-2.1l3.2-3.1l3.1-3.1l3.1-4.2
			l1-4.2l2.1-3.2l2.1-3.1l2.1-4.2l2.1-4.2l2.1-4.2l2.1-4.2l2.1-1l2.1-2.1l2.1-2.1l2.1-2.1l3.2-3.1l2.1-2.1l1.9-2.1l1.2-1.1h4.2
			l2.6,1h0.7l-1.1-3.2l-1-2.1v-7.4l0.3-4.2l0.7-5.3v-5.3l-1-5.3l-1.1-3.1v-2.1l1.1-3.1v-14.7l1-4.2l1.1-3.1l2.1-3.2l2.1-3.1l2.1-2.1
			l2.1-3.2l1-3.1l1.1-3.1l1.1-3.2l1-3.1l2.1-3.1l2.1-4.2l3.1-4.2l2.1-3.2l3.1-3.1l2.1-2.1l2.1-2.1h6.3l2.1-2.1l1-2.1v-8.5l-1-3.1
			l-1.1-3.2l-1.1-3.1l-1-3.1v-2.1l1-2.1l2.1-1l3.1-1v-1h-4.2l-2.1,1l-2.1,2.1l-1,3.2l1,3.1l1.1,3.1l1.1,3.2l1,4.1v2.2
			c0,0-1,2.1-2.1,2.1s-4.2,3.1-4.2,3.1l-4.2,3.1l-3.1,3.2l-2.1,3.1l-2.1,3.1l-2.1,3.2l-2.1,3.1l-2.1,3.1l-2.1,3.2l-1,3.1l-1.1,3.1
			l-1,4.2l-1.1,3.1l-3.2,4.2l-2.1,1l-3.1,1l-4.2,1h-3.1l-3.1-1l-3.2-2.1l-3.1-1h-6.3l-2.1-1.1l-3.1-2.1l-3.1-1l-3.2-1h-6.3l-3.2-1
			h-2.1l-3.1-1h-6.3l-2.1,1l-2.1,2.1l-1.1,2.1l-1,1l-2.1,2.1l-2.1,2.1l-2.1,1l-2.4,1h-1.9l-2.1,1l-2.1,1l-2.1,1.1l-2.1,2.1l-2.1,2.1
			l-1,2.1v2.1l-1.1,2.1l-2.2,1h-2l-2.1,1l-2.1,2.1l-2.1,2.1l-1,1l-1,2.1l-1,2.1v2.1l1,2.1l1,1.1l1,1l1.1,1l1,1v5.3l-1,1l-1.1,1.1
			v2.1l1.1,1.2v3l-1.1,1.1l-1,1.1l-1.6,1l-1.6-1h-1l-0.4,1h-3.8l-2.1-1l-2.1-2.1l-2.1-2.1l-2.1-2.1l-3.2-2.1l-3.1-2.1l-2.1-1.1
			l-3.1-1l-2.9-1h-2.3l-3.2-1l-3.4-0.5l-2.9-0.5l-3.9-1h-8.7l-3.1,2.1l-3.4,1h-3.9l-6.7,4.6l-6.5,3.2l-3.2,6.5l-2.1,9.7l-3.2,6.5
			l-3.2,7.5l-6.5,5.4l-6.5,1.1h-4.3l-3.2,2.1l-1.1,1.1h-3.2l-2.1-1.1l-2.1-2.1l-1.1-2.1l-2.1-2.2l-3.2-1.1l-1.1-1l-1.1-3.2l-1.1-2.2
			l-1.1-4.3l-1.1-3.2l-2.1-3.2l-2.1-3.2l-4.3-7.5l-0.4-0.9v-407.1h2442.9v991L1923.5,380.4z"/>
		<path id="Pre1900_HKI" class="st1" d="M-158.6,1419l0.1-0.5l0.7-3l1.1-4.3l1.1-3.2l6.5-11.9l4.3-11.9l1.1-3.2l-1.1-15v-8.8
			l-1.1-3.2l-2.2-2.3l-1.1-3.1v-3.2l1.1-1v-1.1l-1.1-2.2l-3.3-5.4l-4.9-5.4l-1.6-1.1l-5.4,1.1l-2.2-2.2l-1.1-2.2v-2.2l2.2-5.4
			l-1.1-2.2l-5.4-4.3l-1.1-1.1l1.1-1.1l2.2-1.1v-1.1l1.1-2.2l2.2-2.2v-2.2l-3.2-2.2l-3.2-3.2l-1.1-2.2l-3.2-1.1l-1.1-1.1l-1.1-2.2
			l-1.1-2.2l-3.2-2.2l-2.2-2.2h-2.2l-1.1,2.2l-1.1,1.5v1.7l-1.1,2.2l-1.1,1.2v5.3l-2.2,1.1h-4.3l-1.1,1.1l-1,2.2v2.2l-1.1,2.2
			l-2.2,1.1h-1.1l-2.2,1.1l-2.2,3.2l-1.1,2.2l-1.1-1.1v-2.2l-2.2-2.2l-3.2-1.1h-4.3l-1.1-1.1l-3.2-1.1l-1.1-1.1l-3.2-1.1l-2.2-2.2
			l-4.3-1.1l-3.2-3.2l-1.1-4.3l-1.1-2.2l-3.2-5.4l-2.2-6.5v-6.5l-1.1-1.1l-3.2-3.2l-1.1-2.2l2.2-3.2l1.1-7.6l1.1-5.4l2.2-5.4
			l-1.1-1.1l-1.1-4.8v-3.8l-3.2-7v-4.9l-2.2-1.1l-2.2-2.2l-0.5-4.6l-1.6-4l-0.9-2.2l-1.3-1.1l-4.3,1.1l-1.1-1.1l-1.1-3.2l-1.1-1.1
			l-4.3-3.2l-3.2-3.2l-1.1-3.2l1.1-2.2l-1.1-2.2l-2.2-1.1l-2.2-1.1v-2.2l1.1-1.1v-1.1l-1.1-1.1l2.2-2.2l2.2-2.2v-3.2l1.1-5.4
			l2.2-3.2l2.2-5.4v-4.3l-2.2-5.4l-3.2-1.1l-4.3-1.1l-2.2-1.1l-1.1,1.1l-3.2,2.2l-5.4,2.2l-3.2,2.2h-3.2l-4.3,1.1l-5.4,1.1l-7.1-1.1
			h-3.7l-3.2-1.1l-2.3-1.1h-2l-2.2-1.1l-2.2-1.1l-3.4-2.2h-7.4l-7.6-4.3l-2.2-3.2l-1.1-1.1l-2.2-1.1l-1.1-2.2l-2.2-4.3l-5.4-8.6
			l-4.3-6.5l-4.3-4.3l-5.4-3.2l-6.5-2.2l-4.3-4.3l-3.2-4.3l-1.1-4.3v-9.7l1.1-16.2l-1.1-4.3l-1.1-6.5l-1.1-7.6v-3.2l1.1-2.2l3.2-4.3
			l4.3-4.3l2.2-5.4l1.1-7.6l1.1-5.4l1.1-4.3l2.2-3.2l3.2-3.2l8.6-5.4l16.2-7.6l11.9-4.3l18.8-5.4h9.3l3.2-2.2l2.2-2.2l1.1-1.1
			l1.1,1.1l2.2,1.1h3.2l5.4-1.1l2.2-1.1l1.1-2.2l2.2-3.2l1.1-2.2l3.2-2.2l3.2-2.2l3.2-1.1l2.2,1.1l1.7,0.5h3.1l3.2-1.1l4.1-2.2h5.6
			l4.9,4.9l4.4,5.6l2.7,1.4l4.1,2.7l4.1,1.4l5.5,1.4h5.4l5.5-1.4l5.4-1.4l4.1-1.4l4.1-1.4l6.8-4.1l4.1-4.1l2.7-4.1l2.7-5.5l1.4-4.1
			l1.4-4.1l2.7-2.7l2.7-2.7l4.1-2.7l5.4-2.7l4.1-4.1l2.7-2.7l2.7-1.4l4.1-2.7l1.4-6.8l1.4-4.1l2.7-4.1l2.7-4.1v-6.8v-0.5
			c-0.5-0.9-1.4-2.2-1.4-2.2l1.4-4.1l2.7-2.7h5.4l4.1,1.4l5.4,1.4l8.4,1.2l2.3,2.1l1.9,1.9l1.3,0.9l5.4,4.1l4.1,1.4h14.9l6.8-1.4
			l4.1-1.3l5.4-2.7l5.4-2.7l4.1-2.7l4.1-2.7l4.1-1.4l5.4-1.3h8.1l3.9,0.4l4.3,1.1h4.3l4.3-1.1l1.7-1.5l5.4-2.7l1.3-4l1.4-4.1
			l1.4-1.3l2.7-0.3h9.5l4.1,0.3l2.6,0.8L1,881v2.7l2.7,2.7l4.1,1.4h16.2l4.1,1.3h2.7l5.4,1.4l2-1l2.1-1.1h2.2l4.3,1.1l1.1,1.1
			l3.2,3.2l2.2,2.2l3.2,2.1l4.3,1.1H64l4.3-2.1l4.3-3.2l4.3-2.1l4,0.5l4.1,4.1l4.1,2.7l4.1,4h8.1l1.4-2.7l2.7-1.4h2.7l1.4,2.7
			l4.1,2.7l4.1,2.7l1.3,2.7v4.1l4.1,1.4l4.1,1.3h2.7l2.7-1.3l2.7-1.4h1.4l2.7-1.3l1.4-2.7h4.1l4.1,1.4h8.1l5.4,2.7l2.7,1.4h6.8
			l4.1,1.3l2.7,1.4l1.4,1.3l1.4,1.3l2.7,2.7l4.1,2.7l1.4,4.1v5.4l1.4,2.7l4.1,4.1l1.4,2.7l2.7,2.7l2.7,2.7l1.4,2.7l1.4,1.3l2.7,2.7
			l2.7,4.1l1.4,4.1l2.7,2.7l2.7,4.1l4.1,4.1l2.7,2.7l1.4,2.7l1.4,2.7l1.4,2.7l4.1,2.7l2.7,5.4l2.7,2.7h4.1l4.1,1.3h4.1l2.7,1.4
			l2.7-1.4h9.5l2.7-1.3l6.8-1.3l6.8,1.3l6.8,1.3l8.1,2.7l6.8,2.7l6.8,2.7l4.1,2.7l5.4,4.1l5.4,4.1l5.4,4.1l1.4,2.7v5.4l1.4,1.3h1.2
			l1.5-1.4l1.4-1.3l4.1-1.4h9.5l2.7-1.3l2.7-1.3l2.7-2.7l4.1-2.7h1.4l1.4,1.4l1.4,1.3l2.7,2.7l1.4,1.3l2.7,2.7v1.7l-4.1,3.7
			l-2.7,2.7l-2.7,4l1.4,2.7h5.2l5.6,1.3l4.1,2.7l2.7,1.4l2.7,1.3l4.1,2.7l2.7,1.3l2.7,2.7l1.4,1.3l5.4,4.1l4.1,2.7l4.1,2.7l4.1,2.7
			l2.7,2.7l2.7,1.4h6.8l4.1-1.4h2.7l4.1,1.4l4.1,2.7h18.4l3.3,2.7l5.4-1.3l2.7-1.3l4.1-1.4l2.7-1.3l4.1-1.4l5.4-4.1l4.1-1.3l5.4-1.4
			h4.1l4.1-2.7l2.7-1.4l2.7-1.3l9.5,2.7l9.5-6.8l4.1-5.4v-5.4h8.1l13.5-4.1l6.8-5.4l5.4-1.3l8.1,12.2l-1.3,8.1l2.7,12.2l2.7,2.7h8.1
			l5.4-2.4l5.4-5.7l4.1-5.4l4.1-1.4l9.5-4.1l6.8-6.8l-4.1-10.8v-5.4l1.4-4.1v-2.7l-1.4-4.1v-2.7l1.4-6.8l1.3-4.1l2.7-4.1l1.3-4.1
			l1.4-4.1v-2.7l-2.7-2.7l-1.3-1.3v-1.4l1.3-1.3l1.3-1.3l1.4-1.4l2.7-1.3l4.1-1.4l4.1,1.4l4.1,4.1l1.3,6.8v2.7l-1.3,4.1l-2.7,2.7
			l-1.3,2.7v2.7l4.1,1.3l4.1,2.7l5.4,5.4l5.4,4.1l6.8,2.7l8.1,2.7l8.1,1.4h10.8l4.1,5.4l5.4,4.1l4.1,1.4l6.8-1.4l6.8-2.7l6.8-1.4
			l9.5-2.7h20.3l5.4-4.1l1.3-5.4l-1.4-6.8l-2.7-5.4l-2.7-6.8v-9.5l-1.4-8.1l-1.3-8.1v-10.8l-1.3-10.8v-10.8l-1.3-10.8l-1.3-12.2
			l-1.3-6.8v-8.1l1.3-5.4l4.1-4.1l9.5-12.2l8.1-9.5l16.2-19l6.8-8.1l5.4-4.1l5.5-2.6h5.4l6.8,1.4l5.4,1.3l6.8,1.3l5.4,1.4h14.9
			l5.4-1.4l6.8-1.3l9.5-2.7l9.5-2.7l9.5-1.3l10.8-1.3h12.2l3.8-1l6.4-3.2l7.5-3.2l8.6-3.2l6.4-2.2l7.5-4.3l4.3-2.1l2.2-0.5h2.6
			l16.1,2.2l13.9,4.3l10.7,4.3l8.6,6.4l7.5,10.7l5.4,13.9l5.4,21.5l2.1,6.4l2.2,5.4l4.3,10.7l6.5,13.4l5.3,8l6.1,7l2.4,0.5h3.2
			l4.3-3.2l3.2-3.2l1.1-5.4l1.1-3.2l2.2-2.2l3.2-1.1h3.2l3.2,2.1l1.5,3.2l1.7,3.2l2.2,3.2l4.3,6.4l3.2,6.4l1.1,1.1h1.2l0.9-1.1
			l3.2-3.2l4.3-6.4l3.2-3.2l3.2-2.2l5.4-3.2l3-1.1h3.4l4.3,1.1l4.3,2.2l5.4,3.2l5.4,3.2l10.7,4.3l12.4,2.2h5.8l4.3,1.1l3.2,2.1
			l6.4,6.4l7.5,7.5l3.2,5.4l2.1,2.2l3.2,5.4l2.1,2.2l4.3,5.4l5.4,7.5l4.3,7.5l5.4,5.4l3.2,2.2l5.4,2.1l9.7,5.4l6.4,2.2l9.7,2.1
			l2.4,2.7l2,4.8l2.7,3.8l3.3,6.5l7.6,15.2l7.6,15.2l3.3,2.2l6.5,3.3l9.8,4.3l5.4,2.2l3.3,3.3l7.6,3.3h7.6l5.4-5.4l4.3-7.6l2.2-5.4
			l-1.1-3.3l-4.3-4.3l-3.3-14.1l3.3-6.5l7.6-19.5v-4.3l-1.1-7.6l-1.1-5.4l-1.1-5.4l1.1-3.3l3.3-4.3l4.3-3.3l6.5-1.1l4.3,1.1l3.3,1.1
			l7.6,2.2h6.5l7.6-3.3l4.3-4.3l1.1-3.3l-2.2-1.1l-1.1-3.3l1.1-2.2v-1.1l-1-2.1l1.1-2.2l2.2-1.1l-1.1-2.2l1.1-1.1l3.3-2.2l4.3-2.2
			l2.8-2.3l3.8-0.8l6.8,2.3l6.8,6.1l5.3,6.1l3.8,4.5l4.6,5.3l3,3.8l3,2.3l2.3,3.8l3.8,2.3l3.8,3l3,3l3,2.3l3.8,1.5l5.3,3l2.2,2.6
			l4.3,2.2l2.7,2.7l0.1,1l-0.7,0.7l-1.1,1.1l1.1,2.2l1.1,1.1h2.2l1.1,1.1v2.2l-1.1,2.2l-1.1,3.3l-1.1,3.3l-4.3,7.6l-1.1,3.3
			l-2.2,1.1l-3.3,3.3l-2.2,1.1l-4.3,1.1h-2.2l-4.3,3.3h-1.1l-2.2,1.1l-5.4,6.5l-1.1,3.3v4.3l2.2,2.2l5.4,7.6v1.1l2.2,3.3l5.4,6.5
			l1.1,2.2l1.1,2.2l3.3,3.3l4.3,5.4l1.1,5.4l1.1,3.3l2.2,3.3l4.3,3.3h3.3l3.3-1.1l4.3-1.1l11.9-3.3h2.2l3.3,1.1h2.3l1.1-1.1l4.3-4.3
			h1.1v4.3l1.1,3.3l-1.1,5.4l-1.1,2.2v1.1l-1.1,1.1h-3.3l-1,1.2l-2.2,1.1l-1.1,2.2h-1.1l-3.3-2.2l-1.1-1.1l-1.1,1.1l-1.1,2.2
			l-2.2,4.3l-3.3,2.2h-2.2l-1.1,1.1l1.1,2.2l-1.1,3.3l-4.3,5.4l-3.3,2.2l-4.3,5.4l-1.1,3.3v3.3l2.2,3.3l-1.1,1.1l-3.3,6.5l-1.1,6.5
			l-1.1,2.2l-5.4,3.3v2.2l1.1,4.3l-1.1,2.2v2.2l1.1,2.2l2.2,1.1l1.1,2.2v1.1l1.1,1.1l-3.3,2.2l-3.3,3.3v3.3l-2.2,1.1l-2.2,1.1v2.2
			l1.1,4.3l-1.1,3.3l-2.2,3.3l-2.2,5.4l-2.2,7.6l-3.3,2.2v2.2l1.1,2.2l2.2,6.5l4.3,8.7l2.2,3.3l1.1,2.2h2.2l2.2-2.2l4.3-1.1l1.1,2.2
			v2.1l-1.1,6.5l-1.1,3.3l-4.3,8.7l-2.2,1.1h-2.2l-4.3,2.2l-3.3-1.1l-5.4-3.3v-3.3l1.1-2.2l1.1-3.3v-2.2l-1.1-1.1l-3.3-2.2h-1.1
			l-1.1,2.2l-1.1,1.1l-2.2,1.1h-3.3l-2.2-2.2l1.1-3.3l1.1-3.3v-3.3l-1.1-2.2h-1.1v3.3h-4.3l-3.3-2.2h-1.1l-1.1,2.2l-1.1,1.1v2.2
			l1.1,1.1h-3.3l-2.2,2.2l1.1,1.1l1.1,1.1v2.2l1.1,2.2l1.1,3.3l-1.1,2.2v1.1l2.2,3.3l2.2,2.2l1.1,3.3l2.2,4.3l1.1,1.1h5.4l1.1,1.1
			l3.3,5.4h6.5l2.2,2.2l1.1,3.3v3.3h4.3l5.4,3.3v2.2h4.3l3.3-1.1l5.4,1.1l7.6-5.4h2.1l3.3-2.2h2.2l4.3-4.3l4.3-2.2l4.3-5.4l4.3-1.1
			h6.5l4.3-1.1l5.4-2.2l2.2-4l1.1-0.4l6.5-3.3l6.5-3.3l2.2-3.3l8.7-8.7h1.1l2.2,2.2h2.2l3.3-1.1h3.3l1.1-3.3l4.3-2.2l7.6-2.2v-1.1
			l3.3-2.2h4.3l2.2-1.1l2.2,2.2h4.3l2.2,1.1l3.3,3.3h1.1l2.2-1.1l1.1,1.1l3.3,3.3l3.3,1.1l1.1,1.1v3.3l2.2,3.3l3.3,4.3l1.1,2.2
			l2.2,3.3l2.2,1.1l2.2,2.2l9.8,9.8l1.1,4.3l1.1,1.1l2.2,3.3l4.3,9.8l1.1,2.2l-1.1,2.2l1.1,2.2v3.3l1.1,2.2l4.3,3.3h1.1l1.1-3.3
			l2.2-2.2l3.3-1.1l3.3-2.2l5.4-3.3l5.4-5.4l6.5-4.3l4.3-4.3l3.3-7.6l2.2-8.7l-0.5-2.9l-4.9-10.1l-1.1-2.2l1.1-1.1l3.3-1.1l2.2-1.1
			l5.4-3.3l1.9-0.9l2.3-2.3l4.6,3l3.8,3.8l3,2.3l3,0.8l3,2.3l5.3,3l7.6,9.1l3.8,2.3l2.3,2.3l2.3,2.3l4.6,3.8l3,3.8l2.3,2.3l3.8,3
			l2.3,1.5l3,4.6l7.6,8.3l3.2,6.6l1.1,3.1l0.3,1l-1.5,1.5h-0.8l-2.3-0.8l-1.1-0.5h-3.3l-2.5,2.8h-3l-6.1,0.8l-2.5,3h-2.2l-1.1,3.3
			l-2.2,3.3l-3.3,6.5l-1.1,5.4l-2.2,5.4v2.2l2.2,2.2v2.2l1.1,1.1l1.1,3.3h1.1l1.1,1.1l-1.1,2.2l1.1,3.3l-1.1,2.2l1.1,3.3l1.1,1.1
			l-1.1,2.2l1.1,2.2h1.1l1.1-1.1l1.1,1.1v1.1l2.2,3.3l4.3,5.4l-1.1,1.1v2.2l-1.1,2.2l1.1,1.1h1.1l4.3,4.3v1.1l-1.1,1.1h-1.1
			l-2.2,2.2v2.2l2.2,3.3l-1.1,2.2l-1.1,5.4l-2.2,1.1l-3.3-2.2h-2.2l-1.1,2.2l-0.6,2.9L-158.6,1419z"/>
		<g id="_2019_HKI_Shoreline">
			<polyline class="st2" points="1683.7,1249.1 1682.9,1248.1 1682.7,1247.6 1682.9,1246.8 1682.9,1246.2 1681.7,1245.4 
				1679,1243.5 1678.3,1243.1 1621.6,1187.2 1600.9,1208.3 1589.9,1194.5 1585.3,1180.9 1575.4,1146.7 1573.8,1143 1573.6,1142.9 
				1573.6,1135 1571.9,1130.2 1568.8,1122.3 1562.6,1113.7 1559.5,1116 1565.4,1124.1 1568.3,1131.4 1569.8,1135.6 1569.8,1143.2 
				1561.8,1151.3 1570.9,1183.9 1543.1,1207.1 1537.4,1207.1 1531.7,1206.1 1528.8,1202.3 1525,1196.6 1525,1196.6 1525.9,1193.4 
				1513.3,1177.2 1552.8,1130.9 1548.9,1126 1551.9,1123.2 1543.6,1114.1 1531.4,1103.5 1514,1076.9 1512,1078.7 1512,1078.7 
				1512.3,1077.6 1512.3,1076.2 1504.1,1032.9 1501.8,1026.8 1473.9,1007.3 1470.8,1004 			"/>
			<polyline class="st3" points="-41.2,839 -38.5,838.3 -30.8,836.4 43.8,839.2 113.3,856.8 116.4,860.6 126.2,872.8 131.1,874 			
				"/>
			<polyline class="st4" points="134.8,875 138.7,876.1 140.6,868.9 140.2,868.4 136.1,867.4 136.1,866.8 136.3,865.5 135.7,865.3 
				135.3,866.6 132.6,865.8 131.3,863.7 131.7,861.8 133.8,860.6 134,860.6 136.7,861.4 136.5,862.8 137.1,862.8 137.5,861.6 
				137.7,861 141.5,862.1 			"/>
			<polyline class="st4" points="149.5,864.2 153.3,865.3 153.7,864.9 154.6,861.5 			"/>
			<polyline class="st4" points="154.7,861.2 155.6,857.7 155.4,857.3 152.2,856.4 152.6,855 152,854.8 151.6,856.2 150.4,856 
				150.8,854.4 150.2,854.4 150,855.8 146.2,854.8 			"/>
			<polyline class="st4" points="140,853.1 136.1,852.1 134.9,850 135.5,848 136.1,847.7 140,848.7 			"/>
			<polyline class="st5" points="148.3,850.9 157.8,853.5 160.7,854.3 			"/>
			<polyline class="st4" points="164.8,855.5 168,856.4 168.4,857 167.8,858.9 165.7,860 163.6,859.5 164,857.9 163.2,857.9 
				162.8,859.3 161.8,858.9 162.2,857.5 161.6,857.3 161.3,858.9 158,857.9 157.6,858.1 156.6,862 			"/>
			<polyline class="st4" points="156.6,862 155.6,865.5 155.8,865.8 160.1,867 159.9,867.6 160.1,867.8 159.7,868.9 160.3,869.1 
				160.7,867.8 163.6,868.5 164.7,870.7 164.1,872.6 162.2,873.8 159.3,873 159.5,871.8 159.1,871.7 158.7,872.8 158.5,872.8 
				158.4,873.4 154.3,872.2 153.7,872.6 151.9,879.6 155.7,880.6 			"/>
			<polyline class="st6" points="163.2,882.6 163.4,882.6 171,882.6 173.9,885.1 			"/>
			<polyline class="st4" points="176.7,887.8 178.7,891.3 179.8,890.3 181.6,888.5 			"/>
			<line class="st7" x1="188.2" y1="881.7" x2="198.1" y2="871.5"/>
			<polyline class="st4" points="201.4,868.1 204.2,865.2 205.7,865.6 204.7,869.5 			"/>
			<polyline class="st4" points="204.1,871.6 203,875.5 207.9,876.8 208.8,878.5 211.9,879.3 212.9,878.9 213.9,875.1 			"/>
			<polyline class="st4" points="214.7,872.2 215.8,868.3 219.6,869.3 218.6,873.1 			"/>
			<polyline class="st4" points="217.8,876 216.8,879.9 216.9,879.9 217.5,880.9 221.4,881.8 			"/>
			<polyline class="st4" points="222.1,882 226,883 226.8,882.4 227.6,879.5 			"/>
			<polyline class="st4" points="228.7,875.4 229.5,872.2 230.1,871.8 233.4,872.7 233.8,873.1 232.7,877 			"/>
			<polyline class="st4" points="231.9,879.9 230.9,883.8 231.4,884.3 234.5,885.1 			"/>
			<polyline class="st4" points="237.4,885.8 240.1,886.5 241.1,885.9 242.1,882 			"/>
			<polyline class="st4" points="242.8,879.3 243.6,875.8 243.8,875.6 244,875.6 244,875.5 244.2,875.5 247.3,876.4 247.5,876.4 
				247.5,876.6 247.7,876.6 247.7,876.8 246.7,880.5 			"/>
			<polyline class="st4" points="246,883 245,886.9 245.6,887.8 248.3,888.6 			"/>
			<polyline class="st4" points="251.2,889.5 254.1,890.3 255,890 256.2,886.1 			"/>
			<polyline class="st4" points="257,883.5 258.1,879.9 258.1,879.7 258.3,879.7 258.5,879.5 258.9,879.7 261.8,880.5 262,880.7 
				262,880.9 262,881 			"/>
			<polyline class="st4" points="260.1,887.3 258.9,891.1 259.5,891.9 259.3,892.3 263.1,893.6 			"/>
			<polyline class="st4" points="264,893.9 267.8,895.2 268,894.8 268.8,894.4 269.7,891.9 			"/>
			<polyline class="st4" points="271.1,888.1 272.4,884.5 272.4,884.3 272.6,884.3 272.8,884.3 273,884.3 275.9,885.3 276.1,885.5 
				276.3,885.5 276.3,885.7 276.3,885.9 275,889.3 			"/>
			<polyline class="st4" points="274,892 272.6,895.8 273.2,896.7 273,896.9 276.7,898.4 			"/>
			<polyline class="st4" points="277.6,898.7 281.3,900.2 281.5,900 282.5,899.4 283.5,897 			"/>
			<polyline class="st4" points="285.1,893.2 286.4,890 286.6,889.8 286.8,889.6 286.9,889.6 290,890.9 290.2,891.1 290.2,891.3 			
				"/>
			<polyline class="st4" points="287.4,898.4 286.4,901 286.8,902.1 286.6,902.3 287.9,902.9 290.2,903.9 			"/>
			<polyline class="st4" points="290.8,904.2 294.5,905.8 295.8,905 296.8,902.8 			"/>
			<polyline class="st4" points="298.4,899.1 299.9,895.4 303.8,896.9 302.2,900.6 			"/>
			<polyline class="st4" points="300.6,908.8 302,912.6 305.8,911.3 			"/>
			<polyline class="st4" points="308.9,910.2 311.5,909.3 311.9,909.3 312.1,909.3 312.5,909.5 312.7,909.5 312.9,909.7 313,910.1 
				313.2,910.3 313.2,910.7 313.2,910.8 313,911.2 312.9,911.6 312.7,911.8 312.3,911.8 308.9,913 			"/>
			<polyline class="st4" points="306.6,913.8 302.8,915.1 304.2,918.9 			"/>
			<polyline class="st4" points="304.7,920.4 306.1,924.2 309.9,922.9 			"/>
			<polyline class="st4" points="312.5,922 315.6,920.9 315.8,920.9 316,920.9 316.1,920.9 316.3,920.9 316.5,921.1 316.7,921.1 
				316.9,921.3 316.9,921.5 317.1,921.7 317.1,921.9 317.3,922.1 317.3,922.3 317.3,922.5 317.1,922.6 317.1,922.8 316.9,923 
				316.7,923.2 316.5,923.4 316.1,923.6 314.4,924.2 			"/>
			<polyline class="st4" points="310.6,925.4 306.9,926.7 308.2,930.5 			"/>
			<polyline class="st4" points="312.3,936.3 312.5,936.4 315.6,938.3 315.8,938.3 316.1,940 319.9,941.5 			"/>
			<polyline class="st8" points="326.6,944.3 336.3,948.2 340.3,949.7 341.9,950.5 343.6,951.1 348.2,953 350.2,953.7 			"/>
			<polyline class="st4" points="353.6,955 357.3,956.5 359.1,955.5 361,955.9 			"/>
			<polyline class="st9" points="368.9,957.5 369.7,957.7 373.2,958 374.5,958.2 376.5,958.4 379.4,958.6 380.7,958.8 382.5,959 
				384.2,960 386.5,961.5 388,962.3 389.5,963.1 391,963.8 393.3,964.6 397,964.6 403,965 403.5,965 411.1,967.1 418,968.9 
				421.9,969.4 424.2,969.6 426.4,969.6 429.3,969.1 431.8,968.3 433.5,967.5 435.6,966.5 437.2,965.6 438.4,964.2 439.9,962.3 
				440.7,961.1 441.6,959.6 441.8,959 442.6,957.8 442.8,957.1 443.6,955.7 444,954.8 444.5,953.8 445.1,953.2 446.3,951.8 
				447.6,950.7 449,949.5 449.3,948.7 			"/>
			<polyline class="st4" points="450.5,944.8 451.7,941 451.5,941 451.3,940.8 451.1,940.6 450.9,940.4 450.7,940 450.7,939.8 
				450.7,939.7 450.7,939.3 450.7,939.1 450.9,938.9 451.1,938.7 453.6,936.3 			"/>
			<polyline class="st10" points="462.2,932.2 462.5,932.1 463.5,931.9 464.6,931.9 466.6,931.9 467.9,932.1 469.9,932.5 
				471.2,932.9 472.4,933.3 473.2,933.7 473.9,934 474.5,934.3 475.1,934.6 476.1,934.6 			"/>
			<polyline class="st4" points="481,934.6 485,934.6 483.9,930.8 			"/>
			<polyline class="st11" points="485.5,926.5 485.7,926.5 486.1,926.7 486.5,926.7 486.9,926.9 487.3,927.3 487.5,927.5 
				487.7,927.9 487.7,928.1 487.9,928.4 489.1,933.1 			"/>
			<polyline class="st4" points="489.8,935.8 490.8,939.7 489.2,940 489.4,940.2 489.6,940.4 489.6,940.8 489.6,941.2 488,946.6 
				488.2,946.8 488.4,946.4 489.2,946.6 489,947.6 488.2,947.4 488.2,947.2 487.9,947 487.3,949.3 487.7,949.3 487.7,949.1 
				488.4,949.3 488.2,950.5 487.5,950.1 487.5,949.7 486.5,949.5 486.5,950.9 486.7,953.5 			"/>
			<polyline class="st12" points="489.2,963 489.2,963.1 490,963.5 490.6,963.8 491.1,964.2 491.7,964.4 492.5,964.4 493.1,964.4 
				494.6,964.4 495.6,964.4 496.9,964.2 504,963.5 			"/>
			<polyline class="st4" points="509,962.9 513,962.5 513,962.3 513.2,961.9 513.6,961.5 513.6,961.1 513.3,958.7 			"/>
			<polyline class="st4" points="512.8,954.8 512.4,951.1 512.4,950.9 512.6,950.9 512.6,950.7 512.8,950.7 513,950.5 516.1,950.3 
				516.3,950.3 516.5,950.3 516.5,950.5 516.7,950.7 517.1,954.4 			"/>
			<polyline class="st4" points="517.5,958.2 517.8,960.9 518.6,961.9 520.9,961.5 522.6,961.3 			"/>
			<polyline class="st13" points="530.8,960.2 532.5,960 535.6,959.6 540.5,958.8 547.4,957.8 559.7,956 			"/>
			<polyline class="st4" points="563.8,955.3 567.7,954.8 567.4,955.1 570.5,952.5 			"/>
			<line class="st14" x1="574.6" y1="949" x2="580.8" y2="943.7"/>
			<polyline class="st4" points="582.9,941.9 583,941.8 586.8,941.1 588.3,942.6 587.5,945.6 586.9,946.2 			"/>
			<line class="st15" x1="583.3" y1="949.4" x2="577.9" y2="954.2"/>
			<polyline class="st4" points="576.1,955.8 573.1,958.5 573.1,960 573.8,962.4 			"/>
			<polyline class="st4" points="575.1,967.5 576.2,971.4 579.8,969.8 			"/>
			<line class="st16" x1="584.5" y1="967.6" x2="591.6" y2="964.4"/>
			<polyline class="st4" points="594,963.3 597.6,961.7 597.6,957.7 			"/>
			<line class="st17" x1="597.6" y1="953.4" x2="597.6" y2="947"/>
			<path class="st4" d="M597.6,944.8v-4l-3.3-0.7c-0.2,0-0.4-0.1-0.6-0.3"/>
			<polyline class="st4" points="595.4,937.1 599.4,937.9 602,933.5 605.9,932.7 			"/>
			<polyline class="st4" points="606.8,932.5 609.5,932 610.8,932 609.2,928.3 			"/>
			<path class="st18" d="M606.7,922.5c-0.3-0.8,0.1-1.8,0.9-2.1c0.8-0.3,1.8,0.1,2.1,0.9l0,0l1.8,4.1"/>
			<polyline class="st4" points="612.7,928.3 614.3,932 617.7,932 618.2,931.8 			"/>
			<polyline class="st4" points="620.8,930.5 620.9,930.4 624.7,931.2 626.3,934.2 626.1,934.8 			"/>
			<polyline class="st19" points="624.5,941.6 623.2,947.1 620.2,963.1 620.2,965.3 			"/>
			<polyline class="st4" points="620.2,968.8 620.2,969.1 620.5,972.8 624.5,972.2 			"/>
			<polyline class="st20" points="631.3,967.6 643.5,958.8 646.4,954 652.1,949.3 658.8,945.4 666.5,943.5 672.2,942.6 694.2,937.8 
				703.5,934.3 705.5,932.3 708.2,928.9 710.9,923.6 711,922.9 			"/>
			<polyline class="st4" points="711.5,918.8 711.5,914.8 708.6,912.9 708.4,912.4 			"/>
			<polyline class="st21" points="707.4,908.2 706.7,903.3 706.4,901.8 			"/>
			<polyline class="st4" points="705.9,899.7 705.7,898.5 705.7,895.7 702.4,893.5 			"/>
			<path class="st22" d="M696.8,889.7l-9.9-6.7c-0.8-0.5-1.1-1.5-0.6-2.3c0.5-0.8,1.5-1.1,2.3-0.6c0.1,0,0.1,0.1,0.2,0.1l5.5,3.7"/>
			<polyline class="st4" points="697.1,885.8 700.4,888 703,885 			"/>
			<polyline class="st23" points="707.8,879.4 724.2,860.3 736.2,847.7 738.1,846 756.1,829.1 			"/>
			<polyline class="st4" points="758.8,826.6 759,826.5 759.7,826.1 760.3,825.9 760.9,825.9 761.5,825.9 762.1,826.1 762.5,826.3 
				765.6,823.7 			"/>
			<path class="st24" d="M771.3,818.8l8.9-7.6l6.7-4.7l9.4-4.7l8.7-3.3l18.7-4.7l15.4-4.7l3.3-0.7h3.3c1.4,0.3,2.7,0.8,4,1.3
				l16.2-0.5"/>
			<polyline class="st4" points="869.8,789.2 871.9,789.1 873.8,788.7 872.5,787.1 872.5,785.1 			"/>
			<polyline class="st4" points="871.8,780.4 871,776.5 874.5,775.7 875.3,779.7 			"/>
			<polyline class="st4" points="876.5,784.2 877.2,785.8 876.9,788 880.8,787.2 			"/>
			<path class="st4" d="M885.3,786.3l3.9-0.8l-0.6-3.3c-1.2-0.5-1.8-2-1.3-3.2c0.1-0.3,0.3-0.6,0.5-0.8l-0.7-3.9"/>
			<polyline class="st4" points="887.1,773.5 886.3,769.5 890.3,768.8 891,772.8 			"/>
			<path class="st4" d="M891.1,773.4l0.7,3.9c0.8,0.3,1.3,1,1.5,1.8c0.2,0.9-0.1,1.7-0.8,2.3l0.6,3.2l3.9-0.8"/>
			<polyline class="st25" points="904.5,781.2 912.7,778.4 915.7,777.6 			"/>
			<polyline class="st4" points="919.5,776.7 923.3,775.7 923.3,773 930.2,773 930.2,775.2 934.2,775.7 			"/>
			<polyline class="st26" points="941.6,778 958.8,779.7 967.5,781.1 978.8,785.1 990.2,790.4 1002.9,794.4 1015.7,799.5 
				1023,803.8 1030.3,809.2 1034.3,811.8 1041.5,814.1 1045.1,814.3 1051.9,817.4 1059.1,821.5 1113.4,847 1146,853 1153.3,854 
				1176.1,858.4 1215.5,876.8 1237.2,898.6 			"/>
			<polyline class="st4" points="1239.9,901.3 1242.7,904.2 1245.7,906.9 			"/>
			<polyline class="st4" points="1246.9,908 1249.8,910.7 1250.8,910.3 1252.9,910.3 1255.7,907.4 			"/>
			<polyline class="st4" points="1257.2,906 1260,903.1 1263.5,906.6 1260.6,909.5 			"/>
			<polyline class="st4" points="1259.5,910.6 1256.7,913.4 1256.7,915.8 1256.3,916.5 1259.2,919.2 			"/>
			<polyline class="st4" points="1260,919.9 1262.9,922.6 1263.1,922.5 1265.3,922.5 1266.4,921.4 			"/>
			<polyline class="st4" points="1269.4,918.5 1272.3,915.8 1275.7,919.1 1272.8,921.9 			"/>
			<polyline class="st4" points="1271.9,922.8 1269,925.5 1269,927.8 1268.6,928.4 1269.7,930.4 1266.8,933.2 			"/>
			<polyline class="st4" points="1259.8,940.1 1256.9,942.9 1259.7,945.7 			"/>
			<line class="st27" x1="1264.4" y1="950.4" x2="1271.4" y2="957.5"/>
			<polyline class="st4" points="1273.8,959.8 1276.6,962.6 1280.6,962.6 			"/>
			<polyline class="st25" points="1288.4,962.6 1337.2,962.5 1339.5,961.1 1346.4,958.4 			"/>
			<polyline class="st4" points="1350.1,957 1353.8,955.5 1354,956.9 1356.1,956.5 1356.5,958 1360.5,957.7 			"/>
			<polyline class="st4" points="1369.5,956.8 1373.5,956.5 1372.9,954.2 1376.8,953.3 			"/>
			<line class="st4" x1="1378.1" y1="953" x2="1382" y2="952.1"/>
			<path class="st2" d="M618.1,920.7c0.2,0,0.3,0,0.5-0.1l68.5-20.7c0.9-0.2,1.4-1.1,1.1-2s-1.1-1.4-2-1.1c0,0,0,0-0.1,0l-68.5,20.7
				c-0.9,0.3-1.3,1.2-1.1,2C616.7,920.2,617.3,920.7,618.1,920.7L618.1,920.7z"/>
			<polyline class="st2" points="1310.7,907.5 1312.1,907.3 1313.5,907.3 1315,907.3 1316,907.3 1316.9,907.3 1318.7,907.3 
				1320.6,907.5 1323.2,907.9 1327.2,909.1 1329,909.7 1331.1,910.6 1336.6,913 1371.9,928.5 1376.7,930.8 1380.6,933 1381.9,933.9 
				1383.9,935.3 1384.9,936.1 1387.2,938.2 1389.7,940.9 1387.8,942.7 1386.4,941.1 1385.6,940.3 1384.3,939 1382.5,937.6 
				1379.6,935.5 1375.7,933.2 1354.2,923.5 1344.1,919.2 1329.4,912.6 1325.7,911.4 1322.4,910.6 1320.3,910.3 1318.3,910.1 
				1317.3,910.1 1316.9,910.1 1316,910.1 1315,910.1 1314.4,910.1 1312.9,910.3 1311.1,910.3 1310.4,910.5 1308,910.1 1307.3,909.9 
				1306.5,909.7 1305.7,909.3 1304.7,908.7 1303.8,908.3 1302.2,907.7 1301.4,907.5 1301.2,907 1300.8,906.4 1300.8,906 1301,905.6 
				1301.2,905 1301.6,904.6 1302.4,904.6 1303.4,904.8 1304.7,905.4 1306.1,906 1306.9,906.4 1307.4,906.6 1308,907 1308.8,907.2 
				1309.8,907.3 1310.7,907.5 			"/>
			<polyline class="st2" points="1320.3,919.4 1319.7,919.6 1319.2,919.6 1318.4,919.4 1315.9,919.4 1314.7,919.4 1313.8,919.4 
				1310.5,919.8 1309.6,920 1308.8,920.2 1306.9,920.8 1305.1,921.3 1303.2,922.5 1302.1,923.1 1300.7,924 1299.6,924.8 1298.2,926 
				1296.1,927.9 1295.1,928.8 1294.6,929.6 1294,930.2 1293.6,930.6 1293,930.8 1292.4,930.9 1291.9,930.8 1291.5,930.2 
				1291.5,929.8 1291.9,929 1292.3,928.6 1293,927.9 1294,926.9 1294.9,926 1296.1,924.8 1296.9,924 1298,923.1 1299,922.3 
				1300.9,921.1 1302.1,920.6 1303.2,920 1304.2,919.6 1306.1,918.7 1307.1,918.5 1308,918.1 1309,917.9 1309.9,917.7 1310.9,917.5 
				1312,917.3 1313.4,917.3 1314.7,917.3 1316.5,917.3 1317.8,917.3 1319,917.3 1319.5,917.3 1320.1,917.5 1320.5,917.7 
				1320.7,918.1 1320.9,918.5 1320.9,918.8 1320.7,919.4 1320.3,919.4 			"/>
			<polyline class="st2" points="1281.9,929.7 1281.4,929.7 1280.6,929.5 1276.1,934.3 1275.9,934.3 1275.7,933.8 1280.4,929.1 
				1280.4,928.7 1280.4,928.5 1280.4,928.1 1281.7,926.8 1282.5,926 1283.5,925 1284.7,923.7 1286,922.7 1286.8,921.7 1287.6,920.7 
				1289.1,919.2 1290.3,918 1291.6,916.9 1292.4,916.3 1293.2,915.9 1293.6,915.9 1294,916.1 1294.4,916.5 1294.4,916.9 
				1294.2,917.6 1293.8,918 1293.4,918.6 1292.8,919 1291.6,920.2 1290.3,921.5 1288.3,923.5 1286.2,925.4 1284.7,926.8 
				1283.3,928.5 1282.3,929.3 1281.9,929.7 			"/>
		</g>
		<g id="_2019_KLN_Shoreline">
			<polyline class="st2" points="1383.8,779.5 1385.4,788.5 1432.9,836.7 1442.8,846.5 1443.6,846.7 1444.3,846.6 1445.4,845.5 
				1445.6,844.7 1445.3,843.6 1433.6,830.6 1450.6,814 1454.3,811.3 1463.4,820.5 			"/>
			<polygon class="st28" points="965.1,435.8 879.3,352.6 880,349.3 889.4,322.5 893.4,323.9 986.9,413.7 			"/>
			<path class="st28" d="M1378.1,765.8l-1.3-2l-0.7-2.7l0.6-0.7l46.9-24l3.3-2l-10-25.4l-1.3-1.3l-7.3,0.7l-4.7,0.7l-3.3,0.7
				l-7.3,3.9l-4.5,1.9l-8.4-0.6l-6.1-1.8l-8.8,1.1l-9.7,1.4h-10l-2,4h-5.4l0.1-5.3l-5.2-0.8l-8.1-5.3l-6.7-5.3l-4.7-4l-5-8.6
				l-6.3-12.1l-5.3-12l-7-6.5l-29.7-16.3l-4-4.7l-33.6-40.8l5.3-4.7l-5.4-0.9l-11-8.8l-1.4-2c0,0.1-0.1,0.1-0.1,0.2
				c-0.5,0.4-1.2,0.6-1.8,0.5l-6.4,6.4l-2.3-2.3l6.4-6.4c-0.2-0.6,0-1.3,0.4-1.8c0.3-0.3,0.6-0.4,1-0.5l-1.1-1.6l-13.9-20.2
				l-0.2-0.2l-6.1,4.6l-0.6-0.8l-20.4,14.6c-0.6,0.4-1.4,0.3-1.9-0.3c-0.4-0.6-0.3-1.4,0.3-1.9l20.3-14.5l-0.6-0.8l5.9-4.5l-3.7-7.2
				l-2.4,1.7l-1.3-1.8l2.6-1.8l-4.4-5.1l-0.7-1.3l-2-3.3l-2.5,2.3l-0.2-0.2l-6.9-9.5l-21.1-25.9l-20.7-24.1l-31.4-33.4l-12-11.4
				l-36.8,38.8l-53-50.9L970.4,441l32.8,31.8l4.8,2.9l51.9,48l3.6,2.7l6.4,3.4l4,0.7l7.3-7.3l30.6,30.2l1.5,4.5l-1.5,14.4l0.1,1.7
				l28.9,30v4.8l-22.7,23.9h-5l-24.4-24.9h-5.3l-14.3-14.3l-9.6-12.3l-243-235.3l-10.9,5.7l-17,37.2l1.8,2.1l7.3,3.4l-1.4,3
				l-7.7-3.6h-2.3L766,438.3v4.9l-2.3,5.4l-5.4,2.3l-2.7-0.6l-2.4,60.6l-0.3,1.6h6.7v6h-6.6l-0.1,3l10.8,9.5l18.7,15.6l2,2
				l-6.4,29.8l-9.7,44.4l2.7,9.4l2,7.4l-22.7,16l-5.8-0.4l-2.6-2.2l-3.6,8l-5.3,2l1.3,2.7l-8.7,4l-1.4-2.4l-5.3,2.3l-4,2.1l0.7,3.3
				l0.7,2l2.7,5.3l-3.3,2l-2.7-5.3l-0.7-2l-2-3.3l-72.9,32.8l-6-13.4l-11.9-0.1l-0.1,30.2l-11.3,7.1l-4.8-6.4l8.7-5.3v-19.4
				l-7.6,3.1l-4.5-1.5l-16.7-0.7l-55.6,49.5l-5.1,6.5l-1.3,2l-5.5,15.6l-2.3,3.2l-0.3,1.3l-3.3,3.3l-14.7,18l-24.7,2l-6.7-5.3
				l-28.3,2.3l-0.5,1l-9.4,0.7l-12,1.3l-2.6-8.1l-4.1-0.5H404l-0.1-0.1l-5.2,7.3c-0.2,0.4-0.7,0.6-1.1,0.6c-0.3,0-0.5-0.1-0.8-0.2
				c-0.6-0.4-0.7-1.3-0.3-1.9c0,0,0,0,0,0l5.4-7.7l-5.4-6l-0.3,0.2l-6,7.3c-0.2,0.3-0.6,0.5-1,0.5c-0.3,0-0.6-0.1-0.9-0.3
				c-0.6-0.5-0.7-1.3-0.2-1.9c0,0,0,0,0,0l5.8-7.1l1.3-2.8l2.7-2.7l-2-9.4l-55.6,11.3l-2-11.9l48.3-10.2l0.6-2.6l0.7-2.7l1.3-0.7
				h1.7l1.3,0.8l-2.4-9.5l-2.7-13.4l-25,5.1H362c-0.8-0.1-1.5-0.8-1.4-1.6c0-0.6,0.5-1.2,1.1-1.4l20.2-4.1V725l4-1.3l-2-8
				c-4.1,0.8-31.1,5.6-31.1,5.6c-0.1,0-0.2,0-0.3,0c-0.8-0.1-1.5-0.8-1.4-1.6c0-0.6,0.5-1.2,1.1-1.4c0,0,26.9-5.8,31-6.6l-2-13.4
				l-38.2,8.4c-0.2,0-0.4,0.1-0.5,0.1c-1.4,0-2.6-1.2-2.6-2.6c0-1.2,0.9-2.2,2-2.5l31.3-6.1v-3.3l2.7-0.7l-3-6.7l-2.2-8.6l-0.8-6
				l-5.9,0.6l-7.4,5.2l-1.2-1.6l5.7-4l-0.8-0.2l-4,1.3l-1.3-0.7l-13.4,1.3l-12.6,1.6l-0.1,1l-28.7,4l-7.4,0.7l-2-0.7l-10.5,1.2v6.2
				h1.7v3.3h-6.7v-3.3h1.7v-5.9l-7.5,1.8l-16,6l-10.5,10l-3,7.6l-1.3,1.2l-2,0.7l-2.9-0.3h-38l-6-4.6l-3.8-3.8l-3.1-5.9l-1.2-2.7
				v-20.5l-0.2-2.7l0.2-2.3l-0.2-5.2l0.2-4.1l0.2-3.3l0.8-3.5l1.1-3.3l2-2.7l0.7-0.7l1.3-1.3l2-1.3l0.2-0.5V616
				c0-3.2-1.8-4.5-3.3-5.6l-0.2-0.2c-1.7-1.2-6-2.2-7.6-2.5c-0.6-0.1-1.1-0.7-0.9-1.4s0.7-1.1,1.4-1l0,0c0.2,0,6,1.1,8.5,2.9
				l0.2,0.1c1.6,1.1,4.3,3,4.3,7.5v12.4l32.7-0.2l41.6-59.4l-0.2-139.1l-8.4-20l-65.5-0.4l0.6,16c0,0.7-0.6,1.4-1.3,1.4l0,0
				c-0.7,0-1.3-0.6-1.3-1.3l-0.8-16.7c0-0.7,0.6-1.4,1.3-1.4l0,0l-0.5-49.5v-18.4l-12-20.5l-6.7-5.5l-15.9,19.1h-0.4l-7.7-6.4
				l-0.2-0.6l16.1-19.1l-10.8-8.9l-5.6,7l-1.2-1l5.6-7l-6.8-5.6l-5.6,6.8l-1.2-1l5.6-6.8l-7.9-6.8l-2.1,2.5l-1-0.8l1.9-2.5
				l-13.4-11.2l-6.6,7.9l-2.3-1.9l6.6-7.9l-12-10.4l-6.7,8l-2.7-2l6.7-8l-7.4-6l-4-3.3l-8.7-5.4l-4.5-3.2l-11-7l0,0l-14.9-8.3
				l-13.9-9.7l-6.7-3.3l-3.6,5.7l4.9,2.8l-0.4,0.6l-4.9-2.9l-1.1,1.8l5,3.3l-0.4,0.6l-5-3.3l-1.6,2.5l4.3,2.9l-0.4,0.6l-4.3-2.9
				l-5.6,8.9l5.3,3.5l-0.4,0.6l-5.3-3.5l-1.1,1.7l4.8,3.2l-0.4,0.6l-4.8-3.2l-1,1.5v0.1l2.4,1.6l-0.4,0.6l-2.3-1.5l-1.3,2.1l2.1,1.4
				l-0.4,0.6l-2.1-1.4l-5.4,8.8l9.6,5.9l-0.6,1.2l-11.5-7l1.9-2.8l-25.3-16.1l-11.8,19.3l11.3,6.1l7,4l0.2-0.2h1l25.7,15.6l1.9,1.2
				c0.6,0.4,0.8,1.2,0.4,1.9c-0.2,0.4-0.7,0.6-1.1,0.6c-0.3,0-0.5-0.1-0.7-0.2l-2.9-1.8l-1.3,0.8l4.5,3.2l-0.5,0.8l-4.8-3.5
				l-2.4,1.5l4.1,4.2l-0.8,0.9l-4.4-4.4l-4.7,3l6.8,6.8l-0.8,0.8l-6.8-7l-4.3,3.4l6.7,6.7l-1,1l-6.8-6.8l-0.4,0.3l-5.1,5l3.6,3.6
				L-4,297l-3.6-3.6l-4.7,4.6l3.7,3.7l-0.7,0.7l-3.7-3.7l-2.7,2.7l2.9,2.9l-0.7,0.7l-2.9-2.9l-0.8,0.8l4.4,5.4l4.3,3.4v0.2l0.4,0.4
				l7.1-7.1h0.2l0.4,0.4v0.2l-6.9,7.1l4.2,4.9l4.4-4.4l3,3l-4.4,4.4l1,1.1l3.7-3.7V318h0.2v0.2l0.4,0.4h0.2v0.2H5l-3.7,3.7l3.2,3.1
				l3.4-3.5l0.8,0.8l-3.3,3.5l6,5.9l9.3-9.3l-9.4-9.5l1-1.2l6.9,7l0.8-0.8l2.5,2.7l1.2-0.7l-2.7-2.7l0.7-0.7l2.7,2.7l6.7-7.4l-2-2.1
				l0.2-0.2l-6.6-6.6l1-1l6.6,6.6l6.9-6.9l-1.5-1.2l2.7-2.7l1.3,1.3l1.9-1.9l-3.8-2.7l0.9-1.2l3.9,2.9l2.5-2.4l-0.7-0.7v-0.1
				l-10.7-6.8c-0.7-0.3-1.1-1-0.8-1.7c0.3-0.7,1-1.1,1.7-0.8c0.2,0.1,0.3,0.2,0.4,0.3l7,4.5h3l1.3-0.7l1.3-0.7l1.3,0.7l0.7,1.3
				l2,1.3l2.7,2.7l2.7,2l5.4,4.1h0.4l0.4-0.2h0.6l0.2,0.2h0.4l0.4,0.2H65l0.4,0.4l0.2,0.2l0.2,0.2l0.2,0.2l0.2,0.4v0.2l0.2,0.4v0.4
				l0.3,0.5l2.4,0.6l2.7,3.9l1.9,5.2l1.7,3.1l3.5,5.3l1.3,6.5v5.8l-3.9,3.2l-4.6,0.8l-7.4,2l-6,3.3l-7.4,6l-5.4,5.4l-3,3.8l-1.3,3.2
				l-0.4,3l-2,2l-4.7,4.7l-1.9,4.5v4.4l0.6,4l1.9,3.2l2.6,1.9l-1,3l-4.1,1.5l-2.9,2.6l-1.7,3.9l-1.6,2.3l2.7,2.7l-6,6.5l-2.7-2.5
				l-8.6,7.2l-1.3,5.2l1.3,3.2l-4.5,5.8l-1.3,4.5l-1.3,5.2l-2,1.9L0,440.5l-3.2-1.9l-3.9-3.2l-3.9-5.8l-1.3-5.2l-3.9-3.2l-5.2-1.9
				l-4.5-0.6l-2.6-2.6l-1.3-7.1v-4.7l0.2-2.7l-1-2.3l-5.4-5h-11.3l-2.5-0.9l-3.8-1.5l-3-2.6l-2.3,0.3l-2.3-0.8l-6.1,0.8v2.3
				l5.9,38.5l1.3,8v0.6l-0.2,0.4l-0.4,0.4l-42.8,8.1l-1.2,0.2l-0.4-0.2l-0.4-0.2l-0.2-0.8l-4,0.8l-0.2-1.5l45.1-8.5l-1.2-5.9
				l-11.6-52.3l-1.3-2.6l-55.2,9.8v0.1l11.8,62.5c0.3,1.3-0.3,2.7-1.5,3.4l1.4,7.2c0.2,1.3-0.6,2.5-1.9,2.7c-0.1,0-0.3,0-0.4,0
				c-1.1,0-2.1-0.8-2.3-1.9l-10.6-56l-30.6-15.1h-3l-3.8,2.3l-15.8,3.5l-2.9,1.6l-2,0.7h-1.3l-2.2-1.2L-316,332.5l0.7-2.7v-4l-2-7.4
				l5.4-8l6-6l6-7.4l-0.7-3.3l194.6-61.5l-14.7-44.8l-5.3-2.7l-112.3,35.4l-36.8-117l80.9-25.4l-13.3-42.7l-80.9,25.4l-54.2-171.9
				l-66.9,20.7l-1.3-4l2-0.7l-0.7-2l-4.7-15.4l-4-8l-6.7-20.1l-0.7-2.7l1.3-1.3l-4-12.7l-3.3-2l-2-5.4l-4.8-8.8l0.8-3.9l4.5-5.3
				l6.2-2.1h2l1.3,3.4l-0.7,2.7l2.7,4.7l1.8,6.2l1.6,1.1l2-1.3l2.7,2.7l0.7,2l-1.3,1.3l1.2,1.1l0.2,0.1l8.6-1.9l7.2-48.1"/>
			<path class="st28" d="M202.8,587.3L202.8,587.3c-5-0.1-9.4-3.2-11.2-7.7c-0.9-2.2-1.5-4.6-1.5-7V456.9c0-6.1-10.7-7.4-10.8-7.4
				c-0.7-0.1-1.3-0.7-1.2-1.5c0.1-0.7,0.7-1.3,1.5-1.2c0.5,0.1,13.2,1.6,13.2,10v115.7c0,0.5,0.1,11.5,10.1,12
				c0.7,0.1,1.3,0.7,1.2,1.5C203.9,586.7,203.4,587.2,202.8,587.3L202.8,587.3z"/>
			
				<rect x="356.5" y="680.5" transform="matrix(0.9913 -0.1314 0.1314 0.9913 -86.8908 52.9107)" class="st28" width="2" height="8.8"/>
			<path class="st28" d="M825.5,498.4c-0.3,0-0.7-0.2-0.8-0.5l-28.7-44.1c-0.3-0.5-0.2-1.1,0.3-1.4c0,0,0,0,0,0
				c0.5-0.3,1.1-0.2,1.4,0.3c0,0,0,0,0,0l28.7,44.1c0.3,0.5,0.2,1.1-0.3,1.4C825.9,498.3,825.7,498.4,825.5,498.4z"/>
			<path class="st28" d="M825.2,526.1c-0.4,0-0.7-0.2-0.9-0.5c-0.3-0.5-0.1-1.1,0.4-1.4c0,0,0,0,0,0l70.2-36.8
				c0.5-0.3,1.1-0.1,1.4,0.4c0.3,0.5,0.1,1.1-0.4,1.4l0,0L825.7,526C825.5,526.1,825.3,526.1,825.2,526.1z"/>
			<path class="st28" d="M1158.5,601.9c-5.6,0-12.7-2-13.8-2.3c-0.7-0.2-1.1-0.9-0.9-1.7c0.2-0.7,0.9-1.1,1.7-0.9
				c5.2,1.5,14.4,3.2,16.9,1.5c3.9-2.6,15.2-11.2,15.3-11.3c0.6-0.5,1.4-0.4,1.9,0.1c0.5,0.6,0.4,1.4-0.1,1.9c0,0-0.1,0.1-0.1,0.1
				c-0.5,0.4-11.4,8.8-15.4,11.4C1162.2,601.6,1160.4,602,1158.5,601.9z"/>
			<path class="st2" d="M1723.4,671.7h1.5l5.3-2.3c1.5,0,12.2,0.1,12.2,0.1l6.7-6h36.8l0.7-6l2-2l3.3-1.3l2,0.7l2.7,1.3l1.3,3.3v3.3
				h8v2h6.7v-2h20.7l5.3-1.8l5.3-3.6l28-53.9l13.3,6.9l-35.2,67.1l-1.3,8.7l3.3,29.4l4,12.7l7.3,8.7l4.7,4l6,4l7.3,3.3l6,1.3l4.7,4
				l2,4v58.8l29.3,0.6"/>
			<polyline class="st4" points="144.3,877.6 140.5,876.5 142.5,869.5 142.9,869.1 146.8,870.2 			"/>
			<polyline class="st4" points="148.4,870.6 151.6,871.5 152,872 150.1,879.1 146.2,878.1 			"/>
			<polygon class="st29" points="1886.1,608.6 1872.9,601.8 1873.5,600.7 1873.5,592 1858.1,551.8 1859.4,548.5 1859.4,543.2 
				1861.5,538.5 1862.1,537.1 1864.8,537.1 1867.5,541.2 1871.5,546.5 1874.2,549.8 1876.2,550.5 1878.8,550.5 1878.8,557.2 
				1881.5,560.5 1884.2,564.6 1885.5,566.6 1885.5,570.6 1881.5,582.6 1883.5,588.6 1886.9,594 1890.9,596 			"/>
		</g>
	</g>
</g>
<g class="st30">
	<path class="st31" d="M616.5,919.1c0,0.9,0.7,1.6,1.6,1.6c0.2,0,0.3,0,0.5-0.1l68.5-20.7c0,0,0,0,0.1,0c0.9-0.3,1.3-1.2,1-2
		c-0.3-0.9-1.2-1.3-2-1l-68.5,20.7C616.9,917.7,616.5,918.4,616.5,919.1z"/>
	<polygon class="st31" points="1275.9,934.4 1276.1,934.4 1280.6,929.7 1281.4,929.9 1281.9,929.9 1282.3,929.5 1283.3,928.7 
		1284.7,927 1286.2,925.6 1288.2,923.7 1290.3,921.7 1291.5,920.4 1292.7,919.2 1293.4,918.8 1293.8,918.1 1294.2,917.7 
		1294.4,917.1 1294.4,916.7 1294,916.3 1293.6,916.1 1293.2,916.1 1292.3,916.5 1291.5,917.1 1290.3,918.1 1289,919.4 1287.6,920.8 
		1286.8,921.8 1285.9,922.8 1284.7,923.8 1283.5,925 1282.5,926 1281.7,926.9 1280.4,928.1 1280.4,929.1 1275.7,934 	"/>
	<polygon class="st31" points="1293.2,927.9 1292.5,928.6 1292.1,929 1291.7,929.8 1291.7,930.2 1292.1,930.8 1292.7,930.9 
		1293.2,930.8 1293.8,930.6 1294.2,930.2 1294.8,929.6 1295.3,928.8 1296.3,927.8 1298.5,925.9 1299.8,924.8 1301,924 1302.3,923 
		1303.5,922.4 1305.4,921.3 1307.1,920.7 1309,920.1 1309.8,919.9 1310.8,919.7 1314.1,919.3 1318.7,919.3 1319.4,919.5 1320,919.5 
		1320.6,919.3 1321,919.3 1321.2,918.8 1321.2,918.4 1321,918 1320.8,917.6 1320.4,917.4 1319.8,917.2 1312.3,917.2 1311.2,917.4 
		1310.2,917.6 1309.2,917.8 1308.2,918 1307.2,918.4 1306.2,918.6 1304.3,919.6 1303.3,919.9 1302.1,920.5 1300.9,921.1 1299,922.3 
		1298,923 1296.9,924 1296.1,924.8 1295.2,925.9 1294.2,926.9 	"/>
	<polygon class="st31" points="1384.9,936.1 1383.9,935.4 1382,934 1380.6,933 1376.7,930.9 1371.9,928.5 1336.6,913 1331.1,910.7 
		1329,909.7 1327.3,909.1 1323.2,908 1320.7,907.6 1318.7,907.4 1312.1,907.4 1310.8,907.6 1309.8,907.4 1308.8,907.2 1308,907 
		1307.4,906.6 1306.8,906.4 1306.1,906 1304.7,905.4 1303.3,904.8 1302.3,904.6 1301.6,904.6 1301.2,905 1301,905.6 1300.8,906 
		1300.8,906.4 1301.2,907 1301.4,907.5 1302.1,907.7 1303.7,908.3 1304.7,908.7 1305.7,909.3 1306.5,909.7 1307.3,909.9 1308,910.1 
		1310.4,910.4 1311.1,910.2 1312.9,910.2 1314.4,910.1 1318.3,910.1 1320.3,910.2 1322.4,910.6 1325.7,911.4 1329.4,912.6 
		1344.1,919.2 1354.2,923.4 1375.7,933.1 1379.6,935.5 1382.5,937.6 1384.3,939 1385.6,940.3 1386.4,941.1 1387.8,942.7 1389.8,941 
		1387.2,938.3 	"/>
	<path class="st31" d="M1383,960.7l-1.1-3.3l1.1-2.2v-1.1l-1-2l-9.1,2l0.6,2.3l-17,1.5l-0.4-1.5l-2.1,0.4l-0.2-1.3l-14.3,5.6
		l-2.3,1.3l0,0l-60.6,0.1l-19.7-19.7l0,0l12.8-12.5l-1-2.1l0.3-0.5v-2.3l6.8-6.4l-3.5-3.3l-7,6.8h-2.2l-0.2,0.1l-6.7-6.1l0.4-0.7
		v-2.4l6.8-6.8l-3.5-3.5l-7.1,7.1h-2.2l-0.9,0.4l-7.1-6.5l0,0l0,0l-27.2-27.4l-39.4-18.4l-22.7-4.4v0l-7.4-1l-32.6-6l-54.3-25.5
		l-7.2-4.2l-6.8-3l-3.6-0.2l-7.1-2.3l-4-2.7l-7.4-5.3l-7.2-4.3l-12.8-5.1l-12.7-4l-11.5-5.3l-11.3-4l-8.7-1.3l-19.4-2l-4.7-2
		l-4.5-0.5V773h-6.9v2.8l-10.7,2.7l-15.4,5.3l-4.1,0.9l-0.6-3.2c0.6-0.6,0.9-1.5,0.8-2.3c-0.2-0.8-0.8-1.5-1.5-1.8l-1.5-8.5
		l-3.9,0.7l1.5,8.5c-0.2,0.2-0.4,0.5-0.5,0.8c-0.5,1.2,0,2.7,1.3,3.2l0.6,3.3l-12.3,2.6l0.3-2.3l-1.3-2.7l-1.3-7.4l-3.6,0.8l1.5,7.4
		v3.2l1.2,1.6l-1.9,0.4l-22.1,0.7c-1.3-0.5-2.6-1-4-1.3h-3.3l-3.3,0.7l-15.4,4.7l-18.7,4.7l-8.7,3.3l-9.4,4.7l-6.7,4.7l-17.8,15.1
		l-0.5-0.2l-0.6-0.2h-1.2l-0.6,0.2l-0.8,0.4l-2.1,1.9L738,846l-1.9,1.7l-12,12.6L700.4,888l-11.6-7.8c-0.1,0-0.1-0.1-0.2-0.1
		c-0.8-0.5-1.8-0.2-2.3,0.6c-0.5,0.8-0.2,1.8,0.6,2.3l18.7,12.7v2.8l1,4.8l1,6.7l1,2.9l2.9,1.9l0.1,4.7l-0.7,4l-2.7,5.3l-2.7,3.3
		l-2,2l-9.3,3.5l-22,4.8l-5.7,1l-7.7,1.9l-6.7,3.8l-5.7,4.8l-2.8,4.7L625.1,972l-4.5,0.7l-0.4-3.6V963l3-15.9l3-12.9l-1.5-3
		l-3.8-0.8l-3.2,1.6h-3.4l-4.6-10.7c-0.4-0.8-1.3-1.2-2.1-0.9s-1.2,1.3-0.9,2.1l4,9.3h-1.2l-7.6,1.5l-2.6,4.4L595,937
		c-0.9-0.2-1.7,0.4-1.9,1.2s0.4,1.7,1.2,1.9l3.3,0.7v20.8l-21.5,9.7l-3-11.4v-1.5l14.4-12.9l0.8-3l-1.5-1.5l-3.8,0.8l-15.6,13.3
		l0.4-0.4l-20.3,3.1l-7,1l-4.8,0.8l-3.1,0.4l-6.4,1l-5.2,0.6l-2.3,0.4l-0.8-1l-1.2-10.3l-0.2-0.2v-0.2h-0.4l-3.1,0.2l-0.2,0.2h-0.2
		v0.2h-0.2v0.2l1.2,10.1v0.4l-0.4,0.4l-0.2,0.4v0.2l-16,1.7l-1.4,0.2h-3.9l-0.6-0.2l-0.6-0.4l-0.6-0.4l-0.8-0.4l-0.4-0.6l-0.4-0.4
		l-0.4-0.6l-0.4-0.6l-0.4-0.8l-0.2-0.6l-0.6-8.7v-1.4l1,0.2v0.4l0.8,0.4l0.2-1.2l-0.8-0.2v0.2h-0.4l0.6-2.3l0.4,0.2v0.2l0.8,0.2
		l0.2-1l-0.8-0.2l-0.2,0.4l-0.2-0.2l1.5-5.4v-0.8l-0.2-0.2l-0.2-0.2l1.5-0.4l-2.9-11.2l-0.2-0.4v-0.2l-0.2-0.4l-0.2-0.2l-0.4-0.4
		l-0.4-0.2h-0.4l-0.4-0.2h-0.4l-0.4,0.2l-0.4,0.2l-0.4,0.2l-0.2,0.4l-0.4,0.4l-0.2,0.4v1l1.5,5.4h-9.8l-0.6-0.4L474,934l-0.8-0.4
		l-0.8-0.4l-1.2-0.4l-1.4-0.4l-1.9-0.4l-1.3-0.2h-3.1l-1,0.2l-1.2,0.2l-1,0.2l-1.2,0.4l-1.2,0.6l-1.2,0.6l-1.4,0.8l-1.3,0.8
		l-0.2,0.2l-2.9,2.9l-0.2,0.2l-0.2,0.2v1l0.2,0.4l0.2,0.2l0.2,0.2l0.2,0.2h0.2l-2.6,8.4l-1.4,1.2l-1.4,1.2l-1.2,1.4l-0.6,0.6l-0.6,1
		l-0.4,1l-0.8,1.4l-0.2,0.8l-0.8,1.2l-0.2,0.6l-1,1.5l-0.8,1.2l-1.5,1.9l-1.2,1.4l-1.5,1l-2.1,1l-1.7,0.8l-2.5,0.8l-2.9,0.6h-2.1
		l-2.3-0.2l-3.9-0.6l-7-1.7l-7.5-2.1H403l-6-0.4h-3.7l-2.3-0.8l-1.5-0.8l-1.5-0.8l-1.5-0.8l-2.3-1.5l-1.7-1l-1.7-0.2l-1.4-0.2
		l-2.9-0.2l-1.9-0.2l-1.4-0.2l-3.5-0.4l-4.8-1l-5.8-1.2l-1.7,1l-4.6-1.9l-2.3-0.8l-2.1-0.8l-4.6-1.9l-1.7-0.6l-1.5-0.8l-4.1-1.5
		l-20.1-8.1l-0.4-1.7h-0.2l-3.1-1.9l-2.9-1.9l-2.7-7.7l9.3-3.1l0.4-0.2l0.2-0.2l0.2-0.2l0.2-0.2v-0.2l0.2-0.2v-0.4l-0.2-0.2v-0.2
		l-0.2-0.2v-0.2l-0.2-0.2h-0.2l-0.2-0.2h-0.8l-9.5,3.3l-3.3-9.1l9.5-3.3h0.4l0.2-0.2l0.2-0.4l0.2-0.4v-0.6l-0.2-0.2l-0.2-0.4
		l-0.2-0.2h-0.2l-0.4-0.2h-0.6l-9.5,3.3l-2.3-6l4.1-9.7l-3.9-1.5l-4.1,9.7l-1.4,0.8l-6.6-2.9l-1.4-0.6l0.2-0.2l-0.4-1.2l3.9-9.4
		v-0.4l-0.2-0.2l-3.1-1.3h-0.2l-0.2,0.2l-0.2,0.2l-3.9,9.5l-1,0.6l-0.2,0.2L273,897l0.2-0.2l-0.6-1l3.7-9.9v-0.4h-0.2l-0.2-0.2
		l-2.9-1h-0.5v0.2l-3.7,9.9l-0.8,0.4l-0.2,0.4l-8.5-2.9l0.2-0.4l-0.6-0.8l3.1-10.1v-0.4l-0.2-0.2l-2.9-0.8l-0.4-0.2l-0.2,0.2h-0.2
		v0.2l-3.1,10.1l-1,0.4l-8.5-2.5l-0.6-1l2.7-10v-0.2h-0.2v-0.2h-0.2l-3.1-1H244v0.2h-0.2l-0.2,0.2l-2.5,10.1l-1,0.6l-8.7-2.1
		l-0.6-0.6l2.9-10.6l-0.4-0.4l-3.3-1l-0.6,0.4l-2.7,10.3L226,883l-8.4-2.1l-0.6-1h-0.2l2.9-10.6l-3.9-1l-2.9,10.6l-1,0.4l-3.1-0.8
		l-1-1.7l-4.8-1.4l2.7-9.8l-1.5-0.4l-21.3,22l-3.1,3.1l-1.1,0.9l-2.4-4.1l-5.3-4.6h-7.6l-11.5-3.1l1.8-7l0.6-0.4l4.1,1.2l0.2-0.6
		h0.2l0.4-1.2l0.4,0.2l-0.2,1.2l2.9,0.8l1.9-1.2l0.6-1.9l-1.2-2.1l-2.9-0.8l-0.4,1.4l-0.6-0.2l0.4-1.2l-0.2-0.2l0.2-0.6l-4.3-1.2
		l-0.2-0.4l1.9-7.3l0.4-0.2l3.3,1l0.4-1.5l0.6,0.2l-0.4,1.4l1,0.4l0.4-1.3h0.8l-0.4,1.5l2.1,0.6l2.1-1.2l0.6-1.9l-0.4-0.6l-10.3-2.9
		l-21.7-5.8l-0.6,0.4L135,850l1.1,2l13.9,3.7l0.2-1.3h0.6l-0.4,1.5l1.2,0.2l0.4-1.4l0.6,0.2l-0.4,1.3l3.3,1l0.2,0.4l-1.9,7.2
		l-0.4,0.4l-15.7-4.3l-0.2,0.6l-0.4,1.2h-0.6l0.2-1.3l-2.7-0.8h-0.1l-2.1,1.2l-0.4,1.9l1.3,2.1l2.7,0.8l0.4-1.3l0.6,0.2l-0.2,1.3
		v0.6l4.1,1l0.4,0.6l-1.9,7.1l1.8,0.5l2-7l0.4-0.4l8.7,2.3l0.4,0.6l-1.9,7.1l-23.9-6.3l-9.9-12.1l-3-3.8l-69.5-17.6L0,837.6v36.9
		v0.4v3.7l1,2.4v2.7l2.7,2.7l4.1,1.4h4.1h1.3h4.1H20h4.1l4.1,1.4h2.7l5.4,1.3l2-1l2.1-1.1h2.2l4.3,1.1l1.1,1.1l3.2,3.2l2.1,2.2
		l3.2,2.1l4.3,1.1H64l4.3-2.1l4.3-3.2l4.3-2.1l4,0.5l4.1,4.1l4.1,2.7l4.1,4.1h2.7h2.7h2.7l1.4-2.7l2.7-1.4h2.7l1.4,2.7l4.1,2.7
		l4.1,2.7l1.3,2.7v4.1l4.1,1.4l4.1,1.3h2.7l2.7-1.3l2.7-1.4h1.4l2.7-1.4l1.4-2.7h4.1l4.1,1.4h2.7h2.7h2.7l5.4,2.7l2.7,1.4h4.1h2.7
		l4.1,1.3l2.7,1.4l1.4,1.3l1.4,1.3l2.7,2.7l4.1,2.7l1.4,4.1v5.4l1.3,2.7l4.1,4.1l1.4,2.7l2.7,2.7l2.7,2.7l1.4,2.7l1.4,1.4l2.7,2.7
		l2.7,4.1l1.4,4.1l2.7,2.7l2.7,4.1l4.1,4.1l2.7,2.7l1.4,2.7l1.4,2.7l1.3,2.7l4.1,2.7l2.7,5.4l2.7,2.7h4.1l4.1,1.3h4.1l2.7,1.4
		l2.7-1.4h2.7h4.1h2.7l2.7-1.3l6.8-1.4l6.8,1.4l6.8,1.3l8.1,2.7l6.8,2.7l6.8,2.7l4.1,2.7l5.4,4.1l5.4,4.1l5.4,4.1l1.4,2.7v3.5v1.9
		l1.3,1.3h1.2l1.5-1.4l1.3-1.3l4.1-1.4h5.4h4.1l2.7-1.3l2.7-1.3l2.7-2.7l4.1-2.7h1.4l1.4,1.4l1.3,1.4l2.7,2.7l1.4,1.3l2.7,2.7v1.7
		l-4.1,3.7l-2.7,2.7l-2.7,4.1l1.4,2.7h2.4h2.9l5.6,1.3l4.1,2.7l5.4,2.7l4.1,2.7l2.7,1.3l2.7,2.7l1.3,1.3l5.4,4.1l4.1,2.7l4.1,2.7
		l4.1,2.7l2.7,2.7l2.7,1.4h4.1h2.7l4.1-1.4h2.7l4.1,1.4l4.1,2.7h5.4h4.9h2.7h5.4l2.9,2.4h1.6l4.1-1l2.7-1.3l4.1-1.4l2.7-1.3l4.1-1.4
		l5.4-4.1l4.1-1.3l5.4-1.4h4.1l4.1-2.7l2.7-1.4l2.7-1.3l9.5,2.7l9.5-6.8l4.1-5.4v-5.4h8.1l13.5-4.1l6.8-5.4l5.4-1.4l8.1,12.2
		l-1.3,8.1l2.7,12.2l2.7,2.7h8.1l3.3-1.5l0,0l2.1-0.9v0l0,0l5.4-5.7l4.1-5.4l4.1-1.4l9.5-4.1l6.8-6.8l-4.1-10.8v-5.4l1.4-4.1v-2.7
		l-1.4-4.1v-2.7l0.5-2.4l0,0l0,0l0.9-4.3l1.3-4.1l2.7-4.1l1.3-4.1l1.4-4.1v-2.7l-4-4.1v-1.4l1.3-1.4l1.3-1.3l1.4-1.4l0,0l2.7-1.3
		l4.1-1.4l0,0l4.1,1.4l4.1,4.1l1.3,6.8v2.7l-1.3,4.1l-2.7,2.7l-1.3,2.7v2.7l4.1,1.3l4.1,2.7l5.4,5.4l5.4,4.1l6.8,2.7l8.1,2.7
		l8.1,1.4h3.7v0l0.1,0l-0.1,0.1h7.1l4.1,5.4l5.4,4.1l4.1,1.4l6.8-1.4l6.8-2.7l6.8-1.4l9.5-2.7h20.3l5.4-4.1l1.3-5.4l-1.3-6.8
		l-2.7-5.4l-2.7-6.8v-9.5l-1.4-8.1l-0.9-5.6l0,0l0,0l-0.4-2.5v-10.8l-1.3-10.8v-10.8l-1.4-10.8l-1.4-12.2l-1.3-6.8v-8.1l1.3-5.4
		l4.1-4.1l9.5-12.2l8.2-9.4l16.2-19l6.8-8.1l5.4-4.1l5.4-2.7h5.4l6.8,1.3l5.4,1.3l6.8,1.3l5.4,1.4h14.9l5.4-1.4l6.8-1.3l9.5-2.7
		l9.5-2.8l9.5-1.3l10.8-1.3h12.2l3.8-1l6.4-3.2l7.5-3.2l8.6-3.2l6.4-2.2l5.4-3l0-0.1l2.1-1.2l4.3-2.1l2.2-0.5h2.6l16.1,2.2l13.9,4.3
		l10.7,4.3l8.6,6.4l7.5,10.6l1.1,2.8l0.1,0.1l-0.1,0l4.3,11.2l5.4,21.5l0.1,0.1h-0.1l2.1,6.4l2.2,5.4l4.3,10.7l6.5,13.4l5.3,8l6.1,7
		l2.4,0.5h3.2l4.3-3.2l3.2-3.2l1.1-5.4l1.1-3.2l2.2-2.2l3.2-1.1h3.2l3.2,2.2l1.5,3.2l1.7,3.2l2.2,3.2l4.3,6.4l3.2,6.4l1.1,1.1h1.3
		l1-1.1l3.2-3.2l4.3-6.4l3.2-3.2l3.2-2.2l5.4-3.2l3-1.1h3.4l4.3,1.1l4.3,2.2l5.4,3.2l5.4,3.2l10.6,4.3l12.4,2.2h5.8l4.3,1.1l3.2,2.1
		l6.4,6.4l7.5,7.5l3.2,5.4l2.1,2.2l3.2,5.4l2.1,2.2l4.3,5.4l5.4,7.5l0.7,1.2l0,0l3.6,6.3l5.4,5.4l3.2,2.2l5.4,2.1l8.9,5l0.7,0.4
		l6.4,2.2l9.6,2.1l0,0l2.5,2.7l1.9,4.8l3.1,4.6l0,0l0,0l18,36l3.3,2.2l6.5,3.3l9.8,4.3l5.4,2.2l3.3,3.3l7.6,3.3h7.6l5.4-5.4l4.3-7.6
		l2.2-5.4l-1.1-3.3l-4.3-4.3l-3.3-14.1l3.3-6.5l7.6-19.5l0-4.3l-0.8-5.8h-0.1l0,0l-0.3-1.8l-2.1-10.7l0.1-0.1l1.1-3.3l3.3-4.3l2-1.5
		l0,0l2-1.5l0,0l0.3-0.2l6.5-1.1l4.3,1.1l3.3,1.1l7.6,2.2h6.5l7.6-3.3l4.3-4.3l1.1-3.2L1383,960.7z"/>
	<path class="st31" d="M1916.9,380.3l-14.6-9l-3.2-10.3l-3.9-12.3l-4.5-9.2l-5.5,2.6l-1,8.5l4.5,14.2l1.9,13.6l-5.8,11.6l-11,7.8
		l-9.4,2.4l-8.6-3.2l-5.4-2.2l-6.5-2.2l-3.2-1.1v-3l-4.3-1.3l-2.2-2.1l-1.1-3.2l-2.2-3.2l-2.2-3.2l-2.2-3.2l-2.2-2.2v-2.3l1.1-2
		v-17.2l-1.1-2.1l-1.1-2.2v-2.3l0.5-1.5v-2.1l-1.1-1.1l-1.1-1.1v-1.7l-1.1-1.5l-1.1-2.2l-1.1-1.1l-2.2-2.2l-15.1-14l-1.1-1.1
		l-2.1-2.7l-1.2-2.1l-1-1.7l-3.2-6.5l-1.1-3.2l-1.1-4.3v-2.9l-1.1-2.5l-2.2-2.2v-1.1l-1.1-5.4v-3.2l-1.1-2.2l-1.1-3.2l-1.1-2.1
		l-1.1-2.2l-1.1-1.1l-1.1-1.1l-1.1-1.1l-1.6-0.5h-5.4l-3.2-1.1l-3.2-1.1l-2.2-1.1l-1.1-1.1l-1.1-1.1l-1.1-1.1l-2.2-3.2l-1.1-1.1
		l-2.2-1.1l-2.2-1.1l-3.2-1.1h-13l-6.3-3.2l-1.1-1.1l-2.2-1.1h-4.3l-2.2,1.1l-2.2,1.1h-5.3l-2.2,2.1l-2.2,1.1h-3.2l-3.2,1.1
		l-2.2,2.1h-2.2l-4.3,1.1l-1.1,3.2l-1.1,3.2l-1.1,2.2h-2.2l-2.2,1.1h-5.4l-2.2-1.1l-2.2-2.2l-2.2-1.1l-1.1-1.1l-1.1-1.1h-2.2
		l-2.2,1.1l-1.1,1.1l-2.2,1.1l-5.4,5.4l-1.1,1.1v1.8l-2.2,2.5l-1.1,2.1l-1.1,2.2v2.3l1.1,0.9l1.1,1.1h3.2l1.1,1.1v2.2l1.1,2.1
		l2.2,3.2v6.5l-2.2,2.2l-1.1,2.1l-1.1,2.2l-1.1,3.2l-1.1,3.2v3.2l1.1,1.1l1.1,1.1l1.1,1.1h1.1l2.2-1.1l1.1-1.1l2.2-2.1l3.2-1.1
		l3.2-1.1h3.2l2.2,1.1l1.1,2.2l1.1,2.1l2.2,4.3l3.2,4.3l5.4,2.2l7.5,2.1h5.4l5.4,2.2h2.2l5.4,2.1l2.2,1.1l4.3,1.1l2.2,1.1l1.1,1.1
		v2.1l1.1,1.1l1.1,1.1h2.2l1.1,1.1l1.1,1.1l1.1,1.1l1.1,2.2l1.1,3.2v2.1l1.1,7.5l1.1,10.8l1.1,3.2l2.2,2.1v2.2l-1.1,2.1v6.5l1.1,2.1
		l2.2,3.2v3.2l-2.2,5.4v2.1l2.2,4.3l2.2,3.2l1.1,3.2v3.2l1.1,3.2l2.2,3.2v3.2l3.2,3.2l2.2,1.1h3.2l1.1-1.1l1.6,1.1l0.6,2.2l1.1,3.2
		l1.1,3.2v5.4l-3.2,4.3l-1.1,1.1h-1.6l-1.6-1.1h-1.1l-3.2,3.2l-1.1,2.2l-1.1,7.5l-2.2,6.5l-1.1,4.3l-4.3,6.5l-1.1,3.2l-4.3,3.2
		l-2.2,5.4l-1.1,5.4l-3.2,4.3l-2.2,2.1l-1.1,4.3l-2.2,7.5l-1.1,5.4l-1.1,5.4l-1.1,3.2l-3.2,3.2l-3.2,5.4l-2.2,3.2l-3.2,2.2l-2.2,4.3
		l-2.2,4.3l-5.4,4.3l-7.5,5.4l-6.5,4.3l-5.4,3.2h-6.3l-2.3,2.2l-4.3,3.2l-2.2,2.2l-1.1,3.2l-1.1,2.2l-2.2,2.2l-1.1,1.1v2.2l-1.1,3.2
		l-2.2,2.2l-3.2,2.2l-5.4,6.5l-2.2,3.2l-3.2,8.6v2.2l2.2,3.2l1.1,1.1h5l3.5-1.1l2.2-1.1h3.2l5.4-4.3l1.1-1.1h3.2l1.1,1.1l2.2,1.1
		h2.2l2.2-1.1l2.2-1.1h2.2l3.2,1.1l1.1,1.1v2.2l-2.2,2.2l-1.1,1.1l-1.1,1.1l-1.1,4.3l-2.2,4.3v2.2l1.1,6.5l1.1,5.4l1.1,3.2l5.4,3.2
		l4.3,3.2l4.3,3.2h3.9l3.7,1.1l3.3,1l3.2,1.1l3.2,2.2l1.1,3.2l1.1,4.3l-0.1,3.1l3.8,2.3l3.8,2.3h1.5l5.3-2.3
		c1.5,0,12.2,0.1,12.2,0.1l6.7-6h36.8l0.7-6l2-2l3.3-1.3l2,0.7l2.7,1.3l1.3,3.3v3.3h8v2h6.7v-2h20.7l5.3-1.8l5.3-3.6l27.9-53.9
		l13.3,6.9l-35.2,67.1l-1.3,8.7l3.3,29.4l4,12.7l7.3,8.7l4.7,4l6,4l7.3,3.3l6,1.3l4.7,4l2,4v58.8l25.8,0.5V380.3H1916.9z
		 M1886.1,608.6l-13.2-6.8l0.6-1.1V592l-15.4-40.1l1.3-3.3v-5.4l2-4.7l0.7-1.3h2.7l2.7,4l4,5.3l2.7,3.3l2,0.7h2.7v6.7l2.7,3.3l2.7,4
		l1.3,2v4l-4,12l2,6l3.3,5.3l4,2L1886.1,608.6z"/>
	<polygon class="st31" points="1514,1076.9 1512,1078.7 1512,1078.7 1512.3,1077.6 1512.3,1076.2 1504.1,1032.9 1501.8,1026.8 
		1473.8,1007.4 1470.8,1004 1469.8,1006.2 1467.6,1012.7 1463.3,1020.3 1462.2,1023.5 1460,1024.6 1456.8,1027.9 1454.6,1029 
		1450.2,1030 1448.1,1030 1443.7,1033.3 1442.7,1033.3 1440.5,1034.4 1435.1,1040.9 1434,1044.1 1434,1048.5 1436.2,1050.6 
		1441.6,1058.2 1441.6,1059.3 1443.8,1062.6 1449.2,1069.1 1450.3,1071.3 1451.3,1073.4 1454.6,1076.7 1457.3,1080 1920,1080 
		1920,1080 1516,1080 	"/>
	<polygon class="st31" points="358,680.4 356,680.7 357.1,689.4 359.2,689.1 	"/>
	<path class="st31" d="M179.5,446.9c-0.7-0.1-1.4,0.4-1.5,1.2c-0.1,0.7,0.4,1.4,1.2,1.5c0.1,0,10.8,1.3,10.8,7.4v115.7
		c0.1,2.4,0.6,4.8,1.5,7c1.8,4.6,6.2,7.6,11.1,7.7h0.1c0.7,0,1.2-0.5,1.3-1.2c0.1-0.7-0.5-1.4-1.2-1.5v0c-10-0.6-10.1-11.6-10.1-12
		V456.9C192.7,448.5,180.1,447,179.5,446.9z"/>
	<path class="st31" d="M7.7,248.4l11.5,7l0.6-1.2l-9.6-5.9l5.4-8.8l2.1,1.4l0.4-0.6l-2.2-1.4l1.3-2.1l2.3,1.5l0.4-0.6l-2.4-1.6V236
		l1-1.5l4.8,3.2l0.4-0.6l-4.8-3.2l1.1-1.7l5.3,3.5l0.4-0.6l-5.3-3.5l5.6-8.9l4.3,2.9l0.4-0.6l-4.3-2.9l1.6-2.5l5,3.3l0.4-0.6l-5-3.3
		l1.1-1.8l4.9,2.9l0.4-0.6l-4.9-2.8l3.6-5.6l6.7,3.3l13.9,9.7l14.9,8.3h0l0,0h0.3l-0.3,0l11,7l4.5,3.2l8.7,5.4l4,3.3l7.4,6l-6.7,8
		l2.7,2l6.7-8l12,10.4l-6.6,7.9l2.3,1.9l6.6-7.9l13.5,11.2l-1.9,2.5l1,0.8l2.1-2.5l7.9,6.8l-5.6,6.8l1.2,1l5.6-6.8l6.8,5.6l-5.6,7
		l1.2,1l5.6-7l10.8,8.9l0,0l-0.1,0l-16,19.2l0.2,0.6l7.7,6.4h0.4l15.9-19.1l6.7,5.5l12,20.5v18.4l0.5,49.5c-0.7,0-1.3,0.7-1.3,1.4
		l0.8,16.7c0,0.7,0.6,1.3,1.3,1.3c0.7,0,1.3-0.7,1.3-1.4l-0.6-16l65.5,0.4l8.4,20l0.2,139.1l-41.6,59.4l-32.7,0.2V616
		c0-4.5-2.7-6.4-4.3-7.5l-0.2-0.1c-2.5-1.8-8.3-2.8-8.5-2.9c-0.6-0.1-1.2,0.3-1.4,1s0.3,1.2,1,1.4c1.5,0.3,5.8,1.2,7.5,2.5l0.2,0.2
		c1.5,1,3.3,2.4,3.3,5.6v22.9l-0.2,0.5l-2,1.3l-1.3,1.3l-0.7,0.7l-2,2.7l-1.1,3.3l-0.8,3.5l-0.2,3.3l-0.2,4.1l0.2,5.2l-0.2,2.3
		l0.2,2.7v20.5l1.2,2.7l3.1,5.9l3.8,3.8l6,4.6h38l2.9,0.3l2-0.7l1.3-1.2l3-7.6l10.5-10l16-6l7.5-1.8v5.9h-1.7v3.3h6.7v-3.3h-1.7V680
		l10.5-1.2l2,0.7l7.4-0.7l28.7-4l0.1-1l12.6-1.6l13.4-1.3l1.3,0.7l4-1.3l0.8,0.2l-5.7,4l1.2,1.6l7.3-5.2l5.9-0.6l0,0l0,0l0,0l0.8,6
		l2.2,8.6l3,6.7l-2.7,0.7v3.3l-31.3,6.1c-1.2,0.3-2,1.3-2,2.5c0,1.4,1.1,2.6,2.6,2.6c0.2,0,0.4,0,0.5-0.1l38.2-8.4l2,13.4
		c-4.2,0.8-31,6.6-31,6.6c-0.6,0.2-1.1,0.7-1.1,1.4c-0.1,0.8,0.6,1.6,1.4,1.6c0.1,0,0.2,0,0.3,0c0,0,27-4.8,31.1-5.6l2,8l-4,1.3v2.7
		l-20.2,4.1c-0.6,0.2-1.1,0.7-1.1,1.4c-0.1,0.8,0.6,1.6,1.4,1.6h0.3l25-5.1l2.7,13.4l2.4,9.4l-1.3-0.8h-1.7l-1.3,0.7l-0.7,2.7
		l-0.6,2.6l-48.3,10.2l2,11.9l55.5-11.4l0,0l2,9.4l-2.7,2.7l0,0l-1.2,2.7l-5.8,7.1c0,0,0,0,0,0c-0.5,0.6-0.4,1.4,0.2,1.9
		c0.2,0.2,0.5,0.3,0.8,0.3c0.4,0,0.8-0.2,1-0.5l6-7.3l0.3-0.2l5.4,6l-5.4,7.7c0,0,0,0,0,0c-0.4,0.6-0.3,1.4,0.3,1.9
		c0.2,0.2,0.5,0.2,0.8,0.2c0.4,0,0.8-0.2,1.1-0.6l5.2-7.3l0.1,0.1l2.7,0l0,0l4.1,0.5l2.6,8.1l12-1.3l9.4-0.7l0.5-1l28.3-2.3l6.7,5.3
		l24.7-2l14.7-18l3.3-3.3l0.3-1.3l2.3-3.2l5.5-15.6l1.3-2l3.3-4l1.8-2.5l55.6-49.5l16.7,0.7l4.5,1.5l7.6-3.1v19.4l-8.7,5.3l4.8,6.4
		l11.3-7.1l0.2-15.7v-13.7l0-0.9l11.9,0.1l6,13.4l68.2-30.8l4.7-2l2,3.3l0.7,2l2.7,5.3l3.3-2l-2.7-5.3l-0.7-2l-0.7-3.3l4-2.1
		l5.3-2.3l1.4,2.4l8.7-4l-1.3-2.7l5.3-2l3.6-7.9l2.6,2.2l5.8,0.4l22.7-16l-2-7.4l-2.7-9.4l7.4-33.8l2.3-10.6l0-0.1l0,0l6.4-29.8
		l-2-2l-18.7-15.6l-0.1,0l0.1-0.1l-10.8-9.5l0.1-3h6.6v-6H753l0.3-1.6l2.4-60.6l-0.4-0.1l-40-12.9l0,0.1l-14-7.5l-4.3-1.1l-8.2-3.7
		l-0.8,8v36.5l2.7,8.4l5.3,9.2l6.5,5.2l5.2,7.4l4.1,8.5v5.3l1.3,2.6l4,4l8,1.3l7.5,3.1l8.6,4.3l7.5,4.3l4.3,4.3l2.5,3.2v0l1.8,2.2
		l1.1,3.2l3.2,3.2l1.1,3.2l0.6,2.4v2.2l-5.3,5.3l-4,9.3l-1,12.1l-5.4,6.5l-1.1,7.5l2.2,5.4l3.2,5.4v5.4l-1.1,4.3l-2.2,2.2l-1,0.6
		l-3-0.3l-3.7-2.8l-5.3-2.6l-2.6-1.3l-0.5-0.5l0.3-0.5l-1.7-1.7l-2.6-5.3l-1.3-2.6h-2.6l-4-1.3l-4-2.6l-1.3-4V590l-2.6-2.6l-5.3-2.6
		l-4-4l-2.6-2.6l-4-2.6l-5.3-1.3c0,0-4-1.3-4-2.6c-0.2-1.4-0.7-2.7-1.3-4v-4.9l-4-4.3l-2.6-4l-4-2.6l-2.6-4l-4-2.6l-4-1.3l-5.3-1.3
		l-6.6-2.6l-9.5,7.5c0,0-5.3-1.3-6.6-2.6c-1.7-1.4-3.4-2.8-5.3-4l-2.6-5.3l-1.3-1.3h-4l-2.6,1.3l-2.6,2.6l-6.6,2.6l-6.4-10.2
		l-11.9,2.6l-4,1.3l-2.6,1.3l-1.3,4v2.2l-2.6,1.8l-4,2.6l-4,2.6l-2.6,2.6l-2.6,4l-4,2.6l-5.3,6.6l-4,4l-2.6,6.6l-2.7,9.2l-2.6,10.6
		l-1.3,9.3l-2.6,13.2l-5.3,7.9l-2.6,4l-4,1.3l-4-2.6l-4-1.3l-2.6,2.6l-2.6,11.9l-4,13.2l-2.6,9.2l-4,9.3l-2.6,6.6l-2.6,9.2
		l-2.6,10.5l-1.3,9.3l-1.3,5.3l2.6,7.9l2.6,4v8.1l-2.6,6.6l-5.3,7.9l-6.6,6.6h-6.6l-2.6-4v-3.1l-5.3-4.8l-1.3-4l-2.6-6.6l-2.6-4
		h-9.2l-4,1.3h-17.2l-5.3,2.6l-6.6,1.3l-5.3,5.3l-1.3,5.3l-5.3,2.6l-1.3,5.3l-2.6,4h-2.6l-2.6-2.6v-3.6l-1.3-5.7l-1.3-4v-5.1
		l-1.3-2.8l-1.3-5.3l-2.6-5.3l-1.3-2.6l-1.3-5.3l-1.3-9.2l2.6-5.3v-11.9l-1.3-5.3l-2.6-5.3l-2.6-5.3v-5.5l0,0v-7.3l-1.3-9.6
		l-1.3-7.9v-7.1l1.3-7.4l1.3-7.9l-1.3-5.3l-1.3-6.7l-2.6-3.9l-2.6-1.3l-5.3-1.3l-2.6-4l-1.3-2.6v-9.4l1.3-3.7l1.3-4l2.6-2.6l6.6-2.6
		l2.6-1.3l4-9.3l2.6-6.6l0,0l2.6-6.5l1.3-4l4-4l5.3-1.3l4-4l2.6-5.3l1.3-4V520l-0.1-5.1l-0.1,0l0.2,0l1.3-4v-5.3l2.6-2.6l0.1-6.5
		l-5.3-4l-5.3-5.3l-2.6-1.3l1.3-6.6l2.6-5.3l1.3-5.3V466l-2.6-2.6l-1.3-6.6l-4-5.3l-1.3-4l-4-1.3l-1.3-1.3l-4-2.6v-4l-1.3-1.3
		l1.3-5.3l2.7-0.9l2.6-1.3l1.3-1.3v-4l-1.3-2.6v-4l-1.3-2.6l-1.3-4v-4l-2.6-4l-2.6-1.3l-4-2.6l-2.6-2.6v-14.5l-2.6-5.5v-1.7
		l-1.4-3.3l-1.3-5.3v-26.4l-1.3-4v-4l2.6-2.6l2.6-4l4-7.9v-5.3l-1.3-4l1.3-4V285l-5.2-4l-8-1.3l-9.3-2.6l-13.2-2.6l-15.8-1.3
		l-9.2,1.3l-1.3,2.7v7.9l-1.3,5.3l-2.6,6.6l-1.3,6.6l-1.3,9.2l-1.3,9.2l-2.6,4l-6.6,5.3l-1.3,4l-1.3,6.6l-5.3,6.6l-5.3,5.3l-5.3-2.6
		l-5.3-7.9l-4-4l-2.6-4l-1.3-4l2.6-17.2l-1.3-11.8l-0.1,0l4-13.1l0.1,0l2.7-4h0l2.3-2.5h2.9l4-1.3l3.2-0.6l3.4-0.7l2.6-1.3l1.3-1.3
		l2.6-2.6l-1.3-2.6l-2.6-2.6l-2.6-4l-1.3-5.3l-1.3-4l-2.6-1.4l-1.3-1.3H288l-2.7-2.7L284,248l-6.5-6.5l-7.9-7.9l-1.3-2.6l1.3-2.6
		l-1.3-4l-4-2.6l-7.9-5.3l-4-6.6l-1.3-6.6l2.8-2.5l6.6-1.3h6.6l5.3,2.6h6.6l6.6,2.6l5.3-6.6l5.3-7.9l-2.6-5.3l-0.2-7.9h-3.7
		l-5.3-5.3l-6.6-13.2l-5.3-14.5l-4-13.2l-1.3-9.4v-6.5l-1.3-6.6l-5.3-4l-7.9-7.9l-7.9-4l-1.3-4l-4,1.3l-4-2.6l-2.6-1.3l-5.3-2.7
		l-1.3-4h-1.4l-2.6,2.7h-5.2l-4-4l-2.6-5.4v-3.7l-4-4l-6.6-5.3L193,54h-2.7l-5.3-4l-5.2-5.3l-4-1.3l-2.6-2.6l-4,1.3l-6.6-4l-2.9,3.9
		l-2.2,3.3l-2.2,3.2l-4.3,3.2l-4.3,2.2l-6.5,1.1v0h-2.1L136,56l-3.2,1.1h-3.2l-1.1-2.2l-2.2,1.1l-3.2,2.2H121l-1.1-1.1l-1.1-2.2
		v-2.2l-1.1-1.1l-1.1,1.1v9.7l2.2,7.5l2.2,4.3l1,2.8v4.8l-2.1,1.1h-3.2l-1.1-3v-3.5l-1.1-4.3l-1.1-2.2l-2.2-3.2l-3.2-3.2l-3.1-2.1
		l-3.2-2.2h-2.1l-1.1,1.1v2.2l2.1,2.2l6.5,4.3l3.2,3.2l1.1,3.2l-1.1,2.1l-1.1,2.2l-3.2,2.2l-5.4,1.1L96.2,84H84.3l-3.3-2.1L80,79.7
		l-1-2.2l-3.3-1.1h-2.2l-4.3,1.1l-8.6,3.2l-3.2,1.1l-2.2-1.2v-2l-1.1-2.2l-1.1,0.8v1.4L52,81.9L51,84l-4.3,2.2l-3.5,1.2h-3.4
		L37,86.2l-1.1-1.1L31.6,84l-5,2l-3.3,1.3l-10.1,3.2l-2.1,1.1L9,92.6l-2.2,1.1l-2.2,1.1H0v40.5v0v104.3l9.6,6.1L7.7,248.4z
		 M755.1,584.7L755.1,584.7L755.1,584.7L755.1,584.7z"/>
	<polygon class="st31" points="1.3,313.2 0,314.5 0,320.5 4.3,316.2 	"/>
	<path class="st31" d="M4.6,439.9l1.3-5.2l1.3-4.5l4.5-5.8l-1.3-3.2l1.3-5.2l8.6-7.2l2.7,2.5l6-6.5l-2.7-2.7l1.6-2.3l1.7-3.9
		l2.8-2.6l4.1-1.5l1-3l-2.6-1.9l-1.9-3.2l-0.6-4v-4.4l1.9-4.5L39,366l2-2l0.4-3l1.3-3.2l3-3.8l5.4-5.4l7.4-6l6-3.3l7.4-2l4.6-0.8
		l3.9-3.2v-5.8l-1.3-6.5l-3.5-5.3l-1.7-3.1l-1.9-5.2l-2.7-3.9l-2.4-0.6l-0.3-0.5V302l-0.2-0.4v-0.2l-0.2-0.4l-0.2-0.2l-0.2-0.2
		l-0.2-0.2l-0.4-0.4h-0.2l-0.4-0.2H64l-0.2-0.2h-0.6l-0.4,0.2h-0.4l-5.4-4.1l-2.7-2l-2.7-2.7l-2-1.3l-0.7-1.3l-1.3-0.7l-1.3,0.7
		l-1.3,0.7h-3l-7-4.5c-0.1-0.1-0.3-0.2-0.4-0.3c-0.7-0.3-1.5,0.1-1.7,0.8c-0.3,0.7,0.1,1.5,0.8,1.7l10.7,6.8v0.1l0.7,0.7l-2.5,2.4
		l-3.9-2.9l-0.9,1.2l3.8,2.7l-1.9,1.9l-1.3-1.3l-2.7,2.7l1.5,1.2l-6.9,6.9l-6.6-6.6l-1,1l6.6,6.6l-0.2,0.2l2,2.1l-6.7,7.3l-2.7-2.7
		l-0.7,0.7l2.7,2.7l-1.2,0.7l-2.5-2.7l-0.8,0.8l-6.9-7l-1,1.2l9.5,9.5l-9.3,9.3l-6-5.9l3.3-3.5L7.9,322l-3.4,3.5l-3.2-3.1l3.7-3.7
		h0.2v-0.2H5l-0.4-0.4v-0.2H4.5v0.2l-3.7,3.7l-0.8-1v119.7l2.6,1.3L4.6,439.9z"/>
	<path class="st31" d="M10.8,290.1l0.8-0.8l-6.8-6.8l4.7-3l4.4,4.3l0.8-0.8l-4.1-4.2l2.4-1.5l4.8,3.5l0.5-0.8l-4.5-3.2l1.3-0.8
		l2.8,1.8c0.2,0.1,0.5,0.2,0.7,0.2c0.5,0,0.9-0.2,1.1-0.6c0.4-0.6,0.2-1.4-0.4-1.8l-1.9-1.2L0,263.8v22.5l4-3.2L10.8,290.1z"/>
	<polygon class="st31" points="6.4,293.3 0,286.9 0,288.9 5.4,294.3 	"/>
</g>
<g class="st32">
	<g class="st33">
		<path d="M749.7,400.6l-3.2-1.1l-31.2,37.7l40,12.9l3.1,0.8l5.4-2.3l2.3-5.4v-4.9l20.5-44.8h2.3l7.7,3.6l1.4-3l-7.3-3.4l-1.8-2.1
			l17-37.2l10.9-5.7l243,235.3l9.6,12.4l14.3,14.3h5.3l24.4,24.9h5l22.7-23.9v-4.8l-28.9-30l-0.1-1.7l1.5-14.4l-1.5-4.5l-30.6-30.2
			l-7.3,7.3l-4-0.7l-6.4-3.4l-3.6-2.7l-51.9-48l-4.8-2.9L879.3,352.6l0.7-3.3l9.4-26.7l4,1.3l151.8,145.8l36.8-38.8l12,11.4
			l31.4,33.4l20.7,24.1l21.1,25.9l6.9,9.5l0.2,0.2l2.5-2.3l2,3.3l0.7,1.3l4.4,5.1l-2.6,1.8l1.3,1.8l2.4-1.7l3.7,7.2l-5.9,4.5
			l0.6,0.8l-20.3,14.5c-0.6,0.4-0.7,1.3-0.3,1.9c0.4,0.6,1.3,0.7,1.9,0.3l20.4-14.6l0.6,0.8l6.1-4.6l0.2,0.2l13.9,20.2l1.1,1.6
			c-0.4,0-0.7,0.2-1,0.5c-0.4,0.5-0.6,1.1-0.4,1.8l-6.4,6.4l2.3,2.3l6.4-6.4c0.6,0.2,1.3,0,1.8-0.5c0,0,0.1-0.1,0.1-0.2l1.4,2
			l11,8.8l5.4,0.9l36.1,41.5l19.1,1.7l0,0l-0.9-3.2v-5.6l1.1-4.4l-1.1-6.7l-2.2-5.1l-5.4-7.5v-16.2l3.2-5.3l2.7-2.2l4.8-2.2l6.5-1.1
			h4.3l2.2-1.1l-1.1-2.2l-1.1-2.2l-1.1-1.1l2.2-2.2l2.2-3.2l1.1-4.3l1.1-4.3l1.1-6.5l-1.1-3.2l2.2-3.2l3.2-4.3l3.2-4.3l2.2-1.1
			l5.4-1.1h5.4l4.3-1.1l2.2-4.3l1.1-6.5l4.3-4.3l9.7-6.5l5.4-3.2l6.5-4.3l4.3-5.4l4.3-5.4l1.1-1.1v-1.1h-2.2l-3.2,2.1l-2.2,1.1
			l-4.3-1.1l-4.3-2.1l-4.3-1.1l-4.3-1.1l-3.2-2.2v-3.2l-2.2-3.2l-4.3-2.2l-2.2-3.2l-5.4-5.4l-6.5-7.5l-3.2-5.4h-1.1l-1.1,3.2v10.8
			l1.1,8.6v2.2l-1.1,4.3l1.1,7.5v6.5l-2.2,3.2h-6.4l-4.3-1.1h-2.2l-3.2,1.1h-2.2l-2.2-1.1l-4.3-2.2l-4.3-3.2l-3.2-2.2l-4.3-2.1
			l-3.2-2.2l-1.1-2.1l-5.4-7.5l-12.9-17.2l-1.1-1.1h-1.1l-3.2,1.1l-3.2,1.1h-3.2l-1.1,1.1v4.5l-2.2,4.1l-2.2,1.1h-1.1l-4.3-2.2
			l-3.2-2.2l-2.2-2.1l-2.2-3.2l-2.2-4.3l-3.2-3.2l-3.2-2.2l-3.2-1.1l-5.4-3.2l-4.3-1.1h-7.5l-2.2,1.1h-3.2l-3.2-1.1l-4.3-1.1
			l-3.2-2.1l-2.2-1.1l-2.2-2.1l-2.2-1.1l-2.2-1.1l-4.3-3.2l-1.1-2.2l-1.1-2.1l-2.2-1.1h-6.5l-3.2-1.1l-3.2-1.1h-2.2l-3.2,2.1
			l-1.1,1.1h-1.1l-2.2-2.2l-3.2-1.1l-2.2-4.3l-3.2-3.2l-3.2-1.1l-5.4-2.2l-2.2-1.1l-2.2-3.2l-1.1-2.1l-2.2-1.1h-4.3l-1.1-1.1
			l-1.1-2.2l-3.2-2.2l-2.2-1.1l-2.2-4.3l-2.2-3.2l-1.1-3.2l-3.2-4.3l-2.2-1.1v-1.6l2.2-1.6l1.1-4.3v-2.2l-2.2-4.3l-2.2-1.1l-1.1-3.2
			v-3.9l1.1-2.5l3.2-2.1l4.3-2.2l2.2-3.2v-4.3l-1.1-3.2l-1.1-3.2l-1.1-3.2l-1.1-2.2v-2.2l1.1-1.1h2.2l2.2-3.2l2.2-4.3l-1.1-2.2
			l1.1-3.2h-3.2l-1.1-1.1v-1.1l3.2-2.2l3.2-2.2l0.4-0.8l-3.7-1.4l-2.2-1.1l-1.1-1.1v-2.2l-1.1-1.1v-2.2l-1.1-1.1l-2.2-2.2l-1.1-2.1
			l-17.2,3.2l-1.1,3.2l3.2,16.1l-10.8,4.3v-11.8l-4.3-10.8v-28l-4.3-16.1l-2.2-11.9h-4.3l-1.1-1.1v-5.4l-1.1-1.1l-53.9-19.4
			l-141-5.4l-102.3,15.1l0.7,2.5l1.1,5.4v5.4l-2.9,5.4l-2.6,4l-3.1,1.4h-2.2l-2.2,1.1v8.6l2.2,2.2l3.2,2.1v1.1l-2.2,1.1l-1.1,3.2
			l-2.2,5.4l-3.2,5.4l-2.2,3.2H725l-1.1-1.1l-1.1-2.2v-5.4l-1.1-2.1h-2.2v2.2l-1.2,4.2l-0.5,4l48,23.1l9.7,6.5l4.3,6.5l4.3,10.8
			l1.1,12.9l-1.1,9.7l-8.6,12.9l-4.3-2.2l-9.7,15.1l-4.3-3.2l-2.2,3.2l1.1,1.1L753,392L749.7,400.6z"/>
		<polygon points="1282.8,636.4 1283,640.3 1281.9,643.1 1281.9,647.8 1283,650 1289.6,657.9 1289.6,659.8 1296.6,666.2 1302,678.2 
			1308.3,690.3 1313.3,699 1318,703 1324.7,708.3 1332.8,713.6 1338,714.3 1338,719.7 1343.4,719.7 1345.4,715.7 1355.4,715.7 
			1365.1,714.2 1373.9,713.1 1379.9,714.9 1388.3,715.5 1392.9,713.6 1400.2,709.7 1403.5,709 1408.2,708.3 1415.6,707.7 
			1416.9,709 1426.9,734.4 1423.6,736.4 1376.7,760.4 1376.1,761.1 1376.8,763.8 1378.1,765.8 1378.8,763.1 1381,762 1384.2,762 
			1387.5,763.1 1390.7,765.3 1393.9,766.3 1396.1,768.5 1398.2,769.6 1401.5,771.7 1403.6,771.7 1404.7,769.6 1403.6,762 
			1402.5,757.7 1402.5,755.6 1403.6,753.4 1409,751.3 1413.3,750.2 1416.5,750.2 1421.9,752.3 1424.1,753.4 1427.3,753.4 
			1431.6,751.3 1437,751.3 1439.2,750.2 1438.1,740.5 1435.9,737.3 1433.8,731.9 1431.6,726.5 1430.5,720 1431.6,717.9 
			1434.8,715.7 1437,714.7 1437,712.5 1439.2,709.2 1441.3,706 1442.4,704.9 1441.3,703.8 1437,703.8 1430.5,702.8 1428.4,702.8 
			1423,704.9 1416.4,704.9 1413.2,703.8 1411,703.8 1408,702.8 1404.4,701.9 1399.2,701.2 1393.4,702.8 1389.8,702.8 1383.7,701 
			1381.1,699.9 1376.6,699.1 1372.1,701.2 1368.4,702.8 1363.7,703.8 1355.3,702.8 1351.4,699.3 1345,698.7 1336.6,697.4 
			1327.6,694.1 1321.1,689 1314,680.6 1309.5,673.5 1306.9,665.7 1306.2,660.5 1304.9,654.7 1299.1,648.9 1294.6,645.7 
			1286.2,639.8 1282.8,636.4 1282.8,636.4 1282.8,636.4 		"/>
		<polygon points="1449.9,808.3 1443.4,809.4 1439.1,812.6 1434.8,813.7 1430.5,815.9 1426.2,815.9 1418.7,810.5 1410.1,802.9 
			1409,801.9 1409,800.2 1410.1,799.7 1406.8,794.3 1404.7,793.3 1400.4,792.2 1397.2,791.1 1388.5,784.6 1383.8,779.5 
			1385.4,788.5 1432.9,836.7 1442.8,846.6 1443.6,846.7 1444.3,846.7 1445.4,845.6 1445.6,844.7 1445.3,843.7 1433.6,830.7 
			1450.6,814 1454.3,811.3 1460.7,804 1456.4,805.1 		"/>
	</g>
	<g class="st33">
		<path d="M824.7,524.2c-0.5,0.3-0.7,0.9-0.4,1.4c0.2,0.3,0.5,0.5,0.9,0.5c0.2,0,0.3,0,0.5-0.1l70.2-36.8c0,0,0,0,0,0
			c0.5-0.3,0.7-0.9,0.4-1.4c0,0,0,0,0,0c-0.3-0.5-0.9-0.7-1.4-0.4L824.7,524.2C824.7,524.2,824.7,524.2,824.7,524.2z"/>
		<path d="M797.6,452.7C797.6,452.7,797.6,452.7,797.6,452.7c-0.3-0.5-0.9-0.6-1.4-0.3c0,0,0,0,0,0c-0.5,0.3-0.6,0.9-0.3,1.4
			l28.7,44.1c0.2,0.3,0.5,0.5,0.8,0.5c0.2,0,0.4-0.1,0.5-0.2c0.5-0.3,0.6-0.9,0.3-1.4L797.6,452.7z"/>
		<polygon points="1465,803 1460.7,804 1454.3,811.2 1463.4,820.4 1465,815.8 1466.1,811.5 1468.2,806.2 1469.3,804 1469.3,800.8 
			1468.2,800.8 		"/>
		<polygon points="986.9,413.6 965.1,435.8 970.4,441 992.1,418.6 		"/>
		<path d="M1158.5,601.9c1.9,0.1,3.7-0.3,5.3-1.1c4-2.7,15-11.1,15.4-11.4c0,0,0.1-0.1,0.1-0.1c0.6-0.5,0.6-1.3,0.1-1.9
			c-0.5-0.6-1.3-0.6-1.9-0.1c-0.1,0.1-11.4,8.7-15.3,11.3c-2.5,1.7-11.7,0-16.9-1.5c-0.7-0.2-1.5,0.2-1.7,0.9
			c-0.2,0.7,0.2,1.4,0.9,1.7C1145.8,599.9,1153,601.9,1158.5,601.9z"/>
		<polygon points="1283,640.4 1283,637.1 1282.8,636.5 1263.8,634.8 1227.7,593.3 1222.3,598 1255.8,638.8 1259.8,643.4 
			1289.5,659.7 1289.5,657.8 1283,650 1281.9,647.9 1281.9,643.2 		"/>
	</g>
	<g class="st33">
		<polygon points="780,326.1 775.7,319.7 766,313.2 718,290.1 717.2,296.7 718.5,307.3 722.5,312.6 723.8,313.1 728.8,301.5 
			766.1,319.5 767.8,317.9 768.8,317.5 770.6,317.5 772.6,318.5 775.3,321.2 775.3,323.9 774,326.6 767.2,326.6 765.6,325.8 
			764.7,326.9 756.5,334.3 756.9,335 760.9,339 763.5,343 763.5,352.3 762.2,360.2 756.9,368.1 749,373.4 742.4,376 738.4,378.7 
			735.8,381.3 730.5,384 723.9,386.6 719.9,385.3 715.9,385.3 711.9,387.9 706.6,391.9 702.6,394.6 697.3,397.2 689.4,410.4 
			689.4,418.8 688.8,424.8 697,428.6 701.3,429.7 715.3,437.2 746.5,399.5 749.8,400.6 753,392 756.2,386.6 755.1,385.5 
			757.3,382.3 761.6,385.5 771.3,370.4 775.6,372.6 784.2,359.7 785.3,350 784.3,336.9 		"/>
		<path d="M1102.7,279.7l-4-4l-2.6-4l-5.3-7.9l-6.6-5.3l-5.3-4v-2.6l-2.6-1.3v-1.6l2.6-2.3h-4.6l-3.3-2.6l-4-4l-2.6-5.3l-1.3-4
			l-5.3-2.6l-7.9-4l-6.6-2.6l-2.6-1.3l-4-6.6l-2.6-4l-5.3-4l-4,1.3l-1.2-1.3l2.6-2.6v-5.3l1.3-4l2.6-2.6l-1.3-1.3l-2.6-1.3l-1.3-2.6
			v-1.3l-5.3-1.3l-5.3-2.6l-4-2.6l-1.3-5.3v-4.1l4-3.8l1.3-2.6l-5.3-5.1h-2.1l-3.2,1.2l-2,0.6l-1.1-1.7l4.4-2.8v-2.6l-4.4,1.2
			l-4.9,0.2l-7.9-5.3l-9.3-7.9l-1.3-1.3l-4,1.3l-5.3-4l-1.3,2.6h-1.3l-4-2.6l-4-4l-4-2.7l-4-5.3h-52.5l-8.2,1.3l-14.5,2.6l-10.6,4
			l-6.6,4c0,0-7.9,5.3-9.2,6.6l-7.9,7.9l-10.6,11.9L817.2,175l-11.9,14.5l-6.6,7.9l-7.9,5.3l-5.3,5.3l-11.9,10.6l-5.3,6.6l-5.3,2.8
			l-10.8,4.3l-1.1,1.1l46.3-6.5l34.5-5.4l15.1-2.2l6.5-1.1l141,5.4l50.6,18.3l3.2,1.1l1.1,1.1v5.4l1.1,1.1h4.3l2.2,11.9l4.3,16.1v28
			l4.3,10.8v11.8l10.8-4.3l-2.2-9.7l-1.1-6.5l1.1-3.2l17.2-3.2l-1.1-1.1l1.1-3.2l2.2-2.2l2.2-1.1l3.2-2.2l2.2-2.2l1.1-1.1l1.9-1.7
			l-1.3-4V279.7z"/>
	</g>
	<polygon class="st33" points="770.4,317.7 768.6,317.7 767.6,318.1 765.9,319.7 764.4,319 728.6,301.7 723.6,313.3 731.6,316.7 
		742.2,322 752.8,328.6 756.3,334.5 764.5,327.1 765.4,326 767,326.8 773.8,326.8 775.1,324.1 775.1,321.4 772.4,318.7 	"/>
</g>
</svg>
