<?xml version="1.0" encoding="utf-8"?>
<!-- Generator: Adobe Illustrator 23.0.3, SVG Export Plug-In . SVG Version: 6.00 Build 0)  -->
<svg width="1920" height="1080" version="1.1" id="_1945" xmlns="http://www.w3.org/2000/svg" xmlns:xlink="http://www.w3.org/1999/xlink" x="0px" y="0px"
	 viewBox="0 0 1920 1080" style="enable-background:new 0 0 1920 1080;" xml:space="preserve">
<style type="text/css">
	.st0{fill:#70CCB8;}
</style>
<g>
	<path class="st0" d="M1128.6,260.9v-4l-4-4l-2.7-4l-5.4-8.1l-6.7-5.4l-5.4-4v-2.7l-2.7-1.4v-1.7l2.7-2.4h-4.7l-3.4-2.7l-4-4
		l-2.7-5.4l-1.3-4l-5.4-2.7l-8.1-4l-6.7-2.7l-2.7-1.3l-4-6.7l-2.7-4l-5.4-4l-4,1.3l-1.3-1.3l2.6-2.7v-5.4l1.3-4l2.7-2.7l-1.3-1.4
		l-2.7-1.3l-1.3-2.7v-1.3l-5.4-1.3l-5.4-2.7l-4-2.7l-1.3-5.4v-4.2l4-3.9l1.3-2.7l-5.4-5.2h-2.2l-3.2,1.2l-2,0.6l-1.1-1.8l4.4-2.9
		v-2.7l-4.4,1.2l-5,0.2l-8.1-5.4l-9.4-8.1l-1.3-1.3l-4,1.3l-5.4-4l-1.3,2.7H989l-4-2.7l-4-4l-4-2.7l-4-5.4h-53.4l-8.4,1.3l-14.8,2.7
		l-10.8,4l-6.7,4c0,0-8.1,5.4-9.4,6.7l-8.1,8.1l-10.8,12.1L838.7,151l-12.1,14.9l-6.7,8.1l-8.1,5.4l-5.4,5.4l-12.1,10.8l-5.4,6.7
		l-5.4,2.8l-5.5,2.2l-5.5,2.2l-1.1,1.1l47.1-6.6l0.7-0.1l9.1,8.4l-0.7,0.9l3,2.4l2.4-3l-3-2.4l-0.5,0.6l-7.9-7.3l31.9-5l15.3-2.2
		l6.6-1.1l7.9,0.3v6.5h2.3v-6.4l7.7,0.3v6.1h3.5v-6l122.2,4.7l3.3,1.2l-1.6,3.7l2.3,0.8l0.8-1.5l2.3,0.8v4.9l3.8,2l3.3-6.7
		l37.3,13.5l3.3,1.1l1.1,1.1v5.5l1.1,1.1h4.4l2.2,12l4.4,16.4v28.4l4.4,11v12l11-4.4l-2.2-9.9l-1.1-6.6l1.1-3.3l17.5-3.3l-1.1-1.1
		l1.1-3.3l2.2-2.2l2.2-1.1l3.3-2.2l2.2-2.2l1.1-1.1l1.3-2.5L1128.6,260.9z"/>
	<path class="st0" d="M802,327.6l-4.4-11l-4.4-6.6l-9.9-6.6L734.5,280l-0.8,6.7l1.3,10.7l4,5.4l1.3,0.6l0.4-0.4l-0.2,0.5l8.1,3.5
		l10.8,5.4l10.7,6.7l3.6,5.9l-0.2,0.1l0.4,0.7l4,4l2.7,4v9.4l-1.3,8.1l-5.4,8.1l-8.1,5.4l-6.7,2.7l-4,2.7l-2.7,2.7l-5.4,2.7
		l-6.7,2.7l-4-1.3h-4l-4,2.7l-5.4,4l-4,2.7l-5.4,2.7l-4,6.7l-4,6.7v8.6l-0.6,6.1l8.3,3.8l4.4,1.1l14.2,7.7l17.2-20.7l2,2l2-1.9
		l-2.2-2.2l12.8-15.5l3.3,1.1l3.3-8.8l3.3-5.5l-1.1-1.1l2.2-3.3l4.4,3.3l9.9-15.3l4.4,2.2l8.8-13.2l0.9-9.8L802,327.6z"/>
</g>
</svg>
