<?xml version="1.0" encoding="utf-8"?>
<!-- Generator: Adobe Illustrator 23.0.3, SVG Export Plug-In . SVG Version: 6.00 Build 0)  -->
<svg width="3840" height="2160" version="1.1" id="_2019" xmlns="http://www.w3.org/2000/svg" xmlns:xlink="http://www.w3.org/1999/xlink" x="0px" y="0px"
	 viewBox="0 0 3840 2160" style="enable-background:new 0 0 3840 2160;" xml:space="preserve">
<style type="text/css">
	.st0{clip-path:url(#SVGID_2_);}
	.st1{fill:none;stroke:#FF8300;stroke-width:5;stroke-miterlimit:10;}
	.st2{fill:none;stroke:#FF8300;stroke-width:2.5;stroke-linecap:round;stroke-linejoin:round;stroke-dasharray:8;}
	.st3{fill:none;stroke:#FF8300;stroke-width:2.5;stroke-linecap:round;stroke-linejoin:round;stroke-dasharray:7.77,7.77;}
	.st4{fill:none;stroke:#FF8300;stroke-width:2.5;stroke-linecap:round;stroke-linejoin:round;}
	.st5{fill:none;stroke:#FF8300;stroke-width:2.5;stroke-linecap:round;stroke-linejoin:round;stroke-dasharray:8.59,8.59;}
	.st6{fill:none;stroke:#FF8300;stroke-width:2.5;stroke-linecap:round;stroke-linejoin:round;stroke-dasharray:7.75,7.75;}
	.st7{fill:none;stroke:#FF8300;stroke-width:2.5;stroke-linecap:round;stroke-linejoin:round;stroke-dasharray:9.49,9.49;}
	.st8{fill:none;stroke:#FF8300;stroke-width:2.5;stroke-linecap:round;stroke-linejoin:round;stroke-dasharray:7.27,7.27;}
	.st9{fill:none;stroke:#FF8300;stroke-width:2.5;stroke-linecap:round;stroke-linejoin:round;stroke-dasharray:8.02,8.02;}
	.st10{fill:none;stroke:#FF8300;stroke-width:2.5;stroke-linecap:round;stroke-linejoin:round;stroke-dasharray:9.66,9.66;}
	.st11{fill:none;stroke:#FF8300;stroke-width:2.5;stroke-linecap:round;stroke-linejoin:round;stroke-dasharray:5.47,5.47;}
	.st12{fill:none;stroke:#FF8300;stroke-width:2.5;stroke-linecap:round;stroke-linejoin:round;stroke-dasharray:10.15,10.15;}
	.st13{fill:none;stroke:#FF8300;stroke-width:2.5;stroke-linecap:round;stroke-linejoin:round;stroke-dasharray:8.33,8.33;}
	.st14{fill:none;stroke:#FF8300;stroke-width:2.5;stroke-linecap:round;stroke-linejoin:round;stroke-dasharray:5.44,5.44;}
	.st15{fill:none;stroke:#FF8300;stroke-width:2.5;stroke-linecap:round;stroke-linejoin:round;stroke-dasharray:4.82,4.82;}
	.st16{fill:none;stroke:#FF8300;stroke-width:2.5;stroke-linecap:round;stroke-linejoin:round;stroke-dasharray:5.18,5.18;}
	.st17{fill:none;stroke:#FF8300;stroke-width:2.5;stroke-linecap:round;stroke-linejoin:round;stroke-dasharray:4.28,4.28;}
	.st18{fill:none;stroke:#FF8300;stroke-width:2.5;stroke-linecap:round;stroke-linejoin:round;stroke-dasharray:6.28,6.28;}
	.st19{fill:none;stroke:#FF8300;stroke-width:2.5;stroke-linecap:round;stroke-linejoin:round;stroke-dasharray:6.92,6.92;}
	.st20{fill:none;stroke:#FF8300;stroke-width:2.5;stroke-linecap:round;stroke-linejoin:round;stroke-dasharray:8.32,8.32;}
	.st21{fill:none;stroke:#FF8300;stroke-width:2.5;stroke-linecap:round;stroke-linejoin:round;stroke-dasharray:4.32,4.32;}
	.st22{fill:none;stroke:#FF8300;stroke-width:2.5;stroke-linecap:round;stroke-linejoin:round;stroke-dasharray:6.8,6.8;}
	.st23{fill:none;stroke:#FF8300;stroke-width:2.5;stroke-linecap:round;stroke-linejoin:round;stroke-dasharray:7.35,7.35;}
	.st24{fill:none;stroke:#FF8300;stroke-width:2.5;stroke-linecap:round;stroke-linejoin:round;stroke-dasharray:7.58,7.58;}
	.st25{fill:none;stroke:#FF8300;stroke-width:2.5;stroke-linecap:round;stroke-linejoin:round;stroke-dasharray:7.84,7.84;}
	.st26{fill:none;stroke:#FF8300;stroke-width:2.5;stroke-linecap:round;stroke-linejoin:round;stroke-dasharray:7.83,7.83;}
	.st27{fill:none;stroke:#FF8300;stroke-width:2.5;stroke-linecap:round;stroke-linejoin:round;stroke-dasharray:6.62,6.62;}
	.st28{fill:none;stroke:#F08219;stroke-width:2.5;stroke-linecap:round;stroke-linejoin:round;stroke-dasharray:8;}
	.st29{fill:none;stroke:#FF8300;stroke-width:3;stroke-linecap:round;stroke-linejoin:round;stroke-dasharray:8;}
	.st30{opacity:0.8;}
	.st31{fill:#666666;}
	.st32{display:none;}
	.st33{display:inline;}
</style>
<g>
	<g>
		<defs>
			<rect id="SVGID_1_" width="3840" height="2160"/>
		</defs>
		<clipPath id="SVGID_2_">
			<use xlink:href="#SVGID_1_"  style="overflow:visible;"/>
		</clipPath>
		<g class="st0">
			<path id="Pre1900_Kln" class="st1" d="M3847,760.8h-13.2l-29.2-18l-6.4-20.8l-7.8-24.6l-9-18.4l-11,5.2l-2,17l9,28.4l3.8,27.2
				l-11.6,23.2l-22,15.6l-18.8,4.8l-17.2-6.4l-10.8-4.2l-13-4.2l-6.4-2.2v-6l-8.6-2.6l-4.4-4.2l-2.2-6.4l-4.4-6.4l-4.4-6.4l-4.4-6.4
				l-4.4-4.2v-4.6l2.2-4v-34.4l-2.2-4.2l-2.2-4.4v-4.6l1-3v-4.2l-2.2-2.2l-2.2-2.2v-3.4l-2.2-3l-2.2-4.4l-2.2-2.2l-4.4-4.4l-30.2-28
				l-2.2-2.2l-4.2-5.4l-4.4-7.6l-6.4-13l-2.2-6.4l-2.2-8.6v-5.8l-2.2-5l-4.4-4.2v-2.2l-2.2-10.8V550l-2.2-4.4l-2.2-6.4l-2.2-4.2
				l-2.2-4.2l-2.2-2.2l-2.2-2.2l-2.2-2.2l-3.2-1H3542l-6.4-2.2l-6.4-2.2l-4.4-2.2l-2.2-2.2l-2.2-2.2l-2.2-2.2l-4.4-6.4l-2.2-2.2
				l-4.4-2.2l-4.4-2.2l-6.4-2.2h-26l-12.6-6.4l-2.2-2.2l-4.4-2.2h-8.6l-4.4,2.2l-4.4,2.2H3423l-4.4,4.2l-4.4,2.2h-6.4l-6.4,2.2
				l-4.4,4.2h-4.4l-8.6,2.2l-2.2,6.4l-2.2,6.4l-2.2,4.2h-4.4l-4.4,2.2h-10.8l-4.4-2.2l-4.4-4.2l-4.4-2.2l-2.2-2.2l-2.2-2.2h-4.4
				l-4.4,2.2l-2.2,2.2l-4.4,2.2L3314,527l-2.2,2.2v3.6l-4.4,5l-2.2,4.2l-2.2,4.2v4.6l2.2,1.8l2.2,2.2h6.4l2.2,2.2v4.2l2.2,4.2
				l4.4,6.4v13l-4.2,4.4l-2.2,4.2l-2.2,4.4l-2.2,6.4l-2.2,6.4v6.4l2.2,2.2l2.2,2.2l2.2,2.2h2.2l4.4-2.2l2.2-2.2l4.4-4.2l6.4-2.2
				l6.4-2.2h6.4l4.4,2.2l2.2,4.4l2.2,4.2l4.4,8.6l6.4,8.6l10.8,4.2l15,4.2h10.6l10.8,4.4h4.4l10.8,4.2l4.4,2.2l8.6,2.2l4.4,2.2
				l2.2,2.2v4.2l2.2,2.2l2.2,2.2h4.4l2.2,2.2l2.2,2.2l2.2,2.2l2.2,4.4l2.2,6.4v4.2l2.2,15l2.2,21.6l2.2,6.4l4.4,4.2v4.4l-2.2,4.2v13
				l2.2,4.2l4.4,6.4v6.4l-4.4,10.8v4.2l4.4,8.6l4.4,6.4l2.2,6.4v6.4l2.2,6.4l4.4,6.4v6.4l6.4,6.4l4.4,2.2h6.4l2-2.2l3.2,2.2l1.2,4.2
				l2.2,6.4l2.2,6.4v10.8l-6.4,8.6l-2.2,2.2h-3.2l-3.2-2.2h-2.2l-6.4,6.4l-2.2,4.4l-2.2,15l-4.4,13l-2.2,8.6l-8.6,13l-2.2,6.4
				l-8.6,6.4l-4.4,10.8l-2.2,10.8l-6.4,8.6l-4.4,4.2l-2.2,8.6l-4.4,15l-2.2,10.8l-2.2,10.8l-2.2,6.4l-6.4,6.4l-6.4,10.8l-4.4,6.4
				l-6.4,4.4l-4.4,8.6l-4.4,8.6l-10.8,8.6l-15,10.8l-13,8.6l-10.8,6.4h-12.6l-4.6,4.4l-8.6,6.4l-4.4,4.4l-2.2,6.4l-2.2,4.4l-4.4,4.4
				l-2.2,2.2v4.4l-2.2,6.4l-4.4,4.4l-6.4,4.4l-10.8,13l-4.4,6.4l-6.4,17.2v4.4l4.4,6.4l2.2,2.2h10.2l7-2.2l4.4-2.2h6.6l10.8-8.6
				l2.2-2.2h6.4l2.2,2.2l4.4,2.2h4.4l4.4-2.2l4.4-2.2h4.4l6.4,2.2l2.2,2.2v4.4l-4.4,4.4l-2.2,2.2l-2.2,2.2l-2.2,8.6l-4.4,8.6v4.4
				l2.2,13l2.2,10.8l2.2,6.4l10.8,6.4l8.6,6.4l8.6,6.4h7.8l7.4,2.2l6.4,2.2l6.4,2.2l6.4,4.4l2.2,6.4l2.2,8.6l-0.2,6.2l7.6,4.6
				l7.6,4.6l3,12.2v13.6l-9.2,27.4h-16.8l-5.2,7l4.4,8.6l2.2,4.4v4.4l-2.2,4.4l-2.2,17.2l-4.4,17.2l-6.4,6.4l-4.2,2l-2.2-2.2
				l-2.2-4.4l-2.2-2.2l-2.2-2.2h-6.4l-8.6,4.4l-6,6.4l-2.6,4.4l-2.2,4.4v4.4l-2.2,4.4l-19.4,21.6l-4.4,2.2l-2.2-4.4l-2.2-2.2
				l-6.4,2.2l-4.4,2.2l-4.4,4.4v17.2l2.2,6.4l-2.2,4.4l-10.8,13l-4.4,4.4h-4.4l0.2-2.2l-4.4-2.2l-3,4.4l-3.4,8.6v10.8l-19.4,21.6
				l-6.4,8.6l-15,10.8l-4.4,2.2h-6.4l-6.4,2.2l-2.2,4.4h-3l-3.4-2.2h-2.2l-2.2,6.4l-2.2,8.6v8.6l-2.2,6.4l-4.4,6.4l-6.6,4.2
				l-6.4,2.2l-4.4,4.4l-4.4,6.4l-4.4,6.4l-2.2,4.4l-2.2,6.4l-2.2,6.4l-6.4,2.2l-6.4,2.2l-4.4,2.2l-2.2,6.4l-6.4,6.4l-6.4,2.2h-4.4
				l-6.4,4.4h-5l-5.8,2.2v5.6l6.4,5l4.4,4.4v6.4l-4.4,4.4l-2.2,2.2h-4.4l-2.2-2.2l-2.2-2.2l-2.2,2.2v13.6l-4.4,8l-19.4,23.6
				l-4.4,4.4l-10.8,21.6l-2.2,4.4l-6.4,2.2l-8.6,2.2l-4.4,2.2h-14l-5.4-2.2l-11.6-0.6l-13.8-3h-15l-15.2-1.6l-12.2-4.6l-9.8-3.2
				h-4.4l-2.2-2.2l-4.4-4.4v-3l-2.2-3.6l-8.6-4.4h-13l-4.4-2.2l-4.4-2.2l-6.4-4.4l-6.4-6.4l-15-10.8h-10.8l-4.4-2.2l-6.4-2.2
				l-6.4-4.4l-4.4-2.2l-2.2-2.2l-2.2-2.2l2.2-4.4l4.4-10.8v-1.4l6.4-8.6l4.4-4.4l4.4-10.8l8.6-13l17.2-23.6l10.8-13l4.4-10.8
				l2.2-10.8l6.4-19.4l2.2-8.6l4.4-10.8l2.2-4.4v-6.4h-2.2l-6.6,4.4l-8.6,2.2l-8.6,2.2l-13,6.4l-13,2.2l-8.6,6.4l-8.6,2.2l-8.6,4.4
				h-8.6l-15-10.8l-17.2-15l-2.2-2.2v-3.2l2.2-1l-6.4-10.8l-4.4-2.2l-8.6-2.2l-6.4-2.2l-17.2-13l-10.8-11.6l-2.6-9.4l-4-8l-4-7.6
				l2.2-6.4l4.4-2.4h6.4l6.4,2.2l6.4,4.4l6.4,2.2l4.4,4.4l4.4,2.2l6.4,4.4h4.4l2.2-4.4l-2.2-15l-2.2-8.6v-4.4l2.2-4.4l10.8-4.4
				l8.6-2.2h6.4l10.8,4.4l4.4,2.2h6.4l8.6-4.4h10.8l4.4-2.2l-2.2-19.4l-4.4-6.4l-4.4-10.8l-4.4-10.8l-2.2-13l2.2-4.4l6.4-4.4
				l4.4-2.2v-4.2l4.4-6.4l4.4-6.4l2.2-2.2l-2.2-2.2h-8.6l-13-2.2h-4.4l-10.8,4.4h-13l-6.4-2.2h-4.4l-6-2.2l-7.2-1.8l-10.4-1.2
				l-11.6,3h-7.2l-12.2-3.4l-5.2-2.2l-9-1.6l-9,4.4l-7.4,3l-9.4,2.2l-16.8-2.2l-7.8-7l-13-1.4l-16.8-2.6l-18-6.4l-13.2-10.4
				l-14.2-16.8l-9-14.2l-5.2-15.6l-1.4-10.4l-2.6-11.6l-11.6-11.6l-9-6.4l-16.8-11.6l-6.8-7l-1.8-6.6v-11.2l2.2-8.8l-2.2-13.4
				l-4.4-10.2l-10.8-15v-32.4l6.4-10.6l5.4-4.4l9.6-4.4l13-2.2h8.6l4.4-2.2l-2.2-4.4l-2.2-4.4l-2.2-2.2l4.4-4.4l4.4-6.4l2.2-8.6
				l2.2-8.6l2.2-13l-2.2-6.4l4.4-6.4l6.4-8.6l6.4-8.6l4.4-2.2l10.8-2.2h10.8l8.6-2.2l4.4-8.6l2.2-13l8.6-8.6l19.4-13l10.8-6.4
				l13-8.6l8.6-10.8l8.6-10.8l2.2-2.2v-2.2h-4.4l-6.4,4.2l-4.4,2.2l-8.6-2.2l-8.6-4.2l-8.6-2.2l-8.6-2.2l-6.4-4.4V963l-4.4-6.4
				l-8.6-4.2l-4.4-6.4l-10.8-10.8l-13-15l-6.4-10.8h-2.2l-2.2,6.4v21.6l2.2,17.2v4.4l-2.2,8.6l2.2,15v13l-4.4,6.4h-13l-8.6-2.2h-4.4
				l-6.4,2.2h-4.4l-4.4-2.2l-8.6-4.4l-8.6-6.4l-6.4-4.2l-8.6-4.2l-6.4-4.4l-2.2-4.2l-10.8-15l-25.8-34.4l-2.2-2.2h-2.2l-6.4,2.2
				l-6.4,2.2h-6.4l-2.2,2.2v9l-4.4,8.2l-4.4,2.2h-2.2l-8.6-4.4l-6.4-4.2l-4.4-4.2l-4.4-6.4l-4.4-8.6l-6.4-6.4l-6.4-4.2l-6.4-2.2
				l-10.8-6.4l-8.6-2.2h-15l-4.4,2.2h-6.4l-6.4-2.2l-8.6-2.2l-6.4-4.2l-4.4-2.2l-4.4-4.2l-4.4-2.2l-4.4-2.2l-8.6-6.4l-2.2-4.4
				l-2.2-4.2l-4.4-2.2h-13l-6.4-2.2l-6.4-2.2h-4.4l-6.4,4.2l-2.2,2.2h-2.2l-4.4-4.2l-6.4-2.2l-4.4-8.6l-6.4-6.4l-6.4-2.2L2233,837
				l-4.4-2.2l-4.4-6.4l-2.2-4.2l-4.4-2.2h-8.6l-2.2-2.2l-2.2-4.4l-6.4-4.2l-4.4-2.2l-4.4-8.6l-4.4-6.4l-2.2-6.4l-6.4-8.6l-4.4-2.2
				v-3.2l4.4-3.2l2.2-8.6v-4.2l-4.4-8.6l-4.4-2.2l-2.2-6.4v-7.8l2.2-5l6.4-4.2l8.6-4.2l4.4-6.4v-8.6l-2.2-6.4l-2.2-6.4l-2.2-6.4
				l-2.2-4.4v-4.2l2.2-2.2h4.4l4.4-6.4l4.4-8.6l-2.2-4.4l2.2-6.4h-6.4l-2.2-2.2V644l6.4-4.2l6.4-4.4l0.8-1.6l-7.4-2.8l-4.4-2.2
				l-2.2-2.2v-4.2l-2.2-2.2V616l-2.2-2.2l-4.4-4.2l-2.2-4.2l-2.2-2.2l2.2-6.4l4.4-4.2l4.4-2.2l6.4-4.2l4.4-4.4l2.2-2.2l3-4.2l-2.6-8
				v-8l-8-8l-5.2-8l-10.6-15.8L2161,517l-10.6-8v-4.8l-5.2-2.6v-3.2l5.2-4.6h-9.2l-6.6-5.2l-8-8l-5.2-10.6l-2.6-8l-10.6-5.2l-15.8-8
				l-13.2-5.2l-5.2-2.6l-8-13.2l-5.2-8l-10.6-8l-8,2.6l-2.6-2.6l5.2-5.2V396l2.6-8l5.2-5.2l-2.6-2.6l-5.2-2.6l-2.6-5.2V368
				l-10.6-2.6l-10.6-5.2l-8-5.2l-2.6-10.6V336l8-7.6l2.6-5.2l-10.6-10.2h-4.2l-6.4,2.2l-4,1.2l-2.2-3.4l8.8-5.6V302l-8.8,2.4
				l-9.8,0.4l-15.8-10.6l-18.6-15.8l-2.4-2.2l-8,2.6l-10.6-8l-2.6,5.4h4.2l-8-5.2l-8-8l-8-5.2l-8-10.6h-104.6l-16.4,2.6l-29,5.4
				l-21.2,8l-13.2,8c0,0-15.8,10.6-18.4,13.2l-15.8,15.8l-21.2,23.8l-23.8,26l-23.8,29l-13.2,15.8l-15.8,10.6L1571,416l-23.8,21.2
				l-10.6,13.2L1526,456l-10.8,4.2l-10.8,4.2l-2.2,2.2l1.4,5l2.2,10.8v10.8L1500,504l-5.2,8l-6.2,2.8h-4.4l-4.4,2V534l4.4,4.2
				l6.4,4.2v2.2l-4.4,2.2l-2.2,6.4l-4.2,10.8l-6.4,10.8l-4.4,6.4h-19l-2.2-2.2l-2.2-4.2V564l-2.2-4.2h-4.4v4.2l-2.4,8.4l-2.6,21.2
				l2.6,21.2l8,10.6l18.4,8l21,10.6l21.2,13.2l8,13.2l8,8l5.2,8v18.4l-2.8,15.6l-10.6,15.8l-15.8,10.6L1484,752l-8,5.2l-5.2,5.2
				l-10.6,5.2l-13.2,5.2l-8-2.6h-8l-8,5.2l-10.6,8l-8,5.2l-10.6,5.2l-8,13.2l-8,13.2V837l-2.6,28v73l5.2,16.8l11.2,18.4l13.2,10.6
				l10.4,14.8l8.2,17v10.6l2.6,5.2l8,8l15.8,2.6l15,6.2l17.2,8.6l15,8.6l8.6,8.6l8.6,10.8l2.2,6.4l6.4,6.4l2.2,6.4l1.2,4.8v4.2
				l-10.8,10.6l-8,18.6l-2,24.2l-10.8,13l-2.2,15l4.4,10.8l6.4,10.8v10.8l-2.2,8.6l-4.4,4.4l-2,1.2l-6-0.6l-7.4-5.6l-10.6-5.2
				l-5.2-2.6l-5.2-5.2l-5.2-10.6l-2.6-5.2h-5.2l-8-2.6l-8-5.2l-2.6-8V1180l-5.2-5.2l-10.6-5.2l-8-8l-5.2-5.2l-8-5.2l-10.6-2.6
				c0,0-8-2.6-8-5.2c-0.4-2.8-1.4-5.4-2.6-8v-9.8l-8-8.6l-5.2-8l-8-5.2l-5.2-8l-8-5.2l-8-2.6l-10-2.4l-13.2-5.2l-19,15
				c0,0-10.6-2.6-13.2-5.2c-3.4-2.8-6.8-5.6-10.6-8l-5.2-10.6l-2.6-2.6h-8l-5.2,2.6l-5.2,5.2l-13.2,5.2l-12.8-20.4l-23.6,5.4l-8,2.6
				l-5.2,2.6l-2.6,8v4.2l-5.2,3.6l-8,5.2l-8,5.2l-5.2,5.2l-5.2,8l-8,5.2l-10.2,13.2l-8,8l-5.2,13.2l-5.4,18.4l-5.2,21.2l-2.6,18.6
				l-5.2,26.4l-10.6,15.8l-5.2,8l-8,2.6l-8-5.2l-8-2.6l-5.2,5.2l-5,23.6l-8,26.4l-5.2,18.4l-8,18.6l-5.2,13.2l-5,18.4l-5.2,21.2
				l-2.6,18.6l-2.6,10.6l5.2,15.8l5.2,8v15.8l-5.2,13.2l-10.6,15.8l-13.2,13.2h-13.2l-5.2-8v-6.4l-10.6-9.6l-2.6-8l-5.2-13.2l-5.2-8
				h-18.4l-8,2.6H876l-10.6,5.2l-13.2,2.6l-10.6,10.8L839,1489l-10.6,5.2l-2.6,10.6l-5.2,8h-5.2l-5.2-5.2v-7.2l-2.6-11.4l-2.6-8
				v-10.2l-2.6-5.6l-2.6-10.6l-5.2-10.6l-2.6-5.2l-2.6-10.6l-2.6-18.4l5.2-10.6v-23.6l-2.6-10.6l-5.2-10.6l-5.2-10.6V1318l-2.8-19.2
				l-2.6-15.8v-14.2l2.6-14.8l2.6-15.8l-2.6-10.6l-2.6-13.4l-5.2-7.8l-5.2-2.6l-10.6-2.6l-5.2-8l-2.6-5.2v-19l2.6-7.4l2.6-8l5.2-5.2
				l13.2-5.2l5.2-2.6l8-18.6l5.2-13.2l5.2-13.2l2.6-8l8-8l10.6-2.6l8-8l5.2-10.6l2.6-8v-20.8l2.6-8v-10.4l5.2-5.2v-13.2l-10.6-8
				l-10.8-10.6l-5.2-2.6l2.6-13.2l5.2-10.6l2.6-10.6V932l-5.2-5.2l-2.6-13.2l-8-10.6l-2.6-8l-8-2.6l-2.6-2.6l-8-5.2v-8L781,874
				l2.6-10.6l5.2-2.6l5.2-2.6l2.6-2.6v-8l-2.4-5v-8l-2.6-5.2l-2.6-8v-8l-5.2-8l-5.2-2.6l-8-5.2l-5.2-5.2v-28.8l-5.2-11v-3.4
				l-2.8-6.8l-2.6-10.6V679l-2.6-8v-8l5.2-5.2l5.2-8l8-15.8v-10.4l-2.6-8l2.6-8V570l-10.4-8l-16-2.6l-18.6-5.2l-26.4-5.2l-31.6-2.6
				l-18.4,2.6l-2.6,5.4v15.8l-2.6,10.6l-5.2,13.2l-2.6,13.2l-2.6,18.4l-2.6,18.6l-5.2,8l-13.2,10.6l-2.6,8l-2.6,13.2l-10.6,13.2
				l-10.4,10.4l-10.6-5.2l-10.6-15.8l-8-8l-5.2-8l-2.6-8l5.4-34.2l-2.6-23.8l8-26.4l5.2-8l4.8-5.2h5.8l8-2.6l6.4-1.2l6.8-1.4
				l5.2-2.6l2.6-2.6l5.2-5.2l-2.6-5.2l-5.2-5.2l-5.2-8l-2.6-10.6l-2.6-8l-5.4-2.4l-2.6-2.6h-8l-5.2-5.2L568,496l-13.2-13.2L539,467
				l-2.6-5.2l2.6-5.2l-2.6-8l-8-5.2l-15.8-10.6l-8-13.2l-2.6-13.2l5.2-5.2l13.2-2.6h13.2l10.6,5.2h13.2l13.2,5.2l10.6-13.2
				l10.6-15.8l-5.2-10.6l-0.4-15.8h-7.4l-10.4-10.4l-13.2-26.4l-10.6-29l-8-26.4l-2.6-18.8v-12.8l-2.6-13.2l-10.6-8L505,192.8
				l-15.8-8l-2.6-8l-8,2.6l-8-5.2l-5.2-2.6l-10.2-5l-2.6-8H450l-5.4,5.4H434l-8-8l-5.2-10.8v-7.6l-8-8L399.6,119l-13-10.4h-5.2
				L370,100l-10.6-10.6l-8-2.6l-5.2-5.2l-8,2.6l-13.2-8l-5.6,7.8l-4.2,6.4l-4.4,6.4l-8.6,6.4l-8.6,4.4l-13,2.2h-4.2L272,112
				l-6.4,2.2h-6.4l-2.2-4.4l-4.2,2.2l-6.4,4.4H242l-2.2-2.2l-2.2-4.4v-4.2l-2.2-2.2l-2.2,2.2V125l4.2,15l4.4,8.6l2,5.6v9.6l-4.4,2.2
				H233l-2.2-6v-7l-2.2-8.6l-2-4.4l-4.4-6.4l-6.6-6.4l-6.4-4.2l-6.4-4.4h-4.4l-2.2,2.2v4.4l4.4,4.2l13,8.6l6.4,6.4l2.2,6.4l-2.2,4.4
				l-2.2,4.4l-6.4,4.4l-10.8,2.2l-8.2,1.8h-23.8l-6.4-4.4l-2.2-4.2l-2-4.2l-6.4-2.2h-4.4l-8.6,2.2l-17.2,6.4l-6.4,2.2l-4.4-2.4v-4
				l-2.2-4.4l-2.2,1.6v2.8l-2.2,6.4l-2,4.2l-8.6,4.4l-7,2.4h-6.8l-5.6-2.4l-2.2-2.2l-8.6-2.2l-16.6,6.6L26.4,181l-4.4,2.2l-4,2
				l-4.4,2.2l-4.4,2.2H-1.6l-6.4-2.2l-6.4-2.2l-6.4-2.2l-6.4-4.4l-2.2-2.2l-2.2-4.4l-2.2-4.4l-2.2-6.4V157l-2.2-6.4v-4.4l-2.2-4.4
				l-2.2-4.4l-2.2-4.4l-2.2-4.4l-2.2-4.4l-2.2-4.4l-2.2-6.4l-2.2-6v-22L-60,81l-6.4-2.2h-4.4l-6.4-4.4l-6.4-2.2L-90,70h-8.6
				l-6.4-2.2l-8.6-2.2l-6.4-4.2l-2.2-2.2l-2.2-2.2l-2.2-2.6v-3.8l-2.2-2.2l-2.2-2.2l-2.2-2.2l-2.2-2.2l-2.2-4.4l-4.4-4.2l-2.2-4.2
				l-4.4-6.4v-45.2L-150-28l-2.2-4.2l2.2-4.2l6.4-4.8V-45l-4.4-4.2l-4.4-4.4h-4.4l-6.4-2.2l-4.4-4.2l-4.4-6.4l-2.2-8.6l-2.2-6.4
				l-2.2-6.4L-185-90l-4.4-2.6v-14.6l-4.4-2.2h-4.4l-4.4,0.4l-6.4-0.4l-4.4-2.2l-4.2-2l-2.2-4.4v-6.4l-4.4-4.4l-4.4-2.2l-4.4-6.4
				l-2.2,2v4.4l2.2,6.4v45.2l2.2,6.4l2.6,2l5.8,2h9.6l5.4,0.6l4.4,4.4l2.2,4.2l2.2,4.2l2.2,8.6l2.2,8.6v8.6L-192-19l6.4,10.8v6.4
				l4.4,6.6v5.6l-2.2,7.2v8.6l2.2,6.4V37l-2.2,4.2l-2.2,4.2v13l-2.2,4.2l-4.4,2.2V67l2.2,6.6V80l-2.2,4.4l-2.2,4.4l-2.2,4.4V104
				l-2.2,4.2l-2.2,4.2l-2.2,4.4l-4.4,2.2h-4.4l-6.4,2.2l-8.6,2.2l-6.4,2.2h-2.2l-4.4,2.2l-3.4,2.2h-3l-2.2-2.2l-2.2-2.2v-4.4
				l2.2-4.4V108l-2.2-2.2l-4.4-2.2h-8.6l-4.4-2.2h-4.2l-2.2-4.4l-2.2-4.4l-2.2-4.4l-2.2-6.4v-6.4l-2.2-6.4l-4.4-6.4l-6.4-2.2
				l-4.8-2.2h-6l-5.8-2.2h-7.2l-4.2-6.4l-2.2-4.4v-6.4l2.2-6.4V26l-2.2-6.4l-2.2-4.4l-2.2-6.4l-6.4-2.2l-4.4-4.4l-2.2-8.6L-344-15
				l-1.6-8.4v-6.2l-4.8-2h-3.6l-4.2-2l-4.2-2.2l-3.2-2h-17.8l-1.8-2h-8.6l-2.2-2.4l-4.2-4.2l-4.2-4.2l-4.2-4.2l-2.2-2h-4.2l-6.4-2
				h-8.4L-436-61l-8.4-2l-6.2-4.2l-4.2-4.2l-4.2-2.2l-6.2-2l-4.2-2L-472-82l-4.2-2h-10.6l-6.2-2l-6.4-4.2l-4.2-6.4l-4.2-6.4l-2-6.4
				l-2.2-6.4l-2-6.2l-2-8.4v-44.2l2-8.4v-16.8l-2-8.4v-6.4l-2-8.4v-12.6l2-8.4l2-8.4v-14.8l4.2-8.4l2-6.2l2.2-6.2l2-6.4l2.2-4.2
				l2.2-4.2l-2.2-4.2v-10.6l-2.2-4.2l2.2-2.2l5.2-2h5.2l6.2-2.2l6.2-2.2l4.2-4.2l6.2-6.2l6.2-4.2l4.2-4.2l6.4-6.2l6.2-6.2l6.2-8.4
				l2-8.4l4.2-6.4l4.2-6.2l4.2-8.4l4.2-8.4l4.2-8.4l4.2-8.4l4.2-2l4.2-4.2l4.2-4.2l4.2-4.2l6.4-6.2l4.2-4.2l3.8-4.2l2.4-2.2h8.4
				l5.2,2h1.4l-2.2-6.4l-2-4.2v-14.8l0.6-8.4l1.4-10.6V-509l-2-10.6l-2.2-6.2v-4.2l2.2-6.2v-29.4l2-8.4l2.2-6.2l4.2-6.4l4.2-6.2
				l4.2-4.2l4.2-6.4l2-6.2l2.2-6.2l2.2-6.4l2-6.2l4.2-6.2l4.2-8.4l6.2-8.4l4.2-6.4l6.2-6.2l4.2-4.2l4.2-4.2h12.6l4.2-4.2l2-4.2v-17
				l-2-6.2l-2.2-6.4l-2.2-6.2l-2-6.2v-4.2l2-4.2l4.2-2l6.2-2v-2h-8.4l-4.2,2l-4.2,4.2l-2,6.4l2,6.2l2.2,6.2l2.2,6.4l2,8.2v4.4
				c0,0-2,4.2-4.2,4.2s-8.4,6.2-8.4,6.2l-8.4,6.2l-6.2,6.4l-4.2,6.2l-4.2,6.2l-4.2,6.4l-4.2,6.2l-4.2,6.2l-4.2,6.4l-2,6.2l-2.2,6.2
				l-2,8.4l-2.2,6.2l-6.4,8.4l-4.2,2l-6.2,2l-8.4,2h-6.2l-6.2-2l-6.4-4.2l-6.2-2h-12.6l-4.2-2.2l-6.2-4.2l-6.2-2l-6.4-2h-12.6
				l-6.4-2h-4.2l-6.2-2h-12.6l-4.2,2l-4.2,4.2l-2.2,4.2l-2,2l-4.2,4.2l-4.2,4.2l-4.2,2l-4.8,2h-3.8l-4.2,2l-4.2,2l-4.2,2.2l-4.2,4.2
				l-4.2,4.2l-2,4.2v4.2l-2.2,4.2l-4.4,2h-4l-4.2,2l-4.2,4.2l-4.2,4.2l-2,2l-2,4.2l-2,4.2v4.2l2,4.2l2,2.2l2,2l2.2,2l2,2v10.6l-2,2
				l-2.2,2.2v4.2l2.2,2.4v6l-2.2,2.2l-2,2.2l-3.2,2l-3.2-2h-2l-0.8,2h-7.6l-4.2-2l-4.2-4.2l-4.2-4.2l-4.2-4.2l-6.4-4.2l-6.2-4.2
				l-4.2-2.2l-6.2-2l-5.8-2h-4.6l-6.4-2l-6.8-1l-5.8-1l-7.8-2H-674l-6.2,4.2l-6.8,2h-7.8l-13.4,9.2l-13,6.4l-6.4,13l-4.2,19.4
				l-6.4,13l-6.4,15l-13,10.8l-13,2.2h-8.6l-6.4,4.2l-2.2,2.2h-6.4l-4.2-2.2l-4.2-4.2l-2.2-4.2l-4.2-4.4l-6.4-2.2l-2.2-2l-2.2-6.4
				l-2.2-4.4l-2.2-8.6l-2.2-6.4l-4.2-6.4l-4.2-6.4l-8.6-15l-0.8-1.8V-1311h4885.8V671L3847,760.8z"/>
			<path id="Pre1900_HKI" class="st1" d="M-317.2,2838l0.2-1l1.4-6l2.2-8.6l2.2-6.4l13-23.8l8.6-23.8l2.2-6.4l-2.2-30v-17.6
				l-2.2-6.4l-4.4-4.6l-2.2-6.2v-6.4l2.2-2v-2.2l-2.2-4.4l-6.6-10.8l-9.8-10.8l-3.2-2.2l-10.8,2.2l-4.4-4.4l-2.2-4.4v-4.4l4.4-10.8
				l-2.2-4.4l-10.8-8.6l-2.2-2.2l2.2-2.2l4.4-2.2v-2.2l2.2-4.4l4.4-4.4v-4.4l-6.4-4.4l-6.4-6.4l-2.2-4.4l-6.4-2.2l-2.2-2.2l-2.2-4.4
				l-2.2-4.4l-6.4-4.4l-4.4-4.4h-4.4l-2.2,4.4l-2.2,3v3.4l-2.2,4.4l-2.2,2.4v10.6l-4.4,2.2h-8.6l-2.2,2.2l-2,4.4v4.4l-2.2,4.4
				l-4.4,2.2h-2.2l-4.4,2.2l-4.4,6.4l-2.2,4.4l-2.2-2.2v-4.4l-4.4-4.4l-6.4-2.2h-8.6l-2.2-2.2l-6.4-2.2l-2.2-2.2l-6.4-2.2l-4.4-4.4
				l-8.6-2.2l-6.4-6.4l-2.2-8.6l-2.2-4.4l-6.4-10.8l-4.4-13v-13l-2.2-2.2l-6.4-6.4l-2.2-4.4l4.4-6.4l2.2-15.2l2.2-10.8l4.4-10.8
				l-2.2-2.2l-2.2-9.6v-7.6l-6.4-14v-9.8l-4.4-2.2l-4.4-4.4l-1-9.2l-3.2-8l-1.8-4.4l-2.6-2.2l-8.6,2.2l-2.2-2.2l-2.2-6.4l-2.2-2.2
				l-8.6-6.4l-6.4-6.4l-2.2-6.4l2.2-4.4l-2.2-4.4l-4.4-2.2l-4.4-2.2v-4.4l2.2-2.2v-2.2l-2.2-2.2l4.4-4.4l4.4-4.4v-6.4l2.2-10.8
				l4.4-6.4l4.4-10.8v-8.6l-4.4-10.8l-6.4-2.2l-8.6-2.2l-4.4-2.2l-2.2,2.2l-6.4,4.4l-10.8,4.4l-6.4,4.4h-6.4l-8.6,2.2l-10.8,2.2
				l-14.2-2.2h-7.4l-6.4-2.2l-4.6-2.2h-4l-4.4-2.2l-4.4-2.2l-6.8-4.4H-685l-15.2-8.6l-4.4-6.4l-2.2-2.2l-4.4-2.2l-2.2-4.4l-4.4-8.6
				l-10.8-17.2l-8.6-13l-8.6-8.6l-10.8-6.4l-13-4.4l-8.6-8.6l-6.4-8.6l-2.2-8.6v-19.4l2.2-32.4l-2.2-8.6l-2.2-13l-2.2-15.2v-6.4
				l2.2-4.4l6.4-8.6l8.6-8.6l4.4-10.8l2.2-15.2l2.2-10.8l2.2-8.6l4.4-6.4l6.4-6.4l17.2-10.8l32.4-15.2l23.8-8.6l37.6-10.8h18.6
				l6.4-4.4l4.4-4.4l2.2-2.2l2.2,2.2l4.4,2.2h6.4l10.8-2.2l4.4-2.2l2.2-4.4l4.4-6.4l2.2-4.4l6.4-4.4l6.4-4.4l6.4-2.2l4.4,2.2l3.4,1
				h6.2l6.4-2.2l8.2-4.4h11.2l9.8,9.8l8.8,11.2l5.4,2.8l8.2,5.4l8.2,2.8l11,2.8h10.8l11-2.8l10.8-2.8l8.2-2.8l8.2-2.8l13.6-8.2
				l8.2-8.2l5.4-8.2l5.4-11l2.8-8.2l2.8-8.2l5.4-5.4l5.4-5.4l8.2-5.4l10.8-5.4l8.2-8.2l5.4-5.4l5.4-2.8l8.2-5.4l2.8-13.6l2.8-8.2
				l5.4-8.2l5.4-8.2v-13.6v-1c-1-1.8-2.8-4.4-2.8-4.4l2.8-8.2l5.4-5.4h10.8l8.2,2.8l10.8,2.8l16.8,2.4l4.6,4.2l3.8,3.8l2.6,1.8
				l10.8,8.2l8.2,2.8h29.8l13.6-2.8l8.2-2.6l10.8-5.4l10.8-5.4l8.2-5.4l8.2-5.4l8.2-2.8l10.8-2.6h16.2l7.8,0.8l8.6,2.2h8.6l8.6-2.2
				l3.4-3l10.8-5.4l2.6-8l2.8-8.2l2.8-2.6l5.4-0.6h19l8.2,0.6l5.2,1.6l3,7.6v5.4l5.4,5.4l8.2,2.8H48l8.2,2.6h5.4l10.8,2.8l4-2
				l4.2-2.2H85l8.6,2.2l2.2,2.2l6.4,6.4l4.4,4.4l6.4,4.2l8.6,2.2h6.4l8.6-4.2l8.6-6.4l8.6-4.2l8,1l8.2,8.2l8.2,5.4l8.2,8h16.2
				l2.8-5.4l5.4-2.8h5.4l2.8,5.4l8.2,5.4l8.2,5.4l2.6,5.4v8.2l8.2,2.8l8.2,2.6h5.4l5.4-2.6l5.4-2.8h2.8l5.4-2.6l2.8-5.4h8.2l8.2,2.8
				h16.2l10.8,5.4l5.4,2.8H344l8.2,2.6l5.4,2.8l2.8,2.6l2.8,2.6l5.4,5.4l8.2,5.4l2.8,8.2v10.8l2.8,5.4l8.2,8.2l2.8,5.4l5.4,5.4
				l5.4,5.4l2.8,5.4l2.8,2.6l5.4,5.4l5.4,8.2l2.8,8.2l5.4,5.4l5.4,8.2l8.2,8.2l5.4,5.4l2.8,5.4l2.8,5.4l2.8,5.4l8.2,5.4l5.4,10.8
				l5.4,5.4h8.2l8.2,2.6h8.2l5.4,2.8l5.4-2.8h19l5.4-2.6l13.6-2.6l13.6,2.6l13.6,2.6l16.2,5.4l13.6,5.4l13.6,5.4l8.2,5.4l10.8,8.2
				l10.8,8.2l10.8,8.2l2.8,5.4v10.8l2.8,2.6h2.4l3-2.8l2.8-2.6l8.2-2.8h19l5.4-2.6l5.4-2.6l5.4-5.4l8.2-5.4h2.8l2.8,2.8l2.8,2.6
				l5.4,5.4l2.8,2.6l5.4,5.4v3.4l-8.2,7.4l-5.4,5.4l-5.4,8l2.8,5.4h10.4l11.2,2.6l8.2,5.4l5.4,2.8l5.4,2.6l8.2,5.4l5.4,2.6l5.4,5.4
				l2.8,2.6l10.8,8.2l8.2,5.4l8.2,5.4l8.2,5.4l5.4,5.4l5.4,2.8h13.6l8.2-2.8h5.4l8.2,2.8l8.2,5.4H920l6.6,5.4l10.8-2.6l5.4-2.6
				l8.2-2.8l5.4-2.6l8.2-2.8l10.8-8.2l8.2-2.6l10.8-2.8h8.2l8.2-5.4l5.4-2.8l5.4-2.6l19,5.4l19-13.6l8.2-10.8v-10.8h16.2l27-8.2
				l13.6-10.8l10.8-2.6l16.2,24.4l-2.6,16.2l5.4,24.4l5.4,5.4h16.2l10.8-4.8l10.8-11.4l8.2-10.8l8.2-2.8l19-8.2l13.6-13.6l-8.2-21.6
				v-10.8l2.8-8.2v-5.4l-2.8-8.2v-5.4l2.8-13.6l2.6-8.2l5.4-8.2l2.6-8.2l2.8-8.2v-5.4l-5.4-5.4l-2.6-2.6v-2.8l2.6-2.6l2.6-2.6
				l2.8-2.8l5.4-2.6l8.2-2.8l8.2,2.8l8.2,8.2l2.6,13.6v5.4l-2.6,8.2l-5.4,5.4l-2.6,5.4v5.4l8.2,2.6l8.2,5.4l10.8,10.8l10.8,8.2
				l13.6,5.4l16.2,5.4l16.2,2.8h21.6l8.2,10.8l10.8,8.2l8.2,2.8l13.6-2.8l13.6-5.4l13.6-2.8l19-5.4h40.6l10.8-8.2l2.6-10.8
				l-2.8-13.6l-5.4-10.8l-5.4-13.6v-19l-2.8-16.2l-2.6-16.2v-21.6l-2.6-21.6v-21.6l-2.6-21.6l-2.6-24.4l-2.6-13.6v-16.2l2.6-10.8
				l8.2-8.2l19-24.4l16.2-19l32.4-38l13.6-16.2l10.8-8.2l11-5.2h10.8l13.6,2.8l10.8,2.6l13.6,2.6l10.8,2.8h29.8l10.8-2.8l13.6-2.6
				l19-5.4l19-5.4l19-2.6l21.6-2.6h24.4l7.6-2l12.8-6.4l15-6.4l17.2-6.4l12.8-4.4l15-8.6l8.6-4.2l4.4-1h5.2l32.2,4.4l27.8,8.6
				l21.4,8.6l17.2,12.8l15,21.4l10.8,27.8l10.8,43l4.2,12.8l4.4,10.8l8.6,21.4l13,26.8l10.6,16l12.2,14l4.8,1h6.4l8.6-6.4l6.4-6.4
				l2.2-10.8l2.2-6.4l4.4-4.4l6.4-2.2h6.4l6.4,4.2l3,6.4l3.4,6.4l4.4,6.4l8.6,12.8l6.4,12.8l2.2,2.2h2.4l1.8-2.2l6.4-6.4l8.6-12.8
				l6.4-6.4l6.4-4.4l10.8-6.4l6-2.2h6.8l8.6,2.2l8.6,4.4l10.8,6.4l10.8,6.4l21.4,8.6l24.8,4.4h11.6l8.6,2.2l6.4,4.2l12.8,12.8l15,15
				l6.4,10.8l4.2,4.4l6.4,10.8l4.2,4.4l8.6,10.8l10.8,15l8.6,15l10.8,10.8l6.4,4.4l10.8,4.2l19.4,10.8l12.8,4.4l19.4,4.2l4.8,5.4
				l4,9.6l5.4,7.6l6.6,13l15.2,30.4l15.2,30.4l6.6,4.4l13,6.6l19.6,8.6l10.8,4.4l6.6,6.6l15.2,6.6h15.2l10.8-10.8l8.6-15.2l4.4-10.8
				l-2.2-6.6l-8.6-8.6l-6.6-28.2l6.6-13l15.2-39v-8.6l-2.2-15.2l-2.2-10.8l-2.2-10.8l2.2-6.6l6.6-8.6l8.6-6.6l13-2.2l8.6,2.2
				l6.6,2.2l15.2,4.4h13l15.2-6.6l8.6-8.6l2.2-6.6l-4.4-2.2l-2.2-6.6l2.2-4.4v-2.2l-2-4.2l2.2-4.4l4.4-2.2l-2.2-4.4l2.2-2.2l6.6-4.4
				l8.6-4.4l5.6-4.6l7.6-1.6l13.6,4.6l13.6,12.2l10.6,12.2l7.6,9l9.2,10.6l6,7.6l6,4.6l4.6,7.6l7.6,4.6l7.6,6l6,6l6,4.6l7.6,3
				l10.6,6l4.4,5.2l8.6,4.4l5.4,5.4l0.2,2l-1.4,1.4l-2.2,2.2l2.2,4.4l2.2,2.2h4.4l2.2,2.2v4.4l-2.2,4.4l-2.2,6.6l-2.2,6.6l-8.6,15.2
				l-2.2,6.6l-4.4,2.2l-6.6,6.6l-4.4,2.2l-8.6,2.2h-4.4l-8.6,6.6h-2.2l-4.4,2.2l-10.8,13l-2.2,6.6v8.6l4.4,4.4l10.8,15.2v2.2
				l4.4,6.6l10.8,13l2.2,4.4l2.2,4.4l6.6,6.6l8.6,10.8l2.2,10.8l2.2,6.6l4.4,6.6l8.6,6.6h6.6l6.6-2.2l8.6-2.2l23.8-6.6h4.4l6.6,2.2
				h4.6l2.2-2.2l8.6-8.6h2.2v8.6l2.2,6.6l-2.2,10.8l-2.2,4.4v2.2l-2.2,2.2h-6.6l-2,2.4l-4.4,2.2l-2.2,4.4h-2.2l-6.6-4.4l-2.2-2.2
				l-2.2,2.2l-2.2,4.4l-4.4,8.6l-6.6,4.4h-4.4l-2.2,2.2l2.2,4.4l-2.2,6.6l-8.6,10.8l-6.6,4.4l-8.6,10.8l-2.2,6.6v6.6l4.4,6.6
				l-2.2,2.2l-6.6,13l-2.2,13l-2.2,4.4l-10.8,6.6v4.4l2.2,8.6l-2.2,4.4v4.4l2.2,4.4l4.4,2.2l2.2,4.4v2.2l2.2,2.2l-6.6,4.4l-6.6,6.6
				v6.6l-4.4,2.2l-4.4,2.2v4.4l2.2,8.6l-2.2,6.6l-4.4,6.6l-4.4,10.8l-4.4,15.2l-6.6,4.4v4.4l2.2,4.4l4.4,13l8.6,17.4l4.4,6.6
				l2.2,4.4h4.4l4.4-4.4l8.6-2.2l2.2,4.4v4.2l-2.2,13l-2.2,6.6l-8.6,17.4l-4.4,2.2h-4.4l-8.6,4.4l-6.6-2.2l-10.8-6.6v-6.6l2.2-4.4
				l2.2-6.6v-4.4l-2.2-2.2l-6.6-4.4h-2.2l-2.2,4.4l-2.2,2.2l-4.4,2.2h-6.6l-4.4-4.4l2.2-6.6l2.2-6.6v-6.6l-2.2-4.4h-2.2v6.6h-8.6
				l-6.6-4.4h-2.2l-2.2,4.4l-2.2,2.2v4.4l2.2,2.2h-6.6l-4.4,4.4l2.2,2.2l2.2,2.2v4.4l2.2,4.4l2.2,6.6l-2.2,4.4v2.2l4.4,6.6l4.4,4.4
				l2.2,6.6l4.4,8.6l2.2,2.2h10.8l2.2,2.2l6.6,10.8h13l4.4,4.4l2.2,6.6v6.6h8.6l10.8,6.6v4.4h8.6l6.6-2.2l10.8,2.2l15.2-10.8h4.2
				l6.6-4.4h4.4l8.6-8.6l8.6-4.4l8.6-10.8l8.6-2.2h13l8.6-2.2l10.8-4.4l4.4-8l2.2-0.8l13-6.6l13-6.6l4.4-6.6l17.4-17.4h2.2l4.4,4.4
				h4.4l6.6-2.2h6.6l2.2-6.6l8.6-4.4l15.2-4.4v-2.2l6.6-4.4h8.6l4.4-2.2l4.4,4.4h8.6l4.4,2.2l6.6,6.6h2.2l4.4-2.2l2.2,2.2l6.6,6.6
				l6.6,2.2l2.2,2.2v6.6l4.4,6.6l6.6,8.6l2.2,4.4l4.4,6.6l4.4,2.2l4.4,4.4l19.6,19.6l2.2,8.6l2.2,2.2l4.4,6.6l8.6,19.6l2.2,4.4
				l-2.2,4.4l2.2,4.4v6.6l2.2,4.4l8.6,6.6h2.2l2.2-6.6l4.4-4.4l6.6-2.2l6.6-4.4l10.8-6.6l10.8-10.8l13-8.6l8.6-8.6l6.6-15.2
				l4.4-17.4l-1-5.8l-9.8-20.2l-2.2-4.4l2.2-2.2l6.6-2.2l4.4-2.2l10.8-6.6l3.8-1.8l4.6-4.6l9.2,6l7.6,7.6l6,4.6l6,1.6l6,4.6l10.6,6
				l15.2,18.2l7.6,4.6l4.6,4.6l4.6,4.6l9.2,7.6l6,7.6l4.6,4.6l7.6,6l4.6,3l6,9.2l15.2,16.6l6.4,13.2l2.2,6.2l0.6,2l-3,3h-1.6
				l-4.6-1.6l-2.2-1h-6.6l-5,5.6h-6l-12.2,1.6l-5,6h-4.4l-2.2,6.6l-4.4,6.6l-6.6,13l-2.2,10.8l-4.4,10.8v4.4l4.4,4.4v4.4l2.2,2.2
				l2.2,6.6h2.2l2.2,2.2l-2.2,4.4l2.2,6.6l-2.2,4.4l2.2,6.6l2.2,2.2l-2.2,4.4l2.2,4.4h2.2l2.2-2.2l2.2,2.2v2.2l4.4,6.6l8.6,10.8
				l-2.2,2.2v4.4l-2.2,4.4l2.2,2.2h2.2l8.6,8.6v2.2l-2.2,2.2h-2.2l-4.4,4.4v4.4l4.4,6.6l-2.2,4.4l-2.2,10.8l-4.4,2.2l-6.6-4.4h-4.4
				l-2.2,4.4l-1.2,5.8L-317.2,2838z"/>
			<g id="_2019_HKI_Shoreline">
				<polyline class="st2" points="3367.4,2498.2 3365.8,2496.2 3365.4,2495.2 3365.8,2493.6 3365.8,2492.4 3363.4,2490.8 3358,2487 
					3356.6,2486.2 3243.2,2374.4 3201.8,2416.6 3179.8,2389 3170.6,2361.8 3150.8,2293.4 3147.6,2286 3147.2,2285.8 3147.2,2270 
					3143.8,2260.4 3137.6,2244.6 3125.2,2227.4 3119,2232 3130.8,2248.2 3136.6,2262.8 3139.6,2271.2 3139.6,2286.4 3123.6,2302.6 
					3141.8,2367.8 3086.2,2414.2 3074.8,2414.2 3063.4,2412.2 3057.6,2404.6 3050,2393.2 3050,2393.2 3051.8,2386.8 3026.6,2354.4 
					3105.6,2261.8 3097.8,2252 3103.8,2246.4 3087.2,2228.2 3062.8,2207 3028,2153.8 3024,2157.4 3024,2157.4 3024.6,2155.2 
					3024.6,2152.4 3008.2,2065.8 3003.6,2053.6 2947.8,2014.6 2941.6,2008 				"/>
				<polyline class="st3" points="-82.4,1678 -77,1676.6 -61.6,1672.8 87.6,1678.4 226.6,1713.6 232.8,1721.2 252.4,1745.6 
					262.2,1748 				"/>
				<polyline class="st4" points="269.6,1750 277.4,1752.2 281.2,1737.8 280.4,1736.8 272.2,1734.8 272.2,1733.6 272.6,1731 
					271.4,1730.6 270.6,1733.2 265.2,1731.6 262.6,1727.4 263.4,1723.6 267.6,1721.2 268,1721.2 273.4,1722.8 273,1725.6 
					274.2,1725.6 275,1723.2 275.4,1722 283,1724.2 				"/>
				<polyline class="st4" points="299,1728.4 306.6,1730.6 307.4,1729.8 309.2,1723 				"/>
				<polyline class="st4" points="309.4,1722.4 311.2,1715.4 310.8,1714.6 304.4,1712.8 305.2,1710 304,1709.6 303.2,1712.4 
					300.8,1712 301.6,1708.8 300.4,1708.8 300,1711.6 292.4,1709.6 				"/>
				<polyline class="st4" points="280,1706.2 272.2,1704.2 269.8,1700 271,1696 272.2,1695.4 280,1697.4 				"/>
				<polyline class="st5" points="296.6,1701.8 315.6,1707 321.4,1708.6 				"/>
				<polyline class="st4" points="329.6,1711 336,1712.8 336.8,1714 335.6,1717.8 331.4,1720 327.2,1719 328,1715.8 326.4,1715.8 
					325.6,1718.6 323.6,1717.8 324.4,1715 323.2,1714.6 322.6,1717.8 316,1715.8 315.2,1716.2 313.2,1724 				"/>
				<polyline class="st4" points="313.2,1724 311.2,1731 311.6,1731.6 320.2,1734 319.8,1735.2 320.2,1735.6 319.4,1737.8 
					320.6,1738.2 321.4,1735.6 327.2,1737 329.4,1741.4 328.2,1745.2 324.4,1747.6 318.6,1746 319,1743.6 318.2,1743.4 
					317.4,1745.6 317,1745.6 316.8,1746.8 308.6,1744.4 307.4,1745.2 303.8,1759.2 311.4,1761.2 				"/>
				<polyline class="st6" points="326.4,1765.2 326.8,1765.2 342,1765.2 347.8,1770.2 				"/>
				<polyline class="st4" points="353.4,1775.6 357.4,1782.6 359.6,1780.6 363.2,1777 				"/>
				<line class="st7" x1="376.4" y1="1763.4" x2="396.2" y2="1743"/>
				<polyline class="st4" points="402.8,1736.2 408.4,1730.4 411.4,1731.2 409.4,1739 				"/>
				<polyline class="st4" points="408.2,1743.2 406,1751 415.8,1753.6 417.6,1757 423.8,1758.6 425.8,1757.8 427.8,1750.2 				"/>
				<polyline class="st4" points="429.4,1744.4 431.6,1736.6 439.2,1738.6 437.2,1746.2 				"/>
				<polyline class="st4" points="435.6,1752 433.6,1759.8 433.8,1759.8 435,1761.8 442.8,1763.6 				"/>
				<polyline class="st4" points="444.2,1764 452,1766 453.6,1764.8 455.2,1759 				"/>
				<polyline class="st4" points="457.4,1750.8 459,1744.4 460.2,1743.6 466.8,1745.4 467.6,1746.2 465.4,1754 				"/>
				<polyline class="st4" points="463.8,1759.8 461.8,1767.6 462.8,1768.6 469,1770.2 				"/>
				<polyline class="st4" points="474.8,1771.6 480.2,1773 482.2,1771.8 484.2,1764 				"/>
				<polyline class="st4" points="485.6,1758.6 487.2,1751.6 487.6,1751.2 488,1751.2 488,1751 488.4,1751 494.6,1752.8 495,1752.8 
					495,1753.2 495.4,1753.2 495.4,1753.6 493.4,1761 				"/>
				<polyline class="st4" points="492,1766 490,1773.8 491.2,1775.6 496.6,1777.2 				"/>
				<polyline class="st4" points="502.4,1779 508.2,1780.6 510,1780 512.4,1772.2 				"/>
				<polyline class="st4" points="514,1767 516.2,1759.8 516.2,1759.4 516.6,1759.4 517,1759 517.8,1759.4 523.6,1761 524,1761.4 
					524,1761.8 524,1762 				"/>
				<polyline class="st4" points="520.2,1774.6 517.8,1782.2 519,1783.8 518.6,1784.6 526.2,1787.2 				"/>
				<polyline class="st4" points="528,1787.8 535.6,1790.4 536,1789.6 537.6,1788.8 539.4,1783.8 				"/>
				<polyline class="st4" points="542.2,1776.2 544.8,1769 544.8,1768.6 545.2,1768.6 545.6,1768.6 546,1768.6 551.8,1770.6 
					552.2,1771 552.6,1771 552.6,1771.4 552.6,1771.8 550,1778.6 				"/>
				<polyline class="st4" points="548,1784 545.2,1791.6 546.4,1793.4 546,1793.8 553.4,1796.8 				"/>
				<polyline class="st4" points="555.2,1797.4 562.6,1800.4 563,1800 565,1798.8 567,1794 				"/>
				<polyline class="st4" points="570.2,1786.4 572.8,1780 573.2,1779.6 573.6,1779.2 573.8,1779.2 580,1781.8 580.4,1782.2 
					580.4,1782.6 				"/>
				<polyline class="st4" points="574.8,1796.8 572.8,1802 573.6,1804.2 573.2,1804.6 575.8,1805.8 580.4,1807.8 				"/>
				<polyline class="st4" points="581.6,1808.4 589,1811.6 591.6,1810 593.6,1805.6 				"/>
				<polyline class="st4" points="596.8,1798.2 599.8,1790.8 607.6,1793.8 604.4,1801.2 				"/>
				<polyline class="st4" points="601.2,1817.6 604,1825.2 611.6,1822.6 				"/>
				<polyline class="st4" points="617.8,1820.4 623,1818.6 623.8,1818.6 624.2,1818.6 625,1819 625.4,1819 625.8,1819.4 626,1820.2 
					626.4,1820.6 626.4,1821.4 626.4,1821.6 626,1822.4 625.8,1823.2 625.4,1823.6 624.6,1823.6 617.8,1826 				"/>
				<polyline class="st4" points="613.2,1827.6 605.6,1830.2 608.4,1837.8 				"/>
				<polyline class="st4" points="609.4,1840.8 612.2,1848.4 619.8,1845.8 				"/>
				<polyline class="st4" points="625,1844 631.2,1841.8 631.6,1841.8 632,1841.8 632.2,1841.8 632.6,1841.8 633,1842.2 
					633.4,1842.2 633.8,1842.6 633.8,1843 634.2,1843.4 634.2,1843.8 634.6,1844.2 634.6,1844.6 634.6,1845 634.2,1845.2 
					634.2,1845.6 633.8,1846 633.4,1846.4 633,1846.8 632.2,1847.2 628.8,1848.4 				"/>
				<polyline class="st4" points="621.2,1850.8 613.8,1853.4 616.4,1861 				"/>
				<polyline class="st4" points="624.6,1872.6 625,1872.8 631.2,1876.6 631.6,1876.6 632.2,1880 639.8,1883 				"/>
				<polyline class="st8" points="653.2,1888.6 672.6,1896.4 680.6,1899.4 683.8,1901 687.2,1902.2 696.4,1906 700.4,1907.4 				"/>
				<polyline class="st4" points="707.2,1910 714.6,1913 718.2,1911 722,1911.8 				"/>
				<polyline class="st9" points="737.8,1915 739.4,1915.4 746.4,1916 749,1916.4 753,1916.8 758.8,1917.2 761.4,1917.6 765,1918 
					768.4,1920 773,1923 776,1924.6 779,1926.2 782,1927.6 786.6,1929.2 794,1929.2 806,1930 807,1930 822.2,1934.2 836,1937.8 
					843.8,1938.8 848.4,1939.2 852.8,1939.2 858.6,1938.2 863.6,1936.6 867,1935 871.2,1933 874.4,1931.2 876.8,1928.4 
					879.8,1924.6 881.4,1922.2 883.2,1919.2 883.6,1918 885.2,1915.6 885.6,1914.2 887.2,1911.4 888,1909.6 889,1907.6 
					890.2,1906.4 892.6,1903.6 895.2,1901.4 898,1899 898.6,1897.4 				"/>
				<polyline class="st4" points="901,1889.6 903.4,1882 903,1882 902.6,1881.6 902.2,1881.2 901.8,1880.8 901.4,1880 901.4,1879.6 
					901.4,1879.4 901.4,1878.6 901.4,1878.2 901.8,1877.8 902.2,1877.4 907.2,1872.6 				"/>
				<polyline class="st10" points="924.4,1864.4 925,1864.2 927,1863.8 929.2,1863.8 933.2,1863.8 935.8,1864.2 939.8,1865 
					942.4,1865.8 944.8,1866.6 946.4,1867.4 947.8,1868 949,1868.6 950.2,1869.2 952.2,1869.2 				"/>
				<polyline class="st4" points="962,1869.2 970,1869.2 967.8,1861.6 				"/>
				<polyline class="st11" points="971,1853 971.4,1853 972.2,1853.4 973,1853.4 973.8,1853.8 974.6,1854.6 975,1855 975.4,1855.8 
					975.4,1856.2 975.8,1856.8 978.2,1866.2 				"/>
				<polyline class="st4" points="979.6,1871.6 981.6,1879.4 978.4,1880 978.8,1880.4 979.2,1880.8 979.2,1881.6 979.2,1882.4 
					976,1893.2 976.4,1893.6 976.8,1892.8 978.4,1893.2 978,1895.2 976.4,1894.8 976.4,1894.4 975.8,1894 974.6,1898.6 
					975.4,1898.6 975.4,1898.2 976.8,1898.6 976.4,1901 975,1900.2 975,1899.4 973,1899 973,1901.8 973.4,1907 				"/>
				<polyline class="st12" points="978.4,1926 978.4,1926.2 980,1927 981.2,1927.6 982.2,1928.4 983.4,1928.8 985,1928.8 
					986.2,1928.8 989.2,1928.8 991.2,1928.8 993.8,1928.4 1008,1927 				"/>
				<polyline class="st4" points="1018,1925.8 1026,1925 1026,1924.6 1026.4,1923.8 1027.2,1923 1027.2,1922.2 1026.6,1917.4 				
					"/>
				<polyline class="st4" points="1025.6,1909.6 1024.8,1902.2 1024.8,1901.8 1025.2,1901.8 1025.2,1901.4 1025.6,1901.4 1026,1901 
					1032.2,1900.6 1032.6,1900.6 1033,1900.6 1033,1901 1033.4,1901.4 1034.2,1908.8 				"/>
				<polyline class="st4" points="1035,1916.4 1035.6,1921.8 1037.2,1923.8 1041.8,1923 1045.2,1922.6 				"/>
				<polyline class="st13" points="1061.6,1920.4 1065,1920 1071.2,1919.2 1081,1917.6 1094.8,1915.6 1119.4,1912 				"/>
				<polyline class="st4" points="1127.6,1910.6 1135.4,1909.6 1134.8,1910.2 1141,1905 				"/>
				<line class="st14" x1="1149.2" y1="1898" x2="1161.6" y2="1887.4"/>
				<polyline class="st4" points="1165.8,1883.8 1166,1883.6 1173.6,1882.2 1176.6,1885.2 1175,1891.2 1173.8,1892.4 				"/>
				<line class="st15" x1="1166.6" y1="1898.8" x2="1155.8" y2="1908.4"/>
				<polyline class="st4" points="1152.2,1911.6 1146.2,1917 1146.2,1920 1147.6,1924.8 				"/>
				<polyline class="st4" points="1150.2,1935 1152.4,1942.8 1159.6,1939.6 				"/>
				<line class="st16" x1="1169" y1="1935.2" x2="1183.2" y2="1928.8"/>
				<polyline class="st4" points="1188,1926.6 1195.2,1923.4 1195.2,1915.4 				"/>
				<line class="st17" x1="1195.2" y1="1906.8" x2="1195.2" y2="1894"/>
				<path class="st4" d="M1195.2,1889.6v-8l-6.6-1.4c-0.4,0-0.8-0.2-1.2-0.6"/>
				<polyline class="st4" points="1190.8,1874.2 1198.8,1875.8 1204,1867 1211.8,1865.4 				"/>
				<polyline class="st4" points="1213.6,1865 1219,1864 1221.6,1864 1218.4,1856.6 				"/>
				<path class="st18" d="M1213.4,1845c-0.6-1.6,0.2-3.6,1.8-4.2c1.6-0.6,3.6,0.2,4.2,1.8l0,0l3.6,8.2"/>
				<polyline class="st4" points="1225.4,1856.6 1228.6,1864 1235.4,1864 1236.4,1863.6 				"/>
				<polyline class="st4" points="1241.6,1861 1241.8,1860.8 1249.4,1862.4 1252.6,1868.4 1252.2,1869.6 				"/>
				<polyline class="st19" points="1249,1883.2 1246.4,1894.2 1240.4,1926.2 1240.4,1930.6 				"/>
				<polyline class="st4" points="1240.4,1937.6 1240.4,1938.2 1241,1945.6 1249,1944.4 				"/>
				<polyline class="st20" points="1262.6,1935.2 1287,1917.6 1292.8,1908 1304.2,1898.6 1317.6,1890.8 1333,1887 1344.4,1885.2 
					1388.4,1875.6 1407,1868.6 1411,1864.6 1416.4,1857.8 1421.8,1847.2 1422,1845.8 				"/>
				<polyline class="st4" points="1423,1837.6 1423,1829.6 1417.2,1825.8 1416.8,1824.8 				"/>
				<polyline class="st21" points="1414.8,1816.4 1413.4,1806.6 1412.8,1803.6 				"/>
				<polyline class="st4" points="1411.8,1799.4 1411.4,1797 1411.4,1791.4 1404.8,1787 				"/>
				<path class="st22" d="M1393.6,1779.4l-19.8-13.4c-1.6-1-2.2-3-1.2-4.6s3-2.2,4.6-1.2c0.2,0,0.2,0.2,0.4,0.2l11,7.4"/>
				<polyline class="st4" points="1394.2,1771.6 1400.8,1776 1406,1770 				"/>
				<polyline class="st23" points="1415.6,1758.8 1448.4,1720.6 1472.4,1695.4 1476.2,1692 1512.2,1658.2 				"/>
				<polyline class="st4" points="1517.6,1653.2 1518,1653 1519.4,1652.2 1520.6,1651.8 1521.8,1651.8 1523,1651.8 1524.2,1652.2 
					1525,1652.6 1531.2,1647.4 				"/>
				<path class="st24" d="M1542.6,1637.6l17.8-15.2l13.4-9.4l18.8-9.4l17.4-6.6l37.4-9.4l30.8-9.4l6.6-1.4h6.6
					c2.8,0.6,5.4,1.6,8,2.6l32.4-1"/>
				<polyline class="st4" points="1739.6,1578.4 1743.8,1578.2 1747.6,1577.4 1745,1574.2 1745,1570.2 				"/>
				<polyline class="st4" points="1743.6,1560.8 1742,1553 1749,1551.4 1750.6,1559.4 				"/>
				<polyline class="st4" points="1753,1568.4 1754.4,1571.6 1753.8,1576 1761.6,1574.4 				"/>
				<path class="st4" d="M1770.6,1572.6l7.8-1.6l-1.2-6.6c-2.4-1-3.6-4-2.6-6.4c0.2-0.6,0.6-1.2,1-1.6l-1.4-7.8"/>
				<polyline class="st4" points="1774.2,1547 1772.6,1539 1780.6,1537.6 1782,1545.6 				"/>
				<path class="st4" d="M1782.2,1546.8l1.4,7.8c1.6,0.6,2.6,2,3,3.6c0.4,1.8-0.2,3.4-1.6,4.6l1.2,6.4l7.8-1.6"/>
				<polyline class="st25" points="1809,1562.4 1825.4,1556.8 1831.4,1555.2 				"/>
				<polyline class="st4" points="1839,1553.4 1846.6,1551.4 1846.6,1546 1860.4,1546 1860.4,1550.4 1868.4,1551.4 				"/>
				<polyline class="st26" points="1883.2,1556 1917.6,1559.4 1935,1562.2 1957.6,1570.2 1980.4,1580.8 2005.8,1588.8 2031.4,1599 
					2046,1607.6 2060.6,1618.4 2068.6,1623.6 2083,1628.2 2090.2,1628.6 2103.8,1634.8 2118.2,1643 2226.8,1694 2292,1706 
					2306.6,1708 2352.2,1716.8 2431,1753.6 2474.4,1797.2 				"/>
				<polyline class="st4" points="2479.8,1802.6 2485.4,1808.4 2491.4,1813.8 				"/>
				<polyline class="st4" points="2493.8,1816 2499.6,1821.4 2501.6,1820.6 2505.8,1820.6 2511.4,1814.8 				"/>
				<polyline class="st4" points="2514.4,1812 2520,1806.2 2527,1813.2 2521.2,1819 				"/>
				<polyline class="st4" points="2519,1821.2 2513.4,1826.8 2513.4,1831.6 2512.6,1833 2518.4,1838.4 				"/>
				<polyline class="st4" points="2520,1839.8 2525.8,1845.2 2526.2,1845 2530.6,1845 2532.8,1842.8 				"/>
				<polyline class="st4" points="2538.8,1837 2544.6,1831.6 2551.4,1838.2 2545.6,1843.8 				"/>
				<polyline class="st4" points="2543.8,1845.6 2538,1851 2538,1855.6 2537.2,1856.8 2539.4,1860.8 2533.6,1866.4 				"/>
				<polyline class="st4" points="2519.6,1880.2 2513.8,1885.8 2519.4,1891.4 				"/>
				<line class="st27" x1="2528.8" y1="1900.8" x2="2542.8" y2="1915"/>
				<polyline class="st4" points="2547.6,1919.6 2553.2,1925.2 2561.2,1925.2 				"/>
				<polyline class="st25" points="2576.8,1925.2 2674.4,1925 2679,1922.2 2692.8,1916.8 				"/>
				<polyline class="st4" points="2700.2,1914 2707.6,1911 2708,1913.8 2712.2,1913 2713,1916 2721,1915.4 				"/>
				<polyline class="st4" points="2739,1913.6 2747,1913 2745.8,1908.4 2753.6,1906.6 				"/>
				<line class="st4" x1="2756.2" y1="1906" x2="2764" y2="1904.2"/>
				<path class="st2" d="M1236.2,1841.4c0.4,0,0.6,0,1-0.2l137-41.4c1.8-0.4,2.8-2.2,2.2-4s-2.2-2.8-4-2.2c0,0,0,0-0.2,0l-137,41.4
					c-1.8,0.6-2.6,2.4-2.2,4C1233.4,1840.4,1234.6,1841.4,1236.2,1841.4L1236.2,1841.4z"/>
				<polyline class="st2" points="2621.4,1815 2624.2,1814.6 2627,1814.6 2630,1814.6 2632,1814.6 2633.8,1814.6 2637.4,1814.6 
					2641.2,1815 2646.4,1815.8 2654.4,1818.2 2658,1819.4 2662.2,1821.2 2673.2,1826 2743.8,1857 2753.4,1861.6 2761.2,1866 
					2763.8,1867.8 2767.8,1870.6 2769.8,1872.2 2774.4,1876.4 2779.4,1881.8 2775.6,1885.4 2772.8,1882.2 2771.2,1880.6 
					2768.6,1878 2765,1875.2 2759.2,1871 2751.4,1866.4 2708.4,1847 2688.2,1838.4 2658.8,1825.2 2651.4,1822.8 2644.8,1821.2 
					2640.6,1820.6 2636.6,1820.2 2634.6,1820.2 2633.8,1820.2 2632,1820.2 2630,1820.2 2628.8,1820.2 2625.8,1820.6 2622.2,1820.6 
					2620.8,1821 2616,1820.2 2614.6,1819.8 2613,1819.4 2611.4,1818.6 2609.4,1817.4 2607.6,1816.6 2604.4,1815.4 2602.8,1815 
					2602.4,1814 2601.6,1812.8 2601.6,1812 2602,1811.2 2602.4,1810 2603.2,1809.2 2604.8,1809.2 2606.8,1809.6 2609.4,1810.8 
					2612.2,1812 2613.8,1812.8 2614.8,1813.2 2616,1814 2617.6,1814.4 2619.6,1814.6 2621.4,1815 				"/>
				<polyline class="st2" points="2640.6,1838.8 2639.4,1839.2 2638.4,1839.2 2636.8,1838.8 2631.8,1838.8 2629.4,1838.8 
					2627.6,1838.8 2621,1839.6 2619.2,1840 2617.6,1840.4 2613.8,1841.6 2610.2,1842.6 2606.4,1845 2604.2,1846.2 2601.4,1848 
					2599.2,1849.6 2596.4,1852 2592.2,1855.8 2590.2,1857.6 2589.2,1859.2 2588,1860.4 2587.2,1861.2 2586,1861.6 2584.8,1861.8 
					2583.8,1861.6 2583,1860.4 2583,1859.6 2583.8,1858 2584.6,1857.2 2586,1855.8 2588,1853.8 2589.8,1852 2592.2,1849.6 
					2593.8,1848 2596,1846.2 2598,1844.6 2601.8,1842.2 2604.2,1841.2 2606.4,1840 2608.4,1839.2 2612.2,1837.4 2614.2,1837 
					2616,1836.2 2618,1835.8 2619.8,1835.4 2621.8,1835 2624,1834.6 2626.8,1834.6 2629.4,1834.6 2633,1834.6 2635.6,1834.6 
					2638,1834.6 2639,1834.6 2640.2,1835 2641,1835.4 2641.4,1836.2 2641.8,1837 2641.8,1837.6 2641.4,1838.8 2640.6,1838.8 				"/>
				<polyline class="st2" points="2563.8,1859.4 2562.8,1859.4 2561.2,1859 2552.2,1868.6 2551.8,1868.6 2551.4,1867.6 
					2560.8,1858.2 2560.8,1857.4 2560.8,1857 2560.8,1856.2 2563.4,1853.6 2565,1852 2567,1850 2569.4,1847.4 2572,1845.4 
					2573.6,1843.4 2575.2,1841.4 2578.2,1838.4 2580.6,1836 2583.2,1833.8 2584.8,1832.6 2586.4,1831.8 2587.2,1831.8 2588,1832.2 
					2588.8,1833 2588.8,1833.8 2588.4,1835.2 2587.6,1836 2586.8,1837.2 2585.6,1838 2583.2,1840.4 2580.6,1843 2576.6,1847 
					2572.4,1850.8 2569.4,1853.6 2566.6,1857 2564.6,1858.6 2563.8,1859.4 				"/>
			</g>
			<g id="_2019_KLN_Shoreline">
				<polyline class="st2" points="2767.6,1559 2770.8,1577 2865.8,1673.4 2885.6,1693 2887.2,1693.4 2888.6,1693.2 2890.8,1691 
					2891.2,1689.4 2890.6,1687.2 2867.2,1661.2 2901.2,1628 2908.6,1622.6 2926.8,1641 				"/>
				<polygon class="st28" points="1930.2,871.6 1758.6,705.2 1760,698.6 1778.8,645 1786.8,647.8 1973.8,827.4 				"/>
				<path class="st28" d="M2756.2,1531.6l-2.6-4l-1.4-5.4l1.2-1.4l93.8-48l6.6-4l-20-50.8l-2.6-2.6l-14.6,1.4l-9.4,1.4l-6.6,1.4
					l-14.6,7.8l-9,3.8l-16.8-1.2l-12.2-3.6l-17.6,2.2l-19.4,2.8h-20l-4,8h-10.8l0.2-10.6l-10.4-1.6l-16.2-10.6l-13.4-10.6l-9.4-8
					l-10-17.2l-12.6-24.2l-10.6-24l-14-13l-59.4-32.6l-8-9.4l-67.2-81.6l10.6-9.4l-10.8-1.8l-22-17.6l-2.8-4c0,0.2-0.2,0.2-0.2,0.4
					c-1,0.8-2.4,1.2-3.6,1l-12.8,12.8l-4.6-4.6l12.8-12.8c-0.4-1.2,0-2.6,0.8-3.6c0.6-0.6,1.2-0.8,2-1l-2.2-3.2l-27.8-40.4l-0.4-0.4
					l-12.2,9.2l-1.2-1.6l-40.8,29.2c-1.2,0.8-2.8,0.6-3.8-0.6c-0.8-1.2-0.6-2.8,0.6-3.8l40.6-29l-1.2-1.6l11.8-9l-7.4-14.4l-4.8,3.4
					l-2.6-3.6l5.2-3.6l-8.8-10.2l-1.4-2.6l-4-6.6l-5,4.6l-0.4-0.4l-13.8-19l-42.2-51.8l-41.4-48.2l-62.8-66.8l-24-22.8l-73.6,77.6
					L1985,838l-44.2,44l65.6,63.6l9.6,5.8l103.8,96l7.2,5.4l12.8,6.8l8,1.4l14.6-14.6l61.2,60.4l3,9l-3,28.8l0.2,3.4l57.8,60v9.6
					l-45.4,47.8h-10l-48.8-49.8h-10.6l-28.6-28.6l-19.2-24.6l-486-470.6l-21.8,11.4l-34,74.4l3.6,4.2l14.6,6.8l-2.8,6l-15.4-7.2
					h-4.6l-40.6,89.2v9.8l-4.6,10.8l-10.8,4.6l-5.4-1.2l-4.8,121.2l-0.6,3.2h13.4v12H1506l-0.2,6l21.6,19l37.4,31.2l4,4l-12.8,59.6
					l-19.4,88.8l5.4,18.8l4,14.8l-45.4,32l-11.6-0.8l-5.2-4.4l-7.2,16l-10.6,4l2.6,5.4l-17.4,8l-2.8-4.8l-10.6,4.6l-8,4.2l1.4,6.6
					l1.4,4l5.4,10.6l-6.6,4l-5.4-10.6l-1.4-4l-4-6.6l-145.8,65.6l-12-26.8l-23.8-0.2l-0.2,60.4l-22.6,14.2l-9.6-12.8l17.4-10.6
					v-38.8l-15.2,6.2l-9-3l-33.4-1.4l-111.2,99l-10.2,13l-2.6,4l-11,31.2l-4.6,6.4l-0.6,2.6l-6.6,6.6l-29.4,36l-49.4,4l-13.4-10.6
					l-56.6,4.6l-1,2l-18.8,1.4l-24,2.6l-5.2-16.2l-8.2-1H808l-0.2-0.2l-10.4,14.6c-0.4,0.8-1.4,1.2-2.2,1.2c-0.6,0-1-0.2-1.6-0.4
					c-1.2-0.8-1.4-2.6-0.6-3.8l0,0l10.8-15.4l-10.8-12l-0.6,0.4l-12,14.6c-0.4,0.6-1.2,1-2,1c-0.6,0-1.2-0.2-1.8-0.6
					c-1.2-1-1.4-2.6-0.4-3.8l0,0l11.6-14.2l2.6-5.6l5.4-5.4l-4-18.8L680.6,1560l-4-23.8l96.6-20.4l1.2-5.2l1.4-5.4l2.6-1.4h3.4
					l2.6,1.6l-4.8-19l-5.4-26.8l-50,10.2H724c-1.6-0.2-3-1.6-2.8-3.2c0-1.2,1-2.4,2.2-2.8l40.4-8.2v-5.6l8-2.6l-4-16
					c-8.2,1.6-62.2,11.2-62.2,11.2c-0.2,0-0.4,0-0.6,0c-1.6-0.2-3-1.6-2.8-3.2c0-1.2,1-2.4,2.2-2.8c0,0,53.8-11.6,62-13.2l-4-26.8
					l-76.4,16.8c-0.4,0-0.8,0.2-1,0.2c-2.8,0-5.2-2.4-5.2-5.2c0-2.4,1.8-4.4,4-5l62.6-12.2v-6.6l5.4-1.4l-6-13.4l-4.4-17.2l-1.6-12
					l-11.8,1.2l-14.8,10.4l-2.4-3.2l11.4-8l-1.6-0.4l-8,2.6l-2.6-1.4l-26.8,2.6l-25.2,3.2l-0.2,2l-57.4,8l-14.8,1.4l-4-1.4l-21,2.4
					v12.4h3.4v6.6h-13.4v-6.6h3.4v-11.8l-15,3.6l-32,12l-21,20l-6,15.2l-2.6,2.4l-4,1.4l-5.8-0.6h-76l-12-9.2l-7.6-7.6l-6.2-11.8
					l-2.4-5.4v-41l-0.4-5.4l0.4-4.6l-0.4-10.4l0.4-8.2l0.4-6.6l1.6-7l2.2-6.6l4-5.4l1.4-1.4l2.6-2.6l4-2.6l0.4-1V1232
					c0-6.4-3.6-9-6.6-11.2l-0.4-0.4c-3.4-2.4-12-4.4-15.2-5c-1.2-0.2-2.2-1.4-1.8-2.8s1.4-2.2,2.8-2l0,0c0.4,0,12,2.2,17,5.8
					l0.4,0.2c3.2,2.2,8.6,6,8.6,15v24.8l65.4-0.4l83.2-118.8L533,859l-16.8-40l-131-0.8l1.2,32c0,1.4-1.2,2.8-2.6,2.8l0,0
					c-1.4,0-2.6-1.2-2.6-2.6l-1.6-33.4c0-1.4,1.2-2.8,2.6-2.8l0,0l-1-99v-36.8l-24-41l-13.4-11L312,664.6h-0.8l-15.4-12.8l-0.4-1.2
					l32.2-38.2L306,594.6l-11.2,14l-2.4-2l11.2-14L290,581.4L278.8,595l-2.4-2l11.2-13.6l-15.8-13.6l-4.2,5l-2-1.6l3.8-5l-26.8-22.4
					l-13.2,15.8l-4.6-3.8L238,538l-24-20.8l-13.4,16l-5.4-4l13.4-16l-14.8-12l-8-6.6l-17.4-10.8l-9-6.4l-22-14l0,0l-29.8-16.6
					l-27.8-19.4l-13.4-6.6l-7.2,11.4l9.8,5.6l-0.8,1.2l-9.8-5.8l-2.2,3.6l10,6.6l-0.8,1.2l-10-6.6l-3.2,5l8.6,5.8L60,450l-8.6-5.8
					L40.2,462l10.6,7l-0.8,1.2l-10.6-7l-2.2,3.4l9.6,6.4l-0.8,1.2l-9.6-6.4l-2,3v0.2l4.8,3.2l-0.8,1.2l-4.6-3l-2.6,4.2l4.2,2.8
					l-0.8,1.2l-4.2-2.8l-10.8,17.6l19.2,11.8l-1.2,2.4l-23-14l3.8-5.6l-50.6-32.2l-23.6,38.6l22.6,12.2l14,8l0.4-0.4h2l51.4,31.2
					l3.8,2.4c1.2,0.8,1.6,2.4,0.8,3.8c-0.4,0.8-1.4,1.2-2.2,1.2c-0.6,0-1-0.2-1.4-0.4l-5.8-3.6l-2.6,1.6l9,6.4l-1,1.6l-9.6-7l-4.8,3
					l8.2,8.4l-1.6,1.8l-8.8-8.8l-9.4,6l13.6,13.6l-1.6,1.6L7.6,565l-8.6,6.8l13.4,13.4l-2,2l-13.6-13.6l-0.8,0.6l-10.2,10l7.2,7.2
					l-1,2.6l-7.2-7.2l-9.4,9.2l7.4,7.4l-1.4,1.4l-7.4-7.4l-5.4,5.4l5.8,5.8L-27,610l-5.8-5.8l-1.6,1.6l8.8,10.8l8.6,6.8v0.4l0.8,0.8
					L-2,610.4h0.4l0.8,0.8v0.4l-13.8,14.2l8.4,9.8l8.8-8.8l6,6l-8.8,8.8l2,2.2l7.4-7.4V636h0.4v0.4l0.8,0.8h0.4v0.4H10L2.6,645
					l6.4,6.2l6.8-7l1.6,1.6l-6.6,7l12,11.8L41.4,646l-18.8-19l2-2.4l13.8,14L40,637l5,5.4l2.4-1.4l-5.4-5.4l1.4-1.4l5.4,5.4
					l13.4-14.8l-4-4.2l0.4-0.4L45.4,607l2-2l13.2,13.2l13.8-13.8l-3-2.4l5.4-5.4l2.6,2.6l3.8-3.8l-7.6-5.4l1.8-2.4l7.8,5.8l5-4.8
					l-1.4-1.4V587l-21.4-13.6c-1.4-0.6-2.2-2-1.6-3.4s2-2.2,3.4-1.6c0.4,0.2,0.6,0.4,0.8,0.6l14,9h6l2.6-1.4l2.6-1.4l2.6,1.4
					l1.4,2.6l4,2.6l5.4,5.4l5.4,4l10.8,8.2h0.8l0.8-0.4h1.2l0.4,0.4h0.8l0.8,0.4h0.4l0.8,0.8l0.4,0.4l0.4,0.4l0.4,0.4l0.4,0.8v0.4
					l0.4,0.8v0.8l0.6,1l4.8,1.2l5.4,7.8l3.8,10.4l3.4,6.2l7,10.6l2.6,13v11.6l-7.8,6.4l-9.2,1.6l-14.8,4l-12,6.6l-14.8,12L91,707.8
					l-6,7.6l-2.6,6.4l-0.8,6l-4,4l-9.4,9.4l-3.8,9v8.8l1.2,8l3.8,6.4l5.2,3.8l-2,6l-8.2,3l-5.8,5.2l-3.4,7.8l-3.2,4.6l5.4,5.4
					l-12,13l-5.4-5l-17.2,14.4L20.2,842l2.6,6.4l-9,11.6l-2.6,9l-2.6,10.4l-4,3.8L0,881l-6.4-3.8l-7.8-6.4l-7.8-11.6l-2.6-10.4
					l-7.8-6.4l-10.4-3.8l-9-1.2l-5.2-5.2l-2.6-14.2v-9.4l0.4-5.4l-2-4.6l-10.8-10h-22.6l-5-1.8l-7.6-3l-6-5.2l-4.6,0.6l-4.6-1.6
					l-12.2,1.6v4.6l11.8,77l2.6,16v1.2l-0.4,0.8l-0.8,0.8l-85.6,16.2l-2.4,0.4l-0.8-0.4l-0.8-0.4l-0.4-1.6l-8,1.6l-0.4-3l90.2-17
					l-2.4-11.8L-155.2,759l-2.6-5.2l-110.4,19.6v0.2l23.6,125c0.6,2.6-0.6,5.4-3,6.8l2.8,14.4c0.4,2.6-1.2,5-3.8,5.4
					c-0.2,0-0.6,0-0.8,0c-2.2,0-4.2-1.6-4.6-3.8l-21.2-112l-61.2-30.2h-6l-7.6,4.6l-31.6,7l-5.8,3.2l-4,1.4h-2.6l-4.4-2.4L-632,665
					l1.4-5.4v-8l-4-14.8l10.8-16l12-12l12-14.8l-1.4-6.6l389.2-123l-29.4-89.6l-10.6-5.4l-224.6,70.8l-73.6-234l161.8-50.8L-415,70
					l-161.8,50.8L-685.2-223L-819-181.6l-2.6-8l4-1.4l-1.4-4l-9.4-30.8l-8-16l-13.4-40.2l-1.4-5.4l2.6-2.6l-8-25.4l-6.6-4l-4-10.8
					l-9.6-17.6l1.6-7.8l9-10.6l12.4-4.2h4l2.6,6.8l-1.4,5.4l5.4,9.4l3.6,12.4l3.2,2.2l4-2.6l5.4,5.4l1.4,4l-2.6,2.6l2.4,2.2l0.4,0.2
					l17.2-3.8l14.4-96.2"/>
				<path class="st28" d="M405.6,1174.6L405.6,1174.6c-10-0.2-18.8-6.4-22.4-15.4c-1.8-4.4-3-9.2-3-14V913.8
					c0-12.2-21.4-14.8-21.6-14.8c-1.4-0.2-2.6-1.4-2.4-3c0.2-1.4,1.4-2.6,3-2.4c1,0.2,26.4,3.2,26.4,20V1145c0,1,0.2,23,20.2,24
					c1.4,0.2,2.6,1.4,2.4,3C407.8,1173.4,406.8,1174.4,405.6,1174.6L405.6,1174.6z"/>
				
					<rect x="713" y="1361" transform="matrix(0.9913 -0.1314 0.1314 0.9913 -173.7911 105.8296)" class="st28" width="4" height="17.6"/>
				<path class="st28" d="M1651,996.8c-0.6,0-1.4-0.4-1.6-1l-57.4-88.2c-0.6-1-0.4-2.2,0.6-2.8l0,0c1-0.6,2.2-0.4,2.8,0.6l0,0
					l57.4,88.2c0.6,1,0.4,2.2-0.6,2.8C1651.8,996.6,1651.4,996.8,1651,996.8z"/>
				<path class="st28" d="M1650.4,1052.2c-0.8,0-1.4-0.4-1.8-1c-0.6-1-0.2-2.2,0.8-2.8l0,0l140.4-73.6c1-0.6,2.2-0.2,2.8,0.8
					c0.6,1,0.2,2.2-0.8,2.8l0,0l-140.4,73.6C1651,1052.2,1650.6,1052.2,1650.4,1052.2z"/>
				<path class="st28" d="M2317,1203.8c-11.2,0-25.4-4-27.6-4.6c-1.4-0.4-2.2-1.8-1.8-3.4c0.4-1.4,1.8-2.2,3.4-1.8
					c10.4,3,28.8,6.4,33.8,3c7.8-5.2,30.4-22.4,30.6-22.6c1.2-1,2.8-0.8,3.8,0.2c1,1.2,0.8,2.8-0.2,3.8l-0.2,0.2
					c-1,0.8-22.8,17.6-30.8,22.8C2324.4,1203.2,2320.8,1204,2317,1203.8z"/>
				<path class="st2" d="M3446.8,1343.4h3l10.6-4.6c3,0,24.4,0.2,24.4,0.2l13.4-12h73.6l1.4-12l4-4l6.6-2.6l4,1.4l5.4,2.6l2.6,6.6
					v6.6h16v4h13.4v-4h41.4l10.6-3.6l10.6-7.2l56-107.8l26.6,13.8L3700,1355l-2.6,17.4l6.6,58.8l8,25.4l14.6,17.4l9.4,8l12,8
					l14.6,6.6l12,2.6l9.4,8l4,8v117.6l58.6,1.2"/>
				<polyline class="st4" points="288.6,1755.2 281,1753 285,1739 285.8,1738.2 293.6,1740.4 				"/>
				<polyline class="st4" points="296.8,1741.2 303.2,1743 304,1744 300.2,1758.2 292.4,1756.2 				"/>
				<polygon class="st29" points="3772.2,1217.2 3745.8,1203.6 3747,1201.4 3747,1184 3716.2,1103.6 3718.8,1097 3718.8,1086.4 
					3723,1077 3724.2,1074.2 3729.6,1074.2 3735,1082.4 3743,1093 3748.4,1099.6 3752.4,1101 3757.6,1101 3757.6,1114.4 3763,1121 
					3768.4,1129.2 3771,1133.2 3771,1141.2 3763,1165.2 3767,1177.2 3773.8,1188 3781.8,1192 				"/>
			</g>
		</g>
	</g>
</g>
<g class="st30">
	<path class="st31" d="M1233,1838.2c0,1.8,1.4,3.2,3.2,3.2c0.4,0,0.6,0,1-0.2l137-41.4c0,0,0,0,0.2,0c1.8-0.6,2.6-2.4,2-4
		c-0.6-1.8-2.4-2.6-4-2l-137,41.4C1233.8,1835.4,1233,1836.8,1233,1838.2z"/>
	<polygon class="st31" points="2551.8,1868.8 2552.2,1868.8 2561.2,1859.4 2562.8,1859.8 2563.8,1859.8 2564.6,1859 2566.6,1857.4 
		2569.4,1854 2572.4,1851.2 2576.4,1847.4 2580.6,1843.4 2583,1840.8 2585.4,1838.4 2586.8,1837.6 2587.6,1836.2 2588.4,1835.4 
		2588.8,1834.2 2588.8,1833.4 2588,1832.6 2587.2,1832.2 2586.4,1832.2 2584.6,1833 2583,1834.2 2580.6,1836.2 2578,1838.8 
		2575.2,1841.6 2573.6,1843.6 2571.8,1845.6 2569.4,1847.6 2567,1850 2565,1852 2563.4,1853.8 2560.8,1856.2 2560.8,1858.2 
		2551.4,1868 	"/>
	<polygon class="st31" points="2586.4,1855.8 2585,1857.2 2584.2,1858 2583.4,1859.6 2583.4,1860.4 2584.2,1861.6 2585.4,1861.8 
		2586.4,1861.6 2587.6,1861.2 2588.4,1860.4 2589.6,1859.2 2590.6,1857.6 2592.6,1855.6 2597,1851.8 2599.6,1849.6 2602,1848 
		2604.6,1846 2607,1844.8 2610.8,1842.6 2614.2,1841.4 2618,1840.2 2619.6,1839.8 2621.6,1839.4 2628.2,1838.6 2637.4,1838.6 
		2638.8,1839 2640,1839 2641.2,1838.6 2642,1838.6 2642.4,1837.6 2642.4,1836.8 2642,1836 2641.6,1835.2 2640.8,1834.8 
		2639.6,1834.4 2624.6,1834.4 2622.4,1834.8 2620.4,1835.2 2618.4,1835.6 2616.4,1836 2614.4,1836.8 2612.4,1837.2 2608.6,1839.2 
		2606.6,1839.8 2604.2,1841 2601.8,1842.2 2598,1844.6 2596,1846 2593.8,1848 2592.2,1849.6 2590.4,1851.8 2588.4,1853.8 	"/>
	<polygon class="st31" points="2769.8,1872.2 2767.8,1870.8 2764,1868 2761.2,1866 2753.4,1861.8 2743.8,1857 2673.2,1826 
		2662.2,1821.4 2658,1819.4 2654.6,1818.2 2646.4,1816 2641.4,1815.2 2637.4,1814.8 2624.2,1814.8 2621.6,1815.2 2619.6,1814.8 
		2617.6,1814.4 2616,1814 2614.8,1813.2 2613.6,1812.8 2612.2,1812 2609.4,1810.8 2606.6,1809.6 2604.6,1809.2 2603.2,1809.2 
		2602.4,1810 2602,1811.2 2601.6,1812 2601.6,1812.8 2602.4,1814 2602.8,1815 2604.2,1815.4 2607.4,1816.6 2609.4,1817.4 
		2611.4,1818.6 2613,1819.4 2614.6,1819.8 2616,1820.2 2620.8,1820.8 2622.2,1820.4 2625.8,1820.4 2628.8,1820.2 2636.6,1820.2 
		2640.6,1820.4 2644.8,1821.2 2651.4,1822.8 2658.8,1825.2 2688.2,1838.4 2708.4,1846.8 2751.4,1866.2 2759.2,1871 2765,1875.2 
		2768.6,1878 2771.2,1880.6 2772.8,1882.2 2775.6,1885.4 2779.6,1882 2774.4,1876.6 	"/>
	<path class="st31" d="M2766,1921.4l-2.2-6.6l2.2-4.4v-2.2l-2-4l-18.2,4l1.2,4.6l-34,3l-0.8-3l-4.2,0.8l-0.4-2.6l-28.6,11.2
		l-4.6,2.6l0,0l-121.2,0.2l-39.4-39.4l0,0l25.6-25l-2-4.2l0.6-1v-4.6l13.6-12.8l-7-6.6l-14,13.6h-4.4l-0.4,0.2l-13.4-12.2l0.8-1.4
		v-4.8l13.6-13.6l-7-7l-14.2,14.2h-4.4l-1.8,0.8l-14.2-13l0,0l0,0l-54.4-54.8l-78.8-36.8l-45.4-8.8l0,0l-14.8-2l-65.2-12l-108.6-51
		l-14.4-8.4l-13.6-6l-7.2-0.4l-14.2-4.6l-8-5.4l-14.8-10.6l-14.4-8.6l-25.6-10.2l-25.4-8l-23-10.6l-22.6-8l-17.4-2.6l-38.8-4l-9.4-4
		l-9-1v-4.4h-13.8v5.6l-21.4,5.4l-30.8,10.6l-8.2,1.8l-1.2-6.4c1.2-1.2,1.8-3,1.6-4.6c-0.4-1.6-1.6-3-3-3.6l-3-17l-7.8,1.4l3,17
		c-0.4,0.4-0.8,1-1,1.6c-1,2.4,0,5.4,2.6,6.4l1.2,6.6l-24.6,5.2l0.6-4.6l-2.6-5.4l-2.6-14.8l-7.2,1.6l3,14.8v6.4l2.4,3.2l-3.8,0.8
		l-44.2,1.4c-2.6-1-5.2-2-8-2.6h-6.6l-6.6,1.4l-30.8,9.4l-37.4,9.4l-17.4,6.6l-18.8,9.4l-13.4,9.4l-35.6,30.2l-1-0.4l-1.2-0.4h-2.4
		l-1.2,0.4l-1.6,0.8l-4.2,3.8L1476,1692l-3.8,3.4l-24,25.2l-47.4,55.4l-23.2-15.6c-0.2,0-0.2-0.2-0.4-0.2c-1.6-1-3.6-0.4-4.6,1.2
		s-0.4,3.6,1.2,4.6l37.4,25.4v5.6l2,9.6l2,13.4l2,5.8l5.8,3.8l0.2,9.4l-1.4,8l-5.4,10.6l-5.4,6.6l-4,4l-18.6,7l-44,9.6l-11.4,2
		l-15.4,3.8l-13.4,7.6l-11.4,9.6l-5.6,9.4l-37,26.8l-9,1.4l-0.8-7.2V1926l6-31.8l6-25.8l-3-6l-7.6-1.6l-6.4,3.2h-6.8l-9.2-21.4
		c-0.8-1.6-2.6-2.4-4.2-1.8s-2.4,2.6-1.8,4.2l8,18.6h-2.4l-15.2,3l-5.2,8.8l-8.6-1.4c-1.8-0.4-3.4,0.8-3.8,2.4s0.8,3.4,2.4,3.8
		l6.6,1.4v41.6l-43,19.4l-6-22.8v-3l28.8-25.8l1.6-6l-3-3l-7.6,1.6l-31.2,26.6l0.8-0.8l-40.6,6.2l-14,2l-9.6,1.6l-6.2,0.8l-12.8,2
		l-10.4,1.2l-4.6,0.8l-1.6-2l-2.4-20.6l-0.4-0.4v-0.4h-0.8l-6.2,0.4l-0.4,0.4h-0.4v0.4h-0.4v0.4l2.4,20.2v0.8l-0.8,0.8l-0.4,0.8v0.4
		l-32,3.4l-2.8,0.4h-7.8l-1.2-0.4l-1.2-0.8l-1.2-0.8l-1.6-0.8l-0.8-1.2l-0.8-0.8l-0.8-1.2l-0.8-1.2l-0.8-1.6l-0.4-1.2l-1.2-17.4
		v-2.8l2,0.4v0.8l1.6,0.8l0.4-2.4l-1.6-0.4v0.4h-0.8l1.2-4.6l0.8,0.4v0.4l1.6,0.4l0.4-2l-1.6-0.4l-0.4,0.8l-0.4-0.4l3-10.8v-1.6
		l-0.4-0.4l-0.4-0.4l3-0.8l-5.8-22.4l-0.4-0.8v-0.4l-0.4-0.8l-0.4-0.4l-0.8-0.8l-0.8-0.4h-0.8l-0.8-0.4H970l-0.8,0.4l-0.8,0.4
		l-0.8,0.4l-0.4,0.8l-0.8,0.8l-0.4,0.8v2l3,10.8h-19.6l-1.2-0.8l-0.2-0.2l-1.6-0.8l-1.6-0.8l-2.4-0.8l-2.8-0.8l-3.8-0.8l-2.6-0.4
		H927l-2,0.4l-2.4,0.4l-2,0.4l-2.4,0.8l-2.4,1.2l-2.4,1.2l-2.8,1.6l-2.6,1.6l-0.4,0.4l-5.8,5.8l-0.4,0.4l-0.4,0.4v2l0.4,0.8l0.4,0.4
		l0.4,0.4l0.4,0.4h0.4l-5.2,16.8l-2.8,2.4l-2.8,2.4l-2.4,2.8l-1.2,1.2l-1.2,2l-0.8,2l-1.6,2.8l-0.4,1.6l-1.6,2.4l-0.4,1.2l-2,3
		l-1.6,2.4l-3,3.8l-2.4,2.8l-3,2l-4.2,2l-3.4,1.6l-5,1.6l-5.8,1.2H848l-4.6-0.4l-7.8-1.2l-14-3.4l-15-4.2H806l-12-0.8h-7.4l-4.6-1.6
		l-3-1.6l-3-1.6l-3-1.6l-4.6-3l-3.4-2l-3.4-0.4l-2.8-0.4l-5.8-0.4l-3.8-0.4l-2.8-0.4l-7-0.8l-9.6-2l-11.6-2.4l-3.4,2l-9.2-3.8
		l-4.6-1.6l-4.2-1.6l-9.2-3.8l-3.4-1.2l-3-1.6l-8.2-3l-40.2-16.2l-0.8-3.4h-0.4l-6.2-3.8l-5.8-3.8l-5.4-15.4l18.6-6.2l0.8-0.4
		l0.4-0.4l0.4-0.4l0.4-0.4v-0.4l0.4-0.4v-0.8l-0.4-0.4v-0.4l-0.4-0.4v-0.4l-0.4-0.4h-0.4l-0.4-0.4h-1.6l-19,6.6L606,1831l19-6.6h0.8
		l0.4-0.4l0.4-0.8l0.4-0.8v-1.2l-0.4-0.4l-0.4-0.8l-0.4-0.4h-0.4l-0.8-0.4h-1.2l-19,6.6l-4.6-12l8.2-19.4l-7.8-3l-8.2,19.4l-2.8,1.6
		l-13.2-5.8l-2.8-1.2l0.4-0.4l-0.8-2.4l7.8-18.8v-0.8l-0.4-0.4l-6.2-2.6h-0.4l-0.4,0.4l-0.4,0.4l-7.8,19l-2,1.2l-0.4,0.4L546,1794
		l0.4-0.4l-1.2-2l7.4-19.8v-0.8h-0.4l-0.4-0.4l-5.8-2h-1v0.4l-7.4,19.8l-1.6,0.8l-0.4,0.8l-17-5.8l0.4-0.8l-1.2-1.6l6.2-20.2v-0.8
		l-0.4-0.4l-5.8-1.6l-0.8-0.4l-0.4,0.4h-0.4v0.4l-6.2,20.2l-2,0.8l-17-5l-1.2-2l5.4-20v-0.4h-0.4v-0.4h-0.4l-6.2-2H488v0.4h-0.4
		l-0.4,0.4l-5,20.2l-2,1.2l-17.4-4.2l-1.2-1.2l5.8-21.2l-0.8-0.8l-6.6-2l-1.2,0.8l-5.4,20.6l-1.4,1l-16.8-4.2l-1.2-2h-0.4l5.8-21.2
		l-7.8-2l-5.8,21.2l-2,0.8l-6.2-1.6l-2-3.4l-9.6-2.8l5.4-19.6l-3-0.8l-42.6,44l-6.2,6.2l-2.2,1.8l-4.8-8.2L342,1765h-15.2l-23-6.2
		l3.6-14l1.2-0.8l8.2,2.4l0.4-1.2h0.4l0.8-2.4l0.8,0.4l-0.4,2.4l5.8,1.6l3.8-2.4l1.2-3.8l-2.4-4.2l-5.8-1.6l-0.8,2.8l-1.2-0.4
		l0.8-2.4l-0.4-0.4l0.4-1.2l-8.6-2.4l-0.4-0.8l3.8-14.6l0.8-0.4l6.6,2l0.8-3l1.2,0.4l-0.8,2.8l2,0.8l0.8-2.6h1.6l-0.8,3l4.2,1.2
		l4.2-2.4l1.2-3.8l-0.8-1.2l-20.6-5.8l-43.4-11.6l-1.2,0.8l-0.8,4l2.2,4l27.8,7.4l0.4-2.6h1.2l-0.8,3l2.4,0.4l0.8-2.8l1.2,0.4
		l-0.8,2.6l6.6,2l0.4,0.8l-3.8,14.4l-0.8,0.8l-31.4-8.6l-0.4,1.2l-0.8,2.4H273l0.4-2.6l-5.4-1.6h-0.2l-4.2,2.4l-0.8,3.8l2.6,4.2
		l5.4,1.6l0.8-2.6l1.2,0.4l-0.4,2.6v1.2l8.2,2l0.8,1.2l-3.8,14.2l3.6,1l4-14l0.8-0.8l17.4,4.6l0.8,1.2l-3.8,14.2l-47.8-12.6
		l-19.8-24.2l-6-7.6l-139-35.2L0,1675.2v73.8v0.8v7.4l2,4.8v5.4l5.4,5.4l8.2,2.8h8.2h2.6h8.2H40h8.2l8.2,2.8h5.4l10.8,2.6l4-2
		l4.2-2.2h4.4l8.6,2.2l2.2,2.2l6.4,6.4l4.2,4.4l6.4,4.2l8.6,2.2h6.4l8.6-4.2l8.6-6.4l8.6-4.2l8,1l8.2,8.2l8.2,5.4l8.2,8.2h5.4h5.4
		h5.4l2.8-5.4l5.4-2.8h5.4l2.8,5.4l8.2,5.4l8.2,5.4l2.6,5.4v8.2l8.2,2.8l8.2,2.6h5.4l5.4-2.6l5.4-2.8h2.8l5.4-2.8l2.8-5.4h8.2
		l8.2,2.8h5.4h5.4h5.4l10.8,5.4l5.4,2.8h8.2h5.4l8.2,2.6l5.4,2.8l2.8,2.6l2.8,2.6l5.4,5.4l8.2,5.4l2.8,8.2v10.8l2.6,5.4l8.2,8.2
		l2.8,5.4l5.4,5.4l5.4,5.4l2.8,5.4l2.8,2.8l5.4,5.4l5.4,8.2l2.8,8.2l5.4,5.4l5.4,8.2l8.2,8.2l5.4,5.4l2.8,5.4l2.8,5.4l2.6,5.4
		l8.2,5.4l5.4,10.8l5.4,5.4h8.2l8.2,2.6h8.2l5.4,2.8l5.4-2.8h5.4h8.2h5.4l5.4-2.6l13.6-2.8l13.6,2.8l13.6,2.6l16.2,5.4l13.6,5.4
		l13.6,5.4l8.2,5.4l10.8,8.2l10.8,8.2l10.8,8.2l2.8,5.4v7v3.8l2.6,2.6h2.4l3-2.8l2.6-2.6l8.2-2.8h10.8h8.2l5.4-2.6l5.4-2.6l5.4-5.4
		l8.2-5.4h2.8l2.8,2.8l2.6,2.8l5.4,5.4l2.8,2.6l5.4,5.4v3.4l-8.2,7.4l-5.4,5.4l-5.4,8.2l2.8,5.4h4.8h5.8l11.2,2.6l8.2,5.4l10.8,5.4
		l8.2,5.4l5.4,2.6l5.4,5.4l2.6,2.6l10.8,8.2l8.2,5.4l8.2,5.4l8.2,5.4l5.4,5.4l5.4,2.8h8.2h5.4l8.2-2.8h5.4l8.2,2.8l8.2,5.4H893h9.8
		h5.4H919l5.8,4.8h3.2l8.2-2l5.4-2.6l8.2-2.8l5.4-2.6l8.2-2.8l10.8-8.2l8.2-2.6l10.8-2.8h8.2l8.2-5.4l5.4-2.8l5.4-2.6l19,5.4
		l19-13.6l8.2-10.8v-10.8h16.2l27-8.2l13.6-10.8l10.8-2.8l16.2,24.4l-2.6,16.2l5.4,24.4l5.4,5.4h16.2l6.6-3l0,0l4.2-1.8l0,0l0,0
		l10.8-11.4l8.2-10.8l8.2-2.8l19-8.2l13.6-13.6l-8.2-21.6V2058l2.8-8.2v-5.4l-2.8-8.2v-5.4l1-4.8l0,0l0,0l1.8-8.6l2.6-8.2l5.4-8.2
		l2.6-8.2l2.8-8.2v-5.4l-8-8.2v-2.8l2.6-2.8l2.6-2.6l2.8-2.8l0,0l5.4-2.6l8.2-2.8l0,0l8.2,2.8l8.2,8.2l2.6,13.6v5.4l-2.6,8.2
		l-5.4,5.4l-2.6,5.4v5.4l8.2,2.6l8.2,5.4l10.8,10.8l10.8,8.2l13.6,5.4l16.2,5.4l16.2,2.8h7.4l0,0h0.2l-0.2,0.2h14.2l8.2,10.8
		l10.8,8.2l8.2,2.8l13.6-2.8l13.6-5.4l13.6-2.8l19-5.4h40.6l10.8-8.2l2.6-10.8l-2.6-13.6l-5.4-10.8l-5.4-13.6v-19l-2.8-16.2
		l-1.8-11.2l0,0l0,0l-0.8-5v-21.6l-2.6-21.6V1882l-2.8-21.6l-2.8-24.4l-2.6-13.6v-16.2l2.6-10.8l8.2-8.2l19-24.4l16.4-18.8l32.4-38
		l13.6-16.2l10.8-8.2l10.8-5.4h10.8l13.6,2.6l10.8,2.6l13.6,2.6l10.8,2.8h29.8l10.8-2.8l13.6-2.6l19-5.4l19-5.6l19-2.6l21.6-2.6
		h24.4l7.6-2l12.8-6.4l15-6.4l17.2-6.4l12.8-4.4l10.8-6v-0.2l4.2-2.4l8.6-4.2l4.4-1h5.2l32.2,4.4l27.8,8.6l21.4,8.6l17.2,12.8
		l15,21.2l2.2,5.6l0.2,0.2h-0.2l8.6,22.4l10.8,43l0.2,0.2h-0.2l4.2,12.8l4.4,10.8l8.6,21.4l13,26.8l10.6,16l12.2,14l4.8,1h6.4
		l8.6-6.4l6.4-6.4l2.2-10.8l2.2-6.4l4.4-4.4l6.4-2.2h6.4l6.4,4.4l3,6.4l3.4,6.4l4.4,6.4l8.6,12.8l6.4,12.8l2.2,2.2h2.6l2-2.2
		l6.4-6.4l8.6-12.8l6.4-6.4l6.4-4.4l10.8-6.4l6-2.2h6.8l8.6,2.2l8.6,4.4l10.8,6.4l10.8,6.4l21.2,8.6l24.8,4.4h11.6l8.6,2.2l6.4,4.2
		l12.8,12.8l15,15l6.4,10.8l4.2,4.4l6.4,10.8l4.2,4.4l8.6,10.8l10.8,15l1.4,2.4l0,0l7.2,12.6l10.8,10.8l6.4,4.4l10.8,4.2l17.8,10
		l1.4,0.8l12.8,4.4l19.2,4.2l0,0l5,5.4l3.8,9.6l6.2,9.2l0,0l0,0l36,72l6.6,4.4l13,6.6l19.6,8.6l10.8,4.4l6.6,6.6l15.2,6.6h15.2
		l10.8-10.8l8.6-15.2l4.4-10.8l-2.2-6.6l-8.6-8.6l-6.6-28.2l6.6-13l15.2-39v-8.6l-1.6-11.6h-0.2l0,0l-0.6-3.6l-4.2-21.4l0.2-0.2
		l2.2-6.6l6.6-8.6l4-3l0,0l4-3l0,0l0.6-0.4l13-2.2l8.6,2.2l6.6,2.2l15.2,4.4h13l15.2-6.6l8.6-8.6l2.2-6.4L2766,1921.4z"/>
	<path class="st31" d="M3833.8,760.6l-29.2-18l-6.4-20.6l-7.8-24.6l-9-18.4l-11,5.2l-2,17l9,28.4l3.8,27.2l-11.6,23.2l-22,15.6
		l-18.8,4.8l-17.2-6.4l-10.8-4.4l-13-4.4l-6.4-2.2v-6l-8.6-2.6l-4.4-4.2l-2.2-6.4l-4.4-6.4l-4.4-6.4l-4.4-6.4l-4.4-4.4v-4.6l2.2-4
		v-34.4l-2.2-4.2l-2.2-4.4V684l1-3v-4.2l-2.2-2.2l-2.2-2.2V669l-2.2-3l-2.2-4.4l-2.2-2.2l-4.4-4.4l-30.2-28l-2.2-2.2l-4.2-5.4
		l-2.4-4.2l-2-3.4l-6.4-13l-2.2-6.4l-2.2-8.6V578l-2.2-5l-4.4-4.4v-2.2l-2.2-10.8v-6.4l-2.2-4.4l-2.2-6.4l-2.2-4.2l-2.2-4.4
		l-2.2-2.2l-2.2-2.2l-2.2-2.2l-3.2-1H3542l-6.4-2.2l-6.4-2.2l-4.4-2.2l-2.2-2.2l-2.2-2.2l-2.2-2.2l-4.4-6.4l-2.2-2.2l-4.4-2.2
		l-4.4-2.2l-6.4-2.2h-26l-12.6-6.4l-2.2-2.2l-4.4-2.2h-8.6l-4.4,2.2l-4.4,2.2h-10.6l-4.4,4.2l-4.4,2.2h-6.4l-6.4,2.2l-4.4,4.2h-4.4
		l-8.6,2.2l-2.2,6.4l-2.2,6.4l-2.2,4.4h-4.4l-4.4,2.2H3358l-4.4-2.2l-4.4-4.4l-4.4-2.2l-2.2-2.2l-2.2-2.2h-4.4l-4.4,2.2l-2.2,2.2
		l-4.4,2.2l-10.8,10.8l-2.2,2.2v3.6l-4.4,5l-2.2,4.2l-2.2,4.4v4.6l2.2,1.8l2.2,2.2h6.4l2.2,2.2v4.4l2.2,4.2l4.4,6.4v13l-4.4,4.4
		l-2.2,4.2l-2.2,4.4l-2.2,6.4l-2.2,6.4v6.4l2.2,2.2l2.2,2.2l2.2,2.2h2.2l4.4-2.2l2.2-2.2l4.4-4.2l6.4-2.2l6.4-2.2h6.4l4.4,2.2
		l2.2,4.4l2.2,4.2l4.4,8.6l6.4,8.6l10.8,4.4l15,4.2h10.8l10.8,4.4h4.4l10.8,4.2l4.4,2.2l8.6,2.2l4.4,2.2l2.2,2.2v4.2l2.2,2.2
		l2.2,2.2h4.4l2.2,2.2l2.2,2.2l2.2,2.2l2.2,4.4l2.2,6.4v4.2l2.2,15l2.2,21.6l2.2,6.4l4.4,4.2v4.4l-2.2,4.2v13l2.2,4.2l4.4,6.4v6.4
		l-4.4,10.8v4.2l4.4,8.6l4.4,6.4l2.2,6.4v6.4l2.2,6.4l4.4,6.4v6.4l6.4,6.4l4.4,2.2h6.4l2.2-2.2l3.2,2.2l1.2,4.4l2.2,6.4l2.2,6.4
		v10.8l-6.4,8.6l-2.2,2.2h-3.2l-3.2-2.2h-2.2l-6.4,6.4l-2.2,4.4l-2.2,15l-4.4,13l-2.2,8.6l-8.6,13l-2.2,6.4l-8.6,6.4l-4.4,10.8
		l-2.2,10.8l-6.4,8.6l-4.4,4.2l-2.2,8.6l-4.4,15l-2.2,10.8l-2.2,10.8l-2.2,6.4l-6.4,6.4l-6.4,10.8l-4.4,6.4l-6.4,4.4l-4.4,8.6
		l-4.4,8.6l-10.8,8.6l-15,10.8l-13,8.6l-10.8,6.4h-12.6l-4.6,4.4l-8.6,6.4l-4.4,4.4l-2.2,6.4l-2.2,4.4l-4.4,4.4l-2.2,2.2v4.4
		l-2.2,6.4l-4.4,4.4l-6.4,4.4l-10.8,13l-4.4,6.4l-6.4,17.2v4.4l4.4,6.4l2.2,2.2h10l7-2.2l4.4-2.2h6.4l10.8-8.6l2.2-2.2h6.4l2.2,2.2
		l4.4,2.2h4.4l4.4-2.2l4.4-2.2h4.4l6.4,2.2l2.2,2.2v4.4l-4.4,4.4l-2.2,2.2l-2.2,2.2l-2.2,8.6l-4.4,8.6v4.4l2.2,13l2.2,10.8l2.2,6.4
		l10.8,6.4l8.6,6.4l8.6,6.4h7.8l7.4,2.2l6.6,2l6.4,2.2l6.4,4.4l2.2,6.4l2.2,8.6l-0.2,6.2l7.6,4.6l7.6,4.6h3l10.6-4.6
		c3,0,24.4,0.2,24.4,0.2l13.4-12h73.6l1.4-12l4-4l6.6-2.6l4,1.4l5.4,2.6l2.6,6.6v6.6h16v4h13.4v-4h41.4l10.6-3.6l10.6-7.2
		l55.8-107.8l26.6,13.8l-70.4,134.2l-2.6,17.4l6.6,58.8l8,25.4l14.6,17.4l9.4,8l12,8l14.6,6.6l12,2.6l9.4,8l4,8v117.6l51.6,1V760.6
		H3833.8z M3772.2,1217.2l-26.4-13.6l1.2-2.2V1184l-30.8-80.2l2.6-6.6v-10.8l4-9.4l1.4-2.6h5.4l5.4,8l8,10.6l5.4,6.6l4,1.4h5.4v13.4
		l5.4,6.6l5.4,8l2.6,4v8l-8,24l4,12l6.6,10.6l8,4L3772.2,1217.2z"/>
	<polygon class="st31" points="3028,2153.8 3024,2157.4 3024,2157.4 3024.6,2155.2 3024.6,2152.4 3008.2,2065.8 3003.6,2053.6 
		2947.6,2014.8 2941.6,2008 2939.6,2012.4 2935.2,2025.4 2926.6,2040.6 2924.4,2047 2920,2049.2 2913.6,2055.8 2909.2,2058 
		2900.4,2060 2896.2,2060 2887.4,2066.6 2885.4,2066.6 2881,2068.8 2870.2,2081.8 2868,2088.2 2868,2097 2872.4,2101.2 
		2883.2,2116.4 2883.2,2118.6 2887.6,2125.2 2898.4,2138.2 2900.6,2142.6 2902.6,2146.8 2909.2,2153.4 2914.6,2160 3840,2160 
		3840,2160 3032,2160 	"/>
	<polygon class="st31" points="716,1360.8 712,1361.4 714.2,1378.8 718.4,1378.2 	"/>
	<path class="st31" d="M359,893.8c-1.4-0.2-2.8,0.8-3,2.4c-0.2,1.4,0.8,2.8,2.4,3c0.2,0,21.6,2.6,21.6,14.8v231.4
		c0.2,4.8,1.2,9.6,3,14c3.6,9.2,12.4,15.2,22.2,15.4h0.2c1.4,0,2.4-1,2.6-2.4s-1-2.8-2.4-3l0,0c-20-1.2-20.2-23.2-20.2-24V913.8
		C385.4,897,360.2,894,359,893.8z"/>
	<path class="st31" d="M15.4,496.8l23,14l1.2-2.4l-19.2-11.8L31.2,479l4.2,2.8l0.8-1.2l-4.4-2.8l2.6-4.2l4.6,3l0.8-1.2l-4.8-3.2V472
		l2-3l9.6,6.4l0.8-1.2l-9.6-6.4l2.2-3.4l10.6,7l0.8-1.2l-10.6-7L52,445.4l8.6,5.8l0.8-1.2l-8.6-5.8l3.2-5l10,6.6l0.8-1.2l-10-6.6
		l2.2-3.6l9.8,5.8l0.8-1.2l-9.8-5.6l7.2-11.2l13.4,6.6l27.8,19.4l29.8,16.6l0,0l0,0h0.6H138l22,14l9,6.4l17.4,10.8l8,6.6l14.8,12
		l-13.4,16l5.4,4l13.4-16l24,20.8l-13.2,15.8l4.6,3.8l13.2-15.8l27,22.4l-3.8,5l2,1.6l4.2-5l15.8,13.6l-11.2,13.6l2.4,2l11.2-13.6
		l13.6,11.2l-11.2,14l2.4,2l11.2-14l21.6,17.8l0,0h-0.2l-32,38.4l0.4,1.2l15.4,12.8h0.8l31.8-38.2l13.4,11l24,41v36.8l1,99
		c-1.4,0-2.6,1.4-2.6,2.8L382,852c0,1.4,1.2,2.6,2.6,2.6s2.6-1.4,2.6-2.8l-1.2-32l131,0.8l16.8,40l0.4,278.2L451,1257.6l-65.4,0.4
		v-26c0-9-5.4-12.8-8.6-15l-0.4-0.2c-5-3.6-16.6-5.6-17-5.8c-1.2-0.2-2.4,0.6-2.8,2s0.6,2.4,2,2.8c3,0.6,11.6,2.4,15,5l0.4,0.4
		c3,2,6.6,4.8,6.6,11.2v45.8l-0.4,1l-4,2.6l-2.6,2.6l-1.4,1.4l-4,5.4l-2.2,6.6l-1.6,7l-0.4,6.6l-0.4,8.2l0.4,10.4l-0.4,4.6l0.4,5.4
		v41l2.4,5.4l6.2,11.8l7.6,7.6l12,9.2h76l5.8,0.6l4-1.4l2.6-2.4l6-15.2l21-20l32-12l15-3.6v11.8h-3.4v6.6h13.4v-6.6h-3.4V1360
		l21-2.4l4,1.4l14.8-1.4l57.4-8l0.2-2l25.2-3.2l26.8-2.6l2.6,1.4l8-2.6l1.6,0.4l-11.4,8l2.4,3.2l14.6-10.4l11.8-1.2l0,0l0,0l0,0
		l1.6,12l4.4,17.2l6,13.4l-5.4,1.4v6.6l-62.6,12.2c-2.4,0.6-4,2.6-4,5c0,2.8,2.2,5.2,5.2,5.2c0.4,0,0.8,0,1-0.2l76.4-16.8l4,26.8
		c-8.4,1.6-62,13.2-62,13.2c-1.2,0.4-2.2,1.4-2.2,2.8c-0.2,1.6,1.2,3.2,2.8,3.2c0.2,0,0.4,0,0.6,0c0,0,54-9.6,62.2-11.2l4,16l-8,2.6
		v5.4l-40.4,8.2c-1.2,0.4-2.2,1.4-2.2,2.8c-0.2,1.6,1.2,3.2,2.8,3.2h0.6l50-10.2l5.4,26.8l4.8,18.8l-2.6-1.6h-3.4l-2.6,1.4l-1.4,5.4
		l-1.2,5.2l-96.6,20.4l4,23.8l111-22.8l0,0l4,18.8l-5.4,5.4l0,0l-2.4,5.4l-11.6,14.2l0,0c-1,1.2-0.8,2.8,0.4,3.8
		c0.4,0.4,1,0.6,1.6,0.6c0.8,0,1.6-0.4,2-1l12-14.6l0.6-0.4l10.8,12l-10.8,15.4l0,0c-0.8,1.2-0.6,2.8,0.6,3.8c0.4,0.4,1,0.4,1.6,0.4
		c0.8,0,1.6-0.4,2.2-1.2l10.4-14.6l0.2,0.2h5.4l0,0l8.2,1l5.2,16.2l24-2.6l18.8-1.4l1-2l56.6-4.6l13.4,10.6l49.4-4l29.4-36l6.6-6.6
		l0.6-2.6l4.6-6.4l11-31.2l2.6-4l6.6-8l3.6-5l111.2-99l33.4,1.4l9,3l15.2-6.2v38.8l-17.4,10.6l9.6,12.8l22.6-14.2l0.4-31.4v-27.4
		v-1.8l23.8,0.2l12,26.8l136.4-61.6l9.4-4l4,6.6l1.4,4l5.4,10.6l6.6-4l-5.4-10.6l-1.4-4l-1.4-6.6l8-4.2l10.6-4.6l2.8,4.8l17.4-8
		l-2.6-5.4l10.6-4l7.2-15.8l5.2,4.4l11.6,0.8l45.4-32l-4-14.8l-5.4-18.8l14.8-67.6l4.6-21.2v-0.2l0,0l12.8-59.6l-4-4l-37.4-31.2
		h-0.2l0.2-0.2l-21.6-19l0.2-6h13.2v-12h-14l0.6-3.2l4.8-121.2l-0.8-0.2l-80-25.8v0.2l-28-15l-8.6-2.2l-16.4-7.4l-1.6,16v73
		l5.4,16.8l10.6,18.4l13,10.4l10.4,14.8l8.2,17v10.6l2.6,5.2l8,8l16,2.6l15,6.2l17.2,8.6l15,8.6l8.6,8.6l5,6.4l0,0l3.6,4.4l2.2,6.4
		l6.4,6.4l2.2,6.4l1.2,4.8v4.4l-10.6,10.6l-8,18.6l-2,24.2l-10.8,13l-2.2,15l4.4,10.8l6.4,10.8v10.8l-2.2,8.6l-4.4,4.4l-2,1.2
		l-6-0.6l-7.4-5.6l-10.6-5.2l-5.2-2.6l-1-1l0.6-1l-3.4-3.4l-5.2-10.6l-2.6-5.2h-5.2l-8-2.6l-8-5.2l-2.6-8v-10l-5.2-5.2l-10.6-5.2
		l-8-8l-5.2-5.2l-8-5.2l-10.6-2.6c0,0-8-2.6-8-5.2c-0.4-2.8-1.4-5.4-2.6-8v-9.8l-8-8.6l-5.2-8l-8-5.2l-5.2-8l-8-5.2l-8-2.6
		l-10.6-2.6l-13.2-5.2l-19,15c0,0-10.6-2.6-13.2-5.2c-3.4-2.8-6.8-5.6-10.6-8l-5.2-10.6l-2.6-2.6h-8l-5.2,2.6l-5.2,5.2l-13.2,5.2
		l-12.8-20.4l-23.8,5.2l-8,2.6l-5.2,2.6l-2.6,8v4.4l-5.2,3.6l-8,5.2l-8,5.2l-5.2,5.2l-5.2,8l-8,5.2l-10.6,13.2l-8,8l-5.2,13.2
		l-5.4,18.4l-5.2,21.2l-2.6,18.6l-5.2,26.4l-10.6,15.8l-5.2,8l-8,2.6l-8-5.2l-8-2.6l-5.2,5.2l-5.2,23.8l-8,26.4l-5.2,18.4l-8,18.6
		l-5.2,13.2l-5.2,18.4l-5.2,21l-2.6,18.6l-2.6,10.6l5.2,15.8l5.2,8v16.2l-5.2,13.2l-10.6,15.8l-13.2,13.2h-13.2l-5.2-8v-6.2
		l-10.6-9.6l-2.6-8l-5.2-13.2l-5.2-8h-18.4l-8,2.6h-34.4l-10.6,5.2l-13.2,2.6l-10.6,10.6l-2.6,10.6l-10.6,5.2L826,1505l-5.2,8h-5.2
		l-5.2-5.2v-7.2l-2.6-11.4l-2.6-8V1471l-2.6-5.6l-2.6-10.6l-5.2-10.6l-2.6-5.2l-2.6-10.6L787,1410l5.2-10.6v-23.8l-2.6-10.6
		l-5.2-10.6l-5.2-10.6v-11l0,0v-14.6l-2.6-19.2l-2.6-15.8V1269l2.6-14.8l2.6-15.8l-2.6-10.6l-2.6-13.4l-5.2-7.8l-5.2-2.6l-10.6-2.6
		l-5.2-8l-2.6-5.2v-18.8l2.6-7.4l2.6-8l5.2-5.2l13.2-5.2l5.2-2.6l8-18.6l5.2-13.2l0,0l5.2-13l2.6-8l8-8l10.6-2.6l8-8l5.2-10.6l2.6-8
		v-11l-0.2-10.2H829h0.4l2.6-8v-10.6l5.2-5.2l0.2-13l-10.6-8l-10.6-10.6l-5.2-2.6l2.6-13.2l5.2-10.6l2.6-10.6V932l-5.2-5.2
		l-2.6-13.2l-8-10.6l-2.6-8l-8-2.6l-2.6-2.6l-8-5.2v-8l-2.6-2.6l2.6-10.6l5.4-1.8l5.2-2.6l2.6-2.6v-8l-2.6-5.2v-8l-2.6-5.2l-2.6-8
		v-8l-5.2-8l-5.2-2.6l-8-5.2l-5.2-5.2v-29l-5.2-11v-3.4l-2.8-6.6l-2.6-10.6v-52.8l-2.6-8v-8l5.2-5.2l5.2-8l8-15.8V624l-2.6-8l2.6-8
		v-38l-10.4-8l-16-2.6l-18.6-5.2L700,549l-31.6-2.6L650,549l-2.6,5.4v15.8l-2.6,10.6l-5.2,13.2l-2.6,13.2l-2.6,18.4l-2.6,18.4
		l-5.2,8l-13.2,10.6l-2.6,8l-2.6,13.2L597.6,697L587,707.6l-10.6-5.2l-10.6-15.8l-8-8l-5.2-8l-2.6-8l5.2-34.4l-2.6-23.6h-0.2l8-26.2
		h0.2l5.4-8l0,0l4.6-5h5.8l8-2.6l6.4-1.2l6.8-1.4l5.2-2.6l2.6-2.6l5.2-5.2l-2.6-5.2l-5.2-5.2l-5.2-8l-2.6-10.6l-2.6-8l-5.2-2.8
		l-2.6-2.6H576l-5.4-5.4l-2.6-6l-13-13l-15.8-15.8l-2.6-5.2l2.6-5.2l-2.6-8l-8-5.2L512.8,433l-8-13.2l-2.6-13.2l5.6-5L521,399h13.2
		l10.6,5.2H558l13.2,5.2l10.6-13.2l10.6-15.8l-5.2-10.6l-0.4-15.8h-7.4l-10.6-10.6L555.6,317L545,288l-8-26.4l-2.6-18.8v-13
		l-2.6-13.2l-10.6-8l-15.8-15.8l-15.8-8l-2.6-8l-8,2.6l-8-5.2l-5.2-2.6l-10.6-5.4l-2.6-8h-2.8l-5.2,5.4h-10.4l-8-8l-5.2-10.8v-7.4
		l-8-8l-13.2-10.6L386,108h-5.4l-10.6-8l-10.4-10.6l-8-2.6l-5.2-5.2l-8,2.6l-13.2-8l-5.8,7.8l-4.4,6.6l-4.4,6.4l-8.6,6.4l-8.6,4.4
		l-13,2.2l0,0h-4.2l-4.2,2l-6.4,2.2h-6.4l-2.2-4.4l-4.4,2.2l-6.4,4.4H242l-2.2-2.2l-2.2-4.4v-4.4l-2.2-2.2l-2.2,2.2v19.4l4.4,15
		l4.4,8.6l2,5.6v9.6l-4.2,2.2h-6.4l-2.2-6v-7l-2.2-8.6l-2.2-4.4l-4.4-6.4L216,127l-6.2-4.2l-6.4-4.4h-4.2l-2.2,2.2v4.4l4.2,4.4
		l13,8.6l6.4,6.4l2.2,6.4l-2.2,4.2l-2.2,4.4l-6.4,4.4l-10.8,2.2l-8.8,2h-23.8l-6.6-4.2l-2-4.4l-2-4.4l-6.6-2.2H147l-8.6,2.2
		l-17.2,6.4l-6.4,2.2l-4.4-2.4v-4l-2.2-4.4l-2.2,1.6v2.8l-2,6.6l-2,4.2l-8.6,4.4l-7,2.4h-6.8l-5.6-2.4l-2.2-2.2l-8.6-2.2l-10,4
		l-6.6,2.6L26.4,181l-4.2,2.2l-4.2,2l-4.4,2.2l-4.4,2.2H0v81l0,0v208.6l19.2,12.2L15.4,496.8z M1510.2,1169.4L1510.2,1169.4
		L1510.2,1169.4L1510.2,1169.4z"/>
	<polygon class="st31" points="2.6,626.4 0,629 0,641 8.6,632.4 	"/>
	<path class="st31" d="M9.2,879.8l2.6-10.4l2.6-9l9-11.6l-2.6-6.4l2.6-10.4l17.2-14.4l5.4,5l12-13l-5.4-5.4l3.2-4.6l3.4-7.8l5.6-5.2
		l8.2-3l2-6l-5.2-3.8l-3.8-6.4l-1.2-8v-8.8l3.8-9L78,732l4-4l0.8-6l2.6-6.4l6-7.6l10.8-10.8l14.8-12l12-6.6l14.8-4l9.2-1.6l7.8-6.4
		V655l-2.6-13l-7-10.6l-3.4-6.2l-3.8-10.4l-5.4-7.8l-4.8-1.2l-0.6-1V604l-0.4-0.8v-0.4l-0.4-0.8l-0.4-0.4l-0.4-0.4l-0.4-0.4
		l-0.8-0.8H130l-0.8-0.4H128l-0.4-0.4h-1.2l-0.8,0.4h-0.8l-10.8-8.2l-5.4-4l-5.4-5.4l-4-2.6l-1.4-2.6l-2.6-1.4l-2.6,1.4l-2.6,1.4h-6
		l-14-9c-0.2-0.2-0.6-0.4-0.8-0.6c-1.4-0.6-3,0.2-3.4,1.6c-0.6,1.4,0.2,3,1.6,3.4l21.4,13.6v0.2l1.4,1.4l-5,4.8l-7.8-5.8l-1.8,2.4
		l7.6,5.4l-3.8,3.8l-2.6-2.6l-5.4,5.4l3,2.4l-13.8,13.8l-13.2-13.2l-2,2l13.2,13.2l-0.4,0.4l4,4.2l-13.4,14.6l-5.4-5.4l-1.4,1.4
		l5.4,5.4l-2.4,1.4l-5-5.4l-1.6,1.6l-13.8-14l-2,2.4l19,19L23,664.6l-12-11.8l6.6-7l-1.8-1.8L9,651l-6.4-6.2l7.4-7.4h0.4V637H10
		l-0.8-0.8v-0.4H9v0.4l-7.4,7.4l-1.6-2V881l5.2,2.6L9.2,879.8z"/>
	<path class="st31" d="M21.6,580.2l1.6-1.6L9.6,565l9.4-6l8.8,8.6l1.6-1.6l-8.2-8.4l4.8-3l9.6,7l1-1.6l-9-6.4l2.6-1.6l5.6,3.6
		c0.4,0.2,1,0.4,1.4,0.4c1,0,1.8-0.4,2.2-1.2c0.8-1.2,0.4-2.8-0.8-3.6l-3.8-2.4L0,527.6v45l8-6.4L21.6,580.2z"/>
	<polygon class="st31" points="12.8,586.6 0,573.8 0,577.8 10.8,588.6 	"/>
</g>
<g class="st32">
	<g class="st33">
		<path d="M1499.4,801.2l-6.4-2.2l-62.4,75.4l80,25.8l6.2,1.6l10.8-4.6l4.6-10.8v-9.8l41-89.6h4.6l15.4,7.2l2.8-6l-14.6-6.8
			l-3.6-4.2l34-74.4l21.8-11.4l486,470.6l19.2,24.8l28.6,28.6h10.6l48.8,49.8h10l45.4-47.8v-9.6l-57.8-60l-0.2-3.4l3-28.8l-3-9
			l-61.2-60.4l-14.6,14.6l-8-1.4l-12.8-6.8l-7.2-5.4l-103.8-96l-9.6-5.8l-248.4-240.2l1.4-6.6l18.8-53.4l8,2.6l303.6,291.6
			l73.6-77.6l24,22.8l62.8,66.8l41.4,48.2l42.2,51.8l13.8,19l0.4,0.4l5-4.6l4,6.6l1.4,2.6l8.8,10.2l-5.2,3.6l2.6,3.6l4.8-3.4
			l7.4,14.4l-11.8,9l1.2,1.6l-40.6,29c-1.2,0.8-1.4,2.6-0.6,3.8c0.8,1.2,2.6,1.4,3.8,0.6l40.8-29.2l1.2,1.6l12.2-9.2l0.4,0.4
			l27.8,40.4l2.2,3.2c-0.8,0-1.4,0.4-2,1c-0.8,1-1.2,2.2-0.8,3.6l-12.8,12.8l4.6,4.6l12.8-12.8c1.2,0.4,2.6,0,3.6-1
			c0,0,0.2-0.2,0.2-0.4l2.8,4l22,17.6l10.8,1.8l72.2,83l38.2,3.4l0,0l-1.8-6.4V1255l2.2-8.8l-2.2-13.4l-4.4-10.2l-10.8-15v-32.4
			l6.4-10.6l5.4-4.4l9.6-4.4l13-2.2h8.6l4.4-2.2l-2.2-4.4l-2.2-4.4l-2.2-2.2l4.4-4.4l4.4-6.4l2.2-8.6l2.2-8.6l2.2-13l-2.2-6.4
			l4.4-6.4l6.4-8.6l6.4-8.6l4.4-2.2l10.8-2.2h10.8l8.6-2.2l4.4-8.6l2.2-13l8.6-8.6l19.4-13l10.8-6.4l13-8.6l8.6-10.8l8.6-10.8
			l2.2-2.2v-2.2h-4.4l-6.4,4.2l-4.4,2.2l-8.6-2.2l-8.6-4.2l-8.6-2.2l-8.6-2.2l-6.4-4.4v-6.4l-4.4-6.4l-8.6-4.4l-4.4-6.4l-10.8-10.8
			l-13-15l-6.4-10.8h-2.2l-2.2,6.4v21.6l2.2,17.2v4.4l-2.2,8.6l2.2,15v13l-4.4,6.4h-12.8l-8.6-2.2h-4.4l-6.4,2.2h-4.4l-4.4-2.2
			l-8.6-4.4l-8.6-6.4l-6.4-4.4l-8.6-4.2l-6.4-4.4l-2.2-4.2l-10.8-15l-25.8-34.4l-2.2-2.2h-2.2l-6.4,2.2l-6.4,2.2h-6.4l-2.2,2.2v9
			l-4.4,8.2l-4.4,2.2h-2.2l-8.6-4.4l-6.4-4.4l-4.4-4.2l-4.4-6.4l-4.4-8.6l-6.4-6.4l-6.4-4.4l-6.4-2.2l-10.8-6.4l-8.6-2.2h-15
			l-4.4,2.2h-6.4l-6.4-2.2l-8.6-2.2l-6.4-4.2l-4.4-2.2l-4.4-4.2l-4.4-2.2l-4.4-2.2l-8.6-6.4l-2.2-4.4l-2.2-4.2l-4.4-2.2h-13
			l-6.4-2.2l-6.4-2.2h-4.4l-6.4,4.2l-2.2,2.2h-2.2l-4.4-4.4l-6.4-2.2l-4.4-8.6l-6.4-6.4l-6.4-2.2l-10.8-4.4l-4.4-2.2l-4.4-6.4
			l-2.2-4.2l-4.4-2.2h-8.6l-2.2-2.2l-2.2-4.4l-6.4-4.4l-4.4-2.2l-4.4-8.6l-4.4-6.4l-2.2-6.4l-6.4-8.6l-4.4-2.2v-3.2l4.4-3.2l2.2-8.6
			v-4.4l-4.4-8.6l-4.4-2.2l-2.2-6.4v-7.8l2.2-5l6.4-4.2l8.6-4.4l4.4-6.4v-8.6l-2.2-6.4l-2.2-6.4l-2.2-6.4l-2.2-4.4v-4.4l2.2-2.2h4.4
			l4.4-6.4l4.4-8.6l-2.2-4.4l2.2-6.4h-6.4l-2.2-2.2v-2.2l6.4-4.4l6.4-4.4l0.8-1.6l-7.4-2.8l-4.4-2.2l-2.2-2.2v-4.4l-2.2-2.2v-4.4
			l-2.2-2.2l-4.4-4.4l-2.2-4.2l-34.4,6.4l-2.2,6.4l6.4,32.2l-21.6,8.6V633l-8.6-21.6v-56l-8.6-32.2l-4.4-23.8h-8.6l-2.2-2.2v-10.8
			l-2.2-2.2l-107.8-38.8l-282-10.8L1500,464.8l1.4,5l2.2,10.8v10.8l-5.8,10.8l-5.2,8l-6.2,2.8h-4.4l-4.4,2.2v17.2l4.4,4.4l6.4,4.2
			v2.2l-4.4,2.2l-2.2,6.4l-4.4,10.8l-6.4,10.8l-4.4,6.4H1450l-2.2-2.2l-2.2-4.4v-10.8l-2.2-4.2h-4.4v4.4l-2.4,8.4l-1,8l96,46.2
			l19.4,13l8.6,13l8.6,21.6l2.2,25.8l-2.2,19.4l-17.2,25.8l-8.6-4.4l-19.4,30.2l-8.6-6.4l-4.4,6.4l2.2,2.2L1506,784L1499.4,801.2z"
			/>
		<polygon points="2565.6,1272.8 2566,1280.6 2563.8,1286.2 2563.8,1295.6 2566,1300 2579.2,1315.8 2579.2,1319.6 2593.2,1332.4 
			2604,1356.4 2616.6,1380.6 2626.6,1398 2636,1406 2649.4,1416.6 2665.6,1427.2 2676,1428.6 2676,1439.4 2686.8,1439.4 
			2690.8,1431.4 2710.8,1431.4 2730.2,1428.4 2747.8,1426.2 2759.8,1429.8 2776.6,1431 2785.8,1427.2 2800.4,1419.4 2807,1418 
			2816.4,1416.6 2831.2,1415.4 2833.8,1418 2853.8,1468.8 2847.2,1472.8 2753.4,1520.8 2752.2,1522.2 2753.6,1527.6 2756.2,1531.6 
			2757.6,1526.2 2762,1524 2768.4,1524 2775,1526.2 2781.4,1530.6 2787.8,1532.6 2792.2,1537 2796.4,1539.2 2803,1543.4 
			2807.2,1543.4 2809.4,1539.2 2807.2,1524 2805,1515.4 2805,1511.2 2807.2,1506.8 2818,1502.6 2826.6,1500.4 2833,1500.4 
			2843.8,1504.6 2848.2,1506.8 2854.6,1506.8 2863.2,1502.6 2874,1502.6 2878.4,1500.4 2876.2,1481 2871.8,1474.6 2867.6,1463.8 
			2863.2,1453 2861,1440 2863.2,1435.8 2869.6,1431.4 2874,1429.4 2874,1425 2878.4,1418.4 2882.6,1412 2884.8,1409.8 
			2882.6,1407.6 2874,1407.6 2861,1405.6 2856.8,1405.6 2846,1409.8 2832.8,1409.8 2826.4,1407.6 2822,1407.6 2816,1405.6 
			2808.8,1403.8 2798.4,1402.4 2786.8,1405.6 2779.6,1405.6 2767.4,1402 2762.2,1399.8 2753.2,1398.2 2744.2,1402.4 2736.8,1405.6 
			2727.4,1407.6 2710.6,1405.6 2702.8,1398.6 2690,1397.4 2673.2,1394.8 2655.2,1388.2 2642.2,1378 2628,1361.2 2619,1347 
			2613.8,1331.4 2612.4,1321 2609.8,1309.4 2598.2,1297.8 2589.2,1291.4 2572.4,1279.6 2565.6,1272.8 2565.6,1272.8 		"/>
		<polygon points="2899.8,1616.6 2886.8,1618.8 2878.2,1625.2 2869.6,1627.4 2861,1631.8 2852.4,1631.8 2837.4,1621 2820.2,1605.8 
			2818,1603.8 2818,1600.4 2820.2,1599.4 2813.6,1588.6 2809.4,1586.6 2800.8,1584.4 2794.4,1582.2 2777,1569.2 2767.6,1559 
			2770.8,1577 2865.8,1673.4 2885.6,1693.2 2887.2,1693.4 2888.6,1693.4 2890.8,1691.2 2891.2,1689.4 2890.6,1687.4 2867.2,1661.4 
			2901.2,1628 2908.6,1622.6 2921.4,1608 2912.8,1610.2 		"/>
	</g>
	<g class="st33">
		<path d="M1649.4,1048.4c-1,0.6-1.4,1.8-0.8,2.8c0.4,0.6,1,1,1.8,1c0.4,0,0.6,0,1-0.2l140.4-73.6l0,0c1-0.6,1.4-1.8,0.8-2.8l0,0
			c-0.6-1-1.8-1.4-2.8-0.8L1649.4,1048.4L1649.4,1048.4z"/>
		<path d="M1595.2,905.4L1595.2,905.4c-0.6-1-1.8-1.2-2.8-0.6l0,0c-1,0.6-1.2,1.8-0.6,2.8l57.4,88.2c0.4,0.6,1,1,1.6,1
			c0.4,0,0.8-0.2,1-0.4c1-0.6,1.2-1.8,0.6-2.8L1595.2,905.4z"/>
		<polygon points="2930,1606 2921.4,1608 2908.6,1622.4 2926.8,1640.8 2930,1631.6 2932.2,1623 2936.4,1612.4 2938.6,1608 
			2938.6,1601.6 2936.4,1601.6 		"/>
		<polygon points="1973.8,827.2 1930.2,871.6 1940.8,882 1984.2,837.2 		"/>
		<path d="M2317,1203.8c3.8,0.2,7.4-0.6,10.6-2.2c8-5.4,30-22.2,30.8-22.8l0.2-0.2c1.2-1,1.2-2.6,0.2-3.8c-1-1.2-2.6-1.2-3.8-0.2
			c-0.2,0.2-22.8,17.4-30.6,22.6c-5,3.4-23.4,0-33.8-3c-1.4-0.4-3,0.4-3.4,1.8s0.4,2.8,1.8,3.4
			C2291.6,1199.8,2306,1203.8,2317,1203.8z"/>
		<polygon points="2566,1280.8 2566,1274.2 2565.6,1273 2527.6,1269.6 2455.4,1186.6 2444.6,1196 2511.6,1277.6 2519.6,1286.8 
			2579,1319.4 2579,1315.6 2566,1300 2563.8,1295.8 2563.8,1286.4 		"/>
	</g>
	<g class="st33">
		<polygon points="1560,652.2 1551.4,639.4 1532,626.4 1436,580.2 1434.4,593.4 1437,614.6 1445,625.2 1447.6,626.2 1457.6,603 
			1532.2,639 1535.6,635.8 1537.6,635 1541.2,635 1545.2,637 1550.6,642.4 1550.6,647.8 1548,653.2 1534.4,653.2 1531.2,651.6 
			1529.4,653.8 1513,668.6 1513.8,670 1521.8,678 1527,686 1527,704.6 1524.4,720.4 1513.8,736.2 1498,746.8 1484.8,752 
			1476.8,757.4 1471.6,762.6 1461,768 1447.8,773.2 1439.8,770.6 1431.8,770.6 1423.8,775.8 1413.2,783.8 1405.2,789.2 
			1394.6,794.4 1378.8,820.8 1378.8,837.6 1377.6,849.6 1394,857.2 1402.6,859.4 1430.6,874.4 1493,799 1499.6,801.2 1506,784 
			1512.4,773.2 1510.2,771 1514.6,764.6 1523.2,771 1542.6,740.8 1551.2,745.2 1568.4,719.4 1570.6,700 1568.6,673.8 		"/>
		<path d="M2205.4,559.4l-8-8l-5.2-8l-10.6-15.8l-13.2-10.6l-10.6-8v-5.2l-5.2-2.6V498l5.2-4.6h-9.2l-6.6-5.2l-8-8l-5.2-10.6l-2.6-8
			l-10.6-5.2l-15.8-8l-13.2-5.2l-5.2-2.6l-8-13.2l-5.2-8l-10.6-8l-8,2.6l-2.4-2.6l5.2-5.2v-10.6l2.6-8l5.2-5.2l-2.6-2.6l-5.2-2.6
			l-2.6-5.2v-2.6l-10.6-2.6l-10.6-5.2l-8-5.2l-2.6-10.6v-8.2l8-7.6l2.6-5.2l-10.6-10.2h-4.2l-6.4,2.4l-4,1.2l-2.2-3.4l8.8-5.6V304
			l-8.8,2.4l-9.8,0.4l-15.8-10.6l-18.6-15.8l-2.6-2.6l-8,2.6l-10.6-8l-2.6,5.2h-2.6l-8-5.2l-8-8l-8-5.4l-8-10.6h-105l-16.4,2.6
			l-29,5.2l-21.2,8l-13.2,8c0,0-15.8,10.6-18.4,13.2l-15.8,15.8l-21.2,23.8l-24,25l-23.8,29l-13.2,15.8l-15.8,10.6L1571,416
			l-23.8,21.2l-10.6,13.2L1526,456l-21.6,8.6l-2.2,2.2l92.6-13l69-10.8l30.2-4.4l13-2.2l282,10.8l101.2,36.6l6.4,2.2l2.2,2.2V499
			l2.2,2.2h8.6l4.4,23.8l8.6,32.2v56l8.6,21.6v23.6l21.6-8.6l-4.4-19.4l-2.2-13l2.2-6.4l34.4-6.4l-2.2-2.2l2.2-6.4l4.4-4.4l4.4-2.2
			l6.4-4.4l4.4-4.4l2.2-2.2l3.8-3.4l-2.6-8v-7.6H2205.4z"/>
	</g>
	<polygon class="st33" points="1540.8,635.4 1537.2,635.4 1535.2,636.2 1531.8,639.4 1528.8,638 1457.2,603.4 1447.2,626.6 
		1463.2,633.4 1484.4,644 1505.6,657.2 1512.6,669 1529,654.2 1530.8,652 1534,653.6 1547.6,653.6 1550.2,648.2 1550.2,642.8 
		1544.8,637.4 	"/>
</g>
</svg>
