<?xml version="1.0" encoding="utf-8"?>
<!-- Generator: Adobe Illustrator 23.0.3, SVG Export Plug-In . SVG Version: 6.00 Build 0)  -->
<svg width="3840" height="2160" version="1.1" id="_1900" xmlns="http://www.w3.org/2000/svg" xmlns:xlink="http://www.w3.org/1999/xlink" x="0px" y="0px"
	 viewBox="0 0 3840 2160" style="enable-background:new 0 0 3840 2160;" xml:space="preserve">
<style type="text/css">
	.st0{opacity:0.8;}
	.st1{fill:#666666;}
	.st2{clip-path:url(#SVGID_2_);}
	.st3{opacity:0.9;}
	.st4{fill:none;stroke:#FF8300;stroke-width:2.5;stroke-linecap:round;stroke-linejoin:round;}
	.st5{fill:none;stroke:#FF8300;stroke-width:2.5;stroke-linecap:round;stroke-linejoin:round;stroke-dasharray:9.43,9.43;}
	.st6{fill:none;stroke:#FF8300;stroke-width:2.5;stroke-linecap:round;stroke-linejoin:round;stroke-dasharray:6.86,6.86;}
	.st7{fill:none;stroke:#FF8300;stroke-width:2.5;stroke-linecap:round;stroke-linejoin:round;stroke-dasharray:8.22,8.22;}
	.st8{fill:none;stroke:#FF8300;stroke-width:2.5;stroke-linecap:round;stroke-linejoin:round;stroke-dasharray:7.83,7.83;}
	.st9{fill:none;stroke:#FF8300;stroke-width:2.5;stroke-linecap:round;stroke-linejoin:round;stroke-dasharray:7.18,7.18;}
	.st10{fill:none;stroke:#FF8300;stroke-width:2.5;stroke-linecap:round;stroke-linejoin:round;stroke-dasharray:7.55,7.55;}
	.st11{fill:none;stroke:#FF8300;stroke-width:2.5;stroke-linecap:round;stroke-linejoin:round;stroke-dasharray:8.38,8.38;}
	.st12{fill:none;stroke:#FF8300;stroke-width:2.5;stroke-linecap:round;stroke-linejoin:round;stroke-dasharray:8.4,8.4;}
	.st13{fill:none;stroke:#FF8300;stroke-width:2.5;stroke-linecap:round;stroke-linejoin:round;stroke-dasharray:8.03,8.03;}
	.st14{fill:none;stroke:#FF8300;stroke-width:2.5;stroke-linecap:round;stroke-linejoin:round;stroke-dasharray:4.8,4.8;}
	.st15{fill:none;stroke:#FF8300;stroke-width:2.5;stroke-linecap:round;stroke-linejoin:round;stroke-dasharray:7.12,7.12;}
	.st16{fill:none;stroke:#FF8300;stroke-width:2.5;stroke-linecap:round;stroke-linejoin:round;stroke-dasharray:9.94,9.94;}
	.st17{fill:none;stroke:#FF8300;stroke-width:2.5;stroke-linecap:round;stroke-linejoin:round;stroke-dasharray:8.31,8.31;}
	.st18{fill:none;stroke:#FF8300;stroke-width:2.5;stroke-linecap:round;stroke-linejoin:round;stroke-dasharray:8.21,8.21;}
	.st19{fill:none;stroke:#FF8300;stroke-width:2.5;stroke-linecap:round;stroke-linejoin:round;stroke-dasharray:5.73,5.73;}
	.st20{fill:none;stroke:#FF8300;stroke-width:2.5;stroke-linecap:round;stroke-linejoin:round;stroke-dasharray:5.69,5.69;}
	.st21{fill:none;stroke:#FF8300;stroke-width:2.5;stroke-linecap:round;stroke-linejoin:round;stroke-dasharray:8.52,8.52;}
	.st22{fill:none;stroke:#FF8300;stroke-width:2.5;stroke-linecap:round;stroke-linejoin:round;stroke-dasharray:6.32,6.32;}
	.st23{fill:none;stroke:#FF8300;stroke-width:2.5;stroke-linecap:round;stroke-linejoin:round;stroke-dasharray:8.39,8.39;}
	.st24{fill:none;stroke:#FF8300;stroke-width:2.5;stroke-linecap:round;stroke-linejoin:round;stroke-dasharray:7.88,7.88;}
	.st25{fill:none;stroke:#FF8300;stroke-width:2.5;stroke-linecap:round;stroke-linejoin:round;stroke-dasharray:8,8;}
	.st26{fill:none;stroke:#FF8300;stroke-width:2.5;stroke-linecap:round;stroke-linejoin:round;stroke-dasharray:6.39,6.39;}
	.st27{fill:none;stroke:#FF8300;stroke-width:2.5;stroke-linecap:round;stroke-linejoin:round;stroke-dasharray:8.05,8.05;}
	.st28{fill:none;stroke:#FF8300;stroke-width:2.5;stroke-linecap:round;stroke-linejoin:round;stroke-dasharray:6.16,6.16;}
	.st29{fill:none;stroke:#FF8300;stroke-width:2.5;stroke-linecap:round;stroke-linejoin:round;stroke-dasharray:6.26,6.26;}
	.st30{fill:none;stroke:#FF8300;stroke-width:2.5;stroke-linecap:round;stroke-linejoin:round;stroke-dasharray:8.16,8.16;}
	.st31{fill:none;stroke:#FF8300;stroke-width:2.5;stroke-linecap:round;stroke-linejoin:round;stroke-dasharray:8.24,8.24;}
	.st32{fill:none;stroke:#FF8300;stroke-width:2.5;stroke-linecap:round;stroke-linejoin:round;stroke-dasharray:4.67,4.67;}
	.st33{fill:none;stroke:#FF8300;stroke-width:2.5;stroke-linecap:round;stroke-linejoin:round;stroke-dasharray:7.08,7.08;}
	.st34{fill:none;stroke:#FF8300;stroke-width:2.5;stroke-linecap:round;stroke-linejoin:round;stroke-dasharray:5.45,5.45;}
	.st35{fill:none;stroke:#FF8300;stroke-width:2.5;stroke-linecap:round;stroke-linejoin:round;stroke-dasharray:9.21,9.21;}
	.st36{fill:none;stroke:#FF8300;stroke-width:2.5;stroke-linecap:round;stroke-linejoin:round;stroke-dasharray:6.97,6.97;}
	.st37{fill:none;stroke:#FF8300;stroke-width:2.5;stroke-linecap:round;stroke-linejoin:round;stroke-dasharray:7.74,7.74;}
	.st38{fill:none;stroke:#FF8300;stroke-width:2.5;stroke-linecap:round;stroke-linejoin:round;stroke-dasharray:8.23,8.23;}
	.st39{fill:none;stroke:#FF8300;stroke-width:2.5;stroke-linecap:round;stroke-linejoin:round;stroke-dasharray:8.26,8.26;}
	.st40{fill:none;stroke:#FF8300;stroke-width:2.5;stroke-linecap:round;stroke-linejoin:round;stroke-dasharray:5.72,5.72;}
	.st41{fill:none;stroke:#FF8300;stroke-width:2.5;stroke-linecap:round;stroke-linejoin:round;stroke-dasharray:7.48,7.48;}
	.st42{fill:none;stroke:#FF8300;stroke-width:2.5;stroke-linecap:round;stroke-linejoin:round;stroke-dasharray:8.04,8.04;}
	.st43{fill:none;stroke:#FF8300;stroke-width:2.5;stroke-linecap:round;stroke-linejoin:round;stroke-dasharray:6.17,6.17;}
	.st44{fill:none;stroke:#FF8300;stroke-width:2.5;stroke-linecap:round;stroke-linejoin:round;stroke-dasharray:9.72,9.72;}
	.st45{fill:none;stroke:#FF8300;stroke-width:2.5;stroke-linecap:round;stroke-linejoin:round;stroke-dasharray:7.38,7.38;}
	.st46{fill:none;stroke:#FF8300;stroke-width:2.5;stroke-linecap:round;stroke-linejoin:round;stroke-dasharray:8.74,8.74;}
	.st47{fill:none;stroke:#FF8300;stroke-width:2.5;stroke-linecap:round;stroke-linejoin:round;stroke-dasharray:8.2,8.2;}
	.st48{fill:none;stroke:#FF8300;stroke-width:2.5;stroke-linecap:round;stroke-linejoin:round;stroke-dasharray:7.84,7.84;}
	.st49{fill:none;stroke:#FF8300;stroke-width:2.5;stroke-linecap:round;stroke-linejoin:round;stroke-dasharray:4.32,4.32;}
	.st50{fill:none;stroke:#FF8300;stroke-width:2.5;stroke-linecap:round;stroke-linejoin:round;stroke-dasharray:7.72,7.72;}
	.st51{fill:none;stroke:#FF8300;stroke-width:2.5;stroke-linecap:round;stroke-linejoin:round;stroke-dasharray:6.9,6.9;}
	.st52{fill:none;stroke:#FF8300;stroke-width:2.5;stroke-linecap:round;stroke-linejoin:round;stroke-dasharray:8.13,8.13;}
	.st53{fill:none;stroke:#FF8300;stroke-width:2.5;stroke-linecap:round;stroke-linejoin:round;stroke-dasharray:8.41,8.41;}
	.st54{fill:none;stroke:#FF8300;stroke-width:2.5;stroke-linecap:round;stroke-linejoin:round;stroke-dasharray:8.54,8.54;}
	.st55{fill:none;stroke:#FF8300;stroke-width:2.5;stroke-linecap:round;stroke-linejoin:round;stroke-dasharray:8.01,8.01;}
	.st56{fill:none;stroke:#FF8300;stroke-width:2.5;stroke-linecap:round;stroke-linejoin:round;stroke-dasharray:7.91,7.91;}
	.st57{fill:none;stroke:#FF8300;stroke-width:2.5;stroke-linecap:round;stroke-linejoin:round;stroke-dasharray:7.36,7.36;}
	.st58{fill:none;stroke:#FF8300;stroke-width:2.5;stroke-linecap:round;stroke-linejoin:round;stroke-dasharray:9.27,9.27;}
	.st59{fill:none;stroke:#FF8300;stroke-width:2.5;stroke-linecap:round;stroke-linejoin:round;stroke-dasharray:7.81,7.81;}
	.st60{fill:none;stroke:#FF8300;stroke-width:2.5;stroke-linecap:round;stroke-linejoin:round;stroke-dasharray:5.94,5.94;}
	.st61{fill:none;stroke:#FF8300;stroke-width:2.5;stroke-linecap:round;stroke-linejoin:round;stroke-dasharray:6.04,6.04;}
	.st62{fill:none;stroke:#FF8300;stroke-width:2.5;stroke-linecap:round;stroke-linejoin:round;stroke-dasharray:6.52,6.52;}
	.st63{fill:none;stroke:#FF8300;stroke-width:2.5;stroke-linecap:round;stroke-linejoin:round;stroke-dasharray:5.43,5.43;}
	.st64{fill:none;stroke:#FF8300;stroke-width:2.5;stroke-linecap:round;stroke-linejoin:round;stroke-dasharray:7.93,7.93;}
	.st65{fill:none;stroke:#FF8300;stroke-width:2.5;stroke-linecap:round;stroke-linejoin:round;stroke-dasharray:6.71,6.71;}
	.st66{fill:none;stroke:#FF8300;stroke-width:2.5;stroke-linecap:round;stroke-linejoin:round;stroke-dasharray:7.13,7.13;}
	.st67{fill:none;stroke:#FF8300;stroke-width:2.5;stroke-linecap:round;stroke-linejoin:round;stroke-dasharray:6.39;}
	.st68{fill:none;stroke:#FF8300;stroke-width:2.5;stroke-linecap:round;stroke-linejoin:round;stroke-dasharray:5.25;}
	.st69{fill:none;stroke:#FF8300;stroke-width:2.5;stroke-linecap:round;stroke-linejoin:round;stroke-dasharray:6.22;}
	.st70{fill:none;stroke:#FF8300;stroke-width:2.5;stroke-linecap:round;stroke-linejoin:round;stroke-dasharray:5.42;}
	.st71{fill:none;stroke:#FF8300;stroke-width:2.5;stroke-linecap:round;stroke-linejoin:round;stroke-dasharray:2.01;}
	.st72{fill:none;stroke:#FF8300;stroke-width:2.5;stroke-linecap:round;stroke-linejoin:round;stroke-dasharray:7.04;}
	.st73{fill:none;stroke:#FF8300;stroke-width:2.5;stroke-linecap:round;stroke-linejoin:round;stroke-dasharray:4.08,4.08;}
	.st74{fill:none;stroke:#FF8300;stroke-width:2.5;stroke-linecap:round;stroke-linejoin:round;stroke-dasharray:8.64,8.64;}
	.st75{fill:none;stroke:#FF8300;stroke-width:2.5;stroke-linecap:round;stroke-linejoin:round;stroke-dasharray:6.81,6.81;}
	.st76{fill:none;stroke:#FF8300;stroke-width:2.5;stroke-linecap:round;stroke-linejoin:round;stroke-dasharray:7.39,7.39;}
	.st77{fill:none;stroke:#FF8300;stroke-width:2.5;stroke-linecap:round;stroke-linejoin:round;stroke-dasharray:7.1,7.1;}
	.st78{fill:none;stroke:#FF8300;stroke-width:2.5;stroke-linecap:round;stroke-linejoin:round;stroke-dasharray:9.02,9.02;}
	.st79{fill:none;stroke:#FF8300;stroke-width:2.5;stroke-linecap:round;stroke-linejoin:round;stroke-dasharray:8.67,8.67;}
	.st80{fill:none;stroke:#FF8300;stroke-width:2.5;stroke-linecap:round;stroke-linejoin:round;stroke-dasharray:8.76,8.76;}
	.st81{fill:none;stroke:#FF8300;stroke-width:2.5;stroke-linecap:round;stroke-linejoin:round;stroke-dasharray:7.86,7.86;}
	.st82{fill:none;stroke:#FF8300;stroke-width:2.5;stroke-linecap:round;stroke-linejoin:round;stroke-dasharray:8.45,8.45;}
	.st83{fill:none;stroke:#FF8300;stroke-width:2.5;stroke-linecap:round;stroke-linejoin:round;stroke-dasharray:7.77,7.77;}
	.st84{fill:none;stroke:#FF8300;stroke-width:2.5;stroke-linecap:round;stroke-linejoin:round;stroke-dasharray:7.15,7.15;}
	.st85{fill:none;stroke:#FF8300;stroke-width:2.5;stroke-linecap:round;stroke-linejoin:round;stroke-dasharray:8.15,8.15;}
	.st86{fill:none;stroke:#FF8300;stroke-width:2.5;stroke-linecap:round;stroke-linejoin:round;stroke-dasharray:8.89,8.89;}
	.st87{fill:none;stroke:#FF8300;stroke-width:2.5;stroke-linecap:round;stroke-linejoin:round;stroke-dasharray:9.25,9.25;}
	.st88{fill:none;stroke:#FF8300;stroke-width:2.5;stroke-linecap:round;stroke-linejoin:round;stroke-dasharray:7.65,7.65;}
	.st89{fill:none;stroke:#FF8300;stroke-width:2.5;stroke-linecap:round;stroke-linejoin:round;stroke-dasharray:7.27,7.27;}
	.st90{fill:none;stroke:#FF8300;stroke-width:2.5;stroke-linecap:round;stroke-linejoin:round;stroke-dasharray:7.44,7.44;}
	.st91{fill:none;stroke:#FF8300;stroke-width:2.5;stroke-linecap:round;stroke-linejoin:round;stroke-dasharray:9.37,9.37;}
	.st92{fill:none;stroke:#FF8300;stroke-width:2.5;stroke-linecap:round;stroke-linejoin:round;stroke-dasharray:8.18,8.18;}
	.st93{fill:none;stroke:#FF8300;stroke-width:2.5;stroke-linecap:round;stroke-linejoin:round;stroke-dasharray:10.1,10.1;}
	.st94{fill:none;stroke:#FF8300;stroke-width:2.5;stroke-linecap:round;stroke-linejoin:round;stroke-dasharray:5.44,5.44;}
	.st95{fill:none;stroke:#FF8300;stroke-width:2.5;stroke-linecap:round;stroke-linejoin:round;stroke-dasharray:9.62,9.62;}
	.st96{fill:none;stroke:#FF8300;stroke-width:2.5;stroke-linecap:round;stroke-linejoin:round;stroke-dasharray:7.24,7.24;}
	.st97{fill:none;stroke:#FF8300;stroke-width:2.5;stroke-linecap:round;stroke-linejoin:round;stroke-dasharray:6.68,6.68;}
	.st98{fill:none;stroke:#FF8300;stroke-width:2.5;stroke-linecap:round;stroke-linejoin:round;stroke-dasharray:8.96,8.96;}
	.st99{fill:none;stroke:#FF8300;stroke-width:2.5;stroke-linecap:round;stroke-linejoin:round;stroke-dasharray:4.63,4.63;}
	.st100{fill:none;stroke:#FF8300;stroke-width:2.5;stroke-linecap:round;stroke-linejoin:round;stroke-dasharray:8.55,8.55;}
	.st101{fill:none;stroke:#FF8300;stroke-width:2.5;stroke-linecap:round;stroke-linejoin:round;stroke-dasharray:7.95,7.95;}
	.st102{opacity:0.9;fill:none;stroke:#FF8300;stroke-width:5;stroke-miterlimit:10;enable-background:new    ;}
	.st103{fill:none;stroke:#FF8300;stroke-width:5;stroke-miterlimit:10;}
</style>
<g class="st0">
	<g>
		<path class="st1" d="M742.8,1189.6l-1.6,4.8l0,0l-3.8,11.2l3.8-11.2l-10.6,5.8l-19.2,8.6l-4.2,2.2l-2.2,4.2l-2.2,4.2v5.8H696
			l-1.8,24h8.4l2.2-29.8l2.2-4.2l2.2-2.2l4.2-2.2l19.2-6.4l4.8,1l5.4,5.4L756,1272l-10.6,50.6l1.8,11.8l-17.4,2.4l-5.8,2.8v5l4.4,25
			l6.6,9c0.6,0.8,2,1,2.8,0.4c1-0.6,1.2-2,0.6-3l-6-8.2l-4-23.4v-2.2l2.8-1.4l16.6-2.4l5,31.2l-6,1.6l-0.4-2.6l-4.2,0.6l1.4,9.6
			l4.2-0.6l-0.4-2.6l6.8-1.6l4.4,4.4l9,44.6l-39.2,7.6v4.2l40-7.6l5.2,26l-41,9.4v4.2l41.6-9.8l5.4,26.6l-49.2,8.8v4.2l50-8.8
			l3.8,18.6l-9,1v4.2l9.6-1.4l7.2,36l-4.8,0.6l1.6,10.6l5.4-0.6l1.6,7.6l2.6,5.2l5.4,5.4l8,5.4l10.6,2.6l6-0.4v4.6h6.4v-5l120.6-7.2
			v2.6l5-0.4l0.8,20.8h4.8v-21l11.2-0.6v21.8h5.2l-0.8-22l19-1.2l-10.6,8l2.4,2.8l37.2-26.6l-2.6-5.4l8-13.2l5.4,2.6l8-16h-5.4
			l5.4-10.6l-16-5.4l24-87.6l29.2-37.2l42.6-146.2l55.8-61.2l29,26.4l39.8-50.4l13.4,10.6l5.4-8h10.6l8,5.4l5.4,5.4l5.4,8l5.4,5.4
			l13.2,8l10.6,10.6h5.4l5.4,5.4l2.6,8l8,5.4l2.6,5.4l-7,8l12.8,8.6l7.6-8.6l8,2.6v5.4l5.4,2.6h5.4l2.6,2.6l2.6,5.4l37.2,24h5.4
			l2.6-2.6l5.4,2.6v8l5.4,5.4h2.6l2.6-2.6l24.8-37.6l-4.4-8.8l-2.6-5.4h-5.4l-8-2.6l-8-5.4l-2.6-8v-10.6l-5.4-5.4l-10.6-5.4l-8-8
			l-5.4-5.4l-8-5.4l-10.6-2.6c0,0-8-2.6-8-5.4c-0.4-2.8-1.4-5.4-2.6-8v-10l-8-8.8l-5.4-8l-8-5.4l-5.4-8l-8-5.4l-8-2.6l-10.6-2.6
			l-13.2-5.4l-13.4-8c0,0-10.6-2.6-13.2-5.4c-3.4-2.8-7-5.6-10.6-8l-5.4-10.6l-2.6-2.6h-8l-5.4,2.6l-5.4,5.4l-13.4,5.4l-18.6,2.6
			l-24,5.4l-8,2.6l-5.4,2.6l-2.6,8v4.2l-5.4,3.6l-8,5.4l-8,5.4l-5.4,5.4l-5.4,8l-8,5.4l-10.6,13.2l-8,8l-5.4,13.2l-5.4,18.6
			l-5.4,21.2l-2.6,18.6l-5.4,26.6l-10.6,16l-5.4,8l-8,2.6l-8-5.4l-8-2.6l-5.4,5.4l-5.4,24l-8,26.6l-5.4,18.6l-8,18.6l-5.4,13.2
			l-5.4,18.6l-5.2,21.2l-2.6,18.6l-2.6,10.6l5.4,16l5.4,8v16l-5.4,13.2l-10.6,16l-13.2,13.2H978l-5.4-8v-6.2L962,1515l-2.6-8
			l-5.4-13l-5.4-8H930l-8,2.6h-34.6l-10.6,5.4l-13.2,2.6l-10.6,10.6l-2.6,10.6l-10.6,5.4l-2.6,10.6l-5.2,8h-5.4l-5.4-5.4v-7.2
			l-2.6-11.4l-2.6-8v-10.2l-2.6-5.8l-2.6-10.6l-5.4-10.6l-2.6-5.4l-2.6-10.6l-2.6-18.6l5.4-10.6v-24l-2.6-10.6l-5.4-10.6l-5.4-10.6
			V1346l-2.6-19.4l-2.6-16v-14.4l2.6-14.8l2.6-16l-2.6-10.6l-2.6-13.4l-5.4-7.8l-5.4-2.6l-10.6-2.6l-5.4-8l-2.6-5.4v-19.2l2.6-7.4
			l2.6-8l5.4-5.4l13.2-5.4l5.4-2.6l8-18.6l5.2-13.2l5.4-13.2l2.6-8l-67.8-20l-30.2-9l-2.2,4.2l31.6,8.6l-15,65.2l30.6,7l-6.6,9
			L742.8,1189.6z"/>
		<polygon class="st1" points="1422.8,934.6 1441.4,900 1393.6,876.2 1392.2,890.8 1392.2,964.2 1397.6,981 1408.2,999.6 
			1421.6,1010.4 1432.2,1021 1440.2,1042.2 1440.2,1052.8 1442.8,1058.2 1450.8,1066.2 1466.8,1068.8 1485.4,1068.8 1498.6,1074.2 
			1514.6,1079.4 1530.6,1087.4 1532,1086.2 1509.6,1067.2 1521.6,1055.2 1517.8,1051.4 1505.6,1063.6 1441.8,1009.2 1436.4,998.6 
			1420.4,964 1420.4,940 		"/>
	</g>
	<g>
		<path class="st1" d="M1197.2,2045.6l-1.4,2.8c0,0-1.2,87.6,0,86.6l5.4-2.4l10.6-11.2l8-10.6l8-2.6l18.6-8l13.2-13.2l-8-21.2v-10.6
			l2.6-8v-5.4l-2.6-8v-5.4l1.6-8.4l-53.6,23L1197.2,2045.6z"/>
		<path class="st1" d="M1251,1993.4c0,0.6-1.6,7.2-2.6,11.6l4.2,1c0.4-1.4,0.6-2.4,0.8-3.6l4.6,1l-0.4,1v8.6l10.6-10.6l4.2-6.4
			l4.2-12.8l-2.2-4.2l-4.2-4.2l-2.2-4.2l-2-6.4l1.6-4.8l-7.8,3.6l-9.4,8.6c-1.6,1.6-1.8,4.2-0.6,6c0.6,1,1.8,1.6,3,1.6
			c0.8,0,1.8-0.4,2.4-1l6.6-5.8l2,3.6l0.2,7.6l-0.2,1.4l-3-0.6c1-2,1-2.2,1-2.2l-4-1.6c-0.2,0.4-2.8,5.6-4.4,8.6l3.8,2
			c0.6-1,1-2,1.4-2.8l4.2,1l-1,5.2l-2,5.6l-5.4-1.2c1-4,1-4.2,1-4.2L1251,1993.4z"/>
		<path class="st1" d="M2.6,1751.8v5.4l5.4,5.4l8,2.6h31.8l8,2.6H61l10.6,2.6h16l5.4,2.6l2.6,2.6l2.6,5.4l5.4,2.6h5.4l5.4,2.6
			l2.6,2.6h10.6l5.4-2.8l5.4-2.6l2.6-2.6l5.2-5.4l5.4-2.6h2.6l5.4-2.6l5.4-2.6l2.6-2.6h2.2l5.4,2.6l8,5.4l5.4,5.4l10.6,8l8,8l8,5.4
			l8,8h16l2.6-5.4l5.4-2.6h5.4l2.6,5.4l8,5.4l8,5.4l2.6,5.4v8l8,2.6l8,2.6h5.4l5.4-2.6l5.4-2.6h2.6l5.4-2.6l2.6-5.4h8l8,2.6h16
			l10.6,5.4l5.4,2.6h13.2l8,2.6l5.4,2.6l2.6,2.6l2.6,2.6l5.4,5.2l8,5.4l2.6,8v10.6l2.6,5.4l8,8l2.6,5.4l5.4,5.4l5.4,5.4l2.6,5.4
			l2.6,2.4l5.4,5.4l5.4,8l2.6,8l5.4,5.4l5.4,8l8,8l5.4,5.4l2.6,5.4l2.6,5.4l2.6,5.4l8,5.4l5.4,10.6l5.4,5.4h8l8,2.6h8l5.4,2.6
			l5.4-2.6h18.6l5.4-2.6l13.2-2.6l13.2,2.6l13.2,2.6l16,5.4l13.2,5.4l13.2,5.4l8,5.4l10.6,8l10.6,8l10.6,8l2.6,5.4v10.6l2.6,2.6h2.4
			l3-2.6l2.6-2.6l8-2.6h18.6l5.4-2.6l5.2-2.6l5.4-5.4l8-5.4h2.6l2.6,2.6l2.6,2.6l5.4,5.4l2.6,2.6l5.4,5.4v3.4l-8,7.2l-5.4,5.4
			l-5.4,8l2.6,5.4h10.4l11,2.6l8,5.4l4.8,2.6l5.4,2.6l8,5.4l5.4,2.6l5.4,5.4l2.6,2.6l10.6,8l8,5.4l8,5.4l8,5.4l5.4,5.4l5.4,2.6h13.2
			l8-2.6h5.4l8,2.6l8,5.4h36l6.4,5.4l10.6-2.6l5.4-2.6l8-2.6l5.4-2.6l8-2.6l10.6-8l8-2.6l10.6-2.6h8l8-5.4l5.4-2.6l5.4-2.6l18.6,5.4
			l18.6-13.4l8-10.6v-10.8h16l26.6-8l13.4-10.6l10.6-2.6l16,24l-2.6,16l5.6,23.8l5.4,5.4h14.2l0.4-89h-5.4L1146,2067l-1.2-3.6l2-1.2
			l-2-3.8l-3.6,2l-1.6,0.8l-2.6,1.4l2,3.8l1.8-1l1,3.2l-1.8,0.8l-77,24l-23.8,13.8l-4-6l-5.4,3.6l3.8,5.6l-34.6,20.2h-10.6l-1.4,0.2
			l0.6-4.2l-2.2-2.2l-42.6,4.2V2118H930l-0.2,20.6h-45.2l-1-0.6l4-5.2l-5-4l-4.2,5.4l-76.2-51.4l10.6-18.6l8-16l-69-53.2l8-10.6
			l-2.6-5.4l-45-34.6l-5.4-2.6l-4.4,4.6l1.8,3.4l42.6,31.8v5.4l-29.2,39.8h-8l-37.2-29.2v-5.4l5.4-24l2.6-2.6h8l2.6-5.4l-5.4-5.4
			l-74.4-16v10.6l-5.4,21.2l-58-16.6l0.6-4.6l-8.4-1l-0.4,3.2l-18.4-5.2l-0.6-0.2l2.2-7l-6-1.8l-2.2,7l-19.6-5.6l3.2-4.8l-2.4-1.6
			l8.6-11.4l-5.2-3.8l-8.8,11.8l-2.6-1.8l-2.8,4.4l-1.2-0.8l-9.2-13l18.8-13.4l-2.8-3.8l-18.4,13.8l-14-19.8l5.4-5l-2.2-2.2l-5.6,4
			l-31.8-45.2l-10.6-8l-71.8-42.6l-6-1.6l9.2-32.8h-4.2c0,0-10.2,30.6-9.6,31.4l-42.4-11.8l5.2-19.6h-4.2l-5.2,18.4l-74.8-20.6
			l5.2-19.2h-4.2l-5.8,17.8l-35.8-10V1729h-3.6l-0.6,18.2l-89.2-6.6l0.4-9.4h-4.4l-0.6,9.2l-60.2-4.4l7.2-6.8l-18-1.6v16.2l0,0
			L2.6,1751.8z"/>
		<polygon class="st1" points="1503,1952.2 1503,1952.6 1497.6,1960.6 1492.2,1965.8 1382,2047 1392.4,2047 1400.4,2057.6 
			1411,2065.6 1419,2068.2 1432.4,2065.6 1445.6,2060.2 1459,2057.6 1477.6,2052.2 1517.4,2052.2 1528,2044.2 1530.8,2033.6 
			1528,2020.4 1522.8,2009.6 1517.4,1996.4 1517.4,1977.8 1514.8,1961.8 1512,1945.8 1512,1936.6 1508.2,1944.4 		"/>
		<polygon class="st1" points="1496.2,1801.8 1466.4,1776.2 1428,1823 1440.8,1833.8 1462.2,1853 1479.2,1872 1492,1893.4 
			1500.6,1914.8 1503.6,1934 1503,1952.2 1512,1936.6 1512,1924.6 1509.4,1903.2 1509.4,1882 1506.8,1861 1504.2,1837 
			1501.4,1823.8 1501.4,1807.8 1504.2,1797.2 1512.2,1789.2 1530.8,1765.2 1537.2,1757.6 1546.6,1746.4 1543.2,1742 1532,1753.4 
			1517.6,1742 1502.6,1761.2 1457.8,1722.8 1451.4,1729.2 1496.2,1767.6 1492,1776.2 1500.6,1782.6 1498.4,1797.4 		"/>
		<polygon class="st1" points="2056.6,1757 2062,1775.6 2067.2,1794.2 2075.2,1812.8 2085.8,1834 2096.6,1850 2101.8,1858 
			2107.2,1863.4 2115.2,1863.4 2123.2,1858 2128.4,1852.6 2131.2,1844.6 2131.2,1839.4 2136.4,1831.4 2141.8,1826 2149.8,1820.8 
			2155,1818.2 2160.4,1820.8 2163,1826 2168.4,1834 2176.4,1847.4 2181.6,1858 2187,1866 2192.2,1868.6 2197.6,1868.6 
			2200.2,1863.4 2203,1855.4 2208.2,1847.4 2218.8,1836.8 2226.8,1831.4 2234.8,1828.8 2242.8,1828.8 2253.6,1834 2266.8,1842 
			2277.4,1847.4 2285.4,1855.4 2298.8,1860.6 2312,1863.4 2328,1866 2349,1874 2362.4,1884.8 2367.6,1892.8 2383.6,1914 
			2391.6,1927.2 2402.2,1940.6 2410.2,1953.8 2418.2,1967.2 2446.2,1949.8 2398.4,1880.8 2395.6,1851.4 2395.6,1835.4 2393,1819.4 
			2393,1806.2 2387.8,1785 2385,1779.6 2382.4,1774.4 2377,1771.6 2215,1766.4 2215,1782.4 2185.8,1779.6 2185.8,1766.4 
			2176.8,1766.4 2171.6,1760 2166.8,1754.4 2161.6,1754.4 2161.6,1757.8 2165.4,1757.8 2169,1762.2 2172.6,1766.4 2172.6,1808.8 
			2152.4,1786.8 2158.6,1782.2 2156,1778.8 2149.4,1783.6 2147.2,1781.2 2150.6,1767.8 2152.8,1768 2153.6,1762.8 2145,1761.6 
			2144.4,1766.8 2146.4,1767 2143.8,1777.4 2143.4,1777 2140.6,1771.6 2140.6,1766.4 2154,1734.4 2148.6,1731.8 2135.4,1763.6 
			2130,1766.2 2124.4,1766.2 2116.4,1763.6 2111,1761 2108.4,1758.2 2108.4,1757.8 2110.4,1759.4 2114.2,1754.2 2099.2,1743.6 
			2095.6,1748.8 2102,1753.2 2102,1758.2 		"/>
		<polygon class="st1" points="1288.8,1956.4 1296.8,1964.4 1299.4,1977.6 1299.4,1983 1296.8,1991 1291.4,1996.4 1288.8,2001.6 
			1288.8,2007 1296.8,2009.6 1304.8,2015 1315.4,2025.6 1326,2033.6 1339.4,2038.8 1355.4,2044.2 1371,2046.6 1340.6,1933.8 
			1280.8,1953.8 		"/>
		<path class="st1" d="M1353.8,1883l-7.6,5l-9,11.2l0,0c-1.4,1.8-1,4.4,0.8,6c0.8,0.6,1.6,1,2.6,1c1.2,0,2.6-0.6,3.4-1.6l8-10.2
			l5.2-3.4l7.6-2l93.6-17c2.2-0.4,3.8-2.6,3.4-5c-0.4-2.2-2.6-3.8-5-3.4l-93.8,17L1353.8,1883z"/>
		<polygon class="st1" points="1502.8,1952.4 1503,1952.2 1503,1952.2 		"/>
	</g>
	<g>
		<polygon class="st1" points="540.8,655.6 538.2,657.6 538.2,712 533.4,715.2 532.8,711.6 527.6,712.4 529.8,725.2 535,724.4 
			534.4,721 542.2,715.8 551.6,719.6 551.6,719.8 547.4,732.6 551.4,734 555.6,721.2 596.6,738 607.2,727.2 620.6,714 620.6,708.6 
			623.2,700.6 625.8,695.4 631.2,695.4 631.2,703.4 633.8,708.6 639,711.4 655,714 660.4,711.4 665.6,706 665.6,692.8 681.6,602.4 
			759,602.4 769.6,661 745.6,692.8 740.2,706 732.2,714 716.2,735.4 729.6,746 732.6,768.6 724,769.4 724.4,773.6 733.2,772.8 
			733.2,772.8 734.4,780.4 721.2,783 721.2,787.4 735,784.8 741,817 726.2,818.4 726.6,822.6 741.6,821.2 741.8,821.2 747.6,852.8 
			738.8,854.8 739.6,859 748.4,857 753.4,884 756.6,902.8 745.4,904.2 745.8,908.4 757.2,907 765,955.8 760,956.4 760.6,960.6 
			765.6,960 780,1049 842.4,1037 847.8,1031.6 847.8,1018.4 837.2,1010.4 826.6,999.8 821.2,997.2 824,983.8 829.2,973.2 832,962.6 
			832,957.2 826.6,952 824,938.6 816,928 813.4,920 805.4,917.4 802.6,914.8 794.6,909.4 794.6,901.4 792,898.8 794.6,888.2 
			800,885.6 805.4,882.8 808,880.2 808,872.2 805.2,867 805.2,859 802.6,853.6 800,845.6 800,837.6 794.6,829.6 789.2,827 
			781.2,821.8 776,816.4 776,787 770.8,776 770.8,772.8 768,766 765.4,755.8 765.4,702.6 762.8,694.6 762.8,686.6 768,681.2 
			773.4,673.2 781.4,657.2 781.4,646.6 778.8,638.6 781.4,630.6 781.4,593.4 770.8,585.4 754.8,582.8 736.2,577.4 709.8,572.2 
			677.8,569.6 659.2,572.2 656.4,577.6 656.4,593.4 653.8,604 648.4,617.4 645.8,630.6 643.2,649.2 640.6,667.8 635.2,675.8 
			622,686.4 619.2,694.4 616.6,707.8 606,721 595.4,731.6 584.8,726.4 574,710.4 566,702.4 560.8,694.4 558,686.4 563.4,651.8 
			560.8,627.8 568.8,601.2 556.6,601.2 556.6,596.6 548,596.6 548,601.2 538.2,601.2 538.2,645.2 540.8,647.6 543.6,647.6 
			543.6,655.6 		"/>
		<polygon class="st1" points="584.8,587.8 592.8,585.2 599.2,584 606,582.6 611.2,580 614,577.2 619.2,572 616.6,566.8 
			611.2,561.4 606,553.4 603.2,542.8 600.6,534.8 595.4,532.2 592.6,529.4 587.4,529.4 582,524.2 578,530.8 575.4,549.4 575.4,568 
			574,593.2 578.8,587.8 		"/>
	</g>
</g>
<g>
	<g>
		<defs>
			<rect id="SVGID_1_" y="0.8" width="3840" height="2160"/>
		</defs>
		<clipPath id="SVGID_2_">
			<use xlink:href="#SVGID_1_"  style="overflow:visible;"/>
		</clipPath>
		<g class="st2">
			<g id="KLN_2019" class="st3">
				<polyline class="st4" points="1653,994 1652.2,994 1651.8,993.2 1650.6,992 1647.6,987.4 				"/>
				<line class="st5" x1="1637.4" y1="971.6" x2="1601.4" y2="916.4"/>
				<polyline class="st4" points="1596.2,908.4 1593.8,904.6 1593.4,903.8 1593.4,903 1593.8,902.2 1594.2,901.4 1595,901.4 
					1595.6,901.4 1596.4,901.4 1597.2,901.8 1598,903.4 1599.6,906 				"/>
				<line class="st6" x1="1607.2" y1="917.4" x2="1648.8" y2="980.4"/>
				<polyline class="st4" points="1652.6,986.2 1655.4,990.4 1655.8,991.6 1655.4,992.4 1655.4,993.2 1654.6,993.6 1654.2,994 
					1653.4,994 1653,994 				"/>
				<polyline class="st4" points="1653.8,1049.8 1653,1049.8 1652.2,1049.8 1651.8,1049 1651.4,1048.6 1651,1047.8 1651.4,1047 
					1651.4,1046.6 1651.8,1045.8 1652.6,1045.4 1657,1043.2 				"/>
				<polyline class="st7" points="1671.6,1035.6 1793.2,972.4 1794,972.4 1794.2,972 1795,972 1795.8,972.4 1796.2,972.8 
					1796.6,974 1796.6,974.4 1796.6,975.2 1796.2,976 1795.4,976.4 1668.2,1042.4 				"/>
				<polyline class="st4" points="1661,1046.2 1655,1049.4 1653.8,1049.8 				"/>
				<polyline class="st4" points="394.6,1168 397.4,1168 398.6,1168 399.4,1168.4 400.2,1169.6 400.2,1170.4 400.2,1171.4 				"/>
				<polyline class="st8" points="385.8,1170.8 383.8,1169.6 380.2,1167.6 377.8,1165.6 376.4,1163.6 374,1159.8 372.8,1156.6 
					372,1153.2 371.6,1148.8 371.2,1144.2 372,915.6 372,914 371.6,912.8 371.6,911.2 371.2,910 370.2,907.2 368.2,904.2 
					366.6,901.8 364.2,900.2 361.2,898.4 358.8,897.2 355.6,896.4 352.2,896 351,896 350.2,895.6 349.8,895.2 349.4,894.4 349,894 
					349,893.6 349,892.8 349,892 349.4,891.8 349.8,891.4 350.2,891 350.6,890.6 351,890.2 351.4,890.2 352.2,890.2 353,890.2 
					355.6,890.6 360,891.4 362.2,892.4 366.2,894.4 369.8,897.2 372,899.6 374.4,903.4 376,907.2 376.8,912 377.2,916 377.2,931.6 
					377.2,1126.6 377.2,1149.6 377.2,1152 378.2,1155 380.6,1159.4 381.2,1160.4 				"/>
				<polyline class="st4" points="387.2,1165.4 388.4,1166 392,1167.2 394.6,1168 				"/>
				<line class="st4" x1="989.2" y1="1571.4" x2="997.2" y2="1570.6"/>
				<polyline class="st4" points="1002,1570.4 1009.8,1569.8 1004.8,1575.8 				"/>
				<polyline class="st4" points="997.6,1584.4 992.4,1590.4 992,1590.4 992,1590.8 991.6,1590.8 991.2,1590.8 991.2,1591.2 
					990.8,1591.2 990.4,1585.4 990.2,1583.2 				"/>
				<line class="st4" x1="989.8" y1="1579.2" x2="989.2" y2="1571.4"/>
				<line class="st4" x1="988" y1="1585.4" x2="980" y2="1586"/>
				<polyline class="st4" points="958.6,1587.8 950.6,1588.4 950,1580.6 				"/>
				<polyline class="st4" points="949.8,1577 949,1569 944.4,1569.4 944.4,1571 940.2,1575.8 				"/>
				<polyline class="st4" points="938.6,1577.6 933.4,1583.8 939.4,1589 				"/>
				<line class="st9" x1="951.8" y1="1594" x2="973.2" y2="1592.4"/>
				<polyline class="st4" points="980.4,1591.8 988.4,1591.2 988,1585.4 				"/>
				<line class="st4" x1="1928.8" y1="862" x2="1923" y2="856.4"/>
				<line class="st10" x1="1912.2" y1="846" x2="1765.2" y2="704.6"/>
				<polyline class="st4" points="1759.8,699.4 1754,693.8 1756,691.8 1756,688.2 1756.6,686.8 				"/>
				<line class="st11" x1="1762.4" y1="671" x2="1771.2" y2="647.4"/>
				<polyline class="st4" points="1774.2,639.6 1777,632.2 1784.4,635.2 				"/>
				<line class="st12" x1="1796.6" y1="646.6" x2="1960" y2="804.2"/>
				<polyline class="st4" points="1966,810 1971.8,815.6 1971,819.8 1968.4,822.4 				"/>
				<line class="st13" x1="1957.2" y1="834" x2="1940.6" y2="851.4"/>
				<polyline class="st4" points="1935,857.2 1931.6,860.8 1928.8,862 				"/>
				<polyline class="st4" points="88.6,581 86.4,580.4 81.4,577.6 				"/>
				<polyline class="st14" points="73,572.8 67.2,569 60.8,565.2 				"/>
				<polyline class="st4" points="56.6,562.8 50.8,559.4 49.6,559.4 49.2,559.8 48.8,560.6 48.4,561.2 48.4,562 49.2,562.8 
					52.4,564.8 				"/>
				<polyline class="st4" points="66.2,573.6 67.2,574.2 73,577.6 67.4,583.4 				"/>
				<polyline class="st4" points="67.4,583.4 61.8,589 69.2,596.4 64,601.4 56.6,594 51,599.8 				"/>
				<polyline class="st4" points="46,604.8 40.2,610.4 44.6,614.8 39,620.4 				"/>
				<polyline class="st4" points="35.4,624 29.8,629.6 24.2,624.4 23.6,625.6 23.6,626 28.6,631.2 27,632.2 22,626.8 20.4,628.4 
					14.8,622.8 				"/>
				<polyline class="st4" points="12,620 6.4,614.4 4.4,616.6 10,622.4 				"/>
				<polyline class="st4" points="17.8,630.2 23.6,635.8 17.8,641.4 				"/>
				<polyline class="st4" points="10.4,648.8 4.8,654.6 -1,649 				"/>
				<polyline class="st15" points="-38.6,580 -24.2,565.6 -9.6,554.2 -7,552 -0.4,548.4 				"/>
				<polyline class="st4" points="6,545.2 9,543.8 13,541.4 18.8,544.8 19.2,544.8 20,544.8 				"/>
				<line class="st16" x1="8.6" y1="533.6" x2="-17" y2="518.4"/>
				<polyline class="st4" points="-5.2,475.2 1.6,479.4 -2.2,486 4.6,490.2 				"/>
				<polyline class="st4" points="12.4,495 19.2,499.2 20.4,496.8 13.6,492.6 				"/>
				<polyline class="st4" points="8.4,489.4 1.6,485.2 5.8,478.4 				"/>
				<polyline class="st4" points="8.4,474 12.6,467.2 17.6,470.4 18.4,469.2 11.6,465 				"/>
				<polyline class="st4" points="8.6,463.2 1.6,459 4.4,455.2 11.2,459.4 				"/>
				<polyline class="st4" points="14,461 20.8,465.2 21.6,464.2 16.4,461 18.4,457.8 29.4,464.6 29.8,463.8 19.2,456.8 21.6,452.8 
					32.4,459.4 32.8,458.6 22.4,451.6 26.6,444.8 				"/>
				<polyline class="st17" points="35.6,431 41.8,420.8 48.6,409.8 				"/>
				<polyline class="st4" points="53.2,402.8 54,399.4 57.4,396.6 63.6,397.8 64.6,399.2 				"/>
				<polyline class="st4" points="65.6,410 64.8,414.6 63,417.2 68,420.4 69.8,421.6 				"/>
				<polyline class="st18" points="83.6,430.2 119,452.4 121.8,454.4 144,468.4 157.8,476.6 170.6,484.8 186.6,497.6 				"/>
				<polyline class="st4" points="193,502.8 199.2,507.8 194,513.8 				"/>
				<polyline class="st4" points="191.2,517.2 186,523.4 190.6,527.2 195.6,521 				"/>
				<polyline class="st4" points="198.4,517.6 203.4,511.2 209.6,516.4 				"/>
				<polyline class="st4" points="222,527.2 228,532.4 223,538.6 				"/>
				<polyline class="st4" points="219.8,542.2 214.8,548.4 219.4,552.2 224.6,546 				"/>
				<polyline class="st4" points="227.6,542.4 232.8,536.2 238.8,541.4 				"/>
				<polyline class="st4" points="253.8,553.8 260,558.8 256.2,564 258.2,565.6 262.4,560.4 268.4,565.6 				"/>
				<polyline class="st4" points="272.4,569 278.4,574 273.2,580.2 				"/>
				<polyline class="st4" points="272.2,581.6 267,587.8 269.4,589.8 274.6,583.6 				"/>
				<polyline class="st4" points="275.6,582.2 280.8,576 286.8,581.2 				"/>
				<polyline class="st4" points="288.2,582.2 294.4,587.4 289.4,593.6 				"/>
				<polyline class="st4" points="288.2,595.2 283,601.4 285.4,603.4 290.4,597.2 				"/>
				<polyline class="st4" points="291.8,595.6 296.8,589.2 303,594.4 				"/>
				<polyline class="st4" points="312.4,602.2 318.6,607.2 313.4,613.4 				"/>
				<line class="st19" x1="306" y1="622.2" x2="295" y2="635.4"/>
				<polyline class="st4" points="291.4,639.8 286.2,645.8 286.6,647 291.8,651.4 				"/>
				<polyline class="st4" points="296.6,655.4 302.2,660 303,660 308,653.8 				"/>
				<line class="st20" x1="315.4" y1="645" x2="326.2" y2="631.8"/>
				<polyline class="st4" points="329.8,627.4 335,621.2 341.2,626.4 				"/>
				<polyline class="st21" points="352.6,638.6 374,675.2 374,712.2 374,794.8 				"/>
				<polyline class="st4" points="374,803.4 374,811.4 373.2,811.4 372.8,811.8 372.4,812 372,812.6 371.6,814 371.6,814.8 
					371.6,818 				"/>
				<polyline class="st22" points="371.6,830.6 371.6,844 371.6,846.8 372.4,848.8 373.2,849.6 374.4,850 377.2,848.8 377.8,847.6 
					377.4,828.4 				"/>
				<polyline class="st4" points="377.2,822 377.2,814 385.2,814 				"/>
				<line class="st23" x1="401.8" y1="814" x2="494.2" y2="814"/>
				<polyline class="st4" points="502.6,814 510.6,814 513.4,821.6 				"/>
				<polyline class="st24" points="519,836.2 527,857.4 527.4,1138 452.6,1244.6 				"/>
				<polyline class="st4" points="448,1251.2 443.4,1257.6 435.4,1257.8 				"/>
				<line class="st23" x1="418.6" y1="1257.8" x2="393.6" y2="1258"/>
				<polyline class="st4" points="385.2,1258 377.2,1258 377.2,1250 				"/>
				<polyline class="st25" points="377,1234 376.8,1232.4 376,1228.8 374,1224.2 372.4,1221.4 369.4,1218 365.4,1214.4 365,1214.2 
									"/>
				<polyline class="st4" points="357.6,1211.4 357.2,1211.2 354.8,1210.8 351.8,1210.4 350.6,1210.8 349.8,1211.2 349.4,1212.4 
					349.4,1213.6 349.8,1214.8 350.6,1215.6 353,1216.4 353.8,1216.4 				"/>
				<polyline class="st26" points="365.4,1220.4 367,1221.8 369.8,1225 371.6,1229.2 372.4,1232.8 372.4,1237 372.4,1246 
					372.8,1258.8 372.4,1261.2 372.4,1262.8 				"/>
				<polyline class="st4" points="372.4,1269.2 372.4,1272.6 372.4,1277.2 371.2,1278.4 366.8,1282.8 				"/>
				<polyline class="st27" points="359,1297 358,1299 356.4,1306 356,1312.8 355.6,1321 356,1331.4 355.6,1336.2 356,1341.6 
					356,1383 358.4,1388.4 366.6,1399 374,1406 385.4,1414.6 390.8,1415.4 399,1414.6 408.8,1415 457.6,1414.6 466.4,1415 
					469.2,1414.6 471.2,1413 478.2,1398.2 484.4,1390.8 489.6,1386 493,1383 496.6,1379.8 499.2,1377 536.4,1363 595.4,1354.6 
					621.2,1352 653.2,1347.6 707.2,1340.4 				"/>
				<polyline class="st4" points="715.2,1339 723,1337.2 716.4,1341.6 				"/>
				<polyline class="st4" points="715.6,1342.4 709,1346.8 711,1349.2 717.4,1344.6 				"/>
				<polyline class="st5" points="735,1339.2 735.8,1339 746.8,1338 747.6,1338.4 748,1339 748.8,1353.6 				"/>
				<polyline class="st4" points="749.4,1363 750,1371 747.2,1371.4 748,1375 737,1377.4 736.6,1377.8 736.2,1378 736.2,1378.6 
					736.6,1378.8 737,1379.2 737.8,1379.2 748.4,1377 749.6,1381.6 742.6,1383.2 743.6,1389 743.2,1389.8 729.2,1393 729.2,1393.4 
					721.4,1395 				"/>
				<polyline class="st28" points="709.2,1397.4 702,1398.8 691.2,1401 				"/>
				<polyline class="st4" points="685.2,1402.4 680,1403.4 679.2,1404.2 679,1404.6 678.2,1405.4 678.2,1405.8 677.8,1406.6 
					677.8,1407.4 677.8,1408.2 678.2,1409 679,1410 679.6,1410.6 680.8,1410.8 681.6,1410.8 681.6,1410.8 				"/>
				<polyline class="st29" points="694,1408.4 698.8,1407.4 706.2,1405.8 736.8,1399.4 				"/>
				<polyline class="st4" points="742.8,1398 746.8,1397.2 750.8,1396.4 751,1396.8 756.2,1395.6 756.6,1394.8 758.8,1394.6 
					760.6,1402.4 				"/>
				<polyline class="st4" points="762.8,1413.6 764.4,1421 764.4,1421.4 756.6,1423 				"/>
				<line class="st30" x1="740.6" y1="1426.4" x2="716.6" y2="1431.4"/>
				<polyline class="st4" points="708.6,1433 700.8,1434.6 702.2,1442.4 710.2,1440.8 				"/>
				<line class="st31" x1="726.2" y1="1437.4" x2="750.4" y2="1432.2"/>
				<polyline class="st4" points="758.4,1430.6 766.2,1428.8 767.8,1436.6 				"/>
				<polyline class="st4" points="768.2,1439 769.8,1446.8 760,1448.8 761.6,1455.4 753.8,1457 				"/>
				<line class="st32" x1="744.6" y1="1459" x2="731" y2="1462"/>
				<polyline class="st4" points="726.4,1462.8 719.4,1464.4 719,1464.8 718.8,1464.8 718.2,1465.6 718.2,1466 718.8,1467.8 
					719,1468.6 719.4,1469 719.8,1469 720.2,1469 721.4,1468.6 722.8,1468.4 				"/>
				<polyline class="st33" points="736.6,1465.6 746,1463.6 757.4,1461.2 				"/>
				<polyline class="st4" points="764.4,1459.8 772.2,1458 773.8,1466 				"/>
				<line class="st34" x1="776" y1="1476.6" x2="779.6" y2="1492.6"/>
				<polyline class="st4" points="780.6,1497.8 782.2,1505.6 782,1506 781.6,1505.4 780.4,1504.6 779.2,1503.8 778,1503.4 
					776.8,1503.4 775.6,1503.4 775,1503.6 				"/>
				<polyline class="st4" points="772.2,1511 772.2,1511.2 773,1512 773.4,1512.8 774.6,1513.6 775.2,1514 776.4,1514.2 
					777.6,1514.2 778.8,1514 778.8,1514.2 771,1516 				"/>
				<line class="st35" x1="753" y1="1519.8" x2="690" y2="1533.2"/>
				<polyline class="st4" points="680.8,1535 673.8,1536.6 673,1536.6 673,1537 672.6,1537.4 672.6,1537.6 674.2,1544.2 				"/>
				<polyline class="st4" points="675.8,1551 677.4,1558 677.4,1558.4 677.4,1558.8 677.8,1558.8 678.2,1558.8 685.2,1557.2 				"/>
				<line class="st36" x1="698.8" y1="1554.4" x2="773.8" y2="1538.8"/>
				<polyline class="st4" points="780.8,1537.4 788.6,1535.8 790.2,1543.6 				"/>
				<polyline class="st4" points="791.6,1550.2 793.2,1558 786.8,1562.8 				"/>
				<polyline class="st4" points="783.8,1568.4 778.8,1574.8 779.2,1574.8 778,1576.4 778,1576 774.6,1580.2 774.6,1580.6 
					774,1581.4 774,1582.6 774.6,1583.4 774.8,1583.8 775.6,1584.2 776,1584.2 776.8,1584.6 777.2,1584.2 778,1584.2 778.4,1583.8 
					779.2,1582.6 782,1579 781.6,1579 782.6,1577.6 782.6,1577.8 789,1570 790.8,1569 796,1575 				"/>
				<polyline class="st4" points="796,1575.2 798.2,1577.8 799.4,1579.4 800.6,1580.2 801.4,1581 800.6,1583.8 794.8,1591.2 
					794,1592.6 793.6,1592.4 790,1597 789.8,1597.8 789.8,1598.6 790,1599 				"/>
				<polyline class="st4" points="793.6,1600.4 794,1599.8 797.6,1595.4 798.2,1593.8 798.6,1594.2 803.6,1588 				"/>
				<polyline class="st4" points="807,1585.2 810,1585 813.2,1581 814,1581.4 815,1581.8 816.6,1582.2 818.2,1582.6 819,1582.6 
					821.2,1590.2 				"/>
				<line class="st37" x1="828.6" y1="1601.4" x2="851.6" y2="1599.6"/>
				<polyline class="st4" points="859.4,1599 865.4,1598.6 867.4,1598.6 870,1595.4 874,1595.2 				"/>
				<polyline class="st4" points="886.8,1594.2 894.6,1593.4 894.6,1593.8 902.4,1593 902.4,1592.6 910.4,1592.2 				"/>
				<polyline class="st38" points="926.4,1592.6 936,1601 936.8,1601.4 937.6,1601.6 938.4,1602 939.2,1602.4 940,1602.4 
					940.8,1602.4 941.6,1602.4 955.6,1601.4 983.2,1599 1001.4,1597 1032.6,1560.8 1035.4,1557.2 1036.6,1556 1037.6,1554.8 
					1038.4,1553.4 1040,1551.4 1040.8,1549.8 1041.6,1548.2 1042.8,1546.2 1043.2,1544.8 1044,1543.2 1051.8,1521 1052.6,1518.6 
					1053,1517 1053.6,1515.8 1054,1515 1054.4,1514.2 1054.8,1513.6 1055.6,1512.8 1069,1496 1077,1488.6 1088,1478.8 
					1106.4,1462.4 1110.6,1458.4 1148.6,1424.6 1157.4,1416.6 				"/>
				<polyline class="st4" points="1163.6,1411.2 1169.6,1405.8 1169.6,1406.2 1173.8,1402.4 1175.8,1400.4 1177,1400.4 1177.8,1403 
					1178.2,1403.4 1185.6,1402.4 1186,1402.2 				"/>
				<polyline class="st39" points="1201.6,1396.8 1210.6,1395.8 1220.4,1395.8 1226.2,1394.8 				"/>
				<polyline class="st4" points="1233.4,1391.4 1235,1389.6 1238.2,1385.2 1238.2,1393.2 				"/>
				<line class="st40" x1="1238.2" y1="1404.6" x2="1238.2" y2="1421.8"/>
				<polyline class="st4" points="1238.2,1427.4 1238.2,1435.4 1231.4,1439.6 				"/>
				<polyline class="st4" points="1227.2,1442 1220.4,1446 1227.8,1458.8 1234.6,1454.8 				"/>
				<polyline class="st4" points="1245.8,1448.4 1252.6,1444.4 1252.6,1436.4 				"/>
				<line class="st41" x1="1252.6" y1="1421.4" x2="1252.4" y2="1399"/>
				<polyline class="st4" points="1252.4,1391.6 1252.4,1383.6 1260.4,1383.6 				"/>
				<polyline class="st4" points="1268,1383.6 1276,1383.6 1279.4,1390.8 				"/>
				<polyline class="st4" points="1285,1403.2 1288.2,1410.6 1295.6,1407.2 				"/>
				<line class="st42" x1="1310.2" y1="1400.8" x2="1420.4" y2="1351.8"/>
				<polyline class="st4" points="1427.8,1348.6 1430.6,1347.2 1435,1345 1436,1347.2 1438,1349.2 1439.2,1351.6 				"/>
				<polyline class="st43" points="1444.4,1362.8 1445,1364.4 1445.4,1364.8 1445.8,1365.2 1446.2,1365.2 1446.6,1364.8 
					1451.6,1362.6 1452,1362 1452,1361.8 1448.8,1354.2 				"/>
				<polyline class="st4" points="1446.2,1348.6 1445,1346 1445,1343.4 1444.2,1341 1451.4,1337.6 				"/>
				<polyline class="st4" points="1457.6,1334.8 1465,1331.6 1467,1336 1467.2,1336.4 1467.2,1336.8 1467.6,1336.8 1468,1336.8 
					1468.4,1336.4 1474.6,1333.6 				"/>
				<polyline class="st4" points="1475.6,1333.2 1483,1330 1483,1329.8 1483.2,1329.8 1483.2,1329.4 1483.2,1329 1481.4,1324.2 
					1488.6,1320.8 				"/>
				<polyline class="st4" points="1496,1310.8 1499.2,1303.6 1506.6,1307 				"/>
				<line class="st44" x1="1524" y1="1304" x2="1547.8" y2="1286.8"/>
				<polyline class="st4" points="1555.6,1281.2 1559.8,1278.2 1561.8,1276.6 1562,1276.6 1562,1276.2 1562,1275.8 1562,1275.4 
					1560.2,1269 				"/>
				<polyline class="st45" points="1555.8,1254.8 1554,1248.6 1552.8,1243 1568,1175.8 				"/>
				<polyline class="st4" points="1569.6,1168.6 1571.4,1160.8 1574.2,1163 1573,1170.2 1580,1171.6 1582,1161.2 1575,1160 
					1574.6,1162 1571.8,1159.6 1573.4,1151.8 				"/>
				<line class="st46" x1="1576.8" y1="1134.6" x2="1581.8" y2="1109"/>
				<polyline class="st4" points="1583.6,1100.4 1585.2,1092.4 1578.4,1088.2 				"/>
				<line class="st37" x1="1565.4" y1="1079.8" x2="1519.6" y2="1050.8"/>
				<polyline class="st4" points="1513,1046.6 1506.4,1042.4 1507,1033.8 1520.4,1034.2 1520.8,1023.2 1507.6,1022.8 1507.8,1014.8 
									"/>
				<line class="st47" x1="1508.6" y1="998.4" x2="1512.2" y2="908.2"/>
				<polyline class="st4" points="1512.6,900 1513,892 1516,889.8 1516.8,892.8 1519.6,893.6 1520.4,891.8 1518,891 1524.2,888.6 
					1524.6,886.6 1531,885.4 1528.2,884 1527,880.8 1531.4,874.2 				"/>
				<line class="st48" x1="1538.6" y1="860.2" x2="1561.6" y2="810.4"/>
				<polyline class="st4" points="1565,803.4 1568.4,796 1572.2,798.4 1571.4,799.6 1573.4,800.8 1574.2,802.4 1575,801.6 
					1574.2,800.4 1575.8,797.2 1577.4,797.2 1586.6,802.8 1587,802 1577.4,796.6 1575.8,796.6 1574.2,795.4 1573.4,796.6 
					1569.2,794.2 1574.6,782.4 1579.6,782.4 1582.4,783.8 				"/>
				<polyline class="st4" points="1593.6,788.8 1593.8,788.8 1594.2,788.8 1594.6,788.8 1595.2,788.2 1595.6,788.2 1596,788 
					1596.4,787.6 1596.4,787.2 1596.8,786.4 1596.8,786 1597.2,785.2 1597.2,784.8 1597.2,784.4 1597.2,784 1596.8,783.6 
					1596.8,783.2 1596.4,783.2 1596.4,782.8 1596,782.8 1596,782.4 1588.8,779.2 				"/>
				<polyline class="st4" points="1585.2,777.4 1582.4,776.2 1579.2,772.2 1582.4,765.2 1585.2,766.4 1588.6,758.2 1586.4,757 
					1589,750.8 1591.4,751.6 1592.6,750 1589.8,749 1593.2,741.6 				"/>
				<polyline class="st4" points="1599,729.2 1602.4,722 1605.4,723.6 1606.6,720.4 1605,719.6 1608.6,712.2 1607,711.8 
					1610.4,704.6 				"/>
				<line class="st49" x1="1614.6" y1="697.4" x2="1626" y2="691"/>
				<polyline class="st4" points="1629.6,688.8 1636.6,685 1642.4,690.4 				"/>
				<polyline class="st50" points="1653.6,701.2 1749,793 1848.6,888.2 				"/>
				<polyline class="st4" points="1854.2,893.6 1856.8,896 1857,898 1857,899.6 1856.8,900.2 1856,900 1855.6,900.2 1856.4,900.6 
					1863.8,908 1864.2,907.8 1865.6,907.8 1868.4,908.4 1868.8,908.8 1871,910 				"/>
				<polyline class="st4" points="1873,912 1873.8,912.8 1875.4,915.6 1875.8,916 1877.4,918.6 1876.6,919 1875.8,919.8 
					1883.2,927.2 1884,927.6 1884.8,926.8 1885.2,926.8 1887.6,927.6 1890.6,928.8 1891.2,929.2 				"/>
				<polyline class="st4" points="1891.6,929.8 1897,935 1897.4,935.4 1897.6,935.4 1898,935.4 1898.4,935 1904.2,940.6 				"/>
				<polyline class="st4" points="1914.2,950.2 1920,955.8 1920,956.4 1920,956.8 1920.4,957.6 1924.6,961.8 				"/>
				<line class="st14" x1="1931.6" y1="968.4" x2="1942" y2="978.4"/>
				<polyline class="st4" points="1945.4,981.8 1951.2,987.2 1949.6,988 1947.6,986.2 1946.4,987.6 1949.6,990.4 1952,988 
					1957.6,993.6 				"/>
				<polyline class="st51" points="1966.8,1004 1974.2,1015.8 2003.8,1044.2 2013.6,1047.4 2014,1047.4 2021.2,1054.6 				"/>
				<polyline class="st4" points="2026.2,1059.4 2032,1065 2032.4,1064.2 2038,1069.8 				"/>
				<polyline class="st52" points="2049.8,1081 2085,1115 2090,1119.6 2234.8,1259.2 2237.6,1261.2 2240.2,1262 2243,1262 
					2248.4,1261.6 2289.4,1218.6 2291.4,1214.8 2292.2,1210.4 2291.4,1208.2 2289.8,1205.4 2244.2,1161 2240.4,1156.6 				"/>
				<polyline class="st4" points="2235,1150.6 2229.8,1144.6 2231,1136.6 				"/>
				<polyline class="st53" points="2233.8,1120 2234.4,1116 2232.8,1109 2229.4,1102.4 2176,1051.6 				"/>
				<polyline class="st4" points="2169.4,1046.4 2168.8,1046.2 2163.4,1041.2 2157.6,1047.4 2158.8,1048.6 2163.4,1043.4 2167,1047 
					2161.2,1052.6 				"/>
				<polyline class="st4" points="2159.4,1054.6 2153.6,1060.2 2146.2,1058 2146,1057.8 				"/>
				<polyline class="st54" points="2131.4,1049.2 2126.8,1046.2 2120.8,1042 2114.2,1035.6 2087,1009.6 2039,963.6 2037.6,962.2 
									"/>
				<polyline class="st4" points="2031.4,956.2 2026,951 2025.6,950.6 2025.6,949.8 2025.6,949 2026.4,947.8 2023.4,944.8 
					2021.4,947 2017.4,943.6 2016.4,944.8 2013.2,943.6 2009.8,940.4 				"/>
				<line class="st55" x1="1998.4" y1="929.2" x2="1958" y2="890.4"/>
				<polyline class="st4" points="1952.2,884.8 1946.4,879.2 1948,875.8 1951,872.8 				"/>
				<line class="st56" x1="1961.8" y1="861.4" x2="1978.4" y2="844.2"/>
				<polyline class="st4" points="1983.8,838.6 1989.4,832.8 1995.2,838.4 				"/>
				<line class="st57" x1="2005.8" y1="848.6" x2="2085.2" y2="925.2"/>
				<polyline class="st4" points="2090.6,930.2 2096.2,935.8 2101.8,930 				"/>
				<line class="st58" x1="2114.6" y1="916.6" x2="2159.6" y2="869.8"/>
				<polyline class="st4" points="2166,863.2 2171.6,857.4 2177.4,863 				"/>
				<polyline class="st59" points="2188.6,873.8 2198.6,883.2 2298.4,992.4 2324.2,1023.6 2348,1055.8 				"/>
				<polyline class="st4" points="2352.6,1062 2357.4,1068.4 2362.8,1064.2 2367.4,1070.6 				"/>
				<polyline class="st4" points="2372.6,1077.6 2377.2,1084 2372.2,1088 2374.6,1091 2379.6,1087.6 2384.4,1094 				"/>
				<polyline class="st4" points="2384.6,1094.4 2389.4,1100.8 2382.8,1105.6 				"/>
				<polyline class="st4" points="2381.4,1106.6 2374.8,1111.4 2376,1113.4 2369.6,1118 				"/>
				<line class="st60" x1="2360" y1="1125" x2="2345.6" y2="1135.6"/>
				<polyline class="st4" points="2340.8,1139 2334.4,1143.8 2334.6,1145.8 2336.2,1146.8 2338.2,1146.6 2343,1143 				"/>
				<line class="st61" x1="2352.8" y1="1135.8" x2="2367.4" y2="1125.2"/>
				<polyline class="st4" points="2372.4,1121.6 2378.8,1116.8 2380,1118.8 2386.4,1114 				"/>
				<polyline class="st4" points="2388.4,1112.6 2394.8,1107.8 2399,1114.6 				"/>
				<line class="st62" x1="2406" y1="1125.6" x2="2416.4" y2="1142.4"/>
				<polyline class="st4" points="2419.8,1147.8 2420.2,1148.4 2421.4,1150 2422.2,1151.2 2424.4,1154.4 2423.2,1154 2421,1155.8 
					2419.8,1158.6 2418.4,1160 				"/>
				<polyline class="st4" points="2413.8,1164.4 2408,1170 2412.8,1175 2418.6,1169.6 				"/>
				<polyline class="st4" points="2423.6,1165.2 2425.2,1163.6 2427.6,1162.8 2429.8,1160.6 2429.8,1161 2434.2,1164.8 2436,1166.2 
									"/>
				<polyline class="st63" points="2445.2,1171.8 2447.8,1173 2453,1175 2456.8,1176.2 2460.6,1176.4 				"/>
				<polyline class="st4" points="2466.2,1176.8 2469.4,1176.8 2474,1177.8 2467.8,1182.8 				"/>
				<polyline class="st4" points="2459.4,1190 2453.4,1195.2 2458.4,1201.4 				"/>
				<polyline class="st64" points="2468.6,1213.6 2529,1285.4 2534,1288.6 2561.6,1303.8 2599.6,1324.8 2638.6,1395.8 2646,1405.4 
					2656.4,1415.4 2664.2,1421.4 2674,1427 2682,1430.4 2691.6,1433.6 2702,1436 2710.8,1437 2718.8,1436.6 2729.6,1436.2 
					2733.2,1436 2760,1434.2 2763.4,1434 2776.2,1438.4 2784.6,1438.6 2790.2,1437.4 2794.6,1436.6 2797,1435 2800.2,1433.4 
					2802.6,1432.8 2809.8,1431.2 2817.6,1430.2 2822,1430 2825.2,1429.8 2837,1428.6 2841,1427 2845.2,1428.4 2856.2,1446 				"/>
				<polyline class="st4" points="2860.4,1452.6 2864.6,1459.4 2857.6,1463 				"/>
				<polyline class="st65" points="2845.6,1469.2 2831.4,1476.6 2829.8,1477.4 2814.4,1485.6 2809.2,1488.2 2804,1491 				"/>
				<polyline class="st4" points="2798,1494 2790.8,1497.6 2790.8,1498 2797.6,1510.8 2786.6,1516.4 2780,1503.8 2780,1503.4 
					2778.8,1503.8 2772.8,1507 				"/>
				<polyline class="st4" points="2766.8,1510.4 2760,1514 2759.6,1514 2763.4,1521 				"/>
				<polyline class="st41" points="2770.2,1534.4 2780.4,1569.4 2848.2,1638.4 2861.2,1651 2896.6,1687.4 				"/>
				<polyline class="st4" points="2901.8,1692.6 2904,1695 2904.8,1695.6 2905.6,1695.8 2906.4,1695.8 2906.8,1695.8 2907.6,1695.8 
					2908,1695.6 2908.4,1695.6 2908.8,1695 2909.2,1694.8 2909.6,1694.4 2910,1693.6 2910.4,1693.2 2910.4,1692.4 2910.4,1691.6 
					2910.4,1691.2 2910,1690.4 2909.6,1690 2908.8,1689.2 2908.8,1688.8 2903.6,1683.4 				"/>
				<polyline class="st4" points="2890.6,1669.8 2885.8,1664.6 2885,1664.2 2886.2,1663 2890.8,1658.8 				"/>
				<line class="st66" x1="2901" y1="1649" x2="2916.6" y2="1634.2"/>
				<polyline class="st4" points="2921.6,1629.2 2927.6,1623.6 2933,1629.4 				"/>
				<line class="st4" x1="2946.2" y1="1643" x2="2951.8" y2="1648.8"/>
				<g id="Piers">
					<line class="st67" x1="43.2" y1="421.6" x2="54" y2="428.2"/>
					<line class="st68" x1="28.4" y1="445.8" x2="37.4" y2="451.2"/>
					<line class="st69" x1="40" y1="427" x2="50.6" y2="433.6"/>
					<line class="st69" x1="36.2" y1="433.2" x2="46.6" y2="440"/>
					<line class="st70" x1="24.8" y1="451.2" x2="34.2" y2="456.8"/>
					<line class="st4" x1="-7.6" y1="554.2" x2="-1.8" y2="559.8"/>
					<line class="st4" x1="0.4" y1="562" x2="6" y2="567.6"/>
					<line class="st4" x1="29.8" y1="593.8" x2="35.4" y2="599.6"/>
					<line class="st4" x1="37.6" y1="601.8" x2="43.2" y2="607.6"/>
					<line class="st71" x1="10.8" y1="543.8" x2="14.4" y2="545.6"/>
					<line class="st72" x1="13.6" y1="557.4" x2="3.8" y2="547.2"/>
				</g>
				<polyline class="st4" points="2339,1199.2 2337.8,1200 2337.4,1200.4 2337,1200.4 2336.6,1200.8 2336.2,1200.8 2335.8,1201.2 
					2335.4,1201.6 2335,1201.6 2334.6,1201.6 2334.6,1202 2334.4,1202 2334,1202 2333.6,1202.4 2333.2,1202.4 2333.2,1202.6 
					2332.8,1202.6 2332,1202.6 2331.2,1203 2330.8,1203 2330,1203.4 2329.6,1203.4 2329.2,1203.4 2328.8,1203.4 2328,1203.4 
					2327.6,1203.4 2327.2,1203.4 2326.8,1203.4 2326.6,1203.4 2326.2,1203.4 2325.8,1203.4 2325.4,1203.4 2325.4,1203.4 				"/>
				<polyline class="st4" points="2306.4,1200.8 2298.4,1199.6 2298.4,1199.2 2298,1199.2 2297.6,1199.2 2297.6,1198.8 
					2297.2,1198.8 2297.2,1198.4 2296.8,1198.4 2296.8,1198 2296.4,1198 2296.4,1197.6 2296.4,1197.2 2296.4,1196.8 2296.4,1196.4 
					2296.4,1196 2296.4,1195.6 2296.8,1195.2 2297.2,1194.8 2297.2,1194.6 2297.6,1194.6 2298,1194 2298.4,1194 2298.8,1194 
					2299.2,1194 2299.6,1194 2305,1194.8 2305,1195.2 2308.6,1196 2310.6,1196 2313,1196.4 				"/>
				<polyline class="st4" points="2320.8,1198 2323,1198.4 2323.4,1198.4 2323.8,1198.4 2324.2,1198.4 2324.6,1198.4 2325,1198.4 
					2325.4,1198.4 2325.8,1198.4 2326.2,1198.4 2326.6,1198.4 2326.8,1198.4 2327.2,1198.4 2327.6,1198.4 2328,1198.4 
					2328.4,1198.4 2328.8,1198.4 2328.8,1198 2329.2,1198 2329.6,1198 2330,1198 2330.4,1198 2330.4,1197.6 2330.8,1197.6 
					2331.2,1197.6 2331.6,1197.6 2331.6,1197.2 2332,1197.2 2332.4,1197.2 2332.8,1196.8 2333.2,1196.8 2333.6,1196.8 
					2333.6,1196.4 2334,1196.4 2334,1196 2334.4,1196 2334.6,1195.6 2335.4,1195.2 2336.2,1194.8 2340.4,1191.6 				"/>
				<polyline class="st4" points="2358.6,1177.8 2358.8,1177.8 2359.2,1177.4 2359.6,1176.6 2360.4,1176.2 2361.6,1175 
					2363.2,1174.2 2364.4,1173 2364.8,1173 2364.8,1172.6 2365.2,1172.6 2365.6,1172.6 2366,1172.6 2366.4,1172.6 2366.6,1173 
					2367,1173 2367.4,1173.4 2367.8,1173.4 2367.8,1173.8 2368.2,1173.8 2368.2,1174.2 2368.2,1174.6 2368.6,1175 2368.6,1175.4 
					2368.6,1175.8 2368.6,1176.2 2368.2,1176.6 2368.2,1177 2367.8,1177 2367.8,1177.4 2367.4,1177.8 2367,1178 2366,1178.8 
					2363.6,1180.8 2361.6,1182.4 				"/>
				<polyline class="st4" points="2345.4,1194.2 2342.8,1196 2339,1199.2 				"/>
				<line class="st4" x1="716.2" y1="1377.4" x2="715.2" y2="1369.4"/>
				<polyline class="st4" points="715,1368 714,1360.2 716,1359.8 717.2,1367.6 				"/>
				<polyline class="st4" points="717.4,1369.4 718.6,1377.4 716.2,1377.4 				"/>
				<line class="st4" x1="3451.4" y1="1367.2" x2="3459.2" y2="1366.8"/>
				<path class="st73" d="M3467,1364.4l4-1.6h8"/>
				<path class="st4" d="M3483,1362.6h8l10.4-10.6h8"/>
				<line class="st7" x1="3525.8" y1="1352" x2="3550.6" y2="1352"/>
				<polyline class="st4" points="3558.8,1352 3566.8,1352 3567.4,1344.2 				"/>
				<polyline class="st4" points="3574.6,1337.6 3582.6,1337.6 3586,1342.8 3586,1344.4 				"/>
				<polyline class="st4" points="3586,1344.8 3586,1352.8 3602,1352 3603.2,1356 3613.8,1354.8 3615.2,1352 3619.8,1350 				"/>
				<path class="st74" d="M3637.2,1350.2h0.6c2.6-0.6,22.6-2,22.6-2l10.6-8l9.2-14.6l11.8-20.4l10.6-24.6l12-22.6"/>
				<polyline class="st4" points="3718.8,1250.6 3723.4,1244 3730.6,1247.4 				"/>
				<polyline class="st4" points="3737.4,1250.6 3744.8,1254 3741.6,1261.2 				"/>
				<polyline class="st50" points="3734.8,1275.2 3708.6,1328.4 3685.8,1367.2 3680.8,1394.4 3686.6,1437.6 3692.2,1462.4 
					3711.4,1485.8 3734.2,1499.4 3746.2,1502.4 				"/>
				<polyline class="st4" points="3753,1505.4 3759,1510.6 3759,1518.6 				"/>
				<line class="st75" x1="3759" y1="1532.4" x2="3759" y2="1607.2"/>
				<polyline class="st4" points="3759,1614 3759,1622 3767,1622 				"/>
				<polyline class="st76" points="3781.6,1622 3799,1622 3833.4,1622 				"/>
				<line class="st4" x1="3840.8" y1="1622" x2="3848.8" y2="1622"/>
			</g>
			<g id="HKI_2019">
				<polyline class="st4" points="1244.2,1809 1243.8,1809 1243.4,1809 1243,1809 1243,1808.6 1242.6,1808.6 1242.6,1808.4 
					1242.2,1808.4 1242.2,1808 1241.8,1808 1241.8,1807.6 1241.8,1807.2 1241.8,1806.8 1241.8,1806.4 1241.8,1806 1241.8,1805.6 
					1241.8,1805.2 1242.2,1805.2 1242.2,1804.8 1242.6,1804.8 1242.6,1804.4 1243,1804.4 1243.4,1804 1250.6,1802 				"/>
				<line class="st77" x1="1264.2" y1="1798" x2="1366.6" y2="1768.6"/>
				<polyline class="st4" points="1373.4,1766.6 1378.6,1765.2 1379,1765.2 1379.4,1765.2 1379.8,1765.2 1380.2,1765.6 
					1380.6,1765.6 1381,1765.6 1381,1766 1381.4,1766 1381.4,1766.4 1381.8,1766.6 1381.8,1767 1381.8,1767.4 1382.2,1767.8 
					1382.2,1768.2 1381.8,1768.2 1381.8,1768.6 1381.8,1769 1381.4,1769.4 1381.4,1769.8 1381,1769.8 1381,1770.2 1380.6,1770.2 
					1380.2,1770.2 1377.2,1771.4 1373.4,1772.4 				"/>
				<line class="st78" x1="1356" y1="1777.4" x2="1260.6" y2="1804.6"/>
				<polyline class="st4" points="1251.8,1807 1245,1809 1244.6,1809 1244.2,1809 				"/>
				<polyline class="st4" points="2636.2,1830.2 2635,1830.4 2633.8,1830.4 2632.4,1829.8 2628.4,1829.6 				"/>
				<polyline class="st79" points="2611.2,1830.6 2609.2,1831 2605.6,1832 2601.6,1834 2599.2,1835 2596.4,1836.8 2594,1838.2 
					2591.2,1840.4 2586.6,1844 2584.6,1845.8 2583.4,1847.2 2582.2,1848.2 2581.2,1849 2580.2,1849.4 2579,1849.6 2577.8,1849.2 
					2577,1848 2577.2,1847.2 2578,1845.6 2578.8,1845 2580.4,1843.6 2582.6,1841.8 2584.6,1840 2587,1837.8 2588.6,1836.4 
					2591.2,1834.6 2593.2,1833.2 2597.2,1831 2599.6,1830 2601.8,1829 2603.8,1828.4 2607.8,1826.8 2609.8,1826.6 2611.8,1825.8 
					2613.8,1825.6 2615.6,1825.4 2617.6,1825 2620,1824.8 2622.6,1825 2624.2,1825 				"/>
				<polyline class="st4" points="2632.8,1825.6 2633.8,1825.8 2635,1825.8 2636.2,1826.2 2636.8,1826.6 2637.2,1827.6 
					2637.6,1828.2 2637.4,1829 2637,1830.2 2636.2,1830.2 				"/>
				<polyline class="st4" points="2558.4,1845.2 2557.6,1845.2 2556,1844.6 2547,1853 2546.6,1853 2546.2,1852.2 2555.6,1843.8 
					2555.8,1843 2555.8,1842.6 2555.8,1842 2558.2,1839.8 2560,1838.4 2561.8,1836.6 				"/>
				<polyline class="st4" points="2576.6,1823.4 2578,1822.6 2579.6,1821.4 2581.2,1820.8 2582,1820.8 2582.6,1821.2 2583.4,1822 
					2583.4,1822.8 2582.8,1824 2582,1824.6 2581.2,1825.8 2580,1826.6 2578.4,1828 				"/>
				<polyline class="st4" points="2564.4,1840 2564,1840.2 2561.2,1843 2559.2,1844.4 2558.4,1845.2 				"/>
				<polyline class="st4" points="2619.2,1805.4 2622,1805.2 2624.6,1805.4 2627.2,1805.6 				"/>
				<polyline class="st80" points="2644.6,1808 2651.8,1810.6 2655.2,1812 2659.4,1814.2 2669.8,1819.6 2737.8,1855 2747.2,1860.2 
					2754.6,1864.8 2757.2,1867 2760.4,1869.6 				"/>
				<polyline class="st4" points="2766.6,1875.6 2767,1876.2 2771.6,1881.8 2767.6,1885 2765.2,1881.8 2763.6,1880.2 2762.6,1878.8 
									"/>
				<polyline class="st81" points="2750.6,1868.6 2745,1864.6 2703.4,1842.6 2684,1832.8 2655.6,1817.8 2648.4,1815 2642,1813.2 
					2637.8,1812 2634,1811.4 2632,1811.4 2631.2,1811.2 2629.4,1811.2 2627.4,1811 2626.2,1811 2623.2,1811.2 2619.6,1811 
					2618.2,1811.2 2615.2,1810.6 				"/>
				<polyline class="st4" points="2608,1807.6 2607.2,1807 2605.4,1806 2602.4,1804.8 2600.8,1804.2 2600.4,1803 2599.8,1801.8 
					2599.8,1801 2600.2,1800.4 2600.8,1799.2 2601.6,1798.6 2603,1798.6 				"/>
				<polyline class="st4" points="2611.8,1802.6 2612.8,1803 2614,1804 2615.4,1804.4 2617.4,1805 2619.2,1805.4 				"/>
				<line class="st4" x1="2953" y1="2007.4" x2="2959.4" y2="2012.2"/>
				<polyline class="st82" points="2972.8,2022.4 3001.8,2044 3005.8,2053 3027.4,2130.8 				"/>
				<polyline class="st4" points="3029.6,2139 3030.4,2141.6 3030.4,2144.4 3029.8,2146.8 3035,2152.8 				"/>
				<line class="st4" x1="2779.6" y1="1890" x2="2772" y2="1892"/>
				<polyline class="st4" points="2770.8,1892.8 2764.8,1898 2763.8,1897.2 2758.6,1903.4 				"/>
				<polyline class="st4" points="2743.6,1906 2735.6,1907.4 2736.4,1912 2728.4,1912.2 				"/>
				<polyline class="st4" points="2710.4,1912.6 2702.4,1913 2701.8,1909.8 2697.6,1910.2 2697.4,1907.6 2689.6,1910 				"/>
				<polyline class="st83" points="2674.8,1914.8 2668.2,1916.8 2654.6,1916 2639.4,1917.4 2559,1912.2 				"/>
				<polyline class="st4" points="2551.2,1911.6 2544.8,1911.2 2543.2,1911 2538,1905 				"/>
				<line class="st84" x1="2528.6" y1="1894.2" x2="2514.6" y2="1878"/>
				<polyline class="st4" points="2510,1872.6 2504.8,1866.4 2510.8,1861.2 				"/>
				<polyline class="st4" points="2527.4,1846.6 2533.4,1841.2 2532.4,1840 2530,1840.6 2528,1842.4 2526.2,1840.8 2528.6,1838.6 
					2529.4,1836.8 2531.4,1835 				"/>
				<polyline class="st4" points="2537,1830 2542.2,1825.6 2542.2,1825.2 2542.2,1824.8 2542.2,1824.4 2541.8,1824 2539,1820.4 
					2538.6,1820.4 2538.4,1820 2538,1820 2537.6,1819.8 2537.2,1820.2 2531.6,1825.2 				"/>
				<polyline class="st4" points="2526.8,1829.4 2524.8,1831 2522,1832 2520,1833.4 2514.8,1827.4 				"/>
				<polyline class="st4" points="2509.4,1821.4 2504.2,1815.4 2506.2,1814 2507.2,1811.4 2509.2,1809.6 				"/>
				<polyline class="st4" points="2514.2,1805 2520.2,1799.8 2520.4,1799 2520,1798.6 2516.8,1794.6 2516.4,1794.6 2516,1794.6 
					2515.6,1794.4 2515.2,1794.4 2510.4,1798.8 				"/>
				<polyline class="st4" points="2504.4,1804 2502.6,1805.6 2500.2,1806.2 2498,1808.4 2492.8,1802.4 				"/>
				<polyline class="st85" points="2482,1790 2432.2,1733 2355,1689.2 2227,1664.6 2099.8,1602.8 2069,1593.6 2057.2,1584.4 
					2043.6,1573.8 2024,1564.8 2004.4,1558.8 1986.4,1551.2 1962.4,1540.8 1941.2,1533.2 1923.2,1530.2 1890,1522.6 1876.6,1522.6 
									"/>
				<polyline class="st4" points="1868.4,1522.6 1860.4,1522.4 1860.4,1519.2 1859,1517.6 1858.8,1515 				"/>
				<polyline class="st4" points="1858.4,1507.6 1858.2,1501.2 1857.8,1500.8 1857.4,1500.8 1857,1501.2 1857.6,1509 				"/>
				<polyline class="st4" points="1858,1515 1858.2,1518 1857,1519.6 1857,1522.6 1849,1522.6 				"/>
				<polyline class="st86" points="1832,1526 1828.2,1528.6 1817.6,1531.6 1807.2,1535.2 				"/>
				<polyline class="st4" points="1798.6,1538 1791,1540.4 1790,1533.6 1790.4,1532.6 				"/>
				<polyline class="st87" points="1785.8,1515.2 1785,1510.8 1784.6,1510 1784.2,1509.6 1783.4,1509.6 1778.8,1510.4 
					1778.4,1510.8 1778,1511.2 1777.6,1511.6 1777.6,1512 1781,1526 				"/>
				<polyline class="st4" points="1782.2,1534.6 1783,1535 1784.6,1542 1777.6,1543.4 1776.6,1543.6 				"/>
				<polyline class="st4" points="1766.4,1545.6 1758.6,1547.8 1758.6,1547.4 1760.2,1544 1759.8,1541.2 1759.2,1540.4 				"/>
				<polyline class="st4" points="1755.8,1529 1754.4,1522.4 1754,1522 1753.6,1521.6 1753.6,1521.2 1753.4,1521.2 1753,1521.2 
					1748,1522.4 1747.6,1522.6 1747.2,1523.4 1747.2,1523.8 1747.2,1524.2 				"/>
				<polyline class="st4" points="1750.6,1542 1750.2,1543.6 1751,1546.2 1753.6,1548.6 1745.6,1548.6 				"/>
				<polyline class="st88" points="1730.4,1548.6 1729,1548.6 1704.8,1548.6 1684,1548.6 1659.8,1555.6 1637,1561.8 1611.2,1569.4 
					1588.6,1577 1566,1592 1545,1608.6 1540.4,1613.4 				"/>
				<polyline class="st4" points="1535.2,1619 1529.8,1624.8 1528.6,1624.4 1527.4,1624.4 1526.2,1624.4 1525.2,1624.8 
					1523.6,1625.6 1522.4,1626.6 				"/>
				<polyline class="st89" points="1511.8,1636.6 1482,1664.6 1478,1668 1454.2,1693 1420.2,1732 1416.4,1736.4 				"/>
				<polyline class="st4" points="1411.6,1741.8 1406.4,1747.8 1399.8,1743.4 				"/>
				<polyline class="st4" points="1387,1734.6 1381.8,1730.8 1381,1730.8 1380.2,1730.4 1379.4,1730.8 1378.6,1731.2 1378.2,1731.6 
					1377.8,1732.4 1377.6,1733.2 1377.6,1734 1377.8,1734.6 1378.6,1735.4 1379.8,1736.2 				"/>
				<line class="st84" x1="1391.6" y1="1744.2" x2="1409.4" y2="1756.2"/>
				<polyline class="st4" points="1415.2,1760.2 1420.2,1763.6 1421.8,1764.8 1420.2,1767.4 1419.2,1768.6 1420.2,1771.6 
					1421.8,1776.2 				"/>
				<polyline class="st54" points="1427,1792.4 1428.4,1796.8 1426,1807.4 1424.4,1818.4 1420.2,1829.4 1413.8,1837.2 
					1348.2,1855.4 1346.2,1856.6 1339.4,1855.8 1322.8,1862 1308,1873.8 				"/>
				<polyline class="st4" points="1301.4,1879 1301.2,1879.2 1300,1887 1293.4,1891.4 				"/>
				<line class="st90" x1="1281" y1="1899.8" x2="1262.6" y2="1912.4"/>
				<polyline class="st4" points="1256.2,1916 1248.8,1919 1245.4,1917.4 1244.6,1916.2 1243.6,1913.6 				"/>
				<polyline class="st91" points="1245.8,1895.2 1250.6,1867.2 1251.4,1861.6 1253,1852.6 1254.2,1848 1257.2,1843.6 1257.2,1839 
					1254.2,1834.6 1252,1833.8 				"/>
				<polyline class="st4" points="1243,1834.8 1239.2,1836 1235.2,1836 1232.2,1828.6 				"/>
				<polyline class="st4" points="1227.6,1818.2 1225.2,1812.6 1224.8,1812.2 1224.4,1811.8 1223.6,1811.4 1223,1811.8 
					1222.6,1811.8 1221.8,1812.6 1221.8,1813 1221.4,1814 1223.6,1819 				"/>
				<polyline class="st4" points="1228.2,1829.8 1231.4,1837.2 1223.8,1839.6 				"/>
				<polyline class="st4" points="1223.6,1839.6 1222.6,1840 1215.6,1839.6 1213,1842.6 1212.2,1846.4 1208.6,1848 1208,1848.4 
					1204.6,1847.6 				"/>
				<polyline class="st4" points="1203.4,1847.2 1195.6,1845.4 1195.6,1846 1206.4,1849.2 1206,1851 1208,1852.6 1207.2,1856 
					1208,1863.4 1206,1863.8 1206,1868.4 1208.2,1868.8 1208.2,1874.6 1207.6,1876.8 				"/>
				<polyline class="st35" points="1197.8,1891.2 1179.4,1905 1175.2,1906.6 				"/>
				<polyline class="st4" points="1166.4,1909.6 1159,1912.4 1156.2,1904.8 				"/>
				<polyline class="st4" points="1152.8,1895.2 1150,1887.8 1156.2,1882.6 				"/>
				<polyline class="st92" points="1168.6,1872 1180.6,1862 1181.4,1861.2 1182,1860 1182.4,1858.8 1182.4,1858 1182,1856.6 
					1181.6,1855.8 1181,1854.6 1180.2,1854.2 1179.4,1853.8 1178.2,1853.4 1177,1853.4 1176,1853.4 1175.2,1853.8 1173.6,1855.4 
					1169.8,1858.4 1142.4,1881.2 1102,1887.4 1088,1889.2 1078.4,1890.8 1072.2,1891.6 1060.6,1893.4 				"/>
				<polyline class="st4" points="1052.4,1894.2 1049,1894.6 1044.4,1895.4 1043,1893.6 1042.4,1888 				"/>
				<polyline class="st4" points="1041.4,1880.4 1040.6,1873 1040.2,1872.6 1040.2,1872.4 1039.8,1872.4 1039.4,1872.4 
					1033.4,1872.6 1033,1873 1032.6,1873 1032.6,1873.4 1032.2,1873.4 1032.2,1873.8 1033,1881.4 				"/>
				<polyline class="st4" points="1034,1889 1034.4,1893.8 1034.4,1894.6 1033.6,1895.4 1033.4,1896.2 1033.4,1896.6 1025.4,1897.4 
									"/>
				<polyline class="st93" points="1005.2,1899.6 1001.2,1900 998.6,1900.4 996.6,1900.4 993.6,1900.4 992.4,1900.4 991,1900.4 
					989.8,1900 988.6,1899.2 987.4,1898.6 986,1897.8 985.2,1896.6 984.4,1895.8 983.6,1894.6 982.8,1893.6 982,1892 981.6,1890.8 
					981.6,1888.8 				"/>
				<polyline class="st4" points="980.8,1878.8 980.6,1873.4 980.6,1870.8 982.4,1871.2 982.4,1872 984,1872.6 984.4,1870.4 
					982.8,1870 982.8,1870.4 982,1870.4 983.2,1865.8 984,1866.2 984,1866.6 985.6,1867 986,1865 984.4,1864.6 984,1865.4 
					983.6,1865 986.6,1854.2 986.6,1853.4 986.6,1852.6 986.2,1852.2 986,1851.8 989,1851 987,1843.4 				"/>
				<polyline class="st94" points="984.2,1832.8 983.2,1828.8 982.8,1828 982.8,1827.6 982.4,1826.8 982,1826.4 981.2,1825.6 
					980.6,1825.2 979.8,1825.2 979,1824.8 978.2,1824.8 977.4,1825.2 976.6,1825.6 975.8,1826 975.4,1826.8 974.8,1827.6 
					974.4,1828 				"/>
				<polyline class="st4" points="975.2,1833.4 977.4,1841 969.4,1841 				"/>
				<polyline class="st95" points="951,1838 950,1837.6 947.4,1836.8 943.6,1836 940.8,1835.6 937,1835.6 934.6,1835.6 932.8,1836 
					930.4,1836.4 928.4,1836.8 926.2,1837.6 923.8,1838.8 923,1839.2 				"/>
				<polyline class="st4" points="914.8,1844.2 910,1849.2 909.6,1849.6 909.2,1850 909.2,1850.4 909.2,1851 909.2,1851.4 
					909.2,1851.8 909.6,1852.6 910,1853 910.4,1853.4 910.8,1853.8 911.2,1853.8 908.8,1861.4 				"/>
				<polyline class="st13" points="901,1874.8 900.4,1875.4 898,1878 896.8,1879.2 895.8,1881.2 895,1883 893.4,1885.8 893,1887.4 
					891.4,1889.6 891,1890.8 889.2,1893.8 887.6,1896.2 884.6,1900 882.2,1902.8 879.2,1904.6 874.8,1906.6 871.4,1908.2 
					866.4,1909.6 860.6,1910.8 856.4,1910.8 851.8,1910.4 844,1909.4 830.2,1905.8 815.2,1901.6 814,1901.6 802,1900.8 
					790.4,1900.8 788.2,1900.4 785.4,1899.6 782.8,1898.2 779.6,1896.2 777,1893.8 773.2,1889.6 769.6,1889.2 767,1888.8 
					761.2,1888.4 757.4,1888 754.6,1887.8 747.8,1887 738.4,1885 				"/>
				<polyline class="st4" points="730.4,1883.6 726.6,1882.6 723,1884.6 715.6,1881.6 				"/>
				<polyline class="st96" points="702,1876.6 695.6,1873.8 692.2,1872.6 689,1871.2 681,1868 655,1857.6 				"/>
				<polyline class="st4" points="648.4,1854.8 641,1851.8 640.2,1848.4 639.8,1848.4 633.6,1844.6 633.4,1844.4 				"/>
				<polyline class="st4" points="625,1832.8 622.4,1825.2 630,1822.8 				"/>
				<polyline class="st4" points="637.4,1820.4 641,1819 641.8,1818.8 642,1818.4 642.4,1818 642.8,1817.6 642.8,1817.2 
					643.2,1816.8 643.2,1816.4 643.2,1816 642.8,1815.6 642.8,1815.2 642.4,1814.8 642.4,1814.4 642,1814 641.8,1814 641.2,1813.8 
					641,1813.8 640.6,1813.8 640.2,1813.8 639.8,1813.8 633.6,1815.8 				"/>
				<polyline class="st4" points="628.4,1817.6 620.8,1820.2 618.2,1812.8 				"/>
				<polyline class="st4" points="617,1809.6 614.4,1802.2 621.8,1799.6 				"/>
				<polyline class="st4" points="626.4,1798 633.2,1795.6 634,1795.6 634.4,1795.2 634.8,1794.4 635.2,1793.6 635.2,1793.2 
					635.2,1792.6 634.8,1792.2 634.4,1791.4 634,1791 633.6,1791 632.8,1790.6 632.4,1790.6 631.6,1790.6 628.2,1791.8 				"/>
				<polyline class="st4" points="620.4,1794.6 612.8,1797.2 610,1789.6 				"/>
				<polyline class="st4" points="613.2,1773.4 616.2,1766 608.6,1762.8 605.4,1770.2 				"/>
				<polyline class="st4" points="602.4,1777.6 600.4,1782 597.8,1783.6 590.4,1780.4 				"/>
				<polyline class="st4" points="589.6,1780 584.6,1777.8 582.2,1776.8 582.4,1776.4 581.6,1774 583.4,1769.4 				"/>
				<polyline class="st97" points="588.6,1757 589.2,1755.2 589.2,1754.8 589.2,1754.4 589,1754 582.8,1751.2 582.4,1751.2 
					582,1751.6 581.6,1752 578.4,1760 				"/>
				<polyline class="st4" points="575.8,1766 573.8,1771 572,1772 571.6,1772.4 564,1769.6 				"/>
				<polyline class="st4" points="562.4,1768.8 555,1766 555.4,1765.6 554.2,1763.6 557,1756 				"/>
				<polyline class="st4" points="559,1750.8 561.6,1744 561.6,1743.6 561.6,1743.2 561.2,1743.2 560.8,1742.8 555,1740.8 
					554.6,1740.8 554.2,1740.8 553.8,1740.8 553.8,1741.2 551.2,1748.4 				"/>
				<polyline class="st4" points="548.4,1755.8 546.6,1761 545,1761.6 544.6,1762.4 537,1759.8 				"/>
				<polyline class="st4" points="535.2,1759.2 527.6,1756.6 528,1756 526.8,1754.4 529.2,1746.6 				"/>
				<polyline class="st4" points="530.8,1741.2 533,1734.4 533,1734 533,1733.6 532.6,1733.2 526.8,1731.6 526,1731.2 525.6,1731.6 
					525.2,1731.6 525.2,1732 523,1739.2 				"/>
				<polyline class="st4" points="521.4,1744.4 519.2,1752 517.2,1752.8 511.6,1751.2 				"/>
				<polyline class="st4" points="505.8,1749.4 500.2,1747.8 499,1745.8 501.2,1738.2 				"/>
				<polyline class="st4" points="502.6,1733.2 504.4,1725.8 504.4,1725.4 504.2,1725.4 504.2,1725 503.8,1725 497.6,1723.2 
					497.2,1723.2 497.2,1723.6 496.8,1723.6 496.4,1724 494.6,1731.2 				"/>
				<polyline class="st4" points="493.4,1736.2 491.4,1744 489.4,1745 483.8,1743.8 				"/>
				<polyline class="st4" points="478.2,1742.4 472.2,1740.8 471,1739.6 473,1732 				"/>
				<polyline class="st4" points="474.6,1726.2 476.8,1718.6 476,1717.8 469.4,1715.8 468.2,1716.6 466.6,1723 				"/>
				<polyline class="st4" points="464.4,1731.2 462.8,1737 461.4,1738.2 453.6,1736.2 				"/>
				<polyline class="st4" points="452.2,1735.8 444.4,1734 443.2,1732 442.8,1732 445,1724.2 				"/>
				<polyline class="st4" points="446.4,1718.6 448.6,1710.8 440.8,1708.8 438.8,1716.6 				"/>
				<polyline class="st4" points="437.2,1722.4 435.2,1730 433.2,1730.8 427,1729.4 425,1725.8 415.4,1723.2 417.6,1715.4 				"/>
				<polyline class="st4" points="418.8,1711.2 420.8,1703.4 417.8,1702.6 412.2,1708.4 				"/>
				<line class="st98" x1="399.8" y1="1721.4" x2="381" y2="1740.8"/>
				<polyline class="st4" points="374.8,1747.2 369.2,1752.8 360,1746.6 357.2,1746.2 356.4,1744.8 356,1742.4 348.4,1740.4 				"/>
				<line class="st99" x1="339.4" y1="1738.2" x2="326" y2="1734.8"/>
				<polyline class="st4" points="321.4,1733.6 313.6,1731.6 313.2,1730.8 315.2,1724 				"/>
				<polyline class="st4" points="315.4,1722.6 317.2,1716.2 318.4,1715.4 326.4,1717.8 326.8,1716.6 327.2,1716.6 328,1714.2 
					328.8,1714.6 328.4,1717 334.2,1718.6 338,1716.2 339.2,1712.4 336.8,1708 331,1706.6 330.2,1709.2 329.2,1708.8 329.8,1706.6 
					329.6,1706.2 329.8,1705 321.4,1702.6 321,1702 322.8,1695 				"/>
				<polyline class="st4" points="322.8,1695 324.8,1687.2 325.6,1687 332.2,1688.8 333,1685.8 334.2,1686.2 333.4,1688.8 
					335.2,1689.6 336,1687 337.6,1687 336.8,1690 341,1691.2 345.2,1688.8 346.4,1685 345.6,1683.8 339.4,1682 				"/>
				<line class="st100" x1="322.8" y1="1677.4" x2="298" y2="1670.8"/>
				<polyline class="st4" points="289.8,1668.6 282,1666.4 281,1667.2 279.8,1671 282,1675.4 289.8,1677.4 				"/>
				<polyline class="st4" points="302.2,1680.6 309.8,1682.6 310.2,1680 311.4,1680 310.6,1683 313,1683.4 313.6,1680.8 
					314.8,1681.2 314,1683.8 320.6,1685.8 321,1686.6 319.2,1693.4 				"/>
				<polyline class="st4" points="319,1694 317.2,1700.8 316.4,1701.6 308.6,1699.4 				"/>
				<polyline class="st4" points="292.8,1695.2 285.2,1693 284.8,1694.2 284,1696.6 282.8,1696.6 283.2,1693.8 277.8,1692.4 
					277.4,1692.4 273.2,1694.6 272.4,1698.4 275.2,1702.6 280.6,1704.2 281.4,1701.6 282.4,1702 282,1704.6 282,1705.8 
					290.2,1707.8 291,1708.8 289,1716.6 				"/>
				<polyline class="st4" points="288.8,1717.2 287.2,1723.6 286,1724.2 278.2,1722.2 				"/>
				<polyline class="st4" points="272,1720.6 265.8,1719 264.4,1719.6 263.2,1719.2 259,1714 				"/>
				<polyline class="st101" points="249.2,1701.6 237,1686.2 107,1651.4 -51,1646 -79.4,1653.8 				"/>
				<polyline class="st4" points="311.6,1723.2 310,1729.6 308.8,1730.4 301.2,1728.2 				"/>
				<polyline class="st4" points="297.8,1727.2 291.2,1725.2 290.4,1724.4 292.6,1716.8 				"/>
				<polyline class="st4" points="292.8,1716.2 294.8,1709.6 295.6,1708.8 303.2,1711 				"/>
				<polyline class="st4" points="306.8,1711.8 313,1713.6 313.8,1714.8 311.8,1722.4 				"/>
			</g>
			<g id="Pre1900_HKI">
				<path id="Pre1900_HKI-2" class="st102" d="M-323.6,2843.4l4.8-4.8l2.6-5.4l2.6-8l2.6-2.6l-5.4-2.6l5.4-5.4l5.4-5.4l2.6-5.4
					l5.4-8h3.4l1.8-8v-5.4l2.6-5.4l2.6-2.6l2.6-8v-18.6l8-8v-10.6l2.6-8v-16l-5.4-2.6v-8l-2.6-2.6l2.6-5.4l-2.6-5.4h-2.6l-2.6-5.4
					l-5.4-2.6l2.6-8v-16l-2.6-2.6l-5.4-2.6v-5.4l-8,2.6l-9.2-2.6l-4.2,2.6h-5.4l-2.6-2.6l-2.6,2.6l-5.4-2.6v-5l2.6-5.6l-5.4-5.4
					v-4.2l-5.4-6.4l-2.6-5.4l-5.2-2.6l-2.6-5.4l5.4-8l5.2-5.4l5.4-8l-2.6-8l-2.6-5.4l-2.6-5.4v-10.6l2.6-5.4l-5.2-5.4l-2.6-8v-8
					l-2.6-5.4l-2.6,8h-8l-5.2-2.6l-2.6,2.6v8l-2.6,2.6l2.6,5.4l-2.6,5.2l-8,0.2l-2.6,2.6l-2.6,8l-2.6,5.4l-5.4,2.6l-5.4,2.6
					l-5.4,2.6l-8,2.6v8l-5.4,2.6l-2.6-2.6v-4.6l-5.2-3.4h-10.6l-5.4-8h-5.2l-2.6-2.6l-5.4,2.6l-2.6-2.6l-2.6-5.4l-5.4-2.6v-7.8
					l-2.6-2.8l-5.4-8l-5.4-8l-2.6-2.6v-8.6l2.6-4.6l-2.6-5.4l5.4-8v-10l-2.6-8l2.6-8l5.4-2.6l-2.6-8v-8l2.6-8l2.6-5.4l5.2-5.4l2.6-8
					l-5.4-5.4l-2.6,2.6v-10.6l5.2-5.4l-2.6-5.4l2.6-2.6v-5.4l-5.2-2.6v-5.4l-2.6-5.4h-5.4l-5.4-5.2v-5.4l-5.2-2.6l-5.4-2.6l-5.4-2.6
					l-2.6-5.4v-8l-5.4-2.6l2.6-5.4l-2.6-2.6l2.6-5.4V2319l2.6-8l5.4-5.4v-2.6l-5.4-5.4v-13l-8-8l-5.4-5.4l-5.4-2.6l-5.4,5.4v7.6
					l-2.6,3.2l-2.6,5.4l-5.4,2.6l-2.6,5.4l-5.4,2.6h-8l-8,2.6l-5.4-2.6h-5.2l-8-5.4h-16l-13.2-2.6l-8-2.6h-5.4l-5.4-8h-8l-2.6-5.4
					l-2.6-2.6l-8-2.6l-2.6-2.6l-8-2.6l-2.6-2.6l-5.4-2.6v-3.2l-5.2-4.8l2.6-8l-2.6-4.8l-2.6-3.2h-5.4l-5.4-5.4l-2.6-5.4l-2.6-2.6
					l-8-2.6l-2.6-5.4l-8-10.6h-5.6l-5-2.6l-2.6-5.4l-5.4-2.6l-5.2-5.4l-5.4-2.6l-5.4-2.6l-5.4-2.6h-4.2l-3.2-2.6l-5.4,2.6l-5.4-5.4
					l-8-2.6l-2.6-5.4l2.6-10.6l-2.6-5.4v-4.8l-2.6-3.2l2.6-5.4l-5.4-2.6l2.6-8l-8-2.6l5.4-8l2.6-10.6l8-8v-10.6l2.6-8l2.6-8v-8
					l8-5.4v-8l-2.6-5.4l2.6-5.4v-8l5.4-2.6l8-5.4l8-10.6l5.4-2.6l5.2-8l2.6-5.4l5.4-8l2.6-8l5.2-5.4l5.4-8l16-13.2l10.6-5.4l5.4-8
					l10.6-2.6l5.4-2.6l18.6-2.6l5.4-2.6l8-2.6l8-5.4l18.6-2.6l10.6-2.6h12.8l13.8-2.6h10.6l13.2,5.4l13.2,2.6h24l10.6,2.6l10.6,2.6
					l5.4,2.6l8,5.4l8,2.6l10.6,2.6h10.6l10.6-2.6l10.6-2.6l8-2.6l8-2.6l13.2-8l8-8l5.4-8l5.4-10.6l2.6-8l2.6-8l5.4-5.4l5.4-5.4
					l8-5.4l10.6-5.4l8-8l5.2-5.4l5.4-2.6l8-5.4l2.6-13.4l2.6-8l5.4-8l5.4-8v-12.6c2.6,2.6-2.6-5.4-2.6-5.4l2.6-8l5.4-5.4h10.6l8,2.6
					l10.6,2.6l18.6,2.6l10.6,8l8,2.6h29.2l13.2-2.6l8-2.6l10.6-5.4l10.6-5.4l8-5.4l8-5.4l8-2.6l10.6-2.6h16l8,8l5.4,2.6l8,2.6h10.6
					l10.6-2.6l10.6-5.4l2.6-8l2.6-8l2.6-2.6l5.4-2.6h18.6l8,2.6H0l2.6,8v5.4l5.4,5.2l8,2.6h31.8l8,2.6h5.4l10.6,2.6h16l5.4,2.6
					l2.6,2.6l2.6,5.4l5.4,2.6h5.2l5.4,2.6l2.6,2.6h10.6l5.4-2.6l5.4-2.6l2.6-2.6l5.4-5.4l5.4-2.6h2.6l5.4-2.6l5.4-2.6l2.6-2.6h2.6
					l5.4,2.6l8,5.4l5.4,5.4l10.6,8l8,8l8,5.4l8,8h16l2.6-5.4l5.4-2.6h5.4l2.6,5.4l8,5.4l8,5.4l2.6,5.4v8l8,2.6l8,2.6h5.4l5.4-2.6
					l5.4-2.6h2.6l5.4-2.6l2.6-5.4h8l8,2.6h16l10.6,5.4l5.4,2.6h13.2l8,2.6l5.2,2.6l2.6,2.6l2.6,2.6l5.4,5.4l8,5.4l2.6,8v10.6
					l2.6,5.4l8,8l2.6,5.4l5.2,5.4l5.4,5.4l2.6,5.4l2.6,2.6l5.4,5.4l5.2,8l2.6,8l5.4,5.4l5.4,8l8,8l5.4,5.4l2.6,5.4l2.6,5.4l2.6,5.4
					l8,5.4l5.4,10.6l5.4,5.4h8l8,2.6h8l5.2,2.6l5.4-2.6H559l5.4-2.6l13.2-2.6l13.2,2.6l13.2,2.6l16,5.4l13.2,5.4l13.2,5.4l8,5.4
					l10.6,8l10.6,8l10.6,8l2.6,5.4v10.8l2.6,2.6h2.4l3-2.6l2.6-2.6l8-2.6H726l5.4-2.6l5.2-2.6l5.4-5.4l8-5.4h2.6l2.6,2.6l2.6,2.6
					l5.4,5.4l2.6,2.6l5.4,5.4v3.4l-8,7.2l-5.4,5.4l-5.2,8l2.6,5.4h10.4l11,2.6l8,5.4l5.4,2.6l5.2,2.6l8,5.4l5.4,2.6l5.4,5.4l2.6,2.6
					l10.6,8l8,5.4l8,5.4l8,5.4l5.2,5.4l5.4,2.6H875l8-2.6h5.4l8,2.6l8,5.4h36l6.4,5.4l10.6-2.6l5.2-2.6l8-2.6l5.4-2.6l8-2.6l10.6-8
					l8-2.6l10.6-2.6h8l8-5.4l5.4-2.6l5.4-2.6l18.6,5.4l18.6-13.4l8-10.6v-10.6h16l26.6-8l13.4-10.6l10.6-2.6l16,24l-2.6,16l5.4,24
					l5.4,5.4h16l10.6-4.8l10.6-11.2l8-10.6l8-2.6l18.6-8l13.4-13.2l-8-21.2v-10.6l2.6-8v-5.4l-2.6-8v-5.4l1.6-8.4l2-4.8l2.2-2.2
					l4.2-4.2l6.4-6.4l4.2-6.4l2.2-6.4l2.2-6.4l-2.2-4.2l-4.2-4.2l-3.6-4.8l-2-6.4l1.6-4.8l5.4-2.6l8-2.6l8,2.6l8,8l2.6,13.2v5.4
					l-2.6,8l-5.4,5.4l-2.6,5.4v5.4l8,2.6l8,5.4l10.6,10.6l10.6,8l13.4,5.4l16,5.4l16,2.6h21.2l8,10.6l10.6,8l8,2.6l13.2-2.6
					l13.4-5.4l13.2-2.6l18.6-5.4h39.8l10.6-8l2.6-10.6l-3-13.4l-5.4-10.6l-5.4-13.2v-18.6l-2.6-16l-2.6-16V1926l-2.6-21.2V1882
					l-2.6-21.2l-2.6-24l-2.6-13.2v-16l2.6-10.6l8-8l18.6-24l16-18.6l31.8-37.2l13.2-16l10.6-8l10.6-5.4h10.6l13.2,2.6l10.6,2.6
					l13.2,2.6l10.6,2.6h29.2l10.6-2.4l13.4-2.6l18.6-5.4l18.6-5.4l18.6-2.6l21.2-2.6h24l16-2.6l10.6-2.6l13.2-5.4l16-8l21.2-10.6
					l16-5.4l16.8-2.6h23l8,2.6l10.6,5.4l16,8l21.2,8l14.6,7.8l6.6,5.6l2.6,5.4l2.6,16l5.4,24l5.4,24l5.4,18.6l5.4,18.6l5.4,18.6
					l8,18.6l10.6,21.2l10.6,16l5.4,8l5.4,5.4h8l8-5.4l5.4-5.4l2.6-8v-5.4l5.4-8l5.4-5.4l8-5.4l5.4-2.6l5.4,2.6l2.6,5.4l5.4,8l8,13.2
					l5.4,10.6l5.4,8l5.4,2.6h5.4l2.6-5.4l2.6-8l5.4-8l10.6-10.6l8-5.4l8-2.6h8l10.6,5.4l13.2,8l10.6,5.4l8,8l13.4,5.4l13.2,2.6
					l16,2.6l21.2,8l13.4,10.6l5.4,8l16,21.2l8,13.2l10.6,13.4l8,13.2l8,13.2l13.2,13.4l16,10.6l21.2,13.4l24,10.6l18.6,5.4l21.2,5.4
					l10.6,8l10.6,16l8,13.4l10.6,16l8,13.2l5.4,5.4l8,5.4l10.6,5.4l8,8l8,5.4l5.4-2.6l8-8l5.4-5.4l2.6,8l5.4,2.6h8l5.4,5.4l8,5.4h8
					V2108l5.4-5.4l8-8l5.4-8l-5.4-2.6l-8-10.6l-5.4-16v-16l2.6-18.6l10.6-16v-18.6l-2.6-13.2l-5.4-16v-13l8-10.6l13.4-8l10.6-2.6h8
					l10.6,2.6l8,10.6l8,10.6l10.6,8l13.2-2.6l5.4,2.6l5.4-2.6l-2.6-8l-2.6-5.4V1914l-5.4-10.6v-8l8-5.4l13.4-2.6h10.6l5.4,8l8,5.4
					l5.4,8l5.4,5.4l10.6,8l10.6,8l10.6,8l8,8l13.2,10.6l10.6,8l10.6,2.6l8,2.6l2.6,5.4h10.6l5.4,5.4l5.4,2.6l5.4,2.6l5.4,5.4
					l-10.6,2.6l-2.6,2.6l5.4,2.6h8l5.4,2.6l5.4,8l-2.6,2.6l-2.6,5.4l-2.6,5.4l-2.6,5.4v5.4l-5.4,2.6l2.6,5.4l-2.6,5.4l-2.6,5.2
					l-5.4,2.6v5l-5.4,5.4l-8,2.6l-5.4,5.4l-8,2.6l-2.6,2.6l-8,2.6l-5.4,2.6v8l-2.6,10.6v10.6l2.6,8l2.6,2.6l5.4,5.4l8,5.4l5.4,2.6
					h5.4v5.4l-2.6,5.4l5.4,2.6l5.4,5.4l5.4,5.4l2.6,8l5.4,8l8,5.4l8,5.4l8,2.6l8-2.6h8l5.4-2.6h24l5.4-2.6l2.6-5.4v-5.4l5.4-2.6
					l2.6,2.6v5.4l-2.6,2.6l2.6,2.6h5.4l2.6,2.6l-2.6,2.6l2.6,2.6l2.6,2.6l-5.4,2.6l-2.6,5.4l-2.6,2.6v5.4l-8,2.6l-2.6,2.6l-8,2.6
					l-5.4,5.4h-5.4l-5.4-5.4l-5.4-5.4l-2.6,5.4v5.4l2.6,5.4l2.6,2.6l-2.6,5.4h-2.6l-5.4-2.6l-5.4,5.4v5.4l-2.6,2.6l-5.4,5.4v2.6
					l-2.6,8l-2.6,5.4l-2.6,8l-5.4,2.6v13.4l-2.6,2.6l-2.6,5.4l-2.6,8v5.4l2.6,5.4l-8,2.6l-2.6,2.6l2.6,5.4l-2.6,2.6l-2.6,5.4v8
					l-5.4,8l5.4,2.6l-2.6,2.6l5.4,2.6l2.6,5.4l-5.4,2.6l2.6,5.4l-5.4,2.6l-2.6,2.6l2.6,2.6l-8,5.4v5.4l-2.6,5.4l-2.6,8l-5.4,2.6v5.4
					l-8,2.6l-2.6,8l2.6,8l-5.4,8l-2.6,5.4l5.4,2.6v8l-5.4,5.4l-2.6,5.4l2.6,8l5.4,8l8,8l5.4,2.6l8-2.6l5.4-2.6l5.4,2.6l2.6,5.4
					l-2.6,5.4v10.6l-2.6,8l-8,2.6l-2.6,8l-5.4,5.4l-8,2.6h-10.6l-5.4-5.4l-5.4-5.4v-5.4l2.6-5.4h5.4v-5.4l-5.4-2.6l-5.4-5.4
					l-5.4,2.6l-2.6,2.6l-5.4-2.6l-2.6-5.4l-2.6-8l-2.6-5.4l2-3.4l-2-4.6l-5.4-2.6h-8l-5.4-5.4l-2.6-5.4v-5.4l-5.4-5.4l-2.6-5.4
					l-8-2.6l2.6,5.4l5.4,5.4l2.6,8l2.6,2.6v8l-5.4,5.4h5.4l4.4,2l1,8.6l2.6,2.6l-5.4,5.4v5.4l2.6,2.6v8l2.6,5.4v8l5.4,5.4l8,5.4h8
					l2.6,2.6l2.6,8l2.6,2.6l2.6,5.4l-2.6,5.4l2.6,2.6l2.6-2.6l5.4-2.6l2.6,5.4l8,2.6v2.6l-2.6,5.4l-2.6,5.4l2.6,5.4l5.4-8l8-2.6h8
					l5.4,8l5.4,5.4l8,2.6l5.4,2.6l8-5.4l8-5.4l2.6-8l8-8l10.6-5.4l8-8l16-2.6h10.6l2.6-10.6l5.4-8h10.6l10.6-2.6l8-5.4l5.4-5.4l0,0
					l8-5.4l5.4-5.4l8-2.6h8l5.4-2.6l5.4-2.6l2.6-5.4l5.4-5.4h2.6l8-5.4l5.4-8l5.4-8l5.4-2.6h13.4l5.4,2.6l2.6,2.6l5.4,5.4l2.6,2.6
					h5.4l5.4,2.6l2.6,2.6l2.6,2.6l2.6,5.4l2.6,2.6l2.6,5.4l2.6,5.4l2.6,2.6l2.6,5.4l2.6,2.6l2.6,5.4v16l5.4,2.6l2.6,2.6l2.6,2.6
					l5.4,2.6l2.6,2.6l2.6,2.6l2.6,2.6v10.6l-2.6,2.6l-2.6,2.6l2.6,5.4l5.4,2.6v13.4l-2.6,2.6l-2.6,5.4v5.4l-2.6,2.6l2.6,2.6l5.4,2.6
					v2.6l-5.4,5.4l-2.6,5.4l-2.6,5.4v2.6l2.6-2.6l5.4-5.4l2.6-2.6l5.4-2.6h34.6l8-2.6h24l5.4-5.4l5.4-5.4l5.4-2.6h2.6l2.6-8v-16
					l2.6-5.4l-2.6-5.4l-2.6-8l2.6-5.4v-16l-2.6-10.6v-5.4l2.6-5.4v-5.4l2.6-2.6l13.2-2.6l2.6-2.6l8-5.4h5.4l5.4-5.4l5.4,2.6h8
					l5.4,5.4l2.6,2.6l5.4,2.6l8,2.6l5.4,5.4l2.6,8h2.6l5.4,5.4v5.4l2.6,8l5.4,5.4v5.4l2.6,5.4l5.4,2.6v5.4l2.6,8l5.4,5.4l2.6,5.4h8
					l5.4,2.6l8,2.6l10.6,5.4h10.6l5.4,2.6l5.4,2.6l2.6,5.4h5.4l5.4,2.6l5.4,5.4l-2.6,2.6l-5.4,2.6l-8,2.6l-5.4,2.6l-7.4,2.4l-8,2.6
					h-8l-5.4,2.6l-5.4-5.4h-2.6l-2.6,5.4l-2.6,2.6l-5.4-2.6l-2.6-2.6l-5.4,2.6h-5.4l-2.6,5.4v18.6l2.6,13.4v8l2.6,5.4v2.6l2.6,8v5.4
					l5.4,5.4v16l-2.6,5.4v13.2l2.6,5.4l2.6,5.4l2.6,2.6h5.2l2.6,5.4l8,2.6l5.4,2.6l2.6,2.6l-2.6,5.4l8,2.6l2.6,2.6v5.4l2.6,2.6
					l2.6,5.4l-8,2.6l-5.4,5.4l-5.4,4.6v8.8l-5.4,5.4v8l-2.6,8l-2.4,4.8"/>
				<polygon id="Pre1900_Kettle_Is." class="st103" points="1210.6,1878.6 1215.8,1873.2 1220.6,1875.8 1220.6,1882.6 
					1226.4,1883.8 1229,1889.2 1226.4,1894.4 1226.4,1899.8 1223.8,1902.4 1219.8,1910.6 1213.2,1907.8 1207.8,1907.8 1204,1910.6 
					1199.8,1910.4 1202.6,1905 1207.8,1902.4 1207.8,1897.2 1204.6,1892 1205.2,1886.6 1207.8,1883.8 				"/>
			</g>
			<g id="Pre1900_Kln">
				<path id="Pre1900_KLN-2" class="st102" d="M5014.6,2549h-16l-13.2-2.6l-10.6-5.4l-8-2.6l-8-5.4l-10.6-5.4l-8-8l-5.4-5.4
					l-5.4-5.4h-10.6l-5.4-2.6l-2.6-3.4v-7.2l-2.6-8l-8-10.6l-10.6-5.4l-8-2.6h-5.4l-5.4,2.6l-5.2,5.4l-2.6,2.6l-2.6,5.4v18.6
					l-2.6,2.6l-5.4,5.4h-2.6v5.4l2.6,2.6l2.6,5.4l2.6,2.6l-2.6,2.6l2.6,5.4l2.6,5.4v5.4l2.6,8l-2.6,8l5.4,2.6l2.6,8v13.2l-2.6,8
					l-2.6,5.4l2.6,8l2.6,8l8,5.6v4.8l-5.4,8l-8,10.6l-8,10.6l-5.4,8l-8,8l-8,2.6l-10.6,2.6h-10.6l-5.4-2.6l-5.2-5.4l-8-2.6l-5.4-5.4
					h-10.4l-5.4-2.6l-5.4-2.6h-10.6l-5.4-2.6v-5.4l2.6-5.4l2.6-5.4l5.4-5.8v-7.4l-2.6-8l-5.4-8l-10.6-8l-5.4-7.6v-8.4l-5.4-8l-2.6-8
					l-8-8l-5.4-8l-2.6-5.4l-5.4-8l-5.2-10.6l-5.4-10.6l-8-5.4l-8-5.4l-8-5.4l-10.6-5.4l-8-2.6l-10.6-2.6h-10.6l-8,2.6l-10.6-2.6
					l-8-2.6l-5.4-5.4l-5.2-5.4h-8l-8-2.6l-8-2.6l-8-5.4l-8-5.4l-13.2-8.6l-2.6-7.2v-8l2.6-5.4l-2.6-5.4l2.6-7.4v-8.6l-2.6-8v-5.4
					l2.6-8.2v-18.4l-8-10.6l-10.6-5.4l-10.6-2.6h-8l-8,2.6l-8,5.4h-8l-10.6-5.4l-10.6-8l-13.2-2.6h-42l-18.6,2.6l-24-2.6l-5.4-2.6
					l-5.2-5.4l-8-5.4h-8l-10.6-5.4l-5.4-8h-5.2l-8-2.6l-8-2.6l-2.6,2.6h-5.2l-5.4,2.6l-5.4,5.4v5.4l-2.6,8l2.6,8l2.6,5.4l5.4,5.4v8
					l5.4,5.4l5.2,8l2.6,10.6l5.4,8l2.6,8l-2.6,5.4l-2.6,8l-8,5.4h-8l-10.6,2.6l-10.6-0.4l-5.4-2.4l-5.4,2.6l-5.2,2.6l-2.6,8l-2.6,8
					l-8,8l-5.2,8v5.4l-5.4,8l-5.4,5.4l-5.4,8v18.6l2.6,8l5.4,5.4l5.4,2.6l5.2,5.4v8l-5.2,8l-3.6,2.6h-6.8l-5.2-2.6l-5.4-2.6
					l-2.6-2.6l2.6-5.4l5.4-2.6v-5.4l-2.6-10.6l-2.6-13.4l-10.6-8l-8-2.6l-13.2-5.4l-8-5.4l-8-5.4l-2.6-8l-5.2-5.4l-5.4-8l-5.4-10.6
					l-5.4-8l-2.6-8l2.6-8v-24l-2.6-8l-2.6-8l2.6-10.6l2.6-10.6l2.6-13.2v-8l2.6-5.4l8-2.6v-29.2l-5.4-13.2l-5.4-13.2l-8-16
					l-5.4-18.6l-5.4-5.4l-2.6-8v-8l2.6-5.4v-10.6l2.6-8l5.4-10.6v-29l2.6-10.6l2.6-8v-8l5.4-8v-8l5.4-10.6l2.6-5.4l8-2.6l5.4-5.4
					l5.4-2.6h13.2l5.4,2.6l5.4,2.6h8l2.6-5.4l5.4-5.4l5.4-8l8-8l-5.2-2.6v-2.6h5.2l5.4-2.6l5.4-2.6l5.2-2.6l5.4-2.6l5.4-2.6l2.6-5.4
					l5.4-5.4l5.2-8l2.6-5.4l2.6-8l2.6-8l-2.6-5.4v-5.4h-5.4l-8-2.6l-2.6-1v-4.2l-5.4,2.6l-4.6,5.4h-3.4l-2.6-5.4v-2.6l2.6-5.4
					l-5.2-5.4l-2.6-8v-5.4l5.4-5.4l2.6-5.4v-5.4l-5.2-10.6l-2.6-8l-5.4-8l-5.4-8l-8-10.6l-5.4-5.4l-5.4-5.4l-5.2-2.6l-5.4-2.6h-5.4
					l-5.4,2.6h-5.2l-2.6-2.6l-2.6-5.4h-8l-2.6,5.4v2.6l-2.6,2.6l-5.4,2.6h-5.4l-8,2.6h-16l-3.4,2.6h-7.2l-2.6-2.6l-2.6-5.4l-5.4-8
					l-2.6-5.4v-5.4l-2.6-5.4l2.6-5.4V1845l-2.6-5.4l-2.6-5.4v-10.6l2.6-5.4l2.6-5.4l5.4-5.4l8-5.4l5.4-5.4l2.6-8v-16l2.6-10.6l2.6-8
					v-13.4l2.6-8l2.6-5.4l8-5.4l8-5.4l8-8l5.2-5.4l2.6-10.6l2.6-10.6l2.6-9.4v-9.2l-2.6-8l-2.6-8l-2.6-8v-8l-8-5.4v-1.8l2.6-5.4
					l-2.6-2.6l-9.2-1.4l-8-5.4l-12-9.4h-8l-8-1.4l-5.4,1.4l-5.4,2.6h-5.4l-5.4-2.6l-2.6-2.6l-2.6-2.6v-5.4l2.6-5.4v-8l2.6-10.6v-8
					l2.6-2.6l5.4-8l5.4-8l5.4-8V1502l2.6-5.4v-5.4l-2.6-8.8v-17.6h-2.6l-2.6,2.6l-5.4-2.6l-5.4-5.4l-5.4-5.4l-5.4-5.4l-5.4-5.4
					l-8-5.4l-5.4-5.4l-5.4-2.6l-2.6-2.6l-2.6-2.6l-2.6-2.6l-2.6,2.6v13.2l-5.4,2.6h-16l-5.4,2.6l-2.6-2.6l-5.4-2.6h-8l-8-2.6h-5.4
					l-5.4,2.6l-5.4,2.6l-2.6-2.6l2.6-2.6l5.4-2.6l-2.6-2.6l-5.4-8l-5.4-8l-8-5.4l-5.4-2.6v-5.4l-5.4-5.4l-5.4-5.4v-5.4l2.6-2.6v-8
					l-2.6-13.4l-2.6-13.2v-18.6l-2.6-5.4l-2.6-5.4l-2.6-5.4l-2.6-8l-5.4-8l-5.4-5.4l-2.6-5.4l2.6-8l2.6-8l-2.6-5.4l-2.6-8l-2.6-8
					v-4.2l2.6-5.4l2.6-8l-2.6-8l-2.6-2.6l-5.4-8l-8-10.6l-5.4-8l-5.4-5.4v-5.4h-2.6l-5.4-2.6l-5.4-8l-5.4-8l-2.6-2.6l-2.6-5.4
					l-5.4-8l-2.6-5.4l-5-4.8v-8l-2.6-5.4l-8-2.6l-8-2.6l-8-2.6l-8,2.6l-5.4,2.6l-5.4,2.6h-8l-5.4,2.6l-2.6-2.6v-5.4l-5.4-5.4
					l-2.6-5.4l-2.6-2.6v-5.4l-5.4-5.4l-2.6-5.4l-5.4-5.4l-2.6-5.4l-2.6-5.4v-8l2.6-5.4v-10.6l-2.6-5.4v-8l-5.4-8l-2.6-5.4l2.6-5.4
					l2.6-5.4l2.6-5.2l2.6-5.4l5.4-2.6l8-5.4l8-2.6l5.4-2.6l8-5.4l2.6-5.4l2.6-10.6l2.6-10.6l2.6-10.6l2.6-8l5.4-5.4v-8l2.6-5.4
					l5.4-2.6l5.4-5.4v-5.2l5.4-8l8-8l5.4-2.6l5.4,2.6l8,2.6l5.4,5.4l5.4,2.6l5.4,2.6l5.4,5.2V905l2.6-5.4h8l2.6-2.6l2.6-2.6l5.4-2.6
					l2.6-5.4v-5.2l2.6-2.6l6.4-4l7-9.2l8-8l8-8l10.6-8l2.6-6.8v-9l-5.4-10.6l-5.4-7.4V778l-8-5.4l-5.4-8l-5.4-8l-2.6-8l-2.6-5.2
					l-5.4-5.4h-5.4l-8-5.4l-5.4-5.4l-8-2.6l-8-2.6l-5.4-5.4l-5.4-2.6h-5.4l-5.4-5.4l-5.4-2.6l-2.6-8l-2.6-8l-5.4-5.4v-5.2l-5.4-7
					l-2.6-6.2l-5.4-5.2h-5.4l-5.4,2.6l-5.4,2.6l-2.6,5.4l-2.6,5.4v10.6l5.4,5.4l2.6,10.6v16l2.6,10.6l2.6,8l2.6,5.4v5.4l2.6,2.6h8
					l2.6,3v5l-2.6,8l-2.6,5.4l-2.6,5.4l-2.6,2.6l-2.6,2.6v5.2l-5.4,2.6h-5.4l-5.4-2.6h-5.4l-5.4,2.6l-5.4,2.6l-5.4,2.6l-8,2.6h-8
					l-8-2.6l-8-2.6h-8l-8-2.6l-8-5.4l-8-2.6l-8-3.4v-4.6l-8-8l-8-8l-5.4-8l-5.4-10.6L3680,730v-66.4l-2.6-10.6l-8-10.6l-10.6-8
					l-8-5.4l-8-8l-8-10.6l-5.4-8l-5.6-7h-6l-6.8,1.8l-8-2.6v-5.4l-5.4-8l-2.6-8l-2.6-8l-2.6-10.6l-2.6-8l-5.4-10.6l-8-5.4l-10.6-2.6
					h-10.6l-5.4-5.4l-2.6-5.2l-8-8l-5.4-5.4l-8-5.2l-8-2.6H3494l-5.4-2.6l-8-5.4l-8-2.6h-8l-5.4,2.6l-8,5.4l-8,2.6l-8,5.2l-8,5.4
					l-8,2.6l-8,2.6l-8,2.6h-8l-2.6,5.2v5.4l-5.4,2.6l-5.4-2.6l-8-5.4l-2.6-5.2l-8-2.6l-5.4-5.4l-2.6,2.6v8l-5.4,5.2l-5.4,2.6
					l-5.4,5.4l-8,2.6l-5.4,5.4l-2.6,5.2l-8,2.6l-10.6,2.6l-2.6,5.4v5.4l5.4,2.6h29.2l5.4,2.6l5.4,5.4v16l-2.6,5.4l-3.2,2.6h4.4
					l4,2.6v2.6l-2.6,5.2l-2.6,10.6h5.4l5.4,2.6l5.4,2.6h5.4l2.6-5.4l5.4-5.4l2.6-5.4l2.6-2.6h10.6l2.6,2.6l2.6,2.6l2.6,2.6v2.6
					l2.6,5.4l2.6,5.2l2.6,5.4l5.4,5.4l5.4,2.6l5.4,2.6h8l8,2.6l10.6,5.4l10.6,2.6h10.6l10.6,2.6l8,5.4l2.6,8l5.4,2.6l5.4,2.6
					l5.4,5.4l2.6,5.4v21.2l2.6,8l2.6,8l2.6,8v16l2.6,10.6v8l2.6,8l2.6,10.6v5.2l-5.4,5.4l-2.6,5.4v8l2.6,5.2l5.4,8l2.6,8v16l5.4,5.2
					h13.2l5.4,2.6l1.6,5.8v19.4l-1.6,9.2l-2.6,8l-5.4,2.6h-10.6l-2.6,2.6v26.6l-5.4,5.6v7.8l-8,10.6l-5.4,10.6l-5.4,13.2l-5.4,8
					l-5.4,8l-5.4,8l-5.4,8.4v7.6l-2.6,5.4l-2.6,8l-2.6,8l-2.6,9.6v9l-5.4,5.4l-8,8l-2.6,5.4l-2.6,8l-5.4,8l-8,5.4l-10.6,8l-13.4,8
					l-10.6,8l-8,5.4l-8,5.4l-8,5.4l-8,2.6l-8,5.4l-8,5.4l-5.4,2.6v5.4l-2.6,5.4h-5.4v11.4l-5.4,12.6l-10.6,5.4l-10.6,10.6l-8,10.6
					l2.6,8l5.4,5.4v5.4h12.8l9.6-2.6l13.4-5.4l13.2,2.6l10.6-2.6l5.4-8h10.6l5.4,2.6v9.8l-2.6,11.4l-2.6,16l-2.6,10.6l2.6,16
					l-2.6,12.6l10.6,10.6h4l9.4,5.4h16l5.4,5.4h8l8,2.6l8,5.4l2.6,8l-2.6,10.6l-2.6,10.6l-2.6,8l-8,8l-1.2,10.6l1.2,13.4v8l2.6,16
					v10.6l-2.6,13.2v13.4l2.6,13.2l-2.6,8l-8,2.6h-10.6l-8-2.6l-5.4,2.6h-8.4l-7.6,8l-5.4,18.6l-2.6,8l-8,8l-10.6,2.6l-8,2.6l-8,8
					l-5.4,10.6l-2.6,13.4l-5.4,8l-5.4,2.6h-9.4l-4,13.4l-10.6,10.6l-8,10.6l-10.6,8l-8,8l-5.4,8l-7.8,8l-5.6,2.6l-2.6-2.6l-5.4,8
					l-8,8l-8,2.6h-10.6l-2.6,2.6l-8,5.4l-2.6,2.6v9.4l-2.6,6.6l-8,5.4h-5.4l-2.6,2.6l2.6,13.4l-5.4,13.2l-5.4,5.4l-8,2.6l-5.4,5.4
					l-5.4,5.4l-10.6,2.6l-8,2.6l-8,5.4l-2.6,5.4l5.4,5.4l2.6,5.4l-5.4,5.4l-5.4,8l-5.4,10.6l-5.4,10.6l-8,8l-5.4,10.6l-8,8
					l-5.4,10.6l-5.4,10.6l-8,10.6l-5.4,5.4l-10.6-2.6h-18.4l-8-5.4l-10.6-2.6l-8-5.4h-10.6l-5.4-5.4l-5.4-2.6v-5.8h-2.6l-2.6,2.6
					v5.4h-2.6l-5.4-5.4h-2.6l-2.6,2.6l-2.6,5.4h-5.4l-2.6-2.6l-2.6-5.4l-10.6-10.6h-8l-2.6-5.4l-2.6-2.6l-8-2.6l-5.4-5.4l-10.6-8
					h-5.4l-8-8h-5.4l-5.4-5.4l-5.4-5.4h-8l-5.4,2.6h-5.4l-2.6-5.4l2.6-5.4l2.6-5.4v-5.4l5.4-5.4l5.4-5.4l8-8v-5.2l2.6-2.6h5.4
					l2.6-2.6l2.6-2.6l-5.4-2.6l-2.6-2.6l2.6-2.6l5.4-5.4l5.4-2.6l2.6-8l2.6-5.4l5.4-8l5.4-5.4l2.6-5.4v-18.6l2.6-8l2-2l3.4-3.4
					l5.4-5.4l5.4-10.6l2.6-5.4v-18.6l-10.6-2.6l-10.6,8l-8,8l-13.2-2.6l-13.4,2.6l-10.6,5.4l-8.4,8l-7.6,6.2c0,0-13.4-3.6-8-1
					s-8.2-5.4-8.2-5.4v-5l-7.8-3l-8-10.6l-10.6-5.4V1590l-2.6-5.4l-13.2-2.6l-13.4-5.4l-8-8l-8-5.4l-8-8l-5.4-2.6l-2.6-5.4l2.6-5.4
					l2.6-5.4v-2.6h-13.4l-2.6-2.6l5.4-5.4l5.4-5.4h5.4l5.4-5.4h5.4l2.6,2.6h5.4l5.4,5.4l5.4,5.4l10.6,2.6h5.4l8-2.6l2.6-2.6l-2.6-8
					l-2.6-8l-2.6-8v-5.4h5.4l2.6,2.6l5.4,2.6l8-2.6h10.6l5.4,2.6l2.6,5.4l5.4,2.6h5.4l4.4-5.4l6.2-2.6h8l8,2.6l5.4-2.6v-5.4
					l-2.8-5.2l-2.6-8l-8-10.6l-8-18.6l-2.6-8v-5.4l2.6-10.6l8-8l8-8l5.4-8l5.4-5.4l5.4-2.6l2.6-2.6h-8l-5.4,2.6h-5.4l-2.6-2.6
					l-2.6-2.6l-5.4,2.6h-5.4l-5.4,2.6l-8,2.6h-8l-8,2.6l-2.6,2.6l-2.6-2.6l-8,2.6l-5.4,5.4l-5.4,2.6l-10.6,2.6h-29.2l-16,2.6l-8-2.6
					H2749l-13.2-2.6l-8-5.4l-13.2-2.6l-8-2.6l-13.2,5.4h-8l-8-8l-8-5.4l-10.6-8l-10.6-2.6l-5.2-10.6l-2.8-5.2l-8-10.6l-2.6-13.2
					v-8.6l-16-20.8l-16-18.6l-5.4-8v-5.4l2.6-8v-34.2l-5.4-29.2l-5.4-10.6l-8-8l-2.6-10.6v-17l5.4-7l8-8l10.6-5.4h13.2l5.4-2.6
					l5.4-8l5.4-10.6l5.4-8v-10.6l2.6-5.4l2.6-8l-5.4-8l-2.6-2.6l-2.6-5.4l5.4-2.6h7l6.2-2.6v-8l2.6-5.4l16-2.6l18.6-5.4l2.6-10.6
					l8-13.2l16-10.6l16-8l5.4-8h-20.2l-11.6-5.4l-16,2.6l-23-2.6l-19.6-5.4l-10.6-5.2l-8,5.2h-8l-5.4-8l-8-5.4l-8-2.6l-10.6-2.6
					l-5.4-2.6l-2.6-7.8l-5.4-5.4l-2.6-8l-5.4-8l-5.4-5.4l-2.6-8l-2.6-5.4l-5.4-8l-5.4-5.4l-5.4-2.6l-5.4,2.6l-2.6,5.4h-5.4l-2.6,2.6
					l-5.4-2.6v-11.4l-2.6,1l-2.6,5.2l-2.6,8v21.2l-2.6,2.6h-5.4l-5.4-5.4h-8l-2.6-5.4l-8-5.2V915l-8-9.2l-5.4-8l-8-8l-5.4-2.6
					c0,0-13.2-5.2-10.6-5.2h-10.2l-8.4,2.6h-13.4l-4.6-2.6l-3.4-2.6h-6.2l-7.2,2.6h-2.6l-2.6-5.4h-4.6l-3.4-2.6l-7.2-1.4l-3.6-4
					h-7.2l-11.4-5.2h-9.2l-12.2-5.4l-8-2.6l-8-8l-8-8l-10.6-8l-5.4-5.4l-8-2.6l-5.4-2.6l-5.4-5.4l-2.6-2.6h-8l-5.4-5.4l-8-5.2
					l-5.4-5.4l-5.4-10.6l-2.6-10.6l-2.6-5.4l-2.6-8l-2.6-13.2l-5.4-13.2l-2.6-10.6l-5.4-5.2l-2.6-2.6v0.6l5.4-2.6l8-2.6l8-2.6
					l10.6-2.6l8-10.6l5.4-5.4V665l2.6-5.2h7l6.4-8l8-10.6l2.6-13.2l8-8l-8-10.6l-2.6-5.4l-5.4,2.6l-5.4-5.2l-8-5.4l-10.6-2.6l-8-8
					v-10.6l-2.6-8v-8l-8-8l-5.4-8l-10.6-16l-13.2-10.6l-10.6-8V503l-5.4-2.8v-3.4l5.4-4.6h-9.2l-6.6-5.4l-8-8l-5.4-10.6l-2.6-8
					l-10-5l-16-8l-13.2-5.4l-5.4-2.6l-8-13.2l-5.4-8l-10.6-8l-8,2.6l-2.6-2.6l5.2-5.4V394l2.6-8l5.4-5.4l-2.6-2.6l-5.4-2.6l-2.6-5.4
					v-2.6l-10.6-2.6l-10.6-5.4l-8-5.2l-2.6-10.6v-8.2l8-7.8l2.6-5.4l-10.6-10.2h-4.2l-6.4,2.4l-4,1.2l-2.2-3.4l8.8-5.6v-5.4
					l-8.8,2.4l-9.8,0.4l-16-10.6l-18.6-16l-2.6-2.6l-8,2.6l-10.6-8l-2.6,5.4h-2.6l-8-5.4l-8-8l-8-5.4l-8-10.6h-105.4l-16.6,2.6
					l-29.2,5.4l-21.2,8l-13.4,8c0,0-16,10.6-18.6,13.2l-16,16l-21.2,24l-24,26.6l-24,29.2l-13.2,16l-16,10.6l-10.6,10.6l-24,21.2
					l-10.2,13.2v15.2l-2.6,19.4l-5.4,10.6l-10.6,13.2l-13.4,8L1513,527l-5.4,8v34.8l-5.4,15.6l-11.4,4.6l-15.2-4.6l-2.6-10.6
					l-5.4-10.6l-2.6,8l-2.6,13.2l-13.2,10.6l-2.6,21.2l2.6,21.2l8,10.6l18.6,8l21.2,10.6l21.2,13.2l8,13.2l8,8l5.4,8v18.6l-2.6,16
					l-10.6,16l-16,10.6l-13.2,5.4l-8,5.4l-5.4,5.2l-10.6,5.4L1460,798l-8-2.6h-8l-8,5.4l-10.6,8l-8,5.4l-10.6,5.4l-8,13.2l-8,13.2
					v17l-2.6,28.2v73.6l5.4,16.8l10.6,18.6l13.4,10.6l10.6,10.6l8,21.2v10.6l2.6,5.4l8,8l16,2.6h18.6l13.2,5.4l16,5.4l16,8l8,2.6
					l8,5.4l2.6-2.6l10.6,8v8l-5.4,8l1.6,12.6l-8,10.6l-10.6,10.6l-8,18.6v24l-8,13.4v16l8,18.6l-2.6,13.2l2.6,10.6l-2.6,8l-8,2.6
					l-5.4-5.4l-10.6-8l-10.6-5.4l-5.4-2.6l-5.4-5.4l-5.4-10.6l-2.6-5.4h-5.4l-8-2.6l-8-5.4l-2.6-8v-10.6l-5.4-5.4l-10.6-5.4l-8-8
					l-5.4-5.4l-8-5.4l-10.6-2.6c0,0-8-2.6-8-5.4c-0.4-2.8-1.4-5.4-2.6-8v-10l-8-8.8l-5.4-8l-7.4-4.4l-5.4-8l-8-5.4l-8-2.6l-10.6-2.6
					l-13.2-5.4l-13.4-8c0,0-10.6-2.6-13.2-5.4c-3.4-2.8-7-5.6-10.6-8l-5.4-10.6l-2.6-2.6h-8l-5.4,2.6l-5.4,5.4l-13.4,5.4l-18.6,2.6
					l-24,5.4l-8,2.6l-4.8,2.6l-2.6,8v4.4l-5.4,3.6l-8,5.4l-8,5.4l-5.4,5.4l-5.4,8l-8,5.4l-10.6,13.2l-8,8l-5.4,13.2l-5.4,18.6
					l-5.4,21.2l-2.6,18.6l-5.4,26.6l-10.6,16l-5.4,8l-8,2.6l-8-5.4l-8-2.6l-5.4,5.4l-5.4,24l-8,26.6l-5.4,18.6l-8,18.6l-5.4,13.2
					l-5.4,18.6l-5.2,21.2l-2.6,18.6l-2.6,10.6l5.4,16l5.2,8v16l-5.2,13l-10.6,16l-13.2,13.2H978l-5.2-8v-6.2l-10.8-9.8l-2.6-8
					L954,1494l-5.4-8H930l-8,2.6h-34.4L877,1494l-13.2,2.6l-10.6,10.6l-2.6,10.8l-10.6,5.4l-2.6,10.6l-5.2,8h-5.4l-5.4-5.4v-7.2
					l-2.6-11.4l-2.6-8v-10.2l-2.6-5.8l-2.6-10.6l-5.4-10.6l-2.6-5.4l-2.6-10.6l-2.6-18.6l5.4-10.6v-24l-2.6-10.6l-5.4-10.6
					l-5.2-10.6V1346l-2.6-19.4l-2.6-16v-14.4l2.6-14.8l2.6-16l-2.6-10.6l-2.8-13.4l-5.4-7.8l-5.2-2.6l-10.6-2.6l-5.4-8l-2.6-5.4
					v-19.2l2.6-7.4l2.6-8l5.4-5.4l13.2-5.4l5.4-2.6l8-18.6l5.2-13.4l5.4-13.2l2.6-8l8-8l10.6-2.6l8-8l5.2-10.6l2.6-8v-21.2l2.6-8
					v-10.6l5.4-5.4v-13.2l-10.6-8L827,999.6l-5.4-2.6l2.6-13.2l5.4-10.6l2.6-10.6v-5.4l-5.4-5.2l-2.6-13.2l-8-10.6l-2.6-8l-8-2.6
					L803,915l-8-5.4v-8l-2.6-2.6l2.6-10.6l5.4-2.6l5.4-2.6l2.6-2.6v-8l-2.6-5.2v-8l-2.6-5.4l-2.6-8v-8l-5.4-8l-5.2-2.6l-8-5.2
					l-5.4-5.2v-29.2l-5.2-11.2v-3.4L768,766l-2.6-10.6v-53.2l-2.6-8v-8l5.4-5.2l5.4-8l8-16v-10.6l-2.6-8l2.6-8v-37.2l-10.6-8
					l-16-2.6l-18.6-5.2l-26.6-5l-32-2.6l-18.6,2.6l-2.6,5.4v15.8l-2.6,10.6l-5.2,13.2l-2.6,13.2l-2.6,18.6l-2.6,18.6l-5.4,8
					l-13.2,10.6l-2.6,8l-2.6,13.2l-10.4,13.2l-10.6,10.6l-10.6-5.4L575,710l-8-8l-5.4-8l-2.6-8l5.4-34.6l-2.6-24l8-26.6l5.2-8
					l4.8-5.4h5.8l8-2.6l6.6-1.2l6.8-1.4l5.4-2.6l2.6-2.6l5.4-5.4l-2.6-5.4l-5.2-5.2l-5.4-8l-2.6-10.6l-2.6-8l-5.4-2.4l-2.6-2.6h-5.2
					L582,524l-2.6-5.2L566,505.6l-16-16l-2.6-5.4l2.6-5.2l-2.6-8l-8-5.4l-16-10.6l-8-13.2l-2.6-13.2l5.4-5.4l13.2-2.6h13.2l10.6,5.4
					h13.2l13.2,5.4l10.6-13.2l10.6-16l-5-10.6l-0.4-16H590L579.4,365L566,338l-10.6-29.2l-8-26.6l-2.6-19v-13l-2.6-13.4l-10.6-8
					l-16-16l-16-8l-2.6-8l-8,2.6l-8-5.4l-5-2.4l-10.6-5.4l-2.6-8h-2.6l-5.4,5.4h-10.6l-8-8l-5.4-10.8V157l-8-8l-13.2-10.6
					l-13.2-10.6H391l-10.6-8l-10.6-10.6l-8-2.6l-5.4-5.4l-8,2.6l-13.2-8L314,90.4L292.8,85l-21.2-2.6l-2.6-8L255.8,69h-10.6
					c2.6,0-2.6-8-2.6-8l-2.6-2.6l-2.6,2.6l-2.4,5.4l-5.4-2.6h-8l-10.6,8l-10.6,5.4l-16,5.4l-16,5.4l-16,5.4l-13.2,8l-8,5.4l-8,2.6
					l-5.4,8l-8,5.4l-5.4,2.6l-2.6,8l-8,8l-13.2,5.4l-8,2.6l-2.6,8l-5.4,5.4l-5.2-2.2v-6l-6.2-2.6H42.6l-8,2.6l-5.4,2.6l-2.6,5.4v5.4
					l5.4,2.6h5.4l2.6,16l-5.4,5.4l-8,1l-2.6,4.2l2.6,10.6L24,221l-8,16l-2.6,5.2H8l-5.4,5.4l-5.4-2.6l2.6-8l-2.6-13.2l-5.4-10.6
					l-8-8l-5.2-13.2L-32,181.2l-10.6-5.2l-8-8v-5.4l5.4-5.4l5.4-5.4l5.4-10.6l2.6-16l-5.4-10.6l-8-5.4l-8-5.4l-2.6-7.6V85.4l-5.2-8
					l-8-8h-10.6l-8-5.4l-10.6-10.6h-5.4l-2.6-5.2l-10.6-8l-8-8l-8-5.2l-2.6-10.2V8.6l-8-5.4L-154,6c0,0-16,2.6-13.2,2.6H-186l-8,2.6
					l-2.6,16.2V51l-8,8l5.4,10.4v13.4l-5.4,8.8v15l-2.6,5.4l-10.6,2.6l-8,8l-11,5.4H-247l-5.4-5.4l-5.4-16l-13.2-5.4l-18.6-2.6
					l-8-10.6l-5.4-14.6V51l-14.2-2.6h-12.4l-8-5.4l-5.4-13.2l2.6-18.6l-5.4-2.6L-351,6l-5.2-10.8V-18l-2.6-8l-2.6-18.6l-5.2-5.2
					l-10.6-5.4l-5.2-2.6l-5.4-2.6l-4,2.6h-9.2l-10.6-2.6L-422.2-71l-3-5.4H-462l-5.4-2.6l-16-16l-9.6-8h-9l-10.6-5.4l-2.6-10.6
					l-2.6-10.6l-5.4-2.6v-10.6l5.4-18.6v-21.2l2.6-13.2l5.4-8l-2.6-8l-2.6-10.6l-5.4-5.4l5.4-8v-5.4l-8-8v-8l5.4-8l5.4-10.6V-289
					l2.6-10.6l8-18.6l2.6-18.6l-2.6-8l-8-5.4v-5.2l8-2.6h8l16-8l18.6-21.2l16-21.2l5.4-16l2.6-8l5.4-5.2l13.2-13.2l13.2-13.2
					l10.6-16l5.4-5.4v-16l5.2-10.6l5.4-5.2v-5.4l2.6-8l2.6-18.6l2.6-34.6v-16l2.6-13.2l5.2-2.6l5.4,2.6l5.4,2.6l2.6-2.6l5.2-10.6
					l2.6-10.6l2.6-8l5.4-2.6l2.6,2.6h5.2l-2.6-5.4v-26l5.2-8l5.4-5.4l5.4-2.6l-2.6-5.4h-2.6l-10.6,8l-8,10.6v13.2L-337-650
					l-10.8,13.2l-16,8l-16,8h-31.8l-13.2-5.4l-10.6-10.6l-8-8l-8-5.4h-21.2l-8,2.6l-8,8l-2.6,8l-5.4,5.4l-10.6,2.6l-10.6,2.6
					l-13.2,8l-10.6,10.6l-2.6,8l-10.6,2.6l-8,9.2l-8,12l-2.6,8l2.6,5.2l5.2,8l2.6,7.6v8.4l-2.6,8v10.6l-2.6,5.4h-5.2l-10.6-5.4
					l-13.2-8l-2.6-8l-2.6-13.2l-10.6-5.4l-16-5.4l-21.2-2.6l-18.6-2.6l-13.2,2.6l-13.2,5.4l-13.2,5.4l-13.2,2.6h-10.6l-5.4,2.6l-8,8
					l-5.4,13.2v10.6l2.6,13.2l2.6,13.2v5.4l-8,5.2l-10.6,2.6l-8,5.4l-8,5.4l-2.6,5.2l-8,2.6l-5.2-2.6l-2.6-5.2l-8-2.6l-8-2.6
					l-5.4-2.6v-8l-5.4-5.2l-2.6-10.6l-2.6-13.2l-10.6-13.2l-5.4-8l-5.4-10.6V-549l-5.2-10.6v-13.2l2.6-8l2.6-10.6l2.6-13.2v-10.8
					l-8-8l-10.6-8l-8-5.4l-8-2.6h-10.6l-8,2.6l-5.4,2.6l-5.6,5.4h-5l-5.4-8l-2.6-8l-5.4-8l-5.2-5.4l-5.4-2.6h-8l-2.6-2.6v-2.6
					l2.6-2.6l5.4-2.6l5.4-2.6h3.2l2.6,2.6l5.4,2.6l5.4,2.6h8l5.2,2.6l5.4-2.6l5.4-2.6l5.2-8v-5.2l5.4-8l5.4-8l5.4-2.6l-2.6-5.4
					l-2.6-5.4l2.6-5.4l5.4-2.6l8-5.2l5.4-8l2.6-8l5.4-8l10.6-8l10.6-8h13.2l10.6,2.6l5.4,5.2l2.6,5.4l8,5.4h8l5.4-8l2.6-10.6l5.2-8
					l10.6-2.6l10.6,2.6l10.6,8l8,2.6l5.2,5.2l5.4,8l8-2.6l8-5.4v-10.6l8-10.6l8-5.2l5.4-2.6l-2.6-5.4l-5.2-10.6l-2.6-10.6l5.2-8l8-8
					l11-2.6h7.6l8-5.4l5.2-8l-2.6-10.6l-13.2-10.6l-2.6-5.4l-10.6-5.4l-13.2-13.2l-13.2-10.6l-5.4-10.6l-8-13.2l-8-2.6l-13.2-2.6
					l-12.4-5.4l-11.6-2.6l-5.4-5.4l-8-8l-8-2.6l-8,2.6l-8,8l-10.6,5.4l-13.2,2.6L-835-937l-13.2-5.4l-8-8l-10.6-8l-5.4-2.6l-8-2.6
					l-5.4-2.6l2.6-10.6l2.6-8l5.4-10.6l5.2-10.6l8-16l2.6-16l2.6-2.6h10.6l8,2.6h21.2l2.6-8l5.2-8l2.6-8l-8-5.4l-10.6-2.6l-13.2-5.4
					l-16-10.6l-8-5.4h-16l-10.6-5.4L-902-1110l-13.2-13.4l-10.6-8h-5.4l-5.2-8l-2.6-8l-2.6-8v-8l-2.6-8.2l-5.4-2.4l-2.6,2.6l2.6,5.4
					l2.6,8v8l-2.6,8l2.6,10.6l2.6,5.4l-5.4,2.6l-10.6,2.6h-5.4l-5.4,2.6l-5.2,5.4h-5.4l-5.4-2.6l-8-5.4l-8-5.4l-8-2.6l-8-2.6h-5.4
					l-2.6,4.4v8.8l-2.6,2.6l-5.4,2.6h-2.6v-5.4l2.6-5.4l2.6-8l-2.6-5.4h-10.6l-2.6-6.2v-4.4l-5.4-5.4h-5.4l-5.4,2.6l-8,5.4h-5.4
					l-5.4-2.6l-5.4-8l-2.6,8l-5.4,2v11.4l-2.6,10.6l-8.6,8h-7v10.6l-5.4,8l-10.6,6l-10.6,8l-10.6,5.4l-10.6,5.4l-8,2.6l-5.4,8
					l-8,5.4l-8,2.6l-8,2.6l-8,5.4l-8,5.4l-5.4,8l-5.4,8l-5.4,2.6l2.6,5.4l-5.4,8l-8.8,5.2h-7.2l-10.6,2.6l-8,5.4l-5.4,8v8l2.6,8
					l-7,5.4h-6.2l2.6,5.2l-2.6,5.4l-8,2.6"/>
				<path id="Pre1900_Stonecutter_Is." class="st103" d="M-10.8,861.2l-8-8l-8-8L-32,832l-16-8l-5.4-8l-5.4-13.2l-8-16l-10.6-13.2
					l-5.4-5.4l-16-2.6h-6.2l-4.6-5.4L-99,755l5.4-13.2l-8-13.2l2.6-2.6v-8l-2.6-5.2l-5.4-5.4l-8-5.4h-17.8l-6-8l-5.4-2.6h-5.4
					l-5.2-5.4l-2.6,2.6H-168l-8,8l-8,2.6l-5.4,8V732l-2.6-1l-2.6-8l-5.4-10.6l-5.4-2.6h-8l-2.6-5.4h-10.6l-5.4,5.4h-8l-5.4,8
					l-2.6,5.4l-10.6,2.6l-13.2,2.6L-285,731l-10.6,8l-2.6,5.4h-16l-8,10.6h-10.6l-10.6-8l-8-8l-2.6-8l-8-8l-2.6-8v-5.4l-5.4-5.4
					l2.6-5.4l-5.4-5.4v-9.8l2.6-6l-5.4-8h-6.8l1.4-5.4l2.6-5.4v-5.4l-4.2-3.4v-7l1.4-5.6l2.6,2.6c0.2,2,1.2,4,2.6,5.4
					c1.4,1.6,3.2,2.4,5.4,2.6l2.6,5.4l8,5.4v2.6l10.6-8l8-5.4l5.4-2.6l5.4-10.6l10.6-10.6l8-8h16l16-2.6l16-2.6h9.6l19.8-8
					l10.6-10.6l18.6-16c0,0,8-21.2,8-18.6s8-18.6,8-18.6v-10.6l5.4-8v-5h4.4c2.2,0.8,4.2,1.6,6.2,2.6h10.6l2.6,2.6l8-2.6l5.4,5.4
					h5.4l8,8l5.4,5.4v8l2.6,2.6l5.4,5.2l2.6,10.6l8,10.6v8h5.4l10.6,10.6l5.4,8l8,5.4l10.6,13.2l18.6,13.2l13.2,13.2l16,8l18.6,8
					l10.6,2.6h13.2l5.4,2.6h10.6l5.4-5.4l10.6-2.6h8l8-8l8-10.6l5.4-5.4V622h5.4l-5.4-5.4l-2.6-5.4h-8l2.6-2.6v-8l8,2.6l5.4-7v-8.4
					l2.2-5.8l8,2.6l2.6,2.6l10.6,2.6l10.6,5.2l8,10.8l2.6,8l8,8l5.4,8l5.4,10.6l-2.6,8v8l-8,2.6l-10.6,2.6l-10.6,2.6l-10.6,5.4
					l-8,5.2L90,685.4l-13.2,13.2l-10.6,13.2l-10.6,10.6l-5.4,8L45,741v8l2.6,10.6l-8,2.6l-8,5.4l-8,5.4l-8,10.6L13,789v8l-2.6,5.4
					v24L5,837l-5.4,8l-5.4,8l-2.6,5.4L-10.8,861.2z"/>
			</g>
		</g>
	</g>
</g>
</svg>
