<?xml version="1.0" encoding="utf-8"?>
<!-- Generator: Adobe Illustrator 23.0.3, SVG Export Plug-In . SVG Version: 6.00 Build 0)  -->
<svg width="1920" height="1080" version="1.1" id="_1985" xmlns="http://www.w3.org/2000/svg" xmlns:xlink="http://www.w3.org/1999/xlink" x="0px" y="0px"
	 viewBox="0 0 1920 1080" style="enable-background:new 0 0 1920 1080;" xml:space="preserve">
<style type="text/css">
	.st0{fill:#70CCB8;}
</style>
<g>
	<path class="st0" d="M1160.3,538l-31.3,31.7c-0.4,0.3-0.6,0.8-0.6,1.3c0,1,0.8,1.7,1.8,1.7c0.5,0,0.9-0.2,1.2-0.5l31.3-31.7v0
		c0.1-0.1,0.1-0.1,0.2-0.2c0.6-0.7,0.5-1.8-0.2-2.5C1162,537.2,1160.9,537.3,1160.3,538z"/>
	<path class="st0" d="M1439.8,825l19.8-19.1l-0.9-3.7l-5.2-0.8l-3.4,0.6l-4.3,3.3l-4.3,1.1l-4.3,2.2h-4.4l-7.6-5.4l-8.6-7.6
		l-1.1-1.1v-1.6l1.1-0.5l-3.3-5.4l-2.2-1.1l-4.3-1.1l-3.3-1.1l-8.7-6.5l-7.6-6.5l1.8,9l47.8,48.7l8.6,8.7c0.8,0.8,2.2,0.9,3,0.1
		c0.8-0.8,0.9-2.2,0.1-3L1439.8,825z"/>
	<path class="st0" d="M1366.3,481.4l-2.2,1.1l-4.3-1.1l-4.3-2.2l-4.3-1.1l-4.3-1.1l-3.3-2.2v-3.3l-2.2-3.3l-4.3-2.2l-2.2-3.3
		l-5.4-5.4l-6.5-7.6l-3.3-5.4h-1.1l-1.1,3.3v10.9l1.1,8.7v2.2l-1.1,4.4l1.1,7.6v6.5l-2.2,3.3h-6.5l-4.3-1.1h-2.2l-3.3,1.1h-2.2
		l-2.2-1.1l-4.3-2.2l-4.3-3.3l-3.3-2.2l-4.3-2.2l-3.3-2.2l-1.1-2.2l-5.4-7.6l-13-17.4l-1.1-1.1h-1.1l-3.3,1.1l-3.3,1.1h-3.3
		l-1.1,1.1v4.6l-2.2,4.1l-2.2,1.1h-1.1l-4.3-2.2l-3.3-2.2l-2.2-2.2l-2.2-3.3l-2.2-4.3l-3.3-3.3l-3.3-2.2l-3.3-1.1l-5.4-3.3l-4.3-1.1
		h-7.6l-2.2,1.1h-3.3l-3.3-1.1l-4.3-1.1l-3.3-2.2l-2.2-1.1l-2.2-2.2l-2.2-1.1l-2.2-1.1l-4.3-3.3l-1.1-2.2l-1.1-2.2l-2.2-1.1h-6.5
		l-3.3-1.1l-3.3-1.1h-2.2l-3.3,2.2l-1.1,1.1h-1.1l-2.2-2.2l-3.3-1.1l-2.2-4.4l-3.3-3.3l-3.3-1.1l-5.4-2.2l-2.2-1.1l-2.2-3.3
		l-1.1-2.2l-2.2-1.1h-4.3l-1.1-1.1l-1.1-2.2l-3.3-2.2l-2.2-1.1l-2.2-4.4l-2.2-3.3l-1.1-3.3l-3.3-4.3l-2.2-1.1v-1.6l2.2-1.7l1.1-4.3
		v-2.2l-2.2-4.3l-2.2-1.1l-1.1-3.3v-4l1.1-2.5l3.3-2.2l4.3-2.2l2.2-3.3v-4.4l-1.1-3.3l-1.1-3.3l-1.1-3.3l-1.1-2.2V326l1.1-1.1h2.1
		l2.2-3.3l2.2-4.3l-1.1-2.2l1.1-3.3h-3.3l-1.1-1.1v-1.1l3.3-2.2l3.3-2.2l0.4-0.8l-3.7-1.4l-2.2-1.1l-1.1-1.1v-2.1l-1.1-1.1v-2.2
		l-1.1-1.1l-2.2-2.2l-1.1-2.2l0,0l0,0l-1.1-1.1l1.1-3.3l2.2-2.2l2.2-1.1l3.3-2.2l3.3-3.3l1.6-2l-1.3-4v-4l-4-4l-8-12l-6.7-5.3
		l-5.3-4v-2.6l-2.7-1.4v-1.6l2.7-2.3h-4.6l-3.3-2.7l-4-4l-2.7-5.3l-1.3-4l-13.3-6.7l-6.7-2.7l-2.7-1.3l-4-6.7l-2.7-4l-5.3-4l-4,1.3
		l-1.3-1.3l2.6-2.7v-5.3l1.3-4l2.7-2.7l-1.3-1.3l-2.7-1.3l-1.3-2.7v-1.3l-5.3-1.3l-5.3-2.7l-4-2.7l-1.3-5.3V155l4-3.9l1.3-2.7
		l-5.3-5.2h-2.1l-3.2,1.2l-2,0.6l-1.1-1.7l4.4-2.8v-2.7l-4.4,1.2l-4.9,0.2l-8-5.3l-9.3-8l-1.3-1.3l-4,1.3l-5.3-4l-1.3,2.7h-1.3
		l-4-2.7l-4-4l-4-2.7l-4-5.3h-53l-8.3,1.3l-14.7,2.7l-10.7,4l-6.7,4l-9.3,6.6l-8,8l-10.7,12l-12,13.3l-12,14.7l-6.7,8l-8,5.3
		l-5.3,5.3l-12,10.7l-5.3,6.7l-5.4,2.8l-10.9,4.3l-1.1,1.1h0l0.7,2.5l1.1,5.4v5.5l-2.9,5.4l-2.7,4l-3.1,1.4h-2.2l-2.2,1.1v8.6
		l2.2,2.2l3.3,2.2v1.1l-2.2,1.1l-1.1,3.3l-2.2,5.4l-3.3,5.4l-2.2,3.3h-9.8l-1.1-1.1l-1.1-2.2v-5.4l-1.1-2.2h-2.2v2.2l-1.2,4.2
		l-0.5,4l0,0l-0.8,6.7l1.3,10.7l4,5.3l1.3,0.6l0,0l8,3.4l10.7,5.3l10.7,6.7l3.6,6l0.1-0.1l0,0l0.4,0.7l4,4l2.7,4v9.3l-1.3,8l-5.3,8
		l-8,5.3l-6.7,2.7l-4,2.7l-2.7,2.7l-5.3,2.7l-6.7,2.7l-4-1.3h-4l-4,2.7l-5.3,4l-4,2.7L697,386l-4,6.7l-4,6.7v8.5l-0.6,6l8.3,3.8
		l4.3,1.1l14.1,7.6l0,0l39.1,10.4l4.3,3.4l5.4-2.3l2.3-5.4v-5l16.3-36.4l2.7,1.3l0.7-1.5l4.5,2.5c0.1,0.1,0.2,0.1,0.4,0.1
		c0.3,0,0.5-0.1,0.7-0.4c0.2-0.4,0.1-0.8-0.3-1l-7.3-4.1l2-4.4l2-0.4l6.2,3c0.3,0.1,0.5,0.2,0.8,0.2c0.8,0,1.5-0.5,1.8-1.2
		c0.4-1,0-2.2-1-2.7l-6.3-3l-0.9-1.7l16.3-36.5l11.6-6.1l246.4,236.3l9.7,12.5l14.5,14.5l4.9,0.2l25,24.9h5.1l22.9-24.1v-4.9
		l-29.9-28.9l-1.9-2.9l2-14.1l-1.3-5l-31.7-31.1l-2.9-1l-4.8,6.8l-7.7-1.9l-3.9-1.9l-52.1-49.2l-4.8-2.9L879.3,340.7l-1-2.9
		l10.6-25.1l4.4,0.2l152.5,147l40.5-42.4l69.3,67.2l32.9,45.5l-6.4,4.6l2,2.8l6.4-4.6l4.1,5.7l-10.8,8l0.8,1l-9.5,6.8c0,0,0,0,0,0
		c-0.5,0.4-0.6,1.1-0.2,1.6c0,0,0,0,0,0c0.4,0.5,1.1,0.6,1.6,0.3l9.6-6.9l0.9,1.1l9.1-6.5l1.2,1.6l1.6-1.2l5.6,7.7l-1.1,1.3
		l-7.5,5.5l2.8,3.7l7.9-5.8l0.7-0.8l19.6,27.1l27.3,32.3l-1,1l-3.3-3.8c0,0,0,0,0,0c-0.3-0.3-0.8-0.3-1.1,0c-0.3,0.3-0.3,0.8,0,1.1
		l3.4,3.9l1,1.2l3,3.5c0.1,0.2,0.4,0.3,0.6,0.3c0.2,0,0.4-0.1,0.5-0.2c0,0,0,0,0,0c0.3-0.3,0.3-0.8,0-1.1l-3-3.5l1-1l9.3,11h4.3v4.9
		h1.9v-4.9h4.5v5.2h2v-5.2h4.3v2.3h1.9v-2.3h4.6l-0.9-3.3v-5.7l1.1-4.4l-1.1-6.8l-2.2-5.2l-5.4-7.6V578l3.3-5.4l2.8-2.2l4.8-2.2
		l6.5-1.1h4.3l2.2-1.1l-1.1-2.2l-1.1-2.2l-1.1-1.1l2.2-2.2l2.2-3.3l1.1-4.3l1.1-4.3l1.1-6.5l-1.1-3.3l2.2-3.3l3.3-4.3l3.3-4.3
		l2.2-1.1l5.4-1.1h5.4l4.3-1.1l2.2-4.3l1.1-6.5l4.3-4.3l9.8-6.5l5.4-3.3l6.5-4.3l4.3-5.4l4.3-5.4l1.1-1.1l0-1.1h-2.2L1366.3,481.4z"
		/>
	<polygon class="st0" points="1393.5,755.2 1396.8,757.4 1400.1,758.5 1402.2,760.6 1404.4,761.7 1407.7,763.9 1409.8,763.9 
		1410.9,761.7 1409.8,754.1 1408.7,749.8 1408.7,747.6 1409.8,745.4 1415.3,743.2 1419.6,742.2 1422.9,742.2 1428.3,744.3 
		1430.5,745.4 1433.7,745.4 1438.1,743.2 1443.5,743.2 1445.7,742.2 1444.6,732.4 1442.4,729.1 1440.3,723.7 1438.1,718.3 
		1437,711.7 1438.1,709.6 1441.3,707.4 1443.5,706.3 1443.5,704.1 1445.7,700.9 1447.9,697.6 1448.9,696.5 1447.9,695.4 
		1443.5,695.4 1437,694.3 1434.8,694.3 1429.4,696.5 1422.9,696.5 1419.6,695.4 1417.4,695.4 1416.3,696.2 1419.7,698.1 
		1430.3,724.2 1426,726.9 1387.6,746.7 1384,740 1382.3,740.9 1385.9,747.5 1383.5,748.8 1378.2,751.5 1383.2,760.8 1383.8,758.5 
		1384.8,755.2 1387,754.1 1390.3,754.1 	"/>
</g>
</svg>
