<?xml version="1.0" encoding="utf-8"?>
<!-- Generator: Adobe Illustrator 23.0.3, SVG Export Plug-In . SVG Version: 6.00 Build 0)  -->
<svg width="3236.5" height="1856.4" version="1.1" id="圖層_1" xmlns="http://www.w3.org/2000/svg" xmlns:xlink="http://www.w3.org/1999/xlink" x="0px" y="0px"
	 viewBox="0 0 3236.5 1856.4" style="enable-background:new 0 0 3236.5 1856.4;" xml:space="preserve">
<style type="text/css">
	.st0{fill:#020202;}
	.st1{display:none;}
	.st2{display:inline;fill:#FFFFFF;}
	.st3{fill:#FFFFFF;}
	.st4{display:none;fill:#FFFFFF;}
</style>
<rect class="st0" width="3236.5" height="1856.4"/>
<g class="st1">
	<path class="st2" d="M891.3,1146c0,0,0,0-3.8-4.5C889.2,1144.2,891.3,1146,891.3,1146z"/>
	<path class="st2" d="M3220,1543.9c-6.4,1.3-10.2,6.4-14,10.2c-2.5,2.5-5.1,3.8-7.6,3.8c-14,1.3-27.9-2.5-41.9,2.5
		c-2.5,1.3-5.1,2.5-8.9,3.8c-3.8,1.3-5.1,6.4-8.9,5.1c-6.4-1.3-11.4-8.9-19.1-10.2c-7.6-2.5-16.5-1.3-24.1-1.3
		c-5.1-7.6-15.2-10.2-24.1-8.9c-6.4-5.1-12.7-12.7-15.2-20.3c-2.5-3.8,2.5-8.9,5.1-12.7c10.2-12.7,15.2-26.7,14-41.9
		c0-2.5,2.5-5.1,3.8-6.4c7.6-5.1,15.2-10.2,17.8-19.1c1.3-5.1-1.3-10.2-3.8-15.2c-3.8-3.8-10.2-3.8-12.7-8.9
		c-3.8-6.4-1.3-12.7-1.3-19.1c-7.6-3.8-16.5,2.5-24.1,0c-3.8-7.6,1.3-16.5-2.5-24.1c-7.6-2.5-15.2-3.8-21.6-10.2
		c6.4-11.4,7.6-24.1,15.2-35.6c3.8-6.4,3.8-14-3.8-19.1c-26.7-19.1-49.5-38.1-68.6-66.1c-1.3-1.3-2.5-1.3-3.8-2.5
		c-2.5-2.5-3.8-5.1-3.8-7.6c0-5.1,0-11.4,0-16.5c-1.3-14-6.4-27.9-8.9-41.9c3.8-5.1,5.1-10.2,7.6-15.2c5.1-5.1,12.7-1.3,16.5,3.8
		c2.5,5.1,1.3,12.7,5.1,17.8c1.3,1.3,3.8,2.5,5.1,2.5c6.4,0,12.7-1.3,19.1-1.3c6.4,0,10.2-5.1,16.5-6.4c5.1-2.5,10.2-7.6,11.4-12.7
		c1.3-12.7,0-24.1,0-36.8c6.4-2.5,12.7,2.5,19.1,0c3.8-2.5-1.3-7.6,0-11.4c8.9-1.3,16.5-11.4,24.1-5.1c6.4,6.4,8.9,19.1,19.1,20.3
		c6.4,0,12.7,2.5,17.8-1.3c5.1-5.1,6.4-12.7,8.9-20.3c0-1.3,1.3-2.5,2.5-3.8c3.8-7.6,1.3-14-1.3-21.6c-5.1-8.9-15.2-20.3-6.4-29.2
		c2.5-2.5,3.8-5.1,6.4-8.9c8.9-11.4,21.6-20.3,24.1-34.3c2.5-12.7,1.3-26.7,1.3-39.4c10.2,1.3,20.3-1.3,21.6-11.4
		c2.5-8.9,3.8-19.1,0-27.9c-1.3-1.3-5.1-2.5-6.4-5.1c-1.3-1.3-1.3-3.8-2.5-5.1c-14-12.7-20.3-30.5-22.9-48.3c0-2.5,1.3-6.4,2.5-8.9
		c7.6-10.2,11.4-20.3,20.3-27.9c10.2,0,21.6,0,31.8-1.3c1.3-7.6,2.5-14-3.8-20.3c-30.5-29.2-61-55.9-92.7-82.6
		c-6.4,0-14-2.5-20.3,1.3c-3.8,3.8-6.4,7.6-8.9,11.4c5.1,5.1,10.2,8.9,11.4,16.5c0,3.8-1.3,7.6-3.8,10.2
		c-14,16.5-24.1,35.6-41.9,48.3c-6.4,2.5-16.5,6.4-20.3-1.3c2.5-7.6,1.3-15.2-1.3-21.6c-11.4-20.3-24.1-38.1-34.3-57.2
		c-11.4-11.4-27.9-16.5-40.7-25.4c-7.6,3.8-14,10.2-21.6,14c-8.9,5.1-19.1,3.8-29.2,3.8c-3.8,0-6.4,2.5-8.9,5.1
		c-1.3,2.5-3.8,5.1-6.4,6.4c-1.3,1.3-1.3,2.5-2.5,3.8c-29.2,16.5-57.2,30.5-86.4,43.2c-6.4,2.5-12.7,3.8-19.1,3.8
		c-2.5,0-6.4-1.3-8.9-2.5c-12.7-8.9-21.6-20.3-34.3-26.7c-2.5-1.3-3.8-5.1-6.4-7.6c-1.3-3.8-2.5-7.6-3.8-11.4
		c-1.3-6.4-5.1-12.7-2.5-17.8c2.5-8.9,14-17.8,24-13.2c-0.3,0.6-0.7,0.9-1,0.9c-2.9,2.9-3.8,6.3-2.6,9.8c1.3,2.5,0,7.6,5.1,7.6
		c3.8-1.3,6.4-7.6,11.4-7.6c2.5,1.3,3.8,3.8,5.1,6.4c0,2.5-1.3,5.1-5.1,7.6c-2.5,2.5-2.5,5.1,0,8.9c5.1,6.4,14,3.8,20.3,3.8
		c3.8-10.2,10.2-19.1,12.7-30.5c-8.9-7.6-21.6-12.7-25.4-22.9c-5.1-11.4,5.1-20.3,8.9-30.5c1.3-6.4-1.3-14,3.8-19.1
		c3.8-2.5,6.4-6.4,7.6-11.4c1.3-10.2-2.5-21.6,2.5-30.5c5.1-7.6,12.7-14,12.7-22.9c0-10.2-1.3-19.1,5.1-27.9
		c8.9-10.2,16.5-20.3,24.1-31.8c7.6-2.5,16.5,1.3,22.9-2.5c5.1-2.5,1.3-11.4,2.5-17.8c-17.8-2.5-36.8,2.5-54.6-1.3
		c-5.1-12.7-14-21.6-21.6-33c-10.2-14-26.7-27.9-16.5-45.7c14-7.6,27.9-15.2,40.7-25.4c1.3-1.3,2.5-3.8,2.5-5.1
		c-1.3-8.9,0-17.8-2.5-26.7c-8.9-5.1-16.5-12.7-26.7-16.5c-3.8-1.3-6.4-3.8-8.9-6.4c-3.8-2.5-7.6-2.5-10.2-5.1
		c-2.5-2.5-5.1-5.1-8.9-6.4c-2.5-2.5-5.1-5.1-7.6-7.6c-7.6-12.7-17.8-19.1-26.7-29.2c-3.8-6.4-8.9-8.9-12.7-15.2
		c-6.4,5.1-14,8.9-15.2,16.5c0,12.7,1.3,25.4-8.9,34.3c-11.4,2.5-19.1-6.4-27.9-12.7c-7.6-5.1-19.1-3.8-25.4,2.5
		c-6.4,7.6,1.3,19.1-3.8,27.9c-1.3,1.3-6.4-1.3-7.6,0c-7.6,12.7-11.4,26.7-17.8,39.4c-2.5,6.4,5.1,14,3.8,20.3
		c0,3.8-2.5,8.9-6.4,12.7c-3.8,2.5-6.4-2.5-10.2-3.8c-7.6-1.3-11.4,6.4-16.4,10.6c-8.9-9.8-17.1-20.1-25.2-30.5
		c-5-7.5-34.3-51.8-34.4-51.8c-0.1,0-50.4-24-57.8-27.3c-7.4-3.3-23.1-27.8-23.2-31.2c0-3.4,3.3-37.9,0-39.1
		c-3.3-1.2-14.6-12.7-17.2-21c-2.7-8.3-4.3-31.9-7.1-39.9c-2.8-8-11.4-14.6-14.4-17.9c-3-3.3-25.1,1.3-27,3.3c-1.9,2,3.2,9.3,0,14.6
		c-3.2,5.3-51.3,2-65.3,4c-14.1,2-23.4,13-34,17.8c-10.6,4.7-23.2-6-23.2-6s-8.3-11.7-17.4-6.1c-9.1,5.6-5.1,17.9-7.8,21.7
		c-2.7,3.8-27.4-11.8-30.2-18.4c-2.8-6.5,8.9-8.6,0-17.1c-8.9-8.4-19.5-20.3-20.1-28.6c-0.7-8.3-0.7-43.2-7.3-48.3
		c-6.6-5.1-8.6-7.7-11.3-11.7c-2.7-4-9.3-19.2-12.6-22.5c-3.3-3.3-58.5-12.6-70-13.9c-11.5-1.3-102.3,15.3-112.3,21.9
		c-9.9,6.6-16.6,13.4-26.8,15.6c-10.3,2.2-17.6,10.5-24.9,10.7c-7.3,0.2-15.1,5.8-23.4,0c-8.4-5.8-17.9-12.4-28.7-13.1
		c-10.8-0.7-21.3-1.2-27,2.4c-5.7,3.6-27.5,20.3-30.5,24.2c-3,3.9-14.3,9.3-19.6,13.3c-5.3,3.9-19.3,34-21.2,38.7
		c-1.9,4.7,17.2,16.3,11.9,24.2c-5.3,8-8.8,11.9-15.1,14.8c-0.2,0.1-0.4,0.2-0.6,0.3c-6.1,2.9-11.8,7.6-11.8,7.6s-0.1,0.2-0.3,0.8
		c-2.1,1.7-3.6,3-3.6,3s-2.4,0.9-2.7,12.8c-0.3,11.6,6,51.7,12.4,57.8c0.2,0.2,0.3,0.3,0.5,0.4c6.6,4.6,31.3-12.9,29.9-6.2
		c-1.4,6.8-16.7,36.6-16.7,40.6c0,4,10.1,27,4,31c-6,4.1-17.2,2-28.2,4c-11,2-53.4,20.2-53.4,20.2s-36.4-11.5-51-13.2
		c-14.6-1.7-40.3-15.9-44.6-25.3c-4.2-9.2-8.7-36.3-14.5-38.8c-0.2-0.1-0.3-0.1-0.5-0.2c-6-1-9.5,0.6-9.1,4.1
		c0.4,3.5-4.1,24-4.8,29.3c-0.7,5.3-11.1,21.6-8.1,22.7c3.1,1.1,8.5,28.1,8.1,31.3c-0.4,3.2-3.3,5.7-9.6,13.9
		c-6.3,8.3-0.3,6.3-8.5,13c-8.2,6.7-17.3,14-19.8,18.2c-2.5,4.3-3.2,10.9-10.5,11.7c-7.3,0.7-17.5-11.4-19.7-16.8l-9.7-40
		c0,0-19.1,5.5-25.7,4.6c-6.5-0.9-4.3,9.6-12.4,11c-8.1,1.4-11.4-5.9-15.2-3.1c-3.8,2.9-9.5,3-5.9,5.6c3.6,2.6,14,4.2,8.9,11.5
		c-5.1,7.3-35.6,15.6-41.9,16.4s-0.9-1.9-6.3,0.7c-5.3,2.7-4.2,6-10.1,5.7c-5.9-0.3-9.4-5.2-9.6-1.8c-0.2,3.4-5.4,29-13.8,36.1
		c-6.6,5.6-5,10.5-3,15.3c-2.3-2.8-6.5-5.8-13.6-6.7c-16.9-2-30.2-3.1-35.5-6.6c-5.3-3.5-21-17.7-25.5-19.6
		c-4.5-1.9-21.9-18.6-29.7-21.3c-7.8-2.7-24.1-9.7-29.2-17c-5.1-7.3-8.4-14.2-11.5-16.5c-3.1-2.3-5.7-3.9-8.3-6
		c-2.6-2,0.9-3-6.8-9.2c-7.7-6.1-6.1-11-9.9-11.2c-3.8-0.2-5.5,15.8-11.6,14.8c-6.1-1-17.3,8.9-17.3,8.9s8.9-8.3,0-10.3
		c-8.9-2.1-6.5,1.3-8.9-2.1c-2.4-3.4-0.8-10.3-4.6-14c-3.8-3.7-18.6-9.3-23.6-10.1c-5-0.8-18.1,3.4-18.1,3.4s19.4-8.4,7.8-12.8
		c-11.6-4.5-18.8-5.4-18.8-5.4s0.3-15-5.9-16.6s-3.7-3.5-16.1-1.5c-12.5,2-19.4,9.9-26.6,14.8c-7.2,4.9-8.5,2.6-11.8,1.4
		c-3.3-1.2-31.8,1.6-34.9-1.4c-3.1-3-30.4-32.6-33.4-36.1c-2.9-3.5,1.7-15.8-3.1-18.7c-4.7-2.9-10.7-4.7-12.1-9.6
		c-1.4-4.9-16-37.2-21.5-42.6c-5.5-5.4-6.8-12-13.9-12.7c-7.1-0.7-16.8,1.5-26-5.5c-9.2-7-5.6-11.5-14-10
		c-8.4,1.5-24.7,16-32.8,11.7c0,0-18.6-4.4-18.6-12.5c0-8.1-1.7-12.8-7.1-14.1c-5.5-1.2-19.8,11.4-32.6,1.3
		c-12.8-10.1-32-21.5-42.9-28.1c-10.9-6.6-8.3-13.6-27-15.4c-18.7-1.8,0.9,12.7-29.2,13.4c-30.1,0.7-58,1.5-65.3-4.2
		c-7.3-5.7-10.6-14.4-28.5-3.8c-17.9,10.6-18.6,10-24.2,10c-5.6,0-5,4.4-26.2,2.8c-45.3-3.3-39.8,22.8-56.8,21.1
		c-16.9-1.6-24.9-1.7-31.5-2.3c-6.6-0.5-9-21.6-18.8-21.4c-15.2,0.4,2.6,19.6-20,14.9c-7-1.4-0.9,9.3,0,15.9
		c0.9,6.6,0.9,22.1-7.9,22.2c-8.9,0.1-10.2-5.6-12.2-3.7c-12.2,11.3,5.9,26.2,0,32.4c-12.2,13-8.1,34.8-20.3,44.4
		c-8.5,6.7-15.6-4.5-19.8,10.4c-2.1,7.4-20.8,4.5-27.9,6.2c-9.9,2.4-19.3-3.9-22-4.9c-2.7-1-2.3-5.5-22.8-7.5s-9,3.3-29.6,1.6
		c-20.5-1.7-26.9-3.7-48.8,3.7c-21.9,7.4-28.1,39.9-38,36.8c-9.9-3-5.1-1.1-18.8-0.8c-13.7,0.4-17.7,6.3-30.3,9.3
		c-12.6,3-35.5,19.9-35.5,19.9s-2.2,9.6-10.2,16.9c-8,7.3-12.6,22.5-10.6,27.2c2,4.6,5.3,3.3,2.7,13.9c-2.7,10.6-0.7,11.9,0,19.9
		c0.7,8-6.2,19.2-3.1,37.1c3.1,17.9-0.9,23.9,10.4,27.8c11.3,4,9.3,1.3,21.9,20.5c0,0,25.1,35,35.5,39.6
		c10.4,4.6,10.2,14.2,19.3,12.4c9-1.8,26.1-6.5,28,1.8c1.9,8.3-2.6,12.5,7.9,10.4c10.4-2.1-9-6.4,26.8-9.1
		c35.8-2.7,37.3-6.9,40.3,7.6c3,14.4-1.5,26.3,0,36.8s-3,19.7,10.4,19.7c13.4,0,17.9-1.8,20.9,17.6c3,19.4,6,26.3,7.5,46
		c1.5,19.6-3,21.1-6,36c-3,14.9-8.9,17.9-1.5,28.3c7.5,10.4,0,26.8,14.9,25.4c14.9-1.5,25.6,1.5,30,6c4.3,4.5,8.6,13.4,14.7,6
		c6.1-7.5-7.8,1,14.1-20.1c13.3-12.9,17-17.1,17.8-18.4c0.5,2.9,3.6,17,11.2,18.4c8.5,1.6,9.9-0.4,8,12.9c-2,13.3-3.3,27.8,8,39.1
		c11.3,11.3,29.8,14.6,31.8,53c2,38.4,8,35.2-5.3,56.4c-13.3,21.2-22.5,31.8-24.5,39.1c-2,7.3,4,49,13.9,53c9.9,4,9.9,4,14.6,0
		c4.6-4-2-14.6,12.6,0c14.6,14.6,6.6,11.9,11.9,18.6c5.3,6.6,2.5,7.3,11.5,18.6c9,11.3,28.7,39.1,40.1,40.4
		c11.4,1.3,9.4,9.9,25.3,3.3c15.9-6.6,10.6-7.3,12.6-22.5c2-15.2,10.5-33.7,14.9-37.1c4.4-3.4,16.3-10,16.3-10s7,28.8,30.7,41.3
		c23.7,12.4,51.5,18.4,81.4,15.7c29.8-2.7,17.2-2,29.8,0.7c12.6,2.7,9.3,7.3,23.2,1.3c13.9-6,25.1-10.6,25.1-10.6s6,4,17.3,8
		c11.3,4,13.3,14.9,36.5,15.7c23.2,0.8,20.5-1.2,31.8-5.8c11.3-4.6,2.9-6.1,21.3-8c18.4-1.9,35-9.6,44.3,1.4c2.4,2.9,4.2,5,5.5,6.5
		c-2-3.4-3.1-8.3,2.7-12.7c10.3-7.8,20.4-17,26-5.8c5.6,11.3,6.2,39.1,8.9,44.4c2.7,5.3,4.6,8.6,13.9,7.3c9.3-1.3,55-25.2,72.2-25.8
		c17.2-0.7,35.7,8.5,38.8,7.6c3.1-0.9,7.4-2.2,14.5-4.4c7.1-2.1,7.7-1.2,18.3,1.4c10.6,2.7,20.5,3.3,33.1,3.3s27.8,0,36.5-4
		c8.6-4,4.6-3.4,22.5-8.3c17.9-5,27.8-16.9,27.8-16.9s4,19.9-4,27.2c-8,7.3-11.9,11.3-23.2,11.3s-24.5,0.7-24.5,0.7
		s-2.7,7.3-25.2,16.6c-22.5,9.3-27.4,11.2-37.8,7.3c-10.4-3.9-11.3-4.6-32.5-5.3c-21.2-0.7-23.9-4.6-31.2,4
		c-7.3,8.6-21.9,26.5-19.2,25.2s26.5,13.3,35.8,8c9.3-5.3,21.1-15.1,27.8-15.1s3.4-0.2,12.6,5.1c9.3,5.3,33.8,19.2,45.7,29.8
		c11.9,10.6,9.7,12.9,18.6,13.3c8.8,0.4,9.9,17.9,18.6,22.9c8.6,5,13.9-8.3,9.9,12.9c-4,21.2,0,50.4-1.3,53c-1.3,2.7-8,42.7-8,42.7
		c0.8,1.8,2.1,3,3.4,4.3c8.9,15.2,12.7,31.8,25.4,43.2c10.2,0,21.6,0,31.8,0c0,8.9,2.5,19.1-2.5,26.7c-7.6,8.9-15.2,17.8-24.1,25.4
		c0,12.7,7.6,22.9,12.7,34.3c1.3,1.3,3.8,2.5,5.1,2.5c8.9-1.3,17.8-2.5,25.4,2.5c1.3,1.3,2.5,2.5,3.8,3.8
		c17.8,10.2,38.1,16.5,53.4,31.8c1.3,2.5,3.8,3.8,6.4,6.4c1.3,2.5,2.5,5.1,5.1,6.4c2.5,1.3,6.4,2.5,8.9,2.5
		c16.5-5.1,24.1-21.6,36.8-31.8c14-54.6,12.7-114.3,39.4-165.1c19.1-24.1,36.8-47,57.2-69.9c15.2-26.7,26.7-54.6,39.4-82.6
		c19.1-3.8,38.1,2.5,55.9-5.1c5.1-2.5,8.9-5.1,15.2-6.4c2.5-1.3,3.8-3.8,6.4-5.1c20.3-3.8,39.4,0,59.7-1.3
		c8.9,5.1,15.2,11.4,22.9,17.8c2.5,2.5,6.4,3.8,10.2,6.4c2.5,1.3,3.8,3.8,5.1,6.4c2.5,16.5-5.1,31.8-15.2,45.7
		c-6.4,10.2-10.2,19.1-15.2,29.2c2.5,19.1,8.9,35.6,15.2,53.4c19.1,19.1,36.8,38.1,57.2,57.2c1.3,1.3,3.8,2.5,6.4,2.5
		c17.8,0,35.6,1.3,53.4-1.3c7.6-11.4,15.2-21.6,25.4-31.8c1.3-1.3,3.8-2.5,6.4-1.3c8.9,3.8,17.8,11.4,26.7,15.2
		c5.1,1.3,8.9,3.8,14,6.4c1.3,1.3,3.8,0,5.1,1.3c19.1,12.7,29.2,31.8,44.5,48.3c2.5,3.8,5.1,8.9,7.6,12.7
		c-11.4,31.8-5.1,64.8-6.4,97.8c-15.2,5.1-29.2,11.4-40.7,22.9c-2.5,2.5-3.8,7.6-2.5,10.2c2.5,7.6,11.4,11.4,12.7,20.3
		c3.8,26.7,1.3,53.4,1.3,80c0,2.5-3.8,2.5-6.4,3.8c-1.3,0-1.3,1.3-2.5,2.5c-1.3,0-2.5,1.3-3.8,1.3c-1.3,1.3-1.3,2.5-2.5,2.5
		c-14-2.5-27.9-7.6-41.7-9.2c-2.7,6.6-2.7,13,2.3,18.1c12.7,10.2,21.6,22.9,35.6,31.8c7.6,6.4,12.7,14,19.1,20.3
		c1.3,1.3,5.1,2.5,6.4,2.5c26.7,2.5,52.1-1.3,78.8,1.3c6.4,11.4,11.4,22.9,15.2,35.6c8.9,3.8,19.1,7.6,26.7,15.2
		c-1.3,6.4-1.3,12.7-1.3,19.1c5,0.2,8.7,0.3,11.5,0.3c100.3,2.2,199.4,1,299.7,1c-1.3-6.4,2.5-14-2.5-19.1c-8.9,0-19.1,1.3-27.9,0
		c-12.7-2.5-20.3-12.7-30.5-19.1c0-20.3,0-40.7,0-61c6.4-7.6,15.2-15.2,16.5-26.7c0-8.9,0-16.5,0-25.4c14-10.2,26.7-21.6,41.9-33
		c6.4-5.1,11.4-10.2,17.8-14c8.9-6.4,14-11.4,22.9-17.8c15.2-10.2,5.1-31.8,7.6-48.3c20.3-3.8,39.4,1.3,59.7-2.5
		c-1.3-12.7,1.3-24.1,6.4-35.6c8.9-17.8,15.2-35.6,21.6-54.6c7.6-1.3,17.8-3.8,22.9,5.1c5.1,11.4,10.2,21.6,15.2,31.8
		c2.5,2.5,3.8,5.1,6.4,8.9c10.2,12.7,24.1,19.1,34.3,30.5c24.1,10.2,52.1,3.8,68.6-16.5c0-16.5,1.3-34.3,1.3-50.8
		c0-7.6-1.3-16.5-2.5-24.1c-2.5-15.2-15.2-26.7-20.3-40.7c-2.5-10.2,0-19.1,0-29.2c4.6-3.4,9.1-0.7,13.7-2c0.3,0.1,0.8,0,1.6-0.6
		c0-1.3-1.3-1.3-1.3-2.5c1.3-5.1,1.3-10.2-1.3-15.2c-7.6-12.7-15.2-22.9-24.1-34.3c-3.8-3.8-8.9-6.4-14-5.1
		c-19.1,2.5-36.8,2.5-55.9,2.5c-2.5,0-5.1-1.3-6.4-2.5c-2.4-11-2.6-20.9-4.5-31.9c-0.1-0.4-0.1-0.7-0.2-1.2c0.6,0.4,0.9,0.9,1.2,1.3
		c3.3,3.6,8,7.3,13.7,3.9c0-1.3,1.3-2.5,1.3-2.5c-16.5-21.6-35.6-39.4-49.5-62.2c-5.1-7.6-5.1-16.5-1.3-24.1c1.3,0,3.8,0,6.4,0
		c-1.3-3.8,3.8-6.4,0-10.2c-7.6-5.1-17.8-1.3-26.7-2.5c-2.5-5.1,0-11.4,0-16.5c3.8-1.3,8.9,2.5,12.7,1.3
		c12.7-6.4,17.8-20.3,27.9-30.5c7.6-6.4,17.8-8.9,26.7-3.8c2.5,11.4-2.5,24.1,0,36.8c2.5,7.6,10.2,12.7,11.4,20.3
		c6.1,23.4,1.6,46.7,2.5,70.1c0,0.7,0,1.5,0.1,2.3c6.4,0,12.7,1.3,19.1,0c11.4-3.8,19.1-20.3,33-16.5c15.2,5.1,30.5,8.9,47,7.6
		c3.8,0,6.4,1.3,10.2,2.5c1.3,1.3,2.5,2.5,3.8,3.8c12.7,5.1,22.9,12.7,33,22.9c7.6,8.9,12.7,19.1,21.6,26.7c2.5,1.3,5.1-2.5,5.1-5.1
		c-2.5-12.7-2.5-24.1-1.3-35.6c1.3-5.1-1.3-12.7,6.4-15.2c10.2,6.4,19.1,14,27.9,21.6c6.4,21.6-3.8,41.9-12.7,61
		c6.4,12.7,11.4,25.4,10.2,39.4c-6.4,6.4-16.5,6.4-25,10.7c1.6,2.5,2.9,3.9,3.8,4.6c3.4,4.2,6.7,8.4,8.5,14c1.3,1.3,2.5,2.5,3.8,3.8
		c3.8,10.2,14,16.5,15.2,26.7c3.8,17.8-2.5,34.3,3.8,50.8c0,1.3,7.6-3.8,7.6,0c2.5,16.5,0,31.8,3.8,48.3c3.8,14,7.6,27.9,12.7,41.9
		c3.8,8.9,11.4,17.8,15.2,26.7c1.3,3.8,3.8,8.9,2.5,14c-1.3,7.6-10.2,10.2-14,15.2c0,14,5.1,26.7,1.3,40.7
		c-3.8,8.9-11.4,16.5-15.2,25.4c3.8,8.9,10.2,17.8,16.5,25.4c6.4,3.8,14-2.5,19.1-7.6c3.8-2.5,6.4-1.3,8.9,1.3
		c10.2,12.7,3.8,27.9-5.1,40.7c-1.3,1.3-1.3,3.8-1.3,5.1c5.1,7.6,12.7,11.4,19.1,17.8c1.3,1.3,2.5,1.3,3.8,1.3
		c6.4-1.3,11.4-5.1,16.5-8.9c14-7.6,29.2-10.2,44.5-6.4c3.8,15.2,0,31.8,1.3,47c95.3,0,190.6-1.3,285.8,1.3
		c2.5-17.8-1.3-35.6,1.3-54.6c1.3-8.9-6.4-14-12.7-19.1c-8.9-8.9,0-24.1-6.4-34.3c-19.1-31.8-33-62.2-54.6-94
		c-11.4-15.2-24.1-26.7-36.8-38.1c-2.5-7.6,5.1-16.5,10.2-21.6c10.2-7.6,21.6-8.9,31.8-15.2c12.7,7.6,22.9,20.3,36.8,24.1
		c8.9,3.8,17.8,0,26.7,2.5c6.4,8.9,19.1,16.5,29.2,8.9c0-10.2-2.5-20.3,2.5-29.2c2.5-3.8,7.6-5.1,12.7-3.8
		c20.3,10.2,43.2,16.5,66.1,11.4c0-16.5,0-31.8,0-48.3C3231.4,1546.5,3225.1,1543.9,3220,1543.9z"/>
	<path class="st2" d="M3153.9,978.6C3153.9,989,3160.3,979.7,3153.9,978.6L3153.9,978.6z"/>
	<path class="st2" d="M2734.8,723.7c0.3-0.3,0.6-0.6,1-0.9C2733.4,722.6,2733.9,723.9,2734.8,723.7z"/>
	<path class="st2" d="M2557,436.6C2559.5,432.9,2545.5,422.5,2557,436.6L2557,436.6z"/>
	<path class="st2" d="M2467.3,1321.5c0.7,3.1,1.9,1.8,1,0.1c-0.4-0.4-0.8-0.9-1.2-1.3C2467.2,1320.7,2467.2,1321.1,2467.3,1321.5z"
		/>
	<path class="st2" d="M2412,1207.3C2413.1,1211.6,2418,1206.2,2412,1207.3L2412,1207.3z"/>
	<path class="st2" d="M1225.6,1434.7C1217.3,1434.7,1224.2,1446.2,1225.6,1434.7L1225.6,1434.7z"/>
</g>
<path class="st3" d="M2510.6,280.1l-16.8-14.1l35.2-31.6l-8.3-9.3l-12.9,11.5c-4.6-5.7-9.5-11.8-9.5-11.8l12.9-11l-8.5-6.5
	l-14.4,12.4c0,0-54.6-59.4-57.6-60.8c-3-1.4-70.1-30.6-70.1-30.6l-92.5-13.5c0,0-84.2-47.9-90.8-48.7s-17.8-5.1-17.8-5.1
	s-68.5-41.8-108.2-47.6c-39.7-5.8-50.5-5.9-55.1-6.4c-4.5-0.4-44.3,8-44.3,8l-7-15.1l-8,3l4,15.5l-9.9,3.6l-5-15l-7.6,4v13.2
	c0,0-33.1-0.3-41.1,0c-8,0.3-49.2,9.9-73.3,21.5c-24.1,11.6-46.6,34.4-56.7,40.9s-44.4,48-52.1,50.1s-36.8,43.5-36.8,43.5
	l-19.3-15.5l-3.7,4.8l18.5,17.1c0,0-19.9,42.7-55.3,61.1s-55.2,20.6-55.2,20.6s6.2-22,0-22c-6.2,0-16.7-1.1-16.7-1.1l-6.2-18
	l-4.5,1.7l6.6,16c0,0-2.7,3.6-8.9,2.8s-4.4,6.3-6.6,9.1c-2.2,2.8,0,23.5,0,23.5l-40.1,5.5c0,0,24.5-21,22.9-23.6
	c-1.6-2.6-10.5-1.4-12,0c-1.5,1.4-12.9,17.6-15.5,18.1c-2.6,0.5-76.1,12.2-76.1,12.2s-2.5-24.2-5.6-22.9c-3.1,1.3-5.9,3.9-6.1,4.2
	c-0.2,0.4,3.5,25.4,3.5,25.4h-24.6c0,0-0.3-2.7-4.7-4.9c-4.3-2.2-8.4-8.8-11-8.5c-2.6,0.3-0.7-20.1,0-30.1c0.7-10,2.6-11.3,0-14
	c-2.6-2.7-13.2,9.5-18.2,6.1c-5-3.4-4.6-7.9-8.1-9.3c-3.5-1.4-6-11.2-16.7-1c-10.7,10.2-14.4,13.9-15.2,21.3
	c-0.8,7.5,1.2,34.8-25.3,39.7c-26.5,4.9-44.5-4.7-49.1-3.9s-17.5,2.5-18.7,0c-1.1-2.5,4.8,1.5-1.1-2.5c-6-4,3.2-4.7-10.3-6.7
	c-13.5-2-26.3-4.9-34.9-5.1c-8.5-0.2-57.5-19.4-64.5-26.7c-7-7.3-13.8-12.6-11.7-14.6c2.1-2,16.7-5.8,19.3-7.6
	c2.7-1.7,8.6-0.4,2.7-1.7c-6-1.3-14.3,0.1-19.4,1.7c-5.1,1.6-9.3-0.7-11.5-13.5s5.9-24.9,5.9-24.9s1.4-4.4-3.3-5.4
	s-11.3,20.9-11.3,20.9l-10.1-6.2c0,0,8.9-19,5.5-19.7c-3.4-0.7-6.9-0.7-6.9-0.7l-7.8,14.6l-12.6-5.7c0,0,7.8-16.1,5.2-18.1
	c-2.6-2-6.1,1.3-7.3,3.3c-1.2,2-7.3,14.8-7.3,14.8l-8.9-3.2l4.4-17.6c0,0-5.2-5.3-7.9-2.7c-2.7,2.7-8.5,14.6-8.5,14.6l-9.7-4
	l3.8-18.6c0,0-3.2-4-7.3,0c-4.1,4-6.6,17.2-6.6,17.2l-9.9-4c0,0,5-19.2,2.8-19.2c-2.3,0-7.7,0-7.7,0L946,170l-13.9-0.7l2.9-19.5
	c0,0-5.5-4.2-7.7,0c-2.2,4.2-6.4,14.2-6.4,14.2l-9.1-4c0,0,4.3-13.9,1.8-15.2c-2.5-1.3-40.1,35.1-40.1,35.1s-27.3-13.9-33.9-13.3
	c-6.6,0.7,0-8,0-8s11.3,2.7,12.6-2c1.3-4.6-0.4-9.9-5.5-9.9c-5.1,0-7.1-2-7.1-2l3.9-9.9c0,0,16.7,4.6,12.4-2
	c-4.3-6.6-46.8-12.9-46.8-12.9s4,6.9,5.6,7.6c1.7,0.7,21.2,4.6,21.2,4.6v9.3c0,0-14.2-3.3-24.2-3.3c-9.9,0-9.8,5.3-9.8,5.3
	s15.4,4.1,15.9,6.4c0.5,2.2,3.5,10.9,0,12.2c-3.5,1.3-23.5-8-23.5-8s-11.3-18.6-17.5-21.9c-6.2-3.3-96.5-27.2-101.1-27.2
	S561,101.8,561,101.8l-34.8,6.8c0,0-0.6,0.2-1.7,0.5l-1.9-8.4l-2.6,0.6l1.9,8.5c-2,0.6-4.6,1.3-7.7,2.2l-1.7-7.8l-2.6,0.6l1.8,7.9
	c-7.8,2.2-18.1,5.1-28.8,8.1v-7.3h-2.7v8.1c-6.3,1.7-12.6,3.5-18.7,5.2l-1.5-6.7l-2.6,0.6l1.5,6.8c-6.5,1.8-12.5,3.5-17.8,4.9
	l-1.7-7.7l-2.6,0.6l1.7,7.9c-8.7,2.3-14.6,3.9-15.3,3.9c-3,0-61.7-8.6-62.8-6.6c-1.1,2,0,6.6,0,6.6l62.8,8V168
	c0,0-46.8-9.9-49.1-6.6c-2.3,3.3-103.1,102-105,102.4c-2,0.4-44.4,10.1-46.4,9.9c-2-0.2-53.4,21.9-53.4,21.9l-5.5-7.5l26.9-29.1
	c0,0-3.7-8-6.4-6c-2.7,2-31.8,37.6-31.8,37.6l9.3,13.8l-90.8,59l-24.3,19.9c0,0,23-16.9,35.5-19.9c12.6-3,16.6-9,30.3-9.3
	c13.7-0.4,8.8-2.3,18.8,0.8c9.9,3,16.2-29.4,38-36.8c21.9-7.4,28.3-5.5,48.8-3.7c20.5,1.7,9.1-3.6,29.6-1.6s20.2,6.5,22.8,7.5
	c2.7,1,12.1,7.2,22,4.9c7.1-1.7,25.8,1.2,27.9-6.2c4.2-14.9,11.3-3.7,19.8-10.4c12.2-9.6,8-31.4,20.3-44.4c5.9-6.3-12.2-21.1,0-32.4
	c2-1.9,3.3,3.9,12.2,3.7c8.9-0.1,8.9-15.6,7.9-22.2c-0.9-6.6-7-17.4,0-15.9c22.6,4.7,4.8-14.5,20-14.9c9.8-0.2,12.2,20.9,18.8,21.4
	c6.6,0.5,14.6,0.6,31.5,2.3c16.9,1.6,11.4-24.5,56.8-21.1c21.2,1.5,20.6-2.8,26.2-2.8c5.6,0,6.3,0.7,24.2-10
	c17.9-10.6,21.2-2,28.5,3.8c7.3,5.7,35.2,4.9,65.3,4.2c30.1-0.7,10.5-15.3,29.2-13.4c18.7,1.8,16.1,8.8,27,15.4
	c10.9,6.6,30.1,18,42.9,28.1c12.8,10.1,27.1-2.5,32.6-1.3c5.4,1.2,7.1,6,7.1,14.1c0,8.1,18.6,12.5,18.6,12.5
	c8.1,4.3,24.4-10.2,32.8-11.7c8.4-1.5,4.8,2.9,14,10c9.2,7,18.9,4.8,26,5.5c7.1,0.7,8.4,7.3,13.9,12.7c5.5,5.4,20.1,37.7,21.5,42.6
	c1.4,4.9,7.4,6.7,12.1,9.6c4.7,2.9,0.1,15.3,3.1,18.7c2.9,3.5,30.3,33,33.4,36.1c3.1,3,31.5,0.3,34.9,1.4c3.3,1.2,4.6,3.5,11.8-1.4
	c7.2-4.9,14.1-12.8,26.6-14.8c12.5-2,10-0.2,16.1,1.5c6.2,1.7,5.9,16.6,5.9,16.6s7.2,0.9,18.8,5.4c11.6,4.5-7.8,12.8-7.8,12.8
	s13.1-4.3,18.1-3.4c5,0.8,19.8,6.4,23.6,10.1c3.8,3.7,2.2,10.6,4.6,14c2.4,3.4,0,0,8.9,2.1c8.9,2.1,0,10.3,0,10.3s11.3-9.9,17.3-8.9
	c6.1,1,7.8-14.9,11.6-14.8c3.8,0.2,2.2,5.1,9.9,11.2c7.7,6.1,4.2,7.1,6.8,9.2s5.2,3.7,8.3,6c3.1,2.3,6.3,9.2,11.5,16.5
	c5.1,7.3,21.4,14.3,29.2,17c7.8,2.7,25.2,19.4,29.7,21.3c4.5,1.9,20.1,16.1,25.5,19.6c5.3,3.5,18.5,4.5,35.5,6.6
	c7.1,0.8,11.3,3.9,13.6,6.7c-2-4.8-3.6-9.6,3-15.3c8.3-7.1,13.5-32.7,13.8-36.1c0.2-3.4,3.8,1.5,9.6,1.8c5.9,0.3,4.7-3,10.1-5.7
	c5.3-2.7,0,0,6.3-0.7c6.3-0.7,36.8-9.1,41.9-16.4c5.1-7.3-5.3-8.9-8.9-11.5c-3.6-2.6,2.1-2.8,5.9-5.6c3.8-2.9,7.1,4.4,15.2,3.1
	c8.1-1.4,5.8-11.9,12.4-11c6.5,0.9,25.7-4.6,25.7-4.6l9.7,40c2.2,5.4,12.4,17.5,19.7,16.8c7.3-0.7,8-7.4,10.5-11.7
	c2.5-4.3,11.6-11.6,19.8-18.2c8.2-6.7,2.2-4.7,8.5-13c6.3-8.3,9.2-10.7,9.6-13.9c0.4-3.2-5-30.2-8.1-31.3s7.4-17.4,8.1-22.7
	c0.7-5.3,5.2-25.8,4.8-29.3c-0.4-3.5,3.1-5.1,9.1-4.1c0.2,0,0.4,0.1,0.5,0.2c5.8,2.5,10.3,29.6,14.5,38.8c4.3,9.5,30,23.7,44.6,25.3
	c14.6,1.7,51,13.2,51,13.2s42.4-18.2,53.4-20.2c11-2,22.2,0,28.2-4c6-4.1-4-27.1-4-31s15.2-33.8,16.7-40.6
	c1.4-6.8-23.3,10.7-29.9,6.2c-6.6-4.6-13.2-46.3-12.9-58.2c0.3-11.9,2.7-12.8,2.7-12.8s1.4-1.3,3.6-3c0.2-0.6,0.3-0.8,0.3-0.8
	s6.1-5.1,12.5-7.9c6.3-2.8,9.8-6.8,15.1-14.8s-13.8-19.5-11.9-24.2c1.9-4.7,15.9-34.8,21.2-38.7c5.3-3.9,16.6-9.3,19.6-13.3
	s24.8-20.6,30.5-24.2c5.7-3.6,16.2-3.1,27-2.4c10.8,0.7,20.4,7.3,28.7,13.1c8.4,5.8,16.1,0.2,23.4,0c7.3-0.2,14.6-8.4,24.9-10.7
	c10.3-2.2,16.9-9,26.8-15.6c9.9-6.6,100.7-23.2,112.3-21.9c11.5,1.3,66.7,10.6,70,13.9c3.3,3.3,9.9,18.6,12.6,22.5
	c2.7,4,4.6,6.6,11.3,11.7c6.6,5.1,6.6,40,7.3,48.3c0.7,8.3,11.3,20.2,20.1,28.6c8.9,8.4-2.8,10.5,0,17.1
	c2.8,6.5,27.6,22.2,30.2,18.4c2.7-3.8-1.3-16.1,7.8-21.7c9.1-5.6,17.4,6.1,17.4,6.1s12.6,10.8,23.2,6s19.9-15.8,34-17.8
	s62.1,1.3,65.3-4c3.2-5.3-1.9-12.6,0-14.6s24-6.6,27-3.3c3,3.3,11.6,9.9,14.4,17.9c2.8,8,4.5,31.6,7.1,39.9
	c2.7,8.3,13.9,19.8,17.2,21c3.3,1.2,0,35.7,0,39.1s15.8,27.9,23.2,31.2c7.4,3.3,57.7,27.3,57.8,27.3c0.1,0,29.4,44.3,34.4,51.8
	c8.2,10.4,16.4,20.7,25.2,30.5c-11.5-14.1,2.5-3.7,0,0c3.2-2.7,5.9-6.8,9.4-9.1c0.5-1.7,1.2-2.6,3.9-1.6c0,0,0,0,0,0
	c0.9-0.1,1.9-0.2,3,0c1,0.3,2,1,2.9,1.7c3,0.7,6.1,1,8.5,0.8c2-2.3,3.5-4.9,4.4-7.4c0.2-4.4,0.1-9.6-1.1-12.8
	c-1.6-3.9-3.4-7.9-2-11.4c6.4-12.7,10.2-26.7,17.8-39.4c1.2-1.2,5.5,0.9,7.2,0.2c0.7-0.9,1.3-2.1,1.7-3.4c0,0,0,0,0,0
	c0.1-0.4,0.2-0.8,0.3-1.2c0.6-3.3,0.2-6.8-0.1-10.2c-0.3-2.6-0.7-5.1-0.5-7.6c0.1-0.8,0.4-1.5,0.9-2.3c0.4-1.2,1-2.4,1.9-3.5
	c3-3,7-4.8,11.3-5.4c2.6-1.2,4.6-1.9,4.6-1.9L2510.6,280.1z M1682.4,220.4c-2.2-8.5,6.9,0,6.9,0l-1.8,18c-0.8,0.9-10.2,4.4-10.2,4.4
	S1684.6,228.8,1682.4,220.4z M1602.9,258.6c26-19,48.5-36.7,74.2-61.2c1.6,1.3-5.6,36.8-11.2,44.3c-7.2,9.7-19.8,16.6-31.7,19.4
	c-9.7,2.3-32.5,2.4-33.2,1.3C1600.3,261,1601.7,259.6,1602.9,258.6z M1470.8,297.9h13.9c-4.8,1.5-13.9,6.5-13.9,6.5V297.9z
	 M1387.9,324.9l4.8-3.6v9.8c-2.2-0.4-7.8,0-7.8,0L1387.9,324.9z M1536,306.9l11.6-14.5l-8.6-8.9l50.6-14.1l-12.8,8.5
	c0,0,0,0-2.3,7.8C1572.2,293.5,1536,306.9,1536,306.9z M1810.7,62.5l-2.8,6.7l-24.9,5.7c0,0,6.5-6.6,17.9-13.6
	c11.4-7,21.9-11.2,21.9-11.2l4,8.7L1810.7,62.5z M1993.9,23.1l-103.4,20.8l-2-7.4h27.3l78-16.4V23.1z M2014.4,26h-11.1
	c0,0-1.5-6.5,2-6C2008.5,20.5,2012.2,25.7,2014.4,26h0.5C2014.8,26.1,2014.6,26.1,2014.4,26z M2036.9,32l-11.7-4v-8l16.9,8
	C2041.1,29.5,2036.9,32,2036.9,32z M2494.6,298.2c2-5,7.3-5.6,10.1-5.8s0,3.4,0,3.4l-7.3,8.3
	C2497.4,304.1,2492.6,303.2,2494.6,298.2z"/>
<polygon class="st4" points="5.5,300.4 5.5,270.6 31.2,246.3 74.3,261.9 93.1,278.9 93.1,304.5 68.3,317.4 34.4,317.4 13.3,329.8 
	0,317.4 "/>
<polygon class="st4" points="115.1,246.3 133.9,246.3 140.3,266 136.7,283 121.5,283 112.3,262.3 "/>
</svg>
