<?xml version="1.0" encoding="utf-8"?>
<!-- Generator: Adobe Illustrator 23.0.3, SVG Export Plug-In . SVG Version: 6.00 Build 0)  -->
<svg width="3242.1" height="1859.6" version="1.1" id="圖層_1" xmlns="http://www.w3.org/2000/svg" xmlns:xlink="http://www.w3.org/1999/xlink" x="0px" y="0px"
	 viewBox="0 0 3242.1 1859.6" style="enable-background:new 0 0 3242.1 1859.6;" xml:space="preserve">
<style type="text/css">
	.st0{display:none;fill:#020202;}
	.st1{fill:#A6B36D;}
	.st2{display:none;fill:#FFFFFF;}
	.st3{clip-path:url(#SVGID_2_);}
	.st4{fill:none;stroke:#989455;stroke-width:1.088;stroke-miterlimit:10;}
	.st5{fill:none;stroke:#989455;stroke-miterlimit:10;}
	.st6{fill:#989455;}
	.st7{fill:none;stroke:#989455;stroke-width:5;stroke-miterlimit:10;}
	.st8{opacity:0.2;}
	.st9{fill:none;stroke:#FFEB38;stroke-width:5;stroke-miterlimit:10;}
</style>
<rect x="0" class="st0" width="3242.1" height="1859.6"/>
<g>
	<path class="st1" d="M894,1146c0,0,0,0-3.8-4.5C891.9,1144.2,894,1146,894,1146z"/>
	<path class="st1" d="M3222.7,1543.9c-6.4,1.3-10.2,6.4-14,10.2c-2.5,2.5-5.1,3.8-7.6,3.8c-14,1.3-27.9-2.5-41.9,2.5
		c-2.5,1.3-5.1,2.5-8.9,3.8c-3.8,1.3-5.1,6.4-8.9,5.1c-6.4-1.3-11.4-8.9-19.1-10.2c-7.6-2.5-16.5-1.3-24.1-1.3
		c-5.1-7.6-15.2-10.2-24.1-8.9c-6.4-5.1-12.7-12.7-15.2-20.3c-2.5-3.8,2.5-8.9,5.1-12.7c10.2-12.7,15.2-26.7,14-41.9
		c0-2.5,2.5-5.1,3.8-6.4c7.6-5.1,15.2-10.2,17.8-19.1c1.3-5.1-1.3-10.2-3.8-15.2c-3.8-3.8-10.2-3.8-12.7-8.9
		c-3.8-6.4-1.3-12.7-1.3-19.1c-7.6-3.8-16.5,2.5-24.1,0c-3.8-7.6,1.3-16.5-2.5-24.1c-7.6-2.5-15.2-3.8-21.6-10.2
		c6.4-11.4,7.6-24.1,15.2-35.6c3.8-6.4,3.8-14-3.8-19.1c-26.7-19.1-49.5-38.1-68.6-66.1c-1.3-1.3-2.5-1.3-3.8-2.5
		c-2.5-2.5-3.8-5.1-3.8-7.6c0-5.1,0-11.4,0-16.5c-1.3-14-6.4-27.9-8.9-41.9c3.8-5.1,5.1-10.2,7.6-15.2c5.1-5.1,12.7-1.3,16.5,3.8
		c2.5,5.1,1.3,12.7,5.1,17.8c1.3,1.3,3.8,2.5,5.1,2.5c6.4,0,12.7-1.3,19.1-1.3c6.4,0,10.2-5.1,16.5-6.4c5.1-2.5,10.2-7.6,11.4-12.7
		c1.3-12.7,0-24.1,0-36.8c6.4-2.5,12.7,2.5,19.1,0c3.8-2.5-1.3-7.6,0-11.4c8.9-1.3,16.5-11.4,24.1-5.1c6.4,6.4,8.9,19.1,19.1,20.3
		c6.4,0,12.7,2.5,17.8-1.3c5.1-5.1,6.4-12.7,8.9-20.3c0-1.3,1.3-2.5,2.5-3.8c3.8-7.6,1.3-14-1.3-21.6c-5.1-8.9-15.2-20.3-6.4-29.2
		c2.5-2.5,3.8-5.1,6.4-8.9c8.9-11.4,21.6-20.3,24.1-34.3c2.5-12.7,1.3-26.7,1.3-39.4c10.2,1.3,20.3-1.3,21.6-11.4
		c2.5-8.9,3.8-19.1,0-27.9c-1.3-1.3-5.1-2.5-6.4-5.1c-1.3-1.3-1.3-3.8-2.5-5.1c-14-12.7-20.3-30.5-22.9-48.3c0-2.5,1.3-6.4,2.5-8.9
		c7.6-10.2,11.4-20.3,20.3-27.9c10.2,0,21.6,0,31.8-1.3c1.3-7.6,2.5-14-3.8-20.3c-30.5-29.2-61-55.9-92.7-82.6
		c-6.4,0-14-2.5-20.3,1.3c-3.8,3.8-6.4,7.6-8.9,11.4c5.1,5.1,10.2,8.9,11.4,16.5c0,3.8-1.3,7.6-3.8,10.2
		c-14,16.5-24.1,35.6-41.9,48.3c-6.4,2.5-16.5,6.4-20.3-1.3c2.5-7.6,1.3-15.2-1.3-21.6c-11.4-20.3-24.1-38.1-34.3-57.2
		c-11.4-11.4-27.9-16.5-40.7-25.4c-7.6,3.8-14,10.2-21.6,14c-8.9,5.1-19.1,3.8-29.2,3.8c-3.8,0-6.4,2.5-8.9,5.1
		c-1.3,2.5-3.8,5.1-6.4,6.4c-1.3,1.3-1.3,2.5-2.5,3.8c-29.2,16.5-57.2,30.5-86.4,43.2c-6.4,2.5-12.7,3.8-19.1,3.8
		c-2.5,0-6.4-1.3-8.9-2.5c-12.7-8.9-21.6-20.3-34.3-26.7c-2.5-1.3-3.8-5.1-6.4-7.6c-1.3-3.8-2.5-7.6-3.8-11.4
		c-1.3-6.4-5.1-12.7-2.5-17.8c2.5-8.9,14-17.8,24-13.2c-0.3,0.6-0.7,0.9-1,0.9c-2.9,2.9-3.8,6.3-2.6,9.8c1.3,2.5,0,7.6,5.1,7.6
		c3.8-1.3,6.4-7.6,11.4-7.6c2.5,1.3,3.8,3.8,5.1,6.4c0,2.5-1.3,5.1-5.1,7.6c-2.5,2.5-2.5,5.1,0,8.9c5.1,6.4,14,3.8,20.3,3.8
		c3.8-10.2,10.2-19.1,12.7-30.5c-8.9-7.6-21.6-12.7-25.4-22.9c-5.1-11.4,5.1-20.3,8.9-30.5c1.3-6.4-1.3-14,3.8-19.1
		c3.8-2.5,6.4-6.4,7.6-11.4c1.3-10.2-2.5-21.6,2.5-30.5c5.1-7.6,12.7-14,12.7-22.9c0-10.2-1.3-19.1,5.1-27.9
		c8.9-10.2,16.5-20.3,24.1-31.8c7.6-2.5,16.5,1.3,22.9-2.5c5.1-2.5,1.3-11.4,2.5-17.8c-17.8-2.5-36.8,2.5-54.6-1.3
		c-5.1-12.7-14-21.6-21.6-33c-10.2-14-26.7-27.9-16.5-45.7c14-7.6,27.9-15.2,40.7-25.4c1.3-1.3,2.5-3.8,2.5-5.1
		c-1.3-8.9,0-17.8-2.5-26.7c-8.9-5.1-16.5-12.7-26.7-16.5c-3.8-1.3-6.4-3.8-8.9-6.4c-3.8-2.5-7.6-2.5-10.2-5.1
		c-2.5-2.5-5.1-5.1-8.9-6.4c-2.5-2.5-5.1-5.1-7.6-7.6c-7.6-12.7-17.8-19.1-26.7-29.2c-3.8-6.4-8.9-8.9-12.7-15.2
		c-6.4,5.1-14,8.9-15.2,16.5c0,12.7,1.3,25.4-8.9,34.3c-11.4,2.5-19.1-6.4-27.9-12.7c-7.6-5.1-19.1-3.8-25.4,2.5
		c-6.4,7.6,1.3,19.1-3.8,27.9c-1.3,1.3-6.4-1.3-7.6,0c-7.6,12.7-11.4,26.7-17.8,39.4c-2.5,6.4,5.1,14,3.8,20.3
		c0,3.8-2.5,8.9-6.4,12.7c-3.8,2.5-6.4-2.5-10.2-3.8c-7.6-1.3-11.4,6.4-16.4,10.6c-8.9-9.8-17.1-20.1-25.2-30.5
		c-5-7.5-34.3-51.8-34.4-51.8c-0.1,0-50.4-24-57.8-27.3c-7.4-3.3-23.1-27.8-23.2-31.2c0-3.4,3.3-37.9,0-39.1
		c-3.3-1.2-14.6-12.7-17.2-21c-2.7-8.3-4.3-31.9-7.1-39.9s-11.4-14.6-14.4-17.9c-3-3.3-25.1,1.3-27,3.3s3.2,9.3,0,14.6
		s-51.3,2-65.3,4c-14.1,2-23.4,13-34,17.8c-10.6,4.7-23.2-6-23.2-6s-8.3-11.7-17.4-6.1c-9.1,5.6-5.1,17.9-7.8,21.7
		s-27.4-11.8-30.2-18.4c-2.8-6.5,8.9-8.6,0-17.1c-8.9-8.4-19.5-20.3-20.1-28.6c-0.7-8.3-0.7-43.2-7.3-48.3
		c-6.6-5.1-8.6-7.7-11.3-11.7s-9.3-19.2-12.6-22.5s-58.5-12.6-70-13.9s-102.3,15.3-112.3,21.9c-9.9,6.6-16.6,13.4-26.8,15.6
		c-10.3,2.2-17.6,10.5-24.9,10.7s-15.1,5.8-23.4,0c-8.4-5.8-17.9-12.4-28.7-13.1c-10.8-0.7-21.3-1.2-27,2.4s-27.5,20.3-30.5,24.2
		c-3,3.9-14.3,9.3-19.6,13.3c-5.3,3.9-19.3,34-21.2,38.7c-1.9,4.7,17.2,16.3,11.9,24.2c-5.3,8-8.8,11.9-15.1,14.8
		c-0.2,0.1-0.4,0.2-0.6,0.3c-6.1,2.9-11.8,7.6-11.8,7.6s-0.1,0.2-0.3,0.8c-2.1,1.7-3.6,3-3.6,3s-2.4,0.9-2.7,12.8
		c-0.3,11.6,6,51.7,12.4,57.8c0.2,0.2,0.3,0.3,0.5,0.4c6.6,4.6,31.3-12.9,29.9-6.2c-1.4,6.8-16.7,36.6-16.7,40.6s10.1,27,4,31
		c-6,4.1-17.2,2-28.2,4s-53.4,20.2-53.4,20.2s-36.4-11.5-51-13.2s-40.3-15.9-44.6-25.3c-4.2-9.2-8.7-36.3-14.5-38.8
		c-0.2-0.1-0.3-0.1-0.5-0.2c-6-1-9.5,0.6-9.1,4.1s-4.1,24-4.8,29.3c-0.7,5.3-11.1,21.6-8.1,22.7c3.1,1.1,8.5,28.1,8.1,31.3
		c-0.4,3.2-3.3,5.7-9.6,13.9c-6.3,8.3-0.3,6.3-8.5,13s-17.3,14-19.8,18.2c-2.5,4.3-3.2,10.9-10.5,11.7c-7.3,0.7-17.5-11.4-19.7-16.8
		l-9.7-40c0,0-19.1,5.5-25.7,4.6c-6.5-0.9-4.3,9.6-12.4,11s-11.4-5.9-15.2-3.1c-3.8,2.9-9.5,3-5.9,5.6s14,4.2,8.9,11.5
		s-35.6,15.6-41.9,16.4s-0.9-1.9-6.3,0.7c-5.3,2.7-4.2,6-10.1,5.7s-9.4-5.2-9.6-1.8c-0.2,3.4-5.4,29-13.8,36.1
		c-6.6,5.6-5,10.5-3,15.3c-2.3-2.8-6.5-5.8-13.6-6.7c-16.9-2-30.2-3.1-35.5-6.6s-21-17.7-25.5-19.6s-21.9-18.6-29.7-21.3
		c-7.8-2.7-24.1-9.7-29.2-17s-8.4-14.2-11.5-16.5s-5.7-3.9-8.3-6c-2.6-2,0.9-3-6.8-9.2c-7.7-6.1-6.1-11-9.9-11.2
		s-5.5,15.8-11.6,14.8s-17.3,8.9-17.3,8.9s8.9-8.3,0-10.3c-8.9-2.1-6.5,1.3-8.9-2.1s-0.8-10.3-4.6-14c-3.8-3.7-18.6-9.3-23.6-10.1
		c-5-0.8-18.1,3.4-18.1,3.4s19.4-8.4,7.8-12.8c-11.6-4.5-18.8-5.4-18.8-5.4s0.3-15-5.9-16.6s-3.7-3.5-16.1-1.5
		c-12.5,2-19.4,9.9-26.6,14.8c-7.2,4.9-8.5,2.6-11.8,1.4s-31.8,1.6-34.9-1.4c-3.1-3-30.4-32.6-33.4-36.1c-2.9-3.5,1.7-15.8-3.1-18.7
		c-4.7-2.9-10.7-4.7-12.1-9.6c-1.4-4.9-16-37.2-21.5-42.6s-6.8-12-13.9-12.7c-7.1-0.7-16.8,1.5-26-5.5s-5.6-11.5-14-10
		s-24.7,16-32.8,11.7c0,0-18.6-4.4-18.6-12.5s-1.7-12.8-7.1-14.1c-5.5-1.2-19.8,11.4-32.6,1.3c-12.8-10.1-32-21.5-42.9-28.1
		s-8.3-13.6-27-15.4c-18.7-1.8,0.9,12.7-29.2,13.4c-30.1,0.7-58,1.5-65.3-4.2s-10.6-14.4-28.5-3.8c-17.9,10.6-18.6,10-24.2,10
		c-5.6,0-5,4.4-26.2,2.8c-45.3-3.3-39.8,22.8-56.8,21.1c-16.9-1.6-24.9-1.7-31.5-2.3c-6.6-0.5-9-21.6-18.8-21.4
		c-15.2,0.4,2.6,19.6-20,14.9c-7-1.4-0.9,9.3,0,15.9c0.9,6.6,0.9,22.1-7.9,22.2c-8.9,0.1-10.2-5.6-12.2-3.7
		c-12.2,11.3,5.9,26.2,0,32.4c-12.2,13-8.1,34.8-20.3,44.4c-8.5,6.7-15.6-4.5-19.8,10.4c-2.1,7.4-20.8,4.5-27.9,6.2
		c-9.9,2.4-19.3-3.9-22-4.9s-2.3-5.5-22.8-7.5s-9,3.3-29.6,1.6c-20.5-1.7-26.9-3.7-48.8,3.7c-21.9,7.4-28.1,39.9-38,36.8
		c-9.9-3-5.1-1.1-18.8-0.8c-13.7,0.4-17.7,6.3-30.3,9.3S49,382.5,49,382.5s-2.2,9.6-10.2,16.9s-12.6,22.5-10.6,27.2
		c2,4.6,5.3,3.3,2.7,13.9c-2.7,10.6-0.7,11.9,0,19.9s-6.2,19.2-3.1,37.1c3.1,17.9-0.9,23.9,10.4,27.8c11.3,4,9.3,1.3,21.9,20.5
		c0,0,25.1,35,35.5,39.6s10.2,14.2,19.3,12.4c9-1.8,26.1-6.5,28,1.8s-2.6,12.5,7.9,10.4c10.4-2.1-9-6.4,26.8-9.1
		c35.8-2.7,37.3-6.9,40.3,7.6c3,14.4-1.5,26.3,0,36.8s-3,19.7,10.4,19.7s17.9-1.8,20.9,17.6c3,19.4,6,26.3,7.5,46
		c1.5,19.6-3,21.1-6,36s-8.9,17.9-1.5,28.3c7.5,10.4,0,26.8,14.9,25.4c14.9-1.5,25.6,1.5,30,6c4.3,4.5,8.6,13.4,14.7,6
		c6.1-7.5-7.8,1,14.1-20.1c13.3-12.9,17-17.1,17.8-18.4c0.5,2.9,3.6,17,11.2,18.4c8.5,1.6,9.9-0.4,8,12.9c-2,13.3-3.3,27.8,8,39.1
		s29.8,14.6,31.8,53s8,35.2-5.3,56.4s-22.5,31.8-24.5,39.1s4,49,13.9,53s9.9,4,14.6,0c4.6-4-2-14.6,12.6,0s6.6,11.9,11.9,18.6
		c5.3,6.6,2.5,7.3,11.5,18.6c9,11.3,28.7,39.1,40.1,40.4s9.4,9.9,25.3,3.3c15.9-6.6,10.6-7.3,12.6-22.5c2-15.2,10.5-33.7,14.9-37.1
		s16.3-10,16.3-10s7,28.8,30.7,41.3c23.7,12.4,51.5,18.4,81.4,15.7c29.8-2.7,17.2-2,29.8,0.7s9.3,7.3,23.2,1.3s25.1-10.6,25.1-10.6
		s6,4,17.3,8s13.3,14.9,36.5,15.7c23.2,0.8,20.5-1.2,31.8-5.8c11.3-4.6,2.9-6.1,21.3-8c18.4-1.9,35-9.6,44.3,1.4
		c2.4,2.9,4.2,5,5.5,6.5c-2-3.4-3.1-8.3,2.7-12.7c10.3-7.8,20.4-17,26-5.8c5.6,11.3,6.2,39.1,8.9,44.4s4.6,8.6,13.9,7.3
		c9.3-1.3,55-25.2,72.2-25.8c17.2-0.7,35.7,8.5,38.8,7.6c3.1-0.9,7.4-2.2,14.5-4.4c7.1-2.1,7.7-1.2,18.3,1.4
		c10.6,2.7,20.5,3.3,33.1,3.3s27.8,0,36.5-4c8.6-4,4.6-3.4,22.5-8.3c17.9-5,27.8-16.9,27.8-16.9s4,19.9-4,27.2
		c-8,7.3-11.9,11.3-23.2,11.3s-24.5,0.7-24.5,0.7s-2.7,7.3-25.2,16.6c-22.5,9.3-27.4,11.2-37.8,7.3c-10.4-3.9-11.3-4.6-32.5-5.3
		c-21.2-0.7-23.9-4.6-31.2,4c-7.3,8.6-21.9,26.5-19.2,25.2s26.5,13.3,35.8,8c9.3-5.3,21.1-15.1,27.8-15.1s3.4-0.2,12.6,5.1
		c9.3,5.3,33.8,19.2,45.7,29.8c11.9,10.6,9.7,12.9,18.6,13.3c8.8,0.4,9.9,17.9,18.6,22.9c8.6,5,13.9-8.3,9.9,12.9
		c-4,21.2,0,50.4-1.3,53c-1.3,2.7-8,42.7-8,42.7c0.8,1.8,2.1,3,3.4,4.3c8.9,15.2,12.7,31.8,25.4,43.2c10.2,0,21.6,0,31.8,0
		c0,8.9,2.5,19.1-2.5,26.7c-7.6,8.9-15.2,17.8-24.1,25.4c0,12.7,7.6,22.9,12.7,34.3c1.3,1.3,3.8,2.5,5.1,2.5
		c8.9-1.3,17.8-2.5,25.4,2.5c1.3,1.3,2.5,2.5,3.8,3.8c17.8,10.2,38.1,16.5,53.4,31.8c1.3,2.5,3.8,3.8,6.4,6.4
		c1.3,2.5,2.5,5.1,5.1,6.4c2.5,1.3,6.4,2.5,8.9,2.5c16.5-5.1,24.1-21.6,36.8-31.8c14-54.6,12.7-114.3,39.4-165.1
		c19.1-24.1,36.8-47,57.2-69.9c15.2-26.7,26.7-54.6,39.4-82.6c19.1-3.8,38.1,2.5,55.9-5.1c5.1-2.5,8.9-5.1,15.2-6.4
		c2.5-1.3,3.8-3.8,6.4-5.1c20.3-3.8,39.4,0,59.7-1.3c8.9,5.1,15.2,11.4,22.9,17.8c2.5,2.5,6.4,3.8,10.2,6.4c2.5,1.3,3.8,3.8,5.1,6.4
		c2.5,16.5-5.1,31.8-15.2,45.7c-6.4,10.2-10.2,19.1-15.2,29.2c2.5,19.1,8.9,35.6,15.2,53.4c19.1,19.1,36.8,38.1,57.2,57.2
		c1.3,1.3,3.8,2.5,6.4,2.5c17.8,0,35.6,1.3,53.4-1.3c7.6-11.4,15.2-21.6,25.4-31.8c1.3-1.3,3.8-2.5,6.4-1.3
		c8.9,3.8,17.8,11.4,26.7,15.2c5.1,1.3,8.9,3.8,14,6.4c1.3,1.3,3.8,0,5.1,1.3c19.1,12.7,29.2,31.8,44.5,48.3
		c2.5,3.8,5.1,8.9,7.6,12.7c-11.4,31.8-5.1,64.8-6.4,97.8c-15.2,5.1-29.2,11.4-40.7,22.9c-2.5,2.5-3.8,7.6-2.5,10.2
		c2.5,7.6,11.4,11.4,12.7,20.3c3.8,26.7,1.3,53.4,1.3,80c0,2.5-3.8,2.5-6.4,3.8c-1.3,0-1.3,1.3-2.5,2.5c-1.3,0-2.5,1.3-3.8,1.3
		c-1.3,1.3-1.3,2.5-2.5,2.5c-14-2.5-27.9-7.6-41.7-9.2c-2.7,6.6-2.7,13,2.3,18.1c12.7,10.2,21.6,22.9,35.6,31.8
		c7.6,6.4,12.7,14,19.1,20.3c1.3,1.3,5.1,2.5,6.4,2.5c26.7,2.5,52.1-1.3,78.8,1.3c6.4,11.4,11.4,22.9,15.2,35.6
		c8.9,3.8,19.1,7.6,26.7,15.2c-1.3,6.4-1.3,12.7-1.3,19.1c5,0.2,8.7,0.3,11.5,0.3c100.3,2.2,199.4,1,299.7,1
		c-1.3-6.4,2.5-14-2.5-19.1c-8.9,0-19.1,1.3-27.9,0c-12.7-2.5-20.3-12.7-30.5-19.1c0-20.3,0-40.7,0-61c6.4-7.6,15.2-15.2,16.5-26.7
		c0-8.9,0-16.5,0-25.4c14-10.2,26.7-21.6,41.9-33c6.4-5.1,11.4-10.2,17.8-14c8.9-6.4,14-11.4,22.9-17.8c15.2-10.2,5.1-31.8,7.6-48.3
		c20.3-3.8,39.4,1.3,59.7-2.5c-1.3-12.7,1.3-24.1,6.4-35.6c8.9-17.8,15.2-35.6,21.6-54.6c7.6-1.3,17.8-3.8,22.9,5.1
		c5.1,11.4,10.2,21.6,15.2,31.8c2.5,2.5,3.8,5.1,6.4,8.9c10.2,12.7,24.1,19.1,34.3,30.5c24.1,10.2,52.1,3.8,68.6-16.5
		c0-16.5,1.3-34.3,1.3-50.8c0-7.6-1.3-16.5-2.5-24.1c-2.5-15.2-15.2-26.7-20.3-40.7c-2.5-10.2,0-19.1,0-29.2c4.6-3.4,9.1-0.7,13.7-2
		c0.3,0.1,0.8,0,1.6-0.6c0-1.3-1.3-1.3-1.3-2.5c1.3-5.1,1.3-10.2-1.3-15.2c-7.6-12.7-15.2-22.9-24.1-34.3c-3.8-3.8-8.9-6.4-14-5.1
		c-19.1,2.5-36.8,2.5-55.9,2.5c-2.5,0-5.1-1.3-6.4-2.5c-2.4-11-2.6-20.9-4.5-31.9c-0.1-0.4-0.1-0.7-0.2-1.2c0.6,0.4,0.9,0.9,1.2,1.3
		c3.3,3.6,8,7.3,13.7,3.9c0-1.3,1.3-2.5,1.3-2.5c-16.5-21.6-35.6-39.4-49.5-62.2c-5.1-7.6-5.1-16.5-1.3-24.1c1.3,0,3.8,0,6.4,0
		c-1.3-3.8,3.8-6.4,0-10.2c-7.6-5.1-17.8-1.3-26.7-2.5c-2.5-5.1,0-11.4,0-16.5c3.8-1.3,8.9,2.5,12.7,1.3
		c12.7-6.4,17.8-20.3,27.9-30.5c7.6-6.4,17.8-8.9,26.7-3.8c2.5,11.4-2.5,24.1,0,36.8c2.5,7.6,10.2,12.7,11.4,20.3
		c6.1,23.4,1.6,46.7,2.5,70.1c0,0.7,0,1.5,0.1,2.3c6.4,0,12.7,1.3,19.1,0c11.4-3.8,19.1-20.3,33-16.5c15.2,5.1,30.5,8.9,47,7.6
		c3.8,0,6.4,1.3,10.2,2.5c1.3,1.3,2.5,2.5,3.8,3.8c12.7,5.1,22.9,12.7,33,22.9c7.6,8.9,12.7,19.1,21.6,26.7c2.5,1.3,5.1-2.5,5.1-5.1
		c-2.5-12.7-2.5-24.1-1.3-35.6c1.3-5.1-1.3-12.7,6.4-15.2c10.2,6.4,19.1,14,27.9,21.6c6.4,21.6-3.8,41.9-12.7,61
		c6.4,12.7,11.4,25.4,10.2,39.4c-6.4,6.4-16.5,6.4-25,10.7c1.6,2.5,2.9,3.9,3.8,4.6c3.4,4.2,6.7,8.4,8.5,14c1.3,1.3,2.5,2.5,3.8,3.8
		c3.8,10.2,14,16.5,15.2,26.7c3.8,17.8-2.5,34.3,3.8,50.8c0,1.3,7.6-3.8,7.6,0c2.5,16.5,0,31.8,3.8,48.3c3.8,14,7.6,27.9,12.7,41.9
		c3.8,8.9,11.4,17.8,15.2,26.7c1.3,3.8,3.8,8.9,2.5,14c-1.3,7.6-10.2,10.2-14,15.2c0,14,5.1,26.7,1.3,40.7
		c-3.8,8.9-11.4,16.5-15.2,25.4c3.8,8.9,10.2,17.8,16.5,25.4c6.4,3.8,14-2.5,19.1-7.6c3.8-2.5,6.4-1.3,8.9,1.3
		c10.2,12.7,3.8,27.9-5.1,40.7c-1.3,1.3-1.3,3.8-1.3,5.1c5.1,7.6,12.7,11.4,19.1,17.8c1.3,1.3,2.5,1.3,3.8,1.3
		c6.4-1.3,11.4-5.1,16.5-8.9c14-7.6,29.2-10.2,44.5-6.4c3.8,15.2,0,31.8,1.3,47c95.3,0,190.6-1.3,285.8,1.3
		c2.5-17.8-1.3-35.6,1.3-54.6c1.3-8.9-6.4-14-12.7-19.1c-8.9-8.9,0-24.1-6.4-34.3c-19.1-31.8-33-62.2-54.6-94
		c-11.4-15.2-24.1-26.7-36.8-38.1c-2.5-7.6,5.1-16.5,10.2-21.6c10.2-7.6,21.6-8.9,31.8-15.2c12.7,7.6,22.9,20.3,36.8,24.1
		c8.9,3.8,17.8,0,26.7,2.5c6.4,8.9,19.1,16.5,29.2,8.9c0-10.2-2.5-20.3,2.5-29.2c2.5-3.8,7.6-5.1,12.7-3.8
		c20.3,10.2,43.2,16.5,66.1,11.4c0-16.5,0-31.8,0-48.3C3234.1,1546.5,3227.8,1543.9,3222.7,1543.9z"/>
	<path class="st1" d="M3156.6,978.6C3156.6,989,3163,979.7,3156.6,978.6L3156.6,978.6z"/>
	<path class="st1" d="M2737.5,723.7c0.3-0.3,0.6-0.6,1-0.9C2736.1,722.6,2736.6,723.9,2737.5,723.7z"/>
	<path class="st1" d="M2559.7,436.6C2562.2,432.9,2548.2,422.5,2559.7,436.6L2559.7,436.6z"/>
	<path class="st1" d="M2470,1321.5c0.7,3.1,1.9,1.8,1,0.1c-0.4-0.4-0.8-0.9-1.2-1.3C2469.9,1320.7,2469.9,1321.1,2470,1321.5z"/>
	<path class="st1" d="M2414.7,1207.3C2415.8,1211.6,2420.7,1206.2,2414.7,1207.3L2414.7,1207.3z"/>
	<path class="st1" d="M1228.3,1434.7C1220,1434.7,1226.9,1446.2,1228.3,1434.7L1228.3,1434.7z"/>
</g>
<path class="st2" d="M2513.3,280.1l-16.8-14.1l35.2-31.6l-8.3-9.3l-12.9,11.5c-4.6-5.7-9.5-11.8-9.5-11.8l12.9-11l-8.5-6.5
	l-14.4,12.4c0,0-54.6-59.4-57.6-60.8c-3-1.4-70.1-30.6-70.1-30.6l-92.5-13.5c0,0-84.2-47.9-90.8-48.7s-17.8-5.1-17.8-5.1
	s-68.5-41.8-108.2-47.6s-50.5-5.9-55.1-6.4c-4.5-0.4-44.3,8-44.3,8l-7-15.1l-8,3l4,15.5l-9.9,3.6l-5-15l-7.6,4v13.2
	c0,0-33.1-0.3-41.1,0s-49.2,9.9-73.3,21.5c-24.1,11.6-46.6,34.4-56.7,40.9s-44.4,48-52.1,50.1s-36.8,43.5-36.8,43.5l-19.3-15.5
	l-3.7,4.8l18.5,17.1c0,0-19.9,42.7-55.3,61.1s-55.2,20.6-55.2,20.6s6.2-22,0-22s-16.7-1.1-16.7-1.1l-6.2-18l-4.5,1.7l6.6,16
	c0,0-2.7,3.6-8.9,2.8s-4.4,6.3-6.6,9.1c-2.2,2.8,0,23.5,0,23.5l-40.1,5.5c0,0,24.5-21,22.9-23.6s-10.5-1.4-12,0
	s-12.9,17.6-15.5,18.1s-76.1,12.2-76.1,12.2s-2.5-24.2-5.6-22.9c-3.1,1.3-5.9,3.9-6.1,4.2c-0.2,0.4,3.5,25.4,3.5,25.4h-24.6
	c0,0-0.3-2.7-4.7-4.9c-4.3-2.2-8.4-8.8-11-8.5s-0.7-20.1,0-30.1s2.6-11.3,0-14s-13.2,9.5-18.2,6.1s-4.6-7.9-8.1-9.3
	c-3.5-1.4-6-11.2-16.7-1s-14.4,13.9-15.2,21.3c-0.8,7.5,1.2,34.8-25.3,39.7c-26.5,4.9-44.5-4.7-49.1-3.9s-17.5,2.5-18.7,0
	c-1.1-2.5,4.8,1.5-1.1-2.5c-6-4,3.2-4.7-10.3-6.7s-26.3-4.9-34.9-5.1c-8.5-0.2-57.5-19.4-64.5-26.7s-13.8-12.6-11.7-14.6
	s16.7-5.8,19.3-7.6c2.7-1.7,8.6-0.4,2.7-1.7c-6-1.3-14.3,0.1-19.4,1.7c-5.1,1.6-9.3-0.7-11.5-13.5s5.9-24.9,5.9-24.9
	s1.4-4.4-3.3-5.4s-11.3,20.9-11.3,20.9l-10.1-6.2c0,0,8.9-19,5.5-19.7s-6.9-0.7-6.9-0.7l-7.8,14.6l-12.6-5.7c0,0,7.8-16.1,5.2-18.1
	c-2.6-2-6.1,1.3-7.3,3.3s-7.3,14.8-7.3,14.8l-8.9-3.2l4.4-17.6c0,0-5.2-5.3-7.9-2.7c-2.7,2.7-8.5,14.6-8.5,14.6l-9.7-4l3.8-18.6
	c0,0-3.2-4-7.3,0s-6.6,17.2-6.6,17.2l-9.9-4c0,0,5-19.2,2.8-19.2c-2.3,0-7.7,0-7.7,0l-3.6,16.7l-13.9-0.7l2.9-19.5
	c0,0-5.5-4.2-7.7,0s-6.4,14.2-6.4,14.2l-9.1-4c0,0,4.3-13.9,1.8-15.2s-40.1,35.1-40.1,35.1s-27.3-13.9-33.9-13.3c-6.6,0.7,0-8,0-8
	s11.3,2.7,12.6-2c1.3-4.6-0.4-9.9-5.5-9.9s-7.1-2-7.1-2l3.9-9.9c0,0,16.7,4.6,12.4-2c-4.3-6.6-46.8-12.9-46.8-12.9s4,6.9,5.6,7.6
	c1.7,0.7,21.2,4.6,21.2,4.6v9.3c0,0-14.2-3.3-24.2-3.3c-9.9,0-9.8,5.3-9.8,5.3s15.4,4.1,15.9,6.4c0.5,2.2,3.5,10.9,0,12.2
	s-23.5-8-23.5-8s-11.3-18.6-17.5-21.9c-6.2-3.3-96.5-27.2-101.1-27.2s-114.7-3.1-114.7-3.1l-34.8,6.8c0,0-0.6,0.2-1.7,0.5l-1.9-8.4
	l-2.6,0.6l1.9,8.5c-2,0.6-4.6,1.3-7.7,2.2l-1.7-7.8l-2.6,0.6l1.8,7.9c-7.8,2.2-18.1,5.1-28.8,8.1v-7.3h-2.7v8.1
	c-6.3,1.7-12.6,3.5-18.7,5.2l-1.5-6.7l-2.6,0.6l1.5,6.8c-6.5,1.8-12.5,3.5-17.8,4.9l-1.7-7.7l-2.6,0.6l1.7,7.9
	c-8.7,2.3-14.6,3.9-15.3,3.9c-3,0-61.7-8.6-62.8-6.6c-1.1,2,0,6.6,0,6.6l62.8,8V168c0,0-46.8-9.9-49.1-6.6
	c-2.3,3.3-103.1,102-105,102.4c-2,0.4-44.4,10.1-46.4,9.9S172,295.6,172,295.6l-5.5-7.5l26.9-29.1c0,0-3.7-8-6.4-6
	s-31.8,37.6-31.8,37.6l9.3,13.8l-90.8,59l-24.3,19.9c0,0,23-16.9,35.5-19.9c12.6-3,16.6-9,30.3-9.3c13.7-0.4,8.8-2.3,18.8,0.8
	c9.9,3,16.2-29.4,38-36.8c21.9-7.4,28.3-5.5,48.8-3.7c20.5,1.7,9.1-3.6,29.6-1.6c20.5,2,20.2,6.5,22.8,7.5c2.7,1,12.1,7.2,22,4.9
	c7.1-1.7,25.8,1.2,27.9-6.2c4.2-14.9,11.3-3.7,19.8-10.4c12.2-9.6,8-31.4,20.3-44.4c5.9-6.3-12.2-21.1,0-32.4
	c2-1.9,3.3,3.9,12.2,3.7c8.9-0.1,8.9-15.6,7.9-22.2c-0.9-6.6-7-17.4,0-15.9c22.6,4.7,4.8-14.5,20-14.9c9.8-0.2,12.2,20.9,18.8,21.4
	c6.6,0.5,14.6,0.6,31.5,2.3c16.9,1.6,11.4-24.5,56.8-21.1c21.2,1.5,20.6-2.8,26.2-2.8c5.6,0,6.3,0.7,24.2-10
	c17.9-10.6,21.2-2,28.5,3.8c7.3,5.7,35.2,4.9,65.3,4.2s10.5-15.3,29.2-13.4c18.7,1.8,16.1,8.8,27,15.4c10.9,6.6,30.1,18,42.9,28.1
	c12.8,10.1,27.1-2.5,32.6-1.3c5.4,1.2,7.1,6,7.1,14.1s18.6,12.5,18.6,12.5c8.1,4.3,24.4-10.2,32.8-11.7c8.4-1.5,4.8,2.9,14,10
	c9.2,7,18.9,4.8,26,5.5s8.4,7.3,13.9,12.7c5.5,5.4,20.1,37.7,21.5,42.6s7.4,6.7,12.1,9.6c4.7,2.9,0.1,15.3,3.1,18.7
	c2.9,3.5,30.3,33,33.4,36.1c3.1,3,31.5,0.3,34.9,1.4c3.3,1.2,4.6,3.5,11.8-1.4s14.1-12.8,26.6-14.8s10-0.2,16.1,1.5
	c6.2,1.7,5.9,16.6,5.9,16.6s7.2,0.9,18.8,5.4c11.6,4.5-7.8,12.8-7.8,12.8s13.1-4.3,18.1-3.4c5,0.8,19.8,6.4,23.6,10.1
	c3.8,3.7,2.2,10.6,4.6,14s0,0,8.9,2.1s0,10.3,0,10.3s11.3-9.9,17.3-8.9c6.1,1,7.8-14.9,11.6-14.8c3.8,0.2,2.2,5.1,9.9,11.2
	c7.7,6.1,4.2,7.1,6.8,9.2s5.2,3.7,8.3,6c3.1,2.3,6.3,9.2,11.5,16.5c5.1,7.3,21.4,14.3,29.2,17c7.8,2.7,25.2,19.4,29.7,21.3
	s20.1,16.1,25.5,19.6c5.3,3.5,18.5,4.5,35.5,6.6c7.1,0.8,11.3,3.9,13.6,6.7c-2-4.8-3.6-9.6,3-15.3c8.3-7.1,13.5-32.7,13.8-36.1
	c0.2-3.4,3.8,1.5,9.6,1.8c5.9,0.3,4.7-3,10.1-5.7c5.3-2.7,0,0,6.3-0.7s36.8-9.1,41.9-16.4s-5.3-8.9-8.9-11.5s2.1-2.8,5.9-5.6
	c3.8-2.9,7.1,4.4,15.2,3.1c8.1-1.4,5.8-11.9,12.4-11c6.5,0.9,25.7-4.6,25.7-4.6l9.7,40c2.2,5.4,12.4,17.5,19.7,16.8
	c7.3-0.7,8-7.4,10.5-11.7c2.5-4.3,11.6-11.6,19.8-18.2c8.2-6.7,2.2-4.7,8.5-13s9.2-10.7,9.6-13.9c0.4-3.2-5-30.2-8.1-31.3
	s7.4-17.4,8.1-22.7c0.7-5.3,5.2-25.8,4.8-29.3c-0.4-3.5,3.1-5.1,9.1-4.1c0.2,0,0.4,0.1,0.5,0.2c5.8,2.5,10.3,29.6,14.5,38.8
	c4.3,9.5,30,23.7,44.6,25.3c14.6,1.7,51,13.2,51,13.2s42.4-18.2,53.4-20.2s22.2,0,28.2-4c6-4.1-4-27.1-4-31s15.2-33.8,16.7-40.6
	c1.4-6.8-23.3,10.7-29.9,6.2c-6.6-4.6-13.2-46.3-12.9-58.2c0.3-11.9,2.7-12.8,2.7-12.8s1.4-1.3,3.6-3c0.2-0.6,0.3-0.8,0.3-0.8
	s6.1-5.1,12.5-7.9c6.3-2.8,9.8-6.8,15.1-14.8s-13.8-19.5-11.9-24.2s15.9-34.8,21.2-38.7c5.3-3.9,16.6-9.3,19.6-13.3
	s24.8-20.6,30.5-24.2s16.2-3.1,27-2.4s20.4,7.3,28.7,13.1c8.4,5.8,16.1,0.2,23.4,0s14.6-8.4,24.9-10.7c10.3-2.2,16.9-9,26.8-15.6
	s100.7-23.2,112.3-21.9c11.5,1.3,66.7,10.6,70,13.9s9.9,18.6,12.6,22.5c2.7,4,4.6,6.6,11.3,11.7c6.6,5.1,6.6,40,7.3,48.3
	s11.3,20.2,20.1,28.6c8.9,8.4-2.8,10.5,0,17.1c2.8,6.5,27.6,22.2,30.2,18.4c2.7-3.8-1.3-16.1,7.8-21.7c9.1-5.6,17.4,6.1,17.4,6.1
	s12.6,10.8,23.2,6s19.9-15.8,34-17.8s62.1,1.3,65.3-4s-1.9-12.6,0-14.6s24-6.6,27-3.3s11.6,9.9,14.4,17.9c2.8,8,4.5,31.6,7.1,39.9
	c2.7,8.3,13.9,19.8,17.2,21s0,35.7,0,39.1s15.8,27.9,23.2,31.2c7.4,3.3,57.7,27.3,57.8,27.3s29.4,44.3,34.4,51.8
	c8.2,10.4,16.4,20.7,25.2,30.5c-11.5-14.1,2.5-3.7,0,0c3.2-2.7,5.9-6.8,9.4-9.1c0.5-1.7,1.2-2.6,3.9-1.6l0,0c0.9-0.1,1.9-0.2,3,0
	c1,0.3,2,1,2.9,1.7c3,0.7,6.1,1,8.5,0.8c2-2.3,3.5-4.9,4.4-7.4c0.2-4.4,0.1-9.6-1.1-12.8c-1.6-3.9-3.4-7.9-2-11.4
	c6.4-12.7,10.2-26.7,17.8-39.4c1.2-1.2,5.5,0.9,7.2,0.2c0.7-0.9,1.3-2.1,1.7-3.4l0,0c0.1-0.4,0.2-0.8,0.3-1.2
	c0.6-3.3,0.2-6.8-0.1-10.2c-0.3-2.6-0.7-5.1-0.5-7.6c0.1-0.8,0.4-1.5,0.9-2.3c0.4-1.2,1-2.4,1.9-3.5c3-3,7-4.8,11.3-5.4
	c2.6-1.2,4.6-1.9,4.6-1.9L2513.3,280.1z M1685.1,220.4c-2.2-8.5,6.9,0,6.9,0l-1.8,18c-0.8,0.9-10.2,4.4-10.2,4.4
	S1687.3,228.8,1685.1,220.4z M1605.6,258.6c26-19,48.5-36.7,74.2-61.2c1.6,1.3-5.6,36.8-11.2,44.3c-7.2,9.7-19.8,16.6-31.7,19.4
	c-9.7,2.3-32.5,2.4-33.2,1.3C1603,261,1604.4,259.6,1605.6,258.6z M1473.5,297.9h13.9c-4.8,1.5-13.9,6.5-13.9,6.5V297.9z
	 M1390.6,324.9l4.8-3.6v9.8c-2.2-0.4-7.8,0-7.8,0L1390.6,324.9z M1538.7,306.9l11.6-14.5l-8.6-8.9l50.6-14.1l-12.8,8.5
	c0,0,0,0-2.3,7.8C1574.9,293.5,1538.7,306.9,1538.7,306.9z M1813.4,62.5l-2.8,6.7l-24.9,5.7c0,0,6.5-6.6,17.9-13.6
	s21.9-11.2,21.9-11.2l4,8.7L1813.4,62.5z M1996.6,23.1l-103.4,20.8l-2-7.4h27.3l78-16.4L1996.6,23.1L1996.6,23.1z M2017.1,26H2006
	c0,0-1.5-6.5,2-6C2011.2,20.5,2014.9,25.7,2017.1,26h0.5C2017.5,26.1,2017.3,26.1,2017.1,26z M2039.6,32l-11.7-4v-8l16.9,8
	C2043.8,29.5,2039.6,32,2039.6,32z M2497.3,298.2c2-5,7.3-5.6,10.1-5.8s0,3.4,0,3.4l-7.3,8.3
	C2500.1,304.1,2495.3,303.2,2497.3,298.2z"/>
<polygon class="st1" points="8.2,300.4 8.2,270.6 33.9,246.3 77,261.9 95.8,278.9 95.8,304.5 71,317.4 37.1,317.4 16,329.8 
	2.7,317.4 "/>
<polygon class="st1" points="117.8,246.3 136.6,246.3 143,266 139.4,283 124.2,283 115,262.3 "/>
<g>
	<g>
		<defs>
			<path id="SVGID_1_" d="M3222.2,1544c-6.4,1.3-10.2,6.4-14,10.2c-2.5,2.5-5.1,3.8-7.6,3.8c-14,1.3-27.9-2.5-41.9,2.5
				c-2.5,1.3-5.1,2.5-8.9,3.8c-3.8,1.3-5.1,6.4-8.9,5.1c-6.4-1.3-11.4-8.9-19.1-10.2c-7.6-2.5-16.5-1.3-24.1-1.3
				c-5.1-7.6-15.2-10.2-24.1-8.9c-6.4-5.1-12.7-12.7-15.2-20.3c-2.5-3.8,2.5-8.9,5.1-12.7c10.2-12.7,15.2-26.7,14-41.9
				c0-2.5,2.5-5.1,3.8-6.4c7.6-5.1,15.2-10.2,17.8-19.1c1.3-5.1-1.3-10.2-3.8-15.2c-3.8-3.8-10.2-3.8-12.7-8.9
				c-3.8-6.4-1.3-12.7-1.3-19.1c-7.6-3.8-16.5,2.5-24.1,0c-3.8-7.6,1.3-16.5-2.5-24.1c-7.6-2.5-15.2-3.8-21.6-10.2
				c6.4-11.4,7.6-24.1,15.2-35.6c3.8-6.4,3.8-14-3.8-19.1c-26.7-19.1-49.5-38.1-68.6-66.1c-1.3-1.3-2.5-1.3-3.8-2.5
				c-2.5-2.5-3.8-5.1-3.8-7.6c0-5.1,0-11.4,0-16.5c-1.3-14-6.4-27.9-8.9-41.9c3.8-5.1,5.1-10.2,7.6-15.2c5.1-5.1,12.7-1.3,16.5,3.8
				c2.5,5.1,1.3,12.7,5.1,17.8c1.3,1.3,3.8,2.5,5.1,2.5c6.4,0,12.7-1.3,19.1-1.3c6.4,0,10.2-5.1,16.5-6.4
				c5.1-2.5,10.2-7.6,11.4-12.7c1.3-12.7,0-24.1,0-36.8c6.4-2.5,12.7,2.5,19.1,0c3.8-2.5-1.3-7.6,0-11.4c8.9-1.3,16.5-11.4,24.1-5.1
				c6.4,6.4,8.9,19.1,19.1,20.3c6.4,0,12.7,2.5,17.8-1.3c5.1-5.1,6.4-12.7,8.9-20.3c0-1.3,1.3-2.5,2.5-3.8c3.8-7.6,1.3-14-1.3-21.6
				c-5.1-8.9-15.2-20.3-6.4-29.2c2.5-2.5,3.8-5.1,6.4-8.9c8.9-11.4,21.6-20.3,24.1-34.3c2.3-11.7,1.5-24.5,1.3-36.4
				c1.1,5.5,5.3-1.6,0-2.8c0-0.1,0-0.2,0-0.2c10.2,1.3,20.3-1.3,21.6-11.4c2.5-8.9,3.8-19.1,0-27.9c-1.3-1.3-5.1-2.5-6.4-5.1
				c-1.3-1.3-1.3-3.8-2.5-5.1c-14-12.7-20.3-30.5-22.9-48.3c0-2.5,1.3-6.4,2.5-8.9c7.6-10.2,11.4-20.3,20.3-27.9
				c10.2,0,21.6,0,31.8-1.3c1.3-7.6,2.5-14-3.8-20.3c-30.5-29.2-61-55.9-92.7-82.6c-6.4,0-14-2.5-20.3,1.3
				c-3.8,3.8-6.4,7.6-8.9,11.4c5.1,5.1,10.2,8.9,11.4,16.5c0,3.8-1.3,7.6-3.8,10.2c-14,16.5-24.1,35.6-41.9,48.3
				c-6.4,2.5-16.5,6.4-20.3-1.3c2.5-7.6,1.3-15.2-1.3-21.6c-11.4-20.3-24.1-38.1-34.3-57.2c-11.4-11.4-27.9-16.5-40.7-25.4
				c-7.6,3.8-14,10.2-21.6,14c-8.9,5.1-19.1,3.8-29.2,3.8c-3.8,0-6.4,2.5-8.9,5.1c-1.3,2.5-3.8,5.1-6.4,6.4
				c-1.3,1.3-1.3,2.5-2.5,3.8c-29.2,16.5-57.2,30.5-86.4,43.2c-6.4,2.5-12.7,3.8-19.1,3.8c-2.5,0-6.4-1.3-8.9-2.5
				c-12.7-8.9-21.6-20.3-34.3-26.7c-2.5-1.3-3.8-5.1-6.4-7.6c-1.3-3.8-2.5-7.6-3.8-11.4c-1.3-6.4-5.1-12.7-2.5-17.8
				c2.5-8.9,14-17.8,24-13.2c-0.3,0.6-0.7,0.9-1,0.9c0.3-0.3,0.5-0.5,0.9-0.8c-2.4-0.2-1.9,1.1-1,0.9c0,0,0.1-0.1,0.1-0.1
				c-2.9,2.9-3.8,6.3-2.6,9.8c1.3,2.5,0,7.6,5.1,7.6c3.8-1.3,6.4-7.6,11.4-7.6c2.5,1.3,3.8,3.8,5.1,6.4c0,2.5-1.3,5.1-5.1,7.6
				c-2.5,2.5-2.5,5.1,0,8.9c5.1,6.4,14,3.8,20.3,3.8c3.8-10.2,10.2-19.1,12.7-30.5c-8.9-7.6-21.6-12.7-25.4-22.9
				c-5.1-11.4,5.1-20.3,8.9-30.5c1.3-6.4-1.3-14,3.8-19.1c3.8-2.5,6.4-6.4,7.6-11.4c1.3-10.2-2.5-21.6,2.5-30.5
				c5.1-7.6,12.7-14,12.7-22.9c0-10.2-1.3-19.1,5.1-27.9c8.9-10.2,16.5-20.3,24.1-31.8c7.6-2.5,16.5,1.3,22.9-2.5
				c5.1-2.5,1.3-11.4,2.5-17.8c-17.8-2.5-36.8,2.5-54.6-1.3c-5.1-12.7-14-21.6-21.6-33c-10.2-14-26.7-27.9-16.5-45.7
				c14-7.6,27.9-15.2,40.7-25.4c1.3-1.3,2.5-3.8,2.5-5.1c-1.3-8.9,0-17.8-2.5-26.7c-8.9-5.1-16.5-12.7-26.7-16.5
				c-3.8-1.3-6.4-3.8-8.9-6.4c-3.8-2.5-7.6-2.5-10.2-5.1c-2.5-2.5-5.1-5.1-8.9-6.4c-2.5-2.5-5.1-5.1-7.6-7.6
				c-7.6-12.7-17.8-19.1-26.7-29.2c-3.8-6.4-8.9-8.9-12.7-15.2c-6.4,5.1-14,8.9-15.2,16.5c0,12.7,1.3,25.4-8.9,34.3
				c-11.4,2.5-19.1-6.4-27.9-12.7c-7.6-5.1-19.1-3.8-25.4,2.5c-6.4,7.6,1.3,19.1-3.8,27.9c-1.3,1.3-6.4-1.3-7.6,0
				c-7.6,12.7-11.4,26.7-17.8,39.4c-2.5,6.4,5.1,14,3.8,20.3c0,3.8-2.5,8.9-6.4,12.7c-3.8,2.5-6.4-2.5-10.2-3.8
				c-7.5-1.3-11.3,6.2-16.2,10.4c1.4-3.8-10.1-12.4-1.6-1.4c-8.3-9.3-16.1-19.1-23.8-28.9c-5-7.5-34.3-51.8-34.4-51.8
				c-0.1,0-50.4-24-57.8-27.3c-7.4-3.3-23.1-27.8-23.2-31.2c0-3.4,3.3-37.9,0-39.1c-3.3-1.2-14.6-12.7-17.2-21
				c-2.7-8.3-4.3-31.9-7.1-39.9s-11.4-14.6-14.4-17.9s-25.1,1.3-27,3.3s3.2,9.3,0,14.6s-51.3,2-65.3,4c-14.1,2-23.4,13-34,17.8
				c-10.6,4.7-23.2-6-23.2-6s-8.3-11.7-17.4-6.1c-9.1,5.6-5.1,17.9-7.8,21.7s-27.4-11.8-30.2-18.4c-2.8-6.5,8.9-8.6,0-17.1
				c-8.9-8.4-19.5-20.3-20.1-28.6c-0.7-8.3-0.7-43.2-7.3-48.3s-8.6-7.7-11.3-11.7s-9.3-19.2-12.6-22.5c-3.3-3.3-58.5-12.6-70-13.9
				s-102.3,15.3-112.3,21.9c-9.9,6.6-16.6,13.4-26.8,15.6c-10.3,2.2-17.6,10.5-24.9,10.7s-15.1,5.8-23.4,0
				c-8.4-5.8-17.9-12.4-28.7-13.1c-10.8-0.7-21.3-1.2-27,2.4c-5.7,3.6-27.5,20.3-30.5,24.2s-14.3,9.3-19.6,13.3
				c-5.3,3.9-19.3,34-21.2,38.7c-1.9,4.7,17.2,16.3,11.9,24.2c-5.3,8-8.8,11.9-15.1,14.8c-0.2,0.1-0.4,0.2-0.6,0.3
				c-6.1,2.9-11.8,7.6-11.8,7.6s-0.1,0.2-0.3,0.8c-2.1,1.7-3.6,3-3.6,3s-2.4,0.9-2.7,12.8c-0.3,11.6,6,51.7,12.4,57.8
				c0.2,0.2,0.3,0.3,0.5,0.4c6.6,4.6,31.3-12.9,29.9-6.2c-1.4,6.8-16.7,36.6-16.7,40.6s10.1,27,4,31c-6,4.1-17.2,2-28.2,4
				s-53.4,20.2-53.4,20.2s-36.4-11.5-51-13.2c-14.6-1.7-40.3-15.9-44.6-25.3c-4.2-9.2-8.7-36.3-14.5-38.8c-0.2-0.1-0.3-0.1-0.5-0.2
				c-6-1-9.5,0.6-9.1,4.1c0.4,3.5-4.1,24-4.8,29.3c-0.7,5.3-11.1,21.6-8.1,22.7c3.1,1.1,8.5,28.1,8.1,31.3
				c-0.4,3.2-3.3,5.7-9.6,13.9c-6.3,8.3-0.3,6.3-8.5,13c-8.2,6.7-17.3,14-19.8,18.2c-2.5,4.3-3.2,10.9-10.5,11.7
				c-7.3,0.7-17.5-11.4-19.7-16.8l-9.7-40c0,0-19.1,5.5-25.7,4.6c-6.5-0.9-4.3,9.6-12.4,11c-8.1,1.4-11.4-5.9-15.2-3.1
				c-3.8,2.9-9.5,3-5.9,5.6c3.6,2.6,14,4.2,8.9,11.5c-5.1,7.3-35.6,15.6-41.9,16.4s-0.9-1.9-6.3,0.7c-5.3,2.7-4.2,6-10.1,5.7
				c-5.9-0.3-9.4-5.2-9.6-1.8c-0.2,3.4-5.4,29-13.8,36.1c-6.6,5.6-5,10.5-3,15.3c-2.3-2.8-6.5-5.8-13.6-6.7
				c-16.9-2-30.2-3.1-35.5-6.6s-21-17.7-25.5-19.6c-4.5-1.9-21.9-18.6-29.7-21.3c-7.8-2.7-24.1-9.7-29.2-17
				c-5.1-7.3-8.4-14.2-11.5-16.5c-3.1-2.3-5.7-3.9-8.3-6c-2.6-2,0.9-3-6.8-9.2c-7.7-6.1-6.1-11-9.9-11.2
				c-3.8-0.2-5.5,15.8-11.6,14.8c-6.1-1-17.3,8.9-17.3,8.9s8.9-8.3,0-10.3c-8.9-2.1-6.5,1.3-8.9-2.1c-2.4-3.4-0.8-10.3-4.6-14
				s-18.6-9.3-23.6-10.1s-18.1,3.4-18.1,3.4s19.4-8.4,7.8-12.8c-11.6-4.5-18.8-5.4-18.8-5.4s0.3-15-5.9-16.6
				c-6.2-1.6-3.7-3.5-16.1-1.5c-12.5,2-19.4,9.9-26.6,14.8c-7.2,4.9-8.5,2.6-11.8,1.4c-3.3-1.2-31.8,1.6-34.9-1.4
				c-3.1-3-30.4-32.6-33.4-36.1c-2.9-3.5,1.7-15.8-3.1-18.7c-4.7-2.9-10.7-4.7-12.1-9.6c-1.4-4.9-16-37.2-21.5-42.6
				c-5.5-5.4-6.8-12-13.9-12.7c-7.1-0.7-16.8,1.5-26-5.5s-5.6-11.5-14-10s-24.7,16-32.8,11.7c0,0-18.6-4.4-18.6-12.5
				c0-8.1-1.7-12.8-7.1-14.1c-5.5-1.2-19.8,11.4-32.6,1.3c-12.8-10.1-32-21.5-42.9-28.1c-10.9-6.6-8.3-13.6-27-15.4
				c-18.7-1.8,0.9,12.7-29.2,13.4c-30.1,0.7-58,1.5-65.3-4.2s-10.6-14.4-28.5-3.8c-17.9,10.6-18.6,10-24.2,10c-5.6,0-5,4.4-26.2,2.8
				c-45.3-3.3-39.8,22.8-56.8,21.1c-16.9-1.6-24.9-1.7-31.5-2.3c-6.6-0.5-9-21.6-18.8-21.4c-15.2,0.4,2.6,19.6-20,14.9
				c-7-1.4-0.9,9.3,0,15.9c0.9,6.6,0.9,22.1-7.9,22.2c-8.9,0.1-10.2-5.6-12.2-3.7c-12.2,11.3,5.9,26.2,0,32.4
				c-12.2,13-8.1,34.8-20.3,44.4c-8.5,6.7-15.6-4.5-19.8,10.4c-2.1,7.4-20.8,4.5-27.9,6.2c-9.9,2.4-19.3-3.9-22-4.9
				s-2.3-5.5-22.8-7.5c-20.5-2-9,3.3-29.6,1.6c-20.5-1.7-26.9-3.7-48.8,3.7c-21.9,7.4-28.1,39.9-38,36.8c-9.9-3-5.1-1.1-18.8-0.8
				c-13.7,0.4-17.7,6.3-30.3,9.3c-12.6,3-35.5,19.9-35.5,19.9s-2.2,9.6-10.2,16.9c-8,7.3-12.6,22.5-10.6,27.2
				c2,4.6,5.3,3.3,2.7,13.9c-2.7,10.6-0.7,11.9,0,19.9c0.7,8-6.2,19.2-3.1,37.1c3.1,17.9-0.9,23.9,10.4,27.8
				c11.3,4,9.3,1.3,21.9,20.5c0,0,25.1,35,35.5,39.6c10.4,4.6,10.2,14.2,19.3,12.4c9-1.8,26.1-6.5,28,1.8c1.9,8.3-2.6,12.5,7.9,10.4
				c10.4-2.1-9-6.4,26.8-9.1c35.8-2.7,37.3-6.9,40.3,7.6c3,14.4-1.5,26.3,0,36.8s-3,19.7,10.4,19.7c13.4,0,17.9-1.8,20.9,17.6
				c3,19.4,6,26.3,7.5,46c1.5,19.6-3,21.1-6,36c-3,14.9-8.9,17.9-1.5,28.3c7.5,10.4,0,26.8,14.9,25.4c14.9-1.5,25.6,1.5,30,6
				c4.3,4.5,8.6,13.4,14.7,6c6.1-7.5-7.8,1,14.1-20.1c13.3-12.9,17-17.1,17.8-18.4c0.5,2.9,3.6,17,11.2,18.4c8.5,1.6,9.9-0.4,8,12.9
				c-2,13.3-3.3,27.8,8,39.1s29.8,14.6,31.8,53s8,35.2-5.3,56.4s-22.5,31.8-24.5,39.1s4,49,13.9,53c9.9,4,9.9,4,14.6,0
				c4.6-4-2-14.6,12.6,0c14.6,14.6,6.6,11.9,11.9,18.6c5.3,6.6,2.5,7.3,11.5,18.6s28.7,39.1,40.1,40.4c11.4,1.3,9.4,9.9,25.3,3.3
				c15.9-6.6,10.6-7.3,12.6-22.5c2-15.2,10.5-33.7,14.9-37.1c4.4-3.4,16.3-10,16.3-10s7,28.8,30.7,41.3
				c23.7,12.4,51.5,18.4,81.4,15.7c29.8-2.7,17.2-2,29.8,0.7s9.3,7.3,23.2,1.3s25.1-10.6,25.1-10.6s6,4,17.3,8s13.3,14.9,36.5,15.7
				c23.2,0.8,20.5-1.2,31.8-5.8c11.3-4.6,2.9-6.1,21.3-8c18.4-1.9,35-9.6,44.3,1.4c2.4,2.9,4.2,5,5.5,6.5c-2-3.4-3.1-8.3,2.7-12.7
				c10.3-7.8,20.4-17,26-5.8c5.6,11.3,6.2,39.1,8.9,44.4s4.6,8.6,13.9,7.3c9.3-1.3,55-25.2,72.2-25.8c17.2-0.7,35.7,8.5,38.8,7.6
				c3.1-0.9,7.4-2.2,14.5-4.4c7.1-2.1,7.7-1.2,18.3,1.4c10.6,2.7,20.5,3.3,33.1,3.3c12.6,0,27.8,0,36.5-4c8.6-4,4.6-3.4,22.5-8.3
				c17.9-5,27.8-16.9,27.8-16.9s4,19.9-4,27.2c-8,7.3-11.9,11.3-23.2,11.3c-11.3,0-24.5,0.7-24.5,0.7s-2.7,7.3-25.2,16.6
				s-27.4,11.2-37.8,7.3c-10.4-3.9-11.3-4.6-32.5-5.3s-23.9-4.6-31.2,4c-7.3,8.6-21.9,26.5-19.2,25.2s26.5,13.3,35.8,8
				s21.1-15.1,27.8-15.1c6.7,0,3.4-0.2,12.6,5.1c9.3,5.3,33.8,19.2,45.7,29.8c11.9,10.6,9.7,12.9,18.6,13.3
				c8.8,0.4,9.9,17.9,18.6,22.9c8.6,5,13.9-8.3,9.9,12.9c-4,21.2,0,50.4-1.3,53c-1.3,2.7-8,42.7-8,42.7c0.8,1.8,2.1,3,3.4,4.3
				c8.9,15.2,12.7,31.8,25.4,43.2c10.2,0,21.6,0,31.8,0c0,8.9,2.5,19.1-2.5,26.7c-7.6,8.9-15.2,17.8-24.1,25.4
				c0,12.7,7.6,22.9,12.7,34.3c1.3,1.3,3.8,2.5,5.1,2.5c8.9-1.3,17.8-2.5,25.4,2.5c1.3,1.3,2.5,2.5,3.8,3.8
				c17.8,10.2,38.1,16.5,53.4,31.8c1.3,2.5,3.8,3.8,6.4,6.4c1.3,2.5,2.5,5.1,5.1,6.4c2.5,1.3,6.4,2.5,8.9,2.5
				c16.5-5.1,24.1-21.6,36.8-31.8c14-54.6,12.7-114.3,39.4-165.1c19.1-24.1,36.8-47,57.2-69.9c15.2-26.7,26.7-54.6,39.4-82.6
				c19.1-3.8,38.1,2.5,55.9-5.1c5.1-2.5,8.9-5.1,15.2-6.4c2.5-1.3,3.8-3.8,6.4-5.1c20.3-3.8,39.4,0,59.7-1.3
				c8.9,5.1,15.2,11.4,22.9,17.8c2.5,2.5,6.4,3.8,10.2,6.4c2.5,1.3,3.8,3.8,5.1,6.4c2.5,16.5-5.1,31.8-15.2,45.7
				c-6.4,10.2-10.2,19.1-15.2,29.2c2.5,19.1,8.9,35.6,15.2,53.4c19.1,19.1,36.8,38.1,57.2,57.2c1.3,1.3,3.8,2.5,6.4,2.5
				c17.8,0,35.6,1.3,53.4-1.3c7.6-11.4,15.2-21.6,25.4-31.8c1.3-1.3,3.8-2.5,6.4-1.3c8.9,3.8,17.8,11.4,26.7,15.2
				c5.1,1.3,8.9,3.8,14,6.4c1.3,1.3,3.8,0,5.1,1.3c19.1,12.7,29.2,31.8,44.5,48.3c2.5,3.8,5.1,8.9,7.6,12.7
				c-11.4,31.8-5.1,64.8-6.4,97.8c-15.2,5.1-29.2,11.4-40.7,22.9c-2.5,2.5-3.8,7.6-2.5,10.2c2.5,7.6,11.4,11.4,12.7,20.3
				c3.8,26.7,1.3,53.4,1.3,80c0,2.5-3.8,2.5-6.4,3.8c-1.3,0-1.3,1.3-2.5,2.5c-1.3,0-2.5,1.3-3.8,1.3c-1.3,1.3-1.3,2.5-2.5,2.5
				c-14-2.5-27.9-7.6-41.7-9.2c-2.7,6.6-2.7,13,2.3,18.1c12.7,10.2,21.6,22.9,35.6,31.8c7.6,6.4,12.7,14,19.1,20.3
				c1.3,1.3,5.1,2.5,6.4,2.5c26.7,2.5,52.1-1.3,78.8,1.3c6.4,11.4,11.4,22.9,15.2,35.6c8.9,3.8,19.1,7.6,26.7,15.2
				c-1.3,6.4-1.3,12.7-1.3,19.1c5,0.2,8.7,0.3,11.5,0.3c100.3,2.2,199.4,1,299.7,1c-1.3-6.4,2.5-14-2.5-19.1c-8.9,0-19.1,1.3-27.9,0
				c-12.7-2.5-20.3-12.7-30.5-19.1c0-20.3,0-40.7,0-61c6.4-7.6,15.2-15.2,16.5-26.7c0-8.9,0-16.5,0-25.4c14-10.2,26.7-21.6,41.9-33
				c6.4-5.1,11.4-10.2,17.8-14c8.9-6.4,14-11.4,22.9-17.8c15.2-10.2,5.1-31.8,7.6-48.3c20.3-3.8,39.4,1.3,59.7-2.5
				c-1.3-12.7,1.3-24.1,6.4-35.6c8.9-17.8,15.2-35.6,21.6-54.6c7.6-1.3,17.8-3.8,22.9,5.1c5.1,11.4,10.2,21.6,15.2,31.8
				c2.5,2.5,3.8,5.1,6.4,8.9c10.2,12.7,24.1,19.1,34.3,30.5c24.1,10.2,52.1,3.8,68.6-16.5c0-16.5,1.3-34.3,1.3-50.8
				c0-7.6-1.3-16.5-2.5-24.1c-2.5-15.2-15.2-26.7-20.3-40.7c-2.5-10.2,0-19.1,0-29.2c4.6-3.4,9.1-0.7,13.7-2c0.3,0.1,0.8,0,1.6-0.6
				c0-1.3-1.3-1.3-1.3-2.5c1.3-5.1,1.3-10.2-1.3-15.2c-7.6-12.7-15.2-22.9-24.1-34.3c-3.8-3.8-8.9-6.4-14-5.1
				c-19.1,2.5-36.8,2.5-55.9,2.5c-2.5,0-5.1-1.3-6.4-2.5c-2.3-10.4-2.6-19.8-4.2-30c0.1-0.3,0-0.7-0.2-1.1c0-0.3-0.1-0.5-0.1-0.8
				c-0.1-0.4-0.1-0.7-0.2-1.2c0.6,0.4,0.9,0.9,1.2,1.3c3.3,3.6,8,7.3,13.7,3.9c0-1.3,1.3-2.5,1.3-2.5
				c-16.5-21.6-35.6-39.4-49.5-62.2c-5.1-7.6-5.1-16.5-1.3-24.1c1.3,0,3.8,0,6.4,0c-1.3-3.8,3.8-6.4,0-10.2
				c-7.6-5.1-17.8-1.3-26.7-2.5c-2.2-4.5-0.5-10-0.1-14.7c1.4,0.6,3.2-1.9,0.1-1.7c0,0,0,0,0-0.1c3.8-1.3,8.9,2.5,12.7,1.3
				c12.7-6.4,17.8-20.3,27.9-30.5c7.6-6.4,17.8-8.9,26.7-3.8c2.5,11.4-2.5,24.1,0,36.8c2.5,7.6,10.2,12.7,11.4,20.3
				c6.1,23.4,1.6,46.7,2.5,70.1c0,0.7,0,1.5,0.1,2.3c6.4,0,12.7,1.3,19.1,0c11.4-3.8,19.1-20.3,33-16.5c15.2,5.1,30.5,8.9,47,7.6
				c3.8,0,6.4,1.3,10.2,2.5c1.3,1.3,2.5,2.5,3.8,3.8c12.7,5.1,22.9,12.7,33,22.9c7.6,8.9,12.7,19.1,21.6,26.7
				c2.5,1.3,5.1-2.5,5.1-5.1c-2.5-12.7-2.5-24.1-1.3-35.6c1.3-5.1-1.3-12.7,6.4-15.2c10.2,6.4,19.1,14,27.9,21.6
				c6.4,21.6-3.8,41.9-12.7,61c6.4,12.7,11.4,25.4,10.2,39.4c-6.4,6.4-16.5,6.4-25,10.7c1.6,2.5,2.9,3.9,3.8,4.6
				c3.4,4.2,6.7,8.4,8.5,14c1.3,1.3,2.5,2.5,3.8,3.8c3.8,10.2,14,16.5,15.2,26.7c3.8,17.8-2.5,34.3,3.8,50.8c0,1.3,7.6-3.8,7.6,0
				c2.5,16.5,0,31.8,3.8,48.3c3.8,14,7.6,27.9,12.7,41.9c3.8,8.9,11.4,17.8,15.2,26.7c1.3,3.8,3.8,8.9,2.5,14
				c-1.3,7.6-10.2,10.2-14,15.2c0,14,5.1,26.7,1.3,40.7c-3.8,8.9-11.4,16.5-15.2,25.4c3.8,8.9,10.2,17.8,16.5,25.4
				c6.4,3.8,14-2.5,19.1-7.6c3.8-2.5,6.4-1.3,8.9,1.3c10.2,12.7,3.8,27.9-5.1,40.7c-1.3,1.3-1.3,3.8-1.3,5.1
				c5.1,7.6,12.7,11.4,19.1,17.8c1.3,1.3,2.5,1.3,3.8,1.3c6.4-1.3,11.4-5.1,16.5-8.9c14-7.6,29.2-10.2,44.5-6.4
				c3.8,15.2,0,31.8,1.3,47c95.3,0,190.6-1.3,285.8,1.3c2.5-17.8-1.3-35.6,1.3-54.6c1.3-8.9-6.4-14-12.7-19.1
				c-8.9-8.9,0-24.1-6.4-34.3c-19.1-31.8-33-62.2-54.6-94c-11.4-15.2-24.1-26.7-36.8-38.1c-2.5-7.6,5.1-16.5,10.2-21.6
				c10.2-7.6,21.6-8.9,31.8-15.2c12.7,7.6,22.9,20.3,36.8,24.1c8.9,3.8,17.8,0,26.7,2.5c6.4,8.9,19.1,16.5,29.2,8.9
				c0-10.2-2.5-20.3,2.5-29.2c2.5-3.8,7.6-5.1,12.7-3.8c20.3,10.2,43.2,16.5,66.1,11.4c0-16.5,0-31.8,0-48.3
				C3233.6,1546.6,3227.3,1544,3222.2,1544z"/>
		</defs>
		<clipPath id="SVGID_2_">
			<use xlink:href="#SVGID_1_"  style="overflow:visible;"/>
		</clipPath>
		<g class="st3">
			<g>
				<polygon class="st4" points="3137.9,1655 3217.7,1655 3217.7,1682 3196.2,1682 3182,1672.9 3155.4,1672.9 				"/>
				<polygon class="st5" points="2386.3,1198.7 2392.8,1189.5 2382.7,1169.8 2379,1154.7 2364.8,1135.9 2364.8,1119.4 
					2341.9,1106.5 2341.9,1156.5 2336.8,1176.7 2325.8,1175.3 2325.8,1162.5 2313,1171.2 2307.5,1180.8 2298.8,1167.5 2298.8,1157 
					2258.4,1124.4 2249.2,1126.3 2253.4,1136.4 2262.5,1138.6 2261.6,1160.2 2274,1173.5 2295.1,1215.2 2301,1218.4 2303.8,1239.5 
					2312.5,1239.5 2320.8,1217.5 2337.3,1225.3 2329.7,1246.9 2337.7,1253.7 2329.7,1268 2336.8,1285.8 2329.7,1300.1 
					2347.4,1304.2 2355.2,1287.7 2369.4,1295 2362,1311.5 2371.7,1325.7 2395.1,1323.9 2410.2,1299.1 2410.2,1252.4 2386.3,1222.1 
									"/>
				<g>
					<polygon class="st5" points="2199.7,1130.8 2179.5,1138.2 2165.3,1136.4 2165.3,1148.7 2174,1157.4 2164.9,1166.6 
						2149.3,1169.8 2149.3,1185.9 2134.1,1189.1 2131.8,1201.9 2114.4,1201.9 2107.1,1211.6 2095.1,1211.6 2095.1,1201.9 
						2084.1,1201.9 2084.1,1242.7 2118.1,1212.9 2145.6,1212.9 2175.9,1179 2188.2,1179 2188.2,1188.2 2197.4,1188.6 2197.4,1162.5 
						2216.2,1143.2 2229.1,1131.3 2220.3,1119.8 					"/>
					<polygon class="st5" points="2386.3,1198.7 2392.8,1189.5 2382.7,1169.8 2379,1154.7 2364.8,1135.9 2364.8,1119.4 
						2341.9,1106.5 2341.9,1156.5 2336.8,1176.7 2325.8,1175.3 2325.8,1162.5 2313,1171.2 2307.5,1180.8 2298.8,1167.5 2298.8,1157 
						2258.4,1124.4 2249.2,1126.3 2253.4,1136.4 2262.5,1138.6 2261.6,1160.2 2274,1173.5 2295.1,1215.2 2301,1218.4 2303.8,1239.5 
						2312.5,1239.5 2320.8,1217.5 2337.3,1225.3 2329.7,1246.9 2337.7,1253.7 2329.7,1268 2336.8,1285.8 2329.7,1300.1 
						2347.4,1304.2 2355.2,1287.7 2369.4,1295 2362,1311.5 2371.7,1325.7 2395.1,1323.9 2410.2,1299.1 2410.2,1252.4 2386.3,1222.1 
											"/>
				</g>
				<g>
					<polygon class="st5" points="2132.8,862.1 2132.8,879.1 2152.7,899 2151.1,930 2172.6,930 2172.6,917.2 2196,917.2 2196,867.2 
						2196,832.3 2180.9,817.2 2165.8,826.8 2165.8,842 2151.1,857.1 2129.5,842 2108,812.2 2095.1,812.2 2119.5,851.1 					"/>
					<polygon class="st5" points="2199.7,1130.8 2179.5,1138.2 2165.3,1136.4 2165.3,1148.7 2174,1157.4 2164.9,1166.6 
						2149.3,1169.8 2149.3,1185.9 2134.1,1189.1 2131.8,1201.9 2114.4,1201.9 2107.1,1211.6 2095.1,1211.6 2095.1,1201.9 
						2084.1,1201.9 2084.1,1242.7 2118.1,1212.9 2145.6,1212.9 2175.9,1179 2188.2,1179 2188.2,1188.2 2197.4,1188.6 2197.4,1162.5 
						2216.2,1143.2 2229.1,1131.3 2220.3,1119.8 					"/>
					<polygon class="st5" points="2386.3,1198.7 2392.8,1189.5 2382.7,1169.8 2379,1154.7 2364.8,1135.9 2364.8,1119.4 
						2341.9,1106.5 2341.9,1156.5 2336.8,1176.7 2325.8,1175.3 2325.8,1162.5 2313,1171.2 2307.5,1180.8 2298.8,1167.5 2298.8,1157 
						2258.4,1124.4 2249.2,1126.3 2253.4,1136.4 2262.5,1138.6 2261.6,1160.2 2274,1173.5 2295.1,1215.2 2301,1218.4 2303.8,1239.5 
						2312.5,1239.5 2320.8,1217.5 2337.3,1225.3 2329.7,1246.9 2337.7,1253.7 2329.7,1268 2336.8,1285.8 2329.7,1300.1 
						2347.4,1304.2 2355.2,1287.7 2369.4,1295 2362,1311.5 2371.7,1325.7 2395.1,1323.9 2410.2,1299.1 2410.2,1252.4 2386.3,1222.1 
											"/>
				</g>
				<g>
					<path class="st6" d="M939.1,238.9c0.2,0,3-8.8,3-8.8l16.3,10.7l-7.6,8.7L939.1,238.9z"/>
					<polygon class="st6" points="957.2,252 964.1,245.1 973.7,253.4 968,261.4 					"/>
					<polygon class="st6" points="973.7,264.8 981.5,258.7 996.4,274.5 988.9,280.2 					"/>
					<path class="st6" d="M993.2,286.6c0.7-0.5,7.3-6.4,7.3-6.4l13.1,15.8l-10.2,6.2L993.2,286.6z"/>
					<polygon class="st6" points="1007.9,307.3 1018,302.2 1022.6,307.3 1015.2,316 					"/>
					<polygon class="st6" points="1019.6,320.6 1025.5,314.1 1039.1,328.1 1030.8,337.8 					"/>
					<polygon class="st6" points="1037.7,342.1 1044.6,331.1 1073.5,344.2 1070.3,356.6 					"/>
					<polygon class="st6" points="1099.1,361.8 1104.9,352.7 1122.8,357.2 1122.8,367.3 1110.9,370.3 					"/>
					<polygon class="st6" points="1085.2,367.3 1095.2,367.3 1095.2,377.7 1090.2,377.7 1083.5,372.5 					"/>
					<polygon class="st6" points="1054,355.4 1067,360.2 1064.5,368.5 1054,365 					"/>
					<polygon class="st6" points="1049.2,363 1049.2,349.9 1036.5,345.3 1035.2,349.4 					"/>
					<polygon class="st6" points="1141.6,347.6 1152.3,347.6 1153.3,361.5 1142.7,361.5 					"/>
					<polygon class="st6" points="1161,349 1171.1,349 1167.2,367.3 1156.7,367.3 					"/>
					<path class="st6" d="M1131.7,377.7c0.7,0.2,37.1,0,37.1,0v17l-13.3,18.6l-25.5-17.8L1131.7,377.7z"/>
					<polygon class="st6" points="1156.7,422 1170.2,405.9 1184,415.9 1210.1,415.9 1221.1,423.3 1242.5,400.8 1248.2,404.7 
						1240.2,415.9 1255.5,427.6 1256.7,438.5 1256.7,438.5 1244,447.9 1232.4,440.2 1182.9,440.2 					"/>
					<polygon class="st6" points="1221.8,376.7 1229.1,382.2 1218.4,395.4 1225.2,400.8 1218.4,408.4 1205.5,395.4 					"/>
					<polygon class="st6" points="1177.3,385.2 1200.9,400.8 1194.5,408.4 1173.4,392.6 					"/>
					<path class="st6" d="M1285.1,410c0.9,0,12.6,0,12.6,0v14.4h-12.6V410z"/>
					<rect x="1282.6" y="429.7" class="st6" width="14.2" height="10.8"/>
					<rect x="1302.3" y="429.7" class="st6" width="24.3" height="11.9"/>
					<polygon class="st6" points="1331.6,430.8 1356.4,430.8 1356.4,441.6 1330.5,441.6 					"/>
					<rect x="1365.3" y="429.7" class="st6" width="25.2" height="8.8"/>
					<rect x="1302.3" y="410" class="st6" width="24.3" height="14.4"/>
					<rect x="1331.9" y="410" class="st6" width="24.5" height="14.4"/>
					<polygon class="st6" points="1359.8,410 1376.1,410 1376.1,415.5 1387.6,415.5 1387.6,421.2 1359.8,421.2 					"/>
					<polygon class="st6" points="1395.4,405.2 1416.7,405.2 1431.6,400.8 1431.6,413.2 1395.4,418.7 					"/>
					<polygon class="st6" points="1397,427.4 1408.2,427.4 1408.2,422.4 1433.4,422.4 1433.4,434.1 1415.2,438.5 1397,438.5 					
						"/>
					<polygon class="st6" points="1439.2,398.7 1453.4,394.4 1453.4,408.4 1439.2,413.2 					"/>
					<polygon class="st6" points="1440.8,418.7 1455.2,413.2 1461.2,422.4 1461.2,427.6 1440.8,434.1 					"/>
					<polygon class="st6" points="1465.3,408.4 1478.6,408.4 1494.7,400.8 1496.3,413.2 1466.7,425.6 					"/>
					<polygon class="st6" points="1501.3,396.8 1504.1,410 1532,400.8 1528.1,388.4 					"/>
					<polygon class="st6" points="1536.6,386.8 1540.1,397.4 1564,389.8 1557.5,379.5 					"/>
					<polygon class="st6" points="1492.8,379.5 1502.7,379.5 1502.7,388.4 1506.6,388.4 1506.6,391.6 1492.8,391.6 					"/>
					<polygon class="st6" points="1513,372.8 1525.6,372.8 1525.6,384.1 1516.7,384.1 1516.7,378.5 1511.9,378.5 					"/>
					<rect x="1536.6" y="371.5" class="st6" width="9.9" height="7"/>
					<polygon class="st6" points="1573.1,346.9 1580.6,366 1592.8,360.2 1585.5,342.8 					"/>
					<polygon class="st6" points="1600.4,347.6 1607.2,347.6 1607.2,356.8 1599.4,356.8 					"/>
					<polygon class="st6" points="1622.4,341 1634.5,336.4 1639.3,347.6 1627,351.3 					"/>
					<polygon class="st6" points="1647.4,355.4 1641.4,355.4 1641.4,367.1 1628.6,372.8 1632.5,379.5 1646.2,372.8 1655.6,372.8 
											"/>
					<polygon class="st6" points="1657.8,377.5 1646.4,378.5 1621.2,388.8 1621.2,395.6 1666.2,405 1663.2,389.1 					"/>
					<polygon class="st6" points="1716.5,227.1 1726.9,236.9 1716.5,247.7 1729,259.1 1748.5,236.9 1724.9,217.7 					"/>
					<polygon class="st6" points="1728.8,213.3 1760.6,237.3 1760.4,230.5 1800.9,181.2 1786.8,180.2 1769.6,187.6 1753.1,211 
						1736.1,205.1 					"/>
					<polygon class="st6" points="1779.5,149.6 1804.2,169.5 1820.7,150.7 1804.9,139.9 1798.2,148.6 1786.3,140.8 					"/>
					<polygon class="st6" points="1866.8,129.1 1870.7,138.3 1904.4,126.8 1900.5,118.3 					"/>
					<polygon class="st6" points="1788.8,196.5 1808,211 1838,159.3 1825.5,151.3 					"/>
					<polygon class="st6" points="1772.4,216 1798.9,226.6 1798.9,238.4 1760.6,238.4 1760.4,230.5 					"/>
					<polygon class="st6" points="1760.9,247.7 1798.9,247.7 1798.9,263.5 1761.4,263.5 					"/>
					<rect x="1761.6" y="269.4" class="st6" width="37.3" height="8.5"/>
					<rect x="1762.2" y="285.7" class="st6" width="36.8" height="6.6"/>
					<path class="st6" d="M1762.6,299.1c0.8,0,19.3,0,19.3,0v10.8h7.6l-11.1,12.2h-14.9L1762.6,299.1z"/>
					<rect x="597.3" y="258.9" class="st6" width="26.7" height="9.7"/>
					<polygon class="st6" points="594.7,273.6 622,273.6 625.2,281 620.9,293.3 613.3,293.3 611.9,282.8 594.7,281 					"/>
					<rect x="592.9" y="291.9" class="st6" width="12.8" height="12.9"/>
					<rect x="629.6" y="273.6" class="st6" width="28.2" height="14.4"/>
					<rect x="629.6" y="257.4" class="st6" width="9.8" height="10.2"/>
					<rect x="645" y="257.4" class="st6" width="11" height="10.2"/>
					<polygon class="st6" points="624.7,251.6 643.7,251.6 645,235.2 629.1,236.2 					"/>
					<polygon class="st6" points="649.1,235.2 649.1,251.6 660.1,251.6 660.1,234.3 					"/>
					<rect x="663.7" y="246" class="st6" width="27.3" height="6.9"/>
					<polygon class="st6" points="691,241.2 663.7,241.2 663.7,234.3 691,232.4 					"/>
					<rect x="697.1" y="246" class="st6" width="27.3" height="6.9"/>
					<polygon class="st6" points="724.4,241.2 697.1,241.2 697.1,232 724.4,230.1 					"/>
					<rect x="697.1" y="259.1" class="st6" width="27.3" height="6.9"/>
					<rect x="697.1" y="272.2" class="st6" width="27.3" height="6.9"/>
					<rect x="663.7" y="259.1" class="st6" width="27.3" height="6.9"/>
					<rect x="663.7" y="272.2" class="st6" width="27.3" height="6.9"/>
					<rect x="663.7" y="285.3" class="st6" width="27.3" height="13.1"/>
					<rect x="641.5" y="297" class="st6" width="14.4" height="7.8"/>
					<rect x="627" y="314.6" class="st6" width="16.5" height="18.3"/>
					<rect x="666.5" y="321.9" class="st6" width="42.2" height="8.3"/>
					<polygon class="st6" points="728.2,230.1 728.2,241.2 752.5,241.2 777.2,262.5 783.4,278.1 806.8,249.5 818.7,254.1 826,239.4 
						812.1,231.6 805.2,241.7 773.6,241.7 748.8,228.8 					"/>
					<polygon class="st6" points="728.2,246 728.2,264.8 733.4,264.8 733.4,256.1 739.9,256.1 739.9,246 					"/>
					<polygon class="st6" points="745.1,246 745.1,257.4 751.3,257.4 751.3,266 773.8,266 759.5,251.6 748.8,251.6 748.8,246 					
						"/>
					<polygon class="st6" points="727.5,272.2 749,272.2 749,278.1 731.4,278.1 731.4,294.2 705.9,294.2 705.9,288 727.5,288 					
						"/>
					<polygon class="st6" points="783,288 807.5,257.4 840.7,279.1 833.9,288 807.7,272.2 791.4,293.3 					"/>
					<polygon class="st6" points="824.2,253.3 829.5,246 845.1,252.8 838,260.5 					"/>
					<polygon class="st6" points="844.2,269.4 851.1,259.1 873.1,278.1 865.4,286.1 					"/>
					<polygon class="st6" points="838.7,293.3 846.9,283.5 858.6,293.3 851.2,302.7 					"/>
					<polygon class="st6" points="873.1,288 873.1,294.2 896.1,294.2 896.1,283.5 881.1,283.5 881.1,288 					"/>
					<polygon class="st6" points="902.3,288 913.3,288 913.3,293.3 923.7,293.3 923.7,300.9 902.3,300.9 					"/>
					<polygon class="st6" points="870.8,300.9 889.4,300.9 889.4,307.3 870.4,307.3 870.4,311.5 881.1,314.1 876.3,323.8 
						849.5,310.9 849.5,306.6 862.2,306.6 862.2,297 870.8,297 					"/>
					<polygon class="st6" points="837,239.8 858.6,253.5 865.4,243.4 848.8,233.4 					"/>
					<polygon class="st6" points="863,258.7 871.9,264.8 886.4,246.3 871.7,247.2 					"/>
					<polygon class="st6" points="873.1,271.3 884.6,279.1 900.4,255.4 890.5,248.5 					"/>
					<polygon class="st6" points="892.3,278.1 901.3,279.1 914.6,263.2 905.2,257.4 					"/>
					<polygon class="st6" points="910,278.1 910,285.3 935.2,285.3 935.2,276.1 926.2,270.5 					"/>
					<polygon class="st6" points="940.5,285.3 927.4,300.9 937.7,307.3 949.9,291.2 					"/>
					<polygon class="st6" points="942.5,309.1 954.2,294.5 965.5,309.1 951.9,321.9 					"/>
					<polygon class="st6" points="895.1,310.4 900.4,303.8 910,308.2 903.4,316.9 					"/>
					<polygon class="st6" points="881.1,327.4 890.5,314.1 900.4,320.8 890.5,333.4 					"/>
					<polygon class="st6" points="895.1,337.8 902.5,342.8 911.8,328.4 904.5,323.8 					"/>
					<polygon class="st6" points="905.4,349.7 917.8,358.6 927.4,343.8 916.4,336.2 					"/>
					<polygon class="st6" points="921.4,361.5 929.9,366.4 938.6,352.7 932.2,347.4 					"/>
					<polygon class="st6" points="910,318.3 916.4,324.9 930,309.1 923.7,303.8 					"/>
					<polygon class="st6" points="922.6,330.2 942.5,346.7 947.1,340 947.1,323.8 936.6,314.1 					"/>
					<polygon class="st6" points="942.5,360.5 949.9,347.6 965.5,349.9 965.5,363 958.4,372.5 					"/>
					<rect x="951.3" y="333.4" class="st6" width="19.9" height="9.4"/>
					<polygon class="st6" points="955.4,325.9 970.1,314.1 979.2,329.3 					"/>
					<polygon class="st6" points="982.7,336.2 995.5,351.3 989.1,355.4 975.6,345.3 					"/>
					<polygon class="st6" points="972.6,352.7 983.4,360.1 971.2,371.2 					"/>
					<polygon class="st6" points="975.6,374 987.9,364.6 996.7,375.4 982,385.2 					"/>
					<polygon class="st6" points="908.8,391.2 914.6,384.3 913,377.7 908.8,377.7 908.8,372.5 917.5,366.4 949.9,391.2 935.2,407.2 
											"/>
					<polygon class="st6" points="895.1,380.2 900.4,380.2 900.4,372.5 908.8,364.6 902,356.9 895.1,367.3 					"/>
					<polygon class="st6" points="884.6,371.2 889.4,371.2 889.4,361.5 898.5,352.7 884.6,340.3 870.8,342.8 883.6,356.9 					"/>
					<polygon class="st6" points="863,338.1 877.7,338.1 877.7,332 838.7,311.6 840.7,305.4 816.2,288 807,303.8 					"/>
					<polygon class="st6" points="756.1,272.6 773.8,272.6 773.8,288 795.1,302.2 804.7,302.2 804.7,308.2 788.5,308.2 767.6,293.1 
						767.6,278.1 756.1,278.1 					"/>
					<rect x="739.9" y="291.2" class="st6" width="21.8" height="7.1"/>
					<rect x="739.9" y="302.7" class="st6" width="21.8" height="7.1"/>
					<rect x="705.9" y="302.7" class="st6" width="21.8" height="7.1"/>
					<rect x="663.7" y="302.7" class="st6" width="27.3" height="7.1"/>
					<polygon class="st6" points="957.3,381.5 967.1,370.3 967.1,378.3 978.4,391 972.1,395.8 					"/>
					<polygon class="st6" points="940.6,412.1 948.1,404.3 958.4,413.2 947.1,425.3 					"/>
					<polygon class="st6" points="978.9,397 992,385.2 997.6,390.1 990,398.7 998.3,398.7 999,408.9 986.1,408.9 					"/>
					<polygon class="st6" points="1018.4,417.5 1026.8,425.3 1019.6,433.1 1026.8,439.2 1037.7,425.3 1023.6,413.2 					"/>
					<polygon class="st6" points="1007.4,367.3 999,374.1 999,383.7 1006.8,383.7 1006.8,376.8 1014.2,373.4 					"/>
					<polygon class="st6" points="1018.4,380.2 1006.6,390.4 1015.5,399 1028.1,388.6 					"/>
					<polygon class="st6" points="1063.8,404.3 1075.9,404.3 1082.6,418.7 1077.6,426.8 1067,426.8 					"/>
					<rect x="873.1" y="233.4" class="st6" width="13.3" height="10"/>
					<path class="st6" d="M893,246.3c0.2,0,0-7.3,0-7.3h13.5v10.5l-5,4L893,246.3z"/>
					<polygon class="st6" points="908.8,255.4 914.6,241.9 934.9,247.4 945.5,255.6 932,272.2 					"/>
					<polygon class="st6" points="939.1,273.6 952.4,259.1 965.5,268.2 954,283.2 					"/>
					<polygon class="st6" points="960,286.1 971.2,273.8 981.1,288 967.8,297.9 					"/>
					<polygon class="st6" points="972.8,302.2 985.1,294.2 996.4,309.1 982.2,318.3 					"/>
					<polygon class="st6" points="987,321.9 999,314.1 1005.4,321.7 993.2,330.4 					"/>
					<polygon class="st6" points="996.7,333.3 1009.5,324.9 1024.4,345.8 1009.3,352.7 					"/>
					<polygon class="st6" points="1015.2,358.6 1026.7,352.7 1044.6,374 1030.8,380.2 					"/>
					<polygon class="st6" points="1040.7,385.2 1049.2,375.5 1059.5,376.7 1057.4,392.6 					"/>
					<polygon class="st6" points="1074.8,394.6 1074.8,380.2 1085.6,381.5 1090.7,387.4 					"/>
					<polygon class="st6" points="1089.4,426.2 1103,399 1121.2,400.8 1122.8,423.5 1106.9,440.5 					"/>
					<polygon class="st6" points="1038.8,447.3 1055.6,460 1055.6,471.4 1040.7,471.4 1040.7,461.3 1028.1,461.3 1028.1,451.9 					
						"/>
					<polygon class="st6" points="1138.3,413.2 1130.1,422.6 1138.3,428.6 1145,417.2 					"/>
					<polygon class="st6" points="1151.2,423.3 1143.2,432.4 1151.2,439.2 1159,428.6 					"/>
					<polygon class="st6" points="1165.9,432.4 1159,442.8 1173.4,454 1182.9,440.2 					"/>
					<polygon class="st6" points="1187.2,459.2 1178,472.6 1194.1,482.2 1200.9,470.7 					"/>
					<polygon class="st6" points="1197.5,440.5 1191.3,451.9 1208.5,462.7 1225,441.6 					"/>
					<polygon class="st6" points="1242,449.4 1229.1,463.9 1245,476.5 1256.7,458.1 					"/>
					<polygon class="st6" points="1264.2,464.1 1252.8,479.8 1289.7,508.6 1302.3,488.6 					"/>
					<polygon class="st6" points="1308.5,494.4 1295.3,512.5 1322.7,527.6 1335.3,509.9 					"/>
					<polygon class="st6" points="1340.8,515.9 1330.5,535.2 1340.8,544.6 1360.8,543.7 1360.8,521.6 1348.8,522.8 					"/>
					<polygon class="st6" points="1268.2,446.5 1256.7,458.1 1246.3,449.4 1256.7,438.5 					"/>
					<polygon class="st6" points="1265.5,462.1 1275.7,451.6 1285.1,458.1 1273.9,468.4 					"/>
					<polygon class="st6" points="1278.9,471 1288.7,460.5 1299,467.6 1289.9,478.3 					"/>
					<polygon class="st6" points="1293.8,480.8 1302.3,470.7 1313.3,477.4 1305.1,488.3 					"/>
					<polygon class="st6" points="1310.4,491.8 1316.7,479.8 1344.1,479.5 1346.5,492.1 1335.3,507.4 					"/>
					<polygon class="st6" points="1347.9,496.9 1359.8,496.9 1359.8,518.5 1350.7,518.5 1341.8,512.6 					"/>
					<polygon class="st6" points="1349.3,478.6 1349.3,492.5 1360.8,492.5 1360.8,478.3 					"/>
					<polygon class="st6" points="1365.3,478.1 1365.3,489.5 1379.3,489.5 1378.5,477.6 					"/>
					<rect x="1365.3" y="496" class="st6" width="12.6" height="18.8"/>
					<polygon class="st6" points="1384.4,494.4 1386,504 1395.4,502.8 1416.5,476.5 1400.4,476.8 					"/>
					<path class="st6" d="M1287.6,449.4c0.7,0.2,35.1-1.5,35.1-1.5v26.9h-5.7l-31.9-23.3L1287.6,449.4z"/>
					<polygon class="st6" points="1365.3,448.3 1389.6,445.4 1391.5,460.5 1366.9,462.9 					"/>
					<polygon class="st6" points="1398.8,445.4 1420.1,443.9 1403.6,460.5 1397.9,460 					"/>
					<polygon class="st6" points="1415.2,462.9 1432.5,443.9 1440.8,443.9 1443.5,454.2 1418.8,466.6 					"/>
					<polygon class="st6" points="1447.2,441.6 1465.3,434.1 1469.9,445.4 1449.5,454.2 					"/>
					<polygon class="st6" points="1469.9,432.9 1494.9,423.7 1500.2,437.5 1475.2,445.4 					"/>
					<polygon class="st6" points="1420.8,476.1 1449.3,460.5 1455.4,472.6 1431.6,490.2 1423.1,490.2 					"/>
					<polygon class="st6" points="1453.7,458.1 1460.3,470.7 1466.9,470.7 1469,451.2 1465.8,451.5 					"/>
					<polygon class="st6" points="1477.5,450.5 1477.5,459.2 1488.7,459.2 1497.3,453.4 1494.2,449.1 					"/>
					<polygon class="st6" points="1505.2,464.1 1491.4,485.4 1502.5,490.2 1510,470.7 					"/>
					<polygon class="st6" points="1418.1,494.4 1431.6,494.4 1433.4,503.1 1418.1,505.4 					"/>
					<polygon class="st6" points="1506.6,417.2 1506.6,430.8 1532,430.4 1533.6,407.5 					"/>
					<polygon class="st6" points="1510,435.7 1510,444.2 1527.9,443.9 1527.9,434.1 					"/>
					<rect x="1518.7" y="449.1" class="st6" width="11" height="15"/>
					<polygon class="st6" points="1541.5,407.5 1541.5,423.7 1550.3,423.7 1550.3,417.2 1566.7,412 1566.7,400.8 					"/>
					<polygon class="st6" points="1541.5,429.7 1541.5,439.1 1548.6,439.1 1548.6,435.1 1561.6,435.1 1561.6,423.7 1552.9,423.7 
						1552.9,429.7 					"/>
					<polygon class="st6" points="1538.7,445.4 1538.7,457.7 1551.6,457.7 1559.5,454.1 1558.6,440.5 1550.3,440.5 1550.3,445.4 
											"/>
					<polygon class="st6" points="1575.4,397.4 1583,395.8 1584.3,405 1574.7,407.5 					"/>
					<rect x="1566.7" y="423.7" class="st6" width="11.7" height="12.6"/>
					<polygon class="st6" points="1564,441.6 1564,447.6 1577.2,447.6 1577.2,440.5 					"/>
					<polygon class="st6" points="1579.5,413.2 1586.4,410.9 1599.4,441.6 1587.3,440.5 					"/>
					<rect x="1591.2" y="399.2" class="st6" width="9.2" height="14"/>
					<rect x="1605.6" y="414.1" class="st6" width="6.6" height="8.3"/>
					<polygon class="st6" points="1603.3,399.2 1636.1,428.6 1638.4,418.7 1609,395.8 					"/>
					<polygon class="st6" points="1623.7,399.2 1658.1,422.4 1671.7,410.9 					"/>
					<polygon class="st6" points="1649.7,439.1 1666.2,455.1 1681.8,436.2 1692.1,437.5 1698.9,428.6 1678.8,412.2 					"/>
					<polygon class="st6" points="1747.8,428.6 1768.6,415.5 1777.6,403.8 1806.9,449.1 					"/>
					<rect x="1801.2" y="469.8" class="st6" width="19.7" height="16"/>
					<polygon class="st6" points="1622.6,571.9 1632.9,567.5 1650.3,603.3 1649,631.5 1628.3,620.5 1632.5,592.5 					"/>
					<polygon class="st6" points="1595.8,642.9 1617.3,631.5 1622.6,640.9 1600.6,652.1 					"/>
					<polygon class="st6" points="1603.3,655.8 1624.9,644.3 1630.2,653.7 1608.2,664.9 					"/>
					<polygon class="st6" points="1611.4,668.8 1632.9,657.4 1638.2,666.8 1616.2,678 					"/>
					<polygon class="st6" points="1619.4,681.9 1640.9,670.4 1646.2,679.8 1624.2,691.1 					"/>
					<path class="st6" d="M1590,649.4l14.9,28.7c0,0-16.3,6-16.3,5.3C1588.7,682.6,1590,649.4,1590,649.4z"/>
					<polygon class="st6" points="1639.3,642.7 1670.5,686 1679.7,678 1649.2,637 					"/>
					<polygon class="st6" points="1639.3,702.5 1648.3,713.8 1669.8,713.8 1669.8,724.1 1645.8,724.1 1631.3,706.4 					"/>
					<polygon class="st6" points="1665.7,692.9 1665.7,701.6 1677.6,701.6 1677.6,693.6 					"/>
					<rect x="1696.7" y="637" class="st6" width="9.4" height="7.3"/>
					<rect x="1645.8" y="532.6" class="st6" width="13.8" height="10.1"/>
					<rect x="1597.5" y="478.8" class="st6" width="13.9" height="10.5"/>
					<rect x="1541.6" y="500.1" class="st6" width="13.9" height="10.5"/>
					<rect x="1473.5" y="510.6" class="st6" width="19.7" height="10.5"/>
					<rect x="1370.5" y="565.4" class="st6" width="15.1" height="8.1"/>
					<rect x="1404.6" y="559.4" class="st6" width="11.9" height="8.1"/>
					<rect x="1419.8" y="542.6" class="st6" width="9" height="8.1"/>
					<rect x="1342" y="563.5" class="st6" width="9" height="8.1"/>
					<rect x="1335.2" y="550" class="st6" width="9" height="8.1"/>
					<rect x="1284.5" y="598.6" class="st6" width="9" height="8.1"/>
					<rect x="1245.4" y="616.1" class="st6" width="9" height="16.2"/>
					<rect x="1252.2" y="635.8" class="st6" width="9" height="8.1"/>
					<rect x="1270.8" y="653.5" class="st6" width="9" height="8.1"/>
					<rect x="1224.6" y="645.2" class="st6" width="9" height="8.1"/>
					<rect x="1169.9" y="563.5" class="st6" width="9" height="8.1"/>
					<rect x="1112.1" y="561.3" class="st6" width="9" height="8.1"/>
					<rect x="1083.9" y="556.3" class="st6" width="9" height="8.1"/>
					<rect x="1092.9" y="510.7" class="st6" width="9" height="8.1"/>
					<rect x="1058" y="503.4" class="st6" width="9" height="8.1"/>
					<rect x="1027.1" y="606.7" class="st6" width="9" height="8.1"/>
					<rect x="1010.9" y="606.7" class="st6" width="9" height="8.1"/>
					<rect x="991.3" y="606.7" class="st6" width="9" height="8.1"/>
					<rect x="1112.1" y="503.6" class="st6" width="9" height="8.1"/>
					<rect x="1130.4" y="490.3" class="st6" width="9" height="8.1"/>
					<rect x="1134.9" y="472.4" class="st6" width="9" height="8.1"/>
					<polygon class="st6" points="1198.5,523.5 1189.5,525.9 1189.5,499.6 1198.5,499.6 					"/>
					<rect x="1227.3" y="542.6" class="st6" width="9" height="8.1"/>
					<rect x="1175.7" y="620.1" class="st6" width="9" height="8.1"/>
					<rect x="1233.6" y="680.1" class="st6" width="9" height="8.1"/>
					<rect x="1588" y="467.3" class="st6" width="8.6" height="7.3"/>
					<rect x="1615.2" y="469.9" class="st6" width="10.4" height="6.6"/>
					<rect x="1645.8" y="459.2" class="st6" width="11.2" height="10"/>
					<rect x="1670.7" y="454.1" class="st6" width="12.1" height="8.6"/>
					<rect x="1705.1" y="459.2" class="st6" width="9.5" height="7.4"/>
					<rect x="1703.2" y="427.7" class="st6" width="9.5" height="13.9"/>
					<rect x="1719.6" y="468.4" class="st6" width="9.2" height="9.2"/>
					<rect x="1674.2" y="522.3" class="st6" width="11.5" height="9.5"/>
					<rect x="1690.2" y="519.4" class="st6" width="15.7" height="11.8"/>
					
						<rect x="1717.7" y="513.4" transform="matrix(0.7421 -0.6703 0.6703 0.7421 98.1852 1293.8842)" class="st6" width="25.5" height="11.9"/>
					
						<rect x="1717.2" y="446.8" transform="matrix(0.7421 -0.6703 0.6703 0.7421 142.9023 1272.7109)" class="st6" width="16.4" height="7.6"/>
					<rect x="1841.4" y="191.7" class="st6" width="7" height="7"/>
					<polygon class="st6" points="1924,154.8 1914,158.9 1906.1,139.9 1916.6,136.8 					"/>
					<rect x="2093.9" y="158.9" class="st6" width="22.9" height="8.3"/>
					<rect x="2049.3" y="141.6" class="st6" width="9.8" height="7.6"/>
					<rect x="1994.3" y="149.2" class="st6" width="9.7" height="9.7"/>
					<polygon class="st6" points="2216.7,214.6 2216.7,225.6 2196,225.6 2196,238.8 2237.3,238.8 2237.3,229.6 2237.3,225.6 
						2237.3,214.6 					"/>
					<polygon class="st6" points="2161.8,202.2 2172.6,202.2 2183.2,202.2 2183.2,217.1 2189.2,223 2189.2,241.2 2176.5,251.3 					
						"/>
					<polygon class="st6" points="2288.1,221 2282.6,221 2282.6,213.3 2270,213.3 2270,245.8 2255,245.8 2255,236.6 2242.8,236.6 
						2242.8,264.2 2255,264.2 2255,255.6 2282.6,255.6 2282.6,253.5 2282.6,245.8 2282.6,240 2288.1,240 					"/>
					<polygon class="st6" points="2332.7,230.5 2323.8,230.5 2323.8,213.3 2304.6,213.3 2304.6,230.5 2293.6,230.5 2293.6,243.1 
						2304.6,243.1 2304.6,248.9 2323.8,248.9 2323.8,243.1 2332.7,243.1 					"/>
					<polygon class="st6" points="2206.4,235.7 2206.4,255.3 2180.2,255.3 2190.8,266.6 2216.7,266.6 2216.7,264.2 2216.7,255.3 
						2216.7,235.7 					"/>
					<rect x="2329.6" y="213.3" class="st6" width="12.2" height="5.3"/>
					<rect x="2347.4" y="211.6" class="st6" width="12.1" height="12.1"/>
					<rect x="2369.7" y="219.8" class="st6" width="10.7" height="5.2"/>
					<rect x="2389.9" y="214.6" class="st6" width="9.8" height="7.8"/>
					<polygon class="st6" points="2335.7,277.3 2321.7,270 2321.7,255.9 2335.7,255.9 					"/>
					<g>
						
							<rect x="2400.3" y="300.1" transform="matrix(0.7794 -0.6265 0.6265 0.7794 340.806 1576.076)" class="st6" width="16.5" height="7.9"/>
						
							<rect x="2407.8" y="309.4" transform="matrix(0.7794 -0.6265 0.6265 0.7794 336.6317 1582.8059)" class="st6" width="16.5" height="7.9"/>
						
							<rect x="2415.2" y="318.7" transform="matrix(0.7794 -0.6265 0.6265 0.7794 332.4575 1589.5358)" class="st6" width="16.5" height="7.9"/>
						
							<rect x="2422.7" y="328" transform="matrix(0.7794 -0.6265 0.6265 0.7794 328.2756 1596.2529)" class="st6" width="16.5" height="7.9"/>
					</g>
					<polygon class="st6" points="2375,284.3 2412.7,284.3 2405.1,274.7 2369.1,277.3 					"/>
					<polygon class="st6" points="2429,347.9 2438.2,342.4 2449.2,356.5 2463.8,356.5 2476.7,367.8 2485.7,370 2482.5,382.5 
						2446.7,368.7 					"/>
					<polygon class="st6" points="2500.1,393.4 2509.1,387.4 2537.2,426.2 2528.3,440.2 					"/>
					<polygon class="st6" points="2540.9,448 2546.4,437.8 2560.7,442.9 2557.7,458.4 					"/>
					<polygon class="st6" points="2557.7,458.4 2572.4,458.4 2572.4,450 2583.4,450 2583.4,437.8 2565.6,430.4 2570.7,425.1 
						2585.8,430.6 2594.5,416.9 2588.6,399.9 2598.4,399.9 2609.4,374.5 2625.5,374.5 2605.4,417.3 2620.4,440.6 2596.8,468.4 
						2573.6,468.4 					"/>
					<polygon class="st6" points="2621.6,358 2641.5,358 2641.5,377.3 2633.5,377.3 2626.8,393.2 2636.3,393.2 2636.3,402.9 
						2627.4,402.9 2627.4,427.4 2646.3,449.4 2636.3,458.4 2620.4,440.6 2605.4,417.3 2625.5,374.5 					"/>
					<rect x="2659.8" y="384.3" class="st6" width="6.4" height="6.4"/>
					<rect x="2654.6" y="399.6" class="st6" width="10.1" height="12.2"/>
					<polygon class="st6" points="830.6,349.7 820.6,371.2 852,383.8 867.6,411.8 902,430.9 900.4,402.6 881.3,396.2 869.9,370.1 
											"/>
					<rect x="851.1" y="588.4" class="st6" width="23.1" height="26.4"/>
					<rect x="1104.6" y="530.2" class="st6" width="18.1" height="8.4"/>
					<rect x="1069.5" y="455.8" class="st6" width="9.2" height="12.5"/>
					<rect x="1097.4" y="460.5" class="st6" width="10.9" height="10.9"/>
					<rect x="962.3" y="451.6" class="st6" width="12.5" height="12.5"/>
					<polygon class="st6" points="308.9,347.9 311.6,356.5 337,347.9 334.6,339.4 					"/>
					<polygon class="st6" points="341.9,337.2 353.5,334.5 359.6,349.4 348.3,354.6 					"/>
					<polygon class="st6" points="363,336.6 381.3,330.2 387.4,344.6 367.9,351.3 					"/>
					<polygon class="st6" points="387.4,330.2 403,325 409.8,339.4 392.6,344.6 					"/>
					<polygon class="st6" points="294.2,334.5 330.9,322.5 335.8,334.5 299.2,345.3 					"/>
					<polygon class="st6" points="339.8,320.4 350.8,317 354.4,328.5 343.3,332.6 					"/>
					<polygon class="st6" points="359.6,315.7 377.5,310.6 382.2,322.5 363.6,328.4 					"/>
					<polygon class="st6" points="383.2,309.7 398.6,304.8 403.2,315.2 387.4,320.6 					"/>
					<polygon class="st6" points="335.8,304.4 347.1,301.1 349.7,311.7 338.4,314.6 					"/>
					<polygon class="st6" points="354.4,299.9 372.6,295.5 376.7,305.6 358.4,310.6 					"/>
					<polygon class="st6" points="378.6,294.6 394.3,290.4 397.4,301.1 381.5,304.8 					"/>
					<polygon class="st6" points="357.2,359.1 385.6,353.9 386.5,365 358.4,370.8 					"/>
					<polygon class="st6" points="394.9,351.3 411.4,350.1 412.4,361.4 394.9,363.2 					"/>
					<polygon class="st6" points="410.5,309.1 417.1,304.8 424.3,313.5 412.4,321.8 410.5,320.6 					"/>
					<polygon class="st6" points="425.8,299.3 444.9,284.5 453.2,293.2 432.1,309.6 					"/>
					<polygon class="st6" points="412.4,327.3 427.2,317.8 454.1,345.3 447.2,351.3 427.5,331.4 414.7,334.8 					"/>
					<polygon class="st6" points="436.1,313.3 456.8,297 475.6,314.6 473.7,332.6 461.4,342.9 					"/>
					<polygon class="st6" points="449.8,281.1 457.3,290.4 468.3,279.6 459.1,271.6 					"/>
					<polygon class="st6" points="464.9,266.9 474,273.6 488.9,243.8 476.9,241.2 					"/>
					<polygon class="st6" points="485.7,268.6 493.7,274.7 487.1,282.8 479.6,277.1 					"/>
					<polygon class="st6" points="470.4,295.5 475.6,290.4 482.8,297 475.6,304.2 471.2,301.1 					"/>
					<polygon class="st6" points="484,233.7 534.9,246 536.5,233.7 530.2,230.1 496.1,224.3 485.4,228.8 					"/>
					<polygon class="st6" points="495.2,248 535.1,253.9 535.1,266.3 548.2,267.7 548.2,276.8 518.3,272.6 518,258.3 493.7,256.1 
											"/>
					<polygon class="st6" points="547.3,237.7 568.3,237.7 568.3,249.8 547.3,248.9 					"/>
					<polygon class="st6" points="546.3,252.8 560.3,254.1 560.3,259.4 572.2,259.4 572.2,269.2 581.9,268.6 581.1,282.8 575,288 
						558.6,282.8 560.2,267.5 545.5,265.4 					"/>
					<polygon class="st6" points="573.8,237.1 613.7,225.2 620.9,241.2 581.9,256.1 					"/>
					<polygon class="st6" points="619.8,223.3 631.4,219.5 636.4,230.4 623.8,235.1 					"/>
					<polygon class="st6" points="639.4,217.5 658.8,211.1 658.8,226.7 641,228.8 					"/>
					<rect x="664.9" y="209.9" class="st6" width="27.4" height="16.5"/>
					<rect x="699.3" y="209.9" class="st6" width="22.9" height="14.4"/>
					<polygon class="st6" points="731.4,209.9 745.1,209.9 745.1,224.3 731.4,223.1 					"/>
					<polygon class="st6" points="536.5,222.7 558.7,215.5 565.8,226.4 563.7,230.2 544.3,231.4 					"/>
					<polygon class="st6" points="565.8,214.2 583.5,208.4 583.5,222.2 570.6,227.3 					"/>
					<polygon class="st6" points="589.2,207.1 608,200 608,215.5 589.2,222 					"/>
					<polygon class="st6" points="614.7,198.1 625.2,194.7 624.3,209.9 614.7,213.3 					"/>
					<polygon class="st6" points="631.2,193.3 642.2,188.5 658.8,188.5 658.8,200 646.8,201.3 631.2,208.4 					"/>
					<polygon class="st6" points="664.9,188.5 691,188.5 691,200 665.8,200 					"/>
					<rect x="700.2" y="188.5" class="st6" width="26.1" height="10"/>
					<rect x="731.4" y="187.6" class="st6" width="12.4" height="10.9"/>
					<rect x="750.2" y="187.6" class="st6" width="15.8" height="12.4"/>
					<rect x="773.8" y="190.8" class="st6" width="23.4" height="11.5"/>
					<polygon class="st6" points="750.2,224.3 753.6,209.9 763.9,218.1 762.3,228.8 					"/>
					<polygon class="st6" points="766,209.9 793.3,209.9 793.3,217.1 785.5,221.3 771.7,221.3 766,215.6 					"/>
					<polygon class="st6" points="768.7,225.2 790.1,225.2 797.2,221.3 804.7,228.8 803.1,236.4 794.9,238.9 775.2,238.9 
						767.6,231.4 					"/>
					<polygon class="st6" points="802,209.9 809.8,209.9 822.2,200 846.2,208.4 844.6,223.5 832.9,217.1 829.7,220 843,230.1 
						835.9,236.2 813.2,225.2 806.1,225.2 799.9,217.1 					"/>
					<polygon class="st6" points="849.5,226.4 852.4,211 870.4,215.5 862.1,233.9 					"/>
					<polygon class="st6" points="881.1,218.1 890.5,219.4 890.5,227.5 881.1,226.4 					"/>
					<rect x="905.4" y="221.3" class="st6" width="9.2" height="10.1"/>
					<polygon class="st6" points="921.2,225.4 935.2,226.4 933.8,237.3 919.6,236.2 					"/>
				</g>
				<g>
					<g>
						<path class="st7" d="M2724.3,554.3l7.6,17.4l-4.9,17.1h-13.1l-59.9-85l0.3-34.2l7.9-35.5l21.4-20.5h39.1v-25.1l-33.9-47.7
							v-17.7l-8.6,23.8h-22.9l-18.6-16.2h-11.6l-5.5,6.4V358l5.5,13.1l-21.7,46.2l15,23.2l-23.5,27.8h-23.2c0,0-44.3-27.8-45.2-28.1
							c-0.9-0.3-31.5-52.3-31.5-52.3l-50.1-19.3l-77.7-91.4h-33.3l-28.7-15h-27.5l-17.1,21.7H2207l-30.6-32.7L2141,133l-54.1-24.5
							l-36.1,3.7l-50.7,19.9h-67.3l-94.8,27.2l-12.5-7.9l-65.1,79.2l3.7,115.3l-85.9,61.8l-49.2,47.4l-38.8-11l-57.2,24.8h-14.7
							l-22,40.4l-52.3-4.6l-51.1,14.1h-42.2l-118.3-78.3h-49.5l-59.6-42.2l-24.2-3.4l-13.1-16.8l-39.7-7.9l-68.8-98.1l-40.7-28.7
							l-37.3-9.2v-19l-23.2-3.4l-55.3-17.7l-14.4,11.6H664.7L569,234.8h-26l-11.3-8.6l-37-6.4l-15.3,7.6l-21.7,37l-52,41.6v16.5
							l-86.2,16.5l-127.8,39.1l-20.2,14.7l-13.5,43.4v46.5l19.6,33.6v18.3l53.3,46.8H265l34.9-6.9l67.9-25.2l8.7,15.6L329.2,614
							v23.8l26.6,21.6l-9.6,26.6l24.8,11.5l18.8,27.5l-14.2,38.5l11.9,18.8"/>
						<path class="st7" d="M177.7,516.4l60.5,44l31.8-4.9h37.3l41-31.2l39.7-12.2l28.7-28.1l48.9-41.6L453.5,402l31.8-60.5l-6.1-19
							l33-34.5l50.1,19.3l25.1-28.1l3.7-27.5h33.6l4.4-15.4l119.7-7.3l24.8,12.8h31.6l6.9-10.1l19.7,11l17-9.2l22.9,13.8l14.7-0.9
							c4.6,1.8,69.2,42.6,69.2,42.6l75.7,98.1l34.4,11l29.5-8.5"/>
						<polyline class="st7" points="416.8,484 442.5,573.8 429.6,627.6 408.2,661.9 389.3,675.3 384,716.6 						"/>
						<polyline class="st7" points="389.7,725 434.5,672.3 448.6,704.1 451.6,759.1 479.8,770.7 492,806.2 504.2,830 500.6,867.3 
							511.6,893.6 522.6,953.5 551.3,960.9 573.3,985.3 615,1004.2 						"/>
						<polyline class="st7" points="1268.8,1481.2 1322,1391.3 1309.2,1379.4 1242.2,1379.4 1213.8,1357.4 1213.8,1299.6 
							1191.8,1249.2 1231.2,1216.1 1357.8,1158.4 1441.4,1141.3 						"/>
						<line class="st7" x1="1316.6" y1="1489.4" x2="1284.5" y2="1454.7"/>
						<polyline class="st7" points="1377,1096.9 1478.8,1037.3 1519.2,1044.6 1549.5,1037.3 1610,1053.8 1631.1,1020.8 1654,1008.9 
							1696.2,953.8 1733.8,930 1775.1,895.1 						"/>
						<polyline class="st7" points="1434.2,1128.4 1456.8,1128.4 1471.5,1141.3 1488,1141.3 1496.2,1111.6 1547.7,1080.6 						"/>
						<polyline class="st7" points="1480.7,1191.4 1487.1,1163.8 1511.9,1163.8 1528.4,1133.6 1528.4,1115.3 1555.9,1115.3 
							1560.5,1090.5 						"/>
						<polyline class="st7" points="1527,1042.8 1527,1063.9 1576,1103.3 1599.9,1140.9 1605.4,1167.5 1612.3,1172.1 1635.2,1158.8 
							1653.1,1174.4 1660.7,1207.5 						"/>
						<polyline class="st7" points="1732.9,1414.5 1698.9,1345.5 1711.8,1287.7 1740.2,1268.9 1740.2,1240.4 1765.4,1207.5 
							1754,1181.3 1775.1,1145.1 1775.1,1115.7 1754,1072.2 1760.4,1051.1 1786.5,1057.5 1794.8,1045.1 1787.9,1025.4 
							1803.5,1005.2 1793.9,969.9 1797.5,944.2 1775.1,936.9 1775.1,913.5 1775.1,885.1 1743,821.3 1668.2,793.8 1614.6,775 
							1596.2,745.7 1588.9,725.9 1527.4,717.7 1512.3,738.3 1499.9,742.9 1489.4,734.6 1489.4,723.6 1476.1,717.7 1476.1,696.6 
							1434.8,662.2 1425.6,648 1425.6,624.1 1411.4,624.1 1397.7,632.8 1372.4,640.6 1372.4,658.1 1360.1,665.9 1303.7,678.2 
							1247.3,707.1 						"/>
						<polyline class="st7" points="1287.8,686.4 1280.3,747.9 1317.9,778.2 1322,798.8 						"/>
						<polyline class="st7" points="1295.3,682.5 1265.1,599.8 1240.8,593.9 1233,602.6 1233,626 1187.2,646.6 1079.9,708 
							1054.7,705.3 1026.2,700.3 994.6,736.5 1000.5,755.7 994.6,772.2 955.6,785.5 943.7,771.8 964.3,747 957.9,720.9 919.9,722.8 
							911.6,723.2 901.5,738.3 901.5,757.6 874.9,785.5 859.8,849.7 834.5,872.2 811.2,851.1 801.1,817.6 811.2,789.2 839.1,773.6 
							860.2,737.9 902.4,705.3 887.3,680.1 885,645.2 851.1,615 851.1,588.4 873.1,588.4 934.5,624.1 963.9,617.3 999.6,591.1 
							1034.9,586.1 1068.4,600.3 1106,601.2 1106,624.1 1116.1,635.6 1079.4,676.9 1048.2,683.3 1009.3,667.7 987.7,677.8 
							944.1,667.7 905.1,696.8 919.9,722.8 						"/>
						<polyline class="st7" points="734.6,349 744.2,371 697,371 643.8,383.8 616.3,399 603.9,388.9 616.7,370.5 665.8,356.3 
							702.9,341.7 744.2,331.1 770.3,318.3 812.5,340.3 869.9,370.1 881.3,396.2 910.7,406 927.2,406 931.8,426.5 922.6,443 
							961.1,443 967.1,485.6 972.6,502.6 1048.2,529.2 1048.2,546.6 1011.1,546.6 957.9,538.4 924.9,537.5 915.7,525.5 918,513.2 
													"/>
						<polyline class="st7" points="697.2,343.6 743.8,350.8 769.4,336.2 794.2,357.7 852,383.8 867.6,411.8 904.7,432.4 
							907.9,449.9 896.9,461.8 907.9,478.3 932.7,468.7 937.7,490.2 						"/>
						<polyline class="st7" points="967.1,485.6 1016.6,456.8 1082.2,428.8 1099.1,394.7 						"/>
						<polyline class="st7" points="978.9,478.7 991.8,490.2 1109.7,496.6 1123,478.7 1128.5,461.3 1147.3,461.3 1154.2,485.6 
							1171.6,494.4 1185.8,526.9 1206,521.4 1213.8,494.1 1259.6,516.4 1310.1,523.2 1336.7,546.6 1363.7,546.6 1363.7,518.5 						
							"/>
						<line class="st7" x1="865.4" y1="243.4" x2="876.3" y2="211.6"/>
						<line class="st7" x1="870.4" y1="228.8" x2="899.5" y2="233.9"/>
						<polyline class="st7" points="1244,447.9 1256.7,438.5 1316.7,479.8 1420.8,476.1 1465.8,451.5 1494.2,449.1 1514.8,477.2 
													"/>
						<path class="st7" d="M1265.5,446l173-5.8l150.4-51.7l89.3,19.1c0,0,20.8,18,22.2,18c1.4,0,26.6-0.5,26.6-0.5l109.6,39
							l10.5,17.9l-23.4,17.9h-13.3l-27.5-26.1l-23.8-7.8l11.9,36.2l11,20.6l-12.4,30.3l13.8,30.3l-10.1,24.6l-24.8,16.2l-16.5,27.5
							l11.5,40.4l-0.9,37.1l12.4,39.4l-3.2,18.8l-13.3,6.4l-29.8-11.5h-50.4l-34.4-11l-12.8-20.2l-2.8-33.9l-39.4-17.4l-13.3-32.1
							l-30-24.8l-14.4,19.7l-26.6-38.5l-10.5-28.4l-6.4-18.8l-15.6-30.3l5.2-41"/>
						<polyline class="st7" points="1428.8,440.5 1380.4,494.4 1383.5,518.5 						"/>
						<polyline class="st7" points="1496.3,509 1521.9,586.1 1588.4,639.7 1623.7,621.8 1627,591.1 1561.6,456.3 						"/>
						<line class="st7" x1="1623.7" y1="621.8" x2="1645.8" y2="637"/>
						<path class="st7" d="M1736.6,428.6c1.1,0.4,26.5-15.8,26.5-15.8l11.5-19.7l-5-39.9l-10-4.1"/>
						<polyline class="st7" points="1769.6,353.1 1783.3,353.1 1804,336.2 1818.2,302.7 						"/>
						<polyline class="st7" points="1763.8,338 1798.9,299.5 1798.9,226.6 1838,159.3 						"/>
						<polyline class="st7" points="2573.6,468.4 2612.9,490.7 2633,536.5 2660.6,570.5 2662.9,637 2647.7,668.2 2643.6,719.5 
							2608.7,786 2567.9,818.6 2540.9,818.6 2516.6,791.5 2502.8,795.2 2507.4,905.2 2553.3,917.2 2558,927.2 2539.7,1008.6 
							2493.2,1073.4 2467.5,1075.2 2455.9,1127.8 2436.9,1149.8 2418.6,1144.3 2403.9,1150.4 2403.3,1181.3 2399,1210.9 
							2421,1242.7 2427.8,1292.9 2413.7,1330.8 2413.7,1393.1 2436.9,1424.3 2436.9,1476.3 2403.9,1563.7 2383.7,1576 
							2351.9,1560.1 2333.6,1560.1 2333.6,1594.3 2321.4,1629.8 2255.3,1687.2 2212.5,1687.2 2197.9,1705.6 2175.9,1705.6 
							2163,1679.3 2143.5,1679.3 2132.4,1719.6 2082.9,1719.6 2057.9,1687.2 2025.4,1687.2 1973.5,1604.1 1931.3,1564.3 
							1931.3,1525.8 1958.8,1476.3 1930.1,1433.5 1930.1,1391.9 1952.7,1368.7 1944.7,1355.9 1912.9,1371.7 1872.6,1380.9 
							1856.1,1361.4 1790,1361.4 1790,1385.8 1765.6,1414.5 1722.2,1414.5 1669,1358.9 1656.1,1314.3 1681.8,1269 1681.8,1231.1 
							1651.3,1196.9 1633.5,1196.9 1573.6,1196.9 1549.8,1207.9 1502.7,1207.9 1461.1,1176.7 1434.2,1128.4 1356.6,1085.6 
							1287.5,1089.3 1203.1,1134.5 1117.5,1131.5 1015.4,1159.6 992.8,1159.6 984.2,1145.5 981.1,1113.7 934.7,1099.1 924.3,1121.1 
							898.6,1130.8 802.6,1096.6 779.4,1107 712.1,1113.7 679.7,1108.8 637.5,1036.1 608.2,994.5 591,966.4 599.6,954.8 
							596.6,938.9 582.5,927.2 566.6,866.1 548.2,816.6 511,773.2 493.2,708.4 454.7,675.3 437,633.8 434.3,607.9 						"/>
						<polyline class="st7" points="2558,927.2 2594.1,937.3 2612.9,963 2605.1,1103.8 2618.8,1126.3 2666.1,1137.3 2685.3,1157 
							2728.9,1251 2758.7,1246.9 2778,1279.4 2766,1315.7 2778,1354.2 2778,1410.6 2826.1,1494 2826.1,1532.6 2809.1,1574.3 
							2809.1,1622 2826.1,1655 2826.1,1678.4 2835.7,1689.4 2850.4,1709.6 2898.6,1731.1 2901.8,1768.7 2891.7,1800.8 
							2906.8,1855.5 						"/>
						<polyline class="st7" points="2898.6,1731.1 2901.6,1677.5 2957.3,1621.2 2960.9,1605.3 2946.9,1589.4 2970.1,1539.9 
							2979.9,1459.8 2994.6,1366.9 2946.6,1281.3 2936.5,1221.9 						"/>
						<polyline class="st7" points="2994.6,1366.9 3005.6,1498.3 3034.9,1547.8 3073.4,1572.3 						"/>
						<polyline class="st7" points="2603.3,949.9 2680.3,938.2 2722.5,905.2 2773.2,886.9 2795.8,842.9 2843.5,827 2888.2,800.7 
							2946.6,804.3 2973.8,830.6 2982.9,881.4 3011.1,894.8 3028.2,919.3 3048.4,927.2 3100.9,942.5 3119.3,996.3 3108.9,1047.1 
							3110.1,1090.5 						"/>
						<polyline class="st7" points="3100.9,942.5 3119.3,927.2 3119.3,841 3124.2,778.1 3106.4,775 3096.7,817.2 						"/>
						<polyline class="st7" points="1790,1361.4 1888.5,1414.5 1924.6,1495.3 1910.5,1535 1911.1,1585.7 1873.8,1610.8 1889.7,1694 
							1886.7,1709.3 1865.4,1705 						"/>
						<polyline class="st7" points="1888.5,1414.5 1930.1,1391.9 1912.9,1371.7 						"/>
						<polyline class="st7" points="2025.4,1687.2 2036.5,1712.3 1994.3,1747.8 1984.5,1768.6 1995.5,1805.2 2030.3,1835.8 
							2038.9,1855.5 						"/>
						<polyline class="st7" points="2238.8,1687.2 2184.4,1749.6 2184.4,1774.1 2200.9,1785.1 2205.2,1829.1 2218,1855.5 						"/>
						<path class="st7" d="M2233.9,1071.5c0,2.4,0,35,0,35l56.9,119.7l3.7,21.4l26.9,13.5l4.3,23.2l-4.9,20.2l33,9.8l15.3,15.9
							l44.6,0.6"/>
					</g>
					<g>
						<path class="st7" d="M537.2,810.7c-1.1,0-2.2-0.3-3.3-0.8c-3.4-1.8-4.6-6-2.8-9.4l36.6-67.5c0.7-1.3,1.9-2.4,3.2-3l60.1-27
							c1-0.5,2.2-0.7,3.3-0.6l44.8,3.3l71.8-21.6c0.7-0.2,1.4-0.3,2.2-0.3l94.1,2.8l15.3-22.6l-18.2-46.7c-1.4-3.6,0.4-7.6,3.9-8.9
							c3.6-1.4,7.6,0.4,8.9,3.9l19.5,50.1c0.8,2.1,0.6,4.5-0.7,6.4l-19.5,28.8c-1.3,2-3.6,3.1-5.9,3l-96.8-2.9l-72,21.6
							c-0.8,0.2-1.7,0.3-2.5,0.3l-44.3-3.2l-56.4,25.3L543.3,807C542,809.3,539.7,810.7,537.2,810.7z"/>
					</g>
				</g>
				<g class="st8">
					<polyline class="st7" points="2159.1,323.8 2163.3,361.5 2151,397.6 2151,421.9 2132.4,418.3 2127.9,437.7 2139.7,464.6 
						2132.7,479 2111.1,488.5 2104,506.2 2139.7,563 2143.9,590.5 2145.3,636.9 2188.6,711.9 2191.2,725.4 2219.5,738.6 
						2220.7,777.9 2209.4,790.9 2196,832.3 2196,870.5 2196,917.2 2172.6,917.2 2172.6,930 2151.1,939.2 					"/>
					<polyline class="st7" points="2196,870.5 2379.1,934.2 2411.5,930.2 2454.4,910.5 					"/>
					<polyline class="st7" points="2213.9,999.4 2202.7,964 2134.1,931.1 2101.2,916.5 2077.9,916.5 2019.2,879.1 1964.1,893.1 
						1942.2,885.8 1898.1,908.6 1860.4,907.5 1842.4,920.4 1780.3,910.3 					"/>
					<polyline class="st7" points="1768.8,895.4 1709.4,890.6 1682,912.8 1651.4,912.8 1611.2,897.4 1570.2,890.6 1533.9,868.4 
						1496.5,799.9 1455.4,709.9 1413.7,697 1365.3,704.4 1339.7,701 					"/>
				</g>
			</g>
			<path class="st5" d="M3219.6,1544.9l-15.1,13.3h-40.4l-22.9,11.9l-19.3-12.8h-24.3l-8.3-8.3h-15.1l-17.4-20.2l21.1-34.9v-22
				l20.6-19.3v-16l-17-12.4v-19.3h-25.2v-23.4l-22.9-9.2l18.8-48.6l-45.9-38.1l-38.1-43.6v-22.9l-8.7-36.2l10.1-18.3h9.6l11.5,25.2
				h24.8l25.2-15.6v-41.3h20.2v-11l20.2-7.8l16,22.5h23.8l14.7-33.5l-15.6-35.8l37.1-46.8v-42.2h10.5l11.9-6.4V941l-21.1-22.9
				l-10.5-25.7V875l19.7-31.2h33.5v-17.4l-94.5-86.2h-21.1l-10.5,11.9l10.5,10.5v13.3l-45.9,54.1h-18.3v-20.6l-38.5-64.7l-38.1-22.5
				l-29.8,17.4h-25.2l-17,17.4l-92.2,44.5h-16l-42.6-34.4l-9.6-30.3l12.8-14.2h13.3l-5,10.5l6.9,8.7l10.5-9.2l6.6,8.5l-7.6,7.6
				l5.5,11.5h17l11.9-29.8l-26.1-21.1v-15.6l10.1-17.4v-14.2l11-12.8V620l14.7-21.6v-25.2l30.7-42.2h24.3v-18.8h-52.7l-42.6-61v-16
				l44.9-29.3v-30.3l-53.7-33.5l-49.5-53.2l-15.1,13.8v18.8l-6.4,17.9h-16l-17-13.3l-18.3-0.5l-7.3,9.6v22h-9.2l-17.4,42.6l6,17
				l-8.7,13.8l-15.1-5.5l-11,11.5l-42.6-52.3h-17.4v-11l-22.9-5.5v-11.5l-29.3-17v-11l-42.2-53.7v-18.3h-8.7v-6.9h8.7v-10.5h-9.6
				v-11.5h9.6v-22h-79.3v7.8H2268h-23.8V205h-6.9v7.8h-14.7v-8.7l9.2-11.5l-8.7-5.5l-9.6,11.9v6.4l-13.3,0.5v-7.3l-10.1-3.7
				l-6.9,7.3h-10.5l10.5-13.3l-11.9-42.2l-20.2-0.5l-7.3-16.5l-55.9-28l-39.9,6V88.5h-52.7l-79.3,30.3l-12.4-30.3l-58.7,12.8
				l-51.4,30.3l-46.8,60.5l-23.4-19.3l-5.5,5.5l23.8,20.6l-35.3,39.4l34.4,31.2l3.2,22l-63.7,49.1l-17,48.4l-29.1-62.4l-217.6,72
				h-152.9l-39-26.8l7.6-11.9l-31.6-27.3l-6.2,7.3l26.1,21.8l-21.1,28.9l-21.8-16.3v-15.6l7.8-14.9l-47.9-18.1v6.9h-16.3v17
				l-29.6-7.8v-19.5h-8.9v10.3h-11.7v-21.6h-9.4v13.5h-19l-5-8.7l17-13.5l-5-6.9l-17.9,12.2l-19.9-26.1l19.9-17l-7.1-7.6l-19,15.1
				l-17.9-21.1l12.6-20.2h-10.8l-10.5,13.8l-36.5-26.1v-25.2H932v20.9l-26.6-3.7v-19.3H896v15.6l-25.2-6.4v-16.5h-11v13.5l-30-9.4
				v-15.6H818v11.2h-6.4v-13.8h-11.9v11h-20.9v-12.2h-11.9v12.2h-51.1v-9.6H705v10.3h-15.4v-8.3h-22.2v7.8h-31v-9.9H627v14.4
				L531,217.2l-5.5-6h-6.2v9.4l-25-4.1l-16.7,8.5l-21.8,36.7l-24.3,21.2l-11.6,8.6l-9.2-6.7h-14.1v-10.4h-8.6v14.1h-54.4l-7.3,32.7
				h-21.4l-31.2,21.1l-43.1-5.5l-83.5,48.6l-19.3,55.9l-3.7,74.3l36.7,34.9l23.8,26.6l30.3,8.3l19.3,15.6l48.6-15.6l19.3,9.2
				l-12.8,38.5l22.9,44.9L337,709l-7.3,52.3l25.7,48.1l27.5,16.1l31.2-30.3l22,29.3l33.9,48.6l10.1,30.3l-4.6,25.7l-13.8,38.5v40.4
				l6.4,18.3l-6.4,18.3l17.4,0.9l13.8-12.8l49.5,76.1l24.8,11l13.8-6.4v-16.5l12.8-27.5l39.4,6.4l3.7,24.8l13.8,11.9l41.3,14.7
				l49.5-4.1l34.9-4.1l23.8-6.4l40.4,21.1l40.8,12.4h94l12.8,21.6h28l76.1-22.9h106.4l-16.5,18.3h-66.5l-44,29.8v14.7h21.6l8.3,8.7
				h9.6l8.3-6.4h82.5v12.4l-44.5,33.9v22.5h19.3l29.3,37.1v33l-43.1,29.8l31.2,55.9h34.4v23.4L1200,1489l15.1,33.5l22,0.9l58.7,33.5
				l19.7,18.3h12.8l31.2-29.8l20.2-115.1l13.8-43.6l64.7-81.6l37.6-79.3h46.3l35.3-15.6h56.4l36.2,28v20.6l-32.1,59.2l17.4,51.8
				l59.6,58.7h55.5l29.3-35.3l57.3,28.9l44,54.1l-6.4,33v66l-38.5,20.2l-5.5,13.3l14.7,20.2v80.2l-14.7,9.6l-41.7-8.7l-1.8,13.8
				l63.7,59.2h79.8l14.7,34.9l26.6,16v21.7h311.4v-19.4h-33.5l-28.4-19.7v-60.1l17.4-19.7v-33.5l89.4-70.2v-19.7v-23.4h60.1v-19.3
				l28.4-72.9h18.3l26.1,46.8l39.4,33.5h35.3l27.5-19.7V1483l-21.6-43.1v-27.5h14.7V1395l-30.3-40.8h-71.5l-5-33.9l11,7.8l5-5
				l-28.4-33.9l-23.4-31.2v-21.6h6.9v-12.8h-26.6v-16h14.7l32.1-33.9h21.6v38.5l13.3,20.2v72h20.6l24.8-18.8l28.9,9.2h28.9
				l37.1,23.4l26.6,32.1h5v-47.2l6.9-8.3l28.4,22.9v26.6l-14.2,33l10.1,24.3v17l-24.8,9.2l32.6,48.6v50.9h11.5v37.6l17,55.9
				l15.1,28.9v13.8l-12.4,9.6v43.1l-15.6,24.3l19.7,26.6l21.6-11.9l11.5,17l-14.7,31.6l22.5,20.2l33.9-16.5h29.3v48.3h286.6v-62.9
				l-15.1-13.8v-25.7l-61.9-103.6l-34.4-35.8l11.5-18.8l33.5-15.1l36.2,25.2h23.4l13.3,11h18.3V1589l11.9-8.3l31.2,14.2h38.5v-7.8
				v-42.2H3219.6z M2017.7,279.3h-13.3l-5.5-10.5h-11.9l-36.2,27.1h-14.2l-15.1-16.5l55-38.1h33.9l7.3,19V279.3z M2108,812.2
				l21.6,29.8l21.6,15.1l14.7-15.1v-15.1l15.1-9.6l15.1,15.1v34.9v50h-23.4V930h-21.6l1.6-31l-19.9-19.9v-17l-13.3-11l-24.3-39H2108
				z M2216.2,1143.2l-18.8,19.3v26.1l-9.2-0.5v-9.2h-12.4l-30.3,33.9h-27.5l-33.9,29.8v-40.8h11v9.6h11.9l7.3-9.6h17.4l2.3-12.8
				l15.1-3.2v-16l15.6-3.2l9.2-9.2l-8.7-8.7v-12.4l14.2,1.8l20.2-7.3l20.6-11l8.7,11.5L2216.2,1143.2z M2230.9,329.7v-33.9l28.4,16
				v27.1l-8.3,19.3h-9.6L2230.9,329.7z M2410.2,1299.1l-15.1,24.8l-23.4,1.8l-9.6-14.2l7.3-16.5l-14.2-7.3l-7.8,16.5l-17.7-4.1
				l7.1-14.2l-7.1-17.9l8-14.2l-8-6.9l7.6-21.6l-16.5-7.8l-8.3,22h-8.7l-2.8-21.1l-6-3.2l-21.1-41.7l-12.4-13.3l0.9-21.6l-9.2-2.3
				l-4.1-10.1l9.2-1.8l40.4,32.6v10.5l8.7,13.3l5.5-9.6l12.8-8.7v12.8l11,1.4l5-20.2v-50l22.9,12.8v16.5l14.2,18.8l3.7,15.1
				l10.1,19.7l-6.4,9.2v23.4l23.8,30.3V1299.1z"/>
		</g>
	</g>
	<g>
		<path class="st9" d="M894.1,1146c0,0,0,0-3.8-4.5C891.9,1144.2,894.1,1146,894.1,1146z"/>
		<path class="st9" d="M31.1,441.1c-2.7,10.6-0.7,11.9,0,19.9c0.7,8-6.2,19.2-3.1,37.1c3.1,17.9-0.9,23.9,10.4,27.8
			c11.3,4,9.3,1.3,21.9,20.5c0,0,25.1,35,35.5,39.6c10.4,4.6,10.2,14.2,19.3,12.4c9-1.8,26.1-6.5,28,1.8c1.9,8.3-2.6,12.5,7.9,10.4
			c10.4-2.1-9-6.4,26.8-9.1c35.8-2.7,37.3-6.9,40.3,7.6c3,14.4-1.5,26.3,0,36.8s-3,19.7,10.4,19.7c13.4,0,17.9-1.8,20.9,17.6
			c3,19.4,6,26.3,7.5,46c1.5,19.6-3,21.1-6,36c-3,14.9-8.9,17.9-1.5,28.3c7.5,10.4,0,26.8,14.9,25.4c14.9-1.5,25.6,1.5,30,6
			c4.3,4.5,8.6,13.4,14.7,6c6.1-7.5-7.8,1,14.1-20.1c13.3-12.9,17-17.1,17.8-18.4c0.5,2.9,3.6,17,11.2,18.4c8.5,1.6,9.9-0.4,8,12.9
			c-2,13.3-3.3,27.8,8,39.1c11.3,11.3,29.8,14.6,31.8,53c2,38.4,8,35.2-5.3,56.4c-13.3,21.2-22.5,31.8-24.5,39.1
			c-2,7.3,4,49,13.9,53c9.9,4,9.9,4,14.6,0c4.6-4-2-14.6,12.6,0c14.6,14.6,6.6,11.9,11.9,18.6c5.3,6.6,2.5,7.3,11.5,18.6
			c9,11.3,28.7,39.1,40.1,40.4c11.4,1.3,9.4,9.9,25.3,3.3c15.9-6.6,10.6-7.3,12.6-22.5c2-15.2,10.5-33.7,14.9-37.1
			c4.4-3.4,16.3-10,16.3-10s7,28.8,30.7,41.3c23.7,12.4,51.5,18.4,81.4,15.7c29.8-2.7,17.2-2,29.8,0.7c12.6,2.7,9.3,7.3,23.2,1.3
			c13.9-6,25.1-10.6,25.1-10.6s6,4,17.3,8c11.3,4,13.3,14.9,36.5,15.7c23.2,0.8,20.5-1.2,31.8-5.8c11.3-4.6,2.9-6.1,21.3-8
			c18.4-1.9,35-9.6,44.3,1.4c2.4,2.9,4.2,5,5.5,6.5c-2-3.4-3.1-8.3,2.7-12.7c10.3-7.8,20.4-17,26-5.8c5.6,11.3,6.2,39.1,8.9,44.4
			c2.7,5.3,4.6,8.6,13.9,7.3c9.3-1.3,55-25.2,72.2-25.8c17.2-0.7,35.7,8.5,38.8,7.6c3.1-0.9,7.4-2.2,14.5-4.4
			c7.1-2.1,7.7-1.2,18.3,1.4c10.6,2.7,20.5,3.3,33.1,3.3c12.6,0,27.8,0,36.5-4c8.6-4,4.6-3.4,22.5-8.3c17.9-5,27.8-16.9,27.8-16.9
			s4,19.9-4,27.2c-8,7.3-11.9,11.3-23.2,11.3c-11.3,0-24.5,0.7-24.5,0.7s-2.7,7.3-25.2,16.6c-22.5,9.3-27.4,11.2-37.8,7.3
			c-10.4-3.9-11.3-4.6-32.5-5.3c-21.2-0.7-23.9-4.6-31.2,4c-7.3,8.6-21.9,26.5-19.2,25.2s26.5,13.3,35.8,8
			c9.3-5.3,21.1-15.1,27.8-15.1s3.4-0.2,12.6,5.1c9.3,5.3,33.8,19.2,45.7,29.8c11.9,10.6,9.7,12.9,18.6,13.3
			c8.8,0.4,9.9,17.9,18.6,22.9c8.6,5,13.9-8.3,9.9,12.9c-4,21.2,0,50.4-1.3,53c-1.3,2.7-8,42.7-8,42.7c0.8,1.8,2.1,3,3.4,4.3
			c8.9,15.2,12.7,31.8,25.4,43.2c10.2,0,21.6,0,31.8,0c0,8.9,2.5,19.1-2.5,26.7c-7.6,8.9-15.2,17.8-24.1,25.4
			c0,12.7,7.6,22.9,12.7,34.3c1.3,1.3,3.8,2.5,5.1,2.5c8.9-1.3,17.8-2.5,25.4,2.5c1.3,1.3,2.5,2.5,3.8,3.8
			c17.8,10.2,38.1,16.5,53.4,31.8c1.3,2.5,3.8,3.8,6.4,6.4c1.3,2.5,2.5,5.1,5.1,6.4c2.5,1.3,6.4,2.5,8.9,2.5
			c16.5-5.1,24.1-21.6,36.8-31.8c14-54.6,12.7-114.3,39.4-165.1c19.1-24.1,36.8-47,57.2-69.9c15.2-26.7,26.7-54.6,39.4-82.6
			c19.1-3.8,38.1,2.5,55.9-5.1c5.1-2.5,8.9-5.1,15.2-6.4c2.5-1.3,3.8-3.8,6.4-5.1c20.3-3.8,39.4,0,59.7-1.3
			c8.9,5.1,15.2,11.4,22.9,17.8c2.5,2.5,6.4,3.8,10.2,6.4c2.5,1.3,3.8,3.8,5.1,6.4c2.5,16.5-5.1,31.8-15.2,45.7
			c-6.4,10.2-10.2,19.1-15.2,29.2c2.5,19.1,8.9,35.6,15.2,53.4c19.1,19.1,36.8,38.1,57.2,57.2c1.3,1.3,3.8,2.5,6.4,2.5
			c17.8,0,35.6,1.3,53.4-1.3c7.6-11.4,15.2-21.6,25.4-31.8c1.3-1.3,3.8-2.5,6.4-1.3c8.9,3.8,17.8,11.4,26.7,15.2
			c5.1,1.3,8.9,3.8,14,6.4c1.3,1.3,3.8,0,5.1,1.3c19.1,12.7,29.2,31.8,44.5,48.3c2.5,3.8,5.1,8.9,7.6,12.7
			c-11.4,31.8-5.1,64.8-6.4,97.8c-15.2,5.1-29.2,11.4-40.7,22.9c-2.5,2.5-3.8,7.6-2.5,10.2c2.5,7.6,11.4,11.4,12.7,20.3
			c3.8,26.7,1.3,53.4,1.3,80c0,2.5-3.8,2.5-6.4,3.8c-1.3,0-1.3,1.3-2.5,2.5c-1.3,0-2.5,1.3-3.8,1.3c-1.3,1.3-1.3,2.5-2.5,2.5
			c-14-2.5-27.9-7.6-41.7-9.2c-2.7,6.6-2.7,13,2.3,18.1c12.7,10.2,21.6,22.9,35.6,31.8c7.6,6.4,12.7,14,19.1,20.3
			c1.3,1.3,5.1,2.5,6.4,2.5c26.7,2.5,52.1-1.3,78.8,1.3c6.4,11.4,11.4,22.9,15.2,35.6c8.9,3.8,19.1,7.6,26.7,15.2
			c-1.3,6.4-1.3,12.7-1.3,19.1c5,0.2,8.7,0.3,11.5,0.3c100.3,2.2,199.4,1,299.7,1c-1.3-6.4,2.5-14-2.5-19.1c-8.9,0-19.1,1.3-27.9,0
			c-12.7-2.5-20.3-12.7-30.5-19.1c0-20.3,0-40.7,0-61c6.4-7.6,15.2-15.2,16.5-26.7c0-8.9,0-16.5,0-25.4c14-10.2,26.7-21.6,41.9-33
			c6.4-5.1,11.4-10.2,17.8-14c8.9-6.4,14-11.4,22.9-17.8c15.2-10.2,5.1-31.8,7.6-48.3c20.3-3.8,39.4,1.3,59.7-2.5
			c-1.3-12.7,1.3-24.1,6.4-35.6c8.9-17.8,15.2-35.6,21.6-54.6c7.6-1.3,17.8-3.8,22.9,5.1c5.1,11.4,10.2,21.6,15.2,31.8
			c2.5,2.5,3.8,5.1,6.4,8.9c10.2,12.7,24.1,19.1,34.3,30.5c24.1,10.2,52.1,3.8,68.6-16.5c0-16.5,1.3-34.3,1.3-50.8
			c0-7.6-1.3-16.5-2.5-24.1c-2.5-15.2-15.2-26.7-20.3-40.7c-2.5-10.2,0-19.1,0-29.2c4.6-3.4,9.1-0.7,13.7-2c0.3,0.1,0.8,0,1.6-0.6
			c0-1.3-1.3-1.3-1.3-2.5c1.3-5.1,1.3-10.2-1.3-15.2c-7.6-12.7-15.2-22.9-24.1-34.3c-3.8-3.8-8.9-6.4-14-5.1
			c-19.1,2.5-36.8,2.5-55.9,2.5c-2.5,0-5.1-1.3-6.4-2.5c-2.4-11-2.6-20.9-4.5-31.9c-0.1-0.4-0.1-0.7-0.2-1.2
			c0.6,0.4,0.9,0.9,1.2,1.3c3.3,3.6,8,7.3,13.7,3.9c0-1.3,1.3-2.5,1.3-2.5c-16.5-21.6-35.6-39.4-49.5-62.2
			c-5.1-7.6-5.1-16.5-1.3-24.1c1.3,0,3.8,0,6.4,0c-1.3-3.8,3.8-6.4,0-10.2c-7.6-5.1-17.8-1.3-26.7-2.5c-2.5-5.1,0-11.4,0-16.5
			c3.8-1.3,8.9,2.5,12.7,1.3c12.7-6.4,17.8-20.3,27.9-30.5c7.6-6.4,17.8-8.9,26.7-3.8c2.5,11.4-2.5,24.1,0,36.8
			c2.5,7.6,10.2,12.7,11.4,20.3c6.1,23.4,1.6,46.7,2.5,70.1c0,0.7,0,1.5,0.1,2.3c6.4,0,12.7,1.3,19.1,0c11.4-3.8,19.1-20.3,33-16.5
			c15.2,5.1,30.5,8.9,47,7.6c3.8,0,6.4,1.3,10.2,2.5c1.3,1.3,2.5,2.5,3.8,3.8c12.7,5.1,22.9,12.7,33,22.9
			c7.6,8.9,12.7,19.1,21.6,26.7c2.5,1.3,5.1-2.5,5.1-5.1c-2.5-12.7-2.5-24.1-1.3-35.6c1.3-5.1-1.3-12.7,6.4-15.2
			c10.2,6.4,19.1,14,27.9,21.6c6.4,21.6-3.8,41.9-12.7,61c6.4,12.7,11.4,25.4,10.2,39.4c-6.4,6.4-16.5,6.4-25,10.7
			c1.6,2.5,2.9,3.9,3.8,4.6c3.4,4.2,6.7,8.4,8.5,14c1.3,1.3,2.5,2.5,3.8,3.8c3.8,10.2,14,16.5,15.2,26.7c3.8,17.8-2.5,34.3,3.8,50.8
			c0,1.3,7.6-3.8,7.6,0c2.5,16.5,0,31.8,3.8,48.3c3.8,14,7.6,27.9,12.7,41.9c3.8,8.9,11.4,17.8,15.2,26.7c1.3,3.8,3.8,8.9,2.5,14
			c-1.3,7.6-10.2,10.2-14,15.2c0,14,5.1,26.7,1.3,40.7c-3.8,8.9-11.4,16.5-15.2,25.4c3.8,8.9,10.2,17.8,16.5,25.4
			c6.4,3.8,14-2.5,19.1-7.6c3.8-2.5,6.4-1.3,8.9,1.3c10.2,12.7,3.8,27.9-5.1,40.7c-1.3,1.3-1.3,3.8-1.3,5.1
			c5.1,7.6,12.7,11.4,19.1,17.8c1.3,1.3,2.5,1.3,3.8,1.3c6.4-1.3,11.4-5.1,16.5-8.9c14-7.6,29.2-10.2,44.5-6.4
			c3.8,15.2,0,31.8,1.3,47c95.3,0,190.6-1.3,285.8,1.3c2.5-17.8-1.3-35.6,1.3-54.6c1.3-8.9-6.4-14-12.7-19.1
			c-8.9-8.9,0-24.1-6.4-34.3c-19.1-31.8-33-62.2-54.6-94c-11.4-15.2-24.1-26.7-36.8-38.1c-2.5-7.6,5.1-16.5,10.2-21.6
			c10.2-7.6,21.6-8.9,31.8-15.2c12.7,7.6,22.9,20.3,36.8,24.1c8.9,3.8,17.8,0,26.7,2.5c6.4,8.9,19.1,16.5,29.2,8.9
			c0-10.2-2.5-20.3,2.5-29.2c2.5-3.8,7.6-5.1,12.7-3.8c20.3,10.2,43.2,16.5,66.1,11.4c0-16.5,0-31.8,0-48.3
			c-5.1,1.3-11.4-1.3-16.5-1.3c-6.4,1.3-10.2,6.4-14,10.2c-2.5,2.5-5.1,3.8-7.6,3.8c-14,1.3-27.9-2.5-41.9,2.5
			c-2.5,1.3-5.1,2.5-8.9,3.8c-3.8,1.3-5.1,6.4-8.9,5.1c-6.4-1.3-11.4-8.9-19.1-10.2c-7.6-2.5-16.5-1.3-24.1-1.3
			c-5.1-7.6-15.2-10.2-24.1-8.9c-6.4-5.1-12.7-12.7-15.2-20.3c-2.5-3.8,2.5-8.9,5.1-12.7c10.2-12.7,15.2-26.7,14-41.9
			c0-2.5,2.5-5.1,3.8-6.4c7.6-5.1,15.2-10.2,17.8-19.1c1.3-5.1-1.3-10.2-3.8-15.2c-3.8-3.8-10.2-3.8-12.7-8.9
			c-3.8-6.4-1.3-12.7-1.3-19.1c-7.6-3.8-16.5,2.5-24.1,0c-3.8-7.6,1.3-16.5-2.5-24.1c-7.6-2.5-15.2-3.8-21.6-10.2
			c6.4-11.4,7.6-24.1,15.2-35.6c3.8-6.4,3.8-14-3.8-19.1c-26.7-19.1-49.5-38.1-68.6-66.1c-1.3-1.3-2.5-1.3-3.8-2.5
			c-2.5-2.5-3.8-5.1-3.8-7.6c0-5.1,0-11.4,0-16.5c-1.3-14-6.4-27.9-8.9-41.9c3.8-5.1,5.1-10.2,7.6-15.2c5.1-5.1,12.7-1.3,16.5,3.8
			c2.5,5.1,1.3,12.7,5.1,17.8c1.3,1.3,3.8,2.5,5.1,2.5c6.4,0,12.7-1.3,19.1-1.3c6.4,0,10.2-5.1,16.5-6.4c5.1-2.5,10.2-7.6,11.4-12.7
			c1.3-12.7,0-24.1,0-36.8c6.4-2.5,12.7,2.5,19.1,0c3.8-2.5-1.3-7.6,0-11.4c8.9-1.3,16.5-11.4,24.1-5.1c6.4,6.4,8.9,19.1,19.1,20.3
			c6.4,0,12.7,2.5,17.8-1.3c5.1-5.1,6.4-12.7,8.9-20.3c0-1.3,1.3-2.5,2.5-3.8c3.8-7.6,1.3-14-1.3-21.6c-5.1-8.9-15.2-20.3-6.4-29.2
			c2.5-2.5,3.8-5.1,6.4-8.9c8.9-11.4,21.6-20.3,24.1-34.3c2.5-12.7,1.3-26.7,1.3-39.4c10.2,1.3,20.3-1.3,21.6-11.4
			c2.5-8.9,3.8-19.1,0-27.9c-1.3-1.3-5.1-2.5-6.4-5.1c-1.3-1.3-1.3-3.8-2.5-5.1c-14-12.7-20.3-30.5-22.9-48.3c0-2.5,1.3-6.4,2.5-8.9
			c7.6-10.2,11.4-20.3,20.3-27.9c10.2,0,21.6,0,31.8-1.3c1.3-7.6,2.5-14-3.8-20.3c-30.5-29.2-61-55.9-92.7-82.6
			c-6.4,0-14-2.5-20.3,1.3c-3.8,3.8-6.4,7.6-8.9,11.4c5.1,5.1,10.2,8.9,11.4,16.5c0,3.8-1.3,7.6-3.8,10.2
			c-14,16.5-24.1,35.6-41.9,48.3c-6.4,2.5-16.5,6.4-20.3-1.3c2.5-7.6,1.3-15.2-1.3-21.6c-11.4-20.3-24.1-38.1-34.3-57.2
			c-11.4-11.4-27.9-16.5-40.7-25.4c-7.6,3.8-14,10.2-21.6,14c-8.9,5.1-19.1,3.8-29.2,3.8c-3.8,0-6.4,2.5-8.9,5.1
			c-1.3,2.5-3.8,5.1-6.4,6.4c-1.3,1.3-1.3,2.5-2.5,3.8c-29.2,16.5-57.2,30.5-86.4,43.2c-6.4,2.5-12.7,3.8-19.1,3.8
			c-2.5,0-6.4-1.3-8.9-2.5c-12.7-8.9-21.6-20.3-34.3-26.7c-2.5-1.3-3.8-5.1-6.4-7.6c-1.3-3.8-2.5-7.6-3.8-11.4
			c-1.3-6.4-5.1-12.7-2.5-17.8c2.5-8.9,14-17.8,24-13.2c-0.3,0.6-0.7,0.9-1,0.9c-2.9,2.9-3.8,6.3-2.6,9.8c1.3,2.5,0,7.6,5.1,7.6
			c3.8-1.3,6.4-7.6,11.4-7.6c2.5,1.3,3.8,3.8,5.1,6.4c0,2.5-1.3,5.1-5.1,7.6c-2.5,2.5-2.5,5.1,0,8.9c5.1,6.4,14,3.8,20.3,3.8
			c3.8-10.2,10.2-19.1,12.7-30.5c-8.9-7.6-21.6-12.7-25.4-22.9c-5.1-11.4,5.1-20.3,8.9-30.5c1.3-6.4-1.3-14,3.8-19.1
			c3.8-2.5,6.4-6.4,7.6-11.4c1.3-10.2-2.5-21.6,2.5-30.5c5.1-7.6,12.7-14,12.7-22.9c0-10.2-1.3-19.1,5.1-27.9
			c8.9-10.2,16.5-20.3,24.1-31.8c7.6-2.5,16.5,1.3,22.9-2.5c5.1-2.5,1.3-11.4,2.5-17.8c-17.8-2.5-36.8,2.5-54.6-1.3
			c-5.1-12.7-14-21.6-21.6-33c-10.2-14-26.7-27.9-16.5-45.7c14-7.6,27.9-15.2,40.7-25.4c1.3-1.3,2.5-3.8,2.5-5.1
			c-1.3-8.9,0-17.8-2.5-26.7c-8.9-5.1-16.5-12.7-26.7-16.5c-3.8-1.3-6.4-3.8-8.9-6.4c-3.8-2.5-7.6-2.5-10.2-5.1
			c-2.5-2.5-5.1-5.1-8.9-6.4c-2.5-2.5-5.1-5.1-7.6-7.6c-7.6-12.7-17.8-19.1-26.7-29.2c-3.8-6.4-8.9-8.9-12.7-15.2
			c-6.4,5.1-14,8.9-15.2,16.5c0,12.7,1.3,25.4-8.9,34.3c-11.4,2.5-19.1-6.4-27.9-12.7c-7.6-5.1-19.1-3.8-25.4,2.5
			c-6.4,7.6,1.3,19.1-3.8,27.9c-1.3,1.3-6.4-1.3-7.6,0c-7.6,12.7-11.4,26.7-17.8,39.4c-2.5,6.4,5.1,14,3.8,20.3
			c0,3.8-2.5,8.9-6.4,12.7c-3.8,2.5-6.4-2.5-10.2-3.8c-7.6-1.3-11.4,6.4-16.4,10.6c-8.9-9.8-17.1-20.1-25.2-30.5
			c-5-7.5-34.3-51.8-34.4-51.8c-0.1,0-50.4-24-57.8-27.3c-7.4-3.3-23.1-27.8-23.2-31.2c0-3.4,3.3-37.9,0-39.1
			c-3.3-1.2-14.6-12.7-17.2-21c-2.7-8.3-4.3-31.9-7.1-39.9c-2.8-8-11.4-14.6-14.4-17.9c-3-3.3-25.1,1.3-27,3.3
			c-1.9,2,3.2,9.3,0,14.6c-3.2,5.3-51.3,2-65.3,4c-14.1,2-23.4,13-34,17.8c-10.6,4.7-23.2-6-23.2-6s-8.3-11.7-17.4-6.1
			c-9.1,5.6-5.1,17.9-7.8,21.7c-2.7,3.8-27.4-11.8-30.2-18.4c-2.8-6.5,8.9-8.6,0-17.1c-8.9-8.4-19.5-20.3-20.1-28.6
			c-0.7-8.3-0.7-43.2-7.3-48.3c-6.6-5.1-8.6-7.7-11.3-11.7c-2.7-4-9.3-19.2-12.6-22.5c-3.3-3.3-58.5-12.6-70-13.9
			c-11.5-1.3-102.3,15.3-112.3,21.9c-9.9,6.6-16.6,13.4-26.8,15.6c-10.3,2.2-17.6,10.5-24.9,10.7c-7.3,0.2-15.1,5.8-23.4,0
			c-8.4-5.8-17.9-12.4-28.7-13.1c-10.8-0.7-21.3-1.2-27,2.4c-5.7,3.6-27.5,20.3-30.5,24.2c-3,3.9-14.3,9.3-19.6,13.3
			c-5.3,3.9-19.3,34-21.2,38.7c-1.9,4.7,17.2,16.3,11.9,24.2c-5.3,8-8.8,11.9-15.1,14.8c-6.3,2.8-16.3,11.7-16.3,11.7
			s-2.4,0.9-2.7,12.8c-0.3,11.9,6.3,53.6,12.9,58.2c6.6,4.6,31.3-12.9,29.9-6.2c-1.4,6.8-16.7,36.6-16.7,40.6c0,4,10.1,27,4,31
			c-6,4.1-17.2,2-28.2,4c-11,2-56.9,24-56.9,24s-32.9-10.6-47.5-12.3c-14.6-1.7-51.3-24.7-55.6-34.1c-4.3-9.5,2-33.9-4-34.8
			c-6-1-9.5,0.6-9.1,4.1c0.4,3.5-4.1,24-4.8,29.3c-0.7,5.3-11.1,21.6-8.1,22.7c3.1,1.1,8.5,28.1,8.1,31.3c-0.4,3.2-3.3,5.7-9.6,13.9
			c-6.3,8.3-0.3,6.3-8.5,13c-8.2,6.7-17.3,14-19.8,18.2c-2.5,4.3-3.2,10.9-10.5,11.7c-7.3,0.7-17.5-11.4-19.7-16.8l-9.7-40
			c0,0-19.1,5.5-25.7,4.6c-6.5-0.9-4.3,9.6-12.4,11c-8.1,1.4-11.4-5.9-15.2-3.1c-3.8,2.9-9.5,3-5.9,5.6c3.6,2.6,14,4.2,8.9,11.5
			c-5.1,7.3-35.6,15.6-41.9,16.4c-6.3,0.7-0.9-1.9-6.3,0.7c-5.3,2.7-4.2,6-10.1,5.7s-9.4-5.2-9.6-1.8c-0.2,3.4-5.4,29-13.8,36.1
			c-6.6,5.6-5,10.5-3,15.3c-2.3-2.8-6.5-5.8-13.6-6.7c-16.9-2-30.2-3.1-35.5-6.6c-5.3-3.5-21-17.7-25.5-19.6
			c-4.5-1.9-21.9-18.6-29.7-21.3c-7.8-2.7-24.1-9.7-29.2-17c-5.1-7.3-8.4-14.2-11.5-16.5c-3.1-2.3-5.7-3.9-8.3-6
			c-2.6-2,0.9-3-6.8-9.2c-7.7-6.1-6.1-11-9.9-11.2c-3.8-0.2-5.5,15.8-11.6,14.8c-6.1-1-17.3,8.9-17.3,8.9s8.9-8.3,0-10.3
			c-8.9-2.1-6.5,1.3-8.9-2.1c-2.4-3.4-0.8-10.3-4.6-14c-3.8-3.7-18.6-9.3-23.6-10.1s-18.1,3.4-18.1,3.4s19.4-8.4,7.8-12.8
			c-11.6-4.5-18.8-5.4-18.8-5.4s0.3-15-5.9-16.6c-6.2-1.7-3.7-3.5-16.1-1.5c-12.5,2-19.4,9.9-26.6,14.8c-7.2,4.9-8.5,2.6-11.8,1.4
			c-3.3-1.2-31.8,1.6-34.9-1.4c-3.1-3-30.4-32.6-33.4-36.1c-2.9-3.5,1.7-15.8-3.1-18.7c-4.7-2.9-10.7-4.7-12.1-9.6
			c-1.4-4.9-16-37.2-21.5-42.6c-5.5-5.4-6.8-12-13.9-12.7c-7.1-0.7-16.8,1.5-26-5.5c-9.2-7-5.6-11.5-14-10
			c-8.4,1.5-24.7,16-32.8,11.7c0,0-18.6-4.4-18.6-12.5s-1.7-12.8-7.1-14.1c-5.5-1.2-19.8,11.4-32.6,1.3
			c-12.8-10.1-32-21.5-42.9-28.1c-10.9-6.6-8.3-13.6-27-15.4c-18.7-1.8,0.9,12.7-29.2,13.4c-30.1,0.7-58,1.5-65.3-4.2
			c-7.3-5.7-10.6-14.4-28.5-3.8c-17.9,10.6-18.6,10-24.2,10c-5.6,0-5,4.4-26.2,2.8c-45.3-3.3-39.8,22.8-56.8,21.1
			c-16.9-1.6-24.9-1.7-31.5-2.3c-6.6-0.5-9-21.6-18.8-21.4c-15.2,0.4,2.6,19.6-20,14.9c-7-1.4-0.9,9.3,0,15.9
			c0.9,6.6,0.9,22.1-7.9,22.2c-8.9,0.1-10.2-5.6-12.2-3.7c-12.2,11.3,5.9,26.2,0,32.4c-12.2,13-8.1,34.8-20.3,44.4
			c-8.5,6.7-15.6-4.5-19.8,10.4c-2.1,7.4-20.8,4.5-27.9,6.2c-9.9,2.4-19.3-3.9-22-4.9c-2.7-1-2.3-5.5-22.8-7.5s-9,3.3-29.6,1.6
			c-20.5-1.7-26.9-3.7-48.8,3.7c-21.9,7.4-28.1,39.9-38,36.8c-9.9-3-5.1-1.1-18.8-0.8c-13.7,0.4-17.7,6.3-30.3,9.3
			c-12.6,3-35.5,19.9-35.5,19.9S47,392.7,39.1,400s-12.6,22.5-10.6,27.2C30.4,431.8,33.8,430.5,31.1,441.1z"/>
		<path class="st9" d="M3156.6,978.6C3156.6,989,3163,979.7,3156.6,978.6L3156.6,978.6z"/>
		<path class="st9" d="M2737.5,723.7c0.3-0.3,0.6-0.6,1-0.9C2736.1,722.6,2736.6,723.9,2737.5,723.7z"/>
		<path class="st9" d="M2559.7,436.6C2562.2,432.9,2548.2,422.5,2559.7,436.6L2559.7,436.6z"/>
		<path class="st9" d="M2470,1321.5c0.7,3.1,1.9,1.8,1,0.1c-0.4-0.4-0.8-0.9-1.2-1.3C2469.9,1320.6,2469.9,1321,2470,1321.5z"/>
		<path class="st9" d="M2414.8,1207.3C2415.8,1211.6,2420.7,1206.1,2414.8,1207.3L2414.8,1207.3z"/>
		<path class="st9" d="M1228.3,1434.6C1220,1434.6,1226.9,1446.2,1228.3,1434.6L1228.3,1434.6z"/>
	</g>
	<polygon class="st9" points="8.2,300.4 8.2,270.6 33.9,246.3 77,261.9 95.8,278.8 95.8,304.5 71,317.3 37.1,317.3 16,329.7 
		2.7,317.3 	"/>
	<polygon class="st9" points="117.8,246.3 136.6,246.3 143,266 139.4,283 124.2,283 115.1,262.3 	"/>
</g>
</svg>
