<?xml version="1.0" encoding="utf-8"?>
<!-- Generator: Adobe Illustrator 23.0.3, SVG Export Plug-In . SVG Version: 6.00 Build 0)  -->
<svg width="3236.5" height="1856.4" version="1.1" id="圖層_1" xmlns="http://www.w3.org/2000/svg" xmlns:xlink="http://www.w3.org/1999/xlink" x="0px" y="0px"
	 viewBox="0 0 3236.5 1856.4" style="enable-background:new 0 0 3236.5 1856.4;" xml:space="preserve">
<style type="text/css">
	.st0{fill:#020202;}
	.st1{fill:#FFFFFF;}
</style>
<rect class="st0" width="3236.5" height="1856.4"/>
<g>
	<path class="st1" d="M1543,313.7l-55.3,21l40.5-4.9l-2.3,37.1l-28.3,8.7c0,0-0.2,65.6-3.1,68.9c-3,3.3-4-66.1-6.8-66
		c-2.8,0.1-31.9,17.8-31.9,17.8l-15,10.5c0,0,20.7-3.8,21.9-2.9c1.2,0.9,7,40.7,13.3,45.7c6.3,5,8.5,10.3,13.9,8.6
		c7.6-2.4,15.8-18.3,17-19.5s12.8-11.2,15.2-13.2c2.5-2,2.8-9.2,6.1-11.2c3.3-2,10.2-13.1,10.8-14.9c0.6-1.8-8.9-28.3-8.9-31
		s9-14.5,11.2-30.3C1543.5,322.3,1543,313.7,1543,313.7z"/>
	<path class="st1" d="M1191.1,430.5c0,0,8.6,6.8,19,14.7c1.9-0.5,4-0.3,5.9,1.2c10.3,8,22.3,13.3,31.8,22.4c0.4,0.4,0.7,0.7,0.9,1.1
		c4.2,1.8,7.7,5.1,8.1,4.6c0.5-0.6,15.7,13.3,22.3,16.1c4.9,2,17.8,3.8,27.8,5c1.1-0.4,2.3-0.4,3.7-0.1c0.7,0.2,1.4,0.4,2.1,0.7
		c1.3,0.1,2.4,0.2,3.4,0.3c2.8,0.2,4.7,1.8,5.9,3.8c0.1,0,0.1,0.1,0.2,0.1c-0.1-2.5,0.4-5,2.1-6.4c4.8-3.8,20.8-39.7,20.8-39.7
		s2.7-0.8,7.1,0.1c4.1,0.9,11.7-5.6,12.6-6.8c0.1,0.3,1.6-1.7,9.9-0.9c11.9,1.2,27.7-8.9,37.5-16.3c4.3-3.2-13.5-12.8-13.5-12.8
		c-12.6,11.5-25.3,20.4-41.8,26.7c-1.3,1.3-2.5-2.5-2.5-6.4c-12.7-5.1-29.2,0-42.4-1.4c0.1,0.2,0.3,0.4,0.5,0.6
		c2.8,3.8,5,7.4,3.8,12.3c-14,3.8-29.2,5.1-44.5,6.4c-20.3-15.2-40.7-30.5-63.5-44.5c-7.6-3.8-19.1-3.8-27.8,2.1L1191.1,430.5z"/>
	<path class="st1" d="M1062.1,356.2l24.7,3.2l2.5,7.3l16.8,15.4c0,0-11.7-7.8-23.3-3.7c-11.6,4.1-5.4,1.1-5.4,1.1s12.7-6.7,3.4-9.9
		c-9.3-3.1-13.1-2.9-16.1-7.3C1061.6,357.8,1062.1,356.2,1062.1,356.2z"/>
	<path class="st1" d="M707.7,179.9l26.5-14.4l42.4,35.5l77.4,24.6c0,0,13.2-1.4,19.2-1.3c6,0.1,34.8,28.6,38.4,29.8
		c3.6,1.2,68.4,89.3,68.4,89.3s33.6,10.7,35.3,12.9c0,0,1.9,7.2-47.1,3.2c-6.8-0.6-35.4-40.3-35.4-40.3s-1.5-12.9-2.6-15.2
		s-10.9-5.2-13.1-9.4s-17.2-43.7-21.3-44.8c-4.1-1.2-1.4-3.4-6.6-8s-23.1-0.8-32-7c-9-6.1-13.9-10.8-17.3-10.5
		c-3.4,0.4-16.3,7.9-21.5,12.3c-5.2,4.4-22.8-7.4-26-11c-3.2-3.7-3-14.2-5.2-15.6c-8.9-5.5-14.2,3.8-27.7,4.1
		c-4,0.1-16.1-11.2-21.8-13.6s-12.6-7.7-18-11.6C711,182.6,707.7,179.9,707.7,179.9z"/>
	<path class="st1" d="M1553.3,317.2c6,1-1.8,30.9,11.2,39c8.8,5.5,30,23.7,44.6,25.3c6.6,0.8,7.1-1.8,17.3,1l-29.7-80.4
		L1553.3,317.2z"/>
	<path class="st1" d="M1712,267.7c-1.7,6.6,2.2,60.7,2.2,60.7l-78.5,59.4c12.3,3.4,23.2,8.1,23.2,8.1s47.5-22,58.5-24
		c11-2,22.2,0,28.2-4c6-4.1-4-27.1-4-31c0-4,15.2-33.8,16.7-40.6c1.4-6.8-23.3,10.7-29.9,6.2c-2.7-1.8-4.5-10.2-5.7-20.2
		c-1.1-1-1.8-2.4-2-4.2c-1.1-13.1-7.3-36.7-0.1-49.4l-16.4,10.4C1704.1,239,1713.7,261.1,1712,267.7z"/>
	<path class="st1" d="M1864.6,115.3c8.4,5.8,16.1,0.2,23.4,0c7.3-0.2,14.6-8.4,24.9-10.7c10.3-2.2,16.9-9,26.8-15.6l-1.7,0.3
		c-4.9,0.4-10.6-2-14.2-0.3c-4,1.9-81.1,14.4-81.1,14.4C1853.5,104.2,1856.2,109.6,1864.6,115.3z"/>
	<path class="st1" d="M2173.2,192.2c8.9,8.4-2.8,10.5,0,17.1c2.8,6.5,27.6,22.2,30.2,18.4c2.7-3.8-1.3-16.1,7.8-21.7
		c9.1-5.6,17.4,6.1,17.4,6.1s10.4,8.9,20.3,7l0,0l0,0c1-0.2,1.9-0.5,2.9-0.9l-2.4-1.4l3-14l-43.7-28.3l12.6-22.6l-6.9-2.1l-9.6,18
		l-23.9-12.6c0,0-4.3,2.5-8.5,4.3c-4.1,1.8-19.6,0.4-19.6,0.4C2153.6,168.2,2164.4,183.8,2173.2,192.2z"/>
	<path class="st1" d="M1746.2,155.2c-1.1-0.6-14.3-10.9-14.3-10.9l-20.5,22.9l23,14.5L1746.2,155.2z"/>
	<path class="st1" d="M1730.2,220.3c-3.5,1.3-10.9,6-10.9,6s2.3-18.6,0-22.2c-2.3-3.6-13.6-8.3-13.6-8.3l12.3-17.6l22.8,7
		c0,0,17.5,19.3-1.1,31.5C1737.5,218.1,1730.2,220.3,1730.2,220.3z"/>
	<path class="st1" d="M407.3,187.4c0.3,0.7,0.4,1.5,0.6,2.2c0.9,1.1,3.5,3.8,4.5,4.7c2.6,2.5,1.7,6.3,4.7,8.3
		c9.2,5.8,30,5.9,39.7,3.1c4-1.1,9.2-10.4,9.2-10.4l-3.4-9.4c0,0-17.4,4.8-22.5,4.7c-2.9,0-19.8-2.8-34-5.2
		C406.7,185.9,407.1,186.6,407.3,187.4z"/>
	<path class="st1" d="M247.3,313.3c1.6,0.1,2.8,0.7,3.8,1.5c5.4-0.2,5.6-1.1,7.3-0.5c2.7,1,23.7,13.5,33.6,11.2
		c3.3-0.8,14.4-0.5,23.6-5c2.9-1.5,5.1-2.9,6.9-4.2c0.4-2.8,2.4-5.3,6.1-5.3c0.2,0,0.5,0,0.7,0c1.5-1,3.3-1.9,5.6-2.6
		c14.9-4.4,17.6-23.5,17.4-25.1c-0.2-1.6,3.2-12.3,8.6-19c2.9-3.6-2.2-10.3-4.4-13.9l4.1-2.1c-1.6-1.5-2.7-3.6-2.7-6.4
		c-0.2-9,9.8-9.3,15.4-5.1c0.2,0.2,0.4,0.3,0.6,0.5c2.2-1.7,3.6-4.5,4.5-7.1c2.5-7.2,1-13.4,0.8-20.7c0-0.7,0-1.4,0-2
		c-4-3.2-2.7-11.4,3.9-11.4c2.1,0,3.7,0.9,4.7,2.1c1.1,0,2.2,0.1,3.4-0.6c2-1.1,3.6-4.8,4.1-5.8c-0.2-0.9-0.2-1.8-0.2-2.7
		c0.2-2.5,1.4-4.2,3-5.2c-7.1-1.2-12.1-2.1-12.1-2.1s-8,10.2-12.8,18.7s-18,36.8-18,36.8l-41.1,34.5l-2.9,1.4c-0.9-0.3-2-1-3.3-2.3
		c-4.7-4.3-6-9.1-6-9.1l-77.5,12.3c0,0-1.3,9.5,4.3,39.1C234.6,311.6,240.9,312.8,247.3,313.3z"/>
</g>
</svg>
