<svg xmlns="http://www.w3.org/2000/svg" width="27.034" height="57.877" viewBox="0 0 27.034 57.877">
  <path id="Path_183" data-name="Path 183" d="M23.165,25.656a2.285,2.285,0,0,0-2.446-.243c-.369-1.639-.913-3.593-2.5-3.9a3.291,3.291,0,0,0-1.642.162,3.287,3.287,0,0,0-1.8-2.47,2.681,2.681,0,0,0-2.233.271,29.894,29.894,0,0,0-.28-4.067c-.617-5.458-.031-6.736-1.426-7.935a2.348,2.348,0,0,0-3.621.9c-.761,2.02-.448,7.3-.587,12.608,0,2.219,0,1.286.007,2.192a3.154,3.154,0,0,0-2.265-.929c-2.091.057-1.431,1.5-1.183,2.26,1.6,4.8.2,10.165.1,10.756-.5,3.225,1.182,9.368,2.953,12.225C10.675,54.7,10.75,55.515,11,56.162h0c1.046,1.292,5.907.3,7.533-.124,4.159-1.1,6.854-3.136,6.522-4.041l0-.008-1.17-3.206A77.766,77.766,0,0,0,26.033,32.41V32.4C26.048,31.813,24.552,26.74,23.165,25.656Zm.414,19c-.249,1.344-.532,2.7-.88,4a22.461,22.461,0,0,0,1.123,3.406C22.54,53.518,20.107,54.4,18.232,54.9c-2.715.711-5.406.883-6.234.575-1.266-4.287-6.665-8.968-7.588-17.726-.337-3.113,1.684-7.576-.354-13.54-.165-.83-.58-1.031.33-1.04a2.689,2.689,0,0,1,2.274,1.818c.082,5.128.332,7.277-.248,9.833a.161.161,0,0,0,.3.106c1.91-3.98.808-10.127,1.23-15.044.123-1.6-.167-9.344.49-11a1.047,1.047,0,0,1,1.58-.432c.727.584.577,1.744.753,3.983.2,2.636.564,4.4.627,6.148.036,1.722.185,8.185,1.51,9.316.164.138.446-.012.277-.315-.354-.638-.575-6.153-.6-6.75,1.505-.839,2.238-.687,2.809,1.185.264,1.7.837,4.927,1.7,6.406a.2.2,0,0,0,.362-.167c-.175-.66-.263-1.594-.716-5.353.506-.143,1.185-.309,1.6.01.965.717,1.608,3.786,2.431,5.991a4.108,4.108,0,0,0,.7,1.294c.122.117.346-.01.232-.216a18.442,18.442,0,0,1-.73-3.372h0c.883-.546,1.537-.211,2.06.682a27.254,27.254,0,0,1,1.824,5.167A81.14,81.14,0,0,1,23.58,44.658ZM5.06,17.56A.589.589,0,0,0,5.6,16.512,8.072,8.072,0,0,1,1.178,9.2a8.116,8.116,0,0,1,16.232.2,8.076,8.076,0,0,1-3.893,6.821.589.589,0,0,0,.614,1A9.291,9.291,0,1,0,0,9.182,9.24,9.24,0,0,0,5.06,17.56Z" transform="translate(0.5 0.501)" fill="#fff" stroke="#fff" stroke-width="1"/>
</svg>
