<svg id="Layer_1" data-name="Layer 1" width="3840" height = "1080" xmlns="http://www.w3.org/2000/svg" viewBox="0 0 3840 1080"><defs><style>.cls-1{fill:#004a47;opacity:0.8;}</style></defs><path id="_1900_HKI" data-name="1900 HKI" class="cls-1" d="M1969.36,524.65l22.79,84.23-11.89-2-11.89-4-9.91-4-7.92-6-7.93-7.93-5.95-4-5.94-2v-4l2-4,4-4,2-6v-4l-2-9.91-5.94-5.94-6-2ZM1903,614.82l2-5.94v-4l-2-5.94v-4l1.25-6.25-39.89,17.15-2,2-1,2.09s-.93,65.29,0,64.53l4-1.8,7.93-8.34,5.94-7.93,6-2,13.87-6,9.91-9.91-6-15.85Zm209.09-224.66-10.78-8.56-11.13,14.32-33.4-28.63-4.77,4.77,33.4,28.63-3.18,6.36,6.36,4.77L2087,423l-1.59,3.18-22.27-19.08-28.63,35L2044,450l15.9,14.32,12.72,14.31,9.55,15.9,6.36,15.91,2.2,14.22-.51,13.87h0l-4,6-4,4-82.24,60.45H2008l5.94,7.92,7.93,6,5.95,2,9.9-2,9.91-4,9.91-2,13.87-4h29.73l7.93-6,2-7.92-2-9.91-4-7.93-4-9.91V557.35l-2-11.89-2-11.89v-6.79l-3,5.8-4,5.94,6.94-11.74v-9.07l-2-15.85V486l-2-15.86-2-17.83-2-9.91V430.52l2-7.93,6-5.95,13.87-17.83,4.82-5.63,7.07-8.24-2.58-3.34ZM730.75,443.4,683.19,483l-6-5.94-3.68-1L605,484.87l-.61-4.12,3.36-.56-.52-3.14-3.31.55-3.14.53-3.09.51.52,3.14,3-.51.59,4-6.81.87,1.1,15.76-10.59.57.17,3.17,10.62-.57,1,13.2,5.68,1.42,7.92,2,4,2,5.94,4,6,2,7.93,2h7.92l7.93-2,7.93-2,5.94-2,5.95-2,9.91-5.95,5.94-5.94,4-5.95,4-7.92,2-5.95,2-5.94,4-4,4-4,5.95-4,7.92-4,5.95-5.94,4-4,4-2,5.95-4,2-9.91,2-5.95,4-5.94,4-5.95v-9.91c2,2-2-4-2-4ZM2758.11,485l-2-21.8v-11.9l-2-11.89v-9.9l-4-15.86-2-4-2-4-4-2-120.89-4v11.89l-21.8-2V399.8h-6.72l-3.92-4.75-3.52-4.17h-3.9v2.49h2.74l2.77,3.28,2.64,3.2v31.66l-15-16.42,4.59-3.42-1.89-2.56-4.86,3.62-1.7-1.86,2.51-10.05,1.69.24.57-3.93-6.36-.93-.58,3.94,1.52.22-1.93,7.7-.31-.33-2-4v-4l9.91-23.78-4-2-9.91,23.78-4,2h-4l-5.95-2-4-2-2-2H2542v-.33l1.62,1.16,2.77-3.89-11.13-8-2.78,3.88,4.75,3.4v3.61l-33.79-.87,4,13.87,4,13.88,5.95,13.87,7.92,15.85,7.93,11.89,4,5.95,4,4h5.94l5.95-4,4-4,2-5.95v-4l4-5.95,4-4,6-4,4-2,4,2,2,4,4,5.94,5.94,9.91,4,7.93,4,5.94,4,2h4l2-4,2-5.94,4-5.95,7.93-7.92,5.95-4,5.94-2h5.95l7.92,4,9.91,5.95,7.93,4,5.95,5.95,9.9,4,9.91,2,11.89,2,15.86,5.95,9.91,7.93,4,5.94,11.89,15.86,5.95,9.91,7.92,9.9,6,9.91,5.94,9.91,20.81-12.88ZM1823.09,622l-.9-2.72,1.54-.85-1.55-2.78-2.64,1.47-1.2.66-1.89,1,1.54,2.78,1.37-.76.78,2.37-1.39.57-57.47,17.84-17.69,10.31-2.94-4.42-4,2.65,2.78,4.18-25.75,15h-7.92l-1,.13.43-3.16-1.59-1.59-31.81,3.18v-8h-9.54l-.13,15.34H1628.5l-.69-.47,3-3.87L1627,668l-3.08,4-56.89-38.35,7.93-13.87,5.94-11.89-51.52-39.64,5.94-7.93-2-4-33.69-25.76-4-2-3.32,3.47,1.34,2.48,31.71,23.78v4L1503.65,592h-6L1470,570.23v-4l4-17.84,2-2h5.95l2-4-4-4-55.49-11.89v7.93l-4,15.85-43.23-12.35.43-3.38-6.32-.79-.3,2.4-13.77-3.93-.42-.12,1.6-5.21-4.57-1.4-1.62,5.3-14.62-4.18,2.36-3.57-1.81-1.19,6.41-8.54-3.82-2.86-6.57,8.77-1.94-1.28-2.14,3.23-.83-.62-6.94-9.78,14-10-2.06-2.84-13.75,10.27L1310,493.55l4-3.8-1.59-1.59-4.17,2.94-22.6-31.85-7.93-5.94-53.51-31.71-4.41-1.22,6.74-24.46h-3.18s-7.62,22.87-7.22,23.44l-31.59-8.75,3.82-14.69h-3.18l-3.92,13.79-55.68-15.42,3.93-14.28h-3.18l-4.27,13.3-26.67-7.38V372.06h-2.67l-.37,13.64-66.48-5,.26-7.06H1023l-.49,6.81-44.83-3.37,5.38-5-36.4-3.18-.11,5.88-9.65-.72-22.37,5.9L910,362.52h-3.18L911,380.85l-22.5,5.94-3.93-14.73h-3.18l4.2,15.5L794.9,411.49l4.22,3.17,6,2h21.8l9.91-2,5.94-2,7.93-4,7.93-4,5.94-4,6-4,5.94-2,7.93-2h11.89l5.95,5.95,4,2,5.94,2H920l7.93-2,7.93-4,2-5.95,2-5.94,2-2,4-2h13.88l5.94,2h4l2,5.95v4l4,4,6,2h23.78l5.94,2h4l7.92,2H1035l4,2,2,2,2,4,4,2h4l4,2,2,2h7.93l4-2,4-2,2-2,4-4,4-2h2l4-2,4-2,2-2h2l4,2,6,4,4,4,7.93,5.94,5.94,5.95,5.95,4,6,5.95h11.89l2-4,4-2h4l2,4,5.94,4,6,4,2,4v5.94l5.94,2,6,2h4l4-2,4-2h2l4-2,2-4h5.94l6,2h11.89l7.93,4,4,2H1251l5.94,2,4,2,2,2,2,2,4,4,6,4,2,5.94v7.93l2,4,6,5.95,2,4,4,4,4,4,2,4,2,2,4,4,4,5.94,2,5.95,4,4,4,6,5.94,5.94,4,4,2,4,2,4,2,4,6,4,4,7.93,4,4h6l5.94,2h6l4,2,4-2h13.87l4-2,9.91-2,9.91,2,9.91,2,11.89,4,9.91,4,9.91,4,5.94,4L1465,593l7.93,6,7.92,5.94,2,4v8l2,1.93h1.77l2.19-2,2-2,6-2h13.87l4-2,4-2,4-4,6-4h2l2,2,2,2,4,4,2,2,4,4v2.55l-5.94,5.38-4,4-4,5.95,2,4h7.7l8.16,2,5.94,4,4,2,4,2,5.94,4,4,2,4,4,2,2,7.93,6,5.94,4,6,4,6,4,4,4,4,2h9.91l6-2h4l6,2,5.94,4h26.89l4.82,4,7.93-2,4-2,6-2,4-2,5.94-2,7.93-5.94,6-2,7.92-2h6l5.94-4,4-2,4-2,13.87,4,13.88-9.91,5.94-7.93v-7.93H1790l19.82-5.94,9.91-7.93,7.93-2,11.89,17.84-2,11.89,4,17.83,4,4h10.57l.33-66.39h-4Zm93.7-67-1.59-3.18-1.59-4.77,1.25-3.53-5.84,2.63-7.07,6.37a3.45,3.45,0,0,0-.44,4.47,2.71,2.71,0,0,0,2.21,1.19,2.61,2.61,0,0,0,1.76-.7l4.88-4.39,1.49,2.62.17,5.65-.2,1-2.24-.5.81-1.66-2.92-1.25c-.14.29-2.06,4.14-3.24,6.49l2.85,1.42c.39-.77.73-1.46,1-2.07l3.09.69-.77,3.85-1.5,4.23-4-.89c.67-2.91.69-3.05.7-3.1l-3.14-.52c-.07.38-1.22,5.37-2,8.63l3.1.72.61-2.63,3.37.75-.35.77v6.36l8-8,3.18-4.78,3.18-9.54-1.59-3.18Zm50.51-51.61a3.17,3.17,0,0,0,4.44-.49l6.06-7.57,3.9-2.61,5.74-1.43,69.87-12.71a3.16,3.16,0,0,0-1.13-6.21l-70,12.73-7.1,1.76-5.63,3.76-6.67,8.33A3.16,3.16,0,0,0,1967.3,503.35Z"/></svg>