<svg id="_1945" data-name="1945"  width="3840" height = "1080" xmlns="http://www.w3.org/2000/svg" xmlns:xlink="http://www.w3.org/1999/xlink" viewBox="0 0 3840 1080"><defs><style>.cls-1{fill:none;}.cls-2{clip-path:url(#clip-path);}.cls-3{opacity:0.8;}.cls-4{fill:#004a47;}</style><clipPath id="clip-path"><polygon class="cls-1" points="3840 1080 0 1080 0 0 243.3 0 1800.33 0 1814.26 0 3840 0 3840 1080"/></clipPath></defs><g class="cls-2"><g id="_1900_HKI_Mask" data-name="1900 HKI Mask" class="cls-3"><polygon class="cls-4" points="1993 610.1 1995.5 610.1 2003.54 610.1 2009.57 618.14 2017.61 624.17 2023.64 626.18 2033.69 624.17 2043.74 620.15 2053.79 618.14 2067.86 614.12 2073.89 614.12 2087.96 614.12 2098.01 614.12 2106.05 608.09 2108.06 600.05 2106.05 590 2102.03 581.96 2098.01 571.91 2098.01 557.85 2096 545.78 2094.61 537.45 2002.55 603.39 1993 610.1"/><polygon class="cls-4" points="1853.96 677.02 1850.79 678.44 1838.73 678.44 1834.71 674.42 1830.69 656.33 1832.7 644.27 1820.64 626.18 1812.6 628.19 1802.55 636.23 1782.45 642.26 1770.39 642.26 1770.39 650.3 1764.36 658.34 1750.29 668.39 1736.22 664.37 1732.2 666.38 1728.18 668.39 1722.15 672.41 1716.12 672.41 1708.08 674.42 1702.05 676.43 1694.01 682.46 1687.98 684.47 1683.96 686.48 1677.93 688.49 1673.91 690.5 1665.87 692.51 1660.98 688.49 1652.96 688.49 1648.95 688.49 1641.73 688.49 1633.71 688.49 1627.68 684.47 1621.65 682.46 1617.63 682.46 1611.6 684.47 1607.58 684.47 1601.55 684.47 1597.53 682.46 1593.51 678.44 1587.48 674.42 1581.45 670.4 1575.42 666.38 1567.38 660.35 1565.37 658.34 1561.36 654.32 1557.34 652.31 1551.31 648.29 1566.34 633.64 1633.2 676.62 1644.35 679.81 1695.29 673.44 1728.72 663.88 1765.34 640 1824.25 619.31 1857.68 606.57 1853.96 677.02"/><polyline class="cls-4" points="1858.83 674.84 1860.86 604.98 1897.73 592.44 1897.02 596.03 1897.02 600.05 1899.03 606.08 1899.03 610.1 1897.02 616.13 1897.02 624.17 1903.05 640.25 1893 650.3 1878.93 656.33 1872.9 658.34 1866.87 666.38 1858.83 674.84"/><polygon class="cls-4" points="604.76 511.05 625.22 507.41 663.66 499.91 682.77 495.13 687.54 495.13 690.73 496.72 698.69 503.09 743.26 463.29 744.86 460.11 760.78 428.27 764.26 424.19 762.25 430.22 764.29 433.46 764.26 438.26 764.26 444.29 760.24 450.32 756.22 456.35 754.21 462.38 752.2 472.43 746.17 476.45 742.15 478.46 738.13 482.48 732.1 488.51 724.06 492.53 718.03 496.55 714.01 500.57 709.99 504.59 707.98 510.62 705.97 516.65 701.95 524.69 697.93 530.72 691.9 536.75 681.85 542.78 675.82 544.79 669.79 546.8 661.75 548.81 653.71 550.82 645.67 550.82 637.63 548.81 631.6 546.8 625.58 542.78 621.55 540.77 615.11 532.54 607.94 525.38 604.76 511.05"/><polyline class="cls-4" points="1963.34 604.07 1975.4 608.09 1987.46 610.1 1993 610.1 1993 601.75 1965.93 520.6 1940.31 531.28 1938.3 527.26 1935.3 528.76 1937.21 532.57 1927.73 536.52 1919.13 539.75 1925.15 541.76 1931.18 547.79 1933.19 557.85 1933.19 561.87 1931.18 567.89 1927.16 571.91 1925.15 575.93 1925.15 579.95 1931.18 581.96 1937.21 585.98 1945.26 594.02"/><polyline class="cls-4" points="1102.28 392.27 1102.93 379.23 1106.28 379.4 1105.62 392.59 1112.61 393.24 1128.89 397.21 1132.36 385.94 1135.57 386.93 1132.15 398 1190.36 412.18 1193.13 399.32 1196.41 400.03 1193.62 412.97 1227.84 421.31 1233.77 399.33 1237.01 400.2 1231.1 422.1 1236.79 423.49 1243.16 426.67 1289.33 456.92 1295.7 464.88 1316.95 494.48 1321.4 491.16 1323.41 493.85 1318.9 497.21 1330.61 513.51 1347.11 501.22 1349.11 503.91 1332.57 516.24 1339.58 526 1342.3 523.54 1343.8 524.66 1352.51 513.84 1355.12 515.95 1346.48 526.67 1346.77 526.89 1346.25 529.27 1360.97 534.93 1362.51 535.32 1366.29 518.85 1369.55 519.6 1365.76 536.15 1383.69 540.73 1386.4 528.91 1389.67 529.66 1386.94 541.56 1435.79 554.04 1440.57 530.16 1443.75 526.97 1491.51 539.71 1493.11 542.89 1493.11 546.08 1491.51 547.67 1489.92 547.67 1485.15 568.36 1481.96 571.55 1480.37 571.55 1507.43 593.84 1532.91 562 1502.1 536.95 1500.98 534.71 1502.1 532.48 1504.34 531.36 1507.43 531.75 1539.27 557.22 1540.1 559.29 1539.27 562 1531.31 571.55 1540.87 579.51 1544.05 579.51 1571.12 601.8 1572.27 606.57 1569.52 614.53 1577.48 619.31 1574.3 625.68 1566.34 633.64 1551.31 648.29 1543.27 644.27 1537.23 640.25 1528.96 638.24 1524.68 638.24 1521.16 638.24 1519.15 634.22 1523.17 628.19 1527.19 624.17 1533.21 618.72 1533.21 616.13 1529.2 612.11 1527.19 610.1 1523.17 606.08 1521.16 604.07 1519.15 602.06 1517.14 602.06 1511.11 606.08 1507.09 610.1 1503.07 612.11 1499.05 614.12 1493.02 614.12 1484.98 614.12 1478.95 616.13 1476.94 618.14 1474.72 620.15 1472.92 620.15 1470.91 618.2 1470.91 615.37 1470.91 610.1 1468.9 606.08 1460.86 600.05 1452.82 594.02 1444.78 587.99 1438.75 583.97 1428.7 579.95 1418.65 575.93 1406.59 571.91 1396.54 569.9 1386.49 567.89 1376.44 569.9 1372.42 571.91 1368.4 571.91 1362.37 571.91 1358.35 571.91 1354.33 573.92 1350.31 571.91 1344.28 571.91 1338.25 569.9 1332.22 569.9 1328.2 565.88 1324.18 557.85 1318.15 553.83 1316.14 549.8 1314.13 545.78 1312.12 541.76 1308.1 537.75 1302.07 531.72 1298.05 525.69 1294.03 521.67 1292.02 515.64 1288 509.61 1283.98 505.59 1281.97 503.58 1279.96 499.56 1275.94 495.54 1271.92 491.52 1269.91 487.5 1263.88 481.47 1261.87 477.45 1261.87 469.41 1259.86 463.38 1253.83 459.36 1249.81 455.34 1247.8 453.33 1245.79 451.32 1241.77 449.31 1235.74 447.3 1231.72 447.3 1225.69 447.3 1221.67 445.29 1213.63 441.27 1209.61 441.27 1205.59 441.27 1201.57 441.27 1195.54 439.26 1189.51 439.26 1187.5 443.28 1183.48 445.29 1181.47 445.29 1177.45 447.3 1173.43 449.31 1169.41 449.31 1163.38 447.3 1157.36 445.29 1157.36 439.26 1155.35 435.24 1149.32 431.22 1143.29 427.2 1141.28 423.18 1137.26 423.18 1133.24 425.19 1131.23 429.21 1127.21 429.21 1123.19 429.21 1119.17 429.21 1113.14 423.18 1107.11 419.16 1101.08 413.13 1095.1 412.35 1088.73 415.53 1082.37 420.31 1076 423.49 1071.22 423.49 1064.85 421.9 1060.08 418.71 1056.89 415.53 1052.12 410.75 1050.53 409.16 1044.16 407.57 1040.97 407.57 1037.79 409.16 1034.85 410.62 1026.81 408.61 1022.79 408.61 1016.76 406.6 1010.73 406.6 1006.71 406.6 1000.68 406.6 998.67 406.6 992.64 406.6 986.61 404.59 982.59 400.57 982.59 396.55 980.48 391.65 976.56 390.52 970.53 390.1 966.51 390.1 960.48 390.1 956.46 390.1 952.44 390.52 950.43 392.53 948.42 398.56 946.41 404.59 938.37 408.61 935.9 410.75 929.53 412.35 923.16 412.35 916.79 410.75 910.99 410.12 906.97 410.12 898.93 410.12 890.89 412.13 884.86 414.14 878.83 418.16 872.8 422.18 864.76 426.2 856.72 430.22 850.69 432.23 840.64 434.24 826.57 434.24 818.53 434.24 812.5 432.23 804.46 426.2 814.91 425.08 934.31 388.47 942.27 386.87 992.83 386.87 1021.96 387.55 1021.96 381.54 1025.31 381.54 1025.31 387.63 1061.67 388.47"/><rect class="cls-4" x="918.04" y="373.72" width="3.35" height="20.22" transform="translate(-60.77 205.36) rotate(-12.34)"/><polygon class="cls-4" points="2055.26 381.26 2081.55 403.79 2079.04 408.8 2084.05 412.55 2083.19 418.58 2087.96 421.17 2093.99 415.14 2108.06 397.05 2112.4 391.99 2109.09 388.77 2102.55 395.5 2094.07 388.77 2085.3 400.03 2059.01 377.5 2046.31 367.09 2042.96 371.56 2055.26 381.26"/><polygon class="cls-4" points="2058.73 404.58 2035.98 429.86 2037.58 433.04 2064.64 456.92 2072.6 468.07 2078.97 480.8 2080.56 490.36 2082.15 501.5 2083.74 522.2 2085.34 534.93 2088.62 537.45 2094.61 537.45 2093.99 533.73 2093.99 517.65 2091.98 501.57 2091.98 497.55 2091.98 485.49 2089.97 469.41 2087.96 451.32 2085.95 441.27 2085.95 429.21 2087.96 421.17 2058.73 404.58"/><path class="cls-4" d="M1970,504.58a3.9,3.9,0,0,1-3.45-5.74l3.63-6.86,4-3.83,4.13-2.6,74-17.82a3.91,3.91,0,1,1,1.83,7.6l-72.77,17.52-2.39,1.51-2.53,2.41-3,5.73A3.91,3.91,0,0,1,1970,504.58Z"/><polygon class="cls-4" points="2755.58 477.62 2753.98 472.84 2749.21 404.39 2747.62 401.2 2746.02 399.61 2679.28 399.61 2673.4 399.61 2673.21 397.26 2657.56 397.26 2657.18 399.61 2596.11 399.61 2596.11 392.85 2582.05 393.24 2582.05 402.69 2572.64 402.76 2572.64 398.38 2569.28 398.38 2569.28 402.78 2567.72 402.8 2564.53 398.02 2570.9 378.91 2567.72 377.32 2559.76 398.02 2556.57 399.61 2542.25 394.83 2542.14 394.8 2542.8 392.5 2546.99 394.76 2549.11 390.82 2534.59 383 2532.47 386.94 2538.77 390.33 2537.9 393.38 2537.47 393.24 2529.73 391.69 2531.25 386.39 2529.1 385.78 2527.53 391.25 2521.55 390.06 2510.71 389.26 2504.83 389.26 2508.02 398.81 2511.2 406.77 2517.57 422.69 2527.27 442.6 2535.08 454.54 2544.18 464.94 2547.82 465.68 2552.59 465.68 2558.96 460.9 2563.74 456.13 2565.33 448.17 2566.92 443.39 2570.11 440.21 2574.88 438.62 2579.66 438.62 2584.43 441.8 2586.7 446.57 2589.21 451.35 2592.39 456.13 2598.76 465.68 2603.54 475.23 2605.13 476.82 2606.99 476.82 2608.32 475.23 2613.09 470.45 2619.46 460.9 2624.24 456.13 2629.01 452.94 2636.97 448.17 2641.5 446.57 2646.52 446.57 2652.89 448.17 2659.26 451.35 2667.22 456.13 2675.18 460.9 2691.1 467.27 2709.54 470.45 2718.16 470.45 2724.53 472.05 2729.31 475.23 2738.86 484.78 2750 495.93 2754.78 503.89 2757.96 507.07 2762.74 515.03 2765.92 518.22 2772.29 526.18 2780.25 537.32 2781.23 539.04 2790.6 531.75 2792.19 530.16 2755.58 477.62"/></g></g></svg>