<svg id="_1945"  width="3840" height = "1080" data-name="1945" xmlns="http://www.w3.org/2000/svg" xmlns:xlink="http://www.w3.org/1999/xlink" viewBox="0 0 3840 1080"><defs><style>.cls-1{fill:none;}.cls-2{clip-path:url(#clip-path);}.cls-3{opacity:0.8;}.cls-4{fill:#007d74;}</style><clipPath id="clip-path"><polygon class="cls-1" points="3840 1080 0 1080 0 0 243.3 0 1800.33 0 1814.26 0 3840 0 3840 1080"/></clipPath></defs><g class="cls-2"><g id="_1945_HKI_Mask" data-name="1945 HKI Mask" class="cls-3"><polyline class="cls-4" points="607.94 525.38 603.8 525.38 599.72 525.38 593.62 528.56 588.84 530.16 584.21 530.16 581.68 529.36 578.49 527.77 573.72 529.36 568.94 532.54 564.16 535.73 562.57 538.91 559.39 543.69 557.79 546.87 554.61 548.46 546.65 550.06 541.88 550.06 538.69 548.46 537.1 546.87 535.51 548.46 532.32 551.65 527.55 554.83 523.9 554.83 517.19 554.83 513.89 554.83 488 562.26 485.36 552.44 587.25 514.24 604.76 511.05 607.94 525.38"/><polygon class="cls-4" points="2504.83 389.26 2496.87 357.42 2490.5 340.86 2507.22 335.93 2521.55 378.91 2510.71 389.26 2504.83 389.26"/><polygon class="cls-4" points="2781.23 539.04 2786.62 548.46 2794.58 556.42 2799.36 559.61 2807.32 562.79 2821.64 570.75 2825.63 562 2806.52 549.26 2790.6 531.75 2781.23 539.04"/><path class="cls-4" d="M2883.26,625.52l6.84,13.69,4.78,3.18,9.55,4.78,14.33,6.37,8,3.18,4.77,4.78,11.15,4.77h11.14l8-8c1.59-1.59,6.37-11.14,6.37-11.14l3.18-8-1.59-4.78-42.42-8.91-4.54,12.89-6.37-1.59-4.78-4.78-3.18-4.77-1.59-4.78-8-6.37Z"/><polyline class="cls-4" points="1909.08 543.77 1848.82 565.35 1860.86 604.98 1897.73 592.44 1899.03 585.98 1901.04 579.95 1905.06 573.92 1907.07 567.89 1909.08 561.87 1909.08 557.85 1903.05 551.82 1903.05 549.8 1905.06 547.79"/><polygon class="cls-4" points="2072.14 388.75 2125.14 323.19 2131.51 313.64 2190.41 284.99 2236.93 275.69 2241.35 299.31 2250.91 297.72 2336.88 277.02 2340.06 277.02 2386.23 288.17 2387.9 301.08 2379.86 305.68 2370.31 308.87 2357.57 313.64 2346.43 318.42 2336.88 323.19 2331.16 324.69 2313.07 324.69 2296.99 326.7 2282.93 328.71 2268.86 332.73 2254.79 336.75 2244.74 338.76 2236.7 340.77 2226.65 340.77 2214.59 340.77 2206.55 338.76 2196.5 336.75 2188.46 334.74 2178.41 332.73 2170.37 332.73 2162.33 336.75 2154.29 342.78 2144.24 354.84 2120.12 382.98 2112.4 391.99 2109.09 388.77 2102.55 395.5 2094.07 388.77 2085.3 400.03 2072.14 388.75"/><path class="cls-4" d="M2058.73,404.58,2069,393s12.08,10.62,12.6,10.8-2.51,5-2.51,5l5,3.75-.86,6Z"/><polygon class="cls-4" points="1844.94 566.77 1830.61 571.55 1777.11 590.5 1775.29 580.53 1772 581.22 1773.9 591.63 1754.2 598.61 1711.07 602.99 1711.07 598.41 1705.48 598.41 1705.48 603.55 1644.35 609.76 1583.85 604.98 1582.26 606.57 1577.48 619.31 1574.3 625.68 1566.34 633.64 1633.2 676.62 1644.35 679.8 1695.29 673.44 1728.72 663.88 1765.34 640 1824.25 619.31 1857.68 606.57 1844.94 566.77"/><polygon class="cls-4" points="1212.05 404.5 1208.78 403.79 1206.14 416.02 1209.4 416.82 1212.05 404.5"/><polygon class="cls-4" points="1186.35 397.79 1183.07 397.08 1180.35 409.74 1183.6 410.53 1186.35 397.79"/><polygon class="cls-4" points="1172.94 395.56 1169.66 394.85 1167.15 406.53 1170.4 407.32 1172.94 395.56"/><polygon class="cls-4" points="1162.88 389.97 1159.61 389.26 1156.45 403.92 1159.7 404.71 1162.88 389.97"/><polygon class="cls-4" points="1147.24 392.2 1143.96 391.5 1142.04 400.41 1145.3 401.2 1147.24 392.2"/><polygon class="cls-4" points="1114.23 393.64 1117.45 374.13 1114.14 373.58 1110.93 393.08 1112.61 393.24 1114.23 393.64"/><polygon class="cls-4" points="1097.34 376.05 1093.99 375.88 1093.21 391.42 1096.55 391.74 1097.34 376.05"/><polygon class="cls-4" points="1065.54 378.19 1062.19 378.19 1062.19 388.51 1065.54 388.83 1065.54 378.19"/><polygon class="cls-4" points="1266.3 430.36 1263.43 428.62 1258.53 436.74 1261.33 438.58 1266.3 430.36"/><polygon class="cls-4" points="1277.47 440.41 1274.61 438.68 1270.88 444.84 1273.69 446.68 1277.47 440.41"/><polygon class="cls-4" points="1290.66 458.59 1294.4 452.88 1291.6 451.04 1288.22 456.2 1289.33 456.92 1290.66 458.59"/><polygon class="cls-4" points="1292.98 435.9 1290.19 434.05 1279.36 450.39 1282.16 452.23 1292.98 435.9"/><polygon class="cls-4" points="999.24 380.5 995.89 380.5 995.89 386.94 999.24 387.02 999.24 380.5"/><polygon class="cls-4" points="969.07 385.05 976.81 385.3 976.95 380.85 955.75 380.18 955.61 384.62 963.48 384.88 963.48 386.87 969.07 386.87 969.07 385.05"/><polygon class="cls-4" points="1294.79 463.75 1308.18 463.75 1321.32 454.82 1323.39 454.82 1324.42 456.49 1323.75 458.59 1315.48 464.31 1315.48 465.43 1316.6 466.55 1317.72 466.55 1325.54 460.96 1327.78 459.84 1330.01 460.96 1330.01 462.48 1328.89 464.31 1322.19 468.78 1322.19 471.01 1323.31 473.25 1323.31 474.37 1318.84 477.72 1316.6 476.6 1314.11 477.72 1312.13 479.95 1311.01 482.19 1310 484.81 1294.79 463.75"/><polygon class="cls-4" points="1439.77 534.17 1432.26 531.92 1431.14 537.5 1434.49 538.62 1430.21 552.61 1435.79 554.04 1439.77 534.17"/><polygon class="cls-4" points="1418.95 549.74 1420.53 544.59 1423.73 545.57 1422.2 550.57 1418.95 549.74"/><polygon class="cls-4" points="1244.58 427.61 1246.67 424.15 1249.54 425.89 1247.39 429.45 1244.58 427.61"/><polyline class="cls-4" points="1338.26 524.16 1343.13 520.06 1340.97 517.5 1336.29 521.43"/><line class="cls-4" x1="1338.25" y1="524.16" x2="1336.29" y2="521.43"/><polygon class="cls-4" points="712.59 490.68 707.51 485.61 709.88 483.24 715.09 488.45 712.59 490.68"/><polygon class="cls-4" points="706.24 496.35 700.94 491.06 698.57 493.43 703.73 498.59 706.24 496.35"/><polygon class="cls-4" points="666.23 499.26 666.23 493.37 670.7 493.37 670.7 498.15 666.23 499.26"/><polygon class="cls-4" points="650.59 502.46 650.59 497.83 655.06 497.83 655.06 501.59 650.59 502.46"/></g></g></svg>