<svg id="_1985" data-name="1985" width="3840" height = "1080" xmlns="http://www.w3.org/2000/svg" xmlns:xlink="http://www.w3.org/1999/xlink" viewBox="0 0 3840 1080"><defs><style>.cls-1{fill:none;}.cls-2{clip-path:url(#clip-path);}.cls-3{opacity:0.8;}.cls-4{fill:#004a47;}</style><clipPath id="clip-path"><polygon class="cls-1" points="3840 1080 0 1080 0 0 2069.95 0 2098.12 0 3840 0 3840 1080"/></clipPath></defs><g class="cls-2"><g id="_1900_HKI_mask" data-name="1900 HKI mask" class="cls-3"><polyline class="cls-4" points="2529.94 387.5 2531.47 382.15 2529.3 381.53 2527.72 387.06 2521.68 385.85 2510.73 385.05 2505.09 385.05 2507.46 392.17 2510.65 400.15 2517.04 416.1 2526.76 436.05 2534.59 448.02 2543.71 458.44 2547.35 459.19 2552.14 459.19 2558.52 454.4 2563.31 449.61 2564.91 441.63 2566.5 436.85 2569.69 433.65 2574.48 432.06 2579.26 432.06 2584.05 435.25 2586.32 440.04 2588.84 444.82 2592.03 449.61 2598.41 459.19 2603.2 468.76 2604.8 470.36 2606.66 470.36 2607.99 468.76 2612.77 463.97 2619.16 454.4 2623.94 449.61 2628.73 446.42 2636.71 441.63 2641.25 440.04 2646.28 440.04 2652.66 441.63 2659.05 444.82 2667.03 449.61 2675 454.4 2690.96 460.78 2709.44 463.97 2718.09 463.97 2724.47 465.57 2729.26 468.76 2738.83 478.33 2750 489.5 2754.78 497.48 2757.98 500.67 2762.76 508.65 2765.95 511.84 2772.34 519.82 2780.32 530.99 2782.18 534.25 2790.33 526.69 2795 521.88 2760.28 474.21 2757.8 461.35 2754.3 439.23 2750.11 401.21 2748.99 398.58 2746.26 397.37 2680.14 397.77 2675.03 395.5 2674.84 393.13 2659.04 393.13 2658.65 395.5 2596.97 395.5 2596.97 388.67 2582.77 389.06 2582.77 398.6 2573.27 398.67 2573.27 394.25 2569.88 394.25 2569.88 398.7 2568.3 398.71 2565.09 393.89 2571.52 374.6 2568.3 372.99 2560.26 393.89 2557.05 395.5 2542.58 390.67 2542.47 390.64 2543.14 388.32 2547.37 390.6 2549.51 386.62 2534.84 378.72 2532.7 382.7 2539.07 386.13 2538.18 389.21"/><polygon class="cls-4" points="1928.22 531.75 1966.51 515.79 1991.36 595.41 1991.36 603.94 1985.73 603.94 1973.64 601.92 1961.55 597.89 1951.48 593.86 1943.42 587.82 1935.37 579.76 1929.32 575.73 1923.28 573.72 1923.28 569.69 1925.29 565.66 1929.32 561.63 1931.34 555.59 1931.34 551.56 1929.32 541.49 1923.28 535.44 1917.5 533.52 1928.22 531.75"/><polyline class="cls-4" points="1854.63 669.79 1858.37 598.65 1895.32 586.08 1895.83 586.08 1895.08 589.84 1895.08 593.86 1897.09 599.91 1897.09 603.94 1895.08 609.98 1895.08 618.04 1901.12 634.15 1891.05 644.23 1876.94 650.27 1870.9 652.28 1864.86 660.34 1856.8 668.82 1854.63 669.79"/><polygon class="cls-4" points="752.29 418.22 737.53 445.26 733.28 452.57 690.25 490.25 684.22 483.24 680.25 481.82 675.52 482.46 656.31 485.77 617.5 493.34 600.95 495.88 603.36 521.3 608.78 528.22 618.93 534.3 625.02 536.33 633.13 538.36 641.25 538.36 657.49 534.3 669.66 530.25 679.81 524.16 685.89 518.07 689.95 511.98 694.01 503.87 698.07 491.69 706.19 483.57 712.28 479.51 720.39 475.45 730.54 465.31 734.6 463.28 740.69 459.22 742.72 449.07 744.75 442.99 752.86 430.81 752.86 424.72 752.29 418.22"/><polygon class="cls-4" points="1821.67 613.01 1762.64 633.75 1725.94 657.68 1692.44 667.25 1641.38 673.63 1630.22 670.44 1566.32 629.37 1574.03 621.66 1577.22 614.71 1569.24 609.92 1571.99 601.95 1570.84 597.16 1543.71 574.82 1540.52 574.82 1530.95 566.85 1538.93 557.27 1535.52 551.81 1503.61 526.28 1500.48 526.28 1498.55 527.75 1498.05 529.59 1498.3 531.52 1529.13 556.6 1503.61 588.51 1476.48 566.17 1475.04 563.68 1474.01 560.48 1479.29 541.44 1487.11 542.78 1489.25 540.64 1489.25 537.45 1486.87 534.72 1439.79 521.5 1436.6 524.69 1431.81 548.62 1340.06 524.45 1336.09 517.63 1291.41 455.41 1285.03 447.43 1237.83 418.7 1227.76 415.91 1096.99 384.4 1055.62 380.11 987.89 377.23 937.22 377.23 929.25 378.82 809.59 415.52 799.12 416.64 795.96 416.14 798.05 418.23 800.04 419.62 808.1 425.66 814.14 427.68 822.2 427.68 836.3 427.68 846.38 425.66 852.42 423.65 860.48 419.62 868.53 415.59 874.58 411.56 880.62 407.53 886.66 405.52 894.72 403.5 902.78 403.5 906.81 403.5 912.63 404.14 919.01 405.73 925.4 405.73 931.78 404.14 934.25 401.99 942.31 397.96 944.33 391.92 946.34 385.87 948.36 383.86 952.38 383.44 956.41 383.44 962.46 383.44 966.49 383.44 972.53 383.86 976.46 384.99 978.57 389.9 978.57 393.93 982.6 397.96 988.65 399.97 994.69 399.97 996.71 399.97 1002.75 399.97 1006.78 399.97 1012.82 399.97 1018.86 401.99 1022.89 401.99 1030.95 404 1033.9 402.54 1037.09 400.94 1040.28 400.94 1046.66 402.54 1048.26 404.14 1053.05 408.92 1056.24 412.11 1061.03 415.31 1067.41 416.9 1072.19 416.9 1078.58 413.71 1084.96 408.92 1091.34 405.73 1097.33 406.51 1103.37 412.56 1109.42 416.59 1115.46 422.63 1119.49 422.63 1123.52 422.63 1127.55 422.63 1129.56 418.6 1133.59 416.59 1137.62 416.59 1139.63 420.62 1145.68 424.65 1151.72 428.68 1153.74 432.7 1153.74 438.75 1159.78 440.76 1165.82 442.78 1169.85 442.78 1173.88 440.76 1177.91 438.75 1179.92 438.75 1183.95 436.73 1185.97 432.7 1192.01 432.7 1198.06 434.72 1202.09 434.72 1206.11 434.72 1210.14 434.72 1218.2 438.75 1222.23 440.76 1228.27 440.76 1232.3 440.76 1238.35 442.78 1242.38 444.79 1244.39 446.81 1246.4 448.82 1250.43 452.85 1256.48 456.88 1258.49 462.92 1258.49 470.98 1260.51 475.01 1266.55 481.05 1268.56 485.08 1272.59 489.11 1276.62 493.14 1278.64 497.17 1280.65 499.18 1284.68 503.21 1288.71 509.25 1290.72 515.3 1294.75 519.33 1298.78 525.37 1304.83 531.41 1308.85 535.44 1310.87 539.47 1312.88 543.5 1314.9 547.53 1320.94 551.56 1324.97 559.62 1329 563.65 1335.04 563.65 1341.09 565.66 1347.13 565.66 1351.16 567.68 1355.19 565.66 1359.22 565.66 1365.26 565.66 1369.29 565.66 1373.32 563.65 1383.39 561.63 1393.46 563.65 1403.54 565.66 1415.62 569.69 1425.69 573.72 1435.77 577.75 1441.81 581.78 1449.87 587.82 1457.93 593.86 1465.98 599.91 1468 603.94 1468 609.22 1468 612.05 1470.01 614.01 1471.82 614.01 1474.04 612 1476.06 609.98 1482.1 607.97 1490.16 607.97 1496.2 607.97 1500.23 605.95 1504.26 603.94 1508.29 599.91 1514.33 595.88 1516.35 595.88 1518.36 597.89 1520.38 599.91 1524.41 603.94 1526.42 605.95 1530.45 609.98 1530.45 612.58 1524.41 618.04 1520.38 622.07 1516.35 628.11 1518.36 632.14 1521.9 632.14 1526.18 632.14 1534.48 634.15 1540.52 638.18 1544.55 640.2 1548.58 642.21 1551.29 644.02 1554.62 646.24 1558.65 648.26 1562.68 652.28 1564.7 654.3 1572.75 660.34 1578.8 664.37 1584.84 668.4 1590.88 672.43 1594.91 676.46 1598.94 678.47 1604.99 678.47 1609.02 678.47 1615.06 676.46 1619.09 676.46 1625.13 678.47 1631.17 682.5 1639.21 682.5 1646.45 682.5 1650.47 682.5 1658.5 682.5 1663.41 686.53 1671.46 684.52 1675.49 682.5 1681.54 680.49 1685.57 678.47 1691.61 676.46 1699.67 670.42 1705.71 668.4 1713.77 666.39 1719.81 666.39 1725.86 662.36 1729.88 660.34 1733.91 658.33 1748.02 662.36 1762.12 652.28 1768.16 644.23 1768.16 636.17 1780.25 636.17 1800.39 630.13 1810.47 622.07 1818.52 620.05 1830.61 638.18 1828.6 650.27 1832.63 668.4 1836.65 672.43 1848.74 672.43 1851.39 671.24 1851.45 670.84 1855.17 600.24 1821.67 613.01"/><polygon class="cls-4" points="2093.05 530.71 2094.51 539.47 2096.53 551.56 2096.53 565.66 2100.55 575.73 2104.58 583.79 2106.6 593.86 2104.58 601.92 2096.53 607.97 2086.45 607.97 2072.35 607.97 2066.31 607.97 2052.21 612 2042.13 614.01 2032.06 618.04 2021.99 620.05 2015.94 618.04 2007.89 612 2001.84 603.94 1991.36 603.94 1991.36 603.78 2000.93 597.05 2092.76 531.27 2093.05 530.71"/><polygon class="cls-4" points="2111.88 384.23 2106.6 390.4 2092.5 408.53 2086.45 414.57 2084.44 422.63 2084.44 434.72 2086.45 444.79 2088.47 462.92 2090.48 479.04 2090.48 491.13 2090.48 495.15 2092.5 511.27 2092.5 527.39 2093.05 530.71 2087.18 530.97 2083.89 528.45 2082.3 515.68 2080.7 494.94 2079.11 483.77 2077.51 474.2 2071.13 461.44 2063.15 450.27 2036.03 426.34 2034.43 423.15 2057.21 397.84 2081.02 411.36 2081.64 404.96 2076.68 401.34 2079.26 396.07 2083.19 392.04 2092.39 380.25 2101.18 387.38 2107.79 380.36 2111.88 384.23"/></g></g></svg>