<svg id="_1985"  width="3840" height = "1080" data-name="1985" xmlns="http://www.w3.org/2000/svg" xmlns:xlink="http://www.w3.org/1999/xlink" viewBox="0 0 3840 1080"><defs><style>.cls-1{clip-path:url(#clip-path);}.cls-2{fill:#09b9a7;opacity:0.8;}</style><clipPath id="clip-path"/></defs><g class="cls-1"><path id="_1985_HKI_mask" data-name="1985 HKI mask" class="cls-2" d="M3466.92,970.51l.79,4.3-3.23,12.91L3459.64,999l-6.45,6.46-9.68,6.45-8.07,8.07-8.07,4.84-4.84,3.23-4.84,1.61-3.23,3.23-1.61,4.84h-1.62l-6.45-4.84-1.61-3.23v-4.84l-1.62-3.23,1.62-3.23-1.62-3.22-6.45-14.52-3.23-4.85-1.61-1.61-4.7-5.74-10.43-15-1.93-3.15-.63-2.34v-2.35l-1.67-3.29s-3.34-2-3.81-2.34-3.6-4.07-3.6-4.07L3359,949.3l-5.48-5.79-4.69-3.28-5.31-4.15-1.62-1.61-3.23,1.61H3337l-4.84-4.84-3.23-1.61h-6.45l-3.23-3.23L3316,928h-6.45l-4.84,3.22v1.62l-11.3,3.22-6.45,3.23-1.61,4.84h-4.84l-4.84,1.61h-3.23l-3.23-3.22h-1.61l-12.91,12.91-3.23,4.84-9.68,4.84-9.68,4.84-1.65.54-3.19,5.91-8.07,3.23-6.45,1.61h-9.68l-6.46,1.62-6.45,8.06-6.46,3.23-6.45,6.46H3174l-4.84,3.22H3166l-11.29,8.07-8.07-1.61-4.84,1.61h-6.45v-3.23l-8.07-4.84h-6.46V999l-1.61-4.84-3.23-3.23h-9.68l-4.84-8.06-1.61-1.62h-8.07l-1.61-1.61-3.23-6.46-1.61-4.84-3.23-3.22-3.23-4.84v-1.62l1.61-3.22-1.61-4.84-1.61-3.23v-3.23l-1.62-1.61-1.61-1.62,3.23-3.22h4.84l-1.62-1.62v-3.22l1.62-1.62,1.61-3.22h1.62l4.84,3.22h6.45V926.4h1.61l1.62,3.23v4.84l-1.62,4.84-1.61,4.84,3.23,3.23h4.84l3.23-1.62,1.61-1.61,1.61-3.23h1.62l4.84,3.23,1.61,1.61V949l-1.61,4.84-1.62,3.23v4.84l8.07,4.84,4.84,1.61,6.46-3.22h3.22l3.23-1.62,6.45-12.9,1.62-4.85,1.61-9.68v-3.22l-1.61-3.23-6.46,1.61-3.22,3.23h-3.23l-1.61-3.23-3.23-4.84-6.46-12.91-3.22-9.68-1.62-3.23v-3.22l4.84-3.23,3.23-11.29,3.23-8.07,3.23-4.84,1.61-4.84-1.61-6.46V855.4l3.22-1.61,3.23-1.61v-4.84l4.84-4.84,4.84-3.23-1.61-1.61V836l-1.62-3.22L3145,831.2l-1.62-3.23v-3.22l1.62-3.23-1.62-6.45v-3.23l8.07-4.84,1.62-3.23,1.61-9.68,4.84-9.68,1.61-1.62-3.22-4.84v-4.84l1.61-4.84,6.45-8.07,4.84-3.22,6.46-8.07,1.61-4.84-1.61-3.23,1.61-1.61h3.23L3187,736l3.23-6.45,1.61-3.23,1.61-1.61,1.62,1.61,4.84,3.23h1.61l1.62-3.23,3.22-1.61,1.62-1.62h4.84l1.61-1.61v-1.61l1.61-3.23,1.62-8.07-1.62-4.84v-6.45h-1.61l-6.45,6.45-1.62,1.61h-3.22l-4.85-1.61H3195l-17.75,4.84-6.46,1.61L3166,711.8h-4.84l-6.45-4.84-3.23-4.84-1.61-4.84-1.62-8.07-6.45-8.07-4.84-4.84-1.61-3.23-1.62-3.22-8.07-9.69-3.22-4.84v-1.61l-8.07-11.3-3.23-3.22v-6.46l1.62-4.84,8.06-9.68,3.23-1.61h1.61l6.46-4.84h3.23l6.45-1.62,3.23-1.61,4.84-4.84,3.23-1.61,4-2.34,2.35.79,2.83,7.07,1.41,7.07v18.38l5,5.32,6,6.18,4.54,5.46,4.24,1.41,5.65,5.66,4.55,6.15,3.82,3.09,3.62,5.25,3.56-3.18,2.83-2.83,3.86-3.43,5.54,1.27,2.65,10-3,2.31-3.4,1.12-.77,4.31,0,3.56,4,3.34,3.44-1.22,3.19-1.86,3.62,5,51.47,64.61-8.34,4.92-7.21,2.15-7.07,2.83-5.65,4.24-5.66,8.48-2.82,5.65-1.42,5.66v5.65l-2.82,5.66-4.25,4.24-5.65,4.24-5.65,5.65-12.73,12.72-5.65,12.73-5.65,9.89-1.42,4.24h9.9l12-.16,9-2,11.66-.36,6,5.65,6.57,8.23,4.24,5.65,8.48,1.42h6.59l40.06-31.1-13.44-47.28,14.85-16.33,2.83-1.41,2.83,1.41v4.24l13.57,53.66,5.83,19.32L3356,879l1.11,48,.3,7,.37,4,7.79,1.7,9.25-.85,3-.92,3.37-1.28,2.25-1.6,3.69-1.77,4.25-2,7.07-1.42,7.07,1.42,7.07,5.65,2,8.27,4.37,4.74.73,5.1,3.83,4.37-.18,5.29-.12,3.61-2.13,4-5.66,5.17-5.6,2.19-6.21,1.83-4.63,1-5.42,1.38-3.07.35,2.62,3.92,2.32,3.6,1.59,2.37,1.58,2.93,3,.71,6.56-.36,6.74-1.82,6.56-2.74,25.9-25.68,3.81-4.38,4.28-5.66ZM2974.36,520.35l-7-7.9-131.95.36a2,2,0,1,0,0,4l128.26-.35,7.75,6.64Zm-9.53,28.43c0,.52-3.15,8.05-3.15,8.05l-1.92,11-3,9.11-3.49,6-4.33-3.94-3,4.07-3.8,6.43-5.78,2-9.32-.79,1.26-5.33-4.63.71-4.57,4.34-10.75-.83-9.84-5-9.15-.26-11.87-14.27L2867,564l-11.19-5.34L2826.08,543l-13.81-22.92V516l50-48.57.67-.82.23-1,1.49-2.51v-2.93l8.7-8.27-4.46-4.3-9,8.69h-2.76l-2.14.9-7.27-7.5,1.13-2v-3.09l8.76-8.72-4.49-4.53-9.08,9.16h-2.78l-1.72.75-13.41-13.83-14.41,18.49L2810,452.1l2.29,8.34,4.16,6.94,2.08,2.08-9,7.1-2.09-1.54-8.32-2.78-16.38-1.82-16.51,11.92,28.8,39.54-2.61,2.69,15,16.52,18.67,12.45-5.95,12.28,1.1.56,10.14,1.31,14.37,3.19,3.61,3.94,2.84,7.12,4,5.61,20.18,40.37,15.71-9.45,8.11,6.5,1.62,4.87,3.25,4.86,4.87,4.87,6.49,1.63,4.63-13.15,43.25,9.09-6.46-6-4.84-21,2.18-10.52.26-14.61,6.4-12.29,1-9,2.71-9.89,2.5-7.66,1.06-7.3S2964.83,548.25,2964.83,548.78Zm-880.94-20.33-1.59-12.77-1.6-20.74-3.19-20.74-6.38-12.76-8-11.17L2036,426.34l-1.6-3.19,28.72-31.91,36.41-40.08-8.81-7.84L2029.61,412v1.68l-30.89-21a2.56,2.56,0,0,0-2.87,4.23l33.64,22.85-.24,4.24,3.21,10.76,1.42,4.27,4.27,2.84,11.55,6.34-.06,6.19,2.46.36.12,7.15-3.76-.12-1.29,2.7-19.82,5.63-16.42,4.81-31.14,8.22-13,1.28-10.69,3.92-6.24,4.77-12.16,9.37-.65,4.86-27.57,19.78-7.31,3.85h-3.45l-2.15-3.31-.24-3.46,1.79-10.84,5.72-27.06-.4-16.21-4.82-2.61-8.23,3c-3.39-8.07-7.77-18.43-8.34-19.26a1.71,1.71,0,0,0-2.84,1.89c.55,1,4.48,10.23,8,18.54l-.46.17h-10.91l-5.66,7-9.6-2.75-.78,2.73,9,2.57v29.3l-34.44,15.7L1828,510.36l-.76-1.59,23.2-19.22.81-2.57-.45-2.71-3-1.6-4,1.73-35.84,30-61.55,22.87-11.53,1.21-1.37-2.56-1.08-13.7-6.23.5,1.08,13.68-1.08,3-9.38,1-1.75-3.26-7.32.93-1.32,3.42-1.88.2-124,9.14-41.61,6.52-8,9.58,9.57,8h3.19l27.12,22.34L1572,602l-2.75,8,5.14,3.09,4.78-12.77,1.6-1.59,60.62,4.78,110.09-11.17,90.94-31.9,12.77,39.88-3.79,71,3.25-1.45,3.73-71.14-12.53-39.72,61.32-21.47,4-2,5.26-1.75,11.77-1.94,38.29-16,24.85,79.62v8.37l101.4-72.51.29-.57-5.87.27ZM2582.77,398.6v-9.54l14.2-.39v6.83h61.68l.39-2.37h15.8l.19,2.37,5.11,2.27,13.88-9V358.88l-4.82-4-7.1-1.54-51.21-9.26-93.79-45.66-32-11.41-9,3.08L2481,285.46l-56.45-18.21L2360,249.42l-.1,0v-14h-5.12v15l-4.32.79-40.72,8.92-.13-.42L2307,257l-3.39-14.38-6.08,1.43,3.39,14.39-.35.08-1.11,3.83-16.4,3.59-1.56-7.73a2.83,2.83,0,0,0,1.12-2.74,2.63,2.63,0,0,0-1.12-1.64l-3.19-16.32-5.58,1.09,3.79,16-.39,1.3a2.45,2.45,0,0,0,0,.81,2.8,2.8,0,0,0,2,2.07l1.59,7.84-29,6.35-2.66,2.29-3-5.32-8.9,1,4,21.33,9.57-1.6L2336,270h3.2l46.83,10.6,1.11,13.62,9.46-4.95,3.33-.8h3.85l23.93,3.19,20.74,6.39,16,6.38,12.77,9.57,11.16,16,1.43,3.7.76-.25,16.76-4.94,14.35,43.07-10.86,10.37-5.66,3.16h5.64l10.95.8,6,1.21,1.58-5.53,2.17.62-1.53,5.35,8.25,1.71.88-3.08-6.37-3.43,2.14-4,14.67,7.9-2.14,4-4.24-2.28-.66,2.32,14.58,4.86,3.21-1.61,8-20.9,3.22,1.61-6.43,19.29,3.21,4.82h1.58v-4.45h3.39v4.42ZM1424.94,516.17l1.37-4.38-14.1-4.41-1.19,3.79-10.79-3.87h0l-.24-1.66,1-5-.31-1.65,3.13-10.67a2.27,2.27,0,1,0-4.36-1.28l-3.15,10.73-11.43-3.18,3-10.39a2.27,2.27,0,0,0-4.36-1.28l-3.07,10.46-1.79,3.21-.64,1.54-.37.48-.08.53-7.48-4.68,1.1-2.59-6.69-4.35,6.63-20.5L1354.58,456l-2.2,3.31,14.09,9.39-6.32,19.54-35.2-22-7-6.39,5.5-4.41a1.7,1.7,0,1,0-2.13-2.66l-5.92,4.74-2.15-2,7.31-6.4a2.27,2.27,0,0,0-3-3.42l-7.68,6.73-1.28-1.17-4.37-7.12-.64-.4,10.21-11.47-4.67-4.16L1298.57,440l-7.25-4.41.19-1.15.55-2.2s-.28-.93-.43-1.37l6.85-10.5-4.76-3.11-6.79,10.42-1.85.26-1.08.87-1.36,1.25-8.32-5.08,6.8-10.2a2,2,0,0,0-3.31-2.2l-6.23,9.34-6.39-4.12h0l5.46-9.17a2,2,0,1,0-3.42-2l-6.47,10.87-.62-.38L1237,402.46l-31.32-7.83-38-10L1150.94,363l-4.28-4.69-98.75-26.52-113.72-4.37-11.39,2.85L794.17,364.6l-8,1.25-48.39-8.54v7.37L799,374.79l3.39,12.15,3.49,12.74-3.83,15L796,416.14l3.16.5,10.47-1.12,119.66-36.7,8-1.59h50.67l67.73,2.88L1097,384.4l130.77,31.51,10.07,2.79,47.29,29,6.29,7.75,44.68,62.22,4,6.82,27.36,7.2,64.39,17,4.79-23.93,3.19-3.19ZM603.33,967.82l-1.06-4.28-1.6-3.22,3.21-4.82,1.61-11.25,1.61-8,3.21-8-1.61-1.61-1.6-7.1v-5.76l-4.83-10.38V896l-3.21-1.61-3.22-3.21-.8-6.88-2.41-6-1.27-3.21-2-1.61L583,875.14l-1.61-1.61-1.61-4.82-1.61-1.61-6.43-4.82-4.82-4.83-1.61-4.82,1.61-3.21-1.61-3.22-3.21-1.6L558.87,843v-3.22l1.61-1.6v-1.61L558.87,835l3.22-3.21,3.21-3.22V823.7l1.61-8,3.22-4.82,3.21-8v-6.42l-3.21-8-4.83-1.61-6.43-1.61-3.21-1.6-1.61,1.6-4.82,3.22-8,3.21-4.82,3.22h-4.82l-6.43,1.61-8,1.6-10.6-1.6H501l21.73,29.34,82,150.87ZM478.91,548.49l-2.6-9.68-30.53,12-13.11,17,21.73-11,17.68-6.43Zm2738,114.91-14.85-58.83-2.43,5.92,11.74,51.64Zm-1323.73-214,105.53-29.44m-102.81,31.63,101.22-29a2.24,2.24,0,0,0,1.51-2.76,2.17,2.17,0,0,0-2.68-1.55l-101.22,29a2.24,2.24,0,0,0-1.52,2.75,2.2,2.2,0,0,0,2.1,1.64A2,2,0,0,0,1895.92,451.54Z"/></g></svg>