<svg id="_1985" data-name="1985" width="3840" height = "1080" xmlns="http://www.w3.org/2000/svg" xmlns:xlink="http://www.w3.org/1999/xlink" viewBox="0 0 3840 1080"><defs><style>.cls-1{fill:none;}.cls-2{clip-path:url(#clip-path);}.cls-3{opacity:0.8;}.cls-4{fill:#007d74;}</style><clipPath id="clip-path"><polygon class="cls-1" points="3840 1080 0 1080 0 0 2069.95 0 2098.12 0 3840 0 3840 1080"/></clipPath></defs><g class="cls-2"><g id="_1945_HKI_Mask" data-name="1945 HKI Mask" class="cls-3"><polygon class="cls-4" points="2962.66 650.48 2965.89 642.41 2964.28 637.14 2921.03 628.05 2916.4 641.2 2909.91 639.57 2905.04 634.7 2901.79 629.84 2900.17 624.97 2892.05 618.47 2876.36 627.92 2883.6 642.41 2888.44 645.64 2898.12 650.48 2912.64 656.94 2920.71 660.16 2925.55 665 2936.85 669.85 2948.14 669.85 2956.21 661.78 2962.66 650.48"/><polygon class="cls-4" points="2792.39 524.57 2782.18 534.25 2786.7 542.16 2794.68 550.14 2802.24 557.08 2806.35 558.72 2820.13 565.82 2826.08 553.54 2807.41 541.09 2792.39 524.57"/><polygon class="cls-4" points="1855.17 600.24 1821.67 613.01 1762.64 633.75 1725.94 657.68 1692.44 667.25 1641.38 673.63 1630.22 670.44 1566.32 629.37 1574.03 621.66 1577.22 614.71 1574.38 613.01 1579.16 600.24 1580.76 598.65 1641.38 603.43 1751.47 592.26 1828.05 565.14 1842.41 560.36 1855.17 600.24"/><polygon class="cls-4" points="500.08 542.41 513.87 542.41 518.69 539.2 523.51 534.38 525.12 535.99 528.34 537.59 533.16 537.59 541.19 535.99 544.41 534.38 546.02 531.16 549.23 526.34 550.84 523.13 560.48 516.7 565.3 515.09 568.52 516.7 571.07 517.5 575.75 517.5 580.57 515.89 586.73 512.68 595.04 512.68 602.27 519.91 603.36 521.3 602.42 511.38 600.95 495.88 577.92 501.53 535.73 517.35 529.42 519.72 476.31 538.81 478.9 548.49 500.08 542.41"/><polygon class="cls-4" points="1907.16 537.46 1905.15 539.47 1903.13 541.49 1901.12 543.5 1901.12 545.52 1903.13 547.53 1907.16 551.56 1907.16 555.59 1905.15 561.63 1903.13 567.68 1899.1 573.72 1897.09 579.76 1895.83 586.08 1858.37 598.65 1845.85 558.93 1907.16 537.46"/><polygon class="cls-4" points="2489.74 333.64 2496.29 350.68 2504.27 382.6 2505.09 385.05 2510.75 381.89 2521.61 371.52 2507.26 328.45 2489.74 333.64"/><polygon class="cls-4" points="2057.21 397.84 2063.15 391.24 2099.56 351.16 2128.98 318.79 2138.31 307.97 2192.21 281.46 2236.25 270.99 2240.25 292.32 2249.82 290.73 2335.97 269.98 2339.16 269.98 2386 280.58 2387.11 294.1 2387.11 294.2 2379.01 298.82 2369.44 302.02 2356.68 306.8 2345.51 311.59 2335.93 316.38 2330.21 317.88 2312.08 317.88 2295.96 319.89 2281.86 321.91 2267.76 325.94 2253.66 329.96 2243.58 331.98 2235.53 333.99 2225.45 333.99 2213.37 333.99 2205.31 331.98 2195.24 329.96 2187.18 327.95 2177.11 325.94 2169.05 325.94 2160.99 329.96 2152.93 336.01 2142.86 348.1 2118.68 376.3 2111.88 384.23 2107.79 380.36 2101.18 387.38 2092.39 380.25 2083.19 392.04 2079.26 396.07 2076.68 401.34 2081.64 404.96 2081.02 411.36 2057.21 397.84"/></g></g></svg>