<svg id="_2019" data-name="2019" xmlns="http://www.w3.org/2000/svg" xmlns:xlink="http://www.w3.org/1999/xlink" viewBox="0 0 3840 1080"><defs><style>.cls-1{fill:none;}.cls-2{clip-path:url(#clip-path);}.cls-3{opacity:0.8;}.cls-4{fill:#09b9a7;}</style><clipPath id="clip-path"><polygon class="cls-1" points="0 0 2881.12 0 3840 0 3840 1080 0 1080 0 0"/></clipPath></defs><g class="cls-2"><g id="HKI"><g id="_1985_HKI_reclamation_mask_for_2019" data-name="1985 HKI reclamation mask for 2019" class="cls-3"><polygon class="cls-4" points="3465.38 974.41 3459.11 961.44 3457.03 964.44 3455.6 967.3 3421.26 1003.07 3415.54 1005.93 3408.39 1007.36 3401.23 1007.36 3396.94 1004.5 3394.08 998.78 3394.08 995.92 3398.37 994.49 3402.66 994.49 3408.39 993.06 3412.68 988.76 3416.97 985.9 3421.26 980.18 3426.98 975.89 3429.85 971.6 3428.41 965.87 3426.98 961.58 3422.69 955.86 3418.4 950.14 3412.68 944.41 3405.52 938.69 3398.37 937.26 3391.22 938.69 3385.49 940.12 3381.2 941.55 3378.34 940.12 3376.91 935.83 3375.48 932.97 3371.19 932.97 3368.33 935.83 3359.74 938.69 3355.45 934.4 3355.45 885.75 3357.45 880.42 3340.92 859.83 3334.11 839.4 3319.36 788.33 3316.82 782.74 3313.96 781.31 3311.1 782.74 3298.93 795.14 3312.55 843.94 3271.04 878.6 3262.45 878.6 3253.87 877.17 3249.58 871.45 3243.86 862.86 3236.7 858.57 3225.26 858.57 3215.24 860 3203.8 860 3193.78 860 3195.21 855.71 3200.93 845.7 3206.66 832.82 3219.53 819.94 3225.26 814.22 3230.98 809.93 3235.27 805.63 3238.13 799.91 3238.13 794.19 3239.56 788.47 3242.42 782.74 3248.15 774.16 3253.87 769.87 3261.02 767.01 3268.32 764.83 3276.76 759.85 3284.18 753.15 3271.7 739.53 3253.54 723.64 3227.43 683.92 3224.4 686.63 3219.53 692.61 3216.67 692.61 3212.38 692.61 3210.95 689.75 3210.95 685.46 3210.95 681.16 3213.81 676.87 3213.81 672.58 3212.38 669.72 3209.52 669.72 3205.23 669.72 3202.36 672.58 3199.5 676.87 3193.78 671.15 3189.49 668.29 3186.63 661.13 3180.9 655.41 3176.61 653.98 3170.89 648.26 3165.17 642.54 3160.87 636.81 3160.87 631.09 3160.87 623.94 3160.87 618.21 3159.44 611.06 3156.58 603.91 3151.56 599.25 3149.94 604.12 3146.7 605.74 3141.83 610.6 3138.59 612.22 3132.1 613.85 3128.86 613.85 3122.37 618.71 3120.75 618.71 3117.51 620.33 3109.4 630.06 3107.78 634.93 3107.78 641.41 3111.02 644.66 3119.13 656.01 3119.13 657.63 3122.37 662.5 3130.48 672.23 3132.1 675.47 3133.72 678.71 3138.59 683.58 3145.07 691.69 3146.7 699.8 3148.32 704.66 3151.56 709.53 3158.05 714.39 3162.91 714.39 3167.78 712.77 3174.26 711.15 3192.1 706.28 3195.35 706.28 3200.21 707.9 3203.45 707.9 3205.08 706.28 3211.56 699.8 3213.18 699.8 3213.18 706.28 3214.81 711.15 3213.18 719.26 3211.56 722.5 3211.56 724.12 3209.94 725.74 3205.08 725.74 3203.45 727.36 3200.21 728.99 3198.59 732.23 3196.97 732.23 3192.1 728.99 3190.48 727.36 3188.86 728.99 3187.24 732.23 3183.99 738.72 3179.13 741.96 3175.89 741.96 3174.26 743.58 3175.89 746.83 3174.26 751.69 3167.78 759.8 3162.91 763.04 3156.43 771.15 3154.8 776.01 3154.8 780.88 3158.05 785.75 3156.43 787.37 3151.56 797.1 3149.94 806.83 3148.32 810.07 3140.21 814.94 3140.21 818.18 3141.83 824.67 3140.21 827.91 3140.21 831.15 3141.83 834.4 3145.07 836.02 3146.7 839.26 3146.7 840.88 3148.32 842.5 3143.45 845.75 3138.59 850.61 3138.59 855.48 3135.34 857.1 3132.1 858.72 3132.1 861.97 3133.72 868.45 3132.1 873.32 3128.86 878.18 3125.61 886.29 3122.37 897.64 3117.51 900.89 3117.51 904.13 3119.13 907.37 3122.37 917.1 3128.86 930.08 3132.1 934.94 3133.72 938.18 3135.34 938.18 3136.97 938.18 3140.21 934.94 3146.7 933.32 3148.32 936.56 3148.32 939.81 3146.7 949.54 3145.07 954.4 3138.59 967.38 3135.34 969 3132.1 969 3125.61 972.24 3120.75 970.62 3112.64 965.75 3112.64 960.89 3114.26 957.64 3115.88 952.78 3115.88 949.54 3114.26 947.91 3109.4 944.67 3107.78 944.67 3106.15 947.91 3104.53 949.54 3101.29 951.16 3096.42 951.16 3093.18 947.91 3094.8 943.05 3096.42 938.18 3096.42 933.32 3094.8 930.08 3093.18 930.08 3093.18 931.7 3093.18 933.32 3093.18 934.94 3089.94 934.94 3086.69 934.94 3081.83 931.7 3080.21 931.7 3078.58 934.94 3076.96 936.56 3076.96 939.81 3078.58 941.43 3076.96 941.43 3073.72 941.43 3070.48 944.67 3072.1 946.29 3073.72 947.91 3073.72 951.16 3075.34 954.4 3076.96 959.27 3075.34 962.51 3075.34 964.13 3078.58 969 3081.83 972.24 3083.45 977.11 3086.69 983.59 3088.31 985.21 3096.42 985.21 3098.05 986.84 3102.91 994.94 3106.15 994.94 3112.64 994.94 3115.88 998.19 3117.51 1003.05 3117.51 1007.92 3123.99 1007.92 3132.1 1012.78 3132.1 1016.03 3136.97 1016.03 3138.59 1016.03 3143.45 1014.4 3151.56 1016.03 3162.91 1007.92 3166.16 1007.92 3171.02 1004.67 3174.26 1004.67 3180.75 998.19 3187.24 994.94 3193.72 986.84 3200.21 985.21 3209.94 985.21 3216.43 983.59 3224.54 980.35 3227.74 974.41 3229.4 973.86 3239.13 969 3248.86 964.13 3252.11 959.27 3265.08 946.29 3266.7 946.29 3269.94 949.54 3273.19 949.54 3278.05 947.91 3282.92 947.91 3284.54 943.05 3291.03 939.81 3302.38 936.56 3302.38 934.94 3307.24 931.7 3313.73 931.7 3316.97 930.08 3320.22 933.32 3326.7 933.32 3329.95 934.94 3334.81 939.81 3336.43 939.81 3339.68 938.18 3341.3 939.81 3346.16 944.67 3351.03 946.29 3352.65 947.91 3352.65 952.78 3355.89 957.64 3360.76 964.13 3362.38 967.38 3365.63 972.24 3368.87 973.86 3372.11 977.11 3386.71 991.7 3388.33 998.19 3389.95 999.81 3393.19 1004.67 3399.68 1019.27 3401.3 1022.51 3399.68 1025.76 3401.3 1029 3401.3 1033.87 3402.92 1037.11 3409.41 1041.97 3411.03 1041.97 3412.65 1037.11 3415.9 1033.87 3420.76 1032.24 3425.63 1029 3433.74 1024.13 3441.84 1016.03 3451.57 1009.54 3458.06 1003.05 3462.93 991.7 3466.17 978.73 3465.38 974.41"/><polygon class="cls-4" points="2628.21 340.05 2547.1 302.03 2536.28 295.79 2526.07 291.25 2514.72 287.85 2499.97 277.63 2486.35 268.55 2475 264.01 2439.82 250.39 2412.58 239.04 2388.75 234.51 2362.65 231.1 2341.08 232.24 2228.01 269.12 2232.47 292.92 2242.09 291.32 2328.69 270.47 2331.89 270.47 2378.4 281.69 2380.09 294.7 2383.21 292.92 2389.63 289.71 2392.97 288.91 2396.84 288.91 2420.9 292.12 2441.74 298.53 2457.78 304.95 2470.61 314.57 2481.84 330.61 2483.44 334.77 2500.28 329.81 2514.71 373.1 2503.79 383.53 2514.71 384.33 2530.75 387.54 2535.56 389.14 2549.99 393.95 2553.2 392.35 2561.22 371.5 2564.43 373.1 2558.01 392.35 2561.22 397.16 2575.65 397.05 2575.65 387.54 2589.81 387.14 2589.81 393.95 2688.01 393.95 2688.01 356.67 2688.01 350.64 2677.01 349.13 2628.21 340.05"/><path class="cls-4" d="M2961.82,547.36l-1.62-8.11-3.2,3.85-2,3.6-3.71,9.28-2.86,14.31-2.87,17.16-7.84,8.59h-15.05l-18.6-1.43-11.44-4.29-8.59-5.73-10-10-9.92-8.23L2854,561.7l-33-15-14.23-23.63v-4.29L2862,464.89l-1.54-3.08.49-.83v-3.41l10.13-9.63-5.19-5-10.5,10.11h-3.21l-.29.12-9.95-9.08.6-1.05v-3.6l10.19-10.15-5.22-5.27-10.57,10.67h-3.23l-1.39.6-10.6-9.69-.71,1.86-14.85,19.06-1.74,6.42,2.36,8.6,4.29,7.16,2.14,2.14-9.29,7.31-2.15-1.59-8.59-2.86-16.88-1.87-17.52,12.65,28.56,41-1.61,1.61,16,17.64L2821,557.53l-4,8.82,9.63,3.2,14.43,3.21,3.63,4,2.86,7.16,4,5.64,4.86,9.73,11.35,22.7,11.36,22.71,4.86,3.24,9.73,4.87,14.6,6.48,8.1,3.25,4.87,4.86,11.35,4.87H2944l8.11-8.11c1.62-1.62,6.49-11.35,6.49-11.35l3.24-8.11-1.62-4.87-6.49-6.48-4.86-21.09,4.86-9.73,11.36-29.19v-6.48c0-3.25-1.63-11.36-1.63-11.36Z"/><path class="cls-4" d="M2089.77,348.67l-8.36-7.3-62.95,70.11v5.72l1.43,7.15,1.43,10,1.43,4.29,4.3,2.86,14.42,7.48v7.94l-4.54,4.54-6.81,3.41-10.23,5.25-18.6,5.72-32.9,7.15-8.59,1.43-11.44,2.86-10,5.73-8.58,7.15-4.29,7.15-27.72,19.89-6.66,1-.56-5.43v-9.08l4.54-23.83,4.54-19.3-2.27-4.54-5.67-1.13-4.83,2.38-5.11,0-6.85-16a2.42,2.42,0,1,0-4.44,1.91l6,14-1.81,0-11.35,2.27-3.9,6.64-6.47-1.36a2.42,2.42,0,0,0-1,4.73l4.89,1,0,0v31.14l-32.08,14.54-4.54-17v-2.27l21.56-19.29,1.14-4.54-2.27-2.27-5.68,1.13-38.22,32.58-63,22.89-42.08,4.4L1567.08,551l-41.83,6.56-8,9.62,9.62,8h3.21l27.26,22.45,1.16,4.81-2.76,8,8,4.81,4.82-12.83,1.6-1.6,60.94,4.81,110.65-11.23,91.41-32.07L1846,602.43l-3.75,71,4.91-2.19,2-70.37-12.13-39.92,60.69-21.74,4-2,6.08-2,8.66-3.25,38.49-16,27.26,81.74V606l102.36-73.19h-6l-3.3-2.54-1.61-12.83-1.6-20.84-3.21-20.85-6.41-12.83-8-11.23-27.26-24.05-1.61-3.21,28.87-32.07Z"/><polygon class="cls-4" points="423.95 553.83 413.43 570 437.67 558.69 457.3 551.69 454.63 541.73 423.95 553.83"/><polygon class="cls-4" points="589.52 948.02 591.13 939.94 594.37 931.86 592.75 930.25 591.13 923.11 591.13 917.32 586.29 906.89 586.29 899.55 583.06 897.94 579.83 894.71 579.02 887.8 576.6 881.78 575.32 878.55 573.36 876.94 566.9 878.55 565.29 876.94 563.67 872.09 562.06 870.47 555.59 865.63 550.75 860.78 549.13 855.93 550.75 852.7 549.13 849.47 545.9 847.86 542.67 846.24 542.67 843.01 544.29 841.4 544.29 839.78 542.67 838.16 545.9 834.93 549.13 831.7 549.13 826.86 550.75 818.78 553.98 813.93 557.21 805.86 557.21 799.39 553.98 791.32 549.13 789.7 542.67 788.09 539.44 786.47 537.82 788.09 532.98 791.32 524.9 794.55 520.05 797.78 515.21 797.78 508.75 799.39 500.67 801.01 490.01 799.39 484.51 799.39 479.67 797.78 476.26 796.16 478.31 807.07 485.47 815.65 499.77 827.1 509.79 842.83 518.37 861.43 585.63 983.56 592.75 983.56 592.75 973.86 591.13 972.25 586.29 967.4 584.67 964.17 587.9 959.32 589.52 948.02"/><polygon class="cls-4" points="1308.83 464.41 1290.23 450.11 1288.8 441.52 1244.45 414.34 1230.17 406.31 1226.62 400.2 1218.68 393.39 1207.33 393.39 1151.72 378.64 1136.96 360.48 1132.42 354.8 1028.42 328.5 916.82 324.2 905.38 327.07 776.61 362.83 768.03 362.83 719.39 354.25 717.96 362.83 780.91 374.28 783.77 384.29 786.63 401.46 785.05 413.38 776.68 413.38 785.05 420.74 795.58 419.61 915.85 382.73 923.87 381.12 1044.14 382.73 1095.46 387.54 1220.55 418.01 1226.96 421.21 1273.47 451.68 1279.88 459.7 1324.79 522.25 1345.63 530.26 1421.01 549.51 1425.82 525.45 1429.03 522.25 1367.49 501.61 1308.83 464.41"/><path class="cls-4" d="M1887.39,450.3a2.47,2.47,0,0,0,.7-.1l102.45-30.93a2.42,2.42,0,0,0-1.4-4.63l-102.45,30.93a2.42,2.42,0,0,0,.7,4.73Z"/></g></g></g></svg>