<svg id="_2019" data-name="2019" xmlns="http://www.w3.org/2000/svg" xmlns:xlink="http://www.w3.org/1999/xlink" viewBox="0 0 3840 1080"><defs><style>.cls-1{fill:none;}.cls-2{clip-path:url(#clip-path);}.cls-3{opacity:0.8;}.cls-4{fill:#004a47;}</style><clipPath id="clip-path"><polygon class="cls-1" points="0 0 2881.12 0 3840 0 3840 1080 0 1080 0 0"/></clipPath></defs><g class="cls-2"><g id="HKI"><g id="_1900_HKI_reclamation_mask_for_2019" data-name="1900 HKI reclamation mask for 2019" class="cls-3"><polygon class="cls-4" points="1529.27 640.4 1523.19 636.36 1514.86 634.33 1510.55 634.33 1506.99 634.33 1504.97 630.28 1509.02 624.21 1513.07 620.16 1519.14 614.67 1519.14 612.06 1515.09 608.01 1513.07 605.99 1509.02 601.94 1506.99 599.91 1504.97 597.89 1502.95 597.89 1496.87 601.94 1492.82 605.99 1488.77 608.01 1484.72 610.03 1478.65 610.03 1470.55 610.03 1464.48 612.06 1462.45 614.09 1460.22 616.11 1458.4 616.11 1456.38 614.14 1456.38 611.29 1456.38 605.99 1454.35 601.94 1446.26 595.86 1438.16 589.79 1430.06 583.72 1423.98 579.66 1413.86 575.62 1403.74 571.57 1391.59 567.52 1381.47 565.49 1371.34 563.47 1361.22 565.49 1357.17 567.52 1353.12 567.52 1347.05 567.52 1343 567.52 1338.95 569.54 1334.9 567.52 1328.83 567.52 1322.75 565.49 1316.68 565.49 1312.63 561.44 1308.58 553.35 1302.5 549.29 1300.48 545.25 1298.45 541.2 1296.43 537.15 1292.38 533.1 1286.31 527.02 1282.26 520.95 1278.21 516.9 1276.18 510.83 1272.13 504.75 1268.09 500.7 1266.06 498.68 1264.04 494.63 1259.99 490.58 1255.94 486.53 1253.91 482.48 1247.84 476.41 1245.81 472.36 1245.81 464.26 1243.79 458.19 1237.71 454.14 1233.67 450.09 1231.64 448.06 1229.62 446.04 1225.57 444.01 1219.49 441.99 1215.44 441.99 1209.37 441.99 1205.32 439.96 1197.22 435.91 1193.17 435.91 1189.12 435.91 1185.07 435.91 1179 433.89 1172.93 433.89 1170.9 437.94 1166.85 439.96 1164.83 439.96 1160.78 441.99 1156.73 444.01 1152.68 444.01 1146.61 441.99 1140.53 439.96 1140.53 433.89 1138.51 429.84 1132.43 425.79 1126.36 421.74 1124.33 417.69 1120.29 417.69 1116.23 419.72 1114.21 423.77 1110.16 423.77 1106.11 423.77 1102.06 423.77 1095.99 417.69 1089.91 413.64 1083.84 407.57 1077.82 406.78 1071.41 409.99 1064.99 414.8 1058.58 418.01 1053.77 418.01 1047.35 416.4 1042.54 413.2 1039.33 409.99 1034.52 405.18 1032.92 403.57 1026.5 401.97 1023.3 401.97 1020.09 403.57 1017.13 405.04 1009.03 403.02 1004.98 403.02 998.9 400.99 992.83 400.99 988.78 400.99 982.71 400.99 980.68 400.99 974.61 400.99 968.53 398.97 964.49 394.92 964.49 390.87 962.36 385.93 958.41 384.8 952.34 384.38 948.29 384.38 942.21 384.38 938.16 384.38 934.12 384.8 932.09 386.82 930.07 392.89 928.04 398.97 919.94 403.02 917.45 405.18 911.04 406.78 904.63 406.78 898.21 405.18 892.36 404.54 888.31 404.54 880.21 404.54 872.11 406.57 866.04 408.59 859.97 412.64 853.89 416.69 845.79 420.74 837.69 424.79 831.62 426.81 821.5 428.84 807.32 428.84 799.23 428.84 793.15 426.81 785.05 420.74 795.58 419.61 915.85 382.73 923.87 381.12 974.8 381.12 1044.14 382.73 1095.46 387.54 1220.55 418.01 1226.96 421.21 1273.47 451.68 1279.88 459.7 1324.79 522.25 1345.63 530.26 1421.01 549.51 1425.82 525.45 1429.03 522.25 1477.14 535.08 1478.74 538.28 1478.74 541.49 1477.14 543.09 1475.53 543.09 1470.72 563.94 1467.51 567.15 1465.91 567.15 1493.17 589.6 1518.83 557.53 1488.36 531.87 1488.36 530.26 1491.57 527.06 1493.17 527.06 1525.25 552.72 1525.25 557.53 1517.23 567.15 1526.85 575.17 1530.06 575.17 1557.32 597.62 1558.48 602.43 1555.72 610.45 1563.73 615.26 1560.53 621.67 1552.51 629.69 1537.37 644.46 1529.27 640.4"/><polygon class="cls-4" points="1982.29 605.99 1984.82 605.99 1992.91 605.99 1998.99 614.09 2007.09 620.16 2013.16 622.18 2023.28 620.16 2033.41 616.11 2043.53 614.09 2057.7 610.03 2063.78 610.03 2077.95 610.03 2088.07 610.03 2096.17 603.96 2098.2 595.86 2096.17 585.74 2092.12 577.64 2088.07 567.52 2088.07 553.35 2086.05 541.2 2084.65 532.8 1991.91 599.22 1982.29 605.99"/><polygon class="cls-4" points="1842.23 673.39 1839.04 674.82 1826.89 674.82 1822.84 670.77 1818.79 652.55 1820.82 640.4 1808.67 622.18 1800.57 624.21 1790.45 632.31 1770.2 638.38 1758.05 638.38 1758.05 646.48 1751.98 654.58 1737.81 664.7 1723.63 660.65 1719.58 662.68 1715.54 664.7 1709.46 668.75 1703.39 668.75 1695.29 670.77 1689.21 672.8 1681.12 678.87 1675.04 680.9 1670.99 682.92 1664.92 684.95 1660.87 686.97 1652.77 689 1647.84 684.95 1639.77 684.95 1635.72 684.95 1628.45 684.95 1620.38 684.95 1614.3 680.9 1608.23 678.87 1604.18 678.87 1598.11 680.9 1594.06 680.9 1587.98 680.9 1583.93 678.87 1579.88 674.82 1573.81 670.77 1567.73 666.73 1561.66 662.68 1553.56 656.6 1551.54 654.58 1547.49 650.53 1543.44 648.5 1537.37 644.46 1552.51 629.69 1619.86 672.99 1631.09 676.2 1682.41 669.78 1716.08 660.16 1752.97 636.11 1812.3 615.26 1845.98 602.43 1842.23 673.39"/><polygon class="cls-4" points="2497.87 383.53 2503.79 383.53 2514.71 384.33 2530.75 387.54 2535.56 389.14 2549.99 393.95 2553.2 392.35 2561.22 371.5 2564.43 373.1 2558.01 392.35 2561.22 397.16 2575.65 397.05 2575.65 387.54 2589.81 387.14 2589.81 393.95 2673.6 393.95 2740.83 393.95 2742.43 395.56 2744.04 398.76 2748.85 467.72 2750.45 472.53 2787.34 525.45 2785.73 527.06 2776.3 534.4 2775.31 532.67 2767.29 521.44 2760.88 513.43 2757.67 510.22 2752.86 502.2 2749.65 498.99 2744.84 490.97 2733.61 479.75 2723.99 470.13 2719.18 466.92 2712.77 465.31 2704.08 465.31 2685.5 462.11 2669.47 455.69 2661.45 450.88 2653.43 446.07 2647.02 442.86 2640.6 441.26 2635.54 441.26 2630.98 442.86 2622.96 447.68 2618.15 450.88 2613.34 455.69 2606.92 465.31 2602.11 470.13 2600.78 471.73 2598.91 471.73 2597.3 470.13 2592.49 460.5 2586.08 450.88 2582.87 446.07 2580.34 441.26 2578.06 436.45 2573.25 433.24 2568.44 433.24 2563.63 434.85 2560.42 438.05 2558.81 442.86 2557.21 450.88 2552.4 455.69 2545.98 460.5 2541.17 460.5 2537.51 459.76 2528.34 449.28 2520.47 437.25 2510.7 417.2 2504.29 401.17 2501.08 393.15 2497.87 383.53"/><polygon class="cls-4" points="1907.88 535.12 1913.95 537.15 1920.03 543.22 1922.05 553.35 1922.05 557.39 1920.03 563.47 1915.98 567.52 1913.95 571.57 1913.95 575.62 1920.03 577.64 1926.1 581.69 1934.2 589.79 1942.3 595.86 1952.42 599.91 1964.57 603.96 1976.72 605.99 1982.29 605.99 1982.29 597.57 1955.03 515.83 1916.54 531.87 1907.88 535.12"/><polyline class="cls-4" points="1847.14 671.2 1849.19 600.83 1886.33 588.19 1885.61 591.81 1885.61 595.86 1887.63 601.94 1887.63 605.99 1885.61 612.06 1885.61 620.16 1891.68 636.36 1881.56 646.48 1867.38 652.55 1861.31 654.58 1855.24 662.68 1847.14 671.2"/><polygon class="cls-4" points="575.79 499.73 596.55 496.03 635.56 488.42 654.94 483.57 659.79 483.57 663.02 485.19 671.1 491.65 716.33 451.26 717.95 448.03 734.1 415.73 737.64 411.59 735.6 417.71 737.67 421 737.64 425.87 737.64 431.99 733.56 438.11 729.48 444.22 727.44 450.34 725.4 460.54 719.28 464.62 715.2 466.66 711.12 470.74 705 476.86 696.85 480.94 690.73 485.01 686.65 489.09 682.57 493.17 680.53 499.29 678.49 505.41 674.41 513.57 670.33 519.69 664.21 525.8 654.01 531.92 647.9 533.96 641.78 536 633.62 538.04 625.46 540.08 617.3 540.08 609.14 538.04 603.03 536 596.91 531.92 592.83 529.88 586.29 521.54 579.02 514.27 575.79 499.73"/></g></g></g></svg>