<svg id="_2019" data-name="2019" xmlns="http://www.w3.org/2000/svg" xmlns:xlink="http://www.w3.org/1999/xlink" viewBox="0 0 3840 1080"><defs><style>.cls-1{fill:none;}.cls-2{clip-path:url(#clip-path);}.cls-3{opacity:0.8;}.cls-4{fill:#007d74;}</style><clipPath id="clip-path"><polygon class="cls-1" points="0 0 2881.12 0 3840 0 3840 1080 0 1080 0 0"/></clipPath></defs><g class="cls-2"><g id="HKI"><g id="_1945_HKI_reclamation_mask_for_2019" data-name="1945 HKI reclamation mask for 2019" class="cls-3"><polygon class="cls-4" points="1897.76 539.17 1837.06 560.91 1849.19 600.83 1886.33 588.19 1887.63 581.69 1889.66 575.62 1893.7 569.54 1895.73 563.47 1897.76 557.39 1897.76 553.35 1891.68 547.27 1891.68 545.25 1893.7 543.22 1895.73 541.2 1897.76 539.17"/><polygon class="cls-4" points="1845.98 602.43 1812.3 615.26 1752.97 636.11 1716.08 660.16 1682.41 669.78 1631.09 676.2 1619.86 672.99 1552.51 629.69 1560.53 621.67 1563.73 615.26 1568.55 602.43 1570.15 600.83 1631.09 605.64 1741.74 594.41 1818.72 567.15 1833.15 562.34 1845.98 602.43"/><polygon class="cls-4" points="2084.65 532.8 2084.02 529.05 2084.02 512.85 2082 496.65 2082 492.61 2082 480.46 2079.97 464.26 2077.95 446.04 2075.93 435.91 2075.93 423.77 2077.95 415.67 2084.02 409.59 2098.2 391.37 2110.34 377.2 2134.64 348.85 2144.76 336.71 2152.86 330.63 2160.96 326.58 2169.06 326.58 2179.18 328.61 2187.28 330.63 2197.4 332.66 2205.5 334.68 2217.65 334.68 2227.77 334.68 2235.87 332.66 2246 330.63 2260.17 326.58 2274.34 322.53 2288.51 320.51 2304.71 318.48 2322.93 318.48 2328.69 316.98 2338.31 312.17 2349.53 307.35 2362.36 302.54 2371.99 299.33 2380.09 294.7 2378.4 281.69 2331.89 270.47 2328.69 270.47 2242.09 291.32 2232.47 292.92 2228.01 269.12 2181.15 278.49 2121.81 307.35 2115.4 316.98 2054.46 392.35 2025.59 424.42 2027.2 427.63 2054.46 451.68 2062.48 462.91 2068.89 475.74 2070.49 485.36 2072.1 496.59 2073.7 517.43 2075.31 530.26 2078.61 532.8 2084.65 532.8"/><polyline class="cls-4" points="579.02 514.27 574.82 514.27 570.67 514.27 564.48 517.5 559.63 519.11 554.93 519.11 552.36 518.31 549.13 516.69 544.29 518.31 539.44 521.54 534.59 524.77 532.98 528 529.75 532.85 528.13 536.08 524.9 537.69 516.82 539.31 511.98 539.31 508.75 537.69 507.13 536.08 505.51 537.69 502.28 540.92 497.44 544.15 493.74 544.15 486.93 544.15 483.58 544.15 457.3 551.69 454.63 541.73 558.02 502.96 575.79 499.73 579.02 514.27"/><polygon class="cls-4" points="2497.87 383.53 2489.86 351.45 2483.44 334.77 2500.28 329.81 2514.71 373.1 2503.79 383.53 2497.87 383.53"/><polygon class="cls-4" points="2776.3 534.4 2781.72 543.89 2789.74 551.91 2794.55 555.12 2802.57 558.33 2817.01 566.35 2821.01 557.53 2801.77 544.7 2785.73 527.06 2776.3 534.4"/><path class="cls-4" d="M2872.14,630.71l7,13.95,4.86,3.24,9.73,4.87,14.6,6.48,8.1,3.25,4.87,4.86,11.35,4.87H2944l8.11-8.11c1.62-1.62,6.49-11.35,6.49-11.35l3.24-8.11-1.62-4.87L2917,630.71l-4.62,13.14-6.49-1.62-4.86-4.87-3.24-4.86-1.63-4.87-8.1-6.49Z"/></g></g></g></svg>