<svg id="_2019" data-name="2019" xmlns="http://www.w3.org/2000/svg" xmlns:xlink="http://www.w3.org/1999/xlink" viewBox="0 0 3840 1080"><defs><style>.cls-1{fill:none;}.cls-2{clip-path:url(#clip-path);}.cls-3{opacity:0.8;}.cls-4{fill:#97ffe2;}</style><clipPath id="clip-path"><polygon class="cls-1" points="0 0 2881.12 0 3840 0 3840 1080 0 1080 0 0"/></clipPath></defs><g class="cls-2"><g id="HKI"><g id="_2019_HKI_reclamation_mask_for_2019" data-name="2019 HKI reclamation mask for 2019" class="cls-3"><polyline class="cls-4" points="624.18 488.8 641.54 471.16 670.75 443.39 732.94 384.1 785.11 392.33 786.63 401.46 785.05 413.38 776.68 413.38 764.15 411.59 755.99 409.55 749.87 407.51 741.72 407.51 737.64 411.59 734.1 415.73 716.33 451.26 671.1 491.65 663.02 485.19 659.79 483.57 654.94 483.57 635.56 488.42 624.18 490.64"/><polygon class="cls-4" points="2821.72 425.61 2781 384.67 2722 357.2 2688.01 350.64 2688.01 356.67 2688.01 393.95 2740.83 393.95 2742.43 395.56 2744.04 398.76 2748.85 467.72 2750.45 472.53 2758.78 484.49 2776.3 471.84 2793.18 473.71 2801.77 476.57 2803.92 478.16 2813.21 470.85 2811.07 468.71 2806.78 461.55 2804.42 452.95 2806.16 446.53 2821.01 427.47 2821.72 425.61"/><polygon class="cls-4" points="3245.26 858.09 3226.43 833.86 3285.43 764.73 3279.56 757.24 3276.76 759.85 3268.32 764.83 3253.87 769.87 3248.15 774.16 3242.42 782.74 3239.56 788.47 3238.13 794.19 3238.13 799.91 3235.27 805.63 3230.98 809.93 3225.26 814.22 3206.66 832.82 3200.93 845.7 3195.21 855.71 3193.78 860 3215.24 860 3225.26 858.57 3236.7 858.57 3243.86 862.86 3245.26 858.09"/><polygon class="cls-4" points="3030.05 497.32 3016.44 500.37 3017.31 503.84 2991.86 506.15 2991.28 503.84 2988.1 504.42 2987.81 502.39 2966.4 510.78 2956.28 510.78 2945 512.52 2873.85 512.52 2872.69 512.52 2849.55 489.09 2843.63 482.95 2806.78 518.78 2806.78 523.07 2821.01 546.7 2864.1 566.35 2874.02 574.58 2884.03 584.59 2892.62 590.32 2904.06 594.61 2922.66 596.04 2937.71 596.04 2945.55 587.45 2948.41 570.28 2951.28 555.98 2954.99 546.7 2957 543.1 2960.2 539.25 2961.82 534.38 2966.69 527.9 2973.17 523.03 2982.9 521.41 2989.39 523.03 2994.26 524.65 3005.61 527.9 3015.34 527.9 3026.69 523.03 3033.18 516.54 3034.8 511.68 3031.55 510.06 3029.93 505.19 3031.55 501.95 3031.55 500.33 3030.05 497.32"/><polygon class="cls-4" points="1190.08 388.81 1192.82 378.41 1193.69 377.83 1199.76 379.57 1200.05 378.7 1200.34 378.7 1200.92 376.96 1201.49 377.25 1201.21 378.99 1205.55 380.14 1208.44 378.41 1209.31 375.52 1207.57 372.34 1203.23 371.18 1202.65 373.2 1201.79 372.92 1202.36 371.18 1202.07 370.89 1202.36 370.02 1196 368.29 1195.71 367.71 1198.6 356.72 1199.18 356.43 1204.1 357.87 1204.68 355.56 1205.55 355.85 1204.97 357.87 1206.41 358.45 1206.99 356.43 1208.15 356.43 1207.57 358.74 1210.75 359.61 1213.93 357.87 1214.8 354.98 1214.22 354.12 1198.89 349.78 1166.5 341.1 1165.63 341.68 1164.76 344.57 1166.5 347.75 1187.32 353.25 1187.61 351.22 1188.48 351.22 1187.9 353.54 1189.64 353.82 1190.21 351.8 1191.08 352.09 1190.51 354.12 1195.42 355.56 1195.71 356.14 1192.82 366.84 1192.24 367.42 1168.81 361.06 1168.52 361.92 1167.94 363.66 1167.08 363.66 1167.37 361.63 1163.32 360.48 1163.03 360.48 1159.85 362.21 1159.27 365.11 1161.29 368.29 1165.34 369.44 1165.92 367.42 1166.79 367.71 1166.5 369.73 1166.5 370.6 1172.57 372.05 1173.15 372.92 1170.34 383.58 1173 384.28 1176.04 373.78 1176.62 373.2 1189.64 376.68 1190.21 377.54 1187.43 388.11 1190.08 388.81"/><polygon class="cls-4" points="2114.03 317.86 2109.11 313.23 2105.64 310.34 2102.75 308.89 2101.88 308.61 2101.01 308.61 2100.15 308.61 2099.28 308.89 2098.12 309.47 2094.94 312.37 2066.88 338.69 2063.99 341.29 2046.06 360.09 2020.61 389.3 2010.19 401.16 1998.63 393.35 1997.47 392.48 1991.68 388.44 1991.11 388.44 1990.53 388.14 1989.95 388.44 1989.37 388.72 1989.08 389.01 1988.79 389.59 1988.5 390.17 1988.5 390.75 1988.79 391.33 1989.37 391.9 2018.42 411.54 2081.41 341.37 2089.77 348.67 2114.44 318.16 2114.03 317.86"/><polygon class="cls-4" points="3224.4 686.63 3224.98 684.9 3224.98 682.88 3212.68 618.1 3209.28 609.02 3167.42 579.91 3162.91 574.92 3161.29 578.17 3158.05 587.9 3151.56 599.25 3156.58 603.91 3159.44 611.06 3160.87 618.21 3160.87 636.81 3165.17 642.54 3176.61 653.98 3180.9 655.41 3186.63 661.13 3189.49 668.29 3193.78 671.15 3199.5 676.87 3202.36 672.58 3205.23 669.72 3212.38 669.72 3213.81 672.58 3213.81 676.87 3210.95 681.16 3210.95 689.75 3212.38 692.61 3219.53 692.61 3224.4 686.63"/><polygon class="cls-4" points="3481.24 941.45 3480.08 940 3479.79 939.14 3480.08 937.98 3480.08 937.11 3478.35 935.96 3474.3 933.06 3473.14 932.48 3388.4 848.89 3357.45 880.42 3355.45 885.75 3355.45 934.4 3359.74 938.69 3368.33 935.83 3371.19 932.97 3375.48 932.97 3376.91 935.83 3378.34 940.12 3381.2 941.55 3391.22 938.69 3398.37 937.26 3405.52 938.69 3412.68 944.41 3418.4 950.14 3426.98 961.58 3429.85 971.6 3426.98 975.89 3421.26 980.18 3416.97 985.9 3412.68 988.76 3408.39 993.06 3402.66 994.49 3398.37 994.49 3394.08 995.92 3394.08 998.78 3396.94 1004.5 3401.23 1007.36 3408.39 1007.36 3415.54 1005.93 3421.26 1003.07 3455.6 967.3 3459.11 961.44 3456.44 956.02 3458.06 954.4 3462.93 952.78 3466.17 951.16 3474.28 946.29 3477.52 944.67 3481.24 941.45"/><polygon class="cls-4" points="1812.07 501.24 1781.7 505.86 1771.29 507.31 1764.06 508.47 1759.43 509.05 1749.88 510.49 1742.07 511.36 1738.6 511.94 1737.45 510.49 1735.71 495.16 1735.42 494.87 1735.42 494.58 1735.13 494.58 1734.84 494.58 1730.22 494.87 1729.93 495.16 1729.64 495.16 1729.64 495.45 1729.35 495.45 1729.35 495.74 1731.08 510.78 1731.08 511.36 1730.51 511.94 1730.22 512.52 1730.22 512.8 1706.21 515.41 1704.18 515.7 1702.74 515.7 1700.42 515.7 1699.56 515.7 1698.4 515.7 1697.53 515.41 1696.66 514.83 1695.8 514.25 1694.64 513.67 1694.06 512.8 1693.48 512.23 1692.9 511.36 1692.33 510.49 1691.75 509.33 1691.46 508.47 1690.59 495.45 1690.59 493.43 1692.04 493.72 1692.04 494.3 1693.19 494.87 1693.48 493.14 1692.33 492.85 1692.33 493.14 1691.75 493.14 1692.62 489.67 1693.19 489.96 1693.19 490.25 1694.35 490.53 1694.64 489.09 1693.48 488.8 1693.19 489.38 1692.9 489.09 1695.22 480.99 1695.22 480.41 1695.22 479.83 1694.93 479.54 1694.64 479.25 1696.95 478.68 1692.62 461.9 1692.33 461.32 1692.33 461.03 1692.04 460.45 1691.75 460.17 1691.17 459.59 1690.59 459.3 1690.01 459.3 1689.43 459.01 1688.86 459.01 1688.28 459.3 1687.7 459.59 1687.12 459.88 1686.83 460.45 1686.25 461.03 1685.96 461.61 1685.96 462.19 1685.96 462.77 1685.96 463.06 1688.28 471.16 1673.53 471.16 1672.66 470.58 1671.79 470.29 1670.63 469.71 1669.48 469.13 1667.74 468.55 1665.72 467.97 1662.82 467.39 1660.8 467.11 1657.91 467.11 1656.17 467.11 1654.73 467.39 1652.99 467.69 1651.54 467.97 1649.81 468.55 1648.07 469.42 1646.34 470.29 1644.31 471.44 1642.29 472.6 1642 472.89 1637.66 477.23 1637.37 477.52 1637.08 477.81 1637.08 478.1 1637.08 478.68 1637.08 478.96 1637.08 479.25 1637.37 479.83 1637.66 480.12 1637.95 480.41 1638.24 480.7 1638.53 480.7 1634.48 493.43 1632.45 495.16 1630.43 496.9 1628.69 498.92 1627.83 499.79 1626.96 501.24 1626.38 502.68 1625.22 504.71 1624.93 505.86 1623.78 507.6 1623.49 508.47 1622.04 510.78 1620.88 512.52 1618.57 515.41 1616.84 517.43 1614.52 518.88 1611.34 520.33 1608.74 521.48 1604.98 522.64 1600.64 523.51 1597.46 523.51 1593.99 523.22 1588.2 522.35 1577.79 519.75 1566.51 516.57 1565.64 516.57 1556.67 515.99 1551.2 515.96 1547.79 514.82 1545.52 513.69 1543.26 512.55 1540.98 511.42 1537.58 509.15 1534.98 507.6 1532.38 507.31 1530.36 507.02 1526.02 506.73 1523.12 506.44 1521.1 506.15 1515.89 505.57 1508.66 504.13 1499.98 502.39 1497.38 503.84 1490.44 500.95 1486.97 499.79 1483.79 498.63 1476.85 495.74 1474.24 494.87 1471.93 493.72 1465.86 491.4 1435.78 479.25 1435.2 476.65 1434.91 476.65 1430.28 473.76 1425.94 470.87 1421.89 459.3 1435.78 454.67 1436.35 454.38 1436.64 454.09 1436.93 453.8 1437.22 453.51 1437.22 453.22 1437.51 452.93 1437.51 452.64 1437.51 452.36 1437.22 452.07 1437.22 451.78 1436.93 451.49 1436.93 451.2 1436.64 450.91 1436.35 450.91 1436.06 450.62 1435.78 450.62 1435.49 450.62 1435.2 450.62 1434.91 450.62 1420.73 455.54 1415.82 441.94 1429.99 437.03 1430.57 437.03 1430.86 436.74 1431.15 436.16 1431.44 435.58 1431.44 435.29 1431.44 434.71 1431.15 434.42 1430.86 433.84 1430.57 433.56 1430.28 433.56 1429.7 433.27 1429.41 433.27 1428.83 433.27 1414.66 438.18 1411.19 429.22 1417.26 414.75 1411.48 412.44 1405.41 426.9 1403.38 428.06 1393.55 423.72 1391.52 422.85 1391.81 422.56 1391.23 420.83 1397.02 406.66 1397.02 406.37 1397.02 406.08 1396.73 405.79 1392.1 403.76 1391.81 403.76 1391.52 404.05 1391.23 404.34 1385.45 418.51 1384 419.38 1383.71 419.67 1371.28 414.75 1371.57 414.47 1370.7 413.02 1376.19 398.27 1376.19 397.98 1376.19 397.69 1375.9 397.69 1375.61 397.4 1371.28 395.95 1370.99 395.95 1370.7 395.95 1370.41 395.95 1370.41 396.24 1364.91 411 1363.76 411.57 1363.47 412.15 1350.74 407.81 1351.03 407.24 1350.16 406.08 1354.79 391.04 1354.79 390.75 1354.79 390.46 1354.5 390.17 1350.16 389.01 1349.58 388.72 1349.29 389.01 1349.01 389.01 1349.01 389.3 1344.38 404.34 1342.93 404.92 1330.2 401.16 1329.34 399.71 1333.39 384.67 1333.39 384.38 1333.1 384.38 1333.1 384.1 1332.81 384.1 1328.18 382.65 1327.89 382.65 1327.89 382.94 1327.6 382.94 1327.31 383.23 1323.55 398.27 1322.11 399.14 1309.09 395.95 1308.22 395.09 1312.56 379.18 1311.98 378.6 1307.07 377.15 1306.2 377.73 1302.15 393.06 1300.99 393.93 1288.27 390.75 1287.4 389.3 1287.11 389.3 1291.45 373.39 1285.66 371.95 1281.32 387.86 1279.88 388.44 1275.25 387.28 1273.8 384.67 1266.57 382.65 1270.62 367.9 1268.31 367.32 1236.49 400.29 1231.87 404.92 1230.17 406.31 1244.45 414.34 1288.8 441.52 1290.23 450.11 1308.83 464.41 1367.49 501.61 1429.03 522.25 1477.14 535.08 1478.74 538.28 1478.74 541.49 1477.14 543.09 1475.53 543.09 1470.72 563.94 1467.51 567.15 1465.91 567.15 1493.17 589.6 1518.83 557.53 1488.36 531.87 1488.36 530.26 1491.57 527.06 1493.17 527.06 1525.25 552.72 1525.25 557.53 1567.08 550.97 1691.67 541.78 1733.75 537.38 1796.7 514.49 1811.15 502.35 1812.07 501.24"/><polygon class="cls-4" points="3310.85 783 3310.85 771.77 3308.75 765.48 3304.37 754.53 3295.5 742.34 3300.09 739 3309.38 751.77 3314.11 763.6 3316.52 770.85 3316.52 782.6 3313.96 781.31 3311.1 782.74 3310.85 783"/><polyline class="cls-4" points="740.32 1080 739.76 1078.87 734.91 1070.79 727.61 1062.71 725.22 1061.1 717.14 1062.71 713.91 1059.48 712.29 1056.25 712.29 1053.02 715.52 1044.94 713.91 1041.71 705.83 1035.25 704.22 1033.63 705.83 1032.02 709.06 1030.4 709.06 1028.79 710.68 1025.56 713.91 1022.3 713.91 1019.1 709.06 1015.87 704.22 1011.02 702.6 1007.79 697.75 1006.17 696.14 1004.56 694.52 1001.33 692.91 998.1 688.06 994.86 684.83 991.63 681.6 991.63 679.98 994.86 678.37 997.14 678.37 999.71 676.75 1002.94 675.14 1004.78 675.14 1009.4 675.14 1012.63 671.91 1014.25 668.68 1014.25 665.45 1014.25 663.83 1015.87 662.21 1019.1 662.21 1022.33 660.6 1025.56 657.37 1027.17 655.75 1027.17 652.52 1028.79 649.29 1033.63 647.67 1036.87 646.06 1035.25 646.06 1032.02 642.83 1028.79 637.98 1027.17 631.52 1027.17 629.9 1025.56 625.06 1023.94 623.44 1022.33 618.6 1020.71 615.37 1017.48 608.9 1015.87 604.06 1011.02 602.76 1005.83 602.49 1005.95 603.36 1015.78 603.94 1017.52 605.96 1018.39 610.3 1019.83 614.93 1021.57 618.4 1025.62 619.56 1026.2 621.29 1030.82 622.45 1033.14 623.03 1035.16 623.32 1038.06 623.89 1037.48 627.08 1040.08 626.5 1040.95 627.08 1045 627.65 1047.02 628.81 1049.05 630.84 1051.07 634.31 1055.41 638.93 1062.64 643.85 1069.87 650.97 1080"/><polyline class="cls-4" points="2923.44 430.63 2925.47 430.35 2927.5 430.35 2929.82 430.35 2931.27 430.35 2932.72 430.35 2935.34 430.35 2938.24 430.63 2942.01 431.22 2948.1 432.96 2950.72 433.83 2953.91 435.28 2962.03 438.76 3014.85 461.98 3022.11 465.46 3027.91 468.65 3029.94 470.1 3032.84 472.13 3034.29 473.3 3037.78 476.49 3041.55 480.55 3038.65 483.16 3036.62 480.84 3035.45 479.68 3033.42 477.65 3030.81 475.62 3026.46 472.42 3020.65 468.94 2988.44 454.43 2973.35 448.05 2951.3 438.18 2945.78 436.44 2940.85 435.28 2937.66 434.7 2934.75 434.41 2933.3 434.41 2932.72 434.41 2931.27 434.41 2929.82 434.41 2928.95 434.41 2926.63 434.7 2924.02 434.7 2922.86 434.99 2919.37 434.41 2918.21 434.12 2917.05 433.83 2915.89 433.25 2914.44 432.38 2912.99 431.8 2910.67 430.93 2909.51 430.63 2909.22 429.76 2908.64 428.89 2908.64 428.31 2908.93 427.73 2909.22 426.86 2909.8 426.28 2910.96 426.28 2912.41 426.57 2914.44 427.44 2916.47 428.31 2917.63 428.89 2918.5 429.18 2919.37 429.76 2920.53 430.06 2921.99 430.35 2923.44 430.63"/><polyline class="cls-4" points="2937.74 448.4 2936.87 448.69 2936.01 448.69 2934.86 448.4 2931.13 448.4 2929.4 448.4 2927.97 448.4 2923.08 448.98 2921.64 449.26 2920.49 449.55 2917.62 450.41 2915.03 451.27 2912.16 453 2910.44 453.86 2908.43 455.3 2906.7 456.45 2904.69 458.17 2901.53 461.04 2900.09 462.48 2899.23 463.63 2898.37 464.49 2897.79 465.07 2896.93 465.35 2896.07 465.64 2895.21 465.35 2894.63 464.49 2894.63 463.92 2895.21 462.77 2895.78 462.19 2896.93 461.04 2898.37 459.61 2899.81 458.17 2901.53 456.45 2902.68 455.3 2904.4 453.86 2905.84 452.71 2908.71 450.99 2910.44 450.12 2912.16 449.26 2913.6 448.69 2916.47 447.25 2917.91 446.96 2919.35 446.39 2920.78 446.1 2922.22 445.81 2923.66 445.53 2925.38 445.24 2927.39 445.24 2929.4 445.24 2931.99 445.24 2934 445.24 2935.72 445.24 2936.59 445.24 2937.45 445.53 2938.02 445.81 2938.31 446.39 2938.6 446.96 2938.6 447.54 2938.31 448.4 2937.74 448.4"/><polyline class="cls-4" points="2880.23 463.81 2879.61 463.81 2878.38 463.51 2871.59 470.6 2871.29 470.6 2870.98 469.98 2878.07 462.89 2878.07 462.27 2878.07 461.96 2878.07 461.35 2879.92 459.5 2881.15 458.26 2882.69 456.72 2884.54 454.87 2886.39 453.33 2887.63 451.79 2888.86 450.25 2891.02 448.09 2892.87 446.24 2894.72 444.7 2895.95 443.77 2897.19 443.16 2897.8 443.16 2898.42 443.46 2899.04 444.08 2899.04 444.7 2898.73 445.62 2898.11 446.24 2897.49 447.17 2896.57 447.78 2894.72 449.63 2892.87 451.48 2889.79 454.56 2886.7 457.34 2884.54 459.5 2882.39 461.96 2880.84 463.2 2880.23 463.81"/><polygon class="cls-4" points="493.81 527.04 487.43 510.22 519.32 487.03 524.15 494.76 499.01 512.79 502.76 523.68 493.81 527.04"/><polygon class="cls-4" points="800.38 356.23 797.57 346.11 791.98 347.66 794.77 357.72 800.38 356.23"/><rect class="cls-4" x="813.47" y="341.88" width="5.8" height="9.73" transform="translate(-63.02 231.15) rotate(-15.52)"/><rect class="cls-4" x="836.46" y="337.07" width="5.8" height="8.18" transform="translate(-60.69 237.1) rotate(-15.52)"/><rect class="cls-4" x="866.95" y="328.37" width="4.83" height="8.54" transform="translate(-57.31 244.82) rotate(-15.52)"/><rect class="cls-4" x="878.51" y="325.47" width="4.83" height="8.23" transform="translate(-56.07 247.8) rotate(-15.52)"/></g></g></g></svg>