<svg id="_1985" data-name="1985" xmlns="http://www.w3.org/2000/svg" xmlns:xlink="http://www.w3.org/1999/xlink" height='1080' width='3840' viewBox="0 0 3840 1080"><defs><style>.cls-1{clip-path:url(#clip-path);}.cls-2,.cls-3{fill:none;stroke:#300;stroke-width:3px;stroke-dasharray:10;}.cls-2{stroke-linecap:round;stroke-linejoin:round;}.cls-3{stroke-miterlimit:10;}</style><clipPath id="clip-path"/></defs><g class="cls-1"><g id="HKI_2019" data-name="HKI 2019"><polyline class="cls-2" points="680.09 1080 679.67 1079.13 675.99 1071.29 672.59 1063.48 669.87 1058.7 668.21 1056.4 667.39 1054.23 667.14 1052.16 667.21 1048.11 667.91 1047.35 665.21 1044.31 664.62 1043.62 664.72 1041.9 664.47 1039.83 664.64 1037.52 665.35 1034.65"/><polyline class="cls-2" points="2927.52 427.87 2929.53 427.59 2931.53 427.59 2933.83 427.59 2935.26 427.59 2936.69 427.59 2939.27 427.59 2942.14 427.87 2945.87 428.45 2951.89 430.17 2954.47 431.03 2957.62 432.46 2965.65 435.9 3017.82 458.83 3024.99 462.27 3030.72 465.43 3032.73 466.86 3035.6 468.87 3037.03 470.01 3040.47 473.17 3044.2 477.18 3041.33 479.76 3039.32 477.47 3038.18 476.32 3036.17 474.31 3033.59 472.31 3029.29 469.15 3023.56 465.71 2991.74 451.38 2976.83 445.07 2955.04 435.33 2949.59 433.61 2944.72 432.46 2941.57 431.89 2938.7 431.6 2937.27 431.6 2936.69 431.6 2935.26 431.6 2933.83 431.6 2932.97 431.6 2930.67 431.89 2928.09 431.89 2926.95 432.17 2923.51 431.6 2922.36 431.31 2921.21 431.03 2920.07 430.45 2918.63 429.59 2917.2 429.02 2914.91 428.16 2913.76 427.87 2913.47 427.01 2912.9 426.15 2912.9 425.58 2913.19 425.01 2913.47 424.15 2914.05 423.57 2915.19 423.57 2916.63 423.86 2918.63 424.72 2920.64 425.58 2921.79 426.15 2922.65 426.44 2923.51 427.01 2924.65 427.3 2926.09 427.59 2927.52 427.87"/><polyline class="cls-2" points="2941.28 445.36 2940.42 445.65 2939.56 445.65 2938.41 445.36 2934.69 445.36 2932.97 445.36 2931.53 445.36 2926.66 445.93 2925.23 446.22 2924.08 446.51 2921.21 447.37 2918.63 448.23 2915.77 449.95 2914.05 450.81 2912.04 452.24 2910.32 453.39 2908.31 455.11 2905.16 457.97 2903.73 459.41 2902.87 460.55 2902.01 461.41 2901.43 461.99 2900.57 462.27 2899.71 462.56 2898.85 462.27 2898.28 461.41 2898.28 460.84 2898.85 459.69 2899.43 459.12 2900.57 457.97 2902.01 456.54 2903.44 455.11 2905.16 453.39 2906.31 452.24 2908.03 450.81 2909.46 449.66 2912.33 447.94 2914.05 447.08 2915.77 446.22 2917.2 445.65 2920.07 444.21 2921.5 443.93 2922.93 443.35 2924.37 443.07 2925.8 442.78 2927.23 442.49 2928.95 442.21 2930.96 442.21 2932.97 442.21 2935.55 442.21 2937.55 442.21 2939.27 442.21 2940.13 442.21 2940.99 442.49 2941.57 442.78 2941.85 443.35 2942.14 443.93 2942.14 444.5 2941.85 445.36 2941.28 445.36"/><polyline class="cls-2" points="2884.23 460.27 2883.66 460.27 2882.51 459.98 2876.2 466.57 2875.92 466.57 2875.63 466 2882.22 459.41 2882.22 458.83 2882.22 458.55 2882.22 457.97 2883.95 456.25 2885.09 455.11 2886.53 453.67 2888.25 451.95 2889.97 450.52 2891.11 449.09 2892.26 447.65 2894.27 445.65 2895.99 443.93 2897.71 442.49 2898.85 441.63 2900 441.06 2900.57 441.06 2901.15 441.35 2901.72 441.92 2901.72 442.49 2901.43 443.35 2900.86 443.93 2900.29 444.79 2899.43 445.36 2897.71 447.08 2895.99 448.8 2893.12 451.67 2890.25 454.25 2888.25 456.25 2886.24 458.55 2884.81 459.69 2884.23 460.27"/><polyline class="cls-2" points="3167.16 581.01 3204.63 608.98 3207.5 615.86 3223.27 682.37 3223.27 684.38 3222.69 686.1 3237.6 705.3 3240.18 708.46 3253.94 725.94 3257.09 723.36 3255.09 709.03 3256.24 709.03 3258.24 723.94 3257.09 724.22 3254.23 726.52 3261.39 735.69 3283.96 762.59 3224.7 832.01 3255.59 870.52 3264.07 871.94 3270.66 871.94 3311.56 840.61 3298.09 793.31 3312.14 776.97 3305.54 754.9 3301.53 747.73 3296.08 741.14 3296.66 739.42 3298.66 739.42 3305.54 748.59 3309.27 756.04 3316.15 779.26 3315.29 781.27 3332.78 842.91 3333.92 842.33 3335.07 846.63 3333.92 846.92 3336.22 854.66 3354.56 878.17 3385.24 846.92 3470.98 935.23"/><polyline class="cls-2" points="1896.2 449.82 1895.92 449.82 1895.63 449.82 1895.35 449.82 1895.35 449.53 1895.07 449.53 1895.07 449.25 1894.78 449.25 1894.78 448.97 1894.5 448.97 1894.5 448.68 1894.5 448.4 1894.5 448.11 1894.5 447.83 1894.5 447.55 1894.5 447.26 1894.5 446.98 1894.78 446.98 1894.78 446.69 1895.07 446.69 1895.07 446.41 1895.35 446.41 1895.63 446.13 1995.38 417.42 1995.66 417.42 1995.94 417.42 1996.23 417.42 1996.51 417.71 1996.8 417.71 1997.08 417.71 1997.08 417.99 1997.37 417.99 1997.37 418.28 1997.65 418.56 1997.65 418.85 1997.65 419.13 1997.93 419.41 1997.93 419.7 1997.65 419.7 1997.65 419.98 1997.65 420.27 1997.37 420.55 1997.37 420.83 1997.08 420.83 1997.08 421.12 1996.8 421.12 1996.51 421.12 1994.24 421.97 1896.77 449.82 1896.49 449.82 1896.2 449.82"/><polygon class="cls-2" points="1201.12 391.54 1188.12 387.78 1187.54 387.2 1190.72 376.23 1191.3 375.65 1204.29 379.12 1204.87 379.99 1201.98 390.96 1201.12 391.54"/><path class="cls-2" d="M429.84,569.3l4.22-2.87,2.87-2.59,1.32-1.92,2.95-4.35,5.26-7,29.85-11.77,53.11-19.09-4.26-11.94L521.42,502l30.79-21.3L556,486.2l-25.32,17.55,5.09,13.6,11.45-4.29,30.75-11.53L576,494l2.62-.66,1.81,6.43.21.77,7.26-2.72,17.58-3.2,6.1-1.09-.56-3.8-3,.5-.52-3.11L617,485.5l.52,3.11-3.34.56.56,3.77,15.21-2.78,11-10.16,9.57-9.27,17.11-16.55,82.76-68.26,54.2,8.56-6.12-19.21L737.45,364.6l.91-7.18,47.8,8.43,27.21-6.46-2.28-8.27,3.13-.86,2.29,8.28,15.69-4.28L829.91,346l3.14-.86,2.28,8.27L855,348.27l-2-8.56,3.14-.86,2.28,8.56L885.26,340l-.86-3.42.86-.28-1.14-4.57L883,332v-.29l3.13-.85.29.28-1.14.29L886.4,336l1.14-.28.86,3.42,8.27-2.28-2-8.28,2-.57,2.28,8.28,35.24-8.87,113.72,4.37,3.93,1.35L1148,358.82l19.4,24.53.85.28,1.14-.57,14.84,4,.85-.57,2.86-10.84-.57-.86-6-1.43v-.85l.28-2-.85-.28-.58,2-4-1.14-2-3.14.57-2.85,3.14-1.71h.29l4,1.14-.28,2h.85l.57-1.71.29-.86,23.11,6.28.57-.57,2.85-10.56-.29-.57L1205,357.1l.57-2-.85-.29-.57,2-1.71-.29.57-2.28h-.86l-.28,2-20.54-5.42-1.72-3.14.86-2.85.86-.57,32,8.55,15.12,4.28.57.86-.86,2.85-3.14,1.71-3.14-.85.58-2.28h-1.15l-.57,2-1.42-.57.57-2-.86-.29-.57,2.28-4.85-1.42-.57.28-2.85,10.84.28.57,6.28,1.71-.29.86.29.29-.57,1.71.86.28.57-2,4.27,1.14,1.72,3.13-.86,2.86-2.85,1.71-4.28-1.14.28-1.71-.57-.29-.57,1.71h-.28l-.29.86-6-1.71-.85.57-2.86,10.84.29.57,31.38,8,8.2,3.31,6.82,4.55,4.55-4.55L1287,371.39l2.27.57-4,14.49,7.11,2,1.42,2.56,4.54,1.13,1.42-.56,4.27-15.63,5.68,1.42L1305.43,393h.28l.85,1.42,12.51,3.12,1.13-.85,4-15.06.85-.57,4.83,1.42.57.57-4.26,15.63.85.85,12.79,3.13,1.42-.85,3.7-14.78.28-.29h.28v-.28h.29l4.54,1.42h.29v.29h.28v.28l-4,14.78.86,1.42,12.5,3.69,1.42-.57,4.55-14.77v-.29h.28l.29-.28.56.28,4.27,1.14.28.28v.57l-4.55,14.78.86,1.13-.29.57,12.51,4.26.28-.56,1.14-.57,5.4-14.49v-.29h.85l4.26,1.42.29.29h.28v.57l-5.4,14.49.85,1.42-.28.28,12.22,4.83.28-.28,1.42-.85,5.69-13.93.28-.28.28-.29h.29l4.54,2,.29.29V410L1407.73,424l.56,1.71,0,.39,1.74.74,9.66,4.26,2-1.13,6-14.21,5.68,2.27-6,14.21,3.41,8.81,13.93-4.83h.85l.57.28h.28l.29.29.28.57.28.28v.85l-.28.57-.28.57-.29.28h-.57l-13.92,4.83,4.83,13.36,13.92-4.83h1.14l.29.28h.28l.28.29v.28l.29.29v.28l.28.28v.57l-.28.29v.28l-.29.28-.28.29-.28.28-.57.29-13.64,4.54,4,11.37,4.26,2.84,4.54,2.84h.29l.57,2.56L1481,493.3l6,2.27,2.27,1.14,2.56.85,6.82,2.84,3.12,1.14,3.41,1.13,6.82,2.85,2.56-1.43,8.53,1.71,7.1,1.42,5.12.57,2,.28,2.85.29,4.26.28,2,.28,2.56.29,2.84,3.12,2,1.71,2.27,1.42,2,1.14,2,.57,1.7.28h8.53l8.81.57h.85l11.08,3.12,10.23,2.56,5.68.85,3.41.29h3.13l4.26-.85,3.7-1.14,2.55-1.14,3.13-1.42,2.27-1.42,1.71-2,2.27-2.84,1.14-1.71,1.42-2.27.28-.85,1.14-1.71.28-1.13,1.14-2,.57-1.42.85-1.42.85-.86,1.71-2,2-1.7,2-1.71,4-12.5h-.29l-.28-.28-.29-.29-.28-.28-.29-.57v-1.42l.29-.28.28-.29,4.27-4.26.28-.28,2-1.14,2-1.14,1.7-.85,1.71-.85,1.7-.57,1.42-.29,1.71-.28,1.42-.28h4.55l2,.28,2.84.57,2,.57,1.7.57,1.14.56,1.13.57.86.29.85.56h14.49l-2.27-7.95V464l.28-.57.57-.57.29-.57.56-.28.57-.29.57-.28h.57l.57.28h.57l.56.29.57.57.29.28.28.57v.28l.28.57,4.27,16.48-2.28.57.29.29.28.28v1.14l-2.27,7.95.28.29.29-.57,1.13.28-.28,1.42-1.14-.28v-.28l-.57-.29L1703,495h.57v-.28l1.14.28-.29,1.71-1.13-.57v-.57l-1.42-.29v2l.85,12.79.28.85.57,1.14.57.85.57.86.57.56.56.86,1.14.56.85.57.86.57.85.29h5.68l2-.29,23.59-2.56V514l.28-.57.57-.57v-.57l-1.71-14.77v-.29h.29V497h.28l.29-.28,4.54-.29h.57v.29l.28.28,1.71,15.06,1.14,1.42,3.41-.57,7.67-.85,9.38-1.42,4.54-.57,7.11-1.14,10.23-1.42,29.83-4.54,20.18-16.77,2.84-2.27,1.14-1.14.57-.28h1.7l.85.28.57.29.57.28.57.85.28.57.29,1.14v.57l-.29.85-.57.85-.56.57-22.45,19L1833.4,526l15.06-5.39,19.09-14.39,2.23-8.06v-4.27l-1.71-.28v-3.41l1.42-.28-.57-5.4.57-2.56-1.42-1.14.29-1.42-8-2.27v-.57l9.09,2.27.57-.28,2.56-1.14.57-2.84,2-2.27,5.11.28,6.54-2-7.39-17.05.28-.85v-.28l.57-.57h.28l.57-.29.57.29.29.28.28.29,7.39,17.33,2.88,0,3.33-1.11,4.44-1.11,3.33,1.11,2.23,3.33v3.33l-2.23,3.34.37,3.35-.14,4.39-1.42,6.75-7.11,32.36,1.14,3.41.57.85,2.55,1.14,7.68-3.13,30.12-20.46.85-5.68,15.91-12.79,12.22-4.55,5.12.57,1.42-.85,48.31-13.36,4.83-5.78,3-8.07,1.22-8.14,1.76-7.84-6-18.48-.86-2.27.86-.85,1.13-2-1.13-.85-30.69-20.75-.57-.56-.29-.57v-.57l.29-.57.28-.57.29-.28.56-.29.57-.28.57.28h.57l5.68,4,1.14.85,11.37,7.68L2026.07,393l25-28.7,17.62-18.48,2.84-2.55,27.57-25.86,3.12-2.84,1.14-.57.85-.29h1.71l.85.29L2118,302l15.55-12.22,16.66-11.1,16.66-5.56,18.88-5.55,16.88-4.55,17.87-5.26h15.31l22.42,2h18.93L2275.1,258l-.59-2.07.59-2.37-3-12.73v-.3l.3-.59.29-.3,3.85-.88h.59V239l.3.3.29.29,2.67,12.73,1.48,1.78.29,2.07-1.18,2.67v.29l7.12-1.92,7.39-1.46,5.32-1.06-1.18-5.33-1.18-.89-.6-2.07.6-2.37-3-12.43v-.3l.29-.29.3-.3.29-.29,3.56-.6h.59l.29.3.3.59,2.67,12.44,1.18,1.48.59,2.36-.59,1.19.89,5.33,10-3.24,10.42-3.47,8.1-2.32,4.63-3.47,8.37-1.12h9.09v-2.37l.89-1.18-.89-13,.29-.29h.3l.3.29.59,12.73,1.18,1.19v2.36l10,.26,27.66,4.31,13.33,2.23,15.55,5.55,17.77,7.77,13.33,5.56,14.44,4.44c.55.35,19.65,5.13,19.65,5.13l22.29,9.55,23.95,14,93.79,45.66,94.37,15,58.48,27.23,58.2,55.71,1.43-1.72,1.72-.57,8.89-8.89h1.15l2.58,2.87.28.28v.58l-9.17,9.17-.57,2-1.44,1.14,10.15,10.9,1.43-1.15,2-.86,8.6-8.6.29-.29h.57l.29.29h.28l2.3,2.58.28.29v.86l-8.88,8.88-.58,1.44-1.72,1.72.64,2.57-14.55,14.55,7.74,8,22.93,23.22h71.67l11.18-1.72h10l21.22-8.31.28,2,3.16-.57.57,2.29,25.23-2.29,4-3,5.43-3.83,3.83-5.43,4.16-3.84,4.56-2.86,5.43-4"/><polyline class="cls-3" points="501.01 796.38 522.75 825.72 604.79 976.59"/></g></g></svg>