<?xml version="1.0" encoding="utf-8"?>
<!-- Generator: Adobe Illustrator 23.0.3, SVG Export Plug-In . SVG Version: 6.00 Build 0)  -->
<svg width="3840" height="1080" version="1.1" id="圖層_1" xmlns="http://www.w3.org/2000/svg" xmlns:xlink="http://www.w3.org/1999/xlink" x="0px" y="0px"
	 viewBox="0 0 3840 1080" style="enable-background:new 0 0 3841 1081;" xml:space="preserve">
<style type="text/css">
	.st0{fill:#70CCB8;}
</style>
<g>
	<path class="st0" d="M1312.4,494.8c3.3,4.6,6.5,9.1,9.9,13.9c5.3-2.8,9.3-7.6,14.5-9.6c0.5,1,0.9,1.9,1.4,2.9
		c-4.4,3.2-8.8,6.4-13.6,10c2.2,3.2,4.4,6.2,7.2,10.2c3.8-3.4,7.4-6.6,11.5-10.2c0.6,0.5,1.9,1.3,2.7,1.9c-2.2,4.7-4.1,8.9-6.3,13.6
		c5.3,1.5,9.5,2.8,14,4.1c0.7-1.7,1.4-3.1,2.2-5c1.4,0.4,2.7,0.8,4.2,1.2c-0.2,1.8-0.5,3.4-0.7,5.5c5.3,0.3,9.8,5,15.6,1.8
		c0.8-0.5,3.1,1.6,4.6,2.6c0.9,0.6,1.6,1.7,2.5,1.9c12.8,3.7,25.6,7.3,38.4,10.9c0.5,0.1,1,0,2.2,0c1.5-7.4,2.9-14.9,4.5-22.9
		c9,1.9,18.6,3.9,28.1,5.9c7.8,1.7,15.6,3.2,23.4,5.1c1.8,0.4,3.7,1.4,5.2,2.7c0.9,0.7,1.5,2.6,1.2,3.6c-0.4,1.1-2.1,2.4-3.1,2.3
		c-4.7-0.5-6.2,2.2-6.8,6.1c-0.2,1-0.2,2-0.6,2.9c-4.7,10.6-1.5,18,8.5,23.6c5.3,3,9.7,7.5,14.6,11.3c4.1,3.1,7.1,2.6,10.1-1.4
		c5.8-7.9,11.6-15.9,17.5-23.7c2.7-3.6,2.8-6.2-1.3-9.1c-8.8-6.3-17.4-12.9-26-19.5c-1.9-1.4-4.7-2.6-2.5-5.8
		c2.1-3.2,4.5-1.3,6.4,0.1c10.8,8.1,21.5,16.3,32.2,24.5c3.3,2.5,4.2,5.4,0.9,8.7c-1.2,1.2-2,2.7-3.2,4.3
		c17.1,13.2,34.1,26.2,51.5,39.7c-4.5,8.5-9,16.8-13.7,25.8c18.6,12.6,37.3,25.2,56.2,37.9c1.2-1.2,2.1-2.3,3.3-3.6
		c1.3,0.9,2.4,1.8,3.6,2.6c-0.7,1.5-1.3,2.7-2.1,4.4c11.3,0,22,0,33.1,0c0.3-5.1,0.5-10,0.8-15.2c3.2,0,6,0,9.2,0
		c0.2,2.3,0.4,4.6,0.6,7.6c4.6-0.4,9.1-0.7,13.7-1.1c4.5-0.4,9-0.8,13.4-1.4c3.6-0.5,6.6-0.8,5.9,5.7c5.1-1.7,9.5-2.5,13.3-4.5
		c6.9-3.6,13.5-7.8,20.4-11.9c-0.8-1.6-1.5-2.8-2.3-4.3c1.3-0.9,2.5-1.7,3.9-2.6c1.2,1.4,2.2,2.6,3.4,4.1
		c22.9-15.9,50.5-18.5,75.7-28.7c-1-1.1-2-2.1-3.3-3.5c1-0.8,1.8-1.6,2.7-2.2c0.8-0.5,1.7-0.9,3.4-1.9c0.3,2.1,0.5,3.8,0.8,6.3
		c10.7-4.3,21.4-8.6,32.9-13.2c0,23.7,0,45.8,0,68.2c-2.9,0-5.4-0.1-7.9,0c-4.3,0.2-6.5-2.6-7.3-6.2c-1.9-8.2-4.6-16.4-2.2-25
		c0.4-1.6-0.4-3.9-1.4-5.5c-2-3.5-4.4-6.7-6.6-10c-3.3-5-5.9-6-10.9-2.7c-6.2,4.2-11.7,9.3-19.5,10.5c-7.1,1.1-14.2,2.8-21.8,4.3
		c0.8,12.9-10.5,17.2-19.1,23.5c-1.3,0.9-4.3,0.4-6-0.4c-7.3-3.5-13.3-1.4-19.4,2.9c-2.1,1.5-5.2,1.6-7.8,2.5
		c-6.4,2.2-12.8,4.2-19,6.6c-10.1,4-20.1,8.4-30.2,12.5c-0.8,0.3-2.3,0.4-2.7-0.1c-4.1-4.6-9.5-3-14.5-3.2c-2.8-0.1-5.7-0.2-8.5,0
		c-4.9,0.3-9.3-0.5-13.6-3.5c-3.8-2.7-8.4-3-13.4-1.6c-7.4,2.1-14.8,2.5-20.6-4.4c-1.5-1.9-4-2.9-6-4.4
		c-11.3-8.2-22.3-16.8-33.9-24.4c-6.7-4.4-14.4-7.4-21.7-10.7c-2-0.9-4.6-0.6-6.9-0.8c-4.3-0.3-5.9-3-3.3-6.5
		c2.9-3.8,6.3-7.3,9.8-10.6c2.5-2.3,3-4.1,0.4-6.6c-3.4-3.2-6.7-6.5-9.9-9.9c-2-2.2-3.9-2.2-6-0.4c-1.9,1.6-3.9,3.1-5.8,4.7
		c-4.3,3.3-8.7,6-14.4,5.8c-6.6-0.2-13.2-0.5-18.6,5c-2.2,2.3-4.9,0.3-4.5-2.5c1.1-7.8-3.8-11.4-9-15.8
		c-15.5-13.2-33.1-22.3-52.6-27.5c-9.4-2.5-18.7-5.9-28.8-3.5c-8,1.9-16.1,3.4-24.2,4.2c-3.6,0.4-7.4-1.2-11.1-1.8
		c-3.2-0.6-6.8-0.6-9.7-1.9c-2.6-1.2-4.6-3.9-6.7-6.1c-2.5-2.7-4.8-5.7-7.2-8.5c-0.7-0.9-1.8-1.6-2.2-2.6c-3.7-11.3-14-17.6-20.1-27
		c-1.5-2.3-3-4.7-4.4-7.1c-1.4-2.3-2.4-4.8-4-6.8c-4.6-5.7-9.5-11.1-14.2-16.6c-3.5-4.2-7.2-8.2-10.2-12.8c-1.4-2.2-1.7-5.3-1.9-8
		c-0.3-5.1-1.2-9.5-6.2-12.1c-1.7-0.9-3.2-2.5-4.5-3.9c-5.8-6.6-12.9-9.4-21.7-9.2c-2.8,0.1-5.8-1.2-8.4-2.5
		c-4.5-2.4-9.1-3.7-14.3-3.4c-2.9,0.1-5.9-0.8-8.8-1.3c-3.6-0.6-5.9-0.1-9.5,2.4c-5.6,3.9-12.2,9-20.4,6.2c-2-0.7-4.3-1.1-6.1-2.1
		c-1.4-0.8-3.1-2.5-3.2-4c-0.3-4-1.9-6.7-5.2-9c-3.7-2.6-6.9-6.1-10.5-8.8c-3.2-2.4-6.1-0.6-8.2,1.8c-3.7,4.1-12.2,4.5-16.5,0.8
		c-10.1-8.7-20.3-17.2-30.5-25.6c-3.8-3.1-7.2-3.5-12.5-1.1c-8.1,3.7-14.6,9.5-22.3,13.6c-4.6,2.4-9.4,2.8-14-0.6
		c-1.3-0.9-3-1.7-4.6-1.7c-4,0-6-2-8.4-5c-1.9-2.4-5.6-4-8.7-4.6c-8.4-1.6-17-2.8-25.5-3.6c-6.9-0.6-14-0.3-20.9-0.6
		c-2.9-0.1-6.1-0.5-8.7-1.6c-2.1-0.9-4.2-2.9-5.2-4.9c-1.4-2.7-0.9-7.5-2.8-8.6c-3.5-2-8.2-2.2-12.4-2.8c-2.6-0.4-5.3-0.1-8-0.1
		c-4.8,0.1-8.7,2-9.6,7c-1.3,7.2-5.3,11.3-12.2,13.3c-8.9,2.5-18.2,3.4-25-3.2c-5.9-5.8-12.1-6.1-18.6-4.5
		c-6.5,1.6-12.9,4.3-18.7,7.6c-10.7,6.1-21,13.2-33.6,14.6c-8.7,1-17.6,0.8-26.4,0.5c-3-0.1-6-2.3-9-3.6c0-0.5,0.1-1,0.1-1.6
		c29.7-7.9,59.5-15.7,89.7-23.7c-1.3-5.2-2.5-9.9-3.7-14.7c0.5-0.2,1-0.5,1.5-0.7c4.8,3.2,2.6,10.1,6.2,14.4
		c6.9-1.8,13.9-3.7,21.4-5.6c-1.3-6-2.6-11.8-3.8-17.6c3.3-0.3,3.3-0.3,5.1,6.6c0.8,3.2,1.8,6.3,2.7,9.9c5.5-1.4,10.5-3,15.7-4
		c5-1,10.1-1.3,15.7-1.9c0.2-1.1,0.5-2.8,0.9-4.9c11.6,1,23.2,2,35.4,3c-1.2,1.7-2.2,3.1-3.6,5.2c14.7,1.1,28.8,2.2,43.3,3.3
		c0.3-2.4,0.6-4.5,0.9-6.7c6.2-0.2,1,4.8,3.1,6.9c21.8,1.6,43.7,3.3,65.8,5c0.3-4.7,0.6-9,0.9-13.2c0.4-0.1,0.9-0.3,1.3-0.4
		c0.5,1.2,1.3,2.3,1.4,3.5c0.6,10.5,0.6,10.5,10.7,13.3c4.8,1.3,9.6,2.6,14.4,3.9c0.3,0.1,0.6-0.1,1-0.2c3.1-3.6,1.4-9.9,7.7-11.9
		c-1.1,4.4-2.3,8.8-3.5,13.7c18.3,5.1,36.6,10.1,54.6,15.2c3.5-4.1,1.4-10.8,6.3-13.8c0.5,0.2,1,0.4,1.4,0.5
		c-1.1,4.6-2.2,9.2-3.4,14.4c10.2,2.8,20.3,5.7,30.7,8.5c3.8-7.8,4.4-16.7,8.7-23.8c0.8,0.3,1.5,0.6,2.3,0.9
		c-2.1,7.9-4.2,15.8-6.1,23.1c19.6,11.6,39,22.9,58.1,34.7c4.5,2.8,8.2,7.2,11.5,11.4c6.3,8.1,12,16.7,18,25.1
		c1.9-0.7,3.5-1.3,5.2-1.9c0.2,0.3,0.4,0.7,0.6,1C1314.6,491.7,1313.6,493.1,1312.4,494.8z"/>
	<path class="st0" d="M2505.8,393.9c11,0,21.7,0,33.8,0c-1.7-2.5-3-4.4-4.8-6.9c0.4-0.6,1.2-2,2.3-3.6c3.9,2.8,7.5,5.4,11.2,8.1
		c-1,1.7-1.8,3.1-2.9,4.9c3.4,1.3,6.3,2.8,9.5,3.7c5,1.5,8.2-0.3,10.3-5.1c2.3-5.5,4.7-11,6.9-16.6c1.2-3.1,2.6-4.2,5.3-1.6
		c-1.6,10.3-10.7,18.7-8.8,29.8c0.7,0.1,1.5,0.2,2.2,0.3c0-3,0-6.1,0-10c2.4,0.5,4.4,0.9,6.3,1.3c-0.6,1.5-1.4,3-1.8,4.6
		c-0.9,3.2-1.5,6.4-2.3,9.7c0.4,0.2,0.9,0.3,1.3,0.5c1.7-1,3.3-1.9,5-2.9c0.5,0.2,0.9,0.5,1.4,0.7c-0.9,1.7-1.7,3.4-3,5.9
		c3.9,4.3,8.4,9.2,13.9,15.2c0-10.9,0.6-20.4-0.3-29.7c-0.3-3.3-4.4-6.3-7.2-10c0.8,0,2.4-0.4,3.7,0c1.1,0.4,1.9,1.8,2.7,2.8
		c2.6,3.6,5.4,6.9,11.2,5c0,3.7,0,6.8,0,10.2c7.3,0.7,14,1.4,21.5,2.1c0-4,0-7.7,0-11.1c9.8,0,18.9-0.2,28,0
		c30.1,0.9,60.2,2,90.3,2.9c4,0.1,7.4,1.4,8.5,5.5c2.3,8.6,5.1,17.2,6.1,26c1.9,15.8,2.6,31.8,4,47.7c0.2,2,1.5,4,2.7,5.7
		c10.9,15.9,21.9,31.8,33.3,48.1c-7,4.4-13.9,8.6-20.9,13c-0.8-1.1-1.4-1.9-1.9-2.7c-13-19.1-25.6-38.5-39.1-57.2
		c-7.3-10.1-19-13.5-30.7-16.1c-5.4-1.2-10.9-1.7-16.2-3.1c-5.8-1.5-10.7-4.4-15.7-8c-8.6-6.2-18-11.3-27.7-15.6
		c-3.1-1.4-8.5,0.2-11.8,2.1c-8.8,5-15.8,12-19.2,22.1c-0.7,1.9-2.6,4.9-3.8,4.9c-2.5-0.1-5.4-1.5-7.3-3.2c-2-1.8-3.2-4.6-4.6-7.1
		c-4.6-7.9-9.1-15.9-13.8-23.7c-1.6-2.7-4-4-7.1-2.1c-7.6,4.6-14.7,9.4-15.7,19.7c-0.6,6.7-6.3,10.1-11.8,12.4
		c-4.2,1.8-7.8-0.5-10-4.3c-6.6-11.1-14.2-21.9-19.4-33.6c-5.6-12.5-9-26-13.3-39.1C2505.6,395.3,2505.8,394.6,2505.8,393.9z"/>
	<path class="st0" d="M2036.4,442.5c9.4-11.4,18.7-22.9,28.5-34.8c7.4,6.3,14.6,12.4,21.7,18.5c4.8-6.3,3.9-12.7-2.6-18.5
		c5.1-5.4,0.7-8.2-3.3-11.5c-9.1-7.6-17.9-15.3-26.7-22.9c1.6-1.9,2.9-3.6,4.5-5.4c11.5,9.8,22.4,19.1,33.5,28.6
		c3.9-4.9,7.5-9.4,11.2-14.1c3.7,2.8,7.1,5.5,10.8,8.4c2.7-2.9,5.2-5.7,7.7-8.4c3.3,2.1,3.2,3.8,1.1,6.3
		c-9.5,11.1-19.1,22.2-28.1,33.8c-5,6.5-3.9,14.6-3,22.2c1.6,13.4,3.9,26.7,5.1,40.1c1.3,13.7,1.6,27.6,2.4,41.3
		c0.4,6.6,1.2,13.2,1.9,19.8c0.6,5.1,2.2,10.3,1.8,15.3c-0.6,9.3,2.3,17.3,6.4,25.2c2.9,5.7,4.5,11.8,2.5,18.3
		c-1.4,4.5-7,9-11.7,9.1c-1.8,0-3.7,0.1-5.5,0c-18.7-1.5-36.3,3-53.6,9.3c-11.3,4.1-19.6,1.9-26.6-7.2c-2.9-3.8-5.4-7.7-11.5-7.2
		c1.5-1.1,2.9-2.3,4.5-3.4c24.4-18,48.8-36,73.3-53.8c8-5.8,12.4-12.8,11.8-23.1c-0.8-12.7-4.4-24.4-10.2-35.6
		c-9.4-18.2-24.5-31.4-39.6-44.4c-1.8-1.5-3.6-3-5.3-4.5C2037.1,443.6,2036.9,443.1,2036.4,442.5z"/>
	<path class="st0" d="M598.9,517.7c-0.2-3-0.6-7.1-0.9-11.2c-3.1,0-5.8,0.1-8.4-0.1c-0.7,0-1.3-1-2-1.5c0.6-0.6,1.2-1.5,1.9-1.6
		c2.6-0.4,5.2-0.6,8.3-0.9c-0.3-5.3-0.6-10.2-1-15.3c2.2-0.4,4.2-0.8,7.3-1.4c-1.4-1.4-2.3-2.3-3.1-3.2c-0.5-0.5-1.3-1.2-1.2-1.7
		c0-0.5,0.8-1.3,1.5-1.5c1.4-0.4,2.9-0.8,4.4-0.8c1.2,0,2.5,0.4,3.7,0.6c-0.6,0.9-1.4,1.7-1.9,2.7c-0.4,0.8-0.8,2.5-0.6,2.6
		c1,0.5,2.3,1.1,3.5,0.9c8.3-1,16.5-2.1,24.8-3.1c11.7-1.5,23.5-2.8,35.1-4.7c6.5-1.1,10.9,1.3,14.7,6.4
		c13.3-11.1,26.2-22.2,39.5-32.7c6.8-5.3,11.3-12,15.6-19.2c3.5-6,7.3-11.9,11-17.9c3,3,4,11.6,1.4,15.2
		c-5.2,7.1-8.8,14.7-10.4,23.4c-0.4,2.5-3.9,4.5-6.2,6.5c-2.7,2.4-5.7,4.4-8.6,6.6c-4,2.9-7.8,6.1-12,8.7
		c-8.1,5.2-15.1,10.8-18,20.9c-4.7,16.1-15.4,26.8-31.7,31.8c-13.6,4.1-27.1,8.7-41.3,2.2C616,525.4,607.8,521.7,598.9,517.7z"/>
	<path class="st0" d="M1971.3,525.3c7.6,28,15.1,55.7,22.9,84.6c-5-0.9-9.4-1.4-13.5-2.5c-13.7-3.6-26.2-9.3-35.8-20.4
		c-2.2-2.5-5.6-4.4-8.8-5.4c-4.4-1.5-4.3-3.9-2.8-7.2c0.5-1.1,1-2.1,1.8-3c9.5-11.8,6.7-24.2-8-31.2
		C1942.2,535.1,1956.6,530.3,1971.3,525.3z"/>
	<path class="st0" d="M1863.2,674.5c0-14,0-27.9,0-41.9c0-6.5-0.3-13,0.2-19.5c0.2-2.3,1.6-5.7,3.4-6.5
		c12.6-5.9,25.5-11.2,39.7-17.3c-3.9,9.6,2.2,18-1,27.2c-1.7,4.9,1.6,11.9,3.7,17.5c1.7,4.3,0.7,6.6-2.2,9.9
		c-5.5,6.2-12.8,8.8-20.1,11.4c-4.2,1.5-7,3.8-9.7,7.2c-3.7,4.7-8.1,8.9-12.2,13.3C1864.3,675.4,1863.8,675,1863.2,674.5z"/>
	<path class="st0" d="M2059.2,473.1c0.6,0.6,2.5,1.9,2.4,3c-0.2,1.3-1.9,3.1-3.2,3.4c-12.1,2.4-24.2,4.6-36.3,6.8
		c-10.5,1.9-20.9,4.1-31.4,5.7c-6.4,1-11.2,3.7-14.7,9.1c-0.7,1.1-1.6,2.5-2.7,2.8c-1.3,0.4-3.3,0.4-4.4-0.3c-0.6-0.4-0.7-3-0.1-3.9
		c4.4-6.3,9.1-12.1,17.5-13.6c23.3-4.1,46.5-8.5,69.7-12.8C2056.6,473.3,2057.3,473.3,2059.2,473.1z"/>
	<path class="st0" d="M1909.1,583.6c-0.2-2.1-0.4-4.1-0.6-6.7c-1.2,0.7-2,1.4-2.7,1.4c-1,0-3-0.7-2.9-1c0.2-2.1,0.7-4.3,1.4-6.3
		c0.1-0.3,2.3-0.1,3.3,0.4c0.9,0.5,1.5,1.6,2.2,2.5c0.7-1,1.6-1.9,2.1-3c0.5-1.3,0.7-2.8,1.1-4.7c-2.4,0.4-4.2,0.6-7.3,1.1
		c1.5-3.2,2.5-5.2,3.7-7.8c1.5,1.1,2.6,1.9,4.5,3.2c-0.3-3-0.5-5.5-0.7-8.9c-2.3,1.8-3.6,3.3-5.2,4c-1.3,0.5-2.9,0-4.4,0
		c0.1-1.5-0.5-3.7,0.3-4.4c3.7-3.4,7.7-6.4,11.2-9.2c1.5,4.3,1.7,8.7,4,10.9c5.5,5.1,4.6,10.4,1.5,15.6c-2.8,4.8-6.8,9-10.2,13.5
		C1909.9,584.1,1909.5,583.8,1909.1,583.6z"/>
</g>
</svg>
