<?xml version="1.0" encoding="utf-8"?>
<!-- Generator: Adobe Illustrator 23.0.3, SVG Export Plug-In . SVG Version: 6.00 Build 0)  -->
<svg width="7680" height="2160" version="1.1" id="Sheet_15_South_Island_Image"
	 xmlns="http://www.w3.org/2000/svg" xmlns:xlink="http://www.w3.org/1999/xlink" x="0px" y="0px" viewBox="0 0 7680 2160"
	 style="enable-background:new 0 0 7680 2160;" xml:space="preserve">
<style type="text/css">
	.st0{opacity:0.5;}
	.st1{fill:none;}
	.st2{clip-path:url(#SVGID_2_);}
	.st3{fill:none;stroke:#FF8300;stroke-width:3;stroke-linecap:round;stroke-linejoin:round;stroke-dasharray:6.86,6.86;}
	.st4{fill:none;stroke:#FF8300;stroke-width:3;stroke-linecap:round;stroke-linejoin:round;}
	.st5{fill:none;stroke:#FF8300;stroke-width:3;stroke-linecap:round;stroke-linejoin:round;stroke-dasharray:8.07,8.07;}
	.st6{fill:none;stroke:#FF8300;stroke-width:3;stroke-linecap:round;stroke-linejoin:round;stroke-dasharray:7.78,7.78;}
	.st7{fill:none;stroke:#FF8300;stroke-width:3;stroke-linecap:round;stroke-linejoin:round;stroke-dasharray:8.55,8.55;}
	.st8{fill:none;stroke:#FF8300;stroke-width:3;stroke-linecap:round;stroke-linejoin:round;stroke-dasharray:6.22,6.22;}
	.st9{fill:none;stroke:#FF8300;stroke-width:3;stroke-linecap:round;stroke-linejoin:round;stroke-dasharray:5.89,5.89;}
	.st10{fill:none;stroke:#FF8300;stroke-width:3;stroke-linecap:round;stroke-linejoin:round;stroke-dasharray:7.89,7.89;}
	.st11{fill:none;stroke:#FF8300;stroke-width:3;stroke-linecap:round;stroke-linejoin:round;stroke-dasharray:8.53,8.53;}
	.st12{fill:none;stroke:#FF8300;stroke-width:3;stroke-linecap:round;stroke-linejoin:round;stroke-dasharray:7.75,7.75;}
	.st13{fill:none;stroke:#FF8300;stroke-width:3;stroke-linecap:round;stroke-linejoin:round;stroke-dasharray:7.57,7.57;}
	.st14{fill:none;stroke:#FF8300;stroke-width:3;stroke-linecap:round;stroke-linejoin:round;stroke-dasharray:8.31,8.31;}
	.st15{fill:none;stroke:#FF8300;stroke-width:3;stroke-linecap:round;stroke-linejoin:round;stroke-dasharray:8.24,8.24;}
	.st16{fill:none;stroke:#FF8300;stroke-width:3;stroke-linecap:round;stroke-linejoin:round;stroke-dasharray:4.52,4.52;}
	.st17{fill:none;stroke:#FF8300;stroke-width:3;stroke-linecap:round;stroke-linejoin:round;stroke-dasharray:6.36,6.36;}
	.st18{fill:none;stroke:#FF8300;stroke-width:3;stroke-linecap:round;stroke-linejoin:round;stroke-dasharray:7.87,7.87;}
	.st19{fill:none;stroke:#FF8300;stroke-width:3;stroke-linecap:round;stroke-linejoin:round;stroke-dasharray:9.96,9.96;}
	.st20{fill:none;stroke:#FF8300;stroke-width:3;stroke-linecap:round;stroke-linejoin:round;stroke-dasharray:7.16,7.16;}
	.st21{fill:none;stroke:#FF8300;stroke-width:3;stroke-linecap:round;stroke-linejoin:round;stroke-dasharray:7.67,7.67;}
	.st22{fill:none;stroke:#FF8300;stroke-width:3;stroke-linecap:round;stroke-linejoin:round;stroke-dasharray:7.54,7.54;}
	.st23{fill:none;stroke:#FF8300;stroke-width:3;stroke-linecap:round;stroke-linejoin:round;stroke-dasharray:7.46,7.46;}
	.st24{fill:none;stroke:#FF8300;stroke-width:3;stroke-linecap:round;stroke-linejoin:round;stroke-dasharray:8.14,8.14;}
	.st25{fill:none;stroke:#FF8300;stroke-width:3;stroke-linecap:round;stroke-linejoin:round;stroke-dasharray:9.81,9.81;}
	.st26{fill:none;stroke:#FF8300;stroke-width:3;stroke-linecap:round;stroke-linejoin:round;stroke-dasharray:7.61,7.61;}
	.st27{fill:none;stroke:#FF8300;stroke-width:3;stroke-linecap:round;stroke-linejoin:round;stroke-dasharray:7.41,7.41;}
	.st28{fill:none;stroke:#FF8300;stroke-width:3;stroke-linecap:round;stroke-linejoin:round;stroke-dasharray:7.94,7.94;}
	.st29{fill:none;stroke:#FF8300;stroke-width:3;stroke-linecap:round;stroke-linejoin:round;stroke-dasharray:9.37,9.37;}
	.st30{fill:none;stroke:#FF8300;stroke-width:3;stroke-linecap:round;stroke-linejoin:round;stroke-dasharray:4.06,4.06;}
	.st31{fill:none;stroke:#FF8300;stroke-width:3;stroke-linecap:round;stroke-linejoin:round;stroke-dasharray:7.7,7.7;}
	.st32{fill:none;stroke:#FF8300;stroke-width:3;stroke-linecap:round;stroke-linejoin:round;stroke-dasharray:4.11,4.11;}
	.st33{fill:none;stroke:#FF8300;stroke-width:3;stroke-linecap:round;stroke-linejoin:round;stroke-dasharray:6.61,6.61;}
	.st34{fill:none;stroke:#FF8300;stroke-width:3;stroke-linecap:round;stroke-linejoin:round;stroke-dasharray:5.31,5.31;}
	.st35{fill:none;stroke:#FF8300;stroke-width:3;stroke-linecap:round;stroke-linejoin:round;stroke-dasharray:4.41,4.41;}
	.st36{fill:none;stroke:#FF8300;stroke-width:3;stroke-linecap:round;stroke-linejoin:round;stroke-dasharray:8.36,8.36;}
	.st37{fill:none;stroke:#FF8300;stroke-width:3;stroke-linecap:round;stroke-linejoin:round;stroke-dasharray:8.29,8.29;}
	.st38{fill:none;stroke:#FF8300;stroke-width:3;stroke-linecap:round;stroke-linejoin:round;stroke-dasharray:8.69,8.69;}
	.st39{fill:none;stroke:#FF8300;stroke-width:3;stroke-linecap:round;stroke-linejoin:round;stroke-dasharray:4.49,4.49;}
	.st40{fill:none;stroke:#FF8300;stroke-width:3;stroke-linecap:round;stroke-linejoin:round;stroke-dasharray:5.15,5.15;}
	.st41{fill:none;stroke:#FF8300;stroke-width:3;stroke-linecap:round;stroke-linejoin:round;stroke-dasharray:5.62,5.62;}
	.st42{fill:none;stroke:#FF8300;stroke-width:3;stroke-linecap:round;stroke-linejoin:round;stroke-dasharray:4.94,4.94;}
	.st43{fill:none;stroke:#FF8300;stroke-width:3;stroke-linecap:round;stroke-linejoin:round;stroke-dasharray:8.17,8.17;}
	.st44{fill:none;stroke:#FF8300;stroke-width:3;stroke-linecap:round;stroke-linejoin:round;stroke-dasharray:9.27,9.27;}
	.st45{fill:none;stroke:#FF8300;stroke-width:3;stroke-linecap:round;stroke-linejoin:round;stroke-dasharray:9.29,9.29;}
	.st46{fill:none;stroke:#FF8300;stroke-width:3;stroke-linecap:round;stroke-linejoin:round;stroke-dasharray:6.93,6.93;}
	.st47{fill:none;stroke:#FF8300;stroke-width:3;stroke-linecap:round;stroke-linejoin:round;stroke-dasharray:8.03,8.03;}
	.st48{fill:none;stroke:#FF8300;stroke-width:3;stroke-linecap:round;stroke-linejoin:round;stroke-dasharray:8.91,8.91;}
	.st49{fill:none;stroke:#FF8300;stroke-width:3;stroke-linecap:round;stroke-linejoin:round;stroke-dasharray:4.19,4.19;}
	.st50{fill:none;stroke:#FF8300;stroke-width:3;stroke-linecap:round;stroke-linejoin:round;stroke-dasharray:4.09,4.09;}
	.st51{fill:none;stroke:#FF8300;stroke-width:3;stroke-linecap:round;stroke-linejoin:round;stroke-dasharray:8.12,8.12;}
	.st52{fill:none;stroke:#FF8300;stroke-width:3;stroke-linecap:round;stroke-linejoin:round;stroke-dasharray:7.34,7.34;}
	.st53{fill:none;stroke:#FF8300;stroke-width:3;stroke-linecap:round;stroke-linejoin:round;stroke-dasharray:8.37,8.37;}
	.st54{fill:none;stroke:#FF8300;stroke-width:3;stroke-linecap:round;stroke-linejoin:round;stroke-dasharray:7.08,7.08;}
	.st55{fill:none;stroke:#FF8300;stroke-width:3;stroke-linecap:round;stroke-linejoin:round;stroke-dasharray:5.09,5.09;}
	.st56{fill:none;stroke:#FF8300;stroke-width:3;stroke-linecap:round;stroke-linejoin:round;stroke-dasharray:8.11,8.11;}
	.st57{fill:none;stroke:#FF8300;stroke-width:3;stroke-linecap:round;stroke-linejoin:round;stroke-dasharray:7.76,7.76;}
	.st58{fill:none;stroke:#FF8300;stroke-width:3;stroke-linecap:round;stroke-linejoin:round;stroke-dasharray:6.1,6.1;}
	.st59{fill:none;stroke:#FF8300;stroke-width:3;stroke-linecap:round;stroke-linejoin:round;stroke-dasharray:5.54,5.54;}
	.st60{fill:none;stroke:#FF8300;stroke-width:3;stroke-linecap:round;stroke-linejoin:round;stroke-dasharray:7.44,7.44;}
	.st61{fill:none;stroke:#FF8300;stroke-width:3;stroke-linecap:round;stroke-linejoin:round;stroke-dasharray:9.05,9.05;}
	.st62{fill:none;stroke:#FF8300;stroke-width:3;stroke-linecap:round;stroke-linejoin:round;stroke-dasharray:8.09,8.09;}
	.st63{fill:none;stroke:#FF8300;stroke-width:3;stroke-linecap:round;stroke-linejoin:round;stroke-dasharray:7.64,7.64;}
	.st64{fill:none;stroke:#FF8300;stroke-width:3;stroke-linecap:round;stroke-linejoin:round;stroke-dasharray:8.01,8.01;}
	.st65{clip-path:url(#SVGID_4_);}
	.st66{opacity:0.9;}
	.st67{fill:none;stroke:#FF8300;stroke-width:3;stroke-linecap:round;stroke-linejoin:round;stroke-dasharray:4.02,4.02;}
	.st68{fill:none;stroke:#FF8300;stroke-width:3;stroke-linecap:round;stroke-linejoin:round;stroke-dasharray:6.59,6.59;}
	.st69{fill:none;stroke:#FF8300;stroke-width:3;stroke-linecap:round;stroke-linejoin:round;stroke-dasharray:7.13,7.13;}
	.st70{fill:none;stroke:#FF8300;stroke-width:3;stroke-linecap:round;stroke-linejoin:round;stroke-dasharray:7.91,7.91;}
	.st71{fill:none;stroke:#FF8300;stroke-width:3;stroke-linecap:round;stroke-linejoin:round;stroke-dasharray:8.16,8.16;}
	.st72{fill:none;stroke:#FF8300;stroke-width:3;stroke-linecap:round;stroke-linejoin:round;stroke-dasharray:7.52,7.52;}
	.st73{fill:none;stroke:#FF8300;stroke-width:3;stroke-linecap:round;stroke-linejoin:round;stroke-dasharray:9.07,9.07;}
	.st74{fill:none;stroke:#FF8300;stroke-width:3;stroke-linecap:round;stroke-linejoin:round;stroke-dasharray:10.32,10.32;}
	.st75{fill:none;stroke:#FF8300;stroke-width:3;stroke-linecap:round;stroke-linejoin:round;stroke-dasharray:7.11,7.11;}
	.st76{fill:none;stroke:#FF8300;stroke-width:3;stroke-linecap:round;stroke-linejoin:round;stroke-dasharray:4.07,4.07;}
	.st77{fill:none;stroke:#FF8300;stroke-width:3;stroke-linecap:round;stroke-linejoin:round;stroke-dasharray:7.96,7.96;}
	.st78{fill:none;stroke:#FF8300;stroke-width:3;stroke-linecap:round;stroke-linejoin:round;stroke-dasharray:8.13,8.13;}
	.st79{fill:none;stroke:#FF8300;stroke-width:3;stroke-linecap:round;stroke-linejoin:round;stroke-dasharray:7.01,7.01;}
	.st80{fill:none;stroke:#FF8300;stroke-width:3;stroke-linecap:round;stroke-linejoin:round;stroke-dasharray:8.18,8.18;}
	.st81{fill:none;stroke:#FF8300;stroke-width:3;stroke-linecap:round;stroke-linejoin:round;stroke-dasharray:7.18,7.18;}
	.st82{fill:none;stroke:#FF8300;stroke-width:3;stroke-linecap:round;stroke-linejoin:round;stroke-dasharray:7.58,7.58;}
	.st83{fill:none;stroke:#FF8300;stroke-width:3;stroke-linecap:round;stroke-linejoin:round;stroke-dasharray:4.4,4.4;}
	.st84{fill:none;stroke:#FF8300;stroke-width:3;stroke-linecap:round;stroke-linejoin:round;stroke-dasharray:8.2,8.2;}
	.st85{fill:none;stroke:#FF8300;stroke-width:3;stroke-linecap:round;stroke-linejoin:round;stroke-dasharray:6.55,6.55;}
	.st86{fill:none;stroke:#FF8300;stroke-width:3;stroke-linecap:round;stroke-linejoin:round;stroke-dasharray:7.35,7.35;}
	.st87{fill:none;stroke:#FF8300;stroke-width:3;stroke-linecap:round;stroke-linejoin:round;stroke-dasharray:4.57,4.57;}
	.st88{fill:none;stroke:#FF8300;stroke-width:3;stroke-linecap:round;stroke-linejoin:round;stroke-dasharray:8.48,8.48;}
	.st89{fill:none;stroke:#FF8300;stroke-width:3;stroke-linecap:round;stroke-linejoin:round;stroke-dasharray:4.48,4.48;}
	.st90{fill:none;stroke:#FF8300;stroke-width:3;stroke-linecap:round;stroke-linejoin:round;stroke-dasharray:9.33,9.33;}
	.st91{fill:none;stroke:#FF8300;stroke-width:3;stroke-linecap:round;stroke-linejoin:round;stroke-dasharray:7.25,7.25;}
	.st92{fill:none;stroke:#FF8300;stroke-width:3;stroke-linecap:round;stroke-linejoin:round;stroke-dasharray:7.99,7.99;}
	.st93{fill:none;stroke:#FF8300;stroke-width:3;stroke-linecap:round;stroke-linejoin:round;stroke-dasharray:6.08,6.08;}
	.st94{fill:none;stroke:#FF8300;stroke-width:3;stroke-linecap:round;stroke-linejoin:round;stroke-dasharray:6.38,6.38;}
	.st95{fill:none;stroke:#FF8300;stroke-width:3;stroke-linecap:round;stroke-linejoin:round;stroke-dasharray:4.32,4.32;}
	.st96{fill:none;stroke:#FF8300;stroke-width:3;stroke-linecap:round;stroke-linejoin:round;stroke-dasharray:8.59,8.59;}
	.st97{fill:none;stroke:#FF8300;stroke-width:3;stroke-linecap:round;stroke-linejoin:round;stroke-dasharray:8.64,8.64;}
	.st98{fill:none;stroke:#FF8300;stroke-width:3;stroke-linecap:round;stroke-linejoin:round;stroke-dasharray:9.35,9.35;}
	.st99{fill:none;stroke:#FF8300;stroke-width:3;stroke-linecap:round;stroke-linejoin:round;stroke-dasharray:4.72,4.72;}
	.st100{fill:none;stroke:#FF8300;stroke-width:3;stroke-linecap:round;stroke-linejoin:round;stroke-dasharray:7.98,7.98;}
	.st101{fill:none;stroke:#FF8300;stroke-width:3;stroke-linecap:round;stroke-linejoin:round;stroke-dasharray:8.1,8.1;}
	.st102{clip-path:url(#SVGID_6_);}
	.st103{opacity:0.9;fill:none;stroke:#FF8300;stroke-width:5;stroke-miterlimit:10;enable-background:new    ;}
	.st104{clip-path:url(#SVGID_8_);}
	.st105{fill:none;stroke:#FF8300;stroke-width:5;stroke-miterlimit:10;}
</style>
<g class="st0">
	<g>
		<path class="st1" d="M3136.6,500.8l-3.2-4.4L3136.6,500.8z"/>
		<polygon class="st1" points="3122.2,421.4 3122,419.8 3124.6,447.4 		"/>
		<path class="st1" d="M5775,70l-3.2-11.8l2.6,9.8h-13.6v6.6h-5.6V68h-12.6v15.2h-5.8V68h-13.2v14.6h-5.6V68h-12.8L5678,35.8l-3,2.8
			l9,10.4l0,0c0.8,1,0.6,2.4-0.2,3.2c-0.4,0.4-1,0.6-1.4,0.6c-0.6,0-1.2-0.2-1.8-0.8l-8.8-10.2l-3-3.4l-10-11.4
			c-0.8-1-0.8-2.4,0.2-3.2l0,0c1-0.8,2.4-0.6,3.2,0.2l9.8,11.4l3-2.8L5647.4,0H5339l-53.8,56.6h-14.8L5213,0h-965.6l-6.6,31.2
			l12.8,44l-65.2,48.4H4174l-16.4-14l-69.4-27.2l-7.4-1.6l-29.4-17.2l-29.8-18L3960.2,0h179l0,0h-557.8l0,0h230l-4,5.6l7.8,9
			l19.6,12.6l-7.6,9.8l-17.8-12.6l-12-4.8l-1.6,274.6l-4.8,5.2l-6.4,1.2l-6.8-1.4l-4.8-8.4l-0.4-59.6L3712,232l-200,181.4l-8,12.8
			l-21.4,58l-58.4,61.4l-73.8,6.4l-17-15.8l-113.6,9l-8.8-8l-9.8-8.4L3162,530l-11.4-15l7.8,10.6l-19.8,23.8c-0.2,0.4-0.4,0.6-0.8,1
			c-2.2,2-5.4,1.8-7.4-0.2s-1.8-5.4,0.2-7.4l17.2-20.8l-14-17.8l-16.8,20.4c-0.2,0.4-0.4,0.6-0.8,1c-2.2,2-5.4,1.8-7.4-0.2
			s-1.8-5.4,0.2-7.4l16.2-19.4v-6l4.4-2l-2.4-12.4l-2-22.6l-159,32.2l-5.8-34l161.4-34l-5.8-33.2l-9.4-45l-74.2,14.4
			c-0.2,0-0.6,0-0.8,0c-2.2,0-4-1.6-4.4-3.6c-0.4-2.4,1.2-4.8,3.6-5.4l61.4-11.8l-1.2-8.4l12.2-2.2l-5.4-26l-87.4,17
			c-0.2,0-0.6,0-0.8,0c-2.2,0-4-1.6-4.4-3.6c-0.4-2.4,1.2-4.8,3.6-5.4l87.4-17l-8.4-40l-3.2,0.4l-0.2-1l-96.8,18.8
			c-0.4,0-0.6,0.2-1,0.2c-2.4,0-4.6-1.8-5-4.2c-0.6-2.8,1.2-5.4,4-6l96.4-18.6l-4.6-19.6l-15.2,3.6l-1.6-3l-0.6-6.4l5.6-0.6l0.2,3.2
			l10.2-2.4l-0.4-1.4l-1-23.8l-3.2-23.6h-0.2l-28.8,2.2l3.8,42.6l5.2,10.2c0.8,1.4,0.2,3.2-1.2,3.8c-0.4,0.2-0.8,0.2-1.4,0.2
			c-1,0-2-0.6-2.6-1.6l-5.8-11.2L3036,162l34.6-2.6l-2.8-20.8l1-16.4l6.8-45.4l-3.2-12.6l-4.2-19.6l-31,8l-1.8-6.6l31.4-8.2L3059,0
			h-47l-8.2,48.8l-3.8,30l0.4,2l28.2,60.8l-7.2,3.4l-28.6-61.6l-1-4l4-31.8l-5.6-0.8l4.8-34.2h6.6l2-12.6 M6054.8,461l-14.6-27.6
			l15.8-7.8l7-3.6l-10.6-19.6l5-2.6l10.8,19.8l112.8-58.2l12.6-7.8l-31.2-77l-10-5.6 M6279.8,593.8l-58.2,56.2l25,26.2
			c2.4,2.6,2.2,6.4-0.2,8.8c-2.6,2.4-6.4,2.2-8.8-0.2l-25.4-25.6l-140.8-143.4l-5.2-26.4"/>
		<polygon points="2995.2,12.6 2990.4,46.6 2996,47.6 2992,79.4 2993,83.4 3021.4,145 3028.6,141.6 3000.4,80.8 3000,78.8 
			3003.8,48.8 3012,0 3003.8,0 3001.8,12.6 		"/>
		<polyline points="6152.2,270.8 6162.2,276.4 6193.6,353.4 6180.8,361.2 6068,419.4 6057.2,399.6 6052.2,402.4 6063,422 
			6055.8,425.6 6040.2,433.6 6054.8,461 6056.6,454 6059.8,444.4 6066.2,441.2 6075.8,441.2 6085.4,444.4 6095,450.8 6104.6,454 
			6111,460.4 6117.4,463.6 6127,470 6133.4,470 6136.6,463.6 6133.4,441.2 6130.2,428.4 6130.2,422 6133.4,415.6 6149.4,409.2 
			6162.2,406 6171.8,406 6187.8,412.4 6194.2,415.6 6203.8,415.6 6216.6,409.2 6232.6,409.2 6239,406 6235.8,377.2 6229.4,367.6 
			6223,351.6 6216.6,335.6 6213.4,316.4 6216.6,310 6226.2,303.6 6232.6,300.4 6232.6,294 6239,284.4 6245.4,274.8 6248.6,271.6 
			6245.4,268.4 6232.6,268.4 6213.4,265.2 6207,265.2 6191,271.6 6171.8,271.6 6162.2,268.4 6155.8,268.4 		"/>
		<path d="M5771.8,58.2V41.6l3.2-13l-3.2-19.8l-3.6-8.6h-120.8l27.4,32.4l-3,2.8L5662,24c-0.8-1-2.2-1-3.2-0.2l0,0
			c-1,0.8-1,2.2-0.2,3.2l10,11.4l3,3.4l8.8,10.2c0.4,0.4,1,0.8,1.8,0.8c0.6,0,1-0.2,1.4-0.6c1-0.8,1-2.2,0.2-3.2l0,0l-9-10.4l3-2.8
			L5705,68h12.8v14.6h5.6V68h13.2v15.2h5.8V68h12.6v6.6h5.6V68h13.6L5771.8,58.2"/>
		<path d="M6066.2,489.4l5.2,26.4l140.8,143.4l25.4,25.6c2.4,2.6,6.4,2.6,8.8,0.2c2.6-2.4,2.6-6.4,0.2-8.8l-25-26.2
			c19.4-18.8,38.8-37.4,58.2-56.2c-0.8-3.6-1.8-7.4-2.6-11c-5.2-0.8-10.2-1.6-15.4-2.4l-10.2,1.6l-12.8,9.6l-12.8,3.2l-12.8,6.4
			h-12.8l-22.4-16l-25.6-22.4l-3.2-3.2v-4.8l3.2-1.6l-9.6-16l-6.4-3.2l-12.8-3.2l-9.6-3.2l-25.6-19.2L6066.2,489.4"/>
		<path d="M3035.6,45.2l1.8,6.6l31-8l4.2,19.6l3.2,12.6l-6.8,45.4l-1,16.4l2.8,20.8l-34.6,2.6l4.4,49.4l5.8,11.2
			c0.4,1,1.4,1.6,2.6,1.6c0.4,0,0.8-0.2,1.4-0.2c1.4-0.8,2-2.4,1.2-3.8l-5.2-10.2l-3.8-42.6l28.8-2.2h0.2l3.2,23.6l1,23.8l0.4,1.4
			l-10.2,2.4l-0.2-3.2l-5.6,0.6l0.6,6.4l1.6,3l15.2-3.6l4.6,19.6l-96.4,18.6c-2.8,0.6-4.6,3.2-4,6c0.4,2.4,2.6,4.2,5,4.2
			c0.4,0,0.6,0,1-0.2l96.8-18.8l0.2,1l3.2-0.4l8.4,40l-87.4,17c-2.4,0.4-4,2.8-3.6,5.4c0.4,2.2,2.2,3.6,4.4,3.6c0.2,0,0.6,0,0.8,0
			l87.4-17l5.4,26l-12.2,2.2l1.2,8.4l-61.4,11.8c-2.4,0.4-4,2.8-3.6,5.4c0.4,2.2,2.2,3.6,4.4,3.6c0.2,0,0.6,0,0.8,0l74.2-14.4
			l9.4,45l5.8,33.2l0,0v0.6l0.2,1.6l2.4,26l0.8,8l0,0l2,22.6l2.4,12.4l-4.4,2v6l-16.2,19.4c-2.2,2-2.2,5.4-0.2,7.4s5.4,2.2,7.4,0.2
			c0.2-0.2,0.6-0.6,0.8-1l16.8-20.4l14,17.8l-17.2,20.8c-2.2,2-2.2,5.4-0.2,7.4s5.4,2.2,7.4,0.2c0.2-0.2,0.6-0.6,0.8-1l19.8-23.8
			l-7.8-10.6l11.4,15l39.2-1l9.8,8.4l8.8,8l113.6-9l17,15.8l73.8-6.4l58.4-61.4l21.4-58l8-12.8l200-181.4l60.6-0.8l0.4,59.6l4.8,8.4
			l6.8,1.4l6.4-1.2l4.8-5.2l1.6-274.6l12,4.8l17.8,12.6l7.6-9.8l-19.6-12.6l-7.8-9l4-5.6h-230l-2.4,12.4l-15.6,23.6l-7.8,11.8
			l-11.8,4l-11.8-7.8l-11.6-4l-8,7.8l-7.8,35.4l-11.8,39.2l-7.8,27.4l-11.8,27.4l-7.8,19.6l-7.8,27.4l-7.8,31.4l-4,27.4l-4,15.6
			l7.8,23.6l7.8,11.8v23.6l-7.8,19.6l-15.6,23.6l-19.4,19.6h-19.6l-7.8-11.8v-9l-15.6-14.4l-4-11.8l-7.8-19.6l-7.8-11.8h-27.4
			l-11.8,4h-51l-15.6,7.8l-19.6,4l-15.6,15.8l-4,15.6l-15.6,7.8l-4,15.8l-7.8,11.8h-7.8l-7.8-7.8V406l-4-16.8l-4-11.8v-15l-4-8.4
			l-4-15.6l-7.8-15.6l-4-7.8l-4-15.6l-4-27.4l7.8-15.6v-35.2l-4-15.6l-7.8-15.8l-7.8-15.6v-38l-4-28.6l-4-23.6V62l4-22l4-23.6
			l-4-15.6l-0.2-0.8h-51.8l7.8,37L3035.6,45.2z M3136.6,500.8L3136.6,500.8l-3.2-4.4L3136.6,500.8z"/>
		<polygon points="4021.8,45.6 4051.6,63.6 4081,80.8 4088.4,82.4 4157.8,109.6 4174.2,123.6 4188.6,123.6 4253.8,75.2 4241,31.2 
			4247.6,0 4196.2,0 4196.2,0.8 4193,13.6 4186.6,20 4183.4,21.8 4174.4,20.8 4163.4,12.6 4147.6,4.6 4139.8,0.6 4139.2,0 3960.2,0 
					"/>
		<polygon points="5285,56.6 5339,0 5213,0 5270.2,56.6 		"/>
		<polygon points="3124.6,447.4 3122,419.8 3122,419.2 3121.8,419.2 2960.6,453.4 2966.4,487.4 3125.4,455.4 3125.4,455.4 		"/>
	</g>
	<g>
		<polygon points="1129,1656.8 1129,1647.2 1132.2,1631.2 1138.8,1621.6 1145.2,1605.6 1145.2,1592.6 1138.8,1576.6 1129,1573.4 
			1116.2,1570.2 1109.8,1567 1106.6,1570.2 1097,1576.6 1081,1583.2 1071.2,1589.6 1061.6,1589.6 1048.8,1592.8 1032.8,1596 
			1011.6,1592.8 1000.6,1592.8 1044.2,1651.4 1208.2,1953.2 1205.4,1935.6 1203.2,1927 1200,1920.6 1206.4,1911 1209.6,1888.4 
			1212.8,1872.4 1219.4,1856.4 1216.2,1853.2 1213,1839 1213,1827.4 1203.2,1806.8 1203.2,1792.2 1196.8,1789 1190.4,1782.4 
			1188.8,1768.8 1184,1756.8 1181.4,1750.2 1177.4,1747 1164.6,1750.2 1161.4,1747 1158.2,1737.4 1155,1734.2 1142.2,1724.6 
			1132.4,1715 1129.2,1705.2 1132.4,1698.8 1129.2,1692.4 1122.8,1689.2 1116.4,1686 1116.4,1679.6 1119.6,1676.4 1119.6,1673.2 
			1116.4,1670 1122.6,1663.2 		"/>
		<path d="M6909.6,1914.2l-8.6,11.4l-7.6,8.8l-51.8,51.4l-13.2,5.4l-13.4,3.6l-13.2,0.8l-6-1.4l-3.2-5.8l-3.2-4.8l-4.6-7.2l-5.2-7.8
			l6.2-0.6l10.8-2.8l9.2-2l12.4-3.6l11.2-4.4l11.4-10.4l4.2-8l0.2-7.2l0.4-10.6l-7.6-8.8l-1.4-10.2l-8.8-9.4l-4-16.6l-14.2-11.4
			l-14.2-2.8l-14.2,2.8l-8.6,4l-7.4,3.6l-4.6,3.2l-6.8,2.6l-6,1.8l-18.6,1.6l-15.6-3.4l-0.8-8l-0.6-14l-2.2-96l-37.8-49l-11.6-38.6
			l-27.2-107.4v-8.4l-5.6-2.8l-5.6,2.8l-29.8,32.6l26.8,94.6L6539,1744h-13.2l-17-2.8l-8.4-11.4l-13.2-16.4l-12-11.4l-23.4,0.8
			l-18,4l-24,0.4H6390l2.8-8.4l11.2-19.8l11.2-25.4l25.4-25.4l11.2-11.4l11.2-8.4l8.6-8.4l5.6-11.4v-11.4l2.8-11.4l5.6-11.4l11.4-17
			l11.2-8.4l14.2-5.6l14.4-4.4l16.6-9.8L6452,1380l-7.2-10l-6.4,3.8l-6.8,2.4l-8-6.6v-7.2l1.6-8.6l6.8-2.2l6-4.6l-5.2-20
			l-29.8-117.6l-4.8,11.8l23.4,103.2l-7.8,6.8l-5.6,5.6l-7.2,6.4l-7.2-10.6l-7.6-6.2l-9-12.4l-11.2-11.4l-8.4-2.8l-9-11l-12-12.4
			l-10-10.6V1229l-2.8-14.2l-5.6-14.2l-4.8-1.6l-8,4.6l-6.4,3.2l-9.6,9.6l-6.4,3.2l-12.8,3.2h-6.4l-13,9.6h-3.2l-6.4,3.2L6225,1255
			l-3.2,9.6v13l6.4,6.4l16.2,22.6v3.2l6.4,9.6l16.2,19.4l3.2,6.4l3.2,6.4l9.6,9.6l12.8,16.2l3.2,16.2l3.2,9.6l6.4,9.6l12.8,9.6h9.6
			l9.6-3.2l13-3.2l35.6-9.6h6.6l9.8,3.2h6.4l3.2-3.2l12.8-13h3.2v13l3.2,9.6l-3.2,16.2l-3.2,6.4v3.2l-3.2,3.2h-9.6l-3.2,3.2
			l-6.4,3.2l-3.2,6.4h-3.2l-9.6-6.4l-3.2-3.2l-3.2,3.2l-3.2,6.4l-6.4,13l-9.8,6.4h-6.4l-3.2,3.2l3.2,6.4l-3.2,9.6l-13,16.2l-9.6,6.4
			l-12.8,16.2l-3.2,9.6v9.6l6.4,9.6l-3.2,3.2l-9.6,19.4l-3.2,19.4l-3.2,6.4l-16.2,9.6v6.4l3.2,13l-3.2,6.4v6.4l3.2,6.4l6.4,3.2
			l3.2,6.4v3.4l3.2,3.2l-9.6,6.4l-9.6,9.6v9.6l-6.4,3.2l-6.4,3.2v6.4l3.2,13l-3.2,9.6l-6.4,9.6l-6.4,16.2l-6.4,22.6l-9.6,6.4v6.4
			l3.2,6.4l6.4,19.4l13,25.8l6.4,9.6l3.2,6.4h6.4l6.4-6.4l13-3.2l3.2,6.4v6.4l-3.2,19.4l-3.2,9.6l-12.8,25.8l-6.4,3.2h-6.4l-13,6.4
			l-9.6-3.2l-16.2-9.6v-9.6l3.2-6.4l3.2-9.6v-6.4l-3.2-3.2l-9.6-6.4h-3.2l-3.2,6.4l-3.2,3.2l-6.4,3.2h-9.6l-6.4-6.4l3.2-9.6l3.2-9.6
			v-9.6l-3.2-6.4h-3.2v9.6H6181l-9.6-6.4h-3.2l-3.2,6.4l-3.2,3.2v6.4l3.2,3.2h-9.6l-6.4,6.4l3.2,3.2l3.2,3.2v6.4l3.2,6.4l3.2,9.6
			l-3.2,6.4v3.2l6.4,9.6l6.4,6.4l3.2,9.6l6.4,13l3.2,3.2h16.2l3.2,3.2l9.6,16.2h19.4l6.4,6.4l3.2,9.6v9.6h13l16.2,9.6v6.4h13
			l9.6-3.2l16.2,3.2l22.6-16.2h6.4l9.6-6.4h6.4l12.8-13l13-6.4l13-16.2l13-3.2h19.4l13-3.2l16.2-6.4l6.4-11.8l3.2-1l19.4-9.6
			l19.4-9.6l6.4-9.6l25.8-25.8h3.2l6.4,6.4h6.4l9.6-3.2h9.6l3.2-9.6l12.8-6.4l22.6-6.4v-3.2l9.6-6.4h13l6.6-3.2l6.4,6.4h12.8
			l6.4,3.2l9.6,9.6h3.4l6.4-3.2l3.2,3.2l10.6,8.4l9.4,6.6l11,11.6l9,13.2c0,0,6.2,7.4,7.2,8.2c1,0.6,7.6,4.6,7.6,4.6l3.4,6.6v4.6
			l1.2,4.6l3.8,6.4l20.8,30l9.4,11.4l3.2,3.2l6.4,9.6l13,29l3.2,6.4l-3.2,6.4l3.2,6.4v9.6l3.2,6.4l13,9.6h3.2l3.2-9.6l6.4-6.4
			l9.6-3.2l9.6-6.4l16.2-9.6l16.2-16.2l19.4-13l12.8-13l9.6-22.6l6.6-25.8l-1.6-8.6L6909.6,1914.2z"/>
	</g>
</g>
<g>
	<g>
		<g>
			<defs>
				<rect id="SVGID_1_" width="7680" height="2160"/>
			</defs>
			<clipPath id="SVGID_2_">
				<use xlink:href="#SVGID_1_"  style="overflow:visible;"/>
			</clipPath>
			<g class="st2">
				<g id="HKI_2019">
					<polyline class="st3" points="1368.2,2176.4 1359.4,2158.2 1352,2142.6 1345.2,2127 1339.8,2117.4 1336.4,2112.8 1335,2109 
											"/>
					<polyline class="st4" points="1334.4,2102.2 1334.4,2096.2 1335.8,2094.6 1330.6,2088.8 					"/>
					<polyline class="st4" points="1329.2,2077.2 1329.2,2075 1330.6,2069.4 					"/>
					<polyline class="st4" points="5855,855.8 5859,855.2 5863,855.2 					"/>
					<polyline class="st5" points="5879.2,855.2 5884.2,855.8 5891.8,857 5903.8,860.4 5909,862 5915.2,865 5931.2,871.8 
						6035.6,917.6 6050,924.6 6061.4,930.8 6065.4,933.8 6071.2,937.8 6074,940 6077.2,942.8 					"/>
					<polyline class="st4" points="6083,948.6 6088.4,954.4 6082.6,959.6 6078.6,955 6077.2,953.6 					"/>
					<polyline class="st6" points="6065.6,943.4 6058.6,938.2 6047.2,931.4 5983.4,902.8 5953.6,890.2 5910,870.6 5899.2,867.2 
						5889.4,865 5883.2,863.8 5877.4,863.2 5874.6,863.2 5873.4,863.2 5870.6,863.2 5867.6,863.2 5866,863.2 5861.4,863.8 
						5856.2,863.8 5853.8,864.4 5847,863.2 5844.8,862.6 5842.4,862 5842,861.8 					"/>
					<polyline class="st4" points="5835,858.4 5834.4,858 5829.8,856.4 5827.6,855.8 5827,854 5825.8,852.2 5825.8,851.2 
						5826.4,850 5827,848.2 5828.2,847.2 5830.4,847.2 5833.2,847.8 5835.8,848.8 					"/>
					<polyline class="st4" points="5847.2,854 5849.2,854.6 5852.2,855.2 5855,855.8 					"/>
					<polyline class="st4" points="5882.6,890.8 5880.8,891.2 5879.2,891.2 5876.8,890.8 5874.8,890.8 					"/>
					<polyline class="st7" points="5857.6,891.4 5853.4,891.8 5850.4,892.4 5848.2,893 5842.4,894.8 5837.2,896.4 5831.6,900 
						5828.2,901.6 5824,904.4 5820.6,906.8 5816.6,910.2 5810.4,916 5807.4,918.8 5805.8,921 5804,922.8 5802.8,924 5801.2,924.6 
						5799.4,925.2 5797.8,924.6 5796.6,922.8 5796.6,921.6 5797.8,919.4 5798.8,918.2 5801.2,916 5804,913 5806.8,910.2 
						5810.4,906.8 5812.6,904.4 5816,901.6 5819,899.4 5824.6,895.8 5828.2,894.2 5831.6,892.4 5834.4,891.2 5840.2,888.4 
						5843,887.8 5845.8,886.8 5848.8,886.2 5851.6,885.6 5854.4,885 5857.8,884.4 5862,884.4 5866,884.4 5871.2,884.4 5872.4,884.4 
											"/>
					<polyline class="st4" points="5880.8,884.6 5882,885 5883.2,885.6 5883.8,886.8 5884.2,887.8 5884.2,889 5883.8,890.8 
						5882.6,890.8 					"/>
					<polyline class="st4" points="5768.4,920.6 5767.4,920.6 5765,920 5759.6,925.8 					"/>
					<polyline class="st4" points="5758,927.4 5752.4,933.2 5751.8,933.2 5751.2,932 5757,926.4 					"/>
					<polyline class="st4" points="5760.8,922.4 5764.4,918.8 5764.4,917.6 5764.4,917 5764.4,916 5767.8,912.6 5770.2,910.2 					
						"/>
					<polyline class="st8" points="5779.2,901.8 5780,901 5782.2,898.2 5784.6,895.2 5788.6,891.2 5791.8,888 					"/>
					<polyline class="st4" points="5796.6,884 5797.8,883.2 5800,882.2 5801.2,882.2 5802.2,882.8 5803.4,883.8 5803.4,885 
						5802.8,886.8 5801.8,887.8 5800.6,889.6 5799.4,890.4 					"/>
					<polyline class="st9" points="5791,898.6 5786.2,903.4 5780.6,908.6 5778.2,910.8 					"/>
					<polyline class="st4" points="5774.2,915 5772.4,917 5769.6,919.4 5768.4,920.6 					"/>
					<line class="st4" x1="6334.4" y1="1162" x2="6340.8" y2="1166.8"/>
					<polyline class="st10" points="6353.4,1176.2 6409.2,1218 6415,1231.8 6444.6,1356.6 					"/>
					<polyline class="st4" points="6446.4,1364.4 6446.6,1364.8 6446.6,1368.8 6445.4,1372.2 6450.2,1378.6 					"/>
					<polyline class="st11" points="6460.8,1392 6475.2,1410.6 6480.4,1417 6497.6,1439 					"/>
					<polyline class="st4" points="6503,1445.6 6507.8,1451.8 6514.2,1446.8 6513,1438.8 					"/>
					<polyline class="st4" points="6511.2,1426 6510.2,1418 6512.4,1418 6513.6,1426 					"/>
					<polyline class="st4" points="6515.4,1440 6516.4,1447.8 6514.2,1448.4 6508.4,1453 6513.4,1459.4 					"/>
					<line class="st12" x1="6523" y1="1471.6" x2="6557.8" y2="1513"/>
					<polyline class="st4" points="6562.8,1519 6568,1525.2 6562.8,1531.2 					"/>
					<line class="st13" x1="6552.8" y1="1542.8" x2="6459.6" y2="1652.2"/>
					<polyline class="st4" points="6454.6,1658 6449.4,1664 6454.4,1670.2 					"/>
					<polyline class="st14" points="6464.8,1683.2 6511.2,1741 6528.2,1743.8 6541.4,1743.8 6610.2,1691.2 					"/>
					<polyline class="st4" points="6616.8,1686 6623.2,1681.2 6621,1673.6 					"/>
					<line class="st15" x1="6616.4" y1="1657.6" x2="6600.6" y2="1602.2"/>
					<polyline class="st4" points="6598.4,1594.4 6596.2,1586.6 6601.4,1580.6 					"/>
					<line class="st16" x1="6607.2" y1="1573.6" x2="6616.2" y2="1563.4"/>
					<polyline class="st4" points="6619,1560 6624.2,1554 6622,1546.2 					"/>
					<polyline class="st17" points="6618.4,1534 6611,1509.8 6603,1495.4 6601.4,1493.4 					"/>
					<polyline class="st4" points="6597.2,1488.4 6592.2,1482.2 6593.4,1478.8 6597.4,1478.8 6602.2,1485.2 					"/>
					<polyline class="st18" points="6611.4,1498 6618.6,1512 6632.2,1558.6 6630.6,1562.6 6661.2,1670.6 					"/>
					<polyline class="st4" points="6663.4,1678.2 6665.6,1685.8 6667.8,1684.6 6670.2,1693.2 6667.8,1693.8 6670.2,1701.6 					"/>
					<line class="st19" x1="6679.6" y1="1718.6" x2="6698" y2="1742.2"/>
					<polyline class="st4" points="6704.2,1750 6709.2,1756.4 6714.8,1750.6 					"/>
					<line class="st20" x1="6724.8" y1="1740.4" x2="6759.8" y2="1704.6"/>
					<polyline class="st4" points="6764.8,1699.6 6770.4,1693.8 6776,1699.6 					"/>
					<line class="st21" x1="6786.8" y1="1710.6" x2="6931" y2="1859.2"/>
					<line class="st4" x1="6936.4" y1="1864.8" x2="6942" y2="1870.4"/>
					<polyline class="st4" points="3792.4,899.6 3791.8,899.6 3791.2,899.6 3790.6,899.6 3790.6,899 3790.2,899 3790.2,898.6 
						3789.6,898.6 3789.6,898 3789,898 3789,897.4 3789,896.8 3789,896.2 3789,895.6 3789,895 3789,894.6 3789,894 3789.6,894 
						3789.6,893.4 3790.2,893.4 3790.2,892.8 3790.6,892.8 3791.2,892.2 3798.2,890.2 					"/>
					<line class="st22" x1="3812.6" y1="886" x2="3979.4" y2="838.2"/>
					<polyline class="st4" points="3986.6,836 3990.8,834.8 3991.4,834.8 3991.8,834.8 3992.4,834.8 3993,835.4 3993.6,835.4 
						3994.2,835.4 3994.2,836 3994.8,836 3994.8,836.6 3995.4,837.2 3995.4,837.8 3995.4,838.2 3995.8,838.8 3995.8,839.4 
						3995.4,839.4 3995.4,840 3995.4,840.6 3994.8,841 3994.8,841.6 3994.2,841.6 3994.2,842.2 3993.6,842.2 3993,842.2 3988.4,844 
						3986.6,844.6 					"/>
					<line class="st23" x1="3972.2" y1="848.6" x2="3807.4" y2="895.8"/>
					<polyline class="st4" points="3800.2,897.8 3793.6,899.6 3793,899.6 3792.4,899.6 					"/>
					<polyline class="st4" points="2405.4,776.2 2404,782 2402.2,783 2394.6,780.8 					"/>
					<polyline class="st4" points="2382.4,777.4 2376.2,775.6 2375,774.4 2377.4,766.8 					"/>
					<polyline class="st4" points="2379.6,758.6 2381.4,752.4 2382.6,751.2 2390.4,753.4 					"/>
					<polyline class="st4" points="2402.8,756.8 2408.6,758.2 2409.8,760 2407.6,767.8 					"/>
					<line class="st4" x1="859.6" y1="1138.6" x2="866.2" y2="1134"/>
					<polyline class="st24" points="877.4,1122.4 882.4,1115.2 893,1101.2 952.6,1077.6 1043.6,1045 					"/>
					<polyline class="st4" points="1051.4,1042.2 1058.8,1039.4 1056.2,1032 					"/>
					<polyline class="st4" points="1047.2,1010.8 1042.8,1004 1049.4,999.6 					"/>
					<line class="st25" x1="1065.6" y1="988.4" x2="1089.8" y2="971.6"/>
					<polyline class="st4" points="1097.8,966 1104.4,961.4 1112,972.4 1105.4,977 					"/>
					<line class="st26" x1="1092.8" y1="985.6" x2="1074" y2="998.6"/>
					<polyline class="st4" points="1067.8,1003 1061.2,1007.6 1064,1015 					"/>
					<polyline class="st4" points="1068.6,1027.2 1071.4,1034.6 1079,1032 					"/>
					<polyline class="st27" points="1092.8,1026.6 1094.4,1026.2 1141.4,1008.4 					"/>
					<polyline class="st4" points="1148.4,1005.8 1155.8,1003 1152,988 1157.2,986.6 1161,999.4 1161.4,1001 1168.8,998.2 					"/>
					<line class="st28" x1="1184" y1="994" x2="1207.6" y2="989.8"/>
					<polyline class="st4" points="1215.4,988.4 1223.2,987 1222,979.4 1216,980.4 1215,974.2 1223,972.8 					"/>
					<polyline class="st4" points="1226,972.4 1234,971 1235,977.2 1228.4,978.4 1229.4,985.8 1237.2,984.4 					"/>
					<polyline class="st28" points="1253,981.6 1259.8,980.4 1281.8,960 1301,941.4 1335.2,908.4 1488.4,782 					"/>
					<polyline class="st4" points="1494.4,777 1500.6,771.8 1508.6,773 					"/>
					<line class="st29" x1="1527" y1="776" x2="1591.8" y2="786.2"/>
					<polyline class="st4" points="1601.2,787.8 1609,789 1606.6,781.4 					"/>
					<line class="st30" x1="1604.2" y1="773.6" x2="1600.4" y2="762"/>
					<polyline class="st4" points="1599.2,758.2 1596.8,750.6 1589,749.2 					"/>
					<line class="st31" x1="1573.8" y1="746.6" x2="1490.4" y2="732"/>
					<polyline class="st4" points="1482.8,730.6 1475,729.2 1476.8,714.8 1484.6,716.2 					"/>
					<polyline class="st26" points="1499.6,718.8 1572.4,731.8 1611.6,722.4 					"/>
					<polyline class="st4" points="1619,720.6 1626.8,718.8 1624.6,711 					"/>
					<polyline class="st4" points="1624.4,710 1622.2,702.2 1628.4,700.6 1630.6,708.2 					"/>
					<polyline class="st4" points="1630.8,709.4 1633,717 1640.8,715 					"/>
					<polyline class="st4" points="1656.6,710.6 1664.4,708.6 1662.2,700.8 					"/>
					<polyline class="st4" points="1662,699.6 1659.8,692 1666,690.2 1668.2,698 					"/>
					<polyline class="st4" points="1668.6,699 1670.6,706.8 1678.4,704.8 					"/>
					<line class="st32" x1="1686.4" y1="702.8" x2="1698.4" y2="699.6"/>
					<polyline class="st4" points="1702.4,698.6 1710,696.6 1708.2,688.8 					"/>
					<polyline class="st4" points="1707.8,687.2 1706,679.4 1712.4,677.8 1714.4,685.4 					"/>
					<polyline class="st4" points="1714.8,687 1716.8,694.8 1724.6,692.8 					"/>
					<line class="st33" x1="1737.4" y1="689.2" x2="1756.4" y2="683.8"/>
					<polyline class="st4" points="1762.8,682.2 1770.6,680 1768.8,673.2 1770.6,672.6 1768.2,663.4 1766,664 1766,663.4 
						1772.2,661.8 1772.8,662.2 1770.6,662.8 1772.8,672 1775,671.4 1776.8,678.2 1784.6,676.2 					"/>
					<polyline class="st4" points="1785.6,675.8 1793.4,673.8 1791.4,666 					"/>
					<polyline class="st4" points="1791.2,665 1789.4,657.2 1793.4,656 1795.4,663.8 					"/>
					<polyline class="st4" points="1795.8,664.8 1798,672.6 1805.6,670.6 					"/>
					<polyline class="st28" points="1821,666.8 1868.4,654.8 2095.8,663.6 2103.6,666.2 2296,717.6 2326,755.6 					"/>
					<polyline class="st4" points="2331,761.8 2334.8,766.8 2336.4,767.2 2338.8,766.2 2344,767.6 					"/>
					<polyline class="st4" points="2360.6,772 2368.4,774.2 2370.2,773 2371.6,767.2 					"/>
					<polyline class="st4" points="2373.8,759 2375.8,751.2 2374.6,749.6 2362.8,746.8 2362.8,745 2363.2,741 2361.6,740.4 
						2360.4,744.4 2352.8,742.2 					"/>
					<polyline class="st4" points="2349.6,737.8 2348.4,735.8 2349.6,730.2 2355.8,726.8 2356.4,726.8 2356.6,726.8 					"/>
					<polyline class="st4" points="2356.8,726.8 2364.4,729 2363.8,733 2365.6,733 2366.6,729.6 2367.2,728 2375,730 					"/>
					<line class="st34" x1="2385.2" y1="732.8" x2="2400.6" y2="737"/>
					<polyline class="st4" points="2405.8,738.4 2413.4,740.4 2414.6,739.4 2416.4,733.2 					"/>
					<polyline class="st4" points="2418.6,724.8 2420.4,718.2 2419.8,717 2410,714.2 2411.2,710.2 2409.6,709.6 2408.4,713.6 
						2405,713 2406,708.6 2404.4,708.6 2403.8,712.6 2396,710.4 					"/>
					<line class="st35" x1="2387.6" y1="708.2" x2="2374.8" y2="704.8"/>
					<polyline class="st4" points="2370.4,703.8 2362.8,701.6 2359.2,695.4 2361,689.6 2362.8,688.6 2370.4,690.6 					"/>
					<polyline class="st36" points="2386.6,695 2426.6,705.6 2443,710.4 					"/>
					<polyline class="st4" points="2451.2,712.6 2456.8,714.2 2458,716 2456.2,721.6 2454.4,722.6 					"/>
					<polyline class="st4" points="2451.4,724.4 2450,725 2443.8,723.4 2444.8,718.8 2442.6,718.8 2441.4,722.8 2438.6,721.6 
						2439.8,717.6 2438,717 2436.8,721.6 2427.2,718.8 2426,719.4 2424,727 					"/>
					<polyline class="st4" points="2422,734.6 2420.4,741 2420.8,742.2 2433.4,745.6 2432.8,747.2 2433.4,747.8 2432.4,751.2 
						2434,751.8 2435.2,747.8 2443.8,750.2 2447.2,756.4 2445.4,762.2 2439.8,765.6 2431.2,763.2 2431.8,759.8 2430.6,759.2 
						2429.4,762.8 2428.8,762.8 2428.4,764.4 2416.4,761 2414.6,762.2 2413.2,767.8 					"/>
					<polyline class="st4" points="2410.6,777.4 2409,783.8 2409.6,785 2417.2,787 					"/>
					<polyline class="st37" points="2433.4,791 2472.2,801 2488.6,807.6 2488.8,807.6 					"/>
					<polyline class="st4" points="2495.6,812.2 2502.4,816.6 2508,811 					"/>
					<line class="st38" x1="2520" y1="798.6" x2="2562.4" y2="754.8"/>
					<polyline class="st4" points="2568.4,748.6 2574,742.8 2578.4,744 2576.4,751.6 					"/>
					<polyline class="st4" points="2572.6,765.2 2570.6,773 2584.8,776.8 2587.6,782 2596.6,784.2 2599.4,783.2 2601.6,775.4 					
						"/>
					<polyline class="st4" points="2605.8,759.6 2608,751.8 2619.4,754.8 2617.2,762.4 					"/>
					<polyline class="st4" points="2613,778.2 2610.8,786 2611.4,786 2613.2,788.8 2620.8,790.8 					"/>
					<polyline class="st4" points="2630.4,793.2 2638.2,795 2640.4,793.4 2641.8,788.4 					"/>
					<polyline class="st4" points="2646.8,769 2648.4,763.2 2650,762 2659.8,765 2660.8,766 2658.8,773.8 					"/>
					<polyline class="st4" points="2654.4,789.6 2652.4,797.4 2654,799 2659.4,800.4 					"/>
					<polyline class="st4" points="2675,804.2 2679.6,805.2 2682.4,803.6 2684.4,795.8 					"/>
					<polyline class="st4" points="2688.2,781 2689.8,774 2690.4,773.4 2691,773.4 2691,773 2691.6,773 2700.6,775.8 2701.2,775.8 
						2701.2,776.2 2701.8,776.2 2701.8,776.8 2699.8,784 					"/>
					<polyline class="st4" points="2695.8,798.8 2693.8,806.4 2695.6,809.2 2700,810.6 					"/>
					<polyline class="st4" points="2715.8,815.2 2720.6,816.6 2723.4,815.6 2725.8,807.8 					"/>
					<polyline class="st4" points="2730.2,793 2732.4,786 2732.4,785.4 2733,785.4 2733.6,784.8 2734.8,785.4 2741.2,787.2 					"/>
					<line class="st39" x1="2742.4" y1="794.2" x2="2738.4" y2="807"/>
					<polyline class="st4" points="2737.2,811.2 2734.8,819 2736.4,821.2 2735.8,822.4 2743.4,825 					"/>
					<polyline class="st4" points="2753.4,828.2 2760.8,830.8 2761.4,829.8 2763.8,828.6 2765.2,824.6 					"/>
					<polyline class="st4" points="2772,806.6 2774.6,799.6 2774.6,799 2775.2,799 2775.6,799 2776.2,799 2784.8,801.8 
						2785.4,802.4 2785.8,802.4 2785.8,803 2785.8,803.6 2783.6,810 					"/>
					<polyline class="st4" points="2777.8,825 2775.2,832.6 2776.8,835.4 2776.2,836 2783.6,839 					"/>
					<polyline class="st4" points="2793.2,842.8 2800.6,845.6 2801.2,845 2804,843.4 2805.6,839.8 					"/>
					<polyline class="st4" points="2813,821.4 2815.4,815.6 2816,815 2816.6,814.4 2817.2,814.4 2824,817.4 					"/>
					<line class="st40" x1="2824.6" y1="825.6" x2="2818.8" y2="839.8"/>
					<polyline class="st4" points="2816.8,844.6 2815.4,848 2816.6,851.4 2816.6,852.2 2820,853.6 2823.8,855.2 					"/>
					<polyline class="st4" points="2832,859 2839.4,862.2 2843.4,859.8 2844.6,856.8 					"/>
					<polyline class="st4" points="2852.2,838.8 2855.2,831.4 2866.6,836 2863.6,843.4 					"/>
					<polyline class="st41" points="2859.2,853.8 2854.6,864.4 2856.6,869.4 					"/>
					<polyline class="st4" points="2858.6,874.6 2861.4,882 2869,879.4 					"/>
					<polyline class="st4" points="2887.8,872.8 2889.4,872.4 2890.4,872.4 2891,872.4 2892.2,873 2892.8,873 2893.4,873.6 
						2893.8,874.6 2894.4,875.2 2894.4,876.4 2894.4,877 2893.8,878 2893.4,879.2 2892.8,879.8 2891.6,879.8 2885.2,882 					"/>
					<polyline class="st4" points="2871.4,886.8 2863.8,889.4 2866.4,897 					"/>
					<polyline class="st4" points="2870.6,908.6 2873.4,916.2 2881,913.6 					"/>
					<polyline class="st4" points="2895.8,908.4 2901.2,906.4 2901.8,906.4 2902.4,906.4 2903,906.4 2903.6,906.4 2904.2,907 
						2904.6,907 2905.2,907.6 2905.2,908.2 2905.8,908.8 2905.8,909.2 2906.4,909.8 2906.4,910.4 2906.4,911 2905.8,911.6 
						2905.8,912.2 2905.2,912.8 2904.6,913.2 2904.2,913.8 2903,914.4 2901.2,915 					"/>
					<polyline class="st4" points="2883.2,921 2875.6,923.6 2878.4,931 					"/>
					<polyline class="st42" points="2881.6,940.4 2883.6,946.2 2890.8,951 					"/>
					<polyline class="st4" points="2895,953.6 2901.2,957.6 2901.8,957.6 2903,962.8 2910.4,965.8 					"/>
					<polyline class="st43" points="2925.6,971.8 2962,986.6 2974,991.2 2978.6,993.4 2983.6,995.2 2997.4,1000.8 3003.6,1003 
						3009,1005 					"/>
					<polyline class="st4" points="3016.6,1008 3024,1011 3029.2,1008.2 3031.2,1008.6 					"/>
					<polyline class="st14" points="3047.6,1011.8 3060.4,1014.4 3070.6,1015.6 3074.6,1016.2 3080.4,1016.8 3088.8,1017.2 
						3092.8,1017.8 3097.8,1018.4 3103.6,1024.6 3107.6,1028 3112.2,1031 3116.2,1033.2 3120,1034.4 3123.4,1035 3140.6,1035 
						3158.2,1036 3159.8,1036 3182,1042.2 3202.4,1047.4 3213.8,1049 3220.6,1049.6 3227,1049.6 3235.4,1048 3242.8,1045.6 
						3248,1043.4 3254.2,1040.6 3258.8,1037.8 3262.2,1033.8 3266.6,1028 3269,1024.6 3271.8,1020.2 3272.4,1018.4 3274.6,1015 
						3275.2,1012.8 3277.6,1008.8 3278.6,1006 3280.4,1003 3282,1001.4 3285.4,997.4 3289.4,994 3293.4,990.6 3296.4,981 					"/>
					<polyline class="st4" points="3299,973.2 3301.4,965.6 3300.8,965.6 3300.2,965 3299.6,964.4 3299.2,963.8 3298.6,962.8 
						3298.6,962.2 3298.6,961.6 3298.6,960.4 3298.6,959.8 3299.2,959.4 3299.6,958.8 3304.2,954.2 					"/>
					<polyline class="st44" points="3319.4,943.8 3320.2,943.4 3323.6,941.8 3327,940.6 3329.8,940 3333.2,939.4 3336,938.8 
						3339.4,938.8 3345.2,938.8 3349.2,939.4 3354.8,940.6 3358.8,941.8 3362.2,942.8 3364.4,944 3366.8,945 3368.4,945.6 
						3370.2,946.8 3381.8,946.8 					"/>
					<polyline class="st4" points="3391.2,946.8 3399.2,946.8 3397,939.2 					"/>
					<polyline class="st45" points="3399.6,923.2 3400.2,923 3401.4,923 3402.6,923.6 3403.6,923.6 3404.8,924 3406,925.2 
						3406.6,925.8 3407,927 3407,927.4 3407.6,928.6 3411.8,944.8 					"/>
					<polyline class="st4" points="3414.2,953.8 3416.2,961.6 3411.6,962.8 3412.2,963.2 3412.8,963.8 3412.8,965 3412.8,966.2 
						3411.6,970 					"/>
					<polyline class="st4" points="3410.4,974.4 3408.2,982 3408.8,982.6 3409.4,981.4 3411.6,982 3411,984.8 3408.8,984.4 
						3408.8,983.8 3407.6,983.2 3406,990 3407,990 3407,989.4 3409.4,990 3408.8,993.4 3406.6,992.2 3406.6,991.2 3403.6,990.6 
						3403.6,994.6 3404,998.6 					"/>
					<polyline class="st46" points="3404.8,1012.4 3405.4,1020.2 3406,1021.8 3407,1024 3408.2,1025.8 3409.4,1027.6 3410.4,1028.6 
						3411.6,1030.4 3413.8,1031.6 3415.6,1032.6 3417.4,1033.8 3419,1034.4 3421.2,1034.4 3423,1034.4 3427.6,1034.4 3430.4,1034.4 
						3434.4,1033.8 3466.6,1030.2 					"/>
					<polyline class="st4" points="3473.6,1029.6 3481.6,1028.6 3481.6,1028 3482.2,1027 3483.2,1025.8 3483.2,1024.6 
						3482.8,1021.2 					"/>
					<polyline class="st4" points="3480.6,1002.6 3479.8,995.2 3479.8,994.6 3480.4,994.6 3480.4,994 3481,994 3481.6,993.4 
						3490.6,992.8 3491.2,992.8 3491.8,992.8 3491.8,993.4 3492.4,994 3493.2,1001.2 					"/>
					<polyline class="st4" points="3495.2,1019.8 3495.8,1024 3498,1027 3504.8,1025.8 3506,1025.6 					"/>
					<polyline class="st47" points="3521.8,1023.8 3539,1021.2 3548,1020.2 3562.2,1017.8 3582.6,1015 3642.4,1006 3682.8,972.4 
						3688.4,967.8 3690.6,965.6 3691.8,965 3693.6,965 3695.2,965 3697,965.6 3698,966.2 3699.2,966.8 3700.4,968.4 3700.8,969.6 
						3701.4,971.8 3701.4,973 3700.8,974.6 3699.8,976.4 3698.6,977.6 3666,1005.2 					"/>
					<polyline class="st4" points="3659.8,1010.4 3653.8,1015.6 3656.4,1023 					"/>
					<polyline class="st4" points="3664.2,1044.4 3666.8,1052 3674.4,1049.2 					"/>
					<polyline class="st48" points="3691.2,1043.2 3697,1041.2 3735.2,1012.4 3737.4,1004.4 					"/>
					<polyline class="st4" points="3739.6,995.8 3739.6,987.8 3736.2,987.2 3736.2,980.4 3739,979.8 3738.2,971.8 					"/>
					<polyline class="st4" points="3738.2,971.8 3737.8,969 3739,963.8 3736.2,961.6 3736.8,958.8 3729,956.6 					"/>
					<polyline class="st4" points="3728.4,956.4 3720.8,954.2 3720.8,953 3728.6,955 					"/>
					<polyline class="st4" points="3737.8,957.4 3739,957.6 3740.2,957 3745.2,954.8 3746.4,949 3750.4,944.6 3758.4,945 					"/>
					<polyline class="st4" points="3766,943.4 3773.6,941.2 3770.4,933.8 					"/>
					<line class="st49" x1="3767.2" y1="926" x2="3762.2" y2="914.6"/>
					<polyline class="st4" points="3760.4,910.8 3758.8,907 3759.4,905.4 3759.4,904.8 3760.6,903.6 3761.2,903.6 3762.2,903 
						3763.4,903.6 3764,904.2 3764.6,904.8 3766.6,909.4 					"/>
					<line class="st50" x1="3769.8" y1="917" x2="3774.6" y2="928.2"/>
					<polyline class="st4" points="3776.2,932 3779.4,939.4 3785.2,939.4 3787.2,938.6 					"/>
					<polyline class="st51" points="3802.8,935.6 3807.4,937.2 3811.8,943.8 3811.8,950.4 3807.4,957.2 3808,963.8 3807.8,972.6 
						3805,986 3791,1049.6 					"/>
					<polyline class="st4" points="3792.8,1057.4 3793,1057.6 3794.2,1059.4 3799.2,1061.6 3806.6,1058.6 					"/>
					<line class="st52" x1="3819.6" y1="1052" x2="3862.2" y2="1023"/>
					<polyline class="st4" points="3868.2,1019 3874.8,1014.4 3876,1006.6 					"/>
					<polyline class="st53" points="3886.8,994.8 3908.4,977.6 3932.8,968.4 3943,969.6 3945.8,967.8 4042.4,941.2 4052.2,929.6 
						4058.2,913.4 4060.6,897.2 4064,881.4 4055.6,855.4 					"/>
					<polyline class="st4" points="4053.2,847.6 4052.2,844.6 4050.4,840 4052.2,838.2 4054.4,834.2 4052.2,832.6 4047.8,829.6 
											"/>
					<line class="st54" x1="4036.2" y1="821.8" x2="3995" y2="794"/>
					<polyline class="st4" points="3989.4,789.6 3989,788.8 3989,787.6 3989.6,786.6 3990.2,785.4 3990.8,784.8 3991.8,784.2 
						3993,783.8 3994.2,784.2 3995.4,784.2 3999.8,787.4 					"/>
					<polyline class="st55" points="4008.2,793.4 4009,794 4020.8,802 					"/>
					<polyline class="st4" points="4025,804.8 4031.6,809.2 4037,803.2 					"/>
					<polyline class="st56" points="4047.6,791 4052.2,786 4102.2,728.6 4137.4,691.6 4143,686.6 4198.2,634.8 4199.6,633.6 					
						"/>
					<polyline class="st4" points="4205.8,628.4 4206.8,628 4208.4,627.4 4210.2,627.4 4211.8,627.4 4213.6,628 4219,622.2 					"/>
					<polyline class="st57" points="4229.6,610.8 4236,604 4267.2,579.4 4300.4,557.2 4333.8,546.2 4371.6,535 4405.2,526 
						4441,515.4 4471.6,515.4 4516.4,519.6 4537.8,519.6 4538.6,519.6 					"/>
					<polyline class="st4" points="4546.4,519.6 4554.4,519.6 4550.2,516 4549.6,513.6 					"/>
					<line class="st58" x1="4549" y1="501.6" x2="4544.8" y2="483.8"/>
					<polyline class="st4" points="4546.6,479 4553.2,477.6 4553.8,477.6 4554.4,477.6 4554.4,478 4555,478.6 4555.6,479.2 
						4556.8,485.4 					"/>
					<polyline class="st39" points="4558.6,494.2 4560.8,504.8 4562.6,506.8 					"/>
					<polyline class="st4" points="4564.2,510.8 4564.4,512.4 4562,517.8 4562,518.4 4569.8,516.2 					"/>
					<line class="st32" x1="4577.8" y1="514.2" x2="4589.8" y2="511.8"/>
					<polyline class="st4" points="4593.8,511 4601.8,509.4 4600,501.6 					"/>
					<polyline class="st59" points="4596,492 4597,488.2 4594,475.8 					"/>
					<polyline class="st4" points="4592.8,470.4 4591,463.2 4591,462.6 4591.6,462.2 4592.2,461.6 4592.8,461 4598.2,460 					"/>
					<polyline class="st60" points="4604.4,471.2 4607.6,486.4 4610,489.4 4610.8,492.2 					"/>
					<polyline class="st4" points="4610.4,499.2 4611.8,507.2 4619.4,504.6 					"/>
					<polyline class="st61" points="4636.6,499 4652.6,493.6 4668.8,489 4678.2,482.2 4694.8,479.8 4696,479.8 					"/>
					<polyline class="st4" points="4705,479.8 4713,479.8 4713,475.2 4714.8,472.8 4714.8,472.4 					"/>
					<polyline class="st4" points="4713.6,454.6 4713,446.8 4713.6,446.2 4714.2,446.2 4714.8,446.8 4715.2,453.8 					"/>
					<polyline class="st4" points="4716,472.2 4718.4,474.6 4718.4,479.2 4726.4,479.4 					"/>
					<path class="st62" d="M4742.4,480.4l51.2,8l26.6,4.4l31.2,11.2l35.6,15.6l26.6,11.2l28.8,8.8c1.2,0.8,39.2,10.2,39.2,10.2
						l44.6,19l47.8,28l187.6,91.4l188.8,30l117,54.4l104.8,100.2"/>
					<polyline class="st4" points="5678.2,878.6 5683.8,884 5686.8,880.6 5690,879.6 					"/>
					<polyline class="st4" points="5704,865.8 5708,861.8 5708.6,861.8 5709.2,861.8 5709.6,861.8 5710.2,861.8 5715.4,867.4 
						5716,868 5716,869.2 5710.4,874.8 					"/>
					<polyline class="st4" points="5697.8,887.4 5697.6,887.6 5696.4,891.6 5693.6,893.8 5699,899.6 					"/>
					<polyline class="st4" points="5708.4,909.8 5714,915.6 5716.8,913.4 5720.8,911.6 					"/>
					<polyline class="st4" points="5733,899.4 5738,894.4 5738.6,893.8 5739.2,893.8 5739.8,893.8 5740.2,894.4 5740.8,894.4 
						5745.4,899.6 5746,900.2 5746,900.8 5746,901.2 5746,901.8 5741.6,906.2 					"/>
					<polyline class="st4" points="5728.2,919.6 5728.2,919.6 5727.2,922.6 5723.6,926 5725,931 5719.2,936.8 					"/>
					<line class="st49" x1="5713.4" y1="942.6" x2="5704.4" y2="951.6"/>
					<polyline class="st4" points="5701.4,954.6 5695.8,960.2 5701.4,966 					"/>
					<line class="st20" x1="5711.4" y1="976.2" x2="5746.6" y2="1012"/>
					<polyline class="st4" points="5751.6,1017 5757.2,1022.6 5759.4,1022.6 5765.2,1022.6 					"/>
					<polyline class="st37" points="5781.8,1022.6 5900.6,1022.6 5922.8,1019.2 5943,1019.2 5970.2,1008.6 					"/>
					<polyline class="st4" points="5978,1005.6 5985.4,1002.6 5986,1006.6 5992.2,1005.4 5993.4,1010 6001.4,1009.4 					"/>
					<polyline class="st63" points="6016.6,1008 6043.8,1005.4 6052,999.4 6062.8,991.8 6070.4,981 6078.8,973.2 6086,968.6 					
						"/>
					<line class="st4" x1="6092.2" y1="964.2" x2="6098.8" y2="959.6"/>
					<line class="st4" x1="1002" y1="1592.8" x2="1006.8" y2="1599.2"/>
					<polyline class="st64" points="1016.4,1612 1045.6,1651.4 1202,1939.2 					"/>
					<line class="st4" x1="1205.8" y1="1946.2" x2="1209.6" y2="1953.2"/>
				</g>
			</g>
		</g>
	</g>
</g>
<g>
	<g>
		<g>
			<defs>
				<rect id="SVGID_3_" width="7680" height="2160"/>
			</defs>
			<clipPath id="SVGID_4_">
				<use xlink:href="#SVGID_3_"  style="overflow:visible;"/>
			</clipPath>
			<g class="st65">
				<g id="KLN_2019" class="st66">
					<polyline class="st4" points="3420,516.8 3419.4,508.8 3427.4,508.2 					"/>
					<polyline class="st4" points="3442,507.2 3450,506.6 3444.8,512.6 					"/>
					<line class="st67" x1="3439.6" y1="518.8" x2="3431.8" y2="528"/>
					<polyline class="st4" points="3429.2,531 3424,537 3423.4,537 3423.4,537.6 3422.8,537.6 3422.4,537.6 3422.4,538.2 
						3421.8,538.2 3421.2,530.2 					"/>
					<polyline class="st4" points="3410.2,538.8 3418.2,538.2 3417.6,529.6 3409.8,530.2 					"/>
					<line class="st68" x1="3396.6" y1="531.4" x2="3376.8" y2="533"/>
					<polyline class="st4" points="3370.2,533.6 3362.4,534.2 3361.8,526.2 					"/>
					<polyline class="st4" points="3360.8,513.2 3360,505.4 3353,506 3353,508.2 3349.4,512.6 					"/>
					<polyline class="st4" points="3342.2,521.2 3337,527.2 3343,532.6 					"/>
					<polyline class="st69" points="3353.8,541.8 3354.2,542.2 3354.8,542.2 3355.4,542.8 3356,542.8 3356.6,542.8 3357.6,542.8 
						3403.2,539.4 					"/>
					<polyline class="st70" points="2728.2,-586.8 2744,-545.4 2744.6,-132.8 2630.2,30.4 					"/>
					<polyline class="st4" points="2625.6,37 2621.2,43.6 2613.2,43.6 					"/>
					<line class="st71" x1="2596.8" y1="43.6" x2="2539.6" y2="44"/>
					<polyline class="st4" points="2531.6,44 2523.6,44 2523.6,36 					"/>
					<polyline class="st72" points="2523.6,21 2523.6,11.4 2523,6.2 2521.8,1 2519,-5.8 2516.6,-9.8 2512,-15 2506.4,-20.2 
						2500.6,-23.2 2494.2,-24.8 2490.8,-25.4 2486.2,-26 2484.6,-25.4 2483.4,-24.8 2482.8,-23.2 2482.8,-21.4 2483.4,-19.6 
						2484.6,-18.6 2488,-17.4 2491.8,-17.2 2494.8,-17.4 2503.4,-13.8 2508.6,-9.4 2512.6,-4.8 2515.4,1.6 2516.6,6.8 2516.6,13 
						2516.6,26.2 2517.2,45.2 2516.6,48.6 2516.6,56.6 					"/>
					<polyline class="st4" points="2516.6,64.2 2516.6,65.4 2516.6,72.2 2515,74 2511,77.8 					"/>
					<polyline class="st10" points="2501.8,90.6 2501.8,90.6 2495.4,104.4 2493.2,114.6 2492.6,124.4 2492,136.4 2492.6,152 
						2492,158.8 2492.6,166.8 2492.6,227.8 2496,235.8 2508,251.2 2519,261.6 2535.6,274.2 2543.6,275.4 2555.6,274.2 2570,274.8 
						2641.8,274.2 2655,274.8 2659,274.2 2661.8,272 2672.2,250.2 2681.4,239.2 2688.8,232.4 2694,227.8 2699.2,223.2 2703.2,219.2 
						2757.8,198.4 2844.6,186.2 2882.6,182.2 2929.6,175.8 3014.6,164.4 3016.8,163.8 					"/>
					<polyline class="st4" points="3024.6,162.2 3032.4,160.4 3025.8,164.8 					"/>
					<polyline class="st4" points="3018.2,170.2 3011.6,174.6 3014.6,178.2 3021.2,173.6 					"/>
					<polyline class="st73" points="3036.6,164.6 3037.6,164.4 3051.2,163.2 3067.4,161.6 3068.4,162 3069,163.2 3070.8,193.2 					
						"/>
					<polyline class="st4" points="3071.4,202.4 3072,210.2 3068,210.8 3069,216 3061.2,217.6 					"/>
					<polyline class="st4" points="3058.6,218.2 3053,219.4 3052.4,220 3051.8,220.6 3051.8,221.2 3052.4,221.8 3053,222.4 
						3054.2,222.4 3060.8,220.8 					"/>
					<polyline class="st4" points="3061.8,220.6 3069.6,218.8 3071.4,225.8 3061,228 3062.8,236.6 3062.2,237.8 3054.4,239.6 					
						"/>
					<polyline class="st4" points="3049.4,240.6 3041.6,242.4 3041.6,243 3033.6,244.6 					"/>
					<polyline class="st74" points="3013.4,248.6 3001.4,251 2983.2,255 					"/>
					<polyline class="st4" points="2973,257.2 2969.2,258 2968,259 2967.4,259.6 2966.4,260.8 2966.4,261.4 2965.8,262.6 
						2965.8,263.6 2965.8,264.8 2966.4,266 2967.4,267.6 2967.8,267.8 					"/>
					<polyline class="st75" points="2981.8,266.8 2996.8,263.6 3007.6,261.4 3058.2,250.6 					"/>
					<polyline class="st4" points="3065.2,249.2 3067.4,248.8 3073,247.6 3073.6,248.2 3081.2,246.4 3081.6,245.4 3085.2,244.8 
						3086.8,252.6 					"/>
					<line class="st76" x1="3088.4" y1="260.6" x2="3090.8" y2="272.6"/>
					<polyline class="st4" points="3091.6,276.4 3093.2,283.8 3093.2,284.4 3085.4,286 					"/>
					<line class="st77" x1="3069.8" y1="289.2" x2="3015.2" y2="300.6"/>
					<polyline class="st4" points="3007.4,302.2 2999.6,303.8 3001.8,315.4 3009.8,313.6 					"/>
					<line class="st47" x1="3025.4" y1="310.2" x2="3080.4" y2="298.6"/>
					<polyline class="st4" points="3088.2,296.8 3096,295.2 3097.6,303 					"/>
					<polyline class="st4" points="3099.6,313.8 3101.2,321.6 3086.8,324.6 3089.2,334.2 3081.4,336 					"/>
					<line class="st78" x1="3065.4" y1="339.4" x2="3041.6" y2="344.4"/>
					<polyline class="st4" points="3033.6,346 3027.2,347.4 3026.6,348 3026,348 3025.4,349.2 3025.4,349.8 3026,352.6 
						3026.6,353.8 3027.2,354.4 3027.8,354.4 3028.2,354.4 					"/>
					<polyline class="st79" points="3042,351.4 3066.2,346.4 3090,341.4 					"/>
					<polyline class="st4" points="3096.8,340 3104.6,338.2 3106.4,346.2 					"/>
					<line class="st44" x1="3110.2" y1="364.2" x2="3116" y2="391.4"/>
					<polyline class="st4" points="3117.8,400.4 3119.6,408.2 3119,408.8 3118.4,407.8 3116.6,406.6 3115,405.4 3113.2,404.8 
						3112.6,404.8 					"/>
					<polyline class="st4" points="3107,419 3108.2,419.8 3109.2,420.4 3111,421 3112.6,421 3114.4,420.4 3114.4,421 3106.6,422.6 
											"/>
					<line class="st28" x1="3091" y1="425.8" x2="2974.4" y2="450.6"/>
					<polyline class="st4" points="2966.6,452.2 2960,453.6 2958.8,453.6 2958.8,454.2 2958.2,454.8 2958.2,455.4 2959.6,461.2 
											"/>
					<polyline class="st4" points="2963.6,478.6 2965.2,485.2 2965.2,485.8 2965.2,486.4 2965.8,486.4 2966.4,486.4 2973,485 					
						"/>
					<line class="st80" x1="2989.2" y1="482" x2="3109.6" y2="458.4"/>
					<polyline class="st4" points="3117.6,456.8 3125.4,455.4 3126.4,463.2 					"/>
					<polyline class="st81" points="3128,477.6 3129,485.8 3125.8,492.6 3123.6,497.8 					"/>
					<polyline class="st4" points="3119.4,503.6 3114.4,509.8 3115,509.8 3113.2,512.2 3113.2,511.6 3108.2,517.8 					"/>
					<polyline class="st4" points="3108,518.8 3107.6,519.6 3107.6,521.4 3108.2,522.6 3108.6,523 3109.8,523.6 3110.4,523.6 
						3111.6,524.2 3112.2,523.6 3113.2,523.6 3113.8,523 3115,521.4 3119,516.2 3118.4,516.2 3120.2,514 3120.2,514.6 3125.2,508.2 
											"/>
					<polyline class="st4" points="3126.4,506.6 3129.4,503 3132.2,501.2 3137.4,507.4 					"/>
					<polyline class="st4" points="3142.2,513.4 3143.2,514.6 3144.8,516.8 3146.6,518 3147.6,519 3146.6,523 3144.2,526 					"/>
					<polyline class="st4" points="3141.4,529.8 3138,534 3136.8,536.2 3136.2,535.8 3131.4,542.2 					"/>
					<polyline class="st4" points="3138.6,544.6 3142,540.4 3143.2,538 3143.6,538.6 3148.6,532.4 					"/>
					<polyline class="st4" points="3159.6,525 3160.4,524.8 3165,519 3166,519.6 3167.8,520.2 3170,520.8 3172.4,521.4 
						3173.6,521.4 3175.6,529 					"/>
					<polyline class="st82" points="3179.8,543.6 3181,547.8 3183.8,549.6 3229.2,546 					"/>
					<polyline class="st4" points="3236.8,545.4 3241.8,545 3244.6,545 3248.8,540.4 3250.6,540.2 					"/>
					<line class="st83" x1="3259.4" y1="539.4" x2="3272.6" y2="538.4"/>
					<polyline class="st4" points="3276.8,538 3284.8,537.4 3284.8,538 3296.4,536.8 3296.4,536.2 3304.4,535.8 					"/>
					<polyline class="st7" points="3321.4,534.6 3329,534 3345.8,548.4 3346.8,549 3348,549.6 3349.2,550 3350.4,550.6 
						3351.4,550.6 3352.6,550.6 3353.8,550.6 3409.4,548 					"/>
					<polyline class="st4" points="3418,547.6 3426,547.2 3431.4,541.2 					"/>
					<polyline class="st84" points="3442.4,529 3473,495 3477,489.8 3478.8,488 3480.6,486.4 3481.6,484 3484,481.2 3485.2,478.8 
						3486.2,476.6 3488,473.6 3488.6,471.4 3489.6,469.2 3501.2,436.4 3502.4,433 3502.8,430.6 3504,429 3504.6,427.8 3505.2,426.6 
						3505.8,425.4 3506.8,424.4 3526.4,399.6 3538.4,388.8 3554.6,374.4 3581.6,350.2 3587.8,344.6 3643.6,294.6 3712,232.4 
						3756.4,231.6 					"/>
					<polyline class="st4" points="3764.6,231.6 3772.6,231.4 3772.6,236.4 3772.6,239.4 					"/>
					<line class="st85" x1="3772.4" y1="252.6" x2="3771.8" y2="298.4"/>
					<polyline class="st4" points="3771.8,305 3771.6,313 3764.8,317 					"/>
					<polyline class="st4" points="3756,322.2 3749.2,326.2 3753.2,333.2 					"/>
					<polyline class="st4" points="3756,338.2 3760,345.2 3767,341.2 					"/>
					<line class="st35" x1="3774.6" y1="336.8" x2="3786" y2="330"/>
					<polyline class="st4" points="3789.8,327.8 3796.8,323.8 3796.8,315.8 					"/>
					<line class="st86" x1="3796.6" y1="301.2" x2="3796.4" y2="249.6"/>
					<polyline class="st4" points="3796.2,242.4 3796.2,234.4 3804.2,234.4 					"/>
					<polyline class="st4" points="3823.2,234.4 3831.2,234.4 3834.6,241.6 					"/>
					<line class="st87" x1="3838.2" y1="250" x2="3843.8" y2="262.4"/>
					<polyline class="st4" points="3845.8,266.6 3849,274 3856.4,270.6 					"/>
					<line class="st88" x1="3871.8" y1="263.8" x2="4050" y2="184.8"/>
					<polyline class="st4" points="4057.8,181.2 4058.6,181 4064.8,177.6 4066.6,181 4069.4,183.8 4069.4,183.8 					"/>
					<polyline class="st4" points="4077.4,201 4079.8,206.2 4080.4,206.8 4080.8,207.4 4081.4,207.4 4082,206.8 4089.6,203.4 
						4090,202.8 4090,202.2 4087,195.4 					"/>
					<polyline class="st4" points="4079.8,179.6 4079.8,179.2 4079.8,175.2 4078.6,171.8 4085.8,168.4 					"/>
					<polyline class="st4" points="4101.6,161.2 4109,158 4111.8,164.4 4112.4,164.8 4112.4,165.4 4113,165.4 4113.6,165.4 
						4114.2,164.8 4119.8,162.4 					"/>
					<polyline class="st4" points="4128.2,158.8 4135.4,155.6 4135.4,155.2 4136,155.2 4136,154.6 4136,154 4133.2,147 
						4140.4,143.8 					"/>
					<polyline class="st89" points="4148.6,140 4149.2,139.6 4154.4,128 					"/>
					<polyline class="st4" points="4156.2,124 4159.6,116.6 4166.8,120 					"/>
					<polyline class="st90" points="4184.4,123.8 4187.2,123.6 4237.8,87 					"/>
					<polyline class="st4" points="4245.4,81.6 4248.6,79.4 4251.4,77 4252,77 4252,76.4 4252,76 4252,75.4 4250.2,69.4 					"/>
					<polyline class="st91" points="4245.8,55.4 4239.8,35.8 4238.2,27.8 4262.4,-78.6 					"/>
					<polyline class="st77" points="4985.8,-221.2 5046.2,-163.2 5053.6,-156.4 5266.6,49.2 5270.6,52 5274.6,53.2 5278.6,53.2 
						5286.6,52.6 5346.8,-10.6 5349.8,-16.2 5351,-22.6 5349.8,-26 5347.4,-30 5280.4,-95.4 5269.6,-107.6 					"/>
					<polyline class="st88" points="5551.2,-122.2 5594.2,-62.8 5651,4.2 					"/>
					<polyline class="st4" points="5656.4,10.6 5661.6,16.8 5658.4,26.8 5663.8,32.8 					"/>
					<polyline class="st4" points="5675,45.8 5680.2,51.8 5692,52.6 5697.2,58.8 					"/>
					<polyline class="st92" points="5707,71.4 5796,220.4 5839.2,290.8 5849,302 5856.8,310.8 5866.8,318.2 5873.2,323.2 
						5879.4,327.2 5889,330.6 5899.6,332.8 5908.6,333.8 5916.4,333.6 5931.2,332.8 5958.2,331 5966.4,332.4 5973,334.8 
						5980.4,335.8 5988.8,334.2 5996.6,331.2 6008.6,330.6 6020.8,332 6034.6,330.8 6049.4,329.6 6062.6,329 6077.2,327.2 
						6087.2,325.8 6094.8,324.2 6100.2,321.6 					"/>
					<polyline class="st4" points="6107.8,320 6112.8,320.4 6115.8,319.4 6116.4,317.6 6124.4,316.6 					"/>
					<polyline class="st30" points="6132.4,316 6139.2,315.8 6144.6,315.4 					"/>
					<polyline class="st4" points="6148.6,315.2 6153,314.8 6156.6,314 6156.6,313.4 6160,314.8 6162.6,311.4 6166.6,312.2 
						6168.8,313.6 6169.4,314.8 					"/>
					<line class="st93" x1="6175.4" y1="325.4" x2="6184.4" y2="341.2"/>
					<polyline class="st4" points="6187.4,346.4 6191.4,353.4 6184.2,357.2 					"/>
					<polyline class="st94" points="6173,363 6155.2,372.4 6147.6,376.4 6133.4,383.6 					"/>
					<polyline class="st4" points="6127.6,386.6 6120.6,390.2 6120.6,390.8 6124,397.4 					"/>
					<polyline class="st4" points="6126.6,402.8 6130.4,409.8 6123.2,413.4 					"/>
					<polyline class="st4" points="6121.4,414.4 6114.2,417.8 6110.4,410.8 					"/>
					<polyline class="st4" points="6107.8,406 6104.4,399.4 6104.4,398.8 6102.6,399.4 6097.2,402.4 					"/>
					<line class="st95" x1="6089.6" y1="406.4" x2="6078.2" y2="412.6"/>
					<polyline class="st4" points="6074.4,414.4 6067.2,417.8 6063.4,410.8 					"/>
					<polyline class="st4" points="6061,406.6 6057.2,399.6 6052.2,402.4 6056,409.4 					"/>
					<polyline class="st4" points="6059.2,415 6063,422 6055.8,425.6 					"/>
					<polyline class="st4" points="6047.2,430 6040,433.6 6043.8,440.6 					"/>
					<line class="st4" x1="6051" y1="454.2" x2="6054.8" y2="461.2"/>
					<line class="st4" x1="6066.2" y1="489.4" x2="6067.8" y2="497.2"/>
					<polyline class="st88" points="6071,513.8 6071.4,515.8 6154,601.4 6173,619.8 6229.8,678.2 					"/>
					<polyline class="st4" points="6235.8,684.2 6236.6,685 6237.6,685.6 6238.8,686.2 6240,686.2 6240.6,686.2 6241.8,686.2 
						6242.2,685.6 6242.8,685.6 6243.4,685 6244,684.6 6244.6,684 6245.2,682.8 6245.8,682.2 6245.8,681 6245.8,679.8 6245.8,679.2 
						6245.2,678.2 6244.6,677.6 6243.4,676.4 6243.4,675.8 6238.6,670.2 					"/>
					<polyline class="st4" points="6226.8,656 6221.6,650 6227.4,644.4 					"/>
					<line class="st96" x1="6239.8" y1="632.6" x2="6258.4" y2="614.8"/>
					<polyline class="st4" points="6264.6,608.8 6270.4,603.2 6276.8,608.2 					"/>
					<line class="st4" x1="6288.2" y1="617" x2="6294.4" y2="621.8"/>
					<line class="st4" x1="3024.8" y1="226.6" x2="3023.8" y2="218.6"/>
					<polyline class="st4" points="3022.4,209.2 3021.4,201.2 3024.2,200.6 3025.6,208.6 					"/>
					<polyline class="st4" points="3027,218.8 3028.4,226.6 3024.8,226.6 					"/>
					<line class="st4" x1="7055.4" y1="187.2" x2="7063.4" y2="186.8"/>
					<path class="st97" d="M7080,183.2l8.2-3.6h16.8"/>
					<path class="st4" d="M7113.8,179.6h8l5.6-5.6"/>
					<polyline class="st4" points="7133.6,167.6 7139.2,161.8 7147.2,161.8 					"/>
					<line class="st98" x1="7166" y1="161.8" x2="7231.4" y2="161.8"/>
					<polyline class="st4" points="7240.8,161.8 7248.8,161.8 7249.4,153.8 					"/>
					<polyline class="st99" points="7251.4,145 7259,137.6 7262.4,137.6 					"/>
					<polyline class="st4" points="7267.2,137.6 7275.2,137.6 7279.6,144.2 					"/>
					<polyline class="st4" points="7281.2,155.2 7281.2,163.2 7289.2,162.8 					"/>
					<polyline class="st4" points="7299.8,162.2 7307.8,161.8 7310,168.6 7317.8,167.6 					"/>
					<polyline class="st4" points="7319.8,167.4 7327.8,166.4 7330,161.8 7332.8,160.6 					"/>
					<path class="st100" d="M7348.2,158.8c7.6,0.2,16.8,0.2,19.2-0.4c4.6-1.2,37.8-3.4,37.8-3.4l17.8-13.4l15.6-24.4l19.8-34.2
						l18-41.2l24.4-46.6l1.2-1.8"/>
					<polyline class="st4" points="7539.6,-6 7547,-2.6 7543.8,4.8 					"/>
					<polyline class="st101" points="7537,19.6 7486.4,122.2 7448.2,187.2 7440,232.6 7449.4,305.2 7459,346.8 7491,386 7529,408.6 
						7557.6,415.6 7558.8,416.8 					"/>
					<polyline class="st4" points="7564.8,422.2 7570.6,427.6 7570.6,435.6 					"/>
					<line class="st12" x1="7570.6" y1="451" x2="7570.6" y2="598.4"/>
					<polyline class="st4" points="7570.6,606.2 7570.6,614.2 7578.6,614.2 					"/>
					<line class="st90" x1="7597.4" y1="614.2" x2="7662.6" y2="614.2"/>
					<line class="st4" x1="7672" y1="614.2" x2="7680" y2="614.2"/>
				</g>
			</g>
		</g>
	</g>
</g>
<g>
	<g>
		<g>
			<defs>
				<rect id="SVGID_5_" width="7680" height="2160"/>
			</defs>
			<clipPath id="SVGID_6_">
				<use xlink:href="#SVGID_5_"  style="overflow:visible;"/>
			</clipPath>
			<g class="st102">
				<g id="Pre1900_HKI">
					<path id="Pre1900_HKI-2" class="st103" d="M5906,1220.2l9.6,42l13,13l3.2,9.6l-6.4,16.2l-12.8,22.6l-16.2,16.2h-22.6l-22.6-9.6
						l-9.6-9.6l-16.2-6.4l-29-13l-19.4-9.6l-9.6-6.4l-22.6-45.2l-22.6-45.2l-9.6-19.4l-8-11.2l-5.6-14.2l-7.2-7.8l-28.8-6.4
						l-20.2-2.6l-29.8-15.4l-8.2-3.2l-15.2-13.8l-16-16l-12.6-22.2l-16-22.4l-12.8-16l-6.4-6.4l-9.6-16l-6.4-6.4l-9.6-16l-22.4-22.4
						l-19.2-19.2l-9.6-6.4l-12.8-3.2H5419l-36.8-6.2l-32-12.8l-16-9.6l-16-9.6l-12.8-6.4l-12.8-3.2h-10l-9,3.2l-16,9.6l-9.6,6.4
						l-9.6,9.6l-12.8,19.2l-9.6,9.6l-2.6,3.2h-3.8l-3.2-3.2l-9.6-19.2l-12.8-19.2l-6.4-9.6l-5-9.6l-4.6-9.6l-9.6-6.4h-9.6l-9.6,3.2
						l-6.4,6.4l-3.2,9.6l-3.2,16l-9.6,9.6l-12.8,9.6h-9.6l-7.2-1.6l-18.2-21l-15.6-24l-19.6-39.8l-12.8-32l-6.4-16l-6.4-19.2
						l-16-63.8l-16-41.4l-22.4-32l-25.6-19.2l-32-12.8l-41.4-12.8l-47.8-6.4h-7.8l-6.6,1.6l-12.8,6.4l-22.2,13l-19.2,6.4l-25.6,9.6
						l-22.4,9.6l-19.2,9.6l-11.4,3h-36.2l-32.2,4l-28.2,4l-28.2,8l-28.2,8l-20.2,4l-16,4h-44.4l-16.2-4l-20.2-4l-16.2-4l-20.2-4
						h-16.2l-16.2,8l-16.2,12l-20.2,24.2l-48.4,56.4l-24.2,28.2l-28.2,36.2l-12.2,12l-4,16.2v24.2l4,20.2l4,36.2l4,32.2v32l4,32.2
						v32.2l4,24.2l4,24.2v28.2l8,20.2l8,16.2l4,20.2l-4,16.2l-16,12h-60.4l-28.2,8l-20.2,4l-20.2,8l-20.2,4l-12-4l-16.2-12l-12.2-16
						h-32.2l-24.2-4l-24.2-8l-20.2-8l-16.2-12l-16.2-16.2l-12-8l-12-4v-8l4-8l8-8l4-12v-8l-4-20.2l-12-12l-12-4l-12,4l-8,4l-4,4
						l-4,4l-4,4v4l4,4l8,8v8l-4,12l-4,12l-8,12l-4,12l-4,20.2v8l4,12v8l-4,12v16.4l12,32.2l-20.2,20.2l-28.2,12l-12,4l-12,16
						l-16.2,17l-16.2,7.2h-22l-8-8l-8-36.2l4-24.2l-24.2-36.2l-16,4l-20.2,16.2l-40.2,12h-24.2v16.2l-12,16.2L3496,1325l-28.2-8
						l-8,4l-8,4l-12,8h-12l-16.2,4l-12,4l-16.2,12l-12,4l-8,4l-12,4l-8,4l-16,4l-9.8-8H3263l-12-8l-12-4h-8l-12,4h-20.2l-8-4l-8-8
						l-12-8l-12-8l-12-8l-16-12l-4-4l-8-8l-8-4l-12-8l-8-4l-8-4l-12-8l-16.6-4h-15.6l-4-8l8-12l8-8l12-11v-6l-8-8l-4-4l-8-8l-4-4
						l-4-4h-4l-12,8l-8,8l-8,4l-8,4h-28.2l-12,4l-4,4l-4.4,4h-6l-4-4v-16.2l-4-8l-16.2-12l-16.2-12l-16.2-12l-12-8l-20.2-8l-20.2-8
						l-24.2-8l-20.2-4l-20.2-4l-20.2,4l-8,4H2710l-8,4l-8-4h-12l-12-4h-12l-8-8l-8-16.2l-12-8l-4-8l-4-8l-4-8l-8-8l-12-12l-8-12
						l-8-8l-4-12l-8-12l-8-8l-4-4l-4-8l-8-8l-8-8l-4-8l-12-12l-4-8v-16.2l-4-12l-12-8l-8-8l-4-4l-4-4l-8-4l-12-4h-20.2l-8-4l-16.2-8
						h-24.2l-12-4h-12l-4,8l-8,4h-4l-8,4l-8,4h-8l-12-4l-12-4v-14l-4-8l-12-8l-12-8l-4-8h-8l-8,4l-4,8H2234l-12-12l-12.2-8l-12-12
						l-12-1.6l-12.8,6.4l-12.8,9.6l-12.8,6.4h-9.6L2125,831l-9.6-6.4l-6.4-6.4l-9.6-9.6l-3.2-3.2l-12.8-3.2h-6.4l-6.4,3.2l-6,3
						l-16.2-4h-8l-12-4h-51.6l-12-4l-8-8v-8l-4.4-10.4l-7.8-2.2l-12-0.8h-28.2l-8,0.8l-4,4l-4,12l-4,12l-16.2,8l-5,4.2l-12.8,3.2
						H1838l-12.8-3.2l-11.6-1.2h-24.2l-16.2,4l-12,4l-12,8l-12,8l-16,8l-16.2,8l-12,4l-20.2,4h-44.6l-12-4l-16.2-12l-4-2.8l-5.6-5.6
						l-7-6.2l-25-3.6l-16.2-4l-9.4-3.2l-14,4.8l-9,6.8l-5.8,12l0.6,5l1,7.2v12.2l-8.2,12.2l-8,12.2l-4,12.2l-4,20.2l-12.2,8.2
						l-8.2,4l-8.2,8.2l-12.2,12.2l-16.2,8.2l-12.2,8.2l-8.2,8.2l-8.2,8.2l-4,12.2l-4,12.2l-7.8,16l-8,12.2l-12.2,12.2l-20.4,12.2
						l-12.2,4l-12.2,4l-16.2,4l-16.2,4h-16.2l-16.2-4l-12.2-4l-12.2-8l-8.2-4l-13-16.6l-14.6-14.6h-16.6l-12.4,6.4l-9.6,3.2h-9.4
						l-5-1.6l-6.4-3.2l-9.6,3.2l-9.6,6.4l-9.6,6.4l-3.2,6.4l-6.4,9.6l-3.2,6.4l-6.4,3.2l-16,3.2h-9.6l-6.4-3.2l-3.2-3.2l-3.2,3.2
						l-6.4,6.4l-9.6,6.4h-27.6l-56,16l-35.4,12.8l-49.2,24.8l-14,12.2l-13.4,11.6l-2.4,11.4l-8.8,9.8l-3.4,13.6l-2.6,14.2l-2.8,12.6
						l-8,15.6l-6.4,7.4l-8,5l-4.6,5.2l-1.4,11l-3.8,12.4l-2.4,15.2l7,13.8l2.2,14l-1.6,9l-4,3.8l1.6,14.6l-4,15.2l-1,12.6l1.6,19.4
						l-3.4,9.8l2,12.8L792,1437l12.2,12.2l11.6,10.6l26,8.6l13,12.4l8,18.8l23.6,25.2l7.8,2l7.6,11.8l5.8,8.8l5.8,10.2l8.8,6.4
						l12.6,8.8l15.4,3.6l9,1h11l9.4,4l6.2,4.2l6.8,3.2l9.6,3.2h11l21.2,3.2l16-3.2l12.8-3.2h9.6l9.6-6.4l16-6.4l9.6-6.4l3.2-3.2
						l6.4,3.2l12.8,3.2l9.6,3.2l6.4,16v12.8l-6.4,16l-6.4,9.6l-3.2,16v9.6l-6.4,6.4l-6.4,6.8l3.2,3.2v3.2l-3.2,3.2v6.4l6.4,3.2
						l6.4,3.2l3.2,6.4l-3.2,6.4l3.2,9.6l9.6,9.6l12.8,9.6l3.2,3.2l3.2,9.6l3.2,3.2l12.8-3.2l4,3.2l2.6,6.4l4.8,12l1.6,13.8l6.4,6.4
						l6.4,3.2v14.6l9.6,20.8v11.6l3.2,14.2l3.2,3.2l-6.4,16l-3.2,16l-3.2,22.6l-6.4,9.6l3.2,6.4l2.2,8.6l1.4,11.6l3.4,13.6l8.2,29.4
						l9,8.4l6.4,4.2l5,11l9.6,9.6l7.8,12l10.6,3.2l7.4,0.4l6.2,0.6l9.6,3.2l8.8,1.4l7.2,1.8l12,4l6.2,5.6l-0.4,6.2l1,5l4.4,2.6
						l3.2-4.8l4.4-11.4l4.8-3.6l3-3.6l6.4-3.2l5.8-5l2.4-7.4l1.2-6.2l1.2-5.6l4.8-1.2l6.2,6l7.4-1.6l3.6-3.2l-3.6-9l4.8-9.8l3.6-5.6
						l5-3.6l7,1.2l6.6,0.4h5.6l5.8-0.4l4.4,2.8v4.4l2.2,5.2l9.6,3.2l8.2,5.4l4.8,10.8l-6,6.2l-0.8,6.6l1.2,7.8l3.2,5.2l2.4,3.2
						l6.2,7.8l4,7l4.6,6.2l-3.8,8.4l-4,5.4l-0.6,10.2v6.4l3.2,6.4l6.4,6.4l16,0.4l11.4,6.8l8,8.8l9.6,16l3.2,6.4v10.8l-0.4,8l3.2,7
						l3.6,6.4l5.4,9.4l5.8,7.2l-1.8,14.8l1,10.8l-2.4,9.4l3.6,10l4,10.2l-3,11.2l-2.8,9.2l-4.2,8.8l-5-0.4l0.8,5.6l3,2.6l-4.4,9.2
						l-6,6.4l-19.4,36.6l-7.8,12.2l-2.6,10l-2,8.8l-4.2,11.6h5602.4l-0.2-4.2l1.4-9.2l-1.6-9.2l2.4-4.8l7.2-1.4l12.4,2.2l7-1.6
						l1-7.6l-3.8-5.4l3-3l4.2-4.2l1.4-7.4l-5.6-3.2l-1.8-7.2l3.6-5.4l6.6-1.6l5.4-5.4l-3.6-8.2h-3.2l-3.2-3.2l-2.6-5.4l2-7.8
						l-2.6-13l-2-5.8l3.6-5.8l-4.2-1.6l-5.2-1l-2.2-4.8l-0.6-6.8l0.4-3.8l-4.8-5.6l-0.6-8l-3.8-6.8l-1-8.4l-2-9l-8.6-4.6l-8.2-2.2
						l-2.2-9.4l-2.4-8.6l-11.2-8l-1-5.6l1.2-10.4l6.6-5.6l-3.4-10.6l1-12l5.8-10.6l1-7.6l3.8-3.4l2.8-9.6l5.2-6.2l12.4-3.4l11.4-1.8
						l14.2-2l11.2,3.2l14.4-7l10,0.6l6.8-3.6l5-3.6l-1.8-10.8l-6.4-12.6l-25.8-25.8l-9.6-13l-6.4-3.2l-9.8-13h-6.4l-9.6-13
						l-12.2-12.2l-10.4-3.8l-3.2-3.2l-6.4-9.6l-5.4-9.6l-1.2-12l-5.8-4.2l-7.6-7.6l-8-0.2l-10.6-5.2l-10.2-6.2l-7.2-5.8l-10.8-3.6
						l-9.2-9l-8.8-7.8l-9.8-6.6l-9.8-6.2l-8.4-1.6l-5.6,7l-7.8,8.4l-7.8,3.4l-8.8,1.2l-4.4,5.8l1.2,7l2.2,11.2l23,26.8l1.6,8.6
						l-6.4,25.8l-9.8,22.8l-12.8,13l-19.4,13l-16.2,16.2l-16.2,9.6l-9.6,6.4l-9.6,3.2l-6.4,6.4l-3.2,9.6h-3.2l-12.8-9.6l-3.2-6.4
						v-9.6l-3.2-6.4l3.2-6.4l-3.2-6.4l-12.8-29l-6.4-9.6l-3.2-3.2l-9.4-11.4l-20.8-30l-3.8-6.4l-1.2-4.6v-4.6l-3.4-6.6
						c0,0-6.6-4-7.6-4.6s-7.2-8.2-7.2-8.2l-9-13.2l-11-11.6l-9.4-6.6l-10.6-8.4l-3.2-3.2l-6.4,3.2h-3.4l-9.6-9.6l-6.4-3.2h-12.8
						l-6.4-6.4l-6.6,3.2h-12.8l-9.6,6.4v3.2l-22.6,6.4l-12.8,6.4l-3.2,9.6h-9.6l-9.6,3.2h-6.4l-6.4-6.4h-3.2l-25.8,25.8l-6.4,9.6
						l-19.4,9.6l-19.4,9.6l-3.2,1l-6.4,11.8l-16.2,6.4l-12.8,3.2h-19.4l-13,3.2l-12.8,16.2l-13,6.4l-12.8,13h-6.4l-9.6,6.4h-6.4
						l-22.6,16.2l-16.2-3.2l-9.6,3.2h-12.8v-6.4l-16.2-9.6h-13v-8.4l-3.2-9.6l-6.4-6.4H6214l-9.6-16.2l-3.2-3.2H6185l-3.2-3.2
						l-6.4-13l-3.2-9.6l-6.4-6.4l-6.4-9.6v-3.2l3.2-6.4l-3.2-9.6l-3.2-6.4v-6.4l-3.2-3.2l-3.2-3.2l6.4-6.4h9.6l-3.2-3.2v-6.4
						l3.2-3.2l3.2-6.4h3.2l9.6,6.4h12.8v-9.6h3.2l3.2,6.4v9.6l-3.2,9.6l-3.2,9.6l6.4,6.4h9.6l6.4-3.2l3.2-3.2l3.2-6.4h3.2l9.6,6.4
						l3.2,3.2v6.4l-3.2,9.6l-3.2,6.4v9.6l16.2,9.6l9.6,3.2l13-6.4h6.4l6.4-3.2l12.8-25.8l3.2-9.6l3.2-19.4v-6.4l-3.2-6.4l-13,3.2
						l-6.4,6.4h-6.4l-3.2-6.4l-6.4-9.6l-13-25.8l-6.4-19.4l-3.2-6.4v-6.4l9.6-6.4l6.4-22.6l6.4-16.2l6.4-9.6l3.2-9.6l-3.2-13v-6.4
						l6.4-3.2l6.4-3.2v-9.6l9.6-9.6l9.6-6.4l-3.2-3.2v-4.2l-3.2-6.4l-6.4-3.2l-3.2-6.4v-6.4l3.2-6.4l-3.2-13v-6.4l16.2-9.6l3.2-6.4
						l3.2-19.4l9.6-19.4l3.2-3.2l-6.4-9.6v-9.6l3.2-9.6l12.8-16.2l9.6-6.4l13-16.2l3.2-9.6l-3.2-6.4l3.2-3.2h6.4l9.8-6.4l6.4-13
						l3.2-6.4l3.2-3.2l3.2,3.2l9.6,6.4h3.2l3.2-6.4l6.4-3.2l3.2-3.2h9.6l3.2-3.2v-3.2l3.2-6.4l3.2-16.2l-3.2-9.6v-13h-3.2l-12.8,13
						l-3.2,3.2h-6.4l-9.8-3.2h-6.6l-35.6,9.6l-13,3.2l-9.6,3.2h-9.6l-12.8-9.6l-6.4-9.6l-3.2-9.6l-3.2-16.2l-12.8-16.2l-9.6-9.6
						l-3.2-6.4l-3.2-6.4l-16.2-19.4l-6.4-9.6v-3.2l-16.2-22.6l-6.4-6.4v-13l3.2-9.6l16.2-19.4l6.4-3.2h3.2l13-9.6h6.4l12.8-3.2
						l6.4-3.2l9.6-9.6l6.4-3.2l8-4.6l7.8-18.4l3.2-9.6l7.6-7.8l5.8-6.4l0.8-7.6l-6.8-8.4l-7.6,2.4l-4.6-1.4l0.4-9.4l6.4-5l1.8-4.6
						l-6.2-5.8l-10.2-6.8l-12.8-6.4h-6.4l-4.8-5l-8-1.6l-6.4-3.2h-6.4l-12.8-9.6l-6.4-3.2l-5.4-3l-4.2-3.6v-4.4l-2.6-4.8l-6.4-3
						l-4.6,4.8l-12.6-17.2l-7.2-10l-9.2-9.6l-9.2-9.6l-6.6-7.2l-2.8-6.6l-1.8-7.4l-6.4-7.8l-7-3.4l-7-1.6l-4.6-11.8l-15.2-12.8
						l-15.2-7l-9.8,0.4l-10.4,2.6l-11.8,8.6l-5,9.4l-2.4,6.6l-3.6,5l-2,5.8l1.6,8.2l5.4,9.4l3.2,10.6l-4.2,3.8l-3.2,2.4l-4.2,1.6
						l-5.4,3.6l-20.6-2.8l-13.6-2h-19.4l-16.8,4.4l-13.2-1l-18.6,1l-14.2,4.4l-13.6,12.6l-2.4,16l2.4,11.4l-2.2,14.6l-3,9.4l0.4,9.2
						l2.8,19.6v12.8L5906,1220.2z"/>
				</g>
			</g>
		</g>
	</g>
</g>
<g>
	<g>
		<g>
			<defs>
				<rect id="SVGID_7_" width="7680" height="2160"/>
			</defs>
			<clipPath id="SVGID_8_">
				<use xlink:href="#SVGID_7_"  style="overflow:visible;"/>
			</clipPath>
			<g class="st104">
				<g id="Pre1900_Kln">
					<path id="Pre1900_Kln-2" class="st105" d="M923.6-3080.6l2.6,18.2L944-3087h13.2l6.4,9.6l19.2,19.2l9.6,19.2l-6.4,19.2
						l-12.8,16l-19.2,9.6l-9.6,12.8l-3.2,19.2l-9.6,12.8l-9.2,14.4l-10,14.4l-9.6,12.8v12.8l-9.6,3.2l-6.4-6.4l-9.6-12.8l-12.8-12.8
						l-25.6-6.4l-22.4,6.4l-19.2,9.6l-16,9.6l-25.6-3.2l-9.6-3.2l-9.6,6.4l-16,3.2l-19.2,9.6l-19.2,16l-16,16l-9.6,16L650-2831
						l-9.6,12.8l-6.4,16v16l-9.6,9.6l-16,6.4h-25.6l-6.4,6.6v9.4l3.2,6.4l9.6,16l6.4,16l3.2,9.6h6.4l9.6-3.2l9.6-3.2h12.8l9.6,3.2
						l16,6.4l16,9.6l16,16l3.2,12.8l-3.2,16l-3.2,22.6v15.8l6.4,19.2l3.2,12.8v6.4l6.4,12.8l12.8,22.4l6.4,9.6l6.4,9.6l3.2,9.6
						l3.2,12.8l3.2,6.4l3.2,9.6l3.2,3.2l9.6,3.2l6.4,6.4l3.2,6.4l6.4,6.4l6.4,3.2h9.6l3.2-3.2l9.6-6.4h12.8l19.2-3.2l19.2-16
						l9.6-22.4l9.6-19.2l6.4-28.8l9.6-19.2l19.2-9.6l20-13.6h11.6l10.2-3.2l9.4-6.2h26l11.6,3.2l8.8,1.6l10,1.6l9.6,3.2h7l8.6,3.2
						l9.4,3.2l6.2,3.2l9.4,6.2l9.4,6.2l6.2,6.2l6.2,6.2l6.2,6.2l6.2,3.2h11.2l1.4-3.2h3.2l4.6,3.2l4.8-3.2l3.2-3.2l3.2-3.2v-9
						l-3.2-3.4v-6.2l3.2-3.4l3.2-2.8v-15.6l-3-3.2l-3.4-3.2l-3.2-3.2l-3.2-3.2l-3.2-6.2v-6.2l3.2-6.2l3.2-6.2l3.2-3.2l6.2-6.2
						l6.2-6.2l6.2-3.2h6l6.6-3.2l3.2-6.2v-6.2l3.2-6.2l6.2-6.2l6.2-6.2l6.2-3.2l6.2-3.2l6.2-3.2h5.6l7-3.2l6.2-3.2l6.2-6.2l6.2-6.2
						l3.2-3.2l3.2-6.2l6.2-6.2l6.2-3.2h18.8l9.4,3.2h6.2l9.4,3.2h18.8l9.4,3.2l9.4,3.2l9.4,6.2l6.2,3.2h18.8l9.4,3.2l9.4,6.2
						l9.4,3.2h9.4l12.4-3.2l9.4-3.2l6.2-3.2l9.4-12.6l3.2-9.4l3.2-12.6l3.2-9.4l3.2-9.4l6.2-9.4l6.2-9.4l6.2-9.4l6.2-9.4l6.2-9.4
						l6.2-9.4l9.4-9.4l12.4-9.4c0,0,9.4-9.4,12.6-9.4s6.2-6.2,6.2-6.2v-6.6l-3.2-12.2l-3.2-9.4l-3.2-9.4l-3.2-9.4l3.2-9.4l6.2-6.2
						l6.2-3.2h12.6v3.2l-9.4,3.2l-6.2,3.2l-3.2,6.2v6.2l3.2,9.4l3.2,9.4l3.2,9.4l3.2,9.4v25l-3.2,6.2l-6.2,6.2H1510l-6.2,6.2
						l-6.2,6.2l-9.4,9.4l-6.2,9.4l-9.4,12.6l-6.2,12.4l-6.2,9.4l-3.2,9.4l-3.2,9.4l-3.2,9.4l-3.2,9.4l-6.2,9.4l-6.2,6.2l-6.2,9.4
						l-6.2,9.4l-3.2,9.4l-3.2,12.6v43.8l-3.2,9.4v6.2l3.2,9.4l3.2,15.6v15.6l-2.2,15.6l-1,12.6v21.8l3.2,6.2l3.2,9.4h-2.2l-7.2-3.2
						h-12.4l-3.6,3.2l-5.8,6.2l-6.2,6.2l-9.4,9.4l-6.2,6.2l-6.2,6.2l-6.2,6.2l-6.2,3.2l-6.2,12.6l-6.2,12.4l-6.2,12.6l-6.2,12.6
						l-6.2,9.4l-6.2,9.4l-3.2,12.6l-9.4,12.6l-9.4,9.4l-9.4,9.4l-6.2,6.2l-9.4,6.2l-9.4,9.4l-6.2,6.2l-9.4,3.2l-9.4,3.2h-7.8
						l-7.8,3.2l-3.2,3.2l3.2,6.2v15.6l3.2,6.2l-3.2,6.2l-3.2,6.2l-3.2,9.4l-3.2,9.4l-3.2,9.4l-6.2,12.4v21.8l-3.2,12.4l-3.2,12.6
						v18.8l3.2,12.6v9.4l3.2,12.6v25l-3.2,12.6v65.6l3.2,12.6l3.2,9.4l-9,0.6l-8.6-8.6l-7-3l1.8,7.6l3,6.8l4.8,8l6,8.8l7.6,13.4
						l15.2,14.4l13.6,10l13.2,8.8l14,8.4l12.8,4.4l12.4,4.8l15,6.4l14.8,7.2l15,6.4l14.4,6l16.4,6l16.4,7.2l18.2,8.4l18,9.8l5.2,7
						l4.4,11l-0.6,12.4l-1.2,8v6.2l10.4,4l14.6-0.6l12.8-0.8l5.6-3.6l6.6-3l9.6,3.2l3.2,9.6l3.2,6.4l3.2,9.6v9.6l-3.2,9.6v9.6
						l3.2,6.4l6.4,9.6h10.8l8.4,3.2h9l7,3.2l9.6,3.2l6.4,9.6l3.2,9.6l-1.4,5.4l-7.4,4.2l-10.4,2l-10.6,5.8l-5.6,14l8.2,6.8l5.8,9
						l6.6,9l9.2,7.8l11.6,8.6l12.8,8l13.2,5.2l11.6,3.8l10.2,2.6l9.4,4.8l20.8,4.6l16.8,2.4l5.6-5.4l2.6-12.2l3.6-7.2l4.8-4.6
						l4.4-8.6l3.6-8.4l1.8-7l2.6-5.4l-6.2-10v-11.2l3.2-6.4l3.2-6.4l3.2-6.4v-9.4l-3.2-9.8v-3.2l6.4-3.2l3.2-6.4v-19.2l3.2-6.4
						l3.2-6.4v-6.4l-3.2-9.6v-12.8l3.2-10.6v-8.4l-6.4-9.8v-9.6l-9.6-16l-3.2-16v-12.8l-3.2-12.8l-3.2-12.8l-3.2-6.4l-3.2-6.4
						l-6.4-6.4l-8-1h-14.2l-8.4-2.8l-3.8-2.8l-3.2-9.6v-67.2l-3.2-9.6v-6.4l3.2-3.2l6.4,9.6l6.4,3.2l6.4,6.4v9.6l3.2,6.4l6.4,3.2
						l6.4,3.2l9.6,0.6l6.4-0.6h6.4l6.4,3.2v21.8l6.4,3.8l9.6,3.2l3.2,9.6l3.2,9.6l3.2,12.8l6.4,9.6l6.4,6.4l9.6,3.2h6.4l6.4,6.4
						l6.4,6.4v5.6l-9.6,7.2l-3.2,6.4l3.2,6.4l3.2,9.6v67.2l6.4,9.6l3.2,6.4l6.4,6.4l3.2,6.4l3.2,3.2l3.2,3.2l3.2,3.2l3.2,3.2v5.6
						l3.2,4l3.2,3.2l3.2,3.2l9.6,6.4l12.8,3.2l9.6,3.2h12.8l9.6,3.2l9.6,3.2l9.6,6.4h6.4l9.6,3.2l6.4,6.4v32.8l3.2,8.8l3.2,9.6
						l3.2,6.4l3.2,6.4l3.2,6.4l3.2,6.4l3.2,6.4l3.2,6.4v6.4l3.2,9.6v6.4l3.2,9.6l3.2,6.4l3.2,6.4l3.2,3.2l9.6,6.4l9.6,3.2l9.6,3.2
						l9.6,3.2h16l6.4-3.2l6.4-3.2l6.4-3.2l6.4-3.2l30-9.4l24.6-9.8l12.8,3.2l3.2,3.2l8.4,3.4h10.2l10.4-3.4l12.8-6.4l3.2-6.4
						l3.2-9.6v-4.2l3.2-2.2l3.2,6.4v6l6.4,3.6l9.6-3.2l25.6-9.6l12.8-3.2h6.4l9.6,3.2l3.2,6.4l3.2,6.4l9.6,6.4h35.2l12.8-3.2l16-3.2
						l9.6-6.4l3.2-6.4l3.2-6.4l-3.2-9.6l-9.6-9.6l-19.2-12.8l-6.4-6.4v-6.6l3.2-3.2h6.4l9.6,6.4l9.6,6.4l9.6,9.6l6.4,9.6l3.2,6.4
						l3.2,12.8v10.4l3.2,8.8h9.6l6.4-3.2v-14.2l-3.2-8.2l-6.4-12.8l-6.4-22.4v-28.8l3.2-3.2l3.2,3.2v6.4l3.2,6.4l3.2,3.2h6.4
						l9.6-6.4l6.4-3.2l3.2,6.4h9.6l9.6-3.2l6.4-3.2h6.4l19.2-3.2l12.8-6.4l12.8-9.6l6.4-9.6l6.4-9.6l8.6-11.6l19.6,11.8l11.8-4
						l7.8,7.8l11.8,4l15.6,15.6l15.6,11.8h7.8l19.6,15.6l19.6,15.6l11.8,11.8v11.4l7.8,16l11.8,11.8h15.6l7.8-7.8h4l4,11.8l15.6,7.8
						l7.8,4l11.8,7.8l11.8-4l4,11.8l23.6,11.8l23.4,23.4l15.6,11.8l4,19.6v19.2l4,28l11.8,39.2l15.6,43.2l19.6,39.2l15.6,15.6h11.2
						l0.6,23.6l7.8,15.6l-15.6,23.6l-15.6,19.6l-19.6-7.8h-19.6l-15.6-7.8h-19.6l-19.6,4l-7.8,7.8l4,19.6l11.8,19.6l23.6,15.6
						l11.8,7.8l4,11.8l-4,7.8l4,7.8l23.6,23.6l19.6,19.6l4,7.8l7.8,7.8h7.8l4,4l7.8,4l4,11.8l4,15.6l7.8,11.8l7.8,7.8l4,7.8
						l-7.8,7.8l-4,4l-7.8,4l-10,2l-9.6,2l-11.8,4h-8.6l-7,7.8l-7.8,11.8l7.8,13.2v29.6l-3.2,15.4l-12.6,16.4l-7.8,51l4,11.8
						l7.8,11.8l11.8,11.8l15.6,23.6l15.6,7.8l15.6-15.8l15.6-19.6l4-19.6l4-11.8l19.6-15.6l7.8-11.8l4-27.4l4-27.4l4-19.6l7.8-19.6
						l4-15.8v-23.4l4-8l27.4-4l47,4l39.2,7.8l27.4,7.8l23.8,3.8l15.6,11.8v55l-4,11.8l4,11.8v15.8l-11.8,23.6l-7.8,11.8l-7.8,7.8
						v11.8l4,11.8v78.4l4,15.6l4,10v5l7.6,16.4v43.2l7.8,7.8l11.8,7.8l7.8,4l7.8,11.8v11.8l4,11.8l4,7.8v11.8l4,7.8v11.8l-4,4
						l-7.8,4l-7.8,4l-4,15.6l4,4v11.8l11.8,7.8l4,4l11.8,4l4,11.8l11.8,15.6l4,19.6l7.8,7.8v7.8l-4,15.8l-7.8,15.8l-4,19.6l7.8,4
						l15.6,15.8l15.6,11.8v19.6l-7.8,7.8v15.8l-4,11.8v31.4l-4,11.8l-7.8,15.6l-11.8,11.8l-15.6,4L3140-207l-4,11.8l-7.8,19.6
						l-7.8,19.6l-11.8,27.4l-7.8,4l-19.6,7.8l-7.8,7.8l-4,11.8l-4,11V-58l4,7.8l7.8,11.8l15.6,4l7.8,4l7.8,11.4l4,20l4,15.8l-4,23.6
						l-4,22v19.8l4,23.6l4,28.6v38l7.8,15.6l7.8,15.6l4,15.6v35.4l-7.8,15.8l4,27.4l4,15.8l4,7.8l7.8,15.6l4,15.8l4,8.4v15.2l4,11.8
						l4,16.8v10.6l7.8,7.8h7.8l7.8-11.8l4-15.8l15.6-7.8l4-15.8l15.6-15.8l19.6-4l15.6-7.8h49l11.8-4h27.4l7.8,11.8l7.8,19.6l4,11.8
						l15.6,14.4v9.2l7.8,11.8h19.6l19.6-19.6l15.6-23.6l7.8-19.6v-23.2l-7.8-11.8l-7.8-23.6l4-15.6l4-27.4l7.8-31.4l7.8-27.4
						l7.8-19.6l11.8-27.4l7.8-27.4l11.8-39.2l7.6-35.4l8-7.8l11.8,4L3542,51l11.8-4l7.8-11.8l15.6-23.6l7.8-39.2l4-27.4l7.8-31.4
						l7.8-27.4l7.8-19.6l11.8-11.8l15.6-19.6l11.8-7.8l7.8-11.8l7.8-7.8l11.8-7.8l11.8-7.8l7.8-5.2v-6.6l4-11.8l7.8-4l11.8-4
						l35.4-7.8l19,30.2l19.6-7.8l7.8-7.8l7.8-4h11.8l4,4l7.8,15.6c5.4,3.6,10.8,7.6,15.6,11.8c4,4,19.6,7.8,19.6,7.8l28.2-22.4
						l19.6,7.8l15.6,4l11.8,4l11.8,7.8l7.8,11.8l11.8,7.8l7.8,11.8l11.8,12.8v14.6c0,0,4,7.8,4,11.8s11.8,7.8,11.8,7.8l15.6,4
						l11.8,7.8l7.8,7.8l11.8,11.8l15.6,7.8l7.8,7.8v15.6l4,11.8l11.8,7.8l11.8,4h7.8l4,7.8l7.2,15.6l8,7.8l7.8,4l15.8,7.8l11.2,8.4
						l9,1l3.2-1.8l6.4-6.4l3.2-12.8v-16l-9.6-16l-6.4-16l3.2-22.4l16-19.2l3.2-36l11.8-27.4l15.6-15.6v-6.4l-2-7.2l-3.2-9.6
						l-9.6-9.6l-3.2-9.6l-12.8-16l-12.8-12.8l-22.4-12.8l-25.6-12.8l-22.2-9.4l-23.6-4l-11.8-11.8l-4-7.8v-15.8l-12-25.2l-15.4-21.8
						l-19.6-15.6l-15.6-27.4l-7.8-24.8v-108.6l4-41.6v-25l11.8-19.6l11.8-19.6l15.6-7.8l11.8-7.8L4075-671l11.8-7.8h11.8l11.8,4
						l19.6-7.8l15.8-7.8l7.8-7.8l11.8-7.8l19.6-7.8l23.6-15.8l15.8-23.6l4-23.6v-27.4l-7.8-11.8l-11.8-11.8l-11.8-19.6l-31.4-19.6
						l-31.4-15.8l-27.6-11.8l-11.8-15.8l-4-31.4l4-31.4l3.6-12.4v-6.4h6.4l3.2,6.4v16l3.2,6.4l3.2,3.2h28.8l6.4-9.6l9.6-16l6.4-16
						l3.2-9.6l6.4-3.2v-3.2l-9.6-6.4l-6.4-6.4v-25.6l6.4-3.2h6.4l9.2-4.2l7.8-11.8l8.6-16v-16l-3.2-16l-2.2-7.6l3.2-3.2l16-6.4
						l16-6.4l15.8-8.2l15.8-19.6l35.4-31.4l15.6-15.6l23.6-15.6l19.6-23.6l35.2-43.2l35.4-39.2l31.4-35.4l23.6-23.6l27.4-19.6
						l19.6-11.8l31.4-11.8l43.2-7.8l24.4-4h156l11.8,15.6l11.8,7.8l11.8,11.8l11.8,7.8h4l4-7.8l15.8,11.8l11.8-4l4,4l27.4,23.6
						l23.6,15.6l14.4-0.4l13-3.4v8l-13,8.4l3.2,5l6-1.6l9.4-3.4h6.2l15.6,15.2l-4,7.8l-11.8,11.4v12.2l4,15.6l11.8,7.8l15.8,7.8
						l15.8,4v4l4,7.8l7.8,4l4,4l-7.8,7.8l-4,11.8v15.6l-7.6,7.8l3.8,4l11.8-4l15.6,11.8l7.8,11.8l11.8,19.6l7.8,4l19.6,7.8
						l23.6,11.8l15.8,7.8l4,11.8l7.8,15.6l11.8,11.8l9.8,7.8h13.6l-7.8,6.8v4.8l7.8,4v7.8l15.8,11.8l19.6,15.6l15.8,23.6l7.8,11.8
						l11.8,11.8v11.8l4,11.8l-4.6,6.2l-3.2,3.2l-6.4,6.4l-9.6,6.4l-6.4,3.2l-6.4,6.4l-3.2,9.6l3.2,3.2l3.2,6.4l6.4,6.4l3.2,3.2v6.4
						l3.2,3.2v6.4l3.2,3.2l6.4,3.2l11,4.2l-1.4,2.2l-9.6,6.4l-9.6,6.4v3.2l3.2,3.2h9.6l-3.2,9.6l3.2,6.4l-6.4,12.8l-6.4,9.6h-6.4
						l-3.2,3.2v6.4l3.2,6.4l3.2,9.6l3.2,9.6l3.2,9.6v12.8l-6.4,9.6l-12.8,6.4l-9.6,6.4l-3.2,7.6v11.8l3.2,9.6l6.4,3.2l6.4,12.8v6.4
						l-3.2,12.8l-6.4,5v4.8l6.4,3.2l9.6,12.8l3.2,9.6l6.4,9.6l6.4,12.8l6.4,3.2l9.6,6.4l3.2,6.4l3.2,3.2h12.8l6.4,3.2l3.2,6.4
						l6.4,9.6l6.4,3.2l16,6.4l9.6,3.2l9.6,9.6l6.4,12.8l9.6,3.2l6.4,6.4h3.2l3.2-3.2l9.6-6.4h6.4l9.6,3.2l9.6,3.2h19.2l6.4,3.2
						l3.2,6.4l3.2,6.4l12.8,9.6l6.4,3.2l6.4,3.2l6.4,6.4l6.4,3.2l9.6,6.4l12.8,3.2l9.6,3.2h9.6l6.4-3.2h22.4l12.8,3.2l16,9.6
						l9.6,3.2l9.6,6.4l9.6,9.6l6.4,12.8l6.4,9.6l6.4,6.4l9.6,6.4l12.8,6.4h3.2l6.4-3.2l6.4-12.2v-13.4l3.2-3.2h9.6l9.6-3.2l9.6-3.2
						h3.2l3.2,3.2l38.4,51.2l16,22.4l3.2,6.4l9.6,6.4l12.8,6.4l9.6,6.4l12.8,9.6l12.8,6.4l6.4,3.2h6.4l9.6-3.2h6.4l12.8,3.2h19.2
						l6.4-9.6v-19.2l-3.2-22.4l3.2-12.8v-6.4l-3.2-25.6v-32l3.2-9.6h3.2l9.6,16l19.2,22.4l16,16l6.4,9.6l12.8,6.4l6.4,9.6v9.6
						l9.6,6.4l12.8,3.2l12.8,3.2l12.8,6.4l12.8,3.2l6.4-3.2l9.6-6.4h6.4v3.2l-3.2,3.2l-12.8,16l-12.8,16l-19.2,12.8l-16,9.6
						l-28.8,19.2l-12.8,12.8l-3.2,19.2L5905-244l-12.8,3.2h-16l-16,3.2l-6.4,3.2l-9.6,12.8l-9.6,12.8l-6.4,9.6l3.2,9.6l-3.2,19.2
						l-3.2,12.8l-3.2,12.8l-6.4,9.6l-6.4,6.4l3.2,3.2l3.2,6.4l3.2,6.4l-6.4,3.2h-12.8l-19.2,3.2L5766-100l-8.2,6.4l-9.6,15.8v48.2
						l16,22.4l6.4,15.4l3.2,20l-3.2,13V58l3.2,11.8l3.4,6.8l2.8,8.8v14l0.6,10.8l6.2,17.8l6,9l6.4,6.4l3,9.8l9.2,17.2l13,23.8
						l12.4,25.6l9.6,19.2l10,16l12.8,9.6l23.8,16l24.2,9.6l22.6,6.4l17.2,2.2l11.4,0.6l12.8,0.4h12.8l9.6-3.2h9.6l6.4,3.2h51.2
						l12.8-6.4h12.8l9.6-6.4l9.6-3.2l9.6-6.4l6.4-3.2h12.8l9.6-6.4h6.4l9.6,3.2h19.2l16-6.4h6.4l19.2,3.2h12.8l3.2,3.2l-3.2,3.2
						l-6.4,9.6l-6.4,9.6v6.4l-6.4,3.2l-9.6,6.4l-3.2,6.4l3.2,19.2l6.4,16l6.4,16l6.4,9.6l3.2,28.8l-6.4,3.2h-16L6202,415h-9.6
						l-6.4-3.2l-16-6.4h-9.6l-12.8,3.2l-16,6.4l-3.2,6.4v6.4l3.2,12.8l3.2,22.4l-3.2,6.4h-6.4l-9.6-6.4l-6.4-3.2l-6.4-6.4l-9.6-3.2
						l-9.6-6.4l-9.6-3.2h-9.6l-6.4,3.2l-3.2,9.6l-3.2,12.8l3.2,9.6l9.6,12.8l22.4,19.2l25.6,19.2l9.6,3.2l12.8,3.2l6.4,3.2l9.6,16
						l-3.2,1.6v4.8l3.2,3.2l25.6,22.4l22.4,16h12.8l12.8-6.4l12.8-3.2l12.8-9.6l10.2-1.8l15.4,2.4l2.6,10.8l7.2-2.2l10.4-3.6
						l12.2-5.4l5-1l4.6,0.4l2,8l-3.6,10.6l-9,9.4l-8.8,4l-5.2,7.8l-0.6,9.4l2,6.6l-3.2,7.2l-2.6,5l-6.2,4.6h-3.8l-3.6,7.6l2,2.2
						l-5,13.8l-5,8.4l-3.8,4.6l-4.2,12.2l-4.2,1.4l-5.2,5.6l-4.2,11.6l2,6.6l-6.6,5.6l-5.6,12.2l-9.4,10.4l1.4,9.2l-3.2,10.8l-3.6,6
						l2.8,2.4l11,3.2l8.8,6.4l14,2.6l10.2,7l5.4,7.2h6l15.8,12.4l15.2,14.6l8.8,9.2l10,4.2h10.6l8,2.6l4.6,8.6v6l10.4,4.8h22l3,4.6
						l7.8,2.2h17.8l9,5.2l11.6,3.2h10.8l10,6.4l11.2,4.8h4.6l3-3.4l4-1.6l2.6,2.2l5,1.6l1.8,3.4l-1.4,2.2l3.8,2.6l2.2-3.4l2.6-1.8
						l6.8-0.8l9,1l5.4,1.6l5-2.4l5.8-4.2l6.2-11.2l5.4-11.2l6.6-11.2L6554,849l8.8-9.2l12-14.6l10.8-10.4l11.4-12.2l3-12.4
						l-4.6-12.8l-1.4-12.8l3-9.2l-0.2-7.4l2.2-8.2l3.4-4l4-0.6l7.4,4l8,3l5.6,0.8l5.6-4l6-5.8l8.2-4.6l7.2-6.4l3.8-5l1.6-6.4
						l2.4-7.4l6-3.8l5-1.4l5,1.8h4l3.4-2.2l1.4-11.4l6.8-8l7-12.4l4-7.8V651l7.2-7.2l10.2-2.4l11-6.8l4.4-7.8l2.8-4.8l4.4,0.4
						l3.4-5.2l-2.4-8.6V598l-1.4-7.8l8.2-10l11.6-10.6l9.2-2.4l9.2,3.8l7.2,1l9.6-5.8l15-10.6l6.2-5.8l7.8-11.6l10-13l11.6-10
						l5.2-5.8c0,0-3.8-8.6-2.4-8.6s-3.4-11-3.4-11l3.8-9.6l4.4-5.8h4.4l5.2,4.4l5.2,1l8.2-3.8l9.6-7.6l9.2-14l2.8-17.8l-2.4-13.4
						l-4.4-10.6l2-5.8l11-4.4l11,2l5.2,3.8l6.8,2l8.6-6.8l6.8-8.2l8.6-11l8.2-13l7.2-10.6V352l4.8-6.8l11.6-5.2l10.6-5.2l9.2,2
						l4.6,9.4l3.8,7.8l6.2-0.4l8.6-6.8l6.8-12V320l3.4-16.4l6.2-14.4v-11l-3.8-4.4l-7.2,0.4l-3.4-5.2l5.2-6.8l-1-10.2l-2-11.6
						l-2.4-7.6l3.4-13.4l2.4-13l-0.4-10.6l7-3.8l10.4-4.4l9-8l8.4-10l9.6-5.6l2.2-11.4l0.2-12l-0.2-14.2l-1.6-14.2l-6.2-4.8
						l-10.4-5.8l-8.4-5l-9-2l-7.2-1.2l-12-4.4l-18-7l-12.8-5.6l-7-11.2L6986,51l-6.4-17l-7.8-19.2l-8-17.2l3.8-3l3-5.2l1.2-7.4
						l-1.6-9.2l-6.6-4l-8,0.2l-7.2,0.2l-6.4,2h-6.4l-6.6-3l-5.2-1.4l-9.4,2l-5.8,5l-6.4,6.4l-7.2,5.6l-11.6,2h-24l-2.2-5.6v-12.8
						l2.8-12.8l5.2-10.2l9.4-10.8l10.8-6.6l13.6-10l5.8-8.6l2.4-10l3.4-6.6l3.4-9.6l3-6.6l5.2-2l8-6.6l9.2-7.4l3.8,4.2h7.8l4.2-3.4
						l9.4-7.2c0,0,17.4-11.4,16.8-12.2s21.6-16.4,21.6-16.4l24.8-21l4-7.2v-9.6l2.4-4l-1.8-5.6l0.8-4.8l4.6-8l6.6-6.2l7.6-3.6
						l5.2-1.8l1.6-4.2l3.6-5.2l4.4-3.6l0.8-5.4l-0.4-9.4l-0.4-11.2l1.6-5l5.4-4.2l1.2-4.6l-2.4-5.4l0.6-4.8l4.6-6.6l0.8-6.8l2.4-7.8
						l0.8-7.2l3.2-4.2l7-4l8.6-6l1.4-6.2l5.4-7.8l-0.6-7.8l0.4-7.8l4-7.4l9-12.2l10.4-8.4l4.2-8.8l5.2-8.8l0.8-9.8l5.4-7.2l3.2-8.2
						l6-8l4-5.4l-3.2-5.2l-1.4-6.6l2.6-8.4l5.2-9.8l4.8-2.6l8.2,0.4l7.6,2l5.6,2.6l2.4-2.4l-3-3l-5-3.8l0.8-4l6.2-7.6v-9l-1.6-8.6
						l1.4-5.6l1.4-8.2l-3.8-7l-8.6-3.8h-7.2l-7.6-1.4l-5-4.6l-5.6-8.4l-5.4-11.8l-1.8-8.8l0.2-8.2l-0.6-8.4l-3-5.8l-5.2-8.6
						l-10.2-5.6l-7.8-8l-7.4-3.2v-6.4l6.4-16v-9.4l-6.4-9.6l-3.2-6.4V-705l3.2-6.4v-6.4l-6.4-6.4l-3.2-9.6l-3.2-32l-3.2-22.4v-6.4
						l-3.2-9.6l-3.2-6.4l-3.2-3.2l-6.4-6.4h-6.4l-3.2-3.2l-3.2-3.2v-6.4l-3.2-3.2l-6.4-3.2l-12.8-3.2l-6.4-3.2l-16-6.4h-6.4l-16-6.4
						h-16L6962-865l-16-6.4l-9.6-12.8L6930-897l-3.2-6.4l-3.2-6.4l-6.4-3.2h-9.6l-5.2,4.2l-7.6,2.2l-4.8-5.6l-0.8-9.6l4.8-13.2
						l10.2-13.6l7.4-13.2l-1.4-15.4l-6.2-12l-5.8-7.6l-6.2-5.2h-9.2l-7.6,4l-7,3.2l-7.4,0.4v-12l4.8-9l9.6-8.4l4.4-9.4v-7.4l5.2-4
						l7.4-0.8l4.8-6.2l11-3.6l6.2-3l3.6-7l5.6-7l6.6-1.4l11.4,3l10.2,7l9.6,5.8l6.6,1l8.4-2.6l6.6,1l6.6-2.6l9.8-7.4l21.2-9.6
						l12.8-6.6l11.8-3.2l5.2-2.8l4-4.8l6.8,1.4l7.4-0.8l15-2.6l19.8-1.8l12,3.6l14.2,4.8h34.4l16.4,4l11.8,8.4l5.2,9.8l4,9.6l8.8,4
						l17.2,4l14.6,2.6l7.4-2.6l7.6,2.6l3.2,8l8,12.4l5.4,15l6.2,21.6l3.2,14l3.2,18.2l3.2,19l5,16l6.4,9.6l8.4,22l9.8,21l9.4,15.8
						l8.2,9l9.6,9.6l3.2,6.4l3.2,4.6v5l6.4,6.4v6.4l-1.6,4.4v6.8l6.4,12.8v51.2l-3.2,6v6.8l1.4,3.6l4.6-0.2l5.8-4l5.2-3l6.2-2
						l5.8,1.2l6.4,6.6"/>
				</g>
			</g>
		</g>
	</g>
</g>
</svg>
