<?xml version="1.0" encoding="utf-8"?>
<!-- Generator: Adobe Illustrator 23.0.3, SVG Export Plug-In . SVG Version: 6.00 Build 0)  -->
<svg width="3840" height="1080" version="1.1" id="Layer_3" xmlns="http://www.w3.org/2000/svg" xmlns:xlink="http://www.w3.org/1999/xlink" x="0px" y="0px"
	 viewBox="0 0 3838.9 1079.7" style="enable-background:new 0 0 3838.9 1079.7;" xml:space="preserve">
<style type="text/css">
	.st0{fill:#70CCB8;}
</style>
<g>
	<path class="st0" d="M803.3,426.4l8,6l6,2h22.1l10-2l6-2l8-4l8-4l6-4l6-4l6-2l8-2h12.1l5.8,0.6l6.4,1.6h6.4l6.4-1.6l2.5-2.1l8-4
		l2-6l2-6l2-2l4-0.4h15.3l6,0.4l3.9,1.1l2.1,4.9v4l4,4l6,2h24.1l6,2h4l8,2l2.9-1.5l3.2-1.6h3.2l6.4,1.6l1.6,1.6l4.8,4.8l3.2,3.2
		l4.8,3.2l6.4,1.6h4.8l6.4-3.2l6.4-4.8l6.4-3.2l6,0.8l6,6l6,4l6,6h12.1l2-4l4-2h4l2,4l6,4l6,4l2,4v6l6,2l6,2h4l4-2l4-2h2l4-2l2-4h6
		l6,2h12.1l8,4l4,2h10.1l6,2l4,2l2,2l2,2l4,4l6,4l2,6v8l2,4l6,6l2,4l4,4l4,4l2,4l2,2l4,4l4,6l2,6l4,4l4,6l6,6l4,4l2,4l2,4l2,4l6,4
		l4,8l4,4h6l6,2h6l4,2l4-2h14.1l4-2l10.1-2l10,2l10,2l12.1,4l10,4l10.1,4l6,4l8,6l8,6l8,6l2,4v8.1l2,2h1.8l2.2-2l2-2l6-2h14.1l4-2
		l4-2l4-4l6-4h2l2,2l2,2l4,4l2,2l4,4v2.6l-6,5.5l-4,4l-4,6l2,4h7.8l8.3,2l6,4l4,2l4,2l6,4l4,2l4,4l2,2l8,6l6,4l6,4l6,4l4,4l4,2h10
		l6-2h4l6,2l6,4h27.3l4.9,4l8-2l4-2l6-2l4-2l6-2l8-6l6-2l8-2h6l6-4l4-2l4-2l14.1,4l16.6-9l6-8v-8h12.1l20.1-6l10-8l8-2l12.1,18.1
		l-2,12.1l4,18.1l4,4h12.1l3.4-1.5l3.7-70.4l-12.7-39.8l-14.3,4.8l-53.5,19l-1.8-10l-3.3,0.7l1.9,10.4l-19.7,7l-43.1,4.4v-4.6h-5.6
		v5.2l-61.1,6.2l-60.5-4.8l-1.6,1.6l-4.8,12.7l-8-4.8l2.8-8l-1.2-4.8l-27.1-22.3h-3.2l-9.6-8l8-9.5l0.8-2.7l-0.8-2.1l-31.9-25.4
		l-3.1-0.4l-2.2,1.1l-1.1,2.2l1.1,2.2l30.8,25l-25.5,31.8l-27.1-22.3h1.7l3.2-3.2l4.8-20.7h1.6l1.6-1.6V543l-1.6-3.2l-47.8-12.7
		l-3.2,3.2l-0.8,4l-7.5-2.3l-1.1,5.6l3.4,1.1l-4.3,14l-8-2l1.5-5l-3.2-1l-1.6,5.2l-32-8.2l2.7-11.9l-3.3-0.8l-2.7,11.8l-17.9-4.6
		l3.8-16.6l-3.3-0.7l-3.9,16.5l-1.5-0.4l-14.7-5.7l0.5-2.4l-0.3-0.2l8.6-10.7l-2.6-2.1l-8.7,10.8l-1.5-1.1l-2.7,2.5l-1.3-1.8
		l4.9-4.1l-2.2-2.6l-4.7,3.9l-3.7-5.2l16.5-12.3l-2-2.7l-16.5,12.3l-11.7-16.3l4.5-3.4l-2-2.7l-4.5,3.3l-6.9-9.7l1-2.6l1.1-2.2
		l2-2.2l2.5-1.1l2.2,1.1l4.5-3.4v-1.1l-1.1-2.2V469l6.7-4.5l1.1-1.8v-1.5l-2.2-1.1l-2.2,1.1l-7.8,5.6h-1.1l-1.1-1.1v-1.1l8.3-5.7
		l0.7-2.1l-1-1.7h-2.1l-13.2,8.9h-13.4l-4.1-5.2l3.7-5.7l-2.8-1.8l-3.4,5.2l-6.1-4l10.8-16.3l-2.8-1.9l-10.8,16.3l-5.7-3.7l3.8-6.3
		l-2.9-1.7l-3.7,6.2l-9.6-6.3l5-8.2l-2.9-1.7l-4.9,8.1l-11.1-7.3l2.2-3.6l-2.9-1.7l-2.1,3.5l-1.4-0.9l-6.4-3.2l-5.7-1.4l5.9-21.9
		l-3.2-0.9l-5.9,22l-18.4-4.5l2.6-12.3l-3.3-0.7l-2.6,12.2l1.4,0.3l-1.4-0.3l0,0l-12.5-3l2.8-13l-3.3-0.7l-2.8,12.9l-8.5-2.1
		l1.8,0.4l2.7-12.7l-3.3-0.7L1180,410l-35-8.5l1.9-9l-3.3-0.7l-1.9,8.9l0.4,0.1l-0.4-0.1l0,0l-9.9-2.4l3.4-11.1l-3.2-1l-3.5,11.3
		l-14.7-3.6l3.2-19.5l-3.3-0.5l-3.2,19.5c-0.4-0.1-5.3-0.5-5.3-0.5l0.7-13.2l-3.3-0.2l-0.7,13l-5.7-0.5l0.8-15.7l-3.3-0.2l-0.8,15.5
		l-27.7-2.6v-10.6h-3.4v10.3l-0.5,0l-36.3-0.8v-6.1h-3.4v6l-22.7-0.5v-6.5h-3.3v6.4l-3.1-0.1h-23.7v-1.8l7.7,0.3l0.1-4.5l-21.2-0.7
		l-0.1,4.5l7.9,0.3v2H942l-8,1.6l-11.1,3.4l-4-18.3l-3.3,0.7l4.1,18.6l-105.2,32.3l-10.5,1.1"/>
	<path class="st0" d="M1973.2,502.7l3-5.7l2.5-2.4l2.4-1.5l72.8-17.5c2.1-0.5,3.4-2.6,2.9-4.7s-2.6-3.4-4.7-2.9l-74,17.8l-4.1,2.6
		l-4,3.8l-3.6,6.9c-1,1.9-0.3,4.3,1.6,5.3C1969.8,505.3,1972.2,504.6,1973.2,502.7z"/>
	<polygon class="st0" points="2100.8,582.5 2096.8,572.5 2096.8,558 2094.8,545.9 2093.5,538.2 2002.2,603.6 1992.7,610.3 
		1992.6,610.3 1992.6,601.9 1965.5,520.8 1939.9,531.5 1937.9,527.5 1934.9,529 1936.8,532.8 1927.3,536.8 1918.8,540 1912.8,542 
		1908.8,544 1848.5,565.6 1860.5,605.2 1858.5,674.9 1866.3,666.7 1872.3,658.7 1878.3,656.7 1892.4,650.7 1902.4,640.6 
		1896.4,624.6 1896.4,616.6 1898.4,610.6 1898.4,606.6 1896.4,600.6 1896.4,596.6 1898.4,586.5 1900.4,580.5 1904.4,574.5 
		1906.4,568.5 1908.4,562.5 1908.4,558.5 1904.4,554.5 1902.4,552.5 1902.4,550.5 1904.4,548.5 1906.4,546.5 1908.4,544.5 
		1912.4,542.5 1918.4,540.5 1924.4,542.5 1930.4,548.5 1932.4,558.5 1932.4,562.5 1930.4,568.5 1926.4,572.5 1924.4,576.5 
		1924.4,580.5 1930.4,582.5 1936.4,586.5 1944.4,594.5 1952.4,600.5 1962.4,604.5 1974.4,608.5 1986.5,610.5 2002.5,610.5 
		2008.5,618.5 2016.5,624.5 2022.5,626.5 2032.5,624.5 2042.6,620.5 2052.6,618.5 2066.7,614.5 2096.8,614.5 2104.8,608.5 
		2106.8,600.5 2104.8,590.5 	"/>
	<polygon class="st0" points="2385.9,288.3 2339.7,277.2 2336.5,277.2 2250.5,297.9 2241,299.5 2236.5,275.9 2190,285.2 
		2131.1,313.8 2124.8,323.4 2071.8,388.9 2058.6,377.7 2045.9,367.3 2042.6,371.7 2054.9,381.4 2068.6,393.2 2058.3,404.8 
		2035.6,430 2037.2,433.2 2064.3,457.1 2072.3,468.2 2078.6,481 2080.2,490.5 2081.8,501.7 2083.4,522.4 2085,535.1 2088.3,537.6 
		2093.4,537.6 2092.8,533.9 2092.8,517.8 2090.8,501.7 2090.8,485.7 2088.8,469.6 2086.8,451.5 2084.8,441.4 2084.8,429.4 
		2086.8,421.4 2092.8,415.4 2106.9,397.3 2118.9,383.2 2143.9,355 2154,343 2162,337 2170,333 2178,333 2188.1,335 2196.1,337 
		2206.1,339 2214.1,341 2236.2,341 2244.2,339 2254.2,337 2268.3,333 2282.4,329 2296.4,327 2312.5,325 2330.6,325 2336.3,323.5 
		2345.9,318.7 2357,313.9 2370,309 2379.6,305.8 2387.6,301.2 	"/>
	<polygon class="st0" points="1159.4,404.9 1162.6,390.1 1159.3,389.4 1156.1,404.1 	"/>
	<path class="st0" d="M760.5,428.4l-15.9,31.8l-1.6,3.2l-28.2,25.2l-5.2-5.2l-2.4,2.4l5.1,5.1l-6.3,5.7l-5.3-5.3l-2.4,2.4l5.2,5.2
		l1.1-0.9l-1,0.9l0,0l-5,4.5l-8-6.4l-3.2-1.6h-4.8l-12.1,3v-4.8h-4.5v5.9l-2.6,0.6l-8.6,1.7V498h-4.5v4.6l0.9-0.2l-26.3,5.1
		l-20.5,3.7l-17.5,3.2L485,552.6l2.7,9.8l25.9-7.5h13.7l4.8-3.2l3.2-3.2l1.6-1.6l1.6,1.6l3.2,1.6h4.8l8-1.6l3.2-1.6l1.6-3.2l3.2-4.8
		l1.6-3.2l4.8-3.2l4.8-3.2l4.8-1.6l3.2,1.6l2.5,0.8h4.6l4.8-1.6l6.1-3.2h8.2l7.2,7.2l6.5,8.2l4,2l6,4l6,2l8,2h8l8-2l8-2l6-2l6-2
		l10-6l6-6l4-6l4-8l2-6l2-6l4-4l4-4l6-4l8-4l6-6l4-4l4-2l6-4l2-10l2-6l4-6l4-6v-10.5v-0.8c-0.8-1.3-2-3.2-2-3.2l1.6-4.7L760.5,428.4
		z"/>
	<polygon class="st0" points="1170.1,407.5 1172.6,395.7 1169.3,395 1166.8,406.7 	"/>
	<polygon class="st0" points="2859.6,582.1 2854.2,580.3 2855.2,576.1 2828.2,569.1 2823.2,567.1 2827.2,561.1 2806.2,549.4 
		2790.3,531.9 2791.9,530.3 2755.3,477.8 2753.7,473 2748.9,404.5 2747.3,401.4 2745.7,399.8 2673.1,399.8 2672.9,397.4 
		2657.3,397.4 2656.9,399.8 2595.8,399.8 2595.8,393 2581.8,393.4 2581.8,402.8 2572.4,402.9 2572.4,398.5 2569,398.5 2569,402.9 
		2567.4,402.9 2564.2,398.2 2570.6,379.1 2567.4,377.5 2559.4,398.2 2556.2,399.8 2541.9,395 2541.8,395 2542.5,392.7 2546.6,395 
		2548.8,391 2534.2,383.2 2532.1,387.1 2538.4,390.5 2537.6,393.6 2537.1,393.4 2529.4,391.9 2530.9,386.6 2528.8,386 2527.2,391.4 
		2521.2,390.2 2510.4,389.5 2521.2,379.1 2506.9,336.1 2490.2,341 2496.6,357.5 2504.6,389.4 2507.8,398.9 2511,406.9 2517.3,422.9 
		2527,442.8 2534.8,454.7 2543.9,465.1 2547.6,465.8 2552.4,465.8 2558.7,461.1 2563.5,456.3 2565.1,448.3 2566.7,443.5 
		2569.9,440.3 2574.7,438.7 2579.4,438.7 2584.2,441.9 2586.5,446.7 2589,451.5 2592.2,456.3 2598.5,465.8 2603.3,475.4 
		2604.9,476.9 2606.8,476.9 2608.1,475.4 2612.9,470.6 2619.2,461 2624,456.3 2628.8,453.1 2636.8,448.3 2641.3,446.7 2646.3,446.7 
		2652.7,448.3 2659,451.5 2667,456.3 2675,461 2691,467.4 2709.4,470.6 2718,470.6 2724.4,472.2 2729.2,475.4 2738.7,484.9 
		2749.9,496 2754.6,504 2757.8,507.2 2762.6,515.2 2765.8,518.4 2772.2,526.4 2780.2,537.6 2786.5,548.7 2794.5,556.7 2799.3,559.9 
		2807.3,563.1 2821.6,571.1 2831.2,574.3 2845.5,577.5 2859.7,582.2 	"/>
	<path class="st0" d="M2972.7,553.1h-4.6v17l-4,8l-4,5l-1,6h-3l-4,8l3,2l-4,7l-1,7l3.4,18.2l-26.7-5.6l-4.5,12.9l-6.4-1.6l-4.7-4.8
		l-3.2-4.8l-1.6-4.8l-8-6.4l-2.4-2.2l-3,2l-1-3l6-3l-2-3l-5,3l-2-4l-5-2h-2.5l-1.5-3l3-2l-2-4l-4,2l-1-4l3-2l-2-3l-3,1l-4-8
		l-7.4,4.1l0.2,0.2l4.8,9.5l11.1,22.3l11.1,22.3l4.8,3.2l9.6,4.8l14.3,6.4l8,3.2l4.8,4.8l11.1,4.8h11.1l8-8
		c1.6-1.6,6.4-11.2,6.4-11.2l3.2-8l-1.6-4.8l-6.4-6.4l-4.8-20.7l4.4-9.6l11.1-28.7V563"/>
</g>
</svg>
