<?xml version="1.0" encoding="utf-8"?>
<!-- Generator: Adobe Illustrator 23.0.3, SVG Export Plug-In . SVG Version: 6.00 Build 0)  -->
<svg width="3840" height="1080" version="1.1" id="圖層_1" xmlns="http://www.w3.org/2000/svg" xmlns:xlink="http://www.w3.org/1999/xlink" x="0px" y="0px"
	 viewBox="0 0 3840 1080" style="enable-background:new 0 0 3840 1080;" xml:space="preserve">
<style type="text/css">
	.st0{fill:none;stroke:#FF8300;stroke-width:6;stroke-miterlimit:10;stroke-dasharray:10,10;}
</style>
<g>
	<path class="st0" d="M3032.6,502.4c0.9-3.9-0.8-5.7-4.7-5c-2.6,0.5-5.2,1-7.7,1.9c-1.3,0.5-2.3,1.9-3.4,2.9
		c-1.4,1.1-3.4,1.8-5.3,1.7c-7-0.3-14.1,3.3-21.2-0.4c-1.6-0.9-4.5-0.6-6.2,0.3c-14,7.5-29.4,7.7-44.5,8.3
		c-20.3,0.8-40.6,0.3-61,0.1c-2.5,0-5.4-1.3-7.3-3c-9.1-8.3-17.9-17-27.1-25.8c5-4.9,10-9.7,15-14.6c2.4-2.3,4.9-4.3,3.1-8.4
		c-0.5-1.2,1-3.7,2.2-5c2.5-2.8,5.5-5.1,8.6-7.9c-2.6-2.2-4.4-3.8-6.2-5.4c-1.7,1.6-3.1,2.8-4.3,4.1c-8.1,8.5-7.9,7.7-16,0
		c-3.5-3.4-3.5-6.3,0-9.6c2.6-2.5,5.3-4.9,8-7.4c-2.3-2.4-4-4.2-6.3-6.7c-3.1,3.4-5.9,6.5-8.7,9.6c-2.6,2.9-5.4,2.9-8.2,0.3
		c-2.8-2.5-5.6-5-8.3-7.4c-0.2,0.2-0.3,0.4-0.5,0.6c-0.1-1-0.8-2-1.9-3.1c-12.1-11.9-24-24-36.1-36c-1.5-1.5-3.4-2.7-5.3-3.6
		c-16.8-7.9-33.3-16.6-50.5-23.2c-12.5-4.8-26-6.9-39.5-10.3c0,0.8,0,1.6,0,2.4c-0.6-1.1-2-2.3-3.1-2.5c-10.2-1.9-20.6-3.3-30.8-5.4
		c-11.4-2.4-23.2-3.1-34-8.4c-29.7-14.6-59.5-29.1-89.6-42.9c-9.9-4.5-20.4-7.6-29-14.6c-9.1-7.4-19.5-12.3-30.5-16.4
		c-16.4-6.2-32.6-12.9-48.9-19.4c-3.7-1.5-7.3-3.3-11.1-4c-13.3-2.5-26.7-5-40.1-6.8c-12-1.7-24.2-1.6-35.9,2
		c-13.1,4-26.1,8.5-39.1,12.8c-21.3,7-42.7,13.9-64,21c-1,0.3-2.4,1.3-3.2,2.1c-0.1-0.4-0.2-0.9-0.3-1.3
		c-11.1,2.3-21.7,4.2-32.3,6.7c-7.5,1.7-15.2,3.4-22.2,6.4c-12.6,5.4-24.7,12.1-37.2,17.8c-9.2,4.2-16.2,9.9-22.8,18.1l-0.1,0.1
		c-2.8-2.5-5.2-4.7-7.7-6.7c-3.6-2.7-6.9-2.8-10.6,0.6c-25.1,22.9-49.4,46.6-70.9,72.9c-4.7,5.7-9.8,11.1-14.8,16.6
		c-6.1-4.2-11.6-8.1-17.4-11.8c-0.9-0.6-2.5,0.1-3.8,0.2c0.3,1.2,0.2,3.1,1,3.6c9.4,6.5,18.9,12.8,28.6,19.4
		c-0.5,1.8-0.6,3.8-0.3,5.9c0.3,2.1,1.3,4.2,1.2,6.3c-0.5,12.6,7,18.8,17.6,22.5c3.4,1.2,4.2,3.4,4.2,6.8c-0.1,4.3-2.9,6.1-5.9,7.9
		c-10.9,6.4-22.6,11-35,13.8c-16.5,3.7-33.1,6.9-49.5,11.1c-9.1,2.3-16.5,8.2-22.6,15.5c-2.5,3-5,6.2-8.1,8.6
		c-6.6,5.1-13.4,9.9-20.3,14.5c-2.3,1.5-5.3,1.9-8.5,3.1c0-6.5-0.7-11.9,0.1-17c2.1-12.1,4.9-24,7.7-36c0.8-3.5,1.3-7.3-1.6-9
		c-2.3-1.4-6.2-0.8-9.2-0.1c-3.9,0.9-6.7,1-8.2-3.6c-0.9-3-2.3-5.9-3.7-8.7c-1-2.1-1.5-5.6-4.9-3.9c-0.9,0.4-0.9,4-0.3,5.9
		c1,3.4,2.7,6.7,4.2,10.4c-1.9,0.5-3.3,1-4.7,1.2c-4.5,0.7-8.9,1.3-10.8,6.4c-0.3,0.7-2.1,1.3-3.2,1.3c-2.4-0.1-5.7-2.5-6.6,1.4
		c-0.9,4,3.2,3.2,5.4,4.1c0.3,0.1,0.5,0.4,1,0.8c0,8.9,0.1,18.1-0.1,27.3c0,1.3-1.6,3.2-2.9,3.8c-9.3,4.4-18.7,8.6-28.7,13.2
		c-1.5-5.6-3-10.5-3.9-15.5c-0.3-1.5,0.6-3.9,1.8-5c5.5-5.3,11.6-10.1,16.9-15.6c1.7-1.7,1.7-5,2.5-7.6c-2.6,0-5.2-0.1-7.8,0
		c-0.7,0-1.3,1-1.9,1.5c-5.1,4.3-10.2,8.5-15.2,13c-1.9,1.7-3.8,3.4-5.7,5.1c-1.2,0.1-1.8,0.1-2.4,0.2c-22.2,3.1-44.4,6.2-66.5,9.6
		c-4,0.6-5.1-0.6-5.4-4c-0.4-4.1-0.9-8.2-1.4-12.2c-2.4,0-4.3,0-6.9,0c0.5,4.9,1.2,9.5,1.4,14c0,1.2-1.4,3.4-2.4,3.6
		c-8.9,1.2-17.8,2.3-26.7,3c-5.1,0.4-9.2-3.2-9.3-8.3c-0.1-4.4-2.7-8.7,1.2-13.6c2.9-3.8,2.6-10.1,3.7-15.4c0.1-0.6,0.1-1.4-0.1-2
		c-1.3-4.8-2.3-9.7-4-14.3c-0.5-1.3-2.8-2-4.3-3c-0.9,1.6-2.4,3.1-2.5,4.7c-0.1,2.2,0.8,4.4,1.6,8.1c-7.2-1.2-13.6-1.8-19.7-3.5
		c-11.1-3.3-20.6-1-28.8,7c-1,1-2.1,2.5-2,3.7c0.7,7.4-1.8,13.3-7.2,18.4c-2.1,2-3.6,4.8-4.8,7.4c-4.5,10.1-11.7,17.2-23.1,18
		c-5.8,0.4-11.8-0.7-17.6-1.6c-9.1-1.5-18.1-4.3-27.3-5.1c-6.4-0.5-11.7-2.7-17.3-5.4c-3.9-1.9-8.3-3-12.6-3.9
		c-13.3-2.5-27.4-1.8-40-7.2c-18.6-8.1-38.8-12.5-55.7-24.9c-5.5-4-7.2-8.8-8.8-14.9c4.2-1.4,8.2-2.6,12-4.2c1.2-0.5,2-2.2,3-3.4
		c-1.5-0.4-3.1-1.5-4.4-1.2c-3.2,0.7-6.2,2.2-9.4,3c-1.1,0.3-3.3-0.1-3.6-0.8c-1.5-3.4-2.5-7.1-3.7-10.8c4.3-1.6,8.3-2.8,12-4.4
		c1.2-0.5,2-2,3-3c-1.6-0.4-3.3-1.5-4.7-1.1c-4,1-7.8,2.5-11.5,3.8c-7.3-8.4,0.3-15.2,2.1-23c-2-0.7-3.9-1.5-6.2-2.3
		c-1,2.3-1.9,4.3-2.7,6.2c-0.9,2-1.9,3.9-2.5,5.9c-1.1,3.2-2.8,3.4-5.7,2.2c-9.2-4.1-9.3-4-5.5-13.3c0.3-0.8,0.6-1.5,0.9-2.3
		c2.2-5.3,2.1-5.4-4.4-7.3c-1,2.2-2,4.4-3,6.6c-4.2,10.3-4.2,10.2-14.4,5.4c-2.4-1.2-3.1-2.5-2-5c1.7-4.2,3.1-8.5,4.8-13.1
		c-2.5-0.8-4.3-1.4-6.3-2c-1.1,2.8-2.2,5.2-3.1,7.7c-3.6,9.3-3.5,9.2-13,5.6c-2.9-1.1-4-2.4-2.8-5.6c1.5-4.1,2.5-8.4,3.9-13
		c-2.4-0.6-4.2-1.1-6.3-1.7c-1.9,5.6-3.6,10.9-5.4,16.3c-3.8-1.1-7.1-2.3-10.5-3.1c-3.1-0.7-3.6-2-2.6-5c1.4-4,2.1-8.2,3.2-12.6
		c-2.2-0.7-4.1-1.2-6.5-2c-1.2,4.7-2.1,9-3.4,13.2c-0.4,1.3-2.1,3.2-2.9,3.1c-4.1-0.7-8.1-2-12.3-3.1c1.6-5.9,2.9-10.9,4.4-16.4
		c-2.1-0.7-4.1-1.4-6.7-2.2c-1.7,5.8-3.4,11.4-5,17c-3.5-0.8-6.4-1.5-9.3-2.1c-3.2-0.7-5-1.9-3.5-5.8s2.2-8.1,3.3-12.5
		c-2.3-0.6-4.2-1-6.4-1.6c-1.2,4.5-2.4,8.8-3.5,13.1c-0.8,3.5-3.2,3.7-5.7,2.4c-3.1-1.6-5.9-3.7-8.9-5.7c1.1-4.3,2.4-8.9,3.6-13.5
		c-0.3-0.4-0.6-0.7-0.9-1.1c-1.5,0.9-3.2,1.4-4.4,2.6c-4.2,4.1-8.1,8.4-12.2,12.6c-7.5,7.7-15,15.5-22.4,23.2
		c-0.9-0.8-1.6-1.8-2.3-2.7c-4.4-6.2-9.3-11.2-17.8-10.1c-2.1,0.3-4.4,0-6.4-0.5c-5.1-1.3-10.2-2.6-15.3-4c1-0.7,1.9-3.1,4.5-9.5
		c3.3,0.5,6.7,1.5,10,1.5c1.8,0,4.7-1.4,5.1-2.8c0.5-1.4-1-4.4-2.4-5.3c-3-1.9-6.6-2.8-10.2-4.2c1-3.5,1.9-6.9,3-10.6
		c3.5,0.9,6.5,2.2,9.5,2.3c2,0,4.1-1.7,6.1-2.7c-1.3-1.3-2.4-3.4-3.9-3.8c-13.8-3.9-27.7-7.6-41.6-11.2c-1.3-0.3-2.9,0.7-4.3,1.1
		c0.8,1.9,1.3,4,2.5,5.7c0.6,0.8,2.4,0.8,3.7,1.1c7.9,2.1,15.8,4.2,24.1,6.4c-1.1,3.8-2,7.1-3,10.8c-1.5-0.3-2.7-0.5-4-0.8
		c-7.6-1.8-15.2-3.6-22.9-5.3c-2.8-0.6-6.1-0.3-6.2,3c-0.1,1.9,2.3,4.4,4.2,5.6c2.6,1.7,5.9,2.5,8.9,3.7c-0.8,3.5-1.5,6.8-2.3,10
		c-4.9-1.3-9.7-2.6-14.6-4c-2.1-0.6-4.3-1.9-5.7-3.5c-5-5.8-9.5-12-14.6-17.7c-1.7-2-4.2-3.8-6.7-4.5c-24.6-6.5-49.2-12.8-73.9-18.9
		c-10.1-2.5-20.2-5.7-30.5-6.6c-17.2-1.6-34.5-1.6-51.8-2.2c-15-0.5-29.9-1-44.9-1.3c-5.2-0.1-10.7-0.7-15.7,0.6
		c-9.1,2.5-18.2,4.9-27.4,7.4c-0.7-2.6-1.4-5.1-2.2-7.6c-1.9,0.5-3.4,1-5.3,1.5c0.8,2.6,1.5,5,2.3,7.6c-2.1,0.6-4.1,1.1-6.2,1.7
		c-0.9-2.8-1.7-5.3-2.6-8c-1.9,0.7-3.3,1.2-4.5,1.7c0.4,4.5,0.8,6.9,2,7.7c-8.4,2.3-16.7,4.6-25.1,6.9c0.3-1.3-0.4-3.4-1.8-7.4
		c-1.9,0.5-3.9,1-6.2,1.6c0.9,2.9,1.6,5.2,2.3,7.4c-5.5,1.5-11,3.1-16.5,4.6c-0.9-3-1.7-5.8-2.6-8.8c-2.2,0.5-4,1-6.4,1.6
		c1,3.4,1.9,6.1,2.7,9c-4.6,1.3-9.2,2.6-13.8,3.9c-1.1-3.6-2.1-6.7-3-9.8c-6.8,1.7-7,2.3-3,11.5c-13.8,3.9-27.2,6.2-41.5,2.3
		c-10.9-3-22.3-4-34-5.9c-0.5,3.3-0.9,6.2-1.4,9.3c4.8,0.8,9,1.6,13.2,2.3c15.1,2.7,30.2,5.4,45.3,8.3c1.7,0.3,4.3,1.7,4.7,3.1
		c1.7,5.5,3.3,11,4.2,16.7c-0.6-0.8-1.5-1.5-2.2-1.6c-15.3-2.5-30.7-4.7-46-7.3c-3.5-0.6-5.5,0.4-7.8,2.7
		c-11.6,11.3-23.3,22.4-34.9,33.6c-22.7,21.8-45.3,43.7-67.9,65.6c-0.8,0.8-1.4,1.8-2,2.8c-9.3,1.9-18.5,3.8-27.8,5.7
		c-6.7,1.4-13.5,2.5-20.2,3.8c-0.1-0.2-0.1-0.4-0.1-0.7c-25.4,6.3-49.5,15.6-73.4,24.9c-0.4-1.3-0.6-2.5-1.2-3.5
		c-2.7-4.7-1.3-7.6,3.2-10.4c6.7-4.2,13-9.1,19.8-14c-1.8-2.8-3.5-5.3-5.3-8.2c-11,8-21.6,15.7-32.2,23.4c2.1,5.5,4.1,10.8,6.2,16.3
		c-12.8,4.9-25.5,9.8-38.5,14.1c0.1,0.8,0.2,1.4,0.3,2c-0.1-0.5-0.3-1-0.4-1.5c-7.7,3.1-14.8,6.8-22.2,8.6
		c-10.7,2.6-13.3,11.7-18.1,19.4c14.2-6,28.5-12,43.1-18.1c-0.1-0.4-0.3-0.9-0.4-1.3c1,1.6,2.6,1.2,6.9,0c9.2-2.5,18.1-6.9,28-5.8
		c5.1,0.6,9-1.4,12.4-5c0.9-0.9,1.9-1.8,2.9-2.6c8.4,5,19.3,2.6,24-5.6c3-5.3,7.1-9,12.2-12c3-1.7,5.8-2.4,9.4-1
		c2.6,1,5.9,1,8.6,0.3c5.7-1.4,11.3-3.5,17.3-5.5c1.2,2.2,2.7,4.2,4.6,6.1c1.6,1.7,3.3,3.3,4.6,5.3c4.2,6.5,10.9,9.6,17.5,12.5
		c10.4,4.6,20.9,3.5,31.6,0.3c11.2-3.4,22.4-6.5,30.8-15.2c6.3-6.6,9.7-14.9,12.8-23.4c1.3-3.6,3.3-7.5,6.1-9.8
		c9.8-8,20.2-15.4,30.3-23.1c1.3-1,3.1-1.5,4.2-2.7c1.9-2.1,4.4-4.3,4.8-6.8c1.2-7.8,4.6-14.4,8.9-20.8c1.5-2.3,2.4-5.4,2.4-8.2
		c0.1-4.3-0.5-8.7-0.9-13.2c4.7-6.3,8.7-6.7,19.2-3.7c7.1,2,14.2,3.5,21.8,3.7c2.6,4.1,5.7,6.1,9,6.8c-0.4,0.1-0.8,0.2-1.2,0.3
		c-0.2,0.4-0.5,0.7-0.7,1.1c5.3,2.3,10.5,6,16,6.7c20.7,2.5,40-2.4,56.9-14.8c13.8-10.1,28.8-10.9,44.6-7.7
		c6.4,1.3,11.9,0.3,17.6-2.8c5.5-3,10.4-6.1,11.2-13.1c0.6-4.6,3.9-6.3,8.2-6.2c6,0.2,11.9,0.6,17.9,0.7c4.7,0.1,6.2,2.8,6.8,6.9
		c0.3,1.9,1.2,4.6,2.7,5.3c3.3,1.8,7.2,3.8,10.9,3.8c12.3-0.2,24.4,0.7,36.5,3.3c1.9,0.4,4.2,0.1,6-0.6c5.6-2.4,11-1.6,15.4,2.8
		c1.8,1.8,3.6,3.5,5.3,5.3c6.5,6.7,16.7,9.7,26.4,1.9c2.7-2.2,5.7-4.1,8.8-5.5c3.3-1.5,6.6-1.4,9.6,1.4c5,4.6,10.2,9,15.4,13.4
		c3.4,2.9,12.4,1.7,14.9-1.8c2.2-3,6.5-4,8.6-2.1c3.4,3,6.8,6.2,10.5,8.8c3.3,2.3,5.5,4.9,5,9c-0.3,2.7,1.1,3.8,3.4,4.5
		c2.1,0.6,4.1,1.2,6.1,2c8.5,3.2,15.4-2,21.3-6.1c3.9-2.7,6.6-3,10.5-2.3c3.1,0.5,6.2,0.8,9.3,1.4c4.1,0.8,8.2,1.9,12.3,2.8
		c4.4,1,8.8,2.6,13.3,3c6.2,0.6,11.6,2.3,16,6.8c2.1,2.1,4,4.7,6.6,6c5.4,2.9,6.4,7.4,6.6,12.8c0.1,2.7,0.5,5.8,2,8
		c3.1,4.6,7,8.8,10.6,13.1c4.7,5.5,9.5,11,14.2,16.6c1.4,1.6,2.8,3.4,3.5,5.4c2.5,7.7,8.5,12.9,13.2,19c3.9,5.1,7.5,10.4,11.3,15.6
		c1.1,1.6,2.2,3.3,3.4,4.8c2.5,3.1,5.1,6.3,7.8,9.3c1.8,2,3.6,4.6,5.9,5.6c3.4,1.4,7.4,1.6,11.1,2.3s7.5,2.1,11.2,1.7
		c8-0.8,16-2,23.7-4c11-2.9,21.1,0.8,31.2,3.6c19.4,5.3,36.9,14.5,52.4,27.7c5.2,4.4,10.6,7.9,9.3,16.1c-0.4,2.6,2.2,5.5,4.7,3
		c5.4-5.5,11.8-5.5,18.5-5.1c6.3,0.3,11.2-2.4,15.7-6.3c1.9-1.6,3.9-3,5.9-4.6c2.3-1.8,4.1-1.4,6,0.7c3.1,3.3,6.2,6.5,9.6,9.5
		c2.8,2.5,2.8,4.2,0,6.8c-3.7,3.3-7,7.1-10.1,10.9c-0.9,1.1-1.2,3.6-0.6,4.8s2.7,1.7,4.3,2.1c4.8,1.2,10.1,1.2,14.3,3.4
		c12.4,6.3,24,14,34.7,23.1c6.6,5.6,14.9,9.2,21.1,15c6.5,6.1,13.2,6.4,20.6,4.2c5.4-1.6,10.3-1,14.7,2.1c3.5,2.5,7.1,3.3,11.2,3
		c3-0.2,6-0.2,9,0c5.6,0.4,11.8-1.9,16.4,3.4c0.3,0.4,1.6,0.3,2.3,0.1c10.4-4.2,20.7-8.7,31.1-12.8c6.1-2.4,12.3-4.5,18.4-6.7
		c3.3-1.2,7.1-1.6,10-3.4c5.8-3.5,11.3-5.9,18.1-2.6c2,1,5.5,1.6,7,0.5c8.9-6.4,20.7-10.8,19.6-24.8c0.7-0.3,1-0.4,1.3-0.5
		c0.8-0.1,1.7-0.1,2.5-0.1c13.5-0.1,25.7-3.5,36.4-12.2c2.5-2.1,6.2-2.7,9.4-4.1c3.8,5.6,7.3,10.6,10.5,15.8
		c0.9,1.4,1.6,3.6,1.2,5.1c-2.2,8.3-0.1,16.1,1.9,24c1.9,7.4,13.3,11.6,19.5,6.9c0.6-0.5,1-1.3,1.3-2.2c0,0.6-0.1,1.2-0.1,1.8
		c3.1-0.1,4.5-1.3,5.2-3c0.3,0.4,0.6,0.7,0.9,1.1c6.9-14,19.5-19.7,32.6-25.1c4.1-1.7,7.9-6,10.1-10c1.1-2.1-1.3-6.5-2.7-9.6
		c-3-6.7-3.5-13.3-0.9-20.3c0.7-1.7,0.2-3.9,0-5.9c-0.6-3.8-1.3-7.5-2.1-11.8c0.1,0,0.3-0.1,0.4-0.1c1-0.4,1.5-2.2,2.1-3.5
		c2-4.7,4-9.4,5.9-14.1c1.8-4.6,3.7-9.2,4.8-14c0.4-1.8-0.6-4.8-2-6c-4.3-3.6-4.4-6.5,0.1-9.7c0.4-0.3,0.6-0.9,1.4-2.2
		c3.5-1.3,7.1-2.7,10.6-4c0.4,0.3,0.6,0.5,0.9,0.6c10,4,14.9,14.2,11.1,24.1c-1.3,3.3-4.2,5.9-5.9,9c-1.3,2.5-3,5.2,1,7.5
		c5.1,3,9.9,6.5,14.6,10c4.3,3.1,7.9,7.5,12.6,9.7c12.6,5.9,25.8,10.4,39.9,10.1c0,0.1,0,0.2,0,0.3c0.1-0.1,0.3-0.2,0.4-0.3
		c0.9,0,1.8-0.1,2.8-0.1c4.7-0.3,7.5,1.2,10.3,5c7.7,10.7,16.3,12.9,28.6,8.5c16.6-6,33.5-10.7,51.5-9.3c2.2,0.2,4.4-0.2,6.5,0.1
		c7.7,1.2,16.9-7.9,14.8-16.8c-1.1-4.6-2.3-9.3-4.3-13.6c-3.3-7.2-5.4-14.3-5.5-22.4c0-8-1.8-16.1-3-24.9c0.2-0.1,0.5-0.1,0.7-0.2
		c-1-15.3-1.9-30.7-3.1-46.1c-1.1-13.4-1.9-26.8-3.9-40.1c-2.1-13.9-3.9-26.3,7.6-38.6c20.5-22,38.7-46.2,58.3-69
		c7.3-8.5,16.8-13.6,28.8-11c9.4,2.1,18.6,5.1,28.1,6c10.4,1,21.3,1.5,31.6-0.1c13.5-2.1,26.4-7.5,39.9-9.8
		c16-2.7,32.2-3.6,48.4-5.3c2.9-0.3,6-0.4,8.7-1.5c14.1-5.6,28.4-11.1,42.2-17.4c6.6-3,8.4-3.2,8.6-6c6.4-1.4,12.4-3.8,18.3-3.6
		c15.7,0.8,31.1,4.5,45.7,10.4c5.4,2.2,10.7,4.4,15.7,7.2c11,6.2,17.1,16.8,23.4,27.7c0.1,0,0.2,0,0.2-0.1
		c2.6,7.6,5.2,14.8,7.4,22.1c2.2,7.6,4.3,15.3,5.7,23c0.3,1.4,0.8,2.4,1.4,3.1c-0.5,0-1,0.1-1.4,0.1c2,5.4,3.6,10.4,5.6,15.3
		c8.3,20.6,16.1,41.5,31.7,58.2c4,4.3,9,4.8,14.1,1.7c6.8-4.1,9.7-10.3,11.1-17.8c1-5.5,5.3-7.4,10.2-7.7c4.5-0.3,7,2.4,9.1,6.2
		c5.6,10.1,11.6,20.1,17.5,30c1.7,2.9,3.8,2.9,5.9,0.3c3-3.7,5.9-7.6,9-11.2c14.1-16.2,26.6-23.5,45.1-10.3c0.3,0.2,0.6,0.4,0.8,0.5
		c16.2,10.5,33.8,16.6,53.3,16.5c3.4,0,7.7,1.1,10.1,3.3c8.4,7.5,16.8,15.3,24.2,23.7c6.9,8,12.7,17,19,25.5
		c4,5.4,8.1,10.8,12.3,16.4c0.2-0.2,0.4-0.4,0.7-0.5c6.6,20.1,25.8,23.4,40.6,32.8c0.1,0.2,0.2,0.5,0.3,0.8
		c6.3,1.6,13.1,3.1,19.7,5.2c2.6,0.8,5.5,2.6,6.9,4.8c3.3,4.9,5.9,10.3,8.6,15.6c6.8,13.3,14,26.4,19.8,40.2
		c1.8,4.3,4.1,7.9,6.8,10.9c0.8,0.9,1.6,1.7,2.5,2.4c3.2,2.8,6.9,5,11.3,6.7c5.9,2.3,11.6,4.8,17.3,7.6c3.1,1.5,5.9,3.5,8.7,5.5
		c6.7,4.9,14.3,8,22.3,6c0.6-0.2,1.2-0.4,1.8-0.6c4-1.5,7.7-4.9,11.1-10.6c2.3-3.8,4.1-7.9,5.8-12c0,0,0-0.1,0.1-0.1
		c0.4-0.7,0.6-1.4,0.8-2c0-0.1,0.1-0.1,0.1-0.2c1.4-3.3,0.8-5.6-1.4-7c-0.5-0.8-1.2-1.5-1.9-2.3c-1.9-2-3.9-4.2-4.7-6.8
		c-1.6-5-2.6-10.3-3.5-15.5c-0.3-1.6-0.1-3.6,0.5-5.1c4-10,8-20,12.5-29.8c3-6.6,2.7-13.3,1.7-20c-1.1-6.7-2.6-13.3-3.9-20
		c-0.4-0.2-0.8-0.4-1.1-0.6c1-1.7,2.1-3.4,3.1-5.1c5.4-9.1,14.4-14.5,26.1-10.7c4.2,1.4,8.6,2.5,12.8,3.9c8.9,3,17.2,0.9,24.7-3.9
		c4-2.5,8.2-5.8,8.6-11.4C3031.5,508.3,3031.4,507.8,3032.6,502.4z M1174.2,383.5c2.2-2.5,1.5-7.1,3.9-9.9c4,1.1,8.2,2.2,12.7,3.4
		c-0.9,3.7-1.7,7-2.5,10.2C1183.6,386.1,1178.9,384.8,1174.2,383.5z"/>
	<path class="st0" d="M3478.6,934.8c-2.3-1.7-4.7-3.2-6.7-5.2c-14.4-14.1-28.8-28.2-43-42.6c-12.8-13.1-25.3-26.5-37.2-39.2
		c-11.9,11.4-22.4,21.3-32.7,31.5c-0.3,0.3-0.5,0.6-0.8,1c-0.1-1.4-0.9-2.6-2.1-3.9c-9.4-10.1-16.8-21.3-20-35
		c-1.7-7.4-4.1-14.7-6.3-22c-3.5-11.6-6.8-23.2-10.7-34.7c-0.4-1.2-0.9-2.1-1.4-2.7h0.1c1-17.2-6.4-30.8-16.9-43.6
		c-1.7,1.3-3.1,2.3-5,3.7c9.2,11.9,16.7,24.3,15.5,39.9c0.1,0,0.3,0,0.4,0c-0.4,0.3-0.7,0.6-1.1,0.9c-2.7,2.5-4.9,5.5-7.7,7.8
		c-3.2,2.7-3.3,5.5-2.2,9.2c3.9,13.4,7.6,26.8,11.2,40.2c0.4,1.4-0.3,3.9-1.4,4.9c-12,10.3-24.1,20.5-36.4,30.5
		c-1.7,1.4-4.4,2.1-6.7,2.3c-8.2,0.5-15-1.7-18.7-9.9c-0.7-1.5-1.5-3.2-2.8-4.1c-1.8-1.2-3.6-2.7-5.4-3.8c1.6,0.6,3.2,1.4,4.8,2.4
		c0.1-2.9,0-5.7-1.3-7.5c-5.2-7.3-10.8-14.2-16.2-21.3c1.7-2.1,3.2-3.8,4.7-5.6c16.4-19.2,32.9-38.4,49.2-57.7
		c5.2-6.2,5.1-6.3-0.2-12.4c-0.3-0.4-0.8-0.6-0.2-0.2c-1.3,0.6-2.6,1.2-3.9,1.8c2.8-2.1,5.5-4.5,8-7.2c-5.2-5.4-9.9-10.8-15.2-15.6
		c-8.5-7.7-17.3-14.9-23.3-25.1c-5.6-9.8-12.3-19-18.8-28.9c-1.1,1.2-2.1,2.4-3,3.5c0.7-1.9,0.9-4,0.5-6.2c-4-20.7-7.8-41.4-12.1-62
		c-0.8-3.8-2.6-8.5-5.5-10.7c-14.7-11-30-21.3-44.9-31.8c-3.4,7.4-7,15.4-10.8,23.8l0,0c-5,6.2-10,11.7-18.1,13.2
		c-9.8,1.8-17.4,7.1-23.2,15.2c-2.8,3.9-3.9,11.2-1.9,14.1c4.3,6.4,8.5,13,13,19.2c5.5,7.6,11.3,15.1,17.2,22.5
		c3.6,4.6,7,9,7.7,15.2c0.4,3.3,2.3,6.6,4.4,9.3c3.5,4.6,8.1,7.2,14.3,5.4c7.6-2.3,15.2-4.6,23-6.3c3.4-0.7,7.2-0.6,10.6,0.1
		c3.2,0.7,5.4,0.2,7.5-2.2c1.8-2,3.9-3.7,6.2-5.8c0.7,4.1,1.9,7.4,1.6,10.5c-0.4,4.5-1.6,9.1-3.2,13.4c-0.4,1.2-3.8,1-5.6,1.9
		c-1.8,0.8-4.1,1.7-4.9,3.3c-2.2,4.2-4.4,2.2-6.7,0.5c-1-0.7-2.1-1.4-3.7-2.5c-1.6,2.9-3,5.5-4.4,8.1c-0.8,1.4-1.5,3.6-2.7,4
		c-6,1.8-7.9,5.5-9,11.6c-0.7,4-5.6,7.4-9,10.7c-5.5,5.3-12.1,10.7-9.5,18.9c1.8,5.5-0.1,8.8-2,13c-1.3,3-2.5,6.2-2.8,9.4
		c-0.4,4.6-2.4,7.6-6.5,9.8c-4.5,2.4-5.4,18.8-1.6,22.5c2.2,2.1,3.7,4.8,5.5,7.1c-4.5,4.2-10.1,6.1-9.7,12.5c0,0.6-1.2,1.6-2.1,1.9
		c-4.6,1.4-3.9,4.7-3.6,8.4c0.3,2.9-0.1,6.2-1.1,9c-2.2,6.2-4.8,12.3-7.6,18.3c-1.2,2.7-3.4,5-4.8,7.6c-0.8,1.4-1.7,3.6-1.2,4.8
		c4.8,10.7,9.9,21.3,15,31.9c1.4,3,3.4,2.4,5.7,1c2.6-1.5,5.3-2.8,7.9-4.1c0.6,0.3,1.1,0.6,1.7,1c-0.3,4,0.2,8.2-1,11.9
		c-3.1,9.5-3.7,20.1-16.6,23.9c-7.1,2.1-11.3-0.6-15.8-3.8c-4-2.8-0.4-6.6,0.5-9.9c0-0.2,0-0.3,0.1-0.5c1.9-4.2,1.2-7.3-3-10.1
		c-4.4-2.9-4.8,1.1-7.2,2.6c-2.3,1.5-6.1,2.3-8.7,1.5c-3.7-1.1-1.8-4.6-1-7.2c0.6-2.1,1.4-4.1,1.6-6.2c0.3-2.7,0.2-5.6-3.5-6.8
		c-0.2,1.7-0.4,3.1-0.7,5.4c-3-0.8-5.9-1-8.1-2.3c-3.1-1.9-4.8-1.6-6.1,1.7c-0.8,1.9-1.5,3.8-2.3,5.8c-1.7,1.1-3.7,2.4-5,3.2
		c1.3,7.2,6.8,11.9,4.2,18.8c-0.4,1.1,0.6,2.8,1.3,4.1c2.9,5.2,5.7,10.4,9,15.3c1.2,1.7,3.8,3.6,5.6,3.5c4.7-0.3,7.2,1.8,8.8,5.6
		c1.5,3.5,3.9,4.8,7.8,4.6c5.8-0.4,8.4,2.1,9.2,7.9c0.2,1.6,0.3,3.2,0.4,4.8c6.8,0.2,12.6,1.4,15.3,8.2c5.1-0.3,10.3-0.4,15.5-0.8
		c2.1-0.2,4.4-0.4,6.3-1.4c3.2-1.6,5.9-4.6,9.2-5.7c10.7-3.3,19.2-9.8,26.7-17.6c3.5-3.6,7-5.2,11.6-5.5c2.3-0.1,4.7,0.3,7-0.1
		c6.1-1.2,12.5-1.7,16.9-7c1.6-1.9,3.5-3.9,5.6-5.1c3.8-2.3,8.1-3.8,11.9-6.2c3-1.9,5.6-4.4,8.2-6.8c4.8-4.5,9.4-9.2,13.2-13
		c3.5,1,6,2.1,8.5,2.2c2.6,0.1,5.2-0.7,7.8-1.3c0.9-0.2,2.2-0.9,2.3-1.5c0.6-4.1,4.1-5.1,7.1-6.3c5.4-2.2,11.6-2.6,15.7-7.6
		c0.7-0.8,2.5-0.6,3.7-1c4.4-1.2,8.5,0,12.5,1.6c3.4,1.4,6.7,2.8,10.1,4.4c1.3,0.6,3,2.5,3.6,2.2c4-2.5,5.3,1.4,7.8,2.7
		c5.3,2.7,8.9,6.5,10,12.4c0.1,0.3,0.3,0.6,0.5,0.9c5.8,6.9,9.6,15.2,17,21.1c7.3,5.9,13.6,12.8,18,21.9
		c4.8,10.2,11.3,19.6,11.4,31.2c0.1,7.3,4.8,9.3,8.7,11.8c3.3-3.3,5.8-6.2,8.8-8.6c2-1.6,4.8-2.3,6.9-3.9
		c7.3-5.4,14.2-11.5,21.8-16.4c8.5-5.5,13.1-13,16.6-22.2c4.1-10.9,2.3-20.4-4.5-29.2c0,0.1-0.1,0.1-0.1,0.2
		c0.2-1.7-0.3-3.6-1.8-5.6c7-3.7,13.6-7.2,20-10.8C3483.3,942.1,3483.4,938.4,3478.6,934.8z"/>
	<path class="st0" d="M721.7,1061.3c-4.2,1.1-7.7-1.7-7.7-6.1c0-2.4,0.8-4.9,1.8-7.1c1.5-3.3,0.7-5.7-1.9-7.8
		c-2.6-2.2-5.3-4.4-7.4-6.2c3-4.2,6-7.6,8.1-11.6c0.6-1.1-0.6-3.9-1.7-5.3c-1.8-2.2-4.3-3.7-6.3-5.6c-1.5-1.4-2.7-3.2-4.2-4.7
		c-2.2-2.2-4.5-4.4-6.8-6.6c-3.1-2.9-6.1-6-9.4-8.6c-0.7-0.6-3.8,0.1-4.1,1c-2.2,5-4.7,10.2-5.6,15.5c-0.7,3.7-1.5,5.7-5.2,5.3
		c-5.7-0.6-7.6,2.5-8.1,7.6c-0.2,1.6-1.3,3.5-2.6,4.5c-4.1,3.1-8.5,5.8-12.5,8.5c-1.4-4.9-4.3-7-10.8-7.6c-2.2-0.2-4.6-0.6-6.6-1.6
		c-5-2.5-9.5-6.2-14.7-7.8c-5.9-1.8-10-4.7-12-10.6c-0.7,7.4,1,12.6,9.4,14.5c3.2,0.7,6.3,4.7,8,8c3,5.6,4.9,11.9,7.3,17.9
		c0.3,0.8,0.7,1.5,1.2,2.2c6.4,8.9,12.9,17.8,19.1,26.8c2,3,4.3,4,7.8,4c26.5-0.1,53-0.1,79.5-0.1c1.6,0,3.2-0.2,6.4-0.3
		c-4.3-5.5-7.8-10-11.2-14.6C728.7,1061.6,725.9,1060.2,721.7,1061.3z"/>
	<path class="st0" d="M2998.3,453.6c-11.6-5.2-24.1-9-34.9-15.6c-15.8-9.6-34.3-5.3-50.5-11.9c-0.8-0.3-2.7,0.8-3.4,1.8
		c-0.3,0.5,0.7,2.8,1.5,3.1c5.1,1.5,10.5,4.1,15.6,3.7c9.4-0.7,18.3,0.8,26.6,4.3c20.9,8.9,41.5,18.2,62.2,27.4
		c9.1,4,17.3,9.2,24.1,16.8c1.1-0.8,2.1-1.6,4.4-3.4c-6.2-4.7-11.3-9.5-17.3-12.9C3017.5,461.9,3007.8,457.9,2998.3,453.6z"/>
	<path class="st0" d="M2896.2,465.8c1.7-1.1,3.8-1.9,5.2-3.3c9.6-10,21-15.3,35.1-13.8c1.1,0.1,2.3-0.4,4.4-0.9
		c-4.4-5.4-9.7-3.6-13.9-3.1c-13.5,1.6-24.3,8.2-32,19.4C2895.4,464.6,2895.8,465.2,2896.2,465.8z"/>
	<path class="st0" d="M2873.3,471.2c1.8-2.2,3.4-4.6,5.5-6.6c6.6-6.1,13.5-11.9,20.1-18c0.7-0.6,0.5-2.2,0.7-3.4
		c-1.2,0.1-2.8-0.2-3.4,0.4c-5.7,5.5-11.4,11.1-16.9,16.9c-2.7,2.9-5,6.2-7.4,9.3C2872.4,470.3,2872.9,470.8,2873.3,471.2z"/>
	<path class="st0" d="M587.9,905.7c-0.2-0.6-0.1-1.3,0-2c0.4-3.1-0.6-5.1-3.4-6.9c-1.8-1.1-2.6-3.9-3.5-6c-1.5-4-2.6-8.2-4.2-12.2
		c-0.4-1-2.3-2.5-2.9-2.2c-5.8,2.6-7.9-0.7-9.6-5.4c-0.4-1.2-2.2-2-3.3-2.9c-2.5-2.1-5.5-4-7.5-6.5c-1.5-1.9-2.7-5-2.2-7.1
		c0.9-3.6-0.3-5.2-3.2-6.7c-4-2.1-5.4-8.7-2-11.8c3.5-3.1,4.1-6.8,4.8-10.9c0.7-3.5,2.2-6.8,3.5-10.2c1.1-2.8,2.7-5.4,3.4-8.2
		c2.5-9.1-1.7-16.3-10.7-18.5c-1.6-0.4-3.2-1.1-4.8-1.3c-1.2-0.2-2.7-0.3-3.5,0.3c-9.6,6.8-20.4,10.4-32,12c-2.6,0.4-5.3,1-7.9,0.7
		c-7.2-0.8-14.3-2.1-21.6-3.3c-0.3,10.7,6.5,17.3,14.2,23.1c5.8,4.4,11,9.1,14.3,15.6c4.6,9.2,9.2,18.4,14.1,27.4
		c21.2,38.8,42.7,77.4,63.8,116.2c2.6,4.8,5.5,5.3,9.8,4c0.9-5.8,0.8-10.8-4.4-14.5c-2.8-2-3.8-4.7-1.2-8c1.2-1.6,1.4-4,1.9-6.1
		c1.6-6.6,3.2-13.2,4.5-19.8c0.3-1.6,0.1-3.3-0.3-4.9C592.2,921.6,590,913.7,587.9,905.7z"/>
	<path class="st0" d="M1892.2,449.1c22.6-6.8,45.3-13.5,67.9-20.3c10-3,20-5.9,29.8-9.1c1.5-0.5,2.5-2.5,3.7-3.8
		c-1.1-0.8-2.1-1.6-3-2.2c-1.7,0.5-2.8,0.9-3.9,1.2c-28.3,8.5-56.7,17-85,25.5c-4.6,1.4-9.2,2.7-13.7,4.4c-1,0.4-1.5,2.1-2.2,3.3
		c1.2,0.7,2.3,1.6,3.5,1.9C1890.2,450.1,1891.2,449.4,1892.2,449.1z"/>
</g>
</svg>
