<?xml version="1.0" encoding="utf-8"?>
<!-- Generator: Adobe Illustrator 23.0.3, SVG Export Plug-In . SVG Version: 6.00 Build 0)  -->
<svg width="3840" height="1080" version="1.1" id="圖層_1" xmlns="http://www.w3.org/2000/svg" xmlns:xlink="http://www.w3.org/1999/xlink" x="0px" y="0px"
	 viewBox="0 0 3840 1080" style="enable-background:new 0 0 3840 1080;" xml:space="preserve">
<style type="text/css">
	.st0{fill:#70CCB8;}
</style>
<g>
	<path class="st0" d="M1769,637.4c0.8,10.6-7.1,15.2-14.1,20.9c-4.7,3.8-9.1,5.1-14.3,2.5c-4.7-2.3-9.1-1.7-12.9,1.3
		c-5.3,4.3-11.8,4.3-17.9,6.1c-5.4,1.5-10.3,4.8-15.5,7c-9.7,4-19.6,7.7-29.4,11.4c-0.5,0.2-1.5,0.1-1.8-0.3
		c-4-4.7-9.5-3.1-14.5-3.3c-2.7-0.1-5.3-0.1-8,0c-5.4,0.2-10.3-0.2-15-3.7c-3.6-2.7-8.1-2.9-12.8-1.5c-7.6,2.2-14.4,2-21.1-4.2
		c-6.6-6.2-15.4-9.9-22.3-15.9c-9.9-8.6-20.7-15.5-32.3-21.3c-4.2-2.1-9.5-2.2-14.2-3.4c-1.7-0.4-4-1.1-4.7-2.4
		c-0.7-1.2-0.3-3.9,0.7-5.1c3.2-4,6.8-7.7,10.4-11.3c2-2,2.2-3.4,0.2-5.4c-4.3-4.2-8.4-8.6-13-13.3c-3.1,2.4-5.9,4.6-8.7,6.9
		c-4.1,3.3-8.3,5.9-13.9,5.6c-7.2-0.3-14.1-0.3-19.9,5.4c-2.5,2.4-6.1,0.2-5.8-3.4c0.5-6-2.3-9.7-6.8-13.3
		c-16.7-13.6-34.8-24.5-55.8-29.7c-9.9-2.4-19.6-6.2-30.2-3.2c-5.3,1.5-11.2,0.8-16.5,2.4c-9.9,3-19-1.8-28.4-2.4
		c-2.1-0.1-4.2-3.3-6-5.3c-2.8-3.1-5.4-6.5-8.1-9.7c-0.7-0.9-1.8-1.7-2.1-2.7c-3.8-11.4-14.4-17.7-20.5-27.4
		c-1.2-1.9-2.5-3.8-3.6-5.8c-1.4-2.4-2.3-5.2-4.1-7.4c-4.4-5.6-9.2-10.8-13.8-16.3c-3.7-4.4-7.7-8.7-10.9-13.5
		c-1.5-2.3-1.9-5.6-2-8.5c-0.3-5.1-1.4-9.3-6.2-12.2c-2.8-1.7-5-4.3-7.4-6.7c-4.4-4.3-9.8-5.9-15.7-6.6c-4.2-0.5-8.6-1-12.3-2.8
		c-4.8-2.3-9.6-3.4-14.8-3.2c-2.6,0.1-5.3-0.6-7.8-1.2c-3.8-0.9-6.1-0.5-9.8,2.4c-5.1,4-11.6,7.9-19.1,6.6
		c-3.7-0.7-7.2-2.4-11.2-3.8c1.9-8.3-3.2-12.3-9.2-15.9c-2.3-1.4-4.2-3.5-6.1-5.6c-2-2.2-6.1-1.7-8.6,1.2
		c-3.5,4.3-12.4,4.7-16.5,1.1c-4.9-4.4-9.8-9-15.3-12.7c-2-1.4-5.8-1.3-8.3-0.5c-3.2,1.1-6,3.5-8.8,5.5c-9.3,6.5-17.9,5.9-26.1-2.1
		c-1.8-1.7-3.5-3.5-5.3-5.3c-4.1-4.1-9.5-4.2-15.1-2.9c-4.5,1.1-9.6,0-14.5-0.3c-9.7-0.6-19.5-1.2-29.2-2c-2.6-0.2-5.3-0.6-7.8-1.5
		c-3.4-1.2-5.9-3.4-6-7.6c-0.1-4.7-2.8-7.2-7.5-7.3c-6.2-0.1-12.3,0-18.5-0.2c-3.6-0.1-5.2,1.8-6.4,5c-1.3,3.6-2.5,8.2-5.2,10.1
		c-7.1,4.9-15.1,8.3-24.3,6.1c-16-3.9-30.8-1.7-44.4,8.3c-17.2,12.6-37,16.4-57.7,13.6c-6.2-0.8-11.8-6-18.5-9.6
		c7-3.3,11.1-12.8,9.5-19.8c-1.6-6.6-3.4-13.2-5.5-19.7c-0.4-1.4-2.5-2.9-4-3.1c-18.9-3.5-37.9-6.7-57.2-10.1c0-2.1,0-4.3,0-7.2
		c8.6,1.5,17.1,2.3,25.2,4.5c18,5,34.9,1.7,52.4-3.2c38.4-10.8,77-20.6,115.6-30.8c2-0.5,4.3-0.8,6.4-0.7
		c35.8,1.3,71.5,2.3,107.3,4.2c8.6,0.5,17.1,3.8,25.6,6.1c23.1,6.2,46.1,12.9,69.2,18.8c5.9,1.5,9.6,4.6,13.1,9
		c3.6,4.6,7.5,8.9,10.7,13.8c3.1,4.8,7.6,6.5,12.7,7.7c18.4,4.6,36.8,8.9,55,14.3c7,2.1,13.3,6.6,19.8,10.1c3.2,1.7,6.2,3.9,9.2,5.7
		c4.5-2.9,3.9-10.3,11.3-10.4c-2,3.6-4,7.3-6.1,11.1c2,1.3,3.8,2.5,5.6,3.7c3.9-2.1,3.7-8.7,10.8-8.8c-1.5,2.8-2.5,4.7-3.6,6.6
		c-1.1,1.8-2.3,3.6-3.7,5.7c2.8,1.7,5.3,3.3,8.8,5.4c3.5-4.1,7-8.1,10.8-12.6c1.1,0.6,2.5,1.5,4,2.3c-2.6,5.1-5.1,9.8-7.7,14.8
		c3.1,1.9,5.3,3.3,8,5c3.5-3.8,6.9-7.5,10.7-11.7c1.6,1.3,3,2.5,4.8,4c-3.5,3.9-6.6,7.5-9.9,11.3c1.9,3,3.6,5.7,5.4,8.5
		c3.7-2.5,7.1-4.7,10.4-7c0.5,0.6,1,1.1,1.5,1.7c-1.1,1.6-2.1,3.4-3.4,4.9c-1.2,1.4-2.8,2.6-4.2,3.9c0.3,0.5,0.6,1.1,0.9,1.6
		c2.7-1.5,5.4-3,8.2-4.5c0.4,0.4,0.8,0.9,1.2,1.3c-1.5,1.9-3.1,3.7-5.2,6.2c11.9,11.3,27.2,17.8,41,27.7c2.2-6.2,4.3-11.7,5.9-17.4
		c0.3-1-1.2-2.9-2.3-3.7c-3.4-2.6-7.1-4.8-10.7-7.2c0-0.5-0.1-1-0.1-1.5c1.4-0.2,3.2-1,4.2-0.5c4.8,2.9,9.4,6.2,14.3,9.5
		c-2,6.8-4,13.5-5.9,19.8c3.9,4.1,7.6,8,12.2,12.9c2.1-6.1,3.6-10.8,5.5-15.4c0.5-1.3,2.3-2.1,3.5-3.1c0.4,1.4,1.4,2.9,1.2,4.3
		c-0.4,2.9-1.4,5.7-2.2,8.8c3.6,1,6.8,1.9,10.4,3c1.1-3.4,1.9-6.5,3.2-9.5c0.5-1.1,2-1.8,3-2.6c0.6,1.4,1.8,2.8,1.6,4
		c-0.7,4.2-1.7,8.4-2.9,12.5c-1.2,4.1,0.4,6.2,4.4,7.1c1.6,0.4,3.2,1,5,1.6c0.7-1,1.4-2.1,2.2-3.3c4.5,1.4,8.9,2.8,13.7,4.3
		c-1.4,4,0.7,5.4,4.2,6.4c17.4,5,34.8,10.2,52.1,15.3c1.4,0.4,3.4,0.5,4.2,1.4c1.3,1.6,1.9,3.8,2.7,5.8c-1.8,0.7-3.6,1.7-5.4,2.1
		c-1.2,0.3-2.6-0.4-4.5-0.8c-1.7,6.2-3.9,12.1-4.6,18.3c-0.3,2.4,2.2,5.9,4.3,7.8c7.8,6.8,15.9,13.1,24.3,19.9
		c8.3-10.3,16.5-20.6,25-31.2c-8.6-7-17-13.8-25.3-20.6c-0.9-0.7-2.2-1.3-2.7-2.2c-1-1.8-1.5-3.9-2.2-5.9c2.4,0,5.6-0.9,7.1,0.2
		c9.8,7.2,19.3,14.8,28.7,22.4c2,1.6,3.4,4,4.7,5.4c20.8-2.3,41.3-4.9,61.9-6.8c22.8-2.1,45.6-3.4,68.4-5.1
		c11.2-0.9,22.4-1.9,33.7-3c1.2-0.1,2.7-0.4,3.5-1.2c3.8-3.7,6-3.4,10.6-0.9c2.1,1.2,5.7,0.4,8.3-0.4c1-0.3,1.4-3.4,1.4-5.2
		c0-3.6-0.6-7.2-0.9-11c2.7,0,4.6,0,6.8,0c0.4,4,0.9,7.9,1.3,11.8c0.3,3,1.2,4,4.8,3.5c18.1-2.7,33.8-12.2,51.2-16.8
		c16.9-4.5,28.8-16,41.5-26.6c3.8-3.2,7.6-6.5,11.5-9.6c2.3-1.8,5.3-3.9,7.8-0.5c2.2,3,0.3,5.6-2.2,7.6c-6.8,5.6-13.6,11.2-20.6,17
		c2.2,5.5,4.4,11,6.8,17c10.8-4.9,21.3-9.7,31.8-14.6c0.9-0.4,1.7-2,1.7-3.1c0.2-7.8,0-15.7,0.3-23.5c0.2-3.9-3-3.2-4.9-4.4
		c-1.4-0.8-2.6-1.8-3.9-2.7c0.3-0.4,0.6-0.8,0.9-1.3c0.7,0,1.4-0.2,2,0c5.2,2.6,9.2,1.8,12.5-3.4c0.7-1.2,3.4-1.3,5.3-1.5
		c1.8-0.2,3.6-0.1,6.1-0.1c-2.7-7-5.2-13.5-7.7-20c0.8-0.3,1.5-0.7,2.3-1c5.4,5,5.8,13,10.1,19.3c1.5-0.4,3.2-0.9,4.9-1.5
		c4.9-1.6,7.8,0.6,8.2,5.6c1.1,13.8-3,26.9-5.5,40.2c-0.7,3.6-1.4,7.2-1.5,10.8c-0.2,5.3,2.6,7.2,7.2,4.5c6-3.5,11.7-7.5,17.5-11.4
		c3.3-2.2,6.5-4.6,9.7-7c2.6-2,6.4-3.2,5.7-7.8c-0.1-0.5,0.6-1.2,1.1-1.6c10-7.5,19.2-16.2,32.6-18.1c11.6-1.6,23-4.5,34.4-7.4
		c13-3.3,25.9-7.1,38.7-11c2.7-0.8,5.1-3,8.6-5.1c-0.8-1.5-1.8-3.4-2.8-5.3c-0.2-0.3-0.5-0.6-0.5-0.8c1.1-7.2-5-8.3-9.3-10.2
		c-8.8-4-8.6-12.5-11-19.8c-0.7-2.1-1.7-4.6-3.4-5.8c-8.9-6.4-18.1-12.5-27.1-18.6c-0.6-0.4-1.4-0.6-1.6-1.1c-0.6-1.6-1-3.3-1.5-4.9
		c1.6,0,3.6-0.6,4.8,0.1c7.6,4.8,14.9,10,22.4,15c1.9,1.3,3.8,2.6,6.2,4.3c20.6-23.1,41.2-46.2,62.1-69.6c3,2.5,5.8,5,9,7.7
		c12-13.3,23.7-26.5,35.6-39.6c1.8-2,4.1-3.9,6.6-5.1c16-8,31.9-16.6,48.4-23.5c9.8-4.1,20.8-5.7,31.3-8.3
		c6.1-1.5,12.3-2.7,18.5-3.9c3.4-0.7,6.8-0.6,7.8,3.4c10.4-2.4,20.7-4.8,31.4-7.2c-2.1-9.1-4.2-18.1-6.3-27.1
		c3.7-2.1,5.8-2.3,6.5,2.4c1.2,7.7,2.8,15.3,4.4,23.7c4.4-0.9,9.3-1.4,13.6-3.1c1.5-0.6,2.6-4.3,2.5-6.5c-0.3-3.9-1.6-7.7-2.6-11.9
		c2.2-0.5,4-1,6.4-1.6c1,4.2,2.3,8.1,3,12.1c0.8,4.3,3.1,5.4,7.1,4.6c12.5-2.8,25-5.5,37.5-8.2c2.7-0.6,3.5-1.9,3.3-4.5
		c-0.2-3.5,0-7,0-10.9c1.9,0,3.4,0,5.4,0c0,3.3,0.2,6.7-0.1,9.9c-0.2,2.9,1,3.9,3.7,4.7c39.3,11.8,78.6,23.6,117.8,35.5
		c4,1.2,8,2.4,12,3.3c1.5,0.4,3.5,0.6,4.8,0c4.8-2.1,9.1-1.1,13.8,0.4c26,8.3,49.9,21.1,74.3,32.7c14.4,6.8,28.4,14.3,43.1,20.5
		c6.4,2.7,13.7,3.1,20.6,4.4c12.6,2.4,25.3,4.5,37.8,7.2c4.1,0.9,7.2,3.7,7,8.9c-0.3,7-0.3,14,0,21c0.2,3.6-1,5.9-4.2,7.6
		c-2.5,1.3-4.8,3.1-8.3,5.4c21,0,40.6,0,60.2,0c6.5,0,7.6,1.6,8.3,8.3c1.5,15.1,3.4,30.2,5.3,45.2c0.6,5.1,2,10.1,2.5,15.2
		c0.7,6.2,3,11.4,7.6,15.9c3-2.2,6.6-4,9.1-6.7c5.4-6,12-4.5,18.5-3.6c5.2,0.7,10.2,2.4,16.3,4c1.6-1.3,4.2-3.3,6.4-5
		c-2.1-4.9-4.3-9.4-6.1-14.1c-1.8-4.7-0.6-9.1,2.5-13c4.1-5.2,8.2-10.4,12.9-16.5c3.8,4.1,7.3,7.8,10.7,11.5c3.1,3.4,6.1,3.3,9.2,0
		c2-2.2,4-4.5,6.3-7.1c2,1.9,3.3,3.2,6.3,6c-2.7,1.9-5.4,3.3-7.5,5.4c-4.2,4-4,7.1,0.2,11.3c3.9,3.9,6.9,4,10.9,0.1
		c2-2,3.8-4.1,6-6.5c1.8,1.6,3.1,2.8,6,5.5c-1.8,0.9-3.7,1.3-4.6,2.5c-2.2,2.7-3.9,5.9-5.8,8.8c-1.3,1.9-2.4,4.1-4,5.6
		c-14.9,14.8-29.9,29.5-45,44c-2.7,2.6-3,5-1.3,7.9c3.9,6.6,7.8,13.2,11.9,19.6c1,1.5,2.9,2.6,4.6,3.5c14,7.4,28.3,14.2,41.9,22.2
		c5.8,3.4,9.9,9.5,15.1,14.1c1.7,1.5,4,2.3,6.2,3c3.1,1,6.4,1.5,9.5,2.4c3.8,1.1,7.5,2.8,11.3,3.3c2.4,0.3,5-1.4,7.5-2.3
		c1.9-0.7,3.8-1.7,6.2-2.9c0,2.4,0,3.9,0,5.4c11.4,4.5,16.2-2.9,20.6-11.4c1.8,1.4,3,2.4,4.5,3.6c5.1-5.8,6.1-12.9,7.8-19.7
		c1.6-6.5,3.9-12.8,6.4-18.9c0,5-1,10.2,0.2,14.9c2.8,11.1-2.1,20.5-5.5,30.3c-0.9,2.7-1.7,5.5-3.1,7.9c-5.3,9.3-5.6,18.6-2.2,28.6
		c1.3,3.9,2.4,7.4,5.6,10.2c3.5,3,4.7,6.8,2.4,11.1c-2.9,5.2-5.3,10.8-8.9,15.5c-2.5,3.3-6.4,7-10.2,7.8c-7.9,1.7-15.3-1.2-21.9-6.1
		c-2.5-1.8-5.1-3.6-7.9-5c-9.7-4.7-20.2-8.2-29.1-14.1c-9.2-6.2-10.9-18.2-16.1-27.6c-7.5-13.5-14.1-27.5-21.5-41
		c-1.3-2.4-4.4-4.5-7.1-5.4c-4.4-1.5-9.1-1.8-13.6-2.8c-19.4-4.1-34.6-14.2-45.4-31c-5.9-9.2-12.9-17.7-19.3-26.6
		c-3.4-4.7-6.5-9.7-10.3-14c-8.2-9.3-16.4-18.7-25.4-27.3c-3-2.9-8.4-4.5-12.7-4.6c-19-0.1-35.9-6.1-51.9-16
		c-5.5-3.4-11.9-6.6-18.1-7c-12-0.8-20,7.3-27.4,15.7c-3.3,3.8-6.4,7.6-9.6,11.4c-2.1,2.5-3.8,2.7-5.7-0.5
		c-6-10.3-12.3-20.4-18.4-30.7c-2.2-3.7-5.4-4.4-9.3-4.3c-4.1,0.2-6.8,2.4-8.7,5.8c-0.6,1.1-1.2,2.5-1.2,3.8
		c-0.1,7.9-5.6,11.9-11.2,15.8c-3.7,2.5-9.5,1.4-12.6-2c-13.2-14.1-20.8-31.5-28.4-48.9c-7.8-17.8-11.8-36.7-16.9-55.4
		c-3.7-13.5-9.1-26.6-18.6-37c-8.4-9.2-19.8-13.6-31.3-17.8c-12.7-4.7-26-6.6-39.4-8.2c-5.1-0.6-9.6,0.5-14.4,2.7
		c-13.9,6.4-28,12.2-42,18.2c-1.1,0.5-2.3,0.7-3.2,1.4c-9.5,6.2-20,6.7-31.1,7c-17.6,0.5-35,3.5-51.9,8.9
		c-15.9,5.2-32.3,8.2-49.1,6.7c-6.4-0.6-12.7-2.2-19-3.5c-6.2-1.3-12.3-2.7-18.4-4.1c-6.6-1.5-12.1,1.1-17.1,4.8
		c-3.9,2.8-7.6,6-10.7,9.6c-18.6,22-36.2,44.9-55.8,66c-10.2,11-9.6,22.2-8,34.9c2,15.8,3.4,31.6,4.9,47.5c2,20.2,1.2,40.8,5.8,60.8
		c0.3,1.3,0.4,2.7,0.2,4c-1.2,9.9,2.1,18.5,6.4,27.1c2.6,5.1,4.2,10.7,2.7,16.6c-1.6,6.5-6.7,10.6-13.4,10.6c-1.5,0-3,0.1-4.5,0
		c-18.9-1.5-36.7,3.4-54.2,9.7c-12.2,4.4-21,2-28.6-8.8c-2.7-3.9-5.7-5.4-10.3-4.9c-15.2,1.5-29.2-3.2-42.6-9.4
		c-5.3-2.4-9.3-7.4-14.1-10.9c-4.1-3-8.5-5.6-12.6-8.6c-1.2-0.9-2.5-2.6-2.4-3.9c0.1-2,0.9-4.5,2.3-5.8c5.2-5,6.1-10.7,4.7-17.7
		c-1.3-6.2-4.4-10.2-10-12.4c-5.8-2.3-10.3,1-14.4,4.3c-5.3,4.3-4.9,4.4-0.5,9.7c1.4,1.7,2.4,5,1.8,6.9c-1.7,5.6-4.4,10.9-6.7,16.3
		c-3.5,8.2-6.1,16.4-3.5,25.4c0.6,2.1,1,4.7,0.3,6.7c-2.3,7.2-1.8,14,1.1,20.8c1.2,3,3.5,7.3,2.4,9.1c-2.6,4.2-7.1,7.3-10.9,10.7
		c-0.7,0.6-1.8,0.8-2.7,1.1c-11.1,3.3-19.8,9.8-26.7,19.1c-5.7,7.8-14.4,8.2-23,7.1c-2-0.2-4.6-3.1-5.2-5.3
		c-2.2-8.6-5.6-17.3-2.4-26.5c0.5-1.4-0.5-3.5-1.4-5c-2.1-3.6-4.5-7-6.8-10.4c-3.4-5.2-6.8-6.3-11.6-2c-7.6,6.9-16.7,9.8-26.2,12.1
		C1779.1,636.7,1774.1,636.8,1769,637.4z"/>
	<path class="st0" d="M3136.1,1011.3c-2.8-5.8-8.4-7.5-14.9-7.4c-0.4-2.3-0.6-4.4-1-6.5c-1-4.5-3.5-7.2-8.4-6.3
		c-4.3,0.8-6.8-1.2-8.4-4.9c-1.5-3.5-3.9-5.7-8.1-4.9c-3.1,0.6-4.9-1-6.3-3.7c-2.8-5.2-5.9-10.3-8.7-15.4c-0.6-1.1-1.4-2.6-1.1-3.6
		c2.3-6.8-2.1-11.8-4.1-18.6c1.3-0.7,3.2-1.9,4.8-2.8c1.3-3.1,2.6-6.2,3.7-8.9c4.6,1.3,8.5,2.3,12.5,3.4c0.7-2.2,1.1-3.5,1.6-5.4
		c3.2,3.2,2.7,6.4,1.8,9.6c-0.1,0.3-0.1,0.7-0.2,1c-0.8,3.6-4.5,7.5,1.1,10.3c3.2,1.6,7.3-0.7,10.6-5.5c0.2-0.3,0.4-0.5,0.6-0.7
		c7.9,2.2,9.1,4.8,6.6,12.3c-0.9,2.8-1.9,7.1-0.5,9c3.8,5.1,10.5,5.3,15.5,4.2c14.1-3.2,14.6-15.3,17.8-25.7
		c0.3-1.1,0.6-2.3,0.4-3.4c-0.3-2.4-0.8-4.7-1.3-7c-2.4,0.6-5.3,0.4-6.9,1.8c-4.1,3.6-6.4,2.4-8.3-1.8c-4.5-9.6-9.1-19.2-13.2-29
		c-0.6-1.4,0.7-3.7,1.5-5.4c1.1-2.1,2.9-3.9,3.8-6.1c2.8-6.5,5.6-13.1,7.9-19.8c1-3,1.1-6.4,0.7-9.6c-0.4-3.3-0.5-5.8,3.2-7.2
		c1.1-0.4,2.8-1.6,2.8-2.4c-0.1-6.2,5.1-8,9.6-12.1c-1.8-2.3-3.9-4.7-5.6-7.2c-1.1-1.6-1.6-3.5-2.3-5.3c-0.2-0.6,0.2-1.3,0.2-2
		c0.1-7.5-0.5-15.2,8.4-18.8c0.6-0.3,0.9-1.7,1.2-2.7c2.1-6.2,4.3-12.4,6.4-18.7c0.4-1.1,0.7-2.7,0.2-3.6c-3.4-5.7-1.5-10.7,2.3-15
		c4.4-5.1,9.5-9.7,13.7-14.9c1.7-2.1,1.6-5.6,2.5-8.4c0.3-1.1,1-3,1.7-3c6.4-0.3,8.5-5,10.7-9.8c0.7-1.5,1.6-2.9,2.6-4.6
		c2.7,1.8,5.1,3.4,7.6,4.9c-0.1-0.5-0.3-0.9-0.4-1.4c4-1.8,8-3.5,11.8-5.5c1.1-0.6,2.1-1.9,2.7-3.1c4-7.2,2.2-14.7,0.7-22.9
		c-2.3,2.1-4.4,3.8-6.2,5.9c-2.3,2.7-4.8,2.8-8,2.1c-2.9-0.6-6.2-0.8-9.1-0.1c-7.5,1.6-15.1,3.2-22.1,6c-7.7,3.1-12.3,0-17.1-6.7
		c-1.7-2.3-2-5.6-3.1-8.3c-1.5-3.6-2.6-7.5-4.8-10.6c-6.1-8.4-12.9-16.4-19.1-24.8c-5-6.8-10.3-13.5-13.9-21c-1.5-3.2,0-9,2-12.5
		c5.1-8.5,13.5-12.7,22.9-15.6c5.9-1.8,11.1-6.1,16.6-9.3c5.1-2.9,6.3-2.9,7.5,3c1.6,7.6,1.5,15.4,2.6,23.1c0.4,2.7,1.3,5.8,3,7.9
		c3.7,4.7,7.3,10.2,12.3,13c7.5,4.2,11.5,11.3,17.5,16.7c1.7,1.5,3.1,3.5,4.6,5.2c8.4-3.9,10.7-8.3,8.7-16.8
		c-3.1-13.4-6.3-26.8-9.2-40.3c-0.5-2.2,0.2-4.6,0.3-7c0.6-0.1,1.2-0.1,1.7-0.2c1,3.7,2,7.5,2.9,11.2c4.5,17.5,8.9,35.1,13.5,52.6
		c0.7,2.8,0,4.4-2.5,5.6c-3.5,1.8-5.4,6.1-3.7,8.9c2.2,3.5,5.2,3.6,8.5,1.3c0.4-0.3,0.9-0.4,1.8-0.8c18.2,22.9,36.5,45.9,55.6,69.9
		c-6.7,2.8-13,5.4-19.3,7.9c-11.8,4.7-17.3,14.5-18.9,26.1c-1,7.3-4,12.2-9.2,16.8c-7.2,6.4-14.4,12.9-20.9,20
		c-2.7,2.9-3.7,7.3-5.6,11c-2.6,5.1-5.3,10.2-8.2,15.6c8.5,0,16.2,0.1,23.9-0.1c3.3-0.1,6.6-0.8,9.8-1.4c7.4-1.5,12.4,1.9,16.5,7.6
		c1.4,1.9,3.3,3.5,4.3,5.5c3.9,7.7,10.9,7.7,18,7.4c1.4-0.1,2.8-0.9,4-1.8c11.5-8.8,22.9-17.8,34.4-26.6c2.4-1.8,2.8-3.4,1.9-6.3
		c-3.8-13.1-7.2-26.2-11-39.3c-0.9-3.1-0.5-5.2,1.8-7.5c3.8-3.7,7.1-7.9,10.9-11.7c1.1-1.1,3.1-1.9,4.7-1.9c0.6,0,1.4,2.5,1.8,4
		c6.5,24,12.6,48.2,19.6,72.1c1.5,5.1,5.7,9.8,9.7,13.7c8.3,8.3,10.6,18,10.1,29.4c-0.6,13.8-0.1,27.6-0.1,41.4
		c9.7,3.2,17.6,2.5,25.6-1.5c4.5-2.3,9.4-4.5,14.3-5.4c8.3-1.6,15.2,3.7,17.4,11.7c0.6,2.1,2.4,3.9,3.3,6c2.2,5,4.9,9.8,6.2,15.1
		c1.7,7.1-4,12.9-10.5,15.7c-3.3,1.5-6.9,2.3-10.4,3.3c-3.5,1-7,1.7-11.2,2.8c2.5,4,4.6,7.7,7,11.2c0.6,0.8,2.3,1.3,3.5,1.3
		c8.9,0,16.8-2.2,23.6-8.7c10.3-9.9,21.2-19.3,31.8-28.8c-0.6-0.7-1.2-1.5-1.8-2.2c3.4,3.8,7.1,7.5,10,11.7c1.4,2.1,2,5.4,1.5,7.9
		c-2.6,14.2-7.9,26.4-21.6,33.9c-7.2,3.9-13.2,10-19.7,15c-0.8,0.6-1.6,1.3-2.5,1.6c-5.1,1.7-9.3,4.2-10.4,10
		c-8.3-2.7-12-9-10.8-17.1c0.2-1.1,0.7-2.4,0.3-3.3c-4.1-7.8-8-15.6-12.7-23c-4.9-7.7-10.7-14.9-15.9-22.4c-1-1.4-1-3.5-1.6-5.1
		c-0.6-1.5-1.2-3.1-2.2-4.3c-3.3-3.9-6.7-7.8-10.3-11.3c-5.4-5.1-11.1-10-16.7-14.9c-0.2-0.2-0.7-0.6-0.8-0.6
		c-5.9,3.3-7.7-3.7-11.8-4.5c-6.9-1.4-14.3-6-21-2.1c-6,3.6-12.4,5.8-18.6,8.6c-1.9,0.9-3.5,2.8-4.7,4.6c-1.8,2.7-12.3,4.3-15.5,2.1
		c-0.7-0.5-1.3-1-2.6-2.2c-4.5,4.6-8.9,9.2-13.6,13.7c-2.8,2.7-5.7,5.3-8.9,7.4c-3.9,2.5-8.3,4.2-12.5,6.4c-1.1,0.6-2.6,1.3-3.1,2.3
		c-4,7.9-11.8,8.2-19.1,9.4c-2.1,0.3-4.3,0-6.5,0.1c-4.6,0.3-8,2.4-11.5,5.8c-5.6,5.3-12.3,9.5-18.9,13.7c-5.2,3.4-10.8,6.2-16.3,9
		c-1.9,0.9-4.2,1.4-6.3,1.5C3146.4,1011.4,3141.4,1011.3,3136.1,1011.3z"/>
	<path class="st0" d="M522.8,534.5c-4.5,7.7-11.5,8.4-19.2,7.8c-1.8-0.1-3.6,0.3-5.4,0.8c-20.5,5.6-41.1,11.2-59.7,21.9
		c-0.9,0.5-2.1,0.8-3.3,1.3c1.6-5.7,9.8-15.3,14.8-17.1c25.4-9.5,50.8-18.9,76.1-28.3c11.5-4.3,23-8.6,34.5-13.2
		c16.8-6.7,34.1-11,51.9-13.9c18.5-3,36.9-6.9,55.4-10.4c13.6-2.6,13.6-2.6,22.5,6.5c7-6,13.9-12.1,20.9-18.2c4.6-4,9.1-8.4,14-12.1
		c6.8-5.2,11.2-12.1,15-19.6c3.5-6.7,7.3-13.3,11.3-20.6c1.8,6.1,2.2,11.1-1.7,15.8c-5,6-7.4,13.2-8.8,20.9c-0.3,1.8-1.8,3.7-3.3,5
		c-5.4,4.6-10.9,9.1-16.6,13.4c-1.9,1.5-4.2,2.6-6.4,3.8c-9.4,5.1-16.9,11.5-19.9,22.7c-5.2,19.1-19.3,28.9-37.8,33.8
		c-12,3.2-23.9,6.1-36,0.6c-6.2-2.8-12.3-5.8-16.4-11.6c-1.9-2.7-4.3-5.1-6.6-7.5c-3.8-4-8.4-4.8-13.5-2.2c-6,3-11.7,5.3-18.5,2.1
		c-1.6-0.8-4.6,0.4-6.5,1.5c-5.1,2.8-9.3,6.3-12.4,11.8C542.3,538.4,532.4,540.3,522.8,534.5z"/>
	<path class="st0" d="M603.1,973.5c-6.8-12.5-13.6-25-20.4-37.5c-19.4-35.8-38.6-71.7-58.5-107.2c-5.3-9.5-12.7-17.9-19.1-26.8
		c-1-1.5-2-2.9-3.6-5.1c3.4,0,6.1,0.1,8.8,0c5.2-0.2,10.5-0.3,15.7-0.8c10.5-1,19.5-5.7,28.2-11.1c0.9-0.6,2.4-0.5,3.5-0.3
		c1.8,0.3,3.5,1,5.3,1.5c8.4,2.2,12.5,10.2,9.4,18.6c-2,5.4-4.8,10.5-6.4,16c-1.3,4.7-1.3,9.4-5.7,13.1c-2.8,2.4-0.3,9,2.9,11.4
		c1.5,1.1,2.3,3.4,3,5.3c1,2.7,1,6,2.5,8.3c1.7,2.5,4.8,4.1,7,6.3c1.8,1.8,3.8,3.8,4.8,6.1c1.3,3.1,2.9,4.2,6.1,2.9
		c2.8-1.1,4.6,0.1,5.5,2.6c1.2,3.6,2.2,7.3,3.3,10.9c0.4,1.4,0.5,3.4,1.5,4.1c8,5.5,7.1,15.1,9.9,22.7c3.2,8.7,3.2,18.7-0.6,28.1
		c-2.2,5.4-3.8,11.3-4.5,17c-0.4,3.4,1.4,7,2.2,10.5c0.2,0.9,0.3,1.9,0.4,2.9C603.8,973.2,603.5,973.4,603.1,973.5z"/>
	<path class="st0" d="M2974.4,521.8c-2.2-0.3-4.4,0.1-5.2-0.8c-4.1-4.6-9.3-4.9-14.9-4.8c-38.1,0.4-76.2,0.6-114.3,0.8
		c-1.2,0-2.4,0.3-3.5-0.1c-1.2-0.4-2.3-1.3-3.4-2c1.2-0.9,2.3-2.5,3.5-2.5c7.5-0.3,15-0.2,22.5-0.2c13.2,0,26.3,0,39.5,0
		c20.1,0.1,40.3,0.5,60.4,0.1C2965.9,512.3,2970.8,513.9,2974.4,521.8z"/>
	<path class="st0" d="M1998.1,415.9c0.3,1.3,1.1,2.8,0.7,4c-0.4,1.3-1.6,2.9-2.8,3.2c-9.5,2.9-19,5.7-28.6,8.4
		c-23.1,6.6-46.1,13.2-69.2,19.6c-1.5,0.4-3.3-0.7-5-1.1c1.2-1.3,2.2-3.3,3.6-3.7c32.2-9.4,64.5-18.5,96.8-27.8
		c0.8-0.2,1.6-0.4,2.4-0.6C1996.7,417.2,1997.4,416.6,1998.1,415.9z"/>
</g>
</svg>
