<?xml version="1.0" encoding="utf-8"?>
<!-- Generator: Adobe Illustrator 23.0.3, SVG Export Plug-In . SVG Version: 6.00 Build 0)  -->
<svg width="3840" height="1080" version="1.1" id="圖層_1" xmlns="http://www.w3.org/2000/svg" xmlns:xlink="http://www.w3.org/1999/xlink" x="0px" y="0px"
	 viewBox="0 0 3840 1080" style="enable-background:new 0 0 3840 1080;" xml:space="preserve">
<style type="text/css">
	.st0{fill:#70CCB8;}
</style>
<path class="st0" d="M1470,570.9c7.1,5.8,15.4,12.7,24.2,19.9c8.5-10.6,16.7-20.9,25.2-31.5c-9.3-7.8-18.3-15.4-27.3-23.1
	c-1.6-1.4-4.4-2.4-2-5.5c2.4-3,4.4-2.4,7-0.1c8.6,7.1,17.4,14,26.1,21c4.2,3.3,4.5,6.3,1.2,10.5c-1.7,2.2-3.6,4.3-6.1,7.4
	c4.5,2.5,8.6,4.8,12.6,7.1c1.6,0.9,3,2.1,4.4,3.2c6.3,5.2,12.6,10.4,18.9,15.5c6.4,5.3,6.6,5.8,3.9,14c-0.3,0.8-0.4,1.6-0.7,2.6
	c1.2,0.8,2.5,1.6,3.7,2.4c1.2,0.8,2.5,1.6,4.6,3c-3.6,4.7-7,9.3-10.8,14.2c0.8,0.6,1.9,1.6,3.1,2.3c19.9,12.8,39.7,25.5,59.6,38.4
	c8.6,5.6,17.8,5.4,27.3,4c12.2-1.8,24.6-2.4,36.5-5.1c16.5-3.7,33.5-6.6,47.7-17.3c7.3-5.5,14.9-10.7,23-14.9
	c7.6-3.9,16-6.2,24.1-9.2c22.3-8.2,44.5-16.3,66.8-24.4c1.1-0.4,2.2-0.7,4-1.3c0,2.1,0.1,3.9,0,5.6c-1,20.9-2.1,41.9-3.2,62.8
	c-0.1,1.2-0.6,2.7-1.5,3.4c-6.2,4.7-17.6,0.5-19.5-6.9c-2-7.9-4.1-15.7-1.9-24c0.4-1.5-0.3-3.7-1.2-5.1c-3.2-5.2-6.8-10.2-10.5-15.8
	c-3.2,1.3-6.9,2-9.4,4.1c-10.7,8.7-22.9,12.1-36.4,12.2c-0.8,0-1.7,0-2.5,0.1c-0.3,0-0.6,0.2-1.3,0.5c1.1,14-10.6,18.4-19.6,24.8
	c-1.5,1.1-5,0.4-7-0.5c-6.8-3.3-12.3-0.9-18.1,2.6c-2.9,1.8-6.7,2.2-10,3.4c-6.2,2.2-12.4,4.3-18.4,6.7
	c-10.4,4.2-20.7,8.6-31.1,12.8c-0.7,0.3-1.9,0.3-2.3-0.1c-4.6-5.3-10.8-3-16.4-3.4c-3-0.2-6-0.2-9,0c-4.1,0.3-7.7-0.5-11.2-3
	c-4.4-3.1-9.2-3.7-14.7-2.1c-7.4,2.2-14.2,1.9-20.6-4.2c-6.2-5.9-14.5-9.5-21.1-15c-10.7-9.1-22.3-16.8-34.7-23.1
	c-4.2-2.2-9.5-2.2-14.3-3.4c-1.6-0.4-3.7-1-4.3-2.1c-0.6-1.2-0.3-3.7,0.6-4.8c3.1-3.9,6.5-7.6,10.1-10.9c2.8-2.6,2.7-4.3,0-6.8
	c-3.4-3-6.5-6.2-9.6-9.5c-1.9-2.1-3.8-2.5-6-0.7c-1.9,1.6-4,3-5.9,4.6c-4.5,3.9-9.4,6.6-15.7,6.3c-6.7-0.3-13.1-0.4-18.5,5.1
	c-2.5,2.5-5.1-0.4-4.7-3c1.3-8.2-4.1-11.6-9.3-16.1c-15.5-13.1-33-22.4-52.4-27.7c-10.1-2.7-20.2-6.4-31.2-3.6
	c-7.7,2-15.7,3.2-23.7,4c-3.6,0.4-7.4-1.1-11.2-1.7c-3.7-0.7-7.7-0.9-11.1-2.3c-2.3-1-4.1-3.5-5.9-5.6c-2.7-3-5.3-6.1-7.8-9.3
	c-1.2-1.5-2.3-3.2-3.4-4.8c-3.7-5.2-7.4-10.5-11.3-15.6c-4.7-6.1-10.7-11.3-13.2-19c-0.6-2-2.1-3.8-3.5-5.4
	c-4.7-5.6-9.5-11-14.2-16.6c-3.6-4.3-7.5-8.4-10.6-13.1c-1.5-2.1-1.9-5.3-2-8c-0.2-5.4-1.2-10-6.6-12.8c-2.6-1.3-4.5-3.9-6.6-6
	c-4.4-4.5-9.8-6.2-16-6.8c-4.5-0.4-8.9-2-13.3-3c-4.1-1-8.2-2-12.3-2.8c-3.1-0.6-6.2-0.8-9.3-1.4c-3.8-0.7-6.5-0.4-10.5,2.3
	c-5.8,4.1-12.7,9.3-21.3,6.1c-2-0.8-4-1.4-6.1-2c-2.3-0.7-3.7-1.8-3.4-4.5c0.5-4.1-1.7-6.7-5-9c-3.7-2.6-7.1-5.7-10.5-8.8
	c-2.1-1.9-6.4-1-8.6,2.1c-2.5,3.5-11.6,4.7-14.9,1.8c-5.2-4.4-10.4-8.8-15.4-13.4c-3-2.8-6.3-2.9-9.6-1.4c-3.1,1.5-6.1,3.4-8.8,5.5
	c-9.6,7.8-19.8,4.8-26.4-1.9c-1.7-1.8-3.5-3.5-5.3-5.3c-4.4-4.4-9.8-5.2-15.4-2.8c-1.8,0.8-4.1,1-6,0.6c-12.1-2.5-24.2-3.4-36.5-3.3
	c-3.6,0-7.5-1.9-10.9-3.8c-1.5-0.8-2.4-3.4-2.7-5.3c-0.7-4.1-2.1-6.8-6.8-6.9c-6-0.1-11.9-0.6-17.9-0.7c-4.3-0.1-7.6,1.6-8.2,6.2
	c-0.9,7-5.7,10-11.2,13.1c-5.7,3.1-11.1,4.1-17.6,2.8c-15.8-3.2-30.8-2.4-44.6,7.7c-16.9,12.4-36.2,17.3-56.9,14.8
	c-5.5-0.7-10.6-4.4-16-6.7c0.2-0.4,0.5-0.7,0.7-1.1c11.2-3.1,22.4-6.1,33.5-9.5c32.6-9.8,65.1-19.9,97.7-29.6
	c4.1-1.2,8.5-1.6,12.7-1.7c19-0.1,38-0.1,57,0.3c20.8,0.4,41.6,0.7,62.3,1.8c30.7,1.6,60.8,6.9,90.5,14.9
	c25.4,6.8,51,12.4,76.4,19.1c6.4,1.7,12.5,5.2,18.2,8.7c11,6.8,22,13.8,32.5,21.4c5.4,3.9,10.5,8.7,14.5,14.1
	c14.2,19.1,27.8,38.6,41.8,57.8c1.5,2,3.7,3.8,6,4.7c23.8,10.1,49.3,14.3,74,21.1c5.9,1.6,11.8,3,17.9,4.5c1.5-7.3,2.9-14,4.3-20.8
	c1.1-5.1,3.1-6.5,7.9-5.2c13.4,3.6,26.9,7.1,40.3,10.7c6.3,1.7,7.2,5.1,3.2,10.1c-1.5,1.9-1.8,4.9-2.5,7.4
	C1473.5,558.4,1471.9,564,1470,570.9z"/>
<path class="st0" d="M2498.6,385.5c17.3-1.6,32.5,2.9,47.6,8c6.8,2.3,7.1,2.2,9.7-4.5c2-5.2,4-10.4,6-15.7c3.6,0.2,4.2,1.7,3.2,4.5
	c-1.6,4.3-3,8.7-4.4,13.1c-1.5,4.7,0.4,7.3,5.4,7.3c3.1,0,6.3,0,9.5,0c0.6-3.2,0.4-8.1,1.9-8.7c4-1.5,8.7-1.1,13.5-1.5
	c0.2,2.5,0.3,4.4,0.5,7.1c1.9,0,3.8,0,5.7,0c46.8,0,93.7,0,140.5,0c5.7,0,7.8,1.6,8.2,7.5c0.9,11.8,1.6,23.5,2.3,35.3
	c0.7,10.1,1.1,20.2,2.2,30.3c0.3,2.8,1.8,5.7,3.4,8.1c10.3,15.1,20.8,30.1,31.2,45.1c1.2,1.8,2.4,3.5,4,5.8c-3.8,3-7.4,5.9-11.3,9
	c-4.2-5.6-8.2-11-12.3-16.4c-6.3-8.5-12-17.6-19-25.5c-7.4-8.5-15.7-16.2-24.2-23.7c-2.5-2.2-6.7-3.3-10.1-3.3
	c-19.6,0.1-37.1-5.9-53.3-16.5c-0.3-0.2-0.6-0.3-0.8-0.5c-18.5-13.2-31-5.9-45.1,10.3c-3.2,3.6-6,7.5-9,11.2
	c-2.1,2.6-4.2,2.6-5.9-0.3c-5.9-10-11.9-19.9-17.5-30c-2.1-3.8-4.6-6.5-9.1-6.2c-4.9,0.3-9.2,2.2-10.2,7.7
	c-1.3,7.4-4.2,13.6-11.1,17.8c-5.1,3.1-10.1,2.6-14.1-1.7c-15.6-16.7-23.4-37.6-31.7-58.2C2502.2,395.9,2500.5,390.9,2498.6,385.5z"
	/>
<path class="st0" d="M1909.2,536.6c15.9-6.6,31.3-12.9,47.3-19.5c9.8,29.7,19.4,59,29.2,88.6c32.5-23.2,65.9-47.2,100.5-71.9
	c1.2,9.1,3,17.3,3.1,25.5c0,8.1,2.1,15.3,5.5,22.4c2,4.3,3.2,9,4.3,13.6c2.1,9-7.1,18-14.8,16.8c-2.1-0.3-4.3,0.1-6.5-0.1
	c-18-1.4-34.8,3.3-51.5,9.3c-12.3,4.4-21,2.2-28.6-8.5c-2.8-3.8-5.6-5.3-10.3-5c-15.3,1.1-29.6-3.6-43.2-9.9
	c-4.7-2.2-8.3-6.5-12.6-9.7c-4.8-3.5-9.5-7-14.6-10c-4-2.3-2.3-5-1-7.5c1.7-3.2,4.6-5.8,5.9-9c3.8-9.9-1.1-20.2-11.1-24.1
	C1910.3,537.5,1909.9,537.1,1909.2,536.6z"/>
<path class="st0" d="M577.3,501.1c6.9-1.3,13.8-2.5,20.8-3.9c17.2-3.5,34.4-7,51.5-10.9c7.4-1.7,14.1-1.9,19.7,4.2
	c0.8,0.8,1.9,1.3,3.1,2.2c8.4-7.5,16.6-14.9,24.9-22.3c5.7-5.1,11.5-10.1,17.1-15.3c1.7-1.5,3.1-3.5,4.1-5.5
	c5-9.7,9.8-19.6,14.8-29.4c1.3-2.4,3.1-4.6,4.5-6.7c0.4,5.4,1.2,10.5,1.1,15.7c0,2.8-0.9,6-2.4,8.2c-4.3,6.4-7.7,12.9-8.9,20.8
	c-0.4,2.5-2.9,4.7-4.8,6.8c-1.1,1.2-2.8,1.7-4.2,2.7c-10.2,7.6-20.5,15-30.3,23.1c-2.9,2.3-4.8,6.3-6.1,9.8
	c-3.1,8.5-6.5,16.8-12.8,23.4c-8.4,8.8-19.6,11.9-30.8,15.2c-10.7,3.2-21.2,4.3-31.6-0.3c-6.6-2.9-13.3-6-17.5-12.5
	c-1.3-1.9-3-3.6-4.6-5.3C579.6,515.7,577.3,509.9,577.3,501.1z"/>
<path class="st0" d="M1886.4,589.9c0.9,4.6,1.7,8.6,2.3,12.6c0.3,1.9,0.7,4.2,0,5.9c-2.6,7-2.1,13.6,0.9,20.3
	c1.4,3.1,3.8,7.4,2.7,9.6c-2.1,4.1-5.9,8.3-10.1,10c-13.2,5.4-25.7,11.1-32.6,25.1c-0.3-0.4-0.6-0.8-0.9-1.1c0-8.9-0.2-17.7,0-26.6
	c0.3-13.3,0.8-26.6,1.4-39.9c0.1-1.5,1-3.9,2.1-4.3C1863.6,597.5,1875.1,593.7,1886.4,589.9z"/>
<animate  accumulate="none" additive="replace" attributeName="stroke-dashoffset" calcMode="linear" dur="20s" fill="remove" from="0" repeatCount="indefinite" restart="always" to="1000">
	</animate>
</svg>
