<?xml version="1.0" encoding="utf-8"?>
<!-- Generator: Adobe Illustrator 23.0.3, SVG Export Plug-In . SVG Version: 6.00 Build 0)  -->
<svg width="3840" height="1080" version="1.1" id="Layer_3" xmlns="http://www.w3.org/2000/svg" xmlns:xlink="http://www.w3.org/1999/xlink" x="0px" y="0px"
	 viewBox="0 0 3840 1080" style="enable-background:new 0 0 3840 1080;" xml:space="preserve">
<style type="text/css">
	.st0{clip-path:url(#SVGID_5_);}
	.st1{fill:none;stroke:#FF8300;stroke-width:3;stroke-linecap:round;stroke-linejoin:round;stroke-dasharray:8;}
	.st2{clip-path:url(#SVGID_6_);}
	.st3{opacity:0.9;fill:none;stroke:#FB8300;stroke-width:3;stroke-miterlimit:10;enable-background:new    ;}
	.st4{fill:none;stroke:#FB8300;stroke-width:3;stroke-miterlimit:10;}
	.st5{clip-path:url(#SVGID_7_);}
	.st6{clip-path:url(#SVGID_8_);}
	.st7{opacity:0.9;}
</style>
<g>
	<defs>
		<rect id="SVGID_4_" x="0.4" y="-0.5" width="3840" height="1080"/>
	</defs>
	<clipPath id="SVGID_5_">
		<use xlink:href="#SVGID_4_"  style="overflow:visible;"/>
	</clipPath>
	<g class="st0">
		<g id="HKI_2019">
			<polyline class="st1" points="1897.8,431.1 1897.5,431.1 1897.2,431.1 1896.9,431.1 1896.9,430.8 1896.6,430.8 1896.6,430.5 
				1896.4,430.5 1896.4,430.2 1896.1,430.2 1896.1,429.9 1896.1,429.7 1896.1,429.4 1896.1,429.1 1896.1,428.8 1896.1,428.5 
				1896.1,428.2 1896.4,428.2 1896.4,427.9 1896.6,427.9 1896.6,427.6 1896.9,427.6 1897.2,427.4 1998.1,398.3 1998.4,398.3 
				1998.7,398.3 1999,398.3 1999.3,398.6 1999.6,398.6 1999.8,398.6 1999.8,398.9 2000.1,398.9 2000.1,399.2 2000.4,399.5 
				2000.4,399.8 2000.4,400 2000.7,400.3 2000.7,400.6 2000.4,400.6 2000.4,400.9 2000.4,401.2 2000.1,401.5 2000.1,401.8 
				1999.8,401.8 1999.8,402.1 1999.6,402.1 1999.3,402.1 1997,402.9 1898.4,431.1 1898.1,431.1 1897.8,431.1 			"/>
			<polyline class="st1" points="2936,446.8 2935.1,447 2934.2,447 2933.1,446.6 2929.4,446.4 2927.6,446.3 2926.2,446.2 
				2921.3,446.4 2919.8,446.6 2918.7,446.8 2915.7,447.5 2913.1,448.2 2910.1,449.7 2908.3,450.5 2906.2,451.8 2904.4,452.8 
				2902.3,454.4 2899,457.1 2897.4,458.4 2896.5,459.5 2895.6,460.3 2895,460.9 2894.1,461.1 2893.2,461.3 2892.4,461 2891.9,460.1 
				2891.9,459.5 2892.5,458.4 2893.1,457.9 2894.4,456.8 2895.9,455.4 2897.4,454.1 2899.3,452.5 2900.5,451.4 2902.3,450.1 
				2903.8,449 2906.8,447.5 2908.6,446.8 2910.4,446 2911.8,445.5 2914.8,444.3 2916.3,444.1 2917.7,443.6 2919.2,443.4 
				2920.6,443.2 2922.1,443 2923.8,442.8 2925.8,443 2927.8,443.1 2930.4,443.3 2932.4,443.4 2934.2,443.5 2935,443.6 2935.9,443.9 
				2936.4,444.2 2936.7,444.8 2936.9,445.4 2936.9,446 2936.5,446.8 2936,446.8 			"/>
			<polyline class="st1" points="2877.9,458 2877.3,458 2876.2,457.6 2869.4,463.8 2869.1,463.8 2868.9,463.2 2875.9,457 
				2875.9,456.5 2876,456.2 2876,455.6 2877.8,454 2879.1,452.9 2880.6,451.6 2882.4,450 2884.2,448.6 2885.5,447.3 2886.7,445.9 
				2888.9,444 2890.7,442.4 2892.5,441.1 2893.7,440.3 2894.9,439.8 2895.5,439.8 2896,440.2 2896.6,440.8 2896.5,441.4 
				2896.2,442.2 2895.6,442.7 2894.9,443.6 2894.1,444.1 2892.2,445.7 2890.4,447.3 2887.3,450 2884.3,452.4 2882.1,454.3 
				2880,456.4 2878.5,457.5 2877.9,458 			"/>
			<polyline class="st1" points="2923.3,428.4 2925.4,428.2 2927.4,428.4 2929.7,428.5 2931.1,428.6 2932.5,428.7 2935.1,428.9 
				2938,429.3 2941.7,430.1 2947.6,432.3 2950.1,433.3 2953.2,434.9 2961,438.9 3011.8,465.3 3018.7,469.2 3024.2,472.7 
				3026.2,474.3 3028.9,476.5 3030.3,477.7 3033.5,481.1 3037,485.4 3033.9,487.8 3032.1,485.3 3031,484.1 3029.1,482 3026.7,479.8 
				3022.6,476.3 3017.1,472.5 2986.1,456.1 2971.6,448.8 2950.4,437.6 2945.1,435.6 2940.3,434.1 2937.1,433.3 2934.3,432.9 
				2932.8,432.8 2932.3,432.7 2930.8,432.6 2929.4,432.5 2928.5,432.5 2926.2,432.6 2923.6,432.4 2922.5,432.7 2919.1,431.9 
				2917.9,431.5 2916.8,431.1 2915.7,430.5 2914.3,429.5 2912.9,428.9 2910.7,427.9 2909.5,427.5 2909.3,426.6 2908.8,425.7 
				2908.8,425.1 2909.1,424.6 2909.5,423.7 2910.1,423.2 2911.3,423.3 2912.7,423.7 2914.6,424.6 2916.6,425.6 2917.7,426.3 
				2918.5,426.6 2919.4,427.3 2920.5,427.6 2921.9,428 2923.3,428.4 			"/>
			<polyline class="st1" points="3172.2,579 3208.5,606.2 3211.7,613 3229.9,679.2 3230,681.2 3229.5,682.9 3245.1,701.6 
				3247.8,704.7 3262.3,721.7 3265.3,719 3262.8,704.7 3263.9,704.7 3266.5,719.6 3265.4,719.9 3262.6,722.3 3270.1,731.2 
				3293,758.3 3236.8,829.2 3269.3,868 3283.5,869.2 3324.3,834.6 3309,787.7 3322.5,770.8 3315.1,748.9 3310.8,741.8 3305.1,735.4 
				3305.6,733.7 3307.6,733.6 3314.8,742.6 3318.9,749.9 3326.6,772.9 3325.8,775 3345.6,836.2 3356.5,895.8 3387.3,864.4 
				3471.6,947.6 3475,949.2 			"/>
			<polyline class="st1" points="621.6,987.1 622.3,994.6 622.8,996.4 624.8,997.2 629.2,998.7 633.8,1000.4 637.2,1004.4 
				638.3,1005 640.1,1009.6 641.2,1011.9 641.8,1013.9 642.1,1016.8 642.7,1016.2 645.8,1018.8 645.3,1019.6 645.8,1023.7 
				646.4,1025.7 647.5,1027.7 649.6,1029.7 653,1034 657.6,1041.2 662.5,1048.4 670,1059 672.8,1062.2 673.1,1062.5 673.4,1063.3 
				673.7,1064.2 673.4,1064.8 673.7,1065.6 671.4,1067.4 689.8,1093.5 692.1,1092.1 693,1093.5 694.7,1094.7 696.1,1096.4 
				697,1098.4 703.3,1107 704.2,1107.3 708.2,1112.8 710.5,1116.8 726.9,1139.8 743.3,1165.4 745,1167.7 745.9,1170.4 			"/>
			<polyline class="st1" points="519.1,793.3 521.7,795.4 527.1,801.8 531.7,806.6 533.2,810.7 532.6,813 532.3,814.7 548.4,848.6 
				548.7,850.6 547.8,851.5 547.8,856.1 547.8,860.1 550.1,862.4 552.7,863.3 553.5,864.1 554.7,864.7 557,863.8 557.9,865.6 
				555.8,866.4 555.8,867.9 556.7,870.7 556.7,873.6 560.5,880.2 561.6,881.7 563.6,884.5 564.5,885.4 569.4,896 574.5,900.1 
				573.4,905.2 573.7,907 581.7,913 582.6,914.4 582.9,917.9 593.8,932 597.3,938.9 605,955.8 601,960.4 603,961.6 607.6,959 
				608.5,960.4 			"/>
			<polyline class="st1" points="3042.9,491.4 3036.8,493.1 3031.9,497.4 3031,496.8 3027,501.7 3010.1,504.4 3010.7,507.9 
				2985.3,508.5 2984.9,506.2 2981.7,506.6 2981.5,504.5 2959.7,511.5 2949.7,510.8 2938.4,511.8 2867.8,507.2 2866.6,507.2 
				2845.1,482.4 2837.9,473.9 2859.3,455.1 2858.5,454.2 2856.7,454.6 2855.2,456 2853.9,454.7 2855.7,453.1 2856.4,451.7 
				2865.8,443.4 2865.9,443.1 2865.9,442.8 2865.9,442.5 2865.6,442.2 2863.5,439.5 2863.2,439.5 2862.9,439.2 2862.6,439.2 
				2862.4,439.1 2862.1,439.4 2852.9,447.5 2850.8,448.2 2849.3,449.3 2837.5,435.8 2839,434.7 2839.7,432.8 2849.5,424.2 
				2849.5,423.6 2849.3,423.3 2846.9,420.3 2846.6,420.2 2846.3,420.2 2846,420.2 2845.7,420.2 2836.2,428.5 2834.5,429 
				2832.9,430.6 2783.8,374.4 2726.2,341.7 2630.8,323.3 2535.9,277.3 2512.9,270.4 2504.1,263.5 2494,255.7 2479.4,248.9 
				2464.8,244.4 2451.3,238.8 2433.4,231 2417.6,225.4 2404.2,223.1 2379.4,217.5 2367.1,217.5 2357.4,217.2 2357.4,214.9 
				2356.3,213.8 2355.7,201.4 2355.4,201.1 2355.1,201.1 2354.8,201.4 2355.7,214.1 2354.8,215.2 2354.8,217.5 2346,217.5 
				2337.9,218.6 2333.4,222 2325.5,224.2 2315.4,227.6 2305.7,230.8 2304.8,225.6 2305.4,224.4 2304.8,222.1 2303.7,220.7 
				2301.1,208.6 2300.8,208 2300.5,207.8 2299.9,207.8 2296.5,208.3 2296.2,208.6 2295.9,208.9 2295.6,209.2 2295.6,209.5 
				2298.5,221.6 2297.9,223.9 2298.5,225.9 2299.6,226.7 2300.8,231.9 2295.6,232.9 2288.4,234.3 2281.5,236.2 2281.5,235.9 
				2282.7,233.3 2282.4,231.3 2280.9,229.6 2278.4,217.2 2278.1,216.9 2277.8,216.7 2277.8,216.4 2277.5,216.4 2277.2,216.4 
				2273.5,217.2 2273.2,217.5 2272.9,218.1 2272.9,218.4 2275.8,230.8 2275.2,233.1 2275.8,235.1 2277.8,236.8 2269.7,236.8 
				2259.4,236.8 2241.3,236.8 2225.8,236.8 2207.8,242.1 2190.7,246.7 2171.6,252.3 2154.7,257.9 2137.9,269.2 2122.2,281.5 
				2110.8,293.7 2109.9,293.4 2109.1,293.4 2108.2,293.4 2107.3,293.7 2106.2,294.3 2103,297.1 2075.1,323.3 2072.3,325.9 
				2054.4,344.6 2029.2,373.6 2018.8,385.4 2007.3,377.6 2006.2,376.8 2000.4,372.7 1999.8,372.7 1999.3,372.5 1998.7,372.7 
				1998.1,373 1997.8,373.3 1997.5,373.9 1997.3,374.5 1997.3,375 1997.5,375.6 1998.1,376.2 2029.2,397.2 2030.3,398 2029.2,400 
				2028.3,400.9 2029.2,403.2 2035.2,421.9 2033.4,429.8 2032.2,438.1 2029.2,446.2 2024.3,452.1 1975.4,465.6 1974,466.5 
				1968.8,465.9 1956.4,470.5 1940.3,483.4 1939.5,489.2 1909,509.9 1901.2,513 1898.7,511.9 1898.1,511 1896.9,507.6 1902.7,474.5 
				1903.3,470.2 1904.4,463.6 1905.3,460.2 1907.6,456.8 1907.6,453.4 1905.3,450 1902,448.9 1897.5,450 1894.1,451.2 1891.2,451.2 
				1883.7,433.7 1883.4,433.4 1883.1,433.1 1882.6,432.8 1882,433.1 1881.7,433.1 1881.1,433.7 1881.1,434 1880.8,434.8 
				1888.3,452.1 1881.7,454.1 1876.5,453.8 1874.5,456.1 1873.9,459 1871.3,460.1 1870.8,460.4 1861.6,458.1 1861.6,458.7 
				1869.6,461 1869.3,462.4 1870.8,463.6 1870.2,466.2 1870.8,471.6 1869.3,471.9 1869.3,475.4 1871.1,475.6 1871.1,480 
				1868.8,488.1 1849.5,502.7 1834.3,508.1 1827.7,489.7 1850.4,470.5 1850.9,469.9 1851.5,469 1851.8,468.2 1851.8,467.6 
				1851.5,466.5 1851.2,465.9 1850.7,465 1850.1,464.7 1849.5,464.4 1848.6,464.1 1847.8,464.1 1846.9,464.1 1846.3,464.4 
				1845.2,465.6 1842.3,467.9 1821.9,484.9 1791.7,489.5 1781.4,490.9 1774.2,492 1769.6,492.6 1760.1,494 1752.3,494.9 
				1748.9,495.5 1747.8,494 1746,478.8 1745.7,478.5 1745.7,478.2 1745.4,478.2 1745.2,478.2 1740.6,478.5 1740.3,478.8 1740,478.8 
				1740,479.1 1739.7,479.1 1739.7,479.4 1741.4,494.3 1741.4,494.9 1740.8,495.5 1740.6,496.1 1740.6,496.4 1716.7,498.9 
				1714.7,499.2 1713.3,499.2 1710.9,499.2 1710.1,499.2 1708.9,499.2 1708.1,498.9 1707.2,498.4 1706.3,497.8 1705.2,497.2 
				1704.6,496.4 1704.1,495.8 1703.5,494.9 1702.9,494 1702.3,492.9 1702,492 1701.2,479.1 1701.2,477.1 1702.6,477.4 1702.6,478 
				1703.8,478.5 1704.1,476.8 1702.9,476.5 1702.9,476.8 1702.3,476.8 1703.2,473.4 1703.8,473.6 1703.8,473.9 1704.9,474.2 
				1705.2,472.8 1704.1,472.5 1703.8,473.1 1703.5,472.8 1705.8,464.7 1705.8,464.1 1705.8,463.6 1705.5,463.3 1705.2,463 
				1707.5,462.4 1703.2,445.8 1702.9,445.2 1702.9,444.9 1702.6,444.3 1702.3,444 1701.8,443.5 1701.2,443.2 1700.6,443.2 
				1700,442.9 1699.4,442.9 1698.9,443.2 1698.3,443.5 1697.7,443.7 1697.4,444.3 1696.9,444.9 1696.6,445.5 1696.6,446 
				1696.6,446.6 1696.6,446.9 1698.9,455 1684.2,455 1683.4,454.4 1682.5,454.1 1681.3,453.5 1680.2,452.9 1678.5,452.4 
				1676.5,451.8 1673.6,451.2 1671.6,450.9 1668.7,450.9 1667,450.9 1665.5,451.2 1663.8,451.5 1662.4,451.8 1660.7,452.4 
				1658.9,453.2 1657.2,454.1 1655.2,455.2 1653.2,456.4 1652.9,456.7 1648.6,461 1648.3,461.3 1648,461.6 1648,461.9 1648,462.4 
				1648,462.7 1648,463 1648.3,463.6 1648.6,463.9 1648.9,464.1 1649.2,464.4 1649.4,464.4 1645.4,477.1 1643.4,478.8 1641.4,480.5 
				1639.7,482.5 1638.8,483.4 1637.9,484.9 1637.4,486.3 1636.2,488.3 1635.9,489.5 1634.8,491.2 1634.5,492 1633.1,494.3 
				1631.9,496.1 1629.6,498.9 1627.9,500.9 1625.6,502.4 1622.4,503.8 1619.8,505 1616.1,506.1 1611.8,507 1608.6,507 1605.2,506.7 
				1599.4,505.8 1589.1,503.2 1577.9,500.1 1577,500.1 1568.1,499.5 1559.5,499.5 1557.7,499.2 1555.7,498.6 1553.7,497.5 
				1551.4,496.1 1549.4,494.3 1546.5,491.2 1543.9,490.9 1541.9,490.6 1537.6,490.3 1534.8,490 1532.7,489.7 1527.6,489.2 
				1520.4,487.7 1511.8,486 1509.2,487.4 1502.3,484.6 1498.8,483.4 1495.7,482.3 1488.8,479.4 1486.2,478.5 1483.9,477.4 
				1477.8,475.1 1447.9,463 1447.4,460.4 1447.1,460.4 1442.5,457.5 1438.2,454.7 1434.1,443.2 1447.9,438.6 1448.5,438.3 
				1448.8,438 1449.1,437.7 1449.4,437.4 1449.4,437.1 1449.7,436.8 1449.7,436.6 1449.7,436.3 1449.4,436 1449.4,435.7 
				1449.1,435.4 1449.1,435.1 1448.8,434.8 1448.5,434.8 1448.2,434.5 1447.9,434.5 1447.7,434.5 1447.4,434.5 1447.1,434.5 
				1433,439.4 1428.1,425.9 1442.2,421 1442.8,421 1443.1,420.8 1443.3,420.2 1443.6,419.6 1443.6,419.3 1443.6,418.7 1443.3,418.5 
				1443.1,417.9 1442.8,417.6 1442.5,417.6 1441.9,417.3 1441.6,417.3 1441,417.3 1427,422.2 1423.5,413.3 1429.6,398.9 
				1423.8,396.6 1417.8,411 1415.8,412.1 1406,407.8 1404.2,407.1 1404.3,406.7 1403.7,404.9 1409.4,390.9 1409.4,390.6 
				1409.4,390.3 1409.1,390 1404.5,388 1404.3,388 1404,388.3 1403.7,388.5 1397.9,402.6 1396.5,403.5 1396.2,403.8 1383.8,398.9 
				1384.1,398.6 1383.3,397.2 1388.7,382.5 1388.7,382.2 1388.7,381.9 1388.4,381.9 1388.2,381.6 1383.8,380.2 1383.6,380.2 
				1383.3,380.2 1383,380.2 1383,380.5 1377.5,395.2 1376.4,395.7 1376.1,396.3 1363.4,392 1363.7,391.4 1362.9,390.3 1367.5,375.3 
				1367.5,375 1367.5,374.8 1367.2,374.5 1362.9,373.3 1362.3,373 1362,373.3 1361.7,373.3 1361.7,373.6 1357.1,388.5 1355.7,389.1 
				1343,385.4 1342.2,384 1346.2,369 1346.2,368.7 1345.9,368.7 1345.9,368.4 1345.6,368.4 1341,367 1340.7,367 1340.7,367.3 
				1340.4,367.3 1340.2,367.6 1336.4,382.5 1335,383.4 1322,380.2 1321.2,379.4 1325.5,363.5 1324.9,363 1320,361.5 1319.2,362.1 
				1315.1,377.3 1314,378.2 1301.3,375 1300.5,373.6 1300.2,373.6 1304.5,357.8 1298.8,356.4 1294.4,372.2 1293,372.7 1288.4,371.6 
				1287,369 1279.8,367 1283.8,352.3 1281.5,351.8 1249.9,384.5 1245.3,389.1 1238.4,384.5 1236.4,384.2 1235.8,383.1 1235.5,381.4 
				1203.9,373.3 1203.6,372.7 1206.5,361.8 1207.3,361.3 1213.4,363 1213.7,362.1 1214,362.1 1214.5,360.4 1215.1,360.7 
				1214.8,362.4 1219.1,363.5 1222,361.8 1222.9,359 1221.2,355.8 1216.8,354.6 1216.3,356.6 1215.4,356.4 1216,354.6 1215.7,354.4 
				1216,353.5 1209.7,351.8 1209.4,351.2 1212.2,340.3 1212.8,340 1217.7,341.4 1218.3,339.1 1219.1,339.4 1218.6,341.4 1220,342 
				1220.6,340 1221.7,340 1221.2,342.3 1224.3,343.1 1227.5,341.4 1228.3,338.5 1227.8,337.7 1212.5,333.4 1180.3,324.7 
				1179.5,325.3 1178.6,328.2 1180.3,331.4 1201,336.8 1201.3,334.8 1202.2,334.8 1201.6,337.1 1203.3,337.4 1203.9,335.4 
				1204.8,335.7 1204.2,337.7 1209.1,339.1 1209.4,339.7 1206.5,350.3 1205.9,350.9 1182.6,344.6 1182.3,345.4 1181.8,347.2 
				1180.9,347.2 1181.2,345.1 1177.2,344 1176.9,344 1173.7,345.7 1173.1,348.6 1175.2,351.8 1179.2,352.9 1179.8,350.9 
				1180.6,351.2 1180.3,353.2 1180.3,354.1 1186.4,355.5 1186.9,356.4 1184.1,367.3 1183.2,367.9 1168.3,363.8 1167.1,364.4 
				1166.3,364.1 1146.7,339.4 1049.8,313.5 932,309.5 899.2,318.4 896.9,310.1 894.9,310.7 896.9,319 888.6,321.3 887.7,317.8 
				886.6,318.1 885.4,313.5 886.6,313.2 886.3,313 883.1,313.8 883.1,314.1 884.3,313.8 885.4,318.4 884.5,318.7 885.4,322.1 
				858.4,329.6 856.1,321 852.9,321.9 854.9,330.5 835.1,335.7 832.8,327.3 829.7,328.2 832,336.5 816.1,340.8 813.8,332.5 
				810.7,333.4 813,341.7 795.4,346.6 736.8,337.1 735.9,344.3 797.7,354.1 804.1,377.1 749.5,368.4 687.7,427.4 658.6,455 
				641.4,471.6 631.7,481 605.4,484.4 604.8,480.2 608.2,479.7 607.6,476.5 598.1,478.1 598.6,481.3 601.7,480.8 602.3,484.8 
				595.5,485.6 580,488.7 570.8,491.2 569,484.7 566.4,485.4 568.4,493.3 564,494.4 554.8,496.9 540.4,500.7 526.9,504.3 
				522.8,490.1 549.3,474.6 546,468.9 513.7,487.7 517,493.8 520.4,506.1 448,525.7 443.5,531.7 434.9,560.8 			"/>
			<polygon class="st1" points="1200.2,372.4 1187.2,368.6 1186.6,368 1189.8,357 1190.3,356.4 1203.4,359.9 1204,360.7 
				1201.1,371.8 			"/>
		</g>
	</g>
</g>
<g>
	<defs>
		<rect id="SVGID_3_" x="0" y="0" width="3840" height="1080"/>
	</defs>
	<clipPath id="SVGID_6_">
		<use xlink:href="#SVGID_3_"  style="overflow:visible;"/>
	</clipPath>
	<g class="st2">
		<g id="Pre1900_HKI">
			<path id="Pre1900_HKI-2" class="st3" d="M728.2,1203l3.6-3.6l2-4l2-6l2-2l-4-2l4-4l4-4l2-4l4-6h2.6l1.4-5.9v-4l2-4l2-2l2-5.9
				v-13.9l6-5.9v-7.9l2-6v-11.9l-4-2v-5.9l-2-2l2-4l-2-4h-2l-2-4l-4-2l2-5.9v-11.9l-2-2l-4-2v-4l-5.9,2l-6.8-2l-3.1,2h-4l-2-2l-2,2
				l-4-2v-3.8l2-4.1l-4-4v-3.2l-4-4.7l-2-4l-4-2l-2-4l4-5.9l4-4l4-5.9l-2-6l-2-4l-2-4v-7.9l2-4l-4-4l-2-5.9v-6l-2-4l-2,5.9h-5.8
				l-4-2l-2,2v7l-2,2l2,4l-2,3.8l-5.9,0.1l-2,2l-2,5.9l-2,4l-4,2l-4,2l-4,2l-6,2v6l-4,2l-2-2v-3.4l-4-2.5h-7.6l-4-5.9h-4l-2-2l-4,2
				l-2-2l-2-4l-4-2v-5.8l-2-2.1l-4-6l-4-6l-2-2v-6.5l2-3.4l-2-4l4-5.9v-7.9l-2-6l2-5.9l4-2l-2-6v-6l2-5.9l2-4l4-4l2-5.9l-4-4l-2,2
				v-7.9l4-4l-2-4l2-2v-4l-4-2v-4l-2-4h-4l-4-3.9v-4l-4-2l-4-2l-4-2l-2-4v-5.9l-4-2l2-4l-2-2l2-4v-9.9l2-6l4-4v-2l-4-4v-9.9l-6-5.9
				l-4-4l-4-2l-4,4v5.6l-2,2.3l-2,4l-4,2l-2,4l-4,2h-6l-5.9,2l-4-2h-4l-6-4h-11l-9.9-2l-5.9-2h-4l-4-6h-5.9l-2-4l-2-2l-5.9-2l-2-2
				l-6-2l-2-2l-4-2V767l-4-3.6l2-5.9l-2-3.6l-2-2.4h-4l-4-4l-2-4l-2-2l-6-2l-2-4l-5.9-7.9h-4.2l-3.7-2l-2-4l-4-2l-4-4l-4-2l-4-2
				l-4-2h-3.5l-2.4-2l-4,2l-4-4l-6-2l-2-4l2-7.9l-2-4v-3.2l-2-2.3l2-4l-4-2l2-5.9l-6-2l4-6l2-7.9l6.6-5.9v-7.9l2-5.9l2-6v-5.9l5.9-4
				v-5.9l-2-4l2-4v-6l4-2l5.9-4l6-7.9l4-2l4-6l2-4l4-5.9l2-6l4-4l4-6l11.6-9.4l7.9-4l4-6l7.9-2l4-2l13.9-2l4-2l5.9-2l6-4l13.9-2
				l7.9-2h9.5l10.3-2h7.9l9.9,4l9.9,2h17.8l7.9,2l7.9,2l4,2l6,4l5.9,2l7.9,2h7.7l7.9-2l7.9-2l6-2l5.9-2l9.9-6l6-5.9l4-6l4-7.9l2-5.9
				l2-6l4-4l4-4l6-4l7.9-4l5.9-6l4-4l4-2l6-4l2-9.9l2-6l4-6l4-5.9v-9.9c2,2-2-4-2-4l2-6l4-4h7.9l5.9,2l7.9,2l13.9,2l7.9,6l5.9,2
				h21.8l9.9-2l6-2l7.9-4l7.9-4l6-4l5.9-4l6-2l7.9-2h11.9l5.9,5.9l4,2l6,2h7.9l7.9-2l7.9-4l2-5.9l2-6l2-2l4-2h13.9l6,2h4l2,6v4l4,4
				l5.9,2h23.8l6,2h4l7.9,2h11.9l4,2l2,2l2,4l4,2h4l4,2l2,2h7.9l4-2l4-2l2-2l4-4l4-2h2l4-2l4-2l2-2h2l4,2l5.9,4l4,4l7.9,6l5.9,5.9
				l6,4l5.9,5.9h11.9l2-4l4-2h4l2,4l6,4l5.9,4l2,4v6l6,2l6,2h4l4-2l4-2h2l4-2l2-4h6l5.9,2h11.9l7.9,4l4,2h9.9l5.9,2l4,2l2,2l2,2l4,4
				l6,4l2,6v7.9l2,4l5.9,5.9l2,4l4,4l4,4l2,4l2,2l4,4l4,6l2,5.9l4,4l4,5.9l6,6l4,4l2,4l2,4l2,4l5.9,4l4,7.9l4,4h5.9l6,2h6l4,2l4-2
				h13.9l4-2l9.9-2l9.9,2l9.9,2l11.9,4l9.9,4l9.9,4l6,4l7.9,6l7.9,5.9l7.9,6l2,4v8l2,1.9h-1.4l2.2-2l2-2l5.9-2h13.9l4-2l4-2l4-4
				l5.9-4h2l2,2l2,2l4,4l2,2l4,4v2.5l-6,5.4l-4,4l-4,5.9l2,4h7.7l8.2,2l6,4l4,2l4,2l6,4l4,2l4,4l2,2l7.9,5.9l6,4l6,4l5.9,4l4,4l4,2
				h9.4l5.9-2h4l5.9,2l6,4h26.9l4.8,4l7.9-2l4-2l5.9-2l4-2l6-2l7.9-6l5.9-2l7.9-2h5.8l6-4l4-2l4-2l13.9,4l13.9-9.9l6-7.9v-7.9h11.9
				l19.8-5.9l9.9-7.9l7.9-2l11.7,16.9l-2,11.9l4,17.8l4,4h11.9l7.9-3.5l7.9-8.3l6-7.9l5.9-2l13.9-5.9l9.9-9.9l-5.9-15.8v-7.9l2-6v-4
				l-2-6v-4l1.3-6.3l1.4-3.6l1.6-1.6l3.2-3.2l4.8-4.8l3.2-4.8l1.6-4.8l1.6-4.8l-1.6-3.2l-3.2-3.2l-1.6-3.2l-1.6-4.8l1.3-3.5l4-2l6-2
				l5.9,2l5.9,6l2,9.9v4l-2,6l-4,4l-2,4v4l5.9,2l5.9,4l7.9,7.9l7.9,5.9l9.9,4l11.9,4l11.9,2h15.8l6,7.9l7.9,6l5.9,2l9.9-2l9.9-4
				l9.9-2l13.9-4h29.7l7.9-6l2-7.9l-2-9.9l-4-7.9l-4-9.9v-14l-2-11.9l-2-11.9v-15.9l-2-15.9V486l-2-15.9l-2-17.8l-2-9.9v-11.9l2-7.9
				l5.9-6l13.9-17.8l11.9-13.9l23.8-27.7l9.9-11.9l7.9-6l7.9-4h7.9l9.9,2l7.9,2l9.9,2l7.9,2h21.8l7.9-2l9.9-2l13.9-4l13.9-4l13.9-2
				l15.9-2h17.8l11.9-2l7.9-2l9.9-4l11.9-5.9l15.9-7.9l11.9-4l12.5-2h17.2l5.9,2l7.9,4l11.9,6l15.9,5.9l10.9,5.8l4.9,4.1l2,4l2,11.9
				l4,17.8l4,17.8l4,13.9l4,13.9l4,13.9l5.9,13.9l7.9,15.9l7.9,11.9l4,6l4,4h5.9l5.9-4l4-4l2-5.9v-4l4-5.9l4-4l5.9-4l4-2l4,2l2,4
				l4,5.9l5.9,9.9l4,7.9l4,5.9l4,2h4l2-4l2-6l4-5.9l7.9-7.9l5.9-4l5.9-2h5.9l7.9,4l9.9,6l7.9,4l5.9,5.9l9.9,4l9.9,2l11.9,2l15.9,6
				l9.9,7.9l4,6l11.9,15.9l5.9,9.9l7.9,9.9l5.9,9.9l6,9.9l9.9,9.9l11.9,7.9l15.9,9.9l17.8,7.9l13.9,4l15.9,4l7.9,5.9l7.9,11.9l6,9.9
				l7.9,11.9l5.9,9.9l4,4l5.9,4l7.9,4l6,6l5.9,4l4-2l5.9-5.9l4-4l2,6l4,2h6l4,4l5.9,4h5.9v-14.1l4-4l5.9-6l4-5.9l-4-2l-5.9-7.9
				l-4-11.9v-11.8l2-13.9l7.9-11.9v-13.9l-2-9.9l-4-11.9v-9.9l5.9-7.9l9.9-6l7.9-2h5.9l7.9,2l5.9,7.9l5.9,7.9l7.9,5.9l9.9-2l4,2l4-2
				l-2-5.9l-2-4v-19.7l-4-7.9v-6l5.9-4l9.9-2h7.9l4,5.9l6,4l4,6l4,4l7.9,6l7.9,5.9l7.9,6l5.9,6l9.9,7.9l7.9,6l7.9,2l6,2l2,4h6.6l4,4
				l4,2l4,2l4,4l-7.9,2l-2,2l4,2h5.9l4,2l4,6l-2,2l-2,4l-2,4l-2,4v4l-4,2l2,4l-2,4l-2,4l-4,2v4l-4,4l-6,2l-4,4l-5.9,2l-2,2l-5.9,2
				l-4,2v5l-2,7.9v7.9l2,5.9l2,2l4,4l6,4l4,2h4v4l-2,4l4,2l4,4l4,4l2,5.9l4,6l5.9,4l6,4l5.9,2l6-2h5.9l4-2h17.8l4-2l2-4v-4l4-2l2,2
				v4l-2,2l2,2h4l2,2l-2,2l2,2l2,2l-4,2l-2,4l-2,2v4l-5.9,2l-2,2l-6,2l-4,4h-4l-4-4l-4-4l-2,4v4l2,4l2,2l-2,4h-2l-4-2l-4,4v4l-2,2
				l-4,4v2l-2,6l-2,4l-2,6l-4,2v9.9l-2,2l-2,4l-2,6v4l2,4l-5.9,2l-2,2l2,4l-2,2l-2,4v5.9l-4,6l4,2l-2,2l4,2l2,4l-4,2l2,4l-4,2l-2,2
				l2,2l-6,4v4l-2,4l-2,5.9l-4,2v4l-6,2l-2,6l2,5.9l-4,6l-2,4l4,2v6l-4,4l-2,4l2,6l4,5.9l6,6l4,2l5.9-2l4-2l4,2l2,4l-2,4v7.9l-2,6
				l-6,2l-2,6l-4,4l-6,2h-7.9l-4-4l-4-4v-4l2-4h4v-4l-4-2l-4-4l-4,2l-2,2l-4-2l-2-4l-2-6l-2-4l1.4-2.5l-1.4-3.5l-4-2h-5.9l-4-4l-2-4
				v-4l-4-4l-2-4l-5.9-2l2,4l4,4l2,5.9l2,2v5.9l-4,4h4l3.3,1.5l0.7,6.4l2,2l-4,4v4l2,2v6l2,4v4.2l4,4l5.9,4h6l2,2l2,5.9l2,2l2,4
				l-2,4l2,2l2-2l4-2l2,4l5.9,2v2l-2,4l-2,4l2,4l4-6l5.9-2h6l4,5.9l4,4l5.9,2l4,2l5.9-4l6-4l2-5.9l5.9-6l7.9-4l5.9-6l11.9-2h7.9
				l2-7.9l4-6h7.9l7.9-2l5.9-4l4-4l0,0l6-4l4-4l5.9-2h5.9l4-2l4-2l2-4l4-4h2l5.9-4l4-6l4-5.9l4-2h9.9l4,2l2,2l4,4l2,2h4l4,2l2,2l2,2
				l2,4l2,2l2,4l2,4l2,2l2,4l2,2l2,4v11.8l4,2l2,2l2,2l4,2l2,2l2,2l2,2v7.9l-2,2l-2,2l2,4l4,2v9.9l-2,2l-2,4v4l-2,2l2,2l4,2v2l-4,4
				l-2,4l-2,4v2l2-2l4-4l2-2l4-2h25.8l6-2h17.8l4-4l4-4l4-2h2l2-6v-11.9l2-4l-2-4l-2-6l2-4v-12l-2-7.9v-4l2-4v-4l2-2l9.9-2l2-2
				l5.9-4h4l4-4l4,2h4.7l4,4l2,2l4,2l5.9,2l4,4l2,6h2l4,4v4l2,6l4,4v4l2,4l4,2v4l2,6l4,4l2,4h5.9l4,2l5.9,2l7.9,4h7.9l4,2l4,2l2,4h4
				l4,2l4,4l-2,2l-4,2l-5.9,2l-4,2l-4,2l-5.9,2h-6l-4,2l-4-4h-2l-2,4l-2,2l-4-2l-2-2l-4,2h-4l-2,4v13.9l2,9.9v6l2,4v2l2,5.9v4l4,4
				v11.9l-2,4v9.9l2,4l2,4l2,2h4l2,4l5.9,2l4,2l2,2l-2,4l6,2l2,2v4l2,2l2,4l-5.9,2l-4,4l-4,3.4v6.5l-4,4v6l-2,5.9l-1.8,3.6"/>
			<polygon id="Pre1900_Kettle_Is." class="st4" points="1872.3,483.4 1876.2,479.4 1879.7,481.4 1879.7,486.5 1884.2,487.4 
				1886.1,491.3 1884.2,495.3 1884.2,499.3 1882.2,501.2 1879.2,507.4 1874.2,505.2 1870.3,505.2 1867.3,507.4 1864.3,507.2 
				1866.3,503.2 1870.3,501.2 1870.3,497.3 1867.8,493.4 1868.3,489.3 1870.3,487.4 			"/>
		</g>
	</g>
</g>
<g>
	<defs>
		<rect id="SVGID_1_" x="0" y="0" width="3840" height="1080"/>
	</defs>
	<clipPath id="SVGID_7_">
		<use xlink:href="#SVGID_1_"  style="overflow:visible;"/>
	</clipPath>
	<g class="st5">
		<g id="Pre1900_Kln">
			<path id="Pre1900_KLN-2" class="st3" d="M4709.2,983.4h-11.9l-9.9-2l-7.9-4l-5.9-2l-6-4l-7.9-4l-5.9-5.9l-4-4l-4-4h-7.9l-4-2
				l-2-2.6v-5.4l-2-5.9l-6-7.9l-7.9-4l-5.9-2h-4l-4,2l-4,4l-2,2l-2,4v13.9l-2,2l-4,4h-2v4l2,2l2,4l2,2l-2,2l2,4l2,4v4l2,5.9l-2,6
				l4,2l2,5.9v9.9l-2,6l-2,4l2,6l2,5.9l6,4.2v3.7l-4,5.9l-5.9,7.9l-6,7.9l-4,6l-6,5.9l-5.9,2l-7.9,2h-7.6l-4-2l-4-4l-6-2l-4-4h-7.9
				l-4-2l-4-2h-7.9l-4-2v-4l2-4l2-4l4-4.4v-5.5l-2-6l-4-5.9l-7.9-6l-4-5.6v-6.3l-4-5.9l-2-6l-6-5.9l-4-6l-2-4l-4-6l-4-7.9l-4-7.9
				l-6-4l-5.9-4l-6-4l-7.9-4l-5.9-2l-7.9-2h-7.9l-5.9,2l-7.9-2l-5.9-2l-4-4l-4-4h-6l-5.9-2l-6-2l-5.9-4l-6-4l-9.9-6.5l-2-5.4v-6l2-4
				l-2-4l2-5.5v-6.4l-2-6v-4l2-6.2v-12.9l-5.9-7.9l-7.9-4l-7.9-2h-5.9l-6,2l-5.9,4h-6l-7.9-4l-7.9-6l-9.9-2h-31.7l-13.9,2l-17.8-2
				l-4-2l-4-4l-5.9-4h-6l-7.9-4l-4-6h-4l-6-2l-5.9-2l-2,2h-4l-4,2l-4,4v4l-2,6l2,5.9l2,4l4,4v5.9l4,4l4,5.9l2,7.9l4,6l2,5.9l-2,4
				l-2,6l-5.9,4h-6l-7.9,2l-7.9-0.2l-4-1.8l-4,2l-4,2l-2,5.9l-2,6l-5.9,5.9l-4,6v4l-4,6l-4,4l-4,6v13.9l2,5.9l4,4l4,2l4,4v5.5
				l-4,5.9l-2.6,2h-5.3l-4-2l-4-2l-2-2l2-4l4-2v-4l-2-7.9l-2-9.9l-7.9-6l-5.9-2l-9.9-4l-6-4l-5.9-4l-2-6l-4-4l-4-6l-4-7.9l-4-6
				l-2-5.9l2-6v-17.4l-2-5.9l-2-6l2-7.9l2-7.9l2-9.9v-6l2-4l5.9-2v-21.8l-4-9.9l-4-9.9l-5.9-11.9l-4-13.9l-4-4l-2-6v-5.8l2-4v-7.9
				l2-5.9l4-7.9v-21.8l2-7.9l2-6v-6l4-5.9v-6l4-7.9l2-4l5.9-2l4-4l4-2h9.9l4,2l4,2h5.9l2-4l4-4l4-5.9l6-6l-4-2v-2h4l4-2l4-2l4-2l4-2
				l4-2l2-4l4-4l4-5.9l2-4l2-5.9l2-6l-2-4v-4h-4l-5.9-2l-2-0.7v-3.3l-4,2l-3.4,4h-1.9l-2-4v-2l2-4l-4-4l-2-5.9v-4l4-4l2-4v-4l-4-7.9
				l-2-6l-4-5.9l-4-6l-5.9-7.9l-4-4l-4-4l-4-2l-4-2h-4l-4,2h-4l-2-2l-2-4h-5.9l-2,4v2l-2,2l-4,2h-4l-5.9,2h-11.9l-2.6,2h-5.3l-2-2
				l-2-4l-4-6l-2-4v-4l-2-4l2-4v-7.9l-2-4l-2-4v-7.9l2-4l2-4l4-4l5.9-4l4-4l2-6v-10.5l2-7.9l2-5.9V383l2-6l2-4l6-4l5.9-4l5.9-5.9
				l4-4l2-7.9l2-7.9l2-7v-6.7l-2-6l-2-5.9l-2-6v-5.9l-5.9-4v-4l2-4l-2-2l-6.9-1l-5.9-4l-8.9-6.9h-6l-5.9-1l-4,1l-4,2h-4l-4-2l-2-2
				l-2-2v-4l2-4v-5.9l2-7.9V244l2-2l4-5.9l4-5.9l4-5.9v-21.8l2-4v-4l-2-6.6v-13.2h-2l-2,2l-4-2l-4-4l-4-4l-4-4l-4-4l-5.9-4l-4-4
				l-4-2l-2-2l-2-2l-2-2l-2,2v9.9l-4,2h-11.9l-4,2l-2-2l-4-2h-5.9l-5.9-2h-4l-4,2l-4,2l-2-2l2-2l4-2l-2-2l-4-6l-4-5.9l-6-4l-4-2v-4
				l-4-4l-4-4v-4l2-2v-6l-2-9.9l-2-9.9V73.8l-2-4l-2-4l-2-4l-2-5.9l-4-6l-4-4l-2-4l2-5.9l2-5.9l-2-4l-2-6l-2-5.9v-4l2-4l2-5.9
				l-2-5.9l-2-2l-4-5.9l-5.9-7.9l-4-6l-4-4v-4h-2l-4-2l-4-5.9l-4-6l-2-2l-2-4l-4-6l-2-4l-4-4v-5.9l-2-4l-5.9-2l-5.9-2l-5.9-2l-5.9,2
				l-4,2l-4,2h-4.1l-4,2l-2-2v-4l-4-4l-2-4l-2-2v-4l-4-4l-2-4l-4-4l-2-4l-2-4v-5.9l2-4v-7.9l-2-4v-5.9l-4-5.9l-2-4l2-4l2-4l2-4l2-4
				l4-2l6-4l5.9-2l4-2l5.9-4l2-4l2-7.9l2-7.9l2-7.9l2-6l4-4v-6l2-4l4-2l4-4v-4l4-5.9l5.9-5.9l4-2l4,2l6,2l4,4l4,2l4,2l4,4v-2l2-4
				h5.9l2-2l2-2l4-2l2-4v-4l2-2l4.7-3l5.2-6.9l5.9-5.9l5.9-6l7.9-5.9l2-5.1v-6.8l-4-7.9l-4-5.5v-20.5l-5.9-4l-4-5.9l-4-6l-2-6l-2-4
				l-4-4h-4l-5.9-4l-4-4l-5.9-2l-5.9-2l-4-4l-4-2h-4l-4-4l-4-2l-2-6l-2-5.9l-4-4v-4l-4-5.3l-2-4.6l-4-4h-4l-4,2l-4,2l-2,4l-2,4v7.9
				l4,4l2,7.9v11.9l2,7.9l2,6l2,4v4l2,2h5.9l2,2.2v3.7l-2,6l-2,4l-2,4l-2,2l-2,2v4l-4,2h-4l-4-2h-4l-4,2l-4,2l-4,2l-5.9,2h-6l-5.9-2
				l-5.9-2h-5.9l-5.9-2l-5.9-4l-6-2l-5.9-2.5v-3.4l-6-5.9l-5.9-6l-4-5.9l-4-7.9l-2-8v-49.5l-2-7.9l-5.9-7.9l-7.9-5.9l-5.9-4
				l-5.9-5.9l-5.9-7.9l-4-5.9l-4.2-5.3h-4.5l-5.1,1.3l-5.9-2v-4l-4-6l-2-5.9l-2-6l-2-7.9l-2-6l-4-7.9l-5.9-4l-7.9-2h-7.9l-4-4l-2-4
				l-5.9-6l-4-4l-5.9-4l-5.9-2h-15l-4-2l-5.9-4l-5.9-2h-6l-4,2l-6,4l-5.9,2l-5.9,4l-5.9,4l-5.9,2l-5.9,2l-6,2h-5.9l-2,4v4l-4,2l-4-2
				l-5.9-4l-2-4l-6-2l-4-4l-2,2v6l-4,4l-4,2l-4,4l-5.9,2l-4,4l-2,4l-6,2l-7.9,2l-2,4v4l4,2h21.8l4,2l4,4v11.9l-2,4l-2.3,2h3.9l3,2v2
				l-2,4l-2,7.9h4l4,2l4,2h4l2-4l4-4l2-4l2-2h7.9l2,2l2,2l2,2v2l2,4l2,4l2,4l4,4l4,2l4,2h5.9l5.9,2l7.9,4l7.9,2h7.9l7.9,2l5.9,4l2,6
				l4,2l4,2l4,4l2,4v15.9l2,6l2,6l2,5.9v11.9l2,7.9v5.9l2,6l2,7.9v4l-4,4l-2,4v5.9l2,4l4,5.9l2,6v11.9l4,4h9.9l4,2l1.1,4.3v14.5
				l-1.1,6.9l-2,5.9l-4,2h-7.9l-2,2v19l-4,4.2v5.8l-5.9,7.9l-4,7.9l-4,9.9l-4,5.9l-4,5.9l-4,6l-4,6.2v5.7l-2,4l-2,5.9l-2,6l-2,7.2
				v6.7l-4,4l-6,6l-2,4l-2,5.9l-4,5.9l-5.9,4l-7.9,6l-9.9,5.9l-7.9,6l-6,4l-5.9,4l-5.9,4l-5.9,2l-5.9,4l-6,4l-4,2v4l-2,4h-4v8.5
				l-4,9.4l-7.9,4l-7.9,7.9l-5.9,7.9l2,5.9l4,4v4h8.6l7.2-2l9.9-4.8l9.9,2l7.9-2l4-5.9h7.9l4,2v7.3l-2,8.5l-2,11.9l-2,7.9l2,11.9
				l-2,9.9l7.9,7.9h2.9l7,4h11.9l4,4h5.9l6,2l5.9,4l2,5.9l-2,7.9l-2,7.9l-2,5.9l-6,6l-0.9,7.9l0.9,9.9v6l2,11.9v7.9l-2,9.9v9.9
				l2,9.9l-2,5.9l-5.9,2h-7.9l-5.9-2l-4,2h-6.2l-5.7,5.9l-4,13.9l-2,5.9l-5.9,5.9l-7.9,2l-5.9,2l-6,5.9l-4,7.9l-2,9.9l-4,5.9l-4,2
				h-7l-2.9,9.9l-7.9,7.9l-5.9,7.9l-7.9,6l-5.9,5.9l-4,6l-5.8,6l-4.1,2l-2-2l-4,5.9l-6,6l-5.9,2h-7.9l-2,2l-5.9,4l-2,2v7l-2,4.9
				l-6,4h-4l-2,2l2,9.9l-4,9.9l-4,4l-5.9,2l-4,4l-4,4l-7.9,2l-5.9,2l-6,4l-2,4l4,4l2,4l-4,4l-4,6l-4,7.9l-4,7.9l-5.9,6l-4,7.9
				l-5.9,6l-4,7.9l-4,7.9l-5.9,7.9l-4,4l-7.9-2h-12.9l-5.9-4l-7.9-2l-5.9-4h-7.9l-4-4l-4-2v-4h-2l-2,2v4h-2l-4-4h-2l-2,2l-2,4h-4
				l-2-2l-2-4l-7.9-7.9h-5.9l-2-4l-2-2l-5.9-2l-4-4l-7.9-6h-4l-5.9-5.9h-4l-4-4l-4-4h-6l-4,2h-4l-2-4l2-4l2-4v-4l4-4l4-4l6-5.9v-4
				l2-2h4l2-2l2-2l-4-2l-2-2l2-2l4-4l4-2l2-6l2-4l4-6l4-4l2-4v-13.9l2-5.9l1.5-1.5l2.5-2.5l4-4l4-7.9l2-4v-13.8l-7.9-2l-7.9,5.9
				l-5.9,6l-9.9-2l-9.9,2l-7.9,4l-6.3,6l-5.6,4.7c0,0-9.9-2.7-5.9-0.7s-6.1-4-6.1-4V296l-5.8-2.2l-6-7.9l-7.9-4v-11.8l-2-4.1l-9.9-2
				l-9.9-4l-5.9-6l-6-4l-5.9-5.9l-4-2l-2-4l2-4l2-4v-2h-9.7l-2-2l4-4l4-4h4l4-4h4l2,2h4l4,4l4,4l7.9,2h4l5.9-2l2-2l-2-5.9l-2-5.9
				l-2-6v-4h4l2,2l4,2l5.9-2h7.9l4,2l2,4l4,2h4l3.4-4l4.6-2h6l5.9,2l4-2v-4l-2-4l-2-5.9l-5.9-7.9l-6-13.9l-2-6v-4l2-7.9l6-5.9l5.9-6
				l4-5.9l4-4l4-2l2-2h-6.6l-4,2h-4l-2-2l-2-2l-4,2h-4l-4,2l-5.9,2h-5.9l-5.9,2l-2,2l-2-2l-6,2l-4,4l-4,2l-7.9,2H3060l-11.9,2
				l-5.9-2h-19.8l-9.9-2l-5.9-4l-9.9-2l-5.9-2l-9.9,4h-6l-5.9-6l-5.9-4l-7.9-6l-7.9-2l-3.9-8l-2.1-3.9l-5.9-7.9l-2-9.9v-5.6
				l-11.9-15.5L2909.3,52l-4-5.9v-4l2-5.9V10.4l-4-21.8l-4-7.9l-5.9-6l-2-7.9v-12.7l4-5.2l5.9-5.9l7.9-4h9.9l4-2l4-6l4-7.9l4-6v-7.9
				l2-4l2-5.9l-4-5.9l-2-2l-2-4l4-2h5.3l4.6-2v-5.9l2-4l11.9-2l13.9-4l2-7.9l6-9.9l11.9-7.9l11.9-5.9l4-6h-15.1l-8.7-4l-11.9,2
				l-17.1-2l-14.6-4l-7.9-4l-5.9,4h-5.9l-4-6l-6-4l-5.9-2l-7.9-2l-4-2l-2-5.8l-4-4.1l-2-5.9l-4-5.9l-4-4l-2-5.9l-2-4l-4-5.9l-4-4
				l-4-2l-4,2l-2,4h-4l-2,2l-4-2v-8.7l-2,0.8l-2,4l-2,5.9v16.6l-2,2h-4l-4-4h-5l-2-4l-5.9-4v-5l-5.9-6.8l-4-5.9l-6-6l-4-2
				c0,0-9.9-4-7.9-4h-7.6l-6.3,2h-9.9l-3.4-2l-2.5-2h-4.6l-5.3,2h-2l-2-4h-3.4l-2.6-2l-5.3-1l-2.6-3h-5.4l-8.5-4h-6.8l-9-4l-5.9-2
				l-5.9-6l-6-5.9l-7.9-6l-4-4l-5.9-2l-4-2l-4-4l-2-2h-5.9l-4-4l-6-4l-4-4l-4-7.9l-2-7.9l-2-4l-2-5.9l-2-9.9l-4-9.9l-2-7.9l-4-4
				l-2-2v-2l4-2l5.9-2l5.9-2l7.9-2l5.9-7.9l4-4v-19.8l2-4h5.2l4.8-5.9l5.9-7.9l2-9.9l5.9-5.9l-5.9-7.9l-2-4l-4,2l-4-4l-5.9-4l-7.9-2
				l-5.9-6v-7.9l-2-6v-5.9l-5.9-6l-4-5.9l-7.9-11.9l-9.9-7.9l-7.9-6v-3l-4-2v-2.5l4-3.5h-6.9l-5-4l-5.9-6l-4-7.9l-2-6l-7.9-4
				l-11.9-6l-9.9-4l-4-2l-5.9-9.9l-4-6l-7.9-5.9l-5.9,2l-1.9-2l3.9-4v-7.9l2-6l4-4l-2-2l-4-2l-2-4v-2l-7.9-2l-7.9-4l-6-4l-2-7.9
				v-6.1l5.9-5.8l2-4l-7.9-7.7h-3.2l-4.8,1.7l-3,0.8l-1.6-2.6l6.6-4.2v-4l-6.6,1.8l-7.3,0.2l-11.9-7.9l-13.9-11.9l-2-2l-5.9,2
				l-7.9-6l-2,4h-2l-5.9-4l-6-5.9l-5.9-4l-5.9-7.9h-77.8l-12.4,2l-21.8,4l-15.9,6l-9.9,5.9c0,0-11.9,7.9-13.9,9.9l-11.9,11.9
				l-15.9,17.8l-17.8,20.3l-17.8,21.8l-9.9,11.9l-11.9,7.9l-7.9,7.9l-17.8,15.8l-7.9,9.9v11.3l-2,14.5l-4,7.9l-7.9,9.9l-9.9,6
				l-7.9,7.9l-4,5.9v26l-4,11.7l-8.5,3.4l-11.3-3.4l-2-7.9l-4-7.9l-2,6l-2,9.9l-9.7,7.8l-2,15.9l2,15.9l5.9,7.9l13.9,5.9l15.9,7.9
				l15.9,9.9l6,9.9l5.9,5.9l4,6v13.9l-2,11.9l-7.9,11.9l-11.9,7.9l-9.9,4l-5.9,4l-4,4l-7.9,4l-9.9,4l-5.9-2h-5.9l-5.9,4l-7.9,5.9
				l-6,4l-7.9,4l-5.9,9.9l-5.9,9.9v12.7l-2,21v54.8l4,12.6l7.9,13.9l9.9,7.9l7.9,7.9l6,15.9v7.9l2,4l5.9,6l11.9,2h13.9l9.9,4l11.9,4
				l11.9,5.9l5.9,2l6,4l2-2l7.9,6v5.9l-4,6l-2,9.9l-6,7.9l-7.9,7.9l-5.9,13.9v17.3l-5.9,9.9v11.9l5.9,13.9l-2,9.9l2,7.9l-2,5.9
				l-5.9,2l-4-4l-7.9-5.9l-7.9-4l-4-2l-4-4l-4-7.9l-2-4h-4l-5.8-1.8l-5.9-4l-2-5.9v-7.9l-4-4l-7.9-4l-6-5.9l-4-4l-6-4l-7.9-2
				c0,0-6-2-6-4s-2-6-2-6v-7.4l-6-6.5l-4-6l-5.9-4l-4-6l-5.9-4l-6-2l-7.9-2l-9.9-4l-9.5-5.5c0,0-7.9-2-9.9-4
				c-2.5-2.1-5.2-4.1-7.9-5.9l-4-7.9l-2-2h-6l-4,2l-4,4l-9.9,4l-13.9,2l-17.8,4l-6,2l-4,2l-2,5.9v3.3l-4,2.6l-5.9,4l-6,4l-4,4
				l-4,5.9l-5.9,4l-7.9,9.9l-5.9,5.9l-4,9.9l-4,13.9l-4,15.9l-2,13.9l-4,19.8l-7.9,11.9l-4,5.9l-6,2l-5.9-4l-6-2l-4,4l-4,17.8
				l-6,19.8l-4,13.9l-6,13.9l-4,9.9l-4,13.9l-4,15.9l-2,13.9l-2,7.9l4,11.9l4,5.9v11.9l-4,9.9l-7.9,11.9l-9.9,9.9h-9.9l-4-5.9v-4.6
				l-7.9-7.3l-2-5.9l-4-9.9l-4-5.9h-13.9l-5.9,2h-25.8l-7.9,4l-9.9,2l-7.9,7.9l-2,7.9l-7.9,4l-2,7.9l-4,5.9h-4l-4-4v-5.4l-2-8.5
				l-2-5.9v-7.6l-2-4.3l-2-7.9l-4-7.9l-2-4l-2-7.9l-2-13.9l4-7.9v-18.2l-2-7.9l-4-7.9l-4-7.9V86.3l-2-14.4l-2-11.9V49.2l2-11.1
				l2-11.9l-2-7.9l-2-10.1l-4-5.8l-4-2l-7.9-2l-4-5.9l-2-4v-14.2l2-5.5l2-6l4-4l9.9-4l4-2l5.9-13.9l4-9.9l4-9.9l2-5.9l6-6l7.9-2
				l6-5.9l4-7.9l2-6v-15.9l2-6v-7.9l4-4v-9.9l-7.9-5.9l-7.9-7.9l-4-2l2-9.9l4-7.9l2-7.9v-4l-4-4l-2-9.9l-5.9-7.9l-2-5.9l-6-2l-2-2
				l-6-4v-5.9l-2-2l2-7.9l4-2l4-2l2-2v-5.9l-2-4v-5.9l-2-4l-2-5.9v-6l-4-5.9l-4-2l-5.9-4l-4-4v-21.1l-3.9-8.3v-2.5l-2.1-5l-2-7.9
				v-39.6l-2-5.9v-6l4-4l4-6l5.9-11.9v-7.8l-2-6l2-6v-27.7l-7.8-6l-12-2l-13.9-4l-19.8-4l-23.8-2l-13.9,2l-2,4v11.8l-2,7.9l-4,9.9
				l-2,9.9l-2,13.9l-2,13.9l-4,6l-9.9,7.9l-2,6l-2,9.9l-7.9,9.9l-7.9,7.9l-7.9-4l-7.9-11.9l-6-6l-4-5.9l-2-6l4-25.8l-2-17.8
				l5.9-19.8l4-6l3.5-4h6.2l6-2l4.8-1l5.1-1l4-2l2-2l4-4l-2-4l-4-4l-4-6l-2-7.9l-2-6l-4-2l-2-2h-4l-4-4l-2-4l-9.9-9.9l-11.8-11.4
				l-2-4l2-4l-2-5.9l-6-4l-11.9-7.9l-5.9-9.9l-2-9.9l4-4l9.9-2h9.9l7.9,4h9.9l9.9,4l7.9-9.9l7.9-11.9l-4-7.9l-0.3-11.9h-5.5
				l-7.9-7.9l-9.9-19.8l-7.9-21.8l-5.9-19.8l-2-14.1v-9.7l-2-9.9l-7.9-5.9l-11.9-11.9l-11.9-5.8l-2-6l-5.9,2l-6-4l-4-2l-7.9-4l-2-6
				h-2l-4,4h-7.7l-6-6l-4-8.1v-5.8l-6-6l-9.9-7.9l-9.9-7.9h-4l-7.9-6l-7.9-7.9l-6-2l-4-4l-6,2l-9.9-5.9l-15.9-4l-15.8-4l-15.9-2
				l-2-6l-9.9-4h-7.9c2,0-2-6-2-6l-2-2l-2,2l-2,4l-4-2h-5.9l-7.9,5.9l-7.9,4l-11.9,4l-11.9,4l-11.9,4l-9.9,5.9l-5.9,4l-5.9,2l-4,5.9
				l-6,4l-4,2l-2,5.9l-6,6l-9.9,4l-5.9,2l-2,6l-4,4l-4-1.7v-4.3l-4-2h-7.9l-6,2l-4,2l-2,4v4l4,2h4l2,11.9l-4,4l-5.9,0.8l-2,3.2
				l2,7.9l-2,9.9l-6,11.9l-2,4h-4l-4,4l-4-2l2-6l-2-9.9l-4-7.9l-4.9-6l-4-9.9l-7.9-8l-7.9-3.9l-5.9-5.9v-4l4-4l4-4l4-7.9l2-11.9
				l-4-7.9l-6-4l-5.9-4l-2-5.7v-8.2l-4-6l-5.9-5.9h-7.9l-6-4l-7.9-7.8h-4l-2-4l-7.9-6l-5.9-6l-6-4l-2-7.7v-6.2l-5.9-4l-7.9,2
				c0,0-11.9,2-9.9,2h-13.8l-6,2l-2,12.1v17.7l-6,5.9l4,7.8v10l-4,6.6v11.2l-2,4l-7.9,2l-6,6l-8.2,4h-7.5l-4-4l-4-11.9l-9.9-4
				l-13.9-2l-6-7.9l-4-10.9v-16.8l-10.6-2h-9.3l-5.9-4l-4-9.9l2-13.9l-4-2l-4-2l-4-7.9v-9.9l-2-5.9l-2-13.9l-4-4l-7.9-4l-3.9-2l-4-2
				l-3,2H670l-7.9-2l-7.9-7.9l-2.3-4h-27.1l-4-2l-11.8-11.6l-7.2-6H595l-7.9-4l-2-7.9l-2-7.9l-4-2v-7.9l4-13.9v-15.8l2-9.9l4-5.9
				l-2-6l-2-7.9l-4-4l4-6v-4l-6-5.9v-5.9l4-5.9l4-7.9v-9.9l2-7.9l6-13.9l2-13.9l-2-6l-6-4v-4l6-2h5.9l11.9-5.9l13.8-15.5l11.8-15.8
				l4-11.9l2-6l4-4l9.9-9.9l9.9-9.9l7.9-11.9l4-4v-11.9l4-7.9l4-4v-4l2-5.9l2-13.9l2-25.8v-11.9l2-9.9l4-2l4,2l4,2l2-2l4-7.9l2-7.9
				l2-6l4-2l2,2h4l-2-4v-19.5l4-5.9l4-4l4-2l-2-4h-2l-7.9,5.9l-5.9,8v9.9l-2,9.9l-7.9,9.9l-11.9,5.9l-11.9,6h-24.3l-9.9-4l-7.9-7.9
				l-6-6l-5.9-4h-15.8l-5.9,2l-6,5.9l-2,6l-4,4l-7.9,2l-7.9,2l-9.9,5.9l-7.9,7.9l-2,5.9l-7.9,2l-6,6.9l-5.9,9l-2,6l2,4l4,6l2,5.6
				v6.3l-2,5.9v7.9l-2,4h-4l-7.9-4l-9.9-6l-2-5.9l-2-9.9l-7.9-4l-11.9-4l-15.9-2l-13.9-2l-9.9,2l-9.9,4l-9.9,4l-9.9,2h-7.8l-4,2
				l-6,6l-4,9.9v7.9l2,9.9l2,9.9v4l-5.9,4l-7.9,2l-6,4l-5.9,4l-2,4l-6,2l-4-2l-2-4l-6-2l-5.9-2l-4-2v-5.9l-4-4l-2-7.9l-2-9.9
				l-7.9-9.9l-4-6l-4-7.9v-9.9l-4-7.9v-9.9l2-6l2-7.9l2-9.9v-7.9l-5.9-5.9l-7.9-6l-6-4l-5.9-2h-7.9l-5.9,2l-4,2l-4.2,4h-3.7l-4-5.9
				l-2-6l-4-5.9l-4-4l-4-2h-6l-2-2v-2l2-2l4-2l4-2h2l2,2l4,2l4,2h6l4,2l4-2l4-2l4-6v-4l4-6l4-5.9l4-2l-2-4l-2-4l2-4l4-2l6-4l4-5.9
				l2-5.9l4-6l7.9-5.9l7.9-5.9h9.9l7.9,2l4,4l2,4l6,4h6l4-5.9l2-7.9l4-5.9l7.9-2l7.9,2l7.9,5.9l5.9,2l4,4l4,5.9l5.9-2l6-4v-7.9
				l5.9-7.9l6-4l4-2l-2-4l-4-7.9l-2-7.9l4-6l5.9-5.9l8.3-2h5.6l5.9-4l4-5.9l-2-7.9l-9.9-7.9l-2-4l-7.9-4l-9.9-9.9l-9.9-7.9l-4-7.9
				l-5.9-9.9l-6-2l-9.9-2l-9.3-4l-8.6-2l-4-4l-6-5.9l-5.9-2l-6,2l-6,5.9l-7.9,4l-9.9,2l-7.9-2l-9.9-4l-5.9-5.9l-7.9-6l-4-2l-6-2
				l-4-2l2-7.9l2-5.9l4-7.9l4-7.9l5.9-11.9l2-11.9l2-2h7.9l6,2h15.9l2-6l4-5.9l2-5.9l-5.9-4l-7.9-2l-9.9-4l-11.9-7.9l-6-4h-12.3
				l-7.9-4l-9.9-8.9l-9.9-9.9l-7.9-5.9h-4l-4-6l-2-6l-2-5.9v-6l-2-6.2l-4-1.7l-2,2l2,4l2,5.9v5.9l-2,6l2,7.9l2,4l-4,2l-7.9,2h-4
				l-4,2l-4,4h-4l-4-2l-5.9-4l-5.9-4l-5.9-2l-5.9-2h-4l-2,3.3v6.6l-2,2l-4,2h-2v-4l2-4l2-5.9l-2-4h-7.9l-2-4.6v-3.3l-4-4h-4l-4,2
				l-5.9,4h-4l-4-2l-4-5.9l-2,5.9l-4,1.4v8.5l-2,7.9l-6.5,6h-5.4v7.9l-4,6l-7.9,4l-7.9,6l-7.9,4l-7.9,4l-5.9,2l-4,5.9l-5.9,4l-5.9,2
				l-5.9,2l-5.9,4l-5.9,4l-4,5.9l-4,6l-4,2l2,4l-4,6l-6.5,4h-4.4l-7.9,2l-5.9,4l-4,5.9v5.9l2,5.9l-5.3,4h-4.6l2,4l-2,4l-5.9,2"/>
		</g>
	</g>
</g>
<g>
	<defs>
		<rect id="SVGID_2_" x="0" y="0" width="3840" height="1080"/>
	</defs>
	<clipPath id="SVGID_8_">
		<use xlink:href="#SVGID_2_"  style="overflow:visible;"/>
	</clipPath>
	<g class="st6">
		<g id="KLN_2019" class="st7">
			<polyline class="st1" points="1707.2,254.3 1722.7,253.1 1709.6,268.6 1709.3,268.6 1709.3,268.8 1709,268.8 1708.7,268.8 
				1708.7,269.1 1708.4,269.1 1708.1,264.8 1707.2,254.3 			"/>
			<polyline class="st1" points="1706.4,264.8 1678.4,267.1 1677.8,258.7 1677.3,252.5 1673.8,252.8 1673.8,254 1665.6,263.6 
				1674.3,271.2 1674.6,271.2 1674.9,271.5 1675.2,271.5 1675.5,271.5 1676.1,271.5 1706.6,269.1 1706.4,264.8 			"/>
			<polyline class="st1" points="1035.5,-484.2 1033.9,-484.7 1026,-489.1 1019.6,-493.1 1007.4,-500.4 1006.5,-500.4 
				1006.3,-500.1 1006,-499.5 1005.7,-499 1005.7,-498.4 1006.3,-497.8 1019.6,-489.3 1024,-486.7 1015.6,-478.3 1021.1,-472.8 
				1017.3,-469 1011.8,-474.5 999.6,-462.3 1002.8,-459.1 991.7,-448 987.6,-451.8 987,-450.9 987,-450.6 990.8,-446.9 989.7,-446 
				985.9,-450.1 984.7,-448.9 974.2,-459.4 972.8,-457.6 987,-443.4 973.1,-429.4 957.9,-444.2 963.5,-449.8 963.8,-449.8 
				963.8,-450.1 963.5,-450.1 962.9,-450.6 962.9,-450.9 962.6,-450.9 962.6,-450.6 957.1,-445.1 955.6,-446.9 962.3,-453.6 
				962.3,-453.8 960.9,-455 954.2,-448.3 951.8,-450.6 958.2,-457.3 958.2,-457.6 957.7,-458.2 957.4,-458.2 950.7,-451.5 
				950.1,-452.1 950.1,-452.4 939.6,-462.6 928.8,-473.3 936.1,-480.3 951.5,-495.7 962.3,-504.2 964.3,-505.9 973.7,-510.9 
				976.3,-512 979.2,-513.8 983.6,-511.2 983.8,-511.2 984.4,-511.2 985,-511.2 985.3,-511.5 985.6,-511.8 985.9,-512.3 
				985.9,-512.6 985.9,-513.2 985.6,-513.8 985.3,-514.1 946.6,-537.1 946,-537.1 945.7,-537.1 945.1,-537.1 944.9,-536.8 
				934.4,-542.9 914.3,-555.1 932,-584.2 970.7,-560.1 967.8,-555.1 983.8,-545.2 984.7,-547 970.7,-555.7 978.9,-569.1 
				982.7,-566.8 983.3,-567.6 970.7,-575.2 972.8,-578.1 985,-570.5 985.6,-571.4 981.8,-573.7 983.3,-576.1 991.4,-571.1 
				991.7,-571.7 983.8,-576.9 985.6,-579.8 993.7,-574.9 994,-575.5 986.2,-580.7 994.6,-594.1 995.2,-594.7 1000.7,-603.7 
				1006.3,-612.7 1009.2,-616.8 1009.7,-619.7 1012.4,-621.8 1017,-620.9 1019.3,-617.7 1017.9,-608.4 1016.4,-606.3 1020.2,-604 
				1058.3,-580.1 1060.4,-578.7 1077,-568.2 1087.1,-562.1 1096.7,-556 1118.1,-538.9 1108.2,-527.2 1111.7,-524.3 1121.3,-536.3 
				1139.6,-520.5 1129.7,-508.6 1133.2,-505.7 1143.1,-517.6 1163.5,-500.7 1160.6,-497 1162,-495.8 1165.2,-499.6 1177.1,-489.4 
				1168.7,-479.2 1170.4,-477.8 1178.9,-487.9 1189.1,-479.5 1180.6,-469 1182.4,-467.6 1190.8,-478 1207.1,-464.7 1183,-435.9 
				1183.2,-435 1194.9,-425.4 1195.5,-425.4 1219.3,-454.2 1230.4,-444.9 1248.4,-414 1248.4,-386.4 1248.4,-312.5 1247.8,-312.5 
				1247.6,-312.2 1247.3,-311.9 1247,-311.6 1246.7,-310.4 1246.7,-309.9 1246.7,-288 1246.7,-286 1247.3,-284.5 1247.8,-284 
				1248.7,-283.7 1250.8,-284.5 1251.3,-285.4 1250.8,-310.4 1350.3,-310.4 1362.5,-278.1 1362.8,-68.9 1300.2,20.4 1250.8,20.7 
				1250.8,14.6 1250.8,4.1 1250.5,1.5 1249.9,-1.1 1248.4,-4.6 1247.3,-6.6 1244.9,-9.3 1242,-11.9 1239.1,-13.3 1235.9,-14.2 
				1234.2,-14.5 1231.8,-14.8 1231,-14.5 1230.4,-14.2 1230.1,-13.3 1230.1,-12.5 1230.4,-11.6 1231,-11 1232.7,-10.4 1234.7,-10.4 
				1236.2,-10.4 1240.6,-8.7 1243.2,-6.4 1245.2,-4 1246.7,-0.8 1247.3,1.8 1247.3,5 1247.3,11.7 1247.6,21.3 1247.3,23 
				1247.3,31.5 1247.3,35 1246.4,35.8 1242.9,39.3 1240.9,42.5 1239.7,44.3 1236.5,51.3 1235.3,56.5 1235,61.4 1234.8,67.6 
				1235,75.4 1234.8,78.9 1235,83 1235,113.8 1236.8,117.9 1242.9,125.8 1248.4,131 1256.9,137.4 1260.9,138 1267.1,137.4 
				1274.3,137.7 1310.7,137.4 1317.4,137.7 1319.4,137.4 1320.9,136.2 1326.1,125.2 1330.8,119.6 1334.6,116.2 1337.2,113.8 
				1339.8,111.5 1341.8,109.5 1369.5,99 1413.5,92.8 1432.7,90.7 1456.6,87.5 1499.7,81.7 1508.7,79.7 1498.2,86.9 1499.7,88.7 
				1509,82.3 1509.9,82 1511.3,81.7 1518.3,81.1 1526.4,80.2 1527,80.5 1527.3,81.1 1528.8,105 1526.7,105.3 1527.3,107.9 
				1519.2,109.6 1518.9,109.9 1518.6,110.2 1518.6,110.5 1518.9,110.8 1519.2,111.1 1519.8,111.1 1527.6,109.3 1528.5,112.8 
				1523.2,114 1524.1,118.4 1523.8,118.9 1513.4,121.3 1513.4,121.6 1493,125.6 1476.7,129.1 1476.1,129.7 1475.8,130 1475.2,130.6 
				1475.2,130.9 1474.9,131.4 1474.9,132 1474.9,132.6 1475.2,133.2 1475.8,134.1 1476.4,134.4 1477.3,134.7 1477.9,134.7 
				1478.4,134.7 1482.5,133.8 1490.7,132 1496.2,130.9 1526.4,124.5 1529.4,123.9 1529.6,124.2 1533.4,123.3 1533.7,122.7 
				1535.5,122.4 1539.5,142.2 1539.5,142.5 1492.1,152.4 1493.3,158.2 1541,148 1543.6,161.4 1536.3,162.9 1537.5,167.8 
				1506.1,174.5 1505.8,174.8 1505.5,174.8 1505.2,175.4 1505.2,175.7 1505.5,177.1 1505.8,177.7 1506.1,178 1506.4,178 1506.7,178 
				1507.5,177.7 1525.9,173.9 1545.4,169.9 1552.9,205.4 1552.6,205.7 1552.3,205.1 1551.5,204.5 1550.6,203.9 1549.7,203.6 
				1548.9,203.6 1548,203.6 1547.4,203.9 1546.8,204.5 1545.9,205.1 1545.7,205.9 1545.4,206.5 1545.1,207.7 1545.1,208.6 
				1545.4,209.4 1545.9,210 1546.2,210.6 1547.1,211.2 1547.7,211.5 1548.6,211.8 1549.4,211.8 1550.3,211.5 1550.3,211.8 
				1472,228.4 1471.4,228.4 1471.4,228.6 1471.2,228.9 1471.2,229.2 1474.7,244.4 1474.7,244.6 1474.7,244.9 1474.9,244.9 
				1475.2,244.9 1557.6,227.8 1561.1,244.4 1556.1,248.1 1554.7,251.3 1550.3,256.9 1550.6,256.9 1549.7,258 1549.7,257.7 
				1547.1,260.9 1547.1,261.2 1546.8,261.8 1546.8,262.7 1547.1,263.3 1547.4,263.6 1548,263.9 1548.3,263.9 1548.9,264.1 
				1549.1,263.9 1549.7,263.9 1550,263.6 1550.6,262.7 1552.6,260.1 1552.3,260.1 1553.2,258.9 1553.2,259.2 1557.9,253.4 
				1559.3,252.5 1564.9,259.2 1565.7,260.4 1566.6,260.9 1567.2,261.5 1566.6,263.6 1562.2,269.1 1561.7,270.3 1561.4,270 
				1558.7,273.5 1558.5,274 1558.5,274.6 1558.7,275.2 1559,275.8 1559.3,276.1 1559.9,276.4 1560.8,276.4 1561.4,276.1 
				1561.7,275.5 1564.3,272.3 1564.9,271.1 1565.1,271.4 1569.5,265.9 1571.3,264.7 1573.6,264.4 1575.9,261.5 1576.5,261.8 
				1577.4,262.1 1578.5,262.4 1579.7,262.7 1580.3,262.7 1584.1,276.1 1585.5,276.9 1614.9,274.6 1616.4,274.6 1618.4,272.3 
				1636.7,270.8 1636.7,271.1 1642.6,270.5 1642.6,270.3 1659.1,269.1 1667.6,276.4 1668.2,276.7 1668.7,276.9 1669.3,277.2 
				1669.9,277.5 1670.5,277.5 1671.1,277.5 1671.7,277.5 1682.1,276.7 1702.8,274.9 1716.3,273.5 1739.6,246.4 1741.6,243.8 
				1742.5,242.9 1743.4,242 1744,240.9 1745.1,239.4 1745.7,238.2 1746.3,237.1 1747.2,235.6 1747.5,234.5 1748,233.3 1753.9,216.7 
				1754.4,215 1754.7,213.8 1755.3,212.9 1755.6,212.3 1755.9,211.8 1756.2,211.2 1756.8,210.6 1766.7,198.1 1772.8,192.6 
				1780.9,185.3 1794.6,173.1 1797.8,170.2 1826,144.8 1841.7,130.9 1841.7,131.2 1844.9,128.3 1846.4,126.8 1847.3,126.8 
				1847.9,128.8 1848.1,129.1 1853.7,128.3 1863.3,124.5 1872.4,123.4 1879.6,123.3 1887.2,122.2 1890.6,118.8 1893,115.4 1893,153 
				1879.6,160.8 1885.1,170.4 1903.7,159.7 1903.4,114.3 1921.2,114.3 1930.2,134.4 2036.4,87.2 2039.6,85.5 2040.5,87.2 
				2041.9,88.7 2047.2,100 2047.5,100.3 2047.8,100.6 2048.1,100.6 2048.3,100.3 2052.1,98.6 2052.4,98.3 2052.4,98 2047.2,86.4 
				2047.2,84.3 2046.6,82.6 2053.3,79.4 2062,75.6 2063.5,78.8 2063.8,79.1 2063.8,79.4 2064.1,79.4 2064.3,79.4 2064.6,79.1 
				2075.4,74.4 2075.4,74.1 2075.7,74.1 2075.7,73.8 2075.7,73.5 2074.2,70.1 2082.4,66.3 2087.6,54.6 2096.4,58.7 2101.6,58.1 
				2132.7,35.7 2134.2,34.6 2134.5,34.6 2134.5,34.3 2134.5,34 2134.5,33.7 2128.4,13.6 2127.5,9.5 2141.5,-51.9 2143.5,-50.1 
				2142.6,-44.9 2147.9,-43.7 2149.3,-51.6 2144.1,-52.5 2143.8,-51 2141.8,-52.7 2151.6,-102.8 2092.9,-140.2 2093.4,-146.6 
				2103.4,-146.3 2103.6,-154.5 2093.8,-154.8 2097.8,-252.2 2100.2,-254 2100.7,-251.7 2102.8,-251.1 2103.4,-252.5 2101.6,-253.1 
				2106.3,-254.9 2106.6,-256.3 2111.2,-257.2 2109.2,-258.3 2108.3,-260.7 2113.5,-268.5 2139.1,-323.8 2142.1,-322.1 
				2141.5,-321.2 2142.9,-320.3 2143.5,-319.2 2144.1,-319.7 2143.5,-320.6 2144.7,-322.9 2145.8,-322.9 2152.8,-318.9 
				2153.1,-319.5 2145.8,-323.5 2144.7,-323.5 2143.5,-324.4 2142.9,-323.5 2139.7,-325.3 2143.8,-334 2147.6,-334 2157.5,-329.3 
				2158.1,-329.3 2158.4,-329.3 2158.6,-329.3 2159.2,-329.6 2159.5,-329.6 2159.8,-329.9 2160.1,-330.2 2160.1,-330.5 
				2160.4,-331.1 2160.4,-331.4 2160.7,-332 2160.7,-332.3 2160.7,-332.5 2160.7,-332.8 2160.4,-333.1 2160.4,-333.4 2160.1,-333.4 
				2160.1,-333.7 2159.8,-333.7 2159.8,-334 2149.6,-338.7 2147.3,-341.6 2149.6,-346.8 2151.7,-345.9 2154.3,-352 2152.5,-352.9 
				2154.6,-357.6 2156.3,-357 2157.2,-358.2 2155.1,-359 2164.5,-379.1 2166.8,-377.9 2167.7,-380.3 2166.5,-380.9 2169.1,-386.4 
				2167.9,-386.7 2172.6,-396.9 2190.1,-406.8 2273.9,-326.1 2354.2,-249.3 2354.5,-247.9 2354.5,-246.7 2354.2,-246.1 
				2353.6,-246.4 2353.3,-246.1 2353.9,-245.8 2359.4,-240.3 2359.7,-240.6 2360.9,-240.6 2362.9,-240 2363.2,-239.7 2364.9,-238.9 
				2367,-236.8 2368.2,-234.8 2368.4,-234.5 2369.6,-232.4 2369,-232.2 2368.4,-231.6 2374,-226.1 2374.6,-225.8 2375.1,-226.3 
				2375.4,-226.3 2377.2,-225.8 2379.5,-224.9 2384.2,-220.2 2384.4,-219.9 2384.7,-219.9 2385,-219.9 2385.3,-220.2 2401.3,-204.8 
				2401.3,-204.2 2401.3,-203.9 2401.6,-203.4 2424.6,-181.2 2423.4,-180.7 2422,-182.1 2421.1,-180.9 2423.4,-178.9 2425.2,-180.7 
				2434.5,-171.6 2441.8,-160 2463.9,-138.8 2471.2,-136.4 2471.4,-136.4 2484.8,-123.3 2485.1,-123.9 2524.4,-86.1 2528.2,-82.6 
				2636.2,21.6 2638.2,23 2640.2,23.6 2642.3,23.6 2646.3,23.3 2676.9,-8.7 2678.3,-11.6 2678.9,-14.8 2678.3,-16.5 2677.2,-18.6 
				2643.1,-51.7 2632.4,-64 2635.9,-85.2 2634.7,-90.4 2632.1,-95.4 2589.3,-136.1 2589,-136.4 2587,-137.3 2582.9,-141.1 
				2578.5,-136.4 2579.4,-135.6 2582.9,-139.3 2585.5,-136.7 2575.6,-126.8 2570.1,-128.6 2567.8,-129.4 2566,-130.3 2555.5,-137.3 
				2551.2,-140.5 2546.2,-145.2 2525.9,-164.7 2490.1,-199 2480.5,-208.3 2480.2,-208.6 2480.2,-209.2 2480.2,-209.8 2480.8,-210.6 
				2478.4,-213 2477,-211.2 2474.1,-213.8 2473.2,-213 2470.9,-213.8 2421.1,-261.8 2422.3,-264.5 2453.1,-296.5 2532.9,-219.6 
				2589,-278.1 2609.1,-258.9 2683.6,-177.5 2702.8,-154.2 2727.5,-120.7 2731.6,-123.9 2742.4,-109.1 2738.6,-106.2 2740.3,-103.8 
				2744.1,-106.5 2751.4,-96.6 2740.6,-88.7 2741.5,-87.2 2710.4,-64.6 2710.6,-63.1 2711.8,-62.2 2713.3,-62.5 2743.5,-84.6 
				2744.4,-83.2 2755.4,-91.3 2774.4,-61.1 2775.2,-59.9 2775.8,-59 2777.6,-56.7 2776.7,-57 2774.9,-55.5 2774.1,-53.5 
				2765.4,-45.1 2768.8,-41.3 2778.2,-49.7 2779.9,-50.3 2781.6,-52 2781.6,-51.7 2784.8,-48.8 2788,-46.5 2790.4,-45.1 2795,-42.7 
				2798.8,-41.3 2801.7,-40.4 2807.6,-40 2811,-40 2814.5,-39.2 2799.1,-26.1 2855.6,41.1 2859.3,43.4 2879.8,54.7 2908.2,70.5 
				2937.2,123.4 2942.9,130.5 2950.5,138 2956.4,142.5 2963.7,146.7 2969.6,149.2 2976.8,151.7 2984.5,153.3 2991.2,154.1 
				2997,153.9 3005.2,153.5 3007.9,153.4 3027.8,152.1 3030.4,151.9 3039.8,155.2 3046.2,155.3 3050.4,154.4 3053.6,153.8 
				3055.4,152.7 3057.9,151.4 3059.6,150.9 3064.9,149.8 3070.8,149 3074.1,149 3076.4,148.8 3085.2,147.9 3088.2,146.7 
				3091.3,147.8 3105.9,170.8 3081.1,183.6 3079.9,184.2 3068.3,190.3 3064.5,192.4 3050.9,199.3 3050.9,199.6 3055.8,209.2 
				3047.7,213.3 3042.7,204 3042.7,203.7 3041.8,204 3027.9,211.6 3027.6,211.6 3035.4,226.7 3043,252.9 3093.6,304.4 3103.3,313.7 
				3135.3,346.6 3135.9,346.9 3136.4,347.2 3137,347.2 3137.3,347.2 3137.9,347.2 3138.2,346.9 3138.5,346.9 3138.8,346.6 
				3139.1,346.3 3139.3,346 3139.6,345.5 3139.9,345.2 3139.9,344.6 3139.9,344 3139.9,343.7 3139.6,343.1 3139.3,342.8 
				3138.8,342.3 3138.8,342 3121.6,323.9 3121,323.6 3121.9,322.8 3152.7,293.4 3170.8,312.1 			"/>
			<polyline class="st1" points="1503.7,109.6 1502,96.8 1503.4,96.5 1505.4,109.6 1503.7,109.6 			"/>
			<path class="st1" d="M3543.4,102.1l7.7-0.4l6.9-3h14.9l7.8-7.9h48.7l0.6-6.9l3.9-3.9h7.2l2.7,3.9v7.5l11.8-0.6l1,3l7.9-1l1-2
				l3.5-1.5c0,0,11.3,0.5,13.3,0s16.8-1.5,16.8-1.5l7.9-5.9L3714,71l8.8-15.2l8-18.3l10.8-20.7l4.7-6.6l15.9,7.4L3759,25l-23.8,48.1
				l-16.9,28.9l-3.7,20.3l4.2,32.3l4.2,18.5l14.3,17.4l16.9,10l12.7,3.2l5.8,5.3v83h67"/>
		</g>
	</g>
</g>
</svg>
