<?xml version="1.0" encoding="utf-8"?>
<!-- Generator: Adobe Illustrator 23.0.3, SVG Export Plug-In . SVG Version: 6.00 Build 0)  -->
<svg width="7680" height="2160" version="1.1" id="Layer_3" xmlns="http://www.w3.org/2000/svg" xmlns:xlink="http://www.w3.org/1999/xlink" x="0px" y="0px"
	 viewBox="0 0 7680 2160" style="enable-background:new 0 0 7680 2160;" xml:space="preserve">
<style type="text/css">
	.st0{opacity:0.5;}
	.st1{clip-path:url(#SVGID_2_);}
	.st2{fill:none;stroke:#FF8300;stroke-width:3;stroke-linecap:round;stroke-linejoin:round;stroke-dasharray:8;}
	.st3{clip-path:url(#SVGID_4_);}
	.st4{opacity:0.9;fill:none;stroke:#FB8300;stroke-width:5;stroke-miterlimit:10;enable-background:new    ;}
	.st5{fill:none;stroke:#FB8300;stroke-width:5;stroke-miterlimit:10;}
	.st6{clip-path:url(#SVGID_6_);}
	.st7{clip-path:url(#SVGID_8_);}
	.st8{opacity:0.9;}
</style>
<g class="st0">
	<path d="M3559.2,231.8l63.4-218L3635,0.2h-40l-1.2,7.6l-8,39.6L3570,71.2l-8,11.8l-12,4l-11.8-8l-12-4l-8,8l-8,35.6l-12,39.6
		l-8,27.8l-12,27.8l-8,19.8l-8,27.8l-8,31.8l-4,27.8l-4,15.8l8,23.8l8,11.8v23.8l-8,19.8l-14.8,23.6l-19.8,19.8h-19.8l-8-11.8v-9.2
		l-15.8-14.6l-4-12l-8-19.8l-8-11.8h-28l-11.8,4h-51.6l-15.8,8l-19.8,4l-15.8,15.8l-4,15.8l-15.8,8l-4,15.8l-8,11.8h-8l-8-8v-10.8
		l-4-17l-4-12v-15.2l-4-8.6l-4-15.8l-8-15.8l-4-8l-4-15.8l-4-27.8l8-15.8v-35.6l-4-15.8l-8-15.8l-8-15.8v-38.4l-4-29l-4-23.8V97.8
		l4-22.2l4-23.8l-4-15.8l-4-20.2l-8-11.6l-8-4h-0.2h-38.6l13.4,61.2l-15.8,75.4l2.8,17.6l-25.8,3.6l-8.6,4.2v7.4l6.6,37.2l10,13.4
		c0.6,0.8,1.6,1.2,2.6,1.2c0.8,0,1.4-0.2,2-0.6c1.4-1,1.6-3,0.6-4.4l-9.2-12.2l-6.2-34.8V166l4.2-2l24.6-3.4l7.4,46.8l-9,2.2l-0.6-4
		l-6.4,1l2.2,14.2l6.2-1l-0.6-4l10.2-2.6l6.6,6.6l13.4,66.6l-58.4,11.4v6.4l59.6-11.4l7.8,38.8l-61,14v6.4l62.2-14.6l8,39.8
		l-73.4,13v6.2l74.6-13.2l5.6,27.8l-13.4,1.4v6.4l14.4-2l10.8,53.6l-7.2,1l2.4,15.8l8-1l2.2,11.4l4,8l8,8l12,8l15.8,4l8.8-0.6v6.8
		h9.6V524l179.8-10.8v4l7.6-0.4l1,31h7v-31.4l16.8-1v32.4h7.8l-1-32.8l28.4-1.6l-15.8,11.8l4,4l55.4-39.6l-4-8l11.8-19.8l8,4
		l11.8-23.8h-8l8-15.8l-23.8-8l35.6-130.8L3559.2,231.8z"/>
	<polygon points="4098,85.2 4102,85.2 4106,81.2 4142.4,25 4135.8,12 4131.8,4 4123.8,4 4112.4,0.2 3950.6,0.2 3949,2 3968,14.6 
		3978.6,1.6 3990.6,5.6 3990.6,13.6 3998.6,17.6 4006.6,17.6 4010.6,21.6 4014.6,29.6 4070,65.4 4078,65.4 4082,61.4 4090,65.4 
		4090,77.2 	"/>
	<polygon points="2990.4,0.2 2977.6,0.2 2975.6,27.4 2988.4,27.4 	"/>
</g>
<g>
	<g>
		<g>
			<defs>
				<rect id="SVGID_1_" x="0.8" y="-1" width="7680" height="2160"/>
			</defs>
			<clipPath id="SVGID_2_">
				<use xlink:href="#SVGID_1_"  style="overflow:visible;"/>
			</clipPath>
			<g class="st1">
				<g id="HKI_2019">
					<polyline class="st2" points="3795.6,862.2 3795,862.2 3794.4,862.2 3793.8,862.2 3793.8,861.6 3793.2,861.6 3793.2,861 
						3792.8,861 3792.8,860.4 3792.2,860.4 3792.2,859.8 3792.2,859.4 3792.2,858.8 3792.2,858.2 3792.2,857.6 3792.2,857 
						3792.2,856.4 3792.8,856.4 3792.8,855.8 3793.2,855.8 3793.2,855.2 3793.8,855.2 3794.4,854.8 3996.2,796.6 3996.8,796.6 
						3997.4,796.6 3998,796.6 3998.6,797.2 3999.2,797.2 3999.6,797.2 3999.6,797.8 4000.2,797.8 4000.2,798.4 4000.8,799 
						4000.8,799.6 4000.8,800 4001.4,800.6 4001.4,801.2 4000.8,801.2 4000.8,801.8 4000.8,802.4 4000.2,803 4000.2,803.6 
						3999.6,803.6 3999.6,804.2 3999.2,804.2 3998.6,804.2 3994,805.8 3796.8,862.2 3796.2,862.2 3795.6,862.2 					"/>
					<polyline class="st2" points="5872,893.6 5870.2,894 5868.4,894 5866.2,893.2 5858.8,892.8 5855.2,892.6 5852.4,892.4 
						5842.6,892.8 5839.6,893.2 5837.4,893.6 5831.4,895 5826.2,896.4 5820.2,899.4 5816.6,901 5812.4,903.6 5808.8,905.6 
						5804.6,908.8 5798,914.2 5794.8,916.8 5793,919 5791.2,920.6 5790,921.8 5788.2,922.2 5786.4,922.6 5784.8,922 5783.8,920.2 
						5783.8,919 5785,916.8 5786.2,915.8 5788.8,913.6 5791.8,910.8 5794.8,908.2 5798.6,905 5801,902.8 5804.6,900.2 5807.6,898 
						5813.6,895 5817.2,893.6 5820.8,892 5823.6,891 5829.6,888.6 5832.6,888.2 5835.4,887.2 5838.4,886.8 5841.2,886.4 5844.2,886 
						5847.6,885.6 5851.6,886 5855.6,886.2 5860.8,886.6 5864.8,886.8 5868.4,887 5870,887.2 5871.8,887.8 5872.8,888.4 
						5873.4,889.6 5873.8,890.8 5873.8,892 5873,893.6 5872,893.6 					"/>
					<polyline class="st2" points="5755.8,916 5754.6,916 5752.4,915.2 5738.8,927.6 5738.2,927.6 5737.8,926.4 5751.8,914 
						5751.8,913 5752,912.4 5752,911.2 5755.6,908 5758.2,905.8 5761.2,903.2 5764.8,900 5768.4,897.2 5771,894.6 5773.4,891.8 
						5777.8,888 5781.4,884.8 5785,882.2 5787.4,880.6 5789.8,879.6 5791,879.6 5792,880.4 5793.2,881.6 5793,882.8 5792.4,884.4 
						5791.2,885.4 5789.8,887.2 5788.2,888.2 5784.4,891.4 5780.8,894.6 5774.6,900 5768.6,904.8 5764.2,908.6 5760,912.8 5757,915 
						5755.8,916 					"/>
					<polyline class="st2" points="5846.6,856.8 5850.8,856.4 5854.8,856.8 5859.4,857 5862.2,857.2 5865,857.4 5870.2,857.8 
						5876,858.6 5883.4,860.2 5895.2,864.6 5900.2,866.6 5906.4,869.8 5922,877.8 6023.6,930.6 6037.4,938.4 6048.4,945.4 
						6052.4,948.6 6057.8,953 6060.6,955.4 6067,962.2 6074,970.8 6067.8,975.6 6064.2,970.6 6062,968.2 6058.2,964 6053.4,959.6 
						6045.2,952.6 6034.2,945 5972.2,912.2 5943.2,897.6 5900.8,875.2 5890.2,871.2 5880.6,868.2 5874.2,866.6 5868.6,865.8 
						5865.6,865.6 5864.6,865.4 5861.6,865.2 5858.8,865 5857,865 5852.4,865.2 5847.2,864.8 5845,865.4 5838.2,863.8 5835.8,863 
						5833.6,862.2 5831.4,861 5828.6,859 5825.8,857.8 5821.4,855.8 5819,855 5818.6,853.2 5817.6,851.4 5817.6,850.2 5818.2,849.2 
						5819,847.4 5820.2,846.4 5822.6,846.6 5825.4,847.4 5829.2,849.2 5833.2,851.2 5835.4,852.6 5837,853.2 5838.8,854.6 
						5841,855.2 5843.8,856 5846.6,856.8 					"/>
					<polyline class="st2" points="6344.4,1158 6417,1212.4 6423.4,1226 6459.8,1358.4 6460,1362.4 6459,1365.8 6490.2,1403.2 
						6495.6,1409.4 6524.6,1443.4 6530.6,1438 6525.6,1409.4 6527.8,1409.4 6533,1439.2 6530.8,1439.8 6525.2,1444.6 6540.2,1462.4 
						6586,1516.6 6473.6,1658.4 6538.6,1736 6567,1738.4 6648.6,1669.2 6618,1575.4 6645,1541.6 6630.2,1497.8 6621.6,1483.6 
						6610.2,1470.8 6611.2,1467.4 6615.2,1467.2 6629.6,1485.2 6637.8,1499.8 6653.2,1545.8 6651.6,1550 6691.2,1672.4 6713,1791.6 
						6774.6,1728.8 6943.2,1895.2 6950,1898.4 					"/>
					<polyline class="st2" points="1243.2,1974.2 1244.6,1989.2 1245.6,1992.8 1249.6,1994.4 1258.4,1997.4 1267.6,2000.8 
						1274.4,2008.8 1276.6,2010 1280.2,2019.2 1282.4,2023.8 1283.6,2027.8 1284.2,2033.6 1285.4,2032.4 1291.6,2037.6 
						1290.6,2039.2 1291.6,2047.4 1292.8,2051.4 1295,2055.4 1299.2,2059.4 1306,2068 1315.2,2082.4 1325,2096.8 1340,2118 
						1345.6,2124.4 1346.2,2125 1346.8,2126.6 1347.4,2128.4 1346.8,2129.6 1347.4,2131.2 1342.8,2134.8 1379.6,2187 1384.2,2184.2 
						1386,2187 1389.4,2189.4 1392.2,2192.8 1394,2196.8 1406.6,2214 1408.4,2214.6 1416.4,2225.6 1421,2233.6 1453.8,2279.6 
						1486.6,2330.8 1490,2335.4 1491.8,2340.8 					"/>
					<polyline class="st2" points="1038.2,1586.6 1043.4,1590.8 1054.2,1603.6 1063.4,1613.2 1066.4,1621.4 1065.2,1626 
						1064.6,1629.4 1096.8,1697.2 1097.4,1701.2 1095.6,1703 1095.6,1712.2 1095.6,1720.2 1100.2,1724.8 1105.4,1726.6 1107,1728.2 
						1109.4,1729.4 1114,1727.6 1115.8,1731.2 1111.6,1732.8 1111.6,1735.8 1113.4,1741.4 1113.4,1747.2 1121,1760.4 1123.2,1763.4 
						1127.2,1769 1129,1770.8 1138.8,1792 1149,1800.2 1146.8,1810.4 1147.4,1814 1163.4,1826 1165.2,1828.8 1165.8,1835.8 
						1187.6,1864 1194.6,1877.8 1210,1911.6 1202,1920.8 1206,1923.2 1215.2,1918 1217,1920.8 					"/>
					<polyline class="st2" points="6085.8,982.8 6073.6,986.2 6063.8,994.8 6062,993.6 6054,1003.4 6020.2,1008.8 6021.4,1015.8 
						5970.6,1017 5969.8,1012.4 5963.4,1013.2 5963,1009 5919.4,1023 5899.4,1021.6 5876.8,1023.6 5735.6,1014.4 5733.2,1014.4 
						5690.2,964.8 5675.8,947.8 5718.6,910.2 5717,908.4 5713.4,909.2 5710.4,912 5707.8,909.4 5711.4,906.2 5712.8,903.4 
						5731.6,886.8 5731.8,886.2 5731.8,885.6 5731.8,885 5731.2,884.4 5727,879 5726.4,879 5725.8,878.4 5725.2,878.4 5724.8,878.2 
						5724.2,878.8 5705.8,895 5701.6,896.4 5698.6,898.6 5675,871.6 5678,869.4 5679.4,865.6 5699,848.4 5699,847.2 5698.6,846.6 
						5693.8,840.6 5693.2,840.4 5692.6,840.4 5692,840.4 5691.4,840.4 5672.4,857 5669,858 5665.8,861.2 5567.6,748.8 5452.4,683.4 
						5261.6,646.6 5071.8,554.6 5025.8,540.8 5008.2,527 4988,511.4 4958.8,497.8 4929.6,488.8 4902.6,477.6 4866.8,462 
						4835.2,450.8 4808.4,446.2 4758.8,435 4734.2,435 4714.8,434.4 4714.8,429.8 4712.6,427.6 4711.4,402.8 4710.8,402.2 
						4710.2,402.2 4709.6,402.8 4711.4,428.2 4709.6,430.4 4709.6,435 4692,435 4675.8,437.2 4666.8,444 4651,448.4 4630.8,455.2 
						4611.4,461.6 4609.6,451.2 4610.8,448.8 4609.6,444.2 4607.4,441.4 4602.2,417.2 4601.6,416 4601,415.6 4599.8,415.6 
						4593,416.6 4592.4,417.2 4591.8,417.8 4591.2,418.4 4591.2,419 4597,443.2 4595.8,447.8 4597,451.8 4599.2,453.4 4601.6,463.8 
						4591.2,465.8 4576.8,468.6 4563,472.4 4563,471.8 4565.4,466.6 4564.8,462.6 4561.8,459.2 4556.8,434.4 4556.2,433.8 
						4555.6,433.4 4555.6,432.8 4555,432.8 4554.4,432.8 4547,434.4 4546.4,435 4545.8,436.2 4545.8,436.8 4551.6,461.6 
						4550.4,466.2 4551.6,470.2 4555.6,473.6 4539.4,473.6 4518.8,473.6 4482.6,473.6 4451.6,473.6 4415.6,484.2 4381.4,493.4 
						4343.2,504.6 4309.4,515.8 4275.8,538.4 4244.4,563 4221.6,587.4 4219.8,586.8 4218.2,586.8 4216.4,586.8 4214.6,587.4 
						4212.4,588.6 4206,594.2 4150.2,646.6 4144.6,651.8 4108.8,689.2 4058.4,747.2 4037.6,770.8 4014.6,755.2 4012.4,753.6 
						4000.8,745.4 3999.6,745.4 3998.6,745 3997.4,745.4 3996.2,746 3995.6,746.6 3995,747.8 3994.6,749 3994.6,750 3995,751.2 
						3996.2,752.4 4058.4,794.4 4060.6,796 4058.4,800 4056.6,801.8 4058.4,806.4 4070.4,843.8 4066.8,859.6 4064.4,876.2 
						4058.4,892.4 4048.6,904.2 3950.8,931.2 3948,933 3937.6,931.8 3912.8,941 3880.6,966.8 3879,978.4 3818,1019.8 3802.4,1026 
						3797.4,1023.8 3796.2,1022 3793.8,1015.2 3805.4,949 3806.6,940.4 3808.8,927.2 3810.6,920.4 3815.2,913.6 3815.2,906.8 
						3810.6,900 3804,897.8 3795,900 3788.2,902.4 3782.4,902.4 3767.4,867.4 3766.8,866.8 3766.2,866.2 3765.2,865.6 3764,866.2 
						3763.4,866.2 3762.2,867.4 3762.2,868 3761.6,869.6 3776.6,904.2 3763.4,908.2 3753,907.6 3749,912.2 3747.8,918 3742.6,920.2 
						3741.6,920.8 3723.2,916.2 3723.2,917.4 3739.2,922 3738.6,924.8 3741.6,927.2 3740.4,932.4 3741.6,943.2 3738.6,943.8 
						3738.6,950.8 3742.2,951.2 3742.2,960 3737.6,976.2 3699,1005.4 3668.6,1016.2 3655.4,979.4 3700.8,941 3701.8,939.8 3703,938 
						3703.6,936.4 3703.6,935.2 3703,933 3702.4,931.8 3701.4,930 3700.2,929.4 3699,928.8 3697.2,928.2 3695.6,928.2 3693.8,928.2 
						3692.6,928.8 3690.4,931.2 3684.6,935.8 3643.8,969.8 3583.4,979 3562.8,981.8 3548.4,984 3539.2,985.2 3520.2,988 
						3504.6,989.8 3497.8,991 3495.6,988 3492,957.6 3491.4,957 3491.4,956.4 3490.8,956.4 3490.4,956.4 3481.2,957 3480.6,957.6 
						3480,957.6 3480,958.2 3479.4,958.2 3479.4,958.8 3482.8,988.6 3482.8,989.8 3481.6,991 3481.2,992.2 3481.2,992.8 
						3433.4,997.8 3429.4,998.4 3426.6,998.4 3421.8,998.4 3420.2,998.4 3417.8,998.4 3416.2,997.8 3414.4,996.8 3412.6,995.6 
						3410.4,994.4 3409.2,992.8 3408.2,991.6 3407,989.8 3405.8,988 3404.6,985.8 3404,984 3402.4,958.2 3402.4,954.2 3405.2,954.8 
						3405.2,956 3407.6,957 3408.2,953.6 3405.8,953 3405.8,953.6 3404.6,953.6 3406.4,946.8 3407.6,947.2 3407.6,947.8 
						3409.8,948.4 3410.4,945.6 3408.2,945 3407.6,946.2 3407,945.6 3411.6,929.4 3411.6,928.2 3411.6,927.2 3411,926.6 3410.4,926 
						3415,924.8 3406.4,891.6 3405.8,890.4 3405.8,889.8 3405.2,888.6 3404.6,888 3403.6,887 3402.4,886.4 3401.2,886.4 3400,885.8 
						3398.8,885.8 3397.8,886.4 3396.6,887 3395.4,887.4 3394.8,888.6 3393.8,889.8 3393.2,891 3393.2,892 3393.2,893.2 
						3393.2,893.8 3397.8,910 3368.4,910 3366.8,908.8 3365,908.2 3362.6,907 3360.4,905.8 3357,904.8 3353,903.6 3347.2,902.4 
						3343.2,901.8 3337.4,901.8 3334,901.8 3331,902.4 3327.6,903 3324.8,903.6 3321.4,904.8 3317.8,906.4 3314.4,908.2 
						3310.4,910.4 3306.4,912.8 3305.8,913.4 3297.2,922 3296.6,922.6 3296,923.2 3296,923.8 3296,924.8 3296,925.4 3296,926 
						3296.6,927.2 3297.2,927.8 3297.8,928.2 3298.4,928.8 3298.8,928.8 3290.8,954.2 3286.8,957.6 3282.8,961 3279.4,965 
						3277.6,966.8 3275.8,969.8 3274.8,972.6 3272.4,976.6 3271.8,979 3269.6,982.4 3269,984 3266.2,988.6 3263.8,992.2 
						3259.2,997.8 3255.8,1001.8 3251.2,1004.8 3244.8,1007.6 3239.6,1010 3232.2,1012.2 3223.6,1014 3217.2,1014 3210.4,1013.4 
						3198.8,1011.6 3178.2,1006.4 3155.8,1000.2 3154,1000.2 3136.2,999 3119,999 3115.4,998.4 3111.4,997.2 3107.4,995 
						3102.8,992.2 3098.8,988.6 3093,982.4 3087.8,981.8 3083.8,981.2 3075.2,980.6 3069.6,980 3065.4,979.4 3055.2,978.4 
						3040.8,975.4 3023.6,972 3018.4,974.8 3004.6,969.2 2997.6,966.8 2991.4,964.6 2977.6,958.8 2972.4,957 2967.8,954.8 
						2955.6,950.2 2895.8,926 2894.8,920.8 2894.2,920.8 2885,915 2876.4,909.4 2868.2,886.4 2895.8,877.2 2897,876.6 2897.6,876 
						2898.2,875.4 2898.8,874.8 2898.8,874.2 2899.4,873.6 2899.4,873.2 2899.4,872.6 2898.8,872 2898.8,871.4 2898.2,870.8 
						2898.2,870.2 2897.6,869.6 2897,869.6 2896.4,869 2895.8,869 2895.4,869 2894.8,869 2894.2,869 2866,878.8 2856.2,851.8 
						2884.4,842 2885.6,842 2886.2,841.6 2886.6,840.4 2887.2,839.2 2887.2,838.6 2887.2,837.4 2886.6,837 2886.2,835.8 
						2885.6,835.2 2885,835.2 2883.8,834.6 2883.2,834.6 2882,834.6 2854,844.4 2847,826.6 2859.2,797.8 2847.6,793.2 2835.6,822 
						2831.6,824.2 2812,815.6 2808.4,814.2 2808.6,813.4 2807.4,809.8 2818.8,781.8 2818.8,781.2 2818.8,780.6 2818.2,780 2809,776 
						2808.6,776 2808,776.6 2807.4,777 2795.8,805.2 2793,807 2792.4,807.6 2767.6,797.8 2768.2,797.2 2766.6,794.4 2777.4,765 
						2777.4,764.4 2777.4,763.8 2776.8,763.8 2776.4,763.2 2767.6,760.4 2767.2,760.4 2766.6,760.4 2766,760.4 2766,761 2755,790.4 
						2752.8,791.4 2752.2,792.6 2726.8,784 2727.4,782.8 2725.8,780.6 2735,750.6 2735,750 2735,749.6 2734.4,749 2725.8,746.6 
						2724.6,746 2724,746.6 2723.4,746.6 2723.4,747.2 2714.2,777 2711.4,778.2 2686,770.8 2684.4,768 2692.4,738 2692.4,737.4 
						2691.8,737.4 2691.8,736.8 2691.2,736.8 2682,734 2681.4,734 2681.4,734.6 2680.8,734.6 2680.4,735.2 2672.8,765 2670,766.8 
						2644,760.4 2642.4,758.8 2651,727 2649.8,726 2640,723 2638.4,724.2 2630.2,754.6 2628,756.4 2602.6,750 2601,747.2 
						2600.4,747.2 2609,715.6 2597.6,712.8 2588.8,744.4 2586,745.4 2576.8,743.2 2574,738 2559.6,734 2567.6,704.6 2563,703.6 
						2499.8,769 2490.6,778.2 2476.8,769 2472.8,768.4 2471.6,766.2 2471,762.8 2407.8,746.6 2407.2,745.4 2413,723.6 2414.6,722.6 
						2426.8,726 2427.4,724.2 2428,724.2 2429,720.8 2430.2,721.4 2429.6,724.8 2438.2,727 2444,723.6 2445.8,718 2442.4,711.6 
						2433.6,709.2 2432.6,713.2 2430.8,712.8 2432,709.2 2431.4,708.8 2432,707 2419.4,703.6 2418.8,702.4 2424.4,680.6 2425.6,680 
						2435.4,682.8 2436.6,678.2 2438.2,678.8 2437.2,682.8 2440,684 2441.2,680 2443.4,680 2442.4,684.6 2448.6,686.2 2455,682.8 
						2456.6,677 2455.6,675.4 2425,666.8 2360.6,649.4 2359,650.6 2357.2,656.4 2360.6,662.8 2402,673.6 2402.6,669.6 2404.4,669.6 
						2403.2,674.2 2406.6,674.8 2407.8,670.8 2409.6,671.4 2408.4,675.4 2418.2,678.2 2418.8,679.4 2413,700.6 2411.8,701.8 
						2365.2,689.2 2364.6,690.8 2363.6,694.4 2361.8,694.4 2362.4,690.2 2354.4,688 2353.8,688 2347.4,691.4 2346.2,697.2 
						2350.4,703.6 2358.4,705.8 2359.6,701.8 2361.2,702.4 2360.6,706.4 2360.6,708.2 2372.8,711 2373.8,712.8 2368.2,734.6 
						2366.4,735.8 2336.6,727.6 2334.2,728.8 2332.6,728.2 2293.4,678.8 2099.6,627 1864,619 1798.4,636.8 1793.8,620.2 
						1789.8,621.4 1793.8,638 1777.2,642.6 1775.4,635.6 1773.2,636.2 1770.8,627 1773.2,626.4 1772.6,626 1766.2,627.6 
						1766.2,628.2 1768.6,627.6 1770.8,636.8 1769,637.4 1770.8,644.2 1716.8,659.2 1712.2,642 1705.8,643.8 1709.8,661 
						1670.2,671.4 1665.6,654.6 1659.4,656.4 1664,673 1632.2,681.6 1627.6,665 1621.4,666.8 1626,683.4 1590.8,693.2 1473.6,674.2 
						1471.8,688.6 1595.4,708.2 1608.2,754.2 1499,736.8 1375.4,854.8 1317.2,910 1282.8,943.2 1263.4,962 1210.8,968.8 
						1209.6,960.4 1216.4,959.4 1215.2,953 1196.2,956.2 1197.2,962.6 1203.4,961.6 1204.6,969.6 1191,971.2 1160,977.4 
						1141.6,982.4 1138,969.4 1132.8,970.8 1136.8,986.6 1128,988.8 1109.6,993.8 1080.8,1001.4 1053.8,1008.6 1045.6,980.2 
						1098.6,949.2 1092,937.8 1027.4,975.4 1034,987.6 1040.8,1012.2 896,1051.4 887,1063.4 869.8,1121.6 					"/>
					<polygon class="st2" points="2400.4,744.8 2374.4,737.2 2373.2,736 2379.6,714 2380.6,712.8 2406.8,719.8 2408,721.4 
						2402.2,743.6 					"/>
				</g>
			</g>
		</g>
	</g>
</g>
<g>
	<g>
		<g>
			<defs>
				<rect id="SVGID_3_" width="7680" height="2160"/>
			</defs>
			<clipPath id="SVGID_4_">
				<use xlink:href="#SVGID_3_"  style="overflow:visible;"/>
			</clipPath>
			<g class="st3">
				<g id="Pre1900_HKI">
					<path id="Pre1900_HKI-2" class="st4" d="M1456.4,2406l7.2-7.2l4-8l4-12l4-4l-8-4l8-8l8-8l4-8l8-12h5.2l2.8-11.8v-8l4-8l4-4
						l4-11.8v-27.8l12-11.8v-15.8l4-12V2200l-8-4v-11.8l-4-4l4-8l-4-8h-4l-4-8l-8-4l4-11.8v-23.8l-4-4l-8-4v-8l-11.8,4l-13.6-4
						l-6.2,4h-8l-4-4l-4,4l-8-4v-7.6l4-8.2l-8-8v-6.4l-8-9.4l-4-8l-8-4l-4-8l8-11.8l8-8l8-11.8l-4-12l-4-8l-4-8v-15.8l4-8l-8-8
						l-4-11.8v-12l-4-8l-4,11.8h-11.6l-8-4l-4,4v14l-4,4l4,8l-4,7.6l-11.8,0.2l-4,4l-4,11.8l-4,8l-8,4l-8,4l-8,4l-12,4v12l-8,4l-4-4
						v-6.8l-8-5h-15.2l-8-11.8h-8l-4-4l-8,4l-4-4l-4-8l-8-4V1964l-4-4.2l-8-12l-8-12l-4-4v-13l4-6.8l-4-8l8-11.8v-15.8l-4-12l4-11.8
						l8-4l-4-12v-12l4-11.8l4-8l8-8l4-11.8l-8-8l-4,4v-15.8l8-8l-4-8l4-4v-8l-8-4v-8l-4-8h-8l-8-7.8v-8l-8-4l-8-4l-8-4l-4-8v-11.8
						l-8-4l4-8l-4-4l4-8v-19.8l4-12l8-8v-4l-8-8V1574l-12-11.8l-8-8l-8-4l-8,8v11.2l-4,4.6l-4,8l-8,4l-4,8l-8,4h-12l-11.8,4l-8-4h-8
						l-12-8h-22l-19.8-4l-11.8-4h-8l-8-12h-11.8l-4-8l-4-4l-11.8-4l-4-4l-12-4l-4-4l-8-4v-4l-8-7.2l4-11.8l-4-7.2l-4-4.8h-8l-8-8
						l-4-8l-4-4l-12-4l-4-8l-11.8-15.8h-8.4l-7.4-4l-4-8l-8-4l-8-8l-8-4l-8-4l-8-4h-7l-4.8-4l-8,4l-8-8l-12-4l-4-8l4-15.8l-4-8v-6.4
						l-4-4.6l4-8l-8-4l4-11.8l-12-4l8-12l4-15.8l13.2-11.8v-15.8l4-11.8l4-12v-11.8l11.8-8v-11.8l-4-8l4-8v-12l8-4l11.8-8l12-15.8
						l8-4l8-12l4-8l8-11.8l4-12l8-8l8-12l23.2-18.8l15.8-8l8-12l15.8-4l8-4l27.8-4l8-4l11.8-4l12-8l27.8-4l15.8-4h19l20.6-4h15.8
						l19.8,8l19.8,4h35.6l15.8,4l15.8,4l8,4l12,8l11.8,4l15.8,4h15.4l15.8-4l15.8-4l12-4l11.8-4l19.8-12l12-11.8l8-12l8-15.8l4-11.8
						l4-12l8-8l8-8l12-8l15.8-8l11.8-12l8-8l8-4l12-8l4-19.8l4-12l8-12l8-11.8v-19.8c4,4-4-8-4-8l4-12l8-8h15.8l11.8,4l15.8,4
						l27.8,4l15.8,12l11.8,4h43.6l19.8-4l12-4l15.8-8l15.8-8l12-8l11.8-8l12-4l15.8-4h23.8l11.8,11.8l8,4l12,4h15.8l15.8-4l15.8-8
						l4-11.8l4-12l4-4l8-4h27.8l12,4h8l4,12v8l8,8l11.8,4h47.6l12,4h8l15.8,4h23.8l8,4l4,4l4,8l8,4h8l8,4l4,4h15.8l8-4l8-4l4-4l8-8
						l8-4h4l8-4l8-4l4-4h4l8,4l11.8,8l8,8l15.8,12l11.8,11.8l12,8l11.8,11.8h23.8l4-8l8-4h8l4,8l12,8l11.8,8l4,8v12l12,4l12,4h8l8-4
						l8-4h4l8-4l4-8h12l11.8,4h23.8l15.8,8l8,4h19.8l11.8,4l8,4l4,4l4,4l8,8l12,8l4,12V956l4,8l11.8,11.8l4,8l8,8l8,8l4,8l4,4l8,8
						l8,12l4,11.8l8,8l8,11.8l12,12l8,8l4,8l4,8l4,8l11.8,8l8,15.8l8,8h11.8l12,4h12l8,4l8-4h27.8l8-4l19.8-4l19.8,4l19.8,4l23.8,8
						l19.8,8l19.8,8l12,8l15.8,12l15.8,11.8l15.8,12l4,8v16l4,3.8h-2.8l4.4-4l4-4l11.8-4h27.8l8-4l8-4l8-8l11.8-8h4l4,4l4,4l8,8l4,4
						l8,8v5l-12,10.8l-8,8l-8,11.8l4,8h15.4l16.4,4l12,8l8,4l8,4l12,8l8,4l8,8l4,4l15.8,11.8l12,8l12,8l11.8,8l8,8l8,4h18.8l11.8-4
						h8l11.8,4l12,8h53.8l9.6,8l15.8-4l8-4l11.8-4l8-4l12-4l15.8-12l11.8-4l15.8-4h11.6l12-8l8-4l8-4l27.8,8l27.8-19.8l12-15.8
						v-15.8h23.8l39.6-11.8l19.8-15.8l15.8-4l23.4,33.8l-4,23.8l8,35.6l8,8h23.8l15.8-7l15.8-16.6l12-15.8l11.8-4l27.8-11.8
						l19.8-19.8l-11.8-31.6V1230l4-12v-8l-4-12v-8l2.6-12.6l2.8-7.2l3.2-3.2l6.4-6.4l9.6-9.6l6.4-9.6l3.2-9.6l3.2-9.6l-3.2-6.4
						l-6.4-6.4l-3.2-6.4l-3.2-9.6l2.6-7l8-4l12-4l11.8,4l11.8,12l4,19.8v8l-4,12l-8,8l-4,8v8l11.8,4l11.8,8l15.8,15.8l15.8,11.8
						l19.8,8l23.8,8l23.8,4h31.6l12,15.8l15.8,12l11.8,4l19.8-4l19.8-8l19.8-4l27.8-8h59.4l15.8-12l4-15.8l-4-19.8l-8-15.8l-8-19.8
						v-28l-4-23.8l-4-23.8V1035l-4-31.8V972l-4-31.8l-4-35.6l-4-19.8V861l4-15.8l11.8-12l27.8-35.6l23.8-27.8l47.6-55.4l19.8-23.8
						l15.8-12l15.8-8h15.8l19.8,4l15.8,4l19.8,4l15.8,4h43.6l15.8-4l19.8-4l27.8-8l27.8-8l27.8-4l31.8-4h35.6l23.8-4l15.8-4l19.8-8
						l23.8-11.8L4774,611l23.8-8l25-4h34.4l11.8,4l15.8,8l23.8,12l31.8,11.8l21.8,11.6l9.8,8.2l4,8l4,23.8l8,35.6l8,35.6l8,27.8
						l8,27.8l8,27.8l11.8,27.8l15.8,31.8l15.8,23.8l8,12l8,8h11.8l11.8-8l8-8l4-11.8v-8l8-11.8l8-8l11.8-8l8-4l8,4l4,8l8,11.8
						l11.8,19.8l8,15.8l8,11.8l8,4h8l4-8l4-12l8-11.8l15.8-15.8l11.8-8l11.8-4h11.8l15.8,8l19.8,12l15.8,8l11.8,11.8l19.8,8l19.8,4
						l23.8,4l31.8,12L5460,976l8,12l23.8,31.8l11.8,19.8l15.8,19.8l11.8,19.8l12,19.8l19.8,19.8l23.8,15.8l31.8,19.8l35.6,15.8
						l27.8,8l31.8,8l15.8,11.8l15.8,23.8l12,19.8l15.8,23.8l11.8,19.8l8,8l11.8,8l15.8,8l12,12l11.8,8l8-4l11.8-11.8l8-8l4,12l8,4
						h12l8,8l11.8,8h11.8v-28.2l8-8l11.8-12l8-11.8l-8-4l-11.8-15.8l-8-23.8v-23.6l4-27.8l15.8-23.8v-27.8l-4-19.8l-8-23.8v-19.8
						l11.8-15.8l19.8-12l15.8-4h11.8l15.8,4l11.8,15.8l11.8,15.8l15.8,11.8l19.8-4l8,4l8-4l-4-11.8l-4-8v-39.4l-8-15.8v-12l11.8-8
						l19.8-4h15.8l8,11.8l12,8l8,12l8,8l15.8,12l15.8,11.8l15.8,12l11.8,12l19.8,15.8l15.8,12l15.8,4l12,4l4,8h13.2l8,8l8,4l8,4l8,8
						l-15.8,4l-4,4l8,4h11.8l8,4l8,12l-4,4l-4,8l-4,8l-4,8v8l-8,4l4,8l-4,8l-4,8l-8,4v8l-8,8l-12,4l-8,8l-11.8,4l-4,4l-11.8,4l-8,4
						v10l-4,15.8v15.8l4,11.8l4,4l8,8l12,8l8,4h8v8l-4,8l8,4l8,8l8,8l4,11.8l8,12l11.8,8l12,8l11.8,4l12-4h11.8l8-4h35.6l8-4l4-8v-8
						l8-4l4,4v8l-4,4l4,4h8l4,4l-4,4l4,4l4,4l-8,4l-4,8l-4,4v8l-11.8,4l-4,4l-12,4l-8,8h-8l-8-8l-8-8l-4,8v8l4,8l4,4l-4,8h-4l-8-4
						l-8,8v8l-4,4l-8,8v4l-4,12l-4,8l-4,12l-8,4v19.8l-4,4l-4,8l-4,12v8l4,8l-11.8,4l-4,4l4,8l-4,4l-4,8v11.8l-8,12l8,4l-4,4l8,4
						l4,8l-8,4l4,8l-8,4l-4,4l4,4l-12,8v8l-4,8l-4,11.8l-8,4v8l-12,4l-4,12l4,11.8l-8,12l-4,8l8,4v12l-8,8l-4,8l4,12l8,11.8l12,12
						l8,4l11.8-4l8-4l8,4l4,8l-4,8v15.8l-4,12l-12,4l-4,12l-8,8l-12,4h-15.8l-8-8l-8-8v-8l4-8h8v-8l-8-4l-8-8l-8,4l-4,4l-8-4l-4-8
						l-4-12l-4-8l2.8-5l-2.8-7l-8-4H6173l-8-8l-4-8v-8l-8-8l-4-8l-11.8-4l4,8l8,8l4,11.8l4,4v11.8l-8,8h8l6.6,3l1.4,12.8l4,4l-8,8v8
						l4,4v12l4,8v8.4l8,8l11.8,8h12l4,4l4,11.8l4,4l4,8l-4,8l4,4l4-4l8-4l4,8l11.8,4v4l-4,8l-4,8l4,8l8-12l11.8-4h12l8,11.8l8,8
						l11.8,4l8,4l11.8-8l12-8l4-11.8l11.8-12l15.8-8l11.8-12l23.8-4h15.8l4-15.8l8-12h15.8l15.8-4l11.8-8l8-8l0,0l12-8l8-8l11.8-4
						h11.8l8-4l8-4l4-8l8-8h4l11.8-8l8-12l8-11.8l8-4h19.8l8,4l4,4l8,8l4,4h8l8,4l4,4l4,4l4,8l4,4l4,8l4,8l4,4l4,8l4,4l4,8v23.6l8,4
						l4,4l4,4l8,4l4,4l4,4l4,4v15.8l-4,4l-4,4l4,8l8,4v19.8l-4,4l-4,8v8l-4,4l4,4l8,4v4l-8,8l-4,8l-4,8v4l4-4l8-8l4-4l8-4h51.6l12-4
						h35.6l8-8l8-8l8-4h4l4-12v-23.8l4-8l-4-8l-4-12l4-8v-24l-4-15.8v-8l4-8v-8l4-4l19.8-4l4-4l11.8-8h8l8-8l8,4h9.4l8,8l4,4l8,4
						l11.8,4l8,8l4,12h4l8,8v8l4,12l8,8v8l4,8l8,4v8l4,12l8,8l4,8h11.8l8,4l11.8,4l15.8,8h15.8l8,4l8,4l4,8h8l8,4l8,8l-4,4l-8,4
						l-11.8,4l-8,4l-8,4l-11.8,4h-12l-8,4l-8-8h-4l-4,8l-4,4l-8-4l-4-4l-8,4h-8l-4,8v27.8l4,19.8v12l4,8v4l4,11.8v8l8,8v23.8l-4,8
						v19.8l4,8l4,8l4,4h8l4,8l11.8,4l8,4l4,4l-4,8l12,4l4,4v8l4,4l4,8l-11.8,4l-8,8l-8,6.8v13l-8,8v12l-4,11.8l-3.6,7.2"/>
					<polygon id="Pre1900_Kettle_Is." class="st5" points="3744.6,966.8 3752.4,958.8 3759.4,962.8 3759.4,973 3768.4,974.8 
						3772.2,982.6 3768.4,990.6 3768.4,998.6 3764.4,1002.4 3758.4,1014.8 3748.4,1010.4 3740.6,1010.4 3734.6,1014.8 
						3728.6,1014.4 3732.6,1006.4 3740.6,1002.4 3740.6,994.6 3735.6,986.8 3736.6,978.6 3740.6,974.8 					"/>
				</g>
			</g>
		</g>
	</g>
</g>
<g>
	<g>
		<g>
			<defs>
				<rect id="SVGID_5_" width="7680" height="2160"/>
			</defs>
			<clipPath id="SVGID_6_">
				<use xlink:href="#SVGID_5_"  style="overflow:visible;"/>
			</clipPath>
			<g class="st6">
				<g id="Pre1900_Kln">
					<path id="Pre1900_KLN-2" class="st4" d="M9418.4,1966.8h-23.8l-19.8-4l-15.8-8l-11.8-4l-12-8l-15.8-8l-11.8-11.8l-8-8l-8-8
						h-15.8l-8-4l-4-5.2V1887l-4-11.8l-12-15.8l-15.8-8l-11.8-4h-8l-8,4l-8,8l-4,4l-4,8v27.8l-4,4l-8,8h-4v8l4,4l4,8l4,4l-4,4l4,8
						l4,8v8l4,11.8l-4,12l8,4l4,11.8v19.8l-4,12l-4,8l4,12l4,11.8l12,8.4v7.4l-8,11.8l-11.8,15.8l-12,15.8l-8,12l-12,11.8l-11.8,4
						l-15.8,4h-15.2l-8-4l-8-8l-12-4l-8-8h-15.8l-8-4l-8-4H9034l-8-4v-8l4-8l4-8l8-8.8v-11l-4-12l-8-11.8l-15.8-12l-8-11.2V2018
						l-8-11.8l-4-12l-12-11.8l-8-12l-4-8l-8-12l-8-15.8l-8-15.8l-12-8l-11.8-8l-12-8l-15.8-8l-11.8-4l-15.8-4h-15.8l-11.8,4l-15.8-4
						l-11.8-4l-8-8l-8-8h-12l-11.8-4l-12-4l-11.8-8l-12-8l-19.8-13l-4-10.8v-12l4-8l-4-8l4-11v-12.8l-4-12v-8l4-12.4V1701
						l-11.8-15.8l-15.8-8l-15.8-4h-11.8l-12,4l-11.8,8h-12l-15.8-8l-15.8-12l-19.8-4h-63.4l-27.8,4l-35.6-4l-8-4l-8-8l-11.8-8h-12
						l-15.8-8l-8-12h-8l-12-4l-11.8-4l-4,4h-8l-8,4l-8,8v8l-4,12l4,11.8l4,8l8,8v11.8l8,8l8,11.8l4,15.8l8,12l4,11.8l-4,8l-4,12
						l-11.8,8h-12l-15.8,4l-15.8-0.4l-8-3.6l-8,4l-8,4l-4,11.8l-4,12l-11.8,11.8l-8,12v8l-8,12l-8,8l-8,12v27.8l4,11.8l8,8l8,4l8,8
						v11l-8,11.8l-5.2,4h-10.6l-8-4l-8-4l-4-4l4-8l8-4v-8l-4-15.8l-4-19.8l-15.8-12l-11.8-4l-19.8-8l-12-8l-11.8-8l-4-12l-8-8l-8-12
						l-8-15.8l-8-12l-4-11.8l4-12v-34.8l-4-11.8l-4-12l4-15.8l4-15.8l4-19.8v-12l4-8l11.8-4v-43.6l-8-19.8l-8-19.8l-11.8-23.8
						l-8-27.8l-8-8l-4-12v-11.6l4-8v-15.8l4-11.8l8-15.8v-43.6l4-15.8l4-12v-12l8-11.8v-12l8-15.8l4-8l11.8-4l8-8l8-4h19.8l8,4l8,4
						h11.8l4-8l8-8l8-11.8l12-12l-8-4v-4h8l8-4l8-4l8-4l8-4l8-4l4-8l8-8l8-11.8l4-8l4-11.8l4-12l-4-8v-8h-8l-11.8-4l-4-1.4v-6.6
						l-8,4l-6.8,8h-3.8l-4-8v-4l4-8l-8-8l-4-11.8v-8l8-8l4-8v-8l-8-15.8l-4-12l-8-11.8l-8-12l-11.8-15.8l-8-8l-8-8l-8-4l-8-4h-8
						l-8,4h-8l-4-4l-4-8H8143l-4,8v4l-4,4l-8,4h-8l-11.8,4h-23.8l-5.2,4h-10.6l-4-4l-4-8l-8-12l-4-8v-8l-4-8l4-8v-15.8l-4-8l-4-8
						V886l4-8l4-8l8-8l11.8-8l8-8l4-12v-21l4-15.8l4-11.8V766l4-12l4-8l12-8l11.8-8l11.8-11.8l8-8l4-15.8l4-15.8l4-14v-13.4l-4-12
						l-4-11.8l-4-12v-11.8l-11.8-8v-8l4-8l-4-4l-13.8-2l-11.8-8l-17.8-13.8h-12l-11.8-2l-8,2l-8,4h-8l-8-4l-4-4l-4-4v-8l4-8V516
						l4-15.8V488l4-4l8-11.8l8-11.8l8-11.8V405l4-8v-8l-4-13.2v-26.4h-4l-4,4l-8-4l-8-8l-8-8l-8-8l-8-8l-11.8-8l-8-8l-8-4l-4-4l-4-4
						l-4-4l-4,4v19.8l-8,4h-23.8l-8,4l-4-4l-8-4h-11.8l-11.8-4h-8l-8,4l-8,4l-4-4l4-4l8-4l-4-4l-8-12l-8-11.8l-12-8l-8-4v-8l-8-8
						l-8-8v-8l4-4v-12l-4-19.8l-4-19.8v-26.2l-4-8l-4-8l-4-8l-4-11.8l-8-12l-8-8l-4-8l4-11.8l4-11.8l-4-8l-4-12l-4-11.8v-8l4-8
						l4-11.8l-4-11.8l-4-4l-8-11.8L7753-42.8l-8-12l-8-8v-8h-4l-8-4l-8-11.8l-8-12l-4-4l-4-8l-8-12l-4-8l-8-8v-11.8l-4-8l-11.8-4
						l-11.8-4l-11.8-4l-11.8,4l-8,4l-8,4h-8.2l-8,4l-4-4v-8l-8-8l-4-8l-4-4v-8l-8-8l-4-8l-8-8l-4-8l-4-8v-11.8l4-8V-270l-4-8v-11.8
						l-8-11.8l-4-8l4-8l4-8l4-8l4-8l8-4l12-8l11.8-4l8-4l11.8-8l4-8l4-15.8l4-15.8l4-15.8l4-12l8-8v-12l4-8l8-4l8-8v-8l8-11.8
						l11.8-11.8l8-4l8,4l12,4l8,8l8,4l8,4l8,8v-4l4-8h11.8l4-4l4-4l8-4l4-8v-8l4-4l9.4-6l10.4-13.8l11.8-11.8l11.8-12L7832-580
						l4-10.2v-13.6l-8-15.8l-8-11v-41l-11.8-8l-8-11.8l-8-12l-4-12l-4-8l-8-8h-8l-11.8-8l-8-8l-11.8-4l-11.8-4l-8-8l-8-4h-8l-8-8
						l-8-4l-4-12l-4-11.8l-8-8v-8l-8-10.6l-4-9.2l-8-8h-8l-8,4l-8,4l-4,8l-4,8v15.8l8,8l4,15.8v23.8l4,15.8l4,12l4,8v8l4,4h11.8
						l4,4.4v7.4l-4,12l-4,8l-4,8l-4,4l-4,4v8l-8,4h-8l-8-4h-8l-8,4l-8,4l-8,4l-11.8,4h-12l-11.8-4l-11.8-4h-11.8l-11.8-4l-11.8-8
						l-12-4l-11.8-5v-6.8l-12-11.8l-11.8-12l-8-11.8l-8-15.8l-4-16v-99l-4-15.8l-11.8-15.8l-15.8-11.8l-11.8-8l-11.8-11.8
						l-11.8-15.8l-8-11.8l-8.4-10.6h-9l-10.2,2.6l-11.8-4v-8l-8-12l-4-11.8l-4-12l-4-15.8l-4-12l-8-15.8l-11.8-8l-15.8-4h-15.8l-8-8
						l-4-8l-11.8-12l-8-8l-11.8-8l-11.8-4h-30l-8-4l-11.8-8l-11.8-4h-12l-8,4l-12,8l-11.8,4l-11.8,8l-11.8,8l-11.8,4l-11.8,4l-12,4
						h-11.8l-4,8v8l-8,4l-8-4l-11.8-8l-4-8l-12-4l-8-8l-4,4v12l-8,8l-8,4l-8,8l-11.8,4l-8,8l-4,8l-12,4l-15.8,4l-4,8v8l8,4h43.6l8,4
						l8,8v23.8l-4,8l-4.6,4h7.8l6,4v4l-4,8l-4,15.8h8l8,4l8,4h8l4-8l8-8l4-8l4-4h15.8l4,4l4,4l4,4v4l4,8l4,8l4,8l8,8l8,4l8,4h11.8
						l11.8,4l15.8,8l15.8,4h15.8l15.8,4l11.8,8l4,12l8,4l8,4l8,8l4,8v31.8l4,12l4,12l4,11.8v23.8l4,15.8v11.8l4,12l4,15.8v8l-8,8
						l-4,8v11.8l4,8l8,11.8l4,12v23.8l8,8h19.8l8,4l2.2,8.6v29l-2.2,13.8l-4,11.8l-8,4h-15.8l-4,4v38l-8,8.4v11.6l-11.8,15.8
						l-8,15.8l-8,19.8l-8,11.8l-8,11.8l-8,12l-8,12.4v11.4l-4,8l-4,11.8l-4,12l-4,14.4v13.4l-8,8l-12,12l-4,8l-4,11.8l-8,11.8
						l-11.8,8l-15.8,12l-19.8,11.8l-15.8,12l-12,8l-11.8,8l-11.8,8l-11.8,4l-11.8,8l-12,8l-8,4v8l-4,8h-8v17l-8,18.8l-15.8,8
						L6902.6-44l-11.8,15.8l4,11.8l8,8v8h17.2l14.4-4l19.8-9.6l19.8,4l15.8-4l8-11.8h15.8l8,4v14.6l-4,17l-4,23.8l-4,15.8l4,23.8
						l-4,19.8l15.8,15.8h5.8l14,8h23.8l8,8h11.8l12,4l11.8,8l4,11.8l-4,15.8l-4,15.8l-4,11.8l-12,12l-1.8,15.8l1.8,19.8v12l4,23.8
						v15.8l-4,19.8v19.8l4,19.8l-4,11.8l-11.8,4H7065l-11.8-4l-8,4h-12.4l-11.4,11.8l-8,27.8l-4,11.8l-11.8,11.8l-15.8,4l-11.8,4
						l-12,11.8l-8,15.8l-4,19.8l-8,11.8l-8,4h-14l-5.8,19.8l-15.8,15.8l-11.8,15.8l-15.8,12L6855,576l-8,12l-11.6,12l-8.2,4l-4-4
						l-8,11.8l-12,12l-11.8,4h-15.8l-4,4l-11.8,8l-4,4v14l-4,9.8l-12,8h-8l-4,4l4,19.8l-8,19.8l-8,8l-11.8,4l-8,8l-8,8l-15.8,4
						l-11.8,4l-12,8l-4,8l8,8l4,8l-8,8l-8,12l-8,15.8l-8,15.8l-11.8,12l-8,15.8l-11.8,12l-8,15.8l-8,15.8L6565,926l-8,8l-15.8-4
						h-25.8l-11.8-8l-15.8-4l-11.8-8h-15.8l-8-8l-8-4v-8h-4l-4,4v8h-4l-8-8h-4l-4,4l-4,8h-8l-4-4l-4-8l-15.8-15.8h-11.8l-4-8l-4-4
						l-11.8-4l-8-8l-15.8-12h-8l-11.8-11.8h-8l-8-8l-8-8h-12l-8,4h-8l-4-8l4-8l4-8v-8l8-8l8-8l12-11.8v-8l4-4h8l4-4l4-4l-8-4l-4-4
						l4-4l8-8l8-4l4-12l4-8l8-12l8-8l4-8v-27.8l4-11.8l3-3l5-5l8-8l8-15.8l4-8v-27.6l-15.8-4l-15.8,11.8l-11.8,12l-19.8-4l-19.8,4
						l-15.8,8l-12.6,12l-11.2,9.4c0,0-19.8-5.4-11.8-1.4s-12.2-8-12.2-8V592l-11.6-4.4l-12-15.8l-15.8-8v-23.6l-4-8.2l-19.8-4
						l-19.8-8l-11.8-12l-12-8l-11.8-11.8l-8-4l-4-8l4-8l4-8v-4h-19.4l-4-4l8-8l8-8h8l8-8h8l4,4h8l8,8l8,8l15.8,4h8l11.8-4l4-4
						l-4-11.8l-4-11.8l-4-12v-8h8l4,4l8,4l11.8-4h15.8l8,4l4,8l8,4h8l6.8-8l9.2-4h12l11.8,4l8-4v-8l-4-8l-4-11.8l-11.8-15.8
						l-12-27.8l-4-12v-8l4-15.8l12-11.8l11.8-12l8-11.8l8-8l8-4l4-4h-13.2l-8,4h-8l-4-4l-4-4l-8,4h-8l-8,4l-11.8,4h-11.8l-11.8,4
						l-4,4l-4-4l-12,4l-8,8l-8,4l-15.8,4H6120l-23.8,4l-11.8-4h-39.6l-19.8-4l-11.8-8l-19.8-4l-11.8-4l-19.8,8h-12l-11.8-12l-11.8-8
						l-15.8-12l-15.8-4l-7.8-16l-4.2-7.8l-11.8-15.8l-4-19.8v-11.2l-23.8-31l-24.4-28.2l-8-11.8v-8l4-11.8V20.8l-8-43.6l-8-15.8
						l-11.8-12l-4-15.8v-25.4l8-10.4l11.8-11.8l15.8-8h19.8l8-4l8-12l8-15.8l8-12v-15.8l4-8l4-11.8l-8-11.8l-4-4l-4-8l8-4h10.6
						l9.2-4V-245l4-8l23.8-4l27.8-8l4-15.8l12-19.8l23.8-15.8l23.8-11.8l8-12H5987l-17.4-8l-23.8,4l-34.2-4l-29.2-8l-15.8-8l-11.8,8
						H5843l-8-12l-12-8l-11.8-4l-15.8-4l-8-4l-4-11.6l-8-8.2l-4-11.8l-8-11.8l-8-8l-4-11.8l-4-8l-8-11.8l-8-8l-8-4l-8,4l-4,8h-8
						l-4,4l-8-4v-17.4l-4,1.6l-4,8l-4,11.8v33.2l-4,4h-8l-8-8h-10l-4-8l-11.8-8v-10l-11.8-13.6l-8-11.8l-12-12l-8-4
						c0,0-19.8-8-15.8-8h-15.2l-12.6,4h-19.8l-6.8-4l-5-4h-9.2l-10.6,4h-4l-4-8h-6.8l-5.2-4l-10.6-2l-5.2-6h-10.8l-17-8h-13.6l-18-8
						l-11.8-4l-11.8-12l-12-11.8l-15.8-12l-8-8l-11.8-4l-8-4l-8-8l-4-4h-11.8l-8-8l-12-8l-8-8l-8-15.8l-4-15.8l-4-8l-4-11.8l-4-19.8
						l-8-19.8l-4-15.8l-8-8l-4-4v-4l8-4l11.8-4l11.8-4l15.8-4l11.8-15.8l8-8v-39.6l4-8h10.4l9.6-11.8l11.8-15.8l4-19.8l11.8-11.8
						l-11.8-15.8l-4-8l-8,4l-8-8l-11.8-8l-15.8-4l-11.8-12v-15.8l-4-12v-11.8l-11.8-12l-8-11.8l-15.8-23.8l-19.8-15.8l-15.8-12v-6
						l-8-4v-5l8-7h-13.8l-10-8l-11.8-12l-8-15.8l-4-12l-15.8-8l-23.8-12l-19.8-8l-8-4l-11.8-19.8l-8-12l-15.8-11.8l-11.8,4l-3.8-4
						l7.8-8v-15.8l4-12l8-8l-4-4l-8-4l-4-8v-4l-15.8-4l-15.8-8l-12-8l-4-15.8v-12.2l11.8-11.6l4-8l-15.8-15.4h-6.4l-9.6,3.4l-6,1.6
						l-3.2-5.2l13.2-8.4v-8l-13.2,3.6l-14.6,0.4l-23.8-15.8l-27.8-23.8l-4-4l-11.8,4l-15.8-12l-4,8h-4l-11.8-8l-12-11.8l-11.8-8
						l-11.8-15.8H4653l-24.8,4l-43.6,8l-31.8,12l-19.8,11.8c0,0-23.8,15.8-27.8,19.8l-23.8,23.8l-31.8,35.6l-35.6,40.6l-35.6,43.6
						l-19.8,23.8l-23.8,15.8l-15.8,15.8l-35.6,31.6l-15.8,19.8v22.6l-4,29l-8,15.8l-15.8,19.8l-19.8,12l-15.8,15.8l-8,11.8v52
						l-8,23.4l-17,6.8l-22.6-6.8l-4-15.8l-8-15.8l-4,12l-4,19.8l-19.4,15.6l-4,31.8l4,31.8L4121-866l27.8,11.8l31.8,15.8l31.8,19.8
						l12,19.8l11.8,11.8l8,12v27.8l-4,23.8l-15.8,23.8l-23.8,15.8l-19.8,8l-11.8,8l-8,8l-15.8,8l-19.8,8l-11.8-4h-11.8l-11.8,8
						l-15.8,11.8l-12,8l-15.8,8l-11.8,19.8l-11.8,19.8v25.4l-4,42v109.6l8,25.2l15.8,27.8l19.8,15.8l15.8,15.8l12,31.8v15.8l4,8
						l11.8,12l23.8,4h27.8l19.8,8l23.8,8l23.8,11.8l11.8,4l12,8l4-4l15.8,12v11.8l-8,12l-4,19.8l-12,15.8l-15.8,15.8L4217-88.4v34.6
						L4205.2-34v23.8l11.8,27.8l-4,19.8l4,15.8l-4,11.8l-11.8,4l-8-8l-15.8-11.8l-15.8-8l-8-4l-8-8l-8-15.8l-4-8h-8L4114,1.8
						l-11.8-8l-4-11.8v-15.8l-8-8l-15.8-8l-12-11.8l-8-8l-12-8l-15.8-4c0,0-12-4-12-8s-4-12-4-12v-14.8l-12-13l-8-12l-11.8-8l-8-12
						l-11.8-8l-12-4l-15.8-4l-19.8-8l-19-11c0,0-15.8-4-19.8-8c-5-4.2-10.4-8.2-15.8-11.8l-8-15.8l-4-4h-12l-8,4l-8,8l-19.8,8
						l-27.8,4l-35.6,8l-12,4l-8,4l-4,11.8v6.6l-8,5.2l-11.8,8l-12,8l-8,8l-8,11.8l-11.8,8l-15.8,19.8L3622.4-97l-8,19.8l-8,27.8
						l-8,31.8l-4,27.8l-8,39.6l-15.8,23.8l-8,11.8l-12,4l-11.8-8l-12-4l-8,8l-8,35.6l-12,39.6l-8,27.8l-12,27.8l-8,19.8l-8,27.8
						l-8,31.8l-4,27.8l-4,15.8l8,23.8l8,11.8v23.8l-8,19.8l-15.8,23.8l-19.8,19.8h-19.8l-8-11.8V441l-15.8-14.6l-4-11.8l-8-19.8
						l-8-11.8h-27.8l-11.8,4h-51.6l-15.8,8l-19.8,4l-15.8,15.8l-4,15.8l-15.8,8l-4,15.8l-8,11.8h-8l-8-8v-10.8l-4-17l-4-11.8v-15.2
						l-4-8.6l-4-15.8l-8-15.8l-4-8l-4-15.8l-4-27.8l8-15.8v-36.4l-4-15.8l-8-15.8l-8-15.8v-39.4l-4-28.8l-4-23.8V98.4l4-22.2l4-23.8
						l-4-15.8l-4-20.2l-8-11.6l-8-4l-15.8-4l-8-11.8l-4-8v-28.4l4-11l4-12l8-8l19.8-8l8-4l11.8-27.8l8-19.8l8-19.8l4-11.8l12-12
						l15.8-4l12-11.8l8-15.8l4-12V-261l4-12v-15.8l8-8v-19.8l-15.8-11.8l-15.8-15.8l-8-4l4-19.8l8-15.8l4-15.8v-8l-8-8l-4-19.8
						l-11.8-15.8l-4-11.8l-12-4l-4-4l-12-8v-11.8l-4-4l4-15.8l8-4l8-4l4-4v-11.8l-4-8v-11.8l-4-8l-4-11.8v-12l-8-11.8l-8-4l-11.8-8
						l-8-8V-660l-7.8-16.6v-5l-4.2-10l-4-15.8v-79.2l-4-11.8v-12l8-8l8-12l11.8-23.8v-15.6l-4-12l4-12v-55.4l-15.6-12l-24-4l-27.8-8
						l-39.6-8l-47.6-4l-27.8,4l-4,8v23.6l-4,15.8l-8,19.8l-4,19.8l-4,27.8l-4,27.8l-8,12l-19.8,15.8l-4,12l-4,19.8l-15.8,19.8
						l-15.8,15.8l-15.8-8l-15.8-23.8l-12-12l-8-11.8l-4-12l8-51.6l-4-35.6l11.8-39.6l8-12l7-8h12.4l12-4l9.6-2l10.2-2l8-4l4-4l8-8
						l-4-8l-8-8l-8-12l-4-15.8l-4-12l-8-4l-4-4h-8l-8-8l-4-8l-19.8-19.8l-23.6-22.8l-4-8l4-8l-4-11.8l-12-8l-23.8-15.8l-11.8-19.8
						l-4-19.8l8-8l19.8-4h19.8l15.8,8h19.8l19.8,8l15.8-19.8l15.8-23.8l-8-15.8l-0.6-23.8h-11l-15.8-15.8l-19.8-39.6l-15.8-43.6
						l-11.8-39.6l-4-28.2v-19.4l-4-19.8l-15.8-11.8l-23.8-23.8l-23.8-11.6l-4-12l-11.8,4l-12-8l-8-4l-15.8-8l-4-12h-4l-8,8h-15.4
						l-12-12l-8-16.2v-11.6l-12-12l-19.8-15.8l-19.8-15.8h-8l-15.8-12l-15.8-15.8l-12-4l-8-8l-12,4l-19.8-11.8l-31.8-8l-31.6-8
						l-31.8-4l-4-12l-19.8-8h-15.8c4,0-4-12-4-12l-4-4l-4,4l-4,8l-8-4h-11.8L2256-1727l-15.8,8l-23.8,8l-23.8,8l-23.8,8l-19.8,11.8
						l-11.8,8l-11.8,4l-8,11.8l-12,8l-8,4l-4,11.8l-12,12l-19.8,8l-11.8,4l-4,12l-8,8l-8-3.4v-8.6l-8-4H2006l-12,4l-8,4l-4,8v8l8,4
						h8l4,23.8l-8,8l-11.8,1.6l-4,6.4l4,15.8l-4,19.8l-12,23.8l-4,8h-8l-8,8l-8-4l4-12l-4-19.8l-8-15.8l-9.8-12l-8-19.8l-15.8-16
						l-15.8-7.8l-11.8-11.8v-8l8-8l8-8l8-15.8l4-23.8l-8-15.8l-12-8l-11.8-8l-4-11.4v-16.4l-8-12l-11.8-11.8h-15.8l-12-8l-15.8-15.6
						h-8l-4-8l-15.8-12l-11.8-12l-12-8l-4-15.4v-12.4l-11.8-8l-15.8,4c0,0-23.8,4-19.8,4h-27.6l-12,4l-4,24.2v35.4l-12,11.8l8,15.6
						v20l-8,13.2v22.4l-4,8l-15.8,4l-12,12l-16.4,8h-15l-8-8l-8-23.8l-19.8-8l-27.8-4l-12-15.8l-8-21.8v-33.6l-21.2-4h-18.6l-11.8-8
						l-8-19.8l4-27.8l-8-4l-8-4l-8-15.8v-19.8l-4-11.8l-4-27.8l-8-8l-15.8-8l-7.8-4l-8-4l-6,4H1340l-15.8-4l-15.8-15.8l-4.6-8h-54.2
						l-8-4L1218-1976l-14.4-12H1190l-15.8-8l-4-15.8l-4-15.8l-8-4v-15.8l8-27.8v-31.6l4-19.8l8-11.8l-4-12l-4-15.8l-8-8l8-12v-8
						l-12-11.8v-11.8l8-11.8l8-15.8v-19.8l4-15.8l12-27.8l4-27.8l-4-12l-12-8v-8l12-4h11.8l23.8-11.8l27.6-31l23.6-31.6l8-23.8l4-12
						l8-8l19.8-19.8l19.8-19.8l15.8-23.8l8-8v-23.8l8-15.8l8-8v-8l4-11.8l4-27.8l4-51.6v-23.8l4-19.8l8-4l8,4l8,4l4-4l8-15.8l4-15.8
						l4-12l8-4l4,4h8l-4-8v-39l8-11.8l8-8l8-4l-4-8h-4l-15.8,11.8l-11.8,16v19.8l-4,19.8l-15.8,19.8l-23.8,11.8l-23.8,12h-48.6
						l-19.8-8l-15.8-15.8l-12-12l-11.8-8h-31.6l-11.8,4l-12,11.8l-4,12l-8,8l-15.8,4l-15.8,4l-19.8,11.8l-15.8,15.8l-4,11.8l-15.8,4
						l-12,13.8l-11.8,18l-4,12l4,8l8,12l4,11.2v12.6l-4,11.8v15.8l-4,8h-8l-15.8-8l-19.8-12l-4-11.8l-4-19.8l-15.8-8l-23.8-8
						l-31.8-4l-27.8-4l-19.8,4l-19.8,8l-19.8,8l-19.8,4h-15.6l-8,4l-12,12l-8,19.8v15.8l4,19.8l4,19.8v8l-11.8,8l-15.8,4l-12,8
						l-11.8,8l-4,8l-12,4l-8-4l-4-8l-12-4l-11.8-4l-8-4v-11.8l-8-8l-4-15.8l-4-19.8l-15.8-19.8l-8-12l-8-15.8v-19.8l-8-15.8v-19.8
						l4-12l4-15.8l4-19.8v-15.8l-11.8-11.8l-15.8-12l-12-8l-11.8-4h-15.8l-11.8,4l-8,4l-8.4,8h-7.4l-8-11.8l-4-12l-8-11.8l-8-8l-8-4
						h-12l-4-4v-4l4-4l8-4l8-4h4l4,4l8,4l8,4h12l8,4l8-4l8-4l8-12v-8l8-12l8-11.8l8-4l-4-8l-4-8l4-8l8-4l12-8l8-11.8l4-11.8l8-12
						l15.8-11.8l15.8-11.8h19.8l15.8,4l8,8l4,8l12,8h12l8-11.8l4-15.8l8-11.8l15.8-4l15.8,4l15.8,11.8l11.8,4l8,8l8,11.8l11.8-4
						l12-8v-15.8l11.8-15.8l12-8l8-4l-4-8l-8-15.8l-4-15.8l8-12l11.8-11.8l16.6-4h11.2l11.8-8l8-11.8l-4-15.8l-19.8-15.8l-4-8
						l-15.8-8l-19.8-19.8l-19.8-15.8l-8-15.8l-11.8-19.8l-12-4l-19.8-4l-18.6-8l-17.2-4l-8-8l-12-11.8l-11.8-4l-12,4l-12,11.8
						l-15.8,8l-19.8,4l-15.8-4l-19.8-8l-11.8-11.8l-15.8-12l-8-4l-12-4l-8-4l4-15.8l4-11.8l8-15.8l8-15.8l11.8-23.8l4-23.8l4-4h15.8
						l12,4h31.8l4-12l8-11.8l4-11.8l-11.8-8l-15.8-4l-19.8-8l-23.8-15.8l-12-8h-24.6l-15.8-8l-19.8-17.8l-19.8-19.8l-15.8-11.8h-8
						l-8-12l-4-12l-4-11.8v-12l-4-12.4l-8-3.4l-4,4l4,8l4,11.8v11.8l-4,12l4,15.8l4,8l-8,4l-15.8,4h-8l-8,4l-8,8h-8l-8-4l-11.8-8
						l-11.8-8l-11.8-4l-11.8-4h-8l-4,6.6v13.2l-4,4l-8,4h-4v-8l4-8l4-11.8l-4-8h-15.8l-4-9.2v-6.6l-8-8h-8l-8,4l-11.8,8h-8l-8-4
						l-8-11.8l-4,11.8l-8,2.8v17l-4,15.8l-13,12H274v15.8l-8,12l-15.8,8l-15.8,12l-15.8,8l-15.8,8l-11.8,4l-8,11.8l-11.8,8l-11.8,4
						l-11.8,4l-11.8,8l-11.8,8l-8,11.8l-8,12l-8,4l4,8l-8,12l-13,8h-8.8l-15.8,4l-11.8,8l-8,11.8v11.8l4,11.8l-10.6,8h-9.2l4,8l-4,8
						l-11.8,4"/>
				</g>
			</g>
		</g>
	</g>
</g>
<g>
	<g>
		<g>
			<defs>
				<rect id="SVGID_7_" width="7680" height="2160"/>
			</defs>
			<clipPath id="SVGID_8_">
				<use xlink:href="#SVGID_7_"  style="overflow:visible;"/>
			</clipPath>
			<g class="st7">
				<g id="KLN_2019" class="st8">
					<polyline class="st2" points="3414.4,508.6 3445.4,506.2 3419.2,537.2 3418.6,537.2 3418.6,537.6 3418,537.6 3417.4,537.6 
						3417.4,538.2 3416.8,538.2 3416.2,529.6 3414.4,508.6 					"/>
					<polyline class="st2" points="3412.8,529.6 3356.8,534.2 3355.6,517.4 3354.6,505 3347.6,505.6 3347.6,508 3331.2,527.2 
						3348.6,542.4 3349.2,542.4 3349.8,543 3350.4,543 3351,543 3352.2,543 3413.2,538.2 3412.8,529.6 					"/>
					<polyline class="st2" points="2071,-968.4 2067.8,-969.4 2052,-978.2 2039.2,-986.2 2014.8,-1000.8 2013,-1000.8 
						2012.6,-1000.2 2012,-999 2011.4,-998 2011.4,-996.8 2012.6,-995.6 2039.2,-978.6 2048,-973.4 2031.2,-956.6 2042.2,-945.6 
						2034.6,-938 2023.6,-949 1999.2,-924.6 2005.6,-918.2 1983.4,-896 1975.2,-903.6 1974,-901.8 1974,-901.2 1981.6,-893.8 
						1979.4,-892 1971.8,-900.2 1969.4,-897.8 1948.4,-918.8 1945.6,-915.2 1974,-886.8 1946.2,-858.8 1915.8,-888.4 1927,-899.6 
						1927.6,-899.6 1927.6,-900.2 1927,-900.2 1925.8,-901.2 1925.8,-901.8 1925.2,-901.8 1925.2,-901.2 1914.2,-890.2 
						1911.2,-893.8 1924.6,-907.2 1924.6,-907.6 1921.8,-910 1908.4,-896.6 1903.6,-901.2 1916.4,-914.6 1916.4,-915.2 
						1915.4,-916.4 1914.8,-916.4 1901.4,-903 1900.2,-904.2 1900.2,-904.8 1879.2,-925.2 1857.6,-946.6 1872.2,-960.6 1903,-991.4 
						1924.6,-1008.4 1928.6,-1011.8 1947.4,-1021.8 1952.6,-1024 1958.4,-1027.6 1967.2,-1022.4 1967.6,-1022.4 1968.8,-1022.4 
						1970,-1022.4 1970.6,-1023 1971.2,-1023.6 1971.8,-1024.6 1971.8,-1025.2 1971.8,-1026.4 1971.2,-1027.6 1970.6,-1028.2 
						1893.2,-1074.2 1892,-1074.2 1891.4,-1074.2 1890.2,-1074.2 1889.8,-1073.6 1868.8,-1085.8 1828.6,-1110.2 1864,-1168.4 
						1941.4,-1120.2 1935.6,-1110.2 1967.6,-1090.4 1969.4,-1094 1941.4,-1111.4 1957.8,-1138.2 1965.4,-1133.6 1966.6,-1135.2 
						1941.4,-1150.4 1945.6,-1156.2 1970,-1141 1971.2,-1142.8 1963.6,-1147.4 1966.6,-1152.2 1982.8,-1142.2 1983.4,-1143.4 
						1967.6,-1153.8 1971.2,-1159.6 1987.4,-1149.8 1988,-1151 1972.4,-1161.4 1989.2,-1188.2 1990.4,-1189.4 2001.4,-1207.4 
						2012.6,-1225.4 2018.4,-1233.6 2019.4,-1239.4 2024.8,-1243.6 2034,-1241.8 2038.6,-1235.4 2035.8,-1216.8 2032.8,-1212.6 
						2040.4,-1208 2116.6,-1160.2 2120.8,-1157.4 2154,-1136.4 2174.2,-1124.2 2193.4,-1112 2236.2,-1077.8 2216.4,-1054.4 
						2223.4,-1048.6 2242.6,-1072.6 2279.2,-1041 2259.4,-1017.2 2266.4,-1011.4 2286.2,-1035.2 2327,-1001.4 2321.2,-994 
						2324,-991.6 2330.4,-999.2 2354.2,-978.8 2337.4,-958.4 2340.8,-955.6 2357.8,-975.8 2378.2,-959 2361.2,-938 2364.8,-935.2 
						2381.6,-956 2414.2,-929.4 2366,-871.8 2366.4,-870 2389.8,-850.8 2391,-850.8 2438.6,-908.4 2460.8,-889.8 2496.8,-828 
						2496.8,-772.8 2496.8,-625 2495.6,-625 2495.2,-624.4 2494.6,-623.8 2494,-623.2 2493.4,-620.8 2493.4,-619.8 2493.4,-576 
						2493.4,-572 2494.6,-569 2495.6,-568 2497.4,-567.4 2501.6,-569 2502.6,-570.8 2501.6,-620.8 2700.6,-620.8 2725,-556.2 
						2725.6,-137.8 2600.4,40.8 2501.6,41.4 2501.6,29.2 2501.6,8.2 2501,3 2499.8,-2.2 2496.8,-9.2 2494.6,-13.2 2489.8,-18.6 
						2484,-23.8 2478.2,-26.6 2471.8,-28.4 2468.4,-29 2463.6,-29.6 2462,-29 2460.8,-28.4 2460.2,-26.6 2460.2,-25 2460.8,-23.2 
						2462,-22 2465.4,-20.8 2469.4,-20.8 2472.4,-20.8 2481.2,-17.4 2486.4,-12.8 2490.4,-8 2493.4,-1.6 2494.6,3.6 2494.6,10 
						2494.6,23.4 2495.2,42.6 2494.6,46 2494.6,63 2494.6,70 2492.8,71.6 2485.8,78.6 2481.8,85 2479.4,88.6 2473,102.6 2470.6,113 
						2470,122.8 2469.6,135.2 2470,150.8 2469.6,157.8 2470,166 2470,227.6 2473.6,235.8 2485.8,251.6 2496.8,262 2513.8,274.8 
						2521.8,276 2534.2,274.8 2548.6,275.4 2621.4,274.8 2634.8,275.4 2638.8,274.8 2641.8,272.4 2652.2,250.4 2661.6,239.2 
						2669.2,232.4 2674.4,227.6 2679.6,223 2683.6,219 2739,198 2827,185.6 2865.4,181.4 2913.2,175 2999.4,163.4 3017.4,159.4 
						2996.4,173.8 2999.4,177.4 3018,164.6 3019.8,164 3022.6,163.4 3036.6,162.2 3052.8,160.4 3054,161 3054.6,162.2 3057.6,210 
						3053.4,210.6 3054.6,215.8 3038.4,219.2 3037.8,219.8 3037.2,220.4 3037.2,221 3037.8,221.6 3038.4,222.2 3039.6,222.2 
						3055.2,218.6 3057,225.6 3046.4,228 3048.2,236.8 3047.6,237.8 3026.8,242.6 3026.8,243.2 2986,251.2 2953.4,258.2 
						2952.2,259.4 2951.6,260 2950.4,261.2 2950.4,261.8 2949.8,262.8 2949.8,264 2949.8,265.2 2950.4,266.4 2951.6,268.2 
						2952.8,268.8 2954.6,269.4 2955.8,269.4 2956.8,269.4 2965,267.6 2981.4,264 2992.4,261.8 3052.8,249 3058.8,247.8 
						3059.2,248.4 3066.8,246.6 3067.4,245.4 3071,244.8 3079,284.4 3079,285 2984.2,304.8 2986.6,316.4 3082,296 3087.2,322.8 
						3072.6,325.8 3075,335.6 3012.2,349 3011.6,349.6 3011,349.6 3010.4,350.8 3010.4,351.4 3011,354.2 3011.6,355.4 3012.2,356 
						3012.8,356 3013.4,356 3015,355.4 3051.8,347.8 3090.8,339.8 3105.8,410.8 3105.2,411.4 3104.6,410.2 3103,409 3101.2,407.8 
						3099.4,407.2 3097.8,407.2 3096,407.2 3094.8,407.8 3093.6,409 3091.8,410.2 3091.4,411.8 3090.8,413 3090.2,415.4 
						3090.2,417.2 3090.8,418.8 3091.8,420 3092.4,421.2 3094.2,422.4 3095.4,423 3097.2,423.6 3098.8,423.6 3100.6,423 
						3100.6,423.6 2944,456.8 2942.8,456.8 2942.8,457.2 2942.4,457.8 2942.4,458.4 2949.4,488.8 2949.4,489.2 2949.4,489.8 
						2949.8,489.8 2950.4,489.8 3115.2,455.6 3122.2,488.8 3112.2,496.2 3109.4,502.6 3100.6,513.8 3101.2,513.8 3099.4,516 
						3099.4,515.4 3094.2,521.8 3094.2,522.4 3093.6,523.6 3093.6,525.4 3094.2,526.6 3094.8,527.2 3096,527.8 3096.6,527.8 
						3097.8,528.2 3098.2,527.8 3099.4,527.8 3100,527.2 3101.2,525.4 3105.2,520.2 3104.6,520.2 3106.4,517.8 3106.4,518.4 
						3115.8,506.8 3118.6,505 3129.8,518.4 3131.4,520.8 3133.2,521.8 3134.4,523 3133.2,527.2 3124.4,538.2 3123.4,540.6 
						3122.8,540 3117.4,547 3117,548 3117,549.2 3117.4,550.4 3118,551.6 3118.6,552.2 3119.8,552.8 3121.6,552.8 3122.8,552.2 
						3123.4,551 3128.6,544.6 3129.8,542.2 3130.2,542.8 3139,531.8 3142.6,529.4 3147.2,528.8 3151.8,523 3153,523.6 3154.8,524.2 
						3157,524.8 3159.4,525.4 3160.6,525.4 3168.2,552.2 3171,553.8 3229.8,549.2 3232.8,549.2 3236.8,544.6 3273.4,541.6 
						3273.4,542.2 3285.2,541 3285.2,540.6 3318.2,538.2 3335.2,552.8 3336.4,553.4 3337.4,553.8 3338.6,554.4 3339.8,555 3341,555 
						3342.2,555 3343.4,555 3364.2,553.4 3405.6,549.8 3432.6,547 3479.2,492.8 3483.2,487.6 3485,485.8 3486.8,484 3488,481.8 
						3490.2,478.8 3491.4,476.4 3492.6,474.2 3494.4,471.2 3495,469 3496,466.6 3507.8,433.4 3508.8,430 3509.4,427.6 3510.6,425.8 
						3511.2,424.6 3511.8,423.6 3512.4,422.4 3513.6,421.2 3533.4,396.2 3545.6,385.2 3561.8,370.6 3589.2,346.2 3595.6,340.4 
						3652,289.6 3683.4,261.8 3683.4,262.4 3689.8,256.6 3692.8,253.6 3694.6,253.6 3695.8,257.6 3696.2,258.2 3707.4,256.6 
						3726.6,249 3744.8,246.8 3759.2,246.6 3774.4,244.4 3781.2,237.6 3786,230.8 3786,306 3759.2,321.6 3770.2,340.8 3807.4,319.4 
						3806.8,228.6 3842.4,228.6 3860.4,268.8 4072.8,174.4 4079.2,171 4081,174.4 4083.8,177.4 4094.4,200 4095,200.6 4095.6,201.2 
						4096.2,201.2 4096.6,200.6 4104.2,197.2 4104.8,196.6 4104.8,196 4094.4,172.8 4094.4,168.6 4093.2,165.2 4106.6,158.8 
						4124,151.2 4127,157.6 4127.6,158.2 4127.6,158.8 4128.2,158.8 4128.6,158.8 4129.2,158.2 4150.8,148.8 4150.8,148.2 
						4151.4,148.2 4151.4,147.6 4151.4,147 4148.4,140.2 4164.8,132.6 4175.2,109.2 4192.8,117.4 4203.2,116.2 4265.4,71.4 
						4268.4,69.2 4269,69.2 4269,68.6 4269,68 4269,67.4 4256.8,27.2 4255,19 4283,-103.8 4287,-100.2 4285.2,-89.8 4295.8,-87.4 
						4298.6,-103.2 4288.2,-105 4287.6,-102 4283.6,-105.4 4303.2,-205.6 4185.8,-280.4 4186.8,-293.2 4206.8,-292.6 4207.2,-309 
						4187.6,-309.6 4195.6,-504.4 4200.4,-508 4201.4,-503.4 4205.6,-502.2 4206.8,-505 4203.2,-506.2 4212.6,-509.8 4213.2,-512.6 
						4222.4,-514.4 4218.4,-516.6 4216.6,-521.4 4227,-537 4278.2,-647.6 4284.2,-644.2 4283,-642.4 4285.8,-640.6 4287,-638.4 
						4288.2,-639.4 4287,-641.2 4289.4,-645.8 4291.6,-645.8 4305.6,-637.8 4306.2,-639 4291.6,-647 4289.4,-647 4287,-648.8 
						4285.8,-647 4279.4,-650.6 4287.6,-668 4295.2,-668 4315,-658.6 4316.2,-658.6 4316.8,-658.6 4317.2,-658.6 4318.4,-659.2 
						4319,-659.2 4319.6,-659.8 4320.2,-660.4 4320.2,-661 4320.8,-662.2 4320.8,-662.8 4321.4,-664 4321.4,-664.6 4321.4,-665 
						4321.4,-665.6 4320.8,-666.2 4320.8,-666.8 4320.2,-666.8 4320.2,-667.4 4319.6,-667.4 4319.6,-668 4299.2,-677.4 
						4294.6,-683.2 4299.2,-693.6 4303.4,-691.8 4308.6,-704 4305,-705.8 4309.2,-715.2 4312.6,-714 4314.4,-716.4 4310.2,-718 
						4329,-758.2 4333.6,-755.8 4335.4,-760.6 4333,-761.8 4338.2,-772.8 4335.8,-773.4 4345.2,-793.8 4380.2,-813.6 4547.8,-652.2 
						4708.4,-498.6 4709,-495.8 4709,-493.4 4708.4,-492.2 4707.2,-492.8 4706.6,-492.2 4707.8,-491.6 4718.8,-480.6 4719.4,-481.2 
						4721.8,-481.2 4725.8,-480 4726.4,-479.4 4729.8,-477.8 4734,-473.6 4736.4,-469.6 4736.8,-469 4739.2,-464.8 4738,-464.4 
						4736.8,-463.2 4748,-452.2 4749.2,-451.6 4750.2,-452.6 4750.8,-452.6 4754.4,-451.6 4759,-449.8 4768.4,-440.4 4768.8,-439.8 
						4769.4,-439.8 4770,-439.8 4770.6,-440.4 4802.6,-409.6 4802.6,-408.4 4802.6,-407.8 4803.2,-406.8 4849.2,-362.4 
						4846.8,-361.4 4844,-364.2 4842.2,-361.8 4846.8,-357.8 4850.4,-361.4 4869,-343.2 4883.6,-320 4927.8,-277.6 4942.4,-272.8 
						4942.8,-272.8 4969.6,-246.6 4970.2,-247.8 5048.8,-172.2 5056.4,-165.2 5272.4,43.2 5276.4,46 5280.4,47.2 5284.6,47.2 
						5292.6,46.6 5353.8,-17.4 5356.6,-23.2 5357.8,-29.6 5356.6,-33 5354.4,-37.2 5286.2,-103.4 5264.8,-128 5271.8,-170.4 
						5269.4,-180.8 5264.2,-190.8 5178.6,-272.2 5178,-272.8 5174,-274.6 5165.8,-282.2 5157,-272.8 5158.8,-271.2 5165.8,-278.6 
						5171,-273.4 5151.2,-253.6 5140.2,-257.2 5135.6,-258.8 5132,-260.6 5111,-274.6 5102.4,-281 5092.4,-290.4 5051.8,-329.4 
						4980.2,-398 4961,-416.6 4960.4,-417.2 4960.4,-418.4 4960.4,-419.6 4961.6,-421.2 4956.8,-426 4954,-422.4 4948.2,-427.6 
						4946.4,-426 4941.8,-427.6 4842.2,-523.6 4844.6,-529 4906.2,-593 5065.8,-439.2 5178,-556.2 5218.2,-517.8 5367.2,-355 
						5405.6,-308.4 5455,-241.4 5463.2,-247.8 5484.8,-218.2 5477.2,-212.4 5480.6,-207.6 5488.2,-213 5502.8,-193.2 5481.2,-177.4 
						5483,-174.4 5420.8,-129.2 5421.2,-126.2 5423.6,-124.4 5426.6,-125 5487,-169.2 5488.8,-166.4 5510.8,-182.6 5548.8,-122.2 
						5550.4,-119.8 5551.6,-118 5555.2,-113.4 5553.4,-114 5549.8,-111 5548.2,-107 5530.8,-90.2 5537.6,-82.6 5556.4,-99.4 
						5559.8,-100.6 5563.2,-104 5563.2,-103.4 5569.6,-97.6 5576,-93 5580.8,-90.2 5590,-85.4 5597.6,-82.6 5603.4,-80.8 
						5615.2,-80 5622,-80 5629,-78.4 5598.2,-52.2 5711.2,82.2 5718.6,86.8 5759.6,109.4 5816.4,141 5874.4,246.8 5885.8,261 
						5901,276 5912.8,285 5927.4,293.4 5939.2,298.4 5953.6,303.4 5969,306.6 5982.4,308.2 5994,307.8 6010.4,307 6015.8,306.8 
						6055.6,304.2 6060.8,303.8 6079.6,310.4 6092.4,310.6 6100.8,308.8 6107.2,307.6 6110.8,305.4 6115.8,302.8 6119.2,301.8 
						6129.8,299.6 6141.6,298 6148.2,298 6152.8,297.6 6170.4,295.8 6176.4,293.4 6182.6,295.6 6211.8,341.6 6162.2,367.2 
						6159.8,368.4 6136.6,380.6 6129,384.8 6101.8,398.6 6101.8,399.2 6111.6,418.4 6095.4,426.6 6085.4,408 6085.4,407.4 
						6083.6,408 6055.8,423.2 6055.2,423.2 6070.8,453.4 6086,505.8 6187.2,608.8 6206.6,627.4 6270.6,693.2 6271.8,693.8 
						6272.8,694.4 6274,694.4 6274.6,694.4 6275.8,694.4 6276.4,693.8 6277,693.8 6277.6,693.2 6278.2,692.6 6278.6,692 6279.2,691 
						6279.8,690.4 6279.8,689.2 6279.8,688 6279.8,687.4 6279.2,686.2 6278.6,685.6 6277.6,684.6 6277.6,684 6243.2,647.8 
						6242,647.2 6243.8,645.6 6305.4,586.8 6341.6,624.2 					"/>
					<polyline class="st2" points="3007.4,219.2 3004,193.6 3006.8,193 3010.8,219.2 3007.4,219.2 					"/>
					<path class="st2" d="M7086.8,204.2l15.4-0.8l13.8-6h29.8l15.6-15.8h97.4l1.2-13.8l7.8-7.8h14.4l5.4,7.8v15l23.6-1.2l2,6l15.8-2
						l2-4l7-3c0,0,22.6,1,26.6,0s33.6-3,33.6-3l15.8-11.8l14-21.8l17.6-30.4l16-36.6l21.6-41.4l9.4-13.2l31.8,14.8L7518,50
						l-47.6,96.2l-33.8,57.8l-7.4,40.6l8.4,64.6l8.4,37l28.6,34.8l33.8,20l25.4,6.4l11.6,10.6v166h134"/>
				</g>
			</g>
		</g>
	</g>
</g>
</svg>
