<?xml version="1.0" encoding="utf-8"?>
<!-- Generator: Adobe Illustrator 23.0.3, SVG Export Plug-In . SVG Version: 6.00 Build 0)  -->
<svg width="3840" height="1080" version="1.1" id="Layer_3" xmlns="http://www.w3.org/2000/svg" xmlns:xlink="http://www.w3.org/1999/xlink" x="0px" y="0px"
	 viewBox="0 0 3840 1080" style="enable-background:new 0 0 3840 1080;" xml:space="preserve">
<style type="text/css">
	.st0{opacity:0.5;}
	.st1{clip-path:url(#SVGID_2_);}
	.st2{fill:none;stroke:#FF8300;stroke-width:3;stroke-linecap:round;stroke-linejoin:round;}
	.st3{fill:none;stroke:#FF8300;stroke-width:3;stroke-linecap:round;stroke-linejoin:round;stroke-dasharray:9.97,9.97;}
	.st4{fill:none;stroke:#FF8300;stroke-width:3;stroke-linecap:round;stroke-linejoin:round;stroke-dasharray:7.16,7.16;}
	.st5{fill:none;stroke:#FF8300;stroke-width:3;stroke-linecap:round;stroke-linejoin:round;stroke-dasharray:8.46,8.46;}
	.st6{fill:none;stroke:#FF8300;stroke-width:3;stroke-linecap:round;stroke-linejoin:round;stroke-dasharray:8.65,8.65;}
	.st7{fill:none;stroke:#FF8300;stroke-width:3;stroke-linecap:round;stroke-linejoin:round;stroke-dasharray:6.33,6.33;}
	.st8{fill:none;stroke:#FF8300;stroke-width:3;stroke-linecap:round;stroke-linejoin:round;stroke-dasharray:7.75,7.75;}
	.st9{fill:none;stroke:#FF8300;stroke-width:3;stroke-linecap:round;stroke-linejoin:round;stroke-dasharray:6.86,6.86;}
	.st10{fill:none;stroke:#FF8300;stroke-width:3;stroke-linecap:round;stroke-linejoin:round;stroke-dasharray:4.64,4.64;}
	.st11{fill:none;stroke:#FF8300;stroke-width:3;stroke-linecap:round;stroke-linejoin:round;stroke-dasharray:8.07,8.07;}
	.st12{fill:none;stroke:#FF8300;stroke-width:3;stroke-linecap:round;stroke-linejoin:round;stroke-dasharray:7.79,7.79;}
	.st13{fill:none;stroke:#FF8300;stroke-width:3;stroke-linecap:round;stroke-linejoin:round;stroke-dasharray:8.55,8.55;}
	.st14{fill:none;stroke:#FF8300;stroke-width:3;stroke-linecap:round;stroke-linejoin:round;stroke-dasharray:6.23,6.23;}
	.st15{fill:none;stroke:#FF8300;stroke-width:3;stroke-linecap:round;stroke-linejoin:round;stroke-dasharray:5.89,5.89;}
	.st16{fill:none;stroke:#FF8300;stroke-width:3;stroke-linecap:round;stroke-linejoin:round;stroke-dasharray:7.87,7.87;}
	.st17{fill:none;stroke:#FF8300;stroke-width:3;stroke-linecap:round;stroke-linejoin:round;stroke-dasharray:6.36,6.36;}
	.st18{fill:none;stroke:#FF8300;stroke-width:3;stroke-linecap:round;stroke-linejoin:round;stroke-dasharray:4.52,4.52;}
	.st19{fill:none;stroke:#FF8300;stroke-width:3;stroke-linecap:round;stroke-linejoin:round;stroke-dasharray:8.24,8.24;}
	.st20{fill:none;stroke:#FF8300;stroke-width:3;stroke-linecap:round;stroke-linejoin:round;stroke-dasharray:9.06,9.06;}
	.st21{fill:none;stroke:#FF8300;stroke-width:3;stroke-linecap:round;stroke-linejoin:round;stroke-dasharray:8.49,8.49;}
	.st22{fill:none;stroke:#FF8300;stroke-width:3;stroke-linecap:round;stroke-linejoin:round;stroke-dasharray:7.46,7.46;}
	.st23{fill:none;stroke:#FF8300;stroke-width:3;stroke-linecap:round;stroke-linejoin:round;stroke-dasharray:8.53,8.53;}
	.st24{fill:none;stroke:#FF8300;stroke-width:3;stroke-linecap:round;stroke-linejoin:round;stroke-dasharray:7.97,7.97;}
	.st25{fill:none;stroke:#FF8300;stroke-width:3;stroke-linecap:round;stroke-linejoin:round;stroke-dasharray:7.54,7.54;}
	.st26{fill:none;stroke:#FF8300;stroke-width:3;stroke-linecap:round;stroke-linejoin:round;stroke-dasharray:5.14,5.14;}
	.st27{fill:none;stroke:#FF8300;stroke-width:3;stroke-linecap:round;stroke-linejoin:round;stroke-dasharray:5.78,5.78;}
	.st28{fill:none;stroke:#FF8300;stroke-width:3;stroke-linecap:round;stroke-linejoin:round;stroke-dasharray:8.29,8.29;}
	.st29{fill:none;stroke:#FF8300;stroke-width:3;stroke-linecap:round;stroke-linejoin:round;stroke-dasharray:6.79,6.79;}
	.st30{fill:none;stroke:#FF8300;stroke-width:3;stroke-linecap:round;stroke-linejoin:round;stroke-dasharray:4.42,4.42;}
	.st31{fill:none;stroke:#FF8300;stroke-width:3;stroke-linecap:round;stroke-linejoin:round;stroke-dasharray:7.88,7.88;}
	.st32{fill:none;stroke:#FF8300;stroke-width:3;stroke-linecap:round;stroke-linejoin:round;stroke-dasharray:8.62,8.62;}
	.st33{fill:none;stroke:#FF8300;stroke-width:3;stroke-linecap:round;stroke-linejoin:round;stroke-dasharray:5.29,5.29;}
	.st34{fill:none;stroke:#FF8300;stroke-width:3;stroke-linecap:round;stroke-linejoin:round;stroke-dasharray:5.21,5.21;}
	.st35{fill:none;stroke:#FF8300;stroke-width:3;stroke-linecap:round;stroke-linejoin:round;stroke-dasharray:4.2,4.2;}
	.st36{fill:none;stroke:#FF8300;stroke-width:3;stroke-linecap:round;stroke-linejoin:round;stroke-dasharray:5.75,5.75;}
	.st37{fill:none;stroke:#FF8300;stroke-width:3;stroke-linecap:round;stroke-linejoin:round;stroke-dasharray:8.12,8.12;}
	.st38{fill:none;stroke:#FF8300;stroke-width:3;stroke-linecap:round;stroke-linejoin:round;stroke-dasharray:5.09,5.09;}
	.st39{fill:none;stroke:#FF8300;stroke-width:3;stroke-linecap:round;stroke-linejoin:round;stroke-dasharray:7.08,7.08;}
	.st40{fill:none;stroke:#FF8300;stroke-width:3;stroke-linecap:round;stroke-linejoin:round;stroke-dasharray:8.38,8.38;}
	.st41{fill:none;stroke:#FF8300;stroke-width:3;stroke-linecap:round;stroke-linejoin:round;stroke-dasharray:7.34,7.34;}
	.st42{fill:none;stroke:#FF8300;stroke-width:3;stroke-linecap:round;stroke-linejoin:round;stroke-dasharray:8.09,8.09;}
	.st43{fill:none;stroke:#FF8300;stroke-width:3;stroke-linecap:round;stroke-linejoin:round;stroke-dasharray:4.09,4.09;}
	.st44{fill:none;stroke:#FF8300;stroke-width:3;stroke-linecap:round;stroke-linejoin:round;stroke-dasharray:4.5,4.5;}
	.st45{fill:none;stroke:#FF8300;stroke-width:3;stroke-linecap:round;stroke-linejoin:round;stroke-dasharray:8.91,8.91;}
	.st46{fill:none;stroke:#FF8300;stroke-width:3;stroke-linecap:round;stroke-linejoin:round;stroke-dasharray:8.03,8.03;}
	.st47{fill:none;stroke:#FF8300;stroke-width:3;stroke-linecap:round;stroke-linejoin:round;stroke-dasharray:6.93,6.93;}
	.st48{fill:none;stroke:#FF8300;stroke-width:3;stroke-linecap:round;stroke-linejoin:round;stroke-dasharray:9.29,9.29;}
	.st49{fill:none;stroke:#FF8300;stroke-width:3;stroke-linecap:round;stroke-linejoin:round;stroke-dasharray:9.27,9.27;}
	.st50{fill:none;stroke:#FF8300;stroke-width:3;stroke-linecap:round;stroke-linejoin:round;stroke-dasharray:8.31,8.31;}
	.st51{fill:none;stroke:#FF8300;stroke-width:3;stroke-linecap:round;stroke-linejoin:round;stroke-dasharray:8.17,8.17;}
	.st52{fill:none;stroke:#FF8300;stroke-width:3;stroke-linecap:round;stroke-linejoin:round;stroke-dasharray:4.94,4.94;}
	.st53{fill:none;stroke:#FF8300;stroke-width:3;stroke-linecap:round;stroke-linejoin:round;stroke-dasharray:5.62,5.62;}
	.st54{fill:none;stroke:#FF8300;stroke-width:3;stroke-linecap:round;stroke-linejoin:round;stroke-dasharray:4.49,4.49;}
	.st55{fill:none;stroke:#FF8300;stroke-width:3;stroke-linecap:round;stroke-linejoin:round;stroke-dasharray:8.69,8.69;}
	.st56{fill:none;stroke:#FF8300;stroke-width:3;stroke-linecap:round;stroke-linejoin:round;stroke-dasharray:8.33,8.33;}
	.st57{fill:none;stroke:#FF8300;stroke-width:3;stroke-linecap:round;stroke-linejoin:round;stroke-dasharray:4.39,4.39;}
	.st58{fill:none;stroke:#FF8300;stroke-width:3;stroke-linecap:round;stroke-linejoin:round;stroke-dasharray:5.28,5.28;}
	.st59{fill:none;stroke:#FF8300;stroke-width:3;stroke-linecap:round;stroke-linejoin:round;stroke-dasharray:7.81,7.81;}
	.st60{fill:none;stroke:#FF8300;stroke-width:3;stroke-linecap:round;stroke-linejoin:round;stroke-dasharray:6.57,6.57;}
	.st61{fill:none;stroke:#FF8300;stroke-width:3;stroke-linecap:round;stroke-linejoin:round;stroke-dasharray:7.64,7.64;}
	.st62{fill:none;stroke:#FF8300;stroke-width:3;stroke-linecap:round;stroke-linejoin:round;stroke-dasharray:7.69,7.69;}
	.st63{fill:none;stroke:#FF8300;stroke-width:3;stroke-linecap:round;stroke-linejoin:round;stroke-dasharray:5.19,5.19;}
	.st64{fill:none;stroke:#FF8300;stroke-width:3;stroke-linecap:round;stroke-linejoin:round;stroke-dasharray:9.33,9.33;}
	.st65{fill:none;stroke:#FF8300;stroke-width:3;stroke-linecap:round;stroke-linejoin:round;stroke-dasharray:7.9,7.9;}
	.st66{fill:none;stroke:#FF8300;stroke-width:3;stroke-linecap:round;stroke-linejoin:round;stroke-dasharray:7.38,7.38;}
	.st67{fill:none;stroke:#FF8300;stroke-width:3;stroke-linecap:round;stroke-linejoin:round;stroke-dasharray:7.57,7.57;}
	.st68{fill:none;stroke:#FF8300;stroke-width:3;stroke-linecap:round;stroke-linejoin:round;stroke-dasharray:9.77,9.77;}
	.st69{fill:none;stroke:#FF8300;stroke-width:3;stroke-linecap:round;stroke-linejoin:round;stroke-dasharray:8.56,8.56;}
	.st70{clip-path:url(#SVGID_4_);}
	.st71{opacity:0.9;fill:none;stroke:#FF8300;stroke-width:3;stroke-miterlimit:10;enable-background:new    ;}
	.st72{clip-path:url(#SVGID_6_);}
	.st73{clip-path:url(#SVGID_8_);}
	.st74{opacity:0.9;}
	.st75{fill:none;stroke:#FF8300;stroke-width:3;stroke-linecap:round;stroke-linejoin:round;stroke-dasharray:6.53,6.53;}
	.st76{fill:none;stroke:#FF8300;stroke-width:3;stroke-linecap:round;stroke-linejoin:round;stroke-dasharray:9.09,9.09;}
	.st77{fill:none;stroke:#FF8300;stroke-width:3;stroke-linecap:round;stroke-linejoin:round;stroke-dasharray:5.82,5.82;}
	.st78{fill:none;stroke:#FF8300;stroke-width:3;stroke-linecap:round;stroke-linejoin:round;stroke-dasharray:7.03,7.03;}
	.st79{fill:none;stroke:#FF8300;stroke-width:3;stroke-linecap:round;stroke-linejoin:round;stroke-dasharray:5.55,5.55;}
	.st80{fill:none;stroke:#FF8300;stroke-width:3;stroke-linecap:round;stroke-linejoin:round;stroke-dasharray:7.84,7.84;}
	.st81{fill:none;stroke:#FF8300;stroke-width:3;stroke-linecap:round;stroke-linejoin:round;stroke-dasharray:7.95,7.95;}
	.st82{fill:none;stroke:#FF8300;stroke-width:3;stroke-linecap:round;stroke-linejoin:round;stroke-dasharray:7.24,7.24;}
	.st83{fill:none;stroke:#FF8300;stroke-width:3;stroke-linecap:round;stroke-linejoin:round;stroke-dasharray:9.31,9.31;}
	.st84{fill:none;stroke:#FF8300;stroke-width:3;stroke-linecap:round;stroke-linejoin:round;stroke-dasharray:4.47,4.47;}
	.st85{fill:none;stroke:#FF8300;stroke-width:3;stroke-linecap:round;stroke-linejoin:round;stroke-dasharray:4.56,4.56;}
	.st86{fill:none;stroke:#FF8300;stroke-width:3;stroke-linecap:round;stroke-linejoin:round;stroke-dasharray:9.65,9.65;}
	.st87{fill:none;stroke:#FF8300;stroke-width:3;stroke-linecap:round;stroke-linejoin:round;stroke-dasharray:7.8,7.8;}
	.st88{fill:none;stroke:#FF8300;stroke-width:3;stroke-linecap:round;stroke-linejoin:round;stroke-dasharray:4.38,4.38;}
	.st89{fill:none;stroke:#FF8300;stroke-width:3;stroke-linecap:round;stroke-linejoin:round;stroke-dasharray:7.56,7.56;}
	.st90{fill:none;stroke:#FF8300;stroke-width:3;stroke-linecap:round;stroke-linejoin:round;stroke-dasharray:7.93,7.93;}
	.st91{fill:none;stroke:#FF8300;stroke-width:3;stroke-linecap:round;stroke-linejoin:round;stroke-dasharray:9.25,9.25;}
	.st92{fill:none;stroke:#FF8300;stroke-width:3;stroke-linecap:round;stroke-linejoin:round;stroke-dasharray:6.99,6.99;}
	.st93{fill:none;stroke:#FF8300;stroke-width:3;stroke-linecap:round;stroke-linejoin:round;stroke-dasharray:8.11,8.11;}
	.st94{fill:none;stroke:#FF8300;stroke-width:3;stroke-linecap:round;stroke-linejoin:round;stroke-dasharray:8.01,8.01;}
	.st95{fill:none;stroke:#FF8300;stroke-width:3;stroke-linecap:round;stroke-linejoin:round;stroke-dasharray:7.94,7.94;}
	.st96{fill:none;stroke:#FF8300;stroke-width:3;stroke-linecap:round;stroke-linejoin:round;stroke-dasharray:4.06,4.06;}
	.st97{fill:none;stroke:#FF8300;stroke-width:3;stroke-linecap:round;stroke-linejoin:round;stroke-dasharray:7.1,7.1;}
	.st98{fill:none;stroke:#FF8300;stroke-width:3;stroke-linecap:round;stroke-linejoin:round;stroke-dasharray:10.29,10.29;}
	.st99{fill:none;stroke:#FF8300;stroke-width:3;stroke-linecap:round;stroke-linejoin:round;stroke-dasharray:7.51,7.51;}
	.st100{fill:none;stroke:#FF8300;stroke-width:3;stroke-linecap:round;stroke-linejoin:round;stroke-dasharray:8.14,8.14;}
	.st101{fill:none;stroke:#FF8300;stroke-width:3;stroke-linecap:round;stroke-linejoin:round;stroke-dasharray:7.89,7.89;}
	.st102{fill:none;stroke:#FF8300;stroke-width:3;stroke-linecap:round;stroke-linejoin:round;stroke-dasharray:6.88,6.88;}
	.st103{fill:none;stroke:#FF8300;stroke-width:3;stroke-linecap:round;stroke-linejoin:round;stroke-dasharray:7.86,7.86;}
	.st104{fill:none;stroke:#FF8300;stroke-width:3;stroke-linecap:round;stroke-linejoin:round;stroke-dasharray:7.58,7.58;}
</style>
<g class="st0">
	<polygon points="1996.3,14.5 2011.7,25.4 2036.1,40 2048.8,49.5 2052,51.1 2064.9,28.7 2066.3,30.4 2066.3,35.2 2069.5,38.4 
		2069.5,40 2063.1,54.3 2087,63.9 2096.6,43.2 2098.1,43.2 2102.4,46.4 2104.5,46.4 2107.7,41.6 2107.7,40 2104.5,36.8 2107.7,32 
		2107.7,28.9 2107.8,20.2 2117.3,0.2 2116.6,-0.2 2102.9,-0.2 2104.1,1.8 2104.1,9.7 2102.5,16.1 2099.3,19.3 2097.8,20.2 
		2093.3,19.7 2087.8,15.6 2080,11.7 2076.1,9.7 2072.2,5.8 2069.2,-0.2 1978.4,-0.2 1991.5,8.2 	"/>
	<polygon points="1.5,-0.2 1504.8,-0.2 1503.8,4.1 1502.7,11.9 1498.8,11.9 1497.1,28.7 1499.3,29 1497.1,47.2 1499.3,52.2 
		1511.6,77.9 1513.8,79 1516.1,77 1516.1,74.5 1513.8,70 1504.9,50.7 1502.7,43.2 1503.8,36.5 1504.9,29.8 1506.6,14.7 1507.8,6.8 
		1509.9,1.3 1511.4,-0.2 -0.5,-0.2 -0.5,1079.8 1.5,1079.8 	"/>
	<path d="M1531.4,0.2l12.7,43v3.2l-4.8,25.5v4.7l1,8.2l-15.5,1.4c-0.2,0-0.4,0.1-0.6,0.2l-2.2,1.1c-0.6,0.3-1,1-0.9,1.7l3.3,23.5
		c0,0.2,0.1,0.5,0.3,0.7l4.5,6.7c0.5,0.7,1.4,0.9,2.2,0.4c0.8-0.5,1.1-1.5,0.6-2.3l-4.3-6.4l-3.1-21.9l0.9-0.4l15.3-1.4h0.1l1.7,14
		l2.6,10.4l-7,1.3l-0.3-1.7l-3.3,0.6l1.1,6.7l3.3-0.5l-0.3-1.7l7.3-1.4l7.6,34.1l-43.5,9.6l1,4.4l43.5-9.5l4.1,18.5l-34,7.3l0.8,3.3
		l33.9-7.4l4.2,18.9l-36.8,8.1l1,4.4l36.8-8.1l0.3,1.5l2.4,11.8l-7.6,1.8l-1.1-6.1l-4.5,0.7l2.3,13.3l4.5-0.7l-0.5-2.9l7.8-1.8
		l2.6,12.7l-42.9,9.2l0.9,4.4l42.9-9.1l2.4,12l-2.7,0.6l1.3,7.3l3.1-0.9l0.1,0.4l2.4,3.6l-2.5,3l3.9,4.5l4.1,2.5l7.1,2l0.6-2.6
		l6.7,1.3h9.6l4.4-0.4v3.9l12.3-1.1v-3.9l64.8-5.9l-1,13.1v6.7l29.4-4.6l-2.6-7.7l-0.5-9.9l15.9-1.5l-9.6,9.6l3.2,3.2l23.9-23.9
		l-3.2-3.2l9.6-28.7l-4.8-1.6v-4.8l14.3-55.7l19.1-30.3L1816-0.2h-15.9l-3.1,15.7l-7.8,11.7l-3.9,5.9l-5.8,1.9l-5.9-3.9l-5.9-2
		l-3.9,3.9l-3.9,17.6l-5.9,19.5l-3.9,13.7l-5.8,13.7l-3.9,9.8l-3.9,13.7l-3.9,15.6l-2,13.7l-2,7.8l3.9,11.7l3.9,5.9v11.7l-3.9,9.8
		l-7.8,11.7l-9.8,9.8h-9.8l-3.9-5.9v-4.5l-7.8-7.2l-1.9-5.9l-3.9-9.8l-3.9-5.9h-5.8h-7.8l-5.9,2h-13.7h-11.7l-7.8,3.9l-9.8,2
		l-7.8,7.8l-2,7.8l-7.8,3.9l-2,7.8l-3.9,5.8h-3.9l-3.9-3.9v-5.3l-1.9-8.4l-2-5.9v-7.5l-1.9-4.2l-2-7.8l-3.9-7.8l-2-3.9l-1.9-7.8
		l-1.9-13.7l3.9-7.8v-5.8V119l-1.9-7.8l-3.9-7.8l-3.9-7.8v-8.1V76.6l-1.9-14.2l-1.9-11.7V40.2l1.9-10.9l1.9-11.7l-1.9-7.8l-1.9-9.9
		h-31.4L1531.4,0.2z"/>
</g>
<g>
	<g>
		<defs>
			<polygon id="SVGID_1_" points="3839.7,1080.2 -0.3,1080.2 -0.3,0.2 243,0.2 3839.7,0.2 			"/>
		</defs>
		<clipPath id="SVGID_2_">
			<use xlink:href="#SVGID_1_"  style="overflow:visible;"/>
		</clipPath>
		<g class="st1">
			<g id="HKI_2019">
				<g id="HKI_2019-2">
					<polyline class="st2" points="3342.6,847.4 3343.8,851.7 3342.6,852 3343.8,855.9 					"/>
					<line class="st3" x1="3348.5" y1="864.4" x2="3357.7" y2="876.2"/>
					<polyline class="st2" points="3360.8,880.1 3363.3,883.3 3366.1,880.4 					"/>
					<line class="st4" x1="3371.1" y1="875.3" x2="3388.6" y2="857.4"/>
					<polyline class="st2" points="3391.1,854.9 3393.9,852 3396.8,854.8 					"/>
					<line class="st5" x1="3402.8" y1="860.8" x2="3472.1" y2="929.1"/>
					<line class="st2" x1="3475.1" y1="932.1" x2="3477.9" y2="934.9"/>
					<polyline class="st2" points="505.7,803.4 508,804.8 509.1,805.4 					"/>
					<polyline class="st6" points="516.7,809.5 518,810.2 521.1,811.4 530.6,817.7 539.2,825.1 544.7,831.5 549.2,836.3 
						550.7,840.3 550.1,842.6 549.8,844.3 563.2,872.5 					"/>
					<polyline class="st2" points="565,876.4 565.9,878.2 566.2,880.2 565.3,881 565.3,885 					"/>
					<polyline class="st2" points="565.3,885.7 565.3,889.7 567.6,891.9 568.3,892.2 					"/>
					<polyline class="st2" points="568.7,892.3 570.2,892.8 571,893.7 572.2,894.2 574.5,893.4 575.3,895.1 573.3,896 573.3,897.4 
						574.1,899.8 					"/>
					<polyline class="st7" points="575.7,905.8 577.9,909.7 579.1,911.2 581.1,914 581.9,914.9 586.5,924.9 					"/>
					<polyline class="st2" points="588.8,927 592,929.5 591.1,933.4 					"/>
					<polyline class="st8" points="594.9,939.2 599.1,942.4 600,943.8 600.3,947.3 610.5,960.5 					"/>
					<line class="st2" x1="612.4" y1="963.8" x2="614.2" y2="967.4"/>
					<polyline class="st9" points="687.7,1089.1 682.6,1080.4 678.3,1072.8 674.3,1065.3 671.2,1060.7 669.4,1058.6 668.5,1056.7 
											"/>
					<polyline class="st2" points="668,1053.3 667.8,1050.4 668.4,1049.6 665.5,1046.8 664.9,1047.3 664.8,1044.4 664.6,1043.3 
											"/>
					<polyline class="st10" points="663.2,1038.9 662.1,1035.3 661,1034.6 659.9,1033.1 					"/>
					<polyline class="st2" points="658.6,1031.2 657.9,1030.3 655.5,1028.7 					"/>
					<polyline class="st2" points="2922.9,425.4 2924.9,425.1 2926.9,425.1 					"/>
					<polyline class="st11" points="2935,425.2 2937.5,425.4 2941.3,426 2947.3,427.7 2949.9,428.6 2953,430 2961,433.5 
						3013.2,456.4 3020.4,459.8 3026.1,463 3028.1,464.4 3031,466.4 3032.4,467.6 3034,469 					"/>
					<polyline class="st2" points="3036.9,471.8 3039.6,474.8 3036.7,477.3 3034.7,475 3034.1,474.4 					"/>
					<polyline class="st12" points="3028.2,469.3 3024.7,466.7 3019,463.3 2987.1,449 2972.2,442.6 2950.4,432.9 2945,431.2 
						2940.1,430 2937,429.5 2934.1,429.2 2932.7,429.2 2932.1,429.2 2930.6,429.2 2929.2,429.2 2928.4,429.2 2926.1,429.5 
						2923.5,429.5 2922.3,429.7 2918.9,429.2 2917.8,428.9 2916.6,428.6 2916.4,428.5 					"/>
					<polyline class="st2" points="2912.9,426.7 2912.6,426.6 2910.3,425.7 2909.1,425.4 2908.9,424.6 2908.3,423.7 2908.3,423.1 
						2908.6,422.6 2908.8,421.8 					"/>
					<polyline class="st2" points="2919,424.6 2920,424.9 2921.5,425.1 2922.9,425.4 					"/>
					<polyline class="st2" points="2936.7,442.9 2935.8,443.2 2934.9,443.2 2933.8,442.9 2932.8,442.9 					"/>
					<polyline class="st13" points="2924.2,443.3 2922.1,443.5 2920.6,443.8 2919.5,444.1 2916.6,444.9 2914,445.8 2911.2,447.5 
						2909.4,448.4 2907.4,449.8 2905.7,451 2903.7,452.7 2900.6,455.5 2899.1,457 2898.3,458.1 2897.4,459 2896.8,459.6 2896,459.8 
						2895.1,460.1 2894.2,459.8 2893.7,459 2893.7,458.4 2894.2,457.3 2894.8,456.7 2896,455.5 2897.4,454.1 2898.8,452.7 
						2900.6,451 2901.7,449.8 2903.4,448.4 2904.9,447.2 2907.7,445.5 2909.4,444.6 2911.2,443.8 2912.6,443.2 2915.5,441.8 
						2916.9,441.5 2918.3,440.9 2919.8,440.6 2921.2,440.4 2922.6,440.1 2924.3,439.8 2926.4,439.8 2928.4,439.8 2930.9,439.8 
						2931.6,439.8 					"/>
					<polyline class="st2" points="2935.8,439.9 2936.4,440.1 2937,440.4 2937.3,440.9 2937.5,441.5 2937.5,442.1 2937.3,442.9 
						2936.7,442.9 					"/>
					<polyline class="st2" points="2879.6,457.8 2879,457.8 2877.9,457.5 2875.1,460.4 					"/>
					<polyline class="st2" points="2874.4,461.3 2871.6,464.1 2871.3,464.1 2871,463.6 2873.8,460.7 					"/>
					<polyline class="st2" points="2875.8,458.8 2877.6,457 2877.6,456.4 2877.6,456.1 2877.6,455.5 2879.3,453.8 2880.4,452.7 
											"/>
					<polyline class="st14" points="2884.9,448.4 2885.4,448.1 2886.5,446.6 2887.6,445.2 2889.6,443.2 2891.3,441.6 					"/>
					<polyline class="st2" points="2893.7,439.6 2894.2,439.2 2895.4,438.6 2896,438.6 2896.5,438.9 2897.1,439.5 2897.1,440.1 
						2896.8,440.9 2896.3,441.5 2895.7,442.4 2895.1,442.7 					"/>
					<polyline class="st15" points="2890.9,446.8 2888.5,449.2 2885.6,451.8 2884.5,452.9 					"/>
					<polyline class="st2" points="2882.5,455.1 2881.6,456.1 2880.2,457.3 2879.6,457.8 					"/>
					<polyline class="st2" points="3342.6,847.4 3341.5,848 3340.4,844.2 					"/>
					<polyline class="st16" points="3338.2,836.6 3324,786.4 3324.8,784.4 3318,761.1 3314.2,753.7 3312.1,750.9 					"/>
					<polyline class="st2" points="3309.8,747.7 3307.4,744.5 3305.4,744.5 3304.8,746.2 3307.3,749.3 					"/>
					<polyline class="st17" points="3311.1,754.4 3314.2,760 3318.8,775.2 					"/>
					<polyline class="st2" points="3319.7,778.2 3320.8,782.1 3318.2,785.1 					"/>
					<line class="st18" x1="3315.3" y1="788.5" x2="3310.9" y2="793.7"/>
					<polyline class="st2" points="3309.4,795.4 3306.8,798.4 3307.9,802.3 					"/>
					<line class="st19" x1="3310.1" y1="810.2" x2="3318" y2="837.9"/>
					<polyline class="st2" points="3319.2,841.9 3320.3,845.7 3317.1,848.2 					"/>
					<line class="st20" x1="3310" y1="853.8" x2="3285.1" y2="873.4"/>
					<polyline class="st2" points="3281.5,876.2 3278.4,878.7 3274.4,878.2 					"/>
					<polyline class="st2" points="3268.3,877.5 3264.4,877 3261.9,873.8 					"/>
					<line class="st21" x1="3256.7" y1="867.1" x2="3238.4" y2="843.6"/>
					<polyline class="st2" points="3235.8,840.3 3233.4,837.1 3236,834.1 					"/>
					<line class="st22" x1="3240.8" y1="828.4" x2="3286.9" y2="774.5"/>
					<polyline class="st2" points="3289.3,771.6 3291.9,768.6 3289.4,765.5 					"/>
					<polyline class="st12" points="3284.6,759.3 3270.1,740.8 3267.8,737.8 					"/>
					<polyline class="st2" points="3265.4,734.8 3262.9,731.6 3265.8,729.3 3266.9,729 3266.4,725.1 					"/>
					<polyline class="st2" points="3265.5,718.1 3264.9,714.1 3263.8,714.1 3264.3,718.1 					"/>
					<polyline class="st2" points="3265.2,724.5 3265.8,728.5 3262.6,731 3260.2,727.9 					"/>
					<polyline class="st23" points="3254.9,721.2 3248.9,713.5 3246.3,710.4 3236.4,697.7 					"/>
					<polyline class="st2" points="3233.8,694.3 3231.4,691.2 3231.9,689.5 3231.9,687.5 3231.9,687.3 					"/>
					<polyline class="st24" points="3230.1,679.5 3216.2,620.9 3213.3,614.1 3181.3,590.2 					"/>
					<polyline class="st2" points="3178.1,587.8 3174.9,585.4 3176.9,581.9 					"/>
					<polyline class="st2" points="3176.7,577.8 3176.3,576.5 3174,575.1 3169.4,576.5 3167.4,574.5 3168.4,570.9 					"/>
					<polyline class="st2" points="1891.5,447.4 1891.2,447.4 1890.9,447.4 1890.6,447.4 1890.6,447.1 1890.3,447.1 1890.3,446.8 
						1890,446.8 1890,446.5 1889.8,446.5 1889.8,446.3 1889.8,446 1889.8,445.7 1889.8,445.4 1889.8,445.1 1889.8,444.8 
						1889.8,444.5 1890,444.5 1890,444.3 1890.3,444.3 1890.3,444 1890.6,444 1890.9,443.7 1894.3,442.7 					"/>
					<line class="st25" x1="1901.6" y1="440.6" x2="1984.9" y2="416.6"/>
					<polyline class="st2" points="1988.6,415.6 1990.6,415 1990.9,415 1991.2,415 1991.5,415 1991.8,415.3 1992.1,415.3 
						1992.3,415.3 1992.3,415.6 1992.6,415.6 1992.6,415.8 1992.9,416.1 1992.9,416.4 1992.9,416.7 1993.2,417 1993.2,417.3 
						1992.9,417.3 1992.9,417.5 1992.9,417.8 1992.6,418.1 1992.6,418.4 1992.3,418.4 1992.3,418.7 1992.1,418.7 1991.8,418.7 
						1989.5,419.5 1988.5,419.8 					"/>
					<line class="st22" x1="1981.4" y1="421.9" x2="1898.9" y2="445.4"/>
					<polyline class="st2" points="1895.3,446.4 1892,447.4 1891.7,447.4 1891.5,447.4 					"/>
					<polyline class="st2" points="1203.4,385.9 1202.6,388.8 1201.8,389.3 1197.9,388.2 					"/>
					<polyline class="st2" points="1191.9,386.5 1188.8,385.6 1188.3,385 1189.4,381.2 					"/>
					<polyline class="st2" points="1190.5,377.1 1191.4,374.1 1192,373.5 1195.9,374.5 					"/>
					<polyline class="st2" points="1202.1,376.2 1204.9,377 1205.5,377.8 1204.5,381.7 					"/>
					<line class="st2" x1="3042.6" y1="485" x2="3038.7" y2="485.6"/>
					<polyline class="st2" points="3036.5,487.4 3033.7,490.3 3032.9,489.7 3030.5,492.9 					"/>
					<line class="st26" x1="3026.4" y1="495.5" x2="3018.9" y2="497.1"/>
					<polyline class="st2" points="3016.4,497.7 3012.5,498.6 3013.4,502 3009.4,502.4 					"/>
					<line class="st27" x1="3003.6" y1="502.9" x2="2995" y2="503.7"/>
					<polyline class="st2" points="2992.1,504 2988.1,504.3 2987.6,502 2984.4,502.6 2984.1,500.6 2980.4,502 					"/>
					<polyline class="st28" points="2972.7,505.1 2962.9,508.9 2952.9,508.9 2941.7,510.6 2878.1,510.6 					"/>
					<polyline class="st2" points="2874,510.6 2871.1,510.6 2870,510.6 2867.2,507.8 					"/>
					<polyline class="st4" points="2862.2,502.7 2847.1,487.4 2844.6,484.8 					"/>
					<polyline class="st2" points="2842.1,482.3 2839.3,479.4 2842.1,476.5 					"/>
					<line class="st29" x1="2846.9" y1="471.7" x2="2854.2" y2="464.5"/>
					<polyline class="st2" points="2856.6,462.1 2859.4,459.3 2858.5,458.4 2856.8,459 2855.4,460.5 2853.9,459.3 2855.7,457.6 
						2856.2,456.1 2856.3,456.1 					"/>
					<line class="st30" x1="2859.4" y1="453" x2="2864.1" y2="448.3"/>
					<polyline class="st2" points="2865.1,446.5 2865.1,446.4 2864.8,446.1 2862.5,443.5 2862.3,443.5 2862,443.2 2861.7,443.2 
						2861.4,443.2 2861.1,443.5 2858.6,446.1 					"/>
					<polyline class="st2" points="2852.5,452.1 2850.5,453 2849.1,454.1 2846.2,451.3 					"/>
					<polyline class="st2" points="2839.3,444.4 2836.4,441.5 2837.9,440.4 2838.5,438.4 2838.5,438.3 					"/>
					<polyline class="st2" points="2844.8,432 2847.6,429.2 2847.6,428.6 2847.4,428.3 2844.8,425.5 2844.5,425.5 2844.2,425.5 
						2843.9,425.5 2843.6,425.5 2840.8,428.3 					"/>
					<polyline class="st2" points="2834.7,434.4 2833,434.9 2831.6,436.6 2828.8,433.8 					"/>
					<path class="st31" d="M2823.2,428.2l-44.1-44.3l-58.5-27.2l-95.2-18.4l-94.6-45.9l-22.3-10.4l-22.3-9.6c0,0-19.1-4.8-19.7-5.1
						l-14.4-4.4l-13.3-5.5l-17.8-7.8l-15.6-5.5l-13.3-2.2l-24.4-5.6h-12.2h-1.6"/>
					<polyline class="st2" points="2349.9,236 2345.9,235.9 2345.9,233.7 2344.8,232.5 2344.8,232.4 					"/>
					<polyline class="st2" points="2344.4,223.9 2344.2,220.3 2343.9,220 2343.6,220 2343.3,220.3 2343.6,224.3 					"/>
					<polyline class="st2" points="2344.2,232.5 2344.2,232.8 2343.3,233.9 2343.3,236.2 2339.3,236.2 					"/>
					<polyline class="st32" points="2330.8,236.7 2326.6,237.3 2322.1,240.6 2314.4,242.9 2304.4,246.2 2302.6,246.7 					"/>
					<polyline class="st2" points="2298.6,248.1 2294.7,249.3 2294.1,245.4 					"/>
					<polyline class="st33" points="2293.6,240.4 2292.8,239.4 2291.4,232.9 					"/>
					<polyline class="st2" points="2290.8,230.3 2290.2,227.4 2289.9,226.9 2289.6,226.6 2289.1,226.6 2285.6,227.1 2285.4,227.4 
						2285.1,227.7 2284.8,228 2284.8,228.3 2285.6,231.9 					"/>
					<polyline class="st34" points="2286.9,236.9 2287.6,240.2 2287.1,242.5 2287.6,244.5 2287.7,244.5 					"/>
					<polyline class="st2" points="2289,246.5 2289.9,250.4 2286,251.2 					"/>
					<polyline class="st2" points="2274.7,253.7 2270.9,254.7 2270.9,254.4 2272,251.9 2271.9,250.9 					"/>
					<line class="st35" x1="2270.1" y1="247.3" x2="2268.8" y2="241.1"/>
					<polyline class="st2" points="2268.4,239.1 2267.7,235.9 2267.5,235.7 2267.2,235.4 2267.2,235.1 2266.9,235.1 2266.6,235.1 
						2263.3,235.9 					"/>
					<polyline class="st36" points="2263.3,241 2265.2,249.3 2265.1,249.4 					"/>
					<polyline class="st2" points="2264.8,252.2 2265.2,253.6 2267.2,255.3 2263.2,255.3 					"/>
					<polyline class="st19" points="2254.9,255.3 2249,255.3 2231.1,255.3 2215.8,255.3 2197.9,260.5 2181.1,265.1 2162.2,270.6 
						2145.5,276.2 2128.9,287.3 2113.3,299.5 2107.6,305.6 					"/>
					<polyline class="st2" points="2104.8,308.6 2102.1,311.5 2101.2,311.3 2100.3,311.3 2099.5,311.3 2098.6,311.5 2098.2,311.8 
											"/>
					<polyline class="st37" points="2092.1,317.1 2066.8,340.8 2064,343.4 2046.3,361.8 2021.3,390.5 2016.4,396.1 					"/>
					<polyline class="st2" points="2013.7,399.2 2011.1,402.2 2007.8,400 					"/>
					<polyline class="st38" points="2003.6,397.1 1999.7,394.5 1998.6,393.7 1997.3,392.8 					"/>
					<polyline class="st2" points="1995.2,391.3 1992.9,389.7 1992.3,389.7 1991.8,389.4 1991.2,389.7 1990.6,390 1990.4,390.3 
						1990.1,390.8 1989.8,391.4 1989.8,392 1990,392.4 					"/>
					<line class="st39" x1="1995.7" y1="396.5" x2="2016.3" y2="410.4"/>
					<polyline class="st2" points="2019.2,412.4 2021.3,413.9 2022.5,414.7 2021.3,416.7 2020.5,417.5 2021.3,419.8 2021.8,421.3 
											"/>
					<polyline class="st40" points="2024.4,429.3 2027.3,438.3 2025.5,446.1 2024.3,454.3 2021.3,462.4 2016.5,468.1 1968.2,481.5 
						1966.8,482.3 1961.7,481.8 1949.4,486.3 1935.4,497.6 					"/>
					<polyline class="st2" points="1933.3,500.8 1932.7,504.8 1929.4,507 					"/>
					<polyline class="st41" points="1923.3,511.2 1902.5,525.3 1902,525.5 					"/>
					<polyline class="st2" points="1898.6,526.9 1894.9,528.4 1892.3,527.3 1891.7,526.4 1891.7,526.2 					"/>
					<polyline class="st42" points="1891.4,518.4 1896.3,490.3 1896.9,486 1898,479.5 1898.9,476.1 1901.1,472.8 1901.1,469.5 
						1898.9,466.1 1895.6,465 1892.7,465.7 					"/>
					<polyline class="st2" points="1888.9,466.9 1887.8,467.2 1884.9,467.3 1883.3,463.6 					"/>
					<line class="st43" x1="1881.8" y1="459.8" x2="1879.3" y2="454.2"/>
					<polyline class="st2" points="1878.5,452.3 1877.5,449.9 1877.3,449.7 1877,449.4 1876.4,449.1 1875.8,449.4 1875.5,449.4 
						1875,449.9 1875,450.2 1874.7,451.1 1875.1,452.1 					"/>
					<line class="st44" x1="1876.9" y1="456.2" x2="1879.6" y2="462.4"/>
					<polyline class="st2" points="1880.5,464.5 1882.1,468.1 1878.3,469.3 					"/>
					<polyline class="st2" points="1874.4,470.1 1870.4,469.8 1868.4,472.1 1867.9,475 1865.3,476.1 1864.7,476.4 1864.2,476.2 
											"/>
					<polyline class="st2" points="1859.5,475.1 1855.7,474.1 1855.7,474.7 1859.5,475.8 					"/>
					<polyline class="st2" points="1859.8,475.9 1863.6,476.9 1863.3,478.4 1864.7,479.5 1864.2,482.1 1864.3,483.4 					"/>
					<polyline class="st2" points="1864.3,483.5 1864.7,487.5 1863.3,487.7 1863.3,491.1 1865,491.4 1865,495.4 					"/>
					<polyline class="st45" points="1862.6,503.9 1843.7,518.2 1836.6,520.7 					"/>
					<polyline class="st2" points="1832.4,522.2 1828.7,523.5 1827.3,519.8 					"/>
					<polyline class="st2" points="1823.5,509.1 1822.1,505.4 1825.2,502.8 					"/>
					<polyline class="st46" points="1831.3,497.6 1844.6,486.3 1845.1,485.8 1845.7,484.9 1846,484 1846,483.5 1845.7,482.3 
						1845.4,481.8 1844.8,480.9 1844.3,480.6 1843.7,480.4 1842.9,480.1 1842,480.1 1841.2,480.1 1840.6,480.4 1839.4,481.5 
						1836.6,483.8 1816.4,500.5 1786.6,505.1 1776.4,506.5 1769.3,507.6 1764.7,508.2 1755.3,509.6 1752.2,510 					"/>
					<polyline class="st2" points="1748.2,510.4 1747.7,510.5 1744.2,511 1743.1,509.6 1742.9,507.5 					"/>
					<polyline class="st2" points="1741.8,498.1 1741.4,494.6 1741.1,494.3 1741.1,494 1740.8,494 1740.6,494 1736,494.3 
						1735.7,494.6 1735.4,494.6 1735.4,494.9 1735.1,494.9 1735.1,495.1 1735.6,498.8 					"/>
					<polyline class="st2" points="1736.7,508.2 1736.8,509.9 1736.8,510.5 1736.3,511 1736,511.6 1736,511.9 1732,512.3 					"/>
					<polyline class="st47" points="1725.1,513.1 1712.4,514.5 1710.4,514.7 1709,514.7 1706.7,514.7 1705.9,514.7 1704.7,514.7 
						1703.9,514.5 1703,513.9 1702.2,513.3 1701,512.8 1700.5,511.9 1699.9,511.3 1699.3,510.5 1698.8,509.6 1698.2,508.5 
						1697.9,507.6 1697.4,500.3 					"/>
					<polyline class="st2" points="1697.2,496.9 1697.1,494.9 1697.1,492.9 1698.5,493.1 1698.5,493.7 1699.6,494.3 1699.9,492.6 
						1698.8,492.3 1698.8,492.6 1698.2,492.6 1699.1,489.2 1699.6,489.5 1699.6,489.7 1700.8,490 1701,488.6 1699.9,488.3 
						1699.6,488.9 1699.3,488.6 1700.4,484.8 					"/>
					<polyline class="st2" points="1701,482.6 1701.6,480.6 1701.6,480.1 1701.6,479.5 1701.3,479.2 1701,478.9 1703.3,478.4 
						1702.3,474.5 					"/>
					<polyline class="st48" points="1700,465.5 1699.1,461.9 1698.8,461.3 1698.8,461 1698.5,460.5 1698.2,460.2 1697.6,459.6 
						1697.1,459.3 1696.5,459.3 1695.9,459 1695.4,459 1694.8,459.3 1694.2,459.6 1693.7,459.9 1693.4,460.5 1692.8,461 
						1692.5,461.6 1692.5,462.2 1692.5,462.6 					"/>
					<polyline class="st2" points="1693.7,467.1 1694.8,471 1690.8,471 					"/>
					<polyline class="st49" points="1681.5,471 1680.3,471 1679.4,470.4 1678.6,470.1 1677.4,469.6 1676.3,469 1674.6,468.4 
						1672.6,467.9 1669.8,467.3 1667.8,467 1664.9,467 1663.2,467 1661.8,467.3 1660.1,467.6 1658.7,467.9 1657,468.4 1655.3,469.3 
						1653.6,470.1 1651.6,471.3 1650.8,471.7 					"/>
					<polyline class="st2" points="1647.3,474.7 1645.1,476.9 1644.8,477.2 1644.5,477.5 1644.5,477.8 1644.5,478.4 1644.5,478.6 
						1644.5,478.9 1644.8,479.5 1645.1,479.8 1645.3,480.1 1645.6,480.4 1645.9,480.4 1644.7,484.2 					"/>
					<polyline class="st50" points="1642.2,492.1 1641.9,492.9 1639.9,494.6 1637.9,496.3 1636.2,498.3 1635.4,499.1 1634.5,500.5 
						1634,502 1632.8,503.9 1632.6,505.1 1631.4,506.8 1631.1,507.6 1629.7,509.9 1628.6,511.6 1626.3,514.5 1624.6,516.5 
						1622.3,517.9 1619.2,519.3 1616.6,520.4 1612.9,521.6 1608.7,522.4 1605.6,522.4 1602.1,522.1 1596.4,521.3 1586.2,518.7 
						1575.1,515.6 1574.3,515.6 1565.5,515 1556.9,515 1555.3,514.7 1553.3,514.2 1551.3,513 1549,511.6 1547,509.9 1544.2,506.8 
						1541.6,506.5 1539.6,506.2 1535.3,505.9 1532.5,505.6 1530.5,505.4 1525.4,504.8 1518.3,503.4 1514.9,502.7 					"/>
					<polyline class="st2" points="1510.8,501.9 1509.8,501.7 1507.2,503.1 1503.5,501.5 					"/>
					<polyline class="st51" points="1495.9,498.7 1493.9,498 1487,495.1 1484.5,494.3 1482.2,493.1 1476.2,490.9 1454.2,482 					
						"/>
					<polyline class="st2" points="1450.4,480.4 1446.7,478.9 1446.1,476.4 1445.8,476.4 1442.7,474.4 					"/>
					<polyline class="st52" points="1438.5,471.7 1437,470.7 1435.2,465.4 					"/>
					<polyline class="st2" points="1434.4,463.1 1433,459.3 1436.8,458.1 					"/>
					<polyline class="st2" points="1445.8,455.1 1446.7,454.8 1447.3,454.5 1447.5,454.2 1447.8,453.9 1448.1,453.6 1448.1,453.4 
						1448.4,453.1 1448.4,452.8 1448.4,452.5 1448.1,452.2 1448.1,451.9 1447.8,451.6 1447.8,451.4 1447.5,451.1 1447.3,451.1 
						1447,450.8 1446.7,450.8 1446.4,450.8 1446.1,450.8 1445.8,450.8 1443.1,451.7 					"/>
					<polyline class="st2" points="1435.7,454.3 1431.9,455.6 1430.5,451.9 					"/>
					<polyline class="st2" points="1428.4,446 1427.1,442.3 1430.8,441 					"/>
					<polyline class="st2" points="1437.8,438.6 1441,437.4 1441.6,437.4 1441.8,437.2 1442.1,436.6 1442.4,436 1442.4,435.7 
						1442.4,435.2 1442.1,434.9 1441.8,434.3 1441.6,434 1441.3,434 1440.7,433.8 1440.4,433.8 1439.9,433.8 1439.1,434 					"/>
					<polyline class="st2" points="1429.7,437.3 1425.9,438.6 1424.5,434.9 					"/>
					<line class="st53" x1="1422.6" y1="429.6" x2="1425.8" y2="421.8"/>
					<polyline class="st2" points="1426.9,419.2 1428.5,415.6 1422.8,413.3 1421.3,417 					"/>
					<polyline class="st2" points="1417.5,425.9 1416.8,427.5 1414.8,428.6 1411.2,427 					"/>
					<polyline class="st2" points="1407.1,425.2 1405.2,424.4 1403.4,423.6 1403.5,423.2 1402.9,421.5 1403.6,419.9 					"/>
					<polyline class="st2" points="1407.3,410.8 1408.6,407.6 1408.6,407.3 1408.6,407 1408.3,406.8 1403.8,404.8 1403.5,404.8 
						1403.2,405 1402.9,405.3 1401.7,408.3 					"/>
					<polyline class="st2" points="1398,417.5 1397.2,419.3 1395.8,420.1 1395.5,420.4 1391.8,418.9 					"/>
					<polyline class="st2" points="1387,417 1383.3,415.6 1383.6,415.3 1382.7,413.9 1384.1,410.1 					"/>
					<polyline class="st2" points="1386.9,402.6 1388.1,399.4 1388.1,399.1 1388.1,398.8 1387.8,398.8 1387.6,398.5 1383.3,397.1 
						1383,397.1 1382.7,397.1 1382.4,397.1 1382.4,397.4 1381.2,400.9 					"/>
					<polyline class="st2" points="1377.8,409.9 1377.1,411.9 1375.9,412.4 1375.6,413 1371.8,411.7 					"/>
					<polyline class="st2" points="1366.9,410 1363.1,408.7 1363.4,408.2 1362.6,407 1363.7,403.2 					"/>
					<line class="st54" x1="1365.1" y1="398.9" x2="1367" y2="392.5"/>
					<polyline class="st2" points="1365.8,391.1 1362.6,390.3 1362,390 1361.7,390.3 1361.4,390.3 1361.4,390.5 1360.3,394.1 					
						"/>
					<polyline class="st2" points="1358.1,401.5 1356.9,405.3 1355.4,405.9 1353.1,405.2 					"/>
					<polyline class="st2" points="1345.2,402.9 1342.9,402.2 1342.1,400.8 1343.1,396.9 					"/>
					<polyline class="st2" points="1345.1,389.6 1346.1,386 1346.1,385.7 1345.8,385.7 1345.8,385.4 1345.5,385.4 1341,384 
						1340.7,384 1340.7,384.3 1340.4,384.3 1340.1,384.6 1339.2,388.1 					"/>
					<polyline class="st2" points="1337.4,395.5 1336.4,399.4 1335,400.2 1332.7,399.6 					"/>
					<polyline class="st2" points="1324.9,397.8 1322.2,397.1 1321.3,396.2 1322.4,392.4 					"/>
					<polyline class="st2" points="1324.6,384.5 1325.6,380.6 1325,380 1320.2,378.6 1319.4,379.2 1318.6,382.1 					"/>
					<polyline class="st2" points="1316,391.8 1315.4,394.2 1314.2,395.1 1310.4,394.1 					"/>
					<polyline class="st2" points="1305.6,392.9 1301.7,392 1300.9,390.5 1300.6,390.5 1301.7,386.7 					"/>
					<polyline class="st2" points="1303.8,378.8 1304.9,374.9 1299.2,373.5 1298.1,377.4 					"/>
					<polyline class="st2" points="1296,385.3 1294.9,389.1 1293.5,389.7 1288.9,388.6 1287.5,386 1280.4,384 1281.5,380.1 					"/>
					<polyline class="st2" points="1283.3,373.4 1284.4,369.5 1282.1,369 1279.3,371.8 					"/>
					<line class="st55" x1="1273.3" y1="378.1" x2="1252.2" y2="400"/>
					<polyline class="st2" points="1249.2,403.1 1246.3,405.9 1243,403.7 					"/>
					<polyline class="st2" points="1241.2,402.5 1239.5,401.4 1237.5,401.1 1236.9,399.9 1236.7,398.2 1232.8,397.2 					"/>
					<line class="st42" x1="1224.9" y1="395.2" x2="1213.2" y2="392.3"/>
					<polyline class="st2" points="1209.3,391.3 1205.4,390.3 1205.1,389.7 1206,386.4 					"/>
					<polyline class="st2" points="1207.2,381.8 1207.9,378.9 1208.8,378.3 1214.8,380 1215.1,379.2 1215.3,379.2 1215.9,377.5 
						1216.5,377.8 1216.2,379.5 1220.5,380.6 1223.3,378.9 1224.2,376 1222.4,372.9 1218.2,371.8 1217.6,373.8 1216.8,373.5 
						1217.3,371.8 1217.1,371.5 1217.3,370.6 1211.1,369 1210.8,368.4 1211.7,365.1 					"/>
					<polyline class="st2" points="1212.6,361.5 1213.6,357.6 1214.2,357.3 1219,358.7 1219.6,356.4 1220.5,356.7 1219.9,358.7 
						1221.3,359.3 1221.9,357.3 1223,357.3 1222.4,359.6 1225.6,360.4 1226.2,360.1 					"/>
					<polyline class="st2" points="1227.8,359.2 1228.7,358.7 1229.6,355.9 1229,355 1226.1,354.2 					"/>
					<polyline class="st56" points="1218.1,351.9 1213.9,350.8 1190,344.3 					"/>
					<polyline class="st2" points="1185.9,343.3 1182.1,342.2 1181.2,342.8 1180.4,345.6 1182.1,348.8 1186,349.8 					"/>
					<line class="st57" x1="1190.2" y1="350.9" x2="1196.6" y2="352.6"/>
					<polyline class="st2" points="1198.7,353.1 1202.6,354.2 1202.8,352.2 1203.7,352.2 1203.1,354.5 1204.8,354.7 1205.4,352.8 
						1206.3,353 1205.7,355 1210.5,356.4 1210.8,357 1209.9,360.3 					"/>
					<polyline class="st2" points="1208.8,364.4 1207.9,367.5 1207.4,368.1 1203.5,367 					"/>
					<line class="st58" x1="1198.4" y1="365.7" x2="1190.8" y2="363.6"/>
					<polyline class="st2" points="1188.2,362.9 1184.4,361.8 1184.1,362.7 1183.5,364.4 1182.7,364.4 1182.9,362.4 1179,361.3 
						1178.7,361.3 1175.6,363 1175,365.8 1175.6,366.8 					"/>
					<polyline class="st2" points="1177.1,369 1180.9,370.1 1181.5,368.1 1182.4,368.4 1182.1,370.4 1182.1,371.2 1188.1,372.6 
						1188.6,373.5 1187.6,377.4 					"/>
					<polyline class="st2" points="1186.5,381.4 1185.8,384.3 1184.9,384.9 1181.1,383.8 					"/>
					<polyline class="st2" points="1172.8,381.6 1170.2,380.9 1169,381.5 1168.2,381.2 1166.2,378.7 					"/>
					<polyline class="st59" points="1161.4,372.6 1148.8,356.7 1053.1,331.1 936.5,327.2 911.8,333.9 					"/>
					<polyline class="st2" points="908,334.9 904.1,336 903.1,332.1 					"/>
					<polyline class="st2" points="902.9,331.6 901.9,327.7 899.9,328.3 900.8,332.2 					"/>
					<polyline class="st2" points="900.9,332.7 901.9,336.5 898,337.6 					"/>
					<polyline class="st2" points="897.5,337.8 893.6,338.8 892.8,335.4 891.6,335.7 890.5,331.1 891.6,330.9 891.3,330.6 
						888.2,331.4 888.2,331.7 889.4,331.4 890.5,336 889.6,336.3 890.5,339.7 886.6,340.7 					"/>
					<line class="st60" x1="880.3" y1="342.5" x2="870.8" y2="345.1"/>
					<polyline class="st2" points="867.6,346 863.8,347.1 862.8,343.2 					"/>
					<polyline class="st2" points="862.5,342.4 861.5,338.5 858.4,339.4 859.3,343.3 					"/>
					<polyline class="st2" points="859.5,344 860.4,347.9 856.5,348.9 					"/>
					<line class="st43" x1="852.5" y1="350" x2="846.6" y2="351.5"/>
					<polyline class="st2" points="844.6,352 840.8,353 839.7,349.2 					"/>
					<polyline class="st2" points="839.5,348.6 838.5,344.8 835.4,345.6 836.4,349.5 					"/>
					<polyline class="st2" points="836.6,350 837.6,353.9 833.8,354.9 					"/>
					<polyline class="st2" points="825.9,357.1 822,358.1 820.9,354.3 					"/>
					<polyline class="st2" points="820.8,353.8 819.7,349.9 816.6,350.8 817.7,354.6 					"/>
					<polyline class="st2" points="817.8,355.1 818.9,359 815,360.1 					"/>
					<polyline class="st61" points="807.7,362.1 801.5,363.8 751.3,355.7 					"/>
					<polyline class="st2" points="747.5,355.1 743.6,354.5 742.7,361.6 746.7,362.2 					"/>
					<line class="st62" x1="754.3" y1="363.4" x2="796.1" y2="370"/>
					<polyline class="st2" points="799.9,370.6 803.8,371.2 804.9,375.1 					"/>
					<line class="st63" x1="806.3" y1="380.1" x2="808.3" y2="387.6"/>
					<polyline class="st2" points="809,390.1 810.1,394 806.1,393.3 					"/>
					<line class="st64" x1="796.9" y1="391.9" x2="764.6" y2="386.8"/>
					<polyline class="st2" points="760,386.1 756.1,385.4 753.2,388.2 					"/>
					<polyline class="st24" points="747.4,393.7 695,443.7 666.3,471 649.2,487.5 639.7,496.7 628.8,506.8 621.5,508.2 					"/>
					<polyline class="st2" points="617.5,508.9 613.6,509.6 613,505.8 616.4,505.3 615.9,502.2 611.9,502.8 					"/>
					<polyline class="st2" points="610.4,503.1 606.4,503.8 606.9,506.9 610,506.4 610.5,510.1 606.6,510.9 					"/>
					<line class="st65" x1="598.8" y1="512.3" x2="587.1" y2="514.4"/>
					<polyline class="st2" points="583.4,515.7 579.7,517.1 579.5,516.3 577.7,510 575.1,510.6 577,518.2 573.2,519.5 					"/>
					<path class="st66" d="M566.3,522.1l-20,7.5l-4.2,1.6"/>
					<path class="st2" d="M538.7,532.5l-3.8,1.4l-1.4-3.7"/>
					<polyline class="st2" points="531.2,524.1 529.8,520.4 533.1,518.1 					"/>
					<line class="st67" x1="539.3" y1="513.8" x2="548.7" y2="507.3"/>
					<polyline class="st2" points="551.8,505.1 555.1,502.9 551.3,497.4 548,499.7 					"/>
					<line class="st68" x1="540" y1="505.3" x2="528" y2="513.6"/>
					<polyline class="st2" points="524,516.4 520.7,518.6 522.8,522 					"/>
					<polyline class="st2" points="527.3,532.5 528.6,536.3 524.9,537.7 					"/>
					<polyline class="st69" points="516.9,540.7 485,552.6 473.9,557.4 463.3,562.4 454.5,566.3 448.3,569.9 442.5,575.1 
						438.5,578.2 436.5,580.2 433.6,582.8 430.9,586 					"/>
					<line class="st2" x1="428.7" y1="589.6" x2="426.9" y2="593.2"/>
				</g>
			</g>
		</g>
	</g>
</g>
<g>
	<g>
		<defs>
			<polygon id="SVGID_3_" points="3839.7,1080.2 -0.3,1080.2 -0.3,0.2 243,0.2 3839.7,0.2 			"/>
		</defs>
		<clipPath id="SVGID_4_">
			<use xlink:href="#SVGID_3_"  style="overflow:visible;"/>
		</clipPath>
		<g class="st70">
			<g id="Pre1900_HKI">
				<polygon class="st2" points="1877.2,495.1 1873.9,495.1 1870.5,492.7 1870,487.9 1868.6,483.6 1870,478.8 1871.5,474 
					1872.4,471.6 1875.5,470.1 1878.7,471.1 1881.1,473.5 1883,475.5 1884.4,476.9 1883.9,480.7 1883,485.5 1883,489.9 
					1882.5,492.7 1880.1,494.6 				"/>
				<path class="st71" d="M3539.6,1197.4l1.3-3.4v-5.8l1.6-4.4l1.6-8l1.6-3.2h3.2l4.8,3.2l3.2-1.6l1.6-8l1.6-3.2l-3.2-4.8v-3.2
					l3.2-3.1h1.6l1.6-1.6v-1.6l-6.4-6.4h-1.6l-1.6-1.6l1.6-3.2v-3.2l1.6-1.6l-6.4-8l-3.2-4.8v-1.6l-1.6-1.6l-1.6,1.6h-1.6l-1.6-3.2
					l1.6-3.2l-1.6-1.6l-1.6-4.8l1.6-3.2l-1.6-4.8l1.6-3.2l-1.6-1.6h-1.6l-1.6-4.8l-1.6-1.6v-3.2l-3.2-3.2v-3.2l3.2-8l1.6-8l4.8-9.6
					l3.2-4.8l1.6-4.8h3.2l4.8-3.2l9.6-0.7l3.2-0.9l3.2-4.8h4.8l3.2,1.6l1.6,1.6h1.6l1.6-1.6v-3.4l-1.6-4.5l-6.4-8l-12.7-12.7
					l-4.8-6.4l-3.2-1.6l-4.8-6.4h-3.2l-4.8-6.4l-8-8h-3.2l-1.6-1.6l-3.2-4.8l-17.5-14.3l-8-6.4l-3.2-1.6h-3.2l-3.2-3.2l-6.4-6.4
					l-3.2-3.2l-3.2-1.6l-3.1,1.8l-8,4.8l-3.2,1.6l-4.8,1.6l-1.6,1.6l1.6,3.2l7.2,14.9l0.8,4.2l-3.2,12.7l-4.8,11.1l-6.4,6.4
					l-9.6,6.4l-8,8l-8,4.8l-4.8,3.2l-4.8,1.6l-3.2,3.2l-1.6,4.8h-1.6l-6.4-4.8l-1.6-3.2v-4.8l-1.6-3.2l1.6-3.2l-1.6-3.2l-6.4-14.3
					l-3.2-4.8l-1.6-1.6l-1.6-6.4l-14.3-14.3l-3.2-3.2l-3.2-1.6l-3.2-4.8l-1.6-3.2l-4.8-6.4l-3.2-4.8v-4.8l-1.6-1.6l-4.8-1.6
					l-4.8-4.8l-1.6-1.6l-3.2,1.6h-1.6l-4.8-4.8l-3.2-1.6h-6.4l-3.2-3.2l-3.2,1.6h-6.4l-4.8,3.2v1.6l-11.1,3.2l-6.4,3.2l-1.6,4.8
					h-4.8l-4.8,1.6h-3.2l-3.2-3.2h-1.6l-12.7,12.7l-3.2,4.8l-9.6,4.8l-9.6,4.8l-1.6,0.5l-3.1,5.8l-8,3.2l-6.4,1.6h-9.3l-6.4,1.6
					l-6.4,8l-6.4,3.2l-6.4,6.4h-3.2l-4.8,3.2h-3.2l-11.1,8l-8-1.6l-4.8,1.6h-6.4v-3.2l-8-4.8h-6.4v-4.8l-1.6-4.8l-3.2-3.2h-9.6
					l-4.8-8l-1.6-1.6h-8l-1.6-1.6l-3.2-6.4l-1.6-4.8l-3.2-3.2l-3.2-4.8v-1.6l1.6-3.2l-1.6-4.8l-1.6-3.2v-3.2l-1.6-1.6l-1.6-1.6
					l3.2-3.2h4.8l-1.6-1.6V926l1.6-1.6l1.6-3.2h1.6l4.8,3.2h6.4v-4.8h1.6l1.6,3.2v4.8l-1.6,4.8l-1.6,4.8l3.2,3.2h4.8l3.2-1.6
					l1.6-1.6l1.6-3.2h1.6l4.8,3.2l1.6,1.6v3.2l-1.6,4.8l-1.6,3.2v4.8l8,4.8l4.8,1.6l6.4-3.2h3.2l3.2-1.6l6.4-12.7l1.6-4.8l1.6-9.5
					V926l-1.6-3.2l-6.4,1.6l-3.2,3.2h-3.2l-1.6-3.2l-3.2-4.8l-6.4-12.7l-3.2-9.5l-1.6-3.2V891l4.8-3.2l3.2-11.2l3.2-8l3.2-4.8
					l1.6-4.8l-1.6-6.4v-3.2l3.2-1.6l3.2-1.6v-4.8l4.8-4.8l4.8-3.2l-1.6-1.6v-1.6l-1.6-3.2l-3.2-1.6l-1.6-3.2V819l1.6-3.2l-1.6-6.4
					v-3.2l8-4.8l1.6-3.2l1.6-9.6l4.8-9.5l1.6-1.6l-3.2-4.8v-4.8l1.6-4.8l6.4-8l4.8-3.2l6.4-8l1.6-4.8l-1.6-3.2l1.6-1.6h3.2l4.8-3.2
					l3.2-6.4l1.6-3.2l1.6-1.6l1.6,1.6l4.8,3.2h1.6l1.6-3.2l3.2-1.6l1.6-1.6h4.8l1.6-1.6v-1.5l1.6-3.2l1.6-8l-1.6-4.8v-6.4h-1.6
					l-6.4,6.4l-1.6,1.6h-3.2l-4.8-1.6h-3.2l-17.5,4.8l-6.4,1.6l-4.8,1.6h-4.8l-6.4-4.8l-3.2-4.8l-1.6-4.8l-1.6-8l-6.4-8l-4.8-4.8
					l-1.6-3.2l-1.6-3.2l-8-9.5l-3.2-4.8v-1.6l-8-11.2l-3.2-3.2v-6.4l1.6-4.8l8-9.6l3.2-1.6h1.6l6.4-4.8h3.2l6.4-1.6l3.2-1.6l4.8-4.8
					l3.2-1.6l1.6-4.8l6.4-11.2l1.6-4.8l1.6-4.8l1.6-3.2v-3.2l-1.6-1.6h-3.2l-1.6-1.6l-1.6-3.2l1.6-1.6l0.9-1l-0.1-1.4l-4-4l-6.4-3.2
					h-3.2l-1.6-3.2h-4.8l-3.2-1.6h-3.2l-6.4-4.8l-3.2-1.6l-1.6-3.2h-3.2l-4.8-4.8l-4.8-3.2l-4.8-3.2l-4.8-1.6l-1.6-4.8l-3.2-3.2
					l-9.6-9.6l-3.2-3.2l-3.2-6.4l-9.6-9.5l-8-4.8l-4.8-3.2h-6.4l-6.4,3.2l-4.8,3.2l-1.6,1.6l1.6,3.2l-3.2,1.6l-1.6,3.2l1.6,3.2v1.6
					l-1.6,3.2l1.6,4.8l3.2,1.6l-1.6,4.8l-6.4,6.4l-11.1,4.8h-9.4l-11.1-3.2l-4.9-1.4l-6.4-1.6l-9.6,1.6l-6.4,4.8l-4.8,6.4l-1.6,4.8
					l1.6,8l1.6,8l1.6,11.2v6.4L2963,598l-4.8,9.5l4.8,20.7l6.4,6.4l1.6,4.8l-3.2,8c0,0-4.8,9.6-6.4,11.2l-8,8h-11.1l-11.1-4.8
					l-4.8-4.8l-8-3.2l-14.3-6.4l-9.6-4.8l-4.8-3.2l-11.1-22.3l-11.1-22.3l-4.8-9.5l-3.2-3.2l-14.3-4.8l-14.3-3.2l-9.6-3.2l-14.2-8
					l-8-3.2l-4.8-3.2l-8-8l-6.4-11.2l-8-11.1l-6.4-8l-3.2-3.2l-4.8-8l-3.2-3.2l-4.8-8l-11-11l-9.6-9.5l-4.8-3.2l-6.4-1.6h-8.6
					l-18.4-3.2l-15.9-6.4l-8-4.8l-8-4.8l-6.4-3.2l-6.4-1.6h-5l-4.5,1.6l-8,4.8l-4.8,3.2l-4.8,4.8l-6.4,9.5l-4.8,4.8l-1.3,1.6h-1.9
					l-1.6-1.6l-4.8-9.6l-6.4-9.5l-3.2-4.8l-2.5-4.8l-2.3-4.8l-4.8-3.2h-4.8l-4.8,1.6l-3.2,3.2l-1.6,4.8l-1.6,8l-4.8,4.8l-6.4,4.8
					h-4.8l-3.6-0.7l-9.1-10.4l-7.8-11.9l-9.7-19.9l-6.3-16l-3.2-8l-3.2-9.5l-8-31.8l-8-20.7l-11.1-15.9l-12.7-9.5l-15.9-6.4
					l-20.7-6.4l-23.9-3.2h-3.8l-3.3,0.8l-6.4,3.2l-11.1,6.4l-9.5,3.1l-12.7,4.8l-11.1,4.8l-9.6,4.8l-5.7,1.5h-18.1l-16.1,2l-14.1,2
					l-14.1,4l-14.1,4l-10.1,2l-8,2h-22.1l-8-2l-10-2l-8-2l-10.1-2h-8l-8,4l-8,6l-10.4,12.2l-24.1,28.1l-12.1,14.1l-14.1,18.1l-6,6
					l-2,8v12.1l2,10l2,18.1l2,16.1v16.1l2,16.1V534l2,12.1l2,12.1v14.1l4,10l4,8l2,10l-2,8l-8,6h-30.1l-14.1,4l-10,2l-10.1,4l-10,2
					l-6-2l-8-6l-6-8h-16.1l-12.1-2l-12.1-4l-10-4l-8-6l-8-8l-6-4l-6-2v-4l2-4l4-4l2-6v-4l-2-10l-6-6l-6-2l-6,2l-4,2l-2,2l-2,2l-2,2
					v2l2,2l4,4v4l-2,6l-2,6l-4,6l-2,6l-2,10v4l2,6v4l-2,6v8l6,16.1l-10,10l-14.1,6l-6,2l-6,8l-8,8.5l-8,3.6h-12.7l-4-4l-4-18.1
					l2-12.1l-12.1-18.1l-8,2l-10,8l-20.1,6h-12.1v8l-6,8l-14.2,10.4l-14.1-4l-4,2l-4,2l-6,4h-6l-8,2l-6,2l-8,6l-6,2l-4,2l-6,2l-4,2
					l-8,2l-4.9-4h-27.3l-6-4l-6-2h-4l-6,2h-10l-4-2l-4-4l-6-4l-6-4l-6-4l-8-6l-2-2l-4-4l-4-2l-6-4l-4-2l-4-2l-6-4l-8.3-2h-7.8l-2-4
					l4-6l4-4l6-5.5v-2.6l-4-4l-2-2l-4-4l-2-2l-2-2h-2l-6,4l-4,4l-4,2l-4,2h-14.1l-6,2l-2,2l-2.2,2h-1.8l-2-2v-8.1l-2-4l-8-6l-8-6
					l-8-6l-6-4l-10.1-4l-10-4l-12.1-4l-10-2l-10-2l-10.1,2l-4,2H1358l-4,2l-4-2h-6l-6-2h-6l-4-4l-4-8l-6-4l-2-4l-2-4l-2-4l-4-4l-6-6
					l-4-6l-4-4l-2-6l-4-6l-4-4l-2-2l-2-4l-4-4l-4-4l-2-4l-6-6l-2-4v-8l-2-6l-6-4l-4-4l-2-2l-2-2l-4-2l-6-2h-10.1l-4-2l-8-4h-12.1
					l-6-2h-6l-2,4l-4,2h-2l-4,2l-4,2h-4l-6-2l-6-2v-6l-2-4l-6-4l-6-4l-2-4h-4l-4,2l-2,4h-12.1l-6-6l-6-4l-6-6l-6-0.8l-6.4,3.2
					l-6.4,4.8l-6.4,3.2h-4.8l-6.4-1.6l-4.8-3.2l-3.2-3.2l-4.8-4.8l-1.6-1.6l-6.4-1.6h-3.2l-3.2,1.6l-2.9,1.5l-8-2h-4l-6-2h-25.3
					l-6-2l-4-4v-4l-2.1-4.9l-3.9-1.1l-6-0.4h-14.2l-4,0.4l-2,2l-2,6l-2,6l-8,4l-2.5,2.1l-6.4,1.6h-6.4L916,412l-5.8-0.6H898l-8,2
					l-6,2l-6,4l-6,4l-8,4l-8,4l-6,2l-10,2h-22.3l-6-2l-8-6l-14.1-2l-8-2l-6-2h-8l-4,4l-2,6c0,0,1.3,1.9,2,3.2v0.8v10l-4,6l-4,6l-2,6
					l-2,10l-6,4l-4,2l-4,4l-6,6l-8,4l-6,4l-4,4l-4,4l-2,6l-2,6l-4,8l-4,6l-6,6l-10,6l-6,2l-6,2l-8,2l-8,2h-8l-8-2l-6-2l-6-4l-4-2
					l-6.5-8.2l-7.2-7.2h-8.2l-6.1,3.2l-4.8,1.6h-4.6l-2.5-0.8l-3.2-1.6l-4.8,1.6l-4.8,3.2l-4.8,3.2l-1.6,3.2l-3.2,4.8l-1.6,3.2
					l-3.2,1.6l-8,1.6h-4.8l-3.2-1.6l-1.6-1.6l-1.6,1.6l-4,2.6l-4.8,3.2h-13.7l-27.7,8l-17.5,6.4l-23.9,11.1l-12.7,8l-4.8,4.8
					L423,598l-1.6,6.4l-1.6,8l-1.5,11.1l-3.2,8l-6.4,6.4l-4.8,6.4l-1.7,3.1v4.8l1.6,11.1l1.6,9.6l1.6,6.4l-1.6,23.9v14.3l1.6,6.4
					l4.8,6.4l6.5,6.4l9.5,3.2l8,4.8l6.4,6.4l6.4,9.5l8,12.7l3.2,6.4l1.6,3.2l3.2,1.6l1.6,1.6l3.2,4.8l11,6.4h11l5,3.2l3.2,1.6
					l3.2,1.6h3l3.4,1.6l4.8,1.6h5.4l10.5,1.6l8-1.6l6.4-1.6h4.8l4.8-3.2l8-3.2l4.7-3.2l1.6-1.6l3.2,1.6l6.4,1.6l4.8,1.6l3.2,8v6.4
					l-3.2,8l-3.2,4.8l-1.6,8v4.8l-3.1,3.1l-3.2,3.2l1.6,1.6v1.6l-1.6,1.6v3.2l3.2,1.6l3.2,1.6l1.6,3.2l-1.6,3.2l1.6,4.8l4.8,4.8
					l6.4,4.8l1.6,1.6l1.6,4.8l1.6,1.6l6.3-1.6l1.9,1.6l1.3,3.2l2.4,5.9l0.8,6.8l3.2,3.2l3.2,1.6v7.2l4.8,10.3v5.7l1.6,7l1.6,1.6
					l-3.2,8l-1.6,8l-1.6,11.2l-3.2,4.8l1.6,3.2l4.8,4.8l1.6,1.6v9.4l3.2,9.5l4.8,8l1.6,3.2l1.6,6.4l4.8,4.8l6.4,1.6l3.2,3.2l4.8,1.6
					l1.6,1.6l4.8,1.6l1.6,1.6h6.4l4.8,1.6l3.2,3.2v3.2l1.6,1.6l1.6-3.2l3.2-4.8l3.2-1.6h1.6l3.2-1.6l1.6-3.2v-3.2l1.6-3.2l1.6-1.6
					h6.4l3.2-1.6v-7.7l1.6-1.8l1.6-3.2v-2.5l1.6-2.3l1.6-3.2h3.2l3.2,3.2l4.8,3.2l1.6,3.2l1.6,3.2l1.6,1.6l4.8,1.6l1.6,3.2l4.8,4.8
					l4.8,3.2v3.2l-3.2,3.2l-1.6,3.2v1.6l-3.2,1.6l-1.6,1.6l1.6,1.6l8,6.4l1.6,3.2l-3.2,8v3.2l1.6,3.2l3.2,3.2l8-1.6l2.4,1.6l7.2,8
					l4.8,8l1.6,3.2v1.7l-1.6,1.5v4.8l1.6,4.5l3.2,3.4l1.6,4.8v12.9l1.6,22.1l-1.6,4.8l-6.4,17.3l-9.5,17.5l-1.6,4.8l-1.6,6.4
					l-3.2,4.8v0.8h2788.9V1197.4z"/>
			</g>
		</g>
	</g>
</g>
<g>
	<g>
		<defs>
			<polygon id="SVGID_5_" points="3839.7,1080.2 -0.3,1080.2 -0.3,0.2 243,0.2 3839.7,0.2 			"/>
		</defs>
		<clipPath id="SVGID_6_">
			<use xlink:href="#SVGID_5_"  style="overflow:visible;"/>
		</clipPath>
		<g class="st72">
			<g id="Pre1900_Kln">
				<path class="st2" d="M595.2-1021v28.4l1.5,6.2l1.6,4.7l1.5,4.7l1.5,4.7l3.1,4.7l3.1,4.7l4.7,3.1l4.7,1.6h7.8l3.1,1.5l3.1,3.1
					l3.1,1.5l4.7,1.6l3.1,1.5l3.2,3.1l4.7,3.1l6.2,1.5l4.7,1.6h6.2l4.7,1.5h3.1l1.5,1.5l3.1,3.1l3.1,3.1l3.1,3.1l1.5,1.5h6.4
					l1.4,1.6h13.1l2.4,1.5l3.1,1.5l3.1,1.6h2.7l3.5,1.5v4.7l1.2,6.2l1.6,6.4l1.6,6.4l3.2,3.2l4.8,1.6l1.6,4.8l1.6,3.2l1.6,4.8v4.8
					l-1.6,4.8v4.8l1.6,3.2l3.2,4.8h5.3l4.2,1.6h4.5l3.5,1.6l4.8,1.6l3.2,4.8l1.5,4.7v4.8l1.6,4.8l1.6,3.2l1.6,3.2l1.6,3.2h3.2
					l3.2,1.6h6.4l3.2,1.6l1.6,1.6v6.4l-1.6,3.1v3.2l1.6,1.6l1.6,1.6h2.2l2.6-1.6l3.2-1.6h1.6l4.8-1.6l6.4-1.6l4.8-1.6h3.2l3.2-1.6
					l1.6-3.2l1.6-3.2l1.6-3.2v-8l1.6-3.2l1.6-3.2l1.6-3.2v-4.7l-1.6-4.9v-1.6l3.2-1.6l1.6-3.2v-9.5l1.6-3.2l1.6-3.2v-3.2l-1.6-4.7
					v-6.4l1.6-5.3v-4.2l-3.2-4.8v-4.8l-4.8-8l-1.6-8v-6.4l-1.6-6.4l-1.6-6.4l-1.6-3.2l-1.6-3.2l-3.2-3.2l-1.6-4.8l-1.5-4.7V-990
					l-1.6-4.8v-3.2l1.6-1.6l3.2,4.8l3.2,1.6l3.1,3.2v4.8l1.6,3.2l3.2,1.6l3.2,1.6l4.8,0.3l3.2-0.3h3.2l3.2,1.6v10.8l3.2,1.9l4.8,1.6
					l1.6,4.8l1.6,4.8l1.6,6.4l3.2,4.8l3.2,3.2l4.8,1.6h3.2l3.2,3.2l3.2,3.2v2.8l-4.8,3.6l-1.6,3.2l1.6,3.2l1.6,4.8v33.4l3.2,4.8
					l1.6,3.2l3.2,3.2l1.6,3.2l1.6,1.6l1.6,1.6l1.6,1.6l1.6,1.6v2.8l1.6,2l1.6,1.6l1.6,1.6l4.8,3.2l6.4,1.6l4.8,1.6h6.3l4.8,1.6
					l4.8,1.6l4.8,3.2h3.2l4.8,1.6l3.2,3.2v16.3l1.6,4.4l1.6,4.8l1.6,3.2l1.6,3.2l1.6,3.2l1.6,3.2l1.6,3.2l1.6,3.2v3.2l1.6,4.8v3.2
					l1.6,4.8l1.6,3.2l1.6,3.2l1.6,1.6l4.8,3.2l4.8,1.6l4.8,1.6l4.8,1.6h8l3.2-1.6l3.2-1.6l3.2-1.6l3.2-1.7l14.9-4.7l12.2-4.8
					l6.4,1.6l1.6,1.6l4.2,1.7h5l5.1-1.7l6.4-3.2l1.6-3.2l1.6-4.8v-2.1l1.6-1.1l1.6,3.2v3l3.2,1.8l4.8-1.6l12.7-4.8l6.4-1.6h3.2
					l4.8,1.6l1.6,3.2l1.6,3.2l4.8,3.2h17.5l6.4-1.6l8-1.6l4.8-3.2l1.6-3.2l1.6-3.2l-1.6-4.8l-4.8-4.8l-9.6-6.4l-3.2-3.2v-3.2
					l1.6-1.6h3.2l4.8,3.2l4.8,3.2l4.8,4.8l3.2,4.8l1.6,3.2l1.6,6.4v5.2l1.6,4.4h4.8l3.2-1.6v-7.1l-1.6-4.1l-3.2-6.4l-3.2-11.1V-819
					l1.6-1.6l1.6,1.6v3.2l1.6,3.2l1.6,1.6h3.2l4.8-3.2l3.2-1.6l1.6,3.2h4.8l4.8-1.6l3.2-1.6h3.2l9.6-1.6l6.4-3.2l6.4-4.8l3.2-4.8
					l3.2-4.8l4.3-5.8l9.8,5.9l5.9-2l3.9,3.9l5.9,2l7.8,7.8l7.8,5.9h3.9l9.8,7.8l9.8,7.8l5.9,5.9v5.7l3.9,8l5.8,5.8h7.8l3.9-3.9h2
					l2,5.8l7.8,3.9l3.9,2l5.9,3.9l5.8-2l2,5.9l11.7,5.9l11.7,11.7l7.6,5.8l2,9.8v9.5l2,13.9l5.8,19.5l7.8,21.5l9.8,19.5l7.8,7.8h5.5
					l0.3,11.7l3.9,7.8l-7.8,11.7l-7.8,9.8l-9.8-3.9h-9.8l-7.8-3.9h-9.8l-9.8,2l-3.9,3.9l2,9.8l5.9,9.8l11.7,7.8l5.9,3.9l2,5.8
					l-2,3.9l2,3.9l11.7,11.7l9.8,9.8l2,3.9l3.9,3.9h3.9l2,2l3.9,2l2,5.8l1.9,7.8l3.9,5.9l3.9,3.9l2,3.9l-3.9,3.9l-2,2l-3.9,2l-5,1
					l-4.8,0.9l-5.8,2h-4.3l-3.5,3.9l-3.9,5.9l-6.2,19.4l2,17.6l-3.9,25.4l2,5.9l3.9,5.9l5.9,5.9l7.8,11.7l7.8,3.9l7.8-7.8l7.8-9.8
					l2-9.8l2-5.9l9.8-7.8l3.9-5.9l2-13.7l2-13.7l1.9-9.8l3.9-9.8l2-7.8V-488l2-4l13.7-2l23.1,2l19.5,3.9l13.7,3.9l11.8,1.9l7.7,5.9
					v27.3l-2,5.9l2,5.9v7.8l-5.9,11.7l-3.9,5.8l-3.9,3.9v5.9l2,5.9v39l2,7.8l2,5v2.5l3.8,8.1v21.5l3.9,3.9l5.8,3.9l3.9,2l3.9,5.9
					v5.9l1.9,5.9l2,3.9v5.9l2,3.9v5.9l-2,2l-3.9,2l-3.9,2l-2,7.8l2,1.9v5.9l5.8,3.9l2,1.9l5.9,1.9l1.9,5.9l5.9,7.8l2,9.8l3.9,3.9
					v3.9l-2,7.8l-3.9,7.8l-2,9.8l3.9,1.9l7.8,7.8l7.8,5.9v9.8l-3.9,3.9v7.8l-1.9,5.9v15.6l-2,5.8l-3.9,7.8l-5.9,5.9l-7.8,1.9
					l-5.9,5.9l-2,5.8l-3.9,9.8l-3.9,9.8l-5.8,13.7l-3.9,2l-9.8,3.8l-3.9,3.9l-1.9,5.9l-2,5.5v14l2,3.9l3.9,5.9l7.8,2l3.9,2l3.9,5.7
					l1.9,9.9l2,7.8l-2,11.7l-1.9,10.9V51l1.9,11.7l2,14.2v19l3.9,7.8l3.9,7.8l1.9,7.8v17.6l-3.9,7.8l2,13.7l1.9,7.8l2,3.9l3.9,7.8
					l2,7.8l1.9,4.2v7.5l2,5.9l2,8.4v5.3l3.9,3.9h3.9l3.9-5.9l2-7.8l7.8-3.9l2-7.8l7.8-7.8l9.8-1.9l7.8-3.9h25.4l5.9-2h13.7l3.9,5.9
					l3.9,9.8l2,5.9l7.8,7.2v4.5l3.9,5.9h9.8l9.8-9.8l7.8-11.7l3.9-9.8v-11.7l-3.9-5.9l-3.9-11.7l2-7.8l2-13.7l3.9-15.6l3.9-13.7
					l3.9-9.8l5.8-13.7l3.4-13.7l5.9-19.5l3.9-17.6l3.9-3.9l5.9,2l5.9,3.9l5.8-2l3.9-5.9l7.8-11.7l3.9-19.6l2-13.7l3.9-15.6l3.9-13.7
					l3.9-9.8l5.8-5.9l7.8-9.8l5.9-3.9l3.9-5.9l3.9-3.9l5.8-3.9l5.9-3.9l3.9-2.6v-3.3l2-5.9l3.9-2l5.9-1.9l17.6-3.9l13.7-2l9.8-3.9
					l3.9-3.9l3.9-2h5.9l2,2l3.9,7.8c2.7,1.8,5.3,3.7,7.8,5.9c2,1.9,9.8,3.9,9.8,3.9l9.8,5.9l9.8,3.9l7.8,1.9l5.9,2l5.9,3.9l3.9,5.9
					l5.9,3.9l3.9,5.9l5.9,6.4v7.3c0,0,2,3.9,2,5.8s5.9,3.9,5.9,3.9l7.8,2l5.9,3.9l3.9,3.9l5.9,5.8l7.8,3.9l3.9,3.9v7.8l2,5.9
					l5.9,3.9l5.9,2h3.9l2,3.9l3.9,7.8l3.9,3.9l3.9,2l7.8,3.9l5.5,4.1l4.5,0.5l1.5-0.9l3.2-3.2l1.6-6.4v-8l-4.8-8l-3.2-8l1.6-11.1
					l8-9.6l1.6-17.9l5.9-13.7l7.8-7.8v-3.2L2120-81l-1.6-4.8l-4.8-4.8l-1.6-4.8l-6.4-8l-6.4-6.4l-11.1-6.3l-12.7-6.4l-11.1-4.6
					l-11.7-2l-5.9-5.9l-2-3.9v-7.8l-6-12.5l-7.7-10.9l-9.8-7.8l-7.8-13.7l-3.9-12.4v-54l2-20.7v-12.5l5.9-9.8l5.9-9.8l7.8-3.9
					l5.9-3.9l7.8-5.9l5.9-3.9h5.9l5.9,2l9.8-3.9l7.8-3.9l3.9-3.9l5.9-3.9l9.8-3.9l11.7-7.8l7.8-11.7l1.9-11.7v-13.7l-3.9-5.9
					l-5.9-5.9l-5.9-9.8l-15.6-9.8l-15.6-7.8l-13.7-5.9l-5.9-7.8l-2-15.6l2-15.6l1.7-6.2v-3.2h3.2l1.6,3.2v8l1.6,3.2l1.6,1.6h14.3
					l3.2-4.8l4.8-8l3.2-8l1.6-4.8l3.2-1.6v-1.6l-4.8-3.2l-3.2-3.2v-12.7l3.2-1.6h3.2l4.6-2.1l3.9-5.9l4.3-8v-8l-1.6-8l1.6-11.1v-4.7
					l1.6-4.8l1.6-1.6l8-3.2l8-3.2l7.9-4.1l7.8-9.8l17.6-15.6l7.8-7.8l11.7-7.8l9.8-11.7l17.5-21.5l17.6-19.5l15.6-17.6l11.7-11.7
					c2-2,13.7-9.8,13.7-9.8l9.8-5.8l15.6-5.9l21.5-3.9l12.2-2h77.6l5.9,7.8l5.9,3.9l5.9,5.8l5.9,3.9h1.9l1.9-3.9l7.8,5.9l5.9-2l2,2
					l13.6,11.8l11.7,7.8l7.2-0.2l6.5-1.7v3.9l-6.5,4.2l1.6,2.5l2.9-0.8l4.7-1.7h3.2l7.8,7.5l-2,3.9l-5.9,5.7v6l2,7.8l5.9,3.9
					l7.8,3.9l7.8,2v2l1.9,3.9l3.9,2l1.9,2l-3.9,3.9l-2,5.8v7.7l-3.8,3.9l1.9,2l5.9-2l7.8,5.8l3.9,5.9l5.9,9.8l3.9,2l9.8,3.9
					l11.7,5.8l7.8,3.9l1.9,5.8l3.9,7.8l5.9,5.9l4.9,3.9h6.8l-3.9,3.4v2.4l3.9,2v3.9l7.8,5.8l9.8,7.8l7.8,11.7l3.9,5.9l5.9,5.9v5.9
					l1.9,5.9l-2.3,3.1l-1.6,1.6l-3.2,3.2l-4.8,3.2l-3.2,1.6l-3.2,3.2l-1.6,4.8l1.6,1.6l1.6,3.2l3.2,3.2l1.6,1.6v3.2l1.6,1.6v3.2
					l1.6,1.6l3.2,1.6l5.4,2l-0.6,1.1l-4.8,3.2l-4.8,3.2v1.6l1.6,1.6h4.8l-1.6,4.8l1.6,3.2l-3.2,6.4l-3.2,4.8h-3.2l-1.6,1.6v3.2
					l1.6,3.2l1.6,4.8l1.6,4.8l1.6,4.8v6.4l-3.2,4.8l-6.4,3.2l-4.8,3.2l-1.6,3.7v5.8l1.6,4.8l3.2,1.6l3.2,6.4v3.2l-1.6,6.4l-3.2,2.4
					v2.3l3.2,1.6l4.8,6.4l1.6,4.8l3.2,4.8l3.2,6.4l3.2,1.6l4.8,3.2l1.6,3.2l1.6,1.6h6.4l3.2,1.6l1.6,3.2l3.2,4.8l3.2,1.6l8,3.2
					l4.8,1.6l4.8,4.8l3.2,6.4l4.8,1.6l3.2,3.2h1.6l1.6-1.6l4.8-3.2h3.2l4.8,1.6l4.8,1.6h9.6l3.2,1.6l1.6,3.2l1.6,3.2l6.4,4.8
					l3.2,1.6l3.2,1.6l3.2,3.2l3.2,1.6l4.8,3.2l6.4,1.6l4.8,1.6h4.8l3.2-1.6h11.1l6.4,1.6l8,4.8l4.8,1.6l4.8,3.2l4.8,4.8l3.2,6.4
					l3.2,4.8l3.2,3.2l4.8,3.2l6.4,3.2h1.6l3.2-1.6l3.2-6v-6.7l1.6-1.6h4.8l4.8-1.6l4.8-1.6h1.5l1.6,1.6l19.1,25.5l8,11.1l1.6,3.2
					l4.8,3.2l6.4,3.2l4.8,3.2l6.4,4.8l6.4,3.2l3.2,1.6h3.2l4.8-1.6h3.2l6.4,1.6h9.6l3.2-4.8v-9.6l-1.6-11.1l1.6-6.4v-3.2l-1.6-12.7
					V-237l1.6-4.8h1.6l4.8,8l9.6,11.1l8,8l3.2,4.8l6.4,3.2l3.1,4.7v4.8l4.8,3.2l6.4,1.6l6.4,1.6l6.4,3.2l6.4,1.6l3.2-1.6l4.8-3.2
					h3.2v1.6l-1.6,1.6l-6.4,8l-6.4,8l-9.6,6.4l-8,4.8l-14.3,9.5l-6.4,6.4l-1.6,9.6l-3.2,6.4l-6.4,1.6h-8l-8,1.6l-3.2,1.6l-4.8,6.4
					l-4.8,6.4l-3.2,4.8l1.6,4.8l-1.6,9.6l-1.6,6.4l-1.6,6.4l-3.2,4.8l-3.2,3.2l1.6,1.6l1.6,3.2l1.6,3.2l-3.2,1.6h-6.4l-9.6,1.6
					l-7.1,3.2l-4.1,3.2l-4.7,7.8v24l8,11.1l3.2,7.6l1.6,9.9l-1.6,6.5v8.3l1.6,5.9V32l-1.6,4.2v7l1.6,3.2l9.6,11.6v2.8l3.2,3.2
					l3.2,3.2l3.2,6.4l6.4,15.9l4.8,12.7l4.8,9.6l6.4,8l6.4,4.8l12.7,6.4l11.1,6.4h19.1l4.8,1.6l8,3.2h6.4l4.8-1.6h4.8l3.2,1.6h25.5
					l6.4-3.2h6.4l4.8-3.2l4.8-1.6l4.8-3.2l3.2-1.6h6.4l4.8-3.2h3.2l4.8,1.6h9.6l8-3.2h3.2l9.6,1.6h6.4l1.6,1.6l-1.6,1.6l-3.2,4.8
					l-3.2,4.8v3.2l-3.2,1.6l-4.8,3.2l-1.6,3.2l1.6,9.6l3.2,8l3.2,8l3.2,4.8l1.6,14.3l-3.2,1.6h-8l-6.4,3.2h-4.8l-3.2-1.6l-8-3.2
					h-4.8l-6.4,1.4l-8,3.2l-1.6,3.2v3.2l1.6,6.4l1.6,11.1l-1.6,3.2h-3.2l-4.8-3.2l-3.2-1.6l-3.2-3.2l-4.8-1.6l-4.8-3.2l-4.8-1.6
					h-4.8l-3.2,1.6l-1.6,4.8l-1.6,6.4l1.6,4.8l4.8,6.4l11.1,9.6l12.7,9.6l4.8,1.6l6.4,1.6l3.2,1.6l4.8,8l-1.6,0.8v2.4l1.6,1.6
					l12.7,11.1l11.1,8h6.4l6.4-3.2l6.4-1.6l6.5-4.8l9.6-1.6l9.6-4.8l6.4-1.6l6.4-1.6l4.8-3.2h1.6v4.7l-1.6,3.2l-3.2,8l-1.6,6.4
					l-4.9,14.3l-1.6,8l-3.2,8l-8,9.5l-12.7,17.5l-6.4,9.5l-3.2,8l-3.2,3.2l-4.8,6.4v1.6l-3.2,8l-1.6,3.2l1.6,1.6l1.6,1.6l3.2,1.6
					l4.8,3.2l4.8,1.6l3.2,1.6h8l11.1,8l4.8,4.8l4.8,3.2l3.2,1.6l3.2,1.6h9.6l6.4,3.2l1.6,2.7v2.1l3.2,3.2l1.6,1.6h3.2l3.2-1.6h3.2
					l6.4,1.6h15.9l3.2,1.6l6.4,4.8l8,3.2l3.9,1.6h10.4l3.2-1.6l6.4-1.6l4.8-1.6l1.6-3.2l8-15.9l3.2-3.2l14.3-17.5l3.2-5.9v-10.3
					l1.6-1.6l1.6,1.6l1.6,1.6h3.2l1.6-1.6l3.2-3.2v-4.8l-3.2-3.2l-4.8-3.8v-4.2l4.3-1.6h3.7l4.7-3.2h3.2l4.8-1.6l4.8-4.8l1.6-4.8
					l3.2-1.6l4.8-1.6l4.8-1.6l1.6-4.8l1.6-4.8l1.6-3.2l3.2-4.8l3.2-4.8l3.2-3.2l4.8-1.6l4.8-3.2l3.2-4.8l1.6-4.8v-6.4l1.6-6.4
					l1.6-4.8h1.5l2.5,1.6h2.2l1.6-3.2l4.8-1.6h4.8l3.2-1.6l11.1-8l4.8-6.4l14.3-15.9v-8l2.6-6.4l2.2-3.2l3.2,1.6l-0.1,1.6h3.3
					l3.2-3.2l8-9.6l1.6-3.2l-1.6-4.8v-12.7l3.2-3.2l3.2-1.6l4.8-1.6l1.6,1.6l1.6,3.2l3.2-1.6l14.3-15.9l1.6-3.2v-3.2l1.6-3.2l2-3.2
					l4.4-4.8l6.4-3.2h4.8l1.6,1.6l1.6,1.6l1.6,3.2l1.6,1.6l3.2-1.6l4.8-4.8l3.2-12.7l1.6-12.7l1.6-3.2v-3.2l-1.6-3.2l-3.2-6.4
					l1.6-4.8l1.6-9.6V89.3l3.2-3.2l1.5-3.2v-6.4l1.6-9.6l-1.6-6.4l-1.6-4.8l-4.8-3.2l-4.8-1.6l-4.8-1.6l-5.4-1.5h-5.7l-6.4-4.8
					l-6.4-4.8l-8-4.8l-1.6-4.8l-1.6-8l-1.6-9.6V8.1l3.2-6.4l1.6-6.4l1.6-1.6l1.6-1.6l3.2-3.2v-3.2l-1.6-1.6l-4.8-1.6h-3.2l-3.2,1.6
					l-3.2,1.6h-3.2l-3.2-1.6l-1.6-1.6h-4.7l-1.6,1.6l-8,6.4h-4.8l-3.2,1.6l-5.3,1.6h-7.5l-1.6-1.6l-3.2-4.8v-3.2l4.8-12.7l3.2-4.8
					l8-9.6l4.8-3.2l3.2-3.2l1.6-4.8v-3.2l1.6-1.6l3.2-3.2l1.6-3.2l1.6-4.8l3.2-3.2l6.4-4.8l3.4-3.2h9.4l8-4.8l9.6-6.4l11.1-8l8-6.4
					l3.2-6.4l3.2-6.4l4.8-3.2l3.2-4.8l4.8-8l4.8-4.8l1.6-4.8l1.6-8l1.6-8l3.2-11.1l1.6-6.4l3.2-3.2l4.8-6.4l1.6-8l3.2-8l6.4-4.8
					l1.6-4.8l6.4-9.6l1.6-6.4l3.2-9.6l1.6-11.1l1.6-3.2l4.8-4.8h1.6l2.4,1.6h2.4l1.6-1.6l4.8-6.4v-8l-1.6-4.8l-1.6-4.8l-0.8-3.2
					l-2.4-1.6l-1.6,1.6h-4.8l-3.2-1.6l-4.8-4.8v-4.8l-3.2-4.8l-1.6-4.8v-4.8l-1.6-4.8l-3.2-4.8l-3.2-6.4v-3.2l3.2-8v-4.8l-3.2-4.8
					l-1.6-3.2v-9.5l1.6-3.2v-2.9l-3.2-3.2l-1.6-4.8l-1.6-15.9l-1.7-11.1v-3.2l-1.6-4.8l-1.6-3.2l-1.6-1.6l-1.6-1.6l-1.6-1.6h-3.2
					l-1.6-1.6l-1.6-1.6v-3.2l-1.6-1.6l-3.2-1.6l-6.4-1.6l-3.2-1.6l-8-3.2h-3.2l-8-3.2h-8l-11-3.2l-8-3.2l-4.8-6.4l-3.2-6.4l-1.6-3.2
					l-1.6-3.2l-3.2-1.6h-4.8l-4.8,1.6l-4.8,1.6l-3.2,3.2l-1.6,1.6l-3.2,1.6h-1.6l-1.6-1.6l-1.6-1.6l-1.6-1.6v-4.8l1.6-4.8l1.6-4.8
					l1.6-3.2l1.6-3.2l3.2-3.2v-9.5l-3.2-4.8l-1.6-3.2v-3.2l-1.6-1.6h-4.8l-1.6-1.6l-1.6-1.3v-3.5l1.6-3.2l1.6-3.2l3.2-3.7v-2.7
					l1.6-1.6l8-8l3.2-1.6l1.6-1.6l3.2-1.6h3.2l1.6,1.6l1.6,1.6l3.2,1.6l3.2,3.2l3.2,1.6h8l3.2-1.6h3.2l1.6-3.2l1.6-4.8l1.6-4.8
					l6.4-1.6h3.2l3.2-3.2l4.8-1.6h4.8l3.2-1.6l3.2-3.2h8l3.2-1.6l3.2-1.6h6.4l3.2,1.6l1.6,1.6l9.4,4.8h19.2l4.8,1.6l3.2,1.6l3.2,1.6
					l1.6,1.6l3.2,4.8l1.6,1.6l1.6,1.6l1.6,1.6l3.2,1.6l4.8,1.6l4.8,1.6h8l2.4,0.8l1.6,1.6l1.6,1.6l1.6,1.6l1.6,3.2l1.6,3.2l1.6,4.8
					l1.6,3.2v4.8l1.6,8v1.6l3.2,3.2l1.6,3.7v4.3l1.6,6.4l1.6,4.8l4.8,9.5l3.3,5.6l3,4l1.6,1.6l22.3,20.7l3.2,3.2l1.6,1.6l1.6,3.2
					l1.6,2.3v2.5l1.6,1.6l1.6,1.6v3.2l-0.8,2.1v3.4l1.6,3.2l1.6,3.1v25.5l-1.6,3v3.3l3.2,3.2l3.2,4.8l3.2,4.8l3.2,4.8l1.6,4.8
					l3.2,3.2l6.4,1.9v4.5l4.8,1.6l9.6,3.2l8,3.2l12.6,4.8h65.4v-698h-3216V-1021z"/>
			</g>
		</g>
	</g>
</g>
<g>
	<g>
		<defs>
			<polygon id="SVGID_7_" points="3839.7,1080.2 -0.3,1080.2 -0.3,0.2 243,0.2 3839.7,0.2 			"/>
		</defs>
		<clipPath id="SVGID_8_">
			<use xlink:href="#SVGID_7_"  style="overflow:visible;"/>
		</clipPath>
		<g class="st73">
			<g id="KLN_2019" class="st74">
				<line class="st2" x1="1715.5" y1="259.3" x2="1719.5" y2="259"/>
				<polyline class="st2" points="1726.7,258.5 1730.7,258.2 1728.1,261.2 				"/>
				<polyline class="st2" points="1720.4,270.3 1717.8,273.4 1717.5,273.4 1717.5,273.6 1717.2,273.6 1716.9,273.6 1716.9,273.9 
					1716.7,273.9 1716.4,270 				"/>
				<line class="st2" x1="1715.8" y1="263.3" x2="1715.5" y2="259.3"/>
				<line class="st2" x1="1714.7" y1="269.6" x2="1710.7" y2="270"/>
				<line class="st75" x1="1704.2" y1="270.5" x2="1694.4" y2="271.3"/>
				<polyline class="st2" points="1691.1,271.6 1687.2,271.9 1686.9,267.9 				"/>
				<polyline class="st2" points="1686.4,261.6 1686,257.6 1682.6,257.9 1682.6,259 1680.7,261.2 				"/>
				<polyline class="st2" points="1677.1,265.4 1674.6,268.5 1677.6,271.1 				"/>
				<polyline class="st39" points="1682.9,275.8 1683.1,275.9 1683.4,275.9 1683.7,276.2 1684,276.2 1684.3,276.2 1684.9,276.2 
					1707.4,274.5 				"/>
				<polyline class="st2" points="1711,274.2 1714.9,273.9 1714.7,269.6 				"/>
				<line class="st2" x1="3031.6" y1="204.5" x2="3031.8" y2="208.5"/>
				<polyline class="st76" points="3032,217.6 3032.3,224.7 3031,249.4 				"/>
				<polyline class="st2" points="3030.8,253.9 3030.6,257.9 3033.4,260.8 				"/>
				<polyline class="st56" points="3039.3,266.7 3080.4,308.6 3089.9,317.9 3118.1,346.8 				"/>
				<polyline class="st2" points="3121,349.8 3121.4,350.2 3122,350.5 3122.6,350.8 3123.2,350.8 3123.5,350.8 3124,350.8 
					3124.3,350.5 3124.6,350.5 3124.9,350.2 3125.2,349.9 3125.5,349.6 3125.8,349.1 3126,348.8 3126,348.2 3126,347.6 3126,347.4 
					3125.8,346.8 3125.5,346.5 3124.9,345.9 3124.9,345.6 3122.3,342.9 				"/>
				<line class="st77" x1="3118.3" y1="338.7" x2="3112.3" y2="332.4"/>
				<polyline class="st2" points="3110.3,330.3 3108,327.9 3107.4,327.6 3108.3,326.7 3110.3,324.8 				"/>
				<line class="st78" x1="3115.4" y1="320" x2="3133.2" y2="303"/>
				<polyline class="st2" points="3135.8,300.5 3138.6,297.8 3141.4,300.7 				"/>
				<line class="st79" x1="3145.3" y1="304.7" x2="3151.1" y2="310.7"/>
				<line class="st2" x1="3153" y1="312.7" x2="3155.8" y2="315.5"/>
				<polyline class="st2" points="3031.3,204.5 3031.6,204.5 3034.9,202.8 				"/>
				<polyline class="st2" points="3042.7,198.6 3045.4,197.1 3046.2,196.8 3046.2,197.1 3048,200.4 				"/>
				<polyline class="st2" points="3049.2,202.7 3051.1,206.2 3054.7,204.4 				"/>
				<polyline class="st2" points="3055.6,204 3059.1,202.2 3057.3,198.7 				"/>
				<polyline class="st2" points="3056,196.1 3054.3,192.8 3054.3,192.5 3057.8,190.7 				"/>
				<polyline class="st7" points="3063.5,187.8 3067.7,185.6 3071.4,183.6 3082.9,177.6 3083.1,177.5 				"/>
				<polyline class="st2" points="3085.9,176.1 3089.4,174.2 3087.5,170.8 				"/>
				<polyline class="st80" points="3083.6,163.9 3078.2,154.4 3075.1,153.4 3072.2,154.6 3070.4,155.1 3063.5,155.5 3061.2,155.6 
					3058,155.7 3052.2,156.5 3049.9,157.8 3047.6,157.6 3043.5,158.8 3042.3,159.6 3041.1,160.4 3037.9,161 3037,161.2 
					3033.8,161.9 3032.9,162.1 3031.8,162 3027.5,161.8 3026.4,161.4 3024.4,160.7 3021.6,159.6 3018.2,158.6 3015.6,158.7 
					2996,160 2993.4,160.1 2985.4,160.4 2979.6,160.6 2973.1,159.9 2965.4,158.3 2958.4,155.8 2952.5,153.4 2945.3,149.2 
					2939.6,144.8 2932,137.5 2926.4,130.5 2897.9,78.3 2869.9,62.9 2849.8,51.7 2846.1,49.4 2795.6,-10.7 				"/>
				<polyline class="st81" points="2634.2,-45 2636.9,-42 2670.4,-9.3 2671.6,-7.3 2672.2,-5.6 2671.6,-2.4 2670.2,0.4 2640.1,31.9 
					2636.1,32.2 2634.1,32.2 2632.1,31.6 2630.1,30.2 2523.8,-72.3 2520.1,-75.8 2487.1,-107.5 				"/>
				<polyline class="st82" points="2140.5,-31.1 2129.3,18.4 2130.1,22.4 2134.2,35.7 				"/>
				<polyline class="st2" points="2135.2,39.1 2136.1,42.1 2136.1,42.4 2136.1,42.7 2136.1,43 2135.9,43 2134.4,44.1 2132.9,45.2 
									"/>
				<polyline class="st83" points="2125.4,50.7 2103.8,66.2 2098.6,66.8 2097.9,66.4 				"/>
				<polyline class="st2" points="2093.6,64.4 2090,62.8 2088.4,66.4 				"/>
				<polyline class="st84" points="2086.6,70.5 2084.9,74.2 2082.5,75.3 				"/>
				<polyline class="st2" points="2080.5,76.3 2076.9,77.9 2078.3,81.4 2078.3,81.7 2078.3,81.9 2078,81.9 2078,82.2 2074.3,83.8 
									"/>
				<polyline class="st2" points="2070.2,85.6 2067.4,86.8 2067.1,87.1 2066.8,87.1 2066.5,87.1 2066.5,86.8 2066.3,86.5 
					2064.8,83.4 2061.1,85 				"/>
				<polyline class="st2" points="2053.2,88.5 2049.6,90.3 2050.2,92 2050.2,94 2050.3,94.2 				"/>
				<polyline class="st2" points="2053.8,102.1 2055.4,105.4 2055.4,105.7 2055.1,106 2051.4,107.7 2051.1,108 2050.8,108 
					2050.5,107.7 2050.2,107.4 2049,104.8 				"/>
				<polyline class="st2" points="2045.1,96.3 2045.1,96.3 2043.6,94.8 2042.8,93.1 2039.6,94.8 2039.2,95 				"/>
				<line class="st5" x1="2031.5" y1="98.4" x2="1942.6" y2="137.9"/>
				<polyline class="st2" points="1938.7,139.6 1935,141.3 1933.4,137.6 				"/>
				<line class="st85" x1="1931.5" y1="133.4" x2="1928.7" y2="127.2"/>
				<polyline class="st2" points="1927.8,125.1 1926.2,121.5 1922.2,121.5 				"/>
				<polyline class="st2" points="1912.7,121.5 1908.7,121.5 1908.7,125.5 				"/>
				<line class="st41" x1="1908.8" y1="132.8" x2="1908.9" y2="158.5"/>
				<polyline class="st2" points="1908.9,162.2 1909,166.2 1905.5,168.2 				"/>
				<line class="st57" x1="1901.7" y1="170.4" x2="1896" y2="173.7"/>
				<polyline class="st2" points="1894.1,174.8 1890.6,176.8 1888.6,173.3 				"/>
				<polyline class="st2" points="1887.2,170.8 1885.2,167.3 1888.6,165.3 				"/>
				<polyline class="st2" points="1894.9,161.6 1898.4,159.6 1898.4,155.6 				"/>
				<line class="st86" x1="1898.4" y1="145.9" x2="1898.4" y2="131.5"/>
				<polyline class="st2" points="1898.4,126.6 1898.4,122.6 1896.1,125.9 				"/>
				<polyline class="st46" points="1889.5,129.8 1885.2,130.4 1878.1,130.4 1869.2,131.5 1862,134.3 				"/>
				<polyline class="st2" points="1858.2,135.5 1854.3,136.1 1854,135.8 1853.4,133.8 1852.5,133.8 1851.1,135.2 1847.9,138.1 
					1847.9,137.8 1845,140.5 				"/>
				<polyline class="st87" points="1839.1,145.6 1832.5,151.6 1804.7,176.5 1801.5,179.4 1788.1,191.4 1780.1,198.6 1774,204 
					1764.3,216.3 1763.7,216.9 1763.4,217.5 1763.2,218 1762.9,218.6 1762.3,219.5 1762,220.6 1761.4,222.3 1755.7,238.7 
					1755.1,239.8 1754.8,240.9 1754,242.4 1753.4,243.5 1752.8,244.7 1751.7,246.1 1751.1,247.3 1750.3,248.1 1749.4,249 
					1747.4,251.6 1724.5,278.2 1711.1,279.6 1690.8,281.3 1680.5,282.2 1679.9,282.2 1679.3,282.2 1678.8,282.2 1678.2,281.9 
					1677.6,281.6 1677.1,281.3 1676.5,281.1 1668.2,273.9 1659.7,274.5 				"/>
				<polyline class="st2" points="1655.8,274.8 1651.8,275 1651.8,275.3 1646.1,275.9 1646.1,275.6 1642.1,275.9 				"/>
				<line class="st88" x1="1637.8" y1="276.3" x2="1631.2" y2="276.8"/>
				<polyline class="st2" points="1629,277 1628.1,277 1626.1,279.3 1624.6,279.3 1622.1,279.5 				"/>
				<polyline class="st89" points="1614.5,280.1 1595.7,281.6 1594.3,280.8 1592.7,275.1 				"/>
				<polyline class="st2" points="1591.6,271.4 1590.5,267.6 1590,267.6 1588.8,267.3 1587.7,267 1586.8,266.7 1586.2,266.4 
					1583.9,269.3 1583.6,269.4 				"/>
				<polyline class="st2" points="1578.1,273 1575.6,276.2 1575.3,275.9 1574.8,277 1573.1,279.1 				"/>
				<polyline class="st2" points="1569.5,278 1571.9,274.8 1572.2,275 1572.8,273.9 1574.5,271.8 				"/>
				<polyline class="st2" points="1575.9,270 1577.1,268.5 1577.6,266.4 1577.1,265.9 1576.2,265.3 1575.3,264.1 1574.9,263.6 				
					"/>
				<polyline class="st2" points="1572.4,260.6 1569.9,257.6 1568.5,258.4 1567,260.2 				"/>
				<polyline class="st2" points="1566.4,261 1563.9,264.1 1563.9,263.9 1563,265 1563.3,265 1561.3,267.6 1560.7,268.5 
					1560.4,268.7 1559.9,268.7 1559.6,269 1559,268.7 1558.7,268.7 1558.2,268.5 1557.9,268.2 1557.6,267.6 1557.6,266.7 
					1557.8,266.3 				"/>
				<polyline class="st2" points="1557.9,265.8 1560.4,262.7 1560.4,263 1561.3,261.9 1561,261.9 1563.5,258.7 				"/>
				<polyline class="st2" points="1568.4,252 1571.6,249.5 1570.8,245.6 				"/>
				<polyline class="st2" points="1569,237.1 1568.2,233.2 1564.3,234 				"/>
				<line class="st40" x1="1556.1" y1="235.7" x2="1494.6" y2="248.6"/>
				<polyline class="st2" points="1490.5,249.4 1487.1,250.1 1486.8,250.1 1486.5,250.1 1486.5,249.8 1486.5,249.5 1485.8,246.2 
									"/>
				<polyline class="st2" points="1483.8,237.6 1483.1,234.6 1483.1,234.4 1483.4,234.1 1483.4,233.8 1484,233.8 1487.3,233.1 				
					"/>
				<line class="st90" x1="1495.1" y1="231.4" x2="1553.2" y2="219.1"/>
				<polyline class="st2" points="1557.1,218.3 1561,217.5 1561,217.2 1560.2,217.5 1559.3,217.5 1558.4,217.2 1557.9,216.9 
					1557.3,216.5 				"/>
				<polyline class="st2" points="1560.1,209.4 1560.4,209.4 1561.3,209.7 1562.2,210.3 1563,210.9 1563.3,211.4 1563.6,211.1 
					1562.8,207.2 				"/>
				<line class="st91" x1="1560.8" y1="198.2" x2="1557.9" y2="184.6"/>
				<polyline class="st2" points="1557,180.1 1556.2,176.2 1552.2,177 				"/>
				<polyline class="st92" points="1545.4,178.4 1537,180.2 1521.4,183.4 				"/>
				<polyline class="st2" points="1518.1,184.2 1517.8,184.2 1517.5,184.2 1517.2,183.9 1516.9,183.4 1516.6,181.9 1516.6,181.6 
					1516.9,181.1 1517.2,181.1 1517.5,180.8 1520.7,180.1 				"/>
				<line class="st93" x1="1528.7" y1="178.4" x2="1540.5" y2="175.9"/>
				<polyline class="st2" points="1544.5,175 1548.4,174.2 1547.3,169.3 1554.4,167.9 1553.7,164 				"/>
				<polyline class="st2" points="1552.6,158.6 1551.9,154.7 1547.9,155.6 				"/>
				<line class="st94" x1="1540.1" y1="157.2" x2="1512.7" y2="163.1"/>
				<polyline class="st2" points="1508.8,163.9 1504.9,164.7 1503.7,159 1507.7,158.2 				"/>
				<line class="st95" x1="1515.4" y1="156.6" x2="1542.6" y2="150.9"/>
				<polyline class="st2" points="1546.5,150.1 1550.4,149.3 1550.4,149 1549.7,145.4 				"/>
				<line class="st96" x1="1548.9" y1="141.4" x2="1547.6" y2="135.4"/>
				<polyline class="st2" points="1547.2,133.4 1546.4,129.5 1544.7,129.8 1544.4,130.4 1540.7,131.2 1540.4,130.9 1537.5,131.5 
					1536.5,131.7 				"/>
				<polyline class="st97" points="1529.5,133.2 1507.7,137.8 1502.3,139 1494.3,140.7 1491.3,141.3 				"/>
				<polyline class="st2" points="1487.9,141.1 1487.7,141 1487.1,140.1 1486.8,139.5 1486.8,139 1486.8,138.4 1487.1,137.8 
					1487.1,137.5 1487.7,136.9 1488,136.7 1488.6,136.1 1490.5,135.7 				"/>
				<polyline class="st98" points="1500.5,133.5 1504.6,132.7 1515.7,130.4 				"/>
				<polyline class="st2" points="1520.7,129.4 1524.6,128.6 1524.6,128.4 1528.6,127.5 				"/>
				<polyline class="st2" points="1531.1,126.9 1535,126.1 1535.2,125.5 1534.4,121.2 1539.5,120.1 1538.7,116.6 1534.8,117.5 				
					"/>
				<polyline class="st2" points="1534.3,117.6 1530.9,118.3 1530.4,118.3 1530.1,118.1 1529.8,117.8 1529.8,117.5 1530.1,117.2 
					1530.4,116.9 1533.2,116.3 				"/>
				<polyline class="st2" points="1534.5,116 1538.4,115.2 1537.8,112.6 1539.8,112.3 1539.6,108.3 				"/>
				<polyline class="st20" points="1539,99.3 1538.4,88.8 1538.1,88.3 1537.5,88 1529.5,88.8 1522.6,89.4 1521.2,89.7 1520.3,90 
					1518.2,91.4 				"/>
				<polyline class="st2" points="1514.5,94 1511.2,96.3 1509.8,94.6 1513,92.3 				"/>
				<polyline class="st2" points="1516.8,89.7 1520.1,87.4 1516.2,88.3 				"/>
				<polyline class="st31" points="1508.4,89.8 1468.8,95.1 1445.3,98.3 1426.4,100.3 1383,106.4 1355.8,116.7 1353.8,118.7 
					1351.2,121 1348.6,123.3 1344.9,126.8 1340.3,132.2 1335.2,143.1 1333.7,144.2 1331.7,144.5 1325.1,144.2 1289.3,144.5 
					1282.2,144.2 1276.1,144.8 1272.1,144.2 1263.8,137.9 1258.4,132.8 1252.4,125 1250.6,121 1250.6,90.7 1250.4,86.7 1250.6,83.2 
					1250.4,75.5 1250.6,69.5 1250.9,64.6 1252.1,59.4 1255.2,52.6 1256.4,50.8 1257.4,49.3 				"/>
				<polyline class="st2" points="1259.8,46.2 1261.8,44.3 1262.7,43.4 1262.7,40 1262.7,39.4 				"/>
				<polyline class="st99" points="1262.7,31.9 1262.7,31.6 1263,29.9 1262.7,20.5 1262.7,13.9 1262.7,10.7 1262.1,8.2 1260.7,5 
					1258.7,2.7 1256.1,0.4 1251.8,-1.3 1250.3,-1.3 1248.3,-1.3 1246.6,-1.9 1246.1,-2.4 1245.8,-3.3 1245.8,-4.2 1246.1,-5 
					1246.6,-5.3 1247.5,-5.6 1249.8,-5.3 1251.5,-5 1254.7,-4.2 1257.5,-2.7 1260.4,-0.2 1262.7,2.4 1263.8,4.4 1265.3,7.9 
					1265.8,10.4 1266.1,13 1266.1,21.6 				"/>
				<polyline class="st2" points="1266.1,25.4 1266.1,29.4 1270.1,29.3 				"/>
				<line class="st100" x1="1278.3" y1="29.3" x2="1306.8" y2="29.1"/>
				<polyline class="st2" points="1310.8,29.1 1314.8,29.1 1317.1,25.8 				"/>
				<polyline class="st101" points="1321.6,19.3 1376.4,-58.9 1376.1,-264.9 1366.9,-289.2 				"/>
				<line class="st2" x1="1515.2" y1="116.9" x2="1514.6" y2="112.9"/>
				<polyline class="st2" points="1514,108.3 1513.4,104.3 1514.9,104 1515.5,108 				"/>
				<polyline class="st2" points="1516.3,112.9 1516.9,116.9 1515.1,116.9 				"/>
				<line class="st2" x1="3515.6" y1="90.5" x2="3519.6" y2="90.3"/>
				<path class="st102" d="M3526.2,88.7l3.3-1.4h6.7"/>
				<path class="st2" d="M3539.6,87.3h4l2.8-2.8"/>
				<polyline class="st2" points="3548.2,82.6 3551,79.8 3555,79.8 				"/>
				<line class="st61" x1="3562.6" y1="79.8" x2="3589.4" y2="79.8"/>
				<polyline class="st2" points="3593.2,79.8 3597.2,79.8 3597.6,75.8 				"/>
				<polyline class="st2" points="3604.4,69.5 3608.4,69.5 3610.6,72.8 				"/>
				<polyline class="st2" points="3610.9,76.3 3610.9,80.3 3614.9,80.1 				"/>
				<polyline class="st2" points="3618.1,80 3622.1,79.8 3623.1,82.6 3630.6,81.7 3631.5,79.8 3633.2,79 				"/>
				<path class="st89" d="M3640.7,78.6c2.2,0.1,4.5,0,6.7-0.2c1.9-0.5,15.9-1.4,15.9-1.4l7.5-5.6l6.6-10.3l8.3-14.4l7.6-17.4
					l10.3-19.6"/>
				<polyline class="st2" points="3705.7,6.6 3708,3.3 3711.7,5 				"/>
				<polyline class="st2" points="3719.5,8.7 3723.1,10.4 3721.5,14.1 				"/>
				<polyline class="st87" points="3718.2,21.1 3697.5,63 3681.5,90.5 3677.9,109.7 3682,140.3 3686,157.8 3699.5,174.4 
					3715.6,183.9 3727.2,186.8 				"/>
				<polyline class="st2" points="3730.2,189.3 3733.1,192 3733.1,196 				"/>
				<line class="st103" x1="3733.1" y1="203.8" x2="3733.1" y2="262.8"/>
				<polyline class="st2" points="3733.1,266.7 3733.1,270.7 3737.1,270.7 				"/>
				<line class="st104" x1="3744.7" y1="270.7" x2="3831.9" y2="270.7"/>
				<line class="st2" x1="3835.7" y1="270.7" x2="3839.7" y2="270.7"/>
			</g>
		</g>
	</g>
</g>
</svg>
