<?xml version="1.0" encoding="utf-8"?>
<!-- Generator: Adobe Illustrator 23.0.3, SVG Export Plug-In . SVG Version: 6.00 Build 0)  -->
<svg width="3840" height="1080" version="1.1" id="Layer_2" xmlns="http://www.w3.org/2000/svg" xmlns:xlink="http://www.w3.org/1999/xlink" x="0px" y="0px"
	 viewBox="0 0 3840 1080" style="enable-background:new 0 0 3840 1080;" xml:space="preserve">
<style type="text/css">
	.st0{fill:#70CCB8;}
</style>
<g>
	<polygon class="st0" points="885,324.8 880.3,326.1 882.5,334 887.2,332.7 	"/>
	<path class="st0" d="M1890.2,450.2L1890.2,450.2c0.2,0,0.5,0,0.7-0.1l102.4-30.9c1.3-0.4,2-1.7,1.6-3c-0.4-1.3-1.7-2-3-1.6
		l-102.4,30.9c-1.3,0.4-2,1.8-1.6,3C1888.3,449.5,1889.2,450.2,1890.2,450.2z"/>
	<polygon class="st0" points="3037,473.1 3035.6,472 3032.7,470 3030.7,468.5 3024.9,465.3 3017.6,461.9 2964.8,438.6 2956.7,435.2 
		2953.5,433.7 2950.9,432.8 2944.8,431.1 2941,430.5 2938.1,430.2 2928.2,430.2 2926.2,430.5 2924.8,430.2 2923.3,429.9 
		2922.2,429.6 2921.3,429.1 2920.4,428.8 2919.3,428.2 2917.3,427.3 2915.3,426.5 2913.8,426.2 2912.6,426.2 2912.1,426.7 
		2911.8,427.6 2911.5,428.2 2911.5,428.8 2912.1,429.6 2912.3,430.5 2913.4,430.8 2915.8,431.7 2917.2,432.3 2918.7,433.1 
		2919.8,433.7 2921,434 2922.2,434.3 2925.6,434.9 2926.8,434.6 2929.4,434.6 2931.7,434.3 2937.5,434.3 2940.4,434.6 2943.6,435.2 
		2948.6,436.3 2954.1,438.1 2976.1,447.9 2991.2,454.3 3023.4,468.8 3029.2,472.3 3033.6,475.5 3036.2,477.5 3038.2,479.5 
		3039.4,480.7 3041.4,483 3044.3,480.4 3040.5,476.3 	"/>
	<polygon class="st0" points="742.6,1078.8 737.7,1070.8 730.5,1062.7 728,1061.1 720,1062.7 716.7,1059.4 715.1,1056.2 715.1,1053 
		718.4,1044.9 716.7,1041.7 708.7,1035.2 707,1033.6 708.7,1032 711.9,1030.4 711.9,1028.8 713.5,1025.5 716.7,1022.3 716.7,1019.1 
		711.9,1015.8 707,1011 705.4,1007.8 700.6,1006.2 699,1004.5 697.3,1001.3 695.7,998.1 690.9,994.8 687.7,991.6 684.4,991.6 
		682.8,994.8 681.2,997.1 681.2,999.7 679.6,1002.9 678,1004.8 678,1012.6 674.7,1014.2 668.3,1014.2 666.7,1015.8 665.1,1019.1 
		665.1,1022.3 663.4,1025.5 660.2,1027.2 658.6,1027.2 655.4,1028.8 652.1,1033.6 650.5,1036.8 648.9,1035.2 648.9,1032 
		645.7,1028.8 640.8,1027.2 634.4,1027.2 632.7,1025.5 627.9,1023.9 626.3,1022.3 621.4,1020.7 618.2,1017.5 611.7,1015.8 
		606.9,1011 605.7,1006.1 605.4,1006.2 606.3,1016 606.9,1017.7 608.9,1018.6 613.2,1020.1 617.9,1021.8 621.3,1025.8 622.5,1026.4 
		624.2,1031 625.4,1033.3 626,1035.3 626.2,1038.2 626.8,1037.6 630,1040.2 629.4,1041.1 630,1045.1 630.6,1047.1 631.7,1049.1 
		633.7,1051.1 637.2,1055.5 641.8,1062.7 646.7,1069.9 653.8,1080 743.2,1080 	"/>
	<path class="st0" d="M457.4,541.6l-30.7,12.1l-10.5,16.2l24.2-11.3l17.8-6.5l28.2-8.1h13.9l4.8-3.2l3.2-3.2l1.6-1.5l1.6,1.6
		l3.2,1.6h4.8l8.1-1.6l3.2-1.6l1.6-3.2l3.2-4.8l1.6-3.2l4.8-3.2l4.8-3.2l4.8-1.6l3.2,1.6l2.6,0.8h4.7l4.8-1.6l6.2-3.2h8.3l7.3,7.3
		l6.5,8.3l4.1,2l6.1,4.1l6.1,2l8.2,2h8.2l8.2-2l8.2-2l6.1-2l6.1-2l10.1-6.2l6.1-6.1l4.1-6.1l4.1-8.2l2-6.1l2-6.1l4.1-4.1l4.1-4.1
		l6.1-4.1l8.2-4.1l6.1-6.1l4.1-4.1l4.1-2l6.1-4.1l2-10.2l2-6.1l4.1-6.1l4.1-6.1v-10.2v-0.8c-0.8-1.3-2.1-3.3-2.1-3.3l2-6.1l4.1-4.1
		h8.2l6.1,2l8.2,2l12.5,1.8l3.5,3.1l2.9,2.9l2,1.4l8.1,6.1l6.1,2h22.3l10.1-2l6.1-2l8.1-4l8.1-4l6.1-4l6.1-4l6.1-2l8.1-2h12.2
		l5.8,0.6l6.4,1.6h6.4l6.4-1.6l2.5-2.2l8.1-4l2-6.1l2-6.1l2-2l4-0.4h14.2l6.1,0.4l4,1.1l2.1,4.9v4l4,4l6.1,2h24.3l6.1,2h4l8.1,2
		l3-1.5l3.2-1.6h3.2l6.4,1.6l1.6,1.6l4.8,4.8l3.2,3.2l4.8,3.2l6.4,1.6h4.8l6.4-3.2l6.4-4.8l6.4-3.2l6,0.8l6.1,6.1l6.1,4l6.1,6.1
		h12.5l2-4l4-2h4.1l2,4l6.1,4l6.1,4l2,4v6.1l6.1,2l6.1,2h4l4-2l4.1-2h2l4-2l2-4h6.1l6.1,2h12.2l8.1,4l4,2h10.1l6.1,2l4,2l2,2l2,2
		l4,4l6.1,4l2,6.1v8.1l2,4l6.1,6.1l2,4l4,4l4,4l2,4l2,2l4,4l4,6.1l2,6.1l4,4l4.1,6.1l6.1,6.1l4,4l2,4l2,4l2,4l6.1,4l4,8.1l4,4h6.1
		l6.1,2h6.1l4,2l4-2h15.5l4-2l10.1-2l10.1,2l10.1,2l12.2,4l10.1,4l10.1,4l6.1,4l8.1,6.1l8.1,6.1l8.1,6.1l2,4v8.9l2,2h1.8l2.2-2l2-2
		l6.1-2h14.2l4-2l4.1-2l4-4l6.1-4h2l2,2l2,2l4,4l2,2l4,4v2.6l-6.1,5.5l-4,4l-4,6.1l2,4h7.9l8.3,2l6.1,4l4.1,2l4,2l6.1,4l4,2l4,4l2,2
		l8.1,6.1l6.1,4l6.1,4l6.1,4l4,4l4,2h10.1l6.1-2h4l6.1,2l6.1,4h27.5l4.9,4l8.1-2l4-2l6.1-2l4.1-2l6.1-2l8.1-6.1l6.1-2l8.1-2h6.1
		l6.1-4l4.1-2l4-2l14.2,4l14.2-10.1l6.1-8.1v-8.1h12.9l20.2-6.1l10.1-8.1l8.1-2l12.1,18.2l-2,12.2l4,18.2l4,4h12.2l8.1-3.6l8.1-8.5
		l6.1-8.1l6.1-2l14.2-6.1l10.1-10.1l-6.1-16.2v-8l2-6.1v-4l-2-6.1v-4l2-10.1l2-6.1l4-6.1l2-6.1l2-6.1v-4l-4-4l-2-2v-2l2-2l2-2l2-2
		l4.1-2l6.1-2l6.1,2l6.1,6.1l2,10.1v4l-2,6.1l-4,4l-2,4v4l6.1,2l6.1,4l8.1,8.1l8.1,6.1l10.1,4l12.2,4l12.1,2h16.2l6.1,8.1l8.1,6.1
		l6.1,2l10.1-2l10.1-4l10.1-2l14.2-4h30.4l8.1-6.1l2-8.1l-2-10.1l-4.1-8.1l-4.1-10.1v-14.4l-2-12.2l-2-12.2v-16.2l-2-16.2v-16.2
		l-2-16.2l-2-18.2l-2-10.1v-12.1l2-8.1l6.1-6.1l14.2-18.2l12.1-14.2l24.3-28.3l10.1-12.2l8.1-6.1l8.1-4h8.1l10.1,2l8.1,2l10.1,2
		l8.1,2h22.3l8.1-2l10.1-2l14.2-4l14.2-4l14.2-2l16.2-2h18.2l5.8-1.5l9.6-4.8l11.2-4.8l12.8-4.8l9.6-3.2l11.2-6.4l6.4-3.2l3.3-0.8
		h3.9l24.1,3.2l20.9,6.4l16,6.4l12.8,9.6l11.2,16l8,20.8l8,32.1l3.2,9.6l3.2,8l6.4,16l9.8,20l7.9,12l9.2,10.5l3.7,0.7h4.8l6.4-4.8
		l4.8-4.8l1.6-8l1.6-4.8l3.2-3.2l4.8-1.6h4.8l4.8,3.2l2.3,4.8l2.5,4.8l3.2,4.8l6.4,9.6l4.8,9.6l1.6,1.6h1.9l1.5-1.5l4.8-4.8l6.4-9.6
		l4.8-4.8l4.8-3.2l8-4.8l4.6-1.6h5.1l6.4,1.6l6.4,3.2l8,4.8l8,4.8l16,6.4l18.6,3.2h8.7l6.4,1.6l4.8,3.2l9.6,9.6l11.2,11.2l4.8,8
		l3.2,3.2l4.8,8l3.2,3.2l6.4,8l8,11.2l6.4,11.2l8,8l4.8,3.2l8,3.2l14.4,8l9.6,3.2l14.4,3.2l3.6,4l2.9,7.2l4,5.7l4.9,9.7l11.4,22.7
		l11.4,22.7l4.9,3.3l9.7,4.9l14.6,6.5l8.1,3.2l4.9,4.9l11.4,4.9h11.4l8.1-8.1l6.5-11.4l3.2-8.1l-1.6-4.8l-6.5-6.5l-4.9-21.1l4.9-9.7
		l11.4-29.2v-6.5l-1.6-11.3l-1.6-8.1l-1.6-8.1l1.6-4.9l4.9-6.5l6.5-4.9l9.7-1.6l6.5,1.6l4.9,1.6l11.4,3.2h9.7l11.4-4.9l6.5-6.5
		l1.6-4.9l-3.2-1.6l-1.6-4.9l1.6-3.3v-1.6l-1.5-3.1l-13.6,3l0.9,3.5l-25.4,2.3l-0.6-2.3l-3.2,0.6l-0.3-2l-21.4,8.4l-3.4,2l-90.6,0.3
		l-29.5-29.5l19.1-18.7l-1.5-3.1l0.5-0.8v-3.4l10.1-9.6l-5.2-5l-10.5,10.1h-3.2l-0.3,0.1l-9.9-9.1l0.6-1v-3.6l10.2-10.1l-5.2-5.3
		l-10.6,10.7h-3.2l-1.4,0.6l-10.6-9.7l-40.7-41l-59-27.5l-34-6.5h3l-11-1.5l-48.8-9.1l-81.1-38l-10.8-6.2l-10.2-4.5l-5.3-0.3
		l-10.8-3.4l-6-4l-11-8L2488,269l-19.2-7.7l-19-6l-17.1-8l-16.9-6l-13-2l-29-3l-7-3l-6.7-0.8v-3.4h-10.3v4.1l-16,4l-23,8l-6.2,1.3
		l-0.9-4.8c1-0.9,1.4-2.2,1.2-3.5c-0.3-1.2-1.1-2.2-2.3-2.7l-2.3-12.7l-5.9,1.1l2.3,12.8c-0.9,0.9-1.3,2.2-1.1,3.4
		c0.3,1.2,1.1,2.1,2.2,2.6l0.9,5l-18.4,3.9l0.5-3.4l-2-4l-2-11l-5.3,1.1l2.3,11.1v4.8l1.8,2.4l-2.8,0.6l-33,1c0,0-5-2-6-2h-5l-5,1
		l-23,7l-28,7l-13,5l-14,7l-10,7l-26.6,22.6l-0.7-0.3l-0.9-0.3h-1.7l-0.9,0.3l-1.2,0.6l-3.2,2.9l-28.1,26.3l-2.9,2.6l-17.9,18.8
		l-35.5,41.5l-20.4-11.7c-0.1,0-0.1-0.1-0.2-0.1c-1.2-0.7-2.7-0.4-3.4,0.8s-0.4,2.7,0.8,3.4l28.1,19.1v4.2l1.4,7.2l1.4,10l1.4,4.3
		l4.3,2.9l0.1,7.1l-1,6l-4,8l-4,5l-3,3l-13.9,5.3l-32.9,7.2l-8.6,1.4l-11.4,2.9l-10,5.7l-8.6,7.2l-4.3,7.2l-27.7,19.9l-6.7,1
		l-0.6-5.4v-9.1l4.5-23.8l4.5-19.3l-2.3-4.5l-5.7-1.1l-4.8,2.4l-5.1,0l-6.8-16c0-0.1-0.1-0.2-0.1-0.2c-0.6-1.2-2-1.7-3.2-1.1
		s-1.7,2-1.1,3.2l6,14h-1.8l-11.3,2.3l-3.9,6.6l-6.5-1.4c-0.1,0-0.1,0-0.2,0c-1.3-0.2-2.6,0.7-2.8,2c-0.2,1.3,0.7,2.6,2,2.8l4.9,1
		v31.1l-32.1,14.5l-4.5-17v-2.2l21.5-19.3l1.1-4.5l-2.3-2.3l-5.7,1.1l-23.3,19.9l0.4-0.5l-30.4,4.6l-10.4,1.5l-7.2,1.2l-4.6,0.6
		l-9.6,1.5l-7.8,0.9l-3.5,0.6l-1.2-1.4l-1.7-15.3l-0.3-0.3v-0.3h-0.6l-4.6,0.3l-0.3,0.3h-0.3v0.3h-0.3v0.3l1.7,15v0.6l-0.6,0.6
		l-0.3,0.6v0.3l-24,2.6l-2,0.3h-5.8l-0.9-0.3l-0.9-0.6l-0.9-0.6l-1.2-0.6l-0.6-0.9l-0.6-0.6l-0.6-0.9l-0.6-0.9l-0.6-1.2l-0.3-0.9
		l-0.9-13v-2l1.4,0.3v0.6l1.2,0.6l0.3-1.7l-1.2-0.3v0.3h-0.6l0.9-3.5l0.6,0.3v0.3l1.2,0.3l0.3-1.5l-1.2-0.3l-0.3,0.6l-0.3-0.3
		l2.3-8.1v-1.2l-0.3-0.3l-0.3-0.3l2.3-0.6l-4.3-16.8l-0.3-0.6v-0.3l-0.3-0.6l-0.3-0.3l-0.6-0.6l-0.6-0.3h-0.6l-0.6-0.3h-0.6
		l-0.6,0.3l-0.6,0.3l-0.6,0.3l-0.3,0.6l-0.6,0.6l-0.3,0.6v1.5l2.3,8.1h-14.8l-0.9-0.6l-0.9-0.3l-1.2-0.6l-1.2-0.6l-1.7-0.6l-2-0.6
		l-2.9-0.6l-2-0.3h-4.6l-1.7,0.4l-1.7,0.3l-1.4,0.3l-1.7,0.6l-1.7,0.9l-1.7,0.9l-2,1.2l-2,1.2l-0.3,0.3l-4.3,4.3l-0.3,0.3l-0.3,0.3
		v1.5l0.3,0.6l0.3,0.3l0.3,0.3l0.3,0.3h0.3l-4,12.7l-2,1.7l-2,1.7l-1.7,2l-0.9,0.9l-0.9,1.5l-0.6,1.5l-1.2,2l-0.3,1.2l-1.2,1.7
		l-0.3,0.9l-1.4,2.3l-1.2,1.7l-2.3,2.9l-1.7,2l-2.3,1.5l-3.2,1.4l-2.6,1.2l-3.8,1.2l-4.3,0.9h-3.2l-3.5-0.3l-5.8-0.9l-10.4-2.6
		l-11.3-3.2h-0.9l-9-0.6h-5.5l-3.4-1.1l-2.3-1.1l-2.3-1.1l-2.3-1.1l-3.4-2.3l-2.6-1.6l-2.6-0.3l-2-0.3l-4.3-0.3l-2.9-0.3l-2-0.3
		l-5.2-0.6l-7.2-1.5l-8.7-1.7l-2.6,1.4l-6.9-2.9l-3.5-1.2l-3.2-1.2l-6.9-2.9l-2.6-0.9l-2.3-1.2l-6.1-2.3l-30.1-12.1l-0.6-2.6h-0.3
		l-4.6-2.9l-4.3-2.9l-4-11.6l13.9-4.6l0.6-0.3l0.3-0.3l0.3-0.3l0.3-0.3v-0.3l0.3-0.3v-0.6l-0.3-0.3v-0.3l-0.3-0.3v-0.3l-0.3-0.3
		h-0.3l-0.3-0.3h-1.2l-14.2,4.9l-4.9-13.6l14.2-4.9h0.6l0.3-0.3l0.3-0.6l0.3-0.6v-0.9l-0.3-0.3l-0.3-0.6l-0.3-0.3h-0.3l-0.6-0.3
		h-0.9l-14.2,4.9l-3.5-9l6.1-14.5l-5.8-2.3l-6.1,14.5l-2,1.2l-9.8-4.3l-2-0.9l0.3-0.3l-0.6-1.7l5.8-14.2v-0.6l-0.3-0.3l-4.6-2h-0.3
		l-0.3,0.3l-0.3,0.3l-5.8,14.2l-1.4,0.9l-0.3,0.3l-12.4-4.9l0.3-0.3l-0.9-1.5l5.5-14.8v-0.6h-0.3l-0.3-0.3l-4.3-1.4h-0.9v0.3
		l-5.5,14.8l-1.2,0.6l-0.3,0.6l-12.7-4.3l0.3-0.6l-0.9-1.2l4.6-15.1v-0.6l-0.3-0.3l-4.3-1.2l-0.6-0.3l-0.3,0.3h-0.3v0.3l-4.6,15
		l-1.4,0.6L1333,401l-0.8-1.4l4-15v-0.3h-0.3V384h-0.3l-4.6-1.4h-0.3v0.3h-0.3l-0.3,0.3l-3.8,15l-1.4,0.9l-13-3.2l-0.9-0.9l4.4-16.1
		l-0.6-0.6l-4.9-1.5l-0.9,0.6l-4,15.3l-1.2,0.9l-12.7-3.2l-0.9-1.5h-0.3l4.3-15.9l-5.8-1.4l-4.3,15.9l-1.4,0.6l-4.6-1.1l-1.4-2.6
		l-7.2-2l4-14.8l-2.3-0.6l-31.8,33l-4.6,4.6l-1.7,1.4l-3.6-6.1l-7.9-6.8h-11.3l-17.3-4.6l2.7-10.4l0.9-0.6l6.1,1.7l0.3-0.9h0.3
		l0.6-1.7l0.6,0.3l-0.3,1.7l4.3,1.2l2.9-1.7l0.9-2.9l-1.7-3.2l-4.3-1.1l-0.6,2l-0.9-0.3l0.6-1.7l-0.3-0.3l0.3-0.9l-6.4-1.7l-0.3-0.6
		l2.9-11l0.6-0.3l4.9,1.5l0.6-2.3l0.9,0.3l-0.6,2l1.4,0.6l0.6-2h1.2l-0.6,2.3l3.2,0.9l3.2-1.7l0.9-2.9l-0.6-0.9l-15.3-4.3l-32.4-8.7
		l-0.9,0.6l-0.9,2.9l1.7,3.2l20.8,5.5l0.3-2h0.9l-0.6,2.3l1.7,0.3l0.6-2l0.9,0.3l-0.6,2l4.9,1.5l0.3,0.6l-2.9,10.7l-0.6,0.6
		l-23.4-6.4l-0.3,0.9l-0.6,1.7h-0.9l0.3-2l-4-1.2h-0.3l-3.2,1.7l-0.6,2.9l2,3.2l4,1.2l0.6-2l0.9,0.3l-0.3,2v0.9l6.1,1.4l0.6,0.9
		l-2.8,10.7l-18.6-4.9l-14.8-18.2l-4.5-5.7l-104-26.3L919.7,324l-11.5,2.9l-21,5.8l0,0l-4.7,1.3l0,0l-11.2,3.1l4.3-1.2l-2.3-8.2
		l-4.7,1.3l2.3,8.3l-24.9,7l-2.2-7.9l-5.6,1.5l2.2,7.9l-17.2,4.8l-2.6-9.4l-5.6,1.5l2.6,9.4l-14.5,4l-2.8-10.1l-5.6,1.6l2.8,10.1
		l5.6-1.5l-23.8,6.6h-8.6l-48.6-8.6l-1.4,8.6l63,11.5l2.9,10l1.3,8l-52.2-8.2l-62.2,59.2L644.4,471L627,488.7v1.8l-27.6,5.4
		l-20.8,3.7l-17.8,3.2l-55.3,20.7l-3.8-10.9l25.1-18l-4.8-7.7l-31.9,23.2l6.4,16.8L457.4,541.6L457.4,541.6z"/>
	<polygon class="st0" points="2907.2,453.7 2905.5,455.2 2904.4,456.3 2902.6,458 2901.2,459.5 2899.8,460.9 2898.6,462.1 
		2898,462.6 2897.5,463.8 2897.5,464.4 2898,465.2 2898.9,465.5 2899.8,465.2 2900.6,464.9 2901.2,464.4 2902.1,463.5 2902.9,462.4 
		2904.4,460.9 2907.5,458 2909.5,456.3 2911.2,455.2 2913.2,453.7 2915,452.9 2917.8,451.1 2920.4,450.3 2923.3,449.4 2924.5,449.1 
		2925.9,448.8 2930.8,448.3 2937.7,448.3 2938.8,448.6 2939.7,448.6 2940.5,448.3 2941.1,448.3 2941.4,447.4 2941.4,446.8 
		2941.1,446.3 2940.8,445.7 2940.3,445.4 2939.4,445.1 2928.2,445.1 2926.5,445.4 2925,445.7 2923.6,446 2922.2,446.3 2920.7,446.8 
		2919.3,447.1 2916.4,448.6 2915,449.1 2913.2,450 2911.5,450.9 2908.6,452.6 	"/>
	<polyline class="st0" points="3483.7,941.7 3484.1,941.4 3483,939.9 3482.7,939.1 3483,937.9 3483,937.1 3481.2,935.9 3477.2,933 
		3476,932.4 3391.3,848.8 3360.3,880.4 3343.8,859.8 3337,839.3 3322.2,788.3 3319.7,782.7 3319.4,782.5 3319.4,770.8 3316.9,763.5 
		3312.2,751.7 3302.9,738.9 3298.3,742.3 3307.2,754.5 3311.6,765.4 3313.7,771.7 3313.7,782.9 3313.9,782.7 3301.8,795.1 
		3315.4,843.9 3273.9,878.5 3265.3,878.5 3256.7,877.1 3252.4,871.4 3246.7,862.8 3248.1,858 3229.3,833.8 3288.3,764.7 
		3282.4,757.2 3287,753.1 3274.4,739.5 3256.3,723.6 3230.2,683.9 3227.2,686.6 3227.8,684.8 3227.8,682.8 3215.5,618.1 3212.1,609 
		3170.2,579.9 3165.7,574.9 3164.1,578.1 3162.4,583 3160.8,587.8 3154.3,599.2 3152.7,604 3149.5,605.7 3144.6,610.5 3141.4,612.2 
		3134.9,613.8 3131.6,613.8 3125.1,618.6 3123.5,618.6 3120.3,620.3 3112.2,630 3110.6,634.9 3110.6,641.4 3113.8,644.6 3121.9,656 
		3121.9,657.6 3125.1,662.4 3133.3,672.2 3134.9,675.4 3136.5,678.7 3141.4,683.5 3147.9,691.6 3149.5,699.7 3151.1,704.6 
		3154.3,709.5 3160.8,714.3 3165.7,714.3 3170.6,712.7 3177.1,711.1 3195,706.2 3198.2,706.2 3203.1,707.8 3206.4,707.8 3208,706.2 
		3214.5,699.7 3216,699.7 3216,706.2 3217.6,711.1 3216,719.2 3214.4,722.4 3214.4,724 3212.8,725.6 3207.9,725.6 3206.3,727.2 
		3203,728.9 3201.4,732.1 3199.8,732.1 3195,728.9 3193.4,727.3 3191.8,728.9 3190.1,732.2 3186.9,738.6 3182,741.9 3178.8,741.9 
		3177.2,743.5 3178.8,746.7 3177.2,751.6 3170.7,759.7 3165.8,763 3159.3,771.1 3157.7,775.9 3157.7,780.8 3160.9,785.7 
		3159.3,787.3 3154.4,797 3152.8,806.7 3151.2,810 3143,814.8 3143,818.1 3144.7,824.6 3143,827.8 3143,831.1 3144.7,834.3 
		3147.9,835.9 3149.5,839.2 3149.5,840.8 3151.2,842.4 3146.3,845.7 3141.4,850.5 3141.4,855.4 3138.2,857 3134.9,858.6 
		3134.9,861.9 3136.6,868.4 3134.9,873.2 3131.7,878.1 3128.5,886.2 3125.2,897.6 3120.3,900.8 3120.3,904 3122,907.3 3125.2,917 
		3131.7,930 3134.9,934.9 3136.6,938.1 3139.8,938.1 3143,934.9 3149.5,933.3 3151.2,936.5 3151.2,939.7 3149.5,949.5 3147.9,954.3 
		3141.4,967.3 3138.2,969 3134.9,969 3128.5,972.2 3123.6,970.6 3115.5,965.7 3115.5,960.9 3117.1,957.6 3118.7,952.8 3118.7,949.5 
		3117.1,947.9 3112.2,944.6 3110.6,944.6 3109,947.9 3107.4,949.5 3104.1,951.1 3099.3,951.1 3096,947.9 3097.6,943 3099.3,938.2 
		3099.3,933.3 3097.6,930 3096,930 3096,934.9 3089.5,934.9 3084.6,931.7 3083,931.7 3081.4,934.9 3079.8,936.5 3079.8,939.8 
		3081.4,941.4 3076.5,941.4 3073.3,944.6 3074.9,946.3 3076.5,947.9 3076.5,951.1 3078.2,954.4 3079.8,959.2 3078.2,962.5 
		3078.2,964.1 3081.4,969 3084.6,972.2 3086.3,977.1 3089.5,983.6 3091.1,985.2 3099.3,985.2 3100.9,986.8 3105.7,994.9 
		3115.5,994.9 3118.7,998.2 3120.3,1003 3120.3,1007.9 3126.8,1007.9 3134.9,1012.8 3134.9,1016 3141.4,1016 3146.3,1014.4 
		3154.4,1016 3165.7,1007.9 3169,1007.9 3173.9,1004.7 3177.1,1004.7 3183.6,998.2 3190.1,994.9 3196.6,986.8 3203.1,985.2 
		3212.8,985.2 3219.3,983.6 3227.4,980.3 3230.6,974.4 3232.3,973.8 3242,969 3251.7,964.1 3255,959.3 3268,946.3 3269.6,946.3 
		3272.8,949.5 3276,949.5 3280.9,947.9 3285.7,947.9 3287.4,943 3293.8,939.8 3305.2,936.5 3305.2,934.9 3310.1,931.7 3316.5,931.7 
		3319.8,930 3323,933.3 3329.5,933.3 3332.8,934.9 3337.6,939.8 3339.3,939.8 3342.5,938.2 3344.1,939.8 3349,944.6 3353.8,946.3 
		3355.5,947.9 3355.5,952.8 3358.7,957.6 3363.6,964.1 3365.2,967.3 3368.4,972.2 3371.7,973.8 3374.9,977.1 3389.5,991.7 
		3391.1,998.2 3392.8,999.8 3396,1004.6 3402.5,1019.2 3404.1,1022.5 3402.5,1025.7 3404.1,1029 3404.1,1033.8 3405.7,1037.1 
		3412.2,1041.9 3413.9,1041.9 3415.5,1037.1 3418.7,1033.8 3423.6,1032.2 3428.4,1029 3436.6,1024.1 3444.7,1016 3454.4,1009.5 
		3460.9,1003 3465.7,991.7 3469,978.7 3468.2,974.4 3460.9,959.2 3459.3,956 3460.9,954.3 3465.7,952.7 3469,951.1 3477.1,946.2 
		3479.9,944.9 3483.3,941.5 	"/>
	<polygon class="st0" points="2900.6,443 2900,443 2898.8,443.6 2897.5,444.5 2895.7,446.1 2893.8,447.9 2891.7,450.1 2890.4,451.6 
		2889.2,453.2 2887.4,454.7 2885.5,456.6 2884,458.1 2882.7,459.4 2880.9,461.2 2880.9,462.7 2873.8,469.8 2874.1,470.5 
		2874.4,470.5 2881.2,463.4 2882.4,463.7 2883,463.7 2883.7,463.1 2885.2,461.8 2887.4,459.4 2889.5,457.2 2892.6,454.4 
		2895.7,451.3 2897.5,449.5 2899.4,447.6 2900.3,447 2900.9,446.1 2901.5,445.5 2901.9,444.6 2901.9,444 2901.2,443.4 	"/>
	<polyline class="st0" points="479.1,796.1 481.1,807 488.3,815.5 502.6,827 512.6,842.8 521.2,861.4 588.6,983.8 595.7,983.8 
		595.6,983.5 595.6,973.8 594,972.2 589.2,967.4 587.5,964.1 590.8,959.3 592.3,948 594,939.9 597.2,931.8 595.6,930.2 594,923 
		594,917.3 589.2,906.8 589.2,899.5 585.9,897.9 582.7,894.6 581.9,887.7 579.5,881.7 578.2,878.5 576.2,876.9 569.8,878.5 
		568.2,876.9 566.5,872 564.9,870.4 558.4,865.5 553.6,860.7 552,855.9 553.6,852.6 552,849.4 548.8,847.8 545.5,846.2 545.5,842.9 
		547.2,841.3 547.2,839.7 545.5,838.1 548.8,834.9 552,831.6 552,826.8 553.6,818.7 556.8,813.9 560.1,805.8 560.1,799.3 
		556.8,791.2 552,789.6 545.5,788 542.3,786.4 540.7,788 535.8,791.2 527.7,794.5 522.9,797.7 518,797.7 511.5,799.3 503.5,800.9 
		492.8,799.3 487.3,799.3 482.5,797.7 479.1,796.1 	"/>
</g>
</svg>
