<?xml version="1.0" encoding="utf-8"?>
<!-- Generator: Adobe Illustrator 23.0.3, SVG Export Plug-In . SVG Version: 6.00 Build 0)  -->
<svg width="3840" height="1080" version="1.1" id="Sheet_15_South_Island_Image"
	 xmlns="http://www.w3.org/2000/svg" xmlns:xlink="http://www.w3.org/1999/xlink" x="0px" y="0px" viewBox="0 0 3840 1080"
	 style="enable-background:new 0 0 3840 1080;" xml:space="preserve">
<style type="text/css">
	.st0{opacity:0.5;}
	.st1{fill:none;}
	.st2{clip-path:url(#SVGID_2_);}
	.st3{fill:none;stroke:#FF8300;stroke-width:3;stroke-linecap:round;stroke-linejoin:round;stroke-dasharray:6.86,6.86;}
	.st4{fill:none;stroke:#FF8300;stroke-width:3;stroke-linecap:round;stroke-linejoin:round;}
	.st5{fill:none;stroke:#FF8300;stroke-width:3;stroke-linecap:round;stroke-linejoin:round;stroke-dasharray:8.07,8.07;}
	.st6{fill:none;stroke:#FF8300;stroke-width:3;stroke-linecap:round;stroke-linejoin:round;stroke-dasharray:7.78,7.78;}
	.st7{fill:none;stroke:#FF8300;stroke-width:3;stroke-linecap:round;stroke-linejoin:round;stroke-dasharray:8.55,8.55;}
	.st8{fill:none;stroke:#FF8300;stroke-width:3;stroke-linecap:round;stroke-linejoin:round;stroke-dasharray:6.22,6.22;}
	.st9{fill:none;stroke:#FF8300;stroke-width:3;stroke-linecap:round;stroke-linejoin:round;stroke-dasharray:5.89,5.89;}
	.st10{fill:none;stroke:#FF8300;stroke-width:3;stroke-linecap:round;stroke-linejoin:round;stroke-dasharray:7.89,7.89;}
	.st11{fill:none;stroke:#FF8300;stroke-width:3;stroke-linecap:round;stroke-linejoin:round;stroke-dasharray:8.53,8.53;}
	.st12{fill:none;stroke:#FF8300;stroke-width:3;stroke-linecap:round;stroke-linejoin:round;stroke-dasharray:7.75,7.75;}
	.st13{fill:none;stroke:#FF8300;stroke-width:3;stroke-linecap:round;stroke-linejoin:round;stroke-dasharray:7.57,7.57;}
	.st14{fill:none;stroke:#FF8300;stroke-width:3;stroke-linecap:round;stroke-linejoin:round;stroke-dasharray:8.31,8.31;}
	.st15{fill:none;stroke:#FF8300;stroke-width:3;stroke-linecap:round;stroke-linejoin:round;stroke-dasharray:8.24,8.24;}
	.st16{fill:none;stroke:#FF8300;stroke-width:3;stroke-linecap:round;stroke-linejoin:round;stroke-dasharray:4.52,4.52;}
	.st17{fill:none;stroke:#FF8300;stroke-width:3;stroke-linecap:round;stroke-linejoin:round;stroke-dasharray:6.36,6.36;}
	.st18{fill:none;stroke:#FF8300;stroke-width:3;stroke-linecap:round;stroke-linejoin:round;stroke-dasharray:7.87,7.87;}
	.st19{fill:none;stroke:#FF8300;stroke-width:3;stroke-linecap:round;stroke-linejoin:round;stroke-dasharray:9.96,9.96;}
	.st20{fill:none;stroke:#FF8300;stroke-width:3;stroke-linecap:round;stroke-linejoin:round;stroke-dasharray:7.16,7.16;}
	.st21{fill:none;stroke:#FF8300;stroke-width:3;stroke-linecap:round;stroke-linejoin:round;stroke-dasharray:7.67,7.67;}
	.st22{fill:none;stroke:#FF8300;stroke-width:3;stroke-linecap:round;stroke-linejoin:round;stroke-dasharray:7.54,7.54;}
	.st23{fill:none;stroke:#FF8300;stroke-width:3;stroke-linecap:round;stroke-linejoin:round;stroke-dasharray:7.46,7.46;}
	.st24{fill:none;stroke:#FF8300;stroke-width:3;stroke-linecap:round;stroke-linejoin:round;stroke-dasharray:8.14,8.14;}
	.st25{fill:none;stroke:#FF8300;stroke-width:3;stroke-linecap:round;stroke-linejoin:round;stroke-dasharray:9.81,9.81;}
	.st26{fill:none;stroke:#FF8300;stroke-width:3;stroke-linecap:round;stroke-linejoin:round;stroke-dasharray:7.61,7.61;}
	.st27{fill:none;stroke:#FF8300;stroke-width:3;stroke-linecap:round;stroke-linejoin:round;stroke-dasharray:7.41,7.41;}
	.st28{fill:none;stroke:#FF8300;stroke-width:3;stroke-linecap:round;stroke-linejoin:round;stroke-dasharray:7.94,7.94;}
	.st29{fill:none;stroke:#FF8300;stroke-width:3;stroke-linecap:round;stroke-linejoin:round;stroke-dasharray:9.37,9.37;}
	.st30{fill:none;stroke:#FF8300;stroke-width:3;stroke-linecap:round;stroke-linejoin:round;stroke-dasharray:4.06,4.06;}
	.st31{fill:none;stroke:#FF8300;stroke-width:3;stroke-linecap:round;stroke-linejoin:round;stroke-dasharray:7.7,7.7;}
	.st32{fill:none;stroke:#FF8300;stroke-width:3;stroke-linecap:round;stroke-linejoin:round;stroke-dasharray:4.11,4.11;}
	.st33{fill:none;stroke:#FF8300;stroke-width:3;stroke-linecap:round;stroke-linejoin:round;stroke-dasharray:6.61,6.61;}
	.st34{fill:none;stroke:#FF8300;stroke-width:3;stroke-linecap:round;stroke-linejoin:round;stroke-dasharray:5.31,5.31;}
	.st35{fill:none;stroke:#FF8300;stroke-width:3;stroke-linecap:round;stroke-linejoin:round;stroke-dasharray:4.41,4.41;}
	.st36{fill:none;stroke:#FF8300;stroke-width:3;stroke-linecap:round;stroke-linejoin:round;stroke-dasharray:8.36,8.36;}
	.st37{fill:none;stroke:#FF8300;stroke-width:3;stroke-linecap:round;stroke-linejoin:round;stroke-dasharray:8.29,8.29;}
	.st38{fill:none;stroke:#FF8300;stroke-width:3;stroke-linecap:round;stroke-linejoin:round;stroke-dasharray:8.69,8.69;}
	.st39{fill:none;stroke:#FF8300;stroke-width:3;stroke-linecap:round;stroke-linejoin:round;stroke-dasharray:4.49,4.49;}
	.st40{fill:none;stroke:#FF8300;stroke-width:3;stroke-linecap:round;stroke-linejoin:round;stroke-dasharray:5.15,5.15;}
	.st41{fill:none;stroke:#FF8300;stroke-width:3;stroke-linecap:round;stroke-linejoin:round;stroke-dasharray:5.62,5.62;}
	.st42{fill:none;stroke:#FF8300;stroke-width:3;stroke-linecap:round;stroke-linejoin:round;stroke-dasharray:4.94,4.94;}
	.st43{fill:none;stroke:#FF8300;stroke-width:3;stroke-linecap:round;stroke-linejoin:round;stroke-dasharray:8.17,8.17;}
	.st44{fill:none;stroke:#FF8300;stroke-width:3;stroke-linecap:round;stroke-linejoin:round;stroke-dasharray:9.27,9.27;}
	.st45{fill:none;stroke:#FF8300;stroke-width:3;stroke-linecap:round;stroke-linejoin:round;stroke-dasharray:9.29,9.29;}
	.st46{fill:none;stroke:#FF8300;stroke-width:3;stroke-linecap:round;stroke-linejoin:round;stroke-dasharray:6.93,6.93;}
	.st47{fill:none;stroke:#FF8300;stroke-width:3;stroke-linecap:round;stroke-linejoin:round;stroke-dasharray:8.03,8.03;}
	.st48{fill:none;stroke:#FF8300;stroke-width:3;stroke-linecap:round;stroke-linejoin:round;stroke-dasharray:8.91,8.91;}
	.st49{fill:none;stroke:#FF8300;stroke-width:3;stroke-linecap:round;stroke-linejoin:round;stroke-dasharray:4.19,4.19;}
	.st50{fill:none;stroke:#FF8300;stroke-width:3;stroke-linecap:round;stroke-linejoin:round;stroke-dasharray:4.09,4.09;}
	.st51{fill:none;stroke:#FF8300;stroke-width:3;stroke-linecap:round;stroke-linejoin:round;stroke-dasharray:8.12,8.12;}
	.st52{fill:none;stroke:#FF8300;stroke-width:3;stroke-linecap:round;stroke-linejoin:round;stroke-dasharray:7.34,7.34;}
	.st53{fill:none;stroke:#FF8300;stroke-width:3;stroke-linecap:round;stroke-linejoin:round;stroke-dasharray:8.37,8.37;}
	.st54{fill:none;stroke:#FF8300;stroke-width:3;stroke-linecap:round;stroke-linejoin:round;stroke-dasharray:7.08,7.08;}
	.st55{fill:none;stroke:#FF8300;stroke-width:3;stroke-linecap:round;stroke-linejoin:round;stroke-dasharray:5.09,5.09;}
	.st56{fill:none;stroke:#FF8300;stroke-width:3;stroke-linecap:round;stroke-linejoin:round;stroke-dasharray:8.11,8.11;}
	.st57{fill:none;stroke:#FF8300;stroke-width:3;stroke-linecap:round;stroke-linejoin:round;stroke-dasharray:7.76,7.76;}
	.st58{fill:none;stroke:#FF8300;stroke-width:3;stroke-linecap:round;stroke-linejoin:round;stroke-dasharray:6.1,6.1;}
	.st59{fill:none;stroke:#FF8300;stroke-width:3;stroke-linecap:round;stroke-linejoin:round;stroke-dasharray:5.54,5.54;}
	.st60{fill:none;stroke:#FF8300;stroke-width:3;stroke-linecap:round;stroke-linejoin:round;stroke-dasharray:7.44,7.44;}
	.st61{fill:none;stroke:#FF8300;stroke-width:3;stroke-linecap:round;stroke-linejoin:round;stroke-dasharray:9.05,9.05;}
	.st62{fill:none;stroke:#FF8300;stroke-width:3;stroke-linecap:round;stroke-linejoin:round;stroke-dasharray:8.09,8.09;}
	.st63{fill:none;stroke:#FF8300;stroke-width:3;stroke-linecap:round;stroke-linejoin:round;stroke-dasharray:7.64,7.64;}
	.st64{fill:none;stroke:#FF8300;stroke-width:3;stroke-linecap:round;stroke-linejoin:round;stroke-dasharray:8.01,8.01;}
	.st65{clip-path:url(#SVGID_4_);}
	.st66{opacity:0.9;}
	.st67{fill:none;stroke:#FF8300;stroke-width:3;stroke-linecap:round;stroke-linejoin:round;stroke-dasharray:4.02,4.02;}
	.st68{fill:none;stroke:#FF8300;stroke-width:3;stroke-linecap:round;stroke-linejoin:round;stroke-dasharray:6.59,6.59;}
	.st69{fill:none;stroke:#FF8300;stroke-width:3;stroke-linecap:round;stroke-linejoin:round;stroke-dasharray:7.13,7.13;}
	.st70{fill:none;stroke:#FF8300;stroke-width:3;stroke-linecap:round;stroke-linejoin:round;stroke-dasharray:7.91,7.91;}
	.st71{fill:none;stroke:#FF8300;stroke-width:3;stroke-linecap:round;stroke-linejoin:round;stroke-dasharray:8.16,8.16;}
	.st72{fill:none;stroke:#FF8300;stroke-width:3;stroke-linecap:round;stroke-linejoin:round;stroke-dasharray:7.52,7.52;}
	.st73{fill:none;stroke:#FF8300;stroke-width:3;stroke-linecap:round;stroke-linejoin:round;stroke-dasharray:9.07,9.07;}
	.st74{fill:none;stroke:#FF8300;stroke-width:3;stroke-linecap:round;stroke-linejoin:round;stroke-dasharray:10.32,10.32;}
	.st75{fill:none;stroke:#FF8300;stroke-width:3;stroke-linecap:round;stroke-linejoin:round;stroke-dasharray:7.11,7.11;}
	.st76{fill:none;stroke:#FF8300;stroke-width:3;stroke-linecap:round;stroke-linejoin:round;stroke-dasharray:4.07,4.07;}
	.st77{fill:none;stroke:#FF8300;stroke-width:3;stroke-linecap:round;stroke-linejoin:round;stroke-dasharray:7.96,7.96;}
	.st78{fill:none;stroke:#FF8300;stroke-width:3;stroke-linecap:round;stroke-linejoin:round;stroke-dasharray:8.13,8.13;}
	.st79{fill:none;stroke:#FF8300;stroke-width:3;stroke-linecap:round;stroke-linejoin:round;stroke-dasharray:7.01,7.01;}
	.st80{fill:none;stroke:#FF8300;stroke-width:3;stroke-linecap:round;stroke-linejoin:round;stroke-dasharray:8.18,8.18;}
	.st81{fill:none;stroke:#FF8300;stroke-width:3;stroke-linecap:round;stroke-linejoin:round;stroke-dasharray:7.18,7.18;}
	.st82{fill:none;stroke:#FF8300;stroke-width:3;stroke-linecap:round;stroke-linejoin:round;stroke-dasharray:7.58,7.58;}
	.st83{fill:none;stroke:#FF8300;stroke-width:3;stroke-linecap:round;stroke-linejoin:round;stroke-dasharray:4.4,4.4;}
	.st84{fill:none;stroke:#FF8300;stroke-width:3;stroke-linecap:round;stroke-linejoin:round;stroke-dasharray:8.2,8.2;}
	.st85{fill:none;stroke:#FF8300;stroke-width:3;stroke-linecap:round;stroke-linejoin:round;stroke-dasharray:6.55,6.55;}
	.st86{fill:none;stroke:#FF8300;stroke-width:3;stroke-linecap:round;stroke-linejoin:round;stroke-dasharray:7.35,7.35;}
	.st87{fill:none;stroke:#FF8300;stroke-width:3;stroke-linecap:round;stroke-linejoin:round;stroke-dasharray:4.57,4.57;}
	.st88{fill:none;stroke:#FF8300;stroke-width:3;stroke-linecap:round;stroke-linejoin:round;stroke-dasharray:8.48,8.48;}
	.st89{fill:none;stroke:#FF8300;stroke-width:3;stroke-linecap:round;stroke-linejoin:round;stroke-dasharray:4.48,4.48;}
	.st90{fill:none;stroke:#FF8300;stroke-width:3;stroke-linecap:round;stroke-linejoin:round;stroke-dasharray:9.33,9.33;}
	.st91{fill:none;stroke:#FF8300;stroke-width:3;stroke-linecap:round;stroke-linejoin:round;stroke-dasharray:7.25,7.25;}
	.st92{fill:none;stroke:#FF8300;stroke-width:3;stroke-linecap:round;stroke-linejoin:round;stroke-dasharray:7.99,7.99;}
	.st93{fill:none;stroke:#FF8300;stroke-width:3;stroke-linecap:round;stroke-linejoin:round;stroke-dasharray:6.08,6.08;}
	.st94{fill:none;stroke:#FF8300;stroke-width:3;stroke-linecap:round;stroke-linejoin:round;stroke-dasharray:6.38,6.38;}
	.st95{fill:none;stroke:#FF8300;stroke-width:3;stroke-linecap:round;stroke-linejoin:round;stroke-dasharray:4.32,4.32;}
	.st96{fill:none;stroke:#FF8300;stroke-width:3;stroke-linecap:round;stroke-linejoin:round;stroke-dasharray:8.59,8.59;}
	.st97{fill:none;stroke:#FF8300;stroke-width:3;stroke-linecap:round;stroke-linejoin:round;stroke-dasharray:8.64,8.64;}
	.st98{fill:none;stroke:#FF8300;stroke-width:3;stroke-linecap:round;stroke-linejoin:round;stroke-dasharray:9.35,9.35;}
	.st99{fill:none;stroke:#FF8300;stroke-width:3;stroke-linecap:round;stroke-linejoin:round;stroke-dasharray:4.72,4.72;}
	.st100{fill:none;stroke:#FF8300;stroke-width:3;stroke-linecap:round;stroke-linejoin:round;stroke-dasharray:7.98,7.98;}
	.st101{fill:none;stroke:#FF8300;stroke-width:3;stroke-linecap:round;stroke-linejoin:round;stroke-dasharray:8.1,8.1;}
	.st102{clip-path:url(#SVGID_6_);}
	.st103{opacity:0.9;fill:none;stroke:#FF8300;stroke-width:3;stroke-miterlimit:10;enable-background:new    ;}
	.st104{clip-path:url(#SVGID_8_);}
	.st105{fill:none;stroke:#FF8300;stroke-width:3;stroke-miterlimit:10;}
</style>
<g class="st0">
	<g>
		<polygon class="st1" points="1568.3,250.4 1566.7,248.2 1568.3,250.4 		"/>
		<polygon class="st1" points="1561.1,210.7 1561,209.9 1562.3,223.7 		"/>
		<path class="st1" d="M2887.5,35l-1.6-5.9l1.3,4.9h-6.8v3.3h-2.8V34h-6.3v7.6h-2.9V34h-6.6v7.3h-2.8V34h-6.4l-13.6-16.1l-1.5,1.4
			l4.5,5.2c0,0,0,0,0,0c0.4,0.5,0.3,1.2-0.1,1.6c-0.2,0.2-0.5,0.3-0.7,0.3c-0.3,0-0.6-0.1-0.9-0.4l-4.4-5.1l-1.5-1.7l-5-5.7
			c-0.4-0.5-0.4-1.2,0.1-1.6c0,0,0,0,0,0c0.5-0.4,1.2-0.3,1.6,0.1l4.9,5.7l1.5-1.4L2823.7,0h-154.2l-26.9,28.3h-7.4L2606.5,0h-482.8
			l-3.3,15.6l6.4,22l-32.6,24.2h-7.2l-8.2-7l-34.7-13.6l-3.7-0.8l-14.7-8.6l-14.9-9L1980.1,0h89.5l0,0h-278.9l0,0h115l-2,2.8
			l3.9,4.5l9.8,6.3l-3.8,4.9l-8.9-6.3l-6-2.4l-0.8,137.3l-2.4,2.6l-3.2,0.6l-3.4-0.7l-2.4-4.2l-0.2-29.8l-30.3,0.4l-100,90.7l-4,6.4
			l-10.7,29l-29.2,30.7l-36.9,3.2l-8.5-7.9l-56.8,4.5l-4.4-4l-4.9-4.2L1581,265l-5.7-7.5l3.9,5.3l-9.9,11.9
			c-0.1,0.2-0.2,0.3-0.4,0.5c-1.1,1-2.7,0.9-3.7-0.1s-0.9-2.7,0.1-3.7l8.6-10.4l-7-8.9l-8.4,10.2c-0.1,0.2-0.2,0.3-0.4,0.5
			c-1.1,1-2.7,0.9-3.7-0.1s-0.9-2.7,0.1-3.7l8.1-9.7v-3l2.2-1l-1.2-6.2l-1-11.3l-79.5,16.1l-2.9-17l80.7-17l-2.9-16.6l-4.7-22.5
			l-37.1,7.2c-0.1,0-0.3,0-0.4,0c-1.1,0-2-0.8-2.2-1.8c-0.2-1.2,0.6-2.4,1.8-2.7l30.7-5.9l-0.6-4.2l6.1-1.1l-2.7-13l-43.7,8.5
			c-0.1,0-0.3,0-0.4,0c-1.1,0-2-0.8-2.2-1.8c-0.2-1.2,0.6-2.4,1.8-2.7l43.7-8.5l-4.2-20l-1.6,0.2l-0.1-0.5l-48.4,9.4
			c-0.2,0-0.3,0.1-0.5,0.1c-1.2,0-2.3-0.9-2.5-2.1c-0.3-1.4,0.6-2.7,2-3l48.2-9.3l-2.3-9.8l-7.6,1.8l-0.8-1.5l-0.3-3.2l2.8-0.3
			l0.1,1.6l5.1-1.2l-0.2-0.7l-0.5-11.9l-1.6-11.8h-0.1l-14.4,1.1l1.9,21.3l2.6,5.1c0.4,0.7,0.1,1.6-0.6,1.9
			c-0.2,0.1-0.4,0.1-0.7,0.1c-0.5,0-1-0.3-1.3-0.8l-2.9-5.6l-2.2-24.7l17.3-1.3l-1.4-10.4l0.5-8.2l3.4-22.7l-1.6-6.3l-2.1-9.8
			l-15.5,4l-0.9-3.3l15.7-4.1L1529.5,0H1506l-4.1,24.4l-1.9,15l0.2,1l14.1,30.4l-3.6,1.7l-14.3-30.8l-0.5-2l2-15.9l-2.8-0.4
			l2.4-17.1h3.3l1-6.3 M3027.4,230.5l-7.3-13.8l7.9-3.9l3.5-1.8l-5.3-9.8l2.5-1.3l5.4,9.9l56.4-29.1l6.3-3.9l-15.6-38.5l-5-2.8
			 M3139.9,296.9l-29.1,28.1l12.5,13.1c1.2,1.3,1.1,3.2-0.1,4.4c-1.3,1.2-3.2,1.1-4.4-0.1l-12.7-12.8l-70.4-71.7l-2.6-13.2"/>
		<polygon points="1497.6,6.3 1495.2,23.3 1498,23.8 1496,39.7 1496.5,41.7 1510.7,72.5 1514.3,70.8 1500.2,40.4 1500,39.4 
			1501.9,24.4 1506,0 1501.9,0 1500.9,6.3 		"/>
		<polyline points="3076.1,135.4 3081.1,138.2 3096.8,176.7 3090.4,180.6 3034,209.7 3028.6,199.8 3026.1,201.2 3031.5,211 
			3027.9,212.8 3020.1,216.8 3027.4,230.5 3028.3,227 3029.9,222.2 3033.1,220.6 3037.9,220.6 3042.7,222.2 3047.5,225.4 
			3052.3,227 3055.5,230.2 3058.7,231.8 3063.5,235 3066.7,235 3068.3,231.8 3066.7,220.6 3065.1,214.2 3065.1,211 3066.7,207.8 
			3074.7,204.6 3081.1,203 3085.9,203 3093.9,206.2 3097.1,207.8 3101.9,207.8 3108.3,204.6 3116.3,204.6 3119.5,203 3117.9,188.6 
			3114.7,183.8 3111.5,175.8 3108.3,167.8 3106.7,158.2 3108.3,155 3113.1,151.8 3116.3,150.2 3116.3,147 3119.5,142.2 
			3122.7,137.4 3124.3,135.8 3122.7,134.2 3116.3,134.2 3106.7,132.6 3103.5,132.6 3095.5,135.8 3085.9,135.8 3081.1,134.2 
			3077.9,134.2 		"/>
		<path d="M2885.9,29.1v-8.3l1.6-6.5l-1.6-9.9l-1.8-4.3h-60.4l13.7,16.2l-1.5,1.4l-4.9-5.7c-0.4-0.5-1.1-0.5-1.6-0.1c0,0,0,0,0,0
			c-0.5,0.4-0.5,1.1-0.1,1.6l5,5.7l1.5,1.7l4.4,5.1c0.2,0.2,0.5,0.4,0.9,0.4c0.3,0,0.5-0.1,0.7-0.3c0.5-0.4,0.5-1.1,0.1-1.6
			c0,0,0,0,0,0l-4.5-5.2l1.5-1.4l13.6,16.1h6.4v7.3h2.8V34h6.6v7.6h2.9V34h6.3v3.3h2.8V34h6.8L2885.9,29.1"/>
		<path d="M3033.1,244.7l2.6,13.2l70.4,71.7l12.7,12.8c1.2,1.3,3.2,1.3,4.4,0.1c1.3-1.2,1.3-3.2,0.1-4.4l-12.5-13.1
			c9.7-9.4,19.4-18.7,29.1-28.1c-0.4-1.8-0.9-3.7-1.3-5.5c-2.6-0.4-5.1-0.8-7.7-1.2l-5.1,0.8l-6.4,4.8l-6.4,1.6l-6.4,3.2h-6.4
			l-11.2-8l-12.8-11.2l-1.6-1.6v-2.4l1.6-0.8l-4.8-8l-3.2-1.6l-6.4-1.6l-4.8-1.6l-12.8-9.6L3033.1,244.7"/>
		<path d="M1517.8,22.6l0.9,3.3l15.5-4l2.1,9.8l1.6,6.3l-3.4,22.7l-0.5,8.2l1.4,10.4l-17.3,1.3l2.2,24.7l2.9,5.6
			c0.2,0.5,0.7,0.8,1.3,0.8c0.2,0,0.4-0.1,0.7-0.1c0.7-0.4,1-1.2,0.6-1.9l-2.6-5.1l-1.9-21.3l14.4-1.1h0.1l1.6,11.8l0.5,11.9
			l0.2,0.7l-5.1,1.2l-0.1-1.6l-2.8,0.3l0.3,3.2l0.8,1.5l7.6-1.8l2.3,9.8l-48.2,9.3c-1.4,0.3-2.3,1.6-2,3c0.2,1.2,1.3,2.1,2.5,2.1
			c0.2,0,0.3,0,0.5-0.1l48.4-9.4l0.1,0.5l1.6-0.2l4.2,20l-43.7,8.5c-1.2,0.2-2,1.4-1.8,2.7c0.2,1.1,1.1,1.8,2.2,1.8
			c0.1,0,0.3,0,0.4,0l43.7-8.5l2.7,13l-6.1,1.1l0.6,4.2l-30.7,5.9c-1.2,0.2-2,1.4-1.8,2.7c0.2,1.1,1.1,1.8,2.2,1.8
			c0.1,0,0.3,0,0.4,0l37.1-7.2l4.7,22.5l2.9,16.6l0,0l0,0.3l0.1,0.8l1.2,13l0.4,4l0,0l1,11.3l1.2,6.2l-2.2,1v3l-8.1,9.7
			c-1.1,1-1.1,2.7-0.1,3.7s2.7,1.1,3.7,0.1c0.1-0.1,0.3-0.3,0.4-0.5l8.4-10.2l7,8.9l-8.6,10.4c-1.1,1-1.1,2.7-0.1,3.7
			s2.7,1.1,3.7,0.1c0.1-0.1,0.3-0.3,0.4-0.5l9.9-11.9l-3.9-5.3l5.7,7.5l19.6-0.5l4.9,4.2l4.4,4l56.8-4.5l8.5,7.9l36.9-3.2l29.2-30.7
			l10.7-29l4-6.4l100-90.7l30.3-0.4l0.2,29.8l2.4,4.2l3.4,0.7l3.2-0.6l2.4-2.6l0.8-137.3l6,2.4l8.9,6.3l3.8-4.9l-9.8-6.3l-3.9-4.5
			l2-2.8h-115l-1.2,6.2l-7.8,11.8l-3.9,5.9l-5.9,2l-5.9-3.9l-5.8-2l-4,3.9l-3.9,17.7l-5.9,19.6l-3.9,13.7l-5.9,13.7l-3.9,9.8
			l-3.9,13.7l-3.9,15.7l-2,13.7l-2,7.8l3.9,11.8l3.9,5.9v11.8l-3.9,9.8l-7.8,11.8l-9.7,9.8h-9.8l-3.9-5.9v-4.5l-7.8-7.2l-2-5.9
			l-3.9-9.8l-3.9-5.9h-13.7l-5.9,2h-25.5l-7.8,3.9l-9.8,2l-7.8,7.9l-2,7.8l-7.8,3.9l-2,7.9l-3.9,5.9h-3.9l-3.9-3.9V203l-2-8.4
			l-2-5.9v-7.5l-2-4.2l-2-7.8l-3.9-7.8l-2-3.9l-2-7.8l-2-13.7l3.9-7.8v-17.6l-2-7.8l-3.9-7.9l-3.9-7.8v-19l-2-14.3l-2-11.8V31l2-11
			l2-11.8l-2-7.8l-0.1-0.4h-25.9l3.9,18.5L1517.8,22.6z M1568.3,250.4L1568.3,250.4l-1.6-2.2L1568.3,250.4z"/>
		<polygon points="2010.9,22.8 2025.8,31.8 2040.5,40.4 2044.2,41.2 2078.9,54.8 2087.1,61.8 2094.3,61.8 2126.9,37.6 2120.5,15.6 
			2123.8,0 2098.1,0 2098.1,0.4 2096.5,6.8 2093.3,10 2091.7,10.9 2087.2,10.4 2081.7,6.3 2073.8,2.3 2069.9,0.3 2069.6,0 1980.1,0 
					"/>
		<polygon points="2642.5,28.3 2669.5,0 2606.5,0 2635.1,28.3 		"/>
		<polygon points="1562.3,223.7 1561,209.9 1561,209.6 1560.9,209.6 1480.3,226.7 1483.2,243.7 1562.7,227.7 1562.7,227.7 		"/>
	</g>
	<g>
		<polygon points="564.5,828.4 564.5,823.6 566.1,815.6 569.4,810.8 572.6,802.8 572.6,796.3 569.4,788.3 564.5,786.7 558.1,785.1 
			554.9,783.5 553.3,785.1 548.5,788.3 540.5,791.6 535.6,794.8 530.8,794.8 524.4,796.4 516.4,798 505.8,796.4 500.3,796.4 
			522.1,825.7 604.1,976.6 602.7,967.8 601.6,963.5 600,960.3 603.2,955.5 604.8,944.2 606.4,936.2 609.7,928.2 608.1,926.6 
			606.5,919.5 606.5,913.7 601.6,903.4 601.6,896.1 598.4,894.5 595.2,891.2 594.4,884.4 592,878.4 590.7,875.1 588.7,873.5 
			582.3,875.1 580.7,873.5 579.1,868.7 577.5,867.1 571.1,862.3 566.2,857.5 564.6,852.6 566.2,849.4 564.6,846.2 561.4,844.6 
			558.2,843 558.2,839.8 559.8,838.2 559.8,836.6 558.2,835 561.3,831.6 		"/>
		<path d="M3454.8,957.1l-4.3,5.7l-3.8,4.4l-25.9,25.7l-6.6,2.7l-6.7,1.8l-6.6,0.4l-3-0.7l-1.6-2.9l-1.6-2.4l-2.3-3.6l-2.6-3.9
			l3.1-0.3l5.4-1.4l4.6-1l6.2-1.8l5.6-2.2l5.7-5.2l2.1-4l0.1-3.6l0.2-5.3l-3.8-4.4l-0.7-5.1l-4.4-4.7l-2-8.3l-7.1-5.7l-7.1-1.4
			l-7.1,1.4l-4.3,2l-3.7,1.8l-2.3,1.6l-3.4,1.3l-3,0.9l-9.3,0.8l-7.8-1.7l-0.4-4l-0.3-7l-1.1-48l-18.9-24.5l-5.8-19.3l-13.6-53.7
			v-4.2l-2.8-1.4l-2.8,1.4l-14.9,16.3l13.4,47.3l-40.1,31.1h-6.6l-8.5-1.4l-4.2-5.7l-6.6-8.2l-6-5.7l-11.7,0.4l-9,2l-12,0.2h-9.9
			l1.4-4.2l5.6-9.9l5.6-12.7l12.7-12.7l5.6-5.7l5.6-4.2l4.3-4.2l2.8-5.7v-5.7l1.4-5.7l2.8-5.7l5.7-8.5l5.6-4.2l7.1-2.8l7.2-2.2
			l8.3-4.9L3226,690l-3.6-5l-3.2,1.9l-3.4,1.2l-4-3.3v-3.6l0.8-4.3l3.4-1.1l3-2.3l-2.6-10l-14.9-58.8l-2.4,5.9l11.7,51.6l-3.9,3.4
			l-2.8,2.8l-3.6,3.2l-3.6-5.3l-3.8-3.1l-4.5-6.2l-5.6-5.7l-4.2-1.4l-4.5-5.5l-6-6.2l-5-5.3v-18.4l-1.4-7.1l-2.8-7.1l-2.4-0.8
			l-4,2.3l-3.2,1.6l-4.8,4.8l-3.2,1.6l-6.4,1.6h-3.2l-6.5,4.8h-1.6l-3.2,1.6l-8.1,9.7l-1.6,4.8v6.5l3.2,3.2l8.1,11.3v1.6l3.2,4.8
			l8.1,9.7l1.6,3.2l1.6,3.2l4.8,4.8l6.4,8.1l1.6,8.1l1.6,4.8l3.2,4.8l6.4,4.8h4.8l4.8-1.6l6.5-1.6l17.8-4.8h3.3l4.9,1.6h3.2l1.6-1.6
			l6.4-6.5h1.6v6.5l1.6,4.8l-1.6,8.1l-1.6,3.2v1.6l-1.6,1.6h-4.8l-1.6,1.6l-3.2,1.6l-1.6,3.2h-1.6l-4.8-3.2l-1.6-1.6l-1.6,1.6
			l-1.6,3.2l-3.2,6.5l-4.9,3.2h-3.2l-1.6,1.6l1.6,3.2l-1.6,4.8l-6.5,8.1l-4.8,3.2l-6.4,8.1l-1.6,4.8v4.8l3.2,4.8l-1.6,1.6l-4.8,9.7
			l-1.6,9.7l-1.6,3.2l-8.1,4.8v3.2l1.6,6.5l-1.6,3.2v3.2l1.6,3.2l3.2,1.6l1.6,3.2v1.7l1.6,1.6l-4.8,3.2l-4.8,4.8v4.8l-3.2,1.6
			l-3.2,1.6v3.2l1.6,6.5l-1.6,4.8l-3.2,4.8l-3.2,8.1l-3.2,11.3l-4.8,3.2v3.2l1.6,3.2l3.2,9.7l6.5,12.9l3.2,4.8l1.6,3.2h3.2l3.2-3.2
			l6.5-1.6l1.6,3.2v3.2l-1.6,9.7l-1.6,4.8l-6.4,12.9l-3.2,1.6h-3.2l-6.5,3.2l-4.8-1.6l-8.1-4.8v-4.8l1.6-3.2l1.6-4.8v-3.2l-1.6-1.6
			l-4.8-3.2h-1.6l-1.6,3.2l-1.6,1.6l-3.2,1.6h-4.8l-3.2-3.2l1.6-4.8l1.6-4.8v-4.8l-1.6-3.2h-1.6v4.8h-6.4l-4.8-3.2h-1.6l-1.6,3.2
			l-1.6,1.6v3.2l1.6,1.6h-4.8l-3.2,3.2l1.6,1.6l1.6,1.6v3.2l1.6,3.2l1.6,4.8l-1.6,3.2v1.6l3.2,4.8l3.2,3.2l1.6,4.8l3.2,6.5l1.6,1.6
			h8.1l1.6,1.6l4.8,8.1h9.7l3.2,3.2l1.6,4.8v4.8h6.5l8.1,4.8v3.2h6.5l4.8-1.6l8.1,1.6l11.3-8.1h3.2l4.8-3.2h3.2l6.4-6.5l6.5-3.2
			l6.5-8.1l6.5-1.6h9.7l6.5-1.6l8.1-3.2l3.2-5.9l1.6-0.5l9.7-4.8l9.7-4.8l3.2-4.8l12.9-12.9h1.6l3.2,3.2h3.2l4.8-1.6h4.8l1.6-4.8
			l6.4-3.2l11.3-3.2v-1.6l4.8-3.2h6.5l3.3-1.6l3.2,3.2h6.4l3.2,1.6l4.8,4.8h1.7l3.2-1.6l1.6,1.6l5.3,4.2l4.7,3.3l5.5,5.8l4.5,6.6
			c0,0,3.1,3.7,3.6,4.1c0.5,0.3,3.8,2.3,3.8,2.3l1.7,3.3v2.3l0.6,2.3l1.9,3.2l10.4,15l4.7,5.7l1.6,1.6l3.2,4.8l6.5,14.5l1.6,3.2
			l-1.6,3.2l1.6,3.2v4.8l1.6,3.2l6.5,4.8h1.6l1.6-4.8l3.2-3.2l4.8-1.6l4.8-3.2l8.1-4.8l8.1-8.1l9.7-6.5l6.4-6.5l4.8-11.3l3.3-12.9
			l-0.8-4.3L3454.8,957.1z"/>
	</g>
</g>
<g>
	<g>
		<defs>
			<rect id="SVGID_1_" width="3840" height="1080"/>
		</defs>
		<clipPath id="SVGID_2_">
			<use xlink:href="#SVGID_1_"  style="overflow:visible;"/>
		</clipPath>
		<g class="st2">
			<g id="HKI_2019">
				<polyline class="st3" points="684.1,1088.2 679.7,1079.1 676,1071.3 672.6,1063.5 669.9,1058.7 668.2,1056.4 667.5,1054.5 				
					"/>
				<polyline class="st4" points="667.2,1051.1 667.2,1048.1 667.9,1047.3 665.3,1044.4 				"/>
				<polyline class="st4" points="664.6,1038.6 664.6,1037.5 665.3,1034.7 				"/>
				<polyline class="st4" points="2927.5,427.9 2929.5,427.6 2931.5,427.6 				"/>
				<polyline class="st5" points="2939.6,427.6 2942.1,427.9 2945.9,428.5 2951.9,430.2 2954.5,431 2957.6,432.5 2965.6,435.9 
					3017.8,458.8 3025,462.3 3030.7,465.4 3032.7,466.9 3035.6,468.9 3037,470 3038.6,471.4 				"/>
				<polyline class="st4" points="3041.5,474.3 3044.2,477.2 3041.3,479.8 3039.3,477.5 3038.6,476.8 				"/>
				<polyline class="st6" points="3032.8,471.7 3029.3,469.1 3023.6,465.7 2991.7,451.4 2976.8,445.1 2955,435.3 2949.6,433.6 
					2944.7,432.5 2941.6,431.9 2938.7,431.6 2937.3,431.6 2936.7,431.6 2935.3,431.6 2933.8,431.6 2933,431.6 2930.7,431.9 
					2928.1,431.9 2926.9,432.2 2923.5,431.6 2922.4,431.3 2921.2,431 2921,430.9 				"/>
				<polyline class="st4" points="2917.5,429.2 2917.2,429 2914.9,428.2 2913.8,427.9 2913.5,427 2912.9,426.1 2912.9,425.6 
					2913.2,425 2913.5,424.1 2914.1,423.6 2915.2,423.6 2916.6,423.9 2917.9,424.4 				"/>
				<polyline class="st4" points="2923.6,427 2924.6,427.3 2926.1,427.6 2927.5,427.9 				"/>
				<polyline class="st4" points="2941.3,445.4 2940.4,445.6 2939.6,445.6 2938.4,445.4 2937.4,445.4 				"/>
				<polyline class="st7" points="2928.8,445.7 2926.7,445.9 2925.2,446.2 2924.1,446.5 2921.2,447.4 2918.6,448.2 2915.8,450 
					2914.1,450.8 2912,452.2 2910.3,453.4 2908.3,455.1 2905.2,458 2903.7,459.4 2902.9,460.5 2902,461.4 2901.4,462 2900.6,462.3 
					2899.7,462.6 2898.9,462.3 2898.3,461.4 2898.3,460.8 2898.9,459.7 2899.4,459.1 2900.6,458 2902,456.5 2903.4,455.1 
					2905.2,453.4 2906.3,452.2 2908,450.8 2909.5,449.7 2912.3,447.9 2914.1,447.1 2915.8,446.2 2917.2,445.6 2920.1,444.2 
					2921.5,443.9 2922.9,443.4 2924.4,443.1 2925.8,442.8 2927.2,442.5 2928.9,442.2 2931,442.2 2933,442.2 2935.6,442.2 
					2936.2,442.2 				"/>
				<polyline class="st4" points="2940.4,442.3 2941,442.5 2941.6,442.8 2941.9,443.4 2942.1,443.9 2942.1,444.5 2941.9,445.4 
					2941.3,445.4 				"/>
				<polyline class="st4" points="2884.2,460.3 2883.7,460.3 2882.5,460 2879.8,462.9 				"/>
				<polyline class="st4" points="2879,463.7 2876.2,466.6 2875.9,466.6 2875.6,466 2878.5,463.2 				"/>
				<polyline class="st4" points="2880.4,461.2 2882.2,459.4 2882.2,458.8 2882.2,458.5 2882.2,458 2883.9,456.3 2885.1,455.1 				
					"/>
				<polyline class="st8" points="2889.6,450.9 2890,450.5 2891.1,449.1 2892.3,447.6 2894.3,445.6 2895.9,444 				"/>
				<polyline class="st4" points="2898.3,442 2898.9,441.6 2900,441.1 2900.6,441.1 2901.1,441.4 2901.7,441.9 2901.7,442.5 
					2901.4,443.4 2900.9,443.9 2900.3,444.8 2899.7,445.2 				"/>
				<polyline class="st9" points="2895.5,449.3 2893.1,451.7 2890.3,454.3 2889.1,455.4 				"/>
				<polyline class="st4" points="2887.1,457.5 2886.2,458.5 2884.8,459.7 2884.2,460.3 				"/>
				<line class="st4" x1="3167.2" y1="581" x2="3170.4" y2="583.4"/>
				<polyline class="st10" points="3176.7,588.1 3204.6,609 3207.5,615.9 3222.3,678.3 				"/>
				<polyline class="st4" points="3223.2,682.2 3223.3,682.4 3223.3,684.4 3222.7,686.1 3225.1,689.3 				"/>
				<polyline class="st11" points="3230.4,696 3237.6,705.3 3240.2,708.5 3248.8,719.5 				"/>
				<polyline class="st4" points="3251.5,722.8 3253.9,725.9 3257.1,723.4 3256.5,719.4 				"/>
				<polyline class="st4" points="3255.6,713 3255.1,709 3256.2,709 3256.8,713 				"/>
				<polyline class="st4" points="3257.7,720 3258.2,723.9 3257.1,724.2 3254.2,726.5 3256.7,729.7 				"/>
				<line class="st12" x1="3261.5" y1="735.8" x2="3278.9" y2="756.5"/>
				<polyline class="st4" points="3281.4,759.5 3284,762.6 3281.4,765.6 				"/>
				<line class="st13" x1="3276.4" y1="771.4" x2="3229.8" y2="826.1"/>
				<polyline class="st4" points="3227.3,829 3224.7,832 3227.2,835.1 				"/>
				<polyline class="st14" points="3232.4,841.6 3255.6,870.5 3264.1,871.9 3270.7,871.9 3305.1,845.6 				"/>
				<polyline class="st4" points="3308.4,843 3311.6,840.6 3310.5,836.8 				"/>
				<line class="st15" x1="3308.2" y1="828.8" x2="3300.3" y2="801.1"/>
				<polyline class="st4" points="3299.2,797.2 3298.1,793.3 3300.7,790.3 				"/>
				<line class="st16" x1="3303.6" y1="786.8" x2="3308.1" y2="781.7"/>
				<polyline class="st4" points="3309.5,780 3312.1,777 3311,773.1 				"/>
				<polyline class="st17" points="3309.2,767 3305.5,754.9 3301.5,747.7 3300.7,746.7 				"/>
				<polyline class="st4" points="3298.6,744.2 3296.1,741.1 3296.7,739.4 3298.7,739.4 3301.1,742.6 				"/>
				<polyline class="st18" points="3305.7,749 3309.3,756 3316.1,779.3 3315.3,781.3 3330.6,835.3 				"/>
				<polyline class="st4" points="3331.7,839.1 3332.8,842.9 3333.9,842.3 3335.1,846.6 3333.9,846.9 3335.1,850.8 				"/>
				<line class="st19" x1="3339.8" y1="859.3" x2="3349" y2="871.1"/>
				<polyline class="st4" points="3352.1,875 3354.6,878.2 3357.4,875.3 				"/>
				<line class="st20" x1="3362.4" y1="870.2" x2="3379.9" y2="852.3"/>
				<polyline class="st4" points="3382.4,849.8 3385.2,846.9 3388,849.8 				"/>
				<line class="st21" x1="3393.4" y1="855.3" x2="3465.5" y2="929.6"/>
				<line class="st4" x1="3468.2" y1="932.4" x2="3471" y2="935.2"/>
				<polyline class="st4" points="1896.2,449.8 1895.9,449.8 1895.6,449.8 1895.3,449.8 1895.3,449.5 1895.1,449.5 1895.1,449.3 
					1894.8,449.3 1894.8,449 1894.5,449 1894.5,448.7 1894.5,448.4 1894.5,448.1 1894.5,447.8 1894.5,447.5 1894.5,447.3 
					1894.5,447 1894.8,447 1894.8,446.7 1895.1,446.7 1895.1,446.4 1895.3,446.4 1895.6,446.1 1899.1,445.1 				"/>
				<line class="st22" x1="1906.3" y1="443" x2="1989.7" y2="419.1"/>
				<polyline class="st4" points="1993.3,418 1995.4,417.4 1995.7,417.4 1995.9,417.4 1996.2,417.4 1996.5,417.7 1996.8,417.7 
					1997.1,417.7 1997.1,418 1997.4,418 1997.4,418.3 1997.7,418.6 1997.7,418.9 1997.7,419.1 1997.9,419.4 1997.9,419.7 
					1997.7,419.7 1997.7,420 1997.7,420.3 1997.4,420.5 1997.4,420.8 1997.1,420.8 1997.1,421.1 1996.8,421.1 1996.5,421.1 
					1994.2,422 1993.3,422.3 				"/>
				<line class="st23" x1="1986.1" y1="424.3" x2="1903.7" y2="447.9"/>
				<polyline class="st4" points="1900.1,448.9 1896.8,449.8 1896.5,449.8 1896.2,449.8 				"/>
				<polyline class="st4" points="1202.7,388.1 1202,391 1201.1,391.5 1197.3,390.4 				"/>
				<polyline class="st4" points="1191.2,388.7 1188.1,387.8 1187.5,387.2 1188.7,383.4 				"/>
				<polyline class="st4" points="1189.8,379.3 1190.7,376.2 1191.3,375.6 1195.2,376.7 				"/>
				<polyline class="st4" points="1201.4,378.4 1204.3,379.1 1204.9,380 1203.8,383.9 				"/>
				<line class="st4" x1="429.8" y1="569.3" x2="433.1" y2="567"/>
				<polyline class="st24" points="438.7,561.2 441.2,557.6 446.5,550.6 476.3,538.8 521.8,522.5 				"/>
				<polyline class="st4" points="525.7,521.1 529.4,519.7 528.1,516 				"/>
				<polyline class="st4" points="523.6,505.4 521.4,502 524.7,499.8 				"/>
				<line class="st25" x1="532.8" y1="494.2" x2="544.9" y2="485.8"/>
				<polyline class="st4" points="548.9,483 552.2,480.7 556,486.2 552.7,488.5 				"/>
				<line class="st26" x1="546.4" y1="492.8" x2="537" y2="499.3"/>
				<polyline class="st4" points="533.9,501.5 530.6,503.8 532,507.5 				"/>
				<polyline class="st4" points="534.3,513.6 535.7,517.3 539.5,516 				"/>
				<polyline class="st27" points="546.4,513.3 547.2,513.1 570.7,504.2 				"/>
				<polyline class="st4" points="574.2,502.9 577.9,501.5 576,494 578.6,493.3 580.5,499.7 580.7,500.5 584.4,499.1 				"/>
				<line class="st28" x1="592" y1="497" x2="603.8" y2="494.9"/>
				<polyline class="st4" points="607.7,494.2 611.6,493.5 611,489.7 608,490.2 607.5,487.1 611.5,486.4 				"/>
				<polyline class="st4" points="613,486.2 617,485.5 617.5,488.6 614.2,489.2 614.7,492.9 618.6,492.2 				"/>
				<polyline class="st28" points="626.5,490.8 629.9,490.2 640.9,480 650.5,470.7 667.6,454.2 744.2,391 				"/>
				<polyline class="st4" points="747.2,388.5 750.3,385.9 754.3,386.5 				"/>
				<line class="st29" x1="763.5" y1="388" x2="795.9" y2="393.1"/>
				<polyline class="st4" points="800.6,393.9 804.5,394.5 803.3,390.7 				"/>
				<line class="st30" x1="802.1" y1="386.8" x2="800.2" y2="381"/>
				<polyline class="st4" points="799.6,379.1 798.4,375.3 794.5,374.6 				"/>
				<line class="st31" x1="786.9" y1="373.3" x2="745.2" y2="366"/>
				<polyline class="st4" points="741.4,365.3 737.5,364.6 738.4,357.4 742.3,358.1 				"/>
				<polyline class="st26" points="749.8,359.4 786.2,365.9 805.8,361.2 				"/>
				<polyline class="st4" points="809.5,360.3 813.4,359.4 812.3,355.5 				"/>
				<polyline class="st4" points="812.2,355 811.1,351.1 814.2,350.3 815.3,354.1 				"/>
				<polyline class="st4" points="815.4,354.7 816.5,358.5 820.4,357.5 				"/>
				<polyline class="st4" points="828.3,355.3 832.2,354.3 831.1,350.4 				"/>
				<polyline class="st4" points="831,349.8 829.9,346 833,345.1 834.1,349 				"/>
				<polyline class="st4" points="834.3,349.5 835.3,353.4 839.2,352.4 				"/>
				<line class="st32" x1="843.2" y1="351.4" x2="849.2" y2="349.8"/>
				<polyline class="st4" points="851.2,349.3 855,348.3 854.1,344.4 				"/>
				<polyline class="st4" points="853.9,343.6 853,339.7 856.2,338.9 857.2,342.7 				"/>
				<polyline class="st4" points="857.4,343.5 858.4,347.4 862.3,346.4 				"/>
				<line class="st33" x1="868.7" y1="344.6" x2="878.2" y2="341.9"/>
				<polyline class="st4" points="881.4,341.1 885.3,340 884.4,336.6 885.3,336.3 884.1,331.7 883,332 883,331.7 886.1,330.9 
					886.4,331.1 885.3,331.4 886.4,336 887.5,335.7 888.4,339.1 892.3,338.1 				"/>
				<polyline class="st4" points="892.8,337.9 896.7,336.9 895.7,333 				"/>
				<polyline class="st4" points="895.6,332.5 894.7,328.6 896.7,328 897.7,331.9 				"/>
				<polyline class="st4" points="897.9,332.4 899,336.3 902.8,335.3 				"/>
				<polyline class="st28" points="910.5,333.4 934.2,327.4 1047.9,331.8 1051.8,333.1 1148,358.8 1163,377.8 				"/>
				<polyline class="st4" points="1165.5,380.9 1167.4,383.4 1168.2,383.6 1169.4,383.1 1172,383.8 				"/>
				<polyline class="st4" points="1180.3,386 1184.2,387.1 1185.1,386.5 1185.8,383.6 				"/>
				<polyline class="st4" points="1186.9,379.5 1187.9,375.6 1187.3,374.8 1181.4,373.4 1181.4,372.5 1181.6,370.5 1180.8,370.2 
					1180.2,372.2 1176.4,371.1 				"/>
				<polyline class="st4" points="1174.8,368.9 1174.2,367.9 1174.8,365.1 1177.9,363.4 1178.2,363.4 1178.3,363.4 				"/>
				<polyline class="st4" points="1178.4,363.4 1182.2,364.5 1181.9,366.5 1182.8,366.5 1183.3,364.8 1183.6,364 1187.5,365 				"/>
				<line class="st34" x1="1192.6" y1="366.4" x2="1200.3" y2="368.5"/>
				<polyline class="st4" points="1202.9,369.2 1206.7,370.2 1207.3,369.7 1208.2,366.6 				"/>
				<polyline class="st4" points="1209.3,362.4 1210.2,359.1 1209.9,358.5 1205,357.1 1205.6,355.1 1204.8,354.8 1204.2,356.8 
					1202.5,356.5 1203,354.3 1202.2,354.3 1201.9,356.3 1198,355.2 				"/>
				<line class="st35" x1="1193.8" y1="354.1" x2="1187.4" y2="352.4"/>
				<polyline class="st4" points="1185.2,351.9 1181.4,350.8 1179.6,347.7 1180.5,344.8 1181.4,344.3 1185.2,345.3 				"/>
				<polyline class="st36" points="1193.3,347.5 1213.3,352.8 1221.5,355.2 				"/>
				<polyline class="st4" points="1225.6,356.3 1228.4,357.1 1229,358 1228.1,360.8 1227.2,361.3 				"/>
				<polyline class="st4" points="1225.7,362.2 1225,362.5 1221.9,361.7 1222.4,359.4 1221.3,359.4 1220.7,361.4 1219.3,360.8 
					1219.9,358.8 1219,358.5 1218.4,360.8 1213.6,359.4 1213,359.7 1212,363.5 				"/>
				<polyline class="st4" points="1211,367.3 1210.2,370.5 1210.4,371.1 1216.7,372.8 1216.4,373.6 1216.7,373.9 1216.2,375.6 
					1217,375.9 1217.6,373.9 1221.9,375.1 1223.6,378.2 1222.7,381.1 1219.9,382.8 1215.6,381.6 1215.9,379.9 1215.3,379.6 
					1214.7,381.4 1214.4,381.4 1214.2,382.2 1208.2,380.5 1207.3,381.1 1206.6,383.9 				"/>
				<polyline class="st4" points="1205.3,388.7 1204.5,391.9 1204.8,392.5 1208.6,393.5 				"/>
				<polyline class="st37" points="1216.7,395.5 1236.1,400.5 1244.3,403.8 1244.4,403.8 				"/>
				<polyline class="st4" points="1247.8,406.1 1251.2,408.3 1254,405.5 				"/>
				<line class="st38" x1="1260" y1="399.3" x2="1281.2" y2="377.4"/>
				<polyline class="st4" points="1284.2,374.3 1287,371.4 1289.2,372 1288.2,375.8 				"/>
				<polyline class="st4" points="1286.3,382.6 1285.3,386.5 1292.4,388.4 1293.8,391 1298.3,392.1 1299.7,391.6 1300.8,387.7 				
					"/>
				<polyline class="st4" points="1302.9,379.8 1304,375.9 1309.7,377.4 1308.6,381.2 				"/>
				<polyline class="st4" points="1306.5,389.1 1305.4,393 1305.7,393 1306.6,394.4 1310.4,395.4 				"/>
				<polyline class="st4" points="1315.2,396.6 1319.1,397.5 1320.2,396.7 1320.9,394.2 				"/>
				<polyline class="st4" points="1323.4,384.5 1324.2,381.6 1325,381 1329.9,382.5 1330.4,383 1329.4,386.9 				"/>
				<polyline class="st4" points="1327.2,394.8 1326.2,398.7 1327,399.5 1329.7,400.2 				"/>
				<polyline class="st4" points="1337.5,402.1 1339.8,402.6 1341.2,401.8 1342.2,397.9 				"/>
				<polyline class="st4" points="1344.1,390.5 1344.9,387 1345.2,386.7 1345.5,386.7 1345.5,386.5 1345.8,386.5 1350.3,387.9 
					1350.6,387.9 1350.6,388.1 1350.9,388.1 1350.9,388.4 1349.9,392 				"/>
				<polyline class="st4" points="1347.9,399.4 1346.9,403.2 1347.8,404.6 1350,405.3 				"/>
				<polyline class="st4" points="1357.9,407.6 1360.3,408.3 1361.7,407.8 1362.9,403.9 				"/>
				<polyline class="st4" points="1365.1,396.5 1366.2,393 1366.2,392.7 1366.5,392.7 1366.8,392.4 1367.4,392.7 1370.6,393.6 				
					"/>
				<line class="st39" x1="1371.2" y1="397.1" x2="1369.2" y2="403.5"/>
				<polyline class="st4" points="1368.6,405.6 1367.4,409.5 1368.2,410.6 1367.9,411.2 1371.7,412.5 				"/>
				<polyline class="st4" points="1376.7,414.1 1380.4,415.4 1380.7,414.9 1381.9,414.3 1382.6,412.3 				"/>
				<polyline class="st4" points="1386,403.3 1387.3,399.8 1387.3,399.5 1387.6,399.5 1387.8,399.5 1388.1,399.5 1392.4,400.9 
					1392.7,401.2 1392.9,401.2 1392.9,401.5 1392.9,401.8 1391.8,405 				"/>
				<polyline class="st4" points="1388.9,412.5 1387.6,416.3 1388.4,417.7 1388.1,418 1391.8,419.5 				"/>
				<polyline class="st4" points="1396.6,421.4 1400.3,422.8 1400.6,422.5 1402,421.7 1402.8,419.9 				"/>
				<polyline class="st4" points="1406.5,410.7 1407.7,407.8 1408,407.5 1408.3,407.2 1408.6,407.2 1412,408.7 				"/>
				<line class="st40" x1="1412.3" y1="412.8" x2="1409.4" y2="419.9"/>
				<polyline class="st4" points="1408.4,422.3 1407.7,424 1408.3,425.7 1408.3,426.1 1410,426.8 1411.9,427.6 				"/>
				<polyline class="st4" points="1416,429.5 1419.7,431.1 1421.7,429.9 1422.3,428.4 				"/>
				<polyline class="st4" points="1426.1,419.4 1427.6,415.7 1433.3,418 1431.8,421.7 				"/>
				<polyline class="st41" points="1429.6,426.9 1427.3,432.2 1428.3,434.7 				"/>
				<polyline class="st4" points="1429.3,437.3 1430.7,441 1434.5,439.7 				"/>
				<polyline class="st4" points="1443.9,436.4 1444.7,436.2 1445.2,436.2 1445.5,436.2 1446.1,436.5 1446.4,436.5 1446.7,436.8 
					1446.9,437.3 1447.2,437.6 1447.2,438.2 1447.2,438.5 1446.9,439 1446.7,439.6 1446.4,439.9 1445.8,439.9 1442.6,441 				"/>
				<polyline class="st4" points="1435.7,443.4 1431.9,444.7 1433.2,448.5 				"/>
				<polyline class="st4" points="1435.3,454.3 1436.7,458.1 1440.5,456.8 				"/>
				<polyline class="st4" points="1447.9,454.2 1450.6,453.2 1450.9,453.2 1451.2,453.2 1451.5,453.2 1451.8,453.2 1452.1,453.5 
					1452.3,453.5 1452.6,453.8 1452.6,454.1 1452.9,454.4 1452.9,454.6 1453.2,454.9 1453.2,455.2 1453.2,455.5 1452.9,455.8 
					1452.9,456.1 1452.6,456.4 1452.3,456.6 1452.1,456.9 1451.5,457.2 1450.6,457.5 				"/>
				<polyline class="st4" points="1441.6,460.5 1437.8,461.8 1439.2,465.5 				"/>
				<polyline class="st42" points="1440.8,470.2 1441.8,473.1 1445.4,475.5 				"/>
				<polyline class="st4" points="1447.5,476.8 1450.6,478.8 1450.9,478.8 1451.5,481.4 1455.2,482.9 				"/>
				<polyline class="st43" points="1462.8,485.9 1481,493.3 1487,495.6 1489.3,496.7 1491.8,497.6 1498.7,500.4 1501.8,501.5 
					1504.5,502.5 				"/>
				<polyline class="st4" points="1508.3,504 1512,505.5 1514.6,504.1 1515.6,504.3 				"/>
				<polyline class="st14" points="1523.8,505.9 1530.2,507.2 1535.3,507.8 1537.3,508.1 1540.2,508.4 1544.4,508.6 1546.4,508.9 
					1548.9,509.2 1551.8,512.3 1553.8,514 1556.1,515.5 1558.1,516.6 1560,517.2 1561.7,517.5 1570.3,517.5 1579.1,518 1579.9,518 
					1591,521.1 1601.2,523.7 1606.9,524.5 1610.3,524.8 1613.5,524.8 1617.7,524 1621.4,522.8 1624,521.7 1627.1,520.3 
					1629.4,518.9 1631.1,516.9 1633.3,514 1634.5,512.3 1635.9,510.1 1636.2,509.2 1637.3,507.5 1637.6,506.4 1638.8,504.4 
					1639.3,503 1640.2,501.5 1641,500.7 1642.7,498.7 1644.7,497 1646.7,495.3 1648.2,490.5 				"/>
				<polyline class="st4" points="1649.5,486.6 1650.7,482.8 1650.4,482.8 1650.1,482.5 1649.8,482.2 1649.6,481.9 1649.3,481.4 
					1649.3,481.1 1649.3,480.8 1649.3,480.2 1649.3,479.9 1649.6,479.7 1649.8,479.4 1652.1,477.1 				"/>
				<polyline class="st44" points="1659.7,471.9 1660.1,471.7 1661.8,470.9 1663.5,470.3 1664.9,470 1666.6,469.7 1668,469.4 
					1669.7,469.4 1672.6,469.4 1674.6,469.7 1677.4,470.3 1679.4,470.9 1681.1,471.4 1682.2,472 1683.4,472.5 1684.2,472.8 
					1685.1,473.4 1690.9,473.4 				"/>
				<polyline class="st4" points="1695.6,473.4 1699.6,473.4 1698.5,469.6 				"/>
				<polyline class="st45" points="1699.8,461.6 1700.1,461.5 1700.7,461.5 1701.3,461.8 1701.8,461.8 1702.4,462 1703,462.6 
					1703.3,462.9 1703.5,463.5 1703.5,463.7 1703.8,464.3 1705.9,472.4 				"/>
				<polyline class="st4" points="1707.1,476.9 1708.1,480.8 1705.8,481.4 1706.1,481.6 1706.4,481.9 1706.4,482.5 1706.4,483.1 
					1705.8,485 				"/>
				<polyline class="st4" points="1705.2,487.2 1704.1,491 1704.4,491.3 1704.7,490.7 1705.8,491 1705.5,492.4 1704.4,492.2 
					1704.4,491.9 1703.8,491.6 1703,495 1703.5,495 1703.5,494.7 1704.7,495 1704.4,496.7 1703.3,496.1 1703.3,495.6 1701.8,495.3 
					1701.8,497.3 1702,499.3 				"/>
				<polyline class="st46" points="1702.4,506.2 1702.7,510.1 1703,510.9 1703.5,512 1704.1,512.9 1704.7,513.8 1705.2,514.3 
					1705.8,515.2 1706.9,515.8 1707.8,516.3 1708.7,516.9 1709.5,517.2 1710.6,517.2 1711.5,517.2 1713.8,517.2 1715.2,517.2 
					1717.2,516.9 1733.3,515.1 				"/>
				<polyline class="st4" points="1736.8,514.8 1740.8,514.3 1740.8,514 1741.1,513.5 1741.6,512.9 1741.6,512.3 1741.4,510.6 				
					"/>
				<polyline class="st4" points="1740.3,501.3 1739.9,497.6 1739.9,497.3 1740.2,497.3 1740.2,497 1740.5,497 1740.8,496.7 
					1745.3,496.4 1745.6,496.4 1745.9,496.4 1745.9,496.7 1746.2,497 1746.6,500.6 				"/>
				<polyline class="st4" points="1747.6,509.9 1747.9,512 1749,513.5 1752.4,512.9 1753,512.8 				"/>
				<polyline class="st47" points="1760.9,511.9 1769.5,510.6 1774,510.1 1781.1,508.9 1791.3,507.5 1821.2,503 1841.4,486.2 
					1844.2,483.9 1845.3,482.8 1845.9,482.5 1846.8,482.5 1847.6,482.5 1848.5,482.8 1849,483.1 1849.6,483.4 1850.2,484.2 
					1850.4,484.8 1850.7,485.9 1850.7,486.5 1850.4,487.3 1849.9,488.2 1849.3,488.8 1833,502.6 				"/>
				<polyline class="st4" points="1829.9,505.2 1826.9,507.8 1828.2,511.5 				"/>
				<polyline class="st4" points="1832.1,522.2 1833.4,526 1837.2,524.6 				"/>
				<polyline class="st48" points="1845.6,521.6 1848.5,520.6 1867.6,506.2 1868.7,502.2 				"/>
				<polyline class="st4" points="1869.8,497.9 1869.8,493.9 1868.1,493.6 1868.1,490.2 1869.5,489.9 1869.1,485.9 				"/>
				<polyline class="st4" points="1869.1,485.9 1868.9,484.5 1869.5,481.9 1868.1,480.8 1868.4,479.4 1864.5,478.3 				"/>
				<polyline class="st4" points="1864.2,478.2 1860.4,477.1 1860.4,476.5 1864.3,477.5 				"/>
				<polyline class="st4" points="1868.9,478.7 1869.5,478.8 1870.1,478.5 1872.6,477.4 1873.2,474.5 1875.2,472.3 1879.2,472.5 
									"/>
				<polyline class="st4" points="1883,471.7 1886.8,470.6 1885.2,466.9 				"/>
				<line class="st49" x1="1883.6" y1="463" x2="1881.1" y2="457.3"/>
				<polyline class="st4" points="1880.2,455.4 1879.4,453.5 1879.7,452.7 1879.7,452.4 1880.3,451.8 1880.6,451.8 1881.1,451.5 
					1881.7,451.8 1882,452.1 1882.3,452.4 1883.3,454.7 				"/>
				<line class="st50" x1="1884.9" y1="458.5" x2="1887.3" y2="464.1"/>
				<polyline class="st4" points="1888.1,466 1889.7,469.7 1892.6,469.7 1893.6,469.3 				"/>
				<polyline class="st51" points="1901.4,467.8 1903.7,468.6 1905.9,471.9 1905.9,475.2 1903.7,478.6 1904,481.9 1903.9,486.3 
					1902.5,493 1895.5,524.8 				"/>
				<polyline class="st4" points="1896.4,528.7 1896.5,528.8 1897.1,529.7 1899.6,530.8 1903.3,529.3 				"/>
				<line class="st52" x1="1909.8" y1="526" x2="1931.1" y2="511.5"/>
				<polyline class="st4" points="1934.1,509.5 1937.4,507.2 1938,503.3 				"/>
				<polyline class="st53" points="1943.4,497.4 1954.2,488.8 1966.4,484.2 1971.5,484.8 1972.9,483.9 2021.2,470.6 2026.1,464.8 
					2029.1,456.7 2030.3,448.6 2032,440.7 2027.8,427.7 				"/>
				<polyline class="st4" points="2026.6,423.8 2026.1,422.3 2025.2,420 2026.1,419.1 2027.2,417.1 2026.1,416.3 2023.9,414.8 				
					"/>
				<line class="st54" x1="2018.1" y1="410.9" x2="1997.5" y2="397"/>
				<polyline class="st4" points="1994.7,394.8 1994.5,394.4 1994.5,393.8 1994.8,393.3 1995.1,392.7 1995.4,392.4 1995.9,392.1 
					1996.5,391.9 1997.1,392.1 1997.7,392.1 1999.9,393.7 				"/>
				<polyline class="st55" points="2004.1,396.7 2004.5,397 2010.4,401 				"/>
				<polyline class="st4" points="2012.5,402.4 2015.8,404.6 2018.5,401.6 				"/>
				<polyline class="st56" points="2023.8,395.5 2026.1,393 2051.1,364.3 2068.7,345.8 2071.5,343.3 2099.1,317.4 2099.8,316.8 				
					"/>
				<polyline class="st4" points="2102.9,314.2 2103.4,314 2104.2,313.7 2105.1,313.7 2105.9,313.7 2106.8,314 2109.5,311.1 				"/>
				<polyline class="st57" points="2114.8,305.4 2118,302 2133.6,289.7 2150.2,278.6 2166.9,273.1 2185.8,267.5 2202.6,263 
					2220.5,257.7 2235.8,257.7 2258.2,259.8 2268.9,259.8 2269.3,259.8 				"/>
				<polyline class="st4" points="2273.2,259.8 2277.2,259.8 2275.1,258 2274.8,256.8 				"/>
				<line class="st58" x1="2274.5" y1="250.8" x2="2272.4" y2="241.9"/>
				<polyline class="st4" points="2273.3,239.5 2276.6,238.8 2276.9,238.8 2277.2,238.8 2277.2,239 2277.5,239.3 2277.8,239.6 
					2278.4,242.7 				"/>
				<polyline class="st39" points="2279.3,247.1 2280.4,252.4 2281.3,253.4 				"/>
				<polyline class="st4" points="2282.1,255.4 2282.2,256.2 2281,258.9 2281,259.2 2284.9,258.1 				"/>
				<line class="st32" x1="2288.9" y1="257.1" x2="2294.9" y2="255.9"/>
				<polyline class="st4" points="2296.9,255.5 2300.9,254.7 2300,250.8 				"/>
				<polyline class="st59" points="2298,246 2298.5,244.1 2297,237.9 				"/>
				<polyline class="st4" points="2296.4,235.2 2295.5,231.6 2295.5,231.3 2295.8,231.1 2296.1,230.8 2296.4,230.5 2299.1,230 				
					"/>
				<polyline class="st60" points="2302.2,235.6 2303.8,243.2 2305,244.7 2305.4,246.1 				"/>
				<polyline class="st4" points="2305.2,249.6 2305.9,253.6 2309.7,252.3 				"/>
				<polyline class="st61" points="2318.3,249.5 2326.3,246.8 2334.4,244.5 2339.1,241.1 2347.4,239.9 2348,239.9 				"/>
				<polyline class="st4" points="2352.5,239.9 2356.5,239.9 2356.5,237.6 2357.4,236.4 2357.4,236.2 				"/>
				<polyline class="st4" points="2356.8,227.3 2356.5,223.4 2356.8,223.1 2357.1,223.1 2357.4,223.4 2357.6,226.9 				"/>
				<polyline class="st4" points="2358,236.1 2359.2,237.3 2359.2,239.6 2363.2,239.7 				"/>
				<path class="st62" d="M2371.2,240.2l25.6,4l13.3,2.2l15.6,5.6l17.8,7.8l13.3,5.6l14.4,4.4c0.6,0.4,19.6,5.1,19.6,5.1l22.3,9.5
					l23.9,14l93.8,45.7l94.4,15l58.5,27.2l52.4,50.1"/>
				<polyline class="st4" points="2839.1,439.3 2841.9,442 2843.4,440.3 2845,439.8 				"/>
				<polyline class="st4" points="2852,432.9 2854,430.9 2854.3,430.9 2854.6,430.9 2854.8,430.9 2855.1,430.9 2857.7,433.7 
					2858,434 2858,434.6 2855.2,437.4 				"/>
				<polyline class="st4" points="2848.9,443.7 2848.8,443.8 2848.2,445.8 2846.8,446.9 2849.5,449.8 				"/>
				<polyline class="st4" points="2854.2,454.9 2857,457.8 2858.4,456.7 2860.4,455.8 				"/>
				<polyline class="st4" points="2866.5,449.7 2869,447.2 2869.3,446.9 2869.6,446.9 2869.9,446.9 2870.1,447.2 2870.4,447.2 
					2872.7,449.8 2873,450.1 2873,450.4 2873,450.6 2873,450.9 2870.8,453.1 				"/>
				<polyline class="st4" points="2864.1,459.8 2864.1,459.8 2863.6,461.3 2861.8,463 2862.5,465.5 2859.6,468.4 				"/>
				<line class="st49" x1="2856.7" y1="471.3" x2="2852.2" y2="475.8"/>
				<polyline class="st4" points="2850.7,477.3 2847.9,480.1 2850.7,483 				"/>
				<line class="st20" x1="2855.7" y1="488.1" x2="2873.3" y2="506"/>
				<polyline class="st4" points="2875.8,508.5 2878.6,511.3 2879.7,511.3 2882.6,511.3 				"/>
				<polyline class="st37" points="2890.9,511.3 2950.3,511.3 2961.4,509.6 2971.5,509.6 2985.1,504.3 				"/>
				<polyline class="st4" points="2989,502.8 2992.7,501.3 2993,503.3 2996.1,502.7 2996.7,505 3000.7,504.7 				"/>
				<polyline class="st63" points="3008.3,504 3021.9,502.7 3026,499.7 3031.4,495.9 3035.2,490.5 3039.4,486.6 3043,484.3 				"/>
				<line class="st4" x1="3046.1" y1="482.1" x2="3049.4" y2="479.8"/>
				<line class="st4" x1="501" y1="796.4" x2="503.4" y2="799.6"/>
				<polyline class="st64" points="508.2,806 522.8,825.7 601,969.6 				"/>
				<line class="st4" x1="602.9" y1="973.1" x2="604.8" y2="976.6"/>
			</g>
		</g>
	</g>
</g>
<g>
	<g>
		<defs>
			<rect id="SVGID_3_" width="3840" height="1080"/>
		</defs>
		<clipPath id="SVGID_4_">
			<use xlink:href="#SVGID_3_"  style="overflow:visible;"/>
		</clipPath>
		<g class="st65">
			<g id="KLN_2019" class="st66">
				<polyline class="st4" points="1710,258.4 1709.7,254.4 1713.7,254.1 				"/>
				<polyline class="st4" points="1721,253.6 1725,253.3 1722.4,256.3 				"/>
				<line class="st67" x1="1719.8" y1="259.4" x2="1715.9" y2="264"/>
				<polyline class="st4" points="1714.6,265.5 1712,268.5 1711.7,268.5 1711.7,268.8 1711.4,268.8 1711.2,268.8 1711.2,269.1 
					1710.9,269.1 1710.6,265.1 				"/>
				<polyline class="st4" points="1705.1,269.4 1709.1,269.1 1708.8,264.8 1704.9,265.1 				"/>
				<line class="st68" x1="1698.3" y1="265.7" x2="1688.4" y2="266.5"/>
				<polyline class="st4" points="1685.1,266.8 1681.2,267.1 1680.9,263.1 				"/>
				<polyline class="st4" points="1680.4,256.6 1680,252.7 1676.5,253 1676.5,254.1 1674.7,256.3 				"/>
				<polyline class="st4" points="1671.1,260.6 1668.5,263.6 1671.5,266.3 				"/>
				<polyline class="st69" points="1676.9,270.9 1677.1,271.1 1677.4,271.1 1677.7,271.4 1678,271.4 1678.3,271.4 1678.8,271.4 
					1701.6,269.7 				"/>
				<polyline class="st70" points="1364.1,-293.4 1372,-272.7 1372.3,-66.4 1315.1,15.2 				"/>
				<polyline class="st4" points="1312.8,18.5 1310.6,21.8 1306.6,21.8 				"/>
				<line class="st71" x1="1298.4" y1="21.8" x2="1269.8" y2="22"/>
				<polyline class="st4" points="1265.8,22 1261.8,22 1261.8,18 				"/>
				<polyline class="st72" points="1261.8,10.5 1261.8,5.7 1261.5,3.1 1260.9,0.5 1259.5,-2.9 1258.3,-4.9 1256,-7.5 1253.2,-10.1 
					1250.3,-11.6 1247.1,-12.4 1245.4,-12.7 1243.1,-13 1242.3,-12.7 1241.7,-12.4 1241.4,-11.6 1241.4,-10.7 1241.7,-9.8 
					1242.3,-9.3 1244,-8.7 1245.9,-8.6 1247.4,-8.7 1251.7,-6.9 1254.3,-4.7 1256.3,-2.4 1257.7,0.8 1258.3,3.4 1258.3,6.5 
					1258.3,13.1 1258.6,22.6 1258.3,24.3 1258.3,28.3 				"/>
				<polyline class="st4" points="1258.3,32.1 1258.3,32.7 1258.3,36.1 1257.5,37 1255.5,38.9 				"/>
				<polyline class="st10" points="1250.9,45.3 1250.9,45.3 1247.7,52.2 1246.6,57.3 1246.3,62.2 1246,68.2 1246.3,76 1246,79.4 
					1246.3,83.4 1246.3,113.9 1248,117.9 1254,125.6 1259.5,130.8 1267.8,137.1 1271.8,137.7 1277.8,137.1 1285,137.4 1320.9,137.1 
					1327.5,137.4 1329.5,137.1 1330.9,136 1336.1,125.1 1340.7,119.6 1344.4,116.2 1347,113.9 1349.6,111.6 1351.6,109.6 
					1378.9,99.2 1422.3,93.1 1441.3,91.1 1464.8,87.9 1507.3,82.2 1508.4,81.9 				"/>
				<polyline class="st4" points="1512.3,81.1 1516.2,80.2 1512.9,82.4 				"/>
				<polyline class="st4" points="1509.1,85.1 1505.8,87.3 1507.3,89.1 1510.6,86.8 				"/>
				<polyline class="st73" points="1518.3,82.3 1518.8,82.2 1525.6,81.6 1533.7,80.8 1534.2,81 1534.5,81.6 1535.4,96.6 				"/>
				<polyline class="st4" points="1535.7,101.2 1536,105.1 1534,105.4 1534.5,108 1530.6,108.8 				"/>
				<polyline class="st4" points="1529.3,109.1 1526.5,109.7 1526.2,110 1525.9,110.3 1525.9,110.6 1526.2,110.9 1526.5,111.2 
					1527.1,111.2 1530.4,110.4 				"/>
				<polyline class="st4" points="1530.9,110.3 1534.8,109.4 1535.7,112.9 1530.5,114 1531.4,118.3 1531.1,118.9 1527.2,119.8 				
					"/>
				<polyline class="st4" points="1524.7,120.3 1520.8,121.2 1520.8,121.5 1516.8,122.3 				"/>
				<polyline class="st74" points="1506.7,124.3 1500.7,125.5 1491.6,127.5 				"/>
				<polyline class="st4" points="1486.5,128.6 1484.6,129 1484,129.5 1483.7,129.8 1483.2,130.4 1483.2,130.7 1482.9,131.3 
					1482.9,131.8 1482.9,132.4 1483.2,133 1483.7,133.8 1483.9,133.9 				"/>
				<polyline class="st75" points="1490.9,133.4 1498.4,131.8 1503.8,130.7 1529.1,125.3 				"/>
				<polyline class="st4" points="1532.6,124.6 1533.7,124.4 1536.5,123.8 1536.8,124.1 1540.6,123.2 1540.8,122.7 1542.6,122.4 
					1543.4,126.3 				"/>
				<line class="st76" x1="1544.2" y1="130.3" x2="1545.4" y2="136.3"/>
				<polyline class="st4" points="1545.8,138.2 1546.6,141.9 1546.6,142.2 1542.7,143 				"/>
				<line class="st77" x1="1534.9" y1="144.6" x2="1507.6" y2="150.3"/>
				<polyline class="st4" points="1503.7,151.1 1499.8,151.9 1500.9,157.7 1504.9,156.8 				"/>
				<line class="st47" x1="1512.7" y1="155.1" x2="1540.2" y2="149.3"/>
				<polyline class="st4" points="1544.1,148.4 1548,147.6 1548.8,151.5 				"/>
				<polyline class="st4" points="1549.8,156.9 1550.6,160.8 1543.4,162.3 1544.6,167.1 1540.7,168 				"/>
				<line class="st78" x1="1532.7" y1="169.7" x2="1520.8" y2="172.2"/>
				<polyline class="st4" points="1516.8,173 1513.6,173.7 1513.3,174 1513,174 1512.7,174.6 1512.7,174.9 1513,176.3 1513.3,176.9 
					1513.6,177.2 1513.9,177.2 1514.1,177.2 				"/>
				<polyline class="st79" points="1521,175.7 1533.1,173.2 1545,170.7 				"/>
				<polyline class="st4" points="1548.4,170 1552.3,169.1 1553.2,173.1 				"/>
				<line class="st44" x1="1555.1" y1="182.1" x2="1558" y2="195.7"/>
				<polyline class="st4" points="1558.9,200.2 1559.8,204.1 1559.5,204.4 1559.2,203.9 1558.3,203.3 1557.5,202.7 1556.6,202.4 
					1556.3,202.4 				"/>
				<polyline class="st4" points="1553.5,209.5 1554.1,209.9 1554.6,210.2 1555.5,210.5 1556.3,210.5 1557.2,210.2 1557.2,210.5 
					1553.3,211.3 				"/>
				<line class="st28" x1="1545.5" y1="212.9" x2="1487.2" y2="225.3"/>
				<polyline class="st4" points="1483.3,226.1 1480,226.8 1479.4,226.8 1479.4,227.1 1479.1,227.4 1479.1,227.7 1479.8,230.6 				
					"/>
				<polyline class="st4" points="1481.8,239.3 1482.6,242.6 1482.6,242.9 1482.6,243.2 1482.9,243.2 1483.2,243.2 1486.5,242.5 
									"/>
				<line class="st80" x1="1494.6" y1="241" x2="1554.8" y2="229.2"/>
				<polyline class="st4" points="1558.8,228.4 1562.7,227.7 1563.2,231.6 				"/>
				<polyline class="st81" points="1564,238.8 1564.5,242.9 1562.9,246.3 1561.8,248.9 				"/>
				<polyline class="st4" points="1559.7,251.8 1557.2,254.9 1557.5,254.9 1556.6,256.1 1556.6,255.8 1554.1,258.9 				"/>
				<polyline class="st4" points="1554,259.4 1553.8,259.8 1553.8,260.7 1554.1,261.3 1554.3,261.5 1554.9,261.8 1555.2,261.8 
					1555.8,262.1 1556.1,261.8 1556.6,261.8 1556.9,261.5 1557.5,260.7 1559.5,258.1 1559.2,258.1 1560.1,257 1560.1,257.3 
					1562.6,254.1 				"/>
				<polyline class="st4" points="1563.2,253.3 1564.7,251.5 1566.1,250.6 1568.7,253.7 				"/>
				<polyline class="st4" points="1571.1,256.7 1571.6,257.3 1572.4,258.4 1573.3,259 1573.8,259.5 1573.3,261.5 1572.1,263 				"/>
				<polyline class="st4" points="1570.7,264.9 1569,267 1568.4,268.1 1568.1,267.9 1565.7,271.1 				"/>
				<polyline class="st4" points="1569.3,272.3 1571,270.2 1571.6,269 1571.8,269.3 1574.3,266.2 				"/>
				<polyline class="st4" points="1579.8,262.5 1580.2,262.4 1582.5,259.5 1583,259.8 1583.9,260.1 1585,260.4 1586.2,260.7 
					1586.8,260.7 1587.8,264.5 				"/>
				<polyline class="st82" points="1589.9,271.8 1590.5,273.9 1591.9,274.8 1614.6,273 				"/>
				<polyline class="st4" points="1618.4,272.7 1620.9,272.5 1622.3,272.5 1624.4,270.2 1625.3,270.1 				"/>
				<line class="st83" x1="1629.7" y1="269.7" x2="1636.3" y2="269.2"/>
				<polyline class="st4" points="1638.4,269 1642.4,268.7 1642.4,269 1648.2,268.4 1648.2,268.1 1652.2,267.9 				"/>
				<polyline class="st7" points="1660.7,267.3 1664.5,267 1672.9,274.2 1673.4,274.5 1674,274.8 1674.6,275 1675.2,275.3 
					1675.7,275.3 1676.3,275.3 1676.9,275.3 1704.7,274 				"/>
				<polyline class="st4" points="1709,273.8 1713,273.6 1715.7,270.6 				"/>
				<polyline class="st84" points="1721.2,264.5 1736.5,247.5 1738.5,244.9 1739.4,244 1740.3,243.2 1740.8,242 1742,240.6 
					1742.6,239.4 1743.1,238.3 1744,236.8 1744.3,235.7 1744.8,234.6 1750.6,218.2 1751.2,216.5 1751.4,215.3 1752,214.5 
					1752.3,213.9 1752.6,213.3 1752.9,212.7 1753.4,212.2 1763.2,199.8 1769.2,194.4 1777.3,187.2 1790.8,175.1 1793.9,172.3 
					1821.8,147.3 1856,116.2 1878.2,115.8 				"/>
				<polyline class="st4" points="1882.3,115.8 1886.3,115.7 1886.3,118.2 1886.3,119.7 				"/>
				<line class="st85" x1="1886.2" y1="126.3" x2="1885.9" y2="149.2"/>
				<polyline class="st4" points="1885.9,152.5 1885.8,156.5 1882.4,158.5 				"/>
				<polyline class="st4" points="1878,161.1 1874.6,163.1 1876.6,166.6 				"/>
				<polyline class="st4" points="1878,169.1 1880,172.6 1883.5,170.6 				"/>
				<line class="st35" x1="1887.3" y1="168.4" x2="1893" y2="165"/>
				<polyline class="st4" points="1894.9,163.9 1898.4,161.9 1898.4,157.9 				"/>
				<line class="st86" x1="1898.3" y1="150.6" x2="1898.2" y2="124.8"/>
				<polyline class="st4" points="1898.1,121.2 1898.1,117.2 1902.1,117.2 				"/>
				<polyline class="st4" points="1911.6,117.2 1915.6,117.2 1917.3,120.8 				"/>
				<line class="st87" x1="1919.1" y1="125" x2="1921.9" y2="131.2"/>
				<polyline class="st4" points="1922.9,133.3 1924.5,137 1928.2,135.3 				"/>
				<line class="st88" x1="1935.9" y1="131.9" x2="2025" y2="92.4"/>
				<polyline class="st4" points="2028.9,90.6 2029.3,90.5 2032.4,88.8 2033.3,90.5 2034.7,91.9 2034.7,91.9 				"/>
				<polyline class="st4" points="2038.7,100.5 2039.9,103.1 2040.2,103.4 2040.4,103.7 2040.7,103.7 2041,103.4 2044.8,101.7 
					2045,101.4 2045,101.1 2043.5,97.7 				"/>
				<polyline class="st4" points="2039.9,89.8 2039.9,89.6 2039.9,87.6 2039.3,85.9 2042.9,84.2 				"/>
				<polyline class="st4" points="2050.8,80.6 2054.5,79 2055.9,82.2 2056.2,82.4 2056.2,82.7 2056.5,82.7 2056.8,82.7 2057.1,82.4 
					2059.9,81.2 				"/>
				<polyline class="st4" points="2064.1,79.4 2067.7,77.8 2067.7,77.6 2068,77.6 2068,77.3 2068,77 2066.6,73.5 2070.2,71.9 				
					"/>
				<polyline class="st89" points="2074.3,70 2074.6,69.8 2077.2,64 				"/>
				<polyline class="st4" points="2078.1,62 2079.8,58.3 2083.4,60 				"/>
				<polyline class="st90" points="2092.2,61.9 2093.6,61.8 2118.9,43.5 				"/>
				<polyline class="st4" points="2122.7,40.8 2124.3,39.7 2125.7,38.5 2126,38.5 2126,38.2 2126,38 2126,37.7 2125.1,34.7 				"/>
				<polyline class="st91" points="2122.9,27.7 2119.9,17.9 2119.1,13.9 2131.2,-39.3 				"/>
				<polyline class="st77" points="2492.9,-110.6 2523.1,-81.6 2526.8,-78.2 2633.3,24.6 2635.3,26 2637.3,26.6 2639.3,26.6 
					2643.3,26.3 2673.4,-5.3 2674.9,-8.1 2675.5,-11.3 2674.9,-13 2673.7,-15 2640.2,-47.7 2634.8,-53.8 				"/>
				<polyline class="st88" points="2775.6,-61.1 2797.1,-31.4 2825.5,2.1 				"/>
				<polyline class="st4" points="2828.2,5.3 2830.8,8.4 2829.2,13.4 2831.9,16.4 				"/>
				<polyline class="st4" points="2837.5,22.9 2840.1,25.9 2846,26.3 2848.6,29.4 				"/>
				<polyline class="st92" points="2853.5,35.7 2898,110.2 2919.6,145.4 2924.5,151 2928.4,155.4 2933.4,159.1 2936.6,161.6 
					2939.7,163.6 2944.5,165.3 2949.8,166.4 2954.3,166.9 2958.2,166.8 2965.6,166.4 2979.1,165.5 2983.2,166.2 2986.5,167.4 
					2990.2,167.9 2994.4,167.1 2998.3,165.6 3004.3,165.3 3010.4,166 3017.3,165.4 3024.7,164.8 3031.3,164.5 3038.6,163.6 
					3043.6,162.9 3047.4,162.1 3050.1,160.8 				"/>
				<polyline class="st4" points="3053.9,160 3056.4,160.2 3057.9,159.7 3058.2,158.8 3062.2,158.3 				"/>
				<polyline class="st30" points="3066.2,158 3069.6,157.9 3072.3,157.7 				"/>
				<polyline class="st4" points="3074.3,157.6 3076.5,157.4 3078.3,157 3078.3,156.7 3080,157.4 3081.3,155.7 3083.3,156.1 
					3084.4,156.8 3084.7,157.4 				"/>
				<line class="st93" x1="3087.7" y1="162.7" x2="3092.2" y2="170.6"/>
				<polyline class="st4" points="3093.7,173.2 3095.7,176.7 3092.1,178.6 				"/>
				<polyline class="st94" points="3086.5,181.5 3077.6,186.2 3073.8,188.2 3066.7,191.8 				"/>
				<polyline class="st4" points="3063.8,193.3 3060.3,195.1 3060.3,195.4 3062,198.7 				"/>
				<polyline class="st4" points="3063.3,201.4 3065.2,204.9 3061.6,206.7 				"/>
				<polyline class="st4" points="3060.7,207.2 3057.1,208.9 3055.2,205.4 				"/>
				<polyline class="st4" points="3053.9,203 3052.2,199.7 3052.2,199.4 3051.3,199.7 3048.6,201.2 				"/>
				<line class="st95" x1="3044.8" y1="203.2" x2="3039.1" y2="206.3"/>
				<polyline class="st4" points="3037.2,207.2 3033.6,208.9 3031.7,205.4 				"/>
				<polyline class="st4" points="3030.5,203.3 3028.6,199.8 3026.1,201.2 3028,204.7 				"/>
				<polyline class="st4" points="3029.6,207.5 3031.5,211 3027.9,212.8 				"/>
				<polyline class="st4" points="3023.6,215 3020,216.8 3021.9,220.3 				"/>
				<line class="st4" x1="3025.5" y1="227.1" x2="3027.4" y2="230.6"/>
				<line class="st4" x1="3033.1" y1="244.7" x2="3033.9" y2="248.6"/>
				<polyline class="st88" points="3035.5,256.9 3035.7,257.9 3077,300.7 3086.5,309.9 3114.9,339.1 				"/>
				<polyline class="st4" points="3117.9,342.1 3118.3,342.5 3118.8,342.8 3119.4,343.1 3120,343.1 3120.3,343.1 3120.9,343.1 
					3121.1,342.8 3121.4,342.8 3121.7,342.5 3122,342.3 3122.3,342 3122.6,341.4 3122.9,341.1 3122.9,340.5 3122.9,339.9 
					3122.9,339.6 3122.6,339.1 3122.3,338.8 3121.7,338.2 3121.7,337.9 3119.3,335.1 				"/>
				<polyline class="st4" points="3113.4,328 3110.8,325 3113.7,322.2 				"/>
				<line class="st96" x1="3119.9" y1="316.3" x2="3129.2" y2="307.4"/>
				<polyline class="st4" points="3132.3,304.4 3135.2,301.6 3138.4,304.1 				"/>
				<line class="st4" x1="3144.1" y1="308.5" x2="3147.2" y2="310.9"/>
				<line class="st4" x1="1512.4" y1="113.3" x2="1511.9" y2="109.3"/>
				<polyline class="st4" points="1511.2,104.6 1510.7,100.6 1512.1,100.3 1512.8,104.3 				"/>
				<polyline class="st4" points="1513.5,109.4 1514.2,113.3 1512.4,113.3 				"/>
				<line class="st4" x1="3527.7" y1="93.6" x2="3531.7" y2="93.4"/>
				<path class="st97" d="M3540,91.6l4.1-1.8h8.4"/>
				<path class="st4" d="M3556.9,89.8h4l2.8-2.8"/>
				<polyline class="st4" points="3566.8,83.8 3569.6,80.9 3573.6,80.9 				"/>
				<line class="st98" x1="3583" y1="80.9" x2="3615.7" y2="80.9"/>
				<polyline class="st4" points="3620.4,80.9 3624.4,80.9 3624.7,76.9 				"/>
				<polyline class="st99" points="3625.7,72.5 3629.5,68.8 3631.2,68.8 				"/>
				<polyline class="st4" points="3633.6,68.8 3637.6,68.8 3639.8,72.1 				"/>
				<polyline class="st4" points="3640.6,77.6 3640.6,81.6 3644.6,81.4 				"/>
				<polyline class="st4" points="3649.9,81.1 3653.9,80.9 3655,84.3 3658.9,83.8 				"/>
				<polyline class="st4" points="3659.9,83.7 3663.9,83.2 3665,80.9 3666.4,80.3 				"/>
				<path class="st100" d="M3674.1,79.4c3.8,0.1,8.4,0.1,9.6-0.2c2.3-0.6,18.9-1.7,18.9-1.7l8.9-6.7l7.8-12.2l9.9-17.1l9-20.6
					l12.2-23.3l0.6-0.9"/>
				<polyline class="st4" points="3769.8,-3 3773.5,-1.3 3771.9,2.4 				"/>
				<polyline class="st101" points="3768.5,9.8 3743.2,61.1 3724.1,93.6 3720,116.3 3724.7,152.6 3729.5,173.4 3745.5,193 
					3764.5,204.3 3778.8,207.8 3779.4,208.4 				"/>
				<polyline class="st4" points="3782.4,211.1 3785.3,213.8 3785.3,217.8 				"/>
				<line class="st12" x1="3785.3" y1="225.5" x2="3785.3" y2="299.2"/>
				<polyline class="st4" points="3785.3,303.1 3785.3,307.1 3789.3,307.1 				"/>
				<line class="st90" x1="3798.7" y1="307.1" x2="3831.3" y2="307.1"/>
				<line class="st4" x1="3836" y1="307.1" x2="3840" y2="307.1"/>
			</g>
		</g>
	</g>
</g>
<g>
	<g>
		<defs>
			<rect id="SVGID_5_" width="3840" height="1080"/>
		</defs>
		<clipPath id="SVGID_6_">
			<use xlink:href="#SVGID_5_"  style="overflow:visible;"/>
		</clipPath>
		<g class="st102">
			<g id="Pre1900_HKI">
				<path id="Pre1900_HKI-2" class="st103" d="M2953,610.1l4.8,21l6.5,6.5l1.6,4.8l-3.2,8.1l-6.4,11.3l-8.1,8.1h-11.3l-11.3-4.8
					l-4.8-4.8l-8.1-3.2l-14.5-6.5l-9.7-4.8l-4.8-3.2l-11.3-22.6l-11.3-22.6l-4.8-9.7l-4-5.6l-2.8-7.1l-3.6-3.9l-14.4-3.2l-10.1-1.3
					l-14.9-7.7l-4.1-1.6l-7.6-6.9l-8-8l-6.3-11.1l-8-11.2l-6.4-8l-3.2-3.2l-4.8-8l-3.2-3.2l-4.8-8l-11.2-11.2l-9.6-9.6l-4.8-3.2
					l-6.4-1.6h-8.6l-18.4-3.1l-16-6.4l-8-4.8l-8-4.8l-6.4-3.2l-6.4-1.6h-5l-4.5,1.6l-8,4.8l-4.8,3.2l-4.8,4.8l-6.4,9.6l-4.8,4.8
					l-1.3,1.6h-1.9l-1.6-1.6l-4.8-9.6l-6.4-9.6l-3.2-4.8l-2.5-4.8l-2.3-4.8l-4.8-3.2h-4.8l-4.8,1.6l-3.2,3.2l-1.6,4.8l-1.6,8
					l-4.8,4.8l-6.4,4.8h-4.8l-3.6-0.8l-9.1-10.5l-7.8-12l-9.8-19.9l-6.4-16l-3.2-8l-3.2-9.6l-8-31.9l-8-20.7l-11.2-16l-12.8-9.6
					l-16-6.4l-20.7-6.4l-23.9-3.2h-3.9l-3.3,0.8l-6.4,3.2l-11.1,6.5l-9.6,3.2l-12.8,4.8l-11.2,4.8l-9.6,4.8l-5.7,1.5h-18.1l-16.1,2
					l-14.1,2l-14.1,4l-14.1,4l-10.1,2l-8,2h-22.2l-8.1-2l-10.1-2l-8.1-2l-10.1-2h-8.1l-8.1,4l-8.1,6l-10.1,12.1l-24.2,28.2
					l-12.1,14.1l-14.1,18.1l-6.1,6l-2,8.1v12.1l2,10.1l2,18.1l2,16.1v16l2,16.1v16.1l2,12.1l2,12.1v14.1l4,10.1l4,8.1l2,10.1l-2,8.1
					l-8,6h-30.2l-14.1,4l-10.1,2l-10.1,4l-10.1,2l-6-2l-8.1-6l-6.1-8h-16.1l-12.1-2l-12.1-4l-10.1-4l-8.1-6l-8.1-8.1l-6-4l-6-2v-4
					l2-4l4-4l2-6v-4l-2-10.1l-6-6l-6-2l-6,2l-4,2l-2,2l-2,2l-2,2v2l2,2l4,4v4l-2,6l-2,6l-4,6l-2,6l-2,10.1v4l2,6v4l-2,6v8.2l6,16.1
					l-10.1,10.1l-14.1,6l-6,2l-6,8l-8.1,8.5l-8.1,3.6h-11l-4-4l-4-18.1l2-12.1l-12.1-18.1l-8,2l-10.1,8.1l-20.1,6h-12.1v8.1l-6,8.1
					l-14.6,10.2l-14.1-4l-4,2l-4,2l-6,4h-6l-8.1,2l-6,2l-8.1,6l-6,2l-4,2l-6,2l-4,2l-8,2l-4.9-4h-27.3l-6-4l-6-2h-4l-6,2h-10.1l-4-2
					l-4-4l-6-4l-6-4l-6-4l-8-6l-2-2l-4-4l-4-2l-6-4l-4-2l-4-2l-6-4l-8.3-2h-7.8l-2-4l4-6l4-4l6-5.5v-3l-4-4l-2-2l-4-4l-2-2l-2-2h-2
					l-6,4l-4,4l-4,2l-4,2h-14.1l-6,2l-2,2l-2.2,2h-3l-2-2v-8.1l-2-4l-8.1-6l-8.1-6l-8.1-6l-6-4l-10.1-4l-10.1-4l-12.1-4l-10.1-2
					l-10.1-2l-10.1,2l-4,2H1355l-4,2l-4-2h-6l-6-2h-6l-4-4l-4-8.1l-6-4l-2-4l-2-4l-2-4l-4-4l-6-6l-4-6l-4-4l-2-6l-4-6l-4-4l-2-2
					l-2-4l-4-4l-4-4l-2-4l-6-6l-2-4v-8.1l-2-6l-6-4l-4-4l-2-2l-2-2l-4-2l-6-2h-10.1l-4-2l-8.1-4h-12.1l-6-2h-6l-2,4l-4,2h-2l-4,2
					l-4,2h-4l-6-2l-6-2v-7l-2-4l-6-4l-6-4l-2-4h-4l-4,2l-2,4H1117l-6-6l-6.1-4l-6-6l-6-0.8l-6.4,3.2l-6.4,4.8l-6.4,3.2h-4.8
					l-6.4-1.6l-4.8-3.2l-3.2-3.2l-4.8-4.8l-1.6-1.6l-6.4-1.6h-3.2l-3.2,1.6l-3,1.5l-8.1-2h-4l-6-2h-25.8l-6-2l-4-4v-4l-2.2-5.2
					l-3.9-1.1l-6-0.4h-14.1l-4,0.4l-2,2l-2,6l-2,6l-8.1,4l-2.5,2.1l-6.4,1.6H919l-6.4-1.6l-5.8-0.6h-12.1l-8.1,2l-6,2l-6,4l-6,4
					l-8,4l-8.1,4l-6,2l-10.1,2h-22.3l-6-2l-8.1-6l-2-1.4l-2.8-2.8l-3.5-3.1l-12.5-1.8l-8.1-2l-4.7-1.6l-7,2.4l-4.5,3.4l-2.9,6
					l0.3,2.5l0.5,3.6v6.1l-4.1,6.1l-4,6.1l-2,6.1l-2,10.1l-6.1,4.1l-4.1,2l-4.1,4.1l-6.1,6.1l-8.1,4.1l-6.1,4.1l-4.1,4.1l-4.1,4.1
					l-2,6.1l-2,6.1l-3.9,8l-4,6.1l-6.1,6.1l-10.2,6.1l-6.1,2l-6.1,2l-8.1,2l-8.1,2h-8.1l-8.1-2l-6.1-2l-6.1-4l-4.1-2l-6.5-8.3
					l-7.3-7.3h-8.3l-6.2,3.2l-4.8,1.6H571l-2.5-0.8l-3.2-1.6l-4.8,1.6l-4.8,3.2l-4.8,3.2l-1.6,3.2l-3.2,4.8l-1.6,3.2l-3.2,1.6
					l-8,1.6h-4.8l-3.2-1.6l-1.6-1.6l-1.6,1.6l-3.2,3.2l-4.8,3.2h-13.8l-28,8l-17.7,6.4L430,569.1l-7,6.1l-6.7,5.8l-1.2,5.7l-4.4,4.9
					l-1.7,6.8l-1.3,7.1l-1.4,6.3l-4,7.8l-3.2,3.7l-4,2.5l-2.3,2.6l-0.7,5.5l-1.9,6.2l-1.2,7.6l3.5,6.9l1.1,7l-0.8,4.5l-2,1.9
					l0.8,7.3l-2,7.6l-0.5,6.3l0.8,9.7l-1.7,4.9l1,6.4l6.8,8.3l6.1,6.1l5.8,5.3l13,4.3l6.5,6.2l4,9.4l11.8,12.6l3.9,1l3.8,5.9
					l2.9,4.4l2.9,5.1l4.4,3.2l6.3,4.4l7.7,1.8l4.5,0.5h5.5l4.7,2l3.1,2.1l3.4,1.6l4.8,1.6h5.5l10.6,1.6l8-1.6l6.4-1.6h4.8l4.8-3.2
					l8-3.2l4.8-3.2l1.6-1.6l3.2,1.6l6.4,1.6l4.8,1.6l3.2,8v6.4l-3.2,8l-3.2,4.8l-1.6,8v4.8l-3.2,3.2l-3.2,3.4l1.6,1.6v1.6l-1.6,1.6
					v3.2l3.2,1.6l3.2,1.6l1.6,3.2l-1.6,3.2l1.6,4.8l4.8,4.8l6.4,4.8l1.6,1.6l1.6,4.8l1.6,1.6l6.4-1.6l2,1.6l1.3,3.2l2.4,6l0.8,6.9
					l3.2,3.2l3.2,1.6v7.3l4.8,10.4v5.8l1.6,7.1l1.6,1.6l-3.2,8l-1.6,8l-1.6,11.3l-3.2,4.8l1.6,3.2l1.1,4.3l0.7,5.8l1.7,6.8l4.1,14.7
					l4.5,4.2l3.2,2.1l2.5,5.5l4.8,4.8l3.9,6l5.3,1.6l3.7,0.2l3.1,0.3l4.8,1.6l4.4,0.7l3.6,0.9l6,2l3.1,2.8l-0.2,3.1l0.5,2.5l2.2,1.3
					l1.6-2.4l2.2-5.7l2.4-1.8l1.5-1.8l3.2-1.6l2.9-2.5l1.2-3.7l0.6-3.1l0.6-2.8l2.4-0.6l3.1,3l3.7-0.8l1.8-1.6l-1.8-4.5l2.4-4.9
					l1.8-2.8l2.5-1.8l3.5,0.6l3.3,0.2h2.8l2.9-0.2l2.2,1.4v2.2l1.1,2.6l4.8,1.6l4.1,2.7l2.4,5.4l-3,3.1l-0.4,3.3l0.6,3.9l1.6,2.6
					l1.2,1.6l3.1,3.9l2,3.5l2.3,3.1l-1.9,4.2l-2,2.7l-0.3,5.1v3.2l1.6,3.2l3.2,3.2l8,0.2l5.7,3.4l4,4.4l4.8,8l1.6,3.2v5.4l-0.2,4
					l1.6,3.5l1.8,3.2l2.7,4.7l2.9,3.6l-0.9,7.4l0.5,5.4l-1.2,4.7l1.8,5l2,5.1l-1.5,5.6l-1.4,4.6l-2.1,4.4l-2.5-0.2l0.4,2.8l1.5,1.3
					l-2.2,4.6l-3,3.2l-9.7,18.3l-3.9,6.1l-1.3,5l-1,4.4l-2.1,5.8h2801.2l-0.1-2.1l0.7-4.6l-0.8-4.6l1.2-2.4l3.6-0.7l6.2,1.1l3.5-0.8
					l0.5-3.8l-1.9-2.7l1.5-1.5l2.1-2.1l0.7-3.7l-2.8-1.6l-0.9-3.6l1.8-2.7l3.3-0.8l2.7-2.7l-1.8-4.1h-1.6l-1.6-1.6l-1.3-2.7l1-3.9
					l-1.3-6.5l-1-2.9l1.8-2.9l-2.1-0.8l-2.6-0.5l-1.1-2.4l-0.3-3.4l0.2-1.9l-2.4-2.8l-0.3-4l-1.9-3.4l-0.5-4.2l-1-4.5l-4.3-2.3
					l-4.1-1.1l-1.1-4.7l-1.2-4.3l-5.6-4l-0.5-2.8l0.6-5.2l3.3-2.8l-1.7-5.3l0.5-6l2.9-5.3l0.5-3.8l1.9-1.7l1.4-4.8l2.6-3.1l6.2-1.7
					l5.7-0.9l7.1-1l5.6,1.6l7.2-3.5l5,0.3l3.4-1.8l2.5-1.8l-0.9-5.4l-3.2-6.3l-12.9-12.9l-4.8-6.5l-3.2-1.6l-4.9-6.5h-3.2l-4.8-6.5
					l-6.1-6.1l-5.2-1.9l-1.6-1.6l-3.2-4.8l-2.7-4.8l-0.6-6l-2.9-2.1l-3.8-3.8l-4-0.1l-5.3-2.6l-5.1-3.1l-3.6-2.9l-5.4-1.8l-4.6-4.5
					l-4.4-3.9l-4.9-3.3l-4.9-3.1l-4.2-0.8l-2.8,3.5l-3.9,4.2l-3.9,1.7l-4.4,0.6l-2.2,2.9l0.6,3.5l1.1,5.6l11.5,13.4l0.8,4.3
					l-3.2,12.9l-4.9,11.4l-6.4,6.5l-9.7,6.5l-8.1,8.1l-8.1,4.8l-4.8,3.2l-4.8,1.6l-3.2,3.2l-1.6,4.8h-1.6l-6.4-4.8l-1.6-3.2v-4.8
					l-1.6-3.2l1.6-3.2l-1.6-3.2l-6.4-14.5l-3.2-4.8l-1.6-1.6l-4.7-5.7l-10.4-15l-1.9-3.2l-0.6-2.3v-2.3l-1.7-3.3c0,0-3.3-2-3.8-2.3
					s-3.6-4.1-3.6-4.1l-4.5-6.6l-5.5-5.8l-4.7-3.3l-5.3-4.2l-1.6-1.6l-3.2,1.6h-1.7l-4.8-4.8l-3.2-1.6h-6.4l-3.2-3.2l-3.3,1.6h-6.4
					l-4.8,3.2v1.6l-11.3,3.2l-6.4,3.2l-1.6,4.8h-4.8l-4.8,1.6h-3.2l-3.2-3.2h-1.6l-12.9,12.9l-3.2,4.8l-9.7,4.8l-9.7,4.8l-1.6,0.5
					l-3.2,5.9l-8.1,3.2l-6.4,1.6h-9.7l-6.5,1.6l-6.4,8.1l-6.5,3.2l-6.4,6.5h-3.2l-4.8,3.2h-3.2l-11.3,8.1l-8.1-1.6l-4.8,1.6h-6.4
					v-3.2l-8.1-4.8h-6.5V999l-1.6-4.8l-3.2-3.2h-9.7l-4.8-8.1l-1.6-1.6h-8.1l-1.6-1.6l-3.2-6.5l-1.6-4.8l-3.2-3.2l-3.2-4.8v-1.6
					l1.6-3.2l-1.6-4.8l-1.6-3.2v-3.2l-1.6-1.6l-1.6-1.6l3.2-3.2h4.8l-1.6-1.6v-3.2l1.6-1.6l1.6-3.2h1.6l4.8,3.2h6.4v-4.8h1.6
					l1.6,3.2v4.8l-1.6,4.8l-1.6,4.8l3.2,3.2h4.8l3.2-1.6l1.6-1.6l1.6-3.2h1.6l4.8,3.2l1.6,1.6v3.2l-1.6,4.8l-1.6,3.2v4.8l8.1,4.8
					l4.8,1.6l6.5-3.2h3.2l3.2-1.6l6.4-12.9l1.6-4.8l1.6-9.7V933l-1.6-3.2l-6.5,1.6l-3.2,3.2h-3.2l-1.6-3.2l-3.2-4.8l-6.5-12.9
					l-3.2-9.7l-1.6-3.2v-3.2l4.8-3.2l3.2-11.3l3.2-8.1l3.2-4.8l1.6-4.8l-1.6-6.5v-3.2l3.2-1.6l3.2-1.6v-4.8l4.8-4.8l4.8-3.2
					l-1.6-1.6V836l-1.6-3.2l-3.2-1.6l-1.6-3.2v-3.2l1.6-3.2l-1.6-6.5v-3.2l8.1-4.8l1.6-3.2l1.6-9.7l4.8-9.7l1.6-1.6l-3.2-4.8v-4.8
					l1.6-4.8l6.4-8.1l4.8-3.2l6.5-8.1l1.6-4.8l-1.6-3.2l1.6-1.6h3.2l4.9-3.2l3.2-6.5l1.6-3.2l1.6-1.6l1.6,1.6l4.8,3.2h1.6l1.6-3.2
					l3.2-1.6l1.6-1.6h4.8l1.6-1.6v-1.6l1.6-3.2l1.6-8.1l-1.6-4.8v-6.5h-1.6l-6.4,6.5l-1.6,1.6h-3.2l-4.9-1.6h-3.3l-17.8,4.8
					l-6.5,1.6l-4.8,1.6h-4.8l-6.4-4.8l-3.2-4.8l-1.6-4.8l-1.6-8.1l-6.4-8.1l-4.8-4.8l-1.6-3.2l-1.6-3.2l-8.1-9.7l-3.2-4.8v-1.6
					l-8.1-11.3l-3.2-3.2v-6.5l1.6-4.8l8.1-9.7l3.2-1.6h1.6l6.5-4.8h3.2l6.4-1.6l3.2-1.6l4.8-4.8l3.2-1.6l4-2.3l3.9-9.2l1.6-4.8
					l3.8-3.9l2.9-3.2l0.4-3.8l-3.4-4.2l-3.8,1.2l-2.3-0.7l0.2-4.7l3.2-2.5l0.9-2.3l-3.1-2.9l-5.1-3.4l-6.4-3.2h-3.2l-2.4-2.5l-4-0.8
					l-3.2-1.6h-3.2l-6.4-4.8l-3.2-1.6l-2.7-1.5l-2.1-1.8V536l-1.3-2.4l-3.2-1.5l-2.3,2.4l-6.3-8.6l-3.6-5l-4.6-4.8l-4.6-4.8
					l-3.3-3.6l-1.4-3.3l-0.9-3.7l-3.2-3.9l-3.5-1.7l-3.5-0.8l-2.3-5.9l-7.6-6.4l-7.6-3.5l-4.9,0.2l-5.2,1.3l-5.9,4.3l-2.5,4.7
					l-1.2,3.3l-1.8,2.5l-1,2.9l0.8,4.1l2.7,4.7l1.6,5.3l-2.1,1.9l-1.6,1.2l-2.1,0.8l-2.7,1.8l-10.3-1.4l-6.8-1h-9.7l-8.4,2.2
					l-6.6-0.5l-9.3,0.5l-7.1,2.2l-6.8,6.3l-1.2,8l1.2,5.7l-1.1,7.3l-1.5,4.7l0.2,4.6l1.4,9.8v6.4L2953,610.1z"/>
			</g>
		</g>
	</g>
</g>
<g>
	<g>
		<defs>
			<rect id="SVGID_7_" width="3840" height="1080"/>
		</defs>
		<clipPath id="SVGID_8_">
			<use xlink:href="#SVGID_7_"  style="overflow:visible;"/>
		</clipPath>
		<g class="st104">
			<g id="Pre1900_Kln">
				<path id="Pre1900_Kln-2" class="st105" d="M461.8-1540.3l1.3,9.1l8.9-12.3h6.6l3.2,4.8l9.6,9.6l4.8,9.6l-3.2,9.6l-6.4,8
					l-9.6,4.8l-4.8,6.4l-1.6,9.6l-4.8,6.4l-4.6,7.2l-5,7.2l-4.8,6.4v6.4l-4.8,1.6l-3.2-3.2l-4.8-6.4l-6.4-6.4l-12.8-3.2l-11.2,3.2
					l-9.6,4.8l-8,4.8l-12.8-1.6l-4.8-1.6l-4.8,3.2l-8,1.6l-9.6,4.8l-9.6,8l-8,8l-4.8,8l-3.2,6.4l-4.8,6.4l-3.2,8v8l-4.8,4.8l-8,3.2
					h-12.8l-3.2,3.3v4.7l1.6,3.2l4.8,8l3.2,8l1.6,4.8h3.2l4.8-1.6l4.8-1.6h6.4l4.8,1.6l8,3.2l8,4.8l8,8l1.6,6.4l-1.6,8l-1.6,11.3
					v7.9l3.2,9.6l1.6,6.4v3.2l3.2,6.4l6.4,11.2l3.2,4.8l3.2,4.8l1.6,4.8l1.6,6.4l1.6,3.2l1.6,4.8l1.6,1.6l4.8,1.6l3.2,3.2l1.6,3.2
					l3.2,3.2l3.2,1.6h4.8l1.6-1.6l4.8-3.2h6.4l9.6-1.6l9.6-8l4.8-11.2l4.8-9.6l3.2-14.4l4.8-9.6l9.6-4.8l10-6.8h5.8l5.1-1.6l4.7-3.1
					h13l5.8,1.6l4.4,0.8l5,0.8l4.8,1.6h3.5l4.3,1.6l4.7,1.6l3.1,1.6l4.7,3.1l4.7,3.1l3.1,3.1l3.1,3.1l3.1,3.1l3.1,1.6h5.6l0.7-1.6
					h1.6l2.3,1.6l2.4-1.6l1.6-1.6l1.6-1.6v-4.5l-1.6-1.7v-3.1l1.6-1.7l1.6-1.4v-7.8l-1.5-1.6l-1.7-1.6l-1.6-1.6l-1.6-1.6l-1.6-3.1
					v-3.1l1.6-3.1l1.6-3.1l1.6-1.6l3.1-3.1l3.1-3.1l3.1-1.6h3l3.3-1.6l1.6-3.1v-3.1l1.6-3.1l3.1-3.1l3.1-3.1l3.1-1.6l3.1-1.6
					l3.1-1.6h2.8l3.5-1.6l3.1-1.6l3.1-3.1l3.1-3.1l1.6-1.6l1.6-3.1l3.1-3.1l3.1-1.6h9.4l4.7,1.6h3.1l4.7,1.6h9.4l4.7,1.6l4.7,1.6
					l4.7,3.1l3.1,1.6h9.4l4.7,1.6l4.7,3.1l4.7,1.6h4.7l6.2-1.6l4.7-1.6l3.1-1.6l4.7-6.3l1.6-4.7l1.6-6.3l1.6-4.7l1.6-4.7l3.1-4.7
					l3.1-4.7l3.1-4.7l3.1-4.7l3.1-4.7l3.1-4.7l4.7-4.7l6.2-4.7c0,0,4.7-4.7,6.3-4.7s3.1-3.1,3.1-3.1v-3.3l-1.6-6.1l-1.6-4.7
					l-1.6-4.7l-1.6-4.7l1.6-4.7l3.1-3.1l3.1-1.6h6.3v1.6l-4.7,1.6l-3.1,1.6l-1.6,3.1v3.1l1.6,4.7l1.6,4.7l1.6,4.7l1.6,4.7v12.5
					l-1.6,3.1l-3.1,3.1H755l-3.1,3.1l-3.1,3.1l-4.7,4.7l-3.1,4.7l-4.7,6.3l-3.1,6.2l-3.1,4.7l-1.6,4.7l-1.6,4.7l-1.6,4.7l-1.6,4.7
					l-3.1,4.7l-3.1,3.1l-3.1,4.7l-3.1,4.7l-1.6,4.7l-1.6,6.3v21.9l-1.6,4.7v3.1l1.6,4.7l1.6,7.8v7.8l-1.1,7.8l-0.5,6.3v10.9l1.6,3.1
					l1.6,4.7h-1.1l-3.6-1.6h-6.2l-1.8,1.6l-2.9,3.1l-3.1,3.1l-4.7,4.7l-3.1,3.1l-3.1,3.1l-3.1,3.1l-3.1,1.6l-3.1,6.3l-3.1,6.2
					l-3.1,6.3l-3.1,6.3l-3.1,4.7l-3.1,4.7l-1.6,6.3l-4.7,6.3l-4.7,4.7l-4.7,4.7l-3.1,3.1l-4.7,3.1l-4.7,4.7l-3.1,3.1l-4.7,1.6
					l-4.7,1.6h-3.9l-3.9,1.6l-1.6,1.6l1.6,3.1v7.8l1.6,3.1l-1.6,3.1l-1.6,3.1l-1.6,4.7l-1.6,4.7l-1.6,4.7l-3.1,6.2v10.9l-1.6,6.2
					l-1.6,6.3v9.4l1.6,6.3v4.7l1.6,6.3v12.5l-1.6,6.3v32.8l1.6,6.3l1.6,4.7l-4.5,0.3l-4.3-4.3l-3.5-1.5l0.9,3.8l1.5,3.4l2.4,4l3,4.4
					l3.8,6.7l7.6,7.2l6.8,5l6.6,4.4l7,4.2l6.4,2.2l6.2,2.4l7.5,3.2l7.4,3.6l7.5,3.2l7.2,3l8.2,3l8.2,3.6l9.1,4.2l9,4.9l2.6,3.5
					l2.2,5.5l-0.3,6.2l-0.6,4v3.1l5.2,2l7.3-0.3l6.4-0.4l2.8-1.8l3.3-1.5l4.8,1.6l1.6,4.8l1.6,3.2l1.6,4.8v4.8l-1.6,4.8v4.8l1.6,3.2
					l3.2,4.8h5.4l4.2,1.6h4.5l3.5,1.6l4.8,1.6l3.2,4.8l1.6,4.8l-0.7,2.7L769-850l-5.2,1l-5.3,2.9l-2.8,7l4.1,3.4l2.9,4.5l3.3,4.5
					l4.6,3.9l5.8,4.3l6.4,4l6.6,2.6l5.8,1.9l5.1,1.3l4.7,2.4l10.4,2.3l8.4,1.2l2.8-2.7l1.3-6.1l1.8-3.6l2.4-2.3l2.2-4.3l1.8-4.2
					l0.9-3.5l1.3-2.7l-3.1-5v-5.6l1.6-3.2l1.6-3.2l1.6-3.2v-4.7l-1.6-4.9v-1.6l3.2-1.6l1.6-3.2v-9.6l1.6-3.2l1.6-3.2v-3.2l-1.6-4.8
					v-6.4l1.6-5.3v-4.2l-3.2-4.9v-4.8l-4.8-8l-1.6-8v-6.4l-1.6-6.4l-1.6-6.4l-1.6-3.2l-1.6-3.2l-3.2-3.2l-4-0.5h-7.1l-4.2-1.4
					l-1.9-1.4l-1.6-4.8v-33.6l-1.6-4.8v-3.2l1.6-1.6l3.2,4.8l3.2,1.6l3.2,3.2v4.8l1.6,3.2l3.2,1.6l3.2,1.6l4.8,0.3l3.2-0.3h3.2
					l3.2,1.6v10.9l3.2,1.9l4.8,1.6l1.6,4.8l1.6,4.8l1.6,6.4l3.2,4.8l3.2,3.2l4.8,1.6h3.2l3.2,3.2l3.2,3.2v2.8l-4.8,3.6l-1.6,3.2
					l1.6,3.2l1.6,4.8v33.6l3.2,4.8l1.6,3.2l3.2,3.2l1.6,3.2l1.6,1.6l1.6,1.6l1.6,1.6l1.6,1.6v2.8l1.6,2l1.6,1.6l1.6,1.6l4.8,3.2
					l6.4,1.6l4.8,1.6h6.4l4.8,1.6l4.8,1.6l4.8,3.2h3.2l4.8,1.6l3.2,3.2v16.4l1.6,4.4l1.6,4.8l1.6,3.2l1.6,3.2l1.6,3.2l1.6,3.2
					l1.6,3.2l1.6,3.2v3.2l1.6,4.8v3.2l1.6,4.8l1.6,3.2l1.6,3.2l1.6,1.6l4.8,3.2l4.8,1.6l4.8,1.6l4.8,1.6h8l3.2-1.6l3.2-1.6l3.2-1.6
					l3.2-1.6l15-4.7l12.3-4.9l6.4,1.6l1.6,1.6l4.2,1.7h5.1l5.2-1.7l6.4-3.2l1.6-3.2l1.6-4.8v-2.1l1.6-1.1l1.6,3.2v3l3.2,1.8l4.8-1.6
					l12.8-4.8l6.4-1.6h3.2l4.8,1.6l1.6,3.2l1.6,3.2l4.8,3.2h17.6l6.4-1.6l8-1.6l4.8-3.2l1.6-3.2l1.6-3.2l-1.6-4.8l-4.8-4.8l-9.6-6.4
					l-3.2-3.2v-3.3l1.6-1.6h3.2l4.8,3.2l4.8,3.2l4.8,4.8l3.2,4.8l1.6,3.2l1.6,6.4v5.2l1.6,4.4h4.8l3.2-1.6v-7.1l-1.6-4.1l-3.2-6.4
					l-3.2-11.2v-14.4l1.6-1.6l1.6,1.6v3.2l1.6,3.2l1.6,1.6h3.2l4.8-3.2l3.2-1.6l1.6,3.2h4.8l4.8-1.6l3.2-1.6h3.2l9.6-1.6l6.4-3.2
					l6.4-4.8l3.2-4.8l3.2-4.8l4.3-5.8l9.8,5.9l5.9-2l3.9,3.9l5.9,2l7.8,7.8l7.8,5.9h3.9l9.8,7.8l9.8,7.8l5.9,5.9v5.7l3.9,8l5.9,5.9
					h7.8l3.9-3.9h2l2,5.9l7.8,3.9l3.9,2l5.9,3.9l5.9-2l2,5.9l11.8,5.9l11.7,11.7l7.8,5.9l2,9.8v9.6l2,14l5.9,19.6l7.8,21.6l9.8,19.6
					l7.8,7.8h5.6l0.3,11.8l3.9,7.8l-7.8,11.8l-7.8,9.8l-9.8-3.9h-9.8l-7.8-3.9h-9.8l-9.8,2l-3.9,3.9l2,9.8l5.9,9.8l11.8,7.8l5.9,3.9
					l2,5.9l-2,3.9l2,3.9l11.8,11.8l9.8,9.8l2,3.9l3.9,3.9h3.9l2,2l3.9,2l2,5.9l2,7.8l3.9,5.9l3.9,3.9l2,3.9l-3.9,3.9l-2,2l-3.9,2
					l-5,1l-4.8,1l-5.9,2h-4.3l-3.5,3.9l-3.9,5.9l3.9,6.6v14.8l-1.6,7.7l-6.3,8.2l-3.9,25.5l2,5.9l3.9,5.9l5.9,5.9l7.8,11.8l7.8,3.9
					l7.8-7.9l7.8-9.8l2-9.8l2-5.9l9.8-7.8l3.9-5.9l2-13.7l2-13.7l2-9.8l3.9-9.8l2-7.9v-11.7l2-4l13.7-2l23.5,2l19.6,3.9l13.7,3.9
					l11.9,1.9l7.8,5.9v27.5l-2,5.9l2,5.9v7.9l-5.9,11.8l-3.9,5.9l-3.9,3.9v5.9l2,5.9v39.2l2,7.8l2,5v2.5l3.8,8.2v21.6l3.9,3.9
					l5.9,3.9l3.9,2l3.9,5.9v5.9l2,5.9l2,3.9v5.9l2,3.9v5.9l-2,2l-3.9,2l-3.9,2l-2,7.8l2,2v5.9l5.9,3.9l2,2l5.9,2l2,5.9l5.9,7.8
					l2,9.8l3.9,3.9v3.9l-2,7.9l-3.9,7.9l-2,9.8l3.9,2l7.8,7.9l7.8,5.9v9.8l-3.9,3.9v7.9l-2,5.9v15.7l-2,5.9l-3.9,7.8l-5.9,5.9
					l-7.8,2l-5.9,5.9l-2,5.9l-3.9,9.8l-3.9,9.8l-5.9,13.7l-3.9,2l-9.8,3.9l-3.9,3.9l-2,5.9l-2,5.5V-29l2,3.9l3.9,5.9l7.8,2l3.9,2
					l3.9,5.7l2,10l2,7.9l-2,11.8l-2,11v9.9l2,11.8l2,14.3v19l3.9,7.8l3.9,7.8l2,7.8v17.7l-3.9,7.9l2,13.7l2,7.9l2,3.9l3.9,7.8l2,7.9
					l2,4.2v7.6l2,5.9l2,8.4v5.3l3.9,3.9h3.9l3.9-5.9l2-7.9l7.8-3.9l2-7.9l7.8-7.9l9.8-2l7.8-3.9h24.5l5.9-2h13.7l3.9,5.9l3.9,9.8
					l2,5.9l7.8,7.2v4.6l3.9,5.9h9.8l9.8-9.8l7.8-11.8l3.9-9.8v-11.6l-3.9-5.9l-3.9-11.8l2-7.8l2-13.7l3.9-15.7l3.9-13.7l3.9-9.8
					l5.9-13.7l3.9-13.7l5.9-19.6l3.8-17.7l4-3.9l5.9,2l5.9,3.9l5.9-2l3.9-5.9l7.8-11.8l3.9-19.6l2-13.7l3.9-15.7l3.9-13.7l3.9-9.8
					l5.9-5.9l7.8-9.8l5.9-3.9l3.9-5.9l3.9-3.9l5.9-3.9l5.9-3.9l3.9-2.6v-3.3l2-5.9l3.9-2l5.9-2l17.7-3.9l9.5,15.1l9.8-3.9l3.9-3.9
					l3.9-2h5.9l2,2l3.9,7.8c2.7,1.8,5.4,3.8,7.8,5.9c2,2,9.8,3.9,9.8,3.9l14.1-11.2l9.8,3.9l7.8,2l5.9,2l5.9,3.9l3.9,5.9l5.9,3.9
					l3.9,5.9l5.9,6.4v7.3c0,0,2,3.9,2,5.9s5.9,3.9,5.9,3.9l7.8,2l5.9,3.9l3.9,3.9l5.9,5.9l7.8,3.9l3.9,3.9v7.8l2,5.9l5.9,3.9l5.9,2
					h3.9l2,3.9l3.6,7.8l4,3.9l3.9,2l7.9,3.9l5.6,4.2l4.5,0.5l1.6-0.9l3.2-3.2l1.6-6.4v-8l-4.8-8l-3.2-8l1.6-11.2l8-9.6l1.6-18
					l5.9-13.7l7.8-7.8v-3.2l-1-3.6l-1.6-4.8l-4.8-4.8l-1.6-4.8l-6.4-8l-6.4-6.4l-11.2-6.4l-12.8-6.4l-11.1-4.7l-11.8-2l-5.9-5.9
					l-2-3.9v-7.9l-6-12.6l-7.7-10.9l-9.8-7.8l-7.8-13.7l-3.9-12.4v-54.3l2-20.8v-12.5l5.9-9.8l5.9-9.8l7.8-3.9l5.9-3.9l7.8-5.9
					l5.9-3.9h5.9l5.9,2l9.8-3.9l7.9-3.9l3.9-3.9l5.9-3.9l9.8-3.9l11.8-7.9l7.9-11.8l2-11.8v-13.7l-3.9-5.9l-5.9-5.9l-5.9-9.8
					l-15.7-9.8l-15.7-7.9l-13.8-5.9l-5.9-7.9l-2-15.7l2-15.7l1.8-6.2v-3.2h3.2l1.6,3.2v8l1.6,3.2l1.6,1.6h14.4l3.2-4.8l4.8-8l3.2-8
					l1.6-4.8l3.2-1.6v-1.6l-4.8-3.2l-3.2-3.2V-528l3.2-1.6h3.2l4.6-2.1l3.9-5.9l4.3-8v-8l-1.6-8l-1.1-3.8l1.6-1.6l8-3.2l8-3.2
					l7.9-4.1l7.9-9.8l17.7-15.7l7.8-7.8l11.8-7.8l9.8-11.8l17.6-21.6l17.7-19.6l15.7-17.7l11.8-11.8l13.7-9.8l9.8-5.9l15.7-5.9
					l21.6-3.9l12.2-2h78l5.9,7.8l5.9,3.9l5.9,5.9l5.9,3.9h2l2-3.9l7.9,5.9l5.9-2l2,2l13.7,11.8l11.8,7.8l7.2-0.2l6.5-1.7v4l-6.5,4.2
					l1.6,2.5l3-0.8l4.7-1.7h3.1l7.8,7.6l-2,3.9l-5.9,5.7v6.1l2,7.8l5.9,3.9l7.9,3.9l7.9,2v2l2,3.9l3.9,2l2,2l-3.9,3.9l-2,5.9v7.8
					l-3.8,3.9l1.9,2l5.9-2l7.8,5.9l3.9,5.9l5.9,9.8l3.9,2l9.8,3.9l11.8,5.9l7.9,3.9l2,5.9l3.9,7.8l5.9,5.9l4.9,3.9h6.8l-3.9,3.4v2.4
					l3.9,2v3.9l7.9,5.9l9.8,7.8l7.9,11.8l3.9,5.9l5.9,5.9v5.9l2,5.9l-2.3,3.1l-1.6,1.6l-3.2,3.2l-4.8,3.2l-3.2,1.6l-3.2,3.2
					l-1.6,4.8l1.6,1.6l1.6,3.2l3.2,3.2l1.6,1.6v3.2l1.6,1.6v3.2l1.6,1.6l3.2,1.6l5.5,2.1l-0.7,1.1l-4.8,3.2l-4.8,3.2v1.6l1.6,1.6
					h4.8l-1.6,4.8l1.6,3.2l-3.2,6.4l-3.2,4.8h-3.2l-1.6,1.6v3.2l1.6,3.2l1.6,4.8l1.6,4.8l1.6,4.8v6.4l-3.2,4.8l-6.4,3.2l-4.8,3.2
					l-1.6,3.8v5.9l1.6,4.8l3.2,1.6l3.2,6.4v3.2l-1.6,6.4l-3.2,2.5v2.4l3.2,1.6l4.8,6.4l1.6,4.8l3.2,4.8l3.2,6.4l3.2,1.6l4.8,3.2
					l1.6,3.2l1.6,1.6h6.4l3.2,1.6l1.6,3.2l3.2,4.8l3.2,1.6l8,3.2l4.8,1.6l4.8,4.8l3.2,6.4l4.8,1.6l3.2,3.2h1.6l1.6-1.6l4.8-3.2h3.2
					l4.8,1.6l4.8,1.6h9.6l3.2,1.6l1.6,3.2l1.6,3.2l6.4,4.8l3.2,1.6l3.2,1.6l3.2,3.2l3.2,1.6l4.8,3.2l6.4,1.6l4.8,1.6h4.8l3.2-1.6
					h11.2l6.4,1.6l8,4.8l4.8,1.6l4.8,3.2l4.8,4.8l3.2,6.4l3.2,4.8l3.2,3.2l4.8,3.2l6.4,3.2h1.6l3.2-1.6l3.2-6.1v-6.7l1.6-1.6h4.8
					l4.8-1.6l4.8-1.6h1.6l1.6,1.6l19.2,25.6l8,11.2l1.6,3.2l4.8,3.2l6.4,3.2l4.8,3.2l6.4,4.8l6.4,3.2l3.2,1.6h3.2l4.8-1.6h3.2
					l6.4,1.6h9.6l3.2-4.8v-9.6l-1.6-11.2l1.6-6.4v-3.2l-1.6-12.8v-16l1.6-4.8h1.6l4.8,8l9.6,11.2l8,8l3.2,4.8l6.4,3.2l3.2,4.8v4.8
					l4.8,3.2l6.4,1.6l6.4,1.6l6.4,3.2l6.4,1.6l3.2-1.6l4.8-3.2h3.2v1.6l-1.6,1.6l-6.4,8l-6.4,8l-9.6,6.4l-8,4.8l-14.4,9.6l-6.4,6.4
					l-1.6,9.6l-3.2,6.4l-6.4,1.6h-8l-8,1.6l-3.2,1.6l-4.8,6.4l-4.8,6.4l-3.2,4.8l1.6,4.8l-1.6,9.6l-1.6,6.4l-1.6,6.4l-3.2,4.8
					l-3.2,3.2l1.6,1.6l1.6,3.2l1.6,3.2l-3.2,1.6h-6.4l-9.6,1.6L2883-50l-4.1,3.2l-4.8,7.9v24.1l8,11.2l3.2,7.7l1.6,10l-1.6,6.5V29
					l1.6,5.9l1.7,3.4l1.4,4.4v7l0.3,5.4l3.1,8.9l3,4.5l3.2,3.2l1.5,4.9l4.6,8.6l6.5,11.9l6.2,12.8l4.8,9.6l5,8l6.4,4.8l11.9,8
					l12.1,4.8l11.3,3.2l8.6,1.1l5.7,0.3l6.4,0.2h6.4l4.8-1.6h4.8l3.2,1.6h25.6l6.4-3.2h6.4l4.8-3.2l4.8-1.6l4.8-3.2l3.2-1.6h6.4
					l4.8-3.2h3.2l4.8,1.6h9.6l8-3.2h3.2l9.6,1.6h6.4l1.6,1.6l-1.6,1.6l-3.2,4.8l-3.2,4.8v3.2l-3.2,1.6l-4.8,3.2l-1.6,3.2l1.6,9.6
					l3.2,8l3.2,8l3.2,4.8l1.6,14.4l-3.2,1.6h-8l-6.4,3.2h-4.8l-3.2-1.6l-8-3.2h-4.8l-6.4,1.6l-8,3.2l-1.6,3.2v3.2l1.6,6.4l1.6,11.2
					l-1.6,3.2h-3.2l-4.8-3.2l-3.2-1.6l-3.2-3.2l-4.8-1.6l-4.8-3.2l-4.8-1.6h-4.8l-3.2,1.6l-1.6,4.8l-1.6,6.4l1.6,4.8l4.8,6.4
					l11.2,9.6l12.8,9.6l4.8,1.6l6.4,1.6l3.2,1.6l4.8,8l-1.6,0.8v2.4l1.6,1.6l12.8,11.2l11.2,8h6.4l6.4-3.2l6.4-1.6l6.4-4.8l5.1-0.9
					l7.7,1.2l1.3,5.4l3.6-1.1l5.2-1.8l6.1-2.7l2.5-0.5l2.3,0.2l1,4l-1.8,5.3l-4.5,4.7l-4.4,2l-2.6,3.9l-0.3,4.7l1,3.3l-1.6,3.6
					l-1.3,2.5l-3.1,2.3h-1.9l-1.8,3.8l1,1.1l-2.5,6.9l-2.5,4.2l-1.9,2.3l-2.1,6.1l-2.1,0.7l-2.6,2.8l-2.1,5.8l1,3.3l-3.3,2.8
					l-2.8,6.1l-4.7,5.2l0.7,4.6l-1.6,5.4l-1.8,3l1.4,1.2l5.5,1.6l4.4,3.2l7,1.3l5.1,3.5l2.7,3.6h3l7.9,6.2l7.6,7.3l4.4,4.6l5,2.1
					h5.3l4,1.3l2.3,4.3v3l5.2,2.4h11l1.5,2.3l3.9,1.1h8.9l4.5,2.6l5.8,1.6h5.4l5,3.2l5.6,2.4h2.3l1.5-1.7l2-0.8l1.3,1.1l2.5,0.8
					l0.9,1.7l-0.7,1.1l1.9,1.3l1.1-1.7l1.3-0.9l3.4-0.4l4.5,0.5l2.7,0.8l2.5-1.2l2.9-2.1l3.1-5.6l2.7-5.6l3.3-5.6l5.2-6.9l4.4-4.6
					l6-7.3l5.4-5.2l5.7-6.1l1.5-6.2l-2.3-6.4l-0.7-6.4l1.5-4.6l-0.1-3.7l1.1-4.1l1.7-2l2-0.3l3.7,2l4,1.5l2.8,0.4l2.8-2l3-2.9
					l4.1-2.3l3.6-3.2l1.9-2.5l0.8-3.2l1.2-3.7l3-1.9l2.5-0.7l2.5,0.9h2l1.7-1.1l0.7-5.7l3.4-4l3.5-6.2l2-3.9v-3.6l3.6-3.6l5.1-1.2
					l5.5-3.4l2.2-3.9l1.4-2.4l2.2,0.2l1.7-2.6l-1.2-4.3V299l-0.7-3.9l4.1-5l5.8-5.3l4.6-1.2l4.6,1.9l3.6,0.5l4.8-2.9l7.5-5.3
					l3.1-2.9l3.9-5.8l5-6.5l5.8-5l2.6-2.9c0,0-1.9-4.3-1.2-4.3s-1.7-5.5-1.7-5.5l1.9-4.8l2.2-2.9h2.2l2.6,2.2l2.6,0.5l4.1-1.9
					l4.8-3.8l4.6-7l1.4-8.9l-1.2-6.7l-2.2-5.3l1-2.9l5.5-2.2l5.5,1l2.6,1.9l3.4,1l4.3-3.4l3.4-4.1l4.3-5.5l4.1-6.5l3.6-5.3V176
					l2.4-3.4l5.8-2.6l5.3-2.6l4.6,1l2.3,4.7l1.9,3.9l3.1-0.2l4.3-3.4l3.4-6V160l1.7-8.2l3.1-7.2v-5.5l-1.9-2.2l-3.6,0.2l-1.7-2.6
					l2.6-3.4l-0.5-5.1l-1-5.8l-1.2-3.8l1.7-6.7l1.2-6.5l-0.2-5.3l3.5-1.9l5.2-2.2l4.5-4l4.2-5l4.8-2.8l1.1-5.7l0.1-6l-0.1-7.1
					l-0.8-7.1l-3.1-2.4l-5.2-2.9l-4.2-2.5l-4.5-1l-3.6-0.6l-6-2.2l-9-3.5l-6.4-2.8l-3.5-5.6l-2.7-7.1l-3.2-8.5l-3.9-9.6l-4-8.6
					l1.9-1.5l1.5-2.6l0.6-3.7l-0.8-4.6l-3.3-2l-4,0.1l-3.6,0.1l-3.2,1h-3.2l-3.3-1.5l-2.6-0.7l-4.7,1l-2.9,2.5l-3.2,3.2l-3.6,2.8
					l-5.8,1h-12l-1.1-2.8v-6.4l1.4-6.4l2.6-5.1l4.7-5.4l5.4-3.3l6.8-5l2.9-4.3l1.2-5l1.7-3.3l1.7-4.8l1.5-3.3l2.6-1l4-3.3l4.6-3.7
					l1.9,2.1h3.9l2.1-1.7l4.7-3.6c0,0,8.7-5.7,8.4-6.1s10.8-8.2,10.8-8.2l12.4-10.5l2-3.6v-4.8l1.2-2l-0.9-2.8l0.4-2.4l2.3-4
					l3.3-3.1l3.8-1.8l2.6-0.9l0.8-2.1l1.8-2.6l2.2-1.8l0.4-2.7l-0.2-4.7l-0.2-5.6l0.8-2.5l2.7-2.1l0.6-2.3l-1.2-2.7l0.3-2.4l2.3-3.3
					l0.4-3.4l1.2-3.9l0.4-3.6l1.6-2.1l3.5-2l4.3-3l0.7-3.1l2.7-3.9l-0.3-3.9l0.2-3.9l2-3.7l4.5-6.1l5.2-4.2l2.1-4.4l2.6-4.4l0.4-4.9
					l2.7-3.6l1.6-4.1l3-4l2-2.7l-1.6-2.6l-0.7-3.3l1.3-4.2l2.6-4.9l2.4-1.3l4.1,0.2l3.8,1l2.8,1.3l1.2-1.2l-1.5-1.5l-2.5-1.9l0.4-2
					l3.1-3.8v-4.5l-0.8-4.3l0.7-2.8l0.7-4.1l-1.9-3.5l-4.3-1.9h-3.6l-3.8-0.7l-2.5-2.3l-2.8-4.2l-2.7-5.9l-0.9-4.4l0.1-4.1l-0.3-4.2
					l-1.5-2.9l-2.6-4.3l-5.1-2.8l-3.9-4l-3.7-1.6v-3.2l3.2-8v-4.7l-3.2-4.8l-1.6-3.2v-9.6l1.6-3.2v-3.2l-3.2-3.2l-1.6-4.8l-1.6-16
					l-1.6-11.2v-3.2l-1.6-4.8l-1.6-3.2l-1.6-1.6l-3.2-3.2h-3.2l-1.6-1.6l-1.6-1.6v-3.2l-1.6-1.6l-3.2-1.6l-6.4-1.6l-3.2-1.6l-8-3.2
					h-3.2l-8-3.2h-8l-11.2-3.2l-8-3.2l-4.8-6.4l-3.2-6.4l-1.6-3.2l-1.6-3.2l-3.2-1.6h-4.8l-2.6,2.1l-3.8,1.1l-2.4-2.8l-0.4-4.8
					l2.4-6.6l5.1-6.8l3.7-6.6l-0.7-7.7l-3.1-6l-2.9-3.8l-3.1-2.6h-4.6l-3.8,2l-3.5,1.6l-3.7,0.2v-6l2.4-4.5l4.8-4.2l2.2-4.7v-3.7
					l2.6-2l3.7-0.4l2.4-3.1l5.5-1.8l3.1-1.5l1.8-3.5l2.8-3.5l3.3-0.7l5.7,1.5l5.1,3.5l4.8,2.9l3.3,0.5l4.2-1.3l3.3,0.5l3.3-1.3
					l4.9-3.7l10.6-4.8l6.4-3.3l5.9-1.6l2.6-1.4l2-2.4l3.4,0.7l3.7-0.4l7.5-1.3l9.9-0.9l6,1.8l7.1,2.4h17.2l8.2,2l5.9,4.2l2.6,4.9
					l2,4.8l4.4,2l8.6,2l7.3,1.3l3.7-1.3l3.8,1.3l1.6,4l4,6.2l2.7,7.5l3.1,10.8l1.6,7l1.6,9.1l1.6,9.5l2.5,8l3.2,4.8l4.2,11l4.9,10.5
					l4.7,7.9l4.1,4.5l4.8,4.8l1.6,3.2l1.6,2.3v2.5l3.2,3.2v3.2l-0.8,2.2v3.4l3.2,6.4v25.6l-1.6,3v3.4l0.7,1.8l2.3-0.1l2.9-2l2.6-1.5
					l3.1-1l2.9,0.6l3.2,3.3"/>
			</g>
		</g>
	</g>
</g>
</svg>
