<?xml version="1.0" encoding="utf-8"?>
<!-- Generator: Adobe Illustrator 23.0.3, SVG Export Plug-In . SVG Version: 6.00 Build 0)  -->
<svg width="3840" height="1080" version="1.1" id="圖層_1" xmlns="http://www.w3.org/2000/svg" xmlns:xlink="http://www.w3.org/1999/xlink" x="0px" y="0px"
	 viewBox="0 0 3840 1080" style="enable-background:new 0 0 3840 1080;" xml:space="preserve">
<style type="text/css">
	.st0{fill:#70CCB8;}
</style>
<g>
	<path class="st0" d="M2375.4,281.4c-8.9-1.8-17.6-4.6-26.5-6.4c-7.2-1.5-14.9-4-21.8-2.8c-15.8,2.6-31.2,7.2-46.8,11
		c-15.2,3.7-30.4,7.2-46.1,10.9c-1.7-8.5-3.2-16.2-4.7-24.3c-11.1,2.3-21.7,4.2-32.3,6.7c-7.5,1.7-15.2,3.4-22.2,6.4
		c-12.6,5.4-24.7,12.1-37.2,17.8c-9.2,4.2-16.2,9.9-22.8,18.1c-26.7,33.6-54.5,66.3-82,99.3c-7.4,8.9-7.5,8.7,1.3,16.5
		c7.6,6.7,15.6,13.1,22.4,20.6c12.1,13.3,15.9,29.8,16.7,47.3c0.4,8.5,1.3,16.9,2.5,25.3c0.8,5.6,3.1,7.4,8.3,6.2
		c-34.1,24.4-67.1,48-99.1,70.9c-9.8-29.7-19.4-59-29.2-88.6c-16,6.6-31.4,13-47.3,19.5c0.7,0.5,1.1,0.9,1.5,1.1
		c10,4,14.9,14.2,11.1,24.1c-1.3,3.3-4.2,5.9-5.9,9c-1.3,2.5-3,5.2,1,7.5c5.1,3,9.9,6.5,14.6,10c4.3,3.1,7.9,7.5,12.6,9.7
		c13.6,6.4,27.8,11.1,43.2,9.9c4.7-0.3,7.5,1.2,10.3,5c7.7,10.7,16.3,12.9,28.6,8.5c16.6-6,33.5-10.7,51.5-9.3
		c2.2,0.2,4.4-0.2,6.5,0.1c7.7,1.2,16.9-7.9,14.8-16.8c-1.1-4.6-2.3-9.3-4.3-13.6c-3.3-7.2-5.4-14.3-5.5-22.4c0-8-1.8-16.1-3-24.9
		c0.2-0.1,0.5-0.1,0.7-0.2c-1-15.3-1.9-30.7-3.1-46.1c-1.1-13.4-1.9-26.8-3.9-40.1c-2.1-13.9-3.9-26.3,7.6-38.6
		c20.5-22,38.7-46.2,58.3-69c7.3-8.5,16.8-13.6,28.8-11c9.4,2.1,18.6,5.1,28.1,6c10.4,1,21.3,1.5,31.6-0.1
		c13.5-2.1,26.4-7.5,39.9-9.8c16-2.7,32.2-3.6,48.4-5.3c2.9-0.3,6-0.4,8.7-1.5c14.1-5.6,28.4-11.1,42.2-17.4
		c10.2-4.7,9.1-2.6,7.7-13.8C2380.2,283.2,2378.9,282.1,2375.4,281.4z"/>
	<path class="st0" d="M1834.7,563.3c-1.7,0.5-3,0.8-4.2,1.2c-17.8,6.2-35.9,12-53.5,18.8c-21.6,8.4-43.7,14.1-67,15.5
		c-18.7,1.1-37.4,3.6-56,5.5c-7.8,0.8-15.6,2.4-23.3,1.9c-18.6-1-37.1-2.9-55.7-4.5c-3.4-0.3-5.2,0.7-6.4,3.9
		c-1.3,3.5-2.5,7.1-4.1,10.5c-1.8-1.1-2.9-1.9-4-2.6c-1.2-0.8-2.5-1.6-3.7-2.4c0.3-1,0.4-1.8,0.7-2.6c2.6-8.1,2.5-8.7-3.9-14
		c-6.3-5.2-12.6-10.4-18.9-15.5c-1.4-1.2-2.8-2.3-4.4-3.2c-4-2.4-8.1-4.6-12.6-7.1c2.5-3.1,4.4-5.2,6.1-7.4c3.3-4.2,3-7.2-1.2-10.5
		c-8.7-7-17.5-13.9-26.1-21c-2.7-2.2-4.6-2.9-7,0.1c-2.4,3.1,0.4,4.1,2,5.5c9,7.7,18,15.2,27.3,23.1c-8.5,10.6-16.7,20.9-25.2,31.5
		c-8.8-7.2-17.1-14.1-24.2-19.9c1.9-6.9,3.5-12.5,5.1-18.1c0.7-2.5,1-5.5,2.5-7.4c4-5,3.1-8.5-3.2-10.1
		c-13.4-3.6-26.9-7.1-40.3-10.7c-4.8-1.3-6.9,0.1-7.9,5.2c-1.4,6.8-2.8,13.6-4.3,20.8c-6.1-1.5-12.1-2.9-17.9-4.5
		c-24.7-6.9-50.2-11-74-21.1c-2.3-1-4.6-2.7-6-4.7c-14-19.2-27.6-38.8-41.8-57.8c-4-5.3-9.1-10.1-14.5-14.1
		c-10.5-7.6-21.4-14.6-32.5-21.4c-5.7-3.5-11.8-7-18.2-8.7c-25.4-6.7-51.1-12.3-76.4-19.1c-29.7-8-59.8-13.2-90.5-14.9
		c-20.8-1.1-41.6-1.4-62.3-1.8c-19-0.3-38-0.3-57-0.3c-4.3,0-8.7,0.5-12.7,1.7c-32.6,9.8-65.1,19.8-97.7,29.6
		c-11.1,3.3-22.3,6.3-33.5,9.5c-0.2,0.4-0.5,0.7-0.7,1.1c5.3,2.3,10.5,6,16,6.7c20.7,2.5,40-2.4,56.9-14.8
		c13.8-10.1,28.8-10.9,44.6-7.7c6.4,1.3,11.9,0.3,17.6-2.8c5.5-3,10.4-6.1,11.2-13.1c0.6-4.6,3.9-6.3,8.2-6.2
		c6,0.2,11.9,0.6,17.9,0.7c4.7,0.1,6.2,2.8,6.8,6.9c0.3,1.9,1.2,4.6,2.7,5.3c3.3,1.8,7.2,3.8,10.9,3.8c12.3-0.2,24.4,0.7,36.5,3.3
		c1.9,0.4,4.2,0.1,6-0.6c5.6-2.4,11-1.6,15.4,2.8c1.8,1.8,3.6,3.5,5.3,5.3c6.5,6.7,16.7,9.7,26.4,1.9c2.7-2.2,5.7-4.1,8.8-5.5
		c3.3-1.5,6.6-1.4,9.6,1.4c5,4.6,10.2,9,15.4,13.4c3.4,2.9,12.4,1.7,14.9-1.8c2.2-3,6.5-4,8.6-2.1c3.4,3,6.8,6.2,10.5,8.8
		c3.3,2.3,5.5,4.9,5,9c-0.3,2.7,1.1,3.8,3.4,4.5c2.1,0.6,4.1,1.2,6.1,2c8.5,3.2,15.4-2,21.3-6.1c3.9-2.7,6.6-3,10.5-2.3
		c3.1,0.5,6.2,0.8,9.3,1.4c4.1,0.8,8.2,1.9,12.3,2.8c4.4,1,8.8,2.6,13.3,3c6.2,0.6,11.6,2.3,16,6.8c2.1,2.1,4,4.7,6.6,6
		c5.4,2.9,6.4,7.4,6.6,12.8c0.1,2.7,0.5,5.8,2,8c3.1,4.6,7,8.8,10.6,13.1c4.7,5.5,9.5,11,14.2,16.6c1.4,1.6,2.8,3.4,3.5,5.4
		c2.5,7.7,8.5,12.9,13.2,19c3.9,5.1,7.5,10.4,11.3,15.6c1.1,1.6,2.2,3.3,3.4,4.8c2.5,3.1,5.1,6.3,7.8,9.3c1.8,2,3.6,4.6,5.9,5.6
		c3.4,1.4,7.4,1.6,11.1,2.3s7.5,2.1,11.2,1.7c8-0.8,16-2,23.7-4c11-2.9,21.1,0.8,31.2,3.6c19.4,5.3,36.9,14.5,52.4,27.7
		c5.2,4.4,10.6,7.9,9.3,16.1c-0.4,2.6,2.2,5.5,4.7,3c5.4-5.5,11.8-5.5,18.5-5.1c6.3,0.3,11.2-2.4,15.7-6.3c1.9-1.6,3.9-3,5.9-4.6
		c2.3-1.8,4.1-1.4,6,0.7c3.1,3.3,6.2,6.5,9.6,9.5c2.8,2.5,2.8,4.2,0,6.8c-3.7,3.3-7,7.1-10.1,10.9c-0.9,1.1-1.2,3.6-0.6,4.8
		s2.7,1.7,4.3,2.1c4.8,1.2,10.1,1.2,14.3,3.4c12.4,6.3,24,14,34.7,23.1c6.6,5.6,14.9,9.2,21.1,15c6.5,6.1,13.2,6.4,20.6,4.2
		c5.4-1.6,10.3-1,14.7,2.1c3.5,2.5,7.1,3.3,11.2,3c3-0.2,6-0.2,9,0c5.6,0.4,11.8-1.9,16.4,3.4c0.3,0.4,1.6,0.3,2.3,0.1
		c10.4-4.2,20.7-8.7,31.1-12.8c6.1-2.4,12.3-4.5,18.4-6.7c3.3-1.2,7.1-1.6,10-3.4c5.8-3.5,11.3-5.9,18.1-2.6c2,1,5.5,1.6,7,0.5
		c8.9-6.4,20.7-10.8,19.6-24.8c0.7-0.3,1-0.4,1.3-0.5c0.8-0.1,1.7-0.1,2.5-0.1c13.5-0.1,25.7-3.5,36.4-12.2c2.5-2.1,6.2-2.7,9.4-4.1
		c3.8,5.6,7.3,10.6,10.5,15.8c0.9,1.4,1.6,3.6,1.2,5.1c-2.2,8.3-0.1,16.1,1.9,24c1.9,7.4,13.3,11.6,19.5,6.9
		c0.9-0.7,1.4-2.2,1.5-3.4c1.1-20.9,2.2-41.9,3.2-62.8c0.1-1.4,0-2.8,0-4.4c0.4-0.2,0.9-0.3,1.3-0.5
		C1843.3,589.9,1839.1,576.8,1834.7,563.3z M1562.9,619.6c-0.1,0.2-0.3,0.5-0.4,0.7c-1.7,2.9-4,5.4-6.3,8
		C1558.5,625.4,1560.7,622.5,1562.9,619.6z"/>
	<path class="st0" d="M2957.9,639.8c-6-1.3-12-2.6-18-3.8c-7.2-1.5-14.5-2.9-21.7-4.3c-1.7,4.7-3.3,8.8-5.2,14.1
		c-3.7-2.6-7.1-4.3-9.5-6.9c-2.2-2.3-3.6-5.5-5-8.5c-1.9-4-8.5-8.7-11-7.3c-4.7,2.7-9.4,5.6-14.2,8.5c7.3,15.7,7.3,15.8,21.6,22.5
		c5.7,2.7,11.6,4.9,17.3,7.6c3.1,1.5,5.8,3.6,8.7,5.4c13.4,8.4,25.3,11.3,34.9-4.9c2.7-4.5,4.8-9.5,6.8-14.4
		C2964.4,643.4,2962.7,640.8,2957.9,639.8z"/>
	<path class="st0" d="M1897.2,542.6c0.5-0.3,0.7-1,1.7-2.5c-20.9,7.5-40.8,14.6-60.8,21.8c4.2,13.8,8.2,26.9,12.3,40.5l0,0
		c-0.4,0.9-0.7,2-0.8,2.8c-0.6,13.3-1.1,26.6-1.4,39.9c-0.2,8.9,0,17.7,0,26.6c0.3,0.4,0.6,0.8,0.9,1.1c6.9-14,19.5-19.7,32.6-25.1
		c4.1-1.7,7.9-6,10.1-10c1.1-2.1-1.3-6.5-2.7-9.6c-3-6.7-3.5-13.3-0.9-20.3c0.7-1.7,0.2-3.9,0-5.9c-0.6-3.8-1.3-7.5-2.1-11.8
		c0.1,0,0.3-0.1,0.4-0.1c1-0.4,1.5-2.2,2.1-3.5c2-4.7,4-9.4,5.9-14.1c1.8-4.6,3.7-9.2,4.8-14c0.4-1.8-0.6-4.8-2-6
		C1892.8,548.7,1892.7,545.8,1897.2,542.6z"/>
	<path class="st0" d="M2787.3,527.6c-2.7,2.1-5.1,4-7.3,5.7c2.8-2.2,5.5-4.4,8.4-6.6c-1.6-2.3-2.8-4.1-4-5.8
		c-10.4-15-20.9-30-31.2-45.1c-1.6-2.4-3.2-5.3-3.4-8.1c-1-10.1-1.5-20.2-2.2-30.3c-0.8-11.8-1.4-23.5-2.3-35.3
		c-0.5-5.9-2.5-7.5-8.2-7.5c-46.8,0-93.7,0-140.5,0c-1.9,0-3.8,0-5.7,0c-0.2-2.7-0.3-4.6-0.5-7.1c-4.8,0.4-9.5,0.1-13.5,1.5
		c-1.4,0.5-1.2,5.5-1.9,8.7c-3.2,0-6.4,0-9.5,0c-4.9-0.1-6.9-2.6-5.4-7.3c1.4-4.4,2.9-8.8,4.4-13.1c1-2.8,0.4-4.3-3.2-4.5
		c-2,5.2-4,10.5-6,15.7c-2.6,6.7-2.9,6.9-9.7,4.5c-13-4.4-26.1-8.3-40.4-8.3c4-2.7,7.7-6.1,10.5-9.9c1.1-1.4-0.8-5.2-1.7-7.8
		c-4-12-8.1-24-12.2-36.3c-6,1.8-11.7,3.5-17.2,5.2c2.7,8,5.4,15.4,7.7,22.9c2.2,7.6,4.3,15.3,5.7,23c0.3,1.4,0.8,2.4,1.4,3.1
		c-0.5,0-1,0.1-1.4,0.1c2,5.4,3.6,10.4,5.6,15.3c8.3,20.6,16.1,41.5,31.7,58.2c4,4.3,9,4.8,14.1,1.7c6.8-4.1,9.7-10.3,11.1-17.8
		c1-5.5,5.3-7.4,10.2-7.7c4.5-0.3,7,2.4,9.1,6.2c5.6,10.1,11.6,20.1,17.5,30c1.7,2.9,3.8,2.9,5.9,0.3c3-3.7,5.9-7.6,9-11.2
		c14.1-16.2,26.6-23.5,45.1-10.3c0.3,0.2,0.6,0.4,0.8,0.5c16.2,10.5,33.8,16.6,53.3,16.5c3.4,0,7.7,1.1,10.1,3.3
		c8.4,7.5,16.8,15.3,24.2,23.7c6.9,8,12.7,17,19,25.5c4,5.4,8.1,10.8,12.3,16.4c0.2-0.2,0.4-0.4,0.7-0.5
		c6.6,20.2,25.9,23.4,40.8,32.8c1.6-3.5,2.8-6.3,4.4-9.7C2808.5,550.7,2797,540.2,2787.3,527.6z"/>
	<path class="st0" d="M732.7,419.6c-5,9.7-9.8,19.6-14.8,29.4c-1,2-2.5,3.9-4.1,5.5c-5.6,5.2-11.4,10.2-17.1,15.3
		c-8.3,7.4-16.6,14.8-24.9,22.3c-1.3-0.9-2.4-1.4-3.1-2.2c-5.6-6.1-12.2-5.9-19.7-4.2c-17.1,3.9-34.3,7.3-51.5,10.9
		c-6.7,1.4-13.5,2.5-20.2,3.8c-0.1-0.2-0.1-0.4-0.1-0.7c-42.4,10.6-80.9,29.3-121.3,42.7c0.3,2,0.5,3.1,0.8,4.2
		c1.7,6.9,1.7,6.8,8.5,4.9c9.2-2.5,18.1-6.9,28-5.8c5.1,0.6,9-1.4,12.4-5c0.9-0.9,1.9-1.8,2.9-2.6c8.4,5,19.3,2.6,24-5.6
		c3-5.3,7.1-9,12.2-12c3-1.7,5.8-2.4,9.4-1c2.6,1,5.9,1,8.6,0.3c5.7-1.4,11.3-3.5,17.3-5.5c1.2,2.2,2.7,4.2,4.6,6.1
		c1.6,1.7,3.3,3.3,4.6,5.3c4.2,6.5,10.9,9.6,17.5,12.5c10.4,4.6,20.9,3.5,31.6,0.3c11.2-3.4,22.4-6.5,30.8-15.2
		c6.3-6.6,9.7-14.9,12.8-23.4c1.3-3.6,3.3-7.5,6.1-9.8c9.8-8,20.2-15.4,30.3-23.1c1.3-1,3.1-1.5,4.2-2.7c1.9-2.1,4.4-4.3,4.8-6.8
		c1.2-7.8,4.6-14.4,8.9-20.8c1.5-2.3,2.4-5.4,2.4-8.2c0.1-5.1-0.7-10.3-1.1-15.7C735.8,415,734,417.1,732.7,419.6z"/>
</g>
</svg>
