<?xml version="1.0" encoding="utf-8"?>
<!-- Generator: Adobe Illustrator 23.0.3, SVG Export Plug-In . SVG Version: 6.00 Build 0)  -->
<svg width="3840" height="1080" version="1.1" id="Layer_3" xmlns="http://www.w3.org/2000/svg" xmlns:xlink="http://www.w3.org/1999/xlink" x="0px" y="0px"
	 viewBox="0 0 3840 1080" style="enable-background:new 0 0 3840 1080;" xml:space="preserve">
<style type="text/css">
	.st0{fill:#70CCB8;}
</style>
<g>
	<polygon class="st0" points="804.2,427.4 812.2,433.4 818.2,435.4 840.5,435.4 850.6,433.4 856.6,431.4 864.6,427.4 872.6,423.4 
		878.6,419.4 884.6,415.4 890.6,413.4 898.6,411.4 910.8,411.4 916.6,412 922.9,413.6 929.3,413.6 935.7,412 938.1,409.9 
		946.1,405.9 948.1,399.9 950.1,393.9 952.1,391.9 956.1,391.5 970.3,391.5 976.3,391.9 980.2,393 982.3,397.9 982.3,401.9 
		986.3,405.9 992.3,407.9 1017.6,407.9 1023.6,409.9 1027.6,409.9 1035.6,411.9 1038.5,410.5 1041.7,408.9 1044.9,408.9 
		1051.3,410.5 1052.8,412.1 1057.6,416.8 1060.8,420 1065.6,423.2 1071.9,424.8 1076.7,424.8 1083.1,421.6 1089.5,416.8 
		1095.8,413.7 1101.8,414.4 1107.8,420.4 1113.8,424.4 1119.8,430.4 1131.9,430.4 1133.9,426.4 1137.9,424.4 1141.9,424.4 
		1143.9,428.4 1149.9,432.4 1155.9,436.4 1157.9,440.4 1157.9,446.4 1163.9,448.4 1169.9,450.4 1173.9,450.4 1177.9,448.4 
		1181.9,446.4 1183.9,446.4 1187.9,444.4 1189.9,440.4 1195.9,440.4 1201.9,442.4 1213.9,442.4 1221.9,446.4 1225.9,448.4 
		1236,448.4 1242,450.4 1246,452.4 1248,454.4 1250,456.4 1254,460.4 1260,464.4 1262,470.4 1262,478.4 1264,482.4 1270,488.4 
		1272,492.4 1276,496.4 1280,500.4 1282,504.4 1284,506.4 1288,510.4 1292,516.4 1294,522.4 1298,526.4 1302,532.4 1308,538.4 
		1312,542.4 1314,546.4 1316,550.4 1318,554.4 1324,558.4 1328,566.4 1332,570.4 1338,570.4 1344,572.4 1350,572.4 1354,574.4 
		1358,572.4 1373.4,572.4 1377.4,570.4 1387.5,568.4 1397.5,570.4 1407.5,572.4 1419.5,576.4 1429.5,580.4 1439.6,584.4 
		1445.6,588.4 1453.6,594.4 1461.6,600.4 1469.6,606.4 1471.6,610.4 1471.6,618.5 1473.6,620.5 1475.4,620.5 1477.6,618.5 
		1479.6,616.5 1485.6,614.5 1499.7,614.5 1503.7,612.5 1507.7,610.5 1511.7,606.5 1517.7,602.5 1519.7,602.5 1521.7,604.5 
		1523.7,606.5 1527.7,610.5 1529.7,612.5 1533.7,616.5 1533.7,619.1 1527.7,624.6 1523.7,628.6 1519.7,634.6 1521.7,638.6 
		1529.5,638.6 1537.8,640.6 1543.8,644.6 1551.8,648.6 1557.8,652.6 1561.8,654.6 1565.8,658.6 1567.8,660.6 1575.8,666.6 
		1581.8,670.6 1587.8,674.6 1593.8,678.6 1597.8,682.6 1601.8,684.6 1611.8,684.6 1617.8,682.6 1621.8,682.6 1627.8,684.6 
		1633.8,688.6 1661,688.6 1665.9,692.6 1673.9,690.6 1677.9,688.6 1683.9,686.6 1687.9,684.6 1693.9,682.6 1701.9,676.6 
		1707.9,674.6 1715.9,672.6 1721.9,672.6 1727.9,668.6 1731.9,666.6 1735.9,664.6 1750,668.6 1764.2,658.4 1770.2,650.4 
		1770.2,642.4 1782.2,642.4 1802.3,636.4 1812.3,628.4 1820.3,626.4 1832.4,644.5 1830.4,656.5 1834.4,674.6 1838.4,678.6 
		1850.5,678.6 1853.6,677.2 1857.3,606.8 1823.9,619.5 1765,640.2 1728.4,664.1 1694.9,673.6 1644,680 1632.9,676.9 1566,633.9 
		1574,625.9 1577.2,619.6 1569.2,614.8 1571.9,606.8 1570.8,602 1543.7,579.7 1540.6,579.7 1531,571.7 1539,562.2 1539.8,559.5 
		1539,557.4 1507.1,532 1504,531.6 1501.8,532.7 1500.7,534.9 1501.8,537.2 1532.6,562.2 1507.1,594 1480,571.7 1481.7,571.7 
		1484.9,568.5 1489.6,547.8 1491.2,547.8 1492.8,546.2 1492.8,543 1491.2,539.8 1443.5,527.1 1440.3,530.3 1435.5,554.2 
		1386.7,541.7 1389.4,529.8 1386.1,529 1383.4,540.9 1365.5,536.3 1369.3,519.7 1366,519 1362.2,535.5 1360.6,535.2 1345.9,529.5 
		1346.4,527.1 1346.1,526.9 1354.8,516.2 1352.2,514.1 1343.5,524.9 1342,523.8 1339.2,526.2 1332.2,516.5 1348.8,504.1 
		1346.8,501.4 1330.3,513.7 1318.6,497.4 1323.1,494.1 1321.1,491.4 1316.6,494.7 1295.4,465.1 1289,457.1 1242.8,426.9 
		1236.5,423.8 1230.8,422.4 1236.7,400.5 1233.4,399.6 1227.5,421.6 1193.3,413.3 1196.1,400.3 1192.8,399.6 1190,412.5 
		1131.8,398.3 1135.2,387.2 1132,386.2 1128.6,397.5 1112.3,393.5 1105.3,392.8 1106,379.6 1102.6,379.5 1102,392.5 1061.3,388.7 
		1025,387.8 1025,381.7 1021.6,381.7 1021.6,387.7 992.5,387 942,387 934,388.6 922.9,392 918.9,373.7 915.6,374.4 919.7,393 
		814.7,426.3 	"/>
	<polygon class="st0" points="1897.4,592.5 1860.6,605.1 1858.6,674.9 1866.6,666.5 1872.6,658.5 1878.6,656.5 1892.6,650.5 
		1902.7,640.2 1896.7,624.1 1896.7,616.1 1898.7,610.1 1898.7,606.1 1896.7,600.1 1896.7,596.1 	"/>
	<polygon class="st0" points="2003.4,610.1 2009.4,618.1 2017.4,624.1 2023.4,626.1 2033.4,624.1 2043.4,620.1 2053.4,618.1 
		2067.5,614.1 2097.6,614.1 2105.6,608.1 2107.6,600.1 2105.6,590.1 2101.6,582.1 2097.6,572.1 2097.6,558 2095.6,546 2094.2,537.6 
		2094.2,537.6 2002.4,603.4 1992.8,610.1 1992.8,610.1 	"/>
	<polygon class="st0" points="761.2,428 745.3,459.8 743.7,463 699.1,502.8 691.1,496.5 687.9,494.9 683.1,494.9 664,499.6 
		625.6,507.1 605.1,510.8 608.3,525.1 615.5,532.3 621.9,540.5 625.9,542.5 631.9,546.5 637.9,548.5 645.9,550.5 653.9,550.5 
		661.9,548.5 669.9,546.5 675.9,544.5 681.9,542.5 691.9,536.5 697.9,530.5 701.9,524.5 705.9,516.5 707.9,510.5 709.9,504.5 
		713.9,500.5 717.9,496.5 723.9,492.5 731.9,488.5 737.9,482.5 741.9,478.5 745.9,476.5 751.9,472.5 753.9,462.4 755.9,456.4 
		759.9,450.4 763.9,444.4 763.9,438.4 764.7,433.2 762.7,429.9 764.7,423.9 	"/>
	<polygon class="st0" points="2753.7,473 2748.9,404.5 2747.3,401.4 2745.7,399.8 2673.1,399.8 2672.9,397.4 2657.3,397.4 
		2656.9,399.8 2595.8,399.8 2595.8,393 2581.8,393.4 2581.8,402.8 2572.4,402.9 2572.4,398.5 2569,398.5 2569,402.9 2567.4,402.9 
		2564.3,398.2 2570.6,379.1 2567.4,377.5 2559.4,398.2 2556.3,399.8 2541.9,395 2541.8,395 2542.5,392.7 2546.7,395 2548.8,391 
		2534.3,383.2 2532.2,387.1 2538.5,390.5 2537.6,393.6 2537.2,393.4 2529.4,391.9 2530.9,386.6 2528.8,386 2527.2,391.4 
		2521.2,390.2 2510.4,389.5 2504.5,389.5 2507.7,399 2510.9,407 2517.1,423 2526.8,442.9 2534.7,454.8 2543.8,465.2 2547.4,465.9 
		2552.2,465.9 2558.5,461.2 2563.3,456.4 2564.9,448.4 2566.5,443.6 2569.7,440.4 2574.5,438.8 2579.2,438.8 2584,442 2586.3,446.8 
		2588.8,451.6 2592,456.3 2598.3,465.9 2603.1,475.5 2604.7,477 2606.6,477 2607.9,475.5 2612.7,470.7 2619,461.1 2623.8,456.3 
		2628.6,453.2 2636.6,448.4 2641.1,446.8 2646.1,446.8 2652.5,448.4 2658.9,451.6 2666.9,456.3 2674.9,461.1 2690.8,467.5 
		2709.2,470.7 2717.8,470.7 2724.2,472.3 2729,475.5 2738.5,485 2749.6,496 2754.4,504 2757.5,507.2 2762.3,515.2 2765.5,518.4 
		2771.9,526.4 2779.9,537.5 2780.9,539.3 2790.2,532 2791.9,530.3 2755.3,477.8 	"/>
	<polygon class="st0" points="2058.5,404.6 2035.8,429.9 2037.3,433.1 2064.4,457 2072.4,468.1 2078.8,480.8 2080.4,490.4 
		2082,501.5 2083.6,522.2 2085.1,535 2088.4,537.5 2094.2,537.5 2093.6,533.9 2093.6,517.8 2091.6,501.7 2091.6,485.6 2089.6,469.6 
		2087.6,451.5 2085.6,441.4 2085.6,429.4 2087.6,421.4 2093.6,415.4 2107.7,397.3 2112.1,392.2 2108.8,388.9 2102.3,395.7 
		2093.8,388.9 2085,400.2 2058.8,377.5 2046.1,367.1 2042.7,371.6 2055,381.3 2081.3,403.8 2078.8,408.8 2083.8,412.6 2083,418.5 	
		"/>
	<path class="st0" d="M1967.9,504.3c1.9,1,4.3,0.3,5.3-1.6l3-5.7l2.5-2.4l2.4-1.5l72.7-17.5c2.1-0.5,3.4-2.6,2.9-4.7
		s-2.6-3.4-4.7-2.9l-74,17.8l-4.1,2.6l-4,3.8l-3.6,6.9l0,0C1965.3,500.9,1966,503.3,1967.9,504.3z"/>
	<polygon class="st0" points="1919,540.3 1925,542.3 1931,548.3 1933,558.3 1933,562.3 1931,568.3 1927,572.3 1925,576.3 
		1925,580.3 1931,582.3 1937,586.3 1945,594.3 1953,600.3 1963,604.3 1975,608.3 1987.3,610.5 1992.8,610.5 1992.8,610.1 
		1992.8,610.1 1992.8,610.1 1992.8,602.2 1965.8,521 1940.1,531.7 1938.1,527.7 1935.1,529.2 1937.1,533 1927.6,537 	"/>
</g>
</svg>
