<?xml version="1.0" encoding="utf-8"?>
<!-- Generator: Adobe Illustrator 23.0.3, SVG Export Plug-In . SVG Version: 6.00 Build 0)  -->
<svg width="7680" height="2160" version="1.1" id="Layer_2" xmlns="http://www.w3.org/2000/svg" xmlns:xlink="http://www.w3.org/1999/xlink" x="0px" y="0px"
	 viewBox="0 0 7680 2160" style="enable-background:new 0 0 7680 2160;" xml:space="preserve">
<style type="text/css">
	.st0{opacity:0.8;}
	.st1{fill:#666666;}
	.st2{clip-path:url(#SVGID_2_);fill:none;stroke:#FF8300;stroke-width:5;stroke-miterlimit:10;}
	.st3{clip-path:url(#SVGID_4_);fill:none;stroke:#FF8300;stroke-width:5;stroke-miterlimit:10;}
	.st4{clip-path:url(#SVGID_6_);}
	.st5{fill:none;stroke:#FF8300;stroke-width:3;stroke-linecap:round;stroke-linejoin:round;stroke-dasharray:8;}
	.st6{fill:none;stroke:#FF8300;stroke-width:3;stroke-linecap:round;stroke-linejoin:round;}
	.st7{fill:none;stroke:#FF8300;stroke-width:3;stroke-linecap:round;stroke-linejoin:round;stroke-dasharray:7.83,7.83;}
	.st8{fill:none;stroke:#FF8300;stroke-width:3;stroke-linecap:round;stroke-linejoin:round;stroke-dasharray:6.29,6.29;}
	.st9{fill:none;stroke:#FF8300;stroke-width:3;stroke-linecap:round;stroke-linejoin:round;stroke-dasharray:7.65,7.65;}
	.st10{fill:none;stroke:#FF8300;stroke-width:3;stroke-linecap:round;stroke-linejoin:round;stroke-dasharray:7.89,7.89;}
	.st11{fill:none;stroke:#FF8300;stroke-width:3;stroke-linecap:round;stroke-linejoin:round;stroke-dasharray:7.62,7.62;}
	.st12{fill:none;stroke:#FF8300;stroke-width:3;stroke-linecap:round;stroke-linejoin:round;stroke-dasharray:8.96,8.96;}
	.st13{fill:none;stroke:#FF8300;stroke-width:3;stroke-linecap:round;stroke-linejoin:round;stroke-dasharray:8,8;}
	.st14{fill:none;stroke:#FF8300;stroke-width:3;stroke-linecap:round;stroke-linejoin:round;stroke-dasharray:5.96,5.96;}
	.st15{fill:none;stroke:#FF8300;stroke-width:3;stroke-linecap:round;stroke-linejoin:round;stroke-dasharray:7.96,7.96;}
	.st16{fill:none;stroke:#FF8300;stroke-width:3;stroke-linecap:round;stroke-linejoin:round;stroke-dasharray:5.43,5.43;}
	.st17{fill:none;stroke:#FF8300;stroke-width:3;stroke-linecap:round;stroke-linejoin:round;stroke-dasharray:4.51,4.51;}
	.st18{fill:none;stroke:#FF8300;stroke-width:3;stroke-linecap:round;stroke-linejoin:round;stroke-dasharray:8.5,8.5;}
	.st19{fill:none;stroke:#FF8300;stroke-width:3;stroke-linecap:round;stroke-linejoin:round;stroke-dasharray:7.74,7.74;}
	.st20{fill:none;stroke:#FF8300;stroke-width:3;stroke-linecap:round;stroke-linejoin:round;stroke-dasharray:9.31,9.31;}
	.st21{fill:none;stroke:#FF8300;stroke-width:3;stroke-linecap:round;stroke-linejoin:round;stroke-dasharray:4.62,4.62;}
	.st22{fill:none;stroke:#FF8300;stroke-width:3;stroke-linecap:round;stroke-linejoin:round;stroke-dasharray:5.16,5.16;}
	.st23{fill:none;stroke:#FF8300;stroke-width:3;stroke-linecap:round;stroke-linejoin:round;stroke-dasharray:5.77,5.77;}
	.st24{fill:none;stroke:#FF8300;stroke-width:3;stroke-linecap:round;stroke-linejoin:round;stroke-dasharray:5.07,5.07;}
	.st25{fill:none;stroke:#FF8300;stroke-width:3;stroke-linecap:round;stroke-linejoin:round;stroke-dasharray:8.34,8.34;}
	.st26{fill:none;stroke:#FF8300;stroke-width:3;stroke-linecap:round;stroke-linejoin:round;stroke-dasharray:9.46,9.46;}
	.st27{fill:none;stroke:#FF8300;stroke-width:3;stroke-linecap:round;stroke-linejoin:round;stroke-dasharray:9.5,9.5;}
	.st28{fill:none;stroke:#FF8300;stroke-width:3;stroke-linecap:round;stroke-linejoin:round;stroke-dasharray:7.07,7.07;}
	.st29{fill:none;stroke:#FF8300;stroke-width:3;stroke-linecap:round;stroke-linejoin:round;stroke-dasharray:7.36,7.36;}
	.st30{fill:none;stroke:#FF8300;stroke-width:3;stroke-linecap:round;stroke-linejoin:round;stroke-dasharray:8.54,8.54;}
	.st31{fill:none;stroke:#FF8300;stroke-width:3;stroke-linecap:round;stroke-linejoin:round;stroke-dasharray:9.08,9.08;}
	.st32{fill:none;stroke:#FF8300;stroke-width:3;stroke-linecap:round;stroke-linejoin:round;stroke-dasharray:7.72,7.72;}
	.st33{fill:none;stroke:#FF8300;stroke-width:3;stroke-linecap:round;stroke-linejoin:round;stroke-dasharray:6.43,6.43;}
	.st34{fill:none;stroke:#FF8300;stroke-width:3;stroke-linecap:round;stroke-linejoin:round;stroke-dasharray:7.78,7.78;}
	.st35{fill:none;stroke:#FF8300;stroke-width:3;stroke-linecap:round;stroke-linejoin:round;stroke-dasharray:8.33,8.33;}
	.st36{fill:none;stroke:#FF8300;stroke-width:3;stroke-linecap:round;stroke-linejoin:round;stroke-dasharray:8.28,8.28;}
	.st37{fill:none;stroke:#FF8300;stroke-width:3;stroke-linecap:round;stroke-linejoin:round;stroke-dasharray:8.06,8.06;}
	.st38{fill:none;stroke:#FF8300;stroke-width:3;stroke-linecap:round;stroke-linejoin:round;stroke-dasharray:6.24,6.24;}
	.st39{fill:none;stroke:#FF8300;stroke-width:3;stroke-linecap:round;stroke-linejoin:round;stroke-dasharray:6.74,6.74;}
	.st40{fill:none;stroke:#FF8300;stroke-width:3;stroke-linecap:round;stroke-linejoin:round;stroke-dasharray:8.43,8.43;}
	.st41{fill:none;stroke:#FF8300;stroke-width:3;stroke-linecap:round;stroke-linejoin:round;stroke-dasharray:5.85,5.85;}
	.st42{clip-path:url(#SVGID_8_);}
	.st43{fill:none;stroke:#F08219;stroke-width:3;stroke-linecap:round;stroke-linejoin:round;stroke-dasharray:8;}
</style>
<g class="st0">
	<g>
		<path class="st1" d="M2500,59l-6,4l-4,4l-2,2l-6,8l-3.4,10l-2.4,10.4l-0.6,9.8l-0.6,12.2l0.6,15.6l-0.6,7l0.6,8v61.4l3.4,8
			l9.2,17.8l11.4,11.4l18.2,13.6h113.4l8.6,0.8l6-2l3.6-3.4l9-22.6l31.4-29.8l48-18l22.6-5.6v17.6h-5v10h20v-10h-5v-18.6l31.6-3.4
			l6,2l22-2l86-12l0.2-3.2l37.8-4.8l40-4l4,2l12-4l2.4,0.6l-17.2,12l3.4,5l22-15.6l17.6-1.8l2.2,18l6.4,25.8l9,20l-8,2v10
			l-93.6,18.2c-3.6,0.8-6.2,4-6.2,7.6c0,4.2,3.4,7.8,7.8,7.8c0.6,0,1,0,1.6-0.2l114.4-25.4l6,40c-12.4,2.4-92.8,19.8-92.8,19.8
			c-2.2,0.4-3.8,2.4-3.8,4.6c0,2.6,2,4.6,4.6,4.6c0.2,0,0.6,0,0.8,0c0,0,80.8-14.4,93.2-16.8l6,24l-12,4v8l-60.6,12.4
			c-2.2,0.4-3.8,2.4-3.8,4.6c0,2.6,2,4.6,4.6,4.6c0.2,0,0.6,0,0.8,0l74.8-15.2l8,40l7.2,28.4l-3.8-2.2h-5.2l-4,2l-2,8l-1.8,7.8
			l-144.4,30.6l6,35.6l166.2-34l6,28l-8,8l-3.8,8.2l-17.4,21.2l0,0c-1.4,1.8-1.2,4.2,0.6,5.6c0.8,0.6,1.6,1,2.6,1
			c1.2,0,2.4-0.6,3.2-1.4l18-22l1-0.6l16.2,18l-16.4,23l0,0c-1.2,1.8-0.8,4.4,1,5.6c0.6,0.4,1.4,0.8,2.4,0.8c1.2,0,2.6-0.6,3.2-1.6
			L3140,518l0.2,0.2h8l12.2,1.6l7.8,24.4l36-4l28-2l1.4-3.2l84.6-6.8l20,16l74-6l44-54l10-10l0.8-3.8l6.8-9.6l16.6-46.6l4-6l10-12
			l5.2-7.4l166.2-148.2l50,2.2l13.6,4.6l23-9.2v58l-26,16l14.4,19.2l33.6-21.2l0.4-46.8v-40.8V220l35.6,0.2l18,40l204-92l14-6l6,10
			l2,6l8,16l10-6l-8-16l-2-6l-2-10l11.8-6.4l15.8-6.8l4.2,7.2l26-12l-4-8l16-6l10.6-23.8l7.8,6.6l17.6,1.2l68-48l-6-22l-8-28l2-9
			h-59.4l-1.6,1.6l-3.2,1.8l-9-1l-3.2-2.4h-600.4L3543.6,19l-7.8,11.8l-11.8,4l-11.8-7.8l-11.8-4l-7.8,8l-8,35.6l-11.8,39.6l-8,27.6
			l-11.8,27.6l-8,19.8l-7.8,27.6l-8,31.6l-4,27.6l-4,15.8l7.8,23.6l8,11.8V343l-8,19.8l-15.8,23.6l-19.8,19.8h-19.8l-8-11.8v-9.2
			l-15.8-14.6l-4-11.8L3338,339l-8-11.8h-11.8h-15.8l-11.8,4H3263h-23.6l-15.8,8l-19.8,4L3188,359l-4,15.8l-15.8,8l-4,15.8l-8,11.8
			h-7.8l-7.8-7.8v-10.8l-4-17l-4-11.8v-15.2l-4-8.4l-4-15.8l-8-15.8l-4-8l-4-15.8l-4-27.6l7.8-15.8v-11.8v-23.6l-4-15.8l-7.8-15.8
			l-8-15.8v-16.4v-22l-4-28.8l-4-23.6V43.8l4-22.2l3.6-21.8h-469.6l-18,25.6l-97.8,0.6V0h-6.8v57.6L2500,59z"/>
		<polyline class="st1" points="6076,505 6218,649 6247.6,678.6 6250,679 6252.2,678.8 6255.4,675.6 6256,673 6255,669.8 6220,631 
			6270.8,581 6282,573 6309.4,600.4 6314,586.8 6317.2,574 6323.6,557.8 6326.8,551.4 6326.8,541.6 6323.6,541.6 6314,548.2 
			6301,551.4 6288.2,554.6 6268.8,564.2 6249.6,567.4 6236.6,577.2 6223.8,580.4 6210.8,586.8 6198,586.8 6175.4,570.6 
			6149.6,548.2 6146.4,545 6146.4,540 6149.6,538.4 6140,522.4 6133.6,519.2 6120.6,516 6111,512.8 6085.2,493.4 6079.8,487.6 		"/>
		<polyline class="st1" points="6056.2,429 6062.8,425.8 6072.4,425.8 6082,429 6091.8,435.4 6101.4,438.6 6107.8,445 6114.2,448.2 
			6123.8,454.8 6130.4,454.8 6133.6,448.2 6130.4,425.8 6127.2,412.8 6127.2,406.4 6130.4,400 6146.4,393.6 6159.4,390.2 
			6169,390.2 6185.2,396.8 6191.6,400 6201.2,400 6214.2,393.6 6223.8,393.6 6230.2,393.6 6236.6,390.2 6233.4,361.4 6227,351.6 
			6220.6,335.6 6214.2,319.4 6210.8,300.2 6214.2,293.6 6223.8,287.2 6230.2,284 6230.2,277.6 6236.6,268 6243,258.2 6246.2,255 
			6243,251.8 6230.2,251.8 6210.8,248.6 6204.4,248.6 6188.4,255 6169,255 6159.4,251.8 6152.8,251.8 6143.8,248.6 6132.8,246 
			6117.4,244 6100,248.6 6089.2,248.6 6071,243.4 6063.4,240.2 6049.8,237.6 6036.2,244 6025.2,248.6 6011.2,251.8 5986,248.6 
			5974.4,238.2 5955,236.2 5930,232.4 5902.8,222.8 5883.6,207.2 5862.2,182.2 5848.8,161 5841,137.6 5839,122.2 5835.2,104.8 
			5817.8,87.4 5804.2,77.8 5779.2,60.4 5769,50 5766.4,40.2 5766.4,23.4 5769.6,10.2 5768,0 5641.2,0 5688,57 5700,71 5789,119.8 
			5810,139 5826,175 5844.8,211.2 5860,237 5874,249 5894,265 5918.4,280.8 5934,283 5933.8,299 5950,299 5956,287 5986,287 
			6015,282.6 6041.2,279.2 6059.4,284.6 6084.6,286.6 6098.2,280.8 6120,269 6130,267 6144,265 6166,263 6170,267 6200,343 
			6190,349 6049.8,421 6048,423 6050,431 6053.6,436.6 		"/>
		<polygon class="st1" points="7462,199 7472,287 7484,325 7506,351 7520,363 7538,375 7560,385 7578,389 7592,401 7598,413 
			7598,589 7680,590.6 7680,0 7556.8,0 7466,173 		"/>
		<polygon class="st1" points="5276.6,38.6 5313.2,0 5223.8,0 5261.6,38.6 		"/>
		
			<rect x="2998.1" y="181.8" transform="matrix(0.9913 -0.1319 0.1319 0.9913 0.5068 397.5344)" class="st1" width="6" height="26.2"/>
		<path class="st1" d="M7107.4,148.6c4.6,0,36.6,0.4,36.6,0.4l20-18h110l2-18l6-6l10-4l6,2l8,4l4,10v10h24v6h20v-6h62l16-5.4
			l16-10.6l58.4-113h-544.8l-0.2,0.6l-6.4,12.8v6.4l3.2,19.4l3.2,16.2l3.2,9.6l16.2,9.6l12.8,9.6l12.8,9.6h11.6l11,3.2l9.6,3.2
			l9.6,3.2l9.6,6.4l3.2,9.6l3.2,12.8l-0.2,9.2l11.4,6.8l11.4,6.8h4.6L7107.4,148.6z"/>
	</g>
	<g>
		<polyline class="st1" points="1486.4,2160 1485.2,2157.6 1475.6,2141.4 1461,2125.4 1456.2,2122.2 1440,2125.4 1433.6,2118.8 
			1430.4,2112.4 1430.4,2106 1436.8,2089.8 1433.6,2083.4 1417.4,2070.4 1414.2,2067.2 1417.4,2064 1423.8,2060.8 1423.8,2057.4 
			1427.2,2051 1433.6,2044.6 1433.6,2038 1423.8,2031.6 1414.2,2022 1411,2015.4 1401.2,2012.2 1398,2009 1394.8,2002.6 
			1391.6,1996 1381.8,1989.6 1375.4,1983.2 1369,1983.2 1365.8,1989.6 1362.4,1994.2 1362.4,1999.8 1359.2,2006.2 1356,2009.8 
			1356,2025.6 1349.6,2028.8 1336.6,2028.8 1333.4,2032 1330.2,2038.4 1330.2,2045 1327,2051.4 1320.4,2054.6 1317.2,2054.6 
			1310.8,2057.8 1304.4,2067.6 1301.2,2074 1297.8,2070.8 1297.8,2064.4 1291.4,2057.8 1281.8,2054.6 1268.8,2054.6 1265.6,2051.4 
			1255.8,2048.2 1252.6,2045 1243,2041.8 1236.6,2035.2 1223.6,2032 1213.8,2022.4 1211.2,2012 1210.8,2012.2 1212.4,2031.8 
			1213.6,2035.4 1217.6,2037 1226.4,2040 1235.6,2043.4 1242.6,2051.4 1244.8,2052.6 1248.4,2061.8 1250.6,2066.4 1251.8,2070.4 
			1252.4,2076.2 1253.6,2075.2 1259.8,2080.4 1258.8,2082 1259.8,2090 1261,2094 1263.4,2098 1267.4,2102 1274.2,2110.8 
			1283.6,2125.2 1293.4,2139.6 1307.6,2160 		"/>
		<polyline class="st1" points="6431,1236 6424.2,1217.8 6340.6,1159.6 6331.6,1149.6 6328.2,1156.2 6321.8,1175.6 6308.8,1198.2 
			6308.8,1198.4 6305.6,1208 6299.2,1211.2 6289.4,1221 6283,1224.2 6270,1227.6 6263.4,1227.6 6250.6,1237.2 6247.2,1237.2 
			6240.8,1240.4 6224.6,1260 6221.4,1269.6 6221.4,1282.6 6227.8,1289.2 6244,1311.8 6244,1315 6250.6,1324.8 6266.8,1344.2 
			6270,1350.8 6273.2,1357.2 6283,1367 6296,1383.2 6299.2,1399.4 6302.4,1409.2 6308.8,1418.8 6321.8,1428.6 6331.6,1428.6 
			6341.4,1425.4 6354.4,1422.2 6390,1412.4 6396.4,1412.4 6406,1415.6 6412.6,1415.6 6415.8,1412.4 6428.8,1399.4 6432,1399.4 
			6432,1412.4 6435.4,1422 6432.2,1438.2 6428.8,1444.8 6428.8,1448 6425.6,1451.2 6416,1451.2 6412.6,1454.4 6406.2,1457.8 
			6403,1464.2 6399.6,1464.2 6390,1457.8 6386.8,1454.4 6383.4,1457.8 6380.2,1464.2 6373.8,1477.2 6364,1483.6 6357.4,1483.6 
			6354.2,1487 6357.4,1493.4 6354.2,1503.2 6341.2,1519.4 6331.6,1525.8 6318.6,1542 6315.4,1551.8 6315.4,1561.6 6321.8,1571.2 
			6318.6,1574.6 6308.8,1594 6305.6,1613.4 6302.4,1620 6286,1629.6 6286,1636.2 6289.4,1649.2 6286,1655.6 6286,1662 
			6289.4,1668.6 6295.8,1671.8 6299,1678.4 6299,1681.6 6302.4,1684.8 6292.6,1691.2 6282.8,1701 6282.8,1710.8 6276.4,1714 
			6269.8,1717.2 6269.8,1723.8 6273.2,1736.8 6269.8,1746.4 6263.4,1756.2 6257,1772.4 6250.4,1795 6240.6,1801.6 6240.6,1808 
			6244,1814.6 6250.4,1834 6263.4,1860 6269.8,1869.6 6273,1876.2 6279.6,1876.2 6286,1869.6 6299,1866.4 6302.2,1873 
			6302.2,1879.4 6299,1898.8 6295.8,1908.6 6282.8,1934.6 6276.4,1937.8 6269.8,1937.8 6256.8,1944.4 6247.2,1941 6231,1931.4 
			6231,1921.6 6234.2,1915.2 6237.4,1905.4 6237.4,1899 6234.2,1895.6 6224.4,1889.2 6221.2,1889.2 6218,1895.6 6214.8,1899 
			6208.2,1902.2 6198.6,1902.2 6192,1895.6 6195.2,1886 6198.6,1876.2 6198.6,1866.4 6195.2,1860 6192,1860 6192,1869.8 
			6179,1869.8 6169.4,1863.2 6166,1863.2 6162.8,1869.8 6159.6,1873 6159.6,1879.4 6162.8,1882.8 6153.2,1882.8 6146.6,1889.2 
			6149.8,1892.4 6153.2,1895.8 6153.2,1902.2 6156.4,1908.6 6159.6,1918.4 6156.4,1925 6156.4,1928.2 6162.8,1937.8 6169.4,1944.4 
			6172.6,1954.2 6179,1967 6182.4,1970.4 6198.6,1970.4 6201.8,1973.6 6211.4,1989.8 6231,1989.8 6237.4,1996.2 6240.6,2006 
			6240.6,2015.8 6253.6,2015.8 6269.8,2025.6 6269.8,2032 6282.8,2032 6292.6,2028.8 6308.8,2032 6331.6,2015.8 6338,2015.8 
			6347.8,2009.4 6354.2,2009.4 6367.2,1996.4 6380.2,1989.8 6393.2,1973.6 6406.2,1970.4 6425.6,1970.4 6438.6,1967.2 
			6454.8,1960.6 6461.2,1948.8 6464.6,1947.8 6484,1938 6503.4,1928.2 6510,1918.4 6536,1892.4 6539.2,1892.4 6545.6,1899 
			6552.2,1899 6561.8,1895.8 6571.6,1895.8 6574.8,1886 6587.8,1879.6 6610.6,1873 6610.6,1869.8 6620.2,1863.2 6633.2,1863.2 
			6639.8,1860 6646.2,1866.6 6659.2,1866.6 6665.6,1869.8 6675.4,1879.6 6678.6,1879.6 6685.2,1876.2 6688.4,1879.6 6698,1889.2 
			6707.8,1892.4 6711,1895.8 6711,1905.4 6717.6,1915.2 6727.2,1928.2 6730.6,1934.6 6737,1944.4 6743.6,1947.6 6750,1954.2 
			6779,1983.4 6782.4,1996.4 6785.6,1999.6 6792,2009.4 6805,2038.6 6808.2,2045 6805,2051.6 6808.2,2058 6808.2,2067.6 
			6811.6,2074.2 6824.4,2083.8 6827.8,2083.8 6831,2074.2 6837.4,2067.6 6847.2,2064.4 6857,2058 6873.2,2048.2 6889.4,2032 
			6908.8,2019 6921.8,2006 6931.6,1983.2 6938,1957.4 6936.6,1948.8 6924,1922.8 6919.8,1928.8 6917,1934.4 6848.2,2006 
			6836.8,2011.8 6822.6,2014.6 6808.2,2014.6 6799.6,2009 6799.6,2009 6808.2,2014.6 6822.4,2014.6 6836.8,2011.8 6848.2,2006 
			6916.8,1934.4 6919.8,1928.8 6923.8,1922.8 6918.6,1912 6921.8,1908.6 6931.6,1905.4 6938,1902.2 6954.2,1892.4 6960.8,1889.2 
			6968,1882.8 6965.8,1879.8 6965.2,1878.2 6965.8,1875.8 6965.8,1874.2 6962.4,1871.8 6954.2,1866 6952,1864.8 6782.4,1697.6 
			6720.6,1760.6 6687.6,1719.6 6674,1678.6 6644.4,1576.6 6639.2,1565.4 6633.6,1562.4 6627.8,1565.4 6627.8,1565.2 6633.6,1562.4 
			6638.8,1565 6638.8,1541.6 6633.8,1527 6624.4,1503.4 6605.8,1477.8 6596.6,1484.6 6614.4,1509 6623.2,1530.8 6627.4,1543.4 
			6627.4,1565.8 6603.4,1590.2 6630.8,1687.8 6547.6,1757 6530.6,1757 6513.4,1754.2 6504.8,1742.8 6493.4,1725.6 6479,1717 
			6456.2,1717 6436.2,1719.8 6393.2,1719.8 6396,1711.2 6407.6,1691.2 6419,1665.6 6444.8,1639.8 6456.2,1628.4 6467.6,1619.8 
			6476.2,1611.2 6482,1599.8 6482,1588.2 6484.8,1576.8 6490.6,1565.4 6502,1548.2 6513.4,1539.6 6513.4,1539.6 6502,1548.2 
			6490.6,1565.4 6484.8,1576.8 6482,1588.2 6482,1599.6 6476.2,1611.2 6467.6,1619.6 6456.2,1628.2 6419,1665.4 6407.6,1691.2 
			6396.2,1711.2 6393.2,1719.8 6436.2,1719.8 6456.2,1717 6479,1717 6493.4,1725.6 6496.2,1716 6458.6,1667.6 6576.6,1529.2 
			6565,1514.4 6574,1506.2 6549,1478.8 6512.8,1447 6460.6,1367.6 6454.6,1373 6455.6,1369.6 6455.6,1365.6 		"/>
		<polygon class="st1" points="958.2,1592.2 962.2,1614 976.6,1631 1005.2,1654 1025.2,1685.6 1042.4,1722.8 1177,1967 1191.2,1967 
			1191.2,1947.6 1188,1944.4 1178.2,1934.6 1175,1928.4 1181.4,1918.6 1184.6,1896 1188,1879.8 1194.4,1863.6 1191.2,1860.4 
			1188,1846 1188,1834.6 1178.2,1813.6 1178.2,1798.8 1171.8,1795.6 1165.4,1789.2 1163.6,1775.4 1158.8,1763.4 1156.2,1757 
			1152.4,1753.6 1139.4,1757 1136.2,1753.6 1133,1744 1129.8,1740.8 1117,1731.2 1107.2,1721.4 1104,1711.8 1107.2,1705.2 
			1104,1698.8 1097.6,1695.6 1091,1692.4 1091,1685.8 1094.4,1682.6 1094.4,1679.4 1091,1676.2 1097.6,1669.8 1104,1663.2 
			1104,1653.6 1107.2,1637.4 1113.6,1627.8 1120,1611.6 1120,1598.6 1113.6,1582.4 1104,1579.2 1091,1576 1084.4,1572.8 
			1081.2,1576 1071.6,1582.4 1055.4,1589 1045.6,1595.4 1036,1595.4 1023.2,1598.6 1007,1601.8 985.6,1598.6 974.8,1598.6 
			965,1595.4 		"/>
	</g>
</g>
<g>
	<g>
		<g>
			<defs>
				<rect id="SVGID_1_" width="7680" height="2160"/>
			</defs>
			<clipPath id="SVGID_2_">
				<use xlink:href="#SVGID_1_"  style="overflow:visible;"/>
			</clipPath>
			<path id="Pre1900_Kln" class="st2" d="M668-2597l1.4,2.6l12.8,22.6l6.4,9.6l6.4,9.6l3.2,9.6l3.2,12.8l3.2,6.4l3.2,9.6l3.2,3.2
				l9.6,3.2l6.4,6.4l3.2,6.4l6.4,6.4l6.4,3.2h9.6l3.2-3.2l9.6-6.4h12.8l19.4-3.2l19.4-16.2l9.6-22.6l9.6-19.4l6.4-29l9.6-19.4
				l19.4-9.6l20-13.8h11.8l10.2-3.2l9.4-6.2h26l11.6,3.2l8.8,1.6l10,1.6l9.6,3.2h7l8.6,3.2l9.4,3.2l6.2,3.2l9.4,6.2l9.4,6.4l6.2,6.2
				l6.4,6.4l6.2,6.2l6.4,3.2h11.2l1.4-3.2h3.2l4.6,3.2l4.8-3.2l3.2-3.2l3.2-3.2v-9.2l-3.2-3.4v-6.4l3.2-3.4l3.2-2.8v-15.8l-3-3.2
				l-3.4-3.2l-3.2-3.2l-3.2-3.2l-3.2-6.4v-6.2l3.2-6.2l3.2-6.4l3.2-3.2l6.4-6.4l6.2-6.2l6.4-3.2h6l6.6-3.2l3.2-6.4v-6.2l3.2-6.4
				l6.2-6.2l6.4-6.4l6.2-3.2l6.4-3.2l6.2-3.2h5.6l7-3.2l6.2-3.2l6.4-6.2l6.2-6.4l3.2-3.2l3.2-6.2l6.4-6.4l6.2-3.2h18.8l9.4,3.2h6.4
				l9.4,3.2h18.8l9.4,3.2l9.4,3.2l9.4,6.2l6.4,3.2h18.8l9.4,3.2l9.4,6.2l9.4,3.2h9.4l12.6-3.2l9.4-3.2l6.2-3.2l9.4-12.6l3.2-9.4
				l3.2-12.6l3.2-9.4l3.2-9.4l6.2-9.4l6.2-9.4l6.4-9.4l6.2-9.4l6.4-9.4l6.2-9.4l9.4-9.4l12.6-9.4c0,0,9.4-9.4,12.6-9.4
				s6.4-6.4,6.4-6.4v-6.6l-3.2-12.2l-3.2-9.4l-3.2-9.4l-3.2-9.4l3.2-9.4l6.2-6.2l6.4-3.2h12.6v3.2l-9.4,3.2l-6.2,3.2l-3.2,6.4v6.2
				l3.2,9.4l3.2,9.4l3.2,9.4l3.2,9.4v25.2l-3.2,6.2l-6.2,6.4h-18.8l-6.2,6.2l-6.2,6.4l-9.4,9.4l-6.2,9.4l-9.4,12.6l-6.2,12.6
				l-6.4,9.4l-3.2,9.4l-3.2,9.4l-3.2,9.4l-3.2,9.4l-6.2,9.4l-6.2,6.2l-6.4,9.4l-6.2,9.4l-3.2,9.4l-3.2,12.6v44l-3.2,9.4v6.2l3.2,9.4
				l3.2,15.8v15.8l-2.2,15.8l-1,12.6v22l3.2,6.2l3.2,9.4h-2.2l-7.2-3.2h-12.6l-3.6,3.2l-5.8,6.4l-6.4,6.2l-9.4,9.4l-6.4,6.2
				l-6.2,6.4l-6.4,6.2l-6.2,3.2l-6.2,12.6l-6.4,12.6l-6.2,12.6l-6.4,12.6l-6.2,9.4l-6.2,9.4l-3.2,12.6l-9.4,12.6l-9.4,9.4l-9.4,9.4
				l-6.4,6.4l-9.4,6.2l-9.4,9.4l-6.4,6.2l-9.4,3.2l-9.4,3.2h-8l-7.8,3.2l-3.2,3.2l3.2,6.4v15.8l3.2,6.2l-3.2,6.4l-3.2,6.2l-3.2,9.4
				l-3.2,9.4l-3.2,9.4l-6.2,12.6v22l-3.2,12.6l-3.2,12.6v18.8l3.2,12.6v9.4l3.2,12.6v25.2l-3.2,12.6v66l3.2,12.6l3.2,9.4l3.2,9.4
				l3.2,9.4l6.2,9.4l6.2,9.4l9.4,6.2l9.4,3.2h15.8l6.2,3.2l6.2,6.2l6.4,3.2l9.4,3.2l6.2,3.2l6.2,6.2l9.4,6.4l12.6,3.2l9.4,3.2h12.6
				l9.4,3.2h6.4l3.2,3.2l6.4,6.2l6.2,6.4l6.4,6.2l3.2,3.2h12.8l2.8,3.2h26.6l5,3.2l6.2,3.2l6.4,3.2h5.4l7.2,3.2v9.4l2.4,12.4
				l3.2,12.8l3.2,12.8l6.4,6.4l9.6,3.2l3.2,9.6l3.2,6.4l3.2,9.6v9.6l-3.2,9.6v9.6l3.2,6.4l6.4,9.6h10.8l8.6,3.2h9l7,3.2l9.6,3.2
				l6.4,9.6l3.2,9.6v9.6l3.2,9.6l3.2,6.4l3.2,6.4l3.2,6.6h6.4l6.4,3.2h12.8l6.4,3.2l3.2,3.2v13l-3.2,6.4v6.4l3.2,3.2l3.2,3.2h4.4
				l5.2-3.2l6.4-3.2h3.2l9.6-3.2l12.8-3.2l9.6-3.2h6.4l6.4-3.2l3.2-6.4l3.2-6.4l3.2-6.4v-16l3.2-6.4l3.2-6.4l3.2-6.4v-9.4l-3.2-9.8
				v-3.2l6.4-3.2l3.2-6.4v-19.4l3.2-6.4l3.2-6.4v-6.4l-3.2-9.8v-12.8l3.2-10.6v-8.6l-6.4-9.8v-9.6l-9.6-16l-3.2-16.2v-12.8
				l-3.2-12.8l-3.2-12.8l-3.2-6.4l-3.2-6.4l-6.4-6.4l-8-1h-14.4l-8.6-2.8l-3.8-3l-3.2-9.6v-67.6l-3.2-9.6v-6.4l3.2-3.2l6.4,9.6
				l6.4,3.2l6.4,6.4v9.6l3.2,6.4l6.4,3.2l6.4,3.2l9.6,0.6l6.4-0.6h6.4l6.4,3.2v21.8l6.4,4l9.6,3.2l3.2,9.6l3.2,9.6l3.2,12.8l6.4,9.6
				l6.4,6.4l9.6,3.2h6.6l6.4,6.4l6.4,6.4v5.6l-9.6,7.2l-3.2,6.4l3.2,6.4l3.2,9.6v67.6l6.4,9.6l3.2,6.4l6.4,6.4l3.2,6.4l3.2,3.2
				l3.2,3.2l3.2,3.2l3.2,3.2v5.6l3.2,4l3.2,3.2l3.2,3.2l9.6,6.4l12.8,3.2l9.6,3.2h12.8l9.6,3.2l9.6,3.2l9.6,6.4h6.4l9.6,3.2l6.4,6.4
				v33l3.2,8.8l3.2,9.6l3.2,6.4l3.2,6.4l3.2,6.4l3.2,6.4l3.2,6.4l3.2,6.4v6.4l3.2,9.6v6.4l3.2,9.6l3.2,6.4l3.2,6.4l3.2,3.2l9.6,6.4
				l9.6,3.2l9.6,3.2l9.6,3.2h16l6.4-3.2l6.4-3.2l6.4-3.2l6.4-3.2l30-9.6l24.6-9.8l12.8,3.2l3.2,3.4l8.4,3.4h10.2l10.4-3.6l12.8-6.4
				l3.2-6.4l3.2-9.6v-4.2l3.2-2.2l3.2,6.4v6l6.4,3.6l9.6-3.2l25.8-9.6l12.8-3.2h6.4l9.6,3.2l3.2,6.4l3.2,6.4l9.6,6.4h35.4l12.8-3.2
				l16-3.2l9.6-6.4l3.2-6.4l3.2-6.4l-3.2-9.6l-9.6-9.6l-19.4-12.8l-6.4-6.4v-6.4l3.2-3.2h6.4l9.6,6.4l9.6,6.4l9.6,9.6l6.4,9.6
				l3.4,6.4l3.2,13v10.4l3.2,8.8h9.6l6.4-3.2v-14.4l-3.2-8.2l-6.4-12.8l-6.4-22.6v-26.2l3.2-3.2l3.2,3.2v6.4l3.2,6.4l3.2,3.2h6.4
				l9.6-6.4l6.4-3.2l3.2,6.4h9.6l9.6-3.2l6.4-3.2h6.4l19.4-3.2l12.8-6.4l12.8-9.6l6.4-9.6l6.4-9.6l8.6-11.8l19.8,11.8l11.8-4l8,8
				l11.8,4l15.8,15.8l15.8,11.8h7.8l19.8,15.8l19.8,15.8l11.8,11.8v11.6l8,16.2l11.8,11.8h15.8l8-8h4l4,11.8l15.8,8l8,4l11.8,8
				l11.8-4l4,11.8l23.6,11.8l23.6,23.6l15.8,11.8l4,19.8v19.2l4,28.2l11.8,39.6l15.8,43.4l19.8,39.6l15.8,15.8h11.2l0.6,23.6
				l7.8,15.8l-15.8,23.6l-15.8,19.8l-19.8-8H2740l-15.8-8h-19.8l-19.8,4l-8,8l4,19.8l11.8,19.8l23.6,15.8l11.8,8l4,11.8l-4,8l4,8
				l23.6,23.6l19.8,19.8l4,8l8,8h8l4,4l8,4l4,11.8l4,15.8l8,11.8l8,8l4,8l-8,8l-4,4l-8,4l-10,2l-9.6,2l-11.8,4h-8.8l-7,8l-8,11.8
				l-13,38.6l4,35.6l-8,51.4l4,11.8l8,11.8l11.8,11.8l15.8,23.8l15.8,8l15.8-15.8l15.8-19.8l4-19.8l4-11.8l19.8-15.8l8-11.8l4-27.6
				l4-27.6l4-19.8l8-19.8l4-15.8v-23.6l4-8l27.6-4l47.4,4l39.4,8l27.6,8l23.8,4l15.6,12v55l-4,11.8l4,11.8v15.8l-11.8,23.8l-8,11.8
				l-8,8v11.8l4,11.8v79l4,15.8l4.2,10v5l7.8,16.6v43.4l7.8,8l11.8,8l8,4l8,11.8v11.8l4,11.8l4,8v11.8l4,8v11.8l-4,4l-8,4l-8,4
				l-4,15.8l4,4v11.8l11.8,8l4,4l11.8,4l4,11.8l11.8,15.8l4,19.8l8,7.8v8l-4,15.8l-8,15.8l-4,19.8l8,4l15.8,15.8l15.8,11.8v19.8
				l-8,7.8v15.8l-4,11.8v31.6l-4,11.8l-8,15.8l-11.8,11.8l-15.8,4l-11.8,11.8l-4,11.8l-8,19.8l-8,19.8l-11.8,27.6l-8,4l-19.8,8
				l-7.8,8l-4,11.8l-4,11V-76l4,8l7.8,11.8l15.8,4l8,4l8,11.6l4,20l4,15.8l-4,23.8l-4,22.2v20.4l4,23.6l4,28.8v38l8,15.8l8,15.8
				l4,15.8V239l-8,15.8l4,27.6l4,15.8l4,7.8l8,15.8l4,15.8l4,8.4v15.2l4,11.8l4,17v10.8l8,7.8h8l8-11.8l4-15.8l15.8-8l4-15.8
				l15.8-15.8l19.8-4l15.8-8h51.4l11.8-4h27.6l8,11.8l8,19.8l4,11.8l15.8,14.6v9.2l8,11.8h19.8l19.8-19.8l15.8-23.8l8-19.8v-23
				l-8-11.8l-8-23.8l4-15.8l4-27.6l8-31.6l7.8-27.6l8-19.8l11.8-27.6l8-27.6l11.8-39.6l8-35.6l8-8l11.8,4l11.8,8l11.8-4l8-11.8
				L3552.2-6l8-39.6l4-27.6l8-31.6l8-27.6l7.8-19.8l11.8-11.8l15.8-19.8l11.8-8l7.8-11.8l8-8l11.8-8l11.8-8l7.8-5.2v-6.6l4-11.8l8-4
				l11.8-4l35.6-7.8l19,30.4l19.8-7.8l8-8l8-4h11.8l4,4l7.8,15.8c5.6,3.6,10.8,7.6,15.8,11.8c4,4,19.8,8,19.8,8l28.4-22.6l19.8,7.8
				l15.8,4l11.8,4l11.8,8l7.8,11.8l11.8,7.8l8,11.8l11.8,13v15c0,0,4,8,4,11.8s11.8,8,11.8,8l15.8,4l11.8,8l7.8,8l11.8,11.8l15.8,8
				l7.8,8v15.8l4,11.8l11.8,8l11.8,4h7.8l4,8l7.8,15.8l6.8,7.2l8,4l15.8,8l11.2,8.4l9,1l3.2-1.8l6.4-6.4l3.2-12.8v-16l-9.8-16.4
				l-6.4-16l3.2-22.6l16.2-19.4l3.2-36.2l11.8-27.6l15.8-15.8v-6.4l-2-7.2l-3.2-9.6l-9.6-9.6l-3.2-9.6l-12.8-16l-12.8-12.8
				l-22.6-12.8l-25.8-12.8l-22.4-9.2l-23.6-4l-11.8-11.8l-4-8v-15.8l-12.2-25.4l-15.4-22l-19.8-15.8l-15.8-27.6l-8-25v-109.2l4-41.8
				v-26l11.8-19.8l11.8-19.8l15.8-8l11.8-8l15.8-11.8l11.8-8h11.8l11.8,4l19.8-8l15.8-8l7.8-8l11.8-8l19.8-8l23.8-15.8l15.8-23.8
				l4-23.8v-27.6l-7.8-11.8l-11.8-11.8l-11.8-19.8l-31.6-19.8l-31.6-15.8l-27.6-11.8l-11.8-15.8l-4-31.6l4-31.6l3.6-12.4v-6.4h6.4
				l3.2,6.4v16.2l3.2,6.4l3.2,3.2h29l6.4-9.6l9.6-16.2l6.4-16l3.2-9.6l6.4-3.2v-3l-9.6-6.4l-6.4-6.4v-25.8l6.4-3.2h6.4l9.2-4.2
				l7.8-11.8l8.6-16v-16l-3.2-16l-2.2-7.6l3.2-3.2l16.2-6.4l16-6.4l16-8.2l15.8-19.8l35.6-31.6l15.8-15.8l23.8-15.8l19.8-23.6
				l35.6-43.8l35.6-39.6l31.6-35.6l23.8-23.6c4-4,27.6-19.8,27.6-19.8l19.8-11.8l31.6-11.8l43.4-8l24.6-4h157l11.8,15.8l11.8,8
				l11.8,11.8l11.8,8h4l4-8l15.8,11.8l11.8-4l4,4l27.6,23.6l23.6,15.8l14.6-0.4l13.2-3.4v8l-13.2,8.4l3.2,5.2l6-1.6l9.4-3.4h6.4
				l15.8,15.2l-4,8l-11.8,11.4v12.2l4,15.8l11.8,8l15.8,8l15.8,4v4l4,8l7.8,4l4,4l-7.8,8l-4,11.8v15.8l-7.6,8l3.8,4l11.8-4
				l15.8,11.8l7.8,11.8l11.8,19.8l7.8,4l19.8,8l23.8,11.8l15.8,8l4,11.8l7.8,15.8l11.8,11.8l10,8h13.4l-7.8,7v5l7.8,4v7.8l15.8,11.8
				l19.8,15.8l15.8,23.6l7.8,11.8l11.8,11.8v11.8l4,11.8l-4.6,6.2l-3.2,3.2l-6.4,6.4l-9.6,6.4l-6.4,3.2l-6.4,6.4l-3.2,9.6l3.2,3.2
				l3.2,6.4l6.4,6.4l3.2,3.2v6.4l3.2,3.2v6.4l3.2,3.2l6.4,3.2l11,4.2l-1.4,2.2l-9.6,6.4l-9.6,6.4v3.2l3.2,3.2h9.6l-3.2,9.6l3.2,6.4
				l-6.4,13l-6.4,9.6h-6.4l-3.2,3.2v6.4l3.2,6.4l3.2,9.6l3.2,9.6l3.2,9.6v12.8l-6.4,9.6l-12.8,6.4l-9.6,6.4l-3.2,7.6v11.8l3.2,9.6
				l6.4,3.2l6.4,12.8v6.4l-3.2,13l-6.4,5v4.2l6.4,3.2l9.6,12.8l3.2,9.6l6.4,9.6l6.4,13l6.4,3.2l9.6,6.4l3.2,6.4l3.2,3.2h12.8
				l6.4,3.2l3.2,6.4l6.4,9.6l6.4,3.2l16,6.4l9.6,3.2l9.6,9.6l6.4,12.8l9.6,3.2l6.4,6.4h3.2l3.2-3.2l9.6-6.4h6.4l9.6,3.2l9.6,3.2
				h19.4l6.4,3.2l3.2,6.4l3.2,6.4l12.8,9.6l6.4,3.2l6.4,3.2l6.4,6.4l6.4,3.2l9.6,6.4l12.8,3.2l9.6,3.2h9.6l6.4-3.2h22.6l12.8,3.2
				l16.2,9.6l9.6,3.2l9.6,6.4l9.6,9.6l6.4,12.8l6.4,9.6l6.4,6.4l9.6,6.4l12.8,6.4h3.2l6.4-3.2l6.4-12.2v-13.6l3.2-3.2h9.6l9.6-3.2
				l9.6-3.2h3.2l3.2,3.2l38.6,51.6l16.2,22.6l3.2,6.4l9.6,6.4l12.8,6.4l9.6,6.4l12.8,9.6l12.8,6.4l6.4,3.2h6.4l9.6-3.2h6.4l12.8,3.2
				h19.4l6.4-9.6v-19.4l-3.2-22.6l3.2-12.8v-6.4l-3.2-25.8v-32.2l3.2-9.6h3.2l9.6,16.2l19.4,22.6l16,16.2l6.4,9.6l12.8,6.4l6.4,9.6
				v9.6l9.6,6.4l12.8,3.2l12.8,3.2l12.8,6.4l12.8,3.2l6.4-3.2l9.6-6.4h6.4v3.2l-3.2,3.2l-12.8,16l-12.8,16.2l-19.4,12.8l-16,9.8
				l-29,19.4l-12.8,12.8l-3.2,19.4l-6.4,12.8l-12.8,3.2h-16.2l-16.2,3.2l-6.4,3.2l-9.6,12.8l-9.6,12.8l-6.4,9.6l3.2,9.6l-3.2,19.4
				l-3.2,12.8L5806-167l-6.6,9.8l-6.4,6.4l3.2,3.2l3.2,6.4l3.2,6.4l-6.4,3.2h-12.8l-19.4,3.2l-14.4,6.4l-8.2,6.4l-9.6,16V-51
				l16.2,22.4l6.4,15.4l3.2,20l-3.2,13.2v16.8l2.6,9.8l10,10.4l25.2,17.4l13.6,9.6l17.4,17.4l3.8,17.4l2,15.4l7.8,23.2l13.6,21.2
				l21.2,25.2l19.4,15.4l27,9.6l25.2,3.8l19.4,2l11.6,10.4l25.2,3.2l14-3.2l11.2-4.6l13.6-6.4l13.4,2.6l7.6,3.2l18.2,5.2h10.8
				l17.4-4.6l15.4,2l10.8,2.6l9.2,3.2h6.4l9.6,3.2h19.4l16.2-6.4h6.4l19.4,3.2h12.8l3.2,3.2l-3.2,3.2l-6.4,9.6l-6.4,9.6v6.4
				l-6.4,3.2l-9.6,6.4l-3.2,6.4l3.2,19.4l6.4,16.2l6.4,16l6.4,9.6l3.2,29l-6.4,3.2h-16l-13,6.6h-9.6l-6.4-3.2l-16.2-6.4h-9.6
				l-12.8,3.2l-16.2,6.4l-3.2,6.4v6.4l3.2,12.8l3.2,22.6l-3.2,6.4h-6.4l-9.6-6.4l-6.4-3.2l-6.4-6.4l-9.6-3.2l-9.6-6.4l-9.6-3.2h-9.6
				l-6.4,3.2l-3.2,9.6l6,11.4l6,12l4,14l16.2,17.4l25.8,19.4l9.6,3.2l12.8,3.2l6.4,3.2l9.6,16l-3.2,1.6v4.8l3.2,3.2l25.8,22.6
				l22.6,16h12.8l12.8-6.4l12.8-3.2l12.8-9.6l19.4-3.2l19.4-9.6l12.8-3.2l12.8-3.2l9.6-6.4h3.2v9.6l-3.2,6.4l-6.4,16.2l-3.4,13
				l-9.6,29l-3.2,16.2l-6.4,16l-16.2,19.4l-25.8,35.4l-12.8,19.4l-6.4,16.2l-6.4,6.4l-9.6,12.8v3.2l-6.4,16.2l-3.2,6.4l3.2,3.2
				l3.2,3.2l6.4,3.2l9.6,6.4l9.6,3.2l6.4,3.2h16l22.6,16l9.6,9.6l9.6,6.4l6.4,3.2l6.4,3.2h19.4l12.8,6.4l3.2,5.4v4.2l6.4,6.4
				l3.2,3.2h6.4l14.8,4.8l18.2,6.8l22.8,2.2h22.4l20.8,4.6l17.4,1l8,3.2h21l6.4-3.2l12.8-3.2l9.6-3.2l3.2-6.4l16.2-32.2l6.4-6.4
				l29-35.4l6.4-11.8v-20.4l3.2-3.2l3.2,3.2l3.2,3.2h6.4l3.2-3.2l6.4-6.4v-9.6l-6.4-6.4l-9.6-7.6v-8.4l8.8-3.2h7.4l9.6-6.4h6.6
				l9.6-3.2l9.6-9.6l3.2-9.6l6.4-3.2l9.6-3.2l9.6-3.2l3.2-9.6l3.2-9.6l3.2-6.4l6.4-9.6l6.4-9.6l6.4-6.4l9.6-3.2l9.6-6.4l6.4-9.6
				l3.2-9.6v-13l3.2-12.8l3.2-9.6h3.2l5.2,3.2h4.6l3.2-6.4l9.6-3.2h9.8l6.4-3.2l22.6-16l9.6-12.8l29-32.2v-16.2l5.2-12.8l4.4-6.4
				l6.4,3.2l-0.2,3.2h6.8l6.4-6.4l16.2-19.4l3.2-6.4l-3.2-9.6V404l6.4-6.4l6.4-3.2l9.6-3.2l3.2,3.2l3.2,6.4l6.4-3.2l29-32.2l3.2-6.4
				v-6.4l3.2-6.4l4-6.4l8.8-9.6l12.8-6.4h9.6l3.2,3.2l3.2,3.2l3.2,6.4l3.2,3.2l6.4-3.2l9.6-9.6l6.4-25.8l3.2-25.8l3.2-6.4v-6.4
				l-3.2-6.4l-6.4-12.8l7.8-10.4h25l13.6-40.8v-18.6l-4.6-18.2l-11.4-6.8l-11.4-6.8l0.2-9.2l-3.2-12.8l-3.2-9.8l-9.6-6.4l-9.6-3.2
				l-9.6-3.2l-11-3.2h-11.6l-12.8-9.6l-12.8-9.6l-16.2-9.6l-3.2-9.6l-3.2-16l-3.2-19.4v-6.8l6.4-12.8l3.2-12.8l3.4-3.2l3.2-3.2
				l6.4-6.4v-6.4l-3.2-3.2l-9.6-3.2h-6.4l-6.4,3.2l-6.4,3.2h-6.4l-6.4-3.2l-3.2-3.2h-9.6l-3.2,3.2l-16.2,13h-9.6l-6.4,3.2l-10.6,3.2
				h-15.2l-3.2-3.2l-6.4-9.6v-6.4l9.6-25.8l6.4-9.6l16-19.4l9.6-6.4l6.4-6.4l3.2-9.6v-6.4l3.2-3.2l6.4-6.4l3.2-6.4l3.2-9.6l6.4-6.4
				l12.8-9.6l6.8-6.4h18.8l16.2-9.6l19.4-12.8l22.6-16l16.2-12.8l6.4-12.8l6.4-12.8l9.6-6.4l6.4-9.6l9.6-16.2l9.6-9.6l3.2-9.6
				l3.2-16.2l3.2-16l6.4-22.6l3.2-12.8l6.4-6.4l9.6-12.8l3.2-16.2l6.4-16.2l12.8-9.6l3.2-9.6l12.8-19.4l3.2-12.8l6.4-19.4l3.2-22.6
				l3.2-6.4l9.6-9.6h3.2l4.8,3.2h4.8l3.2-3.2l9.6-12.8v-16.2l-3.2-9.6l-3.2-9.6l-1.6-6.4l-4.8-3.2l-3.2,3.2h-9.6l-6.4-3.2l-9.6-9.6
				v-9.6l-6.4-9.6l-3.2-9.6v-9.6l-3.2-9.6l-6.4-9.6l-6.4-12.8v-6.4l6.4-16v-9.6l-6.4-9.6l-3.2-6.4V-728l3.2-6.4v-6.4l-6.4-6.6
				l-3.2-9.6l-3.2-32.2l-3.2-22.6v-6.4l-3.2-9.6l-3.2-6.4l-3.2-3.2l-3.2-3.2l-3.2-3.2h-6.4l-3.2-3.2l-3.2-3.2v-6.4l-3.2-3.2
				l-6.4-3.2l-12.8-3.2l-6.4-3.2l-16.2-6.4h-6.4l-16-6.4h-16.2l-22.6-6.4L6961-895l-9.6-12.8l-6.4-13l-3.2-6.4l-3.2-6.4l-6.4-3.2
				h-9.6l-9.6,3.2l-9.6,3.2l-6.4,6.4l-3.2,3.2l-6.4,3.2h-3.2l-3.2-3.2l-3.2-3.2l-3.2-3.2v-9.6l3.2-9.6l3.2-9.6l3.2-6.4l3.2-6.4
				l6.4-6.4v-19.4l-6.4-9.6l-3.2-6.4v-6.4l-3.2-3.2h-9.6l-3.2-3.2l-3.2-2.6v-7l3.2-6.4l3.2-6.4l6.4-7.6v-5.4l3.2-3.2l16-16.2
				l6.4-3.2l3.2-3.2l6.4-3.2h6.4l3.2,3.2l3.2,3.2l6.4,3.2l6.4,6.4l6.4,3.2h16.2l6.4-3.2h6.4l3.2-6.4l3.2-9.6l3.2-9.6l12.8-3.2h6.4
				l6.4-6.4l9.6-3.2h9.8l6.4-3.2l6.4-6.4h16l6.4-3.2l6.4-3.2h12.8l6.4,3.2l3.2,3.2l19,9.6h39l9.6,3.2l6.4,3.2l6.4,3.2l3.2,3.2
				l6.4,9.6l3.2,3.2l3.2,3.2l3.2,3.2l6.4,3.2l9.6,3.2l9.6,3.2h16l4.8,1.6l3.2,3.2l3.2,3.2l3.2,3.2l3.2,6.4l3.2,6.4l3.2,9.6l3.2,6.4
				v9.6l3.2,16v3.2l6.4,6.4l3.2,7.4v8.6l3.2,12.8l3.2,9.6l9.6,19.4l6.8,11.2l6.2,8l3.2,3.2l45.2,42l6.4,6.4l3.2,3.2l3.2,6.4l3.2,4.6
				v5l3.2,3.2l3.2,3.2v6.4l-1.6,4.4v7l3.2,6.6l3.2,6.4v51.6l-3.2,6.2v6.8l6.4,6.4l6.4,9.6l6.4,9.6l6.4,9.6l3.2,9.6l6.4,6.4l12.8,3.8
				v9l9.6,3.2l19.4,6.4l16,6.4l25.8,9.6l28.2-7l32.8-23.2l17.4-34.8l-5.8-40.6l-13.6-42.6l3-25.4l16.4-8l13.6,27.6l11.6,36.8l9.6,31
				l43.6,27h19.8"/>
		</g>
	</g>
	<g>
		<g>
			<defs>
				<rect id="SVGID_3_" width="7680" height="2160"/>
			</defs>
			<clipPath id="SVGID_4_">
				<use xlink:href="#SVGID_3_"  style="overflow:visible;"/>
			</clipPath>
			<path id="Pre1900_HKI" class="st3" d="M1457,2390.8l0.2-1.4l2-9l3.2-13l3.2-9.6l19.4-35.6l13-35.6l3.2-9.6l-3.2-44.8V2206
				l-3.2-9.6l-6.4-7l-3.2-9.2v-9.6l3.2-3v-3.4l-3.2-6.4l-9.6-16.2l-14.6-16.2l-4.8-3.2l-16.2,3.2l-6.4-6.4l-3.2-6.4v-6.4l6.4-16.2
				l-3.2-6.4l-16.2-13l-3.2-3.2l3.2-3.2l6.4-3.2v-3.2l3.2-6.4l6.4-6.6v-6.4l-9.6-6.4l-9.6-9.6l-3.2-6.4l-9.6-3.2l-3.2-3.2l-3.2-6.4
				l-3.2-6.4l-9.6-6.4l-6.4-6.4h-6.4l-3.2,6.4l-3.2,4.6v5.2l-3.2,6.4l-3.2,3.6v15.8l-6.4,3.2h-13l-3.2,3.2l-3.2,6.4v6.4l-3.2,6.4
				l-6.4,3.2h-3.2l-6.4,3.2l-6.4,9.6l-3.2,6.4l-3.2-3.2v-6.4l-6.4-6.4l-9.6-3.2h-13l-3.2-3.2l-9.6-3.2l-3.2-3.2l-9.6-3.2l-6.4-6.4
				l-13-3.2l-9.6-9.6l-3.2-13l-3.2-6.4l-9.6-16.2l-6.4-19.4v-19.4l-3.2-3.2l-9.6-9.6l-3.2-6.4l6.4-9.6l3.2-22.6l3.2-16.2l6.4-16.2
				l-3.2-3.2l-4.8-15.4v-11.6l-9.6-20.8V1799l-6.4-3.2l-6.4-6.4l-1.6-13.8l-4.8-12l-2.6-6.4l-4-3.2l-13,3.2l-3.2-3.2l-3.4-9.8
				l-3.2-3.2l-13-9.6l-9.6-9.6l-3.2-9.6l3.2-6.4l-3.2-6.4l-6.4-3.2l-6.4-3.2v-6.4l3.2-3.2v-3.2l-3.2-3.2l6.4-6.4l6.4-6.4v-9.6
				l3.2-16.2l6.4-9.6l6.4-16.2v-13l-6.4-16.2l-9.6-3.2l-13-3.2l-6.4-3.2l-3.2,3.2l-9.6,6.4l-16.2,6.4l-9.6,6.4h-10l-13,3.2
				l-16.2,3.2l-21.4-3.2h-11l-9.8-3.2l-6.8-3.2h-6l-6.4-3.2l-6.4-3.2l-10.2-6.4h-22.2l-22.6-13l-6.4-9.6l-3.2-3.2l-6.6-3.2l-3.2-6.4
				l-6.4-13L842,1506l-13-19.4l-13-13l-16.2-9.6l-19.4-6.4l-12.8-13l-9.8-13l-3.2-13v-29l3.2-48.4l-3.2-13l-3.2-19.4l-3.2-22.6v-9.6
				l3.2-6.4l9.8-13l13-13l6.4-16.2l3-22.6l3.2-16.2l3.2-13l6.4-9.6l9.6-9.6l25.8-16.2l48.4-22.6l35.6-13l56.4-16.2h27.8l9.8-6.4
				l6.4-6.4l3.2-3l3.2,3.2l6.4,3.2h9.6l16.2-3.2l6.4-3.2l3.2-6.4l6.4-9.6l3.2-6.4l9.6-6.4l9.6-6.4l9.6-3.2l6.4,3.2l5.2,1.6h9.4
				l9.6-3.2l12.4-6.4h16.6l14.6,14.6l13,16.6l8.2,4l12.2,8.2l12.2,4l16.4,4h16.4l16.4-4l16.4-4l12.2-4l12.2-4l20.2-12.4l12.2-12.2
				l8.2-12.2l8.2-16.4l4-12.2l4-12.2l8.2-8.2l8.2-8.2l12.2-8.2l16.4-8.2l12.2-12.2l8.2-8.2l8.2-4l12.2-8.2l4-20.4l4-12.2l8.2-12.2
				l8.2-12.2V845v-1.6c-1.6-2.6-4.2-6.6-4.2-6.6l4-12.2l8.2-8.2h16.4l12.2,4l16.4,4l25,3.6l7,6.2l5.8,5.8l4,2.8l16.2,12.2l12.2,4
				h44.6l20.2-4l12.2-4l16.2-8l16.2-8l12.2-8l12.2-8l12.2-4l16.2-4h24.4l11.6,1.2l12.8,3.2h12.8l12.8-3.2l5-4.4l16.2-8l4-12.2
				l4-12.2l4-4l8-0.8h28.4l12.2,0.8l8,2.2l4.2,9.8v8l8,8l12.2,4h48.6l12.2,4h8l16.2,4l6-3l6.4-3.2h6.4l12.8,3.2l3.2,3.2l9.6,9.6
				l6.4,6.4l9.6,6.4l12.8,3.2h9.6l12.8-6.4l12.8-9.6l12.8-6.4l12,1.6l12.2,12.2l12.2,8l12.2,12.2h25l4-8l8-4h8.2l4,8l12.2,8l12.2,8
				l4,8V881l12.2,4l12.2,4h8l8-4l8.2-4h4l8-4l4-8h12.2l12.2,4h24.4l16.2,8l8,4h20.2l12.2,4l8,4l4,4l4,4l8,8l12.2,8l4,12.2v16.2l4,8
				l12.2,12.2l4,8l8,8l8,8l4,8l4,4l8,8l8,12.2l4,12.2l8,8l8.2,12.2l12.2,12.2l8,8l4,8l4,8l4,8l12.2,8l8,16.2l8,8h12.2l12.2,4h12.2
				l8,4l8-4h31l8-4l20.2-4l20.2,4l20.2,4l24.4,8l20.2,8l20.2,8l12.2,8l16.2,12.2l16.2,12.2l16.2,12.2l4,8v17.8l4,4h3.6l4.4-4l4-4
				l12.2-4h28.4l8-4l8.2-4l8-8l12.2-8h4l4,4l4,4l8,8l4,4l8,8v5.2l-12.2,11l-8,8l-8,12.2l4,8h15.8l16.6,4l12.2,8l8.2,4l8,4l12.2,8
				l8,4l8,8l4,4l16.2,12.2l12.2,8l12.2,8l12.2,8l8,8l8,4h20.2l12.2-4h8l12.2,4l12.2,8h55l9.8,8l16.2-4l8-4l12.2-4l8.2-4l12.2-4
				l16.2-12.2l12.2-4l16.2-4h12.2l12.2-8l8.2-4l8-4l28.4,8l28.4-20.2l12.2-16.2v-16.2h25.8l40.4-12.2l20.2-16.2l16.2-4l24.2,36.4
				l-4,24.4l8,36.4l8,8h24.4l16.2-7.2l16.2-17l12.2-16.2l12.2-4l28.4-12.2l20.2-20.2l-12.2-32.4v-16l4-12.2v-8l-4-12.2v-8l4-20.2
				l4-12.2l8-12.2l4-12.2l4-12.2v-8l-8-8l-4-4v-4l4-4l4-4l4-4l8.2-4l12.2-4l12.2,4l12.2,12.2l4,20.2v8l-4,12.2l-8,8l-4,8v8l12.2,4
				l12.2,8l16.2,16.2l16.2,12.2l20.2,8l24.4,8l24.2,4h32.4l12.2,16.2l16.2,12.2l12.2,4l20.2-4l20.2-8l20.2-4l28.4-8h60.8l16.2-12.2
				l4-16.2l-4-20.2l-8.2-16.2l-8.2-20.2v-28.8l-4-24.4l-4-24.4v-32.4l-4-32.4v-32.4l-4-32.4l-4-36.4l-4-20.2v-24.2l4-16.2l12.2-12.2
				l28.4-36.4l24.2-28.4l48.6-56.8l20.2-24.2l16.2-12.2l16.2-8h16.2l20.2,4l16.2,4l20.2,4l16.2,4h44.6l16.2-4l20.2-4l28.4-8l28.4-8
				l28.4-4l32.4-4h36.4l11.6-3l19.2-9.6l22.4-9.6l25.6-9.6l19.2-6.4l22.4-12.8l12.8-6.4l6.6-1.6h7.8l48.2,6.4l41.8,12.8l32,12.8
				l25.6,19.2l22.4,32l16,41.8l16,64.2l6.4,19.2l6.4,16l12.8,32l19.6,40l15.8,24l18.4,21l7.4,1.4h9.6l12.8-9.6l9.6-9.6l3.2-16
				l3.2-9.6l6.4-6.4l9.6-3.2h9.6l9.6,6.4l4.6,9.6l5,9.6l6.4,9.6l12.8,19.2l9.6,19.2l3.2,3.2h3.8l3-3l9.6-9.6l12.8-19.2l9.6-9.6
				l9.6-6.4l16-9.6l9.2-3.2h10.2l12.8,3.2l12.8,6.4l16,9.6l16,9.6l32,12.8l37.2,6.4h17.4l12.8,3.2l9.6,6.4l19.2,19.2l22.4,22.4
				l9.6,16l6.4,6.4l9.6,16l6.4,6.4l12.8,16l16,22.4l12.8,22.4l16,16l9.6,6.4l16,6.4l28.8,16l19.2,6.4l28.8,6.4l7.2,8l5.8,14.4
				l8,11.4l9.8,19.4l22.8,45.4l22.8,45.4l9.8,6.6l19.4,9.8l29.2,13l16.2,6.4l9.8,9.8l22.8,9.8h22.8l16.2-16.2l13-22.8l6.4-16.2
				l-3.2-9.6l-13-13l-9.8-42.2l9.8-19.4l22.8-58.4v-13l-3.2-22.6l-3.2-16.2l-3.2-16.2l3.2-9.8l9.8-13l13-9.8l19.4-3.2l13,3.2
				l9.8,3.2l22.8,6.4h19.4l22.8-9.8l13-13l3.2-9.8l-6.4-3.2l-3.2-9.8l3.2-6.6v-3.2l-3.2-6.4l3.2-6.6l6.4-3.2l-3.2-6.4l3.2-3.2
				l9.8-6.6l13-6.4l8.4-7l11.4-2.2l20.4,6.8l20.4,18.2l15.8,18.2l11.4,13.6l13.6,15.8l9,11.4l9,6.8l6.8,11.4l11.4,6.8l11.4,9l9,9
				l9,6.8l11.4,4.6l16,9l6.4,7.6l12.8,6.6l8.2,8.2l0.2,2.8l-2,2l-3.2,3.2l3.2,6.4l3.2,3.2h6.4l3.2,3.2v6.4l-3.2,6.4l-3.2,9.8
				l-3.2,9.8l-13,22.6l-3.2,9.8l-6.4,3.2l-9.8,9.8l-6.4,3.2l-13,3.2h-6.4l-13,9.8h-3.2l-6.4,3.2l-16.2,19.4l-3.2,9.8v13l6.4,6.4
				l16.2,22.8v3.2l6.4,9.8l16.2,19.4l3.2,6.6l3.2,6.4l9.8,9.8l13,16.2l3.2,16.2l3.2,9.8l6.4,9.8l13,9.8h9.8l9.8-3.2l13-3.2l35.8-9.8
				h6.4l9.8,3.2h6.6l3.2-3.2l13-13h3v13l3.2,9.8l-3.2,16.2l-3.2,6.4v3.2l-3.2,3.2h-9.8l-3.2,3.2l-6.6,3.2l-3.2,6.6h-3.2l-9.6-6.4
				l-3.2-3.2l-3.2,3.2l-3.2,6.6l-6.4,13l-9.8,6.6h-6.4l-3.2,3.2l3.2,6.4l-3.2,9.8l-13,16.2l-9.8,6.4l-13,16.2l-3.2,9.8v9.8l6.4,9.8
				l-3.2,3.2l-9.8,19.4l-3.2,19.4l-3.2,6.6l-16.2,9.8v6.6l3.2,13l-3.2,6.4v6.4l3.2,6.6l6.6,3.2l3.2,6.4v3.2l3.2,3.2l-9.8,6.4
				l-9.8,9.8v9.8l-6.4,3.2l-6.6,3.2v6.4l3.2,13l-3.2,9.8l-6.4,9.8l-6.4,16.2l-6.6,22.6l-9.8,6.6v6.4l3.2,6.4l6.4,19.4l13,26l6.4,9.8
				l3.2,6.4h6.6l6.4-6.4l13-3.2l3.2,6.6v6.4l-3.2,19.4l-3.2,9.8l-13,26l-6.4,3.2h-6.6l-13,6.4l-9.8-3.2l-16.2-9.8v-9.8l3.2-6.6
				l3.2-9.8v-6.6l-3.2-3.2l-9.8-6.4h-3.2l-3.2,6.4l-3.2,3.2l-6.4,3.2h-9.8l-6.6-6.4l3.2-9.8l3.2-9.8v-9.8l-3.2-6.4h-3.2v9.8h-13
				l-9.8-6.6h-3.2l-3.2,6.6l-3.2,3.2v6.4l3.2,3.2h-9.8l-6.4,6.6l3.2,3.2l3.2,3.2v6.4l3.2,6.6l3.2,9.8l-3.2,6.6v3.2l6.6,9.8l6.4,6.4
				l3.2,9.8l6.6,13l3.2,3.2h16.2l3.2,3.2l9.8,16.2h19.4l6.6,6.4l3.2,9.8v9.8h13l16.2,9.8v6.4h13l9.8-3.2l16.2,3.2l22.8-16.2h6.6
				l9.8-6.4h6.6l13-13l13-6.4l13-16.2l13-3.2h19.4l13-3.2l16.2-6.4l6.4-11.8l3.4-1l19.6-9.6l19.4-9.8l6.4-9.8l26-26h3.2l6.6,6.4h6.4
				l9.8-3.2h9.8l3.2-9.8l13-6.6l22.8-6.4v-3.2l9.8-6.6h13l6.6-3.2l6.4,6.4h13l6.4,3.2l9.8,9.8h3.2l6.4-3.2l3.2,3.2l9.8,9.8l9.8,3.2
				l3.2,3.2v9.8l6.6,9.8l9.8,13l3.2,6.4l6.6,9.8l6.4,3.2l6.6,6.6l29.2,29.2l3.2,13l3.2,3.2l6.6,9.8l13,29.2l3.2,6.4l-3.2,6.4
				l3.2,6.6v9.8l3.2,6.6l13,9.8h3.2l3.2-9.8l6.4-6.6l9.8-3.2l9.8-6.4l16.2-9.8l16.2-16.2l19.4-13l13-13l9.8-22.8l6.4-26l-1.6-8.6
				l-14.6-30.4l-3.2-6.4l3.2-3.2l9.8-3.2l6.4-3.2l16.2-9.8l5.6-2.6l6.8-6.8l13.6,9l11.4,11.4l9,6.8l9,2.2l9,6.8l15.8,9l22.8,27.2
				l11.4,6.8l6.8,6.8l6.8,6.8l13.6,11.4l9,11.4l6.8,6.8l11.4,9l6.8,4.6l9,13.6l22.8,25l9.6,19.6l3.2,9.2l0.8,3l-4.6,4.6h-2.2
				l-6.8-2.2l-3.4-1.4h-9.8l-7.4,8.2h-9l-18.2,2.2l-7.6,9h-6.4l-3.2,9.8l-6.6,9.8l-9.8,19.4l-3.2,16.2l-6.6,16.2v6.4l6.6,6.6v6.4
				l3.2,3.2l3.2,9.8h3.2l3.2,3.2l-3.2,6.4l3.2,9.8l-3.2,6.4l3.2,9.8l3.2,3.2l-3.2,6.6l3.2,6.4h3.2l3.2-3.2l3.2,3.2v3.2l6.4,9.8
				l13,16.2l-3.2,3.2v6.4l-3.2,6.6l3.2,3.2h3.2l13,13v3.2l-3.2,3.2h-3.2l-6.4,6.4v6.6l6.4,9.8l-3.2,6.6l-3.2,16.2l-6.4,3.2l-9.8-6.6
				h-6.4l-3.2,6.6l-1.8,8.6"/>
		</g>
	</g>
	<g>
		<g>
			<defs>
				<rect id="SVGID_5_" width="7680" height="2160"/>
			</defs>
			<clipPath id="SVGID_6_">
				<use xlink:href="#SVGID_5_"  style="overflow:visible;"/>
			</clipPath>
			<g id="_2019_HKI_Shoreline" class="st4">
				<polyline class="st5" points="6968.2,1882.8 6965.8,1880 6965.2,1878.2 6965.8,1875.8 6965.8,1874.2 6962.4,1871.8 6954.2,1866 
					6952,1864.8 6782.4,1697.6 6720.6,1760.8 6687.6,1719.6 6674,1678.6 6644.4,1576.6 6639.4,1565.4 6638.8,1565 6638.8,1541.6 
					6633.8,1527 6624.4,1503.4 6605.8,1477.8 6596.8,1484.6 6614.4,1509 6623.2,1530.8 6627.4,1543.4 6627.4,1565.8 6603.6,1590.2 
					6630.8,1687.8 6547.8,1757 6530.6,1757 6513.4,1754.2 6504.8,1742.8 6493.4,1725.6 6493.4,1725.6 6496.2,1716 6458.6,1667.6 
					6576.6,1529.4 6564.8,1514.4 6574,1506.2 6549,1479 6512.8,1447.2 6460.6,1367.6 6454.4,1373 6454.4,1373 6455.6,1369.6 
					6455.6,1365.6 6431,1236 6424.2,1217.8 6340.6,1159.6 6331.6,1149.6 				"/>
				<line class="st6" x1="832.6" y1="1139.8" x2="837" y2="1133"/>
				<polyline class="st7" points="845.4,1120 853.6,1107.4 915,1083.2 978.4,1059.4 				"/>
				<polyline class="st6" points="985.8,1056.6 993.2,1053.8 990.4,1046.4 				"/>
				<polyline class="st6" points="983.4,1027.6 980.6,1020.2 987,1015.6 				"/>
				<line class="st8" x1="997.2" y1="1008.2" x2="1032.8" y2="982.2"/>
				<polyline class="st6" points="1037.8,978.6 1044.4,973.8 1048.6,980.6 				"/>
				<polyline class="st6" points="1049.8,982.6 1054,989.2 1047.4,994 				"/>
				<line class="st9" x1="1035" y1="1002.8" x2="1016.4" y2="1016.2"/>
				<polyline class="st6" points="1010.2,1020.6 1003.6,1025.4 1006.2,1033 				"/>
				<polyline class="st6" points="1008.6,1039.6 1011.2,1047.2 1018.6,1044.4 				"/>
				<polyline class="st10" points="1033.4,1038.8 1121.6,1005.6 1157.2,999.2 1198.8,991.8 1238.4,984 				"/>
				<polyline class="st6" points="1246.2,982.6 1254,981 1254,977.4 1257,974.2 				"/>
				<polyline class="st11" points="1267.8,963.4 1288.8,942 1347.2,886.6 1460.2,778.8 				"/>
				<polyline class="st6" points="1465.8,773.4 1471.6,768 1479.4,769.2 				"/>
				<line class="st12" x1="1497.2" y1="772" x2="1559.2" y2="781.8"/>
				<polyline class="st6" points="1568,783.2 1575.8,784.4 1574.6,776.6 				"/>
				<polyline class="st6" points="1569.6,756 1567.4,748.2 1559.6,746.8 				"/>
				<line class="st13" x1="1543.8" y1="744" x2="1457.4" y2="728.2"/>
				<polyline class="st6" points="1449.4,726.8 1441.6,725.4 1443,717.6 				"/>
				<polyline class="st6" points="1443.2,716.2 1444.4,708.2 1452.4,709.6 				"/>
				<polyline class="st9" points="1467.4,712.2 1541.8,725.4 1559,725.4 1580.2,719.4 				"/>
				<polyline class="st6" points="1587.6,717.4 1595.2,715.2 1593,707.4 				"/>
				<polyline class="st6" points="1591.8,702.8 1589.6,695 1600.8,692 1603,699.6 				"/>
				<polyline class="st6" points="1604.2,704.4 1606.4,712.2 1614.2,710 				"/>
				<polyline class="st6" points="1627.8,706.2 1635.4,704.2 1633.2,696.4 				"/>
				<polyline class="st6" points="1632.4,693 1630.2,685.4 1641.4,682.2 1643.6,690 				"/>
				<polyline class="st6" points="1644.4,693.4 1646.6,701 1654.4,699 				"/>
				<polyline class="st6" points="1673.2,693.6 1681,691.4 1678.8,683.8 				"/>
				<polyline class="st6" points="1678.8,683.4 1676.6,675.8 1687.8,672.6 1690,680.4 				"/>
				<polyline class="st6" points="1690,680.6 1692.2,688.4 1699.8,686.2 				"/>
				<line class="st14" x1="1711.4" y1="683" x2="1728.6" y2="678.2"/>
				<polyline class="st6" points="1734.4,676.6 1742,674.6 1739.8,666.8 				"/>
				<polyline class="st6" points="1739.6,665.8 1737.4,658 1746.8,655.4 1749,663.2 				"/>
				<polyline class="st6" points="1749.2,664.2 1751.4,672 1765,668.2 1763,660.4 				"/>
				<polyline class="st6" points="1762.8,660 1760.6,652.2 1770,649.6 1772,657.4 				"/>
				<polyline class="st6" points="1772.2,657.8 1774.4,665.6 1782,663.4 				"/>
				<polyline class="st15" points="1797.4,659.2 1816.4,653.8 1839.4,648.2 2062.6,656.8 2270.6,709.4 2279.6,720.6 2309.2,757 
					2331,762.8 				"/>
				<polyline class="st6" points="2338.6,764.8 2346.4,767 2348.4,759.2 				"/>
				<polyline class="st6" points="2350,753.2 2352,745.6 2350.8,743.8 2338.6,741 2338.6,739.2 2339.2,735.2 2337.6,734.6 
					2336.4,738.6 2328.6,736.4 				"/>
				<polyline class="st6" points="2325.4,731.8 2324.2,730 2325.4,724.2 2331.8,720.6 2332.4,720.6 2332.4,720.8 				"/>
				<polyline class="st6" points="2332.6,720.8 2340.4,723 2339.8,727 2341.6,727 2342.8,723.6 2343.4,721.8 2351,724 				"/>
				<line class="st16" x1="2361.4" y1="726.8" x2="2377.2" y2="731"/>
				<polyline class="st6" points="2382.4,732.4 2390.2,734.6 2391.4,733.4 2393,727.2 				"/>
				<polyline class="st6" points="2395.4,718.4 2397.2,712 2396.6,710.8 2386.6,708 2387.8,704 2386.2,703.4 2385,707.4 
					2381.4,706.8 2382.6,702.2 2380.8,702.2 2380.4,706.2 2372.6,704.2 				"/>
				<line class="st17" x1="2363.8" y1="701.8" x2="2350.8" y2="698.4"/>
				<polyline class="st6" points="2346.4,697.2 2338.6,695.2 2335.2,688.8 2337,683 2338.6,682 2346.4,684 				"/>
				<polyline class="st18" points="2362.8,688.4 2403.4,699.2 2420.2,704 				"/>
				<polyline class="st6" points="2428.4,706.4 2434.2,708 2435.2,709.8 2433.6,715.4 2431.8,716.4 				"/>
				<polyline class="st6" points="2428.4,718.2 2427.2,719 2420.8,717.2 2422,712.6 2419.6,712.6 2418.6,716.6 2415.6,715.4 
					2416.8,711.4 2415,710.8 2413.8,715.4 2404,712.6 2402.8,713.2 2400.8,721 				"/>
				<polyline class="st6" points="2398.8,728.6 2397.2,735.2 2397.6,736.2 2410.4,739.8 2409.8,741.6 2410.4,742 2409.2,745.6 
					2411,746.2 2412.2,742 2420.8,744.4 2424.2,750.8 2422.6,756.6 2416.8,760 2408,757.8 2408.6,754.2 2407.6,753.6 2406.4,757.2 
					2405.8,757.2 2405.2,758.8 2393,755.4 2391.4,756.6 2389.8,762.2 				"/>
				<polyline class="st6" points="2387.8,769.6 2385.8,777.4 2393.6,779.4 				"/>
				<polyline class="st19" points="2408.6,783.4 2420.4,786.6 2443,786.6 2457.6,799 				"/>
				<polyline class="st6" points="2462,805.4 2466,812.4 2466,812.4 2469.4,809.6 2472,807 				"/>
				<line class="st20" x1="2485" y1="793.8" x2="2530.2" y2="746.8"/>
				<polyline class="st6" points="2536.8,740.2 2542.2,734.4 2547,735.6 2544.8,743.2 				"/>
				<polyline class="st6" points="2541,757.4 2538.8,765 2553.2,769 2556.2,774.2 2565.4,776.6 2568.4,775.4 2570.4,767.8 				"/>
				<polyline class="st6" points="2574.8,751.4 2577,743.6 2588.6,746.6 2586.4,754.2 				"/>
				<polyline class="st6" points="2582,770.6 2579.8,778.4 2580.4,778.4 2582.2,781.2 2590,783.2 				"/>
				<polyline class="st6" points="2599.8,785.6 2607.6,787.6 2610,785.8 2611.2,781 				"/>
				<polyline class="st6" points="2616.6,761 2618,755.2 2619.8,754 2629.6,757 2630.8,758 2628.6,765.8 				"/>
				<polyline class="st6" points="2624.2,782.2 2622.2,790 2623.8,791.6 2629.2,793 				"/>
				<polyline class="st6" points="2645.4,797 2649.8,798 2652.8,796.2 2654.8,788.6 				"/>
				<polyline class="st6" points="2658.6,772.6 2660.4,766.2 2660.8,765.6 2661.4,765.6 2661.4,765 2662,765 2671.2,768 2671.8,768 
					2671.8,768.6 2672.4,768.6 2672.4,769 2670.6,776.2 				"/>
				<polyline class="st6" points="2666.4,791.4 2664.4,799.2 2666,802 2670.6,803.4 				"/>
				<polyline class="st6" points="2686.8,808.2 2691.6,809.6 2694.4,808.4 2696.8,800.8 				"/>
				<polyline class="st6" points="2701.6,785.4 2703.6,778.4 2703.6,777.8 2704.2,777.8 2704.8,777.2 2706,777.8 2712.4,779.6 				
					"/>
				<line class="st21" x1="2713.8" y1="786.6" x2="2709.6" y2="799.8"/>
				<polyline class="st6" points="2708.4,804.2 2706,812 2707.8,814.2 2707.2,815.4 2714.8,818 				"/>
				<polyline class="st6" points="2725,821.4 2732.6,824 2733.2,823 2735.6,821.8 2737,817.8 				"/>
				<polyline class="st6" points="2743.8,799.2 2746.4,792.2 2746.4,791.6 2747,791.6 2747.6,791.6 2748.2,791.6 2756.8,794.6 
					2757.4,795.2 2758,795.2 2758,795.8 2758,796.2 2755.6,802.8 				"/>
				<polyline class="st6" points="2749.8,818.2 2747,825.8 2748.8,828.6 2748.2,829.2 2755.6,832.2 				"/>
				<polyline class="st6" points="2765.6,836.2 2773.2,839 2773.6,838.6 2776.6,836.8 2778,833.2 				"/>
				<polyline class="st6" points="2785.8,814.4 2788.2,808.4 2788.8,807.8 2789.4,807.2 2789.8,807.2 2796.6,810.2 				"/>
				<line class="st22" x1="2797.6" y1="818.2" x2="2791.8" y2="832.6"/>
				<polyline class="st6" points="2789.8,837.4 2788.2,841.4 2789.4,844.8 2788.8,845.4 2792.8,847.2 2796,848.6 				"/>
				<polyline class="st6" points="2805.2,852.6 2812.4,855.8 2816.4,853.6 2817.8,850.4 				"/>
				<polyline class="st6" points="2825.6,832 2828.6,824.6 2840.2,829.2 2837.2,836.6 				"/>
				<polyline class="st23" points="2832.6,847.2 2828,858.2 2830,863.2 				"/>
				<polyline class="st6" points="2832.2,868.6 2835,876.2 2842.6,873.6 				"/>
				<polyline class="st6" points="2859.2,867.8 2863.4,866.2 2864.6,866.2 2865,866.2 2866.2,866.8 2866.8,866.8 2867.4,867.4 
					2868,868.6 2868.6,869.2 2868.6,870.4 2868.6,871 2868,872 2867.4,873.2 2866.8,873.8 2865.6,873.8 2859.2,876 				"/>
				<polyline class="st6" points="2844.8,881 2837.4,883.6 2840,891.2 				"/>
				<polyline class="st6" points="2844.4,903.2 2847.2,910.8 2854.6,908.2 				"/>
				<polyline class="st6" points="2870.2,902.8 2875.4,901 2876,901 2876.6,901 2877.2,901 2877.8,901 2878.4,901.6 2879,901.6 
					2879.6,902.2 2879.6,902.8 2880.2,903.2 2880.2,903.8 2880.6,904.4 2880.6,905 2880.6,905.6 2880.2,906.2 2880.2,906.8 
					2879.6,907.4 2879,908 2878.4,908.6 2877.2,909 2875.6,909.6 				"/>
				<polyline class="st6" points="2857,915.8 2849.4,918.4 2852.2,926 				"/>
				<polyline class="st24" points="2855.4,935.4 2857.6,941.6 2865,946.4 				"/>
				<polyline class="st6" points="2869.2,949.2 2875.4,953 2876,953 2877.2,958.2 2884.6,961.2 				"/>
				<polyline class="st25" points="2900.2,967.6 2937.4,982.6 2949.6,987.2 2954.2,989.6 2959.4,991.2 2973.2,997 2979.6,999.4 
					2985.4,1001.2 				"/>
				<polyline class="st6" points="2993,1004.4 3000.4,1007.4 3005.6,1004.6 3007.6,1005 				"/>
				<polyline class="st11" points="3022.6,1008 3023,1008 3037.4,1011 3047.8,1012 3052,1012.6 3057.6,1013.2 3066.4,1013.8 
					3070.4,1014.4 3075.6,1015 3080.8,1018 3087.6,1022.6 3092.2,1024.8 3096.8,1027.2 3101.2,1029.4 3108,1031.6 3119,1031.8 
					3137,1033 3138.6,1033 3161.2,1039.2 3182,1044.4 3193.6,1046.2 3200.6,1046.8 3207,1046.8 3215.6,1045 3223.2,1042.8 
					3228.4,1040.4 3234.8,1037.6 3239.4,1034.6 3242.8,1030.6 3247.4,1024.8 3249.8,1021.4 3252.6,1016.8 3253.2,1015 
					3255.6,1011.6 3256.2,1009.2 3258.4,1005.2 3259.6,1002.2 3261.4,999.4 3263,997.6 3266.6,993.6 3270.6,990 3274.6,986.6 
					3278,976 				"/>
				<polyline class="st6" points="3280.4,968.8 3282.8,961.2 3282.2,961.2 3281.6,960.6 3281,960 3280.4,959.4 3279.8,958.2 
					3279.8,957.8 3279.8,957.2 3279.8,956 3279.8,955.4 3280.4,954.8 3281,954.2 3285.6,949.8 				"/>
				<polyline class="st26" points="3300.8,939 3301.8,938.6 3305.2,936.8 3308.8,935.8 3311.6,935.2 3315.2,934.6 3318,934 
					3321.4,934 3327.2,934 3331.4,934.6 3337.2,935.8 3341.2,936.8 3344.6,938 3347,939.2 3349.2,940.4 3351,941 3352.8,942 
					3364.8,942 				"/>
				<polyline class="st6" points="3374.2,942 3382.2,942 3380,934.4 				"/>
				<polyline class="st27" points="3382.6,918.2 3383.4,917.8 3384.6,917.8 3385.6,918.4 3386.8,918.4 3388,919 3389.2,920 
					3389.8,920.6 3390.4,921.8 3390.4,922.4 3390.8,923.6 3395.2,940.2 				"/>
				<polyline class="st6" points="3397.6,949.4 3399.6,957.2 3395,958.2 3395.6,958.8 3396.2,959.4 3396.2,960.6 3396.2,961.8 
					3395,965.6 				"/>
				<polyline class="st6" points="3393.6,970.2 3391.4,978 3392,978.6 3392.6,977.4 3395,978 3394.4,980.8 3392,980.2 3392,979.6 
					3390.8,979 3389.2,986 3390.4,986 3390.4,985.4 3392.6,986 3392,989.6 3389.8,988.4 3389.8,987.2 3386.8,986.6 3386.8,990.6 
					3387.2,994.6 				"/>
				<polyline class="st28" points="3388,1008.8 3388.6,1016.8 3389.2,1018.4 3390.4,1020.8 3391.4,1022.6 3392.6,1024.2 
					3393.8,1025.4 3395,1027.2 3397.2,1028.2 3399,1029.4 3400.8,1030.6 3402.4,1031.2 3404.8,1031.2 3406.6,1031.2 3411.2,1031.2 
					3414,1031.2 3418.2,1030.6 3451.2,1027 				"/>
				<polyline class="st6" points="3458.2,1026.2 3466.2,1025.4 3466.2,1024.8 3466.6,1023.6 3467.8,1022.6 3467.8,1021.4 
					3467.4,1018 				"/>
				<polyline class="st6" points="3465.2,998.6 3464.4,991.2 3464.4,990.6 3465,990.6 3465,990 3465.6,990 3466.2,989.6 3475.4,989 
					3476,989 3476.6,989 3476.6,989.6 3477.2,990 3477.8,997.2 				"/>
				<polyline class="st6" points="3480,1016.4 3480.6,1020.8 3482.8,1023.6 3489.8,1022.6 3490.8,1022.4 				"/>
				<polyline class="st29" points="3505.4,1020.8 3505.4,1020.8 3524.6,1017.8 3533.8,1016.8 3548.2,1014.4 3569,1011.6 
					3614.6,1004.6 				"/>
				<polyline class="st6" points="3621.8,1003.4 3629.8,1002.2 3629,1003.2 3635,998 				"/>
				<line class="st26" x1="3649.4" y1="985.8" x2="3671" y2="967.4"/>
				<polyline class="st6" points="3679,962.8 3686.8,961.4 3691.4,965.8 3689.4,973.6 				"/>
				<line class="st30" x1="3677.4" y1="985.4" x2="3658.4" y2="1002.6"/>
				<polyline class="st6" points="3652,1008.2 3646,1013.6 3646,1018 3646.8,1021.4 				"/>
				<polyline class="st6" points="3653,1044.4 3655.2,1052.2 3662.4,1048.8 				"/>
				<line class="st31" x1="3678.8" y1="1041.4" x2="3703.6" y2="1030"/>
				<polyline class="st6" points="3712,1026.4 3719.2,1023 3719.2,1015 				"/>
				<line class="st32" x1="3719.2" y1="999.6" x2="3719.2" y2="976.4"/>
				<polyline class="st6" points="3719.2,968.6 3719.2,960.8 3719.4,960.8 3711.4,959 				"/>
				<polyline class="st6" points="3716.6,950.2 3724.4,952 3732.2,938.6 3740.2,937 				"/>
				<polyline class="st6" points="3750.6,935 3755,934 3758.6,934.2 3755.4,926.8 				"/>
				<path class="st33" d="M3750.4,915l-3.8-8.8c-1.2-2.4-0.2-5.2,2.2-6.4s5.2-0.2,6.4,2.2c0,0.2,0.2,0.4,0.2,0.4l8,18.6"/>
				<polyline class="st6" points="3766,926.8 3769.2,934.2 3777.2,934.2 				"/>
				<polyline class="st6" points="3792.6,930.2 3800.4,931.8 3804,939 				"/>
				<polyline class="st15" points="3801.8,954.2 3795.8,979.4 3786.8,1027.2 3786.8,1040.2 				"/>
				<polyline class="st6" points="3787,1048.2 3787.8,1056.2 3795.8,1055 				"/>
				<polyline class="st10" points="3809.6,1048.2 3856.6,1014.4 3865.2,1000.2 3882.4,985.8 3902.4,974.4 3925.2,968.6 
					3942.4,965.8 4008.2,951.4 4036,941 4042,935 4050,925 4058,909 4059.8,898.6 				"/>
				<polyline class="st6" points="4059.8,890.8 4059.8,882.8 4053.2,878.4 				"/>
				<polyline class="st34" points="4047.8,864.4 4045.4,848.4 4044,841.4 				"/>
				<polyline class="st6" points="4042.6,833.6 4042.6,825.6 4036,821.2 				"/>
				<path class="st7" d="M4023,812.4l-36.6-24.8c-2.4-1.4-3-4.6-1.6-6.8s4.6-3,6.8-1.6c0.2,0,0.2,0.2,0.4,0.2l21.6,14.6"/>
				<polyline class="st6" points="4020.2,798.2 4026.8,802.8 4032,796.6 				"/>
				<polyline class="st35" points="4042.8,784 4097.8,719.8 4133.6,682 4139.4,676.8 4195.6,624.2 4198.2,621.8 				"/>
				<polyline class="st6" points="4204.8,617 4206,616.8 4207.8,616.8 4209.4,616.8 4211.2,617.2 4212.6,618 4218.6,612.8 				"/>
				<path class="st36" d="M4231.2,602l34.4-29.4l20-14l28-14l26-10l56-14l46-14l10-2h10c2,0,12,4,12,4l55.6-1.6"/>
				<polyline class="st6" points="4537.4,506.8 4539.6,506.8 4545.4,505.6 4541.6,500.8 4541.6,498.8 				"/>
				<polyline class="st6" points="4538.6,476.8 4537,469 4547.6,466.8 4549.2,474.6 				"/>
				<polyline class="st6" points="4555.2,495.8 4555.6,496.8 4554.8,503.6 4562.6,501.8 				"/>
				<path class="st6" d="M4583.8,497.4l7.8-1.6l-1.8-9.8c-2.2-1-3.8-3-4.4-5.2c-0.4-2.6,0.4-5,2.2-6.8l-1.4-7.8"/>
				<polyline class="st6" points="4584.4,456 4583,448.2 4594.8,446 4596.2,454 				"/>
				<path class="st6" d="M4598,463.6l1.4,7.8c2.4,1,4,3,4.6,5.4c0.4,2.6-0.4,5.2-2.4,7l1.8,9.6l7.8-1.6"/>
				<polyline class="st7" points="4626.2,487 4661.6,474.8 4678.4,470.6 				"/>
				<polyline class="st6" points="4686,468.6 4693.6,466.8 4693.6,458.4 4701.6,458.4 				"/>
				<polyline class="st6" points="4706.2,458.4 4714.2,458.4 4714.2,465.2 4722.2,466 				"/>
				<polyline class="st37" points="4737.4,470.8 4741.6,472.8 4799.6,478.8 4825.6,482.8 4859.4,494.8 4893.6,510.8 4931.6,522.8 
					4970,538 4991.6,550.8 5013.6,566.8 5025.6,574.8 5047.2,581.6 5057.8,582.2 5078.2,591.2 5099.8,603.8 5262.2,679.8 
					5359.8,698 5381.8,701 5449.6,714.2 5567.6,769 5637.8,839.6 				"/>
				<polyline class="st6" points="5643.4,845.2 5649.2,851 5649.2,851 5655,856.4 				"/>
				<polyline class="st6" points="5664.4,865 5670.4,870.4 5673.2,869.2 5679.6,869.2 5685.2,863.4 				"/>
				<polyline class="st6" points="5695,853.6 5700.8,847.8 5711.2,858.4 5705.4,864 				"/>
				<polyline class="st6" points="5696.4,873 5690.8,878.6 5690.8,885.8 5689.6,888 5695.4,893.4 				"/>
				<polyline class="st6" points="5703.6,900.8 5709.4,906.2 5710,905.8 5716.4,905.8 5717.2,905.2 				"/>
				<polyline class="st6" points="5731.8,891.2 5737.4,885.6 5747.8,895.6 5742,901.2 				"/>
				<polyline class="st6" points="5733.4,909.4 5727.6,915 5727.6,921.8 5726.6,923.4 5729.6,929.6 5724,935.2 				"/>
				<line class="st38" x1="5715" y1="943.8" x2="5701.6" y2="957"/>
				<polyline class="st6" points="5697.2,961.2 5691.4,966.8 5697.2,972.6 				"/>
				<line class="st39" x1="5706.6" y1="982" x2="5740" y2="1015.4"/>
				<polyline class="st6" points="5744.8,1020.2 5750.4,1025.8 5758.4,1025.8 				"/>
				<polyline class="st40" points="5775.2,1025.6 5931.6,1025.2 5938.4,1021.4 5966,1010.6 				"/>
				<polyline class="st6" points="5973.8,1007.4 5981.2,1004.6 5981.8,1008.6 5988.2,1007.4 5989.4,1012 5997.4,1011.4 				"/>
				<line class="st41" x1="6009" y1="1010.2" x2="6026.6" y2="1008.8"/>
				<polyline class="st6" points="6032.4,1008.2 6040.2,1007.4 6038.6,1000.6 6046.4,998.8 				"/>
				<line class="st6" x1="6058" y1="996.2" x2="6065.8" y2="994.4"/>
				<polyline class="st5" points="958.2,1592.2 962.2,1614 976.6,1631.2 1005.2,1654 1025.2,1685.6 1042.4,1722.8 1177,1967 
					1191.2,1967 				"/>
				<path class="st5" d="M3780.4,900.4c0.4,0,1,0,1.4-0.2l204.8-61.8c2.6-0.8,4-3.4,3.2-6s-3.4-4-6-3.2L3779,891
					c-2.6,0.8-4,3.6-3.2,6C3776.6,899,3778.4,900.4,3780.4,900.4L3780.4,900.4z"/>
				<polyline class="st5" points="1211.2,2011.6 1210.6,2011.8 1212.4,2031.4 1213.6,2035 1217.6,2036.6 1226.2,2039.6 1235.6,2043 
					1242.4,2051.2 1244.8,2052.4 1248.2,2061.6 1250.6,2066.2 1251.8,2070.2 1252.4,2076 1253.4,2074.8 1259.8,2080 1258.6,2081.8 
					1259.8,2090 1261,2094 1263.2,2098 1267.4,2102 1274.2,2110.8 1283.6,2125.2 1293.4,2139.6 1308.4,2161 1314.2,2167.4 
					1314.8,2168 1315.4,2169.8 1316,2171.4 1315.4,2172.6 1316,2174.4 1311.4,2177.8 1348.4,2230.6 1353,2227.6 1354.6,2230.6 
					1358.2,2232.8 1361,2236.2 1362.8,2240.4 1375.6,2257.6 1377.2,2258.2 1385.4,2269.2 1390,2277.4 1423,2323.6 1456,2375.2 
					1459.4,2379.8 1459.6,2379.8 				"/>
				<polyline class="st5" points="5852.6,861 5856.6,860.4 5860.6,860.4 5865.4,860.4 5868.2,860.4 5871.2,860.4 5876.4,860.4 
					5882.2,861 5889.8,862.2 5901.8,865.6 5907.2,867.4 5913.6,870.2 5929.8,877.2 6035.4,923.8 6049.8,930.6 6061.6,937 
					6065.6,940 6071.4,944 6074.2,946.4 6081.2,952.8 6088.8,960.8 6083,966 6079,961.4 6076.6,959.2 6072.6,955 6067.2,951 
					6058.6,944.6 6047,937.6 5982.6,908.6 5952.4,895.8 5908.2,876.2 5897.2,872.6 5887.4,870.2 5881,869.2 5875.2,868.6 
					5872.2,868.6 5871.2,868.6 5868.2,868.6 5865.4,868.6 5863.6,868.6 5859,869.2 5853.8,869.2 5851.4,869.8 5844.4,868.6 
					5842.2,868 5839.8,867.4 5837.4,866.2 5834.6,864.6 5831.6,863.4 5827,861.6 5824.8,861 5824.2,859.2 5823,857.6 5823,856.4 
					5823.6,855.2 5824.2,853.4 5825.2,852.4 5827.6,852.4 5830.6,853 5834.6,854.6 5838.6,856.4 5841,857.6 5842.6,858.2 
					5844.4,859.2 5846.8,859.8 5849.6,860.4 5852.6,861 				"/>
				<polyline class="st5" points="5881.2,896.6 5879.4,897.2 5877.8,897.2 5875.4,896.6 5868,896.6 5864.4,896.6 5861.6,896.6 
					5851.8,897.8 5849,898.2 5846.6,898.8 5841,900.6 5835.8,902.2 5830,905.8 5826.6,907.4 5822.6,910.4 5819,912.6 5815,916 
					5808.8,921.8 5805.8,924.8 5804.2,927 5802.4,928.8 5801.2,930 5799.6,930.4 5797.8,931 5796.2,930.4 5795,928.8 5795,927.6 
					5796.2,925.2 5797.2,924.2 5799.6,921.8 5802.4,919 5805.2,916 5808.8,912.6 5811,910.4 5814.4,907.4 5817.4,905.2 
					5823.2,901.8 5826.6,900 5830,898.2 5832.8,897.2 5838.6,894.2 5841.6,893.6 5844.4,892.6 5847.2,892 5850.2,891.4 5853,890.8 
					5856.4,890.2 5860.4,890.2 5864.4,890.2 5869.6,890.2 5873.6,890.2 5877.2,890.2 5878.8,890.2 5880.6,890.8 5881.8,891.4 
					5882.2,892.6 5882.8,893.6 5882.8,894.8 5882.2,896.6 5881.2,896.6 				"/>
				<polyline class="st5" points="5766.2,927.4 5764.8,927.4 5762.4,926.8 5748.8,941 5748.2,941 5747.6,939.8 5761.8,925.6 
					5761.8,924.2 5761.8,923.6 5761.8,922.4 5765.6,918.8 5768,916.2 5771,913.2 5774.8,909.6 5778.4,906.4 5781,903.4 
					5783.4,900.2 5787.8,896 5791.4,892.2 5795.2,889.2 5797.6,887.2 5800,886 5801.2,886 5802.6,886.6 5803.8,888 5803.8,889.2 
					5803.2,891 5801.8,892.2 5800.6,894 5798.8,895.4 5795.2,899 5791.4,902.8 5785.2,908.8 5779,914.4 5774.8,918.8 5770.4,923.6 
					5767.4,926.2 5766.2,927.4 				"/>
			</g>
		</g>
	</g>
	<g>
		<g>
			<defs>
				<rect id="SVGID_7_" width="7680" height="2160"/>
			</defs>
			<clipPath id="SVGID_8_">
				<use xlink:href="#SVGID_7_"  style="overflow:visible;"/>
			</clipPath>
			<g id="_2019_KLN_Shoreline" class="st42">
				<polyline class="st5" points="6071,478.2 6076,505 6218,649 6247.6,678.6 6250,679 6252.2,678.8 6255.4,675.6 6256,673 
					6255,669.8 6220,631 6270.8,581 6282,573 6309.4,600.6 				"/>
				<path class="st43" d="M6054,437l-4-6l-2-8l1.8-2.2L6190,349l10-6l-30-76l-4-4l-22,2l-14,2l-10,2l-21.8,11.8l-13.6,5.8l-25.2-2
					l-18.2-5.2l-26.2,3.4l-29,4.4h-30l-6,12h-16.2l0.2-16l-15.6-2.2l-24.4-15.8l-20-16l-14-12l-15.2-25.8l-18.8-36.2l-16-36
					l-21-19.2l-89-49l-12-14L5588-65l16-14l-16.2-2.6l-33-26.4l-4.2-6c-0.2,0.2-0.2,0.4-0.4,0.4c-1.4,1.4-3.4,1.8-5.4,1.4l-19,19
					l-7-7l19-19c-0.4-2,0-4,1.4-5.4c0.8-0.8,1.8-1.2,3-1.4l-3.4-4.8l-41.8-60.4l-0.6-0.6l-18.2,13.8l-1.8-2.4l-60.8,43.6
					c-0.6,0.4-1.6,0.8-2.4,0.8c-1.2,0-2.4-0.6-3.2-1.6c-1.2-1.8-0.8-4.2,1-5.6l60.8-43.6l-1.8-2.4l17.8-13.4l-11.2-21.6l-7,5.2
					l-3.8-5.4l7.6-5.6l-13.4-15.2l-2-4l-6-10l-7.4,6.8l-0.6-0.8l-20.8-28.6l-63.2-77.4l-62-72l-94-100l-36-34l-110,116l-158.6-152.4
					l-65,66.8l98.2,95.2l14.2,8.6L5102-287.2l10.8,8l19.2,10l12,2l22-22l91.6,90.4l4.6,13.6l-4.6,43l0.4,5l86.6,89.6v14.4l-68,71.6
					h-15l-73-74.4h-15.8L5130-78.8l-28.6-37.2l-726.8-704l-32.6,17l-51,111.2l5.6,6.2l22,10.2l-4.2,9l-23-10.8h-7L4223-543v14.8
					l-6.8,16l-16.2,6.8l-8-2l-7,181.2l-1,4.8h20v18l-19.8-0.2l-0.2,9.2l32.2,28.2l55.8,46.8l6,6l-19.2,89.2L4230,9l8,28l6,22l-68,48
					l-17.6-1.2l-7.8-6.6L4140,123l-16,6l4,8l-26,12l-4.2-7.2l-15.8,6.8l-11.8,6.4l2,10l2,6l8,16l-10,6l-8-16l-2-6l-6-10l-218,98
					l-18-40l-35.6-0.2l-0.4,90.2l-33.6,21.2l-14.4-19.2l26-16v-58l-23,9.2l-13.6-4.6l-50-2.2l-166.2,148.2l-15.2,19.4l-4,6
					l-16.6,46.6l-6.8,9.6l-0.8,3.8l-10,10l-44,54l-74,6l-20-16l-84.6,6.8l-1.4,3.2l-28,2l-36,4l-7.8-24.4L3148,517h-8l-0.2-0.2
					l-15.6,21.8c-0.8,1-2,1.6-3.2,1.6c-0.8,0-1.6-0.2-2.4-0.8c-1.8-1.2-2.2-3.8-1-5.6l0,0l16.4-23l-16.2-18l-1,0.6l-18,22
					c-0.8,1-2,1.4-3.2,1.4c-1,0-1.8-0.4-2.6-1c-1.8-1.4-2-4-0.6-5.6l0,0l17.4-21.2l3.8-8.2l8-8l-6-28l-166.2,34l-6-35.6l144.4-30.6
					l1.8-7.8l2-8l4-2h5.2l3.8,2.2l-7.2-28.4l-8-40l-74.8,15.2c-0.2,0-0.6,0-0.8,0.2c-2.6,0-4.6-2-4.6-4.6c0-2.2,1.6-4,3.8-4.6
					l60.6-12.4v-8l12-4l-6-24c-12.2,2.4-93.2,16.8-93.2,16.8c-0.2,0-0.6,0-0.8,0.2c-2.6,0-4.6-2-4.6-4.6c0-2.2,1.6-4.2,3.8-4.6
					c0,0,80.4-17.4,92.8-19.8l-6-40l-114.4,25.2c-0.6,0.2-1,0.2-1.6,0.2c-4.2,0-7.8-3.4-7.8-7.8c0-3.6,2.6-6.8,6.2-7.6l93.6-18.2
					v-10l8-2l-9-20l-6.4-25.8l-2.2-18l-17.6,1.8l-22,15.6l-3.4-5l17.2-12l-2.4-0.6l-12,4l-4-2l-40,4L2916,161l-0.2,3.2l-86,12l-22,2
					l-6-2l-31.6,3.4v18.6h5v10h-20v-10h5v-17.6l-22.6,5.6l-48,18l-31.4,29.8l-9,22.8l-3.6,3.4l-6,2l-8.6-0.8h-113l-18.2-13.6
					l-11.4-11.4l-9.2-17.6l-3.4-8V150l-0.6-8l0.6-7l-0.6-15.6l0.6-12.2l0.6-9.8l2.4-10.4l3.4-10l6-8l2-2l4-4l6-4l0.6-1.6V-11
					c0-9.6-5.6-13.6-10-16.8l-0.6-0.4c-5.2-3.8-18-6.6-22.6-7.4c-1.8-0.4-3.2-2.2-2.8-4s2-3.2,4-2.8l0,0c0.8,0.2,17.8,3.2,25.4,8.6
					l0.6,0.4c4.8,3.4,12.8,9.2,12.8,22.4v37.2l97.8-0.6L2729.8-152l-0.6-416l-25.2-59.8l-196-1.2l2,47.8c0,2.2-1.6,4-3.8,4.2l0,0
					h-0.2c-2.2,0-4-1.6-4-3.8l-2-50c0-2.2,1.6-4,3.8-4.2l0,0h0.2l-1.6-148.2v-55l-35.8-61.4l-20-16.6l-47.4,57.2h-1l-23.2-19
					l-0.6-1.8l48-57.2l-32.4-26.6l-16.8,20.8l-3.4-2.8l16.8-20.8l-20.2-16.8l-16.8,20.2l-3.4-3l16.8-20.2l-23.8-20.2l-6.4,7.6
					l-2.8-2.4l5.8-7.6l-40.6-33.4l-19.6,23.8l-7-5.8l19.6-23.8l-36-31.2l-20,24l-8-6l20-24l-22-18l-12-10l-26-16l-13.2-9.4l-33-21
					l0,0l-44.6-24.8l-41.4-29l-20-10l-10.6,16.8l14.6,8.4l-1,2l-14.8-8.6l-3.4,5.4l15,10l-1.2,1.8l-14.8-10l-4.8,7.6l12.8,8.6
					l-1.2,1.8l-12.8-8.6l-16.8,26.6l15.8,10.6l-1.2,1.8l-15.8-10.6l-3.2,5.2l14.4,9.6l-1.2,1.8l-14.2-9.6l-2.8,4.6l-0.2,0.2l7,4.6
					l-1.2,1.8l-6.8-4.6l-3.8,6.4l6.4,4.2l-1.2,1.8l-6.4-4.2l-16,26.4l28.6,17.8l-1.8,3.4l-34.6-21l5.4-8.4l-75.8-48l-35.2,57.6
					l33.8,18.2l20.8,12.2l0.6-0.6h2.8l77,46.6l5.6,3.6c1.8,1.2,2.4,3.8,1,5.6c-0.8,1.2-2,1.8-3.4,1.8c-0.8,0-1.6-0.2-2.2-0.6
					l-8.4-5.6l-4,2.4l13.6,9.8l-1.6,2.2l-14.4-10.4l-7,4.4l12.4,12.4l-2.6,2.6l-13-13l-14,8.8l20.4,20.4l-2.4,2.4l-20.6-20.6
					l-12.8,10.2l20,20l-3,3L1927-994l-1.2,0.8l-15.2,14.8l10.8,10.8l-2,2l-10.8-10.8l-14.2,13.8l11,11l-2,2l-11-11l-8,8l8.6,8.6
					l-2,2l-8.6-8.6l-2.4,2.6l13.2,16l12.8,10.2v0.6l1.2,1.2l21.2-21.2h0.6l1.2,1.2v0.6l-20.6,21.2l12.6,14.6l13.2-13.2l8.8,8.8
					l-13.2,13.2l2.8,3.4l11-11v-0.6h0.6v0.6l1.2,1.2h0.6v0.6h-0.6l-11,11l9.6,9.4l10-10.4l2.4,2.4l-10,10.4l18,17.8l27.6-27.8
					l-28.2-28l3-3.4l20.8,20.8l2.4-2.4l7.6,8l3.6-2l-8-8l2-2l8,8l20-22l-5.8-6.2l0.6-0.6l-19.8-19.8l3-3l19.8,19.8l20.6-20.6
					l-4.4-3.4l8-8l4,4l5.6-5.6l-11.2-8.2l2.6-3.6l11.8,8.6l7.2-7.2l-2-2l-0.2-0.2l-32-20.4c-1.8-1.2-2.4-3.6-1.2-5.6l0,0
					c1.2-1.8,3.6-2.4,5.6-1.2l0,0l21,13.4h8.8l4-2l4-2l4,2l2,4l6,4l8,8l8,6l16.2,12.4h1.2l1.2-0.6h1.8l0.6,0.6h1.2l1.2,0.6h0.6
					l1.2,1.2l0.6,0.6l0.6,0.6l0.6,0.6l0.6,1.2v0.6l0.6,1.2v1.2l1,1.6l7.2,1.6l8.2,11.6l5.8,15.4l5,9.4l10.4,15.8l3.8,19.4v17.4
					l-11.6,9.8l-13.6,2.4l-22,6l-18,10l-22,18l-16,16l-8.8,11.4l-3.8,9.6l-1.2,9l-6,6l-14,14l-5.8,13.6v13.2l2,12l5.8,9.6l7.8,5.8
					l-3.2,9.2l-12.4,4.6l-8.6,7.6l-5,11.6l-4.8,6.8l8,8l-17.8,19.6l-8.2-7.6l-25.6,21.4l-3.8,15.6l3.8,9.6l-13.6,17.4l-3.8,13.6
					L1946-537l-5.8,5.8l-7.8-3.8l-9.6-5.8l-11.6-9.6l-11.6-17.4l-3.8-15.4l-11.6-9.6l-15.4-5.8l-13.6-2l-7.8-7.8l-3.8-21.2v-14
					l0.6-8.2l-3.2-7l-16.2-15h-34l-7.6-2.8l-11.4-4.6l-9-7.8l-7,1l-6.8-2.2l-18.2,2.2v6.8l17.6,115.2l3.8,23.8v1.8l-0.6,1.2
					l-1.2,1.2l-128,24.2l-3.4,0.6l-1.2-0.6l-1.2-0.6l-0.6-2.4l-12.2,2.4l-0.6-4.6l135-25.4l-3.4-17.6L1700-718.6l-3.8-7.8L1531-697
					v0.2l35.4,187c0.8,4-1,8-4.4,10.2l4,21.6c0.8,3.8-1.8,7.4-5.6,8.2l0,0c-0.4,0-0.8,0.2-1.4,0.2c-3.4,0-6.2-2.4-6.8-5.8L1520-644
					l-91.6-45.2h-9l-11.4,6.8l-47.2,10.6l-8.6,4.8l-6,2h-4l-6.6-3.6L986-859l2-8v-12l-6-22l16-24l18-18l18-22l-2-10l582-184l-44-134
					l-16-8l-336,106l-110-350l242-76l-39.8-127.8L1068-1673l-162-514l-200,62l-4-12l6-2l-2-6l-14-46l-12-24l-20-60l-2-8l4-4l-12-38
					l-10-6l-6-16l-14.4-26.4l2.4-11.6l13.6-15.6l18.4-6.4h6l4,10l-2,8l8,14l5.2,18.6l4.8,3.4l6-4l8,8l2,6l-4,4l3.6,3.4l0.6,0.4
					l25.8-5.8l21.4-143.8"/>
				
					<rect x="2997.9" y="182" transform="matrix(0.9913 -0.1314 0.1314 0.9913 0.3716 396.0245)" class="st43" width="6" height="26.4"/>
				<path class="st5" d="M7087,155.4h4.6l15.8-6.8c4.6,0,36.6,0.4,36.6,0.4l20-18h110l2-18l6-6l10-4l6,2l8,4l4,10v10h24v6h20v-6h62
					l16-5.4l16-10.6l83.4-161.2l39.8,20.6L7466,173l-4,26l10,88l12,38l22,26l14,12l18,12l22,10l18,4l14,12l6,12v176l87.8,1.8"/>
				<polyline class="st6" points="2359.4,770.4 2351.6,768.2 2353.8,760.6 				"/>
				<polyline class="st6" points="2356,753.4 2357.8,747.2 2358.8,746.2 2366.6,748.2 				"/>
				<polyline class="st6" points="2379.2,751.6 2385,753 2386.2,754.8 2384,762.6 				"/>
				<polyline class="st6" points="2382.6,768.2 2380.6,776 2372.8,774 				"/>
			</g>
		</g>
	</g>
</g>
</svg>
