<?xml version="1.0" encoding="utf-8"?>
<!-- Generator: Adobe Illustrator 23.0.3, SVG Export Plug-In . SVG Version: 6.00 Build 0)  -->
<svg width="7680" height="2160" version="1.1" id="Layer_3" xmlns="http://www.w3.org/2000/svg" xmlns:xlink="http://www.w3.org/1999/xlink" x="0px" y="0px"
	 viewBox="0 0 7680 2160" style="enable-background:new 0 0 7680 2160;" xml:space="preserve">
<style type="text/css">
	.st0{opacity:0.5;}
	.st1{clip-path:url(#SVGID_2_);}
	.st2{fill:none;stroke:#FF8300;stroke-width:3;stroke-linecap:round;stroke-linejoin:round;}
	.st3{fill:none;stroke:#FF8300;stroke-width:3;stroke-linecap:round;stroke-linejoin:round;stroke-dasharray:9.97,9.97;}
	.st4{fill:none;stroke:#FF8300;stroke-width:3;stroke-linecap:round;stroke-linejoin:round;stroke-dasharray:7.16,7.16;}
	.st5{fill:none;stroke:#FF8300;stroke-width:3;stroke-linecap:round;stroke-linejoin:round;stroke-dasharray:8.46,8.46;}
	.st6{fill:none;stroke:#FF8300;stroke-width:3;stroke-linecap:round;stroke-linejoin:round;stroke-dasharray:8.65,8.65;}
	.st7{fill:none;stroke:#FF8300;stroke-width:3;stroke-linecap:round;stroke-linejoin:round;stroke-dasharray:6.33,6.33;}
	.st8{fill:none;stroke:#FF8300;stroke-width:3;stroke-linecap:round;stroke-linejoin:round;stroke-dasharray:7.75,7.75;}
	.st9{fill:none;stroke:#FF8300;stroke-width:3;stroke-linecap:round;stroke-linejoin:round;stroke-dasharray:6.86,6.86;}
	.st10{fill:none;stroke:#FF8300;stroke-width:3;stroke-linecap:round;stroke-linejoin:round;stroke-dasharray:4.64,4.64;}
	.st11{fill:none;stroke:#FF8300;stroke-width:3;stroke-linecap:round;stroke-linejoin:round;stroke-dasharray:8.07,8.07;}
	.st12{fill:none;stroke:#FF8300;stroke-width:3;stroke-linecap:round;stroke-linejoin:round;stroke-dasharray:7.79,7.79;}
	.st13{fill:none;stroke:#FF8300;stroke-width:3;stroke-linecap:round;stroke-linejoin:round;stroke-dasharray:8.55,8.55;}
	.st14{fill:none;stroke:#FF8300;stroke-width:3;stroke-linecap:round;stroke-linejoin:round;stroke-dasharray:6.23,6.23;}
	.st15{fill:none;stroke:#FF8300;stroke-width:3;stroke-linecap:round;stroke-linejoin:round;stroke-dasharray:5.89,5.89;}
	.st16{fill:none;stroke:#FF8300;stroke-width:3;stroke-linecap:round;stroke-linejoin:round;stroke-dasharray:7.87,7.87;}
	.st17{fill:none;stroke:#FF8300;stroke-width:3;stroke-linecap:round;stroke-linejoin:round;stroke-dasharray:6.36,6.36;}
	.st18{fill:none;stroke:#FF8300;stroke-width:3;stroke-linecap:round;stroke-linejoin:round;stroke-dasharray:4.52,4.52;}
	.st19{fill:none;stroke:#FF8300;stroke-width:3;stroke-linecap:round;stroke-linejoin:round;stroke-dasharray:8.24,8.24;}
	.st20{fill:none;stroke:#FF8300;stroke-width:3;stroke-linecap:round;stroke-linejoin:round;stroke-dasharray:9.06,9.06;}
	.st21{fill:none;stroke:#FF8300;stroke-width:3;stroke-linecap:round;stroke-linejoin:round;stroke-dasharray:8.49,8.49;}
	.st22{fill:none;stroke:#FF8300;stroke-width:3;stroke-linecap:round;stroke-linejoin:round;stroke-dasharray:7.46,7.46;}
	.st23{fill:none;stroke:#FF8300;stroke-width:3;stroke-linecap:round;stroke-linejoin:round;stroke-dasharray:8.53,8.53;}
	.st24{fill:none;stroke:#FF8300;stroke-width:3;stroke-linecap:round;stroke-linejoin:round;stroke-dasharray:7.97,7.97;}
	.st25{fill:none;stroke:#FF8300;stroke-width:3;stroke-linecap:round;stroke-linejoin:round;stroke-dasharray:7.54,7.54;}
	.st26{fill:none;stroke:#FF8300;stroke-width:3;stroke-linecap:round;stroke-linejoin:round;stroke-dasharray:5.14,5.14;}
	.st27{fill:none;stroke:#FF8300;stroke-width:3;stroke-linecap:round;stroke-linejoin:round;stroke-dasharray:5.78,5.78;}
	.st28{fill:none;stroke:#FF8300;stroke-width:3;stroke-linecap:round;stroke-linejoin:round;stroke-dasharray:8.29,8.29;}
	.st29{fill:none;stroke:#FF8300;stroke-width:3;stroke-linecap:round;stroke-linejoin:round;stroke-dasharray:6.79,6.79;}
	.st30{fill:none;stroke:#FF8300;stroke-width:3;stroke-linecap:round;stroke-linejoin:round;stroke-dasharray:4.42,4.42;}
	.st31{fill:none;stroke:#FF8300;stroke-width:3;stroke-linecap:round;stroke-linejoin:round;stroke-dasharray:7.88,7.88;}
	.st32{fill:none;stroke:#FF8300;stroke-width:3;stroke-linecap:round;stroke-linejoin:round;stroke-dasharray:8.62,8.62;}
	.st33{fill:none;stroke:#FF8300;stroke-width:3;stroke-linecap:round;stroke-linejoin:round;stroke-dasharray:5.29,5.29;}
	.st34{fill:none;stroke:#FF8300;stroke-width:3;stroke-linecap:round;stroke-linejoin:round;stroke-dasharray:5.21,5.21;}
	.st35{fill:none;stroke:#FF8300;stroke-width:3;stroke-linecap:round;stroke-linejoin:round;stroke-dasharray:4.2,4.2;}
	.st36{fill:none;stroke:#FF8300;stroke-width:3;stroke-linecap:round;stroke-linejoin:round;stroke-dasharray:5.75,5.75;}
	.st37{fill:none;stroke:#FF8300;stroke-width:3;stroke-linecap:round;stroke-linejoin:round;stroke-dasharray:8.12,8.12;}
	.st38{fill:none;stroke:#FF8300;stroke-width:3;stroke-linecap:round;stroke-linejoin:round;stroke-dasharray:5.09,5.09;}
	.st39{fill:none;stroke:#FF8300;stroke-width:3;stroke-linecap:round;stroke-linejoin:round;stroke-dasharray:7.08,7.08;}
	.st40{fill:none;stroke:#FF8300;stroke-width:3;stroke-linecap:round;stroke-linejoin:round;stroke-dasharray:8.38,8.38;}
	.st41{fill:none;stroke:#FF8300;stroke-width:3;stroke-linecap:round;stroke-linejoin:round;stroke-dasharray:7.34,7.34;}
	.st42{fill:none;stroke:#FF8300;stroke-width:3;stroke-linecap:round;stroke-linejoin:round;stroke-dasharray:8.09,8.09;}
	.st43{fill:none;stroke:#FF8300;stroke-width:3;stroke-linecap:round;stroke-linejoin:round;stroke-dasharray:4.09,4.09;}
	.st44{fill:none;stroke:#FF8300;stroke-width:3;stroke-linecap:round;stroke-linejoin:round;stroke-dasharray:4.5,4.5;}
	.st45{fill:none;stroke:#FF8300;stroke-width:3;stroke-linecap:round;stroke-linejoin:round;stroke-dasharray:8.91,8.91;}
	.st46{fill:none;stroke:#FF8300;stroke-width:3;stroke-linecap:round;stroke-linejoin:round;stroke-dasharray:8.03,8.03;}
	.st47{fill:none;stroke:#FF8300;stroke-width:3;stroke-linecap:round;stroke-linejoin:round;stroke-dasharray:6.93,6.93;}
	.st48{fill:none;stroke:#FF8300;stroke-width:3;stroke-linecap:round;stroke-linejoin:round;stroke-dasharray:9.29,9.29;}
	.st49{fill:none;stroke:#FF8300;stroke-width:3;stroke-linecap:round;stroke-linejoin:round;stroke-dasharray:9.27,9.27;}
	.st50{fill:none;stroke:#FF8300;stroke-width:3;stroke-linecap:round;stroke-linejoin:round;stroke-dasharray:8.31,8.31;}
	.st51{fill:none;stroke:#FF8300;stroke-width:3;stroke-linecap:round;stroke-linejoin:round;stroke-dasharray:8.17,8.17;}
	.st52{fill:none;stroke:#FF8300;stroke-width:3;stroke-linecap:round;stroke-linejoin:round;stroke-dasharray:4.94,4.94;}
	.st53{fill:none;stroke:#FF8300;stroke-width:3;stroke-linecap:round;stroke-linejoin:round;stroke-dasharray:5.62,5.62;}
	.st54{fill:none;stroke:#FF8300;stroke-width:3;stroke-linecap:round;stroke-linejoin:round;stroke-dasharray:4.49,4.49;}
	.st55{fill:none;stroke:#FF8300;stroke-width:3;stroke-linecap:round;stroke-linejoin:round;stroke-dasharray:8.69,8.69;}
	.st56{fill:none;stroke:#FF8300;stroke-width:3;stroke-linecap:round;stroke-linejoin:round;stroke-dasharray:8.33,8.33;}
	.st57{fill:none;stroke:#FF8300;stroke-width:3;stroke-linecap:round;stroke-linejoin:round;stroke-dasharray:4.39,4.39;}
	.st58{fill:none;stroke:#FF8300;stroke-width:3;stroke-linecap:round;stroke-linejoin:round;stroke-dasharray:5.28,5.28;}
	.st59{fill:none;stroke:#FF8300;stroke-width:3;stroke-linecap:round;stroke-linejoin:round;stroke-dasharray:7.81,7.81;}
	.st60{fill:none;stroke:#FF8300;stroke-width:3;stroke-linecap:round;stroke-linejoin:round;stroke-dasharray:6.57,6.57;}
	.st61{fill:none;stroke:#FF8300;stroke-width:3;stroke-linecap:round;stroke-linejoin:round;stroke-dasharray:7.64,7.64;}
	.st62{fill:none;stroke:#FF8300;stroke-width:3;stroke-linecap:round;stroke-linejoin:round;stroke-dasharray:7.69,7.69;}
	.st63{fill:none;stroke:#FF8300;stroke-width:3;stroke-linecap:round;stroke-linejoin:round;stroke-dasharray:5.19,5.19;}
	.st64{fill:none;stroke:#FF8300;stroke-width:3;stroke-linecap:round;stroke-linejoin:round;stroke-dasharray:9.33,9.33;}
	.st65{fill:none;stroke:#FF8300;stroke-width:3;stroke-linecap:round;stroke-linejoin:round;stroke-dasharray:7.9,7.9;}
	.st66{fill:none;stroke:#FF8300;stroke-width:3;stroke-linecap:round;stroke-linejoin:round;stroke-dasharray:7.38,7.38;}
	.st67{fill:none;stroke:#FF8300;stroke-width:3;stroke-linecap:round;stroke-linejoin:round;stroke-dasharray:7.57,7.57;}
	.st68{fill:none;stroke:#FF8300;stroke-width:3;stroke-linecap:round;stroke-linejoin:round;stroke-dasharray:9.77,9.77;}
	.st69{fill:none;stroke:#FF8300;stroke-width:3;stroke-linecap:round;stroke-linejoin:round;stroke-dasharray:8.56,8.56;}
	.st70{clip-path:url(#SVGID_4_);}
	.st71{fill:none;stroke:#FF8300;stroke-width:5;stroke-linecap:round;stroke-linejoin:round;}
	.st72{opacity:0.9;fill:none;stroke:#FF8300;stroke-width:5;stroke-miterlimit:10;enable-background:new    ;}
	.st73{clip-path:url(#SVGID_6_);}
	.st74{clip-path:url(#SVGID_8_);}
	.st75{opacity:0.9;}
	.st76{fill:none;stroke:#FF8300;stroke-width:3;stroke-linecap:round;stroke-linejoin:round;stroke-dasharray:6.53,6.53;}
	.st77{fill:none;stroke:#FF8300;stroke-width:3;stroke-linecap:round;stroke-linejoin:round;stroke-dasharray:9.09,9.09;}
	.st78{fill:none;stroke:#FF8300;stroke-width:3;stroke-linecap:round;stroke-linejoin:round;stroke-dasharray:5.82,5.82;}
	.st79{fill:none;stroke:#FF8300;stroke-width:3;stroke-linecap:round;stroke-linejoin:round;stroke-dasharray:7.03,7.03;}
	.st80{fill:none;stroke:#FF8300;stroke-width:3;stroke-linecap:round;stroke-linejoin:round;stroke-dasharray:5.55,5.55;}
	.st81{fill:none;stroke:#FF8300;stroke-width:3;stroke-linecap:round;stroke-linejoin:round;stroke-dasharray:7.84,7.84;}
	.st82{fill:none;stroke:#FF8300;stroke-width:3;stroke-linecap:round;stroke-linejoin:round;stroke-dasharray:7.95,7.95;}
	.st83{fill:none;stroke:#FF8300;stroke-width:3;stroke-linecap:round;stroke-linejoin:round;stroke-dasharray:7.24,7.24;}
	.st84{fill:none;stroke:#FF8300;stroke-width:3;stroke-linecap:round;stroke-linejoin:round;stroke-dasharray:9.31,9.31;}
	.st85{fill:none;stroke:#FF8300;stroke-width:3;stroke-linecap:round;stroke-linejoin:round;stroke-dasharray:4.47,4.47;}
	.st86{fill:none;stroke:#FF8300;stroke-width:3;stroke-linecap:round;stroke-linejoin:round;stroke-dasharray:4.56,4.56;}
	.st87{fill:none;stroke:#FF8300;stroke-width:3;stroke-linecap:round;stroke-linejoin:round;stroke-dasharray:9.65,9.65;}
	.st88{fill:none;stroke:#FF8300;stroke-width:3;stroke-linecap:round;stroke-linejoin:round;stroke-dasharray:7.8,7.8;}
	.st89{fill:none;stroke:#FF8300;stroke-width:3;stroke-linecap:round;stroke-linejoin:round;stroke-dasharray:4.38,4.38;}
	.st90{fill:none;stroke:#FF8300;stroke-width:3;stroke-linecap:round;stroke-linejoin:round;stroke-dasharray:7.56,7.56;}
	.st91{fill:none;stroke:#FF8300;stroke-width:3;stroke-linecap:round;stroke-linejoin:round;stroke-dasharray:7.93,7.93;}
	.st92{fill:none;stroke:#FF8300;stroke-width:3;stroke-linecap:round;stroke-linejoin:round;stroke-dasharray:9.25,9.25;}
	.st93{fill:none;stroke:#FF8300;stroke-width:3;stroke-linecap:round;stroke-linejoin:round;stroke-dasharray:6.99,6.99;}
	.st94{fill:none;stroke:#FF8300;stroke-width:3;stroke-linecap:round;stroke-linejoin:round;stroke-dasharray:8.11,8.11;}
	.st95{fill:none;stroke:#FF8300;stroke-width:3;stroke-linecap:round;stroke-linejoin:round;stroke-dasharray:8.01,8.01;}
	.st96{fill:none;stroke:#FF8300;stroke-width:3;stroke-linecap:round;stroke-linejoin:round;stroke-dasharray:7.94,7.94;}
	.st97{fill:none;stroke:#FF8300;stroke-width:3;stroke-linecap:round;stroke-linejoin:round;stroke-dasharray:4.06,4.06;}
	.st98{fill:none;stroke:#FF8300;stroke-width:3;stroke-linecap:round;stroke-linejoin:round;stroke-dasharray:7.1,7.1;}
	.st99{fill:none;stroke:#FF8300;stroke-width:3;stroke-linecap:round;stroke-linejoin:round;stroke-dasharray:10.29,10.29;}
	.st100{fill:none;stroke:#FF8300;stroke-width:3;stroke-linecap:round;stroke-linejoin:round;stroke-dasharray:7.51,7.51;}
	.st101{fill:none;stroke:#FF8300;stroke-width:3;stroke-linecap:round;stroke-linejoin:round;stroke-dasharray:8.14,8.14;}
	.st102{fill:none;stroke:#FF8300;stroke-width:3;stroke-linecap:round;stroke-linejoin:round;stroke-dasharray:7.89,7.89;}
	.st103{fill:none;stroke:#FF8300;stroke-width:3;stroke-linecap:round;stroke-linejoin:round;stroke-dasharray:6.88,6.88;}
	.st104{fill:none;stroke:#FF8300;stroke-width:3;stroke-linecap:round;stroke-linejoin:round;stroke-dasharray:7.86,7.86;}
	.st105{fill:none;stroke:#FF8300;stroke-width:3;stroke-linecap:round;stroke-linejoin:round;stroke-dasharray:7.58,7.58;}
</style>
<g class="st0">
	<polygon points="3992.6,29 4023.4,50.8 4072.2,80 4097.6,99 4104,102.2 4129.8,57.4 4132.6,60.8 4132.6,70.4 4139,76.8 4139,80 
		4126.2,108.6 4174,127.8 4193.2,86.4 4196.2,86.4 4204.8,92.8 4209,92.8 4215.4,83.2 4215.4,80 4209,73.6 4215.4,64 4215.4,57.8 
		4215.6,40.4 4234.6,0.4 4233.2,-0.4 4205.8,-0.4 4208.2,3.6 4208.2,19.4 4205,32.2 4198.6,38.6 4195.6,40.4 4186.6,39.4 
		4175.6,31.2 4160,23.4 4152.2,19.4 4144.4,11.6 4138.4,-0.4 3956.8,-0.4 3983,16.4 	"/>
	<polygon points="3,-0.4 3009.6,-0.4 3007.6,8.2 3005.4,23.8 2997.6,23.8 2994.2,57.4 2998.6,58 2994.2,94.4 2998.6,104.4 
		3023.2,155.8 3027.6,158 3032.2,154 3032.2,149 3027.6,140 3009.8,101.4 3005.4,86.4 3007.6,73 3009.8,59.6 3013.2,29.4 
		3015.6,13.6 3019.8,2.6 3022.8,-0.4 -1,-0.4 -1,2159.6 3,2159.6 	"/>
	<path d="M3062.8,0.4l25.4,86v6.4l-9.6,51v9.4l2,16.4l-31,2.8c-0.4,0-0.8,0.2-1.2,0.4l-4.4,2.2c-1.2,0.6-2,2-1.8,3.4l6.6,47
		c0,0.4,0.2,1,0.6,1.4l9,13.4c1,1.4,2.8,1.8,4.4,0.8c1.6-1,2.2-3,1.2-4.6l-8.6-12.8l-6.2-43.8l1.8-0.8l30.6-2.8h0.2l3.4,28l5.2,20.8
		l-14,2.6l-0.6-3.4l-6.6,1.2l2.2,13.4l6.6-1l-0.6-3.4l14.6-2.8l15.2,68.2l-87,19.2l2,8.8l87-19l8.2,37l-68,14.6l1.6,6.6l67.8-14.8
		l8.4,37.8l-73.6,16.2l2,8.8l73.6-16.2l0.6,3l4.8,23.6l-15.2,3.6l-2.2-12.2l-9,1.4l4.6,26.6l9-1.4l-1-5.8l15.6-3.6l5.2,25.4
		l-85.8,18.4l1.8,8.8l85.8-18.2l4.8,24l-5.4,1.2l2.6,14.6l6.2-1.8l0.2,0.8l4.8,7.2l-5,6l7.8,9l8.2,5l14.2,4l1.2-5.2l13.4,2.6h19.2
		l8.8-0.8v7.8l24.6-2.2v-7.8l129.6-11.8l-2,26.2v13.4l58.8-9.2l-5.2-15.4l-1-19.8l31.8-3l-19.2,19.2l6.4,6.4L3496,491l-6.4-6.4
		l19.2-57.4l-9.6-3.2v-9.6l28.6-111.4l38.2-60.6l66-242.8h-31.8L3594,31l-15.6,23.4l-7.8,11.8L3559,70l-11.8-7.8l-11.8-4l-7.8,7.8
		l-7.8,35.2l-11.8,39l-7.8,27.4l-11.6,27.4l-7.8,19.6L3473,242l-7.8,31.2l-4,27.4l-4,15.6l7.8,23.4l7.8,11.8v23.4l-7.8,19.6
		l-15.6,23.4l-19.6,19.6h-19.6l-7.8-11.8v-9l-15.6-14.4l-3.8-11.8l-7.8-19.6l-7.8-11.8h-11.6h-15.6l-11.8,4H3301h-23.4l-15.6,7.8
		l-19.6,4l-15.6,15.6l-4,15.6l-15.6,7.8l-4,15.6l-7.8,11.6h-7.8l-7.8-7.8v-10.6l-3.8-16.8l-4-11.8v-15l-3.8-8.4l-4-15.6l-7.8-15.6
		l-4-7.8l-3.8-15.6l-3.8-27.4l7.8-15.6v-11.6V238l-3.8-15.6l-7.8-15.6l-7.8-15.6V175v-21.8l-3.8-28.4l-3.8-23.4v-21l3.8-21.8
		l3.8-23.4l-3.8-15.6l-3.8-19.8h-62.8L3062.8,0.4z"/>
</g>
<g>
	<g>
		<g>
			<defs>
				<polygon id="SVGID_1_" points="7679.4,2160.4 -0.6,2160.4 -0.6,0.4 486,0.4 7679.4,0.4 				"/>
			</defs>
			<clipPath id="SVGID_2_">
				<use xlink:href="#SVGID_1_"  style="overflow:visible;"/>
			</clipPath>
			<g class="st1">
				<g id="HKI_2019">
					<g id="HKI_2019-2">
						<polyline class="st2" points="6685.2,1694.8 6687.6,1703.4 6685.2,1704 6687.6,1711.8 						"/>
						<line class="st3" x1="6697" y1="1728.8" x2="6715.4" y2="1752.4"/>
						<polyline class="st2" points="6721.6,1760.2 6726.6,1766.6 6732.2,1760.8 						"/>
						<line class="st4" x1="6742.2" y1="1750.6" x2="6777.2" y2="1714.8"/>
						<polyline class="st2" points="6782.2,1709.8 6787.8,1704 6793.6,1709.6 						"/>
						<line class="st5" x1="6805.6" y1="1721.6" x2="6944.2" y2="1858.2"/>
						<line class="st2" x1="6950.2" y1="1864.2" x2="6955.8" y2="1869.8"/>
						<polyline class="st2" points="1011.4,1606.8 1016,1609.6 1018.2,1610.8 						"/>
						<polyline class="st6" points="1033.4,1619 1036,1620.4 1042.2,1622.8 1061.2,1635.4 1078.4,1650.2 1089.4,1663 1098.4,1672.6 
							1101.4,1680.6 1100.2,1685.2 1099.6,1688.6 1126.4,1745 						"/>
						<polyline class="st2" points="1130,1752.8 1131.8,1756.4 1132.4,1760.4 1130.6,1762 1130.6,1770 						"/>
						<polyline class="st2" points="1130.6,1771.4 1130.6,1779.4 1135.2,1783.8 1136.6,1784.4 						"/>
						<polyline class="st2" points="1137.4,1784.6 1140.4,1785.6 1142,1787.4 1144.4,1788.4 1149,1786.8 1150.6,1790.2 1146.6,1792 
							1146.6,1794.8 1148.2,1799.6 						"/>
						<polyline class="st7" points="1151.4,1811.6 1155.8,1819.4 1158.2,1822.4 1162.2,1828 1163.8,1829.8 1173,1849.8 						"/>
						<polyline class="st2" points="1177.6,1854 1184,1859 1182.2,1866.8 						"/>
						<polyline class="st8" points="1189.8,1878.4 1198.2,1884.8 1200,1887.6 1200.6,1894.6 1221,1921 						"/>
						<line class="st2" x1="1224.8" y1="1927.6" x2="1228.4" y2="1934.8"/>
						<polyline class="st9" points="1375.4,2178.2 1365.2,2160.8 1356.6,2145.6 1348.6,2130.6 1342.4,2121.4 1338.8,2117.2 
							1337,2113.4 						"/>
						<polyline class="st2" points="1336,2106.6 1335.6,2100.8 1336.8,2099.2 1331,2093.6 1329.8,2094.6 1329.6,2088.8 
							1329.2,2086.6 						"/>
						<polyline class="st10" points="1326.4,2077.8 1324.2,2070.6 1322,2069.2 1319.8,2066.2 						"/>
						<polyline class="st2" points="1317.2,2062.4 1315.8,2060.6 1311,2057.4 						"/>
						<polyline class="st2" points="5845.8,850.8 5849.8,850.2 5853.8,850.2 						"/>
						<polyline class="st11" points="5870,850.4 5875,850.8 5882.6,852 5894.6,855.4 5899.8,857.2 5906,860 5922,867 6026.4,912.8 
							6040.8,919.6 6052.2,926 6056.2,928.8 6062,932.8 6064.8,935.2 6068,938 						"/>
						<polyline class="st2" points="6073.8,943.6 6079.2,949.6 6073.4,954.6 6069.4,950 6068.2,948.8 						"/>
						<polyline class="st12" points="6056.4,938.6 6049.4,933.4 6038,926.6 5974.2,898 5944.4,885.2 5900.8,865.8 5890,862.4 
							5880.2,860 5874,859 5868.2,858.4 5865.4,858.4 5864.2,858.4 5861.2,858.4 5858.4,858.4 5856.8,858.4 5852.2,859 5847,859 
							5844.6,859.4 5837.8,858.4 5835.6,857.8 5833.2,857.2 5832.8,857 						"/>
						<polyline class="st2" points="5825.8,853.4 5825.2,853.2 5820.6,851.4 5818.2,850.8 5817.8,849.2 5816.6,847.4 5816.6,846.2 
							5817.2,845.2 5817.6,843.6 						"/>
						<polyline class="st2" points="5838,849.2 5840,849.8 5843,850.2 5845.8,850.8 						"/>
						<polyline class="st2" points="5873.4,885.8 5871.6,886.4 5869.8,886.4 5867.6,885.8 5865.6,885.8 						"/>
						<polyline class="st13" points="5848.4,886.6 5844.2,887 5841.2,887.6 5839,888.2 5833.2,889.8 5828,891.6 5822.4,895 
							5818.8,896.8 5814.8,899.6 5811.4,902 5807.4,905.4 5801.2,911 5798.2,914 5796.6,916.2 5794.8,918 5793.6,919.2 5792,919.6 
							5790.2,920.2 5788.4,919.6 5787.4,918 5787.4,916.8 5788.4,914.6 5789.6,913.4 5792,911 5794.8,908.2 5797.6,905.4 
							5801.2,902 5803.4,899.6 5806.8,896.8 5809.8,894.4 5815.4,891 5818.8,889.2 5822.4,887.6 5825.2,886.4 5831,883.6 
							5833.8,883 5836.6,881.8 5839.6,881.2 5842.4,880.8 5845.2,880.2 5848.6,879.6 5852.8,879.6 5856.8,879.6 5861.8,879.6 
							5863.2,879.6 						"/>
						<polyline class="st2" points="5871.6,879.8 5872.8,880.2 5874,880.8 5874.6,881.8 5875,883 5875,884.2 5874.6,885.8 
							5873.4,885.8 						"/>
						<polyline class="st2" points="5759.2,915.6 5758,915.6 5755.8,915 5750.2,920.8 						"/>
						<polyline class="st2" points="5748.8,922.6 5743.2,928.2 5742.6,928.2 5742,927.2 5747.6,921.4 						"/>
						<polyline class="st2" points="5751.6,917.6 5755.2,914 5755.2,912.8 5755.2,912.2 5755.2,911 5758.6,907.6 5760.8,905.4 
													"/>
						<polyline class="st14" points="5769.8,896.8 5770.8,896.2 5773,893.2 5775.2,890.4 5779.2,886.4 5782.6,883.2 						"/>
						<polyline class="st2" points="5787.4,879.2 5788.4,878.4 5790.8,877.2 5792,877.2 5793,877.8 5794.2,879 5794.2,880.2 
							5793.6,881.8 5792.6,883 5791.4,884.8 5790.2,885.4 						"/>
						<polyline class="st15" points="5781.8,893.6 5777,898.4 5771.2,903.6 5769,905.8 						"/>
						<polyline class="st2" points="5765,910.2 5763.2,912.2 5760.4,914.6 5759.2,915.6 						"/>
						<polyline class="st2" points="6685.2,1694.8 6683,1696 6680.8,1688.4 						"/>
						<polyline class="st16" points="6676.4,1673.2 6648,1572.8 6649.6,1568.8 6636,1522.2 6628.4,1507.4 6624.2,1501.8 						"/>
						<polyline class="st2" points="6619.6,1495.4 6614.8,1489 6610.8,1489 6609.6,1492.4 6614.6,1498.6 						"/>
						<polyline class="st17" points="6622.2,1508.8 6628.4,1520 6637.6,1550.4 						"/>
						<polyline class="st2" points="6639.4,1556.4 6641.6,1564.2 6636.4,1570.2 						"/>
						<line class="st18" x1="6630.6" y1="1577" x2="6621.8" y2="1587.4"/>
						<polyline class="st2" points="6618.8,1590.8 6613.6,1596.8 6615.8,1604.6 						"/>
						<line class="st19" x1="6620.2" y1="1620.4" x2="6636" y2="1675.8"/>
						<polyline class="st2" points="6638.4,1683.8 6640.6,1691.4 6634.2,1696.4 						"/>
						<line class="st20" x1="6620" y1="1707.6" x2="6570.2" y2="1746.8"/>
						<polyline class="st2" points="6563,1752.4 6556.8,1757.4 6548.8,1756.4 						"/>
						<polyline class="st2" points="6536.6,1755 6528.8,1754 6523.8,1747.6 						"/>
						<line class="st21" x1="6513.4" y1="1734.2" x2="6476.8" y2="1687.2"/>
						<polyline class="st2" points="6471.6,1680.6 6466.8,1674.2 6472,1668.2 						"/>
						<line class="st22" x1="6481.6" y1="1656.8" x2="6573.8" y2="1549"/>
						<polyline class="st2" points="6578.6,1543.2 6583.8,1537.2 6578.8,1531 						"/>
						<polyline class="st12" points="6569.2,1518.6 6540.2,1481.6 6535.6,1475.6 						"/>
						<polyline class="st2" points="6530.8,1469.6 6525.8,1463.2 6531.6,1458.6 6533.8,1458 6532.8,1450.2 						"/>
						<polyline class="st2" points="6531,1436.2 6529.8,1428.2 6527.6,1428.2 6528.6,1436.2 						"/>
						<polyline class="st2" points="6530.4,1449 6531.6,1457 6525.2,1462 6520.4,1455.8 						"/>
						<polyline class="st23" points="6509.8,1442.4 6497.8,1427 6492.6,1420.8 6472.8,1395.4 						"/>
						<polyline class="st2" points="6467.6,1388.6 6462.8,1382.4 6463.8,1379 6463.8,1375 6463.8,1374.6 						"/>
						<polyline class="st24" points="6460.2,1359 6432.4,1241.8 6426.6,1228.2 6362.6,1180.4 						"/>
						<polyline class="st2" points="6356.2,1175.6 6349.8,1170.8 6353.8,1163.8 						"/>
						<polyline class="st2" points="6353.4,1155.6 6352.6,1153 6348,1150.2 6338.8,1153 6334.8,1149 6336.8,1141.8 						"/>
						<polyline class="st2" points="3783,894.8 3782.4,894.8 3781.8,894.8 3781.2,894.8 3781.2,894.2 3780.6,894.2 3780.6,893.6 
							3780,893.6 3780,893 3779.6,893 3779.6,892.6 3779.6,892 3779.6,891.4 3779.6,890.8 3779.6,890.2 3779.6,889.6 3779.6,889 
							3780,889 3780,888.6 3780.6,888.6 3780.6,888 3781.2,888 3781.8,887.4 3788.6,885.4 						"/>
						<line class="st25" x1="3803.2" y1="881.2" x2="3969.8" y2="833.2"/>
						<polyline class="st2" points="3977.2,831.2 3981.2,830 3981.8,830 3982.4,830 3983,830 3983.6,830.6 3984.2,830.6 
							3984.6,830.6 3984.6,831.2 3985.2,831.2 3985.2,831.6 3985.8,832.2 3985.8,832.8 3985.8,833.4 3986.4,834 3986.4,834.6 
							3985.8,834.6 3985.8,835 3985.8,835.6 3985.2,836.2 3985.2,836.8 3984.6,836.8 3984.6,837.4 3984.2,837.4 3983.6,837.4 
							3979,839 3977,839.6 						"/>
						<line class="st22" x1="3962.8" y1="843.8" x2="3797.8" y2="890.8"/>
						<polyline class="st2" points="3790.6,892.8 3784,894.8 3783.4,894.8 3783,894.8 						"/>
						<polyline class="st2" points="2406.8,771.8 2405.2,777.6 2403.6,778.6 2395.8,776.4 						"/>
						<polyline class="st2" points="2383.8,773 2377.6,771.2 2376.6,770 2378.8,762.4 						"/>
						<polyline class="st2" points="2381,754.2 2382.8,748.2 2384,747 2391.8,749 						"/>
						<polyline class="st2" points="2404.2,752.4 2409.8,754 2411,755.6 2409,763.4 						"/>
						<line class="st2" x1="6085.2" y1="970" x2="6077.4" y2="971.2"/>
						<polyline class="st2" points="6073,974.8 6067.4,980.6 6065.8,979.4 6061,985.8 						"/>
						<line class="st26" x1="6052.8" y1="991" x2="6037.8" y2="994.2"/>
						<polyline class="st2" points="6032.8,995.4 6025,997.2 6026.8,1004 6018.8,1004.8 						"/>
						<line class="st27" x1="6007.2" y1="1005.8" x2="5990" y2="1007.4"/>
						<polyline class="st2" points="5984.2,1008 5976.2,1008.6 5975.2,1004 5968.8,1005.2 5968.2,1001.2 5960.8,1004 						"/>
						<polyline class="st28" points="5945.4,1010.2 5925.8,1017.8 5905.8,1017.8 5883.4,1021.2 5756.2,1021.2 						"/>
						<polyline class="st2" points="5748,1021.2 5742.2,1021.2 5740,1021.2 5734.4,1015.6 						"/>
						<polyline class="st4" points="5724.4,1005.4 5694.2,974.8 5689.2,969.6 						"/>
						<polyline class="st2" points="5684.2,964.6 5678.6,958.8 5684.2,953 						"/>
						<line class="st29" x1="5693.8" y1="943.4" x2="5708.4" y2="929"/>
						<polyline class="st2" points="5713.2,924.2 5718.8,918.6 5717,916.8 5713.6,918 5710.8,921 5707.8,918.6 5711.4,915.2 
							5712.4,912.2 5712.6,912.2 						"/>
						<line class="st30" x1="5718.8" y1="906" x2="5728.2" y2="896.6"/>
						<polyline class="st2" points="5730.2,893 5730.2,892.8 5729.6,892.2 5725,887 5724.6,887 5724,886.4 5723.4,886.4 
							5722.8,886.4 5722.2,887 5717.2,892.2 						"/>
						<polyline class="st2" points="5705,904.2 5701,906 5698.2,908.2 5692.4,902.6 						"/>
						<polyline class="st2" points="5678.6,888.8 5672.8,883 5675.8,880.8 5677,876.8 5677,876.6 						"/>
						<polyline class="st2" points="5689.6,864 5695.2,858.4 5695.2,857.2 5694.8,856.6 5689.6,851 5689,851 5688.4,851 5687.8,851 
							5687.2,851 5681.6,856.6 						"/>
						<polyline class="st2" points="5669.4,868.8 5666,869.8 5663.2,873.2 5657.6,867.6 						"/>
						<path class="st31" d="M5646.4,856.4l-88.2-88.6l-117-54.4l-190.4-36.8l-189.2-91.8L5017,564l-44.6-19.2
							c0,0-38.2-9.6-39.4-10.2l-28.8-8.8l-26.6-11l-35.6-15.6l-31.2-11l-26.6-4.4l-48.8-11.2H4711h-3.2"/>
						<polyline class="st2" points="4699.8,472 4691.8,471.8 4691.8,467.4 4689.6,465 4689.6,464.8 						"/>
						<polyline class="st2" points="4688.8,447.8 4688.4,440.6 4687.8,440 4687.2,440 4686.6,440.6 4687.2,448.6 						"/>
						<polyline class="st2" points="4688.4,465 4688.4,465.6 4686.6,467.8 4686.6,472.4 4678.6,472.4 						"/>
						<polyline class="st32" points="4661.6,473.4 4653.2,474.6 4644.2,481.2 4628.8,485.8 4608.8,492.4 4605.2,493.4 						"/>
						<polyline class="st2" points="4597.2,496.2 4589.4,498.6 4588.2,490.8 						"/>
						<polyline class="st33" points="4587.2,480.8 4585.6,478.8 4582.8,465.8 						"/>
						<polyline class="st2" points="4581.6,460.6 4580.4,454.8 4579.8,453.8 4579.2,453.2 4578.2,453.2 4571.2,454.2 4570.8,454.8 
							4570.2,455.4 4569.6,456 4569.6,456.6 4571.2,463.8 						"/>
						<polyline class="st34" points="4573.8,473.8 4575.2,480.4 4574.2,485 4575.2,489 4575.4,489 						"/>
						<polyline class="st2" points="4578,493 4579.8,500.8 4572,502.4 						"/>
						<polyline class="st2" points="4549.4,507.4 4541.8,509.4 4541.8,508.8 4544,503.8 4543.8,501.8 						"/>
						<line class="st35" x1="4540.2" y1="494.6" x2="4537.6" y2="482.2"/>
						<polyline class="st2" points="4536.8,478.2 4535.4,471.8 4535,471.4 4534.4,470.8 4534.4,470.2 4533.8,470.2 4533.2,470.2 
							4526.6,471.8 						"/>
						<polyline class="st36" points="4526.6,482 4530.4,498.6 4530.2,498.8 						"/>
						<polyline class="st2" points="4529.6,504.4 4530.4,507.2 4534.4,510.6 4526.4,510.6 						"/>
						<polyline class="st19" points="4509.8,510.6 4498,510.6 4462.2,510.6 4431.6,510.6 4395.8,521 4362.2,530.2 4324.4,541.2 
							4291,552.4 4257.8,574.6 4226.6,599 4215.2,611.2 						"/>
						<polyline class="st2" points="4209.6,617.2 4204.2,623 4202.4,622.6 4200.6,622.6 4199,622.6 4197.2,623 4196.4,623.6 						
							"/>
						<polyline class="st37" points="4184.2,634.2 4133.6,681.6 4128,686.8 4092.6,723.6 4042.6,781 4032.8,792.2 						"/>
						<polyline class="st2" points="4027.4,798.4 4022.2,804.4 4015.6,800 						"/>
						<polyline class="st38" points="4007.2,794.2 3999.4,789 3997.2,787.4 3994.6,785.6 						"/>
						<polyline class="st2" points="3990.4,782.6 3985.8,779.4 3984.6,779.4 3983.6,778.8 3982.4,779.4 3981.2,780 3980.8,780.6 
							3980.2,781.6 3979.6,782.8 3979.6,784 3980,784.8 						"/>
						<line class="st39" x1="3991.4" y1="793" x2="4032.6" y2="820.8"/>
						<polyline class="st2" points="4038.4,824.8 4042.6,827.8 4045,829.4 4042.6,833.4 4041,835 4042.6,839.6 4043.6,842.6 						
							"/>
						<polyline class="st40" points="4048.8,858.6 4054.6,876.6 4051,892.2 4048.6,908.6 4042.6,924.8 4033,936.2 3936.4,963 
							3933.6,964.6 3923.4,963.6 3898.8,972.6 3870.8,995.2 						"/>
						<polyline class="st2" points="3866.6,1001.6 3865.4,1009.6 3858.8,1014 						"/>
						<polyline class="st41" points="3846.6,1022.4 3805,1050.6 3804,1051 						"/>
						<polyline class="st2" points="3797.2,1053.8 3789.8,1056.8 3784.6,1054.6 3783.4,1052.8 3783.4,1052.4 						"/>
						<polyline class="st42" points="3782.8,1036.8 3792.6,980.6 3793.8,972 3796,959 3797.8,952.2 3802.2,945.6 3802.2,939 
							3797.8,932.2 3791.2,930 3785.4,931.4 						"/>
						<polyline class="st2" points="3777.8,933.8 3775.6,934.4 3769.8,934.6 3766.6,927.2 						"/>
						<line class="st43" x1="3763.6" y1="919.6" x2="3758.6" y2="908.4"/>
						<polyline class="st2" points="3757,904.6 3755,899.8 3754.6,899.4 3754,898.8 3752.8,898.2 3751.6,898.8 3751,898.8 
							3750,899.8 3750,900.4 3749.4,902.2 3750.2,904.2 						"/>
						<line class="st44" x1="3753.8" y1="912.4" x2="3759.2" y2="924.8"/>
						<polyline class="st2" points="3761,929 3764.2,936.2 3756.6,938.6 						"/>
						<polyline class="st2" points="3748.8,940.2 3740.8,939.6 3736.8,944.2 3735.8,950 3730.6,952.2 3729.4,952.8 3728.4,952.4 
													"/>
						<polyline class="st2" points="3719,950.2 3711.4,948.2 3711.4,949.4 3719,951.6 						"/>
						<polyline class="st2" points="3719.6,951.8 3727.2,953.8 3726.6,956.8 3729.4,959 3728.4,964.2 3728.6,966.8 						"/>
						<polyline class="st2" points="3728.6,967 3729.4,975 3726.6,975.4 3726.6,982.2 3730,982.8 3730,990.8 						"/>
						<polyline class="st45" points="3725.2,1007.8 3687.4,1036.4 3673.2,1041.4 						"/>
						<polyline class="st2" points="3664.8,1044.4 3657.4,1047 3654.6,1039.6 						"/>
						<polyline class="st2" points="3647,1018.2 3644.2,1010.8 3650.4,1005.6 						"/>
						<polyline class="st46" points="3662.6,995.2 3689.2,972.6 3690.2,971.6 3691.4,969.8 3692,968 3692,967 3691.4,964.6 
							3690.8,963.6 3689.6,961.8 3688.6,961.2 3687.4,960.8 3685.8,960.2 3684,960.2 3682.4,960.2 3681.2,960.8 3678.8,963 
							3673.2,967.6 3632.8,1001 3573.2,1010.2 3552.8,1013 3538.6,1015.2 3529.4,1016.4 3510.6,1019.2 3504.4,1020 						"/>
						<polyline class="st2" points="3496.4,1020.8 3495.4,1021 3488.4,1022 3486.2,1019.2 3485.8,1015 						"/>
						<polyline class="st2" points="3483.6,996.2 3482.8,989.2 3482.2,988.6 3482.2,988 3481.6,988 3481.2,988 3472,988.6 
							3471.4,989.2 3470.8,989.2 3470.8,989.8 3470.2,989.8 3470.2,990.2 3471.2,997.6 						"/>
						<polyline class="st2" points="3473.4,1016.4 3473.6,1019.8 3473.6,1021 3472.6,1022 3472,1023.2 3472,1023.8 3464,1024.6 
													"/>
						<polyline class="st47" points="3450.2,1026.2 3424.8,1029 3420.8,1029.4 3418,1029.4 3413.4,1029.4 3411.8,1029.4 
							3409.4,1029.4 3407.8,1029 3406,1027.8 3404.4,1026.6 3402,1025.6 3401,1023.8 3399.8,1022.6 3398.6,1021 3397.6,1019.2 
							3396.4,1017 3395.8,1015.2 3394.8,1000.6 						"/>
						<polyline class="st2" points="3394.4,993.8 3394.2,989.8 3394.2,985.8 3397,986.2 3397,987.4 3399.2,988.6 3399.8,985.2 
							3397.6,984.6 3397.6,985.2 3396.4,985.2 3398.2,978.4 3399.2,979 3399.2,979.4 3401.6,980 3402,977.2 3399.8,976.6 
							3399.2,977.8 3398.6,977.2 3400.8,969.6 						"/>
						<polyline class="st2" points="3402,965.2 3403.2,961.2 3403.2,960.2 3403.2,959 3402.6,958.4 3402,957.8 3406.6,956.8 
							3404.6,949 						"/>
						<polyline class="st48" points="3400,931 3398.2,923.8 3397.6,922.6 3397.6,922 3397,921 3396.4,920.4 3395.2,919.2 
							3394.2,918.6 3393,918.6 3391.8,918 3390.8,918 3389.6,918.6 3388.4,919.2 3387.4,919.8 3386.8,921 3385.6,922 3385,923.2 
							3385,924.4 3385,925.2 						"/>
						<polyline class="st2" points="3387.4,934.2 3389.6,942 3381.6,942 						"/>
						<polyline class="st49" points="3363,942 3360.6,942 3358.8,940.8 3357.2,940.2 3354.8,939.2 3352.6,938 3349.2,936.8 
							3345.2,935.8 3339.6,934.6 3335.6,934 3329.8,934 3326.4,934 3323.6,934.6 3320.2,935.2 3317.4,935.8 3314,936.8 
							3310.6,938.6 3307.2,940.2 3303.2,942.6 3301.6,943.4 						"/>
						<polyline class="st2" points="3294.6,949.4 3290.2,953.8 3289.6,954.4 3289,955 3289,955.6 3289,956.8 3289,957.2 3289,957.8 
							3289.6,959 3290.2,959.6 3290.6,960.2 3291.2,960.8 3291.8,960.8 3289.4,968.4 						"/>
						<polyline class="st50" points="3284.4,984.2 3283.8,985.8 3279.8,989.2 3275.8,992.6 3272.4,996.6 3270.8,998.2 3269,1001 
							3268,1004 3265.6,1007.8 3265.2,1010.2 3262.8,1013.6 3262.2,1015.2 3259.4,1019.8 3257.2,1023.2 3252.6,1029 3249.2,1033 
							3244.6,1035.8 3238.4,1038.6 3233.2,1040.8 3225.8,1043.2 3217.4,1044.8 3211.2,1044.8 3204.2,1044.2 3192.8,1042.6 
							3172.4,1037.4 3150.2,1031.2 3148.6,1031.2 3131,1030 3113.8,1030 3110.6,1029.4 3106.6,1028.4 3102.6,1026 3098,1023.2 
							3094,1019.8 3088.4,1013.6 3083.2,1013 3079.2,1012.4 3070.6,1011.8 3065,1011.2 3061,1010.8 3050.8,1009.6 3036.6,1006.8 
							3029.8,1005.4 						"/>
						<polyline class="st2" points="3021.6,1003.8 3019.6,1003.4 3014.4,1006.2 3007,1003 						"/>
						<polyline class="st51" points="2991.8,997.4 2987.8,996 2974,990.2 2969,988.6 2964.4,986.2 2952.4,981.8 2908.4,964 						
							"/>
						<polyline class="st2" points="2900.8,960.8 2893.4,957.8 2892.2,952.8 2891.6,952.8 2885.4,948.8 						"/>
						<polyline class="st52" points="2877,943.4 2874,941.4 2870.4,930.8 						"/>
						<polyline class="st2" points="2868.8,926.2 2866,918.6 2873.6,916.2 						"/>
						<polyline class="st2" points="2891.6,910.2 2893.4,909.6 2894.6,909 2895,908.4 2895.6,907.8 2896.2,907.2 2896.2,906.8 
							2896.8,906.2 2896.8,905.6 2896.8,905 2896.2,904.4 2896.2,903.8 2895.6,903.2 2895.6,902.8 2895,902.2 2894.6,902.2 
							2894,901.6 2893.4,901.6 2892.8,901.6 2892.2,901.6 2891.6,901.6 2886.2,903.4 						"/>
						<polyline class="st2" points="2871.4,908.6 2863.8,911.2 2861,903.8 						"/>
						<polyline class="st2" points="2856.8,892 2854.2,884.6 2861.6,882 						"/>
						<polyline class="st2" points="2875.6,877.2 2882,874.8 2883.2,874.8 2883.6,874.4 2884.2,873.2 2884.8,872 2884.8,871.4 
							2884.8,870.4 2884.2,869.8 2883.6,868.6 2883.2,868 2882.6,868 2881.4,867.6 2880.8,867.6 2879.8,867.6 2878.2,868 						"/>
						<polyline class="st2" points="2859.4,874.6 2851.8,877.2 2849,869.8 						"/>
						<line class="st53" x1="2845.2" y1="859.2" x2="2851.6" y2="843.6"/>
						<polyline class="st2" points="2853.8,838.4 2857,831.2 2845.6,826.6 2842.6,834 						"/>
						<polyline class="st2" points="2835,851.8 2833.6,855 2829.6,857.2 2822.4,854 						"/>
						<polyline class="st2" points="2814.2,850.4 2810.4,848.8 2806.8,847.2 2807,846.4 2805.8,843 2807.2,839.8 						"/>
						<polyline class="st2" points="2814.6,821.6 2817.2,815.2 2817.2,814.6 2817.2,814 2816.6,813.6 2807.6,809.6 2807,809.6 
							2806.4,810 2805.8,810.6 2803.4,816.6 						"/>
						<polyline class="st2" points="2796,835 2794.4,838.6 2791.6,840.2 2791,840.8 2783.6,837.8 						"/>
						<polyline class="st2" points="2774,834 2766.6,831.2 2767.2,830.6 2765.4,827.8 2768.2,820.2 						"/>
						<polyline class="st2" points="2773.8,805.2 2776.2,798.8 2776.2,798.2 2776.2,797.6 2775.6,797.6 2775.2,797 2766.6,794.2 
							2766,794.2 2765.4,794.2 2764.8,794.2 2764.8,794.8 2762.4,801.8 						"/>
						<polyline class="st2" points="2755.6,819.8 2754.2,823.8 2751.8,824.8 2751.2,826 2743.6,823.4 						"/>
						<polyline class="st2" points="2733.8,820 2726.2,817.4 2726.8,816.4 2725.2,814 2727.4,806.4 						"/>
						<line class="st54" x1="2730.2" y1="797.8" x2="2734" y2="785"/>
						<polyline class="st2" points="2731.6,782.2 2725.2,780.6 2724,780 2723.4,780.6 2722.8,780.6 2722.8,781 2720.6,788.2 						
							"/>
						<polyline class="st2" points="2716.2,803 2713.8,810.6 2710.8,811.8 2706.2,810.4 						"/>
						<polyline class="st2" points="2690.4,805.8 2685.8,804.4 2684.2,801.6 2686.2,793.8 						"/>
						<polyline class="st2" points="2690.2,779.2 2692.2,772 2692.2,771.4 2691.6,771.4 2691.6,770.8 2691,770.8 2682,768 
							2681.4,768 2681.4,768.6 2680.8,768.6 2680.2,769.2 2678.4,776.2 						"/>
						<polyline class="st2" points="2674.8,791 2672.8,798.8 2670,800.4 2665.4,799.2 						"/>
						<polyline class="st2" points="2649.8,795.6 2644.4,794.2 2642.6,792.4 2644.8,784.8 						"/>
						<polyline class="st2" points="2649.2,769 2651.2,761.2 2650,760 2640.4,757.2 2638.8,758.4 2637.2,764.2 						"/>
						<polyline class="st2" points="2632,783.6 2630.8,788.4 2628.4,790.2 2620.8,788.2 						"/>
						<polyline class="st2" points="2611.2,785.8 2603.4,784 2601.8,781 2601.2,781 2603.4,773.4 						"/>
						<polyline class="st2" points="2607.6,757.6 2609.8,749.8 2598.4,747 2596.2,754.8 						"/>
						<polyline class="st2" points="2592,770.6 2589.8,778.2 2587,779.4 2577.8,777.2 2575,772 2560.8,768 2563,760.2 						"/>
						<polyline class="st2" points="2566.6,746.8 2568.8,739 2564.2,738 2558.6,743.6 						"/>
						<line class="st55" x1="2546.6" y1="756.2" x2="2504.4" y2="800"/>
						<polyline class="st2" points="2498.4,806.2 2492.6,811.8 2486,807.4 						"/>
						<polyline class="st2" points="2482.4,805 2479,802.8 2475,802.2 2473.8,799.8 2473.4,796.4 2465.6,794.4 						"/>
						<line class="st42" x1="2449.8" y1="790.4" x2="2426.4" y2="784.6"/>
						<polyline class="st2" points="2418.6,782.6 2410.8,780.6 2410.2,779.4 2412,772.8 						"/>
						<polyline class="st2" points="2414.4,763.6 2415.8,757.8 2417.6,756.6 2429.6,760 2430.2,758.4 2430.6,758.4 2431.8,755 
							2433,755.6 2432.4,759 2441,761.2 2446.6,757.8 2448.4,752 2444.8,745.8 2436.4,743.6 2435.2,747.6 2433.6,747 2434.6,743.6 
							2434.2,743 2434.6,741.2 2422.2,738 2421.6,736.8 2423.4,730.2 						"/>
						<polyline class="st2" points="2425.2,723 2427.2,715.2 2428.4,714.6 2438,717.4 2439.2,712.8 2441,713.4 2439.8,717.4 
							2442.6,718.6 2443.8,714.6 2446,714.6 2444.8,719.2 2451.2,720.8 2452.4,720.2 						"/>
						<polyline class="st2" points="2455.6,718.4 2457.4,717.4 2459.2,711.8 2458,710 2452.2,708.4 						"/>
						<polyline class="st56" points="2436.2,703.8 2427.8,701.6 2380,688.6 						"/>
						<polyline class="st2" points="2371.8,686.6 2364.2,684.4 2362.4,685.6 2360.8,691.2 2364.2,697.6 2372,699.6 						"/>
						<line class="st57" x1="2380.4" y1="701.8" x2="2393.2" y2="705.2"/>
						<polyline class="st2" points="2397.4,706.2 2405.2,708.4 2405.6,704.4 2407.4,704.4 2406.2,709 2409.6,709.4 2410.8,705.6 
							2412.6,706 2411.4,710 2421,712.8 2421.6,714 2419.8,720.6 						"/>
						<polyline class="st2" points="2417.6,728.8 2415.8,735 2414.8,736.2 2407,734 						"/>
						<line class="st58" x1="2396.8" y1="731.4" x2="2381.6" y2="727.2"/>
						<polyline class="st2" points="2376.4,725.8 2368.8,723.6 2368.2,725.4 2367,728.8 2365.4,728.8 2365.8,724.8 2358,722.6 
							2357.4,722.6 2351.2,726 2350,731.6 2351.2,733.6 						"/>
						<polyline class="st2" points="2354.2,738 2361.8,740.2 2363,736.2 2364.8,736.8 2364.2,740.8 2364.2,742.4 2376.2,745.2 
							2377.2,747 2375.2,754.8 						"/>
						<polyline class="st2" points="2373,762.8 2371.6,768.6 2369.8,769.8 2362.2,767.6 						"/>
						<polyline class="st2" points="2345.6,763.2 2340.4,761.8 2338,763 2336.4,762.4 2332.4,757.4 						"/>
						<polyline class="st59" points="2322.8,745.2 2297.6,713.4 2106.2,662.2 1873,654.4 1823.6,667.8 						"/>
						<polyline class="st2" points="1816,669.8 1808.2,672 1806.2,664.2 						"/>
						<polyline class="st2" points="1805.8,663.2 1803.8,655.4 1799.8,656.6 1801.6,664.4 						"/>
						<polyline class="st2" points="1801.8,665.4 1803.8,673 1796,675.2 						"/>
						<polyline class="st2" points="1795,675.6 1787.2,677.6 1785.6,670.8 1783.2,671.4 1781,662.2 1783.2,661.8 1782.6,661.2 
							1776.4,662.8 1776.4,663.4 1778.8,662.8 1781,672 1779.2,672.6 1781,679.4 1773.2,681.4 						"/>
						<line class="st60" x1="1760.6" y1="685" x2="1741.6" y2="690.2"/>
						<polyline class="st2" points="1735.2,692 1727.6,694.2 1725.6,686.4 						"/>
						<polyline class="st2" points="1725,684.8 1723,677 1716.8,678.8 1718.6,686.6 						"/>
						<polyline class="st2" points="1719,688 1720.8,695.8 1713,697.8 						"/>
						<line class="st43" x1="1705" y1="700" x2="1693.2" y2="703"/>
						<polyline class="st2" points="1689.2,704 1681.6,706 1679.4,698.4 						"/>
						<polyline class="st2" points="1679,697.2 1677,689.6 1670.8,691.2 1672.8,699 						"/>
						<polyline class="st2" points="1673.2,700 1675.2,707.8 1667.6,709.8 						"/>
						<polyline class="st2" points="1651.8,714.2 1644,716.2 1641.8,708.6 						"/>
						<polyline class="st2" points="1641.6,707.6 1639.4,699.8 1633.2,701.6 1635.4,709.2 						"/>
						<polyline class="st2" points="1635.6,710.2 1637.8,718 1630,720.2 						"/>
						<polyline class="st61" points="1615.4,724.2 1603,727.6 1502.6,711.4 						"/>
						<polyline class="st2" points="1495,710.2 1487.2,709 1485.4,723.2 1493.4,724.4 						"/>
						<line class="st62" x1="1508.6" y1="726.8" x2="1592.2" y2="740"/>
						<polyline class="st2" points="1599.8,741.2 1607.6,742.4 1609.8,750.2 						"/>
						<line class="st63" x1="1612.6" y1="760.2" x2="1616.6" y2="775.2"/>
						<polyline class="st2" points="1618,780.2 1620.2,788 1612.2,786.6 						"/>
						<line class="st64" x1="1593.8" y1="783.8" x2="1529.2" y2="773.6"/>
						<polyline class="st2" points="1520,772.2 1512.2,770.8 1506.4,776.4 						"/>
						<polyline class="st24" points="1494.8,787.4 1390,887.4 1332.6,942 1298.4,975 1279.4,993.4 1257.6,1013.6 1243,1016.4 						
							"/>
						<polyline class="st2" points="1235,1017.8 1227.2,1019.2 1226,1011.6 1232.8,1010.6 1231.8,1004.4 1223.8,1005.6 						"/>
						<polyline class="st2" points="1220.8,1006.2 1212.8,1007.6 1213.8,1013.8 1220,1012.8 1221,1020.2 1213.2,1021.8 						"/>
						<line class="st65" x1="1197.6" y1="1024.6" x2="1174.2" y2="1028.8"/>
						<polyline class="st2" points="1166.8,1031.4 1159.4,1034.2 1159,1032.6 1155.4,1020 1150.2,1021.2 1154,1036.4 1146.4,1039 
													"/>
						<path class="st66" d="M1132.6,1044.2l-40,15l-8.4,3.2"/>
						<path class="st2" d="M1077.4,1065l-7.6,2.8l-2.8-7.4"/>
						<polyline class="st2" points="1062.4,1048.2 1059.6,1040.8 1066.2,1036.2 						"/>
						<line class="st67" x1="1078.6" y1="1027.6" x2="1097.4" y2="1014.6"/>
						<polyline class="st2" points="1103.6,1010.2 1110.2,1005.8 1102.6,994.8 1096,999.4 						"/>
						<line class="st68" x1="1080" y1="1010.6" x2="1056" y2="1027.2"/>
						<polyline class="st2" points="1048,1032.8 1041.4,1037.2 1045.6,1044 						"/>
						<polyline class="st2" points="1054.6,1065 1057.2,1072.6 1049.8,1075.4 						"/>
						<polyline class="st69" points="1033.8,1081.4 970,1105.2 947.8,1114.8 926.6,1124.8 909,1132.6 896.6,1139.8 885,1150.2 
							877,1156.4 873,1160.4 867.2,1165.6 861.8,1172 						"/>
						<line class="st2" x1="857.4" y1="1179.2" x2="853.8" y2="1186.4"/>
					</g>
				</g>
			</g>
		</g>
	</g>
</g>
<g>
	<g>
		<g>
			<defs>
				<polygon id="SVGID_3_" points="7679.4,2160.4 -0.6,2160.4 -0.6,0.4 486,0.4 7679.4,0.4 				"/>
			</defs>
			<clipPath id="SVGID_4_">
				<use xlink:href="#SVGID_3_"  style="overflow:visible;"/>
			</clipPath>
			<g class="st70">
				<g id="Pre1900_HKI">
					<polygon class="st71" points="3754.4,990.2 3747.8,990.2 3741,985.4 3740,975.8 3737.2,967.2 3740,957.6 3743,948 
						3744.8,943.2 3751,940.2 3757.4,942.2 3762.2,947 3766,951 3768.8,953.8 3767.8,961.4 3766,971 3766,979.8 3765,985.4 
						3760.2,989.2 					"/>
					<path class="st72" d="M7079.2,2394.8l2.6-6.8v-11.6l3.2-8.8l3.2-16l3.2-6.4h6.4l9.6,6.4l6.4-3.2l3.2-16l3.2-6.4l-6.4-9.6v-6.4
						l6.4-6.2h3.2l3.2-3.2v-3.2l-12.8-12.8h-3.2l-3.2-3.2l3.2-6.4v-6.4l3.2-3.2l-12.8-16l-6.4-9.6v-3.2l-3.2-3.2l-3.2,3.2h-3.2
						l-3.2-6.4l3.2-6.4l-3.2-3.2l-3.2-9.6l3.2-6.4l-3.2-9.6l3.2-6.4l-3.2-3.2h-3.2l-3.2-9.6l-3.2-3.2v-6.4l-6.4-6.4v-6.4l6.4-16
						l3.2-16l9.6-19.2l6.4-9.6l3.2-9.6h6.4l9.6-6.4l19.2-1.4l6.4-1.8l6.4-9.6h9.6l6.4,3.2l3.2,3.2h3.2l3.2-3.2v-6.8l-3.2-9l-12.8-16
						l-25.4-25.4l-9.6-12.8l-6.4-3.2l-9.6-12.8h-6.4l-9.6-12.8l-16-16h-6.4l-3.2-3.2l-6.4-9.6l-35-28.6l-16-12.8l-6.4-3.2h-6.4
						l-6.4-6.4l-12.8-12.8l-6.4-6.4l-6.4-3.2l-6.2,3.6l-16,9.6l-6.4,3.2l-9.6,3.2l-3.2,3.2l3.2,6.4l14.4,29.8l1.6,8.4l-6.4,25.4
						l-9.6,22.2l-12.8,12.8l-19.2,12.8l-16,16l-16,9.6l-9.6,6.4l-9.6,3.2l-6.4,6.4l-3.2,9.6h-3.2l-12.8-9.6l-3.2-6.4v-9.6l-3.2-6.4
						l3.2-6.4l-3.2-6.4l-12.8-28.6l-6.4-9.6l-3.2-3.2l-3.2-12.8l-28.6-28.6l-6.4-6.4l-6.4-3.2l-6.4-9.6l-3.2-6.4l-9.6-12.8l-6.4-9.6
						v-9.6l-3.2-3.2l-9.6-3.2l-9.6-9.6l-3.2-3.2l-6.4,3.2h-3.2l-9.6-9.6l-6.4-3.2h-12.8l-6.4-6.4l-6.4,3.2h-12.8l-9.6,6.4v3.2
						l-22.2,6.4l-12.8,6.4l-3.2,9.6h-9.6l-9.6,3.2h-6.4l-6.4-6.4h-3.2l-25.4,25.4l-6.4,9.6l-19.2,9.6l-19.2,9.6l-3.2,1l-6.2,11.6
						l-16,6.4l-12.8,3.2h-18.6l-12.8,3.2l-12.8,16l-12.8,6.4l-12.8,12.8h-6.4l-9.6,6.4h-6.4l-22.2,16l-16-3.2l-9.6,3.2h-12.8v-6.4
						l-16-9.6h-12.8v-9.6l-3.2-9.6l-6.4-6.4h-19.2l-9.6-16l-3.2-3.2h-16l-3.2-3.2l-6.4-12.8l-3.2-9.6l-6.4-6.4l-6.4-9.6v-3.2
						l3.2-6.4l-3.2-9.6l-3.2-6.4v-6.4l-3.2-3.2l-3.2-3.2l6.4-6.4h9.6l-3.2-3.2v-4.2l3.2-3.2l3.2-6.4h3.2l9.6,6.4h12.8v-9.6h3.2
						l3.2,6.4v9.6l-3.2,9.6l-3.2,9.6l6.4,6.4h9.6l6.4-3.2l3.2-3.2l3.2-6.4h3.2l9.6,6.4l3.2,3.2v6.4l-3.2,9.6l-3.2,6.4v9.6l16,9.6
						l9.6,3.2l12.8-6.4h6.4l6.4-3.2l12.8-25.4l3.2-9.6l3.2-19v-6.8l-3.2-6.4l-12.8,3.2l-6.4,6.4h-6.4l-3.2-6.4l-6.4-9.6l-12.8-25.4
						l-6.4-19l-3.2-6.4v-6.4l9.6-6.4l6.4-22.4l6.4-16l6.4-9.6l3.2-9.6l-3.2-12.8v-6.4l6.4-3.2l6.4-3.2v-9.6l9.6-9.6l9.6-6.4
						l-3.2-3.2v-3.2l-3.2-6.4l-6.4-3.2l-3.2-6.4v-6.4l3.2-6.4l-3.2-12.8v-6.4l16-9.6l3.2-6.4l3.2-19.2l9.6-19l3.2-3.2l-6.4-9.6v-9.6
						l3.2-9.6l12.8-16l9.6-6.4l12.8-16l3.2-9.6l-3.2-6.4l3.2-3.2h6.4l9.6-6.4l6.4-12.8l3.2-6.4l3.2-3.2l3.2,3.2l9.6,6.4h3.2l3.2-6.4
						l6.4-3.2l3.2-3.2h9.6l3.2-3.2v-3l3.2-6.4l3.2-16l-3.2-9.6v-12.8h-3.2l-12.8,12.8l-3.2,3.2h-6.4l-9.6-3.2h-6.4l-35,9.6
						l-12.8,3.2l-9.6,3.2h-9.6l-12.8-9.6l-6.4-9.6l-3.2-9.6l-3.2-16l-12.8-16l-9.6-9.6l-3.2-6.4l-3.2-6.4l-16-19l-6.4-9.6v-3.2
						l-16-22.4l-6.4-6.4v-12.8l3.2-9.6l16-19.2l6.4-3.2h3.2l12.8-9.6h6.4l12.8-3.2l6.4-3.2l9.6-9.6l6.4-3.2l3.2-9.6l12.8-22.4
						l3.2-9.6l3.2-9.6l3.2-6.4v-6.4l-3.2-3.2h-6.4l-3.2-3.2l-3.2-6.4l3.2-3.2l1.8-2l-0.2-2.8l-8-8l-12.8-6.4h-6.4l-3.2-6.4h-9.6
						l-6.4-3.2h-6.4l-12.8-9.6l-6.4-3.2l-3.2-6.4h-6.4l-9.6-9.6l-9.6-6.4l-9.6-6.4l-9.6-3.2l-3.2-9.6l-6.4-6.4l-19.2-19.2l-6.4-6.4
						l-6.4-12.8l-19.2-19l-16-9.6l-9.6-6.4H6105l-12.8,6.4l-9.6,6.4l-3.2,3.2l3.2,6.4l-6.4,3.2l-3.2,6.4l3.2,6.4v3.2l-3.2,6.4
						l3.2,9.6l6.4,3.2l-3.2,9.6l-12.8,12.8l-22.2,9.6h-18.8l-22.2-6.4l-9.8-2.8l-12.8-3.2l-19.2,3.2l-12.8,9.6l-9.6,12.8l-3.2,9.6
						l3.2,16l3.2,16l3.2,22.4v12.8L5926,1196l-9.6,19l9.6,41.4l12.8,12.8l3.2,9.6l-6.4,16c0,0-9.6,19.2-12.8,22.4l-16,16h-22.2
						l-22.2-9.6l-9.6-9.6l-16-6.4l-28.6-12.8l-19.2-9.6l-9.6-6.4l-22.2-44.6l-22.2-44.6l-9.6-19l-6.4-6.4l-28.6-9.6l-28.6-6.4
						l-19.2-6.4l-28.4-16l-16-6.4l-9.6-6.4l-16-16l-12.8-22.4l-16-22.2l-12.8-16l-6.4-6.4l-9.6-16l-6.4-6.4l-9.6-16l-22-22l-19.2-19
						l-9.6-6.4l-12.8-3.2h-17.2l-36.8-6.4l-31.8-12.8l-16-9.6l-16-9.6l-12.8-6.4L5292,893h-10l-9,3.2l-16,9.6l-9.6,6.4l-9.6,9.6
						l-12.8,19l-9.6,9.6l-2.6,3.2h-3.8l-3.2-3.2l-9.6-19.2l-12.8-19l-6.4-9.6l-5-9.6l-4.6-9.6l-9.6-6.4h-9.6l-9.6,3.2l-6.4,6.4
						l-3.2,9.6l-3.2,16l-9.6,9.6l-12.8,9.6h-9.6l-7.2-1.4l-18.2-20.8l-15.6-23.8l-19.4-39.8l-12.6-32l-6.4-16l-6.4-19l-16-63.6
						l-16-41.4l-22.2-31.8l-25.4-19l-31.8-12.8l-41.4-12.8l-47.8-6.4h-7.6l-6.6,1.6l-12.8,6.4l-22.2,12.8l-19,6.2l-25.4,9.6
						l-22.2,9.6l-19.2,9.6l-11.4,3h-36.2l-32.2,4l-28.2,4l-28.2,8l-28.2,8l-20.2,4l-16,4h-44.2l-16-4l-20-4l-16-4l-20.2-4h-16l-16,8
						l-16,12l-20.8,24.4l-48.2,56.2l-24.2,28.2l-28.2,36.2l-12,12l-4,16v24.2l4,20l4,36.2l4,32.2v32.2l4,32.2v32.4l4,24.2l4,24.2
						v28.2l8,20l8,16l4,20l-4,16l-16,12h-60.2l-28.2,8l-20,4l-20.2,8l-20,4l-12-4l-16-12l-12-16h-32.2l-24.2-4l-24.2-8l-20-8l-16-12
						l-16-16l-12-8l-12-4v-8l4-8l8-8l4-12v-8l-4-20l-12-12l-12-4l-12,4l-8,4l-4,4l-4,4l-4,4v4l4,4l8,8v8l-4,12l-4,12l-8,12l-4,12
						l-4,20v8l4,12v8l-4,12v16l12,32.2l-20,20l-28.2,12l-12,4l-12,16l-16,17l-16,7.2h-25.4l-8-8l-8-36.2l4-24.2l-24.2-36.2l-16,4
						l-20,16l-40.2,12h-24.2v16l-12,16l-28.4,20.8l-28.2-8l-8,4l-8,4l-12,8h-12l-16,4l-12,4l-16,12l-12,4l-8,4l-12,4l-8,4l-16,4
						l-9.8-8h-54.6l-12-8l-12-4h-8l-12,4h-20l-8-4l-8-8l-12-8l-12-8l-12-8l-16-12l-4-4l-8-8l-8-4l-12-8l-8-4l-8-4l-12-8l-16.6-4
						h-15.6l-4-8l8-12l8-8l12-11v-5.2l-8-8l-4-4l-8-8l-4-4l-4-4h-4l-12,8l-8,8l-8,4l-8,4h-28.2l-12,4l-4,4l-4.4,4h-3.6l-4-4v-16.2
						l-4-8l-16-12l-16-12l-16-12l-12-8l-20.2-8l-20-8l-24.2-8l-20-4l-20-4l-20.2,4l-8,4H2716l-8,4l-8-4h-12l-12-4h-12l-8-8l-8-16
						l-12-8l-4-8l-4-8l-4-8l-8-8l-12-12l-8-12l-8-8l-4-12l-8-12l-8-8l-4-4l-4-8l-8-8l-8-8l-4-8l-12-12l-4-8v-16l-4-12l-12-8l-8-8
						l-4-4l-4-4l-8-4l-12-4h-20.2l-8-4l-16-8h-24.2l-12-4h-12l-4,8l-8,4h-4l-8,4l-8,4h-8l-12-4l-12-4v-12l-4-8l-12-8l-12-8l-4-8h-8
						l-8,4l-4,8h-24.2l-12-12l-12-8l-12-12l-12-1.6l-12.8,6.4l-12.8,9.6l-12.8,6.4h-9.6l-12.8-3.2l-9.6-6.4l-6.4-6.4l-9.6-9.6
						l-3.2-3.2l-12.8-3.2h-6.4l-6.4,3.2l-5.8,3l-16-4h-8l-12-4h-50.6l-12-4l-8-8v-8l-4.2-9.8l-7.8-2.2l-12-0.8h-28.4l-8,0.8l-4,4
						l-4,12l-4,12l-16,8l-5,4.2l-12.8,3.2h-12.8L1832,824l-11.6-1.2H1796l-16,4l-12,4l-12,8l-12,8l-16,8l-16,8l-12,4l-20,4h-44.6
						l-12-4l-16-12l-28.2-4l-16-4l-12-4h-16l-8,8l-4,12c0,0,2.6,3.8,4,6.4v1.6v20l-8,12l-8,12l-4,12l-4,20l-12,8l-8,4l-8,8l-12,12
						l-16,8l-12,8l-8,8l-8,8l-4,12l-4,12l-8,16l-8,12l-12,12l-20,12l-12,4l-12,4l-16,4l-16,4h-16l-16-4l-12-4l-12-8l-8-4l-13-16.4
						l-14.4-14.4h-16.4l-12.2,6.4l-9.6,3.2h-9.2l-5-1.6l-6.4-3.2l-9.6,3.2l-9.6,6.4l-9.6,6.4l-3.2,6.4l-6.4,9.6l-3.2,6.4l-6.4,3.2
						l-16,3.2h-9.6l-6.4-3.2l-3.2-3.2l-3.2,3.2l-8,5.2l-9.6,6.4h-27.4l-55.4,16l-35,12.8l-47.8,22.2l-25.4,16l-9.6,9.6l-6.4,9.4
						l-3.2,12.8l-3.2,16l-3,22.2l-6.4,16l-12.8,12.8l-9.6,12.8l-3.4,6.2v9.6l3.2,22.2l3.2,19.2l3.2,12.8l-3.2,47.8v28.6l3.2,12.8
						l9.6,12.8l13,12.8l19,6.4l16,9.6l12.8,12.8l12.8,19l16,25.4l6.4,12.8l3.2,6.4l6.4,3.2l3.2,3.2l6.4,9.6l22,12.8h22l10,6.4
						l6.4,3.2l6.4,3.2h6l6.8,3.2l9.6,3.2h10.8l21,3.2l16-3.2l12.8-3.2h9.6l9.6-6.4l16-6.4l9.4-6.4l3.2-3.2l6.4,3.2l12.8,3.2l9.6,3.2
						l6.4,16v12.8l-6.4,16l-6.4,9.6l-3.2,16v9.6l-6.2,6.2l-6.4,6.4l3.2,3.2v3.2l-3.2,3.2v6.4l6.4,3.2l6.4,3.2l3.2,6.4l-3.2,6.4
						l3.2,9.6l9.6,9.6l12.8,9.6l3.2,3.2l3.2,9.6l3.2,3.2l12.6-3.2l3.8,3.2l2.6,6.4l4.8,11.8l1.6,13.6l6.4,6.4l6.4,3.2v14.4l9.6,20.6
						v11.4l3.2,14l3.2,3.2l-6.4,16l-3.2,16l-3.2,22.4l-6.4,9.6l3.2,6.4l9.6,9.6l3.2,3.2v18.8l6.4,19l9.6,16l3.2,6.4l3.2,12.8
						l9.6,9.6l12.8,3.2l6.4,6.4l9.6,3.2l3.2,3.2l9.6,3.2l3.2,3.2h12.8l9.6,3.2l6.4,6.4v6.4l3.2,3.2l3.2-6.4l6.4-9.6l6.4-3.2h3.2
						l6.4-3.2l3.2-6.4v-6.4l3.2-6.4l3.2-3.2h12.8l6.4-3.2v-15.4l3.2-3.6l3.2-6.4v-5l3.2-4.6l3.2-6.4h6.4l6.4,6.4l9.6,6.4l3.2,6.4
						l3.2,6.4l3.2,3.2l9.6,3.2l3.2,6.4l9.6,9.6l9.6,6.4v6.4l-6.4,6.4l-3.2,6.4v3.2l-6.4,3.2l-3.2,3.2l3.2,3.2l16,12.8l3.2,6.4
						l-6.4,16v6.4l3.2,6.4l6.4,6.4l16-3.2l4.8,3.2l14.4,16l9.6,16l3.2,6.4v3.4l-3.2,3v9.6l3.2,9l6.4,6.8l3.2,9.6v25.8l3.2,44.2
						l-3.2,9.6l-12.8,34.6l-19,35l-3.2,9.6l-3.2,12.8l-6.4,9.6v1.6h5577.8L7079.2,2394.8L7079.2,2394.8z"/>
				</g>
			</g>
		</g>
	</g>
</g>
<g>
	<g>
		<g>
			<defs>
				<polygon id="SVGID_5_" points="7679.4,2160.4 -0.6,2160.4 -0.6,0.4 486,0.4 7679.4,0.4 				"/>
			</defs>
			<clipPath id="SVGID_6_">
				<use xlink:href="#SVGID_5_"  style="overflow:visible;"/>
			</clipPath>
			<g class="st73">
				<g id="Pre1900_Kln">
					<path class="st71" d="M1190.4-2042v56.8l3,12.4l3.2,9.4l3,9.4l3,9.4l6.2,9.4l6.2,9.4l9.4,6.2l9.4,3.2h15.6l6.2,3l6.2,6.2l6.2,3
						l9.4,3.2l6.2,3l6.4,6.2l9.4,6.2l12.4,3l9.4,3.2h12.4l9.4,3h6.2l3,3l6.2,6.2l6.2,6.2l6.2,6.2l3,3h12.8l2.8,3.2h26.2l4.8,3l6.2,3
						l6.2,3.2h5.4l7,3v9.4l2.4,12.4l3.2,12.8l3.2,12.8l6.4,6.4l9.6,3.2l3.2,9.6l3.2,6.4l3.2,9.6v9.6l-3.2,9.6v9.6l3.2,6.4l6.4,9.6
						h10.6l8.4,3.2h9l7,3.2l9.6,3.2l6.4,9.6l3,9.4v9.6l3.2,9.6l3.2,6.4l3.2,6.4l3.2,6.4h6.4l6.4,3.2h12.8l6.4,3.2l3.2,3.2v12.8
						l-3.2,6.2v6.4l3.2,3.2l3.2,3.2h4.4l5.2-3.2l6.4-3.2h3.2l9.6-3.2l12.8-3.2l9.6-3.2h6.4l6.4-3.2l3.2-6.4l3.2-6.4l3.2-6.4v-16
						l3.2-6.4l3.2-6.4l3.2-6.4v-9.4l-3.2-9.8v-3.2l6.4-3.2l3.2-6.4v-19l3.2-6.4l3.2-6.4v-6.4l-3.2-9.4v-12.8l3.2-10.6v-8.4l-6.4-9.6
						v-9.6l-9.6-16l-3.2-16v-12.8l-3.2-12.8l-3.2-12.8l-3.2-6.4l-3.2-6.4l-6.4-6.4l-3.2-9.6l-3-9.4v-66.6l-3.2-9.6v-6.4l3.2-3.2
						l6.4,9.6l6.4,3.2l6.2,6.4v9.6l3.2,6.4l6.4,3.2l6.4,3.2l9.6,0.6l6.4-0.6h6.4l6.4,3.2v21.6l6.4,3.8l9.6,3.2l3.2,9.6l3.2,9.6
						l3.2,12.8l6.4,9.6l6.4,6.4l9.6,3.2h6.4l6.4,6.4l6.4,6.4v5.6l-9.6,7.2l-3.2,6.4l3.2,6.4l3.2,9.6v66.8l6.4,9.6l3.2,6.4l6.4,6.4
						l3.2,6.4l3.2,3.2l3.2,3.2l3.2,3.2l3.2,3.2v5.6l3.2,4l3.2,3.2l3.2,3.2l9.6,6.4l12.8,3.2l9.6,3.2h12.6l9.6,3.2l9.6,3.2l9.6,6.4
						h6.4l9.6,3.2l6.4,6.4v32.6l3.2,8.8l3.2,9.6l3.2,6.4l3.2,6.4l3.2,6.4l3.2,6.4l3.2,6.4l3.2,6.4v6.4l3.2,9.6v6.4l3.2,9.6l3.2,6.4
						l3.2,6.4l3.2,3.2l9.6,6.4l9.6,3.2l9.6,3.2l9.6,3.2h16l6.4-3.2l6.4-3.2l6.4-3.2l6.4-3.4l29.8-9.4l24.4-9.6l12.8,3.2l3.2,3.2
						l8.4,3.4h10l10.2-3.4l12.8-6.4l3.2-6.4l3.2-9.6v-4.2l3.2-2.2l3.2,6.4v6l6.4,3.6l9.6-3.2l25.4-9.6l12.8-3.2h6.4l9.6,3.2l3.2,6.4
						l3.2,6.4l9.6,6.4h35l12.8-3.2l16-3.2l9.6-6.4l3.2-6.4l3.2-6.4l-3.2-9.6l-9.6-9.6l-19.2-12.8l-6.4-6.4v-6.4l3.2-3.2h6.4l9.6,6.4
						l9.6,6.4l9.6,9.6l6.4,9.6l3.2,6.4l3.2,12.8v10.4l3.2,8.8h9.6l6.4-3.2v-14.2l-3.2-8.2l-6.4-12.8l-6.4-22.2v-28.6l3.2-3.2
						l3.2,3.2v6.4l3.2,6.4l3.2,3.2h6.4l9.6-6.4l6.4-3.2l3.2,6.4h9.6l9.6-3.2l6.4-3.2h6.4l19.2-3.2l12.8-6.4l12.8-9.6l6.4-9.6
						l6.4-9.6l8.6-11.6l19.6,11.8l11.8-4l7.8,7.8l11.8,4l15.6,15.6l15.6,11.8h7.8l19.6,15.6l19.6,15.6l11.8,11.8v11.4l7.8,16
						l11.6,11.6h15.6l7.8-7.8h4l4,11.6l15.6,7.8l7.8,4l11.8,7.8l11.6-4l4,11.8l23.4,11.8l23.4,23.4l15.2,11.6l4,19.6v19l4,27.8
						l11.6,39l15.6,43l19.6,39l15.6,15.6h11l0.6,23.4l7.8,15.6l-15.6,23.4l-15.6,19.6l-19.6-7.8h-19.6l-15.6-7.8H2758l-19.6,4
						l-7.8,7.8l4,19.6l11.8,19.6l23.4,15.6l11.8,7.8l4,11.6l-4,7.8l4,7.8l23.4,23.4l19.6,19.6l4,7.8l7.8,7.8h7.8l4,4l7.8,4l4,11.6
						l3.8,15.6l7.8,11.8l7.8,7.8l4,7.8l-7.8,7.8l-4,4l-7.8,4l-10,2l-9.6,1.8l-11.6,4h-8.6l-7,7.8l-7.8,11.8l-12.4,38.8l4,35.2
						l-7.8,50.8l4,11.8l7.8,11.8l11.8,11.8l15.6,23.4l15.6,7.8l15.6-15.6L2883-783l4-19.6l4-11.8l19.6-15.6l7.8-11.8l4-27.4l4-27.4
						l3.8-19.6l7.8-19.6l4-15.6V-976l4-8l27.4-4l46.2,4l39,7.8l27.4,7.8l23.6,3.8l15.4,11.8v54.6l-4,11.8l4,11.8v15.6l-11.8,23.4
						l-7.8,11.6l-7.8,7.8v11.8l4,11.8v78l4,15.6l4,10v5l7.6,16.2v43l7.8,7.8l11.6,7.8l7.8,4l7.8,11.8v11.8l3.8,11.8l4,7.8v11.8
						l4,7.8v11.8l-4,4l-7.8,4l-7.8,4l-4,15.6l4,3.8v11.8l11.6,7.8l4,3.8l11.8,3.8l3.8,11.8l11.8,15.6l4,19.6l7.8,7.8v7.8l-4,15.6
						l-7.8,15.6l-4,19.6l7.8,3.8l15.6,15.6l15.6,11.8v19.6l-7.8,7.8v15.6l-3.8,11.8v31.2l-4,11.6l-7.8,15.6l-11.8,11.8l-15.6,3.8
						l-11.8,11.8l-4,11.6l-7.8,19.6l-7.8,19.6l-11.6,27.4l-7.8,4l-19.6,7.6l-7.8,7.8l-3.8,11.8l-4,11v28l4,7.8l7.8,11.8l15.6,4
						l7.8,4l7.8,11.4l3.8,19.8l4,15.6l-4,23.4l-3.8,21.8V102l3.8,23.4l4,28.4v38l7.8,15.6l7.8,15.6l3.8,15.6v35.2l-7.8,15.6l4,27.4
						l3.8,15.6l4,7.8l7.8,15.6l4,15.6l3.8,8.4v15l4,11.8l4,16.8V434l7.8,7.8h7.8l7.8-11.8l4-15.6l15.6-7.8l4-15.6l15.6-15.6
						l19.6-3.8l15.6-7.8h50.8l11.8-4h27.4l7.8,11.8l7.8,19.6l4,11.8l15.6,14.4v9l7.8,11.8h19.6l19.6-19.6l15.6-23.4l7.8-19.6v-23.4
						l-7.8-11.8l-7.8-23.4l4-15.6l4-27.4l7.8-31.2l7.8-27.4l7.8-19.6l11.6-27.4l6.8-27.4l11.8-39l7.8-35.2l7.8-7.8l11.8,4l11.8,7.8
						l11.6-4l7.8-11.8l15.6-23.4l7.8-39.2l4-27.4l7.8-31.2l7.8-27.4l7.8-19.6l11.6-11.8l15.6-19.6l11.8-7.8l7.8-11.8l7.8-7.8
						l11.6-7.8l11.8-7.8l7.8-5.2v-6.6l4-11.8l7.8-4l11.8-3.8l35.2-7.8l27.4-4l19.6-7.8l7.8-7.8l7.8-4h11.8l4,4l7.8,15.6
						c5.4,3.6,10.6,7.4,15.6,11.8c4,3.8,19.6,7.8,19.6,7.8l19.6,11.8l19.6,7.8l15.6,3.8l11.8,4l11.8,7.8l7.8,11.8l11.8,7.8l7.8,11.8
						l11.8,12.8v14.6c0,0,4,7.8,4,11.6s11.8,7.8,11.8,7.8l15.6,4L4059-86l7.8,7.8l11.8,11.6l15.6,7.8l7.8,7.8v15.6l4,11.8l11.8,7.8
						l11.8,4h7.8l4,7.8l7.8,15.6l7.8,7.8l7.8,4l15.6,7.8l11,8.2l9,1l3-1.8l6.4-6.4l3.2-12.8v-16l-9.6-16l-6.4-16l3.2-22.2l16-19.2
						l3.2-35.8l11.8-27.4l15.6-15.6v-6.4l-6.8-6.8l-3.2-9.6l-9.6-9.6l-3.2-9.6l-12.8-16l-12.8-12.8l-22.2-12.6l-25.4-12.8l-22.2-9.2
						l-23.4-4l-11.8-11.8l-4-7.8v-15.6l-12-25l-15.4-21.8l-19.6-15.6l-15.6-27.4L4019-408v-108l4-41.4v-25l11.8-19.6l11.8-19.6
						l15.6-7.8l11.8-7.8l15.6-11.8l11.8-7.8h11.8l11.8,4l19.6-7.8l15.6-7.8l7.8-7.8l11.8-7.8l19.6-7.8l23.4-15.6l15.6-23.4l3.8-23.4
						v-27.4l-7.8-11.8l-11.8-11.8l-11.8-19.6l-31.2-19.6l-31.2-15.6l-27.4-11.8l-11.8-15.6l-4-31.2l4-31.2l3.4-12.4v-6.4h6.4
						l3.2,6.4v16l3.2,6.4l3.2,3.2h28.6l6.4-9.6l9.6-16l6.4-16l3.2-9.6l6.4-3.2v-3.2l-9.6-6.4l-6.4-6.4v-25.4l6.4-3.2h6.4l9.2-4.2
						l7.8-11.8l8.6-16v-16l-3.2-16l3.2-22.2v-9.4l3.2-9.6l3.2-3.2l16-6.4l16-6.4l15.8-8.2l15.6-19.6l35.2-31.2l15.6-15.6l23.4-15.6
						l19.6-23.4l35-43l35.2-39l31.2-35.2l23.4-23.4c4-4,27.4-19.6,27.4-19.6l19.6-11.6l31.2-11.8l43-7.8l24.4-4h155.2l11.8,15.6
						l11.8,7.8l11.8,11.6l11.8,7.8h3.8l3.8-7.8l15.6,11.8l11.8-4l4,4l27.2,23.6l23.4,15.6l14.4-0.4l13-3.4v7.8l-13,8.4l3.2,5
						l5.8-1.6l9.4-3.4h6.4l15.6,15l-4,7.8l-11.8,11.4v12l4,15.6l11.8,7.8l15.6,7.8l15.6,4v4l3.8,7.8l7.8,4l3.8,4l-7.8,7.8l-4,11.6
						v15.4l-7.6,7.8l3.8,4l11.8-4l15.6,11.6l7.8,11.8l11.8,19.6l7.8,4l19.6,7.8l23.4,11.6l15.6,7.8l3.8,11.6l7.8,15.6l11.8,11.8
						l9.8,7.8h13.6l-7.8,6.8v4.8l7.8,4v7.8l15.6,11.6l19.6,15.6l15.6,23.4l7.8,11.8l11.8,11.8v11.8l3.8,11.8l-4.6,6.2l-3.2,3.2
						l-6.4,6.4l-9.6,6.4l-6.4,3.2l-6.4,6.4l-3.2,9.6l3.2,3.2l3.2,6.4l6.4,6.4l3.2,3.2v6.4l3.2,3.2v6.4l3.2,3.2l6.4,3.2l10.8,4
						l-1.2,2.2l-9.6,6.4l-9.6,6.4v3.2l3.2,3.2h9.6l-3.2,9.6l3.2,6.4l-6.4,12.8l-6.4,9.6h-6.4l-3.2,3.2v6.4l3.2,6.4l3.2,9.6l3.2,9.6
						l3.2,9.6v12.8l-6.4,9.6l-12.8,6.4l-9.6,6.4l-3.2,7.4v11.6l3.2,9.6l6.4,3.2l6.4,12.8v6.4l-3.2,12.8l-6.4,4.8v4.6l6.4,3.2
						l9.6,12.8l3.2,9.6l6.4,9.6l6.4,12.8l6.4,3.2l9.6,6.4l3.2,6.4l3.2,3.2h12.8l6.4,3.2l3.2,6.4l6.4,9.6l6.4,3.2l16,6.4l9.6,3.2
						l9.6,9.6l6.4,12.8l9.6,3.2l6.4,6.4h3.2l3.2-3.2l9.6-6.4h6.4l9.6,3.2l9.6,3.2h19.2l6.4,3.2l3.2,6.4l3.2,6.4l12.8,9.6l6.4,3.2
						l6.4,3.2l6.4,6.4l6.4,3.2l9.6,6.4l12.8,3.2l9.6,3.2h9.6l6.4-3.2h22.2l12.8,3.2l16,9.6l9.6,3.2l9.6,6.4l9.6,9.6l6.4,12.8
						l6.4,9.6l6.4,6.4l9.6,6.4l12.8,6.4h3.2l6.4-3.2l6.4-12v-13.4l3.2-3.2h9.6l9.6-3.2l9.6-3.2h3l3.2,3.2l38.2,51l16,22.2l3.2,6.4
						l9.6,6.4l12.8,6.4l9.6,6.4l12.8,9.6l12.8,6.4l6.4,3.2h6.4l9.6-3.2h6.4l12.8,3.2h19.2l6.4-9.6v-19.2l-3.2-22.2l3.2-12.8v-6.4
						l-3.2-25.4V-474l3.2-9.6h3.2l9.6,16l19.2,22.2l16,16l6.4,9.6l12.8,6.4l6.2,9.4v9.6l9.6,6.4l12.8,3.2l12.8,3.2l12.8,6.4
						l12.8,3.2l6.4-3.2l9.6-6.4h6.4v3.2l-3.2,3.2l-12.8,16l-12.8,16l-19.2,12.8l-16,9.6l-28.6,19L5931-289l-3.2,19.2l-6.4,12.8
						l-12.8,3.2h-16l-16,3.2l-6.4,3.2l-9.6,12.8l-9.6,12.8l-6.4,9.6l3.2,9.6l-3.2,19.2l-3.2,12.8l-3.2,12.8l-6.4,9.6l-6.4,6.4
						l3.2,3.2l3.2,6.4l3.2,6.4l-6.4,3.2h-12.8l-19.2,3.2l-14.2,6.4l-8.2,6.4l-9.4,15.6v48l16,22.2l6.4,15.2l3.2,19.8l-3.2,13v16.6
						l3.2,11.8V64l-3.2,8.4v14l3.2,6.4l19.2,23.2v5.6l6.4,6.4l6.4,6.4l6.4,12.8l12.8,31.8l9.6,25.4l9.6,19.2l12.8,16l12.8,9.6
						l25.4,12.8l22.2,12.8h38.2l9.6,3.2l16,6.4h12.8l9.6-3.2h9.6l6.4,3.2h51l12.8-6.4h12.8l9.6-6.4l9.6-3.2l9.6-6.4l6.4-3.2h12.8
						l9.6-6.4h6.4l9.6,3.2h19.2l16-6.4h6.4l19.2,3.2h12.8l3.2,3.2l-3.2,3.2l-6.4,9.6l-6.4,9.6v6.4l-6.4,3.2l-9.6,6.4l-3.2,6.4
						l3.2,19.2l6.4,16l6.4,16l6.4,9.6l3.2,28.6l-6.4,3.2h-16l-12.8,6.4h-9.6l-6.4-3.2l-16-6.4h-9.6l-12.8,2.8l-16,6.4l-3.2,6.4v6.4
						l3.2,12.8l3.2,22.2l-3.2,6.4h-6.4l-9.6-6.4l-6.4-3.2l-6.4-6.4l-9.6-3.2l-9.6-6.4l-9.6-3.2h-9.6l-6.4,3.2l-3.2,9.6L6068,450
						l3.2,9.6l9.6,12.8l22.2,19.2l25.4,19.2l9.6,3.2l12.8,3.2l6.4,3.2l9.6,16l-3.2,1.6v4.8l3.2,3.2l25.4,22.2l22.2,16h12.8l12.8-6.4
						l12.8-3.2l13-9.6l19.2-3.2l19.2-9.6l12.8-3.2l12.8-3.2l9.6-6.4h3.2v9.4l-3.2,6.4l-6.4,16l-3.2,12.8l-9.8,28.6l-3.2,16l-6.4,16
						l-16,19l-25.4,35l-12.8,19l-6.4,16l-6.4,6.4l-9.6,12.8v3.2l-6.4,16l-3.2,6.4l3.2,3.2l3.2,3.2l6.4,3.2l9.6,6.4l9.6,3.2l6.4,3.2
						h16l22.2,16l9.6,9.6l9.6,6.4l6.4,3.2l6.4,3.2h19.2l12.8,6.4l3.2,5.4v4.2l6.4,6.4l3.2,3.2h6.4l6.4-3.2h6.4l12.8,3.2h31.8
						l6.4,3.2l12.8,9.6l16,6.4l7.8,3.2h20.8l6.4-3.2l12.8-3.2l9.6-3.2l3.2-6.4l16-31.8l6.4-6.4l28.6-35l6.4-11.8v-20.6l3.2-3.2
						l3.2,3.2l3.2,3.2h6.4l3.2-3.2l6.4-6.4v-9.6l-6.4-6.4l-9.6-7.6v-8.4l8.6-3.2h7.4l9.4-6.4h6.4l9.6-3.2l9.6-9.6l3.2-9.6l6.4-3.2
						l9.6-3.2l9.6-3.2l3.2-9.6l3.2-9.6l3.2-6.4l6.4-9.6l6.4-9.6l6.4-6.4l9.6-3.2l9.6-6.4l6.4-9.6l3.2-9.6v-12.8l3.2-12.8l3.2-9.6h3
						l5,3.2h4.4l3.2-6.4l9.6-3.2h9.6l6.4-3.2l22.2-16l9.6-12.8l28.6-31.8v-16l5.2-12.8l4.4-6.4l6.4,3.2l-0.2,3.2h6.6l6.4-6.4
						l16-19.2l3.2-6.4l-3.2-9.6v-25.4l6.4-6.4l6.4-3.2l9.6-3.2l3.2,3.2l3.2,6.4l6.4-3.2l28.6-31.8l3.2-6.4v-6.4l3.2-6.4l4-6.4
						l8.8-9.6l12.8-6.4h9.6l3.2,3.2l3.2,3.2l3.2,6.4l3.2,3.2l6.4-3.2l9.6-9.6l6.4-25.4l3.2-25.4l3.2-6.4v-6.4l-3.2-6.4l-6.4-12.8
						l3.2-9.6l3.2-19.2v-37.6l6.4-6.4l3-6.4V153l3.2-19.2l-3.2-12.8l-3.2-9.6l-9.6-6.4l-9.6-3.2l-9.6-3.2l-10.8-3h-11.4l-12.8-9.6
						l-12.8-9.6l-16-9.6l-3.2-9.6l-3.2-16l-3.2-19.2v-5.8l6.4-12.8l3.2-12.8l3.2-3.2l3.2-3.2l6.4-6.4v-6.4l-3.2-3.2l-9.6-3.2h-6.4
						l-6.4,3.2l-6.4,3.2h-6.4l-6.4-3.2l-3.2-3.2h-9.4l-3.2,3.2L6888-19h-9.6l-6.4,3.2l-10.6,3.2h-15l-3.2-3.2l-6.4-9.6v-6.4
						l9.6-25.4l6.4-9.6l16-19.2l9.6-6.4l6.4-6.4l3.2-9.6v-6.4l3.2-3.2l6.4-6.4l3.2-6.4l3.2-9.6l6.4-6.4l12.8-9.6l6.8-6.4h18.8
						l16-9.6l19.2-12.8l22.2-16l16-12.8l6.4-12.8l6.4-12.8l9.6-6.4l6.4-9.6l9.6-16l9.6-9.6l3.2-9.6l3.2-16l3.2-16l6.4-22.2l3.2-12.8
						l6.4-6.4l9.6-12.8l3.2-16l6.4-16l12.8-9.6l3.2-9.6l12.8-19.2l3.2-12.8l6.4-19.2l3.2-22.2l3.2-6.4l9.6-9.6h3.2l4.8,3.2h4.8
						l3.2-3.2l9.6-12.8v-16l-3.2-9.6l-3.2-9.6l-1.6-6.4l-4.8-3.2l-3.2,3.2h-9.6l-6.4-3.2l-9.6-9.6v-9.6l-6.4-9.6l-3.2-9.6v-9.6
						l-3.2-9.6l-6.4-9.6l-6.4-12.8v-6.4l6.4-16v-9.6l-6.4-9.6l-3.2-6.4v-19l3.2-6.4v-5.8l-6.4-6.4l-3.2-9.6l-3.2-31.8l-3.4-22.2
						v-6.4l-3.2-9.6l-3.2-6.4l-3.2-3.2l-3.2-3.2l-3.2-3.2h-6.4l-3.2-3.2l-3.2-3.2v-6.4l-3.2-3.2l-6.4-3.2l-12.8-3.2l-6.4-3.2
						l-16-6.4h-6.4l-16-6.4h-16l-22-6.4l-16-6.4l-9.6-12.8l-6.4-12.8l-3.2-6.4l-3.2-6.4l-6.4-3.2h-9.6l-9.6,3.2l-9.6,3.2l-6.4,6.4
						l-3.2,3.2l-6.4,3.2h-3.2l-3.2-3.2l-3.2-3.2l-3.2-3.2v-9.6l3.2-9.6l3.2-9.6l3.2-6.4l3.2-6.4l6.4-6.4v-19l-6.4-9.6l-3.2-6.4v-6.4
						l-3.2-3.2h-9.6l-3.2-3.2l-3.2-2.6v-7l3.2-6.4l3.2-6.4l6.4-7.4v-5.4l3.2-3.2l16-16l6.4-3.2l3.2-3.2l6.4-3.2h6.4l3.2,3.2l3.2,3.2
						l6.4,3.2l6.4,6.4l6.4,3.2h16l6.4-3.2h6.4l3.2-6.4l3.2-9.6l3.2-9.6l12.8-3.2h6.4l6.4-6.4l9.6-3.2h9.6l6.4-3.2l6.4-6.4h16
						l6.4-3.2l6.4-3.2h12.8l6.4,3.2l3.2,3.2l18.8,9.6h38.4l9.6,3.2l6.4,3.2l6.4,3.2l3.2,3.2l6.4,9.6l3.2,3.2l3.2,3.2l3.2,3.2
						l6.4,3.2l9.6,3.2l9.6,3.2h16l4.8,1.6l3.2,3.2l3.2,3.2l3.2,3.2l3.2,6.4l3.2,6.4l3.2,9.6l3.2,6.4v9.6l3.2,16v3.2l6.4,6.4l3.2,7.4
						v8.6l3.2,12.8l3.2,9.6l9.6,19l6.6,11.2l6,8l3.2,3.2l44.6,41.4l6.4,6.4l3.2,3.2l3.2,6.4l3.2,4.6v5l3.2,3.2l3.2,3.2v6.4l-1.6,4.2
						v6.8l3.2,6.4l3.2,6.2v51l-3.2,6v6.6l6.4,6.4l6.4,9.6l6.4,9.6l6.4,9.6l3.2,9.6l6.4,6.4l12.8,3.8v9l9.6,3.2l19.2,6.4l16,6.4
						l25.2,9.6h130.8v-1396h-6432L1190.4-2042L1190.4-2042z"/>
				</g>
			</g>
		</g>
	</g>
</g>
<g>
	<g>
		<g>
			<defs>
				<polygon id="SVGID_7_" points="7679.4,2160.4 -0.6,2160.4 -0.6,0.4 486,0.4 7679.4,0.4 				"/>
			</defs>
			<clipPath id="SVGID_8_">
				<use xlink:href="#SVGID_7_"  style="overflow:visible;"/>
			</clipPath>
			<g class="st74">
				<g id="KLN_2019" class="st75">
					<line class="st2" x1="3431" y1="518.6" x2="3439" y2="518"/>
					<polyline class="st2" points="3453.4,517 3461.4,516.4 3456.2,522.4 					"/>
					<polyline class="st2" points="3440.8,540.6 3435.6,546.8 3435,546.8 3435,547.2 3434.4,547.2 3433.8,547.2 3433.8,547.8 
						3433.4,547.8 3432.8,540 					"/>
					<line class="st2" x1="3431.6" y1="526.6" x2="3431" y2="518.6"/>
					<line class="st2" x1="3429.4" y1="539.2" x2="3421.4" y2="540"/>
					<line class="st76" x1="3408.4" y1="541" x2="3388.8" y2="542.6"/>
					<polyline class="st2" points="3382.2,543.2 3374.4,543.8 3373.8,535.8 					"/>
					<polyline class="st2" points="3372.8,523.2 3372,515.2 3365.2,515.8 3365.2,518 3361.4,522.4 					"/>
					<polyline class="st2" points="3354.2,530.8 3349.2,537 3355.2,542.2 					"/>
					<polyline class="st39" points="3365.8,551.6 3366.2,551.8 3366.8,551.8 3367.4,552.4 3368,552.4 3368.6,552.4 3369.8,552.4 
						3414.8,549 					"/>
					<polyline class="st2" points="3422,548.4 3429.8,547.8 3429.4,539.2 					"/>
					<line class="st2" x1="6063.2" y1="409" x2="6063.6" y2="417"/>
					<polyline class="st77" points="6064,435.2 6064.6,449.4 6062,498.8 					"/>
					<polyline class="st2" points="6061.6,507.8 6061.2,515.8 6066.8,521.6 					"/>
					<polyline class="st56" points="6078.6,533.4 6160.8,617.2 6179.8,635.8 6236.2,693.6 					"/>
					<polyline class="st2" points="6242,699.6 6242.8,700.4 6244,701 6245.2,701.6 6246.4,701.6 6247,701.6 6248,701.6 6248.6,701 
						6249.2,701 6249.8,700.4 6250.4,699.8 6251,699.2 6251.6,698.2 6252,697.6 6252,696.4 6252,695.2 6252,694.8 6251.6,693.6 
						6251,693 6249.8,691.8 6249.8,691.2 6244.6,685.8 					"/>
					<line class="st78" x1="6236.6" y1="677.4" x2="6224.6" y2="664.8"/>
					<polyline class="st2" points="6220.6,660.6 6216,655.8 6214.8,655.2 6216.6,653.4 6220.6,649.6 					"/>
					<line class="st79" x1="6230.8" y1="640" x2="6266.4" y2="606"/>
					<polyline class="st2" points="6271.6,601 6277.2,595.6 6282.8,601.4 					"/>
					<line class="st80" x1="6290.6" y1="609.4" x2="6302.2" y2="621.4"/>
					<line class="st2" x1="6306" y1="625.4" x2="6311.6" y2="631"/>
					<polyline class="st2" points="6062.6,409 6063.2,409 6069.8,405.6 					"/>
					<polyline class="st2" points="6085.4,397.2 6090.8,394.2 6092.4,393.6 6092.4,394.2 6096,400.8 					"/>
					<polyline class="st2" points="6098.4,405.4 6102.2,412.4 6109.4,408.8 					"/>
					<polyline class="st2" points="6111.2,408 6118.2,404.4 6114.6,397.4 					"/>
					<polyline class="st2" points="6112,392.2 6108.6,385.6 6108.6,385 6115.6,381.4 					"/>
					<polyline class="st7" points="6127,375.6 6135.4,371.2 6142.8,367.2 6165.8,355.2 6166.2,355 					"/>
					<polyline class="st2" points="6171.8,352.2 6178.8,348.4 6175,341.6 					"/>
					<polyline class="st81" points="6167.2,327.8 6156.4,308.8 6150.2,306.8 6144.4,309.2 6140.8,310.2 6127,311 6122.4,311.2 
						6116,311.4 6104.4,313 6099.8,315.6 6095.2,315.2 6087,317.6 6084.6,319.2 6082.2,320.8 6075.8,322 6074,322.4 6067.6,323.8 
						6065.8,324.2 6063.6,324 6055,323.6 6052.8,322.8 6048.8,321.4 6043.2,319.2 6036.4,317.2 6031.2,317.4 5992,320 5986.8,320.2 
						5970.8,320.8 5959.2,321.2 5946.2,319.8 5930.8,316.6 5916.8,311.6 5905,306.8 5890.6,298.4 5879.2,289.6 5864,275 5852.8,261 
						5795.8,156.6 5739.8,125.8 5699.6,103.4 5692.2,98.8 5591.2,-21.4 					"/>
					<polyline class="st82" points="5268.4,-90 5273.8,-84 5340.8,-18.6 5343.2,-14.6 5344.4,-11.2 5343.2,-4.8 5340.4,0.8 
						5280.2,63.8 5272.2,64.4 5268.2,64.4 5264.2,63.2 5260.2,60.4 5047.6,-144.6 5040.2,-151.6 4974.2,-215 					"/>
					<polyline class="st83" points="4281,-62.2 4258.6,36.8 4260.2,44.8 4268.4,71.4 					"/>
					<polyline class="st2" points="4270.4,78.2 4272.2,84.2 4272.2,84.8 4272.2,85.4 4272.2,86 4271.8,86 4268.8,88.2 4265.8,90.4 
											"/>
					<polyline class="st84" points="4250.8,101.4 4207.6,132.4 4197.2,133.6 4195.8,132.8 					"/>
					<polyline class="st2" points="4187.2,128.8 4180,125.6 4176.8,132.8 					"/>
					<polyline class="st85" points="4173.2,141 4169.8,148.4 4165,150.6 					"/>
					<polyline class="st2" points="4161,152.6 4153.8,155.8 4156.6,162.8 4156.6,163.4 4156.6,163.8 4156,163.8 4156,164.4 
						4148.6,167.6 					"/>
					<polyline class="st2" points="4140.4,171.2 4134.8,173.6 4134.2,174.2 4133.6,174.2 4133,174.2 4133,173.6 4132.6,173 
						4129.6,166.8 4122.2,170 					"/>
					<polyline class="st2" points="4106.4,177 4099.2,180.6 4100.4,184 4100.4,188 4100.6,188.4 					"/>
					<polyline class="st2" points="4107.6,204.2 4110.8,210.8 4110.8,211.4 4110.2,212 4102.8,215.4 4102.2,216 4101.6,216 
						4101,215.4 4100.4,214.8 4098,209.6 					"/>
					<polyline class="st2" points="4090.2,192.6 4090.2,192.6 4087.2,189.6 4085.6,186.2 4079.2,189.6 4078.4,190 					"/>
					<line class="st5" x1="4063" y1="196.8" x2="3885.2" y2="275.8"/>
					<polyline class="st2" points="3877.4,279.2 3870,282.6 3866.8,275.2 					"/>
					<line class="st86" x1="3863" y1="266.8" x2="3857.4" y2="254.4"/>
					<polyline class="st2" points="3855.6,250.2 3852.4,243 3844.4,243 					"/>
					<polyline class="st2" points="3825.4,243 3817.4,243 3817.4,251 					"/>
					<line class="st41" x1="3817.6" y1="265.6" x2="3817.8" y2="317"/>
					<polyline class="st2" points="3817.8,324.4 3818,332.4 3811,336.4 					"/>
					<line class="st57" x1="3803.4" y1="340.8" x2="3792" y2="347.4"/>
					<polyline class="st2" points="3788.2,349.6 3781.2,353.6 3777.2,346.6 					"/>
					<polyline class="st2" points="3774.4,341.6 3770.4,334.6 3777.2,330.6 					"/>
					<polyline class="st2" points="3789.8,323.2 3796.8,319.2 3796.8,311.2 					"/>
					<line class="st87" x1="3796.8" y1="291.8" x2="3796.8" y2="263"/>
					<polyline class="st2" points="3796.8,253.2 3796.8,245.2 3792.2,251.8 					"/>
					<polyline class="st46" points="3779,259.6 3770.4,260.8 3756.2,260.8 3738.4,263 3724,268.6 					"/>
					<polyline class="st2" points="3716.4,271 3708.6,272.2 3708,271.6 3706.8,267.6 3705,267.6 3702.2,270.4 3695.8,276.2 
						3695.8,275.6 3690,281 					"/>
					<polyline class="st88" points="3678.2,291.2 3665,303.2 3609.4,353 3603,358.8 3576.2,382.8 3560.2,397.2 3548,408 
						3528.6,432.6 3527.4,433.8 3526.8,435 3526.4,436 3525.8,437.2 3524.6,439 3524,441.2 3522.8,444.6 3511.4,477.4 3510.2,479.6 
						3509.6,481.8 3508,484.8 3506.8,487 3505.6,489.4 3503.4,492.2 3502.2,494.6 3500.6,496.2 3498.8,498 3494.8,503.2 3449,556.4 
						3422.2,559.2 3381.6,562.6 3361,564.4 3359.8,564.4 3358.6,564.4 3357.6,564.4 3356.4,563.8 3355.2,563.2 3354.2,562.6 
						3353,562.2 3336.4,547.8 3319.4,549 					"/>
					<polyline class="st2" points="3311.6,549.6 3303.6,550 3303.6,550.6 3292.2,551.8 3292.2,551.2 3284.2,551.8 					"/>
					<line class="st89" x1="3275.6" y1="552.6" x2="3262.4" y2="553.6"/>
					<polyline class="st2" points="3258,554 3256.2,554 3252.2,558.6 3249.2,558.6 3244.2,559 					"/>
					<polyline class="st90" points="3229,560.2 3191.4,563.2 3188.6,561.6 3185.4,550.2 					"/>
					<polyline class="st2" points="3183.2,542.8 3181,535.2 3180,535.2 3177.6,534.6 3175.4,534 3173.6,533.4 3172.4,532.8 
						3167.8,538.6 3167.2,538.8 					"/>
					<polyline class="st2" points="3156.2,546 3151.2,552.4 3150.6,551.8 3149.6,554 3146.2,558.2 					"/>
					<polyline class="st2" points="3139,556 3143.8,549.6 3144.4,550 3145.6,547.8 3149,543.6 					"/>
					<polyline class="st2" points="3151.8,540 3154.2,537 3155.2,532.8 3154.2,531.8 3152.4,530.6 3150.6,528.2 3149.8,527.2 					
						"/>
					<polyline class="st2" points="3144.8,521.2 3139.8,515.2 3137,516.8 3134,520.4 					"/>
					<polyline class="st2" points="3132.8,522 3127.8,528.2 3127.8,527.8 3126,530 3126.6,530 3122.6,535.2 3121.4,537 
						3120.8,537.4 3119.8,537.4 3119.2,538 3118,537.4 3117.4,537.4 3116.4,537 3115.8,536.4 3115.2,535.2 3115.2,533.4 
						3115.6,532.6 					"/>
					<polyline class="st2" points="3115.8,531.6 3120.8,525.4 3120.8,526 3122.6,523.8 3122,523.8 3127,517.4 					"/>
					<polyline class="st2" points="3136.8,504 3143.2,499 3141.6,491.2 					"/>
					<polyline class="st2" points="3138,474.2 3136.4,466.4 3128.6,468 					"/>
					<line class="st40" x1="3112.2" y1="471.4" x2="2989.2" y2="497.2"/>
					<polyline class="st2" points="2981,498.8 2974.2,500.2 2973.6,500.2 2973,500.2 2973,499.6 2973,499 2971.6,492.4 					"/>
					<polyline class="st2" points="2967.6,475.2 2966.2,469.2 2966.2,468.8 2966.8,468.2 2966.8,467.6 2968,467.6 2974.6,466.2 
											"/>
					<line class="st91" x1="2990.2" y1="462.8" x2="3106.4" y2="438.2"/>
					<polyline class="st2" points="3114.2,436.6 3122,435 3122,434.4 3120.4,435 3118.6,435 3116.8,434.4 3115.8,433.8 3114.6,433 
											"/>
					<polyline class="st2" points="3120.2,418.8 3120.8,418.8 3122.6,419.4 3124.4,420.6 3126,421.8 3126.6,422.8 3127.2,422.2 
						3125.6,414.4 					"/>
					<line class="st92" x1="3121.6" y1="396.4" x2="3115.8" y2="369.2"/>
					<polyline class="st2" points="3114,360.2 3112.4,352.4 3104.4,354 					"/>
					<polyline class="st93" points="3090.8,356.8 3074,360.4 3042.8,366.8 					"/>
					<polyline class="st2" points="3036.2,368.4 3035.6,368.4 3035,368.4 3034.4,367.8 3033.8,366.8 3033.2,363.8 3033.2,363.2 
						3033.8,362.2 3034.4,362.2 3035,361.6 3041.4,360.2 					"/>
					<line class="st94" x1="3057.4" y1="356.8" x2="3081" y2="351.8"/>
					<polyline class="st2" points="3089,350 3096.8,348.4 3094.6,338.6 3108.8,335.8 3107.4,328 					"/>
					<polyline class="st2" points="3105.2,317.2 3103.8,309.4 3095.8,311.2 					"/>
					<line class="st95" x1="3080.2" y1="314.4" x2="3025.4" y2="326.2"/>
					<polyline class="st2" points="3017.6,327.8 3009.8,329.4 3007.4,318 3015.4,316.4 					"/>
					<line class="st96" x1="3030.8" y1="313.2" x2="3085.2" y2="301.8"/>
					<polyline class="st2" points="3093,300.2 3100.8,298.6 3100.8,298 3099.4,290.8 					"/>
					<line class="st97" x1="3097.8" y1="282.8" x2="3095.2" y2="270.8"/>
					<polyline class="st2" points="3094.4,266.8 3092.8,259 3089.4,259.6 3088.8,260.8 3081.4,262.4 3080.8,261.8 3075,263 
						3073,263.4 					"/>
					<polyline class="st98" points="3059,266.4 3015.4,275.6 3004.6,278 2988.6,281.4 2982.6,282.6 					"/>
					<polyline class="st2" points="2975.8,282.2 2975.4,282 2974.2,280.2 2973.6,279 2973.6,278 2973.6,276.8 2974.2,275.6 
						2974.2,275 2975.4,273.8 2976,273.4 2977.2,272.2 2981,271.4 					"/>
					<polyline class="st99" points="3001,267 3009.2,265.4 3031.4,260.8 					"/>
					<polyline class="st2" points="3041.4,258.8 3049.2,257.2 3049.2,256.8 3057.2,255 					"/>
					<polyline class="st2" points="3062.2,253.8 3070,252.2 3070.4,251 3068.8,242.4 3079,240.2 3077.4,233.2 3069.6,235 					"/>
					<polyline class="st2" points="3068.6,235.2 3061.8,236.6 3060.8,236.6 3060.2,236.2 3059.6,235.6 3059.6,235 3060.2,234.4 
						3060.8,233.8 3066.4,232.6 					"/>
					<polyline class="st2" points="3069,232 3076.8,230.4 3075.6,225.2 3079.6,224.6 3079.2,216.6 					"/>
					<polyline class="st20" points="3078,198.6 3076.8,177.6 3076.2,176.6 3075,176 3059,177.6 3045.2,178.8 3042.4,179.4 
						3040.6,180 3036.4,182.8 					"/>
					<polyline class="st2" points="3029,188 3022.4,192.6 3019.6,189.2 3026,184.6 					"/>
					<polyline class="st2" points="3033.6,179.4 3040.2,174.8 3032.4,176.6 					"/>
					<polyline class="st31" points="3016.8,179.6 2937.6,190.2 2890.6,196.6 2852.8,200.6 2766,212.8 2711.6,233.4 2707.6,237.4 
						2702.4,242 2697.2,246.6 2689.8,253.6 2680.6,264.4 2670.4,286.2 2667.4,288.4 2663.4,289 2650.2,288.4 2578.6,289 
						2564.4,288.4 2552.2,289.6 2544.2,288.4 2527.6,275.8 2516.8,265.6 2504.8,250 2501.2,242 2501.2,181.4 2500.8,173.4 
						2501.2,166.4 2500.8,151 2501.2,139 2501.8,129.2 2504.2,118.8 2510.4,105.2 2512.8,101.6 2514.8,98.6 					"/>
					<polyline class="st2" points="2519.6,92.4 2523.6,88.6 2525.4,86.8 2525.4,80 2525.4,78.8 					"/>
					<polyline class="st100" points="2525.4,63.8 2525.4,63.2 2526,59.8 2525.4,41 2525.4,27.8 2525.4,21.4 2524.2,16.4 2521.4,10 
						2517.4,5.4 2512.2,0.8 2503.6,-2.6 2500.6,-2.6 2496.6,-2.6 2493.2,-3.8 2492.2,-4.8 2491.6,-6.6 2491.6,-8.4 2492.2,-10 
						2493.2,-10.6 2495,-11.2 2499.6,-10.6 2503,-10 2509.4,-8.4 2515,-5.4 2520.8,-0.4 2525.4,4.8 2527.6,8.8 2530.6,15.8 
						2531.6,20.8 2532.2,26 2532.2,43.2 					"/>
					<polyline class="st2" points="2532.2,50.8 2532.2,58.8 2540.2,58.6 					"/>
					<line class="st101" x1="2556.6" y1="58.6" x2="2613.6" y2="58.2"/>
					<polyline class="st2" points="2621.6,58.2 2629.6,58.2 2634.2,51.6 					"/>
					<polyline class="st102" points="2643.2,38.6 2752.8,-117.8 2752.2,-529.8 2733.8,-578.4 					"/>
					<line class="st2" x1="3030.4" y1="233.8" x2="3029.2" y2="225.8"/>
					<polyline class="st2" points="3028,216.6 3026.8,208.6 3029.8,208 3031,216 					"/>
					<polyline class="st2" points="3032.6,225.8 3033.8,233.8 3030.2,233.8 					"/>
					<line class="st2" x1="7031.2" y1="181" x2="7039.2" y2="180.6"/>
					<path class="st103" d="M7052.4,177.4l6.6-2.8h13.4"/>
					<path class="st2" d="M7079.2,174.6h8l5.6-5.6"/>
					<polyline class="st2" points="7096.4,165.2 7102,159.6 7110,159.6 					"/>
					<line class="st61" x1="7125.2" y1="159.6" x2="7178.8" y2="159.6"/>
					<polyline class="st2" points="7186.4,159.6 7194.4,159.6 7195.2,151.6 					"/>
					<polyline class="st2" points="7208.8,139 7216.8,139 7221.2,145.6 					"/>
					<polyline class="st2" points="7221.8,152.6 7221.8,160.6 7229.8,160.2 					"/>
					<polyline class="st2" points="7236.2,160 7244.2,159.6 7246.2,165.2 7261.2,163.4 7263,159.6 7266.4,158 					"/>
					<path class="st90" d="M7281.4,157.2c4.4,0.2,9,0,13.4-0.4c3.8-1,31.8-2.8,31.8-2.8l15-11.2l13.2-20.6l16.6-28.8l15.2-34.8
						l20.6-39.2"/>
					<polyline class="st2" points="7411.4,13.2 7416,6.6 7423.4,10 					"/>
					<polyline class="st2" points="7439,17.4 7446.2,20.8 7443,28.2 					"/>
					<polyline class="st88" points="7436.4,42.2 7395,126 7363,181 7355.8,219.4 7364,280.6 7372,315.6 7399,348.8 7431.2,367.8 
						7454.4,373.6 					"/>
					<polyline class="st2" points="7460.4,378.6 7466.2,384 7466.2,392 					"/>
					<line class="st104" x1="7466.2" y1="407.6" x2="7466.2" y2="525.6"/>
					<polyline class="st2" points="7466.2,533.4 7466.2,541.4 7474.2,541.4 					"/>
					<line class="st105" x1="7489.4" y1="541.4" x2="7663.8" y2="541.4"/>
					<line class="st2" x1="7671.4" y1="541.4" x2="7679.4" y2="541.4"/>
				</g>
			</g>
		</g>
	</g>
</g>
</svg>
