<?xml version="1.0" encoding="utf-8"?>
<!-- Generator: Adobe Illustrator 23.0.3, SVG Export Plug-In . SVG Version: 6.00 Build 0)  -->
<svg width="3840" height="1080" version="1.1" id="Layer_2" xmlns="http://www.w3.org/2000/svg" xmlns:xlink="http://www.w3.org/1999/xlink" x="0px" y="0px"
	 viewBox="0 0 3840 1080" style="enable-background:new 0 0 3840 1080;" xml:space="preserve">
<style type="text/css">
	.st0{clip-path:url(#SVGID_2_);fill:none;stroke:#FF8300;stroke-width:3;stroke-miterlimit:10;}
	.st1{clip-path:url(#SVGID_2_);}
	.st2{fill:none;stroke:#FF8300;stroke-width:3;stroke-linecap:round;stroke-linejoin:round;stroke-dasharray:8;}
	.st3{fill:none;stroke:#FF8300;stroke-width:3;stroke-linecap:round;stroke-linejoin:round;}
	.st4{fill:none;stroke:#FF8300;stroke-width:3;stroke-linecap:round;stroke-linejoin:round;stroke-dasharray:7.83,7.83;}
	.st5{fill:none;stroke:#FF8300;stroke-width:3;stroke-linecap:round;stroke-linejoin:round;stroke-dasharray:6.29,6.29;}
	.st6{fill:none;stroke:#FF8300;stroke-width:3;stroke-linecap:round;stroke-linejoin:round;stroke-dasharray:7.65,7.65;}
	.st7{fill:none;stroke:#FF8300;stroke-width:3;stroke-linecap:round;stroke-linejoin:round;stroke-dasharray:7.89,7.89;}
	.st8{fill:none;stroke:#FF8300;stroke-width:3;stroke-linecap:round;stroke-linejoin:round;stroke-dasharray:7.62,7.62;}
	.st9{fill:none;stroke:#FF8300;stroke-width:3;stroke-linecap:round;stroke-linejoin:round;stroke-dasharray:8.96,8.96;}
	.st10{fill:none;stroke:#FF8300;stroke-width:3;stroke-linecap:round;stroke-linejoin:round;stroke-dasharray:8,8;}
	.st11{fill:none;stroke:#FF8300;stroke-width:3;stroke-linecap:round;stroke-linejoin:round;stroke-dasharray:5.96,5.96;}
	.st12{fill:none;stroke:#FF8300;stroke-width:3;stroke-linecap:round;stroke-linejoin:round;stroke-dasharray:7.96,7.96;}
	.st13{fill:none;stroke:#FF8300;stroke-width:3;stroke-linecap:round;stroke-linejoin:round;stroke-dasharray:5.43,5.43;}
	.st14{fill:none;stroke:#FF8300;stroke-width:3;stroke-linecap:round;stroke-linejoin:round;stroke-dasharray:4.51,4.51;}
	.st15{fill:none;stroke:#FF8300;stroke-width:3;stroke-linecap:round;stroke-linejoin:round;stroke-dasharray:8.5,8.5;}
	.st16{fill:none;stroke:#FF8300;stroke-width:3;stroke-linecap:round;stroke-linejoin:round;stroke-dasharray:7.74,7.74;}
	.st17{fill:none;stroke:#FF8300;stroke-width:3;stroke-linecap:round;stroke-linejoin:round;stroke-dasharray:9.31,9.31;}
	.st18{fill:none;stroke:#FF8300;stroke-width:3;stroke-linecap:round;stroke-linejoin:round;stroke-dasharray:4.62,4.62;}
	.st19{fill:none;stroke:#FF8300;stroke-width:3;stroke-linecap:round;stroke-linejoin:round;stroke-dasharray:5.16,5.16;}
	.st20{fill:none;stroke:#FF8300;stroke-width:3;stroke-linecap:round;stroke-linejoin:round;stroke-dasharray:5.77,5.77;}
	.st21{fill:none;stroke:#FF8300;stroke-width:3;stroke-linecap:round;stroke-linejoin:round;stroke-dasharray:5.07,5.07;}
	.st22{fill:none;stroke:#FF8300;stroke-width:3;stroke-linecap:round;stroke-linejoin:round;stroke-dasharray:8.34,8.34;}
	.st23{fill:none;stroke:#FF8300;stroke-width:3;stroke-linecap:round;stroke-linejoin:round;stroke-dasharray:9.46,9.46;}
	.st24{fill:none;stroke:#FF8300;stroke-width:3;stroke-linecap:round;stroke-linejoin:round;stroke-dasharray:9.5,9.5;}
	.st25{fill:none;stroke:#FF8300;stroke-width:3;stroke-linecap:round;stroke-linejoin:round;stroke-dasharray:7.07,7.07;}
	.st26{fill:none;stroke:#FF8300;stroke-width:3;stroke-linecap:round;stroke-linejoin:round;stroke-dasharray:7.36,7.36;}
	.st27{fill:none;stroke:#FF8300;stroke-width:3;stroke-linecap:round;stroke-linejoin:round;stroke-dasharray:8.54,8.54;}
	.st28{fill:none;stroke:#FF8300;stroke-width:3;stroke-linecap:round;stroke-linejoin:round;stroke-dasharray:9.08,9.08;}
	.st29{fill:none;stroke:#FF8300;stroke-width:3;stroke-linecap:round;stroke-linejoin:round;stroke-dasharray:7.72,7.72;}
	.st30{fill:none;stroke:#FF8300;stroke-width:3;stroke-linecap:round;stroke-linejoin:round;stroke-dasharray:6.43,6.43;}
	.st31{fill:none;stroke:#FF8300;stroke-width:3;stroke-linecap:round;stroke-linejoin:round;stroke-dasharray:7.78,7.78;}
	.st32{fill:none;stroke:#FF8300;stroke-width:3;stroke-linecap:round;stroke-linejoin:round;stroke-dasharray:8.33,8.33;}
	.st33{fill:none;stroke:#FF8300;stroke-width:3;stroke-linecap:round;stroke-linejoin:round;stroke-dasharray:8.28,8.28;}
	.st34{fill:none;stroke:#FF8300;stroke-width:3;stroke-linecap:round;stroke-linejoin:round;stroke-dasharray:8.06,8.06;}
	.st35{fill:none;stroke:#FF8300;stroke-width:3;stroke-linecap:round;stroke-linejoin:round;stroke-dasharray:6.24,6.24;}
	.st36{fill:none;stroke:#FF8300;stroke-width:3;stroke-linecap:round;stroke-linejoin:round;stroke-dasharray:6.74,6.74;}
	.st37{fill:none;stroke:#FF8300;stroke-width:3;stroke-linecap:round;stroke-linejoin:round;stroke-dasharray:8.43,8.43;}
	.st38{fill:none;stroke:#FF8300;stroke-width:3;stroke-linecap:round;stroke-linejoin:round;stroke-dasharray:5.85,5.85;}
	.st39{fill:none;stroke:#F08219;stroke-width:3;stroke-linecap:round;stroke-linejoin:round;stroke-dasharray:8;}
</style>
<g>
	<defs>
		<rect id="SVGID_1_" width="3840" height="1080"/>
	</defs>
	<clipPath id="SVGID_2_">
		<use xlink:href="#SVGID_1_"  style="overflow:visible;"/>
	</clipPath>
	<path id="Pre1900_Kln" class="st0" d="M334-1298.5l0.7,1.3l6.4,11.3l3.2,4.8l3.2,4.8l1.6,4.8l1.6,6.4l1.6,3.2l1.6,4.8l1.6,1.6
		l4.8,1.6l3.2,3.2l1.6,3.2l3.2,3.2l3.2,1.6h4.8l1.6-1.6l4.8-3.2h6.4l9.7-1.6l9.7-8.1l4.8-11.3l4.8-9.7l3.2-14.5l4.8-9.7l9.7-4.8
		l10-6.9h5.9l5.1-1.6l4.7-3.1h13l5.8,1.6l4.4,0.8l5,0.8l4.8,1.6h3.5l4.3,1.6l4.7,1.6l3.1,1.6l4.7,3.1l4.7,3.2l3.1,3.1l3.2,3.2
		l3.1,3.1l3.2,1.6h5.6l0.7-1.6h1.6l2.3,1.6l2.4-1.6l1.6-1.6l1.6-1.6v-4.6l-1.6-1.7v-3.2l1.6-1.7l1.6-1.4v-7.9l-1.5-1.6l-1.7-1.6
		l-1.6-1.6l-1.6-1.6l-1.6-3.2v-3.1l1.6-3.1l1.6-3.2l1.6-1.6l3.2-3.2l3.1-3.1l3.2-1.6h3l3.3-1.6l1.6-3.2v-3.1l1.6-3.2l3.1-3.1
		l3.2-3.2l3.1-1.6l3.2-1.6l3.1-1.6h2.8l3.5-1.6l3.1-1.6l3.2-3.1l3.1-3.2l1.6-1.6l1.6-3.1l3.2-3.2l3.1-1.6h9.4l4.7,1.6h3.2l4.7,1.6
		h9.4l4.7,1.6l4.7,1.6l4.7,3.1l3.2,1.6h9.4l4.7,1.6l4.7,3.1l4.7,1.6h4.7l6.3-1.6l4.7-1.6l3.1-1.6l4.7-6.3l1.6-4.7l1.6-6.3l1.6-4.7
		l1.6-4.7l3.1-4.7l3.1-4.7l3.2-4.7l3.1-4.7l3.2-4.7l3.1-4.7l4.7-4.7l6.3-4.7c0,0,4.7-4.7,6.3-4.7s3.2-3.2,3.2-3.2v-3.3l-1.6-6.1
		l-1.6-4.7l-1.6-4.7l-1.6-4.7l1.6-4.7l3.1-3.1l3.2-1.6h6.3v1.6l-4.7,1.6l-3.1,1.6l-1.6,3.2v3.1l1.6,4.7l1.6,4.7l1.6,4.7l1.6,4.7
		v12.6l-1.6,3.1l-3.1,3.2h-9.4l-3.1,3.1l-3.1,3.2l-4.7,4.7l-3.1,4.7l-4.7,6.3l-3.1,6.3l-3.2,4.7l-1.6,4.7l-1.6,4.7l-1.6,4.7
		l-1.6,4.7l-3.1,4.7l-3.1,3.1l-3.2,4.7l-3.1,4.7l-1.6,4.7l-1.6,6.3v22l-1.6,4.7v3.1l1.6,4.7l1.6,7.9v7.9l-1.1,7.9l-0.5,6.3v11
		l1.6,3.1l1.6,4.7h-1.1l-3.6-1.6h-6.3l-1.8,1.6l-2.9,3.2l-3.2,3.1l-4.7,4.7l-3.2,3.1l-3.1,3.2l-3.2,3.1l-3.1,1.6l-3.1,6.3l-3.2,6.3
		l-3.1,6.3l-3.2,6.3l-3.1,4.7l-3.1,4.7l-1.6,6.3l-4.7,6.3l-4.7,4.7l-4.7,4.7l-3.2,3.2l-4.7,3.1l-4.7,4.7l-3.2,3.1l-4.7,1.6l-4.7,1.6
		h-4l-3.9,1.6l-1.6,1.6l1.6,3.2v7.9l1.6,3.1l-1.6,3.2l-1.6,3.1l-1.6,4.7l-1.6,4.7l-1.6,4.7l-3.1,6.3v11l-1.6,6.3l-1.6,6.3v9.4
		l1.6,6.3v4.7l1.6,6.3v12.6l-1.6,6.3v33l1.6,6.3l1.6,4.7l1.6,4.7l1.6,4.7l3.1,4.7l3.1,4.7l4.7,3.1l4.7,1.6h7.9l3.1,1.6l3.1,3.1
		l3.2,1.6l4.7,1.6l3.1,1.6l3.1,3.1l4.7,3.2l6.3,1.6l4.7,1.6h6.3l4.7,1.6h3.2l1.6,1.6l3.2,3.1l3.1,3.2l3.2,3.1l1.6,1.6h6.4l1.4,1.6
		h13.3l2.5,1.6l3.1,1.6l3.2,1.6h2.7l3.6,1.6v4.7l1.2,6.2l1.6,6.4l1.6,6.4l3.2,3.2l4.8,1.6l1.6,4.8l1.6,3.2l1.6,4.8v4.8l-1.6,4.8v4.8
		l1.6,3.2l3.2,4.8h5.4l4.3,1.6h4.5l3.5,1.6l4.8,1.6l3.2,4.8l1.6,4.8v4.8l1.6,4.8l1.6,3.2l1.6,3.2l1.6,3.3h3.2l3.2,1.6h6.4l3.2,1.6
		l1.6,1.6v6.5l-1.6,3.2v3.2l1.6,1.6l1.6,1.6h2.2l2.6-1.6l3.2-1.6h1.6l4.8-1.6l6.4-1.6l4.8-1.6h3.2l3.2-1.6l1.6-3.2l1.6-3.2l1.6-3.2
		v-8l1.6-3.2l1.6-3.2l1.6-3.2v-4.7l-1.6-4.9v-1.6l3.2-1.6l1.6-3.2v-9.7l1.6-3.2l1.6-3.2v-3.2l-1.6-4.9v-6.4l1.6-5.3v-4.3l-3.2-4.9
		v-4.8l-4.8-8l-1.6-8.1v-6.4l-1.6-6.4l-1.6-6.4l-1.6-3.2l-1.6-3.2l-3.2-3.2l-4-0.5h-7.2l-4.3-1.4l-1.9-1.5l-1.6-4.8v-33.8l-1.6-4.8
		v-3.2l1.6-1.6l3.2,4.8l3.2,1.6l3.2,3.2v4.8l1.6,3.2l3.2,1.6l3.2,1.6l4.8,0.3l3.2-0.3h3.2l3.2,1.6v10.9l3.2,2l4.8,1.6l1.6,4.8
		l1.6,4.8l1.6,6.4l3.2,4.8l3.2,3.2l4.8,1.6h3.3l3.2,3.2l3.2,3.2v2.8l-4.8,3.6l-1.6,3.2l1.6,3.2l1.6,4.8v33.8l3.2,4.8l1.6,3.2
		l3.2,3.2l1.6,3.2l1.6,1.6l1.6,1.6l1.6,1.6l1.6,1.6v2.8l1.6,2l1.6,1.6l1.6,1.6l4.8,3.2l6.4,1.6l4.8,1.6h6.4l4.8,1.6l4.8,1.6l4.8,3.2
		h3.2l4.8,1.6l3.2,3.2v16.5l1.6,4.4l1.6,4.8l1.6,3.2l1.6,3.2l1.6,3.2l1.6,3.2l1.6,3.2l1.6,3.2v3.2l1.6,4.8v3.2l1.6,4.8l1.6,3.2
		l1.6,3.2l1.6,1.6l4.8,3.2l4.8,1.6l4.8,1.6l4.8,1.6h8l3.2-1.6l3.2-1.6l3.2-1.6l3.2-1.6l15-4.8l12.3-4.9l6.4,1.6l1.6,1.7l4.2,1.7h5.1
		l5.2-1.8l6.4-3.2l1.6-3.2l1.6-4.8v-2.1l1.6-1.1l1.6,3.2v3l3.2,1.8l4.8-1.6l12.9-4.8l6.4-1.6h3.2l4.8,1.6l1.6,3.2l1.6,3.2l4.8,3.2
		h17.7l6.4-1.6l8-1.6l4.8-3.2l1.6-3.2l1.6-3.2l-1.6-4.8l-4.8-4.8l-9.7-6.4l-3.2-3.2v-3.2l1.6-1.6h3.2l4.8,3.2l4.8,3.2l4.8,4.8
		l3.2,4.8l1.7,3.2l1.6,6.5v5.2l1.6,4.4h4.8l3.2-1.6v-7.2l-1.6-4.1l-3.2-6.4l-3.2-11.3V-848l1.6-1.6l1.6,1.6v3.2l1.6,3.2l1.6,1.6h3.2
		l4.8-3.2l3.2-1.6l1.6,3.2h4.8l4.8-1.6l3.2-1.6h3.2l9.7-1.6l6.4-3.2l6.4-4.8l3.2-4.8l3.2-4.8l4.3-5.9l9.9,5.9l5.9-2l4,4l5.9,2
		l7.9,7.9l7.9,5.9h3.9l9.9,7.9l9.9,7.9l5.9,5.9v5.8l4,8.1l5.9,5.9h7.9l4-4h2l2,5.9l7.9,4l4,2l5.9,4l5.9-2l2,5.9l11.8,5.9l11.8,11.8
		l7.9,5.9l2,9.9v9.6l2,14.1l5.9,19.8l7.9,21.7l9.9,19.8l7.9,7.9h5.6l0.3,11.8l3.9,7.9l-7.9,11.8l-7.9,9.9l-9.9-4h-9.9l-7.9-4h-9.9
		l-9.9,2l-4,4l2,9.9l5.9,9.9l11.8,7.9l5.9,4l2,5.9l-2,4l2,4l11.8,11.8l9.9,9.9l2,4l4,4h4l2,2l4,2l2,5.9l2,7.9l4,5.9l4,4l2,4l-4,4
		l-2,2l-4,2l-5,1l-4.8,1l-5.9,2h-4.4l-3.5,4l-4,5.9l-6.5,19.3l2,17.8l-4,25.7l2,5.9l4,5.9l5.9,5.9l7.9,11.9l7.9,4l7.9-7.9l7.9-9.9
		l2-9.9l2-5.9l9.9-7.9l4-5.9l2-13.8l2-13.8l2-9.9l4-9.9l2-7.9v-11.8l2-4l13.8-2l23.7,2l19.7,4l13.8,4l11.9,2l7.8,6v27.5l-2,5.9
		l2,5.9v7.9l-5.9,11.9l-4,5.9l-4,4v5.9l2,5.9v39.5l2,7.9l2.1,5v2.5l3.9,8.3v21.7l3.9,4l5.9,4l4,2l4,5.9v5.9l2,5.9l2,4v5.9l2,4v5.9
		l-2,2l-4,2l-4,2l-2,7.9l2,2v5.9l5.9,4l2,2l5.9,2l2,5.9l5.9,7.9l2,9.9l4,3.9v4l-2,7.9l-4,7.9l-2,9.9l4,2l7.9,7.9l7.9,5.9v9.9l-4,3.9
		v7.9l-2,5.9v15.8l-2,5.9l-4,7.9l-5.9,5.9l-7.9,2l-5.9,5.9l-2,5.9l-4,9.9l-4,9.9l-5.9,13.8l-4,2l-9.9,4l-3.9,4l-2,5.9l-2,5.5V-38
		l2,4l3.9,5.9l7.9,2l4,2l4,5.8l2,10l2,7.9l-2,11.9l-2,11.1v10.2l2,11.8l2,14.4V78l4,7.9l4,7.9l2,7.9v17.8l-4,7.9l2,13.8l2,7.9l2,3.9
		l4,7.9l2,7.9l2,4.2v7.6l2,5.9l2,8.5v5.4l4,3.9h4l4-5.9l2-7.9l7.9-4l2-7.9l7.9-7.9l9.9-2l7.9-4h25.7l5.9-2h13.8l4,5.9l4,9.9l2,5.9
		l7.9,7.3v4.6l4,5.9h9.9l9.9-9.9l7.9-11.9l4-9.9V159l-4-5.9l-4-11.9l2-7.9l2-13.8l4-15.8l3.9-13.8l4-9.9l5.9-13.8l4-13.8l5.9-19.8
		l4-17.8l4-4l5.9,2l5.9,4l5.9-2l4-5.9l6.7-11.9l4-19.8l2-13.8l4-15.8l4-13.8l3.9-9.9l5.9-5.9l7.9-9.9l5.9-4l3.9-5.9l4-4l5.9-4l5.9-4
		l3.9-2.6v-3.3l2-5.9l4-2l5.9-2l17.8-3.9l9.5,15.2l9.9-3.9l4-4l4-2h5.9l2,2l3.9,7.9c2.8,1.8,5.4,3.8,7.9,5.9c2,2,9.9,4,9.9,4
		l14.2-11.3l9.9,3.9l7.9,2l5.9,2l5.9,4l3.9,5.9l5.9,3.9l4,5.9l5.9,6.5v7.5c0,0,2,4,2,5.9s5.9,4,5.9,4l7.9,2l5.9,4l3.9,4l5.9,5.9
		l7.9,4l3.9,4v7.9l2,5.9l5.9,4l5.9,2h3.9l2,4l3.9,7.9l3.4,3.6l4,2l7.9,4l5.6,4.2l4.5,0.5l1.6-0.9l3.2-3.2l1.6-6.4v-8l-4.9-8.2
		l-3.2-8l1.6-11.3l8.1-9.7l1.6-18.1l5.9-13.8l7.9-7.9V-97l-1-3.6l-1.6-4.8l-4.8-4.8l-1.6-4.8l-6.4-8l-6.4-6.4l-11.3-6.4l-12.9-6.4
		l-11.2-4.6l-11.8-2l-5.9-5.9l-2-4v-7.9l-6.1-12.7l-7.7-11l-9.9-7.9l-7.9-13.8l-4-12.5v-54.6l2-20.9V-313l5.9-9.9l5.9-9.9l7.9-4
		l5.9-4l7.9-5.9l5.9-4h5.9l5.9,2l9.9-4l7.9-4l3.9-4l5.9-4l9.9-4l11.9-7.9l7.9-11.9l2-11.9v-13.8l-3.9-5.9l-5.9-5.9l-5.9-9.9
		l-15.8-9.9l-15.8-7.9l-13.8-5.9l-5.9-7.9l-2-15.8l2-15.8l1.8-6.2v-3.2h3.2l1.6,3.2v8.1l1.6,3.2l1.6,1.6h14.5l3.2-4.8l4.8-8.1l3.2-8
		l1.6-4.8l3.2-1.6v-1.5l-4.8-3.2l-3.2-3.2v-12.9l3.2-1.6h3.2l4.6-2.1l3.9-5.9l4.3-8v-8l-1.6-8l-1.1-3.8l1.6-1.6l8.1-3.2l8-3.2l8-4.1
		l7.9-9.9l17.8-15.8l7.9-7.9l11.9-7.9l9.9-11.8l17.8-21.9l17.8-19.8l15.8-17.8l11.9-11.8c2-2,13.8-9.9,13.8-9.9l9.9-5.9l15.8-5.9
		l21.7-4l12.3-2h78.5l5.9,7.9l5.9,4l5.9,5.9l5.9,4h2l2-4l7.9,5.9l5.9-2l2,2l13.8,11.8l11.8,7.9l7.3-0.2l6.6-1.7v4l-6.6,4.2l1.6,2.6
		l3-0.8l4.7-1.7h3.2l7.9,7.6l-2,4l-5.9,5.7v6.1l2,7.9l5.9,4l7.9,4l7.9,2v2l2,4l3.9,2l2,2l-3.9,4l-2,5.9v7.9l-3.8,4l1.9,2l5.9-2
		l7.9,5.9l3.9,5.9l5.9,9.9l3.9,2l9.9,4l11.9,5.9l7.9,4l2,5.9l3.9,7.9l5.9,5.9l5,4h6.7l-3.9,3.5v2.5l3.9,2v3.9l7.9,5.9l9.9,7.9
		l7.9,11.8l3.9,5.9l5.9,5.9v5.9l2,5.9l-2.3,3.1l-1.6,1.6l-3.2,3.2l-4.8,3.2l-3.2,1.6l-3.2,3.2l-1.6,4.8l1.6,1.6l1.6,3.2l3.2,3.2
		l1.6,1.6v3.2l1.6,1.6v3.2l1.6,1.6l3.2,1.6l5.5,2.1l-0.7,1.1l-4.8,3.2l-4.8,3.2v1.6l1.6,1.6h4.8l-1.6,4.8l1.6,3.2l-3.2,6.5l-3.2,4.8
		h-3.2l-1.6,1.6v3.2l1.6,3.2l1.6,4.8l1.6,4.8l1.6,4.8v6.4l-3.2,4.8l-6.4,3.2l-4.8,3.2l-1.6,3.8v5.9l1.6,4.8l3.2,1.6l3.2,6.4v3.2
		l-1.6,6.5l-3.2,2.5v2.1l3.2,1.6l4.8,6.4l1.6,4.8l3.2,4.8l3.2,6.5l3.2,1.6l4.8,3.2l1.6,3.2l1.6,1.6h6.4l3.2,1.6l1.6,3.2l3.2,4.8
		l3.2,1.6l8,3.2l4.8,1.6l4.8,4.8l3.2,6.4l4.8,1.6l3.2,3.2h1.6l1.6-1.6l4.8-3.2h3.2l4.8,1.6l4.8,1.6h9.7l3.2,1.6l1.6,3.2l1.6,3.2
		l6.4,4.8l3.2,1.6l3.2,1.6l3.2,3.2l3.2,1.6l4.8,3.2l6.4,1.6l4.8,1.6h4.8l3.2-1.6h11.3l6.4,1.6l8.1,4.8l4.8,1.6l4.8,3.2l4.8,4.8
		l3.2,6.4l3.2,4.8l3.2,3.2l4.8,3.2l6.4,3.2h1.6l3.2-1.6l3.2-6.1v-6.8l1.6-1.6h4.8l4.8-1.6l4.8-1.6h1.6l1.6,1.6l19.3,25.8l8.1,11.3
		l1.6,3.2l4.8,3.2l6.4,3.2l4.8,3.2l6.4,4.8l6.4,3.2l3.2,1.6h3.2l4.8-1.6h3.2l6.4,1.6h9.7l3.2-4.8v-9.7l-1.6-11.3l1.6-6.4v-3.2
		l-1.6-12.9v-16.1l1.6-4.8h1.6l4.8,8.1l9.7,11.3l8,8.1l3.2,4.8l6.4,3.2l3.2,4.8v4.8l4.8,3.2l6.4,1.6l6.4,1.6l6.4,3.2l6.4,1.6
		l3.2-1.6l4.8-3.2h3.2v1.6l-1.6,1.6l-6.4,8l-6.4,8.1l-9.7,6.4l-8,4.9l-14.5,9.7l-6.4,6.4l-1.6,9.7l-3.2,6.4l-6.4,1.6h-8.1l-8.1,1.6
		l-3.2,1.6l-4.8,6.4l-4.8,6.4l-3.2,4.8l1.6,4.8l-1.6,9.7l-1.6,6.4l-1.6,6.4l-3.3,4.9l-3.2,3.2l1.6,1.6l1.6,3.2l1.6,3.2l-3.2,1.6
		h-6.4l-9.7,1.6l-7.2,3.2l-4.1,3.2l-4.8,8v24.3l8.1,11.2l3.2,7.7l1.6,10l-1.6,6.6v8.4l1.3,4.9l5,5.2l12.6,8.7l6.8,4.8l8.7,8.7
		l1.9,8.7l1,7.7l3.9,11.6l6.8,10.6l10.6,12.6l9.7,7.7l13.5,4.8l12.6,1.9l9.7,1l5.8,5.2l12.6,1.6l7-1.6l5.6-2.3l6.8-3.2l6.7,1.3
		l3.8,1.6l9.1,2.6h5.4l8.7-2.3l7.7,1l5.4,1.3l4.6,1.6h3.2l4.8,1.6h9.7l8.1-3.2h3.2l9.7,1.6h6.4l1.6,1.6l-1.6,1.6l-3.2,4.8l-3.2,4.8
		v3.2l-3.2,1.6l-4.8,3.2l-1.6,3.2l1.6,9.7l3.2,8.1l3.2,8l3.2,4.8l1.6,14.5l-3.2,1.6h-8l-6.5,3.3h-4.8l-3.2-1.6l-8.1-3.2h-4.8
		l-6.4,1.6l-8.1,3.2l-1.6,3.2v3.2l1.6,6.4l1.6,11.3l-1.6,3.2h-3.2l-4.8-3.2l-3.2-1.6l-3.2-3.2l-4.8-1.6l-4.8-3.2l-4.8-1.6h-4.8
		l-3.2,1.6l-1.6,4.8l3,5.7l3,6l2,7l8.1,8.7l12.9,9.7l4.8,1.6l6.4,1.6l3.2,1.6l4.8,8l-1.6,0.8v2.4l1.6,1.6l12.9,11.3l11.3,8h6.4
		l6.4-3.2l6.4-1.6l6.4-4.8l9.7-1.6l9.7-4.8l6.4-1.6l6.4-1.6l4.8-3.2h1.6v4.8l-1.6,3.2l-3.2,8.1l-1.7,6.5l-4.8,14.5l-1.6,8.1l-3.2,8
		l-8.1,9.7l-12.9,17.7l-6.4,9.7l-3.2,8.1l-3.2,3.2l-4.8,6.4v1.6l-3.2,8.1l-1.6,3.2l1.6,1.6l1.6,1.6l3.2,1.6l4.8,3.2l4.8,1.6l3.2,1.6
		h8l11.3,8l4.8,4.8l4.8,3.2l3.2,1.6l3.2,1.6h9.7l6.4,3.2l1.6,2.7v2.1l3.2,3.2l1.6,1.6h3.2l7.4,2.4l9.1,3.4l11.4,1.1h11.2l10.4,2.3
		l8.7,0.5l4,1.6h10.5l3.2-1.6l6.4-1.6l4.8-1.6l1.6-3.2l8.1-16.1l3.2-3.2l14.5-17.7l3.2-5.9v-10.2l1.6-1.6l1.6,1.6l1.6,1.6h3.2
		l1.6-1.6l3.2-3.2v-4.8l-3.2-3.2l-4.8-3.8v-4.2l4.4-1.6h3.7l4.8-3.2h3.3l4.8-1.6l4.8-4.8l1.6-4.8l3.2-1.6l4.8-1.6l4.8-1.6l1.6-4.8
		l1.6-4.8l1.6-3.2l3.2-4.8l3.2-4.8l3.2-3.2l4.8-1.6l4.8-3.2l3.2-4.8l1.6-4.8v-6.5l1.6-6.4l1.6-4.8h1.6l2.6,1.6h2.3l1.6-3.2l4.8-1.6
		h4.9l3.2-1.6l11.3-8l4.8-6.4l14.5-16.1v-8.1l2.6-6.4l2.2-3.2l3.2,1.6l-0.1,1.6h3.4l3.2-3.2l8.1-9.7l1.6-3.2l-1.6-4.8v-12.9l3.2-3.2
		l3.2-1.6l4.8-1.6l1.6,1.6l1.6,3.2l3.2-1.6l14.5-16.1l1.6-3.2v-3.2l1.6-3.2l2-3.2l4.4-4.8l6.4-3.2h4.8l1.6,1.6l1.6,1.6l1.6,3.2
		l1.6,1.6l3.2-1.6l4.8-4.8l3.2-12.9l1.6-12.9l1.6-3.2v-3.2l-1.6-3.2l-3.2-6.4l3.9-5.2h12.5l6.8-20.4V86.8l-2.3-9.1l-5.7-3.4
		l-5.7-3.4l0.1-4.6l-1.6-6.4l-1.6-4.9l-4.8-3.2l-4.8-1.6l-4.8-1.6l-5.5-1.6h-5.8l-6.4-4.8l-6.4-4.8l-8.1-4.8l-1.6-4.8l-1.6-8
		l-1.6-9.7V6.7l3.2-6.4l1.6-6.4l1.7-1.6l1.6-1.6l3.2-3.2v-3.2l-1.6-1.6l-4.8-1.6h-3.2l-3.2,1.6l-3.2,1.6h-3.2l-3.2-1.6l-1.6-1.6
		h-4.8l-1.6,1.6l-8.1,6.5h-4.8l-3.2,1.6l-5.3,1.6h-7.6l-1.6-1.6l-3.2-4.8v-3.2l4.8-12.9l3.2-4.8l8-9.7l4.8-3.2l3.2-3.2l1.6-4.8v-3.2
		l1.6-1.6l3.2-3.2l1.6-3.2l1.6-4.8l3.2-3.2l6.4-4.8l3.4-3.2h9.4l8.1-4.8l9.7-6.4l11.3-8l8.1-6.4l3.2-6.4l3.2-6.4l4.8-3.2l3.2-4.8
		l4.8-8.1l4.8-4.8l1.6-4.8l1.6-8.1l1.6-8l3.2-11.3l1.6-6.4l3.2-3.2l4.8-6.4l1.6-8.1l3.2-8.1l6.4-4.8l1.6-4.8l6.4-9.7l1.6-6.4
		l3.2-9.7l1.6-11.3l1.6-3.2l4.8-4.8h1.6l2.4,1.6h2.4l1.6-1.6l4.8-6.4v-8.1l-1.6-4.8l-1.6-4.8l-0.8-3.2l-2.4-1.6l-1.6,1.6h-4.8
		l-3.2-1.6l-4.8-4.8v-4.8l-3.2-4.8l-1.6-4.8v-4.8l-1.6-4.8l-3.2-4.8l-3.2-6.4v-3.2l3.2-8v-4.8l-3.2-4.8l-1.6-3.2v-9.7l1.6-3.2v-3.2
		l-3.2-3.3l-1.6-4.8l-1.6-16.1l-1.6-11.3v-3.2l-1.6-4.8l-1.6-3.2l-1.6-1.6l-1.6-1.6l-1.6-1.6h-3.2l-1.6-1.6l-1.6-1.6v-3.2l-1.6-1.6
		l-3.2-1.6l-6.4-1.6l-3.2-1.6l-8.1-3.2h-3.2l-8-3.2h-8.1l-11.3-3.2l-8.1-3.2l-4.8-6.4l-3.2-6.5l-1.6-3.2l-1.6-3.2l-3.2-1.6h-4.8
		l-4.8,1.6l-4.8,1.6l-3.2,3.2l-1.6,1.6l-3.2,1.6h-1.6l-1.6-1.6l-1.6-1.6l-1.6-1.6v-4.8l1.6-4.8l1.6-4.8l1.6-3.2l1.6-3.2l3.2-3.2
		v-9.7l-3.2-4.8l-1.6-3.2v-3.2l-1.6-1.6h-4.8l-1.6-1.6l-1.6-1.3v-3.5l1.6-3.2l1.6-3.2l3.2-3.8v-2.7l1.6-1.6l8-8.1l3.2-1.6l1.6-1.6
		l3.2-1.6h3.2l1.6,1.6l1.6,1.6l3.2,1.6l3.2,3.2l3.2,1.6h8.1l3.2-1.6h3.2l1.6-3.2l1.6-4.8l1.6-4.8l6.4-1.6h3.2l3.2-3.2l4.8-1.6h4.9
		l3.2-1.6l3.2-3.2h8l3.2-1.6l3.2-1.6h6.4l3.2,1.6l1.6,1.6l9.5,4.8h19.5l4.8,1.6l3.2,1.6l3.2,1.6l1.6,1.6l3.2,4.8l1.6,1.6l1.6,1.6
		l1.6,1.6l3.2,1.6l4.8,1.6l4.8,1.6h8l2.4,0.8l1.6,1.6l1.6,1.6l1.6,1.6l1.6,3.2l1.6,3.2l1.6,4.8l1.6,3.2v4.8l1.6,8v1.6l3.2,3.2
		l1.6,3.7v4.3l1.6,6.4l1.6,4.8l4.8,9.7l3.4,5.6l3.1,4l1.6,1.6l22.6,21l3.2,3.2l1.6,1.6l1.6,3.2l1.6,2.3v2.5l1.6,1.6l1.6,1.6v3.2
		l-0.8,2.2v3.5l1.6,3.3l1.6,3.2v25.8l-1.6,3.1v3.4l3.2,3.2l3.2,4.8l3.2,4.8l3.2,4.8l1.6,4.8l3.2,3.2l6.4,1.9v4.5l4.8,1.6l9.7,3.2
		l8,3.2l12.9,4.8l14.1-3.5l16.4-11.6l8.7-17.4l-2.9-20.3l-6.8-21.3l1.5-12.7l8.2-4l6.8,13.8l5.8,18.4l4.8,15.5l21.8,13.5h9.9"/>
	<path id="Pre1900_HKI" class="st0" d="M728.5,1195.4l0.1-0.7l1-4.5l1.6-6.5l1.6-4.8l9.7-17.8l6.5-17.8l1.6-4.8l-1.6-22.4v-13.1
		l-1.6-4.8l-3.2-3.5l-1.6-4.6v-4.8l1.6-1.5v-1.7l-1.6-3.2l-4.8-8.1l-7.3-8.1l-2.4-1.6l-8.1,1.6l-3.2-3.2l-1.6-3.2v-3.2l3.2-8.1
		l-1.6-3.2l-8.1-6.5l-1.6-1.6l1.6-1.6l3.2-1.6v-1.6l1.6-3.2l3.2-3.3v-3.2l-4.8-3.2l-4.8-4.8l-1.6-3.2l-4.8-1.6l-1.6-1.6l-1.6-3.2
		l-1.6-3.2l-4.8-3.2l-3.2-3.2h-3.2l-1.6,3.2l-1.6,2.3v2.6l-1.6,3.2l-1.6,1.8v7.9l-3.2,1.6h-6.5l-1.6,1.6l-1.6,3.2v3.2l-1.6,3.2
		l-3.2,1.6h-1.6l-3.2,1.6l-3.2,4.8l-1.6,3.2l-1.6-1.6v-3.2l-3.2-3.2l-4.8-1.6h-6.5l-1.6-1.6l-4.8-1.6l-1.6-1.6l-4.8-1.6l-3.2-3.2
		l-6.5-1.6l-4.8-4.8l-1.6-6.5l-1.6-3.2l-4.8-8.1l-3.2-9.7v-9.7l-1.6-1.6l-4.8-4.8l-1.6-3.2l3.2-4.8l1.6-11.3l1.6-8.1l3.2-8.1
		l-1.6-1.6L594,923v-5.8l-4.8-10.4v-7.3l-3.2-1.6l-3.2-3.2l-0.8-6.9l-2.4-6l-1.3-3.2l-2-1.6l-6.5,1.6l-1.6-1.6l-1.7-4.9l-1.6-1.6
		l-6.5-4.8l-4.8-4.8l-1.6-4.8l1.6-3.2l-1.6-3.2l-3.2-1.6l-3.2-1.6v-3.2l1.6-1.6v-1.6l-1.6-1.6l3.2-3.2l3.2-3.2v-4.8l1.6-8.1l3.2-4.8
		l3.2-8.1v-6.5l-3.2-8.1l-4.8-1.6l-6.5-1.6l-3.2-1.6l-1.6,1.6l-4.8,3.2l-8.1,3.2l-4.8,3.2H518l-6.5,1.6l-8.1,1.6l-10.7-1.6h-5.5
		l-4.9-1.6l-3.4-1.6h-3l-3.2-1.6l-3.2-1.6l-5.1-3.2h-11.1l-11.3-6.5l-3.2-4.8l-1.6-1.6l-3.3-1.6l-1.6-3.2l-3.2-6.5l-8.1-12.9
		l-6.5-9.7l-6.5-6.5l-8.1-4.8l-9.7-3.2l-6.4-6.5l-4.9-6.5l-1.6-6.5v-14.5l1.6-24.2l-1.6-6.5l-1.6-9.7l-1.6-11.3v-4.8l1.6-3.2
		l4.9-6.5l6.5-6.5l3.2-8.1l1.5-11.3l1.6-8.1l1.6-6.5l3.2-4.8l4.8-4.8l12.9-8.1l24.2-11.3l17.8-6.5l28.2-8.1h13.9l4.9-3.2l3.2-3.2
		l1.6-1.5l1.6,1.6l3.2,1.6h4.8l8.1-1.6l3.2-1.6l1.6-3.2l3.2-4.8l1.6-3.2l4.8-3.2l4.8-3.2l4.8-1.6l3.2,1.6l2.6,0.8h4.7l4.8-1.6
		l6.2-3.2h8.3l7.3,7.3l6.5,8.3l4.1,2l6.1,4.1l6.1,2l8.2,2h8.2l8.2-2l8.2-2l6.1-2l6.1-2l10.1-6.2l6.1-6.1l4.1-6.1l4.1-8.2l2-6.1
		l2-6.1l4.1-4.1l4.1-4.1l6.1-4.1l8.2-4.1l6.1-6.1l4.1-4.1l4.1-2l6.1-4.1l2-10.2l2-6.1l4.1-6.1l4.1-6.1v-10.2v-0.8
		c-0.8-1.3-2.1-3.3-2.1-3.3l2-6.1l4.1-4.1h8.2l6.1,2l8.2,2l12.5,1.8l3.5,3.1l2.9,2.9l2,1.4l8.1,6.1l6.1,2h22.3l10.1-2l6.1-2l8.1-4
		l8.1-4l6.1-4l6.1-4l6.1-2l8.1-2h12.2l5.8,0.6l6.4,1.6h6.4l6.4-1.6l2.5-2.2l8.1-4l2-6.1l2-6.1l2-2l4-0.4h14.2l6.1,0.4l4,1.1l2.1,4.9
		v4l4,4l6.1,2h24.3l6.1,2h4l8.1,2l3-1.5l3.2-1.6h3.2l6.4,1.6l1.6,1.6l4.8,4.8l3.2,3.2l4.8,3.2l6.4,1.6h4.8l6.4-3.2l6.4-4.8l6.4-3.2
		l6,0.8l6.1,6.1l6.1,4l6.1,6.1h12.5l2-4l4-2h4.1l2,4l6.1,4l6.1,4l2,4v6.1l6.1,2l6.1,2h4l4-2l4.1-2h2l4-2l2-4h6.1l6.1,2h12.2l8.1,4
		l4,2h10.1l6.1,2l4,2l2,2l2,2l4,4l6.1,4l2,6.1v8.1l2,4l6.1,6.1l2,4l4,4l4,4l2,4l2,2l4,4l4,6.1l2,6.1l4,4l4.1,6.1l6.1,6.1l4,4l2,4
		l2,4l2,4l6.1,4l4,8.1l4,4h6.1l6.1,2h6.1l4,2l4-2h15.5l4-2l10.1-2l10.1,2l10.1,2l12.2,4l10.1,4l10.1,4l6.1,4l8.1,6.1l8.1,6.1
		l8.1,6.1l2,4v8.9l2,2h1.8l2.2-2l2-2l6.1-2h14.2l4-2l4.1-2l4-4l6.1-4h2l2,2l2,2l4,4l2,2l4,4v2.6l-6.1,5.5l-4,4l-4,6.1l2,4h7.9l8.3,2
		l6.1,4l4.1,2l4,2l6.1,4l4,2l4,4l2,2l8.1,6.1l6.1,4l6.1,4l6.1,4l4,4l4,2h10.1l6.1-2h4l6.1,2l6.1,4h27.5l4.9,4l8.1-2l4-2l6.1-2l4.1-2
		l6.1-2l8.1-6.1l6.1-2l8.1-2h6.1l6.1-4l4.1-2l4-2l14.2,4l14.2-10.1l6.1-8.1v-8.1h12.9l20.2-6.1l10.1-8.1l8.1-2l12.1,18.2l-2,12.2
		l4,18.2l4,4h12.2l8.1-3.6l8.1-8.5l6.1-8.1l6.1-2l14.2-6.1l10.1-10.1l-6.1-16.2v-8l2-6.1v-4l-2-6.1v-4l2-10.1l2-6.1l4-6.1l2-6.1
		l2-6.1v-4l-4-4l-2-2v-2l2-2l2-2l2-2l4.1-2l6.1-2l6.1,2l6.1,6.1l2,10.1v4l-2,6.1l-4,4l-2,4v4l6.1,2l6.1,4l8.1,8.1l8.1,6.1l10.1,4
		l12.2,4l12.1,2h16.2l6.1,8.1l8.1,6.1l6.1,2l10.1-2l10.1-4l10.1-2l14.2-4h30.4l8.1-6.1l2-8.1l-2-10.1l-4.1-8.1l-4.1-10.1v-14.4
		l-2-12.2l-2-12.2v-16.2l-2-16.2v-16.2l-2-16.2l-2-18.2l-2-10.1v-12.1l2-8.1l6.1-6.1l14.2-18.2l12.1-14.2l24.3-28.4l10.1-12.1
		l8.1-6.1l8.1-4h8.1l10.1,2l8.1,2l10.1,2l8.1,2h22.3l8.1-2l10.1-2l14.2-4l14.2-4l14.2-2l16.2-2h18.2l5.8-1.5l9.6-4.8l11.2-4.8
		l12.8-4.8l9.6-3.2l11.2-6.4l6.4-3.2l3.3-0.8h3.9l24.1,3.2l20.9,6.4l16,6.4l12.8,9.6l11.2,16l8,20.9l8,32.1l3.2,9.6l3.2,8l6.4,16
		l9.8,20l7.9,12l9.2,10.5l3.7,0.7h4.8l6.4-4.8l4.8-4.8l1.6-8l1.6-4.8l3.2-3.2l4.8-1.6h4.8l4.8,3.2l2.3,4.8l2.5,4.8l3.2,4.8l6.4,9.6
		l4.8,9.6l1.6,1.6h1.9l1.5-1.5l4.8-4.8l6.4-9.6l4.8-4.8l4.8-3.2l8-4.8l4.6-1.6h5.1l6.4,1.6l6.4,3.2l8,4.8l8,4.8l16,6.4l18.6,3.2h8.7
		l6.4,1.6l4.8,3.2l9.6,9.6l11.2,11.2l4.8,8l3.2,3.2l4.8,8l3.2,3.2l6.4,8l8,11.2l6.4,11.2l8,8l4.8,3.2l8,3.2l14.4,8l9.6,3.2l14.4,3.2
		l3.6,4l2.9,7.2l4,5.7l4.9,9.7l11.4,22.7l11.4,22.7l4.9,3.3l9.7,4.9l14.6,6.5l8.1,3.2l4.9,4.9l11.4,4.9h11.4l8.1-8.1l6.5-11.4
		l3.2-8.1l-1.6-4.8l-6.5-6.5l-4.9-21.1l4.9-9.7l11.4-29.2v-6.5l-1.6-11.3l-1.6-8.1l-1.6-8.1l1.6-4.9l4.9-6.5l6.5-4.9l9.7-1.6
		l6.5,1.6l4.9,1.6l11.4,3.2h9.7l11.4-4.9l6.5-6.5l1.6-4.9l-3.2-1.6l-1.6-4.9l1.6-3.3v-1.6l-1.6-3.2l1.6-3.3l3.2-1.6l-1.6-3.2
		l1.6-1.6l4.9-3.3l6.5-3.2l4.2-3.5l5.7-1.1l10.2,3.4l10.2,9.1l7.9,9.1l5.7,6.8l6.8,7.9l4.5,5.7l4.5,3.4l3.4,5.7l5.7,3.4l5.7,4.5
		l4.5,4.5l4.5,3.4l5.7,2.3l8,4.5l3.2,3.8l6.4,3.3l4.1,4.1l0.1,1.4l-1,1l-1.6,1.6l1.6,3.2l1.6,1.6h3.2l1.6,1.6v3.2l-1.6,3.2l-1.6,4.9
		l-1.6,4.9l-6.5,11.3l-1.6,4.9l-3.2,1.6l-4.9,4.9l-3.2,1.6l-6.5,1.6h-3.2l-6.5,4.9h-1.6l-3.2,1.6l-8.1,9.7l-1.6,4.9v6.5l3.2,3.2
		l8.1,11.4v1.6l3.2,4.9l8.1,9.7l1.6,3.3l1.6,3.2l4.9,4.9l6.5,8.1l1.6,8.1l1.6,4.9l3.2,4.9l6.5,4.9h4.9l4.9-1.6l6.5-1.6l17.9-4.9h3.2
		l4.9,1.6h3.3l1.6-1.6l6.5-6.5h1.5v6.5l1.6,4.9l-1.6,8.1l-1.6,3.2v1.6l-1.6,1.6h-4.9l-1.6,1.6l-3.3,1.6l-1.6,3.3h-1.6l-4.8-3.2
		l-1.6-1.6l-1.6,1.6l-1.6,3.3l-3.2,6.5l-4.9,3.3h-3.2l-1.6,1.6l1.6,3.2l-1.6,4.9l-6.5,8.1l-4.9,3.2l-6.5,8.1l-1.6,4.9v4.9l3.2,4.9
		l-1.6,1.6l-4.9,9.7l-1.6,9.7l-1.6,3.3l-8.1,4.9v3.3l1.6,6.5l-1.6,3.2v3.2l1.6,3.3l3.3,1.6l1.6,3.2v1.6l1.6,1.6l-4.9,3.2l-4.9,4.9
		v4.9l-3.2,1.6l-3.3,1.6v3.2l1.6,6.5l-1.6,4.9l-3.2,4.9l-3.2,8.1l-3.3,11.3l-4.9,3.3v3.2l1.6,3.2l3.2,9.7l6.5,13l3.2,4.9l1.6,3.2
		h3.3l3.2-3.2l6.5-1.6l1.6,3.3v3.2l-1.6,9.7l-1.6,4.9l-6.5,13l-3.2,1.6h-3.3l-6.5,3.2l-4.9-1.6l-8.1-4.9v-4.9l1.6-3.3l1.6-4.9v-3.3
		l-1.6-1.6l-4.9-3.2h-1.6l-1.6,3.2l-1.6,1.6l-3.2,1.6h-4.9l-3.3-3.2l1.6-4.9l1.6-4.9v-4.9l-1.6-3.2h-1.6v4.9h-6.5l-4.9-3.3h-1.6
		l-1.6,3.3l-1.6,1.6v3.2l1.6,1.6h-4.9l-3.2,3.3l1.6,1.6l1.6,1.6v3.2l1.6,3.3l1.6,4.9l-1.6,3.3v1.6l3.3,4.9l3.2,3.2l1.6,4.9l3.3,6.5
		l1.6,1.6h8.1l1.6,1.6l4.9,8.1h9.7l3.3,3.2l1.6,4.9v4.9h6.5l8.1,4.9v3.2h6.5l4.9-1.6l8.1,1.6l11.4-8.1h3.3l4.9-3.2h3.3l6.5-6.5
		l6.5-3.2l6.5-8.1l6.5-1.6h9.7l6.5-1.6l8.1-3.2l3.2-5.9l1.7-0.5l9.8-4.8l9.7-4.9l3.2-4.9l13-13h1.6l3.3,3.2h3.2l4.9-1.6h4.9l1.6-4.9
		l6.5-3.3l11.4-3.2v-1.6l4.9-3.3h6.5l3.3-1.6l3.2,3.2h6.5l3.2,1.6l4.9,4.9h1.6l3.2-1.6l1.6,1.6l4.9,4.9l4.9,1.6l1.6,1.6v4.9l3.3,4.9
		l4.9,6.5l1.6,3.2l3.3,4.9l3.2,1.6l3.3,3.3l14.6,14.6l1.6,6.5l1.6,1.6l3.3,4.9l6.5,14.6l1.6,3.2l-1.6,3.2l1.6,3.3v4.9l1.6,3.3
		l6.5,4.9h1.6l1.6-4.9l3.2-3.3l4.9-1.6l4.9-3.2l8.1-4.9l8.1-8.1l9.7-6.5l6.5-6.5l4.9-11.4l3.2-13l-0.8-4.3l-7.3-15.2l-1.6-3.2
		l1.6-1.6l4.9-1.6l3.2-1.6l8.1-4.9l2.8-1.3l3.4-3.4l6.8,4.5l5.7,5.7l4.5,3.4l4.5,1.1l4.5,3.4l7.9,4.5l11.4,13.6l5.7,3.4l3.4,3.4
		l3.4,3.4l6.8,5.7l4.5,5.7l3.4,3.4l5.7,4.5l3.4,2.3l4.5,6.8l11.4,12.5l4.8,9.8l1.6,4.6l0.4,1.5l-2.3,2.3h-1.1l-3.4-1.1l-1.7-0.7
		h-4.9l-3.7,4.1h-4.5l-9.1,1.1l-3.8,4.5h-3.2l-1.6,4.9l-3.3,4.9l-4.9,9.7l-1.6,8.1l-3.3,8.1v3.2l3.3,3.3v3.2l1.6,1.6l1.6,4.9h1.6
		l1.6,1.6l-1.6,3.2l1.6,4.9l-1.6,3.2l1.6,4.9l1.6,1.6l-1.6,3.3l1.6,3.2h1.6l1.6-1.6l1.6,1.6v1.6l3.2,4.9l6.5,8.1l-1.6,1.6v3.2
		l-1.6,3.3l1.6,1.6h1.6l6.5,6.5v1.6l-1.6,1.6h-1.6l-3.2,3.2v3.3l3.2,4.9l-1.6,3.3l-1.6,8.1l-3.2,1.6l-4.9-3.3h-3.2l-1.6,3.3
		l-0.9,4.3"/>
	<g id="_2019_HKI_Shoreline" class="st1">
		<polyline class="st2" points="3484.1,941.4 3482.9,940 3482.6,939.1 3482.9,937.9 3482.9,937.1 3481.2,935.9 3477.1,933 
			3476,932.4 3391.2,848.8 3360.3,880.4 3343.8,859.8 3337,839.3 3322.2,788.3 3319.7,782.7 3319.4,782.5 3319.4,770.8 
			3316.9,763.5 3312.2,751.7 3302.9,738.9 3298.4,742.3 3307.2,754.5 3311.6,765.4 3313.7,771.7 3313.7,782.9 3301.8,795.1 
			3315.4,843.9 3273.9,878.5 3265.3,878.5 3256.7,877.1 3252.4,871.4 3246.7,862.8 3246.7,862.8 3248.1,858 3229.3,833.8 
			3288.3,764.7 3282.4,757.2 3287,753.1 3274.5,739.5 3256.4,723.6 3230.3,683.8 3227.2,686.5 3227.2,686.5 3227.8,684.8 
			3227.8,682.8 3215.5,618 3212.1,608.9 3170.3,579.8 3165.8,574.8 		"/>
		<line class="st3" x1="416.3" y1="569.9" x2="418.5" y2="566.5"/>
		<polyline class="st4" points="422.7,560 426.8,553.7 457.5,541.6 489.2,529.7 		"/>
		<polyline class="st3" points="492.9,528.3 496.6,526.9 495.2,523.2 		"/>
		<polyline class="st3" points="491.7,513.8 490.3,510.1 493.5,507.8 		"/>
		<line class="st5" x1="498.6" y1="504.1" x2="516.4" y2="491.1"/>
		<polyline class="st3" points="518.9,489.3 522.2,486.9 524.3,490.3 		"/>
		<polyline class="st3" points="524.9,491.3 527,494.6 523.7,497 		"/>
		<line class="st6" x1="517.5" y1="501.4" x2="508.2" y2="508.1"/>
		<polyline class="st3" points="505.1,510.3 501.8,512.7 503.1,516.5 		"/>
		<polyline class="st3" points="504.3,519.8 505.6,523.6 509.3,522.2 		"/>
		<polyline class="st7" points="516.7,519.4 560.8,502.8 578.6,499.6 599.4,495.9 619.2,492 		"/>
		<polyline class="st3" points="623.1,491.3 627,490.5 627,488.7 628.5,487.1 		"/>
		<polyline class="st8" points="633.9,481.7 644.4,471 673.6,443.3 730.1,389.4 		"/>
		<polyline class="st3" points="732.9,386.7 735.8,384 739.7,384.6 		"/>
		<line class="st9" x1="748.6" y1="386" x2="779.6" y2="390.9"/>
		<polyline class="st3" points="784,391.6 787.9,392.2 787.3,388.3 		"/>
		<polyline class="st3" points="784.8,378 783.7,374.1 779.8,373.4 		"/>
		<line class="st10" x1="771.9" y1="372" x2="728.7" y2="364.1"/>
		<polyline class="st3" points="724.7,363.4 720.8,362.7 721.5,358.8 		"/>
		<polyline class="st3" points="721.6,358.1 722.2,354.1 726.2,354.8 		"/>
		<polyline class="st6" points="733.7,356.1 770.9,362.7 779.5,362.7 790.1,359.7 		"/>
		<polyline class="st3" points="793.8,358.7 797.6,357.6 796.5,353.7 		"/>
		<polyline class="st3" points="795.9,351.4 794.8,347.5 800.4,346 801.5,349.8 		"/>
		<polyline class="st3" points="802.1,352.2 803.2,356.1 807.1,355 		"/>
		<polyline class="st3" points="813.9,353.1 817.7,352.1 816.6,348.2 		"/>
		<polyline class="st3" points="816.2,346.5 815.1,342.7 820.7,341.1 821.8,345 		"/>
		<polyline class="st3" points="822.2,346.7 823.3,350.5 827.2,349.5 		"/>
		<polyline class="st3" points="836.6,346.8 840.5,345.7 839.4,341.9 		"/>
		<polyline class="st3" points="839.4,341.7 838.3,337.9 843.9,336.3 845,340.2 		"/>
		<polyline class="st3" points="845,340.3 846.1,344.2 849.9,343.1 		"/>
		<line class="st11" x1="855.7" y1="341.5" x2="864.3" y2="339.1"/>
		<polyline class="st3" points="867.2,338.3 871,337.3 869.9,333.4 		"/>
		<polyline class="st3" points="869.8,332.9 868.7,329 873.4,327.7 874.5,331.6 		"/>
		<polyline class="st3" points="874.6,332.1 875.7,336 882.5,334.1 881.5,330.2 		"/>
		<polyline class="st3" points="881.4,330 880.3,326.1 885,324.8 886,328.7 		"/>
		<polyline class="st3" points="886.1,328.9 887.2,332.8 891,331.7 		"/>
		<polyline class="st12" points="898.7,329.6 908.2,326.9 919.7,324.1 1031.3,328.4 1135.3,354.7 1139.8,360.3 1154.6,378.5 
			1165.5,381.4 		"/>
		<polyline class="st3" points="1169.3,382.4 1173.2,383.5 1174.2,379.6 		"/>
		<polyline class="st3" points="1175,376.6 1176,372.8 1175.4,371.9 1169.3,370.5 1169.3,369.6 1169.6,367.6 1168.8,367.3 
			1168.2,369.3 1164.3,368.2 		"/>
		<polyline class="st3" points="1162.7,365.9 1162.1,365 1162.7,362.1 1165.9,360.3 1166.2,360.3 1166.2,360.4 		"/>
		<polyline class="st3" points="1166.3,360.4 1170.2,361.5 1169.9,363.5 1170.8,363.5 1171.4,361.8 1171.7,360.9 1175.5,362 		"/>
		<line class="st13" x1="1180.7" y1="363.4" x2="1188.6" y2="365.5"/>
		<polyline class="st3" points="1191.2,366.2 1195.1,367.3 1195.7,366.7 1196.5,363.6 		"/>
		<polyline class="st3" points="1197.7,359.2 1198.6,356 1198.3,355.4 1193.3,354 1193.9,352 1193.1,351.7 1192.5,353.7 
			1190.7,353.4 1191.3,351.1 1190.4,351.1 1190.2,353.1 1186.3,352.1 		"/>
		<line class="st14" x1="1181.9" y1="350.9" x2="1175.4" y2="349.2"/>
		<polyline class="st3" points="1173.2,348.6 1169.3,347.6 1167.6,344.4 1168.5,341.5 1169.3,341 1173.2,342 		"/>
		<polyline class="st15" points="1181.4,344.2 1201.7,349.6 1210.1,352 		"/>
		<polyline class="st3" points="1214.2,353.2 1217.1,354 1217.6,354.9 1216.8,357.7 1215.9,358.2 		"/>
		<polyline class="st3" points="1214.2,359.1 1213.6,359.5 1210.4,358.6 1211,356.3 1209.8,356.3 1209.3,358.3 1207.8,357.7 
			1208.4,355.7 1207.5,355.4 1206.9,357.7 1202,356.3 1201.4,356.6 1200.4,360.5 		"/>
		<polyline class="st3" points="1199.4,364.3 1198.6,367.6 1198.8,368.1 1205.2,369.9 1204.9,370.8 1205.2,371 1204.6,372.8 
			1205.5,373.1 1206.1,371 1210.4,372.2 1212.1,375.4 1211.3,378.3 1208.4,380 1204,378.9 1204.3,377.1 1203.8,376.8 1203.2,378.6 
			1202.9,378.6 1202.6,379.4 1196.5,377.7 1195.7,378.3 1194.9,381.1 		"/>
		<polyline class="st3" points="1193.9,384.8 1192.9,388.7 1196.8,389.7 		"/>
		<polyline class="st16" points="1204.3,391.7 1210.2,393.3 1221.5,393.3 1228.8,399.5 		"/>
		<polyline class="st3" points="1231,402.7 1233,406.2 1233,406.2 1234.7,404.8 1236,403.5 		"/>
		<line class="st17" x1="1242.5" y1="396.9" x2="1265.1" y2="373.4"/>
		<polyline class="st3" points="1268.4,370.1 1271.1,367.2 1273.5,367.8 1272.4,371.6 		"/>
		<polyline class="st3" points="1270.5,378.7 1269.4,382.5 1276.6,384.5 1278.1,387.1 1282.7,388.3 1284.2,387.7 1285.2,383.9 		"/>
		<polyline class="st3" points="1287.4,375.7 1288.5,371.8 1294.3,373.3 1293.2,377.1 		"/>
		<polyline class="st3" points="1291,385.3 1289.9,389.2 1290.2,389.2 1291.1,390.6 1295,391.6 		"/>
		<polyline class="st3" points="1299.9,392.8 1303.8,393.8 1305,392.9 1305.6,390.5 		"/>
		<polyline class="st3" points="1308.3,380.5 1309,377.6 1309.9,377 1314.8,378.5 1315.4,379 1314.3,382.9 		"/>
		<polyline class="st3" points="1312.1,391.1 1311.1,395 1311.9,395.8 1314.6,396.5 		"/>
		<polyline class="st3" points="1322.7,398.5 1324.9,399 1326.4,398.1 1327.4,394.3 		"/>
		<polyline class="st3" points="1329.3,386.3 1330.2,383.1 1330.4,382.8 1330.7,382.8 1330.7,382.5 1331,382.5 1335.6,384 
			1335.9,384 1335.9,384.3 1336.2,384.3 1336.2,384.5 1335.3,388.1 		"/>
		<polyline class="st3" points="1333.2,395.7 1332.2,399.6 1333,401 1335.3,401.7 		"/>
		<polyline class="st3" points="1343.4,404.1 1345.8,404.8 1347.2,404.2 1348.4,400.4 		"/>
		<polyline class="st3" points="1350.8,392.7 1351.8,389.2 1351.8,388.9 1352.1,388.9 1352.4,388.6 1353,388.9 1356.2,389.8 		"/>
		<line class="st18" x1="1356.9" y1="393.3" x2="1354.8" y2="399.9"/>
		<polyline class="st3" points="1354.2,402.1 1353,406 1353.9,407.1 1353.6,407.7 1357.4,409 		"/>
		<polyline class="st3" points="1362.5,410.7 1366.3,412 1366.6,411.5 1367.8,410.9 1368.5,408.9 		"/>
		<polyline class="st3" points="1371.9,399.6 1373.2,396.1 1373.2,395.8 1373.5,395.8 1373.8,395.8 1374.1,395.8 1378.4,397.3 
			1378.7,397.6 1379,397.6 1379,397.9 1379,398.1 1377.8,401.4 		"/>
		<polyline class="st3" points="1374.9,409.1 1373.5,412.9 1374.4,414.3 1374.1,414.6 1377.8,416.1 		"/>
		<polyline class="st3" points="1382.8,418.1 1386.6,419.5 1386.8,419.3 1388.3,418.4 1389,416.6 		"/>
		<polyline class="st3" points="1392.9,407.2 1394.1,404.2 1394.4,403.9 1394.7,403.6 1394.9,403.6 1398.3,405.1 		"/>
		<line class="st19" x1="1398.8" y1="409.1" x2="1395.9" y2="416.3"/>
		<polyline class="st3" points="1394.9,418.7 1394.1,420.7 1394.7,422.4 1394.4,422.7 1396.4,423.6 1398,424.3 		"/>
		<polyline class="st3" points="1402.6,426.3 1406.2,427.9 1408.2,426.8 1408.9,425.2 		"/>
		<polyline class="st3" points="1412.8,416 1414.3,412.3 1420.1,414.6 1418.6,418.3 		"/>
		<polyline class="st20" points="1416.3,423.6 1414,429.1 1415,431.6 		"/>
		<polyline class="st3" points="1416.1,434.3 1417.5,438.1 1421.3,436.8 		"/>
		<polyline class="st3" points="1429.6,433.9 1431.7,433.1 1432.3,433.1 1432.5,433.1 1433.1,433.4 1433.4,433.4 1433.7,433.7 
			1434,434.3 1434.3,434.6 1434.3,435.2 1434.3,435.5 1434,436 1433.7,436.6 1433.4,436.9 1432.8,436.9 1429.6,438 		"/>
		<polyline class="st3" points="1422.4,440.5 1418.7,441.8 1420,445.6 		"/>
		<polyline class="st3" points="1422.2,451.6 1423.6,455.4 1427.3,454.1 		"/>
		<polyline class="st3" points="1435.1,451.4 1437.7,450.5 1438,450.5 1438.3,450.5 1438.6,450.5 1438.9,450.5 1439.2,450.8 
			1439.5,450.8 1439.8,451.1 1439.8,451.4 1440.1,451.6 1440.1,451.9 1440.3,452.2 1440.3,452.5 1440.3,452.8 1440.1,453.1 
			1440.1,453.4 1439.8,453.7 1439.5,454 1439.2,454.3 1438.6,454.5 1437.8,454.8 		"/>
		<polyline class="st3" points="1428.5,457.9 1424.7,459.2 1426.1,463 		"/>
		<polyline class="st21" points="1427.7,467.7 1428.8,470.8 1432.5,473.2 		"/>
		<polyline class="st3" points="1434.6,474.6 1437.7,476.5 1438,476.5 1438.6,479.1 1442.3,480.6 		"/>
		<polyline class="st22" points="1450.1,483.8 1468.7,491.3 1474.8,493.6 1477.1,494.8 1479.7,495.6 1486.6,498.5 1489.8,499.7 
			1492.7,500.6 		"/>
		<polyline class="st3" points="1496.5,502.2 1500.2,503.7 1502.8,502.3 1503.8,502.5 		"/>
		<polyline class="st8" points="1511.3,504 1511.5,504 1518.7,505.5 1523.9,506 1526,506.3 1528.8,506.6 1533.2,506.9 1535.2,507.2 
			1537.8,507.5 1540.4,509 1543.8,511.3 1546.1,512.4 1548.4,513.6 1550.6,514.7 1554,515.8 1559.5,515.9 1568.5,516.5 
			1569.3,516.5 1580.6,519.6 1591,522.2 1596.8,523.1 1600.3,523.4 1603.5,523.4 1607.8,522.5 1611.6,521.4 1614.2,520.2 
			1617.4,518.8 1619.7,517.3 1621.4,515.3 1623.7,512.4 1624.9,510.7 1626.3,508.4 1626.6,507.5 1627.8,505.8 1628.1,504.6 
			1629.2,502.6 1629.8,501.1 1630.7,499.7 1631.5,498.8 1633.3,496.8 1635.3,495 1637.3,493.3 1639,488 		"/>
		<polyline class="st3" points="1640.2,484.4 1641.4,480.6 1641.1,480.6 1640.8,480.3 1640.5,480 1640.2,479.7 1639.9,479.1 
			1639.9,478.9 1639.9,478.6 1639.9,478 1639.9,477.7 1640.2,477.4 1640.5,477.1 1642.8,474.9 		"/>
		<polyline class="st23" points="1650.4,469.5 1650.9,469.3 1652.6,468.4 1654.4,467.9 1655.8,467.6 1657.6,467.3 1659,467 
			1660.7,467 1663.6,467 1665.7,467.3 1668.6,467.9 1670.6,468.4 1672.3,469 1673.5,469.6 1674.6,470.2 1675.5,470.5 1676.4,471 
			1682.4,471 		"/>
		<polyline class="st3" points="1687.1,471 1691.1,471 1690,467.2 		"/>
		<polyline class="st24" points="1691.3,459.1 1691.7,458.9 1692.3,458.9 1692.8,459.2 1693.4,459.2 1694,459.5 1694.6,460 
			1694.9,460.3 1695.2,460.9 1695.2,461.2 1695.4,461.8 1697.6,470.1 		"/>
		<polyline class="st3" points="1698.8,474.7 1699.8,478.6 1697.5,479.1 1697.8,479.4 1698.1,479.7 1698.1,480.3 1698.1,480.9 
			1697.5,482.8 		"/>
		<polyline class="st3" points="1696.8,485.1 1695.7,489 1696,489.3 1696.3,488.7 1697.5,489 1697.2,490.4 1696,490.1 1696,489.8 
			1695.4,489.5 1694.6,493 1695.2,493 1695.2,492.7 1696.3,493 1696,494.8 1694.9,494.2 1694.9,493.6 1693.4,493.3 1693.4,495.3 
			1693.6,497.3 		"/>
		<polyline class="st25" points="1694,504.4 1694.3,508.4 1694.6,509.2 1695.2,510.4 1695.7,511.3 1696.3,512.1 1696.9,512.7 
			1697.5,513.6 1698.6,514.1 1699.5,514.7 1700.4,515.3 1701.2,515.6 1702.4,515.6 1703.3,515.6 1705.6,515.6 1707,515.6 
			1709.1,515.3 1725.6,513.5 		"/>
		<polyline class="st3" points="1729.1,513.1 1733.1,512.7 1733.1,512.4 1733.3,511.8 1733.9,511.3 1733.9,510.7 1733.7,509 		"/>
		<polyline class="st3" points="1732.6,499.3 1732.2,495.6 1732.2,495.3 1732.5,495.3 1732.5,495 1732.8,495 1733.1,494.8 
			1737.7,494.5 1738,494.5 1738.3,494.5 1738.3,494.8 1738.6,495 1738.9,498.6 		"/>
		<polyline class="st3" points="1740,508.2 1740.3,510.4 1741.4,511.8 1744.9,511.3 1745.4,511.2 		"/>
		<polyline class="st26" points="1752.7,510.4 1752.7,510.4 1762.3,508.9 1766.9,508.4 1774.1,507.2 1784.5,505.8 1807.3,502.3 		
			"/>
		<polyline class="st3" points="1810.9,501.7 1814.9,501.1 1814.5,501.6 1817.5,499 		"/>
		<line class="st23" x1="1824.7" y1="492.9" x2="1835.5" y2="483.7"/>
		<polyline class="st3" points="1839.5,481.4 1843.4,480.7 1845.7,482.9 1844.7,486.8 		"/>
		<line class="st27" x1="1838.7" y1="492.7" x2="1829.2" y2="501.3"/>
		<polyline class="st3" points="1826,504.1 1823,506.8 1823,509 1823.4,510.7 		"/>
		<polyline class="st3" points="1826.5,522.2 1827.6,526.1 1831.2,524.4 		"/>
		<line class="st28" x1="1839.4" y1="520.7" x2="1851.8" y2="515"/>
		<polyline class="st3" points="1856,513.2 1859.6,511.5 1859.6,507.5 		"/>
		<line class="st29" x1="1859.6" y1="499.8" x2="1859.6" y2="488.2"/>
		<polyline class="st3" points="1859.6,484.3 1859.6,480.4 1859.7,480.4 1855.7,479.5 		"/>
		<polyline class="st3" points="1858.3,475.1 1862.2,476 1866.1,469.3 1870.1,468.5 		"/>
		<polyline class="st3" points="1875.3,467.5 1877.5,467 1879.3,467.1 1877.7,463.4 		"/>
		<path class="st30" d="M1875.2,457.5l-1.9-4.4c-0.6-1.2-0.1-2.6,1.1-3.2s2.6-0.1,3.2,1.1c0,0.1,0.1,0.2,0.1,0.2l4,9.3"/>
		<polyline class="st3" points="1883,463.4 1884.6,467.1 1888.6,467.1 		"/>
		<polyline class="st3" points="1896.3,465.1 1900.2,465.9 1902,469.5 		"/>
		<polyline class="st12" points="1900.9,477.1 1897.9,489.7 1893.4,513.6 1893.4,520.1 		"/>
		<polyline class="st3" points="1893.5,524.1 1893.9,528.1 1897.9,527.5 		"/>
		<polyline class="st7" points="1904.8,524.1 1928.3,507.2 1932.6,500.1 1941.2,492.9 1951.2,487.2 1962.6,484.3 1971.2,482.9 
			2004.1,475.7 2018,470.5 2021,467.5 2025,462.5 2029,454.5 2029.9,449.3 		"/>
		<polyline class="st3" points="2029.9,445.4 2029.9,441.4 2026.6,439.2 		"/>
		<polyline class="st31" points="2023.9,432.2 2022.7,424.2 2022,420.7 		"/>
		<polyline class="st3" points="2021.3,416.8 2021.3,412.8 2018,410.6 		"/>
		<path class="st4" d="M2011.5,406.2l-18.3-12.4c-1.2-0.7-1.5-2.3-0.8-3.4s2.3-1.5,3.4-0.8c0.1,0,0.1,0.1,0.2,0.1l10.8,7.3"/>
		<polyline class="st3" points="2010.1,399.1 2013.4,401.4 2016,398.3 		"/>
		<polyline class="st32" points="2021.4,392 2048.9,359.9 2066.8,341 2069.7,338.4 2097.8,312.1 2099.1,310.9 		"/>
		<polyline class="st3" points="2102.4,308.5 2103,308.4 2103.9,308.4 2104.7,308.4 2105.6,308.6 2106.3,309 2109.3,306.4 		"/>
		<path class="st33" d="M2115.6,301l17.2-14.7l10-7l14-7l13-5l28-7l23-7l5-1h5c1,0,6,2,6,2l27.8-0.8"/>
		<polyline class="st3" points="2268.7,253.4 2269.8,253.4 2272.7,252.8 2270.8,250.4 2270.8,249.4 		"/>
		<polyline class="st3" points="2269.3,238.4 2268.5,234.5 2273.8,233.4 2274.6,237.3 		"/>
		<polyline class="st3" points="2277.6,247.9 2277.8,248.4 2277.4,251.8 2281.3,250.9 		"/>
		<path class="st3" d="M2291.9,248.7l3.9-0.8l-0.9-4.9c-1.1-0.5-1.9-1.5-2.2-2.6c-0.2-1.3,0.2-2.5,1.1-3.4l-0.7-3.9"/>
		<polyline class="st3" points="2292.2,228 2291.5,224.1 2297.4,223 2298.1,227 		"/>
		<path class="st3" d="M2299,231.8l0.7,3.9c1.2,0.5,2,1.5,2.3,2.7c0.2,1.3-0.2,2.6-1.2,3.5l0.9,4.8l3.9-0.8"/>
		<polyline class="st4" points="2313.1,243.5 2330.8,237.4 2339.2,235.3 		"/>
		<polyline class="st3" points="2343,234.3 2346.8,233.4 2346.8,229.2 2350.8,229.2 		"/>
		<polyline class="st3" points="2353.1,229.2 2357.1,229.2 2357.1,232.6 2361.1,233 		"/>
		<polyline class="st34" points="2368.7,235.4 2370.8,236.4 2399.8,239.4 2412.8,241.4 2429.7,247.4 2446.8,255.4 2465.8,261.4 
			2485,269 2495.8,275.4 2506.8,283.4 2512.8,287.4 2523.6,290.8 2528.9,291.1 2539.1,295.6 2549.9,301.9 2631.1,339.9 2679.9,349 
			2690.9,350.5 2724.8,357.1 2783.8,384.5 2818.9,419.8 		"/>
		<polyline class="st3" points="2821.7,422.6 2824.6,425.5 2824.6,425.5 2827.5,428.2 		"/>
		<polyline class="st3" points="2832.2,432.5 2835.2,435.2 2836.6,434.6 2839.8,434.6 2842.6,431.7 		"/>
		<polyline class="st3" points="2847.5,426.8 2850.4,423.9 2855.6,429.2 2852.7,432 		"/>
		<polyline class="st3" points="2848.2,436.5 2845.4,439.3 2845.4,442.9 2844.8,444 2847.7,446.7 		"/>
		<polyline class="st3" points="2851.8,450.4 2854.7,453.1 2855,452.9 2858.2,452.9 2858.6,452.6 		"/>
		<polyline class="st3" points="2865.9,445.6 2868.7,442.8 2873.9,447.8 2871,450.6 		"/>
		<polyline class="st3" points="2866.7,454.7 2863.8,457.5 2863.8,460.9 2863.3,461.7 2864.8,464.8 2862,467.6 		"/>
		<line class="st35" x1="2857.5" y1="471.9" x2="2850.8" y2="478.5"/>
		<polyline class="st3" points="2848.6,480.6 2845.7,483.4 2848.6,486.3 		"/>
		<line class="st36" x1="2853.3" y1="491" x2="2870" y2="507.7"/>
		<polyline class="st3" points="2872.4,510.1 2875.2,512.9 2879.2,512.9 		"/>
		<polyline class="st37" points="2887.6,512.8 2965.8,512.6 2969.2,510.7 2983,505.3 		"/>
		<polyline class="st3" points="2986.9,503.7 2990.6,502.3 2990.9,504.3 2994.1,503.7 2994.7,506 2998.7,505.7 		"/>
		<line class="st38" x1="3004.5" y1="505.1" x2="3013.3" y2="504.4"/>
		<polyline class="st3" points="3016.2,504.1 3020.1,503.7 3019.3,500.3 3023.2,499.4 		"/>
		<line class="st3" x1="3029" y1="498.1" x2="3032.9" y2="497.2"/>
		<polyline class="st2" points="479.1,796.1 481.1,807 488.3,815.6 502.6,827 512.6,842.8 521.2,861.4 588.5,983.5 595.6,983.5 		
			"/>
		<path class="st2" d="M1890.2,450.2c0.2,0,0.5,0,0.7-0.1l102.4-30.9c1.3-0.4,2-1.7,1.6-3s-1.7-2-3-1.6l-102.4,30.9
			c-1.3,0.4-2,1.8-1.6,3C1888.3,449.5,1889.2,450.2,1890.2,450.2L1890.2,450.2z"/>
		<polyline class="st2" points="605.6,1005.8 605.3,1005.9 606.2,1015.7 606.8,1017.5 608.8,1018.3 613.1,1019.8 617.8,1021.5 
			621.2,1025.6 622.4,1026.2 624.1,1030.8 625.3,1033.1 625.9,1035.1 626.2,1038 626.7,1037.4 629.9,1040 629.3,1040.9 629.9,1045 
			630.5,1047 631.6,1049 633.7,1051 637.1,1055.4 641.8,1062.6 646.7,1069.8 654.2,1080.5 657.1,1083.7 657.4,1084 657.7,1084.9 
			658,1085.7 657.7,1086.3 658,1087.2 655.7,1088.9 674.2,1115.3 676.5,1113.8 677.3,1115.3 679.1,1116.4 680.5,1118.1 
			681.4,1120.2 687.8,1128.8 688.6,1129.1 692.7,1134.6 695,1138.7 711.5,1161.8 728,1187.6 729.7,1189.9 729.8,1189.9 		"/>
		<polyline class="st2" points="2926.3,430.5 2928.3,430.2 2930.3,430.2 2932.7,430.2 2934.1,430.2 2935.6,430.2 2938.2,430.2 
			2941.1,430.5 2944.9,431.1 2950.9,432.8 2953.6,433.7 2956.8,435.1 2964.9,438.6 3017.7,461.9 3024.9,465.3 3030.8,468.5 
			3032.8,470 3035.7,472 3037.1,473.2 3040.6,476.4 3044.4,480.4 3041.5,483 3039.5,480.7 3038.3,479.6 3036.3,477.5 3033.6,475.5 
			3029.3,472.3 3023.5,468.8 2991.3,454.3 2976.2,447.9 2954.1,438.1 2948.6,436.3 2943.7,435.1 2940.5,434.6 2937.6,434.3 
			2936.1,434.3 2935.6,434.3 2934.1,434.3 2932.7,434.3 2931.8,434.3 2929.5,434.6 2926.9,434.6 2925.7,434.9 2922.2,434.3 
			2921.1,434 2919.9,433.7 2918.7,433.1 2917.3,432.3 2915.8,431.7 2913.5,430.8 2912.4,430.5 2912.1,429.6 2911.5,428.8 
			2911.5,428.2 2911.8,427.6 2912.1,426.7 2912.6,426.2 2913.8,426.2 2915.3,426.5 2917.3,427.3 2919.3,428.2 2920.5,428.8 
			2921.3,429.1 2922.2,429.6 2923.4,429.9 2924.8,430.2 2926.3,430.5 		"/>
		<polyline class="st2" points="2940.6,448.3 2939.7,448.6 2938.9,448.6 2937.7,448.3 2934,448.3 2932.2,448.3 2930.8,448.3 
			2925.9,448.9 2924.5,449.1 2923.3,449.4 2920.5,450.3 2917.9,451.1 2915,452.9 2913.3,453.7 2911.3,455.2 2909.5,456.3 
			2907.5,458 2904.4,460.9 2902.9,462.4 2902.1,463.5 2901.2,464.4 2900.6,465 2899.8,465.2 2898.9,465.5 2898.1,465.2 
			2897.5,464.4 2897.5,463.8 2898.1,462.6 2898.6,462.1 2899.8,460.9 2901.2,459.5 2902.6,458 2904.4,456.3 2905.5,455.2 
			2907.2,453.7 2908.7,452.6 2911.6,450.9 2913.3,450 2915,449.1 2916.4,448.6 2919.3,447.1 2920.8,446.8 2922.2,446.3 2923.6,446 
			2925.1,445.7 2926.5,445.4 2928.2,445.1 2930.2,445.1 2932.2,445.1 2934.8,445.1 2936.8,445.1 2938.6,445.1 2939.4,445.1 
			2940.3,445.4 2940.9,445.7 2941.1,446.3 2941.4,446.8 2941.4,447.4 2941.1,448.3 2940.6,448.3 		"/>
		<polyline class="st2" points="2883.1,463.7 2882.4,463.7 2881.2,463.4 2874.4,470.5 2874.1,470.5 2873.8,469.9 2880.9,462.8 
			2880.9,462.1 2880.9,461.8 2880.9,461.2 2882.8,459.4 2884,458.1 2885.5,456.6 2887.4,454.8 2889.2,453.2 2890.5,451.7 
			2891.7,450.1 2893.9,448 2895.7,446.1 2897.6,444.6 2898.8,443.6 2900,443 2900.6,443 2901.3,443.3 2901.9,444 2901.9,444.6 
			2901.6,445.5 2900.9,446.1 2900.3,447 2899.4,447.7 2897.6,449.5 2895.7,451.4 2892.6,454.4 2889.5,457.2 2887.4,459.4 
			2885.2,461.8 2883.7,463.1 2883.1,463.7 		"/>
	</g>
	<g id="_2019_KLN_Shoreline" class="st1">
		<polyline class="st2" points="3035.5,239.1 3038,252.5 3109,324.5 3123.8,339.3 3125,339.5 3126.1,339.4 3127.7,337.8 3128,336.5 
			3127.5,334.9 3110,315.5 3135.4,290.5 3141,286.5 3154.7,300.3 		"/>
		<path class="st39" d="M3027,218.5l-2-3l-1-4l0.9-1.1l70.1-35.9l5-3l-15-38l-2-2l-11,1l-7,1l-5,1l-10.9,5.9l-6.8,2.9l-12.6-1
			l-9.1-2.6l-13.1,1.7l-14.5,2.2h-15l-3,6h-8.1l0.1-8l-7.8-1.1l-12.2-7.9l-10-8l-7-6l-7.6-12.9l-9.4-18.1l-8-18l-10.5-9.6L2850,35.5
			l-6-7l-50-61l8-7l-8.1-1.3L2777.4-54l-2.1-3c-0.1,0.1-0.1,0.2-0.2,0.2c-0.7,0.7-1.7,0.9-2.7,0.7l-9.5,9.5l-3.5-3.5l9.5-9.5
			c-0.2-1,0-2,0.7-2.7c0.4-0.4,0.9-0.6,1.5-0.7l-1.7-2.4l-20.9-30.2l-0.3-0.3l-9.1,6.9l-0.9-1.2l-30.4,21.8
			c-0.3,0.2-0.8,0.4-1.2,0.4c-0.6,0-1.2-0.3-1.6-0.8c-0.6-0.9-0.4-2.1,0.5-2.8l30.4-21.8l-0.9-1.2l8.9-6.7l-5.6-10.8l-3.5,2.6
			l-1.9-2.7l3.8-2.8l-6.7-7.6l-1-2l-3-5l-3.7,3.4l-0.3-0.4l-10.4-14.3l-31.6-38.7l-31-36l-47-50l-18-17l-55,58l-79.3-76.2
			l-32.5,33.4l49.1,47.6l7.1,4.3l77.6,71.9l5.4,4l9.6,5l6,1l11-11l45.8,45.2l2.3,6.8l-2.3,21.5l0.2,2.5l43.3,44.8v7.2l-34,35.8h-7.5
			l-36.5-37.2h-7.9L2565-39.4L2550.7-58l-363.4-352l-16.3,8.5l-25.5,55.6l2.8,3.1l11,5.1l-2.1,4.5l-11.5-5.4h-3.5l-30.7,67.1v7.4
			l-3.4,8l-8.1,3.4l-4-1l-3.5,90.6l-0.5,2.4h10v9l-9.9-0.1l-0.1,4.6l16.1,14.1l27.9,23.4l3,3l-9.6,44.6L2115,4.5l4,14l3,11l-34,24
			l-8.8-0.6l-3.9-3.3l-5.3,11.9l-8,3l2,4l-13,6l-2.1-3.6l-7.9,3.4l-5.9,3.2l1,5l1,3l4,8l-5,3l-4-8l-1-3l-3-5l-109,49l-9-20
			l-17.8-0.1l-0.2,45.1l-16.8,10.6l-7.2-9.6l13-8v-29l-11.5,4.6l-6.8-2.3l-25-1.1l-83.1,74.1l-7.6,9.7l-2,3l-8.3,23.3l-3.4,4.8
			l-0.4,1.9l-5,5l-22,27l-37,3l-10-8l-42.3,3.4l-0.7,1.6l-14,1l-18,2l-3.9-12.2l-6.1-0.8h-4l-0.1-0.1l-7.8,10.9
			c-0.4,0.5-1,0.8-1.6,0.8c-0.4,0-0.8-0.1-1.2-0.4c-0.9-0.6-1.1-1.9-0.5-2.8c0,0,0,0,0,0l8.2-11.5l-8.1-9l-0.5,0.3l-9,11
			c-0.4,0.5-1,0.7-1.6,0.7c-0.5,0-0.9-0.2-1.3-0.5c-0.9-0.7-1-2-0.3-2.8c0,0,0,0,0,0l8.7-10.6l1.9-4.1l4-4l-3-14l-83.1,17l-3-17.8
			l72.2-15.3l0.9-3.9l1-4l2-1h2.6l1.9,1.1l-3.6-14.2l-4-20l-37.4,7.6c-0.1,0-0.3,0-0.4,0.1c-1.3,0-2.3-1-2.3-2.3
			c0-1.1,0.8-2,1.9-2.3l30.3-6.2v-4l6-2l-3-12c-6.1,1.2-46.6,8.4-46.6,8.4c-0.1,0-0.3,0-0.4,0.1c-1.3,0-2.3-1-2.3-2.3
			c0-1.1,0.8-2.1,1.9-2.3c0,0,40.2-8.7,46.4-9.9l-3-20l-57.2,12.6c-0.3,0.1-0.5,0.1-0.8,0.1c-2.1,0-3.9-1.7-3.9-3.9
			c0-1.8,1.3-3.4,3.1-3.8l46.8-9.1v-5l4-1l-4.5-10l-3.2-12.9l-1.1-9l-8.8,0.9l-11,7.8l-1.7-2.5l8.6-6l-1.2-0.3l-6,2l-2-1l-20,2
			l-18.9,2.4l-0.1,1.6l-43,6l-11,1l-3-1l-15.8,1.7v9.3h2.5v5h-10v-5h2.5v-8.8l-11.3,2.8l-24,9l-15.7,14.9l-4.5,11.4l-1.8,1.7l-3,1
			l-4.3-0.4H1259l-9.1-6.8l-5.7-5.7l-4.6-8.8l-1.7-4V75l-0.3-4l0.3-3.5l-0.3-7.8l0.3-6.1l0.3-4.9l1.2-5.2l1.7-5l3-4l1-1l2-2l3-2
			l0.3-0.8V-5.5c0-4.8-2.8-6.8-5-8.4l-0.3-0.2c-2.6-1.9-9-3.3-11.3-3.7c-0.9-0.2-1.6-1.1-1.4-2c0.2-0.9,1-1.6,2-1.4c0,0,0,0,0,0
			c0.4,0.1,8.9,1.6,12.7,4.3l0.3,0.2c2.4,1.7,6.4,4.6,6.4,11.2v18.6l48.9-0.3l62.2-88.8l-0.3-208l-12.6-29.9l-98-0.6l1,23.9
			c0,1.1-0.8,2-1.9,2.1c0,0,0,0,0,0h-0.1c-1.1,0-2-0.8-2-1.9l-1-25c0-1.1,0.8-2,1.9-2.1c0,0,0,0,0,0h0.1l-0.8-74.1v-27.5l-17.9-30.7
			l-10-8.3l-23.7,28.6h-0.5l-11.6-9.5l-0.3-0.9l24-28.6l-16.2-13.3l-8.4,10.4l-1.7-1.4l8.4-10.4l-10.1-8.4l-8.4,10.1l-1.7-1.5
			l8.4-10.1l-11.9-10.1l-3.2,3.8l-1.4-1.2l2.9-3.8l-20.3-16.7l-9.8,11.9l-3.5-2.9l9.8-11.9l-18-15.6l-10,12l-4-3l10-12l-11-9l-6-5
			l-13-8l-6.6-4.7l-16.5-10.5l0,0l-22.3-12.4l-20.7-14.5l-10-5l-5.3,8.4l7.3,4.2l-0.5,1l-7.4-4.3l-1.7,2.7l7.5,5l-0.6,0.9l-7.4-5
			l-2.4,3.8l6.4,4.3l-0.6,0.9l-6.4-4.3l-8.4,13.3l7.9,5.3l-0.6,0.9l-7.9-5.3l-1.6,2.6l7.2,4.8l-0.6,0.9l-7.1-4.8l-1.4,2.3l-0.1,0.1
			l3.5,2.3l-0.6,0.9l-3.4-2.3l-1.9,3.2l3.2,2.1l-0.6,0.9l-3.2-2.1l-8,13.2l14.3,8.9l-0.9,1.7l-17.3-10.5l2.7-4.2l-37.9-24
			l-17.6,28.8l16.9,9.1l10.4,6.1l0.3-0.3h1.4l38.5,23.3l2.8,1.8c0.9,0.6,1.2,1.9,0.5,2.8c-0.4,0.6-1,0.9-1.7,0.9
			c-0.4,0-0.8-0.1-1.1-0.3l-4.2-2.8l-2,1.2l6.8,4.9l-0.8,1.1l-7.2-5.2l-3.5,2.2l6.2,6.2l-1.3,1.3l-6.5-6.5l-7,4.4l10.2,10.2
			l-1.2,1.2l-10.3-10.3l-6.4,5.1l10,10l-1.5,1.5L963.5-497l-0.6,0.4l-7.6,7.4l5.4,5.4l-1,1l-5.4-5.4l-7.1,6.9l5.5,5.5l-1,1l-5.5-5.5
			l-4,4l4.3,4.3l-1,1l-4.3-4.3L940-474l6.6,8l6.4,5.1v0.3l0.6,0.6l10.6-10.6h0.3l0.6,0.6v0.3l-10.3,10.6l6.3,7.3l6.6-6.6l4.4,4.4
			l-6.6,6.6l1.4,1.7l5.5-5.5v-0.3h0.3v0.3l0.6,0.6h0.3v0.3h-0.3l-5.5,5.5l4.8,4.7l5-5.2l1.2,1.2l-5,5.2l9,8.9l13.8-13.9l-14.1-14
			l1.5-1.7l10.4,10.4l1.2-1.2l3.8,4l1.8-1l-4-4l1-1l4,4l10-11l-2.9-3.1l0.3-0.3l-9.9-9.9l1.5-1.5l9.9,9.9l10.3-10.3l-2.2-1.7l4-4
			l2,2l2.8-2.8l-5.6-4.1l1.3-1.8l5.9,4.3l3.6-3.6l-1-1l-0.1-0.1l-16-10.2c-0.9-0.6-1.2-1.8-0.6-2.8c0,0,0,0,0,0
			c0.6-0.9,1.8-1.2,2.8-0.6c0,0,0,0,0,0l10.5,6.7h4.4l2-1l2-1l2,1l1,2l3,2l4,4l4,3l8.1,6.2h0.6l0.6-0.3h0.9l0.3,0.3h0.6l0.6,0.3h0.3
			l0.6,0.6l0.3,0.3l0.3,0.3l0.3,0.3l0.3,0.6v0.3l0.3,0.6v0.6l0.5,0.8l3.6,0.8l4.1,5.8l2.9,7.7l2.5,4.7l5.2,7.9l1.9,9.7v8.7l-5.8,4.9
			l-6.8,1.2l-11,3l-9,5l-11,9l-8,8l-4.4,5.7l-1.9,4.8l-0.6,4.5l-3,3l-7,7l-2.9,6.8v6.6l1,6l2.9,4.8l3.9,2.9l-1.6,4.6l-6.2,2.3
			l-4.3,3.8l-2.5,5.8l-2.4,3.4l4,4l-8.9,9.8l-4.1-3.8l-12.8,10.7l-1.9,7.8l1.9,4.8l-6.8,8.7l-1.9,6.8l-1.9,7.7l-2.9,2.9l-3.9-1.9
			l-4.8-2.9l-5.8-4.8l-5.8-8.7l-1.9-7.7l-5.8-4.8l-7.7-2.9l-6.8-1l-3.9-3.9l-1.9-10.6v-7l0.3-4.1l-1.6-3.5l-8.1-7.5h-17l-3.8-1.4
			l-5.7-2.3l-4.5-3.9l-3.5,0.5l-3.4-1.1l-9.1,1.1v3.4l8.8,57.6l1.9,11.9v0.9l-0.3,0.6l-0.6,0.6l-64,12.1l-1.7,0.3l-0.6-0.3l-0.6-0.3
			l-0.3-1.2l-6.1,1.2l-0.3-2.3l67.5-12.7l-1.7-8.8l-17.4-78.3l-1.9-3.9l-82.6,14.7v0.1l17.7,93.5c0.4,2-0.5,4-2.2,5.1l2,10.8
			c0.4,1.9-0.9,3.7-2.8,4.1c0,0,0,0,0,0c-0.2,0-0.4,0.1-0.7,0.1c-1.7,0-3.1-1.2-3.4-2.9L760-322l-45.8-22.6h-4.5l-5.7,3.4l-23.6,5.3
			l-4.3,2.4l-3,1h-2l-3.3-1.8L493-429.5l1-4v-6l-3-11l8-12l9-9l9-11l-1-5l291-92l-22-67l-8-4l-168,53l-55-175l121-38l-19.9-63.9
			L534-836.5l-81-257l-100,31l-2-6l3-1l-1-3l-7-23l-6-12l-10-30l-1-4l2-2l-6-19l-5-3l-3-8l-7.2-13.2l1.2-5.8l6.8-7.8l9.2-3.2h3l2,5
			l-1,4l4,7l2.6,9.3l2.4,1.7l3-2l4,4l1,3l-2,2l1.8,1.7l0.3,0.2l12.9-2.9l10.7-71.9"/>
		<rect x="1499" y="91" transform="matrix(0.9913 -0.1314 0.1314 0.9913 0.1943 197.9984)" class="st39" width="3" height="13.2"/>
		<path class="st2" d="M3543.5,77.7h2.3l7.9-3.4c2.3,0,18.3,0.2,18.3,0.2l10-9h55l1-9l3-3l5-2l3,1l4,2l2,5v5h12v3h10v-3h31l8-2.7
			l8-5.3l41.7-80.6l19.9,10.3L3733,86.5l-2,13l5,44l6,19l11,13l7,6l9,6l11,5l9,2l7,6l3,6v88l43.9,0.9"/>
		<polyline class="st3" points="1179.7,385.2 1175.8,384.1 1176.9,380.3 		"/>
		<polyline class="st3" points="1178,376.7 1178.9,373.6 1179.4,373.1 1183.3,374.1 		"/>
		<polyline class="st3" points="1189.6,375.8 1192.5,376.5 1193.1,377.4 1192,381.3 		"/>
		<polyline class="st3" points="1191.3,384.1 1190.3,388 1186.4,387 		"/>
	</g>
</g>
</svg>
