<svg xmlns="http://www.w3.org/2000/svg" xmlns:xlink="http://www.w3.org/1999/xlink" width="892.547" height="583.428" viewBox="0 0 892.547 583.428">
  <defs>
    <linearGradient id="linear-gradient" x1="-10.218" y1="2.482" x2="-10.219" y2="2.48" gradientUnits="objectBoundingBox">
      <stop offset="0" stop-color="#71888c"/>
      <stop offset="1" stop-color="#5d7277"/>
    </linearGradient>
    <linearGradient id="linear-gradient-2" x1="-8.062" y1="3.178" x2="-8.063" y2="3.176" gradientUnits="objectBoundingBox">
      <stop offset="0" stop-color="#afc1c2"/>
      <stop offset="0.038" stop-color="#bbccca"/>
      <stop offset="0.132" stop-color="#d0dcdc"/>
      <stop offset="0.24" stop-color="#e2eaeb"/>
      <stop offset="0.372" stop-color="#ecf5f5"/>
      <stop offset="0.6" stop-color="#f0f8f9"/>
      <stop offset="0.619" stop-color="#e7eeef"/>
      <stop offset="0.692" stop-color="#cdd8d9"/>
      <stop offset="0.772" stop-color="#bcc"/>
      <stop offset="0.865" stop-color="#b2c4c3"/>
      <stop offset="1" stop-color="#afc1c1"/>
    </linearGradient>
    <linearGradient id="linear-gradient-3" x1="0.556" y1="0.333" x2="0.439" y2="0.667" gradientUnits="objectBoundingBox">
      <stop offset="0" stop-color="#bececf"/>
      <stop offset="0.038" stop-color="#c8d6d6"/>
      <stop offset="0.132" stop-color="#dae4e5"/>
      <stop offset="0.24" stop-color="#e8eff0"/>
      <stop offset="0.372" stop-color="#ebf1f2"/>
      <stop offset="0.6" stop-color="#f3fafb"/>
      <stop offset="0.619" stop-color="#ecf2f3"/>
      <stop offset="0.692" stop-color="#d7e1e2"/>
      <stop offset="0.772" stop-color="#c8d6d7"/>
      <stop offset="0.865" stop-color="#c0d0d0"/>
      <stop offset="1" stop-color="#becece"/>
    </linearGradient>
    <linearGradient id="linear-gradient-4" x1="-39.027" y1="5.402" x2="-39.036" y2="5.391" gradientUnits="objectBoundingBox">
      <stop offset="0" stop-color="#47494a"/>
      <stop offset="0.512" stop-color="#7e7d7d"/>
      <stop offset="0.606" stop-color="#797978"/>
      <stop offset="0.723" stop-color="#6b6b6a"/>
      <stop offset="0.853" stop-color="#565757"/>
      <stop offset="0.991" stop-color="#3e4040"/>
      <stop offset="1" stop-color="#3c3e3e"/>
    </linearGradient>
    <linearGradient id="linear-gradient-5" x1="-27.403" y1="6.958" x2="-27.402" y2="6.941" gradientUnits="objectBoundingBox">
      <stop offset="0" stop-color="#1e2224"/>
      <stop offset="1" stop-color="#1b1f21"/>
    </linearGradient>
    <linearGradient id="linear-gradient-6" x1="-10.964" y1="3.593" x2="-10.964" y2="3.586" xlink:href="#linear-gradient-5"/>
    <linearGradient id="linear-gradient-7" x1="-87.632" y1="6.987" x2="-87.611" y2="6.954" xlink:href="#linear-gradient-5"/>
    <linearGradient id="linear-gradient-8" x1="-160.115" y1="6.282" x2="-161.773" y2="6.261" xlink:href="#linear-gradient"/>
    <linearGradient id="linear-gradient-9" x1="-83.206" y1="7.923" x2="-83.184" y2="7.89" xlink:href="#linear-gradient-5"/>
    <linearGradient id="linear-gradient-10" x1="-64.626" y1="7.381" x2="-66.283" y2="7.36" xlink:href="#linear-gradient"/>
    <linearGradient id="linear-gradient-31" x1="0.556" y1="0.333" x2="0.439" y2="0.667" gradientUnits="objectBoundingBox">
      <stop offset="0" stop-color="#bececf"/>
      <stop offset="0.038" stop-color="#c8d6d6"/>
      <stop offset="0.132" stop-color="#dae4e5"/>
      <stop offset="0.24" stop-color="#e8eff0"/>
      <stop offset="0.372" stop-color="#f0f7f8"/>
      <stop offset="0.6" stop-color="#f3fafb"/>
      <stop offset="0.619" stop-color="#ecf2f3"/>
      <stop offset="0.692" stop-color="#d7e1e2"/>
      <stop offset="0.772" stop-color="#c8d6d7"/>
      <stop offset="0.865" stop-color="#c0d0d0"/>
      <stop offset="1" stop-color="#becece"/>
    </linearGradient>
    <linearGradient id="linear-gradient-32" x1="-9.43" y1="1.62" x2="-9.43" y2="1.618" xlink:href="#linear-gradient"/>
    <linearGradient id="linear-gradient-33" x1="-7.987" y1="2.188" x2="-7.988" y2="2.186" xlink:href="#linear-gradient-2"/>
    <linearGradient id="linear-gradient-34" x1="-32.179" y1="2.122" x2="-32.176" y2="2.115" gradientUnits="objectBoundingBox">
      <stop offset="0" stop-color="#a1b4b7"/>
      <stop offset="0.374" stop-color="#9ab0b1"/>
      <stop offset="1" stop-color="#90aaac"/>
    </linearGradient>
    <linearGradient id="linear-gradient-36" x1="-30.121" y1="5.314" x2="-30.12" y2="5.296" xlink:href="#linear-gradient-5"/>
    <linearGradient id="linear-gradient-37" x1="-12.071" y1="2.718" x2="-12.071" y2="2.711" xlink:href="#linear-gradient-5"/>
    <linearGradient id="linear-gradient-38" x1="-96.19" y1="5.179" x2="-96.169" y2="5.146" xlink:href="#linear-gradient-5"/>
    <linearGradient id="linear-gradient-39" x1="-344.083" y1="4.166" x2="-345.741" y2="4.145" xlink:href="#linear-gradient"/>
    <linearGradient id="linear-gradient-40" x1="-91.742" y1="6.116" x2="-91.721" y2="6.083" xlink:href="#linear-gradient-5"/>
    <linearGradient id="linear-gradient-41" x1="-248.618" y1="5.264" x2="-250.276" y2="5.244" xlink:href="#linear-gradient"/>
    <linearGradient id="linear-gradient-42" x1="-98.719" y1="8.81" x2="-98.707" y2="8.764" xlink:href="#linear-gradient-5"/>
    <linearGradient id="linear-gradient-43" x1="-38.585" y1="2.663" x2="-38.592" y2="2.672" xlink:href="#linear-gradient-5"/>
    <clipPath id="clip-path">
      <path id="SVGID" d="M504.445,313.875c1.3-.765.935-2.251.688-3.739l-8.714-51.776a2.97,2.97,0,0,0-2.932-2.582c-4.357-.054-10.639,2.69-18.52,7.262-12.964,7.477-23.05,17.133-24.986,23.615-.274,1.008-.319,2.065-1.7,2.467l4.332,48.824c1.913,2.592,3.787,3.908,5.754,3.563C458.783,341.434,504.445,313.875,504.445,313.875Z" transform="translate(-448.277 -255.776)" fill="none"/>
    </clipPath>
    <linearGradient id="linear-gradient-44" x1="0.973" y1="0.132" x2="0.061" y2="0.956" gradientUnits="objectBoundingBox">
      <stop offset="0" stop-color="#536169"/>
      <stop offset="1" stop-color="#1b1f21"/>
    </linearGradient>
    <linearGradient id="linear-gradient-45" x1="0.898" y1="0.105" x2="0.008" y2="0.917" xlink:href="#linear-gradient-44"/>
    <linearGradient id="linear-gradient-46" x1="-47.966" y1="5.823" x2="-47.969" y2="5.837" gradientUnits="objectBoundingBox">
      <stop offset="0" stop-color="#272e30"/>
      <stop offset="1" stop-color="#272e2f"/>
    </linearGradient>
    <linearGradient id="linear-gradient-47" x1="-54.213" y1="5.517" x2="-54.213" y2="5.513" gradientUnits="objectBoundingBox">
      <stop offset="0" stop-color="#f9b424"/>
      <stop offset="0.167" stop-color="#eea422"/>
      <stop offset="0.725" stop-color="#d5761e"/>
      <stop offset="0.995" stop-color="#cc661d"/>
    </linearGradient>
    <clipPath id="clip-path-2">
      <path id="SVGID-2" data-name="SVGID" d="M501.674,314.534l-10.867,6.32a.687.687,0,0,0-.35.726l.941,5.325a.7.7,0,0,0,1.049.484l10.867-6.32a.685.685,0,0,0,.35-.726l-.941-5.325a.7.7,0,0,0-.815-.571A.719.719,0,0,0,501.674,314.534Z" transform="translate(-490.447 -314.436)" fill="none"/>
    </clipPath>
    <clipPath id="clip-path-3">
      <path id="SVGID-3" data-name="SVGID" d="M471.34,333.322l.941,5.325a.67.67,0,0,1-.35.726l-10.867,6.32a.7.7,0,0,1-.963-.25.681.681,0,0,1-.086-.233l-.941-5.325a.666.666,0,0,1,.35-.726l10.867-6.32a.7.7,0,0,1,1.049.484Z" transform="translate(-459.06 -332.737)" fill="none"/>
    </clipPath>
  </defs>
  <g id="beijingtrain" transform="translate(359.21 207.313)">
    <g id="Group_4079" data-name="Group 4079" transform="translate(46.233 28.332)">
      <g id="组_4691" data-name="组 4691" transform="translate(-405 -233)">
        <path id="Path_1796" data-name="Path 1796" d="M240.328,230.924,49.068,119.788l.027,9.495L240.328,240.418Z" transform="translate(-46.06 -22.754)" fill="#333536"/>
        <path id="Path_1797" data-name="Path 1797" d="M237.564,173.328,46.33,62.192l.081,62.722,191.26,111.163Z" transform="translate(-46.227 -26.267)" fill="url(#linear-gradient)"/>
        <path id="Path_1798" data-name="Path 1798" d="M97.894,29.157c-4.277-2.5-14.524.941-24.772,6.858C59.7,43.735,46.3,55.731,46.33,64.257L237.564,175.393c-.027-8.5,13.368-20.5,26.789-28.241,10.247-5.917,20.469-9.337,24.772-6.858Z" transform="translate(-46.227 -28.332)" fill="url(#linear-gradient-2)"/>
        <path id="Path_1799" data-name="Path 1799" d="M280.309,200.769l-.081-62.749c-.027-8.5-13.448-5.03-26.843,2.716-13.421,7.745-26.815,19.742-26.789,28.241l.081,62.749,2.824-1.64v9.521l48.037-27.726-.054-9.495Z" transform="translate(-35.233 -21.944)" fill="#9bafb0"/>
        <path id="Path_1800" data-name="Path 1800" d="M280.309,198.665,229.582,167.6,226.6,175.45l.081,54.2,2.824-1.64V237.5l48.037-27.7-.054-9.495Z" transform="translate(-35.233 -19.838)" fill="#64797d" opacity="0.3" style="isolation: isolate"/>
        <path id="路径_2517" data-name="路径 2517" d="M76.886,18.753c-4.758-2.9-11.815-4.283-23.216,2.584-14.9,8.958-29.806,22.88-29.776,32.774L215.336,166.337c-.029-9.508,11.329-18.855,25.876-27.613l1.377-.829c11.4-6.867,23.959-8.764,28.747-5.892Z" transform="translate(-24.336 -19.012)" fill="url(#linear-gradient-3)"/>
        <g id="Group_4058" data-name="Group 4058" transform="translate(194.322 114.175)">
          <path id="Path_1801" data-name="Path 1801" d="M283.743,199.173,229.412,167.6l-.027,58.63,54.358,31.523Z" transform="translate(-229.385 -134.014)" fill="#333536"/>
          <path id="Path_1802" data-name="Path 1802" d="M283.743,140.293l-6.159-3.578c-4.007-2.339-13.581.888-23.158,6.4-12.531,7.236-25.067,18.447-25.04,26.413l54.331,31.576V140.293Z" transform="translate(-229.385 -135.944)" fill="url(#linear-gradient-4)"/>
        </g>
        <g id="组_4482" data-name="组 4482" transform="translate(0 83.008)">
          <path id="路径_2512" data-name="路径 2512" d="M237.493,225.5c-7.032-4.19-15.163-9.093-22.2-13.273q-29.6-17.581-59.2-35.149-38.248-22.7-76.5-45.39C68.645,125.2,46.4,111.881,46.4,111.881s-.164-2.7-.164-5.313c4.582,2.748,10.881,6.61,15.476,9.34q27.681,16.443,55.375,32.869,34.147,20.263,68.3,40.52,26,15.423,51.992,30.842C237.493,222.692,237.493,222.692,237.493,225.5Z" transform="translate(-46.233 -106.568)" fill="#b40017"/>
        </g>
        <g id="Group_4078" data-name="Group 4078" transform="translate(6.935 48.752)">
          <g id="Group_4075" data-name="Group 4075">
            <path id="Path_1832" data-name="Path 1832" d="M124.547,142.27l-20.414-11.777a2.889,2.889,0,0,1-1.4-2.206V103.915c0-.78.619-1.049,1.4-.592L124.547,115.1a2.882,2.882,0,0,1,1.4,2.206v24.345C125.945,142.457,125.327,142.727,124.547,142.27Zm24.96,14.414-20.414-11.777a2.889,2.889,0,0,1-1.4-2.206V118.358c0-.78.619-1.049,1.4-.592l20.414,11.777a2.884,2.884,0,0,1,1.4,2.207v24.344C150.933,156.874,150.286,157.116,149.507,156.683ZM174.494,171.1l-20.414-11.777a2.889,2.889,0,0,1-1.4-2.206V132.775c0-.78.619-1.049,1.4-.592l20.414,11.777a2.883,2.883,0,0,1,1.4,2.209V170.51C175.889,171.263,175.246,171.537,174.494,171.1Z" transform="translate(-49.722 -72.524)" fill="url(#linear-gradient-5)"/>
            <path id="Path_1833" data-name="Path 1833" d="M74.608,113.419l-20.441-11.78a2.889,2.889,0,0,1-1.4-2.206V75.1c0-.78.619-1.049,1.4-.592L74.583,86.281a2.882,2.882,0,0,1,1.4,2.206v24.341C76.008,113.611,75.389,113.876,74.608,113.419Zm155.919,90.023-20.414-11.777a2.889,2.889,0,0,1-1.4-2.206V165.114c0-.78.619-1.049,1.4-.592L230.527,176.3a2.882,2.882,0,0,1,1.4,2.206v24.341C231.928,203.629,231.307,203.9,230.527,203.441Z" transform="translate(-52.769 -74.282)" fill="url(#linear-gradient-6)"/>
          </g>
          <g id="Group_4076" data-name="Group 4076" transform="translate(129.318 74.578)">
            <path id="Path_1834" data-name="Path 1834" d="M196.466,206.58,176.051,194.8a2.889,2.889,0,0,1-1.4-2.206v-47.21c0-.78.619-1.049,1.4-.592l20.415,11.777a2.884,2.884,0,0,1,1.4,2.21v47.2C197.867,206.766,197.219,207.034,196.466,206.58Z" transform="translate(-174.653 -144.573)" fill="url(#linear-gradient-7)"/>
            <path id="Path_1835" data-name="Path 1835" d="M185.193,148.259c-.268-.135-.511-.318-.78-.484v53.474c.35.161.726.318,1.076.484V148.42A2.966,2.966,0,0,1,185.193,148.259Z" transform="translate(-174.058 -144.377)" fill="url(#linear-gradient-8)"/>
          </g>
          <g id="Group_4077" data-name="Group 4077" transform="translate(26.628 15.331)">
            <path id="Path_1836" data-name="Path 1836" d="M99.68,150.757,79.265,138.98a2.886,2.886,0,0,1-1.4-2.209V89.547c0-.78.619-1.049,1.4-.592L99.68,100.731a2.882,2.882,0,0,1,1.4,2.206v47.2C101.077,150.92,100.432,151.19,99.68,150.757Z" transform="translate(-77.866 -88.732)" fill="url(#linear-gradient-9)"/>
            <path id="Path_1837" data-name="Path 1837" d="M88.381,92.413c-.269-.135-.511-.318-.78-.484V145.4c.35.161.726.318,1.076.484V92.576A2.867,2.867,0,0,0,88.381,92.413Z" transform="translate(-77.272 -88.537)" fill="url(#linear-gradient-10)"/>
          </g>
          <path id="Path_1838" data-name="Path 1838" d="M153.9,158.172c-.161.484-.673.619-1.318.268l-20.414-11.777a2.889,2.889,0,0,1-1.4-2.206V120.115a.69.69,0,0,1,.591-.775.739.739,0,0,1,.108-.005,1.179,1.179,0,0,0-.081.318V144a2.844,2.844,0,0,0,1.4,2.2L153.2,157.979A1.252,1.252,0,0,0,153.9,158.172Zm-25.659-14.6L107.8,131.791a2.889,2.889,0,0,1-1.4-2.206V105.241a.97.97,0,0,1,.081-.318.688.688,0,0,0-.7.672.739.739,0,0,0,.005.108v24.337a2.846,2.846,0,0,0,1.4,2.206l20.414,11.777c.645.377,1.156.242,1.318-.268A1.163,1.163,0,0,1,128.239,143.568ZM75.226,112.959l-20.414-11.78a2.889,2.889,0,0,1-1.4-2.206V74.632a.97.97,0,0,1,.081-.318.688.688,0,0,0-.7.672.739.739,0,0,0,.005.108V99.431a2.845,2.845,0,0,0,1.4,2.21l20.414,11.777c.645.377,1.156.242,1.318-.268A1.065,1.065,0,0,1,75.226,112.959ZM178.159,172.4l-20.414-11.777a2.889,2.889,0,0,1-1.4-2.206V134.073a.971.971,0,0,1,.081-.318.688.688,0,0,0-.7.672.741.741,0,0,0,.005.108v24.337a2.846,2.846,0,0,0,1.4,2.206l20.414,11.777c.645.377,1.156.242,1.318-.269a1.523,1.523,0,0,1-.7-.184Zm53.013,30.608-20.414-11.777a2.889,2.889,0,0,1-1.4-2.206V164.682a.97.97,0,0,1,.081-.318.688.688,0,0,0-.7.672.741.741,0,0,0,.005.108V189.48a2.845,2.845,0,0,0,1.4,2.206l20.414,11.777c.645.377,1.156.242,1.318-.268a1.448,1.448,0,0,1-.7-.186Z" transform="translate(-52.768 -74.28)" fill="#b3c1c1" opacity="0.9" style="isolation: isolate"/>
        </g>
      </g>
      <g id="组_4690" data-name="组 4690" transform="translate(-202 -117)">
        <path id="Path_1796-2" data-name="Path 1796" d="M240.328,230.924,49.068,119.788l.027,9.495L240.328,240.418Z" transform="translate(-46.06 -22.754)" fill="#333536"/>
        <path id="Path_1797-2" data-name="Path 1797" d="M237.564,173.328,46.33,62.192l.081,62.722,191.26,111.163Z" transform="translate(-46.227 -26.267)" fill="url(#linear-gradient)"/>
        <path id="Path_1798-2" data-name="Path 1798" d="M97.894,29.157c-4.277-2.5-14.524.941-24.772,6.858C59.7,43.735,46.3,55.731,46.33,64.257L237.564,175.393c-.027-8.5,13.368-20.5,26.789-28.241,10.247-5.917,20.469-9.337,24.772-6.858Z" transform="translate(-46.227 -28.332)" fill="url(#linear-gradient-2)"/>
        <path id="Path_1799-2" data-name="Path 1799" d="M280.309,200.769l-.081-62.749c-.027-8.5-13.448-5.03-26.843,2.716-13.421,7.745-26.815,19.742-26.789,28.241l.081,62.749,2.824-1.64v9.521l48.037-27.726-.054-9.495Z" transform="translate(-35.233 -21.944)" fill="#9bafb0"/>
        <path id="Path_1800-2" data-name="Path 1800" d="M280.309,198.665,229.582,167.6,226.6,175.45l.081,54.2,2.824-1.64V237.5l48.037-27.7-.054-9.495Z" transform="translate(-35.233 -19.838)" fill="#64797d" opacity="0.3" style="isolation: isolate"/>
        <path id="路径_2517-2" data-name="路径 2517" d="M76.886,18.753c-4.758-2.9-11.815-4.283-23.216,2.584-14.9,8.958-29.806,22.88-29.776,32.774L215.336,166.337c-.029-9.508,11.329-18.855,25.876-27.613l1.377-.829c11.4-6.867,23.959-8.764,28.747-5.892Z" transform="translate(-24.336 -19.012)" fill="url(#linear-gradient-3)"/>
        <g id="Group_4058-2" data-name="Group 4058" transform="translate(194.322 114.175)">
          <path id="Path_1801-2" data-name="Path 1801" d="M283.743,199.173,229.412,167.6l-.027,58.63,54.358,31.523Z" transform="translate(-229.385 -134.014)" fill="#333536"/>
          <path id="Path_1802-2" data-name="Path 1802" d="M283.743,140.293l-6.159-3.578c-4.007-2.339-13.581.888-23.158,6.4-12.531,7.236-25.067,18.447-25.04,26.413l54.331,31.576V140.293Z" transform="translate(-229.385 -135.944)" fill="url(#linear-gradient-4)"/>
        </g>
        <g id="组_4482-2" data-name="组 4482" transform="translate(0 83.008)">
          <path id="路径_2512-2" data-name="路径 2512" d="M237.493,225.5c-7.032-4.19-15.163-9.093-22.2-13.273q-29.6-17.581-59.2-35.149-38.248-22.7-76.5-45.39C68.645,125.2,46.4,111.881,46.4,111.881s-.164-2.7-.164-5.313c4.582,2.748,10.881,6.61,15.476,9.34q27.681,16.443,55.375,32.869,34.147,20.263,68.3,40.52,26,15.423,51.992,30.842C237.493,222.692,237.493,222.692,237.493,225.5Z" transform="translate(-46.233 -106.568)" fill="#b40017"/>
        </g>
        <g id="Group_4078-2" data-name="Group 4078" transform="translate(6.935 48.752)">
          <g id="Group_4075-2" data-name="Group 4075">
            <path id="Path_1832-2" data-name="Path 1832" d="M124.547,142.27l-20.414-11.777a2.889,2.889,0,0,1-1.4-2.206V103.915c0-.78.619-1.049,1.4-.592L124.547,115.1a2.882,2.882,0,0,1,1.4,2.206v24.345C125.945,142.457,125.327,142.727,124.547,142.27Zm24.96,14.414-20.414-11.777a2.889,2.889,0,0,1-1.4-2.206V118.358c0-.78.619-1.049,1.4-.592l20.414,11.777a2.884,2.884,0,0,1,1.4,2.207v24.344C150.933,156.874,150.286,157.116,149.507,156.683ZM174.494,171.1l-20.414-11.777a2.889,2.889,0,0,1-1.4-2.206V132.775c0-.78.619-1.049,1.4-.592l20.414,11.777a2.883,2.883,0,0,1,1.4,2.209V170.51C175.889,171.263,175.246,171.537,174.494,171.1Z" transform="translate(-49.722 -72.524)" fill="url(#linear-gradient-5)"/>
            <path id="Path_1833-2" data-name="Path 1833" d="M74.608,113.419l-20.441-11.78a2.889,2.889,0,0,1-1.4-2.206V75.1c0-.78.619-1.049,1.4-.592L74.583,86.281a2.882,2.882,0,0,1,1.4,2.206v24.341C76.008,113.611,75.389,113.876,74.608,113.419Zm155.919,90.023-20.414-11.777a2.889,2.889,0,0,1-1.4-2.206V165.114c0-.78.619-1.049,1.4-.592L230.527,176.3a2.882,2.882,0,0,1,1.4,2.206v24.341C231.928,203.629,231.307,203.9,230.527,203.441Z" transform="translate(-52.769 -74.282)" fill="url(#linear-gradient-6)"/>
          </g>
          <g id="Group_4076-2" data-name="Group 4076" transform="translate(129.318 74.578)">
            <path id="Path_1834-2" data-name="Path 1834" d="M196.466,206.58,176.051,194.8a2.889,2.889,0,0,1-1.4-2.206v-47.21c0-.78.619-1.049,1.4-.592l20.415,11.777a2.884,2.884,0,0,1,1.4,2.21v47.2C197.867,206.766,197.219,207.034,196.466,206.58Z" transform="translate(-174.653 -144.573)" fill="url(#linear-gradient-7)"/>
            <path id="Path_1835-2" data-name="Path 1835" d="M185.193,148.259c-.268-.135-.511-.318-.78-.484v53.474c.35.161.726.318,1.076.484V148.42A2.966,2.966,0,0,1,185.193,148.259Z" transform="translate(-174.058 -144.377)" fill="url(#linear-gradient-8)"/>
          </g>
          <g id="Group_4077-2" data-name="Group 4077" transform="translate(26.628 15.331)">
            <path id="Path_1836-2" data-name="Path 1836" d="M99.68,150.757,79.265,138.98a2.886,2.886,0,0,1-1.4-2.209V89.547c0-.78.619-1.049,1.4-.592L99.68,100.731a2.882,2.882,0,0,1,1.4,2.206v47.2C101.077,150.92,100.432,151.19,99.68,150.757Z" transform="translate(-77.866 -88.732)" fill="url(#linear-gradient-9)"/>
            <path id="Path_1837-2" data-name="Path 1837" d="M88.381,92.413c-.269-.135-.511-.318-.78-.484V145.4c.35.161.726.318,1.076.484V92.576A2.867,2.867,0,0,0,88.381,92.413Z" transform="translate(-77.272 -88.537)" fill="url(#linear-gradient-10)"/>
          </g>
          <path id="Path_1838-2" data-name="Path 1838" d="M153.9,158.172c-.161.484-.673.619-1.318.268l-20.414-11.777a2.889,2.889,0,0,1-1.4-2.206V120.115a.69.69,0,0,1,.591-.775.739.739,0,0,1,.108-.005,1.179,1.179,0,0,0-.081.318V144a2.844,2.844,0,0,0,1.4,2.2L153.2,157.979A1.252,1.252,0,0,0,153.9,158.172Zm-25.659-14.6L107.8,131.791a2.889,2.889,0,0,1-1.4-2.206V105.241a.97.97,0,0,1,.081-.318.688.688,0,0,0-.7.672.739.739,0,0,0,.005.108v24.337a2.846,2.846,0,0,0,1.4,2.206l20.414,11.777c.645.377,1.156.242,1.318-.268A1.163,1.163,0,0,1,128.239,143.568ZM75.226,112.959l-20.414-11.78a2.889,2.889,0,0,1-1.4-2.206V74.632a.97.97,0,0,1,.081-.318.688.688,0,0,0-.7.672.739.739,0,0,0,.005.108V99.431a2.845,2.845,0,0,0,1.4,2.21l20.414,11.777c.645.377,1.156.242,1.318-.268A1.065,1.065,0,0,1,75.226,112.959ZM178.159,172.4l-20.414-11.777a2.889,2.889,0,0,1-1.4-2.206V134.073a.971.971,0,0,1,.081-.318.688.688,0,0,0-.7.672.741.741,0,0,0,.005.108v24.337a2.846,2.846,0,0,0,1.4,2.206l20.414,11.777c.645.377,1.156.242,1.318-.269a1.523,1.523,0,0,1-.7-.184Zm53.013,30.608-20.414-11.777a2.889,2.889,0,0,1-1.4-2.206V164.682a.97.97,0,0,1,.081-.318.688.688,0,0,0-.7.672.741.741,0,0,0,.005.108V189.48a2.845,2.845,0,0,0,1.4,2.206l20.414,11.777c.645.377,1.156.242,1.318-.268a1.448,1.448,0,0,1-.7-.186Z" transform="translate(-52.768 -74.28)" fill="#b3c1c1" opacity="0.9" style="isolation: isolate"/>
        </g>
      </g>
      <g id="组_4689" data-name="组 4689">
        <path id="Path_1796-3" data-name="Path 1796" d="M240.328,230.924,49.068,119.788l.027,9.495L240.328,240.418Z" transform="translate(-46.06 -22.754)" fill="#333536"/>
        <path id="Path_1797-3" data-name="Path 1797" d="M237.564,173.328,46.33,62.192l.081,62.722,191.26,111.163Z" transform="translate(-46.227 -26.267)" fill="url(#linear-gradient)"/>
        <path id="Path_1798-3" data-name="Path 1798" d="M97.894,29.157c-4.277-2.5-14.524.941-24.772,6.858C59.7,43.735,46.3,55.731,46.33,64.257L237.564,175.393c-.027-8.5,13.368-20.5,26.789-28.241,10.247-5.917,20.469-9.337,24.772-6.858Z" transform="translate(-46.227 -28.332)" fill="url(#linear-gradient-2)"/>
        <path id="Path_1799-3" data-name="Path 1799" d="M280.309,200.769l-.081-62.749c-.027-8.5-13.448-5.03-26.843,2.716-13.421,7.745-26.815,19.742-26.789,28.241l.081,62.749,2.824-1.64v9.521l48.037-27.726-.054-9.495Z" transform="translate(-35.233 -21.944)" fill="#9bafb0"/>
        <path id="Path_1800-3" data-name="Path 1800" d="M280.309,198.665,229.582,167.6,226.6,175.45l.081,54.2,2.824-1.64V237.5l48.037-27.7-.054-9.495Z" transform="translate(-35.233 -19.838)" fill="#64797d" opacity="0.3" style="isolation: isolate"/>
        <path id="路径_2517-3" data-name="路径 2517" d="M76.886,18.753c-4.758-2.9-11.815-4.283-23.216,2.584-14.9,8.958-29.806,22.88-29.776,32.774L215.336,166.337c-.029-9.508,11.329-18.855,25.876-27.613l1.377-.829c11.4-6.867,23.959-8.764,28.747-5.892Z" transform="translate(-24.336 -19.012)" fill="url(#linear-gradient-3)"/>
        <g id="Group_4058-3" data-name="Group 4058" transform="translate(194.322 114.175)">
          <path id="Path_1801-3" data-name="Path 1801" d="M283.743,199.173,229.412,167.6l-.027,58.63,54.358,31.523Z" transform="translate(-229.385 -134.014)" fill="#333536"/>
          <path id="Path_1802-3" data-name="Path 1802" d="M283.743,140.293l-6.159-3.578c-4.007-2.339-13.581.888-23.158,6.4-12.531,7.236-25.067,18.447-25.04,26.413l54.331,31.576V140.293Z" transform="translate(-229.385 -135.944)" fill="url(#linear-gradient-4)"/>
        </g>
        <g id="组_4482-3" data-name="组 4482" transform="translate(0 83.008)">
          <path id="路径_2512-3" data-name="路径 2512" d="M237.493,225.5c-7.032-4.19-15.163-9.093-22.2-13.273q-29.6-17.581-59.2-35.149-38.248-22.7-76.5-45.39C68.645,125.2,46.4,111.881,46.4,111.881s-.164-2.7-.164-5.313c4.582,2.748,10.881,6.61,15.476,9.34q27.681,16.443,55.375,32.869,34.147,20.263,68.3,40.52,26,15.423,51.992,30.842C237.493,222.692,237.493,222.692,237.493,225.5Z" transform="translate(-46.233 -106.568)" fill="#b40017"/>
        </g>
        <g id="Group_4078-3" data-name="Group 4078" transform="translate(6.935 48.752)">
          <g id="Group_4075-3" data-name="Group 4075">
            <path id="Path_1832-3" data-name="Path 1832" d="M124.547,142.27l-20.414-11.777a2.889,2.889,0,0,1-1.4-2.206V103.915c0-.78.619-1.049,1.4-.592L124.547,115.1a2.882,2.882,0,0,1,1.4,2.206v24.345C125.945,142.457,125.327,142.727,124.547,142.27Zm24.96,14.414-20.414-11.777a2.889,2.889,0,0,1-1.4-2.206V118.358c0-.78.619-1.049,1.4-.592l20.414,11.777a2.884,2.884,0,0,1,1.4,2.207v24.344C150.933,156.874,150.286,157.116,149.507,156.683ZM174.494,171.1l-20.414-11.777a2.889,2.889,0,0,1-1.4-2.206V132.775c0-.78.619-1.049,1.4-.592l20.414,11.777a2.883,2.883,0,0,1,1.4,2.209V170.51C175.889,171.263,175.246,171.537,174.494,171.1Z" transform="translate(-49.722 -72.524)" fill="url(#linear-gradient-5)"/>
            <path id="Path_1833-3" data-name="Path 1833" d="M74.608,113.419l-20.441-11.78a2.889,2.889,0,0,1-1.4-2.206V75.1c0-.78.619-1.049,1.4-.592L74.583,86.281a2.882,2.882,0,0,1,1.4,2.206v24.341C76.008,113.611,75.389,113.876,74.608,113.419Zm155.919,90.023-20.414-11.777a2.889,2.889,0,0,1-1.4-2.206V165.114c0-.78.619-1.049,1.4-.592L230.527,176.3a2.882,2.882,0,0,1,1.4,2.206v24.341C231.928,203.629,231.307,203.9,230.527,203.441Z" transform="translate(-52.769 -74.282)" fill="url(#linear-gradient-6)"/>
          </g>
          <g id="Group_4076-3" data-name="Group 4076" transform="translate(129.318 74.578)">
            <path id="Path_1834-3" data-name="Path 1834" d="M196.466,206.58,176.051,194.8a2.889,2.889,0,0,1-1.4-2.206v-47.21c0-.78.619-1.049,1.4-.592l20.415,11.777a2.884,2.884,0,0,1,1.4,2.21v47.2C197.867,206.766,197.219,207.034,196.466,206.58Z" transform="translate(-174.653 -144.573)" fill="url(#linear-gradient-7)"/>
            <path id="Path_1835-3" data-name="Path 1835" d="M185.193,148.259c-.268-.135-.511-.318-.78-.484v53.474c.35.161.726.318,1.076.484V148.42A2.966,2.966,0,0,1,185.193,148.259Z" transform="translate(-174.058 -144.377)" fill="url(#linear-gradient-8)"/>
          </g>
          <g id="Group_4077-3" data-name="Group 4077" transform="translate(26.628 15.331)">
            <path id="Path_1836-3" data-name="Path 1836" d="M99.68,150.757,79.265,138.98a2.886,2.886,0,0,1-1.4-2.209V89.547c0-.78.619-1.049,1.4-.592L99.68,100.731a2.882,2.882,0,0,1,1.4,2.206v47.2C101.077,150.92,100.432,151.19,99.68,150.757Z" transform="translate(-77.866 -88.732)" fill="url(#linear-gradient-9)"/>
            <path id="Path_1837-3" data-name="Path 1837" d="M88.381,92.413c-.269-.135-.511-.318-.78-.484V145.4c.35.161.726.318,1.076.484V92.576A2.867,2.867,0,0,0,88.381,92.413Z" transform="translate(-77.272 -88.537)" fill="url(#linear-gradient-10)"/>
          </g>
          <path id="Path_1838-3" data-name="Path 1838" d="M153.9,158.172c-.161.484-.673.619-1.318.268l-20.414-11.777a2.889,2.889,0,0,1-1.4-2.206V120.115a.69.69,0,0,1,.591-.775.739.739,0,0,1,.108-.005,1.179,1.179,0,0,0-.081.318V144a2.844,2.844,0,0,0,1.4,2.2L153.2,157.979A1.252,1.252,0,0,0,153.9,158.172Zm-25.659-14.6L107.8,131.791a2.889,2.889,0,0,1-1.4-2.206V105.241a.97.97,0,0,1,.081-.318.688.688,0,0,0-.7.672.739.739,0,0,0,.005.108v24.337a2.846,2.846,0,0,0,1.4,2.206l20.414,11.777c.645.377,1.156.242,1.318-.268A1.163,1.163,0,0,1,128.239,143.568ZM75.226,112.959l-20.414-11.78a2.889,2.889,0,0,1-1.4-2.206V74.632a.97.97,0,0,1,.081-.318.688.688,0,0,0-.7.672.739.739,0,0,0,.005.108V99.431a2.845,2.845,0,0,0,1.4,2.21l20.414,11.777c.645.377,1.156.242,1.318-.268A1.065,1.065,0,0,1,75.226,112.959ZM178.159,172.4l-20.414-11.777a2.889,2.889,0,0,1-1.4-2.206V134.073a.971.971,0,0,1,.081-.318.688.688,0,0,0-.7.672.741.741,0,0,0,.005.108v24.337a2.846,2.846,0,0,0,1.4,2.206l20.414,11.777c.645.377,1.156.242,1.318-.269a1.523,1.523,0,0,1-.7-.184Zm53.013,30.608-20.414-11.777a2.889,2.889,0,0,1-1.4-2.206V164.682a.97.97,0,0,1,.081-.318.688.688,0,0,0-.7.672.741.741,0,0,0,.005.108V189.48a2.845,2.845,0,0,0,1.4,2.206l20.414,11.777c.645.377,1.156.242,1.318-.268a1.448,1.448,0,0,1-.7-.186Z" transform="translate(-52.768 -74.28)" fill="#b3c1c1" opacity="0.9" style="isolation: isolate"/>
        </g>
      </g>
      <path id="路径_2516" data-name="路径 2516" d="M53,6.337c-4.758-2.9-11.815-4.283-23.216,2.584C14.883,17.879-.02,31.8.01,41.695L215.336,166.337c-.029-9.508,11.329-18.855,25.876-27.613l1.377-.829c11.4-6.867,23.959-8.764,28.747-5.892Z" transform="translate(199.664 110.988)" fill="url(#linear-gradient-31)"/>
      <path id="Path_1803" data-name="Path 1803" d="M451.639,353.888,237.167,229.251l.027,9.521L451.639,363.41Z" transform="translate(-34.588 -16.078)" fill="#333536"/>
      <path id="Path_1804" data-name="Path 1804" d="M486.085,330.747l-46.8,27v-9.145l46.8-27Z" transform="translate(-22.261 -10.446)" fill="#535657"/>
      <path id="Path_1805" data-name="Path 1805" d="M448.9,296.292,234.429,171.655l.081,62.749L461.865,366.465l1.251-35.718Z" transform="translate(-34.755 -19.591)" fill="url(#linear-gradient-32)"/>
      <path id="Path_1806" data-name="Path 1806" d="M285.993,138.62c-4.277-2.5-14.524.941-24.772,6.858C247.8,153.225,234.4,165.22,234.429,173.72L448.874,298.359c-.027-8.5,13.368-20.5,26.789-28.241,9.973-5.756,13.529-5.608,18.6-6.332.027,0,10.335,1.187,10.309,1.161Z" transform="translate(-34.755 -21.656)" fill="url(#linear-gradient-33)"/>
      <path id="Path_1807" data-name="Path 1807" d="M509.532,320.6c0,11.1-7.352,12.955-8.488,13.617l-47.875,27.6a3.126,3.126,0,0,1-4.653-2.178s1.967-6.3-.381-25.359c-1.068-8.671-11.588-43.146-11.588-43.146-.027-8.5,13.367-20.5,26.789-28.241,0,0,19.433-11.518,28.907-5.145S509.532,320.6,509.532,320.6Z" transform="translate(-22.428 -14.458)" fill="url(#linear-gradient-34)"/>
      <g id="组_4481" data-name="组 4481" transform="translate(200.608 200.515)">
        <path id="路径_2511" data-name="路径 2511" d="M235.343,217.321q10.871,6.366,21.743,12.73,18.687,10.9,37.387,21.783,31.39,18.3,62.78,36.595c28.037,16.345,73.162,41.068,101.2,57.408.676,4.475.4,2.211,1.011,5.786-7.909-4.625-34.441-18.532-42.356-23.148q-45.017-26.253-90.039-52.5c-28.7-16.726-62.978-35.977-91.675-52.7C235.333,220.944,235.268,220.188,235.343,217.321Z" transform="translate(-235.309 -217.321)" fill="#b40017"/>
      </g>
      <path id="路径_2515" data-name="路径 2515" d="M53,6.337c-4.758-2.9-11.815-4.283-23.216,2.584C14.883,17.879-.02,31.8.01,41.695L215.336,166.337c-.029-9.508,11.329-18.855,25.876-27.613l1.377-.829c11.4-6.867,23.959-8.764,28.747-5.892Z" transform="translate(199.664 110.988)" fill="url(#linear-gradient-31)"/>
      <g id="Group_4074" data-name="Group 4074" transform="translate(204.865 162.922)">
        <g id="Group_4071" data-name="Group 4071">
          <path id="Path_1824" data-name="Path 1824" d="M311.1,249.88,290.686,238.1a2.889,2.889,0,0,1-1.4-2.206V211.553c0-.78.619-1.049,1.4-.592L311.1,222.738a2.882,2.882,0,0,1,1.4,2.206v24.341C312.5,250.04,311.853,250.311,311.1,249.88Zm24.96,14.389-20.414-11.777a2.889,2.889,0,0,1-1.4-2.206V225.942c0-.78.619-1.049,1.4-.592l20.414,11.777a2.882,2.882,0,0,1,1.4,2.206v24.341c0,.784-.62,1.054-1.4.6Zm24.959,14.418L340.6,266.91a2.889,2.889,0,0,1-1.4-2.206V240.359c0-.78.619-1.049,1.4-.592l20.414,11.777a2.882,2.882,0,0,1,1.4,2.206v24.341C362.419,278.875,361.8,279.143,361.019,278.687Z" transform="translate(-236.275 -180.129)" fill="url(#linear-gradient-36)"/>
          <path id="Path_1825" data-name="Path 1825" d="M261.135,221.031,240.72,209.254a2.889,2.889,0,0,1-1.4-2.206V182.7c0-.78.619-1.049,1.4-.592l20.414,11.777a2.882,2.882,0,0,1,1.4,2.206V220.44C262.533,221.22,261.915,221.488,261.135,221.031Zm155.919,90.023-20.414-11.777a2.889,2.889,0,0,1-1.4-2.206V272.727c0-.78.619-1.049,1.4-.592l20.414,11.777a2.882,2.882,0,0,1,1.4,2.206v24.341c.028.783-.619,1.053-1.4.6Z" transform="translate(-239.322 -181.889)" fill="url(#linear-gradient-37)"/>
        </g>
        <g id="Group_4072" data-name="Group 4072" transform="translate(129.291 74.557)">
          <path id="Path_1826" data-name="Path 1826" d="M382.994,314.191l-20.414-11.777a2.89,2.89,0,0,1-1.4-2.206V252.975c0-.78.619-1.049,1.4-.592l20.414,11.777a2.882,2.882,0,0,1,1.4,2.206v47.2C384.392,314.38,383.774,314.648,382.994,314.191Z" transform="translate(-361.181 -252.16)" fill="url(#linear-gradient-38)"/>
          <path id="Path_1827" data-name="Path 1827" d="M371.721,255.871c-.268-.135-.511-.318-.78-.484v53.474c.35.161.726.318,1.076.484V256.006A2.974,2.974,0,0,0,371.721,255.871Z" transform="translate(-360.586 -251.963)" fill="url(#linear-gradient-39)"/>
        </g>
        <g id="Group_4073" data-name="Group 4073" transform="translate(26.6 15.304)">
          <path id="Path_1828" data-name="Path 1828" d="M286.206,258.344l-20.414-11.777a2.889,2.889,0,0,1-1.4-2.206V197.128c0-.78.619-1.049,1.4-.592l20.414,11.777a2.884,2.884,0,0,1,1.4,2.21v47.2C287.607,258.533,286.986,258.8,286.206,258.344Z" transform="translate(-264.393 -196.313)" fill="url(#linear-gradient-40)"/>
          <path id="Path_1829" data-name="Path 1829" d="M274.933,200.028c-.269-.135-.511-.318-.78-.484v53.474c.35.161.726.318,1.076.484V200.158A3.055,3.055,0,0,0,274.933,200.028Z" transform="translate(-263.798 -196.116)" fill="url(#linear-gradient-41)"/>
        </g>
        <path id="Path_1830" data-name="Path 1830" d="M439.9,324.257,419.49,312.48a2.889,2.889,0,0,1-1.4-2.206V285.93c0-.78.619-1.049,1.4-.592l13.071,7.557a9.65,9.65,0,0,1,4.68,6.725l4.088,24.1C441.3,324.418,440.685,324.688,439.9,324.257Z" transform="translate(-228.419 -175.593)" fill="url(#linear-gradient-42)"/>
        <path id="Path_1831" data-name="Path 1831" d="M340.425,265.787c-.161.484-.673.619-1.318.27L318.692,254.28a2.889,2.889,0,0,1-1.4-2.206V227.728a.69.69,0,0,1,.591-.775.741.741,0,0,1,.108-.005,1.181,1.181,0,0,0-.081.318v24.341a2.846,2.846,0,0,0,1.4,2.206l20.414,11.777A1.529,1.529,0,0,0,340.425,265.787Zm-25.659-14.6-20.414-11.777a2.889,2.889,0,0,1-1.4-2.206V212.854a.97.97,0,0,1,.081-.318.688.688,0,0,0-.7.672.743.743,0,0,0,.005.108v24.341a2.846,2.846,0,0,0,1.4,2.206l20.414,11.777c.645.377,1.156.242,1.318-.268a1.531,1.531,0,0,1-.7-.19Zm-52.987-30.608-20.414-11.781a2.889,2.889,0,0,1-1.4-2.206V182.219a.971.971,0,0,1,.081-.318.688.688,0,0,0-.7.672.741.741,0,0,0,.005.108v24.337a2.846,2.846,0,0,0,1.4,2.206L261.161,221c.645.377,1.156.242,1.318-.268A1,1,0,0,1,261.779,220.574Zm102.935,59.441L344.3,268.238a2.889,2.889,0,0,1-1.4-2.206V241.66a.97.97,0,0,1,.081-.318.688.688,0,0,0-.7.672.743.743,0,0,0,.005.108v24.341a2.846,2.846,0,0,0,1.4,2.206L364.1,280.446c.645.377,1.156.242,1.318-.268A1.163,1.163,0,0,1,364.714,280.015Zm86.714,50.079-20.414-11.777a2.889,2.889,0,0,1-1.4-2.206V291.768a.97.97,0,0,1,.081-.318.688.688,0,0,0-.7.672.743.743,0,0,0,.005.108v24.341a2.846,2.846,0,0,0,1.4,2.206l20.415,11.777c.645.377,1.156.242,1.318-.268a1.607,1.607,0,0,1-.7-.19Zm-33.728-19.5-20.413-11.778a2.889,2.889,0,0,1-1.4-2.206V272.269a.97.97,0,0,1,.081-.318.688.688,0,0,0-.7.672.738.738,0,0,0,.005.108v24.337a2.846,2.846,0,0,0,1.4,2.206l20.414,11.777c.645.377,1.156.242,1.318-.268a1.243,1.243,0,0,1-.7-.186Z" transform="translate(-239.321 -181.888)" fill="#b3c1c1" opacity="0.9" style="isolation: isolate"/>
      </g>
    </g>
    <g id="组_4486" data-name="组 4486" transform="translate(469.965 269.648)">
      <g id="Group_4061" data-name="Group 4061">
        <path id="Path_1809" data-name="Path 1809" d="M500.317,318.172c6.735-4.117,6.257-2.473,6.248-8.549l-13.214-46.966a2.97,2.97,0,0,0-2.932-2.582c-4.357-.054-11.7,2.69-19.581,7.262-12.964,7.477-23.05,17.133-24.986,23.615a7.049,7.049,0,0,0-.135,3.093l7.988,45.644a3.615,3.615,0,0,0,5.379,2.5Z" transform="translate(-445.607 -255.514)" fill="url(#linear-gradient-43)"/>
        <g id="组_4484" data-name="组 4484" transform="translate(2.833)">
          <g id="组_4483" data-name="组 4483" clip-path="url(#clip-path)">
            <g id="Group_4060" data-name="Group 4060" transform="translate(1.803 53.689)">
              <path id="Path_1810" data-name="Path 1810" d="M519.319,313.344,462.026,346.4l-12.05-6.939,57.263-33.083Z" transform="translate(-449.976 -306.379)" fill="#c7d2d2" opacity="0.2" style="isolation: isolate"/>
            </g>
          </g>
        </g>
        <g id="组_4485" data-name="组 4485" transform="translate(4.376 8.991)">
          <path id="路径_2513" data-name="路径 2513" d="M468.292,271.962c-9.607,6.1-16.842,13.367-18.349,18.407a6.086,6.086,0,0,0-.116,2.663l6.878,39.3a3.116,3.116,0,0,0,4.632,2.155l18.044-10.512Z" transform="translate(-449.732 -263.78)" fill="url(#linear-gradient-44)"/>
          <path id="路径_2514" data-name="路径 2514" d="M497.153,311.059l-7.5-44.584a2.559,2.559,0,0,0-2.524-2.224c-3.753-.047-10.075,2.316-16.861,6.253-.319.185-.629.376-.944.562l11.592,51.8,14.735-8.584A3.139,3.139,0,0,0,497.153,311.059Z" transform="translate(-448.537 -264.25)" fill="url(#linear-gradient-45)"/>
        </g>
      </g>
      <path id="Path_1823" data-name="Path 1823" d="M493.375,262.682a2.97,2.97,0,0,0-2.932-2.582c-4.357-.054-11.7,2.69-19.581,7.262-12.964,7.477-23.05,17.133-24.986,23.615a7.049,7.049,0,0,0-.135,3.093l.592,3.389,48.225-27.838Z" transform="translate(-445.606 -255.513)" opacity="0.9" fill="url(#linear-gradient-46)" style="isolation: isolate"/>
    </g>
    <g id="Group_4066" data-name="Group 4066" transform="translate(484.242 331.885)">
      <g id="Group_4063" data-name="Group 4063" transform="translate(0 19.403)">
        <g id="Group_4062" data-name="Group 4062">
          <path id="Path_1812" data-name="Path 1812" d="M470.291,332.811l-10.867,6.321a.684.684,0,0,0-.35.726l.941,5.325a.7.7,0,0,0,.815.57.718.718,0,0,0,.234-.086l10.867-6.32a.688.688,0,0,0,.35-.726l-.941-5.325a.724.724,0,0,0-.858-.556A.713.713,0,0,0,470.291,332.811Z" transform="translate(-459.064 -332.724)" fill="#cbdbdd"/>
        </g>
      </g>
      <g id="Group_4065" data-name="Group 4065" transform="translate(33.298)">
        <g id="Group_4064" data-name="Group 4064">
          <path id="Path_1813" data-name="Path 1813" d="M501.675,314.534l-10.867,6.32a.684.684,0,0,0-.35.726l.941,5.325a.7.7,0,0,0,.815.57.719.719,0,0,0,.234-.086l10.867-6.32a.688.688,0,0,0,.35-.726l-.941-5.325a.7.7,0,0,0-1.049-.484Z" transform="translate(-490.448 -314.436)" fill="#cbdbdd"/>
        </g>
      </g>
    </g>
    <path id="Path_1815" data-name="Path 1815" d="M501.675,314.534l-10.867,6.32a.684.684,0,0,0-.35.726l.94,5.325a.7.7,0,0,0,1.049.484l10.867-6.32a.688.688,0,0,0,.351-.726l-.941-5.325a.7.7,0,0,0-1.049-.484Z" transform="translate(27.092 17.449)" fill="#788a8d"/>
    <path id="Path_1814" data-name="Path 1814" d="M471.341,333.321l.94,5.325a.667.667,0,0,1-.35.726l-10.867,6.32a.706.706,0,0,1-1.049-.484l-.941-5.325a.668.668,0,0,1,.351-.726l10.867-6.32a.7.7,0,0,1,1.049.484Z" transform="translate(25.178 18.565)" fill="#788a8d"/>
    <path id="Path_1816" data-name="Path 1816" d="M471.276,334.437l.94,5.325a.667.667,0,0,1-.35.726l-10.86,6.321a.7.7,0,0,1-.888-.161.635.635,0,0,0,.3-.081l10.867-6.32a.688.688,0,0,0,.35-.726l-.941-5.325a.613.613,0,0,0-.161-.318A.673.673,0,0,1,471.276,334.437Zm33.3-19.416a.665.665,0,0,0-.751-.566h0a.737.737,0,0,1,.16.318l.941,5.325a.667.667,0,0,1-.35.726l-10.867,6.32a.545.545,0,0,1-.3.081.7.7,0,0,0,.888.161l10.867-6.32a.685.685,0,0,0,.35-.726Z" transform="translate(25.242 17.45)" fill="#cbdbdd" opacity="0.9" style="isolation: isolate"/>
    <path id="Path_1821" data-name="Path 1821" d="M462.1,350.316a.861.861,0,0,1-.834-.7l-.242-1.318a.832.832,0,0,1,.4-.86l3.389-1.99a2.509,2.509,0,0,1,.431-.106.861.861,0,0,1,.834.7l.242,1.318a.836.836,0,0,1-.4.86l-3.389,1.99A2.635,2.635,0,0,1,462.1,350.316Zm38.784-22.705a.861.861,0,0,1-.834-.7l-.242-1.318a.832.832,0,0,1,.4-.86l3.416-1.99a2.5,2.5,0,0,1,.431-.106.861.861,0,0,1,.834.7l.242,1.318a.836.836,0,0,1-.4.86l-3.389,1.99a4.59,4.59,0,0,1-.454.111Z" transform="translate(25.297 17.949)" fill="#212829" opacity="0.4" style="isolation: isolate"/>
    <path id="Path_1822" data-name="Path 1822" d="M465.878,346.006l.242,1.318a.544.544,0,0,1-.269.564l-3.415,1.99a.541.541,0,0,1-.741-.191.527.527,0,0,1-.067-.186l-.242-1.318a.541.541,0,0,1,.27-.564l3.416-1.99a.532.532,0,0,1,.806.377Zm37.951-23.1-3.416,1.99a.586.586,0,0,0-.269.564l.242,1.318a.54.54,0,0,0,.621.445.566.566,0,0,0,.187-.068l3.412-1.995a.591.591,0,0,0,.269-.564l-.242-1.318a.553.553,0,0,0-.651-.433.531.531,0,0,0-.155.056Z" transform="translate(25.319 17.961)" fill="url(#linear-gradient-47)"/>
    <g id="Group_4068" data-name="Group 4068" transform="translate(517.539 331.885)">
      <g id="组_4488" data-name="组 4488">
        <g id="组_4487" data-name="组 4487" clip-path="url(#clip-path-2)">
          <g id="Group_4067" data-name="Group 4067" transform="translate(0.2 2.902)">
            <path id="Path_1817" data-name="Path 1817" d="M490.953,324.995c-.106,0-.318,0-.318-.484a3.232,3.232,0,0,1,1.534-2.394,1.413,1.413,0,0,1,.617-.212c.107,0,.35,0,.35.484a3.307,3.307,0,0,1-1.533,2.394A1.633,1.633,0,0,1,490.953,324.995Zm4.007-2.367c-.106,0-.35,0-.35-.484a3.233,3.233,0,0,1,1.542-2.4,1.422,1.422,0,0,1,.619-.212c.106,0,.35,0,.35.484a3.307,3.307,0,0,1-1.533,2.394,1.316,1.316,0,0,1-.623.212Zm4.007-2.367c-.106,0-.35,0-.35-.484a3.233,3.233,0,0,1,1.533-2.394,1.422,1.422,0,0,1,.619-.212c.106,0,.35,0,.35.484a3.137,3.137,0,0,1-1.533,2.367,1.135,1.135,0,0,1-.619.242Z" transform="translate(-490.635 -317.171)" fill="#eaf5fa"/>
          </g>
        </g>
      </g>
    </g>
    <g id="Group_4070" data-name="Group 4070" transform="translate(484.238 351.302)">
      <g id="组_4490" data-name="组 4490">
        <g id="组_4489" data-name="组 4489" clip-path="url(#clip-path-3)">
          <g id="Group_4069" data-name="Group 4069" transform="translate(0.1 2.85)">
            <path id="Path_1819" data-name="Path 1819" d="M459.473,343.247c-.106,0-.318,0-.318-.484a3.227,3.227,0,0,1,1.533-2.394,1.412,1.412,0,0,1,.619-.212c.106,0,.35,0,.35.484a3.313,3.313,0,0,1-1.533,2.394A1.157,1.157,0,0,1,459.473,343.247Zm4.007-2.367c-.106,0-.35,0-.35-.484A3.227,3.227,0,0,1,464.664,338a1.412,1.412,0,0,1,.619-.212c.106,0,.35,0,.35.484a3.314,3.314,0,0,1-1.533,2.394,1.021,1.021,0,0,1-.619.209Zm4.007-2.367c-.106,0-.35,0-.35-.484a3.228,3.228,0,0,1,1.533-2.394,1.412,1.412,0,0,1,.619-.212c.106,0,.318,0,.318.484a3.143,3.143,0,0,1-1.533,2.367.811.811,0,0,1-.592.242Z" transform="translate(-459.155 -335.423)" fill="#eaf5fa"/>
          </g>
        </g>
      </g>
    </g>
  </g>
</svg>
