<svg xmlns="http://www.w3.org/2000/svg" width="178.125" height="141.888" viewBox="0 0 178.125 141.888">
  <g id="Group_4492" data-name="Group 4492" transform="translate(-68.749 -64.991)">
    <path id="Path_2550" data-name="Path 2550" d="M207.261,249.258c1.464-1.013,2.349-2.962,2.33-5.666-.043-5.749-4.159-12.729-9.189-15.585-2.243-1.275-4.291-1.513-5.869-.874-.282.112-4.282,2.488-4.465,2.622-1.421,1.025-2.281,2.955-2.256,5.615.041,5.75,4.154,12.729,9.185,15.584,2.382,1.353,4.543,1.537,6.154.75Z" transform="translate(-35.916 -48.809)"/>
    <path id="Path_2551" data-name="Path 2551" d="M186.564,237.022c.044,5.754,4.156,12.731,9.187,15.588s9.081.511,9.039-5.238-4.154-12.732-9.189-15.589S186.521,231.272,186.564,237.022Z" transform="translate(-35.54 -49.947)" fill="#121212"/>
    <path id="Path_2552" data-name="Path 2552" d="M190.452,240.586a13.745,13.745,0,0,0,6.322,10.718c3.46,1.967,6.245.352,6.217-3.6a13.759,13.759,0,0,0-6.323-10.722C193.208,235.015,190.427,236.627,190.452,240.586Z" transform="translate(-36.713 -51.629)" fill="#c3c3c3"/>
    <path id="Path_2553" data-name="Path 2553" d="M100.608,188.408c1.462-1.011,2.343-2.96,2.326-5.661-.044-5.752-4.156-12.729-9.187-15.587-2.243-1.276-4.291-1.513-5.87-.874-.281.112-4.279,2.49-4.462,2.623-1.422,1.024-2.279,2.955-2.259,5.613.04,5.752,4.157,12.73,9.188,15.587,2.374,1.351,4.537,1.537,6.15.748Z" transform="translate(-3.742 -30.453)"/>
    <path id="Path_2554" data-name="Path 2554" d="M79.907,176.175c.041,5.754,4.159,12.73,9.188,15.586s9.081.512,9.041-5.238-4.159-12.73-9.188-15.588S79.868,170.426,79.907,176.175Z" transform="translate(-3.366 -31.592)" fill="#121212"/>
    <path id="Path_2555" data-name="Path 2555" d="M83.794,179.739a13.773,13.773,0,0,0,6.32,10.719c3.464,1.964,6.247.353,6.219-3.606a13.751,13.751,0,0,0-6.32-10.719C86.552,174.169,83.766,175.783,83.794,179.739Z" transform="translate(-4.538 -33.275)" fill="#c3c3c3"/>
    <path id="Path_2556" data-name="Path 2556" d="M231.243,244.117c-.015.006-.027.014-.043.02Z" transform="translate(-49.005 -54.035)" fill="#f5ba75"/>
    <path id="Path_2557" data-name="Path 2557" d="M246.3,164.647c.022-.272.059.906.122.769-.053.117-.1-1.159-.152-1.041-.032-.274-.066.845-.1.568v-.006l0-.022q-.129-1-.293-2.017l0-.011q-.167-1.023-.374-2.057l-.01-.049q-.2-.993-.445-1.987c-.014-.054-.029-.11-.042-.164q-.236-.941-.513-1.872c-.022-.073-.044-.145-.066-.218q-.249-.817-.533-1.621a9.378,9.378,0,0,0-1.17-4.073c-.024.28-.073.594-.135.92v0a5.016,5.016,0,0,0-.226-1.491c-.325-.606-.67-1.2-1.042-1.771-3.414-5.27-12.591-9.6-17.814-13.086l-19.687-12.9-13.23-28.248q-1.314-1.545-2.665-3.057c-4.386-2.7-16.493-10.032-28.626-16.262-9.128-4.93-16.907-9.7-25.845-9.935-.236-.015-.465-.023-.686-.023-.164,0-.339.01-.522.025-14.882.881-46.756,24.392-46.756,24.392l.085.045-8.21,11.021L74.1,107.288l-.034.112-.235.03A59.725,59.725,0,0,0,71.79,117c-.374,2.984-.617,9.75-.756,15.019L68.757,133.3v1.4l-.008,0,.008.011v4.65l5.634,3.255.918.709a8.04,8.04,0,0,1,7.364-5.719l.392-.241c.316.071.637.167.96.274a3.254,3.254,0,0,1,1.405.568c5.078,2.4,10.3,8.733,11.039,16.926l-.034-.02.079,2.36,35.492,20.219,14.976,8.836c2.684-4.759,6.581-8.335,11.566-7.542v-.216a17.772,17.772,0,0,1,5.1,1.992,17.216,17.216,0,0,1,5.858,5.174c.546,1.2,1.475,3.285,2.23,5.157a25.735,25.735,0,0,1,.58,3.458l.446-.2c0,.032.012.064.017.1a26.707,26.707,0,0,1,0,6.066l.038.013-.015.138s19.857,6.178,23.709,6.214a46.587,46.587,0,0,0,15-2.361l.027-.077c7.467-.824,13.63-4.183,19.4-7.946,4.912-3.2,8.715-6.466,10.577-9.4a7.223,7.223,0,0,0,1-2.613c1.529-1.55,2.552-2.1,3.479-4.4a12.6,12.6,0,0,0,.877-4.942C246.823,172.627,246.774,168.841,246.3,164.647Z" fill="#dddede"/>
    <path id="Path_2558" data-name="Path 2558" d="M248.65,235.043c-12.329,1.379-25.61-.159-36.829-5.742.3.36.587.726.848,1.11.546,1.2,1.475,3.285,2.23,5.157a25.737,25.737,0,0,1,.58,3.458l.446-.2c0,.032.012.064.017.1a26.707,26.707,0,0,1,0,6.066l.038.013-.015.138s19.857,6.178,23.709,6.214a46.587,46.587,0,0,0,15-2.361l.027-.077c7.467-.824,13.63-4.183,19.4-7.946,4.912-3.2,8.715-6.466,10.577-9.4a7.223,7.223,0,0,0,1-2.613c1.529-1.55,2.552-2.1,3.479-4.4a12.6,12.6,0,0,0,.877-4.942c-.035-1.828-.073-4.338-.272-7.185C280.275,226.119,265.056,233.207,248.65,235.043Z" transform="translate(-43.159 -44.475)" fill="#afb0b1"/>
    <path id="Path_2559" data-name="Path 2559" d="M69.556,162.163l-.8.45v1.4l-.008,0,.008.011v4.65l5.634,3.255.918.709a9.691,9.691,0,0,1,1.725-3.022A74.5,74.5,0,0,1,69.556,162.163Z" transform="translate(0 -29.313)" fill="#861a22"/>
    <path id="Path_2560" data-name="Path 2560" d="M144.88,197.771c-6.684-1.881-13.634-2.436-20.466-3.541a75.18,75.18,0,0,1-16.721-4.675,21.9,21.9,0,0,1,.524,3.152l-.034-.02.079,2.36,35.492,20.219,14.976,8.836c2.684-4.759,6.581-8.335,11.566-7.542v-.216a17.318,17.318,0,0,1,3.659,1.249C166.034,208.719,156.5,201.043,144.88,197.771Z" transform="translate(-11.748 -37.576)" fill="#861a22"/>
    <path id="Path_2561" data-name="Path 2561" d="M247.863,161.787c-.022-.211-.026-.3.008-.02l.006-.013c-.036-.32-.4-1.668-.507-2.346l0-.011c-.111-.682-1.2-4.81-1.383-5.431-.022-.073-.044-.145-.066-.218q-.249-.817-.533-1.621c0-.036-.01-.072-.013-.108-.105-1.356-1.492-2.943-1.864-3.516a15.763,15.763,0,0,0-2.456-2.838l.014-.006c-3.032-2.86-7.4-5.407-11.192-7.663-.637-.378-1.261-.751-1.857-1.114l-.339-.207c-.241-.148-.476-.293-.706-.439l-.309-.193-.025-.016c-.325-.206-.642-.411-.943-.611l-18.989-12.9-6.855-13.144-7.073-15.1q-1.314-1.545-2.665-3.057c-4.386-2.7-16.493-10.032-28.626-16.262q-1.14-.616-2.251-1.225-1.208-.659-2.39-1.3l-.1-.054q-1.107-.6-2.2-1.177l-.221-.117q-.974-.513-1.938-1l-.289-.147c-1.415-.71-2.818-1.369-4.22-1.963l-.3-.126a43.315,43.315,0,0,0-4.231-1.527l-.1-.032,0,0a29.284,29.284,0,0,0-7.608-1.27c-.236-.015-.465-.023-.686-.023-.164,0-.339.01-.522.025-14.882.881-46.756,24.392-46.756,24.392l.085.045-8.21,11.021-3.261,6.814-.034.112-.235.03S86.8,113.6,102.233,122.2a34.4,34.4,0,0,1,4.071,5.242c5.131,8.2,6.538,19.077,14.2,24.989,5.278,4.073,12.447,4.784,19.08,4.1,6.6-.676,13.032-2.556,19.639-3.108,1.1.592,2,1.068,2.643,1.407a.186.186,0,0,0,.034.006c1.3.7,2.347,1.258,3.083,1.644.2.105,7.639,4.254,7.8,4.383,10.865,8.87,8.569,11.5,13.456,16.114,6.006,6.006,6.019,5.4,6.456,9.43a5.452,5.452,0,0,0,4.925,4.866,47.594,47.594,0,0,0,17.444-1.61l5.2,8.309a5.23,5.23,0,0,0,6.918,1.829,74.21,74.21,0,0,0,9.868-6.063c3.438-2.893,7.116-6.614,7.306-7.956a101.868,101.868,0,0,0,.565-14.693C248.314,167.2,248.2,165.538,247.863,161.787Z" transform="translate(-2.195)" fill="#b91f2c"/>
    <path id="Path_2562" data-name="Path 2562" d="M194.675,201.2c-1.148-2.687-3.12-10.349-4.8-12.83-4.672-6.886-12.058-13.733-17.662-19.841-5.491-5.985-10.826-12.26-14.763-19.4-4.121-7.48-6.5-12.708-12.416-20.328-2.191-2.823-7.129-4.7-10.2-6.177-5.782-2.786-12.105-4.6-17.432-8.177-8.178-5.5-15.391-7.932-23.413-12.037a19.047,19.047,0,0,0-7.338-.34l-7.1,9.528-3.261,6.814-.034.112-.235.03s10.776,6.169,26.209,14.773a34.4,34.4,0,0,1,4.071,5.242c5.131,8.2,6.538,19.077,14.2,24.989,6.37,4.915,13.467,4.194,20.642,3.716l.165.184q1.106-.147,2.21-.326a35.484,35.484,0,0,1,9.331.529c8.516,1.851,15.792,7.358,21.954,13.52C176.5,182.87,185.723,189.466,194.675,201.2Z" transform="translate(-2.195 -11.119)" fill="#861a22"/>
    <path id="Path_2563" data-name="Path 2563" d="M233.705,203.166c25.346,1.907,49.874-19.723,47.159-28.006-.3-.558-.362-1.193-.709-1.72-1.758-2.675-5.044-5.011-8.627-7.462-1.639-1.122-3.39-2.084-5.007-3.044-.637-.379-1.26-.751-1.857-1.114l-.339-.207c-.241-.148-.476-.293-.706-.439l-.309-.193-.025-.016c-.325-.206-.642-.411-.943-.611l-8.694-5.906-.1.127c-.057-.105-.119-.208-.176-.314l-9.72-6.6a57.918,57.918,0,0,1-21,16.317c-9.623,4.538-14.563,8.077-25.14,9.233,2.964,5.773,2.964,5.773,6.867,9.747,6.294,7.2,18.562,16.271,20.649,17.574A18.384,18.384,0,0,0,233.705,203.166Z" transform="translate(-38.842 -24.937)" fill="#c92631"/>
    <path id="Path_2564" data-name="Path 2564" d="M237.1,137.112c-.632-1.875-13.03-25.781-13.03-25.781a3.926,3.926,0,0,0-5.444-1.809l-38.653,23.251a3.883,3.883,0,0,0-1.775,4.509l12.37,21.987a3.969,3.969,0,0,0,5.168,2.637c18.1-6.842,29.318-13.581,41.364-24.795" transform="translate(-32.965 -13.286)" fill="#0f0f0f"/>
    <path id="Path_2565" data-name="Path 2565" d="M220.215,112.455l-38.386,22.727a2.87,2.87,0,0,0-1.123,3.942L193.049,159a2.857,2.857,0,0,0,3.536,1.029c16.428-6.668,27.267-12.65,37.88-21.9a2.853,2.853,0,0,0,.764-3.438l-10.961-21.232A2.873,2.873,0,0,0,220.215,112.455Z" transform="translate(-33.655 -14.184)" fill="#757575"/>
    <path id="Path_2566" data-name="Path 2566" d="M221.831,119.509c5.993,3.935,12.011,7.835,18.155,11.53q3.931,2.364,7.877,4.7a2.592,2.592,0,0,0-.276-1.059l-10.961-21.232a2.873,2.873,0,0,0-4.054-1l-11.291,6.685C221.465,119.264,221.649,119.39,221.831,119.509Z" transform="translate(-46.013 -14.184)" fill="#b3b3b3"/>
    <path id="Path_2567" data-name="Path 2567" d="M143.459,134.617a21.176,21.176,0,0,0-7.27-6.42c-11.233-6.008-25.059-13.617-34.2-17.671a4.657,4.657,0,0,0-3.114-.25c-5.806,1.557-19.914,9.2-16.95,10.779,9.326,4.959,70.333,37.045,79.658,41.712.573.286,1.285-.346.938-.884C159.755,157.589,148.758,142.071,143.459,134.617Z" transform="translate(-3.852 -13.613)" fill="#1e1c1a"/>
    <g id="Group_4497" data-name="Group 4497" transform="translate(79.244 98.928)">
      <path id="Path_2568" data-name="Path 2568" d="M95.089,116.3c-5.057,2.344-11.327,6.036-11.312,7.3,1.551.825,4.286,2.27,7.818,4.132A41,41,0,0,1,95.089,116.3Z" transform="translate(-83.777 -114.406)" fill="#474645" stroke="#1e1c1a" stroke-miterlimit="10" stroke-width="0.9"/>
      <path id="Path_2569" data-name="Path 2569" d="M96.343,127.418c8.479,4.469,21.041,11.074,33.084,17.385a77,77,0,0,1,3.233-17.03c-9.428-5.071-19.979-10.736-27.248-13.926a3.052,3.052,0,0,0-2.12-.129,28.415,28.415,0,0,0-2.978,1.125A40.944,40.944,0,0,0,96.343,127.418Z" transform="translate(-87.568 -113.587)" fill="#474645" stroke="#1e1c1a" stroke-miterlimit="10" stroke-width="0.9"/>
      <path id="Path_2570" data-name="Path 2570" d="M160.162,143.338a19.994,19.994,0,0,0-6.816-6.02l-5.07-2.722a76.444,76.444,0,0,0-3.163,17.056c14.869,7.791,28.715,15.014,32.7,17.009.006,0,.127.013.127.013C175.218,164.449,164.789,149.846,160.162,143.338Z" transform="translate(-102.28 -119.925)" fill="#474645" stroke="#1e1c1a" stroke-miterlimit="10" stroke-width="0.9"/>
    </g>
    <path id="Path_2571" data-name="Path 2571" d="M272.693,139.449l.445-2.819-.934-2.983-8.614,2.983-.431,1.989-3.08,1.694-1.762,4.939h1.122l1.586-4.2,2.63-1.6v3.166l1.9.713" transform="translate(-57.185 -20.71)" fill="#322f2e"/>
    <g id="Group_4498" data-name="Group 4498" transform="translate(136.083 147.175)">
      <path id="Path_2572" data-name="Path 2572" d="M178.676,185.461l-3.276-2.766-2.1,1.176-.787-1.195-7.338,4.181v6.305l1.388.606,6.982-4.516-.3-3.812,1.584-1.511,2.949,2.021Z" transform="translate(-165.169 -182.676)" fill="#322f2e"/>
    </g>
    <g id="Group_4499" data-name="Group 4499" transform="translate(129.672 67.658)">
      <path id="Path_2573" data-name="Path 2573" d="M184.761,77.272,158.138,92.438l-2-.759-.154-8.462L184.607,68.81l2,.759Z" transform="translate(-155.989 -68.81)" fill="#757575"/>
      <path id="Path_2574" data-name="Path 2574" d="M187.618,78.358,159,92.766l-.154-8.462L187.464,69.9Z" transform="translate(-156.851 -69.138)" fill="#dddede"/>
      <path id="Path_2575" data-name="Path 2575" d="M187.3,78.687,160.965,91.852l-.124-6.807L187.177,71.88Z" transform="translate(-157.453 -69.736)" fill="#1e1c1a"/>
    </g>
    <path id="Path_2576" data-name="Path 2576" d="M289.809,215.649c-3.144,1.957-6.355,3.441-8.475,4.52-1.621.825-2.6,1.347-2.429,2.073.419,1.746,2.071,5.327,3.372,6.36,6.194-1.38,18.388-10.292,20.169-13.722.52-1-1-6.348-1.948-8.247A51.992,51.992,0,0,1,289.809,215.649Z" transform="translate(-63.39 -42.728)" fill="#292622"/>
    <g id="Group_4500" data-name="Group 4500" transform="translate(189.929 155.048)">
      <path id="Path_2577" data-name="Path 2577" d="M263.095,232.157c2.432-.215,5.044,6.624,2.349,8.03-2.633,1.374-9.421,2.838-18.518,1.5-3.869-1.407-4.492-9.314-.347-9.552A77.13,77.13,0,0,0,263.095,232.157Z" transform="translate(-242.716 -205.469)" fill="#ebf7fa"/>
      <path id="Path_2578" data-name="Path 2578" d="M246.138,232.127c-6.284-.563-3.971,8.917.347,9.552C245.152,239.883,244.177,233.824,246.138,232.127Z" transform="translate(-242.275 -205.459)" fill="#b54711"/>
      <path id="Path_2579" data-name="Path 2579" d="M316.007,202.093c-.312,1.79,1.124,7.449,1.8,7.738.837.355,3.434-4.5,3.411-6.976-.02-2.139-1.137-7.155-2.423-8.905C317.912,197.88,316.2,201.013,316.007,202.093Z" transform="translate(-264.504 -193.95)" fill="#ebf7fa"/>
    </g>
    <path id="Path_2580" data-name="Path 2580" d="M305.957,228.868l-15.64,10.487v5.622l15.64-10.487Z" transform="translate(-66.838 -49.435)" fill="#292622"/>
    <path id="Path_2581" data-name="Path 2581" d="M307.62,228.923l-15.64,10.487v5.622l15.64-10.487Z" transform="translate(-67.34 -49.452)" fill="#0074b5"/>
  </g>
</svg>
