<svg xmlns="http://www.w3.org/2000/svg" width="311.839" height="251" viewBox="0 0 311.839 251">
  <g id="Group_4476" data-name="Group 4476" transform="translate(-38.883 -43.475)">
    <path id="Path_1534" data-name="Path 1534" d="M274.02,288.5A16.893,16.893,0,0,0,266.5,275.19c-2.2-1.318-4.2-1.393-5.614-.49l.019-.264-4.948,3.012c-1.733.6-2.843,2.41-2.862,5.159a16.893,16.893,0,0,0,7.517,13.312c2.391,1.412,4.538,1.412,5.949.245l4.707-2.542C272.927,292.947,273.985,291.177,274.02,288.5Z" transform="translate(-10.398 -11.194)" fill="#39272a"/>
    <path id="Path_1535" data-name="Path 1535" d="M274.31,288.5a16.893,16.893,0,0,0-7.517-13.312c-4.2-2.5-7.663-.565-7.72,4.293a16.891,16.891,0,0,0,7.517,13.312C270.792,295.28,274.253,293.36,274.31,288.5Z" transform="translate(-10.688 -11.194)" fill="#39272a"/>
    <path id="Path_1536" data-name="Path 1536" d="M268.334,291.767a16.893,16.893,0,0,0-7.516-13.312c-4.218-2.485-7.663-.565-7.72,4.293a16.891,16.891,0,0,0,7.517,13.312C264.816,298.546,268.277,296.626,268.334,291.767Z" transform="translate(-10.398 -11.353)" fill="#393939"/>
    <path id="Path_1539" data-name="Path 1539" d="M265.577,291.056a11.9,11.9,0,0,0-5.272-9.358c-2.956-1.751-5.385-.4-5.423,3.012a11.853,11.853,0,0,0,5.291,9.358C263.112,295.8,265.539,294.464,265.577,291.056Z" transform="translate(-10.484 -11.526)" fill="#aeb0b2"/>
    <path id="Path_1540" data-name="Path 1540" d="M266.646,275.17c-2.2-1.318-4.2-1.393-5.614-.49l.019-.264-4.948,3.012a1.286,1.286,0,0,0-.15.056c3.935-1.958,16.305,8.473,11.617,18.188l3.841-2.071c1.656-.64,2.712-2.429,2.749-5.1C274.215,283.625,270.844,277.675,266.646,275.17Z" transform="translate(-10.536 -11.193)" fill="#070203"/>
    <path id="Path_1541" data-name="Path 1541" d="M99.082,186.668a16.893,16.893,0,0,0-7.517-13.312c-2.2-1.3-4.2-1.393-5.614-.49l.019-.264-4.948,3.012c-1.733.6-2.843,2.41-2.881,5.159a16.868,16.868,0,0,0,7.532,13.312c2.391,1.412,4.538,1.412,5.949.245l4.71-2.538C97.991,191.13,99.063,189.341,99.082,186.668Z" transform="translate(-1.906 -6.252)" fill="#39272a"/>
    <path id="Path_1542" data-name="Path 1542" d="M99.374,186.667a16.893,16.893,0,0,0-7.517-13.312c-4.2-2.5-7.663-.583-7.72,4.293a16.893,16.893,0,0,0,7.517,13.312C95.872,193.445,99.317,191.525,99.374,186.667Z" transform="translate(-2.197 -6.251)" fill="#39272a"/>
    <path id="Path_1543" data-name="Path 1543" d="M93.4,189.952a16.893,16.893,0,0,0-7.517-13.312c-4.218-2.485-7.663-.565-7.72,4.293a16.866,16.866,0,0,0,7.532,13.312C89.894,196.731,93.34,194.811,93.4,189.952Z" transform="translate(-1.906 -6.411)" fill="#393939"/>
    <path id="Path_1546" data-name="Path 1546" d="M90.64,189.221a11.878,11.878,0,0,0-5.272-9.358c-2.956-1.751-5.385-.4-5.423,3.012a11.853,11.853,0,0,0,5.291,9.358C88.175,193.985,90.6,192.648,90.64,189.221Z" transform="translate(-1.993 -6.583)" fill="#aeb0b2"/>
    <path id="Path_1547" data-name="Path 1547" d="M91.709,173.356c-2.2-1.3-4.2-1.393-5.614-.49l.019-.264-4.948,3.012a1.308,1.308,0,0,0-.15.056c3.933-1.957,16.3,8.475,11.615,18.19l3.841-2.093c1.656-.64,2.712-2.429,2.749-5.1C99.278,181.81,95.907,175.86,91.709,173.356Z" transform="translate(-2.045 -6.252)" fill="#070203"/>
    <path id="Path_2501" data-name="Path 2501" d="M343.439,254.728l-.934.539c-.649-2.011-.65.291-.65-6.446,0-13.958,2.217-40.26.778-55.1a49.414,49.414,0,0,0-2.091-5.106l-4.873-8.607L94.127,43.475l-51.2,27.83-.166-.1-.583.225-.052.672-1,5.12-.179.919-1.071,5.509,1.628.942-1.685-.923.021,12.052-.133-.077v38.938l.2.115.023,13.495-1.05.53v1.751l.052-.026L75.957,171.98c.022-.223.055-.442.094-.662l7.359-3.357c.295.128.6.273.907.441,4.464,2.413,6.337,7.032,7.086,11.073l-.1-.057a15.881,15.881,0,0,1,.285,1.845L242.461,268.5c.006-.1.026-.206.036-.31l6.8-3.838c.125.061.247.116.373.186,5.785,3.2,7.9,7.419,8.657,11.426l-.241-.139a15.878,15.878,0,0,1,.285,1.845L286.9,294.107l.024.368.316-.172.241.139h0l19.558-10.92,37.835-20.6v-3.5Z" transform="translate(0 0)" fill="#cdcccb"/>
    <path id="Path_1548" data-name="Path 1548" d="M336.477,180.275,94.937,43.741,43.082,71.927,285,213.227Z" transform="translate(-0.204 -0.013)" fill="#efeeed"/>
    <g id="Group_4477" data-name="Group 4477" transform="translate(38.883 96.096)">
      <path id="Path_2502" data-name="Path 2502" d="M310.981,284.059l16.192-8.817c6.951-6.473,12.812-15.616,14.688-24.9.024-3.011.135-6.521.283-10.319-.074-.441-.156-.882-.254-1.319a4.637,4.637,0,0,1,.445-3.387c.557-13.257,1.283-28.765.3-38.913a49.414,49.414,0,0,0-2.091-5.106l-4.873-8.607-99.2-56.072c-3.039-.245-6.065-.584-9.06-1.006-20.065-2.827-38.362-10.146-57.519-16.227a218.59,218.59,0,0,0-51.519-10.231c-17.189-1.136-34.74.137-50.986,6.208a73.394,73.394,0,0,0-27.675,18.348v13.559l.2.115.023,13.495-1.05.53v1.422c16.631-15.412,43.723-18.286,65.109-19.478,24.961-1.391,49.43.225,72.419,10.924,25.965,12.084,45.5,33.37,60.652,57.213,8.04,12.655,15.122,25.883,22.914,38.687,6.1,10.025,11.224,20.436,16.533,30.808C287.677,277.158,298.733,285.927,310.981,284.059Z" transform="translate(-38.883 -98.781)" fill="#cc0012"/>
      <path id="Path_2503" data-name="Path 2503" d="M223.893,255.54c8.729-4.087,21.053-9.6,18.353-21.248-2.3-9.9-10.509-16.975-19.409-21.026-17.274-7.863-37.244-7.272-55.646-10.344-11.419-1.908-21.65-6.369-31.884-11.648-10.314-5.321-21.286-11.844-33.171-12.456a64.722,64.722,0,0,0-10.729.428,19.052,19.052,0,0,1,2.544,6.794l-.1-.057a15.883,15.883,0,0,1,.285,1.845l122.54,70.85C219.105,257.677,221.521,256.65,223.893,255.54Z" transform="translate(-41.432 -102.663)" fill="#a60819"/>
      <g id="Group_4476-2" data-name="Group 4476" transform="translate(0 1.534)">
        <path id="Path_2504" data-name="Path 2504" d="M146.513,135.209,86.905,100.393a100.451,100.451,0,0,0-19.518,5.049A73.394,73.394,0,0,0,39.712,123.79V137.35l.2.115.023,13.495-1.05.53v1.422c16.631-15.412,43.723-18.286,65.109-19.478C118.394,132.63,132.629,132.843,146.513,135.209Z" transform="translate(-38.883 -100.393)" fill="#a60819"/>
        <path id="Path_2505" data-name="Path 2505" d="M294.41,219.671l-.4.257-65.3-38.139a198.2,198.2,0,0,1,17.564,23.732c8.04,12.655,15.122,25.883,22.914,38.687,6.1,10.025,11.224,20.436,16.533,30.808,2.9,1.6,5.784,3.374,8.687,5.092Z" transform="translate(-48.097 -104.344)" fill="#a60819"/>
      </g>
    </g>
    <path id="Path_1593" data-name="Path 1593" d="M185.967,95.406,159.4,80.389,103.554,111.3v75.813l24.025,13.924V126.251Z" transform="translate(-3.139 -1.792)" fill="#b7b7b7"/>
    <path id="Path_2506" data-name="Path 2506" d="M159.4,80.389,103.554,111.3l24.025,14.952,58.387-30.846Z" transform="translate(-3.139 -1.792)" fill="#d9d9d9"/>
    <path id="Path_1553" data-name="Path 1553" d="M353.277,202.877l-54.661,31.011.941,60.317,53.72-31.011Z" transform="translate(-12.607 -7.737)" fill="#0e0e0e"/>
    <path id="Path_1559" data-name="Path 1559" d="M285.591,226.334,50.084,89.276v38.072l99.941,57.672,17.53,20.146L285.59,274.418Z" transform="translate(-0.544 -2.223)" fill="#0e0e0e"/>
    <path id="Path_1563" data-name="Path 1563" d="M295.838,235.135l-18.772-10.847v43.08l18.772,10.847Z" transform="translate(-11.561 -8.777)" fill="#171717"/>
    <path id="Path_2507" data-name="Path 2507" d="M178.571,167.341l-21.408-12.294v32.046l15.966,19.186,5.441,3.323Z" transform="translate(-5.741 -5.416)" fill="#171717"/>
    <path id="Path_2508" data-name="Path 2508" d="M189.663,173.711v42.608l9.71,5.929.056-42.929Z" transform="translate(-7.319 -6.322)" fill="#171717"/>
    <path id="Path_1565" data-name="Path 1565" d="M153.164,152.749l-28.356-16.324v31.566l28.356,16.321Z" transform="translate(-4.171 -4.512)" fill="#171717"/>
    <path id="Path_1566" data-name="Path 1566" d="M80.658,110.9,51.568,94.571v32.521l29.09,15.369Z" transform="translate(-0.616 -2.48)" fill="#323233"/>
    <path id="Path_1575" data-name="Path 1575" d="M223.366,236.259l46.393,26.68V219.858l-46.393-26.679Z" transform="translate(-8.955 -7.267)" fill="#171717"/>
    <path id="Path_1576" data-name="Path 1576" d="M120.8,134.134,84.1,112.876v31.566L120.8,165.7Z" transform="translate(-2.195 -3.369)" fill="#323233"/>
    <path id="Path_1580" data-name="Path 1580" d="M157.163,158.708v28.374L197.8,219.561l.056-32.159Z" transform="translate(-5.741 -5.593)" fill="#171717"/>
    <path id="Path_1581" data-name="Path 1581" d="M128.743,138.685l-3.935-2.26V161.41l28.353,22.669V155.917Z" transform="translate(-4.171 -4.512)" fill="#171717"/>
    <path id="Path_1582" data-name="Path 1582" d="M51.568,94.571v9.115l29.09,23.254V110.9Z" transform="translate(-0.616 -2.48)" fill="#171717"/>
    <path id="Path_1583" data-name="Path 1583" d="M272.759,265.539V240.253l-46.393-32.725v31.331Z" transform="translate(-9.1 -7.963)" fill="#171717"/>
    <path id="Path_1584" data-name="Path 1584" d="M84.1,112.876v16.437l36.7,29.316v-24.5Z" transform="translate(-2.195 -3.369)" fill="#171717"/>
    <path id="Path_1593-2" data-name="Path 1593" d="M127.579,137.38l-24.025-13.858v65.731l24.025,13.877Z" transform="translate(-3.139 -3.885)" fill="#0e0e0e"/>
    <path id="Path_1595" data-name="Path 1595" d="M126.431,136.908l-21.917-12.653-.96,63.13,22.971,13.877Z" transform="translate(-3.139 -3.921)" fill="#171717"/>
    <path id="Path_1554" data-name="Path 1554" d="M352.278,206.716l-50.574,29.2v54.319l50.574-29.2Z" transform="translate(-12.757 -7.924)" fill="#414141"/>
    <path id="Path_1555" data-name="Path 1555" d="M353.311,242.189l-30.3-18.052,30.3-17.421Z" transform="translate(-13.792 -7.924)" fill="#2c2d2d"/>
    <path id="Path_1572" data-name="Path 1572" d="M301.486,259.037l50.781,4.537-50.574,29.2Z" transform="translate(-12.747 -10.463)" fill="#171717"/>
    <rect id="Rectangle_190" data-name="Rectangle 190" width="1.864" height="56.72" transform="translate(315.947 211.295)" fill="#0e0e0e"/>
    <g id="Group_4478" data-name="Group 4478" transform="translate(261.408 212.537)">
      <path id="Path_1568" data-name="Path 1568" d="M296.766,236.919,272.76,223.042v63.264l24.006,13.861Z" transform="translate(-272.76 -221.253)" fill="#0e0e0e"/>
      <path id="Path_1578" data-name="Path 1578" d="M295.666,233.834l-21.917-12.672.19,58.406,21.917,12.654Z" transform="translate(-272.808 -221.162)" fill="#171717"/>
    </g>
    <g id="Group_4479" data-name="Group 4479" transform="translate(173.098 162.673)">
      <path id="Path_1568-2" data-name="Path 1568" d="M203.951,184.511l-24.006-13.877V233.9l24.006,13.861Z" transform="translate(-179.945 -168.845)" fill="#0e0e0e"/>
      <path id="Path_1578-2" data-name="Path 1578" d="M202.851,181.426l-21.917-12.672.19,58.406,21.917,12.654Z" transform="translate(-179.993 -168.754)" fill="#171717"/>
      <path id="Path_2509" data-name="Path 2509" d="M190.613,174.1v64.063l1.677,1.013V175.072Z" transform="translate(-180.463 -169.014)" fill="#0e0e0e"/>
    </g>
    <path id="Path_2510" data-name="Path 2510" d="M113.864,129.378V193.44l1.677,1.013V130.346Z" transform="translate(-3.64 -4.17)" fill="#0e0e0e"/>
    <path id="Path_1556" data-name="Path 1556" d="M348.726,187.24l-53.3,31.887,2.442,12.086,56.37-32.689Z" transform="translate(-12.452 -6.978)" fill="#cdcccb"/>
    <path id="Path_1573" data-name="Path 1573" d="M307.047,287.872l-7.362,4.255v6.306l7.362-4.255Z" transform="translate(-12.659 -11.863)" fill="#0c0c0c"/>
    <path id="Path_1574" data-name="Path 1574" d="M355.728,259.3l-7.362,4.255v6.307l7.362-4.255Z" transform="translate(-15.022 -10.476)" fill="#0c0c0c"/>
    <path id="Path_1586" data-name="Path 1586" d="M355.438,260.246l-1.808,1.017v4.97l1.808-1.073Z" transform="translate(-15.278 -10.522)" fill="#d2d2d2"/>
    <path id="Path_1589" data-name="Path 1589" d="M302.729,291.2l-2.391,1.375v5.009l2.391-1.412Z" transform="translate(-12.691 -12.024)" fill="#d2d2d2"/>
    <g id="Group_4480" data-name="Group 4480" transform="translate(286.816 198.08)">
      <path id="Path_1577" data-name="Path 1577" d="M340.849,218.649l-7.305,4.086v3.822l7.305-4.086Z" transform="translate(-301.119 -206.583)" fill="#0e0e0e"/>
      <path id="Path_1597" data-name="Path 1597" d="M336.741,216.492l-.565.132,1.262,5.122.565-.15Z" transform="translate(-301.247 -206.478)" fill="#0e0e0e"/>
      <path id="Path_1549" data-name="Path 1549" d="M365.752,207.772a.684.684,0,0,0-.471-.056,1.7,1.7,0,0,0-.19-.169.646.646,0,0,0-.64,0l-1.262.677c-.546-1.638-2.188-2.862-7.268-1.939l-.414.848c4.613-.829,6.213.15,6.778,1.581l-2.071,1.129a1.228,1.228,0,0,0-.64,1.073v11.6a.582.582,0,0,0,.32.527.685.685,0,0,0,.471.056,1.772,1.772,0,0,0,.19.169.646.646,0,0,0,.64,0l4.331-2.354a1.08,1.08,0,0,0,.565-.923V208.3A.666.666,0,0,0,365.752,207.772Z" transform="translate(-302.185 -205.967)" fill="#171717"/>
      <path id="Path_1549-2" data-name="Path 1549" d="M309.71,238.388a.684.684,0,0,0-.471-.056,1.688,1.688,0,0,0-.19-.169.646.646,0,0,0-.64,0l-1.262.677c-.546-1.638-2.188-2.862-7.268-1.939l-.414.848c4.613-.829,6.213.15,6.778,1.581l-2.071,1.129a1.228,1.228,0,0,0-.64,1.073v11.6a.582.582,0,0,0,.32.527.684.684,0,0,0,.471.056,1.69,1.69,0,0,0,.19.169.646.646,0,0,0,.64,0l4.331-2.354a1.082,1.082,0,0,0,.565-.923V238.915A.666.666,0,0,0,309.71,238.388Z" transform="translate(-299.465 -207.453)" fill="#171717"/>
    </g>
  </g>
</svg>
