<svg id="Group_4573" data-name="Group 4573" xmlns="http://www.w3.org/2000/svg" width="175.869" height="135.961" viewBox="0 0 175.869 135.961">
  <path id="Path_2705" data-name="Path 2705" d="M493.544,1156.727l-2.572,1.745q-.146,1.071-.351,2.131a44.071,44.071,0,0,1-6.948,16.5c.059.1.112.2.174.3l2.544,4.03,29.553-17.051Z" transform="translate(-475.503 -1106.643)" fill="#1d1b18"/>
  <path id="Path_2706" data-name="Path 2706" d="M594.882,1218.184l-10.237,6.941-.311.672a13.7,13.7,0,0,0,.851,13.059l2.543,4.03,29.554-17.05Z" transform="translate(-508.386 -1126.975)" fill="#1d1b18"/>
  <g id="Group_4552" data-name="Group 4552" transform="translate(0 0)">
    <g id="Group_4549" data-name="Group 4549" transform="translate(133.123 46.497)">
      <path id="Path_2707" data-name="Path 2707" d="M675.039,1158.277l-2.952,1.623-1.688,4.734h1.075l1.52-4.028,2.474-1.5a6.058,6.058,0,0,0-.337-1.249Z" transform="translate(-670.4 -1153.512)" fill="#333335"/>
      <path id="Path_2708" data-name="Path 2708" d="M686.046,1151.367l-8.255,2.859-.321,1.48a6.061,6.061,0,0,1,.337,1.249l.046-.028v.318a16.05,16.05,0,0,1,.086,2.02,16.05,16.05,0,0,0-.086-2.02v2.716l1.819.683,6.842-3.717.427-2.7Z" transform="translate(-672.739 -1151.367)" fill="#bfc1c3"/>
    </g>
    <path id="Path_2709" data-name="Path 2709" d="M615.816,1265.212c1.4-.971,2.25-2.839,2.232-5.429-.041-5.51-3.985-12.2-8.8-14.935-2.149-1.222-4.112-1.449-5.623-.837-.27.107-4.1,2.384-4.279,2.512-1.361.982-2.186,2.831-2.161,5.381.039,5.51,3.98,12.2,8.8,14.933,2.283,1.3,4.354,1.473,5.9.719Z" transform="translate(-513.053 -1135.411)"/>
    <path id="Path_2710" data-name="Path 2710" d="M595.931,1253.643c.041,5.514,3.982,12.2,8.8,14.937s8.7.49,8.662-5.019-3.98-12.2-8.8-14.939S595.889,1248.134,595.931,1253.643Z" transform="translate(-512.641 -1136.66)" fill="#121212"/>
    <path id="Path_2711" data-name="Path 2711" d="M599.819,1257.291a13.168,13.168,0,0,0,6.058,10.271c3.315,1.885,5.984.337,5.957-3.453a13.186,13.186,0,0,0-6.059-10.274C602.459,1251.953,599.795,1253.5,599.819,1257.291Z" transform="translate(-513.927 -1138.504)" fill="#c3c3c3"/>
    <path id="Path_2712" data-name="Path 2712" d="M509.162,1204.361c1.4-.968,2.245-2.836,2.228-5.425-.041-5.512-3.982-12.2-8.8-14.936-2.149-1.223-4.111-1.45-5.624-.837-.269.107-4.1,2.386-4.276,2.514-1.363.981-2.184,2.831-2.165,5.378.038,5.511,3.983,12.2,8.8,14.937,2.275,1.294,4.348,1.472,5.893.717Z" transform="translate(-477.768 -1115.281)"/>
    <path id="Path_2713" data-name="Path 2713" d="M489.274,1192.8c.04,5.513,3.984,12.2,8.8,14.935s8.7.49,8.662-5.02-3.986-12.2-8.8-14.937S489.236,1187.287,489.274,1192.8Z" transform="translate(-477.356 -1116.53)" fill="#121212"/>
    <path id="Path_2714" data-name="Path 2714" d="M493.16,1196.445a13.2,13.2,0,0,0,6.057,10.271c3.319,1.882,5.985.339,5.958-3.456a13.176,13.176,0,0,0-6.055-10.271C495.8,1191.107,493.133,1192.654,493.16,1196.445Z" transform="translate(-478.641 -1118.375)" fill="#c3c3c3"/>
    <path id="Path_2715" data-name="Path 2715" d="M640.608,1261.008a.377.377,0,0,1-.041.019Z" transform="translate(-527.408 -1141.142)" fill="#f1b176"/>
    <path id="Path_2716" data-name="Path 2716" d="M646.854,1177.376c.021-.26.057.868.116.737-.051.113-.1-1.111-.145-1-.03-.263-.064.81-.1.544v-.005l0-.02q-.124-.958-.281-1.933v-.011q-.16-.981-.359-1.971l-.009-.047q-.194-.951-.427-1.9c-.013-.052-.027-.105-.04-.157q-.225-.9-.491-1.794c-.021-.07-.042-.139-.064-.209q-.238-.782-.51-1.553a8.981,8.981,0,0,0-1.122-3.9c-.023.268-.07.569-.129.883v0a4.815,4.815,0,0,0-.217-1.429c-.312-.581-.642-1.148-1-1.7-3.272-5.05-12.066-9.2-17.071-12.54l-18.865-12.361-12.677-27.068q-1.259-1.48-2.553-2.93c-4.2-2.588-15.8-9.613-27.431-15.583-8.747-4.723-16.2-9.294-24.766-9.52-.226-.014-.446-.021-.657-.021-.157,0-.325.009-.5.023-14.261.844-44.8,23.374-44.8,23.374l.082.043-18.947,17.787,7.956-.7s-.014.044-.033.108l-.225.029a57.2,57.2,0,0,0-1.954,9.168c-.359,2.859-.592,9.342-.725,14.391l3.218,10.155.879.679a7.7,7.7,0,0,1,7.057-5.48l.375-.232c.3.068.611.161.919.262a3.113,3.113,0,0,1,1.346.544c4.866,2.3,9.868,8.368,10.578,16.219l-.032-.018.076,2.261,34.009,19.375,14.35,8.467c2.572-4.56,6.306-7.987,11.083-7.226v-.207a17.035,17.035,0,0,1,4.89,1.909,16.487,16.487,0,0,1,5.613,4.958c.524,1.153,1.413,3.148,2.137,4.942a24.57,24.57,0,0,1,.557,3.314l.426-.192c.005.031.011.061.016.092a25.612,25.612,0,0,1,0,5.812l.036.013c-.009.078-.015.132-.015.132s19.027,5.921,22.719,5.954a44.642,44.642,0,0,0,14.378-2.262l.025-.074c7.155-.79,13.061-4.008,18.59-7.614,4.706-3.07,8.351-6.2,10.135-9.007a6.926,6.926,0,0,0,.954-2.5c1.465-1.486,2.445-2.01,3.333-4.219a12.065,12.065,0,0,0,.841-4.736C647.353,1185.023,647.306,1181.4,646.854,1177.376Z" transform="translate(-472.265 -1081.883)" fill="#d1d2d4"/>
    <path id="Path_2717" data-name="Path 2717" d="M652.644,1174.636c-.021-.2-.025-.288.008-.019l0-.013c-.035-.306-.38-1.6-.486-2.248v-.011c-.106-.654-1.148-4.609-1.326-5.2-.021-.07-.042-.139-.064-.209q-.238-.782-.51-1.553c0-.034-.009-.069-.012-.1-.1-1.3-1.431-2.821-1.786-3.369a15.112,15.112,0,0,0-2.354-2.719l.013-.005c-2.906-2.74-7.086-5.181-10.724-7.343-.61-.363-1.209-.72-1.779-1.067l-.326-.2c-.231-.141-.455-.281-.677-.42l-.3-.186-.024-.015c-.311-.2-.615-.394-.9-.586l-18.2-12.361-6.568-12.594-6.779-14.474q-1.259-1.48-2.553-2.93c-4.2-2.588-15.8-9.613-27.431-15.583-.729-.393-1.446-.785-2.158-1.173q-1.156-.632-2.29-1.249l-.1-.052q-1.06-.575-2.1-1.128l-.212-.111q-.933-.493-1.857-.959l-.277-.141c-1.356-.68-2.7-1.312-4.043-1.881l-.288-.12a41.713,41.713,0,0,0-4.054-1.463c-.032-.009-.062-.021-.093-.031l0,0a28.082,28.082,0,0,0-7.29-1.216c-.226-.014-.446-.021-.657-.021-.157,0-.325.009-.5.023-14.261.844-41.677,22.893-41.677,22.893l-14.035,17.613s-.014.044-.034.108l-.225.029s10.326,5.911,25.114,14.156a32.974,32.974,0,0,1,3.9,5.023c4.918,7.862,6.265,18.281,13.606,23.946,5.058,3.9,11.928,4.584,18.283,3.932,6.321-.648,12.488-2.449,18.819-2.978,1.057.567,1.914,1.024,2.532,1.348a.191.191,0,0,0,.032.005c1.246.671,2.25,1.205,2.955,1.575.193.1,7.32,4.077,7.471,4.2,10.411,8.5,8.21,11.015,12.894,15.441,5.756,5.755,5.767,5.177,6.186,9.036a5.224,5.224,0,0,0,4.719,4.663,45.608,45.608,0,0,0,16.715-1.542l4.986,7.962a5.011,5.011,0,0,0,6.629,1.753,71.149,71.149,0,0,0,9.455-5.81c3.294-2.772,6.818-6.338,7-7.624a97.7,97.7,0,0,0,.541-14.079C653.076,1179.825,652.967,1178.23,652.644,1174.636Z" transform="translate(-476.928 -1081.883)" fill="#ededed"/>
    <path id="Path_2718" data-name="Path 2718" d="M631.175,1136.087c5.743,3.771,11.508,7.508,17.4,11.048q3.768,2.266,7.549,4.508a2.494,2.494,0,0,0-.265-1.015l-10.5-20.345a2.752,2.752,0,0,0-3.885-.956l-10.819,6.406C630.824,1135.852,631,1135.973,631.175,1136.087Z" transform="translate(-524.126 -1097.438)" fill="#b3b3b3"/>
    <path id="Path_2719" data-name="Path 2719" d="M600.177,1214.988c-3.022-6.773-7.661-12.635-12.636-18.073-2.145-2.345-13.736-12.853-14.59-13.783-5.262-5.736-11.692-11.632-15.463-18.477-3.949-7.167-5.48-11.6-10.58-20.265-1.737-2.952-6.453-6.234-9.393-7.651-5.541-2.669-24.743-13.492-32.429-17.427a9.647,9.647,0,0,0-9.073.053l-11.848,8.54-9.459,6.382a4.437,4.437,0,0,0-3.239,4.433l.827,22.739.954,1.476,8.953,6.031a7.7,7.7,0,0,1,7.057-5.48l.375-.232c.3.068.611.161.919.262a3.115,3.115,0,0,1,1.346.544c4.866,2.3,9.868,8.368,10.578,16.219l-.032-.018.076,2.261L536.53,1201.9l14.35,8.467c2.572-4.56,6.306-7.986,11.083-7.226v-.207a17.032,17.032,0,0,1,4.89,1.909,16.488,16.488,0,0,1,5.613,4.958c.524,1.153,1.413,3.148,2.137,4.942a24.555,24.555,0,0,1,.557,3.314l.426-.192c.005.031.011.061.016.092a25.606,25.606,0,0,1,0,5.812l.036.013c-.009.078-.016.132-.016.132s19.027,5.921,22.719,5.954a43.719,43.719,0,0,0,6.65-.454A70.385,70.385,0,0,0,600.177,1214.988Z" transform="translate(-471.464 -1093.905)" fill="#9aa0a7"/>
    <path id="Path_2720" data-name="Path 2720" d="M588.7,1194.12v13.644s.84,4.737,2.847,6.427,1.1,8.452,1.1,8.452-6.514-2.89-10.435,1.137-4.708,5.66-4.708,5.66l-25.56-15.327.587-38.227Z" transform="translate(-498.089 -1112.982)" fill="#b4b7b9"/>
    <path id="Path_2721" data-name="Path 2721" d="M492.459,1154.433a31.641,31.641,0,0,1-6.263,2.655v21.565s.523-.209,1.388-.493a7.5,7.5,0,0,1,6.548-4.307l.375-.232c.3.068.611.161.919.262a3.114,3.114,0,0,1,1.346.544,16.858,16.858,0,0,1,4.886,3.64l.026.017a12.365,12.365,0,0,1,3.6,5.222,21,21,0,0,1,2.064,7.339l-.018-.011c.2,1.126.315,2,.365,2.427l20.514,11.686,1.344-38.835-31.22-16.353S493.853,1153.455,492.459,1154.433Z" transform="translate(-476.337 -1104.273)" fill="#b4b7b9"/>
    <path id="Path_2722" data-name="Path 2722" d="M495.556,1156.842" transform="translate(-479.434 -1106.682)" fill="#b4b7b9"/>
    <path id="Path_2723" data-name="Path 2723" d="M641.561,1217.739c24.287,1.827,47.79-18.9,45.189-26.837-.291-.535-.347-1.143-.679-1.648-1.685-2.564-4.833-4.8-8.268-7.151-1.57-1.074-3.249-2-4.8-2.917-.61-.363-1.208-.72-1.78-1.067l-.325-.2c-.231-.141-.455-.281-.676-.42l-.3-.186-.024-.015c-.311-.2-.615-.394-.9-.586l-8.33-5.659c-.032.04-.063.082-.1.122-.054-.1-.113-.2-.168-.3l-9.315-6.328c-6.7,6.233-9.667,7.586-20.042,14.07-8.646,5.4-14.039,9.305-24.174,10.412,2.839,5.532,2.839,5.532,6.58,9.34,6.032,6.9,17.787,15.592,19.786,16.84A17.626,17.626,0,0,0,641.561,1217.739Z" transform="translate(-516.262 -1109.231)" fill="#d9d9d9"/>
    <path id="Path_2724" data-name="Path 2724" d="M696.13,1236.2c-.033-1.751-.069-4.157-.26-6.885-9.087,13.122-23.671,19.915-39.391,21.673-11.814,1.322-24.541-.152-35.292-5.5.288.345.563.7.812,1.063.524,1.153,1.413,3.148,2.137,4.942a24.559,24.559,0,0,1,.557,3.314l.426-.192c.005.031.011.061.016.092a25.611,25.611,0,0,1,0,5.812l.036.013c-.009.078-.015.132-.015.132s19.027,5.921,22.719,5.954a44.622,44.622,0,0,0,14.378-2.262l.025-.074a34.965,34.965,0,0,0,12.186-3.84,4.98,4.98,0,0,0,2.43-.6,71.153,71.153,0,0,0,9.455-5.81c3.294-2.772,6.818-6.338,7-7.624.128-.9.228-1.882.307-2.9a7.407,7.407,0,0,0,1.632-2.574A12.066,12.066,0,0,0,696.13,1236.2Z" transform="translate(-520.996 -1130.658)" fill="#b6b7b9"/>
    <path id="Path_2725" data-name="Path 2725" d="M643.995,1152.83c-.606-1.8-12.485-24.7-12.485-24.7a3.763,3.763,0,0,0-5.218-1.733l-37.038,22.279a3.721,3.721,0,0,0-1.7,4.321l11.854,21.069a3.8,3.8,0,0,0,4.952,2.527c17.344-6.556,28.093-13.013,39.636-23.759" transform="translate(-509.816 -1096.454)" fill="#0f0f0f"/>
    <path id="Path_2726" data-name="Path 2726" d="M627.914,1129.327,591.132,1151.1a2.751,2.751,0,0,0-1.076,3.777l11.828,19.043a2.738,2.738,0,0,0,3.389.986c15.742-6.389,26.128-12.122,36.3-20.988a2.732,2.732,0,0,0,.732-3.294l-10.5-20.345A2.752,2.752,0,0,0,627.914,1129.327Z" transform="translate(-510.573 -1097.438)" fill="#757575"/>
    <path id="Path_2727" data-name="Path 2727" d="M552.979,1150.485a20.279,20.279,0,0,0-6.967-6.152c-10.763-5.757-24.012-13.048-32.771-16.933a4.466,4.466,0,0,0-2.983-.24c-5.564,1.492-11.084,13.045-11.084,13.045s62.236,32.781,71.173,37.254c.548.274,1.231-.331.9-.847C568.6,1172.5,558.058,1157.628,552.979,1150.485Z" transform="translate(-480.631 -1096.812)" fill="#1f1d1b"/>
    <g id="Group_4550" data-name="Group 4550" transform="translate(22.916 31.85)">
      <path id="Path_2728" data-name="Path 2728" d="M505.709,1142.732c8.125,4.283,20.163,10.611,31.7,16.659a73.744,73.744,0,0,1,3.1-16.319c-9.035-4.859-19.145-10.287-26.11-13.344a2.928,2.928,0,0,0-2.032-.124,27.223,27.223,0,0,0-2.853,1.078A39.239,39.239,0,0,0,505.709,1142.732Z" transform="translate(-505.709 -1129.479)" fill="#464749" stroke="#1f1d1b" stroke-miterlimit="10" stroke-width="0.9"/>
      <path id="Path_2729" data-name="Path 2729" d="M568.9,1158.864a19.168,19.168,0,0,0-6.533-5.768l-4.858-2.608a73.254,73.254,0,0,0-3.031,16.343c14.249,7.466,27.516,14.387,31.335,16.3.005,0,.121.013.121.013C583.327,1179.093,573.333,1165.1,568.9,1158.864Z" transform="translate(-521.843 -1136.429)" fill="#464749" stroke="#1f1d1b" stroke-miterlimit="10" stroke-width="0.9"/>
    </g>
    <path id="Path_2730" data-name="Path 2730" d="M698.719,1232.164c-3.013,1.876-6.089,3.3-8.12,4.332-1.553.791-2.495,1.291-2.328,1.987.4,1.673,1.984,5.1,3.231,6.094,5.936-1.322,17.621-9.862,19.327-13.149.5-.96-.96-6.083-1.867-7.9A49.828,49.828,0,0,1,698.719,1232.164Z" transform="translate(-543.183 -1128.742)" fill="#292623"/>
    <g id="Group_4551" data-name="Group 4551" transform="translate(120.57 86.295)">
      <path id="Path_2731" data-name="Path 2731" d="M671.652,1249.047c2.33-.206,4.833,6.347,2.252,7.694-2.523,1.316-9.027,2.72-17.745,1.44-3.707-1.348-4.3-8.924-.333-9.153A73.9,73.9,0,0,0,671.652,1249.047Z" transform="translate(-652.125 -1223.474)" fill="#e2f3f5"/>
      <path id="Path_2732" data-name="Path 2732" d="M655.343,1249.016c-6.021-.539-3.8,8.545.333,9.153C654.4,1256.449,653.465,1250.643,655.343,1249.016Z" transform="translate(-651.642 -1223.463)" fill="#b44b21"/>
      <path id="Path_2733" data-name="Path 2733" d="M725.372,1218.644c-.3,1.715,1.077,7.139,1.728,7.414.8.341,3.29-4.309,3.269-6.684-.019-2.05-1.089-6.856-2.321-8.533C727.2,1214.606,725.553,1217.61,725.372,1218.644Z" transform="translate(-676.02 -1210.841)" fill="#e2f3f5"/>
    </g>
    <path id="Path_2734" data-name="Path 2734" d="M714.67,1245.759l-14.987,10.049v5.388l14.987-10.049Z" transform="translate(-546.965 -1136.098)" fill="#292623"/>
    <path id="Path_2735" data-name="Path 2735" d="M716.333,1245.815l-14.987,10.049v5.388l14.987-10.049Z" transform="translate(-547.515 -1136.116)" fill="#cdbe93"/>
    <path id="Path_2736" data-name="Path 2736" d="M562.67,1190.731l-5.557-3.209a1.18,1.18,0,0,1-.569-.9v-.788c0-.314.255-.422.569-.24l5.557,3.209a1.181,1.181,0,0,1,.57.9v.788C563.239,1190.8,562.984,1190.912,562.67,1190.731Z" transform="translate(-499.61 -1116.165)" fill="#1f1d1b"/>
    <path id="Path_2737" data-name="Path 2737" d="M513.018,1162.064l-5.558-3.209a1.181,1.181,0,0,1-.569-.9v-.788c0-.314.255-.422.569-.241l5.558,3.209a1.178,1.178,0,0,1,.569.9v.788C513.587,1162.138,513.332,1162.245,513.018,1162.064Z" transform="translate(-483.184 -1106.681)" fill="#1f1d1b"/>
  </g>
  <g id="Group_4570" data-name="Group 4570" transform="translate(0.171 42.508)">
    <g id="Group_4553" data-name="Group 4553" transform="translate(0 2.865)">
      <path id="Path_2738" data-name="Path 2738" d="M475.511,1156.742l-3.791-2.161.229-4.893,3.791,2.161Z" transform="translate(-471.719 -1149.688)" fill="#194294"/>
    </g>
    <g id="Group_4554" data-name="Group 4554" transform="translate(48.345 25.4)">
      <path id="Path_2739" data-name="Path 2739" d="M547.757,1190.417l-3.791-2.161.229-4.893,3.791,2.161Z" transform="translate(-543.966 -1183.364)" fill="#194294"/>
      <path id="Path_2740" data-name="Path 2740" d="M553.08,1200.959l-3.792-2.161.229-4.893,3.791,2.161Z" transform="translate(-545.727 -1186.851)" fill="#194294"/>
    </g>
    <g id="Group_4555" data-name="Group 4555" transform="translate(40.919 21.167)">
      <path id="Path_2741" data-name="Path 2741" d="M536.659,1184.091l-3.791-2.161.229-4.893,3.791,2.161Z" transform="translate(-532.868 -1177.037)" fill="#194294"/>
      <path id="Path_2742" data-name="Path 2742" d="M541.982,1194.633l-3.791-2.161.229-4.893,3.792,2.161Z" transform="translate(-534.629 -1180.525)" fill="#194294"/>
    </g>
    <g id="Group_4556" data-name="Group 4556" transform="translate(33.492 16.933)">
      <path id="Path_2743" data-name="Path 2743" d="M525.561,1177.765l-3.791-2.161.229-4.893,3.791,2.161Z" transform="translate(-521.77 -1170.711)" fill="#194294"/>
      <path id="Path_2744" data-name="Path 2744" d="M530.884,1188.306l-3.792-2.161.229-4.893,3.791,2.161Z" transform="translate(-523.531 -1174.199)" fill="#194294"/>
    </g>
    <g id="Group_4557" data-name="Group 4557" transform="translate(26.066 12.7)">
      <path id="Path_2745" data-name="Path 2745" d="M514.463,1171.439l-3.791-2.161.229-4.893,3.791,2.161Z" transform="translate(-510.671 -1164.385)" fill="#194294"/>
      <path id="Path_2746" data-name="Path 2746" d="M519.786,1181.98l-3.791-2.161.229-4.893,3.791,2.161Z" transform="translate(-512.432 -1167.872)" fill="#194294"/>
    </g>
    <g id="Group_4558" data-name="Group 4558" transform="translate(18.639 8.467)">
      <path id="Path_2747" data-name="Path 2747" d="M503.365,1165.113l-3.791-2.161.229-4.893,3.791,2.161Z" transform="translate(-499.573 -1158.059)" fill="#194294"/>
      <path id="Path_2748" data-name="Path 2748" d="M508.688,1175.654l-3.791-2.161.229-4.893,3.791,2.161Z" transform="translate(-501.334 -1161.546)" fill="#194294"/>
    </g>
    <g id="Group_4559" data-name="Group 4559" transform="translate(11.213 4.233)">
      <path id="Path_2749" data-name="Path 2749" d="M492.267,1158.787l-3.791-2.161.229-4.893,3.791,2.161Z" transform="translate(-488.475 -1151.733)" fill="#194294"/>
      <path id="Path_2750" data-name="Path 2750" d="M497.59,1169.328l-3.791-2.161.229-4.893,3.791,2.161Z" transform="translate(-490.236 -1155.22)" fill="#194294"/>
    </g>
    <g id="Group_4560" data-name="Group 4560" transform="translate(3.786)">
      <path id="Path_2751" data-name="Path 2751" d="M481.169,1152.46l-3.791-2.161.229-4.893,3.791,2.161Z" transform="translate(-477.377 -1145.407)" fill="#194294"/>
      <path id="Path_2752" data-name="Path 2752" d="M486.492,1163l-3.791-2.161.229-4.893,3.791,2.161Z" transform="translate(-479.138 -1148.894)" fill="#194294"/>
    </g>
    <g id="Group_4561" data-name="Group 4561" transform="translate(55.772 29.633)">
      <path id="Path_2753" data-name="Path 2753" d="M558.855,1196.744l-3.791-2.161.229-4.893,3.792,2.161Z" transform="translate(-555.064 -1189.69)" fill="#194294"/>
      <path id="Path_2754" data-name="Path 2754" d="M564.178,1207.285l-3.791-2.161.229-4.893,3.791,2.161Z" transform="translate(-556.825 -1193.177)" fill="#194294"/>
    </g>
    <g id="Group_4562" data-name="Group 4562" transform="translate(59.334 33.956)">
      <path id="Path_2755" data-name="Path 2755" d="M570.187,1203.2l-3.791-2.161.229-4.893,3.791,2.161Z" transform="translate(-562.375 -1196.149)" fill="#194294"/>
      <path id="Path_2756" data-name="Path 2756" d="M564.178,1207.285l-3.791-2.161.229-4.893,3.791,2.161Z" transform="translate(-560.387 -1197.5)" fill="#194294"/>
      <path id="Path_2757" data-name="Path 2757" d="M575.51,1213.744l-3.792-2.161.229-4.893,3.791,2.161Z" transform="translate(-564.135 -1199.636)" fill="#194294"/>
    </g>
    <g id="Group_4563" data-name="Group 4563" transform="translate(115.262 63.544)">
      <path id="Path_2758" data-name="Path 2758" d="M647.756,1247.42l-3.792-2.161.229-4.893,3.791,2.161Z" transform="translate(-643.965 -1240.366)" fill="#194294"/>
    </g>
    <g id="Group_4564" data-name="Group 4564" transform="translate(107.835 59.311)">
      <path id="Path_2759" data-name="Path 2759" d="M636.658,1241.094l-3.791-2.161.229-4.893,3.792,2.161Z" transform="translate(-632.867 -1234.04)" fill="#194294"/>
      <path id="Path_2760" data-name="Path 2760" d="M641.981,1251.635l-3.792-2.161.229-4.893,3.791,2.161Z" transform="translate(-634.628 -1237.527)" fill="#194294"/>
    </g>
    <g id="Group_4565" data-name="Group 4565" transform="translate(100.409 55.077)">
      <path id="Path_2761" data-name="Path 2761" d="M625.56,1234.767l-3.791-2.161.229-4.893,3.792,2.161Z" transform="translate(-621.769 -1227.714)" fill="#194294"/>
      <path id="Path_2762" data-name="Path 2762" d="M630.883,1245.308l-3.791-2.161.229-4.893,3.791,2.161Z" transform="translate(-623.53 -1231.201)" fill="#194294"/>
    </g>
    <g id="Group_4566" data-name="Group 4566" transform="translate(92.982 50.844)">
      <path id="Path_2763" data-name="Path 2763" d="M614.462,1228.441l-3.792-2.161.229-4.893,3.791,2.161Z" transform="translate(-610.671 -1221.387)" fill="#194294"/>
      <path id="Path_2764" data-name="Path 2764" d="M619.785,1238.982l-3.792-2.161.229-4.893,3.791,2.161Z" transform="translate(-612.432 -1224.875)" fill="#194294"/>
    </g>
    <g id="Group_4567" data-name="Group 4567" transform="translate(85.556 46.611)">
      <path id="Path_2765" data-name="Path 2765" d="M603.364,1222.115l-3.791-2.161.229-4.893,3.791,2.161Z" transform="translate(-599.573 -1215.061)" fill="#194294"/>
      <path id="Path_2766" data-name="Path 2766" d="M608.687,1232.656l-3.791-2.161.229-4.893,3.792,2.161Z" transform="translate(-601.334 -1218.548)" fill="#194294"/>
    </g>
    <g id="Group_4568" data-name="Group 4568" transform="translate(78.129 42.378)">
      <path id="Path_2767" data-name="Path 2767" d="M592.266,1215.789l-3.792-2.161.229-4.893,3.791,2.161Z" transform="translate(-588.474 -1208.735)" fill="#194294"/>
      <path id="Path_2768" data-name="Path 2768" d="M597.589,1226.33l-3.791-2.161.229-4.893,3.791,2.161Z" transform="translate(-590.236 -1212.222)" fill="#194294"/>
    </g>
    <g id="Group_4569" data-name="Group 4569" transform="translate(70.703 38.144)">
      <path id="Path_2769" data-name="Path 2769" d="M581.168,1209.463l-3.791-2.161.229-4.893,3.791,2.161Z" transform="translate(-577.377 -1202.409)" fill="#194294"/>
      <path id="Path_2770" data-name="Path 2770" d="M586.491,1220l-3.791-2.161.229-4.893,3.791,2.161Z" transform="translate(-579.138 -1205.896)" fill="#194294"/>
    </g>
  </g>
  <g id="Group_4571" data-name="Group 4571" transform="translate(70.455 78.353)">
    <path id="Path_2771" data-name="Path 2771" d="M584.536,1200.116l-.755-1.144-7.031,4.005v6.042l1.33.58,6.69-4.327-.287-3.653.385-.367c-.08-.391-.173-.781-.268-1.172Z" transform="translate(-576.75 -1198.972)" fill="#d1d2d4"/>
    <path id="Path_2772" data-name="Path 2772" d="M592.707,1202.117l.865-.469L590.433,1199l-1.953,1.091c.1.391.188.781.268,1.172l1.133-1.081Z" transform="translate(-580.631 -1198.981)" fill="#333335"/>
  </g>
  <g id="Group_4572" data-name="Group 4572" transform="translate(38.642 0.678)">
    <path id="Path_2773" data-name="Path 2773" d="M555.8,1089.567l-16.122,9.258.139-8.061,12.565-6.882Z" transform="translate(-532.672 -1083.223)" fill="#fff8d7"/>
    <path id="Path_2774" data-name="Path 2774" d="M551.483,1083.575l-12.667,6.858-1.741-.678,12.667-6.858Z" transform="translate(-531.812 -1082.896)" fill="#fff5c2"/>
    <path id="Path_2775" data-name="Path 2775" d="M536.214,1101.889l-7-3.025,5.263-5.719,1.88.683Z" transform="translate(-529.21 -1086.287)" fill="#dfcd8a"/>
  </g>
</svg>
