<svg xmlns="http://www.w3.org/2000/svg" xmlns:xlink="http://www.w3.org/1999/xlink" width="822.013" height="545.366" viewBox="0 0 822.013 545.366">
  <defs>
    <linearGradient id="linear-gradient" x1="-1.411" y1="-0.408" x2="-1.412" y2="-0.41" gradientUnits="objectBoundingBox">
      <stop offset="0" stop-color="#b9cbce"/>
      <stop offset="1" stop-color="#8ab0ba"/>
    </linearGradient>
    <linearGradient id="linear-gradient-2" x1="-8.463" y1="-2.388" x2="-8.473" y2="-2.4" gradientUnits="objectBoundingBox">
      <stop offset="0" stop-color="#494b4e"/>
      <stop offset="0.512" stop-color="#797a7e"/>
      <stop offset="0.606" stop-color="#76777a"/>
      <stop offset="0.723" stop-color="#6a6b6e"/>
      <stop offset="0.853" stop-color="#57595b"/>
      <stop offset="0.991" stop-color="#3f4244"/>
      <stop offset="1" stop-color="#3e4042"/>
    </linearGradient>
    <linearGradient id="linear-gradient-3" x1="-4.577" y1="-0.478" x2="-4.576" y2="-0.496" gradientUnits="objectBoundingBox">
      <stop offset="0" stop-color="#202325"/>
      <stop offset="1" stop-color="#1d2022"/>
    </linearGradient>
    <linearGradient id="linear-gradient-4" x1="-1.562" y1="-0.299" x2="-1.562" y2="-0.306" xlink:href="#linear-gradient-3"/>
    <linearGradient id="linear-gradient-5" x1="-17.977" y1="-1.177" x2="-17.956" y2="-1.21" xlink:href="#linear-gradient-3"/>
    <linearGradient id="linear-gradient-6" x1="-138.371" y1="-3.157" x2="-140.029" y2="-3.178" gradientUnits="objectBoundingBox">
      <stop offset="0" stop-color="#6e858b"/>
      <stop offset="1" stop-color="#8ab0ba"/>
    </linearGradient>
    <linearGradient id="linear-gradient-7" x1="-13.545" y1="-0.24" x2="-13.524" y2="-0.273" xlink:href="#linear-gradient-3"/>
    <linearGradient id="linear-gradient-8" x1="-42.881" y1="-2.058" x2="-44.539" y2="-2.079" xlink:href="#linear-gradient-6"/>
    <linearGradient id="linear-gradient-25" x1="-1.711" y1="-0.973" x2="-1.712" y2="-0.974" xlink:href="#linear-gradient"/>
    <linearGradient id="linear-gradient-26" x1="-7.287" y1="-2.127" x2="-7.286" y2="-2.145" xlink:href="#linear-gradient-3"/>
    <linearGradient id="linear-gradient-27" x1="-2.668" y1="-1.175" x2="-2.667" y2="-1.181" xlink:href="#linear-gradient-3"/>
    <linearGradient id="linear-gradient-28" x1="-26.527" y1="-2.981" x2="-26.505" y2="-3.014" xlink:href="#linear-gradient-3"/>
    <linearGradient id="linear-gradient-29" x1="-322.317" y1="-5.273" x2="-323.975" y2="-5.294" xlink:href="#linear-gradient-6"/>
    <linearGradient id="linear-gradient-30" x1="-22.088" y1="-2.044" x2="-22.067" y2="-2.078" xlink:href="#linear-gradient-3"/>
    <linearGradient id="linear-gradient-31" x1="-226.866" y1="-4.175" x2="-228.524" y2="-4.196" xlink:href="#linear-gradient-6"/>
    <linearGradient id="linear-gradient-32" x1="-14.395" y1="-4.191" x2="-14.402" y2="-4.182" xlink:href="#linear-gradient-3"/>
    <clipPath id="clip-path">
      <path id="SVGID" d="M474.271,331.932a2.9,2.9,0,0,0,1.389-2.971l-6.924-41.143a2.361,2.361,0,0,0-2.329-2.052c-3.463-.043-9.3,2.138-15.56,5.771-10.3,5.941-18.316,13.614-19.854,18.766a5.6,5.6,0,0,0-.107,2.457l6.347,36.27a2.875,2.875,0,0,0,4.275,1.988Z" fill="none"/>
    </clipPath>
    <linearGradient id="linear-gradient-33" x1="-16.609" y1="-9.594" x2="-16.612" y2="-9.581" gradientUnits="objectBoundingBox">
      <stop offset="0" stop-color="#2a2f31"/>
      <stop offset="1" stop-color="#292f31"/>
    </linearGradient>
  </defs>
  <g id="组_4581" data-name="组 4581" transform="translate(339.552 169.676)">
    <g id="组_4583" data-name="组 4583">
      <g id="Group_4079" data-name="Group 4079">
        <g id="组_4700" data-name="组 4700" transform="translate(-375 -218)">
          <g id="Group_4057" data-name="Group 4057">
            <path id="Path_1796" data-name="Path 1796" d="M218.53,244.528,38.264,139.78l.025,8.949L218.53,253.476Z" fill="#343638"/>
            <path id="Path_1797" data-name="Path 1797" d="M215.767,186.932,35.526,82.184,35.6,141.3,215.868,246.074Z" fill="url(#linear-gradient)"/>
            <path id="路径_2788" data-name="路径 2788" d="M102.3,152.618q32.184,19.1,64.371,38.192,24.5,14.537,49,29.068c.052,1.082.081,2.689.1,4.369l.058.033-.063-37.348L35.526,82.184l.039,30.675c4.316,2.589,10.229,6.215,14.546,8.779Q76.2,137.137,102.3,152.618Z" fill="#2e8385"/>
            <path id="Path_1798" data-name="Path 1798" d="M84.126,49.1c-4.031-2.358-13.689.887-23.348,6.464C48.126,62.842,35.5,74.148,35.526,82.184L215.767,186.932c-.025-8.011,12.6-19.317,25.249-26.618,9.658-5.577,19.292-8.8,23.348-6.464Z" fill="#39a3a6"/>
            <path id="路径_2789" data-name="路径 2789" d="M60.778,55.566A89.77,89.77,0,0,0,45.8,66.321L227.441,169.85a92.112,92.112,0,0,1,13.575-9.536,74.444,74.444,0,0,1,10.477-5.078L66.78,52.412C64.813,53.344,62.8,54.4,60.778,55.566Z" fill="#e5a80c"/>
            <path id="Path_1799" data-name="Path 1799" d="M266.417,216.87l-.076-59.142c-.025-8.011-12.675-4.741-25.3,2.56-12.65,7.3-25.274,18.607-25.249,26.618l.076,59.142,2.662-1.546v8.974l45.276-26.132-.051-8.949Z" fill="#205556"/>
            <path id="Path_1800" data-name="Path 1800" d="M266.417,216.871l-47.811-29.28-2.814,7.4.076,51.081,2.662-1.546v8.949l45.276-26.111-.051-8.949Z" fill="#63787e" opacity="0.3" style="isolation: isolate"/>
            <g id="组_4581-2" data-name="组 4581">
              <path id="路径_2790" data-name="路径 2790" d="M215.849,229.308c-6.628-3.949-17.756-10.445-24.389-14.385q-27.9-16.569-55.8-33.128-36.049-21.395-72.1-42.782C53.243,132.894,35.6,122.632,35.6,122.632s-.155-7.542-.155-10.008c4.319,2.59,6.926,3.941,11.256,6.513q26.091,15.5,52.192,30.98,32.184,19.1,64.371,38.192C179.6,198,199.4,209.565,215.734,219.252,215.849,221.659,215.849,226.659,215.849,229.308Z" fill="#e5a80c"/>
            </g>
          </g>
          <g id="Group_4058" data-name="Group 4058">
            <path id="Path_1801" data-name="Path 1801" d="M269.814,217.35l-51.208-29.76-.025,55.26,51.233,29.711Z" fill="#343638"/>
            <path id="Path_1802" data-name="Path 1802" d="M269.814,160.035l-5.8-3.372c-3.777-2.205-12.8.837-21.827,6.033-11.811,6.82-23.626,17.387-23.6,24.9l51.208,29.761V160.035Z" fill="url(#linear-gradient-2)"/>
          </g>
          <g id="Group_4078" data-name="Group 4078">
            <g id="Group_4075" data-name="Group 4075">
              <path id="Path_1832" data-name="Path 1832" d="M112.489,160.01l-19.241-11.1a2.718,2.718,0,0,1-1.318-2.079V123.86c0-.735.583-.989,1.318-.558l19.241,11.1a2.722,2.722,0,0,1,1.318,2.079v22.946C113.807,160.187,113.224,160.441,112.489,160.01ZM136.014,173.6l-19.241-11.1a2.718,2.718,0,0,1-1.318-2.079V137.473c0-.735.583-.989,1.318-.558l19.241,11.1a2.721,2.721,0,0,1,1.318,2.08V173.04C137.358,173.775,136.749,174,136.014,173.6Zm23.551,13.59-19.241-11.1a2.718,2.718,0,0,1-1.318-2.079V151.061c0-.735.583-.989,1.318-.558l19.241,11.1a2.72,2.72,0,0,1,1.315,2.082v22.942C160.88,187.337,160.274,187.6,159.565,187.185Z" fill="url(#linear-gradient-3)"/>
              <path id="Path_1833" data-name="Path 1833" d="M62.549,131.161l-19.266-11.1a2.718,2.718,0,0,1-1.318-2.079V95.042c0-.735.583-.989,1.318-.558l19.242,11.1a2.722,2.722,0,0,1,1.318,2.079V130.6C63.868,131.342,63.285,131.592,62.549,131.161Zm146.956,84.848-19.241-11.1a2.718,2.718,0,0,1-1.318-2.079V179.885c0-.735.583-.989,1.318-.558l19.241,11.1a2.722,2.722,0,0,1,1.318,2.079v22.942C210.825,216.186,210.24,216.442,209.505,216.009Z" fill="url(#linear-gradient-4)"/>
            </g>
            <g id="Group_4076" data-name="Group 4076">
              <path id="Path_1834" data-name="Path 1834" d="M184.408,223.008l-19.241-11.1a2.718,2.718,0,0,1-1.318-2.079v-44.5c0-.735.583-.989,1.318-.558l19.241,11.1a2.718,2.718,0,0,1,1.321,2.083v44.49C185.729,223.183,185.118,223.436,184.408,223.008Z" fill="url(#linear-gradient-5)"/>
              <path id="Path_1835" data-name="Path 1835" d="M174.344,168.223c-.253-.127-.482-.3-.735-.456v50.4c.33.152.684.3,1.014.456V168.375A2.688,2.688,0,0,1,174.344,168.223Z" fill="url(#linear-gradient-6)"/>
            </g>
            <g id="Group_4077" data-name="Group 4077">
              <path id="Path_1836" data-name="Path 1836" d="M87.622,167.184l-19.241-11.1A2.72,2.72,0,0,1,67.062,154v-44.51c0-.735.583-.989,1.318-.558l19.242,11.1a2.722,2.722,0,0,1,1.318,2.079V166.6C88.939,167.337,88.331,167.592,87.622,167.184Z" fill="url(#linear-gradient-7)"/>
              <path id="Path_1837" data-name="Path 1837" d="M77.532,112.377c-.254-.127-.482-.3-.735-.456v50.4c.33.152.684.3,1.014.456V112.531A2.7,2.7,0,0,0,77.532,112.377Z" fill="url(#linear-gradient-8)"/>
            </g>
            <path id="Path_1838" data-name="Path 1838" d="M137.282,173.344c-.152.456-.634.583-1.242.253L116.8,162.5a2.718,2.718,0,0,1-1.318-2.079V137.474a.65.65,0,0,1,.557-.73.7.7,0,0,1,.1-.005,1.042,1.042,0,0,0-.076.3v22.946a2.68,2.68,0,0,0,1.318,2.077l19.241,11.1A1.18,1.18,0,0,0,137.282,173.344ZM113.1,159.579l-19.266-11.1a2.718,2.718,0,0,1-1.318-2.079V123.455a.867.867,0,0,1,.076-.3.649.649,0,0,0-.665.633.582.582,0,0,0,.006.1v22.938a2.677,2.677,0,0,0,1.318,2.079l19.241,11.1c.608.355,1.09.228,1.242-.253A1.092,1.092,0,0,1,113.1,159.579ZM63.132,130.73l-19.241-11.1a2.718,2.718,0,0,1-1.318-2.079V94.606a.867.867,0,0,1,.076-.3.649.649,0,0,0-.665.633.582.582,0,0,0,.006.1v22.938a2.679,2.679,0,0,0,1.318,2.083l19.241,11.1c.608.355,1.09.228,1.242-.253A1,1,0,0,1,63.132,130.73Zm97.016,56.024-19.241-11.1a2.718,2.718,0,0,1-1.318-2.079V150.63a.867.867,0,0,1,.076-.3.649.649,0,0,0-.665.633.582.582,0,0,0,.006.1V174a2.677,2.677,0,0,0,1.318,2.079l19.241,11.1c.608.355,1.09.228,1.242-.254a1.429,1.429,0,0,1-.659-.173ZM210.114,215.6l-19.241-11.1a2.718,2.718,0,0,1-1.318-2.079V179.479a.867.867,0,0,1,.076-.3.649.649,0,0,0-.665.633.581.581,0,0,0,.006.1v22.938a2.677,2.677,0,0,0,1.318,2.079l19.241,11.1c.608.355,1.09.228,1.242-.253a1.359,1.359,0,0,1-.66-.175Z" fill="#a7b8ba" opacity="0.9" style="isolation: isolate"/>
          </g>
        </g>
        <g id="组_4699" data-name="组 4699" transform="translate(-187 -109)">
          <g id="Group_4057-2" data-name="Group 4057">
            <path id="Path_1796-2" data-name="Path 1796" d="M218.53,244.528,38.264,139.78l.025,8.949L218.53,253.476Z" fill="#343638"/>
            <path id="Path_1797-2" data-name="Path 1797" d="M215.767,186.932,35.526,82.184,35.6,141.3,215.868,246.074Z" fill="url(#linear-gradient)"/>
            <path id="路径_2788-2" data-name="路径 2788" d="M102.3,152.618q32.184,19.1,64.371,38.192,24.5,14.537,49,29.068c.052,1.082.081,2.689.1,4.369l.058.033-.063-37.348L35.526,82.184l.039,30.675c4.316,2.589,10.229,6.215,14.546,8.779Q76.2,137.137,102.3,152.618Z" fill="#2e8385"/>
            <path id="Path_1798-2" data-name="Path 1798" d="M84.126,49.1c-4.031-2.358-13.689.887-23.348,6.464C48.126,62.842,35.5,74.148,35.526,82.184L215.767,186.932c-.025-8.011,12.6-19.317,25.249-26.618,9.658-5.577,19.292-8.8,23.348-6.464Z" fill="#39a3a6"/>
            <path id="路径_2789-2" data-name="路径 2789" d="M60.778,55.566A89.77,89.77,0,0,0,45.8,66.321L227.441,169.85a92.112,92.112,0,0,1,13.575-9.536,74.444,74.444,0,0,1,10.477-5.078L66.78,52.412C64.813,53.344,62.8,54.4,60.778,55.566Z" fill="#e5a80c"/>
            <path id="Path_1799-2" data-name="Path 1799" d="M266.417,216.87l-.076-59.142c-.025-8.011-12.675-4.741-25.3,2.56-12.65,7.3-25.274,18.607-25.249,26.618l.076,59.142,2.662-1.546v8.974l45.276-26.132-.051-8.949Z" fill="#205556"/>
            <path id="Path_1800-2" data-name="Path 1800" d="M266.417,216.871l-47.811-29.28-2.814,7.4.076,51.081,2.662-1.546v8.949l45.276-26.111-.051-8.949Z" fill="#63787e" opacity="0.3" style="isolation: isolate"/>
            <g id="组_4581-3" data-name="组 4581">
              <path id="路径_2790-2" data-name="路径 2790" d="M215.849,229.308c-6.628-3.949-17.756-10.445-24.389-14.385q-27.9-16.569-55.8-33.128-36.049-21.395-72.1-42.782C53.243,132.894,35.6,122.632,35.6,122.632s-.155-7.542-.155-10.008c4.319,2.59,6.926,3.941,11.256,6.513q26.091,15.5,52.192,30.98,32.184,19.1,64.371,38.192C179.6,198,199.4,209.565,215.734,219.252,215.849,221.659,215.849,226.659,215.849,229.308Z" fill="#e5a80c"/>
            </g>
          </g>
          <g id="Group_4058-2" data-name="Group 4058">
            <path id="Path_1801-2" data-name="Path 1801" d="M269.814,217.35l-51.208-29.76-.025,55.26,51.233,29.711Z" fill="#343638"/>
            <path id="Path_1802-2" data-name="Path 1802" d="M269.814,160.035l-5.8-3.372c-3.777-2.205-12.8.837-21.827,6.033-11.811,6.82-23.626,17.387-23.6,24.9l51.208,29.761V160.035Z" fill="url(#linear-gradient-2)"/>
          </g>
          <g id="Group_4078-2" data-name="Group 4078">
            <g id="Group_4075-2" data-name="Group 4075">
              <path id="Path_1832-2" data-name="Path 1832" d="M112.489,160.01l-19.241-11.1a2.718,2.718,0,0,1-1.318-2.079V123.86c0-.735.583-.989,1.318-.558l19.241,11.1a2.722,2.722,0,0,1,1.318,2.079v22.946C113.807,160.187,113.224,160.441,112.489,160.01ZM136.014,173.6l-19.241-11.1a2.718,2.718,0,0,1-1.318-2.079V137.473c0-.735.583-.989,1.318-.558l19.241,11.1a2.721,2.721,0,0,1,1.318,2.08V173.04C137.358,173.775,136.749,174,136.014,173.6Zm23.551,13.59-19.241-11.1a2.718,2.718,0,0,1-1.318-2.079V151.061c0-.735.583-.989,1.318-.558l19.241,11.1a2.72,2.72,0,0,1,1.315,2.082v22.942C160.88,187.337,160.274,187.6,159.565,187.185Z" fill="url(#linear-gradient-3)"/>
              <path id="Path_1833-2" data-name="Path 1833" d="M62.549,131.161l-19.266-11.1a2.718,2.718,0,0,1-1.318-2.079V95.042c0-.735.583-.989,1.318-.558l19.242,11.1a2.722,2.722,0,0,1,1.318,2.079V130.6C63.868,131.342,63.285,131.592,62.549,131.161Zm146.956,84.848-19.241-11.1a2.718,2.718,0,0,1-1.318-2.079V179.885c0-.735.583-.989,1.318-.558l19.241,11.1a2.722,2.722,0,0,1,1.318,2.079v22.942C210.825,216.186,210.24,216.442,209.505,216.009Z" fill="url(#linear-gradient-4)"/>
            </g>
            <g id="Group_4076-2" data-name="Group 4076">
              <path id="Path_1834-2" data-name="Path 1834" d="M184.408,223.008l-19.241-11.1a2.718,2.718,0,0,1-1.318-2.079v-44.5c0-.735.583-.989,1.318-.558l19.241,11.1a2.718,2.718,0,0,1,1.321,2.083v44.49C185.729,223.183,185.118,223.436,184.408,223.008Z" fill="url(#linear-gradient-5)"/>
              <path id="Path_1835-2" data-name="Path 1835" d="M174.344,168.223c-.253-.127-.482-.3-.735-.456v50.4c.33.152.684.3,1.014.456V168.375A2.688,2.688,0,0,1,174.344,168.223Z" fill="url(#linear-gradient-6)"/>
            </g>
            <g id="Group_4077-2" data-name="Group 4077">
              <path id="Path_1836-2" data-name="Path 1836" d="M87.622,167.184l-19.241-11.1A2.72,2.72,0,0,1,67.062,154v-44.51c0-.735.583-.989,1.318-.558l19.242,11.1a2.722,2.722,0,0,1,1.318,2.079V166.6C88.939,167.337,88.331,167.592,87.622,167.184Z" fill="url(#linear-gradient-7)"/>
              <path id="Path_1837-2" data-name="Path 1837" d="M77.532,112.377c-.254-.127-.482-.3-.735-.456v50.4c.33.152.684.3,1.014.456V112.531A2.7,2.7,0,0,0,77.532,112.377Z" fill="url(#linear-gradient-8)"/>
            </g>
            <path id="Path_1838-2" data-name="Path 1838" d="M137.282,173.344c-.152.456-.634.583-1.242.253L116.8,162.5a2.718,2.718,0,0,1-1.318-2.079V137.474a.65.65,0,0,1,.557-.73.7.7,0,0,1,.1-.005,1.042,1.042,0,0,0-.076.3v22.946a2.68,2.68,0,0,0,1.318,2.077l19.241,11.1A1.18,1.18,0,0,0,137.282,173.344ZM113.1,159.579l-19.266-11.1a2.718,2.718,0,0,1-1.318-2.079V123.455a.867.867,0,0,1,.076-.3.649.649,0,0,0-.665.633.582.582,0,0,0,.006.1v22.938a2.677,2.677,0,0,0,1.318,2.079l19.241,11.1c.608.355,1.09.228,1.242-.253A1.092,1.092,0,0,1,113.1,159.579ZM63.132,130.73l-19.241-11.1a2.718,2.718,0,0,1-1.318-2.079V94.606a.867.867,0,0,1,.076-.3.649.649,0,0,0-.665.633.582.582,0,0,0,.006.1v22.938a2.679,2.679,0,0,0,1.318,2.083l19.241,11.1c.608.355,1.09.228,1.242-.253A1,1,0,0,1,63.132,130.73Zm97.016,56.024-19.241-11.1a2.718,2.718,0,0,1-1.318-2.079V150.63a.867.867,0,0,1,.076-.3.649.649,0,0,0-.665.633.582.582,0,0,0,.006.1V174a2.677,2.677,0,0,0,1.318,2.079l19.241,11.1c.608.355,1.09.228,1.242-.254a1.429,1.429,0,0,1-.659-.173ZM210.114,215.6l-19.241-11.1a2.718,2.718,0,0,1-1.318-2.079V179.479a.867.867,0,0,1,.076-.3.649.649,0,0,0-.665.633.581.581,0,0,0,.006.1v22.938a2.677,2.677,0,0,0,1.318,2.079l19.241,11.1c.608.355,1.09.228,1.242-.253a1.359,1.359,0,0,1-.66-.175Z" fill="#a7b8ba" opacity="0.9" style="isolation: isolate"/>
          </g>
        </g>
        <g id="组_4698" data-name="组 4698">
          <g id="Group_4057-3" data-name="Group 4057">
            <path id="Path_1796-3" data-name="Path 1796" d="M218.53,244.528,38.264,139.78l.025,8.949L218.53,253.476Z" fill="#343638"/>
            <path id="Path_1797-3" data-name="Path 1797" d="M215.767,186.932,35.526,82.184,35.6,141.3,215.868,246.074Z" fill="url(#linear-gradient)"/>
            <path id="路径_2788-3" data-name="路径 2788" d="M102.3,152.618q32.184,19.1,64.371,38.192,24.5,14.537,49,29.068c.052,1.082.081,2.689.1,4.369l.058.033-.063-37.348L35.526,82.184l.039,30.675c4.316,2.589,10.229,6.215,14.546,8.779Q76.2,137.137,102.3,152.618Z" fill="#2e8385"/>
            <path id="Path_1798-3" data-name="Path 1798" d="M84.126,49.1c-4.031-2.358-13.689.887-23.348,6.464C48.126,62.842,35.5,74.148,35.526,82.184L215.767,186.932c-.025-8.011,12.6-19.317,25.249-26.618,9.658-5.577,19.292-8.8,23.348-6.464Z" fill="#39a3a6"/>
            <path id="路径_2789-3" data-name="路径 2789" d="M60.778,55.566A89.77,89.77,0,0,0,45.8,66.321L227.441,169.85a92.112,92.112,0,0,1,13.575-9.536,74.444,74.444,0,0,1,10.477-5.078L66.78,52.412C64.813,53.344,62.8,54.4,60.778,55.566Z" fill="#e5a80c"/>
            <path id="Path_1799-3" data-name="Path 1799" d="M266.417,216.87l-.076-59.142c-.025-8.011-12.675-4.741-25.3,2.56-12.65,7.3-25.274,18.607-25.249,26.618l.076,59.142,2.662-1.546v8.974l45.276-26.132-.051-8.949Z" fill="#205556"/>
            <path id="Path_1800-3" data-name="Path 1800" d="M266.417,216.871l-47.811-29.28-2.814,7.4.076,51.081,2.662-1.546v8.949l45.276-26.111-.051-8.949Z" fill="#63787e" opacity="0.3" style="isolation: isolate"/>
            <g id="组_4581-4" data-name="组 4581">
              <path id="路径_2790-3" data-name="路径 2790" d="M215.849,229.308c-6.628-3.949-17.756-10.445-24.389-14.385q-27.9-16.569-55.8-33.128-36.049-21.395-72.1-42.782C53.243,132.894,35.6,122.632,35.6,122.632s-.155-7.542-.155-10.008c4.319,2.59,6.926,3.941,11.256,6.513q26.091,15.5,52.192,30.98,32.184,19.1,64.371,38.192C179.6,198,199.4,209.565,215.734,219.252,215.849,221.659,215.849,226.659,215.849,229.308Z" fill="#e5a80c"/>
            </g>
          </g>
          <g id="Group_4058-3" data-name="Group 4058">
            <path id="Path_1801-3" data-name="Path 1801" d="M269.814,217.35l-51.208-29.76-.025,55.26,51.233,29.711Z" fill="#343638"/>
            <path id="Path_1802-3" data-name="Path 1802" d="M269.814,160.035l-5.8-3.372c-3.777-2.205-12.8.837-21.827,6.033-11.811,6.82-23.626,17.387-23.6,24.9l51.208,29.761V160.035Z" fill="url(#linear-gradient-2)"/>
          </g>
          <g id="Group_4078-3" data-name="Group 4078">
            <g id="Group_4075-3" data-name="Group 4075">
              <path id="Path_1832-3" data-name="Path 1832" d="M112.489,160.01l-19.241-11.1a2.718,2.718,0,0,1-1.318-2.079V123.86c0-.735.583-.989,1.318-.558l19.241,11.1a2.722,2.722,0,0,1,1.318,2.079v22.946C113.807,160.187,113.224,160.441,112.489,160.01ZM136.014,173.6l-19.241-11.1a2.718,2.718,0,0,1-1.318-2.079V137.473c0-.735.583-.989,1.318-.558l19.241,11.1a2.721,2.721,0,0,1,1.318,2.08V173.04C137.358,173.775,136.749,174,136.014,173.6Zm23.551,13.59-19.241-11.1a2.718,2.718,0,0,1-1.318-2.079V151.061c0-.735.583-.989,1.318-.558l19.241,11.1a2.72,2.72,0,0,1,1.315,2.082v22.942C160.88,187.337,160.274,187.6,159.565,187.185Z" fill="url(#linear-gradient-3)"/>
              <path id="Path_1833-3" data-name="Path 1833" d="M62.549,131.161l-19.266-11.1a2.718,2.718,0,0,1-1.318-2.079V95.042c0-.735.583-.989,1.318-.558l19.242,11.1a2.722,2.722,0,0,1,1.318,2.079V130.6C63.868,131.342,63.285,131.592,62.549,131.161Zm146.956,84.848-19.241-11.1a2.718,2.718,0,0,1-1.318-2.079V179.885c0-.735.583-.989,1.318-.558l19.241,11.1a2.722,2.722,0,0,1,1.318,2.079v22.942C210.825,216.186,210.24,216.442,209.505,216.009Z" fill="url(#linear-gradient-4)"/>
            </g>
            <g id="Group_4076-3" data-name="Group 4076">
              <path id="Path_1834-3" data-name="Path 1834" d="M184.408,223.008l-19.241-11.1a2.718,2.718,0,0,1-1.318-2.079v-44.5c0-.735.583-.989,1.318-.558l19.241,11.1a2.718,2.718,0,0,1,1.321,2.083v44.49C185.729,223.183,185.118,223.436,184.408,223.008Z" fill="url(#linear-gradient-5)"/>
              <path id="Path_1835-3" data-name="Path 1835" d="M174.344,168.223c-.253-.127-.482-.3-.735-.456v50.4c.33.152.684.3,1.014.456V168.375A2.688,2.688,0,0,1,174.344,168.223Z" fill="url(#linear-gradient-6)"/>
            </g>
            <g id="Group_4077-3" data-name="Group 4077">
              <path id="Path_1836-3" data-name="Path 1836" d="M87.622,167.184l-19.241-11.1A2.72,2.72,0,0,1,67.062,154v-44.51c0-.735.583-.989,1.318-.558l19.242,11.1a2.722,2.722,0,0,1,1.318,2.079V166.6C88.939,167.337,88.331,167.592,87.622,167.184Z" fill="url(#linear-gradient-7)"/>
              <path id="Path_1837-3" data-name="Path 1837" d="M77.532,112.377c-.254-.127-.482-.3-.735-.456v50.4c.33.152.684.3,1.014.456V112.531A2.7,2.7,0,0,0,77.532,112.377Z" fill="url(#linear-gradient-8)"/>
            </g>
            <path id="Path_1838-3" data-name="Path 1838" d="M137.282,173.344c-.152.456-.634.583-1.242.253L116.8,162.5a2.718,2.718,0,0,1-1.318-2.079V137.474a.65.65,0,0,1,.557-.73.7.7,0,0,1,.1-.005,1.042,1.042,0,0,0-.076.3v22.946a2.68,2.68,0,0,0,1.318,2.077l19.241,11.1A1.18,1.18,0,0,0,137.282,173.344ZM113.1,159.579l-19.266-11.1a2.718,2.718,0,0,1-1.318-2.079V123.455a.867.867,0,0,1,.076-.3.649.649,0,0,0-.665.633.582.582,0,0,0,.006.1v22.938a2.677,2.677,0,0,0,1.318,2.079l19.241,11.1c.608.355,1.09.228,1.242-.253A1.092,1.092,0,0,1,113.1,159.579ZM63.132,130.73l-19.241-11.1a2.718,2.718,0,0,1-1.318-2.079V94.606a.867.867,0,0,1,.076-.3.649.649,0,0,0-.665.633.582.582,0,0,0,.006.1v22.938a2.679,2.679,0,0,0,1.318,2.083l19.241,11.1c.608.355,1.09.228,1.242-.253A1,1,0,0,1,63.132,130.73Zm97.016,56.024-19.241-11.1a2.718,2.718,0,0,1-1.318-2.079V150.63a.867.867,0,0,1,.076-.3.649.649,0,0,0-.665.633.582.582,0,0,0,.006.1V174a2.677,2.677,0,0,0,1.318,2.079l19.241,11.1c.608.355,1.09.228,1.242-.254a1.429,1.429,0,0,1-.659-.173ZM210.114,215.6l-19.241-11.1a2.718,2.718,0,0,1-1.318-2.079V179.479a.867.867,0,0,1,.076-.3.649.649,0,0,0-.665.633.581.581,0,0,0,.006.1v22.938a2.677,2.677,0,0,0,1.318,2.079l19.241,11.1c.608.355,1.09.228,1.242-.253a1.359,1.359,0,0,1-.66-.175Z" fill="#a7b8ba" opacity="0.9" style="isolation: isolate"/>
          </g>
        </g>
        <g id="Group_4059" data-name="Group 4059">
          <path id="Path_1803" data-name="Path 1803" d="M428.507,366.716,226.363,249.243l.025,8.974L428.507,375.69Z" fill="#343638"/>
          <path id="Path_1804" data-name="Path 1804" d="M472.591,350.213l-44.11,25.452v-8.619l44.11-25.452Z" fill="#54585b"/>
          <path id="Path_1805" data-name="Path 1805" d="M482.384,343.408v-8.419l-44.4,26.572-23.915-59.44L223.625,191.647l.076,59.142L427.914,369.444a22.781,22.781,0,0,0,23-.066l18.257-10.749C473.882,356.168,482.384,348.72,482.384,343.408Z" fill="url(#linear-gradient-25)"/>
          <path id="路径_2791" data-name="路径 2791" d="M279.364,258.8q29.587,17.242,59.172,34.491c25.727,15,66.718,37.48,93.253,52.87l-17.717-44.035L223.625,191.647l.044,34.64q10.229,5.989,20.458,11.977Q261.74,248.539,279.364,258.8Z" fill="#2f8385"/>
          <g id="组_4582" data-name="组 4582">
            <path id="路径_2792" data-name="路径 2792" d="M223.634,225.266q10.245,6,20.493,12,17.613,10.275,35.237,20.531,29.587,17.242,59.172,34.491c26.424,15.4,68.955,38.706,95.382,54.107.636,4.218.375,5.085.953,8.454-7.455-4.36-184.142-105.206-211.189-120.968C223.625,231.681,223.562,227.968,223.634,225.266Z" fill="#e5a80c"/>
          </g>
        </g>
        <g id="Group_4074" data-name="Group 4074">
          <g id="Group_4071" data-name="Group 4071">
            <path id="Path_1824" data-name="Path 1824" d="M299.043,267.622l-19.241-11.1a2.718,2.718,0,0,1-1.318-2.079V231.5c0-.735.583-.989,1.318-.558l19.241,11.1a2.722,2.722,0,0,1,1.318,2.079v22.942C300.36,267.773,299.752,268.028,299.043,267.622Zm23.525,13.562-19.241-11.1a2.718,2.718,0,0,1-1.318-2.079V245.06c0-.735.583-.989,1.318-.558l19.241,11.1a2.722,2.722,0,0,1,1.318,2.079v22.942c0,.739-.584.993-1.319.562Zm23.524,13.589-19.241-11.1a2.718,2.718,0,0,1-1.318-2.079V258.648c0-.735.583-.989,1.318-.558l19.241,11.1a2.722,2.722,0,0,1,1.318,2.079v22.942C347.411,294.95,346.828,295.2,346.092,294.773Z" fill="url(#linear-gradient-26)"/>
            <path id="Path_1825" data-name="Path 1825" d="M249.077,238.773l-19.241-11.1a2.718,2.718,0,0,1-1.318-2.079V202.649c0-.735.583-.989,1.318-.558l19.241,11.1a2.722,2.722,0,0,1,1.318,2.079v22.946C250.4,238.951,249.812,239.2,249.077,238.773Zm146.956,84.848-19.241-11.1a2.718,2.718,0,0,1-1.318-2.079V287.5c0-.735.583-.989,1.318-.558l19.241,11.1a2.722,2.722,0,0,1,1.318,2.079V323.06c.026.738-.583.992-1.318.561Z" fill="url(#linear-gradient-27)"/>
          </g>
          <g id="Group_4072" data-name="Group 4072">
            <path id="Path_1826" data-name="Path 1826" d="M370.936,330.617l-19.241-11.1a2.718,2.718,0,0,1-1.318-2.079V272.92c0-.735.583-.989,1.318-.558l19.241,11.1a2.722,2.722,0,0,1,1.318,2.079v44.49C372.254,330.8,371.671,331.048,370.936,330.617Z" fill="url(#linear-gradient-28)"/>
            <path id="Path_1827" data-name="Path 1827" d="M360.872,275.835c-.253-.127-.482-.3-.735-.456v50.4c.33.152.684.3,1.014.456V275.962A2.919,2.919,0,0,0,360.872,275.835Z" fill="url(#linear-gradient-29)"/>
          </g>
          <g id="Group_4073" data-name="Group 4073">
            <path id="Path_1828" data-name="Path 1828" d="M274.148,274.77l-19.241-11.1a2.718,2.718,0,0,1-1.318-2.079V217.073c0-.735.583-.989,1.318-.558l19.241,11.1a2.718,2.718,0,0,1,1.321,2.083v44.49C275.469,274.948,274.883,275.2,274.148,274.77Z" fill="url(#linear-gradient-30)"/>
            <path id="Path_1829" data-name="Path 1829" d="M264.084,219.992c-.254-.127-.482-.3-.735-.456v50.4c.33.152.684.3,1.014.456V220.115A2.882,2.882,0,0,0,264.084,219.992Z" fill="url(#linear-gradient-31)"/>
          </g>
          <path id="Path_1831" data-name="Path 1831" d="M323.81,280.957c-.152.456-.634.583-1.242.254l-19.241-11.1a2.718,2.718,0,0,1-1.318-2.079V245.086a.65.65,0,0,1,.557-.73.7.7,0,0,1,.1-.005,1.041,1.041,0,0,0-.076.3v22.942a2.677,2.677,0,0,0,1.318,2.079l19.241,11.1A1.435,1.435,0,0,0,323.81,280.957Zm-24.184-13.765-19.241-11.1a2.718,2.718,0,0,1-1.318-2.079V231.067a.868.868,0,0,1,.076-.3.649.649,0,0,0-.665.633.581.581,0,0,0,.006.1v22.942a2.677,2.677,0,0,0,1.318,2.079l19.241,11.1c.608.355,1.09.228,1.242-.253a1.436,1.436,0,0,1-.66-.179Zm-49.941-28.849-19.241-11.1a2.718,2.718,0,0,1-1.318-2.079V202.193a.867.867,0,0,1,.076-.3.649.649,0,0,0-.665.633.581.581,0,0,0,.006.1v22.938a2.677,2.677,0,0,0,1.318,2.079l19.242,11.1c.608.355,1.09.228,1.242-.253A.939.939,0,0,1,249.685,238.343ZM346.7,294.367l-19.241-11.1a2.718,2.718,0,0,1-1.318-2.079V258.217a.867.867,0,0,1,.076-.3.649.649,0,0,0-.665.633.581.581,0,0,0,.006.1v22.942a2.677,2.677,0,0,0,1.318,2.079l19.241,11.1c.608.355,1.09.228,1.242-.253A1.1,1.1,0,0,1,346.7,294.367Zm49.94,28.821-19.24-11.1a2.718,2.718,0,0,1-1.318-2.079V287.066a.868.868,0,0,1,.076-.3.649.649,0,0,0-.665.633.581.581,0,0,0,.006.1v22.938a2.677,2.677,0,0,0,1.318,2.079l19.241,11.1c.608.355,1.09.228,1.242-.253a1.178,1.178,0,0,1-.662-.175Z" fill="#a7b8ba" opacity="0.9" style="isolation: isolate"/>
        </g>
      </g>
      <path id="路径_2793" data-name="路径 2793" d="M482.442,333.605a22.544,22.544,0,0,0-1.033-7.729l-17.244-54.491c-1.394-7.732-12.523-4.183-25.173,3.093-10.334,5.963-20.651,14.6-24.069,21.931a9.889,9.889,0,0,0-.377,7.19l15.171,47.288A22.344,22.344,0,0,0,440.6,363.843l.194.1a22.567,22.567,0,0,0,21.769-.427l8.361-4.82a22.518,22.518,0,0,0,11.237-18.535Q482.305,336.885,482.442,333.605Z" fill="#3bb8c0"/>
      <path id="Path_1806" data-name="Path 1806" d="M271.225,158.565c-4.031-2.358-13.689.887-23.348,6.464-12.652,7.3-25.277,18.607-25.252,26.618L413.743,302.121c-.025-8.011,12.6-19.317,25.249-26.618,13.325-7.164,23.068-7.564,23.043-7.589Z" fill="#39a3a6"/>
      <path id="路径_2794" data-name="路径 2794" d="M438.36,358.751l.19.1a22.034,22.034,0,0,0,21.254-.416l12.54-6.793a21.945,21.945,0,0,0,9.844-12.065q.129-2.986.254-5.971a22.544,22.544,0,0,0-1.033-7.729l-.152-.478c-.009.206-.017.412-.026.618a21.985,21.985,0,0,1-10.971,18.1l-12.541,6.793a22.032,22.032,0,0,1-21.254.417l-.19-.1a21.825,21.825,0,0,1-9.853-10.6l3.013,9.389A21.808,21.808,0,0,0,438.36,358.751Z" fill="#ffbf0f"/>
    </g>
    <path id="路径_2795" data-name="路径 2795" d="M451.249,270.242l-1.793-.984a86.146,86.146,0,0,0-10.464,5.22,92.185,92.185,0,0,0-13.534,9.509l18.281,29.688,18.3-10.147Z" fill="#ffbd0e"/>
    <path id="路径_2796" data-name="路径 2796" d="M438.992,274.478a86.146,86.146,0,0,1,10.464-5.22L254.746,160.869l-21.1,13.795,191.81,109.323A92.185,92.185,0,0,1,438.992,274.478Z" fill="#e5a80c"/>
    <g id="组_4586" data-name="组 4586">
      <g id="Group_4061" data-name="Group 4061">
        <path id="Path_1809" data-name="Path 1809" d="M474.271,331.932a2.9,2.9,0,0,0,1.389-2.971l-6.924-41.143a2.361,2.361,0,0,0-2.329-2.052c-3.463-.043-9.3,2.138-15.56,5.771-10.3,5.941-18.316,13.614-19.854,18.766a5.6,5.6,0,0,0-.107,2.457l6.347,36.27a2.875,2.875,0,0,0,4.275,1.988Z" fill="url(#linear-gradient-32)"/>
        <g id="组_4585" data-name="组 4585">
          <g id="组_4584" data-name="组 4584" clip-path="url(#clip-path)">
            <g id="Group_4060" data-name="Group 4060">
              <path id="Path_1810" data-name="Path 1810" d="M486.173,333.963,440.646,360.23l-9.575-5.514,45.5-26.288Z" fill="#bcc9ca" opacity="0.2" style="isolation: isolate"/>
            </g>
          </g>
        </g>
      </g>
      <path id="Path_1823" data-name="Path 1823" d="M468.756,287.84a2.361,2.361,0,0,0-2.329-2.052c-3.463-.043-9.3,2.137-15.559,5.771-10.3,5.941-18.316,13.614-19.855,18.766a5.6,5.6,0,0,0-.107,2.457l.47,2.693L469.7,293.354Z" opacity="0.9" fill="url(#linear-gradient-33)" style="isolation: isolate"/>
    </g>
  </g>
</svg>
