<svg xmlns="http://www.w3.org/2000/svg" width="307.87" height="247.805" viewBox="0 0 307.87 247.805">
  <g id="Group_4575" data-name="Group 4575" transform="translate(375.153 -43.475)">
    <g id="Group_4575-2" data-name="Group 4575" transform="translate(-342.611 158.471)">
      <path id="Path_2776" data-name="Path 2776" d="M-336.689,177.63l-3.821-8.7,13.141-3.032-1.831,7.191Z" transform="translate(340.51 -165.896)" fill="#181817"/>
      <path id="Path_2777" data-name="Path 2777" d="M-161.613,279.038l-3.821-8.7,13.141-3.032-1.831,7.191Z" transform="translate(329.892 -172.046)" fill="#181817"/>
    </g>
    <g id="Group_4579" data-name="Group 4579" transform="translate(-375.153 43.475)">
      <path id="Path_1534" data-name="Path 1534" d="M-140.283,288.319a16.678,16.678,0,0,0-7.421-13.142c-2.175-1.3-4.145-1.375-5.542-.484l.019-.26-4.885,2.974c-1.711.595-2.807,2.379-2.826,5.093a16.678,16.678,0,0,0,7.421,13.142c2.361,1.394,4.48,1.394,5.874.241l4.647-2.51C-141.361,292.707-140.316,290.959-140.283,288.319Z" transform="translate(362.161 -57.463)" fill="#37282c"/>
      <path id="Path_1535" data-name="Path 1535" d="M-139.92,288.319a16.679,16.679,0,0,0-7.421-13.142c-4.145-2.472-7.566-.558-7.622,4.238a16.676,16.676,0,0,0,7.421,13.142C-143.393,295.01-139.977,293.115-139.92,288.319Z" transform="translate(361.798 -57.462)" fill="#37282c"/>
      <path id="Path_1536" data-name="Path 1536" d="M-145.9,291.584a16.678,16.678,0,0,0-7.421-13.142c-4.164-2.454-7.566-.558-7.622,4.238a16.676,16.676,0,0,0,7.421,13.142C-149.369,298.276-145.953,296.38-145.9,291.584Z" transform="translate(362.161 -57.661)" fill="#3b3b3c"/>
      <path id="Path_1539" data-name="Path 1539" d="M-148.595,290.927a11.751,11.751,0,0,0-5.2-9.238c-2.919-1.728-5.317-.391-5.354,2.974a11.7,11.7,0,0,0,5.224,9.238C-151.029,295.611-148.632,294.291-148.595,290.927Z" transform="translate(362.052 -57.877)" fill="#a3a7ac"/>
      <path id="Path_1540" data-name="Path 1540" d="M-147.527,275.156c-2.175-1.3-4.145-1.375-5.542-.484l.019-.26-4.885,2.974a1.231,1.231,0,0,0-.148.055c3.885-1.933,16.1,8.365,11.469,17.957l3.792-2.045c1.635-.632,2.677-2.4,2.714-5.038A16.724,16.724,0,0,0-147.527,275.156Z" transform="translate(361.987 -57.461)" fill="#070202"/>
      <path id="Path_1541" data-name="Path 1541" d="M-315.221,186.484a16.678,16.678,0,0,0-7.421-13.142c-2.175-1.282-4.145-1.375-5.542-.484l.019-.26-4.885,2.974c-1.711.595-2.807,2.379-2.844,5.093a16.654,16.654,0,0,0,7.436,13.142c2.361,1.394,4.48,1.394,5.874.241l4.65-2.506C-316.3,190.89-315.24,189.124-315.221,186.484Z" transform="translate(372.772 -51.287)" fill="#37282c"/>
      <path id="Path_1542" data-name="Path 1542" d="M-314.856,186.483a16.678,16.678,0,0,0-7.421-13.142c-4.145-2.472-7.566-.576-7.622,4.238a16.678,16.678,0,0,0,7.421,13.142C-318.313,193.175-314.913,191.28-314.856,186.483Z" transform="translate(372.408 -51.286)" fill="#37282c"/>
      <path id="Path_1543" data-name="Path 1543" d="M-320.833,189.769a16.678,16.678,0,0,0-7.421-13.142c-4.164-2.454-7.566-.558-7.622,4.238a16.651,16.651,0,0,0,7.436,13.142C-324.291,196.461-320.89,194.565-320.833,189.769Z" transform="translate(372.771 -51.486)" fill="#3b3b3c"/>
      <path id="Path_1546" data-name="Path 1546" d="M-323.532,189.092a11.729,11.729,0,0,0-5.2-9.238c-2.919-1.728-5.317-.391-5.354,2.974a11.7,11.7,0,0,0,5.224,9.238C-325.966,193.795-323.569,192.475-323.532,189.092Z" transform="translate(372.663 -51.701)" fill="#a3a7ac"/>
      <path id="Path_1547" data-name="Path 1547" d="M-322.464,173.342c-2.175-1.282-4.145-1.375-5.542-.484l.019-.26-4.885,2.974a1.222,1.222,0,0,0-.148.055c3.883-1.932,16.1,8.367,11.468,17.958l3.792-2.067c1.635-.632,2.677-2.4,2.714-5.038C-314.99,181.689-318.318,175.814-322.464,173.342Z" transform="translate(372.598 -51.287)" fill="#070202"/>
      <path id="Path_2778" data-name="Path 2778" d="M-74.474,252.039l-.923.532c-.64-1.986-.641.287-.641-6.364,0-13.78,2.188-39.748.767-54.4a48.6,48.6,0,0,0-2.064-5.041l-4.812-8.5L-320.613,43.475l-50.548,27.476-.163-.094-.576.223-.052.663L-374.2,95.061l-.131-.076v38.442l.2.114.022,13.323-1.037.523v1.728l.051-.026,36.312,21.117c.348-4.68,3.874-6.449,8.161-3.923a15.07,15.07,0,0,1,4.132,3.789c.069.088.138.176.2.266a17.943,17.943,0,0,1,3.625,9.432l148.3,85.746c.6-3.568,3.258-5.089,6.628-3.8l.319-.18c.122.06.244.115.368.184,5.711,3.157,7.8,7.324,8.547,11.281l-.238-.137c.089.416.139.839.2,1.261.034.189.07.379.1.566l28.155,16.226.024.364.312-.17.238.137h0l19.308-10.781,37.354-20.341v-3.459Z" transform="translate(375.153 -43.475)" fill="#2194d5"/>
      <g id="Group_4577" data-name="Group 4577" transform="translate(0 72.084)">
        <path id="Path_2779" data-name="Path 2779" d="M-172.548,240.039-374.335,120.213v17.868l.2.114.022,13.323-1.037.523v1.728l.051-.026,36.312,21.117c.348-4.68,3.874-6.449,8.161-3.923a15.07,15.07,0,0,1,4.132,3.789c.069.088.138.176.2.266a17.943,17.943,0,0,1,3.625,9.432l148.19,85.681a5.413,5.413,0,0,1,.916-2.2,7.033,7.033,0,0,1,1.978-1.7l-1.612,1.262S-172.885,246.1-172.548,240.039Z" transform="translate(375.153 -120.213)" fill="#dadcd9"/>
        <g id="Group_4576" data-name="Group 4576" transform="translate(0.818)">
          <path id="Path_2780" data-name="Path 2780" d="M-374.1,129.378q3.156,1.778,6.333,3.52c8.383,4.6,16.848,9.046,25.192,13.714s16.514,9.64,24.6,14.734c16.336,10.287,32.305,21.138,48.323,31.91,14.261,9.591,28.741,18.865,42.566,29.087a315.636,315.636,0,0,1,37.49,31.974c4.577,4.647,15.169,15.788,15.169,15.788a5.413,5.413,0,0,1,.916-2.2,4.271,4.271,0,0,1,.367-.439h0s.311-21.366.648-27.431L-374.282,120.213V129.3A1.566,1.566,0,0,1-374.1,129.378Z" transform="translate(374.282 -120.213)" fill="#95c24e"/>
        </g>
      </g>
      <path id="Path_2781" data-name="Path 2781" d="M-59.09,260.742l-.923.532c-.64-1.986-.641.287-.641-6.364,0-13.78,2.188-39.748.767-54.4a48.6,48.6,0,0,0-2.064-5.042l-4.812-8.5-54.75,30.889,4.014,12.776s.507,41.964.507,55.745c0,6.652,0,4.378.641,6.364l.923-.532,1.416,4.628v2.926l18.984-10.6,37.354-20.341V265.37Z" transform="translate(359.769 -52.178)" fill="#45ade4"/>
      <path id="Path_1548" data-name="Path 1548" d="M-78.154,175.782-319.76,43.741l-51.194,27.827,234.313,137.606Z" transform="translate(374.898 -43.491)" fill="#76c7f1"/>
      <path id="Path_1553" data-name="Path 1553" d="M-61.454,202.877l-53.966,30.616.929,46.545,53.037-30.616Z" transform="translate(359.4 -53.143)" fill="#0f0f0e"/>
      <path id="Path_1559" data-name="Path 1559" d="M-135.2,221.771l-228.752-132.5v37.587L-135.2,257.84Z" transform="translate(374.474 -46.253)" fill="#0f0f0e"/>
      <path id="Path_2782" data-name="Path 2782" d="M-124.14,264.008V231.381l-18.533-10.709v32.506Z" transform="translate(361.053 -54.222)" fill="#181817"/>
      <path id="Path_2783" data-name="Path 2783" d="M-235.738,199.393V167.184l-21.135-12.137v31.638l.259.312Z" transform="translate(367.979 -50.242)" fill="#181817"/>
      <path id="Path_2784" data-name="Path 2784" d="M-214.774,211.8l.042-32.556-9.641-5.537V206.1Z" transform="translate(366.008 -51.374)" fill="#181817"/>
      <path id="Path_1565" data-name="Path 1565" d="M-261.233,152.541l-28-16.116v31.164l28,16.114Z" transform="translate(369.942 -49.113)" fill="#181817"/>
      <path id="Path_1566" data-name="Path 1566" d="M-333.748,110.687l-28.72-16.116v32.107l28.72,15.173Z" transform="translate(374.384 -46.574)" fill="#333335"/>
      <path id="Path_1576" data-name="Path 1576" d="M-293.705,133.863l-36.23-20.987V144.04l36.23,20.987Z" transform="translate(372.41 -47.684)" fill="#333335"/>
      <path id="Path_1581" data-name="Path 1581" d="M-285.343,138.656l-3.885-2.231v24.667l27.993,22.381v-27.8Z" transform="translate(369.942 -49.113)" fill="#181817"/>
      <path id="Path_1582" data-name="Path 1582" d="M-362.468,94.571v9l28.72,22.958v-15.84Z" transform="translate(374.384 -46.574)" fill="#181817"/>
      <path id="Path_1584" data-name="Path 1584" d="M-329.935,112.876V129.1l36.23,28.943V133.863Z" transform="translate(372.41 -47.684)" fill="#181817"/>
      <path id="Path_1593" data-name="Path 1593" d="M-286.763,137.2l-23.719-13.682v64.894l23.719,13.7Z" transform="translate(371.231 -48.33)" fill="#0f0f0e"/>
      <path id="Path_1595" data-name="Path 1595" d="M-287.9,136.746l-21.638-12.491-.948,62.327,22.679,13.7Z" transform="translate(371.231 -48.374)" fill="#181817"/>
      <path id="Path_1554" data-name="Path 1554" d="M-62.4,206.716l-49.93,28.831V275.7l49.93-28.831Z" transform="translate(359.213 -53.376)" fill="#424345"/>
      <path id="Path_1555" data-name="Path 1555" d="M-61.11,241.738l-29.91-17.822,29.91-17.2Z" transform="translate(357.92 -53.376)" fill="#2d2e2e"/>
      <path id="Path_1572" data-name="Path 1572" d="M-112.55,245.662l50.135,4.479-49.93,28.831Z" transform="translate(359.226 -55.738)" fill="#313130"/>
      <rect id="Rectangle_190" data-name="Rectangle 190" width="1.84" height="42.847" transform="translate(273.536 165.683)" fill="#0f0f0e"/>
      <path id="Path_2785" data-name="Path 2785" d="M-300.173,129.378v63.247l1.655,1V130.333Z" transform="translate(370.605 -48.685)" fill="#0f0f0e"/>
      <path id="Path_1556" data-name="Path 1556" d="M-63.025,184.308-121.513,217.7l4.014,12.776L-60.724,198.2Z" transform="translate(359.769 -52.017)" fill="#333"/>
      <path id="Path_1573" data-name="Path 1573" d="M-107.082,287.872l-7.269,4.2V298.3l7.269-4.2Z" transform="translate(359.335 -58.298)" fill="#0d0d0c"/>
      <path id="Path_1574" data-name="Path 1574" d="M-58.4,259.3l-7.269,4.2v6.227l7.269-4.2Z" transform="translate(356.382 -56.565)" fill="#0d0d0c"/>
      <path id="Path_1586" data-name="Path 1586" d="M-58.621,260.246l-1.785,1v4.907l1.785-1.06Z" transform="translate(356.063 -56.623)" fill="#c8c8c9"/>
      <path id="Path_1589" data-name="Path 1589" d="M-111.337,291.2l-2.361,1.357V297.5l2.361-1.394Z" transform="translate(359.295 -58.5)" fill="#c8c8c9"/>
      <g id="Group_4578" data-name="Group 4578" transform="translate(244.777 152.637)">
        <path id="Path_1577" data-name="Path 1577" d="M-73.28,218.649l-7.212,4.034v3.773l7.212-4.034Z" transform="translate(112.504 -206.736)" fill="#0f0f0e"/>
        <path id="Path_1597" data-name="Path 1597" d="M-77.3,216.492l-.558.131,1.246,5.057.558-.148Z" transform="translate(112.344 -206.606)" fill="#0f0f0e"/>
        <path id="Path_1549" data-name="Path 1549" d="M-48.414,207.749a.676.676,0,0,0-.465-.055,1.671,1.671,0,0,0-.188-.167.638.638,0,0,0-.632,0l-1.246.669c-.539-1.618-2.16-2.826-7.176-1.914l-.409.837c4.554-.818,6.134.148,6.692,1.561l-2.045,1.115a1.212,1.212,0,0,0-.632,1.06V222.3a.575.575,0,0,0,.316.52.676.676,0,0,0,.465.055,1.671,1.671,0,0,0,.188.167.638.638,0,0,0,.632,0l4.276-2.324a1.066,1.066,0,0,0,.558-.911v-11.54A.657.657,0,0,0-48.414,207.749Z" transform="translate(111.172 -205.967)" fill="#181817"/>
        <path id="Path_1549-2" data-name="Path 1549" d="M-104.456,238.365a.676.676,0,0,0-.465-.055,1.671,1.671,0,0,0-.188-.167.638.638,0,0,0-.632,0l-1.246.669c-.539-1.618-2.16-2.826-7.176-1.914l-.409.837c4.554-.818,6.134.148,6.692,1.561l-2.045,1.115a1.212,1.212,0,0,0-.632,1.06v11.448a.573.573,0,0,0,.316.52.676.676,0,0,0,.465.055,1.67,1.67,0,0,0,.188.167.638.638,0,0,0,.632,0l4.276-2.324a1.068,1.068,0,0,0,.558-.911v-11.54A.66.66,0,0,0-104.456,238.365Z" transform="translate(114.571 -207.824)" fill="#181817"/>
      </g>
      <path id="Path_1556-2" data-name="Path 1556" d="M-64.676,187.176l-50.744,28.757,3.258,10.37,49.353-27.85Z" transform="translate(359.4 -52.191)" fill="#ee7111"/>
      <path id="Path_2786" data-name="Path 2786" d="M-155.2,245.17V213.882l-35.47-20.7v31.266Z" transform="translate(363.964 -52.555)" fill="#181817"/>
      <path id="Path_2787" data-name="Path 2787" d="M-61.394,252.427l-53.037,30.616s8.371-1.726,13.165-1l30.351-17C-68.53,260.2-61.394,252.427-61.394,252.427Z" transform="translate(359.34 -56.148)" fill="#0f0f0e"/>
    </g>
    <g id="Group_4580" data-name="Group 4580" transform="translate(-196.248 184.906)">
      <path id="Path_1568" data-name="Path 1568" d="M-161,209.618l-23.7-13.7v62.459l23.7,13.684Z" transform="translate(184.697 -194.152)" fill="#0f0f0e"/>
      <path id="Path_1578" data-name="Path 1578" d="M-162.07,206.548l-21.638-12.51.188,57.663,21.638,12.493Z" transform="translate(184.637 -194.038)" fill="#181817"/>
    </g>
  </g>
</svg>
