<?xml version="1.0" encoding="utf-8"?>
<!-- Generator: Adobe Illustrator 25.0.0, SVG Export Plug-In . SVG Version: 6.00 Build 0)  -->
<svg version="1.1" id="Layer_1" xmlns="http://www.w3.org/2000/svg" xmlns:xlink="http://www.w3.org/1999/xlink" x="0px" y="0px"
	 viewBox="0 0 180.3 146.8" style="enable-background:new 0 0 180.3 146.8;" xml:space="preserve">
<style type="text/css">
	.st0{fill:#E5E4E4;}
	.st1{fill:#AEAEAD;}
	.st2{fill:#C9C9C9;}
	.st3{fill:#878189;}
	.st4{fill:#7C7C7B;}
	.st5{fill:#818180;}
	.st6{fill:#CDCBCF;}
	.st7{fill:#706E71;}
	.st8{fill:#929191;}
	.st9{fill:#B2AEB4;}
	.st10{fill:#E3E2E2;}
</style>
<g id="Group_4248" transform="translate(-521 -537.999)">
	<g id="Group_4245" transform="translate(99.705 -98.68)">
		<path id="Path_559" class="st0" d="M546.7,665.6l-49.2-28.2l-46.3,26l49.1,28.8L546.7,665.6z"/>
		<path id="Path_563" class="st1" d="M546.7,665.6l-46.4,26.6l9.5,37.8l57.1-32.9L546.7,665.6z"/>
		<path id="Path_564" class="st2" d="M546.6,670.3l-42.6,25l8.6,31.9l51.4-29.9L546.6,670.3z"/>
		<path id="Path_566" class="st1" d="M565,693.8l-56.1,32.8l2.5,10.7l59.6-36.1L565,693.8z"/>
		<path id="Path_567" class="st3" d="M524,742.6l-14.3,7.1l1.5,11.7l16.4-9.5L524,742.6z"/>
		<path id="Path_568" class="st4" d="M540.6,771.9c0-7-5-15.6-11.1-19.2c-1.9-1.3-4.3-1.8-6.5-1.3c-0.4,0.1-6.4,3.4-6.5,3.5
			c-1.7,1.3-2.5,3.5-2.5,6.6c0,7,5,15.6,11.1,19.2c2,1.4,4.5,1.8,6.9,1.2c0.6-0.2,6.2-3.1,7.2-4.7
			C540.1,775.6,540.6,773.8,540.6,771.9z"/>
		<path id="Path_569" class="st5" d="M512.7,762.2c0,7,5,15.6,11.1,19.2s11.1,0.7,11.1-6.3c0-7-5-15.6-11.1-19.2
			S512.7,755.1,512.7,762.2z"/>
		<path id="Path_570" class="st6" d="M523.8,759.6c-4.3-2.5-7.9-0.5-7.9,4.5c0.3,5.5,3.2,10.5,7.9,13.6c4.3,2.5,7.9,0.5,7.9-4.5
			C531.3,767.6,528.4,762.6,523.8,759.6z M524,776.4c-4.2-2.7-6.9-7.3-7.2-12.3c0-4.5,3.2-6.4,7.2-4.1c4.2,2.7,6.9,7.3,7.2,12.3
			C531.1,776.9,527.9,778.7,524,776.4L524,776.4z"/>
		<path id="Path_582" class="st3" d="M439.8,687.4l-14.3,7.1l1.3,11.7l16.6-9.5L439.8,687.4z"/>
		<path id="Path_583" class="st4" d="M454.4,723.3c0-7-5-15.6-11.1-19.2c-1.9-1.3-4.3-1.8-6.5-1.3c-0.4,0.1-6.4,3.4-6.5,3.5
			c-1.7,1.3-2.5,3.5-2.5,6.6c0,7,5,15.6,11.1,19.2c2,1.4,4.5,1.8,6.9,1.2c0.6-0.2,6.2-3.1,7.2-4.7
			C454,727.1,454.5,725.2,454.4,723.3z"/>
		<path id="Path_584" class="st5" d="M426.6,713.6c0,7,5,15.6,11.1,19.2s11.1,0.7,11.1-6.3s-5-15.6-11.1-19.2
			C431.6,703.7,426.6,706.5,426.6,713.6z"/>
		<path id="Path_585" class="st6" d="M437.7,711c-4.3-2.5-7.9-0.5-7.9,4.5c0.3,5.5,3.2,10.5,7.9,13.6c4.3,2.5,7.9,0.5,7.9-4.5
			C445.3,719,442.3,714,437.7,711z M437.9,727.9c-4.2-2.7-6.9-7.3-7.2-12.3c0-4.5,3.2-6.4,7.2-4.1c4.2,2.7,6.9,7.3,7.2,12.3
			C445,728.3,441.8,730.1,437.9,727.9L437.9,727.9z"/>
		<path id="Path_597" class="st7" d="M602.4,730.8L545,764l-6.2,10.6l57.4-33.2L602.4,730.8z"/>
		<path id="Path_599" class="st8" d="M603.5,722.2l-57.3,33.2l-1.1,8.7l57.3-33.4L603.5,722.2z"/>
		<path id="Path_600" class="st9" d="M603.4,721.5l-58,31.7l0.5,2.6l57.6-33.5L603.4,721.5z"/>
		<path id="Path_601" class="st0" d="M567.8,697.9L509,730l37,24.9l57.4-33.3L567.8,697.9z"/>
		<path id="Path_602" class="st1" d="M420.6,682.7l-1.7,5.8l5.6,16.3l2.3,1.3c1.8-4.7,6.5-6,12-2.8c7,4.1,12.7,13.9,12.7,22
			c0,0.1,0,0.2,0,0.3l0.5,1.6l58.5,33.8l0.7,0.3c-0.1-0.5-0.1-1.1-0.1-1.6c0-8.1,5.7-11.3,12.7-7.3c6.7,3.9,12.2,13.1,12.7,20.9
			l2.3,1.3l6.5-10.8l0.8-8.4L420.6,682.7z"/>
		<path id="Path_612" class="st1" d="M546,754.8l-36-25.4l-86.2-49.2l-3.2,2.5l125.6,72.8L546,754.8z"/>
		<path id="Path_615" class="st1" d="M500.3,692.2l9.5,37.8l-86.1-50l27.5-16.7L500.3,692.2z"/>
		<path id="Path_613" class="st2" d="M498,694.7l-38-22l-20.2,14.6l65.1,38.2l1.2-2.8L498,694.7z"/>
		<path id="Path_620" class="st10" d="M479.1,684l-1.1-0.7l-4.6,24.4l1.2,0.9L479.1,684z"/>
	</g>
</g>
</svg>
