<svg xmlns="http://www.w3.org/2000/svg" width="327.749" height="263.81" viewBox="0 0 327.749 263.81"><defs><style>.a{fill:#7f686c;}.b{fill:#3a3a3a;}.c{fill:#b19ea5;}.d{fill:#525252;}.e{fill:#4a3437;}.f{fill:#bcbec0;}.g{fill:#382528;}.h{fill:#f0d6bf;}.i{fill:#cda982;}.j{fill:#93744e;}.k{fill:#7a6043;}.l{fill:#0f0f0f;}.m{fill:#ddbc9b;}.n{fill:#1e1e1e;}.o{fill:#414042;}.p{fill:#634e39;}.q{fill:#e6cdb6;}.r{fill:#dadada;}.s{fill:#f7d8c1;}</style></defs><path class="a" d="M7.916,53.88,0,57.877v1.84l7.916-4Z" transform="translate(0 52.744)"/><path class="b" d="M19.56,71.044l9.717-4.433L20,64.85Z" transform="translate(19.148 63.483)"/><path class="c" d="M163.069,114.431l-2.949-1.741.515,3.186Z" transform="translate(156.745 110.315)"/><path class="d" d="M108.538,123.023l9.36-5.284L107.43,115.76Z" transform="translate(105.165 113.32)"/><path class="e" d="M130.236,131.678c.059-5.106-3.483-11.379-7.9-13.991-2.315-1.385-4.413-1.464-5.9-.515l.02-.277-5.2,3.166c-1.821.633-2.988,2.533-3.008,5.422-.059,5.106,3.483,11.379,7.9,13.991,2.513,1.484,4.769,1.484,6.253.257l4.947-2.672C129.088,136.349,130.2,134.489,130.236,131.678Z" transform="translate(105.968 114.084)"/><path class="e" d="M127.28,131.68c.059-5.106-3.483-11.379-7.9-13.991-4.413-2.632-8.054-.594-8.114,4.512s3.483,11.379,7.9,13.991S127.22,136.786,127.28,131.68Z" transform="translate(108.924 114.082)"/><path class="e" d="M124.26,133.326c.059-5.106-3.483-11.379-7.9-13.991-4.433-2.612-8.054-.594-8.114,4.512s3.483,11.379,7.9,13.991S124.2,138.432,124.26,133.326Z" transform="translate(105.968 115.701)"/><path class="e" d="M114.97,131.573l6.392-3.443-4.67-2.81Z" transform="translate(112.547 122.678)"/><path class="e" d="M114.852,121.835l-5.482-1.5,6-3.621Z" transform="translate(107.065 114.25)"/><path class="f" d="M120.391,130.633a12.51,12.51,0,0,0-5.541-9.835c-3.107-1.84-5.66-.416-5.7,3.166a12.454,12.454,0,0,0,5.561,9.835C117.8,135.62,120.351,134.215,120.391,130.633Z" transform="translate(106.849 117.464)"/><path class="g" d="M120.93,117.677c-2.315-1.385-4.413-1.464-5.9-.515l.02-.277-5.2,3.166a1.37,1.37,0,0,0-.158.059c4.136-2.058,17.137,8.905,12.21,19.116l4.037-2.177c1.741-.673,2.85-2.553,2.889-5.363C128.886,126.563,125.343,120.309,120.93,117.677Z" transform="translate(107.378 114.074)"/><path class="e" d="M41.846,80.215c.059-5.106-3.483-11.379-7.9-13.991-2.315-1.365-4.413-1.464-5.9-.515l.02-.277-5.2,3.166c-1.821.633-2.988,2.533-3.028,5.422-.059,5.106,3.483,11.379,7.916,13.991,2.513,1.484,4.769,1.484,6.253.257L38.957,85.6C40.7,84.905,41.826,83.025,41.846,80.215Z" transform="translate(19.421 63.712)"/><path class="e" d="M38.88,80.222c.059-5.106-3.483-11.379-7.9-13.991-4.413-2.632-8.054-.613-8.114,4.512-.059,5.106,3.483,11.379,7.9,13.991C35.2,87.346,38.82,85.328,38.88,80.222Z" transform="translate(22.388 63.705)"/><path class="e" d="M35.86,81.876c.059-5.106-3.483-11.379-7.9-13.991-4.433-2.612-8.054-.594-8.114,4.512s3.483,11.379,7.916,13.991C32.179,89,35.8,86.982,35.86,81.876Z" transform="translate(19.431 65.336)"/><path class="e" d="M26.57,80.123l6.412-3.463-4.69-2.79Z" transform="translate(26.01 72.313)"/><path class="e" d="M26.442,70.385l-5.462-1.5,5.976-3.621Z" transform="translate(20.538 63.884)"/><path class="f" d="M31.991,79.173a12.486,12.486,0,0,0-5.541-9.835c-3.107-1.84-5.66-.416-5.7,3.166a12.454,12.454,0,0,0,5.561,9.835C29.4,84.18,31.951,82.775,31.991,79.173Z" transform="translate(20.312 67.089)"/><path class="g" d="M32.53,66.224c-2.315-1.365-4.413-1.464-5.9-.515l.02-.277-5.2,3.166a1.362,1.362,0,0,0-.158.059C25.426,66.6,38.427,77.564,33.5,87.775l4.037-2.2c1.741-.673,2.85-2.553,2.889-5.363C40.486,75.11,36.943,68.856,32.53,66.224Z" transform="translate(20.841 63.712)"/><path class="h" d="M316.35,150.22,56.3,0,1.8,29.624,262.246,180.854Z" transform="translate(1.762)"/><path class="i" d="M170.765,84.008a.724.724,0,0,0-.495-.059,1.786,1.786,0,0,0-.2-.178.68.68,0,0,0-.673,0l-1.326.712c-.574-1.722-2.3-3.008-7.639-2.038l-.435.891c4.848-.871,6.53.158,7.124,1.662l-2.177,1.187a1.291,1.291,0,0,0-.673,1.128V99.5a.612.612,0,0,0,.336.554.724.724,0,0,0,.495.059,1.781,1.781,0,0,0,.2.178.68.68,0,0,0,.673,0l4.552-2.474a1.135,1.135,0,0,0,.594-.97V84.562A.7.7,0,0,0,170.765,84.008Z" transform="translate(156.627 80.381)"/><path class="j" d="M189.227,76.74l-56.459,31.089-2.038,63.8,2.038,16.148,56.459-31.623Z" transform="translate(127.974 75.122)"/><path class="k" d="M188.219,80.82,131.76,113.433v53.411l56.459-32.593Z" transform="translate(128.983 79.116)"/><path class="j" d="M190.537,113.56,132.06,147.32v5.323l58.477-33.76Z" transform="translate(129.276 111.166)"/><path class="l" d="M188.7,80.55,131.25,113.143l.989,49.394L188.7,129.944Z" transform="translate(128.483 78.852)"/><path class="d" d="M185.964,82.49,132.81,113.183v44.09l53.154-30.693Z" transform="translate(130.011 80.751)"/><path class="b" d="M175.421,119.773,143.58,100.8,175.421,82.49Z" transform="translate(140.553 80.751)"/><path class="i" d="M188.344,75.83,134.2,106.4l-1.821,10.943,56.459-32.593Z" transform="translate(129.59 74.232)"/><path class="k" d="M47.262,110.4c5.125,2.77,7.005,8.311,7.639,12.8l158.67,91.6c.633-3.76,3.661-5.482,7.48-3.364,6.55,3.621,8.628,8.49,9.261,12.982l29.921,17.316V223.081l-4.057-61.643L.5,21.35.619,91.859,38.5,113.627C39.109,109.867,42.315,107.73,47.262,110.4Z" transform="translate(0.489 20.9)"/><path class="i" d="M260.292,218.814v-4.532l-1.939-36.016L.44,27.71V68.634l109.078,63.048,21.234,12.269Z" transform="translate(0.431 27.126)"/><path class="l" d="M255.182,167.7,5.66,23.65V63.664L110.7,124.278l18.424,21.174,126.057,72.785Z" transform="translate(5.541 23.151)"/><path class="m" d="M191.066,113.834l-2.573-.534L131.56,146.17l1.8.989Z" transform="translate(128.787 110.912)"/><path class="m" d="M136.584,130.3l-3.542-.059-1.524-.851-1.148.673,3.364,1.86Z" transform="translate(127.622 126.663)"/><path class="k" d="M133.7,131.3l-3.542-1.464.653,5.165,3.542,1.445Z" transform="translate(127.416 127.103)"/><path class="n" d="M140.09,102.769l-19.73-11.4v45.278l19.73,11.4Z" transform="translate(117.823 89.444)"/><path class="n" d="M102.534,80.938,59.77,56.38V90.061l16.781,20.165,25.924,15.831Z" transform="translate(58.51 55.192)"/><path class="n" d="M73.223,64.127,43.42,46.97V81.146L73.223,98.3Z" transform="translate(42.505 45.98)"/><path class="o" d="M36.984,42.977,6.41,25.82V60L36.984,77.153Z" transform="translate(6.275 25.276)"/><path class="i" d="M3.023,14.86,264.1,165.594l-2.632,12.823L.53,27.683Z" transform="translate(0.519 14.547)"/><path class="l" d="M106.931,84.925,81.7,70.34v66.492L106.931,151.4Z" transform="translate(79.978 68.857)"/><path class="p" d="M39.262,78.747,0,55.91v1.761L38.965,80.33A9.01,9.01,0,0,1,39.262,78.747Z" transform="translate(0 54.731)"/><path class="k" d="M116.42,123.4a17.062,17.062,0,0,1,.3,1.939l30.594,17.632V141.21Z" transform="translate(113.966 120.799)"/><path class="q" d="M137.571,100.879l-.891,6.056,39.6-22.857-.515-4.848Z" transform="translate(133.799 77.56)"/><path class="n" d="M132.7,113l53.372-8.232-53.154,30.693Z" transform="translate(129.903 102.562)"/><rect class="l" width="1.959" height="45.614" transform="translate(291.198 176.381)"/><path class="e" d="M139.528,123.5l-7.738,4.472V134.6l7.738-4.472Z" transform="translate(129.012 120.897)"/><path class="e" d="M164.128,109.06l-7.738,4.472v6.629l7.738-4.472Z" transform="translate(153.093 106.761)"/><path class="n" d="M94.74,121.938,143.5,149.979V104.7L94.74,76.66Z" transform="translate(92.743 75.044)"/><path class="o" d="M61.419,57.412,22.85,35.07V69.246L61.419,91.588Z" transform="translate(22.368 34.331)"/><path class="l" d="M156.578,88.52,148.9,92.814v4.017l7.678-4.294Z" transform="translate(145.761 86.654)"/><path class="n" d="M105.235,82.708,82.2,69.39l.2,61.386,23.035,13.3Z" transform="translate(80.467 67.927)"/><path class="n" d="M140.09,138.639V114.892L120.36,100.98v26.26Z" transform="translate(117.823 98.851)"/><path class="n" d="M59.77,58.23V88.052l42.705,34.136.059-33.8Z" transform="translate(58.51 57.003)"/><path class="n" d="M47.556,49.345,43.42,46.97V73.23l29.8,23.826v-29.6Z" transform="translate(42.505 45.98)"/><path class="n" d="M6.41,25.82V35.4l30.574,24.44V42.977Z" transform="translate(6.275 25.276)"/><path class="n" d="M143.5,143.871V117.294L94.74,82.9v32.929Z" transform="translate(92.743 81.153)"/><path class="n" d="M22.85,35.07V52.346L61.419,83.158V57.412Z" transform="translate(22.368 34.331)"/><path class="n" d="M82.22,74.07l.1,34.057,23.054,18.424-.119-36.234Z" transform="translate(80.487 72.509)"/><rect class="l" width="1.425" height="63.721" transform="translate(173.314 143.393)"/><path class="r" d="M160.95,109.54l-1.9,1.069v5.224l1.9-1.128Z" transform="translate(155.697 107.231)"/><g transform="translate(3.404 29.15)"><path class="s" d="M2.393,14.73l-.613.237-.059.752L40.111,37.883V36.5Z" transform="translate(-1.72 -14.73)"/><path class="s" d="M243.59,154.162,21.12,25.73v1.385L243.59,155.567Z" transform="translate(17.271 -3.962)"/></g><path class="r" d="M134.633,125.18l-2.513,1.445v5.264l2.513-1.484Z" transform="translate(129.335 122.541)"/><path class="o" d="M131.75,102.761a.756.756,0,0,0-.356-.633.706.706,0,0,0-.712,0l-4.769,2.731a1.439,1.439,0,0,0-.732,1.267v13.753a.756.756,0,0,0,.356.633.663.663,0,0,0,.712,0l4.868-2.77a1.232,1.232,0,0,0,.633-1.088V102.761Z" transform="translate(122.541 99.88)"/><path class="i" d="M132.12,102.9a.756.756,0,0,0-.356-.633.663.663,0,0,0-.712,0L126.282,105a1.439,1.439,0,0,0-.732,1.267v13.753a.756.756,0,0,0,.356.633.663.663,0,0,0,.712,0l4.868-2.771a1.232,1.232,0,0,0,.633-1.088V102.9Z" transform="translate(122.904 100.014)"/><g transform="translate(250.828 195.399)"><path class="o" d="M127.561,109.644h-.811v-.237c0-2.889-.02-6.847,6.946-10.666l.4.712c-6.55,3.6-6.53,7.144-6.53,9.974Z" transform="translate(-126.75 -98.74)"/></g><path class="l" d="M57.931,55.015,32.68,40.45v69.084l25.251,14.585Z" transform="translate(31.991 39.597)"/><path class="o" d="M56.225,54.118,33.19,40.82l.2,61.366,23.035,13.3Z" transform="translate(32.49 39.96)"/><path class="n" d="M56.225,54.118,33.19,40.82l.079,22.223L56.324,81.368Z" transform="translate(32.49 39.96)"/><rect class="l" width="1.425" height="63.721" transform="translate(76.307 86.835)"/><path class="p" d="M187,164.22,27.84,72.2a17.063,17.063,0,0,1,.3,1.939l158.571,91.683A6.416,6.416,0,0,1,187,164.22Z" transform="translate(27.253 70.678)"/><path class="l" d="M150.824,87.43l-.594.139,1.326,5.383.594-.158Z" transform="translate(147.063 85.587)"/></svg>