<svg xmlns="http://www.w3.org/2000/svg" width="326" height="314.192" viewBox="0 0 326 314.192"><defs><style>.a{fill:#6b5459;}.b{fill:#3a3a3a;}.c{fill:#a18c94;}.d{fill:#525252;}.e{fill:#392629;}.f{fill:#aeb0b3;}.g{fill:#2a1b1e;}.h{fill:#0f0f0f;}.i{fill:#82603c;}.j{fill:#684c32;}.k{fill:#1e1e1e;}.l{fill:#c4976d;}.m{fill:#d7ad88;}.n{fill:#313133;}.o{fill:#513c2a;}.p{fill:#dadada;}.q{fill:#edccb1;}</style></defs><g transform="translate(-268.212 -172.299)"><path class="a" d="M276.086,252.486l-7.874,3.981v1.824l7.874-3.984Z" transform="translate(0 77.657)"/><path class="b" d="M287.769,269.615l9.675-4.4-9.24-1.753Z" transform="translate(18.941 88.284)"/><path class="c" d="M431.269,313.031l-2.935-1.738.5,3.171Z" transform="translate(155.071 134.609)"/><path class="d" d="M376.746,321.577l9.307-5.255-10.41-1.953Z" transform="translate(104.042 137.588)"/><path class="e" d="M398.338,330.2c.059-5.082-3.462-11.315-7.862-13.923-2.305-1.368-4.394-1.462-5.87-.518l.027-.28-5.175,3.148c-1.8.628-2.968,2.516-3,5.386-.057,5.081,3.464,11.317,7.862,13.925,2.5,1.478,4.738,1.472,6.222.264l4.929-2.663C397.194,334.866,398.306,333,398.338,330.2Z" transform="translate(104.829 138.333)"/><path class="e" d="M395.412,330.2c.059-5.082-3.462-11.315-7.862-13.923s-8.016-.6-8.073,4.48,3.461,11.319,7.864,13.923S395.355,335.286,395.412,330.2Z" transform="translate(107.755 138.332)"/><path class="e" d="M392.391,331.859c.057-5.082-3.462-11.317-7.862-13.927s-8.014-.6-8.073,4.482,3.464,11.317,7.862,13.925S392.334,336.94,392.391,331.859Z" transform="translate(104.829 139.934)"/><path class="e" d="M383.181,330.15l6.367-3.439-4.66-2.786Z" transform="translate(111.343 146.843)"/><path class="e" d="M383.021,320.418l-5.434-1.49,5.953-3.615Z" transform="translate(105.924 138.502)"/><path class="f" d="M388.546,329.18a12.411,12.411,0,0,0-5.521-9.783c-3.089-1.831-5.628-.421-5.671,3.15a12.394,12.394,0,0,0,5.521,9.775C385.965,334.154,388.507,332.747,388.546,329.18Z" transform="translate(105.698 141.68)"/><path class="g" d="M389.08,316.28c-2.305-1.368-4.394-1.462-5.87-.518l.027-.28-5.175,3.148a1.448,1.448,0,0,0-.165.065c4.116-2.053,17.053,8.854,12.153,19.019l4.024-2.173c1.724-.675,2.837-2.541,2.868-5.338C397,325.12,393.479,318.888,389.08,316.28Z" transform="translate(106.225 138.333)"/><path class="e" d="M309.94,278.749c.057-5.083-3.462-11.313-7.862-13.923-2.305-1.366-4.4-1.463-5.87-.518l.028-.28-5.175,3.144c-1.8.632-2.97,2.522-3,5.392-.057,5.081,3.464,11.315,7.864,13.923,2.494,1.478,4.738,1.472,6.22.264l4.931-2.665C308.8,283.41,309.908,281.546,309.94,278.749Z" transform="translate(19.218 88.503)"/><path class="e" d="M307.013,278.75c.057-5.083-3.462-11.313-7.862-13.923s-8.016-.6-8.073,4.48,3.462,11.317,7.862,13.925S306.956,283.833,307.013,278.75Z" transform="translate(22.145 88.502)"/><path class="e" d="M303.993,280.406c.057-5.084-3.463-11.317-7.862-13.925s-8.015-.6-8.075,4.482,3.464,11.315,7.864,13.923S303.936,285.484,303.993,280.406Z" transform="translate(19.218 90.105)"/><path class="e" d="M294.783,278.7l6.366-3.44-4.658-2.787Z" transform="translate(25.733 97.012)"/><path class="e" d="M294.621,268.965l-5.434-1.489,5.951-3.616Z" transform="translate(20.314 88.673)"/><path class="f" d="M300.147,277.723a12.41,12.41,0,0,0-5.52-9.779c-3.09-1.831-5.632-.419-5.673,3.148a12.4,12.4,0,0,0,5.521,9.777C297.566,282.7,300.107,281.291,300.147,277.723Z" transform="translate(20.088 91.851)"/><path class="g" d="M300.681,264.826c-2.305-1.366-4.4-1.463-5.87-.518l.028-.28-5.175,3.144c-.057.02-.11.045-.165.069,4.116-2.053,17.055,8.854,12.153,19.019l4.023-2.175c1.724-.675,2.837-2.539,2.868-5.336C308.6,273.667,305.08,267.436,300.681,264.826Z" transform="translate(20.615 88.503)"/><path class="h" d="M438.923,282.6a.7.7,0,0,0-.492-.065.657.657,0,0,0-.195-.171.7.7,0,0,0-.667,0l-1.321.713c-.561-1.711-2.289-2.984-7.6-2.031l-.439.89c4.819-.866,6.5.152,7.082,1.656l-2.165,1.173a1.279,1.279,0,0,0-.677,1.114V298a.625.625,0,0,0,.335.549.693.693,0,0,0,.492.069.6.6,0,0,0,.195.169.706.706,0,0,0,.671,0l4.527-2.451a1.1,1.1,0,0,0,.585-.959V283.154A.628.628,0,0,0,438.923,282.6Z" transform="translate(154.954 105)"/><path class="i" d="M457.12,247.289,400.146,278.4l-1.2,118.5,2.01,16.064L457.12,381.5Z" transform="translate(126.61 72.624)"/><path class="j" d="M456.131,279.428l-56.164,32.428V364.99l56.164-32.427Z" transform="translate(127.599 103.75)"/><path class="i" d="M458.445,312.163l-58.173,33.58v5.3l58.173-33.583Z" transform="translate(127.894 135.451)"/><path class="h" d="M456.6,250.351l-57.14,32.424.975,105.838L456.6,356.187Z" transform="translate(127.111 75.589)"/><path class="d" d="M453.9,281.1l-52.879,30.532v43.854L453.9,324.954Z" transform="translate(128.62 105.366)"/><path class="d" d="M453.9,252.166,401.021,282.7v33.931L453.9,286.1Z" transform="translate(128.62 77.347)"/><path class="k" d="M440.368,275.549l-34.74,20.029v11.395l34.74-20.026Z" transform="translate(133.082 99.992)"/><path class="b" d="M443.468,318.188,411.793,299.3,443.468,281.1Z" transform="translate(139.052 105.366)"/><path class="j" d="M315.238,308.546c5.1,2.756,6.97,8.275,7.6,12.736L480.677,412.41c.63-3.734,3.646-5.449,7.435-3.35,6.508,3.6,8.577,8.451,9.208,12.909L527.081,439.2V420.636L523.04,359.32,268.708,219.954l.116,70.142L306.5,311.747C307.128,308.013,310.3,305.875,315.238,308.546Z" transform="translate(0.481 46.151)"/><path class="l" d="M527.136,416.409v-4.5L525.2,376.077,268.648,226.317v40.714L377.161,329.74l21.109,12.2Z" transform="translate(0.422 52.314)"/><path class="l" d="M527.128,401.611v-4.5l-.722-59.418L268.64,187.268v64.965l108.513,62.709,21.109,12.2Z" transform="translate(0.415 14.497)"/><path class="h" d="M522.079,365.533,273.873,222.251v39.8l104.476,60.3,18.324,21.063,125.406,72.4Z" transform="translate(5.483 48.376)"/><path class="m" d="M458.958,312.439l-2.568-.535L399.776,344.6l1.791.994Z" transform="translate(127.414 135.201)"/><path class="m" d="M404.77,328.894l-3.523-.05L399.728,328l-1.147.663,3.338,1.857Z" transform="translate(126.257 150.788)"/><path class="j" d="M401.891,329.888l-3.524-1.439.667,5.138,3.524,1.436Z" transform="translate(126.049 151.224)"/><path class="k" d="M408.191,301.318l-19.618-11.345,0,45.037,19.616,11.343Z" transform="translate(116.565 113.962)"/><path class="k" d="M370.53,279.423,327.98,254.985l0,33.511,16.692,20.044,25.794,15.751Z" transform="translate(57.881 80.078)"/><path class="k" d="M341.284,262.644l-29.652-17.073v34l29.652,17.075Z" transform="translate(42.051 70.96)"/><path class="n" d="M305.043,241.5l-30.425-17.08v34L305.043,275.5Z" transform="translate(6.204 50.477)"/><path class="h" d="M526.75,339.728,268.743,192.087v34l258.285,147.8Z" transform="translate(0.515 19.164)"/><path class="l" d="M271.211,213.464l255.6,147.568.242,14.935L268.743,226.212Z" transform="translate(0.515 39.866)"/><path class="h" d="M375.012,283.445l-25.1-14.5v66.124l25.1,14.495Z" transform="translate(79.119 93.601)"/><path class="o" d="M307.266,277.219l-39.054-22.7v1.754l38.767,22.533A7.766,7.766,0,0,1,307.266,277.219Z" transform="translate(0 79.626)"/><path class="j" d="M384.628,322.01a13.316,13.316,0,0,1,.3,1.923l30.424,17.533v-1.754Z" transform="translate(112.744 144.988)"/><path class="k" d="M400.913,311.555l53.093-8.178-52.879,30.529Z" transform="translate(128.514 126.943)"/><path class="b" d="M443.468,283.194l-31.675-12.677,31.675-18.207Z" transform="translate(139.052 77.486)"/><path class="k" d="M400.913,277.583l53.093-8.178-52.879,30.529Z" transform="translate(128.514 94.042)"/><path class="e" d="M407.7,322.1l-7.7,4.444v6.605l7.7-4.443Z" transform="translate(127.628 145.078)"/><path class="e" d="M432.3,307.663l-7.7,4.445v6.606l7.7-4.445Z" transform="translate(151.46 131.094)"/><path class="k" d="M362.95,320.3l48.507,27.892V303.153l-48.507-27.89Z" transform="translate(91.749 99.716)"/><path class="n" d="M329.422,255.89l-38.363-22.215v34l38.363,22.215Z" transform="translate(22.127 59.44)"/><path class="h" d="M424.745,287.126l-7.63,4.27v4l7.63-4.269Z" transform="translate(144.205 111.205)"/><path class="k" d="M373.327,281.23,350.414,268l.2,61.05,22.915,13.228Z" transform="translate(79.609 92.681)"/><path class="k" d="M408.191,337.047V313.424l-19.616-13.84V325.7Z" transform="translate(116.566 123.269)"/><path class="k" d="M327.98,256.832l0,29.668,42.489,33.95.05-33.609Z" transform="translate(57.881 81.866)"/><path class="k" d="M315.752,247.943l-4.119-2.372V271.7l29.652,23.693V265.957Z" transform="translate(42.051 70.96)"/><path class="k" d="M274.618,224.42v9.544l30.425,24.308V241.5Z" transform="translate(6.204 50.477)"/><g transform="translate(276.885 218.514)"><path class="n" d="M303.043,212.857l-30.425-17.08v28.437l30.425,17.079Z" transform="translate(-272.618 -195.777)"/><path class="k" d="M272.618,195.777v9.544l30.425,24.308V212.857Z" transform="translate(-272.618 -195.777)"/></g><g transform="translate(312.356 239.485)"><path class="n" d="M321.062,223.51l-30.425-17.08v28.437l30.425,17.079Z" transform="translate(-290.637 -206.43)"/><path class="k" d="M290.637,206.43v9.544l30.425,24.308V223.51Z" transform="translate(-290.637 -206.43)"/></g><g transform="translate(347.826 260.156)"><path class="n" d="M339.081,234.012l-30.425-17.08v28.437l30.425,17.079Z" transform="translate(-308.657 -216.932)"/><path class="k" d="M308.657,216.932v9.544l30.425,24.308V234.012Z" transform="translate(-308.657 -216.932)"/></g><g transform="translate(383.296 279.647)"><path class="n" d="M357.1,243.913l-30.425-17.08V255.27L357.1,272.349Z" transform="translate(-326.676 -226.833)"/><path class="k" d="M326.676,226.833v9.544L357.1,260.685V243.913Z" transform="translate(-326.676 -226.833)"/></g><g transform="translate(418.767 299.872)"><path class="n" d="M375.12,254.188,344.7,237.108v28.437l30.425,17.079Z" transform="translate(-344.696 -237.108)"/><path class="k" d="M344.7,237.108v9.544l30.425,24.308V254.188Z" transform="translate(-344.696 -237.108)"/></g><g transform="translate(454.237 320.512)"><path class="n" d="M393.14,264.673l-30.425-17.08V276.03l30.425,17.079Z" transform="translate(-362.715 -247.593)"/><path class="k" d="M362.715,247.593v9.544l30.425,24.308V264.673Z" transform="translate(-362.715 -247.593)"/></g><g transform="translate(489.707 341.461)"><path class="n" d="M411.159,275.315l-30.425-17.08v28.437l30.425,17.079Z" transform="translate(-380.734 -258.235)"/><path class="k" d="M380.734,258.235v9.544l30.425,24.308V275.315Z" transform="translate(-380.734 -258.235)"/></g><path class="k" d="M411.457,342.146v-26.42L362.95,281.5v32.749Z" transform="translate(91.749 105.76)"/><path class="k" d="M291.059,233.675v17.186l38.363,30.652V255.89Z" transform="translate(22.127 59.44)"/><path class="k" d="M350.429,272.671l.108,33.889,22.93,18.324-.114-36.038Z" transform="translate(79.624 97.205)"/><rect class="h" width="1.424" height="63.385" transform="translate(440.6 366.706)"/><path class="p" d="M429.147,308.145l-1.881,1.061V314.4l1.89-1.123Z" transform="translate(154.036 131.561)"/><path class="p" d="M402.826,323.789l-2.493,1.428v5.242l2.493-1.486Z" transform="translate(127.953 146.711)"/><path class="n" d="M399.924,301.361a.722.722,0,0,0-.356-.622.73.73,0,0,0-.719,0l-4.738,2.709a1.439,1.439,0,0,0-.724,1.25v13.673a.716.716,0,0,0,1.073.622l4.839-2.764a1.239,1.239,0,0,0,.626-1.079Z" transform="translate(121.226 124.295)"/><path class="h" d="M400.3,301.5a.721.721,0,0,0-1.077-.624l-4.736,2.709a1.438,1.438,0,0,0-.726,1.25V318.5a.718.718,0,0,0,1.075.624l4.836-2.764a1.241,1.241,0,0,0,.628-1.079Z" transform="translate(121.588 124.427)"/><g transform="translate(517.715 418.432)"><path class="n" d="M395.766,308.2h-.8l0-.24c0-2.872-.012-6.807,6.913-10.62l.386.7c-6.51,3.585-6.5,7.1-6.5,9.917Z" transform="translate(-394.963 -297.338)"/></g><path class="h" d="M326,253.548l-25.106-14.493v68.724l25.1,14.5Z" transform="translate(31.652 64.65)"/><path class="n" d="M324.316,252.655,301.4,239.426l.2,61.048L324.513,313.7Z" transform="translate(32.142 65.009)"/><path class="k" d="M324.316,252.655,301.4,239.426l.072,22.1L324.4,279.753Z" transform="translate(32.142 65.009)"/><rect class="h" width="1.425" height="63.385" transform="translate(344.12 310.459)"/><path class="o" d="M454.374,362.34,296.049,270.8a13.952,13.952,0,0,1,.291,1.923l157.738,91.2A7.432,7.432,0,0,1,454.374,362.34Z" transform="translate(26.959 95.39)"/><path class="h" d="M419.026,286.034l-.583.141,1.313,5.346.585-.141Z" transform="translate(145.492 110.146)"/><path class="q" d="M583.013,319.762,322.878,172.3,268.66,201.765,526.14,352.187Z" transform="translate(0.434 0)"/></g></svg>