<svg xmlns="http://www.w3.org/2000/svg" xmlns:xlink="http://www.w3.org/1999/xlink" width="826.491" height="543.139" viewBox="0 0 826.491 543.139">
  <defs>
    <linearGradient id="linear-gradient" x1="-4.297" y1="2.482" x2="-4.298" y2="2.48" gradientUnits="objectBoundingBox">
      <stop offset="0" stop-color="#83a0a5"/>
      <stop offset="1" stop-color="#5d7277"/>
    </linearGradient>
    <linearGradient id="linear-gradient-2" x1="-18.479" y1="5.402" x2="-18.489" y2="5.391" gradientUnits="objectBoundingBox">
      <stop offset="0" stop-color="#47494a"/>
      <stop offset="0.512" stop-color="#7e7d7d"/>
      <stop offset="0.606" stop-color="#797978"/>
      <stop offset="0.723" stop-color="#6b6b6a"/>
      <stop offset="0.853" stop-color="#565757"/>
      <stop offset="0.991" stop-color="#3e4040"/>
      <stop offset="1" stop-color="#3c3e3e"/>
    </linearGradient>
    <linearGradient id="linear-gradient-3" y1="0.5" x2="1.157" y2="0.5" gradientUnits="objectBoundingBox">
      <stop offset="0" stop-color="#d30d1b"/>
      <stop offset="0.374" stop-color="#c30b16"/>
      <stop offset="1" stop-color="#b41821"/>
    </linearGradient>
    <linearGradient id="linear-gradient-5" x1="-12.058" y1="6.958" x2="-12.056" y2="6.941" gradientUnits="objectBoundingBox">
      <stop offset="0" stop-color="#1e2224"/>
      <stop offset="1" stop-color="#1b1f21"/>
    </linearGradient>
    <linearGradient id="linear-gradient-6" x1="-4.643" y1="3.593" x2="-4.643" y2="3.586" xlink:href="#linear-gradient-5"/>
    <linearGradient id="linear-gradient-7" x1="-40.804" y1="6.987" x2="-40.783" y2="6.954" xlink:href="#linear-gradient-5"/>
    <linearGradient id="linear-gradient-8" x1="-145.499" y1="6.282" x2="-147.157" y2="6.261" gradientUnits="objectBoundingBox">
      <stop offset="0" stop-color="#71888c"/>
      <stop offset="1" stop-color="#5d7277"/>
    </linearGradient>
    <linearGradient id="linear-gradient-9" x1="-36.374" y1="7.923" x2="-36.352" y2="7.89" xlink:href="#linear-gradient-5"/>
    <linearGradient id="linear-gradient-10" x1="-50.007" y1="7.381" x2="-51.665" y2="7.36" xlink:href="#linear-gradient-8"/>
    <linearGradient id="linear-gradient-11" x1="0.551" y1="0.346" x2="0.444" y2="0.653" gradientUnits="objectBoundingBox">
      <stop offset="0" stop-color="#bececf"/>
      <stop offset="0.038" stop-color="#c8d6d6"/>
      <stop offset="0.132" stop-color="#dae4e5"/>
      <stop offset="0.24" stop-color="#e8eff0"/>
      <stop offset="0.372" stop-color="#f0f7f8"/>
      <stop offset="0.6" stop-color="#f3fafb"/>
      <stop offset="0.619" stop-color="#ecf2f3"/>
      <stop offset="0.692" stop-color="#d7e1e2"/>
      <stop offset="0.772" stop-color="#c8d6d7"/>
      <stop offset="0.865" stop-color="#c0d0d0"/>
      <stop offset="1" stop-color="#becece"/>
    </linearGradient>
    <linearGradient id="linear-gradient-34" x1="-4.496" y1="1.62" x2="-4.497" y2="1.618" xlink:href="#linear-gradient"/>
    <linearGradient id="linear-gradient-38" x1="-14.77" y1="5.314" x2="-14.769" y2="5.296" xlink:href="#linear-gradient-5"/>
    <linearGradient id="linear-gradient-39" x1="-5.749" y1="2.718" x2="-5.749" y2="2.711" xlink:href="#linear-gradient-5"/>
    <linearGradient id="linear-gradient-40" x1="-49.356" y1="5.179" x2="-49.335" y2="5.146" xlink:href="#linear-gradient-5"/>
    <linearGradient id="linear-gradient-41" x1="-329.447" y1="4.166" x2="-331.105" y2="4.145" xlink:href="#linear-gradient-8"/>
    <linearGradient id="linear-gradient-42" x1="-44.914" y1="6.116" x2="-44.893" y2="6.083" xlink:href="#linear-gradient-5"/>
    <linearGradient id="linear-gradient-43" x1="-233.993" y1="5.264" x2="-235.65" y2="5.244" xlink:href="#linear-gradient-8"/>
    <linearGradient id="linear-gradient-44" y1="0.5" x2="1" y2="0.5" gradientUnits="objectBoundingBox">
      <stop offset="0" stop-color="#d30d1b"/>
      <stop offset="1" stop-color="#9a191b"/>
    </linearGradient>
    <linearGradient id="linear-gradient-45" x1="-18.582" y1="2.114" x2="-18.579" y2="2.106" gradientUnits="objectBoundingBox">
      <stop offset="0" stop-color="#eb7079"/>
      <stop offset="0.374" stop-color="#c30b16"/>
      <stop offset="1" stop-color="#ff111f"/>
    </linearGradient>
    <linearGradient id="linear-gradient-46" x1="-25.879" y1="3.093" x2="-25.886" y2="3.102" xlink:href="#linear-gradient-5"/>
    <clipPath id="clip-path">
      <path id="SVGID" d="M471.034,310.651a2.9,2.9,0,0,0,1.389-2.971L465.5,266.537a2.361,2.361,0,0,0-2.329-2.052c-3.463-.043-9.3,2.138-15.56,5.771-10.3,5.942-18.316,13.614-19.854,18.766a5.6,5.6,0,0,0-.107,2.457L434,327.749a2.875,2.875,0,0,0,4.275,1.988Z" fill="none"/>
    </clipPath>
    <linearGradient id="linear-gradient-47" x1="-29.832" y1="6.758" x2="-29.835" y2="6.772" gradientUnits="objectBoundingBox">
      <stop offset="0" stop-color="#272e30"/>
      <stop offset="1" stop-color="#272e2f"/>
    </linearGradient>
    <clipPath id="clip-path-2">
      <path id="SVGID-2" data-name="SVGID" d="M471.034,310.651a2.9,2.9,0,0,0,1.389-2.971L465.5,266.537a2.361,2.361,0,0,0-2.329-2.052c-3.463-.043-9.3,2.138-15.56,5.771-10.3,5.942-18.316,13.614-19.854,18.766a5.6,5.6,0,0,0-.107,2.457L434,327.749a2.875,2.875,0,0,0,4.275,1.988Z" fill="none" stroke="#004495" stroke-miterlimit="10" stroke-width="0.843"/>
    </clipPath>
  </defs>
  <g id="组_4446" data-name="组 4446" transform="translate(343.85 187.015)">
    <g id="组_4685" data-name="组 4685" transform="translate(-374 -216)">
      <g id="Group_4057" data-name="Group 4057">
        <path id="Path_1796" data-name="Path 1796" d="M213.154,224.536,32.888,119.788l.025,8.949L213.154,233.484Z" fill="#333536"/>
        <path id="Path_1797" data-name="Path 1797" d="M210.391,166.94,30.15,62.192l.076,59.117L210.492,226.082Z" fill="url(#linear-gradient)"/>
        <path id="Path_1799" data-name="Path 1799" d="M261.041,196.878l-.076-59.142c-.025-8.011-12.675-4.741-25.3,2.56-12.65,7.3-25.274,18.607-25.249,26.618l.076,59.142,2.662-1.546v8.974l45.276-26.132-.051-8.949Z" fill="#9bafb0"/>
        <path id="Path_1800" data-name="Path 1800" d="M261.041,196.879,213.23,167.6l-2.814,7.4.076,51.081,2.662-1.546v8.949l45.276-26.111-.051-8.949Z" fill="#64797d" opacity="0.3" style="isolation: isolate"/>
      </g>
      <g id="Group_4058" data-name="Group 4058">
        <path id="Path_1801" data-name="Path 1801" d="M264.438,197.358,213.23,167.6l-.025,55.26,51.233,29.711Z" fill="#333536"/>
        <path id="Path_1802" data-name="Path 1802" d="M264.438,140.043l-5.8-3.372c-3.777-2.205-12.8.837-21.827,6.033-11.811,6.82-23.626,17.387-23.6,24.9l51.208,29.761V140.043Z" fill="url(#linear-gradient-2)"/>
      </g>
      <g id="组_4431" data-name="组 4431">
        <path id="路径_2379" data-name="路径 2379" d="M210.416,212.733c-6.629-3.949-14.292-8.57-20.925-12.51q-27.9-16.571-55.8-33.128-36.049-21.4-72.1-42.782C51.274,118.193,30.3,105.642,30.3,105.642s-.154-2.542-.154-5.008c4.318,2.59,10.255,6.231,14.585,8.8q26.091,15.5,52.192,30.98,32.184,19.1,64.371,38.191,24.5,14.536,49,29.069C210.416,210.083,210.416,210.083,210.416,212.733Z" fill="#004495"/>
      </g>
      <path id="路径_2380" data-name="路径 2380" d="M87.952,93.044c-9.381-5.522-16.024-9.758-25.081-15.073a38.861,38.861,0,0,0-2.5,3.913,6.664,6.664,0,0,0-.573,2.624v.015c0,17.378.024,34.756-.03,52.134a4.579,4.579,0,0,0,2.358,4.321c7.517,4.78,14.975,9.651,22.454,14.489h.96A3.958,3.958,0,0,0,86,152.809c.009-18.473.039-36.946-.035-55.418C85.959,95.152,87.868,93.172,87.952,93.044Z" fill="#de141d" style="isolation: isolate"/>
      <g id="组_4432" data-name="组 4432">
        <path id="路径_2381" data-name="路径 2381" d="M86.952,92.044c-9.381-5.522-16.024-9.758-25.081-15.073a38.861,38.861,0,0,0-2.5,3.913,6.664,6.664,0,0,0-.573,2.624v.015c0,17.378.024,34.756-.03,52.134a4.579,4.579,0,0,0,2.358,4.321c7.517,4.78,14.975,9.651,22.454,14.489h.96A3.958,3.958,0,0,0,85,151.809c.009-18.473.039-36.946-.035-55.418C84.959,94.152,86.868,92.172,86.952,92.044Z" fill="url(#linear-gradient-3)"/>
      </g>
      <g id="组_4434" data-name="组 4434">
        <path id="路径_2382" data-name="路径 2382" d="M184.329,149.324c-9.381-5.523-16.025-9.759-25.082-15.073a38.744,38.744,0,0,0-2.5,3.913,6.677,6.677,0,0,0-.573,2.623v.015c0,17.378.025,34.757-.03,52.135a4.576,4.576,0,0,0,2.359,4.32c7.516,4.78,14.974,9.651,22.454,14.49h.96a3.972,3.972,0,0,0,.466-2.659c.008-18.473.038-36.946-.036-55.418C182.335,151.431,184.244,149.451,184.329,149.324Z" fill="#de141d" style="isolation: isolate"/>
        <g id="组_4433" data-name="组 4433">
          <path id="路径_2383" data-name="路径 2383" d="M183.329,148.324c-9.381-5.523-16.025-9.759-25.082-15.073a38.744,38.744,0,0,0-2.5,3.913,6.677,6.677,0,0,0-.573,2.623v.015c0,17.378.025,34.757-.03,52.135a4.576,4.576,0,0,0,2.359,4.32c7.516,4.78,14.974,9.651,22.454,14.49h.96a3.972,3.972,0,0,0,.466-2.659c.008-18.473.038-36.946-.036-55.418C181.335,150.431,183.244,148.451,183.329,148.324Z" fill="url(#linear-gradient-3)"/>
        </g>
      </g>
      <g id="Group_4078" data-name="Group 4078">
        <g id="Group_4075" data-name="Group 4075">
          <path id="Path_1832" data-name="Path 1832" d="M107.113,140.018l-19.241-11.1a2.718,2.718,0,0,1-1.318-2.079V103.868c0-.735.583-.989,1.318-.558l19.241,11.1a2.722,2.722,0,0,1,1.318,2.079v22.946C108.431,140.2,107.848,140.449,107.113,140.018ZM130.638,153.6,111.4,142.5a2.718,2.718,0,0,1-1.318-2.079V117.481c0-.735.583-.989,1.318-.558l19.241,11.1a2.721,2.721,0,0,1,1.318,2.08v22.945C131.982,153.783,131.373,154.011,130.638,153.6Zm23.551,13.59-19.241-11.1a2.718,2.718,0,0,1-1.318-2.079V131.069c0-.735.583-.989,1.318-.558l19.241,11.1a2.723,2.723,0,0,1,1.315,2.082v22.942C155.5,167.345,154.9,167.6,154.189,167.193Z" fill="url(#linear-gradient-5)"/>
          <path id="Path_1833" data-name="Path 1833" d="M57.173,111.169l-19.266-11.1a2.718,2.718,0,0,1-1.318-2.079V75.05c0-.735.583-.989,1.318-.558l19.242,11.1a2.722,2.722,0,0,1,1.318,2.079v22.942C58.492,111.35,57.909,111.6,57.173,111.169Zm146.956,84.848-19.241-11.1a2.718,2.718,0,0,1-1.318-2.079V159.893c0-.735.583-.989,1.318-.558l19.241,11.1a2.722,2.722,0,0,1,1.318,2.079v22.942C205.449,196.194,204.864,196.45,204.129,196.017Z" fill="url(#linear-gradient-6)"/>
        </g>
        <g id="Group_4076" data-name="Group 4076">
          <path id="Path_1834" data-name="Path 1834" d="M179.032,203.016l-19.241-11.1a2.718,2.718,0,0,1-1.318-2.079v-44.5c0-.735.583-.989,1.318-.558l19.241,11.1a2.724,2.724,0,0,1,1.321,2.083v44.49C180.353,203.191,179.742,203.444,179.032,203.016Z" fill="url(#linear-gradient-7)"/>
          <path id="Path_1835" data-name="Path 1835" d="M168.968,148.231c-.253-.127-.482-.3-.735-.456v50.4c.33.152.684.3,1.014.456V148.383A2.688,2.688,0,0,1,168.968,148.231Z" fill="url(#linear-gradient-8)"/>
        </g>
        <g id="Group_4077" data-name="Group 4077">
          <path id="Path_1836" data-name="Path 1836" d="M82.246,147.192l-19.241-11.1a2.72,2.72,0,0,1-1.319-2.082V89.5c0-.735.583-.989,1.318-.558l19.242,11.1a2.722,2.722,0,0,1,1.318,2.079v44.49C83.563,147.345,82.955,147.6,82.246,147.192Z" fill="url(#linear-gradient-9)"/>
          <path id="Path_1837" data-name="Path 1837" d="M72.156,92.385c-.254-.127-.482-.3-.735-.456v50.4c.33.152.684.3,1.014.456V92.539A2.811,2.811,0,0,0,72.156,92.385Z" fill="url(#linear-gradient-10)"/>
        </g>
        <path id="Path_1838" data-name="Path 1838" d="M131.906,153.352c-.152.456-.634.583-1.242.253l-19.241-11.1a2.718,2.718,0,0,1-1.318-2.079V117.482a.649.649,0,0,1,.557-.73.684.684,0,0,1,.1,0,1.042,1.042,0,0,0-.076.3v22.946a2.678,2.678,0,0,0,1.318,2.077l19.241,11.1A1.178,1.178,0,0,0,131.906,153.352Zm-24.184-13.765-19.266-11.1a2.718,2.718,0,0,1-1.318-2.079V103.463a.867.867,0,0,1,.076-.3.649.649,0,0,0-.665.633.582.582,0,0,0,.006.1v22.938a2.677,2.677,0,0,0,1.318,2.079l19.241,11.1c.608.355,1.09.228,1.242-.253A1.092,1.092,0,0,1,107.722,139.587ZM57.756,110.738l-19.241-11.1A2.718,2.718,0,0,1,37.2,97.556V74.614a.867.867,0,0,1,.076-.3.649.649,0,0,0-.665.633.582.582,0,0,0,.006.1V97.987a2.679,2.679,0,0,0,1.318,2.083l19.241,11.1c.608.355,1.09.228,1.242-.253A1,1,0,0,1,57.756,110.738Zm97.016,56.024-19.241-11.1a2.718,2.718,0,0,1-1.318-2.079V130.638a.867.867,0,0,1,.076-.3.649.649,0,0,0-.665.633.582.582,0,0,0,.006.1v22.938a2.677,2.677,0,0,0,1.318,2.079l19.241,11.1c.608.355,1.09.228,1.242-.254a1.429,1.429,0,0,1-.659-.173Zm49.966,28.849-19.241-11.1a2.718,2.718,0,0,1-1.318-2.079V159.487a.867.867,0,0,1,.076-.3.649.649,0,0,0-.665.633.584.584,0,0,0,.006.1V182.86a2.677,2.677,0,0,0,1.318,2.079l19.241,11.1c.608.355,1.09.228,1.242-.253a1.359,1.359,0,0,1-.66-.175Z" fill="#b3c1c1" opacity="0.9" style="isolation: isolate"/>
      </g>
      <path id="路径_2389" data-name="路径 2389" d="M145.062,57.342c-4.031-2.358-13.689.887-23.348,6.464-12.65,7.3-25.274,18.607-25.249,26.618L276.318,194.517c-.025-8.011,12.6-19.317,25.249-26.618,9.4-5.425,18.835-8.644,23.043-6.616.025,0,.025,0,0-.025Z" transform="translate(-66.116 -27.579)" fill="url(#linear-gradient-11)"/>
    </g>
    <g id="组_4684" data-name="组 4684" transform="translate(-187 -109)">
      <g id="Group_4057-2" data-name="Group 4057">
        <path id="Path_1796-2" data-name="Path 1796" d="M213.154,224.536,32.888,119.788l.025,8.949L213.154,233.484Z" fill="#333536"/>
        <path id="Path_1797-2" data-name="Path 1797" d="M210.391,166.94,30.15,62.192l.076,59.117L210.492,226.082Z" fill="url(#linear-gradient)"/>
        <path id="Path_1799-2" data-name="Path 1799" d="M261.041,196.878l-.076-59.142c-.025-8.011-12.675-4.741-25.3,2.56-12.65,7.3-25.274,18.607-25.249,26.618l.076,59.142,2.662-1.546v8.974l45.276-26.132-.051-8.949Z" fill="#9bafb0"/>
        <path id="Path_1800-2" data-name="Path 1800" d="M261.041,196.879,213.23,167.6l-2.814,7.4.076,51.081,2.662-1.546v8.949l45.276-26.111-.051-8.949Z" fill="#64797d" opacity="0.3" style="isolation: isolate"/>
      </g>
      <g id="Group_4058-2" data-name="Group 4058">
        <path id="Path_1801-2" data-name="Path 1801" d="M264.438,197.358,213.23,167.6l-.025,55.26,51.233,29.711Z" fill="#333536"/>
        <path id="Path_1802-2" data-name="Path 1802" d="M264.438,140.043l-5.8-3.372c-3.777-2.205-12.8.837-21.827,6.033-11.811,6.82-23.626,17.387-23.6,24.9l51.208,29.761V140.043Z" fill="url(#linear-gradient-2)"/>
      </g>
      <g id="组_4431-2" data-name="组 4431">
        <path id="路径_2379-2" data-name="路径 2379" d="M210.416,212.733c-6.629-3.949-14.292-8.57-20.925-12.51q-27.9-16.571-55.8-33.128-36.049-21.4-72.1-42.782C51.274,118.193,30.3,105.642,30.3,105.642s-.154-2.542-.154-5.008c4.318,2.59,10.255,6.231,14.585,8.8q26.091,15.5,52.192,30.98,32.184,19.1,64.371,38.191,24.5,14.536,49,29.069C210.416,210.083,210.416,210.083,210.416,212.733Z" fill="#004495"/>
      </g>
      <path id="路径_2380-2" data-name="路径 2380" d="M87.952,93.044c-9.381-5.522-16.024-9.758-25.081-15.073a38.861,38.861,0,0,0-2.5,3.913,6.664,6.664,0,0,0-.573,2.624v.015c0,17.378.024,34.756-.03,52.134a4.579,4.579,0,0,0,2.358,4.321c7.517,4.78,14.975,9.651,22.454,14.489h.96A3.958,3.958,0,0,0,86,152.809c.009-18.473.039-36.946-.035-55.418C85.959,95.152,87.868,93.172,87.952,93.044Z" fill="#de141d" style="isolation: isolate"/>
      <g id="组_4432-2" data-name="组 4432">
        <path id="路径_2381-2" data-name="路径 2381" d="M86.952,92.044c-9.381-5.522-16.024-9.758-25.081-15.073a38.861,38.861,0,0,0-2.5,3.913,6.664,6.664,0,0,0-.573,2.624v.015c0,17.378.024,34.756-.03,52.134a4.579,4.579,0,0,0,2.358,4.321c7.517,4.78,14.975,9.651,22.454,14.489h.96A3.958,3.958,0,0,0,85,151.809c.009-18.473.039-36.946-.035-55.418C84.959,94.152,86.868,92.172,86.952,92.044Z" fill="url(#linear-gradient-3)"/>
      </g>
      <g id="组_4434-2" data-name="组 4434">
        <path id="路径_2382-2" data-name="路径 2382" d="M184.329,149.324c-9.381-5.523-16.025-9.759-25.082-15.073a38.744,38.744,0,0,0-2.5,3.913,6.677,6.677,0,0,0-.573,2.623v.015c0,17.378.025,34.757-.03,52.135a4.576,4.576,0,0,0,2.359,4.32c7.516,4.78,14.974,9.651,22.454,14.49h.96a3.972,3.972,0,0,0,.466-2.659c.008-18.473.038-36.946-.036-55.418C182.335,151.431,184.244,149.451,184.329,149.324Z" fill="#de141d" style="isolation: isolate"/>
        <g id="组_4433-2" data-name="组 4433">
          <path id="路径_2383-2" data-name="路径 2383" d="M183.329,148.324c-9.381-5.523-16.025-9.759-25.082-15.073a38.744,38.744,0,0,0-2.5,3.913,6.677,6.677,0,0,0-.573,2.623v.015c0,17.378.025,34.757-.03,52.135a4.576,4.576,0,0,0,2.359,4.32c7.516,4.78,14.974,9.651,22.454,14.49h.96a3.972,3.972,0,0,0,.466-2.659c.008-18.473.038-36.946-.036-55.418C181.335,150.431,183.244,148.451,183.329,148.324Z" fill="url(#linear-gradient-3)"/>
        </g>
      </g>
      <g id="Group_4078-2" data-name="Group 4078">
        <g id="Group_4075-2" data-name="Group 4075">
          <path id="Path_1832-2" data-name="Path 1832" d="M107.113,140.018l-19.241-11.1a2.718,2.718,0,0,1-1.318-2.079V103.868c0-.735.583-.989,1.318-.558l19.241,11.1a2.722,2.722,0,0,1,1.318,2.079v22.946C108.431,140.2,107.848,140.449,107.113,140.018ZM130.638,153.6,111.4,142.5a2.718,2.718,0,0,1-1.318-2.079V117.481c0-.735.583-.989,1.318-.558l19.241,11.1a2.721,2.721,0,0,1,1.318,2.08v22.945C131.982,153.783,131.373,154.011,130.638,153.6Zm23.551,13.59-19.241-11.1a2.718,2.718,0,0,1-1.318-2.079V131.069c0-.735.583-.989,1.318-.558l19.241,11.1a2.723,2.723,0,0,1,1.315,2.082v22.942C155.5,167.345,154.9,167.6,154.189,167.193Z" fill="url(#linear-gradient-5)"/>
          <path id="Path_1833-2" data-name="Path 1833" d="M57.173,111.169l-19.266-11.1a2.718,2.718,0,0,1-1.318-2.079V75.05c0-.735.583-.989,1.318-.558l19.242,11.1a2.722,2.722,0,0,1,1.318,2.079v22.942C58.492,111.35,57.909,111.6,57.173,111.169Zm146.956,84.848-19.241-11.1a2.718,2.718,0,0,1-1.318-2.079V159.893c0-.735.583-.989,1.318-.558l19.241,11.1a2.722,2.722,0,0,1,1.318,2.079v22.942C205.449,196.194,204.864,196.45,204.129,196.017Z" fill="url(#linear-gradient-6)"/>
        </g>
        <g id="Group_4076-2" data-name="Group 4076">
          <path id="Path_1834-2" data-name="Path 1834" d="M179.032,203.016l-19.241-11.1a2.718,2.718,0,0,1-1.318-2.079v-44.5c0-.735.583-.989,1.318-.558l19.241,11.1a2.724,2.724,0,0,1,1.321,2.083v44.49C180.353,203.191,179.742,203.444,179.032,203.016Z" fill="url(#linear-gradient-7)"/>
          <path id="Path_1835-2" data-name="Path 1835" d="M168.968,148.231c-.253-.127-.482-.3-.735-.456v50.4c.33.152.684.3,1.014.456V148.383A2.688,2.688,0,0,1,168.968,148.231Z" fill="url(#linear-gradient-8)"/>
        </g>
        <g id="Group_4077-2" data-name="Group 4077">
          <path id="Path_1836-2" data-name="Path 1836" d="M82.246,147.192l-19.241-11.1a2.72,2.72,0,0,1-1.319-2.082V89.5c0-.735.583-.989,1.318-.558l19.242,11.1a2.722,2.722,0,0,1,1.318,2.079v44.49C83.563,147.345,82.955,147.6,82.246,147.192Z" fill="url(#linear-gradient-9)"/>
          <path id="Path_1837-2" data-name="Path 1837" d="M72.156,92.385c-.254-.127-.482-.3-.735-.456v50.4c.33.152.684.3,1.014.456V92.539A2.811,2.811,0,0,0,72.156,92.385Z" fill="url(#linear-gradient-10)"/>
        </g>
        <path id="Path_1838-2" data-name="Path 1838" d="M131.906,153.352c-.152.456-.634.583-1.242.253l-19.241-11.1a2.718,2.718,0,0,1-1.318-2.079V117.482a.649.649,0,0,1,.557-.73.684.684,0,0,1,.1,0,1.042,1.042,0,0,0-.076.3v22.946a2.678,2.678,0,0,0,1.318,2.077l19.241,11.1A1.178,1.178,0,0,0,131.906,153.352Zm-24.184-13.765-19.266-11.1a2.718,2.718,0,0,1-1.318-2.079V103.463a.867.867,0,0,1,.076-.3.649.649,0,0,0-.665.633.582.582,0,0,0,.006.1v22.938a2.677,2.677,0,0,0,1.318,2.079l19.241,11.1c.608.355,1.09.228,1.242-.253A1.092,1.092,0,0,1,107.722,139.587ZM57.756,110.738l-19.241-11.1A2.718,2.718,0,0,1,37.2,97.556V74.614a.867.867,0,0,1,.076-.3.649.649,0,0,0-.665.633.582.582,0,0,0,.006.1V97.987a2.679,2.679,0,0,0,1.318,2.083l19.241,11.1c.608.355,1.09.228,1.242-.253A1,1,0,0,1,57.756,110.738Zm97.016,56.024-19.241-11.1a2.718,2.718,0,0,1-1.318-2.079V130.638a.867.867,0,0,1,.076-.3.649.649,0,0,0-.665.633.582.582,0,0,0,.006.1v22.938a2.677,2.677,0,0,0,1.318,2.079l19.241,11.1c.608.355,1.09.228,1.242-.254a1.429,1.429,0,0,1-.659-.173Zm49.966,28.849-19.241-11.1a2.718,2.718,0,0,1-1.318-2.079V159.487a.867.867,0,0,1,.076-.3.649.649,0,0,0-.665.633.584.584,0,0,0,.006.1V182.86a2.677,2.677,0,0,0,1.318,2.079l19.241,11.1c.608.355,1.09.228,1.242-.253a1.359,1.359,0,0,1-.66-.175Z" fill="#b3c1c1" opacity="0.9" style="isolation: isolate"/>
      </g>
      <path id="路径_2389-2" data-name="路径 2389" d="M145.062,57.342c-4.031-2.358-13.689.887-23.348,6.464-12.65,7.3-25.274,18.607-25.249,26.618L276.318,194.517c-.025-8.011,12.6-19.317,25.249-26.618,9.4-5.425,18.835-8.644,23.043-6.616.025,0,.025,0,0-.025Z" transform="translate(-66.116 -27.579)" fill="url(#linear-gradient-11)"/>
    </g>
    <g id="组_4683" data-name="组 4683">
      <g id="Group_4057-3" data-name="Group 4057">
        <path id="Path_1796-3" data-name="Path 1796" d="M213.154,224.536,32.888,119.788l.025,8.949L213.154,233.484Z" fill="#333536"/>
        <path id="Path_1797-3" data-name="Path 1797" d="M210.391,166.94,30.15,62.192l.076,59.117L210.492,226.082Z" fill="url(#linear-gradient)"/>
        <path id="Path_1799-3" data-name="Path 1799" d="M261.041,196.878l-.076-59.142c-.025-8.011-12.675-4.741-25.3,2.56-12.65,7.3-25.274,18.607-25.249,26.618l.076,59.142,2.662-1.546v8.974l45.276-26.132-.051-8.949Z" fill="#9bafb0"/>
        <path id="Path_1800-3" data-name="Path 1800" d="M261.041,196.879,213.23,167.6l-2.814,7.4.076,51.081,2.662-1.546v8.949l45.276-26.111-.051-8.949Z" fill="#64797d" opacity="0.3" style="isolation: isolate"/>
      </g>
      <g id="Group_4058-3" data-name="Group 4058">
        <path id="Path_1801-3" data-name="Path 1801" d="M264.438,197.358,213.23,167.6l-.025,55.26,51.233,29.711Z" fill="#333536"/>
        <path id="Path_1802-3" data-name="Path 1802" d="M264.438,140.043l-5.8-3.372c-3.777-2.205-12.8.837-21.827,6.033-11.811,6.82-23.626,17.387-23.6,24.9l51.208,29.761V140.043Z" fill="url(#linear-gradient-2)"/>
      </g>
      <g id="组_4431-3" data-name="组 4431">
        <path id="路径_2379-3" data-name="路径 2379" d="M210.416,212.733c-6.629-3.949-14.292-8.57-20.925-12.51q-27.9-16.571-55.8-33.128-36.049-21.4-72.1-42.782C51.274,118.193,30.3,105.642,30.3,105.642s-.154-2.542-.154-5.008c4.318,2.59,10.255,6.231,14.585,8.8q26.091,15.5,52.192,30.98,32.184,19.1,64.371,38.191,24.5,14.536,49,29.069C210.416,210.083,210.416,210.083,210.416,212.733Z" fill="#004495"/>
      </g>
      <path id="路径_2380-3" data-name="路径 2380" d="M87.952,93.044c-9.381-5.522-16.024-9.758-25.081-15.073a38.861,38.861,0,0,0-2.5,3.913,6.664,6.664,0,0,0-.573,2.624v.015c0,17.378.024,34.756-.03,52.134a4.579,4.579,0,0,0,2.358,4.321c7.517,4.78,14.975,9.651,22.454,14.489h.96A3.958,3.958,0,0,0,86,152.809c.009-18.473.039-36.946-.035-55.418C85.959,95.152,87.868,93.172,87.952,93.044Z" fill="#de141d" style="isolation: isolate"/>
      <g id="组_4432-3" data-name="组 4432">
        <path id="路径_2381-3" data-name="路径 2381" d="M86.952,92.044c-9.381-5.522-16.024-9.758-25.081-15.073a38.861,38.861,0,0,0-2.5,3.913,6.664,6.664,0,0,0-.573,2.624v.015c0,17.378.024,34.756-.03,52.134a4.579,4.579,0,0,0,2.358,4.321c7.517,4.78,14.975,9.651,22.454,14.489h.96A3.958,3.958,0,0,0,85,151.809c.009-18.473.039-36.946-.035-55.418C84.959,94.152,86.868,92.172,86.952,92.044Z" fill="url(#linear-gradient-3)"/>
      </g>
      <g id="组_4434-3" data-name="组 4434">
        <path id="路径_2382-3" data-name="路径 2382" d="M184.329,149.324c-9.381-5.523-16.025-9.759-25.082-15.073a38.744,38.744,0,0,0-2.5,3.913,6.677,6.677,0,0,0-.573,2.623v.015c0,17.378.025,34.757-.03,52.135a4.576,4.576,0,0,0,2.359,4.32c7.516,4.78,14.974,9.651,22.454,14.49h.96a3.972,3.972,0,0,0,.466-2.659c.008-18.473.038-36.946-.036-55.418C182.335,151.431,184.244,149.451,184.329,149.324Z" fill="#de141d" style="isolation: isolate"/>
        <g id="组_4433-3" data-name="组 4433">
          <path id="路径_2383-3" data-name="路径 2383" d="M183.329,148.324c-9.381-5.523-16.025-9.759-25.082-15.073a38.744,38.744,0,0,0-2.5,3.913,6.677,6.677,0,0,0-.573,2.623v.015c0,17.378.025,34.757-.03,52.135a4.576,4.576,0,0,0,2.359,4.32c7.516,4.78,14.974,9.651,22.454,14.49h.96a3.972,3.972,0,0,0,.466-2.659c.008-18.473.038-36.946-.036-55.418C181.335,150.431,183.244,148.451,183.329,148.324Z" fill="url(#linear-gradient-3)"/>
        </g>
      </g>
      <g id="Group_4078-3" data-name="Group 4078">
        <g id="Group_4075-3" data-name="Group 4075">
          <path id="Path_1832-3" data-name="Path 1832" d="M107.113,140.018l-19.241-11.1a2.718,2.718,0,0,1-1.318-2.079V103.868c0-.735.583-.989,1.318-.558l19.241,11.1a2.722,2.722,0,0,1,1.318,2.079v22.946C108.431,140.2,107.848,140.449,107.113,140.018ZM130.638,153.6,111.4,142.5a2.718,2.718,0,0,1-1.318-2.079V117.481c0-.735.583-.989,1.318-.558l19.241,11.1a2.721,2.721,0,0,1,1.318,2.08v22.945C131.982,153.783,131.373,154.011,130.638,153.6Zm23.551,13.59-19.241-11.1a2.718,2.718,0,0,1-1.318-2.079V131.069c0-.735.583-.989,1.318-.558l19.241,11.1a2.723,2.723,0,0,1,1.315,2.082v22.942C155.5,167.345,154.9,167.6,154.189,167.193Z" fill="url(#linear-gradient-5)"/>
          <path id="Path_1833-3" data-name="Path 1833" d="M57.173,111.169l-19.266-11.1a2.718,2.718,0,0,1-1.318-2.079V75.05c0-.735.583-.989,1.318-.558l19.242,11.1a2.722,2.722,0,0,1,1.318,2.079v22.942C58.492,111.35,57.909,111.6,57.173,111.169Zm146.956,84.848-19.241-11.1a2.718,2.718,0,0,1-1.318-2.079V159.893c0-.735.583-.989,1.318-.558l19.241,11.1a2.722,2.722,0,0,1,1.318,2.079v22.942C205.449,196.194,204.864,196.45,204.129,196.017Z" fill="url(#linear-gradient-6)"/>
        </g>
        <g id="Group_4076-3" data-name="Group 4076">
          <path id="Path_1834-3" data-name="Path 1834" d="M179.032,203.016l-19.241-11.1a2.718,2.718,0,0,1-1.318-2.079v-44.5c0-.735.583-.989,1.318-.558l19.241,11.1a2.724,2.724,0,0,1,1.321,2.083v44.49C180.353,203.191,179.742,203.444,179.032,203.016Z" fill="url(#linear-gradient-7)"/>
          <path id="Path_1835-3" data-name="Path 1835" d="M168.968,148.231c-.253-.127-.482-.3-.735-.456v50.4c.33.152.684.3,1.014.456V148.383A2.688,2.688,0,0,1,168.968,148.231Z" fill="url(#linear-gradient-8)"/>
        </g>
        <g id="Group_4077-3" data-name="Group 4077">
          <path id="Path_1836-3" data-name="Path 1836" d="M82.246,147.192l-19.241-11.1a2.72,2.72,0,0,1-1.319-2.082V89.5c0-.735.583-.989,1.318-.558l19.242,11.1a2.722,2.722,0,0,1,1.318,2.079v44.49C83.563,147.345,82.955,147.6,82.246,147.192Z" fill="url(#linear-gradient-9)"/>
          <path id="Path_1837-3" data-name="Path 1837" d="M72.156,92.385c-.254-.127-.482-.3-.735-.456v50.4c.33.152.684.3,1.014.456V92.539A2.811,2.811,0,0,0,72.156,92.385Z" fill="url(#linear-gradient-10)"/>
        </g>
        <path id="Path_1838-3" data-name="Path 1838" d="M131.906,153.352c-.152.456-.634.583-1.242.253l-19.241-11.1a2.718,2.718,0,0,1-1.318-2.079V117.482a.649.649,0,0,1,.557-.73.684.684,0,0,1,.1,0,1.042,1.042,0,0,0-.076.3v22.946a2.678,2.678,0,0,0,1.318,2.077l19.241,11.1A1.178,1.178,0,0,0,131.906,153.352Zm-24.184-13.765-19.266-11.1a2.718,2.718,0,0,1-1.318-2.079V103.463a.867.867,0,0,1,.076-.3.649.649,0,0,0-.665.633.582.582,0,0,0,.006.1v22.938a2.677,2.677,0,0,0,1.318,2.079l19.241,11.1c.608.355,1.09.228,1.242-.253A1.092,1.092,0,0,1,107.722,139.587ZM57.756,110.738l-19.241-11.1A2.718,2.718,0,0,1,37.2,97.556V74.614a.867.867,0,0,1,.076-.3.649.649,0,0,0-.665.633.582.582,0,0,0,.006.1V97.987a2.679,2.679,0,0,0,1.318,2.083l19.241,11.1c.608.355,1.09.228,1.242-.253A1,1,0,0,1,57.756,110.738Zm97.016,56.024-19.241-11.1a2.718,2.718,0,0,1-1.318-2.079V130.638a.867.867,0,0,1,.076-.3.649.649,0,0,0-.665.633.582.582,0,0,0,.006.1v22.938a2.677,2.677,0,0,0,1.318,2.079l19.241,11.1c.608.355,1.09.228,1.242-.254a1.429,1.429,0,0,1-.659-.173Zm49.966,28.849-19.241-11.1a2.718,2.718,0,0,1-1.318-2.079V159.487a.867.867,0,0,1,.076-.3.649.649,0,0,0-.665.633.584.584,0,0,0,.006.1V182.86a2.677,2.677,0,0,0,1.318,2.079l19.241,11.1c.608.355,1.09.228,1.242-.253a1.359,1.359,0,0,1-.66-.175Z" fill="#b3c1c1" opacity="0.9" style="isolation: isolate"/>
      </g>
      <path id="路径_2389-3" data-name="路径 2389" d="M145.062,57.342c-4.031-2.358-13.689.887-23.348,6.464-12.65,7.3-25.274,18.607-25.249,26.618L276.318,194.517c-.025-8.011,12.6-19.317,25.249-26.618,9.4-5.425,18.835-8.644,23.043-6.616.025,0,.025,0,0-.025Z" transform="translate(-66.116 -27.579)" fill="url(#linear-gradient-11)"/>
    </g>
    <path id="Path_1803" data-name="Path 1803" d="M423.131,346.724,220.987,229.251l.025,8.974L423.131,355.7Z" fill="#333536"/>
    <path id="Path_1804" data-name="Path 1804" d="M467.215,330.221l-44.11,25.452v-8.619l44.11-25.452Z" fill="#535657"/>
    <path id="Path_1805" data-name="Path 1805" d="M420.393,289.128,218.249,171.655l.076,59.142,214.286,124.47Z" fill="url(#linear-gradient-34)"/>
    <g id="组_4430" data-name="组 4430">
      <path id="路径_2378" data-name="路径 2378" d="M218.257,210.387q10.246,6,20.494,12,17.611,10.276,35.237,20.531,29.588,17.244,59.171,34.491c26.425,15.4,50.956,29.707,77.383,45.108.636,4.218.375,2.084.952,5.453-7.454-4.359-14.461-8.467-21.92-12.817q-42.429-24.744-84.864-49.479c-27.046-15.765-59.357-33.909-86.4-49.672C218.249,213.8,218.186,213.089,218.257,210.387Z" fill="#004495"/>
    </g>
    <g id="组_4438" data-name="组 4438">
      <path id="路径_2384" data-name="路径 2384" d="M274.143,200.5c-9.381-5.523-16.025-9.759-25.082-15.073a38.746,38.746,0,0,0-2.5,3.913,6.658,6.658,0,0,0-.572,2.623v.015c0,17.378.024,34.757-.031,52.134a4.579,4.579,0,0,0,2.359,4.321c7.516,4.78,14.974,9.651,22.454,14.49h.96a3.972,3.972,0,0,0,.466-2.659c.008-18.473.038-36.946-.036-55.418C272.149,202.607,274.058,200.627,274.143,200.5Z" fill="#de141d" style="isolation: isolate"/>
      <g id="组_4435" data-name="组 4435">
        <path id="路径_2385" data-name="路径 2385" d="M273.143,199.5c-9.381-5.523-16.025-9.759-25.082-15.073a38.746,38.746,0,0,0-2.5,3.913,6.658,6.658,0,0,0-.572,2.623v.015c0,17.378.024,34.757-.031,52.134a4.579,4.579,0,0,0,2.359,4.321c7.516,4.78,14.974,9.651,22.454,14.49h.96a3.972,3.972,0,0,0,.466-2.659c.008-18.473.038-36.946-.036-55.418C271.149,201.607,273.058,199.627,273.143,199.5Z" fill="url(#linear-gradient-3)"/>
      </g>
      <g id="组_4437" data-name="组 4437">
        <path id="路径_2386" data-name="路径 2386" d="M371.519,256.779c-9.381-5.522-16.025-9.758-25.081-15.073a38.844,38.844,0,0,0-2.5,3.913,6.68,6.68,0,0,0-.572,2.623v.016c0,17.378.024,34.756-.031,52.134a4.58,4.58,0,0,0,2.359,4.321c7.516,4.78,14.975,9.651,22.454,14.489h.96a3.966,3.966,0,0,0,.466-2.659c.008-18.472.038-36.945-.036-55.418C369.525,258.887,371.434,256.907,371.519,256.779Z" fill="#de141d" style="isolation: isolate"/>
        <g id="组_4436" data-name="组 4436">
          <path id="路径_2387" data-name="路径 2387" d="M370.519,255.779c-9.381-5.522-16.025-9.758-25.081-15.073a38.844,38.844,0,0,0-2.5,3.913,6.68,6.68,0,0,0-.572,2.623v.016c0,17.378.024,34.756-.031,52.134a4.58,4.58,0,0,0,2.359,4.321c7.516,4.78,14.975,9.651,22.454,14.489h.96a3.966,3.966,0,0,0,.466-2.659c.008-18.472.038-36.945-.036-55.418C368.525,257.887,370.434,255.907,370.519,255.779Z" fill="url(#linear-gradient-3)"/>
        </g>
      </g>
    </g>
    <path id="路径_2388" data-name="路径 2388" d="M122.8,43.961c-4.031-2.358-13.689.887-23.348,6.464C86.8,57.726,74.175,69.032,74.2,77.043L276.318,194.517c-.025-8.011,12.6-19.317,25.249-26.618,9.4-5.425,18.835-8.644,23.043-6.616.025,0,.025,0,0-.025Z" transform="translate(143.884 94.421)" fill="url(#linear-gradient-11)"/>
    <g id="Group_4074" data-name="Group 4074">
      <g id="Group_4071" data-name="Group 4071">
        <path id="Path_1824" data-name="Path 1824" d="M293.667,247.63l-19.241-11.1a2.718,2.718,0,0,1-1.318-2.079V211.506c0-.735.583-.989,1.318-.558l19.241,11.1a2.722,2.722,0,0,1,1.318,2.079v22.942C294.984,247.781,294.376,248.036,293.667,247.63Zm23.525,13.562-19.241-11.1a2.718,2.718,0,0,1-1.318-2.079V225.068c0-.735.583-.989,1.318-.558l19.241,11.1a2.722,2.722,0,0,1,1.318,2.079v22.942c0,.739-.584.993-1.319.562Zm23.524,13.589-19.241-11.1a2.718,2.718,0,0,1-1.318-2.079V238.656c0-.735.583-.989,1.318-.558l19.241,11.1a2.722,2.722,0,0,1,1.318,2.079v22.942C342.035,274.958,341.452,275.211,340.716,274.781Z" fill="url(#linear-gradient-38)"/>
        <path id="Path_1825" data-name="Path 1825" d="M243.7,218.781l-19.241-11.1a2.718,2.718,0,0,1-1.318-2.079V182.657c0-.735.583-.989,1.318-.558L243.7,193.2a2.722,2.722,0,0,1,1.318,2.079v22.946C245.019,218.959,244.436,219.212,243.7,218.781Zm146.956,84.848-19.241-11.1a2.718,2.718,0,0,1-1.318-2.079V267.505c0-.735.583-.989,1.318-.558l19.241,11.1a2.722,2.722,0,0,1,1.318,2.079v22.942c.026.738-.583.992-1.318.561Z" fill="url(#linear-gradient-39)"/>
      </g>
      <g id="Group_4072" data-name="Group 4072">
        <path id="Path_1826" data-name="Path 1826" d="M365.56,310.625l-19.241-11.1A2.718,2.718,0,0,1,345,297.446V252.928c0-.735.583-.989,1.318-.558l19.241,11.1a2.722,2.722,0,0,1,1.318,2.079v44.49C366.878,310.8,366.3,311.056,365.56,310.625Z" fill="url(#linear-gradient-40)"/>
        <path id="Path_1827" data-name="Path 1827" d="M355.5,255.843c-.253-.127-.482-.3-.735-.456v50.4c.33.152.684.3,1.014.456V255.97A2.915,2.915,0,0,0,355.5,255.843Z" fill="url(#linear-gradient-41)"/>
      </g>
      <g id="Group_4073" data-name="Group 4073">
        <path id="Path_1828" data-name="Path 1828" d="M268.772,254.778l-19.241-11.1a2.718,2.718,0,0,1-1.318-2.079V197.081c0-.735.583-.989,1.318-.558l19.241,11.1a2.721,2.721,0,0,1,1.321,2.083V254.2C270.093,254.956,269.507,255.209,268.772,254.778Z" fill="url(#linear-gradient-42)"/>
        <path id="Path_1829" data-name="Path 1829" d="M258.708,200c-.254-.127-.482-.3-.735-.456v50.4c.33.152.684.3,1.014.456V200.123A2.879,2.879,0,0,0,258.708,200Z" fill="url(#linear-gradient-43)"/>
      </g>
      <path id="Path_1831" data-name="Path 1831" d="M318.434,260.965c-.152.456-.634.583-1.242.254l-19.241-11.1a2.718,2.718,0,0,1-1.318-2.079V225.094a.649.649,0,0,1,.557-.73.685.685,0,0,1,.1-.005,1.043,1.043,0,0,0-.076.3V247.6a2.677,2.677,0,0,0,1.318,2.079l19.241,11.1A1.435,1.435,0,0,0,318.434,260.965ZM294.25,247.2l-19.241-11.1a2.718,2.718,0,0,1-1.318-2.079V211.075a.867.867,0,0,1,.076-.3.649.649,0,0,0-.665.633.584.584,0,0,0,.006.1v22.942a2.677,2.677,0,0,0,1.318,2.079l19.241,11.1c.608.355,1.09.228,1.242-.253a1.436,1.436,0,0,1-.66-.179Zm-49.941-28.849-19.241-11.1a2.718,2.718,0,0,1-1.318-2.079V182.2a.867.867,0,0,1,.076-.3.649.649,0,0,0-.665.633.583.583,0,0,0,.006.1v22.938a2.677,2.677,0,0,0,1.318,2.079l19.242,11.1c.608.355,1.09.228,1.242-.253A.939.939,0,0,1,244.309,218.351Zm97.018,56.024-19.241-11.1a2.718,2.718,0,0,1-1.318-2.079V238.225a.867.867,0,0,1,.076-.3.649.649,0,0,0-.665.633.584.584,0,0,0,.006.1V261.6a2.677,2.677,0,0,0,1.318,2.079l19.241,11.1c.608.355,1.09.228,1.242-.253A1.1,1.1,0,0,1,341.327,274.375Zm49.94,28.821-19.24-11.1a2.718,2.718,0,0,1-1.318-2.079V267.074a.867.867,0,0,1,.076-.3.649.649,0,0,0-.665.633.581.581,0,0,0,.006.1v22.938a2.677,2.677,0,0,0,1.318,2.079l19.241,11.1c.608.355,1.09.228,1.242-.253a1.168,1.168,0,0,1-.662-.175Z" fill="#b3c1c1" opacity="0.9" style="isolation: isolate"/>
    </g>
    <g id="组_4445" data-name="组 4445">
      <path id="Path_1807" data-name="Path 1807" d="M456.048,248.54c-7.646-4.443-15.248-3.652-27.9,3.624-12.65,7.3-25.274,18.607-25.249,26.618l11.281,64.567a2.945,2.945,0,0,0,3.4,2.411l14.069,7.911,50.993-28.6L469.887,257.1Z" fill="url(#linear-gradient-44)" style="isolation: isolate"/>
      <path id="Path_1807-2" data-name="Path 1807" d="M481.157,329.71a2.99,2.99,0,0,0,1.445-3.067l-11.813-67.25c-1.394-7.732-12.523-4.183-25.173,3.093-12.65,7.3-25.274,18.607-25.249,26.618l11.281,64.567a2.946,2.946,0,0,0,4.386,2.053Z" fill="url(#linear-gradient-45)"/>
      <path id="Path_1808" data-name="Path 1808" d="M477.53,328.244a3.438,3.438,0,0,0,1.648-3.524l-8.214-48.8a2.8,2.8,0,0,0-2.763-2.434c-4.107-.051-11.027,2.535-18.455,6.845-12.219,7.047-21.725,16.148-23.55,22.258a6.643,6.643,0,0,0-.127,2.915l7.529,43.02a3.407,3.407,0,0,0,5.07,2.358Z" fill="#d30d1b" opacity="0.9" style="isolation: isolate"/>
      <g id="组_4444" data-name="组 4444">
        <g id="Group_4061" data-name="Group 4061">
          <path id="Path_1809" data-name="Path 1809" d="M471.034,310.651a2.9,2.9,0,0,0,1.389-2.971L465.5,266.537a2.361,2.361,0,0,0-2.329-2.052c-3.463-.043-9.3,2.138-15.56,5.771-10.3,5.942-18.316,13.614-19.854,18.766a5.6,5.6,0,0,0-.107,2.457L434,327.749a2.875,2.875,0,0,0,4.275,1.988Z" fill="url(#linear-gradient-46)"/>
          <g id="组_4441" data-name="组 4441">
            <g id="组_4440" data-name="组 4440" clip-path="url(#clip-path)">
              <g id="Group_4060" data-name="Group 4060">
                <path id="Path_1810" data-name="Path 1810" d="M482.936,312.682l-45.527,26.267-9.575-5.514,45.5-26.288Z" fill="#c7d2d2" opacity="0.2" style="isolation: isolate"/>
              </g>
            </g>
          </g>
        </g>
        <path id="Path_1823" data-name="Path 1823" d="M465.519,266.559a2.361,2.361,0,0,0-2.329-2.052c-3.463-.043-9.3,2.138-15.559,5.771-10.3,5.941-18.316,13.614-19.855,18.766a5.6,5.6,0,0,0-.107,2.457l.47,2.693,38.321-22.121Z" opacity="0.9" fill="url(#linear-gradient-47)" style="isolation: isolate"/>
        <g id="Group_4061-2" data-name="Group 4061">
          <path id="Path_1809-2" data-name="Path 1809" d="M471.034,310.651a2.9,2.9,0,0,0,1.389-2.971L465.5,266.537a2.361,2.361,0,0,0-2.329-2.052c-3.463-.043-9.3,2.138-15.56,5.771-10.3,5.942-18.316,13.614-19.854,18.766a5.6,5.6,0,0,0-.107,2.457L434,327.749a2.875,2.875,0,0,0,4.275,1.988Z" fill="none" stroke="#004495" stroke-miterlimit="10" stroke-width="0.843"/>
          <g id="组_4443" data-name="组 4443">
            <g id="组_4442" data-name="组 4442" clip-path="url(#clip-path-2)">
              <g id="Group_4060-2" data-name="Group 4060">
                <path id="Path_1810-2" data-name="Path 1810" d="M482.936,312.682l-45.527,26.267-9.575-5.514,45.5-26.288Z" fill="none" stroke="#004495" stroke-miterlimit="10" stroke-width="0.843" opacity="0.2" style="isolation: isolate"/>
              </g>
            </g>
            <path id="SVGID-3" data-name="SVGID" d="M471.034,310.651a2.9,2.9,0,0,0,1.389-2.971L465.5,266.537a2.361,2.361,0,0,0-2.329-2.052c-3.463-.043-9.3,2.138-15.56,5.771-10.3,5.942-18.316,13.614-19.854,18.766a5.6,5.6,0,0,0-.107,2.457L434,327.749a2.875,2.875,0,0,0,4.275,1.988Z" fill="none" stroke="#004495" stroke-miterlimit="10" stroke-width="0.843"/>
          </g>
        </g>
      </g>
    </g>
  </g>
</svg>
