<svg xmlns="http://www.w3.org/2000/svg" width="325.996" height="314.194" viewBox="0 0 325.996 314.194">
  <g id="Group_4201" data-name="Group 4201" transform="translate(-43.056 -23.971)">
    <path id="Path_1915" data-name="Path 1915" d="M50.93,181.814l-7.874,3.981v1.824l7.874-3.984Z" fill="#574247"/>
    <path id="Path_1916" data-name="Path 1916" d="M81.554,209.57l9.675-4.4-9.24-1.753Z"/>
    <path id="Path_1917" data-name="Path 1917" d="M361.184,299.311l-2.935-1.738.5,3.171Z" fill="#8d7880"/>
    <path id="Path_1918" data-name="Path 1918" d="M255.632,310.836l9.307-5.255-10.41-1.953Z"/>
    <path id="Path_1919" data-name="Path 1919" d="M278.011,320.2c.059-5.082-3.462-11.315-7.862-13.923-2.3-1.368-4.394-1.462-5.87-.518l.027-.28-5.175,3.148c-1.8.628-2.968,2.516-3,5.386-.057,5.081,3.464,11.317,7.862,13.925,2.5,1.478,4.738,1.472,6.222.264l4.929-2.663C276.867,324.87,277.979,323,278.011,320.2Z" fill="#2b1c1f"/>
    <path id="Path_1920" data-name="Path 1920" d="M278.011,320.2c.059-5.082-3.462-11.315-7.862-13.923s-8.016-.6-8.073,4.48,3.461,11.319,7.864,13.923S277.954,325.289,278.011,320.2Z" fill="#2b1c1f"/>
    <path id="Path_1921" data-name="Path 1921" d="M272.064,323.464c.057-5.082-3.462-11.317-7.862-13.927s-8.014-.6-8.073,4.482,3.464,11.317,7.862,13.925S272.007,328.545,272.064,323.464Z" fill="#2b1c1f"/>
    <path id="Path_1922" data-name="Path 1922" d="M269.368,328.664l6.367-3.439-4.66-2.786Z" fill="#2b1c1f"/>
    <path id="Path_1923" data-name="Path 1923" d="M263.789,310.591l-5.434-1.49,5.953-3.615Z" fill="#2b1c1f"/>
    <path id="Path_1924" data-name="Path 1924" d="M269.088,322.531a12.412,12.412,0,0,0-5.521-9.783c-3.089-1.831-5.628-.421-5.671,3.15a12.392,12.392,0,0,0,5.521,9.775C266.507,327.505,269.049,326.1,269.088,322.531Z" fill="#9ea0a3"/>
    <path id="Path_1925" data-name="Path 1925" d="M270.149,306.284c-2.3-1.368-4.394-1.462-5.87-.518l.027-.28-5.175,3.148a1.493,1.493,0,0,0-.165.065c4.116-2.053,17.053,8.854,12.153,19.019l4.024-2.173c1.724-.675,2.837-2.541,2.868-5.338C278.069,315.124,274.548,308.892,270.149,306.284Z" fill="#1f1517"/>
    <path id="Path_1926" data-name="Path 1926" d="M104,218.923c.057-5.083-3.462-11.313-7.862-13.923-2.305-1.366-4.4-1.463-5.87-.518l.028-.28-5.175,3.144c-1.8.632-2.97,2.522-3,5.392-.057,5.081,3.464,11.315,7.864,13.923,2.494,1.478,4.738,1.472,6.22.264l4.931-2.665C102.862,223.584,103.97,221.72,104,218.923Z" fill="#2b1c1f"/>
    <path id="Path_1927" data-name="Path 1927" d="M104,218.923c.057-5.083-3.462-11.313-7.862-13.923s-8.016-.6-8.073,4.48S91.529,220.8,95.929,223.4,103.945,224.006,104,218.923Z" fill="#2b1c1f"/>
    <path id="Path_1928" data-name="Path 1928" d="M98.055,222.182c.057-5.084-3.463-11.317-7.862-13.925s-8.015-.6-8.075,4.482,3.464,11.315,7.864,13.923S98,227.26,98.055,222.182Z" fill="#2b1c1f"/>
    <path id="Path_1929" data-name="Path 1929" d="M95.36,227.383l6.366-3.44-4.658-2.787Z" fill="#2b1c1f"/>
    <path id="Path_1930" data-name="Path 1930" d="M89.779,209.309l-5.434-1.489L90.3,204.2Z" fill="#2b1c1f"/>
    <path id="Path_1931" data-name="Path 1931" d="M95.079,221.245a12.411,12.411,0,0,0-5.52-9.779c-3.09-1.831-5.632-.419-5.673,3.148a12.4,12.4,0,0,0,5.521,9.777C92.5,226.222,95.039,224.813,95.079,221.245Z" fill="#9ea0a3"/>
    <path id="Path_1932" data-name="Path 1932" d="M96.14,205c-2.305-1.366-4.4-1.463-5.87-.518l.028-.28-5.175,3.144c-.057.02-.11.045-.165.069,4.116-2.053,17.055,8.854,12.153,19.019l4.023-2.175c1.724-.675,2.837-2.539,2.868-5.336C104.059,213.841,100.539,207.61,96.14,205Z" fill="#1f1517"/>
    <path id="Path_1933" data-name="Path 1933" d="M368.721,239.271a.7.7,0,0,0-.492-.065.679.679,0,0,0-.2-.171.7.7,0,0,0-.667,0l-1.321.713c-.561-1.711-2.289-2.984-7.6-2.031l-.439.89c4.819-.866,6.5.152,7.082,1.656l-2.165,1.173a1.277,1.277,0,0,0-.677,1.114v12.121a.622.622,0,0,0,.335.549.69.69,0,0,0,.492.069.587.587,0,0,0,.2.169.706.706,0,0,0,.671,0l4.527-2.451a1.1,1.1,0,0,0,.585-.959V239.825A.63.63,0,0,0,368.721,239.271Z" fill="#0e0e0e"/>
    <path id="Path_1934" data-name="Path 1934" d="M358.574,171.584,301.6,202.7l-1.2,118.5,2.01,16.064L358.574,305.8Z" fill="#d90013"/>
    <path id="Path_1935" data-name="Path 1935" d="M358.574,234.849,302.41,267.277v53.134l56.164-32.427Z" fill="#171717"/>
    <path id="Path_1937" data-name="Path 1937" d="M358.555,177.611l-57.14,32.424.975,105.838,56.165-32.426Z" fill="#d90013"/>
    <path id="Path_1938" data-name="Path 1938" d="M357.364,238.137l-52.879,30.532v43.854l52.879-30.532Z" fill="#545454"/>
    <path id="Path_1939" data-name="Path 1939" d="M357.364,181.184l-52.879,30.534v33.931l52.879-30.531Z" fill="#5c5c5c"/>
    <path id="Path_1940" data-name="Path 1940" d="M357.091,219.08,304.485,247.9v14.937l52.606-28.821Z" fill="#171717"/>
    <path id="Path_1941" data-name="Path 1941" d="M357.364,275.225l-31.675-18.888,31.675-18.2Z" fill="#2c2d2d"/>
    <path id="Path_1943" data-name="Path 1943" d="M302.4,320.394v-4.5l-1.936-35.832L43.914,130.3v40.714l108.513,62.709,21.109,12.2Z" fill="#5c0c14"/>
    <path id="Path_2374" data-name="Path 2374" d="M298.934,265.784l3.453,1.995v-4.5l-.722-59.418L43.9,53.436V118.4l.135.078.115,69.439,37.676,21.651c.628-3.734,3.8-5.872,8.738-3.2,5.1,2.756,6.97,8.275,7.6,12.736L256,310.232c.63-3.734,3.646-5.449,7.435-3.35,6.508,3.6,8.577,8.451,9.208,12.909l29.761,17.231V318.458Z" fill="#8c101b"/>
    <path id="Path_1945" data-name="Path 1945" d="M302.406,265.58,54.2,122.3v39.8l104.476,60.3L177,243.461l125.406,72.4Z" fill="#0e0e0e"/>
    <path id="Path_2375" data-name="Path 2375" d="M361.216,299.311l-2.568-.535L302.337,331.3l-1.508-.838-1.147.663,3.338,1.857,2.851-1.626-.117,0Z" fill="#454545"/>
    <path id="Path_2376" data-name="Path 2376" d="M361.183,299.285l-58.173,33.58v1.658l-.226-1.74-3.524-1.439.667,5.138,3.083,1.256v.427l.433-.25.008,0v-.007l57.733-33.329Z" fill="#1a1a1a"/>
    <path id="Path_1949" data-name="Path 1949" d="M299.6,266.951l-19.618-11.345v45.037L299.6,311.986Z" fill="#171717"/>
    <path id="Path_1950" data-name="Path 1950" d="M203.255,211.172l-42.55-24.438v33.511L177.4,240.289l25.794,15.751Z" fill="#171717"/>
    <path id="Path_1951" data-name="Path 1951" d="M158.179,185.275,128.527,168.2v34l29.652,17.075Z" fill="#171717"/>
    <path id="Path_1952" data-name="Path 1952" d="M86.091,143.648l-30.425-17.08v34l30.425,17.08Z" fill="#252527"/>
    <path id="Path_1953" data-name="Path 1953" d="M302.109,210.563,44.1,62.922v34l258.285,147.8Z" fill="#0e0e0e"/>
    <path id="Path_1955" data-name="Path 1955" d="M228.975,228.717l-25.1-14.5v66.124l25.1,14.495Z" fill="#0e0e0e"/>
    <path id="Path_1956" data-name="Path 1956" d="M82.11,208.516l-39.054-22.7v1.754L81.823,210.1A7.72,7.72,0,0,1,82.11,208.516Z" fill="#060606"/>
    <path id="Path_1957" data-name="Path 1957" d="M272.216,318.669a13.441,13.441,0,0,1,.3,1.923l30.424,17.533v-1.754Z" fill="#060606"/>
    <path id="Path_1958" data-name="Path 1958" d="M304.271,290.169l53.093-8.178L304.485,312.52Z" fill="#171717"/>
    <path id="Path_1959" data-name="Path 1959" d="M357.364,212.351l-31.675-12.677,31.675-18.207Z" fill="#2c2d2d"/>
    <path id="Path_1960" data-name="Path 1960" d="M304.271,223.3l53.093-8.178-52.879,30.529Z" fill="#171717"/>
    <path id="Path_1961" data-name="Path 1961" d="M309.252,319.193l-6.342,3.848a.874.874,0,0,0-.438.758v3.44a1.535,1.535,0,0,0,2.3,1.33l6.012-3.657a1.534,1.534,0,0,0,.769-1.33v-3.059A1.536,1.536,0,0,0,309.252,319.193Z" fill="#2b1c1f"/>
    <path id="Path_1962" data-name="Path 1962" d="M358.212,290.655l-6.388,3.687a1.842,1.842,0,0,0-.92,1.594v2.355a1.84,1.84,0,0,0,2.761,1.594l4.018-2.319a1.842,1.842,0,0,0,.921-1.6v-5.09A.261.261,0,0,0,358.212,290.655Z" fill="#2b1c1f"/>
    <path id="Path_1963" data-name="Path 1963" d="M229.543,271.687l48.507,27.892V254.54l-48.507-27.89Z" fill="#171717"/>
    <path id="Path_1964" data-name="Path 1964" d="M126.393,167,88.03,144.786v34L126.393,201Z" fill="#252527"/>
    <path id="Path_1966" data-name="Path 1966" d="M227.78,225.582l-22.913-13.23.2,61.05,22.915,13.228Z" fill="#171717"/>
    <path id="Path_1967" data-name="Path 1967" d="M299.6,311.987V288.364l-19.616-13.84V300.64Z" fill="#171717"/>
    <path id="Path_1968" data-name="Path 1968" d="M160.705,190.369v29.668l42.489,33.95.05-33.609Z" fill="#171717"/>
    <path id="Path_1969" data-name="Path 1969" d="M132.647,170.574l-4.119-2.372v26.129l29.652,23.693V188.588Z" fill="#171717"/>
    <path id="Path_1970" data-name="Path 1970" d="M55.666,126.568v9.544L86.091,160.42V143.648Z" fill="#171717"/>
    <g id="Group_4193" data-name="Group 4193">
      <path id="Path_1971" data-name="Path 1971" d="M82.154,87.265,51.729,70.185V98.622L82.154,115.7Z" fill="#252527"/>
      <path id="Path_1972" data-name="Path 1972" d="M51.729,70.185v9.544l30.425,24.308V87.265Z" fill="#171717"/>
    </g>
    <g id="Group_4194" data-name="Group 4194">
      <path id="Path_1973" data-name="Path 1973" d="M117.625,108.236,87.2,91.156v28.437l30.425,17.079Z" fill="#252527"/>
      <path id="Path_1974" data-name="Path 1974" d="M87.2,91.156V100.7l30.425,24.308V108.236Z" fill="#171717"/>
    </g>
    <g id="Group_4195" data-name="Group 4195">
      <path id="Path_1975" data-name="Path 1975" d="M153.094,128.907l-30.425-17.08v28.437l30.425,17.079Z" fill="#252527"/>
      <path id="Path_1976" data-name="Path 1976" d="M122.67,111.827v9.544L153.1,145.679V128.907Z" fill="#171717"/>
    </g>
    <g id="Group_4196" data-name="Group 4196">
      <path id="Path_1977" data-name="Path 1977" d="M188.564,148.4l-30.425-17.08v28.437l30.425,17.079Z" fill="#252527"/>
      <path id="Path_1978" data-name="Path 1978" d="M158.14,131.318v9.544l30.424,24.308V148.4Z" fill="#171717"/>
    </g>
    <g id="Group_4197" data-name="Group 4197">
      <path id="Path_1979" data-name="Path 1979" d="M224.035,168.623l-30.42-17.08V179.98l30.425,17.079Z" fill="#252527"/>
      <path id="Path_1980" data-name="Path 1980" d="M193.615,151.543v9.544L224.04,185.4V168.623Z" fill="#171717"/>
    </g>
    <g id="Group_4198" data-name="Group 4198">
      <path id="Path_1981" data-name="Path 1981" d="M259.506,189.263l-30.425-17.08V200.62L259.506,217.7Z" fill="#252527"/>
      <path id="Path_1982" data-name="Path 1982" d="M229.081,172.183v9.544l30.425,24.308V189.263Z" fill="#171717"/>
    </g>
    <g id="Group_4199" data-name="Group 4199">
      <path id="Path_1983" data-name="Path 1983" d="M294.976,210.212l-30.425-17.08v28.437l30.425,17.079Z" fill="#252527"/>
      <path id="Path_1984" data-name="Path 1984" d="M264.551,193.132v9.544l30.425,24.308V210.212Z" fill="#171717"/>
    </g>
    <path id="Path_1985" data-name="Path 1985" d="M278.05,299.577v-26.42l-48.507-34.226V271.68Z" fill="#171717"/>
    <path id="Path_1986" data-name="Path 1986" d="M88.03,144.786v17.186l38.363,30.652V167Z" fill="#171717"/>
    <path id="Path_1987" data-name="Path 1987" d="M204.9,221.547l.108,33.889,22.93,18.324-.114-36.038Z" fill="#171717"/>
    <rect id="Rectangle_215" data-name="Rectangle 215" width="1.424" height="63.385" transform="translate(215.444 218.377)" fill="#0e0e0e"/>
    <path id="Path_1988" data-name="Path 1988" d="M356.9,292.339l-1.534.865v4.236l1.541-.916Z" fill="#d2d2d2"/>
    <path id="Path_1989" data-name="Path 1989" d="M305.5,322.439l-1.849,1.059v3.887l1.849-1.1Z" fill="#d2d2d2"/>
    <path id="Path_1990" data-name="Path 1990" d="M295.994,277.327a.715.715,0,0,0-1.075-.622l-4.738,2.709a1.439,1.439,0,0,0-.724,1.25v13.673a.715.715,0,0,0,1.073.622l4.839-2.764a1.239,1.239,0,0,0,.626-1.079Z" fill="#252527"/>
    <path id="Path_1991" data-name="Path 1991" d="M296.732,277.6a.721.721,0,0,0-1.077-.624l-4.736,2.709a1.438,1.438,0,0,0-.726,1.25V294.6a.717.717,0,0,0,.717.719.705.705,0,0,0,.358-.1l4.836-2.764a1.24,1.24,0,0,0,.628-1.079Z" fill="#0e0e0e"/>
    <g id="Group_4200" data-name="Group 4200">
      <path id="Path_1992" data-name="Path 1992" d="M293.362,280.965h-.8v-.24c0-2.872-.012-6.807,6.913-10.62l.386.7c-6.51,3.585-6.5,7.1-6.5,9.917Z" fill="#252527"/>
    </g>
    <path id="Path_1993" data-name="Path 1993" d="M132.5,169.869,107.39,155.376V224.1l25.1,14.5Z" fill="#0e0e0e"/>
    <path id="Path_1994" data-name="Path 1994" d="M131.3,169.335l-22.916-13.229.2,61.048L131.5,230.38Z" fill="#252527"/>
    <path id="Path_1995" data-name="Path 1995" d="M131.3,169.335l-22.916-13.229.072,22.1,22.928,18.227Z" fill="#171717"/>
    <rect id="Rectangle_216" data-name="Rectangle 216" width="1.425" height="63.385" transform="translate(118.964 162.13)" fill="#0e0e0e"/>
    <path id="Path_1996" data-name="Path 1996" d="M256.177,309.4,97.852,217.861a14.035,14.035,0,0,1,.291,1.923l157.738,91.2A7.417,7.417,0,0,1,256.177,309.4Z" fill="#060606"/>
    <path id="Path_2377" data-name="Path 2377" d="M340.363,251.922l-1-4.071-.583.141,1.04,4.235-3.655,2.045v4l7.63-4.269v-4Z" fill="#0e0e0e"/>
    <path id="Path_1998" data-name="Path 1998" d="M358.291,171.433,98.156,23.971,43.938,53.436l257.48,150.422Z" fill="#d91620"/>
    <path id="Path_1940-2" data-name="Path 1940" d="M352.323,223.046l-43.071,23.6v12.231l43.071-23.6Z" fill="#262626"/>
  </g>
</svg>
