<svg xmlns="http://www.w3.org/2000/svg" xmlns:xlink="http://www.w3.org/1999/xlink" width="824.935" height="548.366" viewBox="0 0 824.935 548.366">
  <defs>
    <linearGradient id="linear-gradient" x1="-18.582" y1="-2.388" x2="-18.592" y2="-2.4" gradientUnits="objectBoundingBox">
      <stop offset="0" stop-color="#494b4e"/>
      <stop offset="0.512" stop-color="#797a7e"/>
      <stop offset="0.606" stop-color="#76777a"/>
      <stop offset="0.723" stop-color="#6a6b6e"/>
      <stop offset="0.853" stop-color="#57595b"/>
      <stop offset="0.991" stop-color="#3f4244"/>
      <stop offset="1" stop-color="#3e4042"/>
    </linearGradient>
    <linearGradient id="linear-gradient-2" x1="-12.135" y1="-0.478" x2="-12.133" y2="-0.496" gradientUnits="objectBoundingBox">
      <stop offset="0" stop-color="#202325"/>
      <stop offset="1" stop-color="#1d2022"/>
    </linearGradient>
    <linearGradient id="linear-gradient-3" x1="-4.675" y1="-0.299" x2="-4.675" y2="-0.306" xlink:href="#linear-gradient-2"/>
    <linearGradient id="linear-gradient-4" x1="-41.038" y1="-1.177" x2="-41.017" y2="-1.21" xlink:href="#linear-gradient-2"/>
    <linearGradient id="linear-gradient-5" x1="-145.57" y1="-3.157" x2="-147.228" y2="-3.178" gradientUnits="objectBoundingBox">
      <stop offset="0" stop-color="#6e858b"/>
      <stop offset="1" stop-color="#8ab0ba"/>
    </linearGradient>
    <linearGradient id="linear-gradient-6" x1="-36.608" y1="-0.24" x2="-36.587" y2="-0.273" xlink:href="#linear-gradient-2"/>
    <linearGradient id="linear-gradient-7" x1="-50.08" y1="-2.058" x2="-51.738" y2="-2.079" xlink:href="#linear-gradient-5"/>
    <linearGradient id="linear-gradient-22" x1="-14.847" y1="-2.127" x2="-14.846" y2="-2.145" xlink:href="#linear-gradient-2"/>
    <linearGradient id="linear-gradient-23" x1="-5.781" y1="-1.175" x2="-5.781" y2="-1.181" xlink:href="#linear-gradient-2"/>
    <linearGradient id="linear-gradient-24" x1="-49.591" y1="-2.981" x2="-49.57" y2="-3.014" xlink:href="#linear-gradient-2"/>
    <linearGradient id="linear-gradient-25" x1="-329.52" y1="-5.273" x2="-331.178" y2="-5.294" xlink:href="#linear-gradient-5"/>
    <linearGradient id="linear-gradient-26" x1="-45.149" y1="-2.044" x2="-45.128" y2="-2.078" xlink:href="#linear-gradient-2"/>
    <linearGradient id="linear-gradient-27" x1="-234.066" y1="-4.175" x2="-235.723" y2="-4.196" xlink:href="#linear-gradient-5"/>
    <linearGradient id="linear-gradient-28" x1="-25.934" y1="-4.1" x2="-25.94" y2="-4.092" xlink:href="#linear-gradient-2"/>
    <clipPath id="clip-path">
      <path id="SVGID" d="M431.513,299.233a2.9,2.9,0,0,0-1.389,2.971l6.924,41.142a2.36,2.36,0,0,0,2.33,2.052c3.462.043,9.3-2.137,15.559-5.77,10.3-5.942,18.316-13.615,19.854-18.766a5.6,5.6,0,0,0,.108-2.457l-6.348-36.27a2.873,2.873,0,0,0-4.274-1.988Z" fill="none"/>
    </clipPath>
    <linearGradient id="linear-gradient-29" x1="-30.049" y1="-10.607" x2="-30.052" y2="-10.594" gradientUnits="objectBoundingBox">
      <stop offset="0" stop-color="#2a2f31"/>
      <stop offset="1" stop-color="#292f31"/>
    </linearGradient>
    <linearGradient id="linear-gradient-30" x1="0" y1="0.5" x2="1" y2="0.5" xlink:href="#linear-gradient-2"/>
    <linearGradient id="linear-gradient-31" x1="-5.726" y1="0.533" x2="-4.072" y2="0.533" xlink:href="#linear-gradient-2"/>
  </defs>
  <g id="mexicocitytrain" transform="translate(342.474 172.676)">
    <g id="组_4610" data-name="组 4610">
      <g id="组_4703" data-name="组 4703" transform="translate(-378 -221)">
        <g id="Group_4057" data-name="Group 4057">
          <path id="Path_1796" data-name="Path 1796" d="M218.53,244.528,38.264,139.78l.025,8.949L218.53,253.476Z" fill="#343638"/>
          <path id="Path_1797" data-name="Path 1797" d="M215.767,186.932,35.526,82.184,35.6,141.3,215.868,246.074Z" fill="#9dc33a"/>
          <path id="路径_2897" data-name="路径 2897" d="M102.3,152.618q32.184,19.1,64.371,38.192,24.5,14.537,49,29.068c.052,1.082.081,2.689.1,4.369l.058.033-.063-37.348L35.526,82.184l.039,30.675c4.316,2.589,10.229,6.215,14.546,8.779Q76.2,137.137,102.3,152.618Z" fill="#a5401a"/>
          <path id="Path_1798" data-name="Path 1798" d="M84.126,49.1c-4.031-2.358-13.689.887-23.348,6.464C48.126,62.842,35.5,74.148,35.526,82.184L215.767,186.932c-.025-8.011,12.6-19.317,25.249-26.618,9.658-5.577,19.292-8.8,23.348-6.464Z" fill="#eb6e12"/>
          <path id="Path_1799" data-name="Path 1799" d="M266.417,216.87l-.076-59.142c-.025-8.011-12.675-4.741-25.3,2.56-12.65,7.3-25.274,18.607-25.249,26.618l.076,59.142,2.662-1.546v8.974l45.276-26.132-.051-8.949Z" fill="#205556"/>
          <path id="Path_1800" data-name="Path 1800" d="M266.417,216.871l-47.811-29.28-2.814,7.4.076,51.081,2.662-1.546v8.949l45.276-26.111-.051-8.949Z" fill="#63787e" opacity="0.3" style="isolation: isolate"/>
        </g>
        <g id="Group_4058" data-name="Group 4058">
          <path id="Path_1801" data-name="Path 1801" d="M269.814,217.35l-51.208-29.76-.025,55.26,51.233,29.711Z" fill="#343638"/>
          <path id="Path_1802" data-name="Path 1802" d="M269.814,160.035l-5.8-3.372c-3.777-2.205-12.8.837-21.827,6.033-11.811,6.82-23.626,17.387-23.6,24.9l51.208,29.761V160.035Z" fill="url(#linear-gradient)"/>
        </g>
        <g id="Group_4078" data-name="Group 4078">
          <g id="Group_4075" data-name="Group 4075">
            <path id="Path_1832" data-name="Path 1832" d="M112.489,160.01l-19.241-11.1a2.718,2.718,0,0,1-1.318-2.079V123.86c0-.735.583-.989,1.318-.558l19.241,11.1a2.722,2.722,0,0,1,1.318,2.079v22.946C113.807,160.187,113.224,160.441,112.489,160.01ZM136.014,173.6l-19.241-11.1a2.718,2.718,0,0,1-1.318-2.079V137.473c0-.735.583-.989,1.318-.558l19.241,11.1a2.721,2.721,0,0,1,1.318,2.08V173.04C137.358,173.775,136.749,174,136.014,173.6Zm23.551,13.59-19.241-11.1a2.718,2.718,0,0,1-1.318-2.079V151.061c0-.735.583-.989,1.318-.558l19.241,11.1a2.72,2.72,0,0,1,1.315,2.082v22.942C160.88,187.337,160.274,187.6,159.565,187.185Z" fill="url(#linear-gradient-2)"/>
            <path id="Path_1833" data-name="Path 1833" d="M62.549,131.161l-19.266-11.1a2.718,2.718,0,0,1-1.318-2.079V95.042c0-.735.583-.989,1.318-.558l19.242,11.1a2.722,2.722,0,0,1,1.318,2.079V130.6C63.868,131.342,63.285,131.592,62.549,131.161Zm146.956,84.848-19.241-11.1a2.718,2.718,0,0,1-1.318-2.079V179.885c0-.735.583-.989,1.318-.558l19.241,11.1a2.722,2.722,0,0,1,1.318,2.079v22.942C210.825,216.186,210.24,216.442,209.505,216.009Z" fill="url(#linear-gradient-3)"/>
          </g>
          <g id="Group_4076" data-name="Group 4076">
            <path id="Path_1834" data-name="Path 1834" d="M184.408,223.008l-19.241-11.1a2.718,2.718,0,0,1-1.318-2.079v-44.5c0-.735.583-.989,1.318-.558l19.241,11.1a2.718,2.718,0,0,1,1.321,2.083v44.49C185.729,223.183,185.118,223.436,184.408,223.008Z" fill="url(#linear-gradient-4)"/>
            <path id="Path_1835" data-name="Path 1835" d="M174.344,168.223c-.253-.127-.482-.3-.735-.456v50.4c.33.152.684.3,1.014.456V168.375A2.688,2.688,0,0,1,174.344,168.223Z" fill="url(#linear-gradient-5)"/>
          </g>
          <g id="Group_4077" data-name="Group 4077">
            <path id="Path_1836" data-name="Path 1836" d="M87.622,167.184l-19.241-11.1A2.72,2.72,0,0,1,67.062,154v-44.51c0-.735.583-.989,1.318-.558l19.242,11.1a2.722,2.722,0,0,1,1.318,2.079V166.6C88.939,167.337,88.331,167.592,87.622,167.184Z" fill="url(#linear-gradient-6)"/>
            <path id="Path_1837" data-name="Path 1837" d="M77.532,112.377c-.254-.127-.482-.3-.735-.456v50.4c.33.152.684.3,1.014.456V112.531A2.7,2.7,0,0,0,77.532,112.377Z" fill="url(#linear-gradient-7)"/>
          </g>
          <path id="Path_1838" data-name="Path 1838" d="M137.282,173.344c-.152.456-.634.583-1.242.253L116.8,162.5a2.718,2.718,0,0,1-1.318-2.079V137.474a.65.65,0,0,1,.557-.73.7.7,0,0,1,.1-.005,1.042,1.042,0,0,0-.076.3v22.946a2.68,2.68,0,0,0,1.318,2.077l19.241,11.1A1.18,1.18,0,0,0,137.282,173.344ZM113.1,159.579l-19.266-11.1a2.718,2.718,0,0,1-1.318-2.079V123.455a.867.867,0,0,1,.076-.3.649.649,0,0,0-.665.633.582.582,0,0,0,.006.1v22.938a2.677,2.677,0,0,0,1.318,2.079l19.241,11.1c.608.355,1.09.228,1.242-.253A1.092,1.092,0,0,1,113.1,159.579ZM63.132,130.73l-19.241-11.1a2.718,2.718,0,0,1-1.318-2.079V94.606a.867.867,0,0,1,.076-.3.649.649,0,0,0-.665.633.582.582,0,0,0,.006.1v22.938a2.679,2.679,0,0,0,1.318,2.083l19.241,11.1c.608.355,1.09.228,1.242-.253A1,1,0,0,1,63.132,130.73Zm97.016,56.024-19.241-11.1a2.718,2.718,0,0,1-1.318-2.079V150.63a.867.867,0,0,1,.076-.3.649.649,0,0,0-.665.633.582.582,0,0,0,.006.1V174a2.677,2.677,0,0,0,1.318,2.079l19.241,11.1c.608.355,1.09.228,1.242-.254a1.429,1.429,0,0,1-.659-.173ZM210.114,215.6l-19.241-11.1a2.718,2.718,0,0,1-1.318-2.079V179.479a.867.867,0,0,1,.076-.3.649.649,0,0,0-.665.633.581.581,0,0,0,.006.1v22.938a2.677,2.677,0,0,0,1.318,2.079l19.241,11.1c.608.355,1.09.228,1.242-.253a1.359,1.359,0,0,1-.66-.175Z" fill="#a7b8ba" opacity="0.9" style="isolation: isolate"/>
        </g>
      </g>
      <g id="组_4702" data-name="组 4702" transform="translate(-189 -109)">
        <g id="Group_4057-2" data-name="Group 4057">
          <path id="Path_1796-2" data-name="Path 1796" d="M218.53,244.528,38.264,139.78l.025,8.949L218.53,253.476Z" fill="#343638"/>
          <path id="Path_1797-2" data-name="Path 1797" d="M215.767,186.932,35.526,82.184,35.6,141.3,215.868,246.074Z" fill="#9dc33a"/>
          <path id="路径_2897-2" data-name="路径 2897" d="M102.3,152.618q32.184,19.1,64.371,38.192,24.5,14.537,49,29.068c.052,1.082.081,2.689.1,4.369l.058.033-.063-37.348L35.526,82.184l.039,30.675c4.316,2.589,10.229,6.215,14.546,8.779Q76.2,137.137,102.3,152.618Z" fill="#a5401a"/>
          <path id="Path_1798-2" data-name="Path 1798" d="M84.126,49.1c-4.031-2.358-13.689.887-23.348,6.464C48.126,62.842,35.5,74.148,35.526,82.184L215.767,186.932c-.025-8.011,12.6-19.317,25.249-26.618,9.658-5.577,19.292-8.8,23.348-6.464Z" fill="#eb6e12"/>
          <path id="Path_1799-2" data-name="Path 1799" d="M266.417,216.87l-.076-59.142c-.025-8.011-12.675-4.741-25.3,2.56-12.65,7.3-25.274,18.607-25.249,26.618l.076,59.142,2.662-1.546v8.974l45.276-26.132-.051-8.949Z" fill="#205556"/>
          <path id="Path_1800-2" data-name="Path 1800" d="M266.417,216.871l-47.811-29.28-2.814,7.4.076,51.081,2.662-1.546v8.949l45.276-26.111-.051-8.949Z" fill="#63787e" opacity="0.3" style="isolation: isolate"/>
        </g>
        <g id="Group_4058-2" data-name="Group 4058">
          <path id="Path_1801-2" data-name="Path 1801" d="M269.814,217.35l-51.208-29.76-.025,55.26,51.233,29.711Z" fill="#343638"/>
          <path id="Path_1802-2" data-name="Path 1802" d="M269.814,160.035l-5.8-3.372c-3.777-2.205-12.8.837-21.827,6.033-11.811,6.82-23.626,17.387-23.6,24.9l51.208,29.761V160.035Z" fill="url(#linear-gradient)"/>
        </g>
        <g id="Group_4078-2" data-name="Group 4078">
          <g id="Group_4075-2" data-name="Group 4075">
            <path id="Path_1832-2" data-name="Path 1832" d="M112.489,160.01l-19.241-11.1a2.718,2.718,0,0,1-1.318-2.079V123.86c0-.735.583-.989,1.318-.558l19.241,11.1a2.722,2.722,0,0,1,1.318,2.079v22.946C113.807,160.187,113.224,160.441,112.489,160.01ZM136.014,173.6l-19.241-11.1a2.718,2.718,0,0,1-1.318-2.079V137.473c0-.735.583-.989,1.318-.558l19.241,11.1a2.721,2.721,0,0,1,1.318,2.08V173.04C137.358,173.775,136.749,174,136.014,173.6Zm23.551,13.59-19.241-11.1a2.718,2.718,0,0,1-1.318-2.079V151.061c0-.735.583-.989,1.318-.558l19.241,11.1a2.72,2.72,0,0,1,1.315,2.082v22.942C160.88,187.337,160.274,187.6,159.565,187.185Z" fill="url(#linear-gradient-2)"/>
            <path id="Path_1833-2" data-name="Path 1833" d="M62.549,131.161l-19.266-11.1a2.718,2.718,0,0,1-1.318-2.079V95.042c0-.735.583-.989,1.318-.558l19.242,11.1a2.722,2.722,0,0,1,1.318,2.079V130.6C63.868,131.342,63.285,131.592,62.549,131.161Zm146.956,84.848-19.241-11.1a2.718,2.718,0,0,1-1.318-2.079V179.885c0-.735.583-.989,1.318-.558l19.241,11.1a2.722,2.722,0,0,1,1.318,2.079v22.942C210.825,216.186,210.24,216.442,209.505,216.009Z" fill="url(#linear-gradient-3)"/>
          </g>
          <g id="Group_4076-2" data-name="Group 4076">
            <path id="Path_1834-2" data-name="Path 1834" d="M184.408,223.008l-19.241-11.1a2.718,2.718,0,0,1-1.318-2.079v-44.5c0-.735.583-.989,1.318-.558l19.241,11.1a2.718,2.718,0,0,1,1.321,2.083v44.49C185.729,223.183,185.118,223.436,184.408,223.008Z" fill="url(#linear-gradient-4)"/>
            <path id="Path_1835-2" data-name="Path 1835" d="M174.344,168.223c-.253-.127-.482-.3-.735-.456v50.4c.33.152.684.3,1.014.456V168.375A2.688,2.688,0,0,1,174.344,168.223Z" fill="url(#linear-gradient-5)"/>
          </g>
          <g id="Group_4077-2" data-name="Group 4077">
            <path id="Path_1836-2" data-name="Path 1836" d="M87.622,167.184l-19.241-11.1A2.72,2.72,0,0,1,67.062,154v-44.51c0-.735.583-.989,1.318-.558l19.242,11.1a2.722,2.722,0,0,1,1.318,2.079V166.6C88.939,167.337,88.331,167.592,87.622,167.184Z" fill="url(#linear-gradient-6)"/>
            <path id="Path_1837-2" data-name="Path 1837" d="M77.532,112.377c-.254-.127-.482-.3-.735-.456v50.4c.33.152.684.3,1.014.456V112.531A2.7,2.7,0,0,0,77.532,112.377Z" fill="url(#linear-gradient-7)"/>
          </g>
          <path id="Path_1838-2" data-name="Path 1838" d="M137.282,173.344c-.152.456-.634.583-1.242.253L116.8,162.5a2.718,2.718,0,0,1-1.318-2.079V137.474a.65.65,0,0,1,.557-.73.7.7,0,0,1,.1-.005,1.042,1.042,0,0,0-.076.3v22.946a2.68,2.68,0,0,0,1.318,2.077l19.241,11.1A1.18,1.18,0,0,0,137.282,173.344ZM113.1,159.579l-19.266-11.1a2.718,2.718,0,0,1-1.318-2.079V123.455a.867.867,0,0,1,.076-.3.649.649,0,0,0-.665.633.582.582,0,0,0,.006.1v22.938a2.677,2.677,0,0,0,1.318,2.079l19.241,11.1c.608.355,1.09.228,1.242-.253A1.092,1.092,0,0,1,113.1,159.579ZM63.132,130.73l-19.241-11.1a2.718,2.718,0,0,1-1.318-2.079V94.606a.867.867,0,0,1,.076-.3.649.649,0,0,0-.665.633.582.582,0,0,0,.006.1v22.938a2.679,2.679,0,0,0,1.318,2.083l19.241,11.1c.608.355,1.09.228,1.242-.253A1,1,0,0,1,63.132,130.73Zm97.016,56.024-19.241-11.1a2.718,2.718,0,0,1-1.318-2.079V150.63a.867.867,0,0,1,.076-.3.649.649,0,0,0-.665.633.582.582,0,0,0,.006.1V174a2.677,2.677,0,0,0,1.318,2.079l19.241,11.1c.608.355,1.09.228,1.242-.254a1.429,1.429,0,0,1-.659-.173ZM210.114,215.6l-19.241-11.1a2.718,2.718,0,0,1-1.318-2.079V179.479a.867.867,0,0,1,.076-.3.649.649,0,0,0-.665.633.581.581,0,0,0,.006.1v22.938a2.677,2.677,0,0,0,1.318,2.079l19.241,11.1c.608.355,1.09.228,1.242-.253a1.359,1.359,0,0,1-.66-.175Z" fill="#a7b8ba" opacity="0.9" style="isolation: isolate"/>
        </g>
      </g>
      <g id="组_4701" data-name="组 4701">
        <g id="Group_4057-3" data-name="Group 4057">
          <path id="Path_1796-3" data-name="Path 1796" d="M218.53,244.528,38.264,139.78l.025,8.949L218.53,253.476Z" fill="#343638"/>
          <path id="Path_1797-3" data-name="Path 1797" d="M215.767,186.932,35.526,82.184,35.6,141.3,215.868,246.074Z" fill="#9dc33a"/>
          <path id="路径_2897-3" data-name="路径 2897" d="M102.3,152.618q32.184,19.1,64.371,38.192,24.5,14.537,49,29.068c.052,1.082.081,2.689.1,4.369l.058.033-.063-37.348L35.526,82.184l.039,30.675c4.316,2.589,10.229,6.215,14.546,8.779Q76.2,137.137,102.3,152.618Z" fill="#a5401a"/>
          <path id="Path_1798-3" data-name="Path 1798" d="M84.126,49.1c-4.031-2.358-13.689.887-23.348,6.464C48.126,62.842,35.5,74.148,35.526,82.184L215.767,186.932c-.025-8.011,12.6-19.317,25.249-26.618,9.658-5.577,19.292-8.8,23.348-6.464Z" fill="#eb6e12"/>
          <path id="Path_1799-3" data-name="Path 1799" d="M266.417,216.87l-.076-59.142c-.025-8.011-12.675-4.741-25.3,2.56-12.65,7.3-25.274,18.607-25.249,26.618l.076,59.142,2.662-1.546v8.974l45.276-26.132-.051-8.949Z" fill="#205556"/>
          <path id="Path_1800-3" data-name="Path 1800" d="M266.417,216.871l-47.811-29.28-2.814,7.4.076,51.081,2.662-1.546v8.949l45.276-26.111-.051-8.949Z" fill="#63787e" opacity="0.3" style="isolation: isolate"/>
        </g>
        <g id="Group_4058-3" data-name="Group 4058">
          <path id="Path_1801-3" data-name="Path 1801" d="M269.814,217.35l-51.208-29.76-.025,55.26,51.233,29.711Z" fill="#343638"/>
          <path id="Path_1802-3" data-name="Path 1802" d="M269.814,160.035l-5.8-3.372c-3.777-2.205-12.8.837-21.827,6.033-11.811,6.82-23.626,17.387-23.6,24.9l51.208,29.761V160.035Z" fill="url(#linear-gradient)"/>
        </g>
        <g id="Group_4078-3" data-name="Group 4078">
          <g id="Group_4075-3" data-name="Group 4075">
            <path id="Path_1832-3" data-name="Path 1832" d="M112.489,160.01l-19.241-11.1a2.718,2.718,0,0,1-1.318-2.079V123.86c0-.735.583-.989,1.318-.558l19.241,11.1a2.722,2.722,0,0,1,1.318,2.079v22.946C113.807,160.187,113.224,160.441,112.489,160.01ZM136.014,173.6l-19.241-11.1a2.718,2.718,0,0,1-1.318-2.079V137.473c0-.735.583-.989,1.318-.558l19.241,11.1a2.721,2.721,0,0,1,1.318,2.08V173.04C137.358,173.775,136.749,174,136.014,173.6Zm23.551,13.59-19.241-11.1a2.718,2.718,0,0,1-1.318-2.079V151.061c0-.735.583-.989,1.318-.558l19.241,11.1a2.72,2.72,0,0,1,1.315,2.082v22.942C160.88,187.337,160.274,187.6,159.565,187.185Z" fill="url(#linear-gradient-2)"/>
            <path id="Path_1833-3" data-name="Path 1833" d="M62.549,131.161l-19.266-11.1a2.718,2.718,0,0,1-1.318-2.079V95.042c0-.735.583-.989,1.318-.558l19.242,11.1a2.722,2.722,0,0,1,1.318,2.079V130.6C63.868,131.342,63.285,131.592,62.549,131.161Zm146.956,84.848-19.241-11.1a2.718,2.718,0,0,1-1.318-2.079V179.885c0-.735.583-.989,1.318-.558l19.241,11.1a2.722,2.722,0,0,1,1.318,2.079v22.942C210.825,216.186,210.24,216.442,209.505,216.009Z" fill="url(#linear-gradient-3)"/>
          </g>
          <g id="Group_4076-3" data-name="Group 4076">
            <path id="Path_1834-3" data-name="Path 1834" d="M184.408,223.008l-19.241-11.1a2.718,2.718,0,0,1-1.318-2.079v-44.5c0-.735.583-.989,1.318-.558l19.241,11.1a2.718,2.718,0,0,1,1.321,2.083v44.49C185.729,223.183,185.118,223.436,184.408,223.008Z" fill="url(#linear-gradient-4)"/>
            <path id="Path_1835-3" data-name="Path 1835" d="M174.344,168.223c-.253-.127-.482-.3-.735-.456v50.4c.33.152.684.3,1.014.456V168.375A2.688,2.688,0,0,1,174.344,168.223Z" fill="url(#linear-gradient-5)"/>
          </g>
          <g id="Group_4077-3" data-name="Group 4077">
            <path id="Path_1836-3" data-name="Path 1836" d="M87.622,167.184l-19.241-11.1A2.72,2.72,0,0,1,67.062,154v-44.51c0-.735.583-.989,1.318-.558l19.242,11.1a2.722,2.722,0,0,1,1.318,2.079V166.6C88.939,167.337,88.331,167.592,87.622,167.184Z" fill="url(#linear-gradient-6)"/>
            <path id="Path_1837-3" data-name="Path 1837" d="M77.532,112.377c-.254-.127-.482-.3-.735-.456v50.4c.33.152.684.3,1.014.456V112.531A2.7,2.7,0,0,0,77.532,112.377Z" fill="url(#linear-gradient-7)"/>
          </g>
          <path id="Path_1838-3" data-name="Path 1838" d="M137.282,173.344c-.152.456-.634.583-1.242.253L116.8,162.5a2.718,2.718,0,0,1-1.318-2.079V137.474a.65.65,0,0,1,.557-.73.7.7,0,0,1,.1-.005,1.042,1.042,0,0,0-.076.3v22.946a2.68,2.68,0,0,0,1.318,2.077l19.241,11.1A1.18,1.18,0,0,0,137.282,173.344ZM113.1,159.579l-19.266-11.1a2.718,2.718,0,0,1-1.318-2.079V123.455a.867.867,0,0,1,.076-.3.649.649,0,0,0-.665.633.582.582,0,0,0,.006.1v22.938a2.677,2.677,0,0,0,1.318,2.079l19.241,11.1c.608.355,1.09.228,1.242-.253A1.092,1.092,0,0,1,113.1,159.579ZM63.132,130.73l-19.241-11.1a2.718,2.718,0,0,1-1.318-2.079V94.606a.867.867,0,0,1,.076-.3.649.649,0,0,0-.665.633.582.582,0,0,0,.006.1v22.938a2.679,2.679,0,0,0,1.318,2.083l19.241,11.1c.608.355,1.09.228,1.242-.253A1,1,0,0,1,63.132,130.73Zm97.016,56.024-19.241-11.1a2.718,2.718,0,0,1-1.318-2.079V150.63a.867.867,0,0,1,.076-.3.649.649,0,0,0-.665.633.582.582,0,0,0,.006.1V174a2.677,2.677,0,0,0,1.318,2.079l19.241,11.1c.608.355,1.09.228,1.242-.254a1.429,1.429,0,0,1-.659-.173ZM210.114,215.6l-19.241-11.1a2.718,2.718,0,0,1-1.318-2.079V179.479a.867.867,0,0,1,.076-.3.649.649,0,0,0-.665.633.581.581,0,0,0,.006.1v22.938a2.677,2.677,0,0,0,1.318,2.079l19.241,11.1c.608.355,1.09.228,1.242-.253a1.359,1.359,0,0,1-.66-.175Z" fill="#a7b8ba" opacity="0.9" style="isolation: isolate"/>
        </g>
      </g>
      <g id="Group_4059" data-name="Group 4059">
        <path id="Path_1803" data-name="Path 1803" d="M428.507,366.716,226.363,249.243l.025,8.974L428.507,375.69Z" fill="#343638"/>
        <path id="Path_1804" data-name="Path 1804" d="M472.591,350.213l-44.11,25.452v-8.619l44.11-25.452Z" fill="#54585b"/>
        <path id="Path_1805" data-name="Path 1805" d="M482.384,343.408v-8.419l-44.4,26.572-23.915-59.44L223.625,191.647l.076,59.142L427.914,369.444a22.781,22.781,0,0,0,23-.066l18.257-10.749C473.882,356.168,482.384,348.72,482.384,343.408Z" fill="#9dc33a"/>
        <path id="路径_2898" data-name="路径 2898" d="M279.364,258.8q29.587,17.242,59.172,34.491c25.727,15,66.718,37.48,93.253,52.87l-17.717-44.035L223.625,191.647l.044,34.64q10.229,5.989,20.458,11.977Q261.74,248.539,279.364,258.8Z" fill="#a5401a"/>
      </g>
      <g id="Group_4074" data-name="Group 4074">
        <g id="Group_4071" data-name="Group 4071">
          <path id="Path_1824" data-name="Path 1824" d="M299.043,267.622l-19.241-11.1a2.718,2.718,0,0,1-1.318-2.079V231.5c0-.735.583-.989,1.318-.558l19.241,11.1a2.722,2.722,0,0,1,1.318,2.079v22.942C300.36,267.773,299.752,268.028,299.043,267.622Zm23.525,13.562-19.241-11.1a2.718,2.718,0,0,1-1.318-2.079V245.06c0-.735.583-.989,1.318-.558l19.241,11.1a2.722,2.722,0,0,1,1.318,2.079v22.942c0,.739-.584.993-1.319.562Zm23.524,13.589-19.241-11.1a2.718,2.718,0,0,1-1.318-2.079V258.648c0-.735.583-.989,1.318-.558l19.241,11.1a2.722,2.722,0,0,1,1.318,2.079v22.942C347.411,294.95,346.828,295.2,346.092,294.773Z" fill="url(#linear-gradient-22)"/>
          <path id="Path_1825" data-name="Path 1825" d="M249.077,238.773l-19.241-11.1a2.718,2.718,0,0,1-1.318-2.079V202.649c0-.735.583-.989,1.318-.558l19.241,11.1a2.722,2.722,0,0,1,1.318,2.079v22.946C250.4,238.951,249.812,239.2,249.077,238.773Zm146.956,84.848-19.241-11.1a2.718,2.718,0,0,1-1.318-2.079V287.5c0-.735.583-.989,1.318-.558l19.241,11.1a2.722,2.722,0,0,1,1.318,2.079V323.06c.026.738-.583.992-1.318.561Z" fill="url(#linear-gradient-23)"/>
        </g>
        <g id="Group_4072" data-name="Group 4072">
          <path id="Path_1826" data-name="Path 1826" d="M370.936,330.617l-19.241-11.1a2.718,2.718,0,0,1-1.318-2.079V272.92c0-.735.583-.989,1.318-.558l19.241,11.1a2.722,2.722,0,0,1,1.318,2.079v44.49C372.254,330.8,371.671,331.048,370.936,330.617Z" fill="url(#linear-gradient-24)"/>
          <path id="Path_1827" data-name="Path 1827" d="M360.872,275.835c-.253-.127-.482-.3-.735-.456v50.4c.33.152.684.3,1.014.456V275.962A2.919,2.919,0,0,0,360.872,275.835Z" fill="url(#linear-gradient-25)"/>
        </g>
        <g id="Group_4073" data-name="Group 4073">
          <path id="Path_1828" data-name="Path 1828" d="M274.148,274.77l-19.241-11.1a2.718,2.718,0,0,1-1.318-2.079V217.073c0-.735.583-.989,1.318-.558l19.241,11.1a2.718,2.718,0,0,1,1.321,2.083v44.49C275.469,274.948,274.883,275.2,274.148,274.77Z" fill="url(#linear-gradient-26)"/>
          <path id="Path_1829" data-name="Path 1829" d="M264.084,219.992c-.254-.127-.482-.3-.735-.456v50.4c.33.152.684.3,1.014.456V220.115A2.882,2.882,0,0,0,264.084,219.992Z" fill="url(#linear-gradient-27)"/>
        </g>
        <path id="Path_1831" data-name="Path 1831" d="M323.81,280.957c-.152.456-.634.583-1.242.254l-19.241-11.1a2.718,2.718,0,0,1-1.318-2.079V245.086a.65.65,0,0,1,.557-.73.7.7,0,0,1,.1-.005,1.041,1.041,0,0,0-.076.3v22.942a2.677,2.677,0,0,0,1.318,2.079l19.241,11.1A1.435,1.435,0,0,0,323.81,280.957Zm-24.184-13.765-19.241-11.1a2.718,2.718,0,0,1-1.318-2.079V231.067a.868.868,0,0,1,.076-.3.649.649,0,0,0-.665.633.581.581,0,0,0,.006.1v22.942a2.677,2.677,0,0,0,1.318,2.079l19.241,11.1c.608.355,1.09.228,1.242-.253a1.436,1.436,0,0,1-.66-.179Zm-49.941-28.849-19.241-11.1a2.718,2.718,0,0,1-1.318-2.079V202.193a.867.867,0,0,1,.076-.3.649.649,0,0,0-.665.633.581.581,0,0,0,.006.1v22.938a2.677,2.677,0,0,0,1.318,2.079l19.242,11.1c.608.355,1.09.228,1.242-.253A.939.939,0,0,1,249.685,238.343ZM346.7,294.367l-19.241-11.1a2.718,2.718,0,0,1-1.318-2.079V258.217a.867.867,0,0,1,.076-.3.649.649,0,0,0-.665.633.581.581,0,0,0,.006.1v22.942a2.677,2.677,0,0,0,1.318,2.079l19.241,11.1c.608.355,1.09.228,1.242-.253A1.1,1.1,0,0,1,346.7,294.367Zm49.94,28.821-19.24-11.1a2.718,2.718,0,0,1-1.318-2.079V287.066a.868.868,0,0,1,.076-.3.649.649,0,0,0-.665.633.581.581,0,0,0,.006.1v22.938a2.677,2.677,0,0,0,1.318,2.079l19.241,11.1c.608.355,1.09.228,1.242-.253a1.178,1.178,0,0,1-.662-.175Z" fill="#a7b8ba" opacity="0.9" style="isolation: isolate"/>
      </g>
      <path id="路径_2899" data-name="路径 2899" d="M482.442,333.605a22.544,22.544,0,0,0-1.033-7.729l-17.244-54.491c-1.394-7.732-12.523-4.183-25.173,3.093-10.334,5.963-20.651,14.6-24.069,21.931a9.889,9.889,0,0,0-.377,7.19l15.171,47.288A22.344,22.344,0,0,0,440.6,363.843l.194.1a22.567,22.567,0,0,0,21.769-.427l8.361-4.82a22.518,22.518,0,0,0,11.237-18.535Q482.305,336.885,482.442,333.605Z" fill="#fa8918"/>
      <path id="Path_1806" data-name="Path 1806" d="M271.225,158.565c-4.031-2.358-13.689.887-23.348,6.464-12.652,7.3-25.277,18.607-25.252,26.618L413.743,302.121c-.025-8.011,12.6-19.317,25.249-26.618,13.325-7.164,23.068-7.564,23.043-7.589Z" fill="#eb6e12"/>
    </g>
    <g id="组_4613" data-name="组 4613">
      <g id="Group_4061" data-name="Group 4061">
        <path id="Path_1809" data-name="Path 1809" d="M431.513,299.233a2.9,2.9,0,0,0-1.389,2.971l6.924,41.142a2.36,2.36,0,0,0,2.33,2.052c3.462.043,9.3-2.137,15.559-5.77,10.3-5.942,18.316-13.615,19.854-18.766a5.6,5.6,0,0,0,.108-2.457l-6.348-36.27a2.873,2.873,0,0,0-4.274-1.988Z" fill="url(#linear-gradient-28)"/>
        <g id="组_4612" data-name="组 4612">
          <g id="组_4611" data-name="组 4611" clip-path="url(#clip-path)">
            <g id="Group_4060" data-name="Group 4060">
              <path id="Path_1810" data-name="Path 1810" d="M419.612,297.2l45.526-26.267,9.575,5.513-45.5,26.289Z" fill="#bcc9ca" opacity="0.2" style="isolation: isolate"/>
            </g>
          </g>
        </g>
      </g>
      <path id="Path_1823" data-name="Path 1823" d="M437.028,343.324a2.361,2.361,0,0,0,2.329,2.053c3.463.043,9.3-2.138,15.56-5.771,10.3-5.942,18.316-13.615,19.854-18.766a5.6,5.6,0,0,0,.107-2.457l-.47-2.693-38.321,22.121Z" opacity="0.9" fill="url(#linear-gradient-29)" style="isolation: isolate"/>
    </g>
    <g id="组_4614" data-name="组 4614">
      <path id="路径_2900" data-name="路径 2900" d="M445.841,346.039a3.336,3.336,0,0,1,1.785-.855,11.738,11.738,0,0,1,5.223.61l5.212,1.428a7.815,7.815,0,0,1,3.416,1.567c1.709,1.614,1.546,4.589.056,6.407a8.249,8.249,0,0,1-6.3,2.639,12.862,12.862,0,0,1-6.535-1.676C445.789,354.5,442.877,349.061,445.841,346.039Z" fill="url(#linear-gradient-30)"/>
      <path id="路径_2901" data-name="路径 2901" d="M476.74,328.285a1.63,1.63,0,0,0-1.167.718,11.3,11.3,0,0,0-1.63,4.31l-1.157,4.881a10.379,10.379,0,0,0-.4,3.647c.278,2.414,2.045,4.4,3.653,4.588s2.988-1.087,3.9-2.8a14.444,14.444,0,0,0,1.517-6.04C481.612,334.251,479.6,328.23,476.74,328.285Z" fill="url(#linear-gradient-31)"/>
    </g>
    <ellipse id="椭圆_284" data-name="椭圆 284" cx="3.076" cy="4.147" rx="3.076" ry="4.147" transform="translate(449.459 346.408)" fill="#fff"/>
    <ellipse id="椭圆_285" data-name="椭圆 285" cx="2.795" cy="3.768" rx="2.795" ry="3.768" transform="translate(474.987 331.598)" fill="#fff"/>
    <path id="路径_2902" data-name="路径 2902" d="M372.254,282.887v-4.748L349.3,264.872v5.134Z" fill="#9dc33a"/>
  </g>
</svg>
