<svg xmlns="http://www.w3.org/2000/svg" width="172.831" height="133.664" viewBox="0 0 172.831 133.664">
  <g id="Group_4599" data-name="Group 4599" transform="translate(-872 -1081.699)">
    <path id="Path_2853" data-name="Path 2853" d="M894.042,1156.727l-2.527,1.714q-.144,1.052-.344,2.093a43.308,43.308,0,0,1-6.824,16.208c.057.1.11.2.17.29l2.5,3.958,29.028-16.747Z" transform="translate(-4.232 -25.714)" fill="#1d1b18"/>
    <path id="Path_2854" data-name="Path 2854" d="M995.346,1218.184,985.291,1225l-.3.66a13.454,13.454,0,0,0,.835,12.827l2.5,3.959,29.028-16.747Z" transform="translate(-38.298 -46.777)" fill="#1d1b18"/>
    <g id="Group_4603" data-name="Group 4603" transform="translate(872 1081.699)">
      <g id="Group_4599-2" data-name="Group 4599" transform="translate(130.845 45.791)">
        <path id="Path_2855" data-name="Path 2855" d="M1075.631,1158.269l-2.9,1.594-1.658,4.65h1.056l1.493-3.957,2.431-1.478a5.981,5.981,0,0,0-.331-1.227Z" transform="translate(-1071.073 -1153.589)" fill="#333335"/>
        <path id="Path_2856" data-name="Path 2856" d="M1086.567,1151.367l-8.107,2.808-.316,1.454a5.991,5.991,0,0,1,.331,1.227l.045-.027v.312a15.762,15.762,0,0,1,.083,1.984,15.762,15.762,0,0,0-.083-1.984v2.668l1.786.671,6.721-3.651.419-2.653Z" transform="translate(-1073.496 -1151.367)" fill="#bfc1c3"/>
      </g>
      <path id="Path_2857" data-name="Path 2857" d="M1016.157,1264.829c1.377-.954,2.211-2.788,2.192-5.333-.04-5.412-3.914-11.981-8.649-14.669-2.111-1.2-4.039-1.423-5.523-.822-.266.105-4.03,2.342-4.2,2.467-1.338.965-2.147,2.781-2.124,5.285.038,5.412,3.91,11.98,8.645,14.668,2.241,1.274,4.276,1.447,5.791.706Z" transform="translate(-915.133 -1137.216)"/>
      <path id="Path_2858" data-name="Path 2858" d="M996.6,1253.533c.041,5.416,3.911,11.983,8.646,14.672s8.547.481,8.508-4.929-3.91-11.984-8.648-14.673S996.563,1248.122,996.6,1253.533Z" transform="translate(-914.705 -1138.509)" fill="#121212"/>
      <path id="Path_2859" data-name="Path 2859" d="M1000.492,1257.215a12.933,12.933,0,0,0,5.95,10.088c3.256,1.852,5.877.331,5.851-3.391a12.947,12.947,0,0,0-5.952-10.091C1003.086,1251.972,1000.468,1253.49,1000.492,1257.215Z" transform="translate(-916.038 -1140.42)" fill="#c3c3c3"/>
      <path id="Path_2860" data-name="Path 2860" d="M909.5,1203.978c1.375-.951,2.205-2.786,2.189-5.328-.041-5.414-3.911-11.98-8.647-14.67-2.111-1.2-4.038-1.424-5.524-.823-.264.105-4.028,2.343-4.2,2.47-1.339.964-2.145,2.78-2.126,5.282.037,5.413,3.912,11.981,8.647,14.671,2.235,1.271,4.271,1.446,5.789.7Z" transform="translate(-878.578 -1116.361)"/>
      <path id="Path_2861" data-name="Path 2861" d="M889.947,1192.687c.039,5.415,3.914,11.981,8.648,14.669s8.546.482,8.508-4.93-3.914-11.981-8.648-14.671S889.91,1187.275,889.947,1192.687Z" transform="translate(-878.151 -1117.655)" fill="#121212"/>
      <path id="Path_2862" data-name="Path 2862" d="M893.833,1196.369a12.963,12.963,0,0,0,5.949,10.088c3.26,1.848,5.879.333,5.853-3.394a12.942,12.942,0,0,0-5.948-10.089C896.429,1191.127,893.807,1192.646,893.833,1196.369Z" transform="translate(-879.483 -1119.567)" fill="#c3c3c3"/>
      <path id="Path_2863" data-name="Path 2863" d="M1041.28,1261.008a.418.418,0,0,1-.04.018Z" transform="translate(-930.003 -1143.153)" fill="#f1b176"/>
      <path id="Path_2864" data-name="Path 2864" d="M1044.161,1175.615c.02-.256.056.853.114.723-.05.111-.095-1.091-.142-.979-.03-.258-.062.8-.1.534v-.005l0-.02q-.121-.941-.275-1.9l0-.011q-.157-.963-.352-1.936l-.01-.046q-.189-.934-.419-1.87c-.013-.051-.026-.1-.04-.155q-.221-.885-.482-1.762c-.021-.068-.042-.137-.062-.205q-.235-.768-.5-1.526a8.83,8.83,0,0,0-1.1-3.834,8.737,8.737,0,0,1-.127.867v0a4.731,4.731,0,0,0-.214-1.4c-.306-.571-.631-1.128-.98-1.667-3.213-4.96-11.851-9.036-16.767-12.317l-18.528-12.141-12.453-26.587q-1.235-1.453-2.507-2.877c-4.128-2.542-15.523-9.442-26.943-15.306-8.591-4.639-15.912-9.129-24.325-9.351-.222-.014-3.585-.154-5.582-.141a79.669,79.669,0,0,0-9.562.973c-13.884,2.024-40.761,23.033-40.761,23.033l-5.439,14.964s-.014.044-.033.106l-.221.028a56.172,56.172,0,0,0-1.919,9c-.353,2.808-.581,9.176-.712,14.136l8.646,10.934.864.667a7.567,7.567,0,0,1,6.931-5.382l.369-.227c.3.067.6.158.9.258a3.065,3.065,0,0,1,1.323.534c4.778,2.261,9.693,8.219,10.389,15.93l-.032-.018.074,2.221,33.405,19.03,14.1,8.316c2.525-4.479,6.193-7.845,10.885-7.1v-.2a16.727,16.727,0,0,1,4.8,1.875,16.2,16.2,0,0,1,5.514,4.87c.514,1.132,1.387,3.092,2.1,4.854a24.224,24.224,0,0,1,.546,3.255l.419-.189c.005.03.011.06.016.091a25.176,25.176,0,0,1,0,5.709l.036.012-.015.13s18.688,5.816,22.315,5.848a43.848,43.848,0,0,0,14.122-2.222l.025-.073c7.028-.776,12.828-3.937,18.258-7.479,4.623-3.016,8.2-6.086,9.954-8.847a6.787,6.787,0,0,0,.937-2.459c1.439-1.459,2.4-1.974,3.275-4.144a11.863,11.863,0,0,0,.826-4.652C1044.651,1183.125,1044.605,1179.562,1044.161,1175.615Z" transform="translate(-872.588 -1081.699)" fill="#d1d2d4"/>
      <path id="Path_2865" data-name="Path 2865" d="M1044.68,1173.372c-.02-.2-.024-.283.008-.019l.005-.013c-.035-.3-.373-1.569-.477-2.208l0-.01c-.1-.642-1.128-4.527-1.3-5.112-.021-.068-.042-.137-.062-.2q-.235-.768-.5-1.526c0-.034-.009-.068-.012-.1-.1-1.276-1.405-2.77-1.754-3.309a14.86,14.86,0,0,0-2.312-2.671l.013-.005c-2.854-2.692-6.96-5.089-10.534-7.212-.6-.356-1.187-.707-1.748-1.048l-.32-.195c-.226-.139-.447-.276-.664-.412l-.291-.183-.023-.014c-.306-.194-.6-.387-.888-.576l-17.871-12.141-6.452-12.37-6.658-14.216q-1.235-1.453-2.507-2.878c-4.128-2.542-15.524-9.442-26.943-15.306q-1.072-.579-2.119-1.152-1.137-.621-2.249-1.227l-.094-.051q-1.041-.565-2.066-1.108l-.208-.109q-.917-.484-1.824-.942l-.272-.138c-1.332-.668-2.653-1.288-3.972-1.848l-.283-.118a40.937,40.937,0,0,0-3.982-1.437l-.091-.03,0,0c-2.333-.692-19.294-.431-19.464-.416-14.007.83-40.937,22.486-40.937,22.486l-13.785,17.3-.033.106s21.089,5.058,35.614,13.156a32.374,32.374,0,0,1,3.832,4.933c4.83,7.722,6.154,17.956,13.364,23.52,4.968,3.833,11.716,4.5,17.959,3.862,6.208-.636,12.265-2.406,18.484-2.925,1.038.557,1.88,1.006,2.488,1.324l.032.005c1.224.659,2.209,1.184,2.9,1.547.189.1,7.19,4,7.338,4.125,10.226,8.349,8.065,10.819,12.665,15.166,5.653,5.653,5.665,5.085,6.077,8.875a5.13,5.13,0,0,0,4.635,4.58,44.793,44.793,0,0,0,16.417-1.515l4.9,7.82a4.922,4.922,0,0,0,6.511,1.721,69.875,69.875,0,0,0,9.287-5.706c3.235-2.723,6.7-6.225,6.876-7.488a95.933,95.933,0,0,0,.532-13.829C1045.1,1178.468,1045,1176.9,1044.68,1173.372Z" transform="translate(-872 -1082.147)" fill="#ededed"/>
      <path id="Path_2866" data-name="Path 2866" d="M1031.838,1135.959c5.641,3.7,11.3,7.374,17.088,10.851q3.7,2.225,7.414,4.428a2.439,2.439,0,0,0-.26-1l-10.316-19.983a2.7,2.7,0,0,0-3.815-.939l-10.627,6.292C1031.494,1135.729,1031.667,1135.847,1031.838,1135.959Z" transform="translate(-926.604 -1097.877)" fill="#b3b3b3"/>
      <path id="Path_2867" data-name="Path 2867" d="M998.563,1211.975c-2.969-6.653-7.526-12.41-12.411-17.751-2.107-2.3-13.493-12.624-14.331-13.539-5.168-5.634-11.483-11.425-15.188-18.149-3.879-7.039-5.382-11.39-10.392-19.9-1.706-2.9-6.337-6.123-9.225-7.515-5.442-2.622-24.3-13.252-31.852-17.117-3.067-1.492-10.673-2.732-16.12-3.472a8.539,8.539,0,0,0-8.773,4.64c-3.231,6.441-8.178,16.538-8.128,17.894l.812,22.334.937,1.449,8.794,5.923a7.566,7.566,0,0,1,6.931-5.382l.369-.228c.3.067.6.158.9.258a3.065,3.065,0,0,1,1.323.534c4.778,2.261,9.693,8.219,10.389,15.93l-.032-.018.074,2.221,33.405,19.03,14.1,8.317c2.525-4.479,6.193-7.844,10.885-7.1v-.2a16.731,16.731,0,0,1,4.8,1.875,16.2,16.2,0,0,1,5.514,4.87c.514,1.133,1.387,3.092,2.1,4.854a24.22,24.22,0,0,1,.546,3.255l.419-.189c.005.03.011.06.016.091a25.176,25.176,0,0,1,0,5.709l.036.013c-.009.076-.015.129-.015.129s18.688,5.816,22.315,5.849a42.918,42.918,0,0,0,6.531-.446A69.1,69.1,0,0,0,998.563,1211.975Z" transform="translate(-872.049 -1092.924)" fill="#9aa0a7"/>
      <path id="Path_2868" data-name="Path 2868" d="M991.734,1212.892c-.169-.143-.338-.287-.507-.428a79.466,79.466,0,0,0-13.585-9.423c-4.987-2.651-10.427-4.579-16.142-4.268a26.987,26.987,0,0,1-5.765.133,23.3,23.3,0,0,1-6.889-2.814c-2.953-1.581-5.726-3.454-8.6-5.167q-4.5-2.678-9.05-5.252c-5.863-3.31-11.786-6.658-17.893-9.5-4.451-2.073-9.226-3.372-13.573-5.687a17.772,17.772,0,0,1-5.428-4.167,27.343,27.343,0,0,1-3.593-6.489,18.08,18.08,0,0,0-4.172-6.391,15.289,15.289,0,0,0-5.227-2.84c-3.248-1.08-7.261-1.159-8.978,2.069l.688,18.888.937,1.449,8.794,5.923a7.566,7.566,0,0,1,6.931-5.382l.369-.227c.3.067.6.158.9.258a3.065,3.065,0,0,1,1.323.534c4.778,2.261,9.693,8.219,10.389,15.93l-.032-.018.074,2.221,33.405,19.03,14.1,8.316c2.525-4.479,6.193-7.844,10.885-7.1v-.2a16.731,16.731,0,0,1,4.8,1.875,16.2,16.2,0,0,1,5.514,4.87c.514,1.133,1.388,3.092,2.1,4.854a24.2,24.2,0,0,1,.546,3.255l.419-.188c.005.03.011.06.016.091a25.176,25.176,0,0,1,0,5.709l.036.013c-.009.076-.015.129-.015.129s18.69,5.816,22.316,5.849a42.949,42.949,0,0,0,6.531-.447,69.1,69.1,0,0,0-4.728-14.165A55.441,55.441,0,0,0,991.734,1212.892Z" transform="translate(-872.114 -1105.083)" fill="#658b2e"/>
      <path id="Path_2869" data-name="Path 2869" d="M916.8,1191.893c-3.762-7.37-13.752-19.84-17.068-21.407a15.884,15.884,0,0,1-5.428-4.167,27.343,27.343,0,0,1-3.593-6.489,18.08,18.08,0,0,0-4.172-6.391,15.289,15.289,0,0,0-5.227-2.84c-3.248-1.08-7.261-1.159-8.978,2.069l.688,18.888.937,1.449,8.794,5.923a7.566,7.566,0,0,1,6.931-5.382l.369-.227c.3.067.6.158.9.258a3.065,3.065,0,0,1,1.323.534c4.778,2.261,9.693,8.219,10.389,15.93l-.032-.018.074,2.221,18.727,10.668A84.827,84.827,0,0,0,916.8,1191.893Z" transform="translate(-872.114 -1105.083)" fill="#68581e" style="mix-blend-mode: multiply;isolation: isolate"/>
      <path id="Path_2870" data-name="Path 2870" d="M896.229,1156.842" transform="translate(-880.304 -1107.453)" fill="#b4b7b9"/>
      <path id="Path_2871" data-name="Path 2871" d="M1095.471,1236.079c-.033-1.72-.068-4.083-.256-6.762-8.926,12.889-23.25,19.56-38.691,21.287-11.6,1.3-24.1-.149-34.663-5.4.283.338.552.684.8,1.044.514,1.133,1.388,3.092,2.1,4.854a24.186,24.186,0,0,1,.546,3.255l.419-.188c.005.03.011.06.016.091a25.179,25.179,0,0,1,0,5.709l.035.013-.015.129s18.688,5.816,22.315,5.848a43.821,43.821,0,0,0,14.122-2.222l.025-.072a34.351,34.351,0,0,0,11.969-3.772,4.888,4.888,0,0,0,2.387-.588,69.869,69.869,0,0,0,9.287-5.706c3.236-2.723,6.7-6.225,6.876-7.489.126-.887.224-1.848.3-2.846a7.285,7.285,0,0,0,1.6-2.529A11.86,11.86,0,0,0,1095.471,1236.079Z" transform="translate(-923.362 -1132.292)" fill="#b6b7b9" style="mix-blend-mode: multiply;isolation: isolate"/>
      <path id="Path_2872" data-name="Path 2872" d="M1041.617,1216.793c23.855,1.794,46.94-18.564,44.385-26.359-.286-.525-.341-1.123-.667-1.619-1.655-2.518-4.748-4.716-8.12-7.023-1.543-1.055-3.192-1.961-4.713-2.865-.6-.356-1.187-.707-1.748-1.048l-.32-.195q-.339-.208-.665-.412l-.291-.183-.023-.015c-.306-.194-.6-.387-.888-.576l-8.182-5.559c-.032.04-.062.08-.094.12-.053-.1-.111-.2-.165-.295l-9.149-6.215c-6.583,6.123-9.494,7.452-19.686,13.82-8.492,5.306-13.79,9.14-23.745,10.227,2.79,5.434,2.79,5.434,6.463,9.174,5.925,6.779,17.471,15.314,19.435,16.54A17.309,17.309,0,0,0,1041.617,1216.793Z" transform="translate(-918.456 -1110.094)" fill="#d9d9d9"/>
      <path id="Path_2873" data-name="Path 2873" d="M1043.662,1152.352c-.595-1.765-12.264-24.265-12.264-24.265a3.7,3.7,0,0,0-5.125-1.7l-36.379,21.883a3.655,3.655,0,0,0-1.67,4.244l11.642,20.694a3.735,3.735,0,0,0,4.864,2.482c17.035-6.439,27.593-12.782,38.932-23.336" transform="translate(-911.78 -1096.857)" fill="#0f0f0f"/>
      <path id="Path_2874" data-name="Path 2874" d="M1027.908,1129.319l-36.129,21.39a2.7,2.7,0,0,0-1.056,3.71l11.617,18.7a2.689,2.689,0,0,0,3.328.968c15.462-6.276,25.663-11.906,35.653-20.615a2.683,2.683,0,0,0,.719-3.236l-10.317-19.983A2.7,2.7,0,0,0,1027.908,1129.319Z" transform="translate(-912.563 -1097.877)" fill="#757575"/>
      <g id="Group_4601" data-name="Group 4601" transform="translate(12.798 25.701)">
        <path id="Path_2875" data-name="Path 2875" d="M947.854,1147.283a19.929,19.929,0,0,0-6.844-6.043c-8-4.28-31.321-15.469-41.549-20.017a4.862,4.862,0,0,0-6.707,3.324l-1.283,12.265s64.663,32.573,73.44,36.966c.538.269,1.209-.325.883-.832C963.191,1168.9,952.841,1154.3,947.854,1147.283Z" transform="translate(-891.472 -1120.801)" fill="#1f1d1b"/>
        <g id="Group_4600" data-name="Group 4600" transform="translate(1.974 1.667)">
          <path id="Path_2876" data-name="Path 2876" d="M894.476,1138.2c7.98,4.207,25.658,11.953,36.993,17.894a72.469,72.469,0,0,1,3.043-16.029c-8.874-4.772-28.3-13.483-35.144-16.486a2.877,2.877,0,0,0-2-.122C896.609,1123.687,894.687,1136.519,894.476,1138.2Z" transform="translate(-894.476 -1123.337)" fill="#464749" stroke="#1f1d1b" stroke-miterlimit="10" stroke-width="0.9"/>
          <path id="Path_2877" data-name="Path 2877" d="M966.317,1157.715a18.825,18.825,0,0,0-6.416-5.666l-4.772-2.562a72.031,72.031,0,0,0-2.977,16.052c14,7.333,27.027,14.131,30.778,16.009.006,0,.119.012.119.012C980.487,1177.585,970.671,1163.84,966.317,1157.715Z" transform="translate(-914.243 -1132.3)" fill="#464749" stroke="#1f1d1b" stroke-miterlimit="10" stroke-width="0.9"/>
        </g>
      </g>
      <path id="Path_2878" data-name="Path 2878" d="M1099.207,1232.01c-2.959,1.842-5.982,3.238-7.977,4.254-1.526.777-2.45,1.268-2.286,1.952.394,1.643,1.948,5.014,3.173,5.986,5.83-1.3,17.307-9.687,18.983-12.915.489-.942-.942-5.974-1.834-7.763A48.958,48.958,0,0,1,1099.207,1232.01Z" transform="translate(-946.346 -1130.306)" fill="#292623"/>
      <g id="Group_4602" data-name="Group 4602" transform="translate(123.989 84.882)">
        <path id="Path_2879" data-name="Path 2879" d="M1065.209,1249.524c-1.876-.027-3.353-.131-4.567-.238q2.487,4.559,4.577,9.311a38.865,38.865,0,0,0,4.244-.175Q1067.474,1253.909,1065.209,1249.524Z" transform="translate(-1060.642 -1224.017)" fill="#658b2e"/>
        <path id="Path_2880" data-name="Path 2880" d="M1083.053,1256.621l.021-.01c2.536-1.323.077-7.76-2.212-7.557-.417.037-.82.07-1.216.1Q1081.424,1252.854,1083.053,1256.621Z" transform="translate(-1067.155 -1223.936)" fill="#658b2e"/>
        <path id="Path_2881" data-name="Path 2881" d="M1074.55,1249.43c-1.324.077-2.524.121-3.608.139q2.166,4.262,4.078,8.644a23.2,23.2,0,0,0,3.225-.742Q1076.487,1253.411,1074.55,1249.43Z" transform="translate(-1064.172 -1224.067)" fill="#658b2e"/>
        <path id="Path_2882" data-name="Path 2882" d="M1131.212,1222.2a8.635,8.635,0,0,0,.714-2.976c-.019-2.013-1.07-6.734-2.28-8.382a27.4,27.4,0,0,1-.8,2.8C1129.649,1216.49,1130.426,1219.345,1131.212,1222.2Z" transform="translate(-1084.017 -1210.841)" fill="#658b2e"/>
        <path id="Path_2883" data-name="Path 2883" d="M1126.686,1219.8a11.348,11.348,0,0,0-.641,1.779c-.294,1.684,1.058,7.012,1.7,7.283.259.11.7-.313,1.165-1.006C1128.16,1225.167,1127.429,1222.479,1126.686,1219.8Z" transform="translate(-1083.043 -1213.91)" fill="#658b2e"/>
      </g>
      <path id="Path_2884" data-name="Path 2884" d="M1115.077,1245.759l-14.72,9.871v5.292l14.72-9.87Z" transform="translate(-950.264 -1137.927)" fill="#292623"/>
      <path id="Path_2885" data-name="Path 2885" d="M1116.74,1245.815l-14.72,9.87v5.292l14.72-9.87Z" transform="translate(-950.834 -1137.946)" fill="#2a4f9e"/>
      <path id="Path_2886" data-name="Path 2886" d="M963.235,1190.638l-5.459-3.152a1.16,1.16,0,0,1-.559-.881v-.774c0-.308.25-.414.559-.236l5.459,3.152a1.162,1.162,0,0,1,.559.882v.774C963.794,1190.71,963.543,1190.816,963.235,1190.638Z" transform="translate(-901.206 -1117.277)" fill="#1f1d1b"/>
      <path id="Path_2887" data-name="Path 2887" d="M913.582,1161.971l-5.459-3.152a1.159,1.159,0,0,1-.559-.881v-.774c0-.309.25-.415.559-.237l5.459,3.152a1.158,1.158,0,0,1,.559.881v.774C914.141,1162.043,913.891,1162.149,913.582,1161.971Z" transform="translate(-884.189 -1107.452)" fill="#1f1d1b"/>
    </g>
    <g id="Group_4604" data-name="Group 4604" transform="translate(941.292 1158.779)">
      <path id="Path_2888" data-name="Path 2888" d="M985.07,1200.1l-.741-1.124-6.907,3.934v5.935l1.307.57,6.571-4.25-.282-3.588.379-.361c-.079-.384-.171-.767-.264-1.151Z" transform="translate(-977.423 -1198.972)" fill="#d1d2d4"/>
      <path id="Path_2889" data-name="Path 2889" d="M993.3,1202.062l.85-.46-3.084-2.6-1.919,1.072c.093.384.185.767.264,1.151l1.112-1.062Z" transform="translate(-981.443 -1198.981)" fill="#333335"/>
    </g>
    <g id="Group_4605" data-name="Group 4605" transform="translate(951.302 1102.568)">
      <path id="Path_2890" data-name="Path 2890" d="M1018.562,1122.343l-17.372,11.079.137-7.917,17.236-10.054Z" transform="translate(-995.579 -1114.135)" fill="#fff"/>
      <path id="Path_2891" data-name="Path 2891" d="M1016.779,1114.783l-17.372,10.03-3.42-1.333,17.372-10.031Z" transform="translate(-993.796 -1113.45)" fill="#f3f4f4"/>
      <path id="Path_2892" data-name="Path 2892" d="M998.264,1138.023l-5.611-3.46,2.191-5.686,3.556,1.228Z" transform="translate(-992.653 -1118.738)" fill="#c8d1d9"/>
    </g>
    <g id="Group_4606" data-name="Group 4606" transform="translate(990.121 1179.923)">
      <path id="Path_2893" data-name="Path 2893" d="M1053.081,1237.89a3.82,3.82,0,0,1,2.291-6.738,37.8,37.8,0,0,1,6.153.415c5.008.676,10.466,1.944,13.444,6.027-3.033,1.531-8.807,2.1-15.44,1.628-1.918-.137-4.57-.191-6.253-1.187A1.663,1.663,0,0,1,1053.081,1237.89Z" transform="translate(-1051.714 -1231.141)" fill="#a6d4d9"/>
      <path id="Path_2894" data-name="Path 2894" d="M1055.21,1231.186a3.815,3.815,0,0,0-2.128,6.719,1.743,1.743,0,0,0,.2.145,7.616,7.616,0,0,0,2.565.836A48.723,48.723,0,0,1,1055.21,1231.186Z" transform="translate(-1051.715 -1231.156)" fill="#b44b21"/>
    </g>
    <g id="Group_4607" data-name="Group 4607" transform="translate(1032.015 1155.434)">
      <path id="Path_2895" data-name="Path 2895" d="M1121.816,1196.655c-1.618-2.771-5.6-3.787-6.059-1.543a20.241,20.241,0,0,0-.3,4.262c.048,3.623-.1,7.156,3.106,10.981,1.646-1.312,3.413-4.219,3.712-8.826a9.962,9.962,0,0,0-.356-4.679A2.111,2.111,0,0,0,1121.816,1196.655Z" transform="translate(-1115.454 -1193.883)" fill="#a6d4d9"/>
      <path id="Path_2896" data-name="Path 2896" d="M1115.967,1195.014c.566-2.1,4.434-1.082,6.025,1.643a2.026,2.026,0,0,1,.1.194,6,6,0,0,1,.447,2.078A76.346,76.346,0,0,0,1115.967,1195.014Z" transform="translate(-1115.63 -1193.886)" fill="#b44b21"/>
    </g>
  </g>
</svg>
