<svg xmlns="http://www.w3.org/2000/svg" width="302" height="243.813" viewBox="0 0 302 243.813">
  <g id="Group_4589" data-name="Group 4589" transform="translate(-41.831 -28.328)">
    <g id="Group_4596" data-name="Group 4596" transform="translate(41.831 28.328)">
      <path id="Path_1534" data-name="Path 1534" d="M276.312,273.638a16.364,16.364,0,0,0-7.281-12.895c-2.134-1.276-4.067-1.349-5.438-.475l.018-.255-4.793,2.918c-1.678.583-2.754,2.335-2.772,5a16.364,16.364,0,0,0,7.281,12.895c2.316,1.368,4.4,1.368,5.763.237l4.559-2.463C275.254,277.943,276.279,276.229,276.312,273.638Z" transform="translate(-58.613 -46.453)" fill="#37282c"/>
      <path id="Path_1535" data-name="Path 1535" d="M276.78,273.638a16.364,16.364,0,0,0-7.281-12.895c-4.067-2.426-7.423-.547-7.478,4.159A16.362,16.362,0,0,0,269.3,277.8C273.373,280.2,276.725,278.344,276.78,273.638Z" transform="translate(-59.081 -46.453)" fill="#37282c"/>
      <path id="Path_1536" data-name="Path 1536" d="M270.8,276.9a16.364,16.364,0,0,0-7.281-12.895c-4.086-2.407-7.423-.547-7.478,4.158a16.362,16.362,0,0,0,7.281,12.895C267.4,283.469,270.749,281.609,270.8,276.9Z" transform="translate(-58.613 -46.71)" fill="#3b3b3c"/>
      <path id="Path_1539" data-name="Path 1539" d="M268.19,276.325a11.53,11.53,0,0,0-5.107-9.065c-2.864-1.7-5.217-.383-5.253,2.918a11.477,11.477,0,0,0,5.125,9.064C265.8,280.922,268.153,279.627,268.19,276.325Z" transform="translate(-58.753 -46.989)" fill="#a3a7ac"/>
      <path id="Path_1540" data-name="Path 1540" d="M269.259,260.723c-2.134-1.276-4.067-1.349-5.438-.475l.018-.255-4.793,2.918a1.148,1.148,0,0,0-.146.054c3.812-1.9,15.794,8.207,11.253,17.618l3.721-2.006c1.6-.62,2.627-2.353,2.663-4.943A16.409,16.409,0,0,0,269.259,260.723Z" transform="translate(-58.837 -46.452)" fill="#070202"/>
      <path id="Path_1541" data-name="Path 1541" d="M101.374,171.8a16.364,16.364,0,0,0-7.281-12.895c-2.134-1.258-4.067-1.349-5.438-.475l.018-.255L83.881,161.1c-1.678.583-2.754,2.335-2.791,5a16.34,16.34,0,0,0,7.3,12.895c2.316,1.368,4.4,1.368,5.763.237l4.562-2.459C100.318,176.126,101.355,174.393,101.374,171.8Z" transform="translate(-44.907 -38.476)" fill="#37282c"/>
      <path id="Path_1542" data-name="Path 1542" d="M101.844,171.8a16.364,16.364,0,0,0-7.281-12.895c-4.067-2.426-7.423-.565-7.478,4.158a16.364,16.364,0,0,0,7.281,12.895C98.453,178.368,101.789,176.508,101.844,171.8Z" transform="translate(-45.376 -38.475)" fill="#37282c"/>
      <path id="Path_1543" data-name="Path 1543" d="M95.867,175.088a16.364,16.364,0,0,0-7.281-12.895c-4.086-2.407-7.423-.547-7.478,4.159a16.337,16.337,0,0,0,7.3,12.895C92.475,181.654,95.812,179.794,95.867,175.088Z" transform="translate(-44.908 -38.733)" fill="#3b3b3c"/>
      <path id="Path_1546" data-name="Path 1546" d="M93.253,174.49a11.507,11.507,0,0,0-5.107-9.065c-2.864-1.7-5.217-.383-5.253,2.918a11.477,11.477,0,0,0,5.125,9.064C90.865,179.105,93.216,177.81,93.253,174.49Z" transform="translate(-45.048 -39.011)" fill="#a3a7ac"/>
      <path id="Path_1547" data-name="Path 1547" d="M94.322,158.909c-2.134-1.258-4.067-1.349-5.438-.475l.018-.255L84.11,161.1a1.15,1.15,0,0,0-.146.054c3.81-1.9,15.793,8.209,11.252,17.62l3.721-2.028c1.6-.62,2.627-2.353,2.663-4.943C101.654,167.1,98.389,161.334,94.322,158.909Z" transform="translate(-45.132 -38.476)" fill="#070202"/>
      <path id="Path_2797" data-name="Path 2797" d="M336.847,233.7l-.906.523c-.628-1.948-.629.281-.629-6.244,0-13.522,2.147-39,.753-53.373a47.867,47.867,0,0,0-2.026-4.947l-4.721-8.337L95.344,29.062,45.748,56.02l-.159-.092-.565.218-.052.651-.964,4.959-.173.89L42.8,67.984l1.576.912L42.743,68l.019,11.675-.128-.075V117.32l.192.111.022,13.072-1.017.514v1.7l.05-.026,35.863,20.855c.02-.216.053-.43.09-.642l7.128-3.252c.286.124.579.265.879.428,4.323,2.336,6.137,6.812,6.863,10.726l-.1-.055a15.79,15.79,0,0,1,.276,1.787l146.148,84.5c0-.1.024-.2.034-.3l6.586-3.718c.121.059.24.112.362.181,5.6,3.1,7.653,7.185,8.385,11.067l-.232-.134a15.8,15.8,0,0,1,.276,1.787l27.634,15.926.023.356.306-.166.234.135h0l18.945-10.579,36.65-19.958v-3.394Z" transform="translate(-41.831 -28.385)" fill="#c2c2c3"/>
      <g id="Group_4593" data-name="Group 4593" transform="translate(0 27.633)">
        <g id="Group_4589-2" data-name="Group 4589" transform="translate(0.803)">
          <path id="Path_2798" data-name="Path 2798" d="M300.7,261.228q.007.848.014,1.676Q300.706,262.075,300.7,261.228Z" transform="translate(-62.914 -74.207)" fill="#c2c2c3"/>
          <path id="Path_2799" data-name="Path 2799" d="M300.746,267.264q.005.737.01,1.451C300.752,268.238,300.75,267.756,300.746,267.264Z" transform="translate(-62.918 -74.68)" fill="#c2c2c3"/>
          <path id="Path_2800" data-name="Path 2800" d="M300.716,263.273q.007.84.013,1.661C300.724,264.387,300.721,263.832,300.716,263.273Z" transform="translate(-62.916 -74.368)" fill="#c2c2c3"/>
          <path id="Path_2801" data-name="Path 2801" d="M300.758,269.1q.006.787.01,1.541Q300.764,269.883,300.758,269.1Z" transform="translate(-62.919 -74.824)" fill="#c2c2c3"/>
          <path id="Path_2802" data-name="Path 2802" d="M300.732,265.371q.006.673.01,1.329Q300.737,266.043,300.732,265.371Z" transform="translate(-62.917 -74.532)" fill="#c2c2c3"/>
          <path id="Path_2803" data-name="Path 2803" d="M300.662,264q.007.781.014,1.553Q300.669,264.784,300.662,264Z" transform="translate(-62.912 -74.425)" fill="#c2c2c3"/>
          <path id="Path_2804" data-name="Path 2804" d="M300.622,259.687q.008.915.017,1.826Q300.631,260.6,300.622,259.687Z" transform="translate(-62.908 -74.087)" fill="#c2c2c3"/>
          <path id="Path_2805" data-name="Path 2805" d="M300.6,257.475l.017,1.778Z" transform="translate(-62.907 -73.913)" fill="#c2c2c3"/>
          <path id="Path_2806" data-name="Path 2806" d="M300.642,261.744q.008.965.018,1.923Q300.65,262.71,300.642,261.744Z" transform="translate(-62.91 -74.248)" fill="#c2c2c3"/>
          <path id="Path_2807" data-name="Path 2807" d="M300.681,265.683c0,.557.009-5.342.014-4.793C300.69,260.342,300.686,266.24,300.681,265.683Z" transform="translate(-62.913 -74.178)" fill="#c2c2c3"/>
          <path id="Path_2808" data-name="Path 2808" d="M300.779,272.559q0,.723.006,1.4C300.784,273.508,300.782,273.042,300.779,272.559Z" transform="translate(-62.921 -75.095)" fill="#c2c2c3"/>
          <path id="Path_2809" data-name="Path 2809" d="M280.392,241.488c-.142-14.473-.313-35.148-.313-35.148l-1.225-14.066L45.422,58.31l-.33.128-.052.651-.964,4.959-.173.89-1.037,5.336,1.576.912-1.631-.894.019,11.675-.128-.075v22.651l237.673,135.19Q280.383,240.609,280.392,241.488Z" transform="translate(-42.702 -58.31)" fill="#c2c2c3"/>
          <path id="Path_2810" data-name="Path 2810" d="M300.786,274.117c0,.451,0,.885,0,1.306C300.79,275,300.788,274.568,300.786,274.117Z" transform="translate(-62.921 -75.217)" fill="#c2c2c3"/>
          <path id="Path_2811" data-name="Path 2811" d="M300.8,277.1c0,.373,0,.734,0,1.073C300.8,277.837,300.8,277.476,300.8,277.1Z" transform="translate(-62.922 -75.451)" fill="#c2c2c3"/>
          <path id="Path_2812" data-name="Path 2812" d="M300.769,270.829q.005.78.008,1.522C300.775,271.858,300.773,271.349,300.769,270.829Z" transform="translate(-62.92 -74.96)" fill="#c2c2c3"/>
          <path id="Path_2813" data-name="Path 2813" d="M300.792,275.682q0,.6,0,1.156C300.794,276.468,300.793,276.082,300.792,275.682Z" transform="translate(-62.922 -75.34)" fill="#c2c2c3"/>
          <path id="Path_2814" data-name="Path 2814" d="M300.677,265.689l0,.373Z" transform="translate(-62.913 -74.557)" fill="#c2c2c3"/>
          <path id="Path_2815" data-name="Path 2815" d="M300.8,276.936v0Z" transform="translate(-62.922 -75.438)" fill="#c2c2c3"/>
          <path id="Path_2816" data-name="Path 2816" d="M300.661,263.83v0Z" transform="translate(-62.912 -74.411)" fill="#c2c2c3"/>
          <path id="Path_2817" data-name="Path 2817" d="M300.6,257.059l0,.383Z" transform="translate(-62.907 -73.881)" fill="#c2c2c3"/>
          <path id="Path_2818" data-name="Path 2818" d="M300.641,261.668v0Z" transform="translate(-62.91 -74.242)" fill="#c2c2c3"/>
          <path id="Path_2819" data-name="Path 2819" d="M300.619,259.4l0,.261Z" transform="translate(-62.908 -74.064)" fill="#c2c2c3"/>
          <path id="Path_2820" data-name="Path 2820" d="M300.769,270.767v0Z" transform="translate(-62.92 -74.955)" fill="#c2c2c3"/>
          <path id="Path_2821" data-name="Path 2821" d="M300.791,275.534v0Z" transform="translate(-62.922 -75.328)" fill="#c2c2c3"/>
          <path id="Path_2822" data-name="Path 2822" d="M300.743,266.813l0,.416Z" transform="translate(-62.918 -74.645)" fill="#c2c2c3"/>
          <path id="Path_2823" data-name="Path 2823" d="M300.73,265.075l0,.273Z" transform="translate(-62.917 -74.509)" fill="#c2c2c3"/>
          <path id="Path_2824" data-name="Path 2824" d="M300.757,268.838v0Z" transform="translate(-62.919 -74.804)" fill="#c2c2c3"/>
          <path id="Path_2825" data-name="Path 2825" d="M300.778,272.48v0Z" transform="translate(-62.921 -75.089)" fill="#c2c2c3"/>
          <path id="Path_2826" data-name="Path 2826" d="M300.7,260.893l0,.309Z" transform="translate(-62.914 -74.181)" fill="#c2c2c3"/>
          <path id="Path_2827" data-name="Path 2827" d="M300.714,263.047l0,.208Z" transform="translate(-62.916 -74.35)" fill="#c2c2c3"/>
          <path id="Path_2828" data-name="Path 2828" d="M300.786,274.082v0Z" transform="translate(-62.921 -75.214)" fill="#c2c2c3"/>
        </g>
        <g id="Group_4592" data-name="Group 4592" transform="translate(0 46.234)">
          <g id="Group_4590" data-name="Group 4590">
            <path id="Path_2829" data-name="Path 2829" d="M196.215,195.794l-4.853-2.761,11.373,39.087,4.869,2.815Z" transform="translate(-53.546 -115.099)" fill="#2f5223"/>
            <path id="Path_2830" data-name="Path 2830" d="M205.722,201.2l-6.412-3.647,11.4,39.169,6.433,3.72Z" transform="translate(-54.168 -115.453)" fill="#2f5223"/>
            <path id="Path_2831" data-name="Path 2831" d="M187.886,223.545l11.209,6.481L187.73,190.967l-11.172-6.355Z" transform="translate(-52.386 -114.439)" fill="#2f5223"/>
            <path id="Path_2832" data-name="Path 2832" d="M295.994,278.584l-.906.522c-.628-1.948-.629.282-.629-6.244,0-5.9.218,8.316.111-2.388l-6.015-3.421-2.6-20.212-66.05-37.569,11.46,39.383,21.615,12.5c0-.1.024-.2.034-.3l6.586-3.718c.121.059.24.112.362.181,5.6,3.1,7.653,7.185,8.385,11.067l-.232-.134a15.8,15.8,0,0,1,.276,1.787l27.634,15.926.023.356.306-.166.234.135.791-.442v-2.718Z" transform="translate(-55.782 -116.371)" fill="#2f5223"/>
            <path id="Path_2833" data-name="Path 2833" d="M216.579,207.376l-7.63-4.34,11.426,39.27,7.655,4.426Z" transform="translate(-54.924 -115.882)" fill="#2f5223"/>
            <path id="Path_2834" data-name="Path 2834" d="M151.8,170.567,42.634,108.474v15.067l.192.111.022,13.072-1.017.514v1.7l.05-.026,35.863,20.855c.02-.216.053-.429.09-.642l7.128-3.252c.286.124.579.265.879.428,4.323,2.336,6.137,6.812,6.863,10.726l-.1-.055a15.791,15.791,0,0,1,.276,1.787l70.193,40.584Z" transform="translate(-41.831 -108.474)" fill="#2f5223"/>
          </g>
          <g id="Group_4591" data-name="Group 4591" transform="translate(0.802 0)">
            <path id="Path_2835" data-name="Path 2835" d="M196.215,195.793l-4.853-2.76,4.368,15.013,4.853,2.76Z" transform="translate(-54.348 -115.099)" fill="#4f9333"/>
            <path id="Path_2836" data-name="Path 2836" d="M224.277,224.284l64.277,36.561-37.886-34.078-30.76-17.5Z" transform="translate(-56.585 -116.371)" fill="#4f9333"/>
            <path id="Path_2837" data-name="Path 2837" d="M180.926,199.625,192.1,205.98l-4.368-15.013-11.172-6.355Z" transform="translate(-53.188 -114.439)" fill="#4f9333"/>
            <path id="Path_2838" data-name="Path 2838" d="M151.864,170.566,42.7,108.474V121l113.531,64.577Z" transform="translate(-42.702 -108.474)" fill="#4f9333"/>
            <path id="Path_2839" data-name="Path 2839" d="M216.579,207.376l-7.63-4.34,4.368,15.013,7.63,4.34Z" transform="translate(-55.726 -115.883)" fill="#4f9333"/>
            <path id="Path_2840" data-name="Path 2840" d="M205.722,201.2l-6.412-3.647,4.368,15.013,6.412,3.647Z" transform="translate(-54.971 -115.453)" fill="#4f9333"/>
          </g>
        </g>
      </g>
      <g id="Group_4594" data-name="Group 4594" transform="translate(270.399 132.79)">
        <path id="Path_2841" data-name="Path 2841" d="M361.925,251.228l-.041-.137-.48.277c.016.045.03.083.047.135Z" transform="translate(-337.266 -178.57)" fill="#c2c2c3"/>
        <path id="Path_2842" data-name="Path 2842" d="M352.37,172.665l-.067-.118-.252-.143-16.837,9.939Z" transform="translate(-335.214 -172.405)" fill="#c2c2c3"/>
      </g>
      <path id="Path_2843" data-name="Path 2843" d="M357.461,244.818l-.906.523c-.628-1.948-.629.281-.629-6.244,0-13.522,2.147-39,.753-53.373a47.866,47.866,0,0,0-2.026-4.947l-4.721-8.337-51.005,28.776,1.225,14.066s.5,41.174.5,54.695c0,6.526,0,4.3.629,6.244l.906-.522,1.39,4.541v2.871l18.627-10.4,36.65-19.958v-3.394Z" transform="translate(-61.973 -39.618)" fill="#e3e3e2"/>
      <path id="Path_2844" data-name="Path 2844" d="M356.7,249.891c-.628-1.948-.629.281-.629-6.244,0-2.97.1-9.237.251-13.117l-55.592,31.484c.039,5.045.064,9.477.064,12.513,0,6.526,0,4.3.629,6.244l.906-.522,1.39,4.541v2.871l18.627-10.4,36.65-19.958v-3.393L357.6,249.37Z" transform="translate(-62.114 -44.169)" fill="#83bb4c"/>
      <path id="Path_2845" data-name="Path 2845" d="M359,254.945l-1.389-4.541-.906.522c-.628-1.948-.629.281-.629-6.244,0-.309,0-.63,0-.951l-55.286,29.321c0,.913,0,1.758,0,2.511,0,6.526,0,4.3.629,6.244l.906-.522,1.39,4.541V288.7l18.627-10.4L359,258.337Z" transform="translate(-62.119 -45.203)" fill="#578b34"/>
      <path id="Path_1548" data-name="Path 1548" d="M333.236,158.8,95.259,28.328l-50.23,27.3,234.76,134.725Z" transform="translate(-42.082 -28.328)" fill="#e7e5e4"/>
      <path id="Path_1556" data-name="Path 1556" d="M353.192,169.895l-53.448,31.552,1.1,13.747,54.6-31.665Z" transform="translate(-62.037 -39.419)" fill="#0f0f0e"/>
      <path id="Path_1556-2" data-name="Path 1556" d="M348.417,174.945l-42.463,25.067.876,10.922,43.382-25.158Z" transform="translate(-62.523 -39.815)" fill="#c8dcd8"/>
      <g id="Group_4595" data-name="Group 4595" transform="translate(8.05 39.292)">
        <path id="Path_2846" data-name="Path 2846" d="M275.009,200.96,50.565,70.96v36.879L208.206,198.1l67.081,62.277Z" transform="translate(-50.565 -70.96)" fill="#0f0f0e"/>
        <path id="Path_2847" data-name="Path 2847" d="M290.029,244.875V212.863l-18.184-10.507v31.894Z" transform="translate(-67.901 -81.254)" fill="#181817"/>
        <path id="Path_2848" data-name="Path 2848" d="M178.381,180.242v-31.6l-20.737-11.909v31.042l.254.306Z" transform="translate(-58.954 -76.113)" fill="#181817"/>
        <path id="Path_2849" data-name="Path 2849" d="M199.562,192.77l.042-31.943-9.46-5.433v31.783Z" transform="translate(-61.5 -77.575)" fill="#181817"/>
        <path id="Path_1565" data-name="Path 1565" d="M152.757,133.922l-27.468-15.813v30.577l27.468,15.81Z" transform="translate(-56.419 -74.654)" fill="#181817"/>
        <path id="Path_1566" data-name="Path 1566" d="M80.228,92.068,52.049,76.255v31.5l28.179,14.888Z" transform="translate(-50.681 -71.375)" fill="#333335"/>
        <path id="Path_1576" data-name="Path 1576" d="M120.129,115.152,84.582,94.56v30.577l35.547,20.592Z" transform="translate(-53.23 -72.809)" fill="#333335"/>
        <path id="Path_1581" data-name="Path 1581" d="M129.1,120.3l-3.812-2.189v24.2l27.465,21.959V136.99Z" transform="translate(-56.419 -74.654)" fill="#181817"/>
        <path id="Path_1582" data-name="Path 1582" d="M52.049,76.255v8.829L80.228,107.61V92.068Z" transform="translate(-50.681 -71.375)" fill="#181817"/>
        <path id="Path_1584" data-name="Path 1584" d="M84.582,94.56v15.923l35.547,28.4V115.152Z" transform="translate(-53.23 -72.809)" fill="#181817"/>
        <path id="Path_1593" data-name="Path 1593" d="M127.308,118.63l-23.273-13.424v63.672l23.273,13.442Z" transform="translate(-54.754 -73.643)" fill="#0f0f0e"/>
        <path id="Path_1595" data-name="Path 1595" d="M126.2,118.2l-21.23-12.256-.93,61.153,22.252,13.442Z" transform="translate(-54.754 -73.7)" fill="#181817"/>
        <path id="Path_2850" data-name="Path 2850" d="M114.344,111.062v62.056l1.624.981V112Z" transform="translate(-55.562 -74.102)" fill="#0f0f0e"/>
        <path id="Path_2851" data-name="Path 2851" d="M258.649,225.875v-30.7l-34.8-20.313v30.678Z" transform="translate(-64.141 -79.1)" fill="#181817"/>
      </g>
    </g>
    <g id="Group_4598" data-name="Group 4598" transform="translate(281.145 172.201)">
      <path id="Path_1553" data-name="Path 1553" d="M354.436,184.431l-52.949,30.04.912,45.668,52.038-30.04Z" transform="translate(-301.487 -184.431)" fill="#0f0f0e"/>
      <path id="Path_1554" data-name="Path 1554" d="M353.565,188.27l-48.99,28.288v39.394l48.99-28.288Z" transform="translate(-301.729 -184.732)" fill="#424345"/>
      <path id="Path_1555" data-name="Path 1555" d="M355.233,222.632l-29.346-17.487,29.346-16.876Z" transform="translate(-303.399 -184.732)" fill="#2d2e2e"/>
      <path id="Path_1572" data-name="Path 1572" d="M304.357,227.216l49.191,4.394L304.558,259.9Z" transform="translate(-301.712 -187.783)" fill="#313130"/>
      <rect id="Rectangle_190" data-name="Rectangle 190" width="1.806" height="42.04" transform="translate(29 15.649)" fill="#0f0f0e"/>
      <path id="Path_1573" data-name="Path 1573" d="M304.4,272.7l-1.843,1.065v6.109l7.132-4.122h0A3.525,3.525,0,0,0,304.4,272.7Z" transform="translate(-301.571 -191.309)" fill="#0d0d0c"/>
      <path id="Path_1574" data-name="Path 1574" d="M358.369,240.85l-1.841,1.065a10.588,10.588,0,0,0-5.29,9.167h0l7.132-4.122Z" transform="translate(-305.385 -188.851)" fill="#0d0d0c"/>
      <path id="Path_1586" data-name="Path 1586" d="M358.252,241.8l-1.751.985V247.6l1.751-1.04Z" transform="translate(-305.797 -188.926)" fill="#c8c8c9"/>
      <path id="Path_1589" data-name="Path 1589" d="M305.525,272.75l-2.316,1.332v4.852l2.316-1.368Z" transform="translate(-301.622 -191.35)" fill="#c8c8c9"/>
      <g id="Group_4597" data-name="Group 4597" transform="translate(0.782 2.848)">
        <path id="Path_1577" data-name="Path 1577" d="M343.491,200.2l-7.076,3.958v3.7l7.076-3.958Z" transform="translate(-305.006 -188.515)" fill="#0f0f0e"/>
        <path id="Path_1597" data-name="Path 1597" d="M339.594,198.046l-.547.128,1.222,4.961.547-.146Z" transform="translate(-305.212 -188.346)" fill="#0f0f0e"/>
        <path id="Path_1549" data-name="Path 1549" d="M368.3,189.269a.662.662,0,0,0-.456-.054,1.566,1.566,0,0,0-.184-.164.626.626,0,0,0-.62,0l-1.222.656c-.529-1.587-2.12-2.772-7.041-1.878l-.4.821c4.468-.8,6.018.146,6.566,1.532l-2.006,1.094a1.189,1.189,0,0,0-.62,1.04v11.232a.566.566,0,0,0,.31.511.669.669,0,0,0,.456.054,1.726,1.726,0,0,0,.184.164.626.626,0,0,0,.62,0l4.2-2.28a1.046,1.046,0,0,0,.548-.894V189.78A.644.644,0,0,0,368.3,189.269Z" transform="translate(-306.727 -187.521)" fill="#181817"/>
        <path id="Path_1549-2" data-name="Path 1549" d="M312.26,219.885a.663.663,0,0,0-.456-.054,1.643,1.643,0,0,0-.184-.164.626.626,0,0,0-.62,0l-1.222.656c-.529-1.587-2.12-2.772-7.041-1.878l-.4.821c4.468-.8,6.018.146,6.566,1.532l-2.006,1.094a1.189,1.189,0,0,0-.62,1.04v11.232a.564.564,0,0,0,.31.511.668.668,0,0,0,.456.054,1.637,1.637,0,0,0,.184.164.626.626,0,0,0,.62,0l4.2-2.28a1.046,1.046,0,0,0,.547-.894V220.4A.645.645,0,0,0,312.26,219.885Z" transform="translate(-302.336 -189.92)" fill="#181817"/>
      </g>
      <path id="Path_2852" data-name="Path 2852" d="M354.514,233.981,302.476,264.02s8.214-1.693,12.917-.985l29.78-16.681C347.513,241.612,354.514,233.981,354.514,233.981Z" transform="translate(-301.565 -188.313)" fill="#0f0f0e"/>
    </g>
  </g>
</svg>
