<svg xmlns="http://www.w3.org/2000/svg" xmlns:xlink="http://www.w3.org/1999/xlink" width="306.686" height="247.538" viewBox="0 0 306.686 247.538">
  <defs>
    <clipPath id="clip-path">
      <path id="SVGID" d="M316.821,292.822l.83,4.7a.59.59,0,0,1-.309.64l-9.584,5.574a.621.621,0,0,1-.85-.22.6.6,0,0,1-.076-.207l-.83-4.7a.588.588,0,0,1,.309-.64l9.584-5.574a.615.615,0,0,1,.925.427Z" transform="translate(-305.991 -292.306)" fill="none"/>
    </clipPath>
    <clipPath id="clip-path-2">
      <path id="SVGID-2" data-name="SVGID" d="M364.1,265.7l.83,4.7a.588.588,0,0,1-.309.64l-9.584,5.574a.621.621,0,0,1-.85-.22.634.634,0,0,1-.076-.207l-.83-4.7c-.052-.258.074-.52.475-.729l9.584-5.574c.124-.087.5.006.677.3A.618.618,0,0,1,364.1,265.7Z" transform="translate(-353.268 -265.154)" fill="none"/>
    </clipPath>
  </defs>
  <g id="Group_4540" data-name="Group 4540" transform="translate(-43.407 -51.566)">
    <path id="Path_2679" data-name="Path 2679" d="M342.93,260.061l-1.325-.286v-6.123c0-13.727-.172-55.309-.172-55.309l-1.352-3.3-4.794-8.465L97.738,52.3,47.384,79.669l-.162-.094-.574.222-.051.661-.979,5.035-.176.9-1.054,5.418,1.6.926-1.657-.908.021,11.853-.131-.076v38.294l.2.113.022,13.272-1.033.521v1.722l.051-.025,36.41,21.173c.022-.218.054-.435.093-.651l7.236-3.3c.291.126.588.269.893.433,4.39,2.373,6.232,6.916,6.967,10.89l-.1-.056a16.032,16.032,0,0,1,.281,1.814L243.621,273.6c.006-.1.025-.2.036-.3l6.687-3.776c.122.061.243.115.367.183,5.689,3.145,7.77,7.3,8.514,11.237l-.237-.137a16.065,16.065,0,0,1,.281,1.814l28.056,16.17.024.362.311-.169.237.137h0l19.234-10.739,37.211-20.262v-3.445Z" transform="translate(0 -0.047)" fill="#d5252c"/>
    <path id="Path_2680" data-name="Path 2680" d="M45.474,90.356,196.42,178.268l22.68,8.273,64.844,41.834.816,5.76L44.818,93.732Z" transform="translate(-0.091 -2.493)" fill="#171717"/>
    <path id="Path_2681" data-name="Path 2681" d="M351.735,195.8l4.794,8.465,1.352,3.3s.171,41.581.171,55.309V269l1.326.286,1.411,4.61v3.445L323.579,297.6,304.6,308.195l-4.346-10.579V242.093l-.9-14.761,1.831-1.994,50.541-29.54" transform="translate(-16.448 -9.269)" fill="#c50814"/>
    <path id="Path_2682" data-name="Path 2682" d="M358.022,246.721c-.048-17.535-.14-39.156-.14-39.156l-1.352-3.3-4.794-8.465-50.541,29.54-1.831,1.994.9,14.761v33.172c13.407,4.754,18.857,10.906,28.938,19.277l15.495-8.438C345.81,275.68,350.661,257.122,358.022,246.721Z" transform="translate(-16.448 -9.269)" fill="#c7c7c7"/>
    <path id="Path_1548" data-name="Path 1548" d="M339.28,184.035l-70.429-41.85L98.6,51.566l-51,27.72,173.7,95.841,63.709,40.941Z" transform="translate(-0.27)" fill="#efeeed"/>
    <path id="Path_2683" data-name="Path 2683" d="M44.5,153.728,282.984,291.934l.9,2.978L44.5,155.965Z" transform="translate(-0.07 -6.565)" fill="#f69200"/>
    <g id="Group_4530" data-name="Group 4530" transform="translate(53.888 95.11)">
      <path id="Path_1534" data-name="Path 1534" d="M278.2,297.088A16.614,16.614,0,0,0,270.806,284c-2.166-1.3-4.129-1.37-5.521-.482l.019-.259-4.866,2.963c-1.7.592-2.8,2.37-2.815,5.074a16.614,16.614,0,0,0,7.392,13.092c2.352,1.389,4.463,1.389,5.851.241l4.629-2.5C277.124,301.459,278.164,299.719,278.2,297.088Z" transform="translate(-67.654 -109.977)" fill="#39272a"/>
      <path id="Path_1535" data-name="Path 1535" d="M278.582,297.088A16.614,16.614,0,0,0,271.189,284c-4.129-2.463-7.536-.556-7.593,4.222a16.612,16.612,0,0,0,7.392,13.092C275.122,303.754,278.526,301.866,278.582,297.088Z" transform="translate(-68.038 -109.977)" fill="#39272a"/>
      <path id="Path_1536" data-name="Path 1536" d="M272.606,300.353a16.614,16.614,0,0,0-7.392-13.092c-4.148-2.444-7.536-.556-7.593,4.222a16.612,16.612,0,0,0,7.392,13.092C269.146,307.02,272.55,305.131,272.606,300.353Z" transform="translate(-67.654 -110.187)" fill="#393939"/>
      <path id="Path_1539" data-name="Path 1539" d="M269.925,299.712a11.706,11.706,0,0,0-5.185-9.2c-2.907-1.722-5.3-.389-5.334,2.963a11.656,11.656,0,0,0,5.2,9.2C267.5,304.379,269.887,303.064,269.925,299.712Z" transform="translate(-67.769 -110.416)" fill="#aeb0b2"/>
      <path id="Path_1540" data-name="Path 1540" d="M270.993,283.976c-2.166-1.3-4.129-1.37-5.521-.482l.019-.259-4.866,2.963a1.222,1.222,0,0,0-.148.055c3.87-1.926,16.036,8.333,11.425,17.888l3.778-2.037c1.629-.63,2.667-2.389,2.7-5.018A16.66,16.66,0,0,0,270.993,283.976Z" transform="translate(-67.838 -109.976)" fill="#070203"/>
      <path id="Path_1541" data-name="Path 1541" d="M103.26,195.254a16.614,16.614,0,0,0-7.392-13.092c-2.166-1.277-4.129-1.37-5.521-.482l.019-.259L85.5,184.383c-1.7.592-2.8,2.37-2.833,5.074a16.59,16.59,0,0,0,7.407,13.092c2.352,1.389,4.463,1.389,5.851.24l4.632-2.5C102.187,199.642,103.241,197.883,103.26,195.254Z" transform="translate(-56.411 -103.433)" fill="#39272a"/>
      <path id="Path_1542" data-name="Path 1542" d="M103.646,195.253a16.614,16.614,0,0,0-7.392-13.092c-4.129-2.463-7.536-.574-7.593,4.222a16.614,16.614,0,0,0,7.392,13.092C100.2,201.919,103.59,200.031,103.646,195.253Z" transform="translate(-56.796 -103.432)" fill="#39272a"/>
      <path id="Path_1543" data-name="Path 1543" d="M97.669,198.538a16.614,16.614,0,0,0-7.392-13.092c-4.148-2.444-7.536-.556-7.593,4.222a16.587,16.587,0,0,0,7.407,13.092C94.224,205.2,97.613,203.316,97.669,198.538Z" transform="translate(-56.412 -103.644)" fill="#393939"/>
      <path id="Path_1546" data-name="Path 1546" d="M94.988,197.877a11.684,11.684,0,0,0-5.185-9.2c-2.907-1.722-5.3-.389-5.334,2.963a11.656,11.656,0,0,0,5.2,9.2C92.563,202.563,94.95,201.248,94.988,197.877Z" transform="translate(-56.527 -103.872)" fill="#aeb0b2"/>
      <path id="Path_1547" data-name="Path 1547" d="M96.056,182.162c-2.166-1.277-4.129-1.37-5.521-.482l.019-.259-4.866,2.963a1.232,1.232,0,0,0-.148.055c3.868-1.925,16.034,8.335,11.423,17.889l3.778-2.059c1.629-.63,2.667-2.389,2.7-5.018C103.5,190.477,100.185,184.625,96.056,182.162Z" transform="translate(-56.596 -103.433)" fill="#070203"/>
      <path id="Path_1559" data-name="Path 1559" d="M282.481,230.086,54.608,98.1v37.443l98.29,56.719,17.24,19.813,112.342,65.3Z" transform="translate(-54.608 -98.1)" fill="#0e0e0e"/>
      <path id="Path_1563" data-name="Path 1563" d="M294.349,240.164,275.887,229.5v42.368l18.462,10.667Z" transform="translate(-68.828 -106.544)" fill="#171717"/>
      <path id="Path_2684" data-name="Path 2684" d="M182.741,175.962l-21.054-12.091v31.517l15.7,18.869,5.351,3.268Z" transform="translate(-61.489 -102.327)" fill="#171717"/>
      <path id="Path_2685" data-name="Path 2685" d="M194.187,182.535v41.9l9.549,5.831.055-42.22Z" transform="translate(-63.578 -103.526)" fill="#171717"/>
      <path id="Path_1565" data-name="Path 1565" d="M157.22,161.3l-27.888-16.054v31.044l27.888,16.052Z" transform="translate(-59.41 -101.13)" fill="#171717"/>
      <path id="Path_1566" data-name="Path 1566" d="M84.7,119.449,56.092,103.395v31.983L84.7,150.493Z" transform="translate(-54.703 -98.44)" fill="#323233"/>
      <path id="Path_1575" data-name="Path 1575" d="M227.89,244.371,263.223,265V222.627L227.89,202Z" transform="translate(-65.744 -104.777)" fill="#171717"/>
      <path id="Path_1576" data-name="Path 1576" d="M124.715,142.606,88.625,121.7v31.044l36.09,20.906Z" transform="translate(-56.794 -99.617)" fill="#323233"/>
      <path id="Path_1581" data-name="Path 1581" d="M133.2,147.471l-3.87-2.222v24.572l27.885,22.295v-27.7Z" transform="translate(-59.41 -101.13)" fill="#171717"/>
      <path id="Path_1582" data-name="Path 1582" d="M56.092,103.395v8.964L84.7,135.229V119.449Z" transform="translate(-54.703 -98.44)" fill="#171717"/>
      <path id="Path_1584" data-name="Path 1584" d="M88.625,121.7v16.166l36.09,28.832V142.606Z" transform="translate(-56.794 -99.617)" fill="#171717"/>
      <path id="Path_1556" data-name="Path 1556" d="M355.584,193.132,301.32,225.166l1.118,13.957,55.439-32.149Z" transform="translate(-70.462 -104.207)" fill="#171717"/>
      <path id="Path_1556-2" data-name="Path 1556" d="M351.228,197.584,306.8,223.815l.916,11.428,45.395-26.325Z" transform="translate(-70.814 -104.493)" fill="#515c5f"/>
    </g>
    <g id="Group_4531" data-name="Group 4531" transform="translate(221.624 194.899)">
      <path id="Path_1568" data-name="Path 1568" d="M257.473,218.39l-23.61-13.648v62.219l23.61,13.632Z" transform="translate(-233.863 -204.742)" fill="#0e0e0e"/>
      <path id="Path_1578" data-name="Path 1578" d="M256.407,218.324l-21.555-12.462.187,54.634,21.555,12.445Z" transform="translate(-233.927 -204.814)" fill="#171717"/>
    </g>
    <path id="Path_1553" data-name="Path 1553" d="M356.9,211.7,303.14,242.2l.925,44.348L356.9,256.985Z" transform="translate(-16.691 -10.291)" fill="#0e0e0e"/>
    <path id="Path_1554" data-name="Path 1554" d="M355.966,215.54l-49.738,28.721v39.385l49.738-28.721Z" transform="translate(-16.89 -10.537)" fill="#414141"/>
    <path id="Path_1555" data-name="Path 1555" d="M357.335,250.427,327.54,232.673l29.795-17.133Z" transform="translate(-18.259 -10.537)" fill="#2c2d2d"/>
    <path id="Path_1572" data-name="Path 1572" d="M306.01,267.2l49.942-9.574L306.214,286.35Z" transform="translate(-16.876 -13.242)" fill="#171717"/>
    <path id="Rectangle_190" data-name="Rectangle 190" d="M334.605,228.68h1.833v41.747l-1.833.936Z" transform="translate(-18.713 -11.382)" fill="#0e0e0e"/>
    <g id="Group_4532" data-name="Group 4532" transform="translate(312.055 259.129)">
      <path id="Path_2686" data-name="Path 2686" d="M342.571,284.822,332.209,290.8l-1.7-9.47,13.77-7.95Z" transform="translate(-330.505 -273.384)" fill="#1e1c1a"/>
    </g>
    <path id="Path_2687" data-name="Path 2687" d="M342.984,282.125l-.1.7-10.968,6.332-.1-.583Zm-10.871,8.155,10.565-6.1.1-.7L332.008,289.7Zm-.8-4.472,12.175-7.028.1-.706L331.2,285.225Zm.3,1.653.1.584,11.37-6.565.1-.7Zm-.8-4.472.1.584,12.98-7.493.1-.706Zm.6,3.354.1.584,11.773-6.8.1-.706Zm-.8-4.471.1.583,13.382-7.725.1-.706Zm.4,2.235.1.584,12.577-7.261.1-.706Z" transform="translate(-18.456 -14.296)" fill="#363536" opacity="0.3"/>
    <path id="Path_2688" data-name="Path 2688" d="M306.01,296.644l11.33-6.014,5.884,4.765-17.214,9.351Z" transform="translate(-16.876 -15.363)" fill="#363536"/>
    <g id="Group_4070" data-name="Group 4070" transform="translate(289.117 276.835)">
      <g id="Group_4534" data-name="Group 4534">
        <g id="Group_4533" data-name="Group 4533" clip-path="url(#clip-path)">
          <g id="Group_4069" data-name="Group 4069" transform="translate(0.088 2.514)">
            <path id="Path_1819" data-name="Path 1819" d="M306.367,301.892c-.094,0-.281,0-.281-.427a2.848,2.848,0,0,1,1.352-2.111,1.245,1.245,0,0,1,.546-.187c.094,0,.309,0,.309.427a2.92,2.92,0,0,1-1.352,2.111A1.009,1.009,0,0,1,306.367,301.892ZM309.9,299.8c-.094,0-.309,0-.309-.427a2.848,2.848,0,0,1,1.352-2.111,1.245,1.245,0,0,1,.545-.187c.094,0,.309,0,.309.427a2.921,2.921,0,0,1-1.352,2.111.9.9,0,0,1-.546.184Zm3.534-2.088c-.094,0-.309,0-.309-.427a2.851,2.851,0,0,1,1.352-2.111,1.245,1.245,0,0,1,.546-.187c.094,0,.281,0,.281.427a2.77,2.77,0,0,1-1.352,2.088.715.715,0,0,1-.522.213Z" transform="translate(-306.086 -294.992)" fill="#eaf5fa"/>
          </g>
        </g>
      </g>
    </g>
    <path id="Path_2689" data-name="Path 2689" d="M354.339,269.924l6.818-4.9.242,8.421-9.964,6.158Z" transform="translate(-19.795 -13.717)" fill="#363536"/>
    <g id="Group_4070-2" data-name="Group 4070" transform="translate(333.356 251.429)">
      <g id="Group_4536" data-name="Group 4536">
        <g id="Group_4535" data-name="Group 4535" clip-path="url(#clip-path-2)">
          <g id="Group_4069-2" data-name="Group 4069" transform="translate(0.088 3.042)">
            <path id="Path_2690" data-name="Path 2690" d="M359.007,270.105a1.25,1.25,0,0,0-.546.187,2.849,2.849,0,0,0-1.352,2.111c0,.427.215.427.309.427v0a.9.9,0,0,0,.546-.184,2.92,2.92,0,0,0,1.352-2.111C359.315,270.105,359.1,270.105,359.007,270.105Z" transform="translate(-353.603 -268.514)" fill="#eaf5fa"/>
            <path id="Path_2691" data-name="Path 2691" d="M355.26,272.336a1.249,1.249,0,0,0-.546.187,2.849,2.849,0,0,0-1.352,2.111c0,.427.187.427.281.427a1.016,1.016,0,0,0,.574-.187,2.921,2.921,0,0,0,1.352-2.111C355.568,272.336,355.353,272.336,355.26,272.336Z" transform="translate(-353.362 -268.658)" fill="#eaf5fa"/>
            <path id="Path_2692" data-name="Path 2692" d="M361.064,270.117c0,.427.215.427.309.427l0,0a.718.718,0,0,0,.522-.213l.012-.009V268.4A2.856,2.856,0,0,0,361.064,270.117Z" transform="translate(-353.857 -268.405)" fill="#eaf5fa"/>
          </g>
        </g>
      </g>
    </g>
    <g id="Group_4537" data-name="Group 4537" transform="translate(287.243 204.302)">
      <path id="Path_1577" data-name="Path 1577" d="M345.253,227.473l-7.185,4.018v3.759l7.185-4.018Z" transform="translate(-306.179 -215.606)" fill="#0e0e0e"/>
      <path id="Path_1597" data-name="Path 1597" d="M341.256,225.316l-.556.13,1.241,5.037.556-.148Z" transform="translate(-306.348 -215.468)" fill="#0e0e0e"/>
      <path id="Path_1549" data-name="Path 1549" d="M370.107,216.566a.679.679,0,0,0-.463-.055,1.66,1.66,0,0,0-.187-.167.635.635,0,0,0-.63,0l-1.241.666c-.537-1.611-2.152-2.815-7.148-1.907l-.407.834c4.536-.815,6.11.148,6.666,1.555L364.66,218.6a1.209,1.209,0,0,0-.63,1.055v11.4a.573.573,0,0,0,.314.518.673.673,0,0,0,.463.055,1.668,1.668,0,0,0,.187.167.635.635,0,0,0,.63,0l4.26-2.315a1.062,1.062,0,0,0,.556-.908v-11.5A.655.655,0,0,0,370.107,216.566Z" transform="translate(-307.59 -214.791)" fill="#171717"/>
      <path id="Path_1549-2" data-name="Path 1549" d="M314.065,247.182a.679.679,0,0,0-.463-.055,1.669,1.669,0,0,0-.187-.167.635.635,0,0,0-.63,0l-1.241.666c-.537-1.611-2.152-2.815-7.148-1.907l-.407.834c4.536-.815,6.11.148,6.666,1.555l-2.037,1.111a1.209,1.209,0,0,0-.63,1.056v11.4a.571.571,0,0,0,.314.518.673.673,0,0,0,.463.055,1.666,1.666,0,0,0,.187.167.635.635,0,0,0,.63,0l4.259-2.315a1.064,1.064,0,0,0,.556-.908V247.7A.657.657,0,0,0,314.065,247.182Z" transform="translate(-303.989 -216.759)" fill="#171717"/>
    </g>
    <path id="Path_2693" data-name="Path 2693" d="M329.5,294.656v3.059l16.584-9.726v-2.956Z" transform="translate(-18.385 -15.003)" fill="#363536"/>
  </g>
</svg>
