<svg xmlns="http://www.w3.org/2000/svg" width="296.865" height="238.947" viewBox="0 0 296.865 238.947">
  <g id="Group_4651" data-name="Group 4651" transform="translate(-35.81 -50.754)">
    <g id="Group_4651-2" data-name="Group 4651" transform="translate(67.188 161.639)">
      <path id="Path_3014" data-name="Path 3014" d="M74.137,184.49,70.452,176.1l12.671-2.924-1.766,6.934Z" transform="translate(-70.452 -173.175)" fill="#181817"/>
      <path id="Path_3015" data-name="Path 3015" d="M249.213,285.9l-3.685-8.391,12.671-2.924-1.766,6.934Z" transform="translate(-86.95 -182.73)" fill="#181817"/>
    </g>
    <g id="Group_4660" data-name="Group 4660" transform="translate(35.81 50.754)">
      <path id="Path_1534" data-name="Path 1534" d="M269.942,295.09a16.082,16.082,0,0,0-7.156-12.673c-2.1-1.254-4-1.326-5.344-.466l.018-.251-4.71,2.868c-1.649.573-2.706,2.294-2.725,4.911a16.082,16.082,0,0,0,7.156,12.673c2.276,1.344,4.32,1.344,5.664.233l4.481-2.42C268.9,299.32,269.909,297.636,269.942,295.09Z" transform="translate(-55.995 -72.485)" fill="#37282c"/>
      <path id="Path_1535" data-name="Path 1535" d="M270.5,295.089a16.082,16.082,0,0,0-7.156-12.673c-4-2.384-7.3-.538-7.349,4.087a16.08,16.08,0,0,0,7.156,12.673C267.156,301.542,270.451,299.714,270.5,295.089Z" transform="translate(-56.558 -72.485)" fill="#37282c"/>
      <path id="Path_1536" data-name="Path 1536" d="M264.529,298.355a16.082,16.082,0,0,0-7.156-12.673c-4.015-2.366-7.3-.538-7.349,4.087a16.08,16.08,0,0,0,7.156,12.673C261.18,304.808,264.475,302.98,264.529,298.355Z" transform="translate(-55.995 -72.794)" fill="#3b3b3c"/>
      <path id="Path_1539" data-name="Path 1539" d="M261.991,297.848a11.331,11.331,0,0,0-5.019-8.908c-2.814-1.667-5.127-.377-5.163,2.868a11.278,11.278,0,0,0,5.037,8.908C259.644,302.366,261.955,301.093,261.991,297.848Z" transform="translate(-56.163 -73.129)" fill="#a3a7ac"/>
      <path id="Path_1540" data-name="Path 1540" d="M263.059,282.4c-2.1-1.255-4-1.326-5.344-.466l.018-.251-4.71,2.868a1.129,1.129,0,0,0-.143.053c3.746-1.864,15.522,8.066,11.059,17.315l3.657-1.972c1.577-.61,2.581-2.312,2.617-4.858A16.126,16.126,0,0,0,263.059,282.4Z" transform="translate(-56.264 -72.484)" fill="#070202"/>
      <path id="Path_1541" data-name="Path 1541" d="M95,193.255a16.082,16.082,0,0,0-7.156-12.673c-2.1-1.236-4-1.326-5.344-.466l.018-.251-4.71,2.868c-1.649.573-2.706,2.294-2.743,4.911a16.058,16.058,0,0,0,7.17,12.673c2.276,1.344,4.32,1.344,5.664.233l4.484-2.417C93.965,197.5,94.985,195.8,95,193.255Z" transform="translate(-39.509 -62.89)" fill="#37282c"/>
      <path id="Path_1542" data-name="Path 1542" d="M95.569,193.254a16.082,16.082,0,0,0-7.156-12.673c-4-2.384-7.3-.555-7.349,4.087a16.082,16.082,0,0,0,7.156,12.673C92.236,199.707,95.515,197.879,95.569,193.254Z" transform="translate(-40.074 -62.889)" fill="#37282c"/>
      <path id="Path_1543" data-name="Path 1543" d="M89.592,196.54a16.082,16.082,0,0,0-7.156-12.673c-4.015-2.366-7.3-.538-7.349,4.087a16.056,16.056,0,0,0,7.17,12.673C86.258,202.993,89.538,201.165,89.592,196.54Z" transform="translate(-39.511 -63.2)" fill="#3b3b3c"/>
      <path id="Path_1546" data-name="Path 1546" d="M87.054,196.013a11.31,11.31,0,0,0-5.019-8.908c-2.814-1.667-5.127-.377-5.163,2.868a11.278,11.278,0,0,0,5.037,8.908C84.707,200.549,87.018,199.276,87.054,196.013Z" transform="translate(-39.679 -63.534)" fill="#a3a7ac"/>
      <path id="Path_1547" data-name="Path 1547" d="M88.122,180.583c-2.1-1.236-4-1.326-5.344-.466l.018-.251-4.71,2.868a1.133,1.133,0,0,0-.143.053c3.744-1.863,15.52,8.068,11.058,17.317l3.657-1.993c1.577-.61,2.581-2.312,2.617-4.858A16.114,16.114,0,0,0,88.122,180.583Z" transform="translate(-39.78 -62.89)" fill="#070202"/>
      <path id="Path_3016" data-name="Path 3016" d="M325.741,251.862l-.89.513c-.617-1.915-.618.277-.618-6.137,0-13.288,2.11-38.327.74-52.453a47.039,47.039,0,0,0-1.991-4.861l-4.639-8.194L88.4,50.754,39.66,77.248l-.157-.091-.555.215-.051.639L36.725,100.5l-.126-.073v37.068l.188.11.022,12.847-1,.5v1.667l.049-.024,35.013,20.361c.335-4.513,3.736-6.218,7.87-3.783a14.557,14.557,0,0,1,3.984,3.654c.066.085.133.169.2.256a17.3,17.3,0,0,1,3.5,9.095l143,82.681c.576-3.44,3.142-4.907,6.391-3.664l.308-.174c.119.059.236.111.356.177,5.506,3.044,7.522,7.062,8.241,10.877l-.228-.132c.086.4.134.809.188,1.216.033.183.068.365.093.546l27.149,15.646.023.351.3-.164.23.132h0l18.618-10.4,36.018-19.614v-3.335Z" transform="translate(-35.81 -50.754)" fill="#e7ecef"/>
      <path id="Path_3017" data-name="Path 3017" d="M272.782,292.27v-2.821l-1.366-4.463-.89.513c-.616-1.914-.618.277-.618-6.137,0-13.288-.488-53.752-.488-53.752l-3.87-12.319-88.519-51.985h0L39.612,80.6l.053-.029c-.242-.123-.482-.246-.724-.367l-.045.579-2.172,22.485L36.6,103.2v37.068l.188.11.022,12.847-1,.5v1.667l.049-.024L70.872,175.73c.335-4.513,3.736-6.218,7.87-3.783a14.557,14.557,0,0,1,3.984,3.654c.066.085.133.169.2.256a17.3,17.3,0,0,1,3.5,9.095l128.188,74.117h0l14.812,8.564c.576-3.44,3.142-4.907,6.391-3.664l.308-.174c.119.059.236.111.356.177,5.506,3.044,7.522,7.062,8.241,10.877l-.228-.132c.086.4.134.809.188,1.216.033.183.068.365.093.546l27.149,15.646.023.351.3-.164.23.132.555-.311Z" transform="translate(-35.81 -53.529)" fill="#95c9d6"/>
      <path id="Path_3018" data-name="Path 3018" d="M81.366,165.037c29.951,43.683,67.071,53.413,82.909,21.735,4.024-8.049,6.279-18,6.925-29.083l-4.527-2.658C166,164.9,163.926,173.778,160.316,181c-14.682,29.367-49.093,20.345-76.858-20.149A180.925,180.925,0,0,1,55,89.452L50.486,86.8A194.993,194.993,0,0,0,81.366,165.037Z" transform="translate(-37.193 -54.15)" fill="#2d95ca"/>
      <path id="Path_3019" data-name="Path 3019" d="M269.652,231.3c-.068-6.07-.118-5.686-.118-5.686l-5.977-19.025-70.021-44.751L39.727,80.6l.053-.029c-.242-.123-.482-.246-.724-.367l-.045.579L37.025,96.822Z" transform="translate(-35.924 -53.529)" fill="#12245b"/>
      <path id="Path_3020" data-name="Path 3020" d="M255.839,224.955c-6.088-10.143-13.672-19.569-23.459-26.165-4.9-3.3-20.392-11.975-20.392-11.975-9.2-3.888-20.52-6.839-29.953-4.523Z" transform="translate(-49.589 -63.072)" fill="#00a1ed"/>
      <path id="Path_3021" data-name="Path 3021" d="M226.155,194.947c-6.3-3.727-14.166-8.133-14.166-8.133-9.2-3.888-20.52-6.839-29.953-4.523l12.374,7.153C207.224,186.814,210.948,187.78,226.155,194.947Z" transform="translate(-49.589 -63.072)" fill="#ffde3f"/>
      <g id="Group_4652" data-name="Group 4652" transform="translate(234.296 129.799)">
        <path id="Path_3022" data-name="Path 3022" d="M354.274,271.273a4.985,4.985,0,0,0,.044.5A4.985,4.985,0,0,1,354.274,271.273Z" transform="translate(-300.114 -201.332)" fill="#2194d5"/>
        <path id="Path_3023" data-name="Path 3023" d="M354.895,245.357c.074-1.773.149-3.575.22-5.387C355.044,241.782,354.969,243.584,354.895,245.357Z" transform="translate(-300.173 -198.382)" fill="#2194d5"/>
        <path id="Path_3024" data-name="Path 3024" d="M354.238,265.846c0-2.076.052-4.439.133-7-.082,2.563-.133,4.926-.133,7,0,2.4,0,3.6.033,4.255C354.238,269.447,354.238,268.251,354.238,265.846Z" transform="translate(-300.111 -200.161)" fill="#2194d5"/>
        <path id="Path_3025" data-name="Path 3025" d="M354.385,257.99c.082-2.564.194-5.328.314-8.206C354.579,252.663,354.467,255.426,354.385,257.99Z" transform="translate(-300.125 -199.307)" fill="#2194d5"/>
        <path id="Path_3026" data-name="Path 3026" d="M354.732,249.42q.072-1.727.148-3.5Q354.8,247.69,354.732,249.42Z" transform="translate(-300.157 -198.943)" fill="#2194d5"/>
        <path id="Path_3027" data-name="Path 3027" d="M355.337,233.957q-.056,1.814-.124,3.632Q355.281,235.773,355.337,233.957Z" transform="translate(-300.203 -197.816)" fill="#2194d5"/>
        <path id="Path_3028" data-name="Path 3028" d="M294.48,221.417l.025.017,48.211-27.2-.313-.178Z" transform="translate(-294.48 -194.056)" fill="#2194d5"/>
        <path id="Path_3029" data-name="Path 3029" d="M300.7,311.615l15.345-8.568L300.7,311.615Z" transform="translate(-295.066 -204.326)" fill="#2194d5"/>
        <path id="Path_3030" data-name="Path 3030" d="M354.9,273.293c-.077-.239-.145-.415-.2-.551.059.136.127.312.2.551Z" transform="translate(-300.154 -201.47)" fill="#2194d5"/>
        <path id="Path_3031" data-name="Path 3031" d="M354.323,271.825a1.335,1.335,0,0,0,.074.289A1.335,1.335,0,0,1,354.323,271.825Z" transform="translate(-300.119 -201.384)" fill="#2194d5"/>
      </g>
      <path id="Path_3032" data-name="Path 3032" d="M349.641,265.384l-.89.513c-.617-1.915-.618.277-.618-6.137,0-13.288,2.11-38.327.74-52.453a47.039,47.039,0,0,0-1.991-4.861l-4.639-8.194L289.45,224.036l3.87,12.319s.488,40.464.488,53.752c0,6.414,0,4.223.619,6.137l.889-.513,1.366,4.463v2.822L314.988,292.8l36.018-19.614v-3.335Z" transform="translate(-59.71 -64.276)" fill="#b7e3ea"/>
      <g id="Group_4654" data-name="Group 4654" transform="translate(233.728 190.396)">
        <line id="Line_3" data-name="Line 3" y1="32.012" x2="54.772" fill="none" stroke="#8dbfcd" stroke-miterlimit="10" stroke-width="1"/>
        <line id="Line_4" data-name="Line 4" y1="32.012" x2="54.772" transform="translate(0 8.277)" fill="none" stroke="#8dbfcd" stroke-miterlimit="10" stroke-width="1"/>
        <g id="Group_4653" data-name="Group 4653" transform="translate(19.782 8.114)">
          <line id="Line_5" data-name="Line 5" y2="8.273" transform="translate(0 12.679)" fill="none" stroke="#8dbfcd" stroke-miterlimit="10" stroke-width="1"/>
          <line id="Line_6" data-name="Line 6" y2="8.273" transform="translate(21.64)" fill="none" stroke="#8dbfcd" stroke-miterlimit="10" stroke-width="1"/>
        </g>
      </g>
      <path id="Path_1548" data-name="Path 1548" d="M322.342,178.342l.652-4.72-78.026-41.2-6.081-1.637L89.373,51.021,40.008,77.854l146.11,85.806,7.818,1.351,72.01,45.529Z" transform="translate(-36.206 -50.779)" fill="#193a81"/>
      <path id="Path_3033" data-name="Path 3033" d="M201.318,171.957l52.769-32.879,6.081,1.636-51.032,32.594Z" transform="translate(-51.406 -59.077)" fill="#13306e"/>
      <path id="Path_1556" data-name="Path 1556" d="M345.847,191.587l-56.4,32.2,3.87,12.319,54.746-31.12Z" transform="translate(-59.71 -64.025)" fill="#051039"/>
      <path id="Path_3034" data-name="Path 3034" d="M350.251,272.784l-54.324,30.348,1.366,4.463v2.822L315.6,300.2l36.018-19.614v-3.335Z" transform="translate(-60.321 -71.676)" fill="#051039"/>
      <path id="Path_1556-2" data-name="Path 1556" d="M344.472,194.455l-48.929,27.729,3.141,10,47.589-26.854Z" transform="translate(-60.284 -64.295)" fill="#d7d2ce"/>
      <g id="Group_4658" data-name="Group 4658" transform="translate(235.259 144.382)">
        <path id="Path_1553" data-name="Path 1553" d="M347.58,210.156l-52.037,29.522.9,44.882,51.141-29.522Z" transform="translate(-295.543 -210.156)" fill="#0f0f0e"/>
        <path id="Path_1554" data-name="Path 1554" d="M346.776,213.995l-48.145,27.8v38.715l48.145-27.8Z" transform="translate(-295.834 -210.518)" fill="#424345"/>
        <path id="Path_1555" data-name="Path 1555" d="M348.784,247.765,319.943,230.58l28.841-16.585Z" transform="translate(-297.842 -210.518)" fill="#2d2e2e"/>
        <path id="Path_1572" data-name="Path 1572" d="M298.413,252.941l48.343,4.319-48.145,27.8Z" transform="translate(-295.813 -214.188)" fill="#313130"/>
        <rect id="Rectangle_190" data-name="Rectangle 190" width="1.774" height="41.316" transform="translate(28.5 15.379)" fill="#0f0f0e"/>
        <g id="Group_4655" data-name="Group 4655" transform="translate(45.587 47.959)">
          <path id="Path_1574" data-name="Path 1574" d="M352.881,263.1l-7.009,4.051v6l7.009-4.051Z" transform="translate(-345.872 -263.104)" fill="#0d0d0c"/>
          <path id="Path_1586" data-name="Path 1586" d="M352.857,264.054l-1.721.968v4.732l1.721-1.022Z" transform="translate(-346.368 -263.193)" fill="#c8c8c9"/>
        </g>
        <g id="Group_4656" data-name="Group 4656" transform="translate(1.169 74.404)">
          <path id="Path_1573" data-name="Path 1573" d="M303.843,292.3l-7.009,4.051v6l7.009-4.051Z" transform="translate(-296.834 -292.3)" fill="#0d0d0c"/>
          <path id="Path_1589" data-name="Path 1589" d="M299.763,295.624l-2.276,1.309V301.7l2.276-1.344Z" transform="translate(-296.896 -292.613)" fill="#c8c8c9"/>
        </g>
        <g id="Group_4657" data-name="Group 4657" transform="translate(0.768 2.799)">
          <path id="Path_1577" data-name="Path 1577" d="M337.425,225.928l-6.955,3.889v3.639l6.955-3.889Z" transform="translate(-299.602 -214.441)" fill="#0f0f0e"/>
          <path id="Path_1597" data-name="Path 1597" d="M333.641,223.771l-.538.126,1.2,4.876.538-.143Z" transform="translate(-299.85 -214.238)" fill="#0f0f0e"/>
          <path id="Path_1549" data-name="Path 1549" d="M362.187,214.964a.657.657,0,0,0-.448-.053,1.612,1.612,0,0,0-.181-.161.615.615,0,0,0-.61,0l-1.2.645c-.52-1.56-2.083-2.725-6.919-1.846l-.394.807c4.391-.789,5.915.143,6.453,1.505l-1.972,1.075a1.17,1.17,0,0,0-.61,1.022V229a.553.553,0,0,0,.3.5.652.652,0,0,0,.448.053,1.615,1.615,0,0,0,.181.161.615.615,0,0,0,.61,0l4.123-2.241a1.03,1.03,0,0,0,.538-.879V215.466A.636.636,0,0,0,362.187,214.964Z" transform="translate(-301.672 -213.246)" fill="#181817"/>
          <path id="Path_1549-2" data-name="Path 1549" d="M306.144,245.58a.656.656,0,0,0-.448-.053,1.614,1.614,0,0,0-.181-.161.615.615,0,0,0-.61,0l-1.2.645c-.52-1.56-2.083-2.725-6.919-1.846l-.394.807c4.391-.789,5.915.143,6.453,1.505l-1.972,1.075a1.17,1.17,0,0,0-.61,1.022v11.039a.555.555,0,0,0,.3.5.653.653,0,0,0,.448.053,1.616,1.616,0,0,0,.181.161.615.615,0,0,0,.61,0l4.123-2.241a1.028,1.028,0,0,0,.538-.879V246.082A.634.634,0,0,0,306.144,245.58Z" transform="translate(-296.391 -216.131)" fill="#181817"/>
        </g>
      </g>
      <g id="Group_4659" data-name="Group 4659" transform="translate(10.146 48.731)">
        <path id="Path_1559" data-name="Path 1559" d="M267.586,232.314,47.011,104.555V140.8l144.845,82.935,75.729,62.545Z" transform="translate(-47.011 -104.555)" fill="#0f0f0e"/>
        <path id="Path_3035" data-name="Path 3035" d="M286.161,277.738v-31.46L268.29,235.952V267.3Z" transform="translate(-67.862 -116.936)" fill="#181817"/>
        <path id="Path_3036" data-name="Path 3036" d="M174.47,213.087V182.03l-20.38-11.7v30.507l.25.3Z" transform="translate(-57.101 -110.753)" fill="#181817"/>
        <path id="Path_3037" data-name="Path 3037" d="M195.846,225.721l.041-31.392-9.3-5.339v31.235Z" transform="translate(-60.163 -112.511)" fill="#181817"/>
        <path id="Path_1565" data-name="Path 1565" d="M148.73,167.244,121.735,151.7v30.05l26.995,15.538Z" transform="translate(-54.052 -108.998)" fill="#181817"/>
        <path id="Path_1566" data-name="Path 1566" d="M76.188,125.39,48.495,109.85v30.959L76.188,155.44Z" transform="translate(-47.151 -105.054)" fill="#333335"/>
        <path id="Path_1576" data-name="Path 1576" d="M115.963,148.392,81.028,128.155V158.2l34.935,20.237Z" transform="translate(-50.216 -106.779)" fill="#333335"/>
        <path id="Path_1581" data-name="Path 1581" d="M125.481,153.855l-3.746-2.151V175.49l26.992,21.581V170.26Z" transform="translate(-54.052 -108.998)" fill="#181817"/>
        <path id="Path_1582" data-name="Path 1582" d="M48.495,109.85v8.677l27.693,22.137V125.39Z" transform="translate(-47.151 -105.054)" fill="#181817"/>
        <path id="Path_1584" data-name="Path 1584" d="M81.028,128.155V143.8l34.935,27.909v-23.32Z" transform="translate(-50.216 -106.779)" fill="#181817"/>
        <path id="Path_1593" data-name="Path 1593" d="M123.353,150.994,100.481,137.8v56.234l22.872,13.211Z" transform="translate(-52.049 -107.688)" fill="#0f0f0e"/>
        <path id="Path_1595" data-name="Path 1595" d="M122.259,148.579l-20.864-12.045-.914,55.57,21.868,13.211Z" transform="translate(-52.049 -107.568)" fill="#181817"/>
        <path id="Path_3038" data-name="Path 3038" d="M110.79,142.657v55.552l1.6.964V143.578Z" transform="translate(-53.021 -108.145)" fill="#0f0f0e"/>
        <path id="Path_3039" data-name="Path 3039" d="M254.495,258.591V228.421l-34.2-19.963v30.149Z" transform="translate(-63.339 -114.346)" fill="#181817"/>
      </g>
    </g>
    <g id="Group_4661" data-name="Group 4661" transform="translate(243.677 215.034)">
      <path id="Path_1568" data-name="Path 1568" d="M288.155,245.335,265.3,232.124V285.1l22.853,13.2Z" transform="translate(-265.302 -232.124)" fill="#0f0f0e"/>
      <path id="Path_1578" data-name="Path 1578" d="M287.155,245.3l-20.864-12.063.181,48.355,20.864,12.047Z" transform="translate(-265.395 -232.228)" fill="#181817"/>
    </g>
  </g>
</svg>
