<svg xmlns="http://www.w3.org/2000/svg" xmlns:xlink="http://www.w3.org/1999/xlink" width="874.334" height="569.367" viewBox="0 0 874.334 569.367">
  <defs>
    <linearGradient id="linear-gradient" x1="-38.808" y1="-2.13" x2="-38.818" y2="-2.142" gradientUnits="objectBoundingBox">
      <stop offset="0" stop-color="#494b4e"/>
      <stop offset="0.512" stop-color="#797a7e"/>
      <stop offset="0.606" stop-color="#76777a"/>
      <stop offset="0.723" stop-color="#6a6b6e"/>
      <stop offset="0.853" stop-color="#57595b"/>
      <stop offset="0.991" stop-color="#3f4244"/>
      <stop offset="1" stop-color="#3e4042"/>
    </linearGradient>
    <linearGradient id="linear-gradient-2" x1="-27.24" y1="-0.232" x2="-27.239" y2="-0.25" gradientUnits="objectBoundingBox">
      <stop offset="0" stop-color="#202325"/>
      <stop offset="1" stop-color="#1d2022"/>
    </linearGradient>
    <linearGradient id="linear-gradient-3" x1="-10.897" y1="-0.17" x2="-10.896" y2="-0.177" xlink:href="#linear-gradient-2"/>
    <linearGradient id="linear-gradient-4" x1="-87.133" y1="-0.906" x2="-87.112" y2="-0.94" xlink:href="#linear-gradient-2"/>
    <linearGradient id="linear-gradient-5" x1="-159.96" y1="-2.844" x2="-161.618" y2="-2.865" gradientUnits="objectBoundingBox">
      <stop offset="0" stop-color="#6e858b"/>
      <stop offset="1" stop-color="#5e7279"/>
    </linearGradient>
    <linearGradient id="linear-gradient-6" x1="-82.707" y1="0.03" x2="-82.686" y2="-0.003" xlink:href="#linear-gradient-2"/>
    <linearGradient id="linear-gradient-7" x1="-64.471" y1="-1.746" x2="-66.129" y2="-1.767" xlink:href="#linear-gradient-5"/>
    <linearGradient id="linear-gradient-8" x1="0.556" y1="0.333" x2="0.439" y2="0.667" gradientUnits="objectBoundingBox">
      <stop offset="0" stop-color="#bececf"/>
      <stop offset="0.038" stop-color="#c8d6d6"/>
      <stop offset="0.132" stop-color="#dae4e5"/>
      <stop offset="0.24" stop-color="#e8eff0"/>
      <stop offset="0.372" stop-color="#f0f7f8"/>
      <stop offset="0.6" stop-color="#f3fafb"/>
      <stop offset="0.619" stop-color="#ecf2f3"/>
      <stop offset="0.692" stop-color="#d7e1e2"/>
      <stop offset="0.772" stop-color="#c8d6d7"/>
      <stop offset="0.865" stop-color="#c0d0d0"/>
      <stop offset="1" stop-color="#becece"/>
    </linearGradient>
    <linearGradient id="linear-gradient-18" x1="-36.07" y1="-2.469" x2="-36.066" y2="-2.477" gradientUnits="objectBoundingBox">
      <stop offset="0" stop-color="#d5f7ff"/>
      <stop offset="0.374" stop-color="#eff9fd"/>
      <stop offset="1" stop-color="#d5e3e5"/>
    </linearGradient>
    <linearGradient id="linear-gradient-25" x1="-29.958" y1="-1.881" x2="-29.957" y2="-1.899" xlink:href="#linear-gradient-2"/>
    <linearGradient id="linear-gradient-26" x1="-12.004" y1="-1.046" x2="-12.003" y2="-1.052" xlink:href="#linear-gradient-2"/>
    <linearGradient id="linear-gradient-27" x1="-95.692" y1="-2.711" x2="-95.671" y2="-2.744" xlink:href="#linear-gradient-2"/>
    <linearGradient id="linear-gradient-28" x1="-343.929" y1="-4.96" x2="-345.586" y2="-4.981" xlink:href="#linear-gradient-5"/>
    <linearGradient id="linear-gradient-29" x1="-91.244" y1="-1.774" x2="-91.223" y2="-1.807" xlink:href="#linear-gradient-2"/>
    <linearGradient id="linear-gradient-30" x1="-248.456" y1="-3.862" x2="-250.114" y2="-3.883" xlink:href="#linear-gradient-5"/>
    <linearGradient id="linear-gradient-31" x1="-98.221" y1="-3.794" x2="-98.209" y2="-3.84" xlink:href="#linear-gradient-2"/>
    <linearGradient id="linear-gradient-33" x1="0" y1="0.5" x2="1" y2="0.5" xlink:href="#linear-gradient-5"/>
    <linearGradient id="linear-gradient-34" x1="-0.013" y1="0.5" x2="1.012" y2="0.5" xlink:href="#linear-gradient-5"/>
    <linearGradient id="linear-gradient-35" x1="-0.013" y1="0.5" x2="1.012" y2="0.5" xlink:href="#linear-gradient-2"/>
    <linearGradient id="linear-gradient-37" x1="-0.043" y1="0.457" x2="0.957" y2="0.457" gradientUnits="objectBoundingBox">
      <stop offset="0" stop-color="#c7dbef"/>
      <stop offset="1" stop-color="#85939e"/>
    </linearGradient>
    <linearGradient id="linear-gradient-38" x1="0.04" y1="0.32" x2="0.873" y2="0.32" xlink:href="#linear-gradient-37"/>
  </defs>
  <g id="newyorktrain" transform="translate(366.096 193.268)">
    <g id="组_4648" data-name="组 4648" transform="translate(34.904 32.732)">
      <g id="Group_4079" data-name="Group 4079">
        <g id="组_4707" data-name="组 4707" transform="translate(-200 -113)">
          <path id="Path_1796" data-name="Path 1796" d="M226.719,234.056,37.642,124.188l.026,9.386L226.719,243.441Z" transform="translate(-235.771 -142.262)" fill="#343638"/>
          <path id="Path_1797" data-name="Path 1797" d="M223.955,176.46,34.9,66.592l.08,62.006L224.061,238.492Z" transform="translate(-235.904 -145.077)" fill="#b7cfd2"/>
          <path id="Path_1799" data-name="Path 1799" d="M268.269,204.4l-.08-62.033c-.026-8.4-13.294-4.973-26.537,2.685-13.268,7.657-26.509,19.516-26.483,27.919L215.25,235l2.792-1.622v9.413l47.489-27.409L265.477,206Z" transform="translate(-227.093 -141.613)" fill="#90a7ab"/>
          <path id="Path_1800" data-name="Path 1800" d="M268.269,202.71,218.122,172l-2.952,7.762.08,53.578,2.792-1.622V241.1l47.489-27.387-.053-9.386Z" transform="translate(-227.093 -139.925)" fill="#63787e" opacity="0.3" style="isolation: isolate"/>
          <path id="Path_1801" data-name="Path 1801" d="M271.7,203.213,217.985,172l-.026,57.961L271.7,261.122Z" transform="translate(-226.957 -139.925)" fill="#343638"/>
          <path id="Path_1802" data-name="Path 1802" d="M271.7,144.643l-6.089-3.537c-3.962-2.313-13.426.878-22.894,6.328-12.388,7.153-24.781,18.237-24.755,26.112l53.711,31.216V144.643Z" transform="translate(-226.957 -141.472)" fill="url(#linear-gradient)"/>
          <g id="Group_4075" data-name="Group 4075" transform="translate(-194.247 -65.804)">
            <path id="Path_1832" data-name="Path 1832" d="M112.872,146.222,92.69,134.58a2.851,2.851,0,0,1-1.382-2.181V108.306c0-.771.611-1.037,1.382-.585l20.181,11.643a2.855,2.855,0,0,1,1.382,2.181v24.068C114.254,146.408,113.643,146.675,112.872,146.222Zm24.675,14.249-20.181-11.643a2.851,2.851,0,0,1-1.382-2.181V122.584c0-.771.611-1.037,1.382-.585l20.181,11.643a2.854,2.854,0,0,1,1.382,2.182v24.066C138.956,160.66,138.318,160.9,137.547,160.471Zm24.7,14.254-20.181-11.643a2.851,2.851,0,0,1-1.382-2.181V136.836c0-.771.611-1.037,1.382-.585l20.181,11.643a2.856,2.856,0,0,1,1.379,2.184V174.14C163.628,174.885,162.992,175.156,162.249,174.726Z" transform="translate(-38.901 -77.273)" fill="url(#linear-gradient-2)"/>
            <path id="Path_1833" data-name="Path 1833" d="M62.933,117.372,42.725,105.726a2.851,2.851,0,0,1-1.382-2.181V79.488c0-.771.611-1.037,1.382-.585L62.908,90.544a2.855,2.855,0,0,1,1.382,2.181v24.063C64.317,117.562,63.705,117.824,62.933,117.372Zm154.139,89L196.89,194.724a2.851,2.851,0,0,1-1.382-2.181V168.477c0-.771.611-1.037,1.382-.585l20.181,11.643a2.855,2.855,0,0,1,1.382,2.181v24.063C218.456,206.553,217.843,206.821,217.072,206.367Z" transform="translate(-41.343 -78.682)" fill="url(#linear-gradient-3)"/>
          </g>
          <g id="Group_4076" data-name="Group 4076" transform="translate(-66.405 7.922)">
            <path id="Path_1834" data-name="Path 1834" d="M184.791,210.273,164.609,198.63a2.851,2.851,0,0,1-1.382-2.181V149.779c0-.771.611-1.037,1.382-.585l20.181,11.643a2.857,2.857,0,0,1,1.386,2.185v46.665C186.176,210.456,185.536,210.721,184.791,210.273Z" transform="translate(-163.227 -148.973)" fill="url(#linear-gradient-4)"/>
            <path id="Path_1835" data-name="Path 1835" d="M173.758,152.653c-.265-.133-.506-.315-.771-.478v52.863c.346.159.717.315,1.064.478v-52.7A2.82,2.82,0,0,1,173.758,152.653Z" transform="translate(-162.75 -148.816)" fill="url(#linear-gradient-5)"/>
          </g>
          <g id="Group_4077" data-name="Group 4077" transform="translate(-167.923 -50.648)">
            <path id="Path_1836" data-name="Path 1836" d="M88,154.449,67.823,142.807a2.853,2.853,0,0,1-1.383-2.184V93.938c0-.771.611-1.037,1.382-.585L88,104.994a2.855,2.855,0,0,1,1.382,2.181v46.665C89.386,154.61,88.749,154.877,88,154.449Z" transform="translate(-66.44 -93.132)" fill="url(#linear-gradient-6)"/>
            <path id="Path_1837" data-name="Path 1837" d="M76.946,96.807c-.266-.133-.506-.315-.771-.478v52.863c.346.159.717.315,1.064.478v-52.7A2.95,2.95,0,0,0,76.946,96.807Z" transform="translate(-65.964 -92.975)" fill="url(#linear-gradient-7)"/>
          </g>
          <path id="Path_1838" data-name="Path 1838" d="M141.318,161.615c-.159.478-.665.612-1.3.265l-20.181-11.643a2.851,2.851,0,0,1-1.382-2.181V123.992a.681.681,0,0,1,.584-.766.718.718,0,0,1,.107-.005,1.093,1.093,0,0,0-.08.315V147.6a2.808,2.808,0,0,0,1.382,2.179l20.181,11.643A1.236,1.236,0,0,0,141.318,161.615Zm-25.366-14.438L95.744,135.535a2.851,2.851,0,0,1-1.382-2.181V109.288a.91.91,0,0,1,.08-.315.681.681,0,0,0-.7.664.611.611,0,0,0,.006.107V133.8a2.811,2.811,0,0,0,1.382,2.181l20.181,11.643c.638.372,1.143.239,1.3-.265A1.161,1.161,0,0,1,115.952,147.177ZM63.544,116.918,43.362,105.273a2.851,2.851,0,0,1-1.382-2.181V79.029a.91.91,0,0,1,.08-.315.681.681,0,0,0-.7.664.61.61,0,0,0,.006.107v24.059a2.81,2.81,0,0,0,1.382,2.185l20.181,11.643c.638.372,1.143.239,1.3-.265A1.051,1.051,0,0,1,63.544,116.918ZM165.3,175.681,145.12,164.038a2.851,2.851,0,0,1-1.382-2.181V137.791a.91.91,0,0,1,.08-.315.681.681,0,0,0-.7.664.608.608,0,0,0,.006.107v24.059a2.811,2.811,0,0,0,1.382,2.181l20.181,11.643c.638.372,1.143.239,1.3-.266a1.5,1.5,0,0,1-.691-.181ZM217.71,205.94,197.528,194.3a2.851,2.851,0,0,1-1.382-2.181V168.05a.91.91,0,0,1,.08-.315.681.681,0,0,0-.7.664.611.611,0,0,0,.006.107v24.059a2.811,2.811,0,0,0,1.382,2.181L217.1,206.389c.638.372,1.143.239,1.3-.265a1.426,1.426,0,0,1-.692-.184Z" transform="translate(-235.588 -144.484)" fill="#a7b8ba" opacity="0.9" style="isolation: isolate"/>
          <path id="路径_3045" data-name="路径 3045" d="M50.929.819C46.7-1.653,36.578,1.749,26.453,7.6,13.218,15.223-.017,27.075.01,35.5l189,108.409c-.027-8.4,13.208-20.251,26.469-27.9,10.125-5.847,21.248-8.695,25.5-6.25Z" transform="translate(-200.984 -113.003)" fill="url(#linear-gradient-8)"/>
        </g>
        <path id="Path_1796-2" data-name="Path 1796" d="M226.719,234.056,37.642,124.188l.026,9.386L226.719,243.441Z" transform="translate(-235.771 -142.262)" fill="#343638"/>
        <path id="Path_1797-2" data-name="Path 1797" d="M223.955,176.46,34.9,66.592l.08,62.006L224.061,238.492Z" transform="translate(-235.904 -145.077)" fill="#b7cfd2"/>
        <path id="Path_1799-2" data-name="Path 1799" d="M268.269,204.4l-.08-62.033c-.026-8.4-13.294-4.973-26.537,2.685-13.268,7.657-26.509,19.516-26.483,27.919L215.25,235l2.792-1.622v9.413l47.489-27.409L265.477,206Z" transform="translate(-227.093 -141.613)" fill="#90a7ab"/>
        <path id="Path_1800-2" data-name="Path 1800" d="M268.269,202.71,218.122,172l-2.952,7.762.08,53.578,2.792-1.622V241.1l47.489-27.387-.053-9.386Z" transform="translate(-227.093 -139.925)" fill="#63787e" opacity="0.3" style="isolation: isolate"/>
        <path id="Path_1801-2" data-name="Path 1801" d="M271.7,203.213,217.985,172l-.026,57.961L271.7,261.122Z" transform="translate(-226.957 -139.925)" fill="#343638"/>
        <path id="Path_1802-2" data-name="Path 1802" d="M271.7,144.643l-6.089-3.537c-3.962-2.313-13.426.878-22.894,6.328-12.388,7.153-24.781,18.237-24.755,26.112l53.711,31.216V144.643Z" transform="translate(-226.957 -141.472)" fill="url(#linear-gradient)"/>
        <g id="Group_4075-2" data-name="Group 4075" transform="translate(-194.247 -65.804)">
          <path id="Path_1832-2" data-name="Path 1832" d="M112.872,146.222,92.69,134.58a2.851,2.851,0,0,1-1.382-2.181V108.306c0-.771.611-1.037,1.382-.585l20.181,11.643a2.855,2.855,0,0,1,1.382,2.181v24.068C114.254,146.408,113.643,146.675,112.872,146.222Zm24.675,14.249-20.181-11.643a2.851,2.851,0,0,1-1.382-2.181V122.584c0-.771.611-1.037,1.382-.585l20.181,11.643a2.854,2.854,0,0,1,1.382,2.182v24.066C138.956,160.66,138.318,160.9,137.547,160.471Zm24.7,14.254-20.181-11.643a2.851,2.851,0,0,1-1.382-2.181V136.836c0-.771.611-1.037,1.382-.585l20.181,11.643a2.856,2.856,0,0,1,1.379,2.184V174.14C163.628,174.885,162.992,175.156,162.249,174.726Z" transform="translate(-38.901 -77.273)" fill="url(#linear-gradient-2)"/>
          <path id="Path_1833-2" data-name="Path 1833" d="M62.933,117.372,42.725,105.726a2.851,2.851,0,0,1-1.382-2.181V79.488c0-.771.611-1.037,1.382-.585L62.908,90.544a2.855,2.855,0,0,1,1.382,2.181v24.063C64.317,117.562,63.705,117.824,62.933,117.372Zm154.139,89L196.89,194.724a2.851,2.851,0,0,1-1.382-2.181V168.477c0-.771.611-1.037,1.382-.585l20.181,11.643a2.855,2.855,0,0,1,1.382,2.181v24.063C218.456,206.553,217.843,206.821,217.072,206.367Z" transform="translate(-41.343 -78.682)" fill="url(#linear-gradient-3)"/>
        </g>
        <g id="Group_4076-2" data-name="Group 4076" transform="translate(-66.405 7.922)">
          <path id="Path_1834-2" data-name="Path 1834" d="M184.791,210.273,164.609,198.63a2.851,2.851,0,0,1-1.382-2.181V149.779c0-.771.611-1.037,1.382-.585l20.181,11.643a2.857,2.857,0,0,1,1.386,2.185v46.665C186.176,210.456,185.536,210.721,184.791,210.273Z" transform="translate(-163.227 -148.973)" fill="url(#linear-gradient-4)"/>
          <path id="Path_1835-2" data-name="Path 1835" d="M173.758,152.653c-.265-.133-.506-.315-.771-.478v52.863c.346.159.717.315,1.064.478v-52.7A2.82,2.82,0,0,1,173.758,152.653Z" transform="translate(-162.75 -148.816)" fill="url(#linear-gradient-5)"/>
        </g>
        <g id="Group_4077-2" data-name="Group 4077" transform="translate(-167.923 -50.648)">
          <path id="Path_1836-2" data-name="Path 1836" d="M88,154.449,67.823,142.807a2.853,2.853,0,0,1-1.383-2.184V93.938c0-.771.611-1.037,1.382-.585L88,104.994a2.855,2.855,0,0,1,1.382,2.181v46.665C89.386,154.61,88.749,154.877,88,154.449Z" transform="translate(-66.44 -93.132)" fill="url(#linear-gradient-6)"/>
          <path id="Path_1837-2" data-name="Path 1837" d="M76.946,96.807c-.266-.133-.506-.315-.771-.478v52.863c.346.159.717.315,1.064.478v-52.7A2.95,2.95,0,0,0,76.946,96.807Z" transform="translate(-65.964 -92.975)" fill="url(#linear-gradient-7)"/>
        </g>
        <path id="Path_1838-2" data-name="Path 1838" d="M141.318,161.615c-.159.478-.665.612-1.3.265l-20.181-11.643a2.851,2.851,0,0,1-1.382-2.181V123.992a.681.681,0,0,1,.584-.766.718.718,0,0,1,.107-.005,1.093,1.093,0,0,0-.08.315V147.6a2.808,2.808,0,0,0,1.382,2.179l20.181,11.643A1.236,1.236,0,0,0,141.318,161.615Zm-25.366-14.438L95.744,135.535a2.851,2.851,0,0,1-1.382-2.181V109.288a.91.91,0,0,1,.08-.315.681.681,0,0,0-.7.664.611.611,0,0,0,.006.107V133.8a2.811,2.811,0,0,0,1.382,2.181l20.181,11.643c.638.372,1.143.239,1.3-.265A1.161,1.161,0,0,1,115.952,147.177ZM63.544,116.918,43.362,105.273a2.851,2.851,0,0,1-1.382-2.181V79.029a.91.91,0,0,1,.08-.315.681.681,0,0,0-.7.664.61.61,0,0,0,.006.107v24.059a2.81,2.81,0,0,0,1.382,2.185l20.181,11.643c.638.372,1.143.239,1.3-.265A1.051,1.051,0,0,1,63.544,116.918ZM165.3,175.681,145.12,164.038a2.851,2.851,0,0,1-1.382-2.181V137.791a.91.91,0,0,1,.08-.315.681.681,0,0,0-.7.664.608.608,0,0,0,.006.107v24.059a2.811,2.811,0,0,0,1.382,2.181l20.181,11.643c.638.372,1.143.239,1.3-.266a1.5,1.5,0,0,1-.691-.181ZM217.71,205.94,197.528,194.3a2.851,2.851,0,0,1-1.382-2.181V168.05a.91.91,0,0,1,.08-.315.681.681,0,0,0-.7.664.611.611,0,0,0,.006.107v24.059a2.811,2.811,0,0,0,1.382,2.181L217.1,206.389c.638.372,1.143.239,1.3-.265a1.426,1.426,0,0,1-.692-.184Z" transform="translate(-235.588 -144.484)" fill="#a7b8ba" opacity="0.9" style="isolation: isolate"/>
        <path id="路径_3044" data-name="路径 3044" d="M50.929.819C46.7-1.653,36.578,1.749,26.453,7.6,13.218,15.223-.017,27.075.01,35.5l189,108.409c-.027-8.4,13.208-20.251,26.469-27.9,10.125-5.847,21.248-8.695,25.5-6.25Z" transform="translate(-200.984 -113.003)" fill="url(#linear-gradient-8)"/>
        <path id="Path_1796-3" data-name="Path 1796" d="M226.719,234.056,37.642,124.188l.026,9.386L226.719,243.441Z" transform="translate(-34.77 -28.262)" fill="#343638"/>
        <path id="Path_1797-3" data-name="Path 1797" d="M223.955,176.46,34.9,66.592l.08,62.006L224.061,238.492Z" transform="translate(-34.904 -31.077)" fill="#b7cfd2"/>
        <path id="Path_1799-3" data-name="Path 1799" d="M268.269,204.4l-.08-62.033c-.026-8.4-13.294-4.973-26.537,2.685-13.268,7.657-26.509,19.516-26.483,27.919L215.25,235l2.792-1.622v9.413l47.489-27.409L265.477,206Z" transform="translate(-26.093 -27.613)" fill="#90a7ab"/>
        <path id="Path_1800-3" data-name="Path 1800" d="M268.269,202.71,218.122,172l-2.952,7.762.08,53.578,2.792-1.622V241.1l47.489-27.387-.053-9.386Z" transform="translate(-26.093 -25.925)" fill="#63787e" opacity="0.3" style="isolation: isolate"/>
        <path id="Path_1801-3" data-name="Path 1801" d="M271.7,203.213,217.985,172l-.026,57.961L271.7,261.122Z" transform="translate(-25.957 -25.925)" fill="#343638"/>
        <path id="Path_1802-3" data-name="Path 1802" d="M271.7,144.643l-6.089-3.537c-3.962-2.313-13.426.878-22.894,6.328-12.388,7.153-24.781,18.237-24.755,26.112l53.711,31.216V144.643Z" transform="translate(-25.957 -27.472)" fill="url(#linear-gradient)"/>
        <g id="Group_4059" data-name="Group 4059" transform="translate(197.293 114.813)">
          <path id="Path_1803" data-name="Path 1803" d="M437.765,356.866,225.741,233.651l.026,9.413,212,123.215Z" transform="translate(-222.869 -137.725)" fill="#343638"/>
          <path id="Path_1804" data-name="Path 1804" d="M474.125,335.042l-46.266,26.7V352.7L474.125,326Z" transform="translate(-212.99 -133.211)" fill="#54585b"/>
          <path id="Path_1805" data-name="Path 1805" d="M435.027,299.27,223,176.055l.08,62.033,224.76,130.554Z" transform="translate(-223.003 -140.54)" fill="#b7cfd2"/>
          <path id="Path_1807" data-name="Path 1807" d="M488.986,332.55c.016-2.145.049-6.283.179-16.032l-11.158-52.512c-1.462-8.11-13.135-4.387-26.4,3.244-13.268,7.657-26.509,19.516-26.483,27.919l5.973,57c6.494,10.3,1.371,2.173,6.959,9.826a4.766,4.766,0,0,0,6.2,1.336c8.8-4.995,30.78-17.617,40.213-23.038A9,9,0,0,0,488.986,332.55Z" transform="translate(-213.124 -136.464)" fill="url(#linear-gradient-18)"/>
        </g>
        <path id="路径_2998" data-name="路径 2998" d="M476.389,266.939c-1.358-7.533-12.2-4.075-24.526,3.014-12.324,7.111-24.625,18.129-24.6,25.934l7.146,54.479a82.482,82.482,0,0,0,13.2-.6,5.466,5.466,0,0,0,4.544-5.765l-3.244-50.066a5.929,5.929,0,0,1,2.836-5.449l18.109-11.006a1.947,1.947,0,0,1,2.954,1.538l3.146,48.543a2.275,2.275,0,0,0,3.883,1.458,53.2,53.2,0,0,0,7.925-9.819Z" transform="translate(-15.727 -21.492)" fill="#33231b"/>
        <g id="Group_4075-3" data-name="Group 4075" transform="translate(6.754 48.196)">
          <path id="Path_1832-3" data-name="Path 1832" d="M112.872,146.222,92.69,134.58a2.851,2.851,0,0,1-1.382-2.181V108.306c0-.771.611-1.037,1.382-.585l20.181,11.643a2.855,2.855,0,0,1,1.382,2.181v24.068C114.254,146.408,113.643,146.675,112.872,146.222Zm24.675,14.249-20.181-11.643a2.851,2.851,0,0,1-1.382-2.181V122.584c0-.771.611-1.037,1.382-.585l20.181,11.643a2.854,2.854,0,0,1,1.382,2.182v24.066C138.956,160.66,138.318,160.9,137.547,160.471Zm24.7,14.254-20.181-11.643a2.851,2.851,0,0,1-1.382-2.181V136.836c0-.771.611-1.037,1.382-.585l20.181,11.643a2.856,2.856,0,0,1,1.379,2.184V174.14C163.628,174.885,162.992,175.156,162.249,174.726Z" transform="translate(-38.901 -77.273)" fill="url(#linear-gradient-2)"/>
          <path id="Path_1833-3" data-name="Path 1833" d="M62.933,117.372,42.725,105.726a2.851,2.851,0,0,1-1.382-2.181V79.488c0-.771.611-1.037,1.382-.585L62.908,90.544a2.855,2.855,0,0,1,1.382,2.181v24.063C64.317,117.562,63.705,117.824,62.933,117.372Zm154.139,89L196.89,194.724a2.851,2.851,0,0,1-1.382-2.181V168.477c0-.771.611-1.037,1.382-.585l20.181,11.643a2.855,2.855,0,0,1,1.382,2.181v24.063C218.456,206.553,217.843,206.821,217.072,206.367Z" transform="translate(-41.343 -78.682)" fill="url(#linear-gradient-3)"/>
        </g>
        <g id="Group_4076-3" data-name="Group 4076" transform="translate(134.595 121.922)">
          <path id="Path_1834-3" data-name="Path 1834" d="M184.791,210.273,164.609,198.63a2.851,2.851,0,0,1-1.382-2.181V149.779c0-.771.611-1.037,1.382-.585l20.181,11.643a2.857,2.857,0,0,1,1.386,2.185v46.665C186.176,210.456,185.536,210.721,184.791,210.273Z" transform="translate(-163.227 -148.973)" fill="url(#linear-gradient-4)"/>
          <path id="Path_1835-3" data-name="Path 1835" d="M173.758,152.653c-.265-.133-.506-.315-.771-.478v52.863c.346.159.717.315,1.064.478v-52.7A2.82,2.82,0,0,1,173.758,152.653Z" transform="translate(-162.75 -148.816)" fill="url(#linear-gradient-5)"/>
        </g>
        <g id="Group_4077-3" data-name="Group 4077" transform="translate(33.077 63.352)">
          <path id="Path_1836-3" data-name="Path 1836" d="M88,154.449,67.823,142.807a2.853,2.853,0,0,1-1.383-2.184V93.938c0-.771.611-1.037,1.382-.585L88,104.994a2.855,2.855,0,0,1,1.382,2.181v46.665C89.386,154.61,88.749,154.877,88,154.449Z" transform="translate(-66.44 -93.132)" fill="url(#linear-gradient-6)"/>
          <path id="Path_1837-3" data-name="Path 1837" d="M76.946,96.807c-.266-.133-.506-.315-.771-.478v52.863c.346.159.717.315,1.064.478v-52.7A2.95,2.95,0,0,0,76.946,96.807Z" transform="translate(-65.964 -92.975)" fill="url(#linear-gradient-7)"/>
        </g>
        <path id="Path_1838-3" data-name="Path 1838" d="M141.318,161.615c-.159.478-.665.612-1.3.265l-20.181-11.643a2.851,2.851,0,0,1-1.382-2.181V123.992a.681.681,0,0,1,.584-.766.718.718,0,0,1,.107-.005,1.093,1.093,0,0,0-.08.315V147.6a2.808,2.808,0,0,0,1.382,2.179l20.181,11.643A1.236,1.236,0,0,0,141.318,161.615Zm-25.366-14.438L95.744,135.535a2.851,2.851,0,0,1-1.382-2.181V109.288a.91.91,0,0,1,.08-.315.681.681,0,0,0-.7.664.611.611,0,0,0,.006.107V133.8a2.811,2.811,0,0,0,1.382,2.181l20.181,11.643c.638.372,1.143.239,1.3-.265A1.161,1.161,0,0,1,115.952,147.177ZM63.544,116.918,43.362,105.273a2.851,2.851,0,0,1-1.382-2.181V79.029a.91.91,0,0,1,.08-.315.681.681,0,0,0-.7.664.61.61,0,0,0,.006.107v24.059a2.81,2.81,0,0,0,1.382,2.185l20.181,11.643c.638.372,1.143.239,1.3-.265A1.051,1.051,0,0,1,63.544,116.918ZM165.3,175.681,145.12,164.038a2.851,2.851,0,0,1-1.382-2.181V137.791a.91.91,0,0,1,.08-.315.681.681,0,0,0-.7.664.608.608,0,0,0,.006.107v24.059a2.811,2.811,0,0,0,1.382,2.181l20.181,11.643c.638.372,1.143.239,1.3-.266a1.5,1.5,0,0,1-.691-.181ZM217.71,205.94,197.528,194.3a2.851,2.851,0,0,1-1.382-2.181V168.05a.91.91,0,0,1,.08-.315.681.681,0,0,0-.7.664.611.611,0,0,0,.006.107v24.059a2.811,2.811,0,0,0,1.382,2.181L217.1,206.389c.638.372,1.143.239,1.3-.265a1.426,1.426,0,0,1-.692-.184Z" transform="translate(-34.588 -30.484)" fill="#a7b8ba" opacity="0.9" style="isolation: isolate"/>
        <g id="Group_4074" data-name="Group 4074" transform="translate(202.425 161.062)">
          <g id="Group_4071" data-name="Group 4071">
            <path id="Path_1824" data-name="Path 1824" d="M299.426,253.833l-20.181-11.643a2.851,2.851,0,0,1-1.382-2.181V215.944c0-.771.612-1.037,1.382-.585L299.426,227a2.855,2.855,0,0,1,1.382,2.181v24.063C300.807,253.992,300.17,254.259,299.426,253.833ZM324.1,268.058l-20.181-11.643a2.851,2.851,0,0,1-1.382-2.181V230.168c0-.771.611-1.037,1.382-.585L324.1,241.226a2.855,2.855,0,0,1,1.382,2.181V267.47c0,.775-.613,1.042-1.383.589Zm24.674,14.253-20.181-11.643a2.851,2.851,0,0,1-1.382-2.181V244.421c0-.771.611-1.037,1.382-.585l20.181,11.643a2.855,2.855,0,0,1,1.382,2.181v24.063C350.158,282.5,349.546,282.762,348.774,282.311Z" transform="translate(-225.454 -184.879)" fill="url(#linear-gradient-25)"/>
            <path id="Path_1825" data-name="Path 1825" d="M249.46,224.984l-20.181-11.643a2.851,2.851,0,0,1-1.382-2.181V187.095c0-.771.611-1.037,1.382-.585l20.181,11.643a2.855,2.855,0,0,1,1.382,2.181V224.4C250.842,225.171,250.231,225.436,249.46,224.984Zm154.139,89-20.181-11.643a2.851,2.851,0,0,1-1.382-2.181V276.09c0-.771.611-1.037,1.382-.585L403.6,287.147a2.855,2.855,0,0,1,1.382,2.181v24.063c.027.774-.612,1.04-1.382.588Z" transform="translate(-227.896 -186.289)" fill="url(#linear-gradient-26)"/>
          </g>
          <g id="Group_4072" data-name="Group 4072" transform="translate(127.815 73.706)">
            <path id="Path_1826" data-name="Path 1826" d="M371.319,317.883,351.137,306.24a2.851,2.851,0,0,1-1.382-2.181V257.366c0-.771.612-1.037,1.382-.585l20.181,11.643A2.854,2.854,0,0,1,372.7,270.6v46.665C372.7,318.069,372.09,318.335,371.319,317.883Z" transform="translate(-349.755 -256.56)" fill="url(#linear-gradient-27)"/>
            <path id="Path_1827" data-name="Path 1827" d="M360.286,260.265c-.265-.133-.506-.315-.771-.478V312.65c.346.159.717.315,1.064.478V260.4A3.055,3.055,0,0,0,360.286,260.265Z" transform="translate(-349.278 -256.402)" fill="url(#linear-gradient-28)"/>
          </g>
          <g id="Group_4073" data-name="Group 4073" transform="translate(26.296 15.129)">
            <path id="Path_1828" data-name="Path 1828" d="M274.531,262.036l-20.181-11.643a2.851,2.851,0,0,1-1.382-2.181V201.519c0-.771.612-1.037,1.382-.585l20.181,11.643a2.857,2.857,0,0,1,1.386,2.185v46.665C275.916,262.222,275.3,262.488,274.531,262.036Z" transform="translate(-252.967 -200.713)" fill="url(#linear-gradient-29)"/>
            <path id="Path_1829" data-name="Path 1829" d="M263.5,204.422c-.266-.133-.506-.315-.771-.478v52.863c.346.159.717.315,1.064.478V204.551A3.025,3.025,0,0,0,263.5,204.422Z" transform="translate(-252.49 -200.555)" fill="url(#linear-gradient-30)"/>
          </g>
          <path id="Path_1830" data-name="Path 1830" d="M428.23,328.21l-20.181-11.643a2.851,2.851,0,0,1-1.382-2.181V290.321c0-.771.611-1.037,1.382-.585l12.922,7.471a9.546,9.546,0,0,1,4.627,6.648l4.041,23.824C429.612,328.37,429,328.636,428.23,328.21Z" transform="translate(-219.158 -181.243)" fill="url(#linear-gradient-31)"/>
          <path id="Path_1831" data-name="Path 1831" d="M327.845,269.229c-.159.478-.665.612-1.3.266L306.36,257.853a2.851,2.851,0,0,1-1.382-2.181V231.605a.681.681,0,0,1,.584-.766.714.714,0,0,1,.107-.005,1.094,1.094,0,0,0-.08.315v24.063a2.811,2.811,0,0,0,1.382,2.181l20.181,11.643A1.505,1.505,0,0,0,327.845,269.229Zm-25.366-14.438L282.3,243.149a2.851,2.851,0,0,1-1.382-2.181V216.9a.91.91,0,0,1,.08-.315.681.681,0,0,0-.7.664.614.614,0,0,0,.006.107v24.063a2.811,2.811,0,0,0,1.382,2.181l20.181,11.643c.638.372,1.143.239,1.3-.265a1.506,1.506,0,0,1-.692-.188ZM250.1,224.533l-20.181-11.647a2.851,2.851,0,0,1-1.382-2.181v-24.09a.91.91,0,0,1,.08-.315.681.681,0,0,0-.7.664.611.611,0,0,0,.006.107v24.059a2.811,2.811,0,0,0,1.382,2.181l20.182,11.646c.638.372,1.143.239,1.3-.265A.984.984,0,0,1,250.1,224.533Zm101.76,58.762-20.181-11.643a2.851,2.851,0,0,1-1.382-2.181V245.378a.909.909,0,0,1,.08-.315.681.681,0,0,0-.7.664.608.608,0,0,0,.006.107V269.9a2.811,2.811,0,0,0,1.382,2.181l20.181,11.643c.638.372,1.143.239,1.3-.265A1.148,1.148,0,0,1,351.857,283.295ZM437.58,332.8,417.4,321.159a2.851,2.851,0,0,1-1.382-2.181V294.914a.91.91,0,0,1,.08-.315.681.681,0,0,0-.7.664.614.614,0,0,0,.006.107v24.063a2.811,2.811,0,0,0,1.382,2.181l20.181,11.643c.638.372,1.143.239,1.3-.265a1.6,1.6,0,0,1-.693-.188Zm-33.343-19.277-20.18-11.644a2.851,2.851,0,0,1-1.382-2.181V275.637a.909.909,0,0,1,.08-.315.681.681,0,0,0-.7.664.608.608,0,0,0,.006.107v24.059a2.811,2.811,0,0,0,1.382,2.181l20.181,11.643c.638.372,1.143.239,1.3-.265a1.242,1.242,0,0,1-.694-.184Z" transform="translate(-227.895 -186.288)" fill="#a7b8ba" opacity="0.9" style="isolation: isolate"/>
        </g>
        <path id="路径_3042" data-name="路径 3042" d="M50.929.819C46.7-1.653,36.578,1.749,26.453,7.6,13.218,15.223-.017,27.075.01,35.5l189,108.409c-.027-8.4,13.208-20.251,26.469-27.9,10.125-5.847,21.248-8.695,25.5-6.25Z" transform="translate(0.016 0.997)" fill="url(#linear-gradient-8)"/>
        <g id="组_4647" data-name="组 4647" transform="translate(435.294 260.591)">
          <path id="路径_2999" data-name="路径 2999" d="M475.124,343.548,453.845,356.48,449.926,296a5.964,5.964,0,0,1,2.854-5.48l14.776-8.98a2.422,2.422,0,0,1,3.674,1.913Z" transform="translate(-449.913 -281.18)" fill="url(#linear-gradient-33)"/>
          <path id="路径_3000" data-name="路径 3000" d="M462.19,284.627l-9.412,5.719a5.962,5.962,0,0,0-2.852,5.48l3.182,50.065,12.5-7.595Z" transform="translate(-449.913 -281.011)" fill="#def0f0"/>
          <path id="路径_3001" data-name="路径 3001" d="M457.563,320.76a3.646,3.646,0,0,0,1.784-3.33l-1.253-23.593a1.039,1.039,0,0,0-1.567-.839l-6.382,3.778c-.028.017-.047.042-.075.06a5.916,5.916,0,0,0-.03.937l1.354,25.5a2.231,2.231,0,0,0,2.1-.1Z" transform="translate(-449.907 -280.609)" fill="url(#linear-gradient-34)"/>
          <path id="路径_3002" data-name="路径 3002" d="M474.25,340.492l-8.792-4.7-12.5,7.6.683,9.56Z" transform="translate(-449.764 -278.51)" fill="#aed3d3"/>
          <path id="路径_3003" data-name="路径 3003" d="M456.752,319.38a3.265,3.265,0,0,0,1.6-2.984l-1.123-21.146a.93.93,0,0,0-1.4-.751l-5.721,3.386c-.025.015-.043.038-.067.053a5.322,5.322,0,0,0-.027.839l1.214,22.851a2,2,0,0,0,1.88-.087Z" transform="translate(-449.909 -280.535)" fill="url(#linear-gradient-35)"/>
        </g>
        <path id="路径_3043" data-name="路径 3043" d="M50.929.819C46.7-1.653,36.578,1.749,26.453,7.6,13.218,15.223-.017,27.075.01,35.5L212.175,158.547c-.027-8.4,13.208-20.251,26.469-27.9,10.125-5.847,20.224-9.222,24.476-6.777Z" transform="translate(197.016 114.997)" fill="url(#linear-gradient-8)"/>
      </g>
    </g>
    <ellipse id="椭圆_286" data-name="椭圆 286" cx="4.007" cy="5.905" rx="4.007" ry="5.905" transform="translate(455.875 348.531) rotate(-34.276)" fill="url(#linear-gradient-37)"/>
    <ellipse id="椭圆_287" data-name="椭圆 287" cx="3.489" cy="4.208" rx="3.489" ry="4.208" transform="translate(474.556 282.789)" fill="#ec411b"/>
    <ellipse id="椭圆_288" data-name="椭圆 288" cx="5.169" cy="2.287" rx="5.169" ry="2.287" transform="translate(498.455 333.944) rotate(-86.866)" fill="url(#linear-gradient-38)"/>
    <g id="组_4650" data-name="组 4650" transform="translate(450.644 306.276)">
      <path id="路径_3004" data-name="路径 3004" d="M431.271,300.625l13.692-7.1,1.731,12.34-13.762,7.062Z" transform="translate(-431.271 -293.529)" fill="#fff"/>
      <path id="路径_3005" data-name="路径 3005" d="M432.563,310.147l13.692-7.1.119.813-13.762,7.062Z" transform="translate(-431.207 -293.063)" fill="#cc004a"/>
      <path id="路径_3006" data-name="路径 3006" d="M432.259,307.236l13.692-7.1.119.813-13.762,7.062Z" transform="translate(-431.222 -293.206)" fill="#cc004a"/>
      <path id="路径_3007" data-name="路径 3007" d="M432.015,305.769l13.692-7.1.119.813-13.762,7.062Z" transform="translate(-431.234 -293.277)" fill="#cc004a"/>
      <g id="组_4649" data-name="组 4649" transform="translate(0 0.573)">
        <path id="路径_3008" data-name="路径 3008" d="M432.808,311.614l13.692-7.1.119.813-13.762,7.062Z" transform="translate(-431.195 -293.565)" fill="#cc004a"/>
        <path id="路径_3009" data-name="路径 3009" d="M432.367,308.679l13.692-7.1.119.813-13.762,7.062Z" transform="translate(-431.217 -293.708)" fill="#cc004a"/>
        <path id="路径_3010" data-name="路径 3010" d="M431.819,304.3l13.692-7.1.119.813-13.762,7.062Z" transform="translate(-431.244 -293.922)" fill="#cc004a"/>
        <path id="路径_3011" data-name="路径 3011" d="M431.6,302.638l13.692-7.1.119.813-13.762,7.062Z" transform="translate(-431.255 -294.003)" fill="#cc004a"/>
        <path id="路径_3012" data-name="路径 3012" d="M431.354,301.171l13.692-7.1.119.813L431.4,301.951Z" transform="translate(-431.267 -294.075)" fill="#cc004a"/>
        <line id="直线_2" data-name="直线 2" y1="3.692" x2="7.114" transform="translate(0 2.814)" fill="#cc004a"/>
      </g>
      <path id="路径_3013" data-name="路径 3013" d="M438.385,296.758l.85,6.287-7.184,3.659-.78-6.253" transform="translate(-431.271 -293.371)" fill="#002b7f"/>
    </g>
    <ellipse id="椭圆_289" data-name="椭圆 289" cx="2.333" cy="3.438" rx="2.333" ry="3.438" transform="translate(460.038 351.666) rotate(-34.276)" fill="#fff"/>
    <ellipse id="椭圆_290" data-name="椭圆 290" cx="2.585" cy="1.144" rx="2.585" ry="1.144" transform="translate(499.597 334.007) rotate(-86.866)" fill="#fff"/>
  </g>
</svg>
