<svg xmlns="http://www.w3.org/2000/svg" width="179.594" height="130.33" viewBox="0 0 179.594 130.33">
  <g id="Group_4638" data-name="Group 4638" transform="translate(-24.42 -53.115)">
    <path id="路径_1598" data-name="路径 1598" d="M329.584,213.668l-9.771-5.634-.389,5.6,9.771,5.647Z" transform="translate(-125.631 -65.974)" fill="#e9b013"/>
    <g id="Group_4638-2" data-name="Group 4638" transform="translate(42.088 110.131)">
      <path id="路径_1615" data-name="路径 1615" d="M74.31,172.888c1.327-.924,2.129-2.7,2.117-5.159-.036-5.242-3.784-11.595-8.368-14.2-2.045-1.168-3.906-1.375-5.354-.79-.243.1-3.894,2.263-4.052,2.384-1.3.936-2.081,2.689-2.057,5.111.036,5.242,3.784,11.595,8.368,14.2,2.166,1.229,4.134,1.4,5.61.682Z" transform="translate(-55.791 -152.422)" fill="#1d1d1d"/>
      <path id="路径_1616" data-name="路径 1616" d="M55.194,162.491c.036,5.243,3.784,11.595,8.368,14.2s8.275.463,8.238-4.77-3.784-11.595-8.368-14.2S55.157,157.246,55.194,162.491Z" transform="translate(-55.194 -154.205)" fill="#2b2b2b"/>
      <path id="路径_1617" data-name="路径 1617" d="M59.5,166.84a12.534,12.534,0,0,0,5.756,9.771c3.151,1.789,5.694.317,5.67-3.286a12.536,12.536,0,0,0-5.756-9.771C62.015,161.766,59.472,163.239,59.5,166.84Z" transform="translate(-57.026 -156.839)" fill="#b6b6b6"/>
    </g>
    <path id="路径_1610" data-name="路径 1610" d="M200.894,222.679l-10.1,4.758,2.3,10.756,7.8-4.757Z" transform="translate(-70.853 -72.211)" fill="#686868"/>
    <path id="路径_1614" data-name="路径 1614" d="M60.183,134.85l-11.22,5.5,2.555,10.587,8.664-5.329Z" transform="translate(-10.452 -34.808)" fill="#686868"/>
    <g id="Group_4639" data-name="Group 4639" transform="translate(123.19 156.87)">
      <path id="路径_1611" data-name="路径 1611" d="M215.549,254.3c1.339-.924,2.142-2.7,2.117-5.159-.036-5.243-3.784-11.595-8.368-14.2-2.045-1.168-3.906-1.375-5.344-.791-.255.1-3.906,2.264-4.064,2.386-1.29.937-2.081,2.689-2.057,5.123.036,5.243,3.784,11.595,8.369,14.2,2.166,1.229,4.134,1.4,5.61.682Z" transform="translate(-197.04 -233.83)" fill="#1d1d1d"/>
      <path id="路径_1612" data-name="路径 1612" d="M196.453,243.882c.036,5.242,3.784,11.595,8.368,14.2s8.275.463,8.239-4.771-3.784-11.609-8.369-14.2S196.4,238.636,196.453,243.882Z" transform="translate(-196.452 -235.609)" fill="#2b2b2b"/>
      <path id="路径_1613" data-name="路径 1613" d="M200.755,248.224a12.538,12.538,0,0,0,5.756,9.771c3.151,1.788,5.694.317,5.67-3.286a12.516,12.516,0,0,0-5.768-9.771C203.262,243.15,200.731,244.606,200.755,248.224Z" transform="translate(-198.284 -238.235)" fill="#b6b6b6"/>
    </g>
    <path id="Path_2986" data-name="Path 2986" d="M158.106,182l.01.006h0l-.56-1.947-.552-.406-36.087-27.539-7.837-26.939L60.78,95.281,44.293,105.672h0l-13.727-4.235V121.26l8.518,10.015,4.307,2.763c.413-5.646,4.709-7.8,9.941-4.77,5.512,3.176,9.981,10.879,9.981,17.206,0,.328-.012.633-.036.936l61.208,35.265.255.11c-.024-.316-.036-.633-.036-.936,0-6.316,4.466-8.873,9.981-5.683,5.075,2.933,9.276,9.71,9.893,15.7l11.292,6.522,2.276-16.354Z" transform="translate(-2.618 -17.957)" fill="#cc8118"/>
    <g id="Group_4642" data-name="Group 4642" transform="translate(45.252 96.701)">
      <g id="Group_4640" data-name="Group 4640" transform="translate(33.433 17.119)">
        <path id="Path_2987" data-name="Path 2987" d="M151.962,178.41a.9.9,0,0,1,.156-.413l-33.181-19.149v26.216l42.974,24.987s.02-4.358.036-9.5C154.027,195.943,150.852,187.855,151.962,178.41Z" transform="translate(-118.936 -158.848)" fill="#e7921b"/>
      </g>
      <g id="Group_4641" data-name="Group 4641">
        <path id="Path_2988" data-name="Path 2988" d="M65.749,129.031A9.749,9.749,0,0,1,60.7,132.2v10.326c1.721-2.449,4.772-1.423,7.557.748,6.655,5.186,7.887,11.247,7.887,17.574,0,.328-.012.633-.036.936l16.3,9.572V145Z" transform="translate(-60.704 -129.031)" fill="#e7921b"/>
      </g>
      <path id="路径_1643" data-name="路径 1643" d="M148.583,205.486l-62.022-35.8.63,9.374,61.141,35.3Z" transform="translate(-71.715 -146.344)" fill="#876539" opacity="0.64" style="mix-blend-mode: multiply;isolation: isolate"/>
    </g>
    <path id="路径_1599" data-name="路径 1599" d="M267.456,140.3l-.072-1.131-.1-2.751-8.872,4.88-.049.754v.012h0v.024l.025-.012.535.255,3.6-1.91v2.045l.73.036.049-.024v.073Z" transform="translate(-99.627 -35.476)" fill="#232324"/>
    <path id="Path_2989" data-name="Path 2989" d="M33.484,131.937l-5.233-3.7-3.831,2.178.939.732-.063.022,5.208,8.275,2.664-1.484,0-.724.289.225Z" transform="translate(0 -31.992)" fill="#181818"/>
    <path id="Path_2990" data-name="Path 2990" d="M152.712,81.475l-49-28.36L85.946,63.15,73.532,59.059l-42.8,24.507,17.206,5.67L64.718,79.63l45.188,26.339Z" transform="translate(-2.69 0)" fill="#eba508"/>
    <path id="路径_1603" data-name="路径 1603" d="M178.012,82.009,128.8,53.115,89.633,79.952l45.573,26.564Z" transform="translate(-27.772 0)" fill="#ffc927"/>
    <path id="路径_1604" data-name="路径 1604" d="M296.945,200.34,250.96,226.879,248.7,243.213l46-26.551Z" transform="translate(-95.511 -62.698)" fill="#ffd147"/>
    <path id="路径_1605" data-name="路径 1605" d="M297.142,203.836l-42.407,24.593L253.1,238.3,295.511,213.7Z" transform="translate(-97.388 -64.186)" fill="#47484a"/>
    <path id="Path_2991" data-name="Path 2991" d="M262.9,158.845l-.425-2.069L225.3,131.157l-13.266-28.311L169.07,127.1l9.531,30.63c1.45-.543,38.315,27.669,38.315,27.669Z" transform="translate(-61.601 -21.179)" fill="#f5b218"/>
    <path id="路径_1608" data-name="路径 1608" d="M212.872,107.149,173.118,130l10.246,27.238c18.788-7.325,30.421-13.689,42.054-24.458Z" transform="translate(-63.325 -23.011)" fill="#242424"/>
    <path id="路径_1609" data-name="路径 1609" d="M212.789,109.226l-38.5,22.122,9.917,26.368c18.2-7.094,29.46-13.263,40.728-23.679Z" transform="translate(-63.821 -23.896)" fill="#2a2a2a"/>
    <path id="路径_1624" data-name="路径 1624" d="M24.42,132.031l6.121,3.541v5.512l-6.121-3.529Z" transform="translate(0 -33.607)" fill="#2c2c2c"/>
    <path id="路径_1625" data-name="路径 1625" d="M125.1,132.7,82.18,107.149,70.1,120.316l61.025,36.152Z" transform="translate(-19.455 -23.011)" fill="#181818"/>
    <path id="Path_2992" data-name="Path 2992" d="M124.971,135.355,83.783,110.836l-9.916,10.715,56.7,33.592Z" transform="translate(-21.058 -24.581)" fill="#4c4c4c"/>
    <path id="路径_1626" data-name="路径 1626" d="M123.473,128.434l-1.61-.946-5.616,18.039,1.911,1.118Z" transform="translate(-39.106 -31.673)" fill="#cc8118"/>
    <path id="路径_1631" data-name="路径 1631" d="M297.7,196.737l-45.885,26.527.512,2.069,45.9-26.517Z" transform="translate(-96.838 -61.163)" fill="#ffd147"/>
    <g id="Group_4645" data-name="Group 4645" transform="translate(142.551 147.317)">
      <g id="Group_4643" data-name="Group 4643" transform="translate(0.389)">
        <path id="路径_1620" data-name="路径 1620" d="M297.049,217.19,248,245.622l1.448.852L298.5,218.042Z" transform="translate(-238.153 -217.19)" fill="#e9b013"/>
        <path id="路径_1621" data-name="路径 1621" d="M245.879,262.311l-4.478.219-8.1-4.648-2.446,1.618,11.828,9.625Z" transform="translate(-230.851 -234.519)" fill="#e9b013"/>
      </g>
      <g id="Group_4644" data-name="Group 4644" transform="translate(0 0.365)">
        <path id="路径_1622" data-name="路径 1622" d="M240.321,266.166l-9.771-5.634-.377,5.6,9.759,5.646Z" transform="translate(-230.173 -236.013)" fill="#cc8118"/>
        <path id="路径_1632" data-name="路径 1632" d="M298.875,217.826l-51.7,30.046v5.67l51.7-30.046Z" transform="translate(-237.412 -217.826)" fill="#cc8118"/>
        <path id="路径_1632-2" data-name="路径 1632" d="M300.164,226.7,261.35,249.28l-1.148,2.6L299.016,229.3Z" transform="translate(-242.961 -221.606)" fill="#47484a"/>
      </g>
    </g>
    <path id="路径_1633" data-name="路径 1633" d="M233.271,109.249l-.571-.34L220.36,116l21.818,12.789Z" transform="translate(-83.443 -23.761)" fill="#414241"/>
    <path id="路径_1634" data-name="路径 1634" d="M242.527,108.612h-.718l4.366,19.226h.718Z" transform="translate(-92.578 -23.634)" fill="#2c2c2c"/>
    <g id="组_4011" data-name="组 4011" transform="translate(104.525 131.984)">
      <path id="路径_1637" data-name="路径 1637" d="M171.272,190.485l-7.33,4.174v4.088l.9.389,4.335-5.4,2.945-2.8Z" transform="translate(-163.942 -190.485)" fill="#232324"/>
      <path id="路径_1638" data-name="路径 1638" d="M172.772,191.226l-7.325,4.174v4.1l4.953-2.848.452-3.313,1.9-1.351Z" transform="translate(-164.583 -190.801)" fill="#232324"/>
    </g>
    <path id="Path_2993" data-name="Path 2993" d="M130.436,202.81,72.242,169.2c-.589-17.756-21.522-29.715-22.814-13.691l2.324,1.654c1.837-11,17.848-2.907,19.132,11.253l-.014-.009.072,2.154,62.015,35.8-.078-2.141-.046-.027c1.827-11.679,18.337-3.564,19.405,9.957a11.719,11.719,0,0,0,1.412.791C153.663,196.946,132.17,187.075,130.436,202.81Z" transform="translate(-10.65 -40.405)" fill="#f5b218"/>
    <g id="Group_4646" data-name="Group 4646" transform="translate(111.116 76.907)">
      <path id="Path_2994" data-name="Path 2994" d="M204.028,101.433l-18.139,10.821.119-6.916L201.1,96.555Z" transform="translate(-179.879 -95.407)" fill="#f5b218"/>
      <path id="Path_2995" data-name="Path 2995" d="M198.848,95.72l-15.175,8.762-2.987-1.164,15.175-8.762Z" transform="translate(-177.663 -94.555)" fill="#ffda6a"/>
      <path id="Path_2996" data-name="Path 2996" d="M181.431,117.916l-6.01-2.6,2.99-5.469L181.551,111Z" transform="translate(-175.422 -101.069)" fill="#cc8118"/>
      <path id="Path_2997" data-name="Path 2997" d="M203.876,102.672l-14.918,8.805.093-5.366,12.55-7.224Z" transform="translate(-181.186 -96.4)" fill="#4e3616"/>
    </g>
    <path id="路径_1605-2" data-name="路径 1605" d="M299.078,234.822l-12.206,7.218v9.868l12.206-7.218Z" transform="translate(-111.768 -77.382)" fill="#795e39"/>
  </g>
</svg>
