<svg xmlns="http://www.w3.org/2000/svg" width="197.92" height="137.086" viewBox="0 0 197.92 137.086">
  <g id="Group_4447" data-name="Group 4447" transform="translate(-45.86 -72.579)">
    <g id="Group_4458" data-name="Group 4458" transform="translate(45.86 72.579)">
      <g id="Group_4447-2" data-name="Group 4447" transform="translate(162.415 43.34)">
        <path id="Path_2390" data-name="Path 2390" d="M279.662,143.345,277.9,148.3h1.124l1.59-4.214,2.436-1.48a7.2,7.2,0,0,0-.422-.885Z" transform="translate(-277.896 -136.663)"/>
        <path id="Path_2391" data-name="Path 2391" d="M293.842,134.5l-8.634,2.99-.433,1.994-.125.069a7.2,7.2,0,0,1,.422.885l.2-.122v3.174l1.9.714,7.158-3.888.446-2.826Z" transform="translate(-279.922 -134.497)" fill="#0286cc"/>
      </g>
      <path id="Path_2392" data-name="Path 2392" d="M291.711,222.578c-9.858,8.737-20.578,16.446-30.509,25.085.052.024.125.059.229.111a17.469,17.469,0,0,0,7.744,1.96c9.249.084,16.513-3.77,23.249-8.163,4.923-3.211,8.735-6.482,10.6-9.421a7.755,7.755,0,0,0,1.129-4.326c-.06-3.013,1.608-8.875-.06-14.211C300.463,216.51,295.193,219.492,291.711,222.578Z" transform="translate(-110.472 -114.895)" fill="#1a1a1a"/>
      <g id="_6" data-name="6" transform="translate(0.597)">
        <g id="Group_4452" data-name="Group 4452" transform="translate(11.415 39.047)">
          <path id="Path_2393" data-name="Path 2393" d="M223.64,210.695l-30.662,17.7-7.071-10.671,3.594-7.774,10.708-7.261Z" transform="translate(-99.892 -150.665)" fill="#1d1b18"/>
          <g id="Group_4449" data-name="Group 4449" transform="translate(96.362 62.946)">
            <g id="Axonometric_Cylinder" data-name="Axonometric Cylinder">
              <path id="Path_2394" data-name="Path 2394" d="M219.5,219.761c-3.006-1.736-5.724-1.881-7.676-.713l-6.736,3.889,15.354,26.269,6.735-3.889c1.906-1.141,3.081-3.534,3.081-6.923C230.262,231.534,225.445,223.192,219.5,219.761Z" transform="translate(-202.011 -218.292)" fill="#1d1b18"/>
              <path id="Cylinder_face" data-name="Cylinder face" d="M222.206,243.95c0,6.86-4.816,9.641-10.758,6.211s-10.758-11.773-10.758-18.633,4.816-9.641,10.758-6.211S222.206,237.089,222.206,243.95Z" transform="translate(-200.69 -219.959)" fill="#312b26"/>
            </g>
            <g id="Group_4448" data-name="Group 4448" transform="translate(3.196 8.399)" style="isolation: isolate">
              <path id="Path_2395" data-name="Path 2395" d="M212.8,248.536c-4.094-2.266-7.47-7.979-7.541-12.762s3.189-6.824,7.282-4.559,7.469,7.978,7.541,12.761S216.892,250.8,212.8,248.536Z" transform="translate(-205.256 -230.291)" fill="#cfcfd0"/>
            </g>
          </g>
          <path id="Path_2396" data-name="Path 2396" d="M75.377,128.364l-10.708,7.261-.325.7a14.327,14.327,0,0,0,.889,13.66l2.661,4.216,30.914-17.835Z" transform="translate(-63.021 -128.364)" fill="#1d1b18"/>
          <g id="Group_4451" data-name="Group 4451" transform="translate(9.059 11.299)">
            <g id="Axonometric_Cylinder-2" data-name="Axonometric Cylinder">
              <path id="Path_2397" data-name="Path 2397" d="M94.777,145.976c-3.006-1.736-5.724-1.881-7.676-.713l-6.736,3.889,15.354,26.269,6.735-3.889c1.906-1.141,3.081-3.534,3.081-6.923C105.535,157.749,100.718,149.407,94.777,145.976Z" transform="translate(-77.284 -144.507)" fill="#1d1b18"/>
              <path id="Cylinder_face-2" data-name="Cylinder face" d="M97.479,170.165c0,6.86-4.817,9.641-10.758,6.211S75.963,164.6,75.963,157.743s4.816-9.641,10.758-6.211S97.479,163.3,97.479,170.165Z" transform="translate(-75.963 -146.174)" fill="#312b26"/>
            </g>
            <g id="Group_4450" data-name="Group 4450" transform="translate(3.196 8.399)" style="isolation: isolate">
              <path id="Path_2398" data-name="Path 2398" d="M88.071,174.751c-4.093-2.265-7.469-7.979-7.541-12.762s3.189-6.824,7.282-4.559,7.469,7.978,7.541,12.762S92.165,177.016,88.071,174.751Z" transform="translate(-80.529 -156.506)" fill="#cfcfd0"/>
            </g>
          </g>
        </g>
        <path id="Path_2399" data-name="Path 2399" d="M238.132,150.141c-3.422-5.282-9.846-11.121-15.081-14.614-14.813-9.887-14-12.567-27.434-24.015-4.667-3.979-11.726-12.065-16.651-15.72-2.09-1.551-32.723-18.4-44.94-23.213-2.576,0-27.825,1.73-27.825,1.73l-9.386,1.148s-1.708-.723-4.354.741c-6.139,3.4-35.692,19.565-42.1,23.3a8.071,8.071,0,0,0-2.727,2.555,6.693,6.693,0,0,0-.856,1.713C46.279,105.607,48.987,122,48.987,122a8.377,8.377,0,0,0,1.091,4.154c1.2,2.1,10.233,9.3,12.937,11.314.046-10.872,3.559-17.645,14.04-11.594C86.978,131.608,91.1,142.9,91.1,153.9l60.117,35.461c.1-10.709,3.644-17.318,14.034-11.32,9.685,5.591,13.83,16.48,14.025,27.221a14.79,14.79,0,0,0,3.109,1.575,25.211,25.211,0,0,0,11.176,2.828A46.7,46.7,0,0,0,208.6,207.3a51.465,51.465,0,0,1,5.7-12.644c.547-.809,14.306-8.488,19.509-12.683a21.2,21.2,0,0,1,4.366-3.048,1.2,1.2,0,0,1,1.65,1.043,30.993,30.993,0,0,1-.41,7.511c1.675-1.762,2.759-2.238,3.739-4.673a12.61,12.61,0,0,0,.879-4.954C243.92,171.926,243.813,158.912,238.132,150.141Z" transform="translate(-46.714 -72.579)" fill="#0069a8"/>
        <path id="Path_2400" data-name="Path 2400" d="M250.5,247.144a36.243,36.243,0,0,0,.085,9.26c.2,1.3.764,2.854,2.068,3.02a3.264,3.264,0,0,0,2.025-.685l12.035-7.393a9.482,9.482,0,0,0,3.053-2.53,3.589,3.589,0,0,0,.556-2.87C267.864,246.426,254.491,248.264,250.5,247.144Z" transform="translate(-107.779 -124.596)" fill="#1a1a1a"/>
        <path id="Path_2401" data-name="Path 2401" d="M323.334,213.222c-.647.916,1.72,3.242,1.971,3.6,3.011,4.353.5-8.116,1.244-9.772C325.568,209.241,325,211.609,323.334,213.222Z" transform="translate(-129.678 -112.927)" fill="#1a1a1a"/>
        <path id="Path_2402" data-name="Path 2402" d="M247.468,185.882C262.69,176.444,264.1,167.164,264,166.394c-.7-5.411-2.14-11.362-5.2-16.085-3.422-5.282-9.846-11.121-15.081-14.614-14.813-9.887-14-12.568-27.434-24.015-4.668-3.979-11.726-12.066-16.651-15.72C197.838,94.629,169.061,79.088,158.725,74a8.432,8.432,0,0,0-7.105-.145c-7.087,3.1-21.868,9.513-33.038,16.165-3.125,1.861-4.322,7.858-1.028,9.4,13.281,6.218,35.592,18.9,39.343,23.453,5.029,6.1,22.779,30.443,24.663,33.415a3.147,3.147,0,0,0,.41.518c6.19,6.356,13.408,15.846,19.8,21.881,6.02,6.02,6.733,8.915,7.171,12.951a5.463,5.463,0,0,0,4.936,4.877C223.6,197.336,234.478,194.417,247.468,185.882Z" transform="translate(-67.379 -72.747)" fill="#007fc7"/>
        <path id="Path_2403" data-name="Path 2403" d="M162.252,174.355,156.438,171a1.236,1.236,0,0,1-.595-.939v-.825c0-.328.267-.441.595-.251l5.814,3.356a1.235,1.235,0,0,1,.595.939v.825C162.847,174.432,162.581,174.545,162.252,174.355Z" transform="translate(-79.457 -101.477)" fill="#0b224d"/>
        <path id="Path_2404" data-name="Path 2404" d="M112.6,145.688l-5.814-3.356a1.234,1.234,0,0,1-.595-.939v-.824c0-.329.266-.442.595-.252l5.814,3.357a1.234,1.234,0,0,1,.595.939v.824C113.195,145.765,112.928,145.878,112.6,145.688Z" transform="translate(-64.559 -92.876)" fill="#0b224d"/>
      </g>
      <path id="Path_2405" data-name="Path 2405" d="M50.693,100.241a8.071,8.071,0,0,0-2.727,2.555c-.048.075-.087.152-.134.228C64.59,99.268,63.319,100,63.319,100l43.216-24.951L99.1,75.96a11.838,11.838,0,0,0-6.307.98" transform="translate(-46.452 -73.321)" fill="#83c7ef" opacity="0.28"/>
      <g id="Group_4453" data-name="Group 4453" transform="translate(20.317 0.006)">
        <path id="Path_2406" data-name="Path 2406" d="M175.849,155.569c-.784,0-3.09,1.309-9.709-1.025a22.114,22.114,0,0,1-5.031-2.229q-35.38-19.922-70.571-40.171c-.8-.459-8.852-4.483-11.968-6.239a7.489,7.489,0,0,1-3.684-4.6V99.461a3.943,3.943,0,0,1,1.487-2.028q18.3-10.5,36.554-21.072c.905-.522,4.662-2.322,5.709-2.408,1.669-.136,3.342-.22,5.014-.334,3.955-.269,18.178-1.031,18.514-1.031l-.916.416c-11.038,5.025-24.52,12.132-35.009,18.211a15.524,15.524,0,0,0-2.437,2.023c-1.4,3.092,1.691,5.6,4.193,6.876,1.521.776,3.029,1.576,4.529,2.388,8.936,4.835,17.664,10.035,26.437,15.154,1.014.591,2.168.755,4.411,1.154a9.365,9.365,0,0,0,5.626-.765c5.628-2.562,11.285-5.061,16.789-7.884,7.081-3.63,14.047-7.451,20.094-12.717.484-.422,1.534-1.649,1.534-1.649,3.549,3.209,24.471,23.517,31.594,29.909a4.827,4.827,0,0,1,1.69,2.623V129a6.156,6.156,0,0,1-1.484,3.162c-1.816,1.58-3.563,3.244-5.432,4.756C202.555,146,190.45,153.331,175.849,155.569Z" transform="translate(-74.887 -72.587)" fill="#1a1a1a"/>
      </g>
      <path id="Path_2407" data-name="Path 2407" d="M150.624,135.728a21.234,21.234,0,0,0-7.058-6.686c-11.042-6.41-24.625-14.516-33.641-18.9a4.669,4.669,0,0,0-3.11-.36c-5.871,1.357-20.27,8.523-17.356,10.2,9.169,5.294,69.157,39.567,78.335,44.568.563.307,1.3-.3.971-.853C166.145,159.309,155.672,143.38,150.624,135.728Z" transform="translate(-58.826 -83.707)" fill="#1e1c1a"/>
      <g id="Group_4454" data-name="Group 4454" transform="translate(31.783 28.375)">
        <path id="Path_2408" data-name="Path 2408" d="M102.853,115.57c-5.147,2.171-11.558,5.65-11.586,6.914,1.525.881,4.214,2.424,7.687,4.413A41.065,41.065,0,0,1,102.853,115.57Z" transform="translate(-91.267 -113.853)" fill="#474645" stroke="#1e1c1a" stroke-miterlimit="10" stroke-width="0.9"/>
        <path id="Path_2409" data-name="Path 2409" d="M103.594,126.7c8.337,4.774,20.689,11.829,32.533,18.572a77.12,77.12,0,0,1,3.834-16.946c-9.267-5.409-19.638-11.453-26.808-14.9a3.061,3.061,0,0,0-2.119-.2,28.566,28.566,0,0,0-3.022,1.023A41.034,41.034,0,0,0,103.594,126.7Z" transform="translate(-94.966 -113.118)" fill="#474645" stroke="#1e1c1a" stroke-miterlimit="10" stroke-width="0.9"/>
        <path id="Path_2410" data-name="Path 2410" d="M166.805,144.756a20.047,20.047,0,0,0-6.617-6.268l-4.984-2.9a76.655,76.655,0,0,0-3.764,16.974c14.622,8.325,28.239,16.044,32.162,18.181.006,0,.127.017.127.017C181.149,166.43,171.212,151.437,166.805,144.756Z" transform="translate(-109.321 -119.858)" fill="#474645" stroke="#1e1c1a" stroke-miterlimit="10" stroke-width="0.9"/>
      </g>
      <path id="Path_2411" data-name="Path 2411" d="M238.92,205.056c27.191,2.075,52.229-20.934,49.316-29.95q-.488-.911-1.044-1.774c-3.422-5.283-9.846-11.121-15.081-14.615-6.865-4.582-6.394-3.834-11.134-7.556-18.783,25.126-51.858,27.995-51.858,27.995,4.723,4.808,13.477,15.678,20.374,21.837A16.015,16.015,0,0,0,238.92,205.056Z" transform="translate(-94.845 -96.157)" fill="#0286cc"/>
      <path id="Path_2412" data-name="Path 2412" d="M211.3,164.641c12.353-3.374,29.231-13.814,39.422-23.468a2.71,2.71,0,0,0-.113-4.009l-29.29-27.515c-7.173,6.541-25.829,16.292-40.722,22.768,7.432,12.68,16.175,24.752,22.9,30.644C206.048,165.293,208.269,165.468,211.3,164.641Z" transform="translate(-86.286 -83.702)" fill="#474645" stroke="#1e1c1a" stroke-miterlimit="10" stroke-width="2"/>
      <g id="Group_4455" data-name="Group 4455" transform="translate(30.732 1.092)">
        <path id="Path_2413" data-name="Path 2413" d="M121.285,76.275,90.211,94.215c-1.933,1.339,2.725.562,8.153-.255,4.676-.7,9.766-1.634,9.766-1.634a20.7,20.7,0,0,0,4.357-1.972,312.918,312.918,0,0,1,30.784-16.215L124.557,75.4A6.532,6.532,0,0,0,121.285,76.275Z" transform="translate(-89.766 -74.139)" fill="#474645"/>
      </g>
      <g id="Group_4456" data-name="Group 4456" transform="translate(95.83 79.773)">
        <path id="Path_2414" data-name="Path 2414" d="M191.405,187.817l-.836-1.27-7.8,4.443v6.7l1.476.644,7.421-4.8-.319-4.051.442-.422V187.6Z" transform="translate(-182.769 -186.547)" fill="#0286cc"/>
        <path id="Path_2415" data-name="Path 2415" d="M197.508,186.575l-1.853,1.036v1.46l1.242-1.184,3.134,2.148.96-.52Z" transform="translate(-186.635 -186.555)"/>
      </g>
      <g id="Group_4457" data-name="Group 4457" transform="translate(168.833 98.719)">
        <path id="Path_2416" data-name="Path 2416" d="M287.064,225.546s13.922-7.791,19.449-11.932a14.029,14.029,0,0,1,1.3,5.194v.352c-.2.115-12.7,8.556-19.376,11.626h-.353A22.888,22.888,0,0,0,287.064,225.546Z" transform="translate(-287.064 -213.614)" fill="#fff"/>
      </g>
      <path id="Path_2417" data-name="Path 2417" d="M259.652,226.764c-3.716,6-10.948,7.553-16.316,2.465-.72-.516-4.63-5.3-4.63-5.3s5.655,1.973,6.533,2.166A42.809,42.809,0,0,0,259.652,226.764Z" transform="translate(-103.722 -117.99)" fill="#cfcfcf"/>
      <path id="Path_2418" data-name="Path 2418" d="M318.97,194.582s2.327,1.634,3.2-.249a10.02,10.02,0,0,0-.612-8.141C321.322,188.995,318.97,194.582,318.97,194.582Z" transform="translate(-127.804 -106.668)" fill="#cfcfcf"/>
      <path id="Path_2419" data-name="Path 2419" d="M138.937,186.242a14.565,14.565,0,0,1,5.831,3.844,7.66,7.66,0,0,1,13,6.779,8.517,8.517,0,0,1,6.752,8.531q5.375,4.9,10.7,9.85c-1.289.57-2.78.164-4.119-.275-7.749-2.544-13.422-6.371-32.147-17.474-2.292-1.359-7.308-3.808-7.835-6.724C130.381,186.7,136.046,185.38,138.937,186.242Z" transform="translate(-71.421 -106.607)" fill="#fff"/>
      <path id="Path_2420" data-name="Path 2420" d="M121.561,157.3a1.942,1.942,0,0,0,.326,1.2,2.186,2.186,0,0,0,.982.485,4.59,4.59,0,0,1,2.805,5.444l5.423,4.132-11.745-6.707c-2.335-1.333-8.721-3.633-9.375-6.643C108.541,148.6,121.036,149.738,121.561,157.3Z" transform="translate(-65.064 -96.071)" fill="#fff"/>
      <path id="Path_2421" data-name="Path 2421" d="M59.117,130.795A7.72,7.72,0,0,0,50.5,119.82a5.556,5.556,0,0,0-3.154-4.462,5.383,5.383,0,0,0-.568,1.245c-.327,1.214.741,8.766,1.506,13.763q7.42,4.511,14.666,9.3c1.686-1.095,1.925-3.641.937-5.392A8.482,8.482,0,0,0,59.117,130.795Z" transform="translate(-46.116 -85.414)" fill="#fff"/>
      <path id="Rectangle_256" data-name="Rectangle 256" d="M2.733,0h.677a.173.173,0,0,1,.173.173V8.65a0,0,0,0,1,0,0h-1.8A1.786,1.786,0,0,1,0,6.865V2.733A2.733,2.733,0,0,1,2.733,0Z" transform="translate(0 34.96) rotate(-7.488)" fill="#f1833e"/>
    </g>
    <g id="Group_4459" data-name="Group 4459" transform="translate(120.072 79.167)">
      <path id="Path_2422" data-name="Path 2422" d="M184.464,89.937,162.35,103.13,162.5,94.7l18.394-10.707Z" transform="translate(-155.024 -82.591)" fill="#fff"/>
      <path id="Path_2423" data-name="Path 2423" d="M179.29,83.411l-18.5,10.682-3.642-1.42,18.5-10.682Z" transform="translate(-153.463 -81.991)" fill="#f3f4f4"/>
      <path id="Path_2424" data-name="Path 2424" d="M159.21,107.119l-7.327-3.164,3.645-6.667,3.827,1.4Z" transform="translate(-151.883 -86.581)" fill="#dddede"/>
    </g>
  </g>
</svg>
