<svg xmlns="http://www.w3.org/2000/svg" xmlns:xlink="http://www.w3.org/1999/xlink" width="327.748" height="263.805" viewBox="0 0 327.748 263.805">
  <defs>
    <linearGradient id="linear-gradient" x1="0.101" y1="0.025" x2="1.027" y2="1.132" gradientUnits="objectBoundingBox">
      <stop offset="0" stop-color="#fff"/>
      <stop offset="0.654" stop-color="#fff" stop-opacity="0.529"/>
      <stop offset="0.994" stop-color="#fff" stop-opacity="0.302"/>
    </linearGradient>
    <linearGradient id="linear-gradient-2" x1="0.318" y1="0.312" x2="0.725" y2="0.759" gradientUnits="objectBoundingBox">
      <stop offset="0" stop-color="#fff"/>
      <stop offset="0.994" stop-color="#fff" stop-opacity="0.898"/>
    </linearGradient>
  </defs>
  <g id="Group_4463" data-name="Group 4463" transform="translate(-31.678 -37.707)">
    <path id="Path_1530" data-name="Path 1530" d="M39.594,144.331l-7.916,4v1.84l7.916-4Z" fill="#6a5559"/>
    <path id="Path_1531" data-name="Path 1531" d="M70.386,172.234,80.1,167.8l-9.277-1.761Z" fill="#171717"/>
    <path id="Path_1533" data-name="Path 1533" d="M245.381,274.05l9.36-5.284-10.468-1.979Z" fill="#181919"/>
    <path id="Path_1534" data-name="Path 1534" d="M267.882,283.469c.059-5.106-3.483-11.379-7.9-13.991-2.315-1.385-4.413-1.464-5.9-.515l.02-.277-5.2,3.166c-1.821.633-2.988,2.533-3.008,5.422-.059,5.106,3.483,11.379,7.9,13.991,2.513,1.484,4.769,1.484,6.253.257l4.947-2.672C266.734,288.14,267.846,286.28,267.882,283.469Z" fill="#39272a"/>
    <path id="Path_1535" data-name="Path 1535" d="M267.882,283.469c.059-5.106-3.483-11.379-7.9-13.991-4.413-2.632-8.054-.594-8.114,4.512s3.483,11.379,7.9,13.991S267.822,288.575,267.882,283.469Z" fill="#39272a"/>
    <path id="Path_1536" data-name="Path 1536" d="M261.906,286.734c.059-5.106-3.483-11.379-7.9-13.991-4.433-2.612-8.054-.594-8.114,4.512s3.483,11.379,7.9,13.991S261.846,291.84,261.906,286.734Z" fill="#393939"/>
    <path id="Path_1539" data-name="Path 1539" d="M258.918,285.8a12.51,12.51,0,0,0-5.541-9.835c-3.107-1.84-5.66-.416-5.7,3.166a12.455,12.455,0,0,0,5.561,9.835C256.327,290.791,258.878,289.386,258.918,285.8Z" fill="#aeb0b2"/>
    <path id="Path_1540" data-name="Path 1540" d="M259.986,269.458c-2.315-1.385-4.413-1.464-5.9-.515l.02-.277-5.2,3.166a1.31,1.31,0,0,0-.158.059c4.136-2.058,17.137,8.9,12.21,19.116l4.037-2.177c1.741-.673,2.85-2.553,2.889-5.363C267.942,278.344,264.4,272.09,259.986,269.458Z" fill="#070203"/>
    <path id="Path_1541" data-name="Path 1541" d="M92.945,181.634c.059-5.106-3.483-11.379-7.9-13.991-2.315-1.365-4.413-1.464-5.9-.515l.02-.277-5.2,3.166c-1.821.633-2.988,2.533-3.028,5.422-.059,5.106,3.483,11.379,7.916,13.991,2.513,1.484,4.769,1.484,6.253.257l4.95-2.668C91.8,186.324,92.925,184.444,92.945,181.634Z" fill="#39272a"/>
    <path id="Path_1542" data-name="Path 1542" d="M92.946,181.634c.059-5.106-3.483-11.379-7.9-13.991-4.413-2.632-8.054-.613-8.114,4.512-.059,5.106,3.483,11.379,7.9,13.991C89.266,188.758,92.886,186.74,92.946,181.634Z" fill="#39272a"/>
    <path id="Path_1543" data-name="Path 1543" d="M86.969,184.919c.059-5.106-3.483-11.379-7.9-13.991-4.433-2.612-8.054-.594-8.114,4.512s3.483,11.379,7.916,13.991C83.288,192.043,86.909,190.025,86.969,184.919Z" fill="#393939"/>
    <path id="Path_1546" data-name="Path 1546" d="M83.981,183.969a12.487,12.487,0,0,0-5.541-9.835c-3.107-1.84-5.66-.416-5.7,3.166a12.455,12.455,0,0,0,5.561,9.835C81.39,188.976,83.941,187.571,83.981,183.969Z" fill="#aeb0b2"/>
    <path id="Path_1547" data-name="Path 1547" d="M85.049,167.643c-2.315-1.365-4.413-1.464-5.9-.515l.02-.277-5.2,3.166a1.307,1.307,0,0,0-.158.059c4.134-2.057,17.135,8.907,12.208,19.118l4.037-2.2c1.741-.673,2.85-2.553,2.889-5.363C93,176.529,89.462,170.275,85.049,167.643Z" fill="#070203"/>
    <path id="Path_1550" data-name="Path 1550" d="M349.462,191.551l-56.5,31.612-1.985,62.5,1.985,15.818,59.4-33.166c-2.25-14.783-2.25-4.236-2.25-14.783C350.106,238.368,349.462,206.711,349.462,191.551Z" fill="#bdb8b3"/>
    <path id="Path_1551" data-name="Path 1551" d="M348.88,197.643l-56.459,32.613v53.411l56.459-32.593Z" fill="#3c3c3c"/>
    <path id="Path_1556" data-name="Path 1556" d="M343.6,181.205l-49.938,32.276-.747,12.362,57.188-33.154Z" fill="#6cbca8"/>
    <path id="Path_1557" data-name="Path 1557" d="M79.429,169.007c5.125,2.77,7,8.311,7.639,12.8l158.67,91.6c.633-3.76,3.661-5.482,7.48-3.364,6.55,3.621,8.628,8.49,9.261,12.982L292.4,300.341V281.688l-4.057-61.643L32.667,79.957l.119,70.509,37.881,21.768C71.276,168.474,74.482,166.337,79.429,169.007Z" fill="#3c3c3c"/>
    <path id="Path_1558" data-name="Path 1558" d="M292.4,283.647v-4.532L290.462,243.1,32.549,92.543v40.924l109.078,63.048,21.234,12.269Z" fill="#bdbdbd"/>
    <path id="Path_1571" data-name="Path 1571" d="M302.514,213.861v6.778L342.1,197.426l-.292-6.594Z" fill="#414141"/>
    <path id="Path_1573" data-name="Path 1573" d="M300.218,282.1l-7.738,4.472V293.2l7.738-4.472Z" fill="#3c3c3c"/>
    <path id="Path_1574" data-name="Path 1574" d="M348.9,253.528,341.161,258v6.629l7.738-4.472Z" fill="#3c3c3c"/>
    <path id="Path_1586" data-name="Path 1586" d="M348.325,254.478l-1.9,1.069v5.224l1.9-1.128Z" fill="#d2d2d2"/>
    <g id="Group_4007" data-name="Group 4007">
      <path id="Path_1587" data-name="Path 1587" d="M35.755,66.857l-.613.237-.059.752L73.473,90.01V88.627Z" fill="#f3ccb1"/>
    </g>
    <path id="Path_1589" data-name="Path 1589" d="M295.646,285.428l-2.513,1.445v5.264l2.513-1.484Z" fill="#d2d2d2"/>
    <path id="Path_1594" data-name="Path 1594" d="M120.393,131.785l-23.035-13.3.2,61.366,23.035,13.3Z" fill="#323233"/>
    <rect id="Rectangle_192" data-name="Rectangle 192" width="1.425" height="63.721" transform="translate(107.985 124.542)" fill="#0e0e0e"/>
    <g id="Group_4463-2" data-name="Group 4463">
      <path id="Path_1569" data-name="Path 1569" d="M70.94,171.185,31.678,148.348v1.761l38.965,22.659A9.053,9.053,0,0,1,70.94,171.185Z" fill="#151515"/>
      <path id="Path_1570" data-name="Path 1570" d="M262.064,281.906a17.137,17.137,0,0,1,.3,1.939l30.594,17.632v-1.761Z" fill="#151515"/>
      <path id="Path_1596" data-name="Path 1596" d="M245.931,272.605l-159.16-92.02a17.132,17.132,0,0,1,.3,1.939l158.571,91.683A6.422,6.422,0,0,1,245.931,272.605Z" fill="#151515"/>
    </g>
    <path id="Path_1548" data-name="Path 1548" d="M343.6,181.205,89.74,37.707,35.24,67.331,289.5,215.839Z" fill="#d9d8d8"/>
    <path id="Path_1567" data-name="Path 1567" d="M292.421,230.256,32.727,79.937,35.22,67.114l123.336,72.022s24.922,12.143,34.8,16.8c24.823,11.713,100.291,57.586,100.291,57.586Z" fill="#50af96"/>
    <path id="Path_1553" data-name="Path 1553" d="M348.861,197.109,291.411,229.7,292.4,279.1,348.861,246.5Z" fill="#0e0e0e"/>
    <path id="Path_1559" data-name="Path 1559" d="M292.4,228.558,42.879,83.508v40.014l105.04,60.614,18.424,21.174L292.4,279.1Z" fill="#0e0e0e"/>
    <path id="Path_1563" data-name="Path 1563" d="M289.591,229.92l-19.73-11.4V263.8l19.73,11.4Z" fill="#171717"/>
    <path id="Path_1564" data-name="Path 1564" d="M192.722,173.837l-42.764-24.558V182.96l16.781,20.165,25.924,15.831Z" fill="#171717"/>
    <path id="Path_1565" data-name="Path 1565" d="M147.406,147.814l-29.8-17.157v33.176l29.8,17.154Z" fill="#171717"/>
    <path id="Path_1566" data-name="Path 1566" d="M74.937,105.96,44.363,88.8v34.18l30.574,16.153Z" fill="#323233"/>
    <path id="Path_1568" data-name="Path 1568" d="M218.587,191.489,193.356,176.9V243.4l25.231,14.568Z" fill="#0e0e0e"/>
    <path id="Path_1575" data-name="Path 1575" d="M219.161,234.689l48.76,28.041V217.451l-48.76-28.04Z" fill="#171717"/>
    <path id="Path_1576" data-name="Path 1576" d="M115.465,129.45,76.9,107.108v33.176l38.569,22.342Z" fill="#323233"/>
    <path id="Path_1578" data-name="Path 1578" d="M217.38,188.342l-23.035-13.318.2,61.386,23.035,13.3Z" fill="#171717"/>
    <path id="Path_1579" data-name="Path 1579" d="M289.591,275.2V251.45l-19.73-13.912V263.8Z" fill="#171717"/>
    <path id="Path_1580" data-name="Path 1580" d="M149.958,152.94v29.822L192.663,216.9l.059-33.8Z" fill="#171717"/>
    <path id="Path_1581" data-name="Path 1581" d="M121.739,133.032l-4.136-2.375v26.26l29.8,23.826v-29.6Z" fill="#171717"/>
    <path id="Path_1582" data-name="Path 1582" d="M44.363,88.8v9.58l30.574,24.44V105.96Z" fill="#171717"/>
    <path id="Path_1583" data-name="Path 1583" d="M267.921,262.731V236.154l-48.76-34.394v32.929Z" fill="#171717"/>
    <path id="Path_1584" data-name="Path 1584" d="M76.9,107.108v17.276L115.465,155.2V129.45Z" fill="#171717"/>
    <path id="Path_1585" data-name="Path 1585" d="M194.385,184.286l.1,34.057,23.054,18.424-.119-36.234Z" fill="#171717"/>
    <rect id="Rectangle_191" data-name="Rectangle 191" width="1.425" height="63.721" transform="translate(204.992 181.1)" fill="#0e0e0e"/>
    <path id="Path_1593" data-name="Path 1593" d="M121.6,132.319,96.349,117.754v69.084L121.6,201.423Z" fill="#0e0e0e"/>
    <path id="Path_1595" data-name="Path 1595" d="M120.393,131.785l-23.035-13.3.079,22.223,23.055,18.325Z" fill="#171717"/>
    <path id="Path_1554" data-name="Path 1554" d="M347.653,200.948,294.5,231.641v44.09l53.154-30.693Z" fill="#414141"/>
    <path id="Path_1555" data-name="Path 1555" d="M347.652,238.231l-31.841-18.973,31.841-18.31Z" fill="#2c2d2d"/>
    <path id="Path_1572" data-name="Path 1572" d="M294.281,253.269l53.372-8.232L294.5,275.73Z" fill="#171717"/>
    <rect id="Rectangle_190" data-name="Rectangle 190" width="1.959" height="45.614" transform="translate(322.876 214.088)" fill="#0e0e0e"/>
    <path id="Path_1577" data-name="Path 1577" d="M334.017,212.881l-7.678,4.294v4.017l7.678-4.294Z" fill="#0e0e0e"/>
    <path id="Path_1597" data-name="Path 1597" d="M329.565,210.724l-.594.139,1.326,5.383.594-.158Z" fill="#0e0e0e"/>
    <path id="Path_2435" data-name="Path 2435" d="M34.041,73.181,292.958,223.163l-.041,2.68L33.427,76.339Z" fill="url(#linear-gradient)"/>
    <path id="Path_2436" data-name="Path 2436" d="M292.958,223.163,348.9,190.149l1.207,2.54L292.5,227.07Z" fill="url(#linear-gradient-2)"/>
    <path id="Path_1549" data-name="Path 1549" d="M359.07,202.1a.719.719,0,0,0-.495-.059,1.779,1.779,0,0,0-.2-.178.679.679,0,0,0-.673,0l-1.326.712c-.574-1.722-2.3-3.008-7.639-2.038l-.435.891c4.848-.871,6.53.158,7.124,1.662l-2.177,1.187a1.291,1.291,0,0,0-.673,1.128v12.187a.612.612,0,0,0,.336.554.725.725,0,0,0,.5.059,1.779,1.779,0,0,0,.2.178.679.679,0,0,0,.673,0l4.552-2.474a1.135,1.135,0,0,0,.594-.97V202.65A.7.7,0,0,0,359.07,202.1Z" fill="#171717"/>
    <path id="Path_1549-2" data-name="Path 1549" d="M303.028,232.712a.719.719,0,0,0-.5-.059,1.779,1.779,0,0,0-.2-.178.679.679,0,0,0-.673,0l-1.326.712c-.574-1.722-2.3-3.008-7.639-2.038l-.435.891c4.848-.871,6.53.158,7.124,1.662l-2.177,1.187a1.29,1.29,0,0,0-.673,1.128V248.2a.61.61,0,0,0,.336.554.719.719,0,0,0,.495.059,1.779,1.779,0,0,0,.2.178.679.679,0,0,0,.673,0l4.552-2.474a1.137,1.137,0,0,0,.594-.97V233.266A.7.7,0,0,0,303.028,232.712Z" fill="#171717"/>
    <path id="Path_2437" data-name="Path 2437" d="M291.895,294.239l59.876-34.5,1.508,4.927v3.682l-60.906,33.166Z" fill="#3c3c3c"/>
  </g>
</svg>
