<svg xmlns="http://www.w3.org/2000/svg" width="302.35" height="244.039" viewBox="0 0 302.35 244.039">
  <g id="Group_4511" data-name="Group 4511" transform="translate(-45.138 -42.741)">
    <g id="Group_4512" data-name="Group 4512" transform="translate(45.138 42.741)">
      <path id="Path_1534" data-name="Path 1534" d="M279.638,288.064a16.379,16.379,0,0,0-7.288-12.907c-2.136-1.278-4.071-1.351-5.443-.475l.018-.256-4.8,2.921c-1.68.584-2.756,2.337-2.775,5a16.379,16.379,0,0,0,7.288,12.907c2.318,1.369,4.4,1.369,5.768.237l4.564-2.465C278.579,292.373,279.6,290.657,279.638,288.064Z" transform="translate(-61.738 -60.67)" fill="#39272a"/>
      <path id="Path_1535" data-name="Path 1535" d="M280.1,288.064a16.379,16.379,0,0,0-7.288-12.907c-4.071-2.428-7.43-.548-7.485,4.162a16.377,16.377,0,0,0,7.288,12.907C276.69,294.636,280.046,292.774,280.1,288.064Z" transform="translate(-62.201 -60.669)" fill="#39272a"/>
      <path id="Path_1536" data-name="Path 1536" d="M274.125,291.329a16.379,16.379,0,0,0-7.288-12.907c-4.089-2.41-7.43-.548-7.485,4.162a16.377,16.377,0,0,0,7.288,12.907C270.714,297.9,274.07,296.04,274.125,291.329Z" transform="translate(-61.738 -60.923)" fill="#393939"/>
      <path id="Path_1539" data-name="Path 1539" d="M271.507,290.747a11.54,11.54,0,0,0-5.112-9.073c-2.866-1.7-5.221-.384-5.258,2.921a11.493,11.493,0,0,0,5.13,9.073C269.117,295.348,271.47,294.052,271.507,290.747Z" transform="translate(-61.876 -61.199)" fill="#aeb0b2"/>
      <path id="Path_1540" data-name="Path 1540" d="M272.575,275.137c-2.136-1.278-4.071-1.351-5.443-.475l.018-.256-4.8,2.921a1.212,1.212,0,0,0-.146.054c3.815-1.9,15.809,8.215,11.264,17.635l3.724-2.008c1.606-.621,2.629-2.355,2.665-4.947A16.424,16.424,0,0,0,272.575,275.137Z" transform="translate(-61.959 -60.668)" fill="#070203"/>
      <path id="Path_1541" data-name="Path 1541" d="M104.7,186.229a16.379,16.379,0,0,0-7.288-12.907c-2.136-1.259-4.071-1.351-5.443-.475l.018-.256-4.8,2.921c-1.68.584-2.756,2.337-2.793,5a16.355,16.355,0,0,0,7.3,12.907c2.318,1.369,4.4,1.369,5.768.237l4.566-2.461C103.642,190.556,104.681,188.822,104.7,186.229Z" transform="translate(-48.18 -52.779)" fill="#39272a"/>
      <path id="Path_1542" data-name="Path 1542" d="M105.165,186.228a16.379,16.379,0,0,0-7.288-12.907c-4.071-2.428-7.43-.565-7.485,4.162a16.379,16.379,0,0,0,7.288,12.907C101.77,192.8,105.11,190.939,105.165,186.228Z" transform="translate(-48.645 -52.778)" fill="#39272a"/>
      <path id="Path_1543" data-name="Path 1543" d="M99.188,189.514A16.379,16.379,0,0,0,91.9,176.607c-4.089-2.41-7.43-.548-7.485,4.162a16.352,16.352,0,0,0,7.3,12.907C95.792,196.086,99.133,194.225,99.188,189.514Z" transform="translate(-48.182 -53.033)" fill="#393939"/>
      <path id="Path_1546" data-name="Path 1546" d="M96.57,188.913a11.519,11.519,0,0,0-5.112-9.073c-2.866-1.7-5.221-.384-5.258,2.921a11.493,11.493,0,0,0,5.13,9.073C94.18,193.532,96.533,192.235,96.57,188.913Z" transform="translate(-48.32 -53.308)" fill="#aeb0b2"/>
      <path id="Path_1547" data-name="Path 1547" d="M97.638,173.323c-2.136-1.259-4.071-1.351-5.443-.475l.018-.256-4.8,2.921a1.209,1.209,0,0,0-.146.054c3.814-1.9,15.807,8.217,11.262,17.637l3.724-2.03c1.606-.621,2.629-2.355,2.665-4.947C104.978,181.52,101.709,175.751,97.638,173.323Z" transform="translate(-48.403 -52.779)" fill="#070203"/>
      <path id="Path_2629" data-name="Path 2629" d="M340.426,248.3l-1.536.8c.089-2.083,0,0,0-6.532,0-13.533.755-53.422.755-53.422l-2.028-4.951-4.725-8.345L154.252,78.668,150,69.826,98.7,43.475,49.059,70.458l-.16-.092-.565.219-.051.651L47.318,76.2l-.173.891-1.039,5.341,1.578.913-1.634-.895.02,11.685-.129-.075v37.753l.193.112.022,13.084-1.018.514v1.7l.051-.025L81.083,168.07c.021-.216.054-.429.091-.642l7.134-3.255c.287.125.579.265.88.427,4.328,2.339,6.144,6.818,6.87,10.736l-.1-.055a15.6,15.6,0,0,1,.277,1.789l146.283,84.578c.006-.1.025-.2.035-.3l6.592-3.721c.121.059.24.113.362.181,5.609,3.1,7.66,7.193,8.394,11.078l-.233-.135a15.6,15.6,0,0,1,.277,1.789l27.66,15.941.024.357.306-.167.233.135h0l18.962-10.588,35.762-20.9v-3.4Z" transform="translate(-45.138 -42.798)" fill="#4b7f26"/>
      <path id="Path_2630" data-name="Path 2630" d="M360.233,259.213l-1.475-4.019c-.064-3.48.694-55.131.694-55.131l-3.083-15.755L300.734,217.1l1.058,12.547L300.734,294.7l4.945,2.923.066-.035.233.135h0L360.7,266.232v-3.4Z" transform="translate(-64.945 -53.711)" fill="#75b23d"/>
      <path id="Path_1548" data-name="Path 1548" d="M336.81,173.338l-65.688-39.032-25.487-7.853L154.5,78.611l-4.256-8.842L98.614,42.741,48.337,70.992l7.382-4.076,50.507,30.29,2.617,8.308L197.767,157.6l22.738,6.953,60.671,41.575Z" transform="translate(-45.386 -42.741)" fill="#8abb4d"/>
      <path id="Path_1553" data-name="Path 1553" d="M357.869,202.877l-53,30.067.912,46.489,52.086-30.067Z" transform="translate(-65.265 -55.15)" fill="#0e0e0e"/>
      <path id="Path_1559" data-name="Path 1559" d="M280.99,219.4,56.339,89.276v28.1l28.535,25.279,68.365,39.451,17,19.533,110.753,64.377Z" transform="translate(-46.006 -46.347)" fill="#0e0e0e"/>
      <path id="Path_1563" data-name="Path 1563" d="M295.819,231.19l-18.2-10.517v41.769l18.2,10.517Z" transform="translate(-63.154 -56.529)" fill="#171717"/>
      <path id="Path_2631" data-name="Path 2631" d="M184.175,166.967l-20.756-11.92v31.071l15.481,18.6,5.276,3.222Z" transform="translate(-54.304 -51.444)" fill="#171717"/>
      <path id="Path_2632" data-name="Path 2632" d="M195.918,173.711v41.311l9.414,5.749.054-41.623Z" transform="translate(-56.822 -52.89)" fill="#171717"/>
      <path id="Path_1565" data-name="Path 1565" d="M158.556,152.252l-27.493-15.827V167.03l27.493,15.825Z" transform="translate(-51.797 -50.001)" fill="#171717"/>
      <path id="Path_1566" data-name="Path 1566" d="M86.028,110.4l-28.2-15.827v19.4L86.028,141Z" transform="translate(-46.121 -46.757)" fill="#323233"/>
      <path id="Path_1575" data-name="Path 1575" d="M229.621,234.948l34.834,20.333v-41.77l-34.834-20.332Z" transform="translate(-59.434 -54.399)" fill="#171717"/>
      <path id="Path_1576" data-name="Path 1576" d="M125.936,133.487l-35.58-20.611v30.605l35.58,20.611Z" transform="translate(-48.642 -48.176)" fill="#323233"/>
      <path id="Path_1581" data-name="Path 1581" d="M134.879,138.616l-3.816-2.191V160.65l27.491,21.98V155.323Z" transform="translate(-51.797 -50.001)" fill="#171717"/>
      <path id="Path_1582" data-name="Path 1582" d="M57.823,94.571v8.838l28.2,22.546V110.4Z" transform="translate(-46.121 -46.757)" fill="#171717"/>
      <path id="Path_1584" data-name="Path 1584" d="M90.356,112.876v15.937l35.58,28.424V133.487Z" transform="translate(-48.642 -48.176)" fill="#171717"/>
      <path id="Path_1593" data-name="Path 1593" d="M133.1,136.958l-23.294-13.436v63.73L133.1,200.707Z" transform="translate(-50.15 -49.001)" fill="#0e0e0e"/>
      <path id="Path_1595" data-name="Path 1595" d="M131.99,136.522l-21.25-12.267-.931,61.209,22.272,13.455Z" transform="translate(-50.15 -49.058)" fill="#171717"/>
      <path id="Path_1554" data-name="Path 1554" d="M356.994,206.716l-49.035,28.315v42.518l49.035-28.315Z" transform="translate(-65.505 -55.448)" fill="#414141"/>
      <path id="Path_1555" data-name="Path 1555" d="M358.645,241.11l-29.374-17.5,29.374-16.891Z" transform="translate(-67.156 -55.448)" fill="#2c2d2d"/>
      <path id="Path_1572" data-name="Path 1572" d="M307.741,258.554l49.236-5.749L307.942,281.12Z" transform="translate(-65.488 -59.019)" fill="#171717"/>
      <path id="Rectangle_190" data-name="Rectangle 190" d="M336.336,218.856h1.807V262.78l-1.807.922Z" transform="translate(-67.704 -56.389)" fill="#0e0e0e"/>
      <path id="Path_2633" data-name="Path 2633" d="M120.118,129.378v62.113l1.626.982V130.316Z" transform="translate(-50.948 -49.455)" fill="#0e0e0e"/>
      <path id="Path_1556" data-name="Path 1556" d="M353.781,186.308l-50.73,29.736,1.1,13.759,51.887-29.85Z" transform="translate(-65.124 -53.866)" fill="#171717"/>
      <g id="Group_4511-2" data-name="Group 4511" transform="translate(240.389 150.577)">
        <path id="Path_1577" data-name="Path 1577" d="M346.882,218.649,339.8,222.61v3.706l7.083-3.961Z" transform="translate(-308.361 -206.95)" fill="#0e0e0e"/>
        <path id="Path_1597" data-name="Path 1597" d="M342.979,216.492l-.548.128,1.223,4.966.548-.146Z" transform="translate(-308.565 -206.783)" fill="#0e0e0e"/>
        <path id="Path_1549" data-name="Path 1549" d="M371.7,207.717a.664.664,0,0,0-.457-.054,1.636,1.636,0,0,0-.184-.164.626.626,0,0,0-.621,0l-1.223.657c-.53-1.589-2.122-2.775-7.047-1.88l-.4.822c4.472-.8,6.024.146,6.572,1.533l-2.008,1.1a1.19,1.19,0,0,0-.621,1.041v11.243a.565.565,0,0,0,.31.511.664.664,0,0,0,.457.054,1.64,1.64,0,0,0,.184.164.626.626,0,0,0,.621,0l4.2-2.282a1.047,1.047,0,0,0,.548-.895V208.228A.645.645,0,0,0,371.7,207.717Z" transform="translate(-310.063 -205.967)" fill="#171717"/>
        <path id="Path_1549-2" data-name="Path 1549" d="M315.654,238.333a.663.663,0,0,0-.457-.054,1.638,1.638,0,0,0-.185-.164.626.626,0,0,0-.621,0l-1.223.657c-.53-1.589-2.122-2.775-7.047-1.88l-.4.822c4.472-.8,6.024.146,6.572,1.533l-2.008,1.1a1.191,1.191,0,0,0-.621,1.041v11.243a.563.563,0,0,0,.31.511.664.664,0,0,0,.457.054,1.641,1.641,0,0,0,.184.164.626.626,0,0,0,.621,0l4.2-2.282a1.049,1.049,0,0,0,.548-.895V238.844A.648.648,0,0,0,315.654,238.333Z" transform="translate(-305.72 -208.34)" fill="#171717"/>
      </g>
    </g>
    <g id="Group_4513" data-name="Group 4513" transform="translate(220.835 182.314)">
      <path id="Path_1568" data-name="Path 1568" d="M258.87,209.373l-23.276-13.455v61.339L258.87,270.7Z" transform="translate(-235.594 -194.184)" fill="#0e0e0e"/>
      <path id="Path_1578" data-name="Path 1578" d="M257.833,206.324l-21.25-12.286.185,56.629,21.25,12.269Z" transform="translate(-235.671 -194.038)" fill="#171717"/>
    </g>
    <path id="Path_2634" data-name="Path 2634" d="M304.871,286.637v11.18l54.017-30.7V254.852Z" transform="translate(-20.127 -16.437)" fill="#4b7f26"/>
    <path id="Path_2635" data-name="Path 2635" d="M111.089,99.476l44.018-27.437,4.256,8.842-45.657,26.9Z" transform="translate(-5.111 -2.27)" fill="#6eb03c"/>
    <path id="Path_2636" data-name="Path 2636" d="M210.319,164.635l47.868-31.151,25.486,7.853-49.126,30.957Z" transform="translate(-12.8 -7.032)" fill="#6eb03c"/>
    <g id="Group_4514" data-name="Group 4514" transform="translate(285.73 242.515)">
      <path id="Path_1573" data-name="Path 1573" d="M313.078,287.872,305.94,292v6.114l7.138-4.125Z" transform="translate(-305.94 -261.51)" fill="#0c0c0c"/>
      <path id="Path_1574" data-name="Path 1574" d="M361.759,259.3l-7.138,4.125v6.115l7.138-4.125Z" transform="translate(-309.712 -259.296)" fill="#0c0c0c"/>
      <path id="Path_1586" data-name="Path 1586" d="M361.638,260.246l-1.753.986v4.819l1.753-1.041Z" transform="translate(-310.12 -259.37)" fill="#d2d2d2"/>
      <path id="Path_1589" data-name="Path 1589" d="M308.911,291.2l-2.318,1.333v4.856l2.318-1.369Z" transform="translate(-305.991 -261.768)" fill="#d2d2d2"/>
    </g>
    <path id="Path_2637" data-name="Path 2637" d="M47.96,76.307l148.812,86.669,22.359,8.156,61.159,40.32.8,5.679L47.313,79.635Z" transform="translate(-0.169 -2.601)" fill="#171717"/>
  </g>
</svg>
