<svg xmlns="http://www.w3.org/2000/svg" xmlns:xlink="http://www.w3.org/1999/xlink" width="850.102" height="555.793" viewBox="0 0 850.102 555.793">
  <defs>
    <linearGradient id="linear-gradient" x1="-13.087" y1="2.482" x2="-13.088" y2="2.48" gradientUnits="objectBoundingBox">
      <stop offset="0" stop-color="#71888c"/>
      <stop offset="1" stop-color="#5d7277"/>
    </linearGradient>
    <linearGradient id="linear-gradient-2" x1="-10.326" y1="3.178" x2="-10.327" y2="3.176" gradientUnits="objectBoundingBox">
      <stop offset="0" stop-color="#afc1c2"/>
      <stop offset="0.038" stop-color="#bbccca"/>
      <stop offset="0.132" stop-color="#d0dcdc"/>
      <stop offset="0.24" stop-color="#e2eaeb"/>
      <stop offset="0.372" stop-color="#ecf5f5"/>
      <stop offset="0.6" stop-color="#f0f8f9"/>
      <stop offset="0.619" stop-color="#e7eeef"/>
      <stop offset="0.692" stop-color="#cdd8d9"/>
      <stop offset="0.772" stop-color="#bcc"/>
      <stop offset="0.865" stop-color="#b2c4c3"/>
      <stop offset="1" stop-color="#afc1c1"/>
    </linearGradient>
    <linearGradient id="linear-gradient-3" x1="0.556" y1="0.333" x2="0.439" y2="0.667" gradientUnits="objectBoundingBox">
      <stop offset="0" stop-color="#bececf"/>
      <stop offset="0.038" stop-color="#c8d6d6"/>
      <stop offset="0.132" stop-color="#dae4e5"/>
      <stop offset="0.24" stop-color="#e8eff0"/>
      <stop offset="0.372" stop-color="#f0f7f8"/>
      <stop offset="0.6" stop-color="#f3fafb"/>
      <stop offset="0.619" stop-color="#ecf2f3"/>
      <stop offset="0.692" stop-color="#d7e1e2"/>
      <stop offset="0.772" stop-color="#c8d6d7"/>
      <stop offset="0.865" stop-color="#c0d0d0"/>
      <stop offset="1" stop-color="#becece"/>
    </linearGradient>
    <linearGradient id="linear-gradient-4" x1="-48.986" y1="5.402" x2="-48.995" y2="5.391" gradientUnits="objectBoundingBox">
      <stop offset="0" stop-color="#47494a"/>
      <stop offset="0.512" stop-color="#7e7d7d"/>
      <stop offset="0.606" stop-color="#797978"/>
      <stop offset="0.723" stop-color="#6b6b6a"/>
      <stop offset="0.853" stop-color="#565757"/>
      <stop offset="0.991" stop-color="#3e4040"/>
      <stop offset="1" stop-color="#3c3e3e"/>
    </linearGradient>
    <linearGradient id="linear-gradient-5" x1="-34.841" y1="6.958" x2="-34.84" y2="6.941" gradientUnits="objectBoundingBox">
      <stop offset="0" stop-color="#1e2224"/>
      <stop offset="1" stop-color="#1b1f21"/>
    </linearGradient>
    <linearGradient id="linear-gradient-6" x1="-14.028" y1="3.593" x2="-14.027" y2="3.586" xlink:href="#linear-gradient-5"/>
    <linearGradient id="linear-gradient-7" x1="-110.329" y1="6.987" x2="-110.308" y2="6.954" xlink:href="#linear-gradient-5"/>
    <linearGradient id="linear-gradient-8" x1="-167.204" y1="6.282" x2="-168.862" y2="6.261" xlink:href="#linear-gradient"/>
    <linearGradient id="linear-gradient-9" x1="-105.905" y1="7.923" x2="-105.883" y2="7.89" xlink:href="#linear-gradient-5"/>
    <linearGradient id="linear-gradient-10" x1="-71.712" y1="7.381" x2="-73.37" y2="7.36" xlink:href="#linear-gradient"/>
    <linearGradient id="linear-gradient-31" x1="-11.833" y1="1.625" x2="-11.833" y2="1.624" xlink:href="#linear-gradient"/>
    <linearGradient id="linear-gradient-32" x1="-10.023" y1="2.195" x2="-10.024" y2="2.193" xlink:href="#linear-gradient-2"/>
    <linearGradient id="linear-gradient-33" x1="-39.623" y1="2.132" x2="-39.62" y2="2.125" gradientUnits="objectBoundingBox">
      <stop offset="0" stop-color="#a1b4b7"/>
      <stop offset="0.374" stop-color="#9ab0b1"/>
      <stop offset="1" stop-color="#90aaac"/>
    </linearGradient>
    <linearGradient id="linear-gradient-35" x1="-37.562" y1="5.314" x2="-37.561" y2="5.296" xlink:href="#linear-gradient-5"/>
    <linearGradient id="linear-gradient-36" x1="-15.135" y1="2.718" x2="-15.135" y2="2.711" xlink:href="#linear-gradient-5"/>
    <linearGradient id="linear-gradient-37" x1="-118.89" y1="5.179" x2="-118.869" y2="5.146" xlink:href="#linear-gradient-5"/>
    <linearGradient id="linear-gradient-38" x1="-351.163" y1="4.166" x2="-352.821" y2="4.145" xlink:href="#linear-gradient"/>
    <linearGradient id="linear-gradient-39" x1="-114.439" y1="6.116" x2="-114.418" y2="6.083" xlink:href="#linear-gradient-5"/>
    <linearGradient id="linear-gradient-40" x1="-255.697" y1="5.264" x2="-257.355" y2="5.244" xlink:href="#linear-gradient"/>
    <linearGradient id="linear-gradient-41" x1="-121.394" y1="8.81" x2="-121.382" y2="8.764" xlink:href="#linear-gradient-5"/>
    <linearGradient id="linear-gradient-42" x1="-50.088" y1="3.104" x2="-50.094" y2="3.112" xlink:href="#linear-gradient-5"/>
    <linearGradient id="linear-gradient-43" x1="0.794" y1="0.051" x2="0.165" y2="1.039" gradientUnits="objectBoundingBox">
      <stop offset="0" stop-color="#536169"/>
      <stop offset="1" stop-color="#1b1f21"/>
    </linearGradient>
    <linearGradient id="linear-gradient-44" x1="-66.597" y1="5.517" x2="-66.596" y2="5.513" gradientUnits="objectBoundingBox">
      <stop offset="0" stop-color="#f9b424"/>
      <stop offset="0.167" stop-color="#eea422"/>
      <stop offset="0.725" stop-color="#d5761e"/>
      <stop offset="0.995" stop-color="#cc661d"/>
    </linearGradient>
  </defs>
  <g id="组_4519" data-name="组 4519" transform="translate(383.974 224.001)">
    <g id="组_4518" data-name="组 4518">
      <g id="Group_4079" data-name="Group 4079">
        <g id="组_4694" data-name="组 4694" transform="translate(-383 -223)">
          <path id="Path_1796" data-name="Path 1796" d="M223.746,226.139,40.722,119.788l.025,9.086,183,106.35Z" transform="translate(-37.844 -26.933)" fill="#333536"/>
          <path id="Path_1797" data-name="Path 1797" d="M220.983,168.543l-183-106.351.077,60.022L221.085,228.59Z" transform="translate(-37.886 -27.814)" fill="url(#linear-gradient)"/>
          <path id="Path_1798" data-name="Path 1798" d="M87.328,29.122c-4.093-2.394-13.9.9-23.705,6.563C50.777,43.072,37.959,54.551,37.984,62.71l183,106.351c-.025-8.134,12.793-19.613,25.635-27.025,9.806-5.662,19.587-8.935,23.705-6.563Z" transform="translate(-37.886 -28.332)" fill="url(#linear-gradient-2)"/>
          <path id="Path_1799" data-name="Path 1799" d="M269.65,197.854l-.077-60.047c-.025-8.134-12.869-4.814-25.687,2.6-12.844,7.412-25.661,18.892-25.635,27.025l.077,60.047,2.7-1.57v9.111L267,208.489l-.052-9.086Z" transform="translate(-35.127 -26.729)" fill="#9bafb0"/>
          <path id="Path_1800" data-name="Path 1800" d="M269.65,197.327,221.107,167.6l-2.857,7.513.077,51.863,2.7-1.57v9.086L267,207.981l-.052-9.086Z" transform="translate(-35.127 -26.201)" fill="#64797d" opacity="0.3" style="isolation: isolate"/>
          <path id="Path_1797-2" data-name="Path 1797" d="M220.983,168.543l-183-106.351.077,34.639L221.085,203.207Z" transform="translate(-37.886 -27.814)" fill="#302d2c"/>
          <path id="路径_2644" data-name="路径 2644" d="M50.29.808C46.118-1.632,36.12,1.727,26.121,7.5,13.053,15.032-.016,26.736.01,35.055L185.18,142.892c-.026-8.293,13.042-20,26.137-27.555,10-5.773,19.97-9.106,24.169-6.692Z" transform="translate(-0.984 -1.004)" fill="url(#linear-gradient-3)"/>
          <g id="Group_4058" data-name="Group 4058" transform="translate(185.954 109.259)">
            <path id="Path_1801" data-name="Path 1801" d="M273.056,197.813,221.064,167.6l-.025,56.105,52.017,30.166Z" transform="translate(-221.039 -135.46)" fill="#333536"/>
            <path id="Path_1802" data-name="Path 1802" d="M273.056,140.106l-5.894-3.424c-3.835-2.239-13,.85-22.161,6.125-11.992,6.924-23.987,17.653-23.962,25.276L273.031,198.3V140.106Z" transform="translate(-221.039 -135.944)" fill="url(#linear-gradient-4)"/>
          </g>
          <g id="组_4516" data-name="组 4516" transform="translate(0 66.234)">
            <path id="路径_2639" data-name="路径 2639" d="M220.911,212.459c-6.73-4.009-14.511-8.7-21.245-12.7q-28.322-16.824-56.65-33.636-36.6-21.722-73.208-43.436c-10.474-6.214-31.765-18.957-31.765-18.957s-.156-7.657-.156-10.161C42.271,96.2,48.3,99.893,52.7,102.506q26.49,15.735,52.991,31.454,32.676,19.39,65.356,38.775,24.874,14.759,49.752,29.514C220.911,204.692,220.911,209.768,220.911,212.459Z" transform="translate(-37.887 -93.568)" fill="#ab3316"/>
          </g>
          <g id="Group_4078" data-name="Group 4078" transform="translate(6.636 46.653)">
            <g id="Group_4075" data-name="Group 4075">
              <path id="Path_1832" data-name="Path 1832" d="M115.262,140.583l-19.535-11.27a2.76,2.76,0,0,1-1.338-2.111V103.88c0-.746.592-1,1.338-.567l19.535,11.27a2.761,2.761,0,0,1,1.338,2.111v23.3C116.6,140.763,116.008,141.02,115.262,140.583Zm23.885,13.793-19.535-11.27A2.76,2.76,0,0,1,118.273,141V117.7c0-.746.592-1,1.338-.567l19.535,11.27a2.762,2.762,0,0,1,1.338,2.112v23.3C140.511,154.558,139.893,154.79,139.146,154.376Zm23.911,13.8L143.522,156.9a2.76,2.76,0,0,1-1.338-2.111V131.5c0-.746.592-1,1.338-.567l19.535,11.27a2.762,2.762,0,0,1,1.335,2.114v23.293C164.393,168.328,163.778,168.59,163.058,168.174Z" transform="translate(-43.659 -73.841)" fill="url(#linear-gradient-5)"/>
              <path id="Path_1833" data-name="Path 1833" d="M65.322,111.733,45.761,100.461a2.76,2.76,0,0,1-1.338-2.111V75.062c0-.746.592-1,1.338-.567L65.3,85.764a2.761,2.761,0,0,1,1.338,2.111v23.293C66.661,111.917,66.069,112.171,65.322,111.733Zm149.2,86.146-19.535-11.27a2.76,2.76,0,0,1-1.338-2.111V161.2c0-.746.592-1,1.338-.567l19.535,11.27a2.761,2.761,0,0,1,1.338,2.111V197.31C215.867,198.059,215.273,198.319,214.526,197.88Z" transform="translate(-44.423 -74.282)" fill="url(#linear-gradient-6)"/>
            </g>
            <g id="Group_4076" data-name="Group 4076" transform="translate(123.749 71.366)">
              <path id="Path_1834" data-name="Path 1834" d="M187.181,203.91l-19.535-11.27a2.76,2.76,0,0,1-1.338-2.111V145.353c0-.746.592-1,1.338-.567l19.535,11.27a2.76,2.76,0,0,1,1.341,2.115v45.171C188.522,204.088,187.9,204.345,187.181,203.91Z" transform="translate(-166.307 -144.573)" fill="url(#linear-gradient-7)"/>
              <path id="Path_1835" data-name="Path 1835" d="M176.813,148.238c-.257-.129-.489-.3-.746-.463v51.171c.335.154.694.3,1.029.463V148.392A2.729,2.729,0,0,1,176.813,148.238Z" transform="translate(-166.158 -144.524)" fill="url(#linear-gradient-8)"/>
            </g>
            <g id="Group_4077" data-name="Group 4077" transform="translate(25.481 14.671)">
              <path id="Path_1836" data-name="Path 1836" d="M90.395,148.086l-19.535-11.27A2.762,2.762,0,0,1,69.52,134.7V89.512c0-.746.592-1,1.338-.567l19.536,11.269a2.761,2.761,0,0,1,1.338,2.111V147.5C91.732,148.242,91.114,148.5,90.395,148.086Z" transform="translate(-69.52 -88.732)" fill="url(#linear-gradient-9)"/>
              <path id="Path_1837" data-name="Path 1837" d="M80,92.392c-.258-.129-.489-.3-.746-.463V143.1c.335.154.694.3,1.03.463V92.548A2.746,2.746,0,0,0,80,92.392Z" transform="translate(-69.371 -88.683)" fill="url(#linear-gradient-10)"/>
            </g>
            <path id="Path_1838" data-name="Path 1838" d="M141.2,154.561c-.154.463-.644.592-1.261.257L120.4,143.548a2.76,2.76,0,0,1-1.338-2.111v-23.3a.66.66,0,0,1,.566-.741.708.708,0,0,1,.1-.005,1.058,1.058,0,0,0-.077.3V141a2.721,2.721,0,0,0,1.338,2.109l19.535,11.27A1.2,1.2,0,0,0,141.2,154.561Zm-24.554-13.976-19.561-11.27a2.76,2.76,0,0,1-1.338-2.111v-23.3a.881.881,0,0,1,.077-.3.659.659,0,0,0-.675.643.591.591,0,0,0,.006.1V127.64a2.718,2.718,0,0,0,1.338,2.111l19.535,11.27c.617.36,1.107.231,1.261-.257A1.111,1.111,0,0,1,116.644,140.586ZM65.914,111.3,46.378,100.022a2.76,2.76,0,0,1-1.338-2.111V74.619a.881.881,0,0,1,.077-.3.659.659,0,0,0-.675.643.591.591,0,0,0,.006.1V98.349a2.72,2.72,0,0,0,1.338,2.115l19.535,11.27c.617.36,1.107.231,1.261-.257A1.019,1.019,0,0,1,65.914,111.3Zm98.5,56.881-19.535-11.27a2.76,2.76,0,0,1-1.338-2.111V131.5a.881.881,0,0,1,.077-.3.659.659,0,0,0-.675.643.591.591,0,0,0,.006.1V155.23a2.718,2.718,0,0,0,1.338,2.111l19.535,11.27c.617.36,1.107.231,1.261-.258a1.45,1.45,0,0,1-.669-.176Zm50.73,29.29L195.609,186.2a2.76,2.76,0,0,1-1.338-2.111v-23.3a.881.881,0,0,1,.077-.3.659.659,0,0,0-.675.643.593.593,0,0,0,.006.1v23.289a2.718,2.718,0,0,0,1.338,2.111l19.535,11.27c.617.36,1.107.231,1.261-.257a1.38,1.38,0,0,1-.67-.178Z" transform="translate(-44.423 -74.281)" fill="#b3c1c1" opacity="0.9" style="isolation: isolate"/>
          </g>
        </g>
        <g id="组_4693" data-name="组 4693" transform="translate(-192 -111)">
          <path id="Path_1796-2" data-name="Path 1796" d="M223.746,226.139,40.722,119.788l.025,9.086,183,106.35Z" transform="translate(-37.844 -26.933)" fill="#333536"/>
          <path id="Path_1797-3" data-name="Path 1797" d="M220.983,168.543l-183-106.351.077,60.022L221.085,228.59Z" transform="translate(-37.886 -27.814)" fill="url(#linear-gradient)"/>
          <path id="Path_1798-2" data-name="Path 1798" d="M87.328,29.122c-4.093-2.394-13.9.9-23.705,6.563C50.777,43.072,37.959,54.551,37.984,62.71l183,106.351c-.025-8.134,12.793-19.613,25.635-27.025,9.806-5.662,19.587-8.935,23.705-6.563Z" transform="translate(-37.886 -28.332)" fill="url(#linear-gradient-2)"/>
          <path id="Path_1799-2" data-name="Path 1799" d="M269.65,197.854l-.077-60.047c-.025-8.134-12.869-4.814-25.687,2.6-12.844,7.412-25.661,18.892-25.635,27.025l.077,60.047,2.7-1.57v9.111L267,208.489l-.052-9.086Z" transform="translate(-35.127 -26.729)" fill="#9bafb0"/>
          <path id="Path_1800-2" data-name="Path 1800" d="M269.65,197.327,221.107,167.6l-2.857,7.513.077,51.863,2.7-1.57v9.086L267,207.981l-.052-9.086Z" transform="translate(-35.127 -26.201)" fill="#64797d" opacity="0.3" style="isolation: isolate"/>
          <path id="Path_1797-4" data-name="Path 1797" d="M220.983,168.543l-183-106.351.077,34.639L221.085,203.207Z" transform="translate(-37.886 -27.814)" fill="#302d2c"/>
          <path id="路径_2644-2" data-name="路径 2644" d="M50.29.808C46.118-1.632,36.12,1.727,26.121,7.5,13.053,15.032-.016,26.736.01,35.055L185.18,142.892c-.026-8.293,13.042-20,26.137-27.555,10-5.773,19.97-9.106,24.169-6.692Z" transform="translate(-0.984 -1.004)" fill="url(#linear-gradient-3)"/>
          <g id="Group_4058-2" data-name="Group 4058" transform="translate(185.954 109.259)">
            <path id="Path_1801-2" data-name="Path 1801" d="M273.056,197.813,221.064,167.6l-.025,56.105,52.017,30.166Z" transform="translate(-221.039 -135.46)" fill="#333536"/>
            <path id="Path_1802-2" data-name="Path 1802" d="M273.056,140.106l-5.894-3.424c-3.835-2.239-13,.85-22.161,6.125-11.992,6.924-23.987,17.653-23.962,25.276L273.031,198.3V140.106Z" transform="translate(-221.039 -135.944)" fill="url(#linear-gradient-4)"/>
          </g>
          <g id="组_4516-2" data-name="组 4516" transform="translate(0 66.234)">
            <path id="路径_2639-2" data-name="路径 2639" d="M220.911,212.459c-6.73-4.009-14.511-8.7-21.245-12.7q-28.322-16.824-56.65-33.636-36.6-21.722-73.208-43.436c-10.474-6.214-31.765-18.957-31.765-18.957s-.156-7.657-.156-10.161C42.271,96.2,48.3,99.893,52.7,102.506q26.49,15.735,52.991,31.454,32.676,19.39,65.356,38.775,24.874,14.759,49.752,29.514C220.911,204.692,220.911,209.768,220.911,212.459Z" transform="translate(-37.887 -93.568)" fill="#ab3316"/>
          </g>
          <g id="Group_4078-2" data-name="Group 4078" transform="translate(6.636 46.653)">
            <g id="Group_4075-2" data-name="Group 4075">
              <path id="Path_1832-2" data-name="Path 1832" d="M115.262,140.583l-19.535-11.27a2.76,2.76,0,0,1-1.338-2.111V103.88c0-.746.592-1,1.338-.567l19.535,11.27a2.761,2.761,0,0,1,1.338,2.111v23.3C116.6,140.763,116.008,141.02,115.262,140.583Zm23.885,13.793-19.535-11.27A2.76,2.76,0,0,1,118.273,141V117.7c0-.746.592-1,1.338-.567l19.535,11.27a2.762,2.762,0,0,1,1.338,2.112v23.3C140.511,154.558,139.893,154.79,139.146,154.376Zm23.911,13.8L143.522,156.9a2.76,2.76,0,0,1-1.338-2.111V131.5c0-.746.592-1,1.338-.567l19.535,11.27a2.762,2.762,0,0,1,1.335,2.114v23.293C164.393,168.328,163.778,168.59,163.058,168.174Z" transform="translate(-43.659 -73.841)" fill="url(#linear-gradient-5)"/>
              <path id="Path_1833-2" data-name="Path 1833" d="M65.322,111.733,45.761,100.461a2.76,2.76,0,0,1-1.338-2.111V75.062c0-.746.592-1,1.338-.567L65.3,85.764a2.761,2.761,0,0,1,1.338,2.111v23.293C66.661,111.917,66.069,112.171,65.322,111.733Zm149.2,86.146-19.535-11.27a2.76,2.76,0,0,1-1.338-2.111V161.2c0-.746.592-1,1.338-.567l19.535,11.27a2.761,2.761,0,0,1,1.338,2.111V197.31C215.867,198.059,215.273,198.319,214.526,197.88Z" transform="translate(-44.423 -74.282)" fill="url(#linear-gradient-6)"/>
            </g>
            <g id="Group_4076-2" data-name="Group 4076" transform="translate(123.749 71.366)">
              <path id="Path_1834-2" data-name="Path 1834" d="M187.181,203.91l-19.535-11.27a2.76,2.76,0,0,1-1.338-2.111V145.353c0-.746.592-1,1.338-.567l19.535,11.27a2.76,2.76,0,0,1,1.341,2.115v45.171C188.522,204.088,187.9,204.345,187.181,203.91Z" transform="translate(-166.307 -144.573)" fill="url(#linear-gradient-7)"/>
              <path id="Path_1835-2" data-name="Path 1835" d="M176.813,148.238c-.257-.129-.489-.3-.746-.463v51.171c.335.154.694.3,1.029.463V148.392A2.729,2.729,0,0,1,176.813,148.238Z" transform="translate(-166.158 -144.524)" fill="url(#linear-gradient-8)"/>
            </g>
            <g id="Group_4077-2" data-name="Group 4077" transform="translate(25.481 14.671)">
              <path id="Path_1836-2" data-name="Path 1836" d="M90.395,148.086l-19.535-11.27A2.762,2.762,0,0,1,69.52,134.7V89.512c0-.746.592-1,1.338-.567l19.536,11.269a2.761,2.761,0,0,1,1.338,2.111V147.5C91.732,148.242,91.114,148.5,90.395,148.086Z" transform="translate(-69.52 -88.732)" fill="url(#linear-gradient-9)"/>
              <path id="Path_1837-2" data-name="Path 1837" d="M80,92.392c-.258-.129-.489-.3-.746-.463V143.1c.335.154.694.3,1.03.463V92.548A2.746,2.746,0,0,0,80,92.392Z" transform="translate(-69.371 -88.683)" fill="url(#linear-gradient-10)"/>
            </g>
            <path id="Path_1838-2" data-name="Path 1838" d="M141.2,154.561c-.154.463-.644.592-1.261.257L120.4,143.548a2.76,2.76,0,0,1-1.338-2.111v-23.3a.66.66,0,0,1,.566-.741.708.708,0,0,1,.1-.005,1.058,1.058,0,0,0-.077.3V141a2.721,2.721,0,0,0,1.338,2.109l19.535,11.27A1.2,1.2,0,0,0,141.2,154.561Zm-24.554-13.976-19.561-11.27a2.76,2.76,0,0,1-1.338-2.111v-23.3a.881.881,0,0,1,.077-.3.659.659,0,0,0-.675.643.591.591,0,0,0,.006.1V127.64a2.718,2.718,0,0,0,1.338,2.111l19.535,11.27c.617.36,1.107.231,1.261-.257A1.111,1.111,0,0,1,116.644,140.586ZM65.914,111.3,46.378,100.022a2.76,2.76,0,0,1-1.338-2.111V74.619a.881.881,0,0,1,.077-.3.659.659,0,0,0-.675.643.591.591,0,0,0,.006.1V98.349a2.72,2.72,0,0,0,1.338,2.115l19.535,11.27c.617.36,1.107.231,1.261-.257A1.019,1.019,0,0,1,65.914,111.3Zm98.5,56.881-19.535-11.27a2.76,2.76,0,0,1-1.338-2.111V131.5a.881.881,0,0,1,.077-.3.659.659,0,0,0-.675.643.591.591,0,0,0,.006.1V155.23a2.718,2.718,0,0,0,1.338,2.111l19.535,11.27c.617.36,1.107.231,1.261-.258a1.45,1.45,0,0,1-.669-.176Zm50.73,29.29L195.609,186.2a2.76,2.76,0,0,1-1.338-2.111v-23.3a.881.881,0,0,1,.077-.3.659.659,0,0,0-.675.643.593.593,0,0,0,.006.1v23.289a2.718,2.718,0,0,0,1.338,2.111l19.535,11.27c.617.36,1.107.231,1.261-.257a1.38,1.38,0,0,1-.67-.178Z" transform="translate(-44.423 -74.281)" fill="#b3c1c1" opacity="0.9" style="isolation: isolate"/>
          </g>
        </g>
        <g id="组_4692" data-name="组 4692">
          <path id="Path_1796-3" data-name="Path 1796" d="M223.746,226.139,40.722,119.788l.025,9.086,183,106.35Z" transform="translate(-37.844 -26.933)" fill="#333536"/>
          <path id="Path_1797-5" data-name="Path 1797" d="M220.983,168.543l-183-106.351.077,60.022L221.085,228.59Z" transform="translate(-37.886 -27.814)" fill="url(#linear-gradient)"/>
          <path id="Path_1798-3" data-name="Path 1798" d="M87.328,29.122c-4.093-2.394-13.9.9-23.705,6.563C50.777,43.072,37.959,54.551,37.984,62.71l183,106.351c-.025-8.134,12.793-19.613,25.635-27.025,9.806-5.662,19.587-8.935,23.705-6.563Z" transform="translate(-37.886 -28.332)" fill="url(#linear-gradient-2)"/>
          <path id="Path_1799-3" data-name="Path 1799" d="M269.65,197.854l-.077-60.047c-.025-8.134-12.869-4.814-25.687,2.6-12.844,7.412-25.661,18.892-25.635,27.025l.077,60.047,2.7-1.57v9.111L267,208.489l-.052-9.086Z" transform="translate(-35.127 -26.729)" fill="#9bafb0"/>
          <path id="Path_1800-3" data-name="Path 1800" d="M269.65,197.327,221.107,167.6l-2.857,7.513.077,51.863,2.7-1.57v9.086L267,207.981l-.052-9.086Z" transform="translate(-35.127 -26.201)" fill="#64797d" opacity="0.3" style="isolation: isolate"/>
          <path id="Path_1797-6" data-name="Path 1797" d="M220.983,168.543l-183-106.351.077,34.639L221.085,203.207Z" transform="translate(-37.886 -27.814)" fill="#302d2c"/>
          <path id="路径_2644-3" data-name="路径 2644" d="M50.29.808C46.118-1.632,36.12,1.727,26.121,7.5,13.053,15.032-.016,26.736.01,35.055L185.18,142.892c-.026-8.293,13.042-20,26.137-27.555,10-5.773,19.97-9.106,24.169-6.692Z" transform="translate(-0.984 -1.004)" fill="url(#linear-gradient-3)"/>
          <g id="Group_4058-3" data-name="Group 4058" transform="translate(185.954 109.259)">
            <path id="Path_1801-3" data-name="Path 1801" d="M273.056,197.813,221.064,167.6l-.025,56.105,52.017,30.166Z" transform="translate(-221.039 -135.46)" fill="#333536"/>
            <path id="Path_1802-3" data-name="Path 1802" d="M273.056,140.106l-5.894-3.424c-3.835-2.239-13,.85-22.161,6.125-11.992,6.924-23.987,17.653-23.962,25.276L273.031,198.3V140.106Z" transform="translate(-221.039 -135.944)" fill="url(#linear-gradient-4)"/>
          </g>
          <g id="组_4516-3" data-name="组 4516" transform="translate(0 66.234)">
            <path id="路径_2639-3" data-name="路径 2639" d="M220.911,212.459c-6.73-4.009-14.511-8.7-21.245-12.7q-28.322-16.824-56.65-33.636-36.6-21.722-73.208-43.436c-10.474-6.214-31.765-18.957-31.765-18.957s-.156-7.657-.156-10.161C42.271,96.2,48.3,99.893,52.7,102.506q26.49,15.735,52.991,31.454,32.676,19.39,65.356,38.775,24.874,14.759,49.752,29.514C220.911,204.692,220.911,209.768,220.911,212.459Z" transform="translate(-37.887 -93.568)" fill="#ab3316"/>
          </g>
          <g id="Group_4078-3" data-name="Group 4078" transform="translate(6.636 46.653)">
            <g id="Group_4075-3" data-name="Group 4075">
              <path id="Path_1832-3" data-name="Path 1832" d="M115.262,140.583l-19.535-11.27a2.76,2.76,0,0,1-1.338-2.111V103.88c0-.746.592-1,1.338-.567l19.535,11.27a2.761,2.761,0,0,1,1.338,2.111v23.3C116.6,140.763,116.008,141.02,115.262,140.583Zm23.885,13.793-19.535-11.27A2.76,2.76,0,0,1,118.273,141V117.7c0-.746.592-1,1.338-.567l19.535,11.27a2.762,2.762,0,0,1,1.338,2.112v23.3C140.511,154.558,139.893,154.79,139.146,154.376Zm23.911,13.8L143.522,156.9a2.76,2.76,0,0,1-1.338-2.111V131.5c0-.746.592-1,1.338-.567l19.535,11.27a2.762,2.762,0,0,1,1.335,2.114v23.293C164.393,168.328,163.778,168.59,163.058,168.174Z" transform="translate(-43.659 -73.841)" fill="url(#linear-gradient-5)"/>
              <path id="Path_1833-3" data-name="Path 1833" d="M65.322,111.733,45.761,100.461a2.76,2.76,0,0,1-1.338-2.111V75.062c0-.746.592-1,1.338-.567L65.3,85.764a2.761,2.761,0,0,1,1.338,2.111v23.293C66.661,111.917,66.069,112.171,65.322,111.733Zm149.2,86.146-19.535-11.27a2.76,2.76,0,0,1-1.338-2.111V161.2c0-.746.592-1,1.338-.567l19.535,11.27a2.761,2.761,0,0,1,1.338,2.111V197.31C215.867,198.059,215.273,198.319,214.526,197.88Z" transform="translate(-44.423 -74.282)" fill="url(#linear-gradient-6)"/>
            </g>
            <g id="Group_4076-3" data-name="Group 4076" transform="translate(123.749 71.366)">
              <path id="Path_1834-3" data-name="Path 1834" d="M187.181,203.91l-19.535-11.27a2.76,2.76,0,0,1-1.338-2.111V145.353c0-.746.592-1,1.338-.567l19.535,11.27a2.76,2.76,0,0,1,1.341,2.115v45.171C188.522,204.088,187.9,204.345,187.181,203.91Z" transform="translate(-166.307 -144.573)" fill="url(#linear-gradient-7)"/>
              <path id="Path_1835-3" data-name="Path 1835" d="M176.813,148.238c-.257-.129-.489-.3-.746-.463v51.171c.335.154.694.3,1.029.463V148.392A2.729,2.729,0,0,1,176.813,148.238Z" transform="translate(-166.158 -144.524)" fill="url(#linear-gradient-8)"/>
            </g>
            <g id="Group_4077-3" data-name="Group 4077" transform="translate(25.481 14.671)">
              <path id="Path_1836-3" data-name="Path 1836" d="M90.395,148.086l-19.535-11.27A2.762,2.762,0,0,1,69.52,134.7V89.512c0-.746.592-1,1.338-.567l19.536,11.269a2.761,2.761,0,0,1,1.338,2.111V147.5C91.732,148.242,91.114,148.5,90.395,148.086Z" transform="translate(-69.52 -88.732)" fill="url(#linear-gradient-9)"/>
              <path id="Path_1837-3" data-name="Path 1837" d="M80,92.392c-.258-.129-.489-.3-.746-.463V143.1c.335.154.694.3,1.03.463V92.548A2.746,2.746,0,0,0,80,92.392Z" transform="translate(-69.371 -88.683)" fill="url(#linear-gradient-10)"/>
            </g>
            <path id="Path_1838-3" data-name="Path 1838" d="M141.2,154.561c-.154.463-.644.592-1.261.257L120.4,143.548a2.76,2.76,0,0,1-1.338-2.111v-23.3a.66.66,0,0,1,.566-.741.708.708,0,0,1,.1-.005,1.058,1.058,0,0,0-.077.3V141a2.721,2.721,0,0,0,1.338,2.109l19.535,11.27A1.2,1.2,0,0,0,141.2,154.561Zm-24.554-13.976-19.561-11.27a2.76,2.76,0,0,1-1.338-2.111v-23.3a.881.881,0,0,1,.077-.3.659.659,0,0,0-.675.643.591.591,0,0,0,.006.1V127.64a2.718,2.718,0,0,0,1.338,2.111l19.535,11.27c.617.36,1.107.231,1.261-.257A1.111,1.111,0,0,1,116.644,140.586ZM65.914,111.3,46.378,100.022a2.76,2.76,0,0,1-1.338-2.111V74.619a.881.881,0,0,1,.077-.3.659.659,0,0,0-.675.643.591.591,0,0,0,.006.1V98.349a2.72,2.72,0,0,0,1.338,2.115l19.535,11.27c.617.36,1.107.231,1.261-.257A1.019,1.019,0,0,1,65.914,111.3Zm98.5,56.881-19.535-11.27a2.76,2.76,0,0,1-1.338-2.111V131.5a.881.881,0,0,1,.077-.3.659.659,0,0,0-.675.643.591.591,0,0,0,.006.1V155.23a2.718,2.718,0,0,0,1.338,2.111l19.535,11.27c.617.36,1.107.231,1.261-.258a1.45,1.45,0,0,1-.669-.176Zm50.73,29.29L195.609,186.2a2.76,2.76,0,0,1-1.338-2.111v-23.3a.881.881,0,0,1,.077-.3.659.659,0,0,0-.675.643.593.593,0,0,0,.006.1v23.289a2.718,2.718,0,0,0,1.338,2.111l19.535,11.27c.617.36,1.107.231,1.261-.257a1.38,1.38,0,0,1-.67-.178Z" transform="translate(-44.423 -74.281)" fill="#b3c1c1" opacity="0.9" style="isolation: isolate"/>
          </g>
        </g>
        <path id="Path_1803" data-name="Path 1803" d="M434.058,347.521,228.821,228.251l.025,9.111,205.211,119.27Z" transform="translate(-34.966 -25.273)" fill="#333536"/>
        <path id="Path_1804" data-name="Path 1804" d="M475.724,329.353l-44.785,25.841v-8.751L475.724,320.6Z" transform="translate(-31.873 -23.86)" fill="#535657"/>
        <path id="Path_1805" data-name="Path 1805" d="M431.32,289.925,226.083,170.655l.077,60.047L443.725,357.076l1.2-34.18Z" transform="translate(-35.008 -26.155)" fill="url(#linear-gradient-31)"/>
        <path id="Path_1805-2" data-name="Path 1805" d="M431.32,289.925,226.083,170.655l.077,35.68L443.725,332.709l1.2-9.813Z" transform="translate(-35.008 -26.155)" fill="#302d2c"/>
        <path id="Path_1806" data-name="Path 1806" d="M275.427,137.585c-4.093-2.394-13.9.9-23.705,6.563-12.846,7.413-25.664,18.892-25.638,27.025l205.21,119.271c-.025-8.134,12.793-19.613,25.635-27.025,9.544-5.508,12.945-5.367,17.8-6.059.025,0,9.89,1.136,9.865,1.111Z" transform="translate(-35.008 -26.673)" fill="url(#linear-gradient-32)"/>
        <path id="Path_1807" data-name="Path 1807" d="M498.042,316.81c0,10.626-7.034,12.4-8.121,13.03l-45.813,26.412a2.991,2.991,0,0,1-4.453-2.084s1.882-6.028-.365-24.267c-1.022-8.3-11.089-41.288-11.089-41.288-.025-8.134,12.792-19.614,25.635-27.025,0,0,18.6-11.022,27.661-4.923S498.042,316.81,498.042,316.81Z" transform="translate(-31.915 -24.867)" fill="url(#linear-gradient-33)"/>
        <g id="组_4515" data-name="组 4515" transform="translate(191.969 178.682)">
          <path id="路径_2638" data-name="路径 2638" d="M227,204.321q10.4,6.092,20.807,12.182,17.882,10.434,35.776,20.845,30.04,17.508,60.076,35.019c26.829,15.641,70.011,39.3,96.842,54.936.646,4.283.381,8.208.968,11.628C433.9,334.5,408.507,321.2,400.933,316.78q-43.078-25.123-86.162-50.236c-27.459-16.006-60.265-34.428-87.726-50.432C226.986,213.88,226.922,207.064,227,204.321Z" transform="translate(-226.963 -204.321)" fill="#ab3316"/>
        </g>
        <path id="路径_2643" data-name="路径 2643" d="M50.29.808C46.118-1.632,36.12,1.727,26.121,7.5,13.053,15.032-.016,26.736.01,35.055l206.5,119.837c-.026-8.293,13.042-20,26.137-27.555,10-5.773,19.97-9.106,24.169-6.692Z" transform="translate(191.016 109.996)" fill="url(#linear-gradient-3)"/>
        <g id="Group_4074" data-name="Group 4074" transform="translate(196.043 155.906)">
          <g id="Group_4071" data-name="Group 4071">
            <path id="Path_1824" data-name="Path 1824" d="M301.816,248.194l-19.535-11.27a2.76,2.76,0,0,1-1.338-2.111v-23.3c0-.746.592-1,1.338-.567l19.535,11.27a2.761,2.761,0,0,1,1.338,2.111v23.293C303.153,248.348,302.535,248.607,301.816,248.194ZM325.7,261.964l-19.535-11.27a2.76,2.76,0,0,1-1.338-2.111v-23.3c0-.746.592-1,1.338-.567l19.535,11.27a2.761,2.761,0,0,1,1.338,2.111v23.293c0,.75-.593,1.008-1.339.571Zm23.884,13.8-19.535-11.27a2.76,2.76,0,0,1-1.338-2.111v-23.3c0-.746.592-1,1.338-.567l19.535,11.27a2.761,2.761,0,0,1,1.338,2.111V275.19C350.924,275.941,350.332,276.2,349.584,275.761Z" transform="translate(-230.212 -181.447)" fill="url(#linear-gradient-35)"/>
            <path id="Path_1825" data-name="Path 1825" d="M251.85,219.345l-19.535-11.27a2.76,2.76,0,0,1-1.338-2.111v-23.3c0-.746.592-1,1.338-.567l19.535,11.27a2.761,2.761,0,0,1,1.338,2.111v23.3C253.188,219.526,252.6,219.783,251.85,219.345Zm149.2,86.146-19.535-11.27a2.76,2.76,0,0,1-1.338-2.111v-23.3c0-.746.592-1,1.338-.567l19.535,11.27a2.761,2.761,0,0,1,1.338,2.111v23.293c.026.749-.592,1.007-1.338.57Z" transform="translate(-230.976 -181.889)" fill="url(#linear-gradient-36)"/>
          </g>
          <g id="Group_4072" data-name="Group 4072" transform="translate(123.723 71.346)">
            <path id="Path_1826" data-name="Path 1826" d="M373.709,311.52l-19.535-11.27a2.76,2.76,0,0,1-1.338-2.111v-45.2c0-.746.592-1,1.338-.567l19.535,11.27a2.761,2.761,0,0,1,1.338,2.111v45.171C375.047,311.7,374.455,311.957,373.709,311.52Z" transform="translate(-352.835 -252.16)" fill="url(#linear-gradient-37)"/>
            <path id="Path_1827" data-name="Path 1827" d="M363.341,255.85c-.257-.129-.489-.3-.746-.463v51.171c.335.154.694.3,1.03.463V255.979A2.956,2.956,0,0,0,363.341,255.85Z" transform="translate(-352.686 -252.11)" fill="url(#linear-gradient-38)"/>
          </g>
          <g id="Group_4073" data-name="Group 4073" transform="translate(25.455 14.645)">
            <path id="Path_1828" data-name="Path 1828" d="M276.921,255.673,257.385,244.4a2.76,2.76,0,0,1-1.338-2.111v-45.2c0-.746.592-1,1.338-.567l19.535,11.27a2.76,2.76,0,0,1,1.341,2.115v45.171C278.262,255.853,277.667,256.11,276.921,255.673Z" transform="translate(-256.047 -196.313)" fill="url(#linear-gradient-39)"/>
            <path id="Path_1829" data-name="Path 1829" d="M266.553,200.007c-.258-.129-.489-.3-.746-.463v51.171c.335.154.694.3,1.03.463V200.132A2.92,2.92,0,0,0,266.553,200.007Z" transform="translate(-255.898 -196.263)" fill="url(#linear-gradient-40)"/>
          </g>
          <path id="Path_1830" data-name="Path 1830" d="M430.62,322.571,411.084,311.3a2.76,2.76,0,0,1-1.338-2.111v-23.3c0-.746.592-1,1.338-.567l12.509,7.232A9.24,9.24,0,0,1,428.071,299l3.912,23.062C431.958,322.726,431.366,322.984,430.62,322.571Z" transform="translate(-228.241 -180.309)" fill="url(#linear-gradient-41)"/>
          <path id="Path_1831" data-name="Path 1831" d="M327.726,262.175c-.154.463-.644.592-1.261.258l-19.535-11.27a2.76,2.76,0,0,1-1.338-2.111v-23.3a.66.66,0,0,1,.566-.741.71.71,0,0,1,.1-.005,1.058,1.058,0,0,0-.077.3v23.293a2.718,2.718,0,0,0,1.338,2.111l19.535,11.27A1.456,1.456,0,0,0,327.726,262.175ZM303.172,248.2l-19.535-11.27a2.76,2.76,0,0,1-1.338-2.111v-23.3a.882.882,0,0,1,.077-.3.659.659,0,0,0-.675.643.59.59,0,0,0,.006.1v23.293a2.718,2.718,0,0,0,1.338,2.111l19.535,11.27c.617.36,1.107.231,1.261-.257a1.461,1.461,0,0,1-.67-.182Zm-50.705-29.29-19.535-11.274a2.76,2.76,0,0,1-1.338-2.111V182.206a.881.881,0,0,1,.077-.3.659.659,0,0,0-.675.643.592.592,0,0,0,.006.1v23.289a2.718,2.718,0,0,0,1.338,2.111l19.536,11.273c.617.36,1.107.231,1.261-.257A.954.954,0,0,1,252.467,218.909Zm98.5,56.881-19.535-11.27a2.76,2.76,0,0,1-1.338-2.111V239.087a.88.88,0,0,1,.077-.3.659.659,0,0,0-.675.643.593.593,0,0,0,.006.1v23.293a2.718,2.718,0,0,0,1.338,2.111l19.535,11.27c.617.36,1.107.231,1.261-.257A1.112,1.112,0,0,1,350.969,275.79Zm82.979,47.922-19.535-11.27a2.76,2.76,0,0,1-1.338-2.111V287.037a.882.882,0,0,1,.077-.3.659.659,0,0,0-.675.643.593.593,0,0,0,.006.1v23.293a2.718,2.718,0,0,0,1.338,2.111l19.535,11.27c.617.36,1.107.232,1.261-.257a1.538,1.538,0,0,1-.671-.182Zm-32.275-18.66-19.534-11.271a2.76,2.76,0,0,1-1.338-2.111V268.377a.881.881,0,0,1,.077-.3.659.659,0,0,0-.675.643.587.587,0,0,0,.006.1v23.289a2.718,2.718,0,0,0,1.338,2.111l19.535,11.27c.617.36,1.107.231,1.261-.257a1.188,1.188,0,0,1-.672-.178Z" transform="translate(-230.976 -181.889)" fill="#b3c1c1" opacity="0.9" style="isolation: isolate"/>
        </g>
      </g>
      <g id="组_4517" data-name="组 4517" transform="translate(405.484 235.287)">
        <g id="Group_4061" data-name="Group 4061">
          <path id="Path_1809" data-name="Path 1809" d="M486.568,304.5c6.446-3.939,5.987-2.367,5.979-8.181l-9.6-33.775a2.842,2.842,0,0,0-2.805-2.471c-4.17-.052-11.2,2.574-18.737,6.95-12.406,7.155-22.057,16.4-23.91,22.6a6.775,6.775,0,0,0-.129,2.96l4.6,32.51a3.46,3.46,0,0,0,5.148,2.394Z" transform="translate(-437.261 -260.073)" fill="url(#linear-gradient-42)"/>
          <path id="路径_2640" data-name="路径 2640" d="M487.907,295.844l-7.18-29.465a2.449,2.449,0,0,0-2.415-2.128c-3.591-.045-9.64,2.216-16.134,5.984-.307.177-2.73,1.665-3.032,1.845-9.193,5.84-16.117,12.792-17.558,17.614a5.808,5.808,0,0,0-.111,2.548l3.536,26.442a2.979,2.979,0,0,0,4.433,2.062l17.267-10.06,19.753-11.763A3,3,0,0,0,487.907,295.844Z" transform="translate(-437.198 -260.009)" fill="url(#linear-gradient-43)"/>
        </g>
        <path id="Path_1823" data-name="Path 1823" d="M479.081,268.326a2.147,2.147,0,0,0-2.119-1.866c-3.148-.04-8.454,1.943-14.149,5.248-9.369,5.4-16.657,12.382-18.056,17.066a5.081,5.081,0,0,0-.1,2.235l.427,2.449,34.85-20.117Z" transform="translate(-437.149 -259.976)" fill="#87a2c2" opacity="0.9" style="isolation: isolate"/>
      </g>
      <g id="Group_4066" data-name="Group 4066" transform="translate(419.146 290.481)">
        <g id="Group_4063" data-name="Group 4063" transform="translate(0 18.568)">
          <g id="Group_4062" data-name="Group 4062">
            <path id="Path_1812" data-name="Path 1812" d="M461.461,332.807l-10.4,6.049a.654.654,0,0,0-.335.694l.9,5.1a.674.674,0,0,0,1,.463l10.4-6.048a.656.656,0,0,0,.335-.694l-.9-5.1a.692.692,0,0,0-.82-.532A.7.7,0,0,0,461.461,332.807Z" transform="translate(-450.717 -332.724)" fill="#cbdbdd"/>
          </g>
        </g>
        <g id="Group_4065" data-name="Group 4065" transform="translate(31.864)">
          <g id="Group_4064" data-name="Group 4064">
            <path id="Path_1813" data-name="Path 1813" d="M492.845,314.529l-10.4,6.048a.654.654,0,0,0-.335.694l.9,5.1a.674.674,0,0,0,1,.463l10.4-6.048a.656.656,0,0,0,.335-.694l-.9-5.1a.672.672,0,0,0-1-.463Z" transform="translate(-482.101 -314.436)" fill="#cbdbdd"/>
          </g>
        </g>
      </g>
      <path id="Path_1815" data-name="Path 1815" d="M492.845,314.529l-10.4,6.048a.654.654,0,0,0-.335.694l.9,5.1a.674.674,0,0,0,1,.463l10.4-6.048a.656.656,0,0,0,.335-.694l-.9-5.1a.672.672,0,0,0-1-.463Z" transform="translate(-31.09 -23.955)" fill="#1c2020"/>
      <path id="Path_1814" data-name="Path 1814" d="M462.465,333.3l.9,5.1a.638.638,0,0,1-.335.694l-10.4,6.048a.673.673,0,0,1-1-.463l-.9-5.1a.638.638,0,0,1,.335-.694l10.4-6.048a.667.667,0,0,1,1,.463Z" transform="translate(-31.571 -23.675)" fill="#1c2020"/>
      <path id="Path_1814-2" data-name="Path 1814" d="M459.992,335.8l.5,2.809a.353.353,0,0,1-.185.384l-5.734,3.334a.37.37,0,0,1-.508-.131.388.388,0,0,1-.046-.124l-.5-2.81a.352.352,0,0,1,.185-.383l5.733-3.334a.367.367,0,0,1,.506.124A.372.372,0,0,1,459.992,335.8Z" transform="translate(-31.528 -23.632)" fill="#d4edf5"/>
      <path id="Path_1816" data-name="Path 1816" d="M462.449,333.576l.9,5.1a.638.638,0,0,1-.335.694l-10.394,6.049a.667.667,0,0,1-.85-.154.6.6,0,0,0,.283-.077l10.4-6.048a.656.656,0,0,0,.335-.694l-.9-5.1a.587.587,0,0,0-.154-.3A.643.643,0,0,1,462.449,333.576ZM494.313,315a.635.635,0,0,0-.718-.541h0a.7.7,0,0,1,.154.3l.9,5.1a.638.638,0,0,1-.335.694l-10.4,6.048a.527.527,0,0,1-.283.077.672.672,0,0,0,.85.154l10.4-6.048a.657.657,0,0,0,.335-.694Z" transform="translate(-31.554 -23.954)" fill="#cbdbdd" opacity="0.9" style="isolation: isolate"/>
      <path id="Path_1821" data-name="Path 1821" d="M453.711,349.124a.826.826,0,0,1-.8-.669l-.231-1.261a.8.8,0,0,1,.386-.823l3.243-1.9a2.4,2.4,0,0,1,.412-.1.824.824,0,0,1,.8.669l.232,1.261a.8.8,0,0,1-.386.823l-3.243,1.9A2.492,2.492,0,0,1,453.711,349.124ZM490.825,327.4a.826.826,0,0,1-.8-.669l-.231-1.261a.8.8,0,0,1,.386-.823l3.269-1.9a2.4,2.4,0,0,1,.412-.1.824.824,0,0,1,.8.669l.231,1.261a.8.8,0,0,1-.386.823l-3.243,1.9a4.449,4.449,0,0,1-.434.107Z" transform="translate(-31.541 -23.829)" fill="#212829" opacity="0.4" style="isolation: isolate"/>
      <path id="Path_1822" data-name="Path 1822" d="M457.337,345.008l.231,1.261a.52.52,0,0,1-.258.54l-3.268,1.9a.517.517,0,0,1-.708-.183.507.507,0,0,1-.065-.178l-.231-1.261a.519.519,0,0,1,.258-.54l3.269-1.9a.508.508,0,0,1,.7.161A.516.516,0,0,1,457.337,345.008ZM493.653,322.9l-3.269,1.9a.561.561,0,0,0-.258.54l.232,1.261a.517.517,0,0,0,.594.425.534.534,0,0,0,.179-.065l3.265-1.909a.562.562,0,0,0,.258-.54l-.232-1.261a.529.529,0,0,0-.622-.414.514.514,0,0,0-.149.054Z" transform="translate(-31.535 -23.826)" fill="url(#linear-gradient-44)"/>
    </g>
    <path id="Path_1815-2" data-name="Path 1815" d="M491.255,316.664l-6.732,3.916a.425.425,0,0,0-.217.45l.583,3.3a.436.436,0,0,0,.651.3l6.732-3.916a.425.425,0,0,0,.217-.45l-.583-3.3a.438.438,0,0,0-.651-.3Z" transform="translate(-31.057 -23.921)" fill="#d4edf5"/>
  </g>
</svg>
