<svg id="Group_4520" data-name="Group 4520" xmlns="http://www.w3.org/2000/svg" width="162.458" height="129.408" viewBox="0 0 162.458 129.408">
  <path id="Path_2582" data-name="Path 2582" d="M214.791,240.122c1.334-.924,2.142-2.7,2.124-5.167-.039-5.244-3.793-11.61-8.381-14.215-2.046-1.163-3.914-1.379-5.352-.8-.257.1-3.906,2.269-4.073,2.392-1.3.935-2.081,2.695-2.057,5.121.037,5.244,3.788,11.609,8.376,14.214,2.173,1.234,4.144,1.4,5.613.684Z" transform="translate(-121.217 -116.578)"/>
  <path id="Path_2583" data-name="Path 2583" d="M195.8,229.294c.04,5.248,3.79,11.612,8.378,14.217s8.282.466,8.244-4.777-3.788-11.613-8.38-14.218S195.764,224.05,195.8,229.294Z" transform="translate(-120.764 -117.948)" fill="#121212"/>
  <path id="Path_2584" data-name="Path 2584" d="M199.692,233.035a12.531,12.531,0,0,0,5.766,9.775c3.155,1.794,5.7.321,5.67-3.286a12.551,12.551,0,0,0-5.767-9.779C202.205,227.953,199.669,229.424,199.692,233.035Z" transform="translate(-122.176 -119.973)" fill="#c3c3c3"/>
  <path id="Path_2585" data-name="Path 2585" d="M108.137,179.272c1.332-.922,2.137-2.7,2.121-5.163-.039-5.247-3.79-11.61-8.379-14.216-2.046-1.164-3.913-1.38-5.353-.8-.256.1-3.9,2.27-4.07,2.392-1.3.934-2.079,2.694-2.06,5.119.036,5.246,3.791,11.61,8.379,14.216,2.166,1.232,4.138,1.4,5.609.682Z" transform="translate(-82.493 -94.485)"/>
  <path id="Path_2586" data-name="Path 2586" d="M89.147,168.447c.038,5.247,3.793,11.61,8.38,14.215s8.281.467,8.245-4.778-3.793-11.61-8.38-14.217S89.111,163.2,89.147,168.447Z" transform="translate(-82.039 -95.856)" fill="#121212"/>
  <path id="Path_2587" data-name="Path 2587" d="M93.033,172.187a12.56,12.56,0,0,0,5.765,9.776c3.159,1.791,5.7.322,5.671-3.288a12.542,12.542,0,0,0-5.763-9.777C95.549,167.107,93.007,168.579,93.033,172.187Z" transform="translate(-83.45 -97.881)" fill="#c3c3c3"/>
  <path id="Path_2588" data-name="Path 2588" d="M240.479,236.956a.356.356,0,0,1-.039.018Z" transform="translate(-136.971 -122.868)" fill="#f5ba75"/>
  <path id="Path_2589" data-name="Path 2589" d="M239.926,148.721c.02-.248.054.827.11.7-.048.108-.092-1.057-.138-.949-.029-.25-.061.771-.093.518v0l0-.02q-.118-.91-.268-1.84v-.01q-.152-.932-.341-1.876l-.009-.045q-.183-.906-.406-1.811c-.012-.05-.025-.1-.038-.15q-.214-.857-.467-1.707c-.02-.067-.04-.132-.061-.2q-.226-.744-.485-1.478a8.543,8.543,0,0,0-1.068-3.715c-.022.255-.067.541-.123.839v0a4.583,4.583,0,0,0-.206-1.36q-.444-.829-.95-1.615c-3.114-4.807-11.484-8.756-16.248-11.936L201.173,110.3,189.106,84.534q-1.2-1.409-2.43-2.789c-4-2.463-15.043-9.149-26.109-14.831-8.326-4.5-15.42-8.847-23.572-9.062-.215-.013-.424-.02-.625-.02-.149,0-.31.009-.475.023-13.573.8-42.644,22.247-42.644,22.247l.078.041L85.841,90.193l-2.973,6.215s-.013.041-.032.1l-.214.027a54.533,54.533,0,0,0-1.86,8.726c-.342,2.721-.563,8.892-.69,13.7L78,120.132V121.4l-.008,0,.008.01v4.242l5.139,2.968.836.647a7.333,7.333,0,0,1,6.717-5.216l.357-.22c.289.066.582.153.875.25a2.972,2.972,0,0,1,1.281.518c4.631,2.191,9.393,7.965,10.068,15.437l-.031-.017.072,2.152,32.37,18.441,13.659,8.059c2.448-4.34,6-7.6,10.549-6.878v-.2a16.194,16.194,0,0,1,4.655,1.817,15.686,15.686,0,0,1,5.342,4.719c.5,1.1,1.345,3,2.034,4.7a23.376,23.376,0,0,1,.53,3.155l.406-.183c.005.03.011.059.015.088a24.372,24.372,0,0,1,0,5.532l.034.012c-.008.075-.015.125-.015.125s18.11,5.635,21.624,5.667a42.494,42.494,0,0,0,13.685-2.153l.024-.071c6.811-.752,12.431-3.815,17.694-7.247,4.479-2.922,7.948-5.9,9.646-8.573a6.593,6.593,0,0,0,.908-2.383c1.395-1.415,2.327-1.913,3.172-4.016a11.472,11.472,0,0,0,.8-4.508C240.4,156,240.356,152.546,239.926,148.721Z" transform="translate(-77.988 -57.831)" fill="#dddede"/>
  <path id="Path_2590" data-name="Path 2590" d="M254.651,225.893c-11.245,1.259-23.358-.144-33.591-5.237.275.328.536.663.773,1.013.5,1.1,1.345,3,2.034,4.7a23.381,23.381,0,0,1,.53,3.155l.406-.183c.005.03.011.059.015.088a24.374,24.374,0,0,1,0,5.532l.034.012c-.008.075-.015.125-.015.125s18.11,5.635,21.624,5.667a42.494,42.494,0,0,0,13.686-2.153l.024-.071c6.811-.752,12.431-3.815,17.694-7.247,4.479-2.922,7.948-5.9,9.646-8.573a6.593,6.593,0,0,0,.908-2.383c1.395-1.415,2.327-1.913,3.172-4.016a11.473,11.473,0,0,0,.8-4.508c-.032-1.667-.066-3.956-.248-6.553C283.493,217.754,269.613,224.219,254.651,225.893Z" transform="translate(-129.935 -111.361)" fill="#d1d2d3"/>
  <path id="Path_2591" data-name="Path 2591" d="M241.989,146.114c-.02-.193-.024-.275.008-.019l0-.012c-.033-.291-.362-1.521-.462-2.14v-.01c-.1-.622-1.093-4.387-1.262-4.953-.02-.067-.04-.132-.061-.2q-.226-.744-.485-1.478c0-.032-.009-.066-.011-.1-.1-1.236-1.362-2.684-1.7-3.206a14.381,14.381,0,0,0-2.241-2.588l.013-.006c-2.766-2.608-6.745-4.931-10.208-6.988-.581-.346-1.15-.685-1.694-1.016l-.31-.189c-.22-.134-.433-.268-.644-.4l-.282-.177-.023-.014c-.3-.189-.585-.375-.86-.558L204.451,110.3,198.2,98.309l-6.452-13.775q-1.2-1.409-2.43-2.789c-4-2.463-15.043-9.149-26.109-14.831q-1.039-.562-2.054-1.117-1.1-.6-2.18-1.188l-.09-.05q-1.009-.547-2-1.073l-.2-.106q-.888-.468-1.767-.913l-.264-.133c-1.29-.648-2.571-1.249-3.848-1.79l-.275-.115a39.733,39.733,0,0,0-3.858-1.392c-.03-.009-.059-.02-.089-.029l0,0a26.731,26.731,0,0,0-6.939-1.158c-.215-.013-.424-.02-.625-.02-.149,0-.31.009-.475.023-13.573.8-42.644,22.247-42.644,22.247l.078.041L88.482,90.193l-2.973,6.215s-.013.041-.032.1l-.214.027s9.828,5.627,23.9,13.474a31.377,31.377,0,0,1,3.713,4.781c4.681,7.482,5.963,17.4,12.951,22.791,4.814,3.715,11.353,4.363,17.4,3.743,6.016-.617,11.886-2.332,17.911-2.835,1.006.54,1.822.975,2.41,1.283l.031.005c1.186.638,2.141,1.148,2.813,1.5.183.1,6.967,3.88,7.111,4,9.909,8.089,7.814,10.484,12.273,14.7,5.478,5.478,5.489,4.927,5.888,8.6a4.972,4.972,0,0,0,4.492,4.438,43.393,43.393,0,0,0,15.91-1.467l4.746,7.577a4.768,4.768,0,0,0,6.31,1.668,67.6,67.6,0,0,0,9-5.53c3.135-2.638,6.49-6.032,6.663-7.256a93.01,93.01,0,0,0,.515-13.4C242.4,151.052,242.3,149.534,241.989,146.114Z" transform="translate(-80.629 -57.831)" fill="#dddede"/>
  <path id="Path_2592" data-name="Path 2592" d="M298.088,207.7c-2.867,1.786-5.8,3.138-7.729,4.123-1.478.753-2.374,1.229-2.216,1.891.383,1.593,1.888,4.858,3.075,5.8,5.65-1.259,16.771-9.388,18.4-12.515.474-.913-.913-5.79-1.777-7.523A47.4,47.4,0,0,1,298.088,207.7Z" transform="translate(-154.284 -109.258)" fill="#6f6e6f"/>
  <g id="Group_4501" data-name="Group 4501" transform="translate(110.523 82.136)">
    <path id="Path_2593" data-name="Path 2593" d="M270.631,224.994c2.218-.2,4.6,6.041,2.143,7.323-2.4,1.253-8.592,2.589-16.89,1.371-3.529-1.283-4.1-8.494-.317-8.712A70.336,70.336,0,0,0,270.631,224.994Z" transform="translate(-252.045 -200.654)" fill="#ebf7fa"/>
    <path id="Path_2594" data-name="Path 2594" d="M255.038,224.964c-5.73-.513-3.621,8.133.317,8.712C254.139,232.038,253.25,226.511,255.038,224.964Z" transform="translate(-251.515 -200.641)" fill="#b54711"/>
    <path id="Path_2595" data-name="Path 2595" d="M325.243,194.217c-.285,1.632,1.025,6.794,1.645,7.057.764.324,3.132-4.1,3.111-6.363-.018-1.951-1.037-6.525-2.209-8.122C326.98,190.373,325.415,193.231,325.243,194.217Z" transform="translate(-278.269 -186.789)" fill="#ebf7fa"/>
  </g>
  <path id="Path_2596" data-name="Path 2596" d="M313.821,221.707l-14.264,9.565V236.4l14.264-9.565Z" transform="translate(-158.435 -117.331)" fill="#292622"/>
  <path id="Path_2597" data-name="Path 2597" d="M315.484,226.891v-5.128l-14.264,9.565" transform="translate(-159.039 -117.352)" fill="#0074b5"/>
  <path id="Path_2598" data-name="Path 2598" d="M301.22,234.251v5.128l14.264-9.565Z" transform="translate(-159.039 -120.275)" fill="#e9a314"/>
  <path id="Path_2599" data-name="Path 2599" d="M80.7,133.186c-.306,2.941-.506,8.636-.625,13.135L78,147.492v1.273l-.008,0,.008.01v4.242l5.139,2.968.836.647a7.334,7.334,0,0,1,6.717-5.216l.357-.22c.289.066.582.153.875.25a3.36,3.36,0,0,1,.39.089A76.827,76.827,0,0,0,80.7,133.186Z" transform="translate(-77.988 -85.191)" fill="#3c982c"/>
  <path id="Path_2600" data-name="Path 2600" d="M164.438,147.1c-.068-.069-.115-.116-.118-.118-2.039-1.41-12.875-20.852-17.708-27.65a19.318,19.318,0,0,0-6.632-5.856C129.736,108,97.175,91.294,95.975,91.79a3.5,3.5,0,0,0-.434.18c-.048.023-.1.053-.143.078-.1.053-.2.108-.3.171-.056.035-.113.076-.169.115-.092.063-.184.127-.277.2-.059.045-.118.094-.178.142q-.137.111-.275.232c-.059.053-.118.107-.178.162-.094.087-.187.178-.281.271-.057.057-.114.113-.171.173-.1.1-.2.21-.3.32-.052.057-.1.113-.155.172-.112.128-.224.261-.336.4-.038.046-.076.09-.115.138-.306.378-.612.781-.915,1.207l-.061.088q-.193.273-.385.557l-.114.171c-.111.166-.221.333-.331.5l-.125.2q-.158.248-.314.5l-.126.206q-.157.258-.311.518l-.113.193q-.164.279-.324.56l-.09.159c-.122.214-.241.429-.36.644l-.044.079c-.409.745-.8,1.489-1.164,2.213-.019.037-.037.073-.055.11q-.153.3-.3.6l-.069.14q-.134.272-.262.538l-.083.173c-.08.166-.157.328-.233.489l-.083.176q-.113.238-.218.467l-.073.155c-.075.161-.146.316-.216.469l-.055.12q-.122.268-.234.517l-.014.03q-.118.265-.225.506l-.063.144c-.045.1-.09.2-.131.3l-.094.216-.073.169c-.037.087-.071.164-.1.241l-.032.075-.1.248,0,0c-.137.325-.214.517-.214.517s-.013.041-.032.1l-.214.027s-.469,1.476-.971,3.707c7.993,8.267,13.846,18.676,17.789,29.734.217.295.431.593.634.905.061.093.123.183.183.278.108.173.213.35.318.527.084.143.166.287.247.434.091.163.182.326.268.493.153.294.3.591.44.9.055.12.106.245.159.368.1.232.2.466.292.7q.08.205.155.413c.1.265.189.534.275.806.032.1.066.2.1.3q.166.553.3,1.124c.025.105.046.212.07.318q.1.451.179.912c.02.117.041.235.059.353.063.407.118.818.155,1.236l-.031-.017.072,2.152,18.673,10.638,9.763,5.637c4.684-7.819,13.955-12.157,23.243-13.633a58.757,58.757,0,0,1,16.687-.3C170.12,153.033,165.117,147.807,164.438,147.1Z" transform="translate(-80.076 -70.157)" fill="#3c982c"/>
  <path id="Path_2601" data-name="Path 2601" d="M211.395,210.22c1.573-.484,3.153-.935,4.742-1.342-1.727-2.014-3.988-4.51-6.386-7.1a49.893,49.893,0,0,0-20.139-1.087c-7.945,1.117-17.131,4.567-21.357,11.588l4.415,2.549C182.815,205.911,198.858,204.842,211.395,210.22Z" transform="translate(-110.762 -109.505)" fill="#3c982c"/>
  <path id="Path_2602" data-name="Path 2602" d="M181.673,223.621l.063.037,5.251,3.1c2.448-4.34,6-7.6,10.549-6.878v-.2a16.194,16.194,0,0,1,4.655,1.817c.063.036.121.075.183.111,2.328-.912,4.665-1.81,7.014-2.662C199.909,216.515,189.187,217.86,181.673,223.621Z" transform="translate(-115.634 -115.91)" fill="#3c982c"/>
  <path id="Path_2603" data-name="Path 2603" d="M207.719,179.49c.252-.094.5-.189.757-.282-.244.1-.485.2-.722.3Z" transform="translate(-125.091 -101.901)" fill="#3c982c"/>
  <g id="Group_4503" data-name="Group 4503" transform="translate(8.134 28.741)">
    <path id="Path_2604" data-name="Path 2604" d="M147.251,125.3a19.318,19.318,0,0,0-6.632-5.856c-10.244-5.479-22.855-12.419-31.192-16.116a4.246,4.246,0,0,0-2.839-.229c-5.3,1.42-18.163,8.394-15.46,9.831,8.506,4.523,64.147,33.787,72.652,38.044.522.261,1.171-.316.855-.807C162.113,146.253,152.084,132.1,147.251,125.3Z" transform="translate(-90.759 -102.956)" fill="#1e1c1a"/>
    <g id="Group_4502" data-name="Group 4502" transform="translate(1.438 2.21)">
      <path id="Path_2605" data-name="Path 2605" d="M103.334,109.143c-4.613,2.137-10.331,5.5-10.317,6.655,1.415.752,3.909,2.071,7.13,3.769A37.389,37.389,0,0,1,103.334,109.143Z" transform="translate(-93.017 -107.413)" fill="#474645" stroke="#1e1c1a" stroke-miterlimit="10" stroke-width="0.9"/>
      <path id="Path_2606" data-name="Path 2606" d="M105.582,119.041c7.733,4.077,19.191,10.1,30.175,15.856a70.185,70.185,0,0,1,2.949-15.532c-8.6-4.625-18.222-9.792-24.852-12.7a2.783,2.783,0,0,0-1.934-.118,26.082,26.082,0,0,0-2.716,1.027A37.343,37.343,0,0,0,105.582,119.041Z" transform="translate(-97.579 -106.426)" fill="#474645" stroke="#1e1c1a" stroke-miterlimit="10" stroke-width="0.9"/>
      <path id="Path_2607" data-name="Path 2607" d="M168.078,135.409a18.237,18.237,0,0,0-6.218-5.49l-4.624-2.483a69.718,69.718,0,0,0-2.885,15.555c13.562,7.106,26.19,13.694,29.825,15.513.005,0,.115.012.115.012C181.81,154.663,172.3,141.344,168.078,135.409Z" transform="translate(-115.286 -114.055)" fill="#474645" stroke="#1e1c1a" stroke-miterlimit="10" stroke-width="0.9"/>
    </g>
  </g>
  <path id="Path_2608" data-name="Path 2608" d="M271.971,133.375l-2.81,1.545-1.607,4.5h1.023l1.446-3.834,2.355-1.431a5.852,5.852,0,0,0-.32-1.19Z" transform="translate(-146.816 -85.112)" fill="#322f2e"/>
  <path id="Path_2609" data-name="Path 2609" d="M282.789,126.485l-7.857,2.721-.305,1.409a5.853,5.853,0,0,1,.32,1.19l.044-.027v.3a15.275,15.275,0,0,1,.082,1.922,15.275,15.275,0,0,0-.082-1.922v2.585l1.731.65,6.513-3.537.406-2.572Z" transform="translate(-149.384 -82.758)" fill="#cdcecf"/>
  <g id="Group_4504" data-name="Group 4504" transform="translate(61.412 74.956)">
    <path id="Path_2610" data-name="Path 2610" d="M181.82,176.605l-.718-1.089-6.692,3.813v5.751l1.266.552,6.368-4.118-.274-3.477.367-.35c-.076-.372-.165-.743-.255-1.115Z" transform="translate(-174.409 -175.516)" fill="#dddede"/>
    <path id="Path_2611" data-name="Path 2611" d="M190.162,178.511l.824-.446L188,175.542l-1.859,1.039c.09.372.179.743.255,1.115l1.078-1.029Z" transform="translate(-178.668 -175.525)" fill="#322f2e"/>
  </g>
  <g id="Group_4505" data-name="Group 4505" transform="translate(7.107 0)">
    <path id="Path_2612" data-name="Path 2612" d="M193.158,84.534q-1.2-1.409-2.43-2.789c-4-2.463-15.043-9.149-26.109-14.831q-1.039-.562-2.054-1.117-1.1-.6-2.18-1.188l-.09-.05q-1.009-.547-2-1.073l-.2-.106q-.888-.468-1.767-.913l-.264-.133c-1.29-.648-2.571-1.249-3.848-1.79l-.275-.115a39.731,39.731,0,0,0-3.858-1.392c-.03-.009-.059-.02-.089-.029l0,0a26.73,26.73,0,0,0-6.939-1.158c-.215-.013-.424-.02-.625-.02-.149,0-.31.009-.475.023-12.4.734-38.781,18.762-43.24,21.867a16.812,16.812,0,0,0-3.749,4.388c-.538.887-3.811,7.331-3.811,7.331,4.037-3.661,8.091-6.845,10.468-7.483a13.226,13.226,0,0,1,5.228.739c9.054,4.015,22.109,11.551,33.233,17.5,2.864,1.532,5.318,3.073,7.2,5.721,2.253,3.169,14.677,22.071,17.918,26.673.581-.516,1.771-.323,2.354-.836l-13.756-22.109a3.543,3.543,0,0,1,1.619-4.113l35.253-21.2a3.581,3.581,0,0,1,4.966,1.65l.594,1.148c.273-.189.543-.382.816-.571Z" transform="translate(-89.146 -57.831)" fill="#dddede"/>
  </g>
  <path id="Path_2613" data-name="Path 2613" d="M157.317,166.747l-5.29-3.054a1.125,1.125,0,0,1-.541-.854v-.75c0-.3.243-.4.541-.229l5.29,3.054a1.124,1.124,0,0,1,.541.854v.75C157.858,166.817,157.616,166.92,157.317,166.747Z" transform="translate(-104.673 -95.572)" fill="#1e1c1a"/>
  <path id="Path_2614" data-name="Path 2614" d="M107.665,138.08l-5.29-3.054a1.123,1.123,0,0,1-.541-.854v-.75c0-.3.242-.4.541-.229l5.29,3.055a1.123,1.123,0,0,1,.541.854v.75C108.206,138.15,107.963,138.253,107.665,138.08Z" transform="translate(-86.646 -85.163)" fill="#1e1c1a"/>
  <path id="Path_2615" data-name="Path 2615" d="M202.144,149.329c16.86-6.6,27.793-13.3,39.389-24.005l-2.446-1.661-6.251-11.988L226.383,97.9c-.485-.571-.983-1.131-1.477-1.695-1.467-1.609-2.525-1.745-3.106-1.418l-39.543,23.786c-1.6.9-2.366,3.711-.541,6.524l12.377,22a2.306,2.306,0,0,1,1.7.063A50.179,50.179,0,0,0,202.144,149.329Z" transform="translate(-115.265 -71.197)" fill="#c0c0c1"/>
  <path id="Path_2616" data-name="Path 2616" d="M282.773,165.58c-.277-.509-.331-1.087-.646-1.568-1.6-2.44-4.6-4.571-7.869-6.806-1.5-1.023-25.424-16.708-25.424-16.708-5.571,5.976-9.779,8.319-16.978,12.957-8.157,5.255-15.461,9.291-25.107,10.344.149.29.316.6.49.908a154.848,154.848,0,0,1,23.754,24.509c.071.045,5.239,2.326,8.132,2.544C262.241,193.5,285.249,173.134,282.773,165.58Z" transform="translate(-124.739 -87.846)" fill="#57a62c"/>
  <path id="Path_2617" data-name="Path 2617" d="M249.9,140.72l-.339-.222c-5.57,5.976-9.779,8.319-16.978,12.957-7.791,5.019-14.808,8.919-23.826,10.177,10.2,5.651,20.479,11.165,31.4,15.278,7.786,2.932,15.751,5.316,23.745,7.605a55.921,55.921,0,0,0,11.754-7.784C269.058,164.856,259.812,152.006,249.9,140.72Z" transform="translate(-125.469 -87.846)" fill="#3c982c"/>
  <g id="Group_4507" data-name="Group 4507" transform="translate(8.134 28.741)">
    <path id="Path_2618" data-name="Path 2618" d="M147.251,125.3a19.318,19.318,0,0,0-6.632-5.856c-10.244-5.479-22.855-12.419-31.192-16.116a4.246,4.246,0,0,0-2.839-.229c-5.3,1.42-18.163,8.394-15.46,9.831,8.506,4.523,64.147,33.787,72.652,38.044.522.261,1.171-.316.855-.807C162.113,146.253,152.084,132.1,147.251,125.3Z" transform="translate(-90.759 -102.956)" fill="#1e1c1a"/>
    <g id="Group_4506" data-name="Group 4506" transform="translate(1.438 2.21)">
      <path id="Path_2619" data-name="Path 2619" d="M103.334,109.143c-4.613,2.137-10.331,5.5-10.317,6.655,1.415.752,3.909,2.071,7.13,3.769A37.389,37.389,0,0,1,103.334,109.143Z" transform="translate(-93.017 -107.413)" fill="#474645" stroke="#1e1c1a" stroke-miterlimit="10" stroke-width="0.9"/>
      <path id="Path_2620" data-name="Path 2620" d="M105.582,119.041c7.733,4.077,19.191,10.1,30.175,15.856a70.185,70.185,0,0,1,2.949-15.532c-8.6-4.625-18.222-9.792-24.852-12.7a2.783,2.783,0,0,0-1.934-.118,26.082,26.082,0,0,0-2.716,1.027A37.343,37.343,0,0,0,105.582,119.041Z" transform="translate(-97.579 -106.426)" fill="#474645" stroke="#1e1c1a" stroke-miterlimit="10" stroke-width="0.9"/>
      <path id="Path_2621" data-name="Path 2621" d="M168.078,135.409a18.237,18.237,0,0,0-6.218-5.49l-4.624-2.483a69.718,69.718,0,0,0-2.885,15.555c13.562,7.106,26.19,13.694,29.825,15.513.005,0,.115.012.115.012C181.81,154.663,172.3,141.344,168.078,135.409Z" transform="translate(-115.286 -114.055)" fill="#474645" stroke="#1e1c1a" stroke-miterlimit="10" stroke-width="0.9"/>
    </g>
  </g>
  <path id="Path_2622" data-name="Path 2622" d="M241.14,127.482c-.576-1.709-11.884-23.512-11.884-23.512a3.581,3.581,0,0,0-4.966-1.65l-35.253,21.206a3.541,3.541,0,0,0-1.619,4.112L198.7,147.69a3.619,3.619,0,0,0,4.713,2.4c16.508-6.24,26.739-12.386,37.726-22.614" transform="translate(-117.665 -73.823)" fill="#0f0f0f"/>
  <g id="Group_4508" data-name="Group 4508" transform="translate(69.601 28.052)">
    <path id="Path_2623" data-name="Path 2623" d="M241.14,127.482c-.576-1.709-11.884-23.512-11.884-23.512a3.581,3.581,0,0,0-4.966-1.65l-35.253,21.206a3.541,3.541,0,0,0-1.619,4.112L198.7,147.69a3.619,3.619,0,0,0,4.713,2.4c16.508-6.24,26.739-12.386,37.726-22.614" transform="translate(-187.266 -101.875)" fill="#0f0f0f"/>
    <path id="Path_2624" data-name="Path 2624" d="M225.944,105.255l-35.01,20.728a2.617,2.617,0,0,0-1.024,3.595L201.168,147.7a2.608,2.608,0,0,0,3.225.938c14.983-6.081,24.869-11.538,34.548-19.977a2.6,2.6,0,0,0,.7-3.135l-10-19.365A2.62,2.62,0,0,0,225.944,105.255Z" transform="translate(-188.097 -102.956)" fill="#757575"/>
    <path id="Path_2625" data-name="Path 2625" d="M231.022,111.69c5.466,3.589,10.954,7.146,16.558,10.516q3.587,2.156,7.185,4.29a2.368,2.368,0,0,0-.252-.966l-10-19.365a2.62,2.62,0,0,0-3.7-.91l-10.3,6.1C230.689,111.465,230.855,111.58,231.022,111.69Z" transform="translate(-202.971 -102.956)" fill="#b3b3b3"/>
  </g>
  <path id="Path_2626" data-name="Path 2626" d="M241.14,127.482c-.576-1.709-11.884-23.512-11.884-23.512a3.581,3.581,0,0,0-4.966-1.65l-35.253,21.206a3.541,3.541,0,0,0-1.619,4.112L198.7,147.69a3.619,3.619,0,0,0,4.713,2.4c16.508-6.24,26.739-12.386,37.726-22.614" transform="translate(-117.665 -73.823)" fill="#0f0f0f"/>
  <path id="Path_2627" data-name="Path 2627" d="M225.944,105.255l-35.01,20.728a2.617,2.617,0,0,0-1.024,3.595L201.168,147.7a2.608,2.608,0,0,0,3.225.938c14.983-6.081,24.869-11.538,34.548-19.977a2.6,2.6,0,0,0,.7-3.135l-10-19.365A2.62,2.62,0,0,0,225.944,105.255Z" transform="translate(-118.495 -74.903)" fill="#757575"/>
  <path id="Path_2628" data-name="Path 2628" d="M231.022,111.69c5.466,3.589,10.954,7.146,16.558,10.516q3.587,2.156,7.185,4.29a2.368,2.368,0,0,0-.252-.966l-10-19.365a2.62,2.62,0,0,0-3.7-.91l-10.3,6.1C230.689,111.465,230.855,111.58,231.022,111.69Z" transform="translate(-133.37 -74.903)" fill="#b3b3b3"/>
  <path id="Rectangle_257" data-name="Rectangle 257" d="M2,0h.259a.127.127,0,0,1,.127.127V5.752a0,0,0,0,1,0,0H1.3A1.3,1.3,0,0,1,0,4.447V2A2,2,0,0,1,2,0Z" transform="translate(1.113 55.186)" fill="#f1833e"/>
</svg>
