<svg xmlns="http://www.w3.org/2000/svg" width="167.64" height="133.536" viewBox="0 0 167.64 133.536">
  <g id="Group_4620" data-name="Group 4620" transform="translate(-1291.009 -1094.594)">
    <path id="Path_2915" data-name="Path 2915" d="M1306.454,1170.034l-2.527,1.713q-.144,1.052-.344,2.093a43.308,43.308,0,0,1-6.824,16.207c.058.1.11.2.171.291l2.5,3.958,29.027-16.746Z" transform="translate(-1.971 -25.858)" fill="#1d1b18"/>
    <path id="Path_2916" data-name="Path 2916" d="M1407.758,1231.491l-10.054,6.818-.3.66a13.453,13.453,0,0,0,.835,12.826l2.5,3.958,29.027-16.746Z" transform="translate(-36.041 -46.924)" fill="#1d1b18"/>
    <g id="Group_4628" data-name="Group 4628" transform="translate(1291.009 1094.594)">
      <path id="Path_2917" data-name="Path 2917" d="M1428.377,1277.539c1.377-.954,2.211-2.788,2.192-5.332-.04-5.412-3.914-11.98-8.648-14.668-2.111-1.2-4.039-1.423-5.523-.822-.266.1-4.03,2.342-4.2,2.467-1.337.965-2.147,2.782-2.123,5.285.038,5.412,3.909,11.979,8.643,14.667,2.242,1.274,4.276,1.447,5.792.707Z" transform="translate(-1331.82 -1150.054)"/>
      <path id="Path_2918" data-name="Path 2918" d="M1408.825,1266.244c.041,5.416,3.911,11.983,8.645,14.671s8.546.481,8.508-4.929-3.91-11.983-8.648-14.672S1408.783,1260.833,1408.825,1266.244Z" transform="translate(-1331.392 -1151.347)" fill="#121212"/>
      <path id="Path_2919" data-name="Path 2919" d="M1412.713,1269.926a12.931,12.931,0,0,0,5.95,10.087c3.256,1.851,5.877.331,5.851-3.391a12.948,12.948,0,0,0-5.951-10.091C1415.306,1264.683,1412.689,1266.2,1412.713,1269.926Z" transform="translate(-1332.725 -1153.259)" fill="#c3c3c3"/>
      <path id="Path_2920" data-name="Path 2920" d="M1321.724,1216.688c1.375-.951,2.2-2.785,2.189-5.328-.041-5.414-3.911-11.98-8.647-14.67-2.111-1.2-4.038-1.424-5.524-.822-.264.106-4.027,2.343-4.2,2.469-1.339.964-2.145,2.78-2.126,5.282.037,5.413,3.912,11.981,8.647,14.67,2.235,1.271,4.271,1.447,5.788.7Z" transform="translate(-1295.261 -1129.197)"/>
      <path id="Path_2921" data-name="Path 2921" d="M1302.168,1205.4c.039,5.414,3.914,11.98,8.647,14.668s8.545.482,8.508-4.93-3.915-11.98-8.647-14.67S1302.131,1199.986,1302.168,1205.4Z" transform="translate(-1294.834 -1130.491)" fill="#121212"/>
      <path id="Path_2922" data-name="Path 2922" d="M1306.054,1209.08a12.961,12.961,0,0,0,5.949,10.088c3.26,1.848,5.878.333,5.853-3.393a12.942,12.942,0,0,0-5.948-10.089C1308.65,1203.838,1306.028,1205.356,1306.054,1209.08Z" transform="translate(-1296.166 -1132.403)" fill="#c3c3c3"/>
      <path id="Path_2923" data-name="Path 2923" d="M1453.5,1273.719a.35.35,0,0,1-.04.018Z" transform="translate(-1346.692 -1155.992)" fill="#f1b176"/>
      <path id="Path_2924" data-name="Path 2924" d="M1458.112,1188.383c.02-.256.056.853.114.724-.049.111-.095-1.091-.142-.979-.03-.258-.063.8-.1.534v-.005l0-.02q-.121-.939-.276-1.9v-.01c-.1-.641-.221-1.288-.352-1.936l-.01-.047q-.189-.935-.419-1.87c-.013-.051-.026-.1-.039-.155q-.221-.884-.482-1.762c-.02-.068-.041-.137-.062-.205q-.234-.768-.5-1.525a8.817,8.817,0,0,0-1.1-3.834c-.022.264-.069.558-.127.866v0a4.727,4.727,0,0,0-.214-1.4q-.458-.856-.98-1.667c-3.213-4.959-11.851-9.035-16.766-12.316l-18.528-12.14-12.451-26.585q-1.235-1.454-2.507-2.878c-4.128-2.542-15.523-9.441-26.941-15.3-8.591-4.639-15.912-9.128-24.324-9.351-.222-.014-.438-.021-.645-.021-.154,0-.32.009-.491.023-14.006.829-44,22.957-44,22.957l.08.041-7.726,10.372-3.068,6.413s-.014.043-.033.106l-.221.028a56.27,56.27,0,0,0-1.919,9c-.353,2.808-.581,9.175-.712,14.135l-2.142,1.208v1.313l-.009,0,.009.01v4.377l5.3,3.063.863.667a7.567,7.567,0,0,1,6.931-5.382l.369-.227c.3.068.6.158.9.258a3.073,3.073,0,0,1,1.323.534c4.778,2.261,9.692,8.219,10.389,15.93l-.032-.018.074,2.221,33.4,19.029,14.094,8.316c2.525-4.479,6.193-7.844,10.884-7.1v-.2a16.709,16.709,0,0,1,4.8,1.875,16.2,16.2,0,0,1,5.514,4.869c.514,1.132,1.387,3.092,2.1,4.854a24.218,24.218,0,0,1,.546,3.255l.419-.189c.005.031.011.06.016.091a25.142,25.142,0,0,1,0,5.709l.036.012c-.009.076-.015.13-.015.13s18.688,5.815,22.314,5.848a43.853,43.853,0,0,0,14.122-2.221l.024-.073c7.028-.775,12.828-3.937,18.258-7.478,4.622-3.015,8.2-6.086,9.954-8.846a6.787,6.787,0,0,0,.937-2.459c1.439-1.459,2.4-1.974,3.274-4.143a11.843,11.843,0,0,0,.825-4.652C1458.6,1195.894,1458.556,1192.331,1458.112,1188.383Z" transform="translate(-1291.009 -1094.594)" fill="#d1d2d4"/>
      <path id="Path_2925" data-name="Path 2925" d="M1468.743,1263.314c-11.6,1.3-24.1-.149-34.662-5.4.283.339.553.684.8,1.044.514,1.132,1.387,3.092,2.1,4.854a24.2,24.2,0,0,1,.546,3.255l.419-.189c.005.031.011.06.016.091a25.146,25.146,0,0,1,0,5.709l.036.012c-.009.076-.015.129-.015.129s18.688,5.815,22.314,5.848a43.851,43.851,0,0,0,14.122-2.221l.024-.073c7.028-.776,12.828-3.937,18.258-7.478,4.622-3.015,8.2-6.086,9.954-8.846a6.788,6.788,0,0,0,.937-2.459c1.439-1.459,2.4-1.974,3.274-4.143a11.844,11.844,0,0,0,.825-4.652c-.033-1.72-.068-4.082-.255-6.762C1498.506,1254.915,1484.183,1261.586,1468.743,1263.314Z" transform="translate(-1340.049 -1145.129)" fill="#3a8e35"/>
      <path id="Path_2926" data-name="Path 2926" d="M1460.008,1185.693c-.02-.2-.024-.284.008-.02l.005-.012c-.035-.3-.374-1.57-.478-2.208v-.01c-.1-.641-1.128-4.527-1.3-5.111-.02-.068-.041-.137-.062-.205q-.234-.768-.5-1.525c0-.033-.009-.068-.012-.1-.1-1.276-1.405-2.77-1.754-3.309a14.837,14.837,0,0,0-2.312-2.671l.014-.005c-2.854-2.691-6.96-5.088-10.533-7.211-.6-.357-1.187-.708-1.748-1.048l-.32-.2c-.226-.139-.447-.276-.664-.412l-.291-.183-.024-.015c-.306-.194-.6-.386-.887-.576l-17.871-12.14-6.451-12.37-6.658-14.214q-1.235-1.454-2.507-2.878c-4.128-2.542-15.523-9.441-26.941-15.3q-1.072-.579-2.12-1.152-1.136-.621-2.249-1.226l-.094-.051q-1.041-.565-2.066-1.107l-.208-.109q-.917-.483-1.824-.942l-.273-.138c-1.332-.668-2.652-1.288-3.971-1.847l-.283-.119a40.98,40.98,0,0,0-3.982-1.437c-.031-.009-.061-.021-.091-.03l0,0a27.6,27.6,0,0,0-7.161-1.195c-.222-.014-.438-.021-.645-.021-.155,0-.32.009-.491.023-14.006.829-44,22.957-44,22.957l.08.041-7.726,10.372-3.068,6.413s-.014.043-.033.106l-.221.028s10.142,5.806,24.666,13.9a32.374,32.374,0,0,1,3.832,4.933c4.83,7.721,6.153,17.954,13.364,23.519,4.968,3.834,11.715,4.5,17.958,3.863,6.208-.637,12.265-2.406,18.483-2.925,1.038.557,1.88,1.006,2.488,1.324l.032.005c1.224.658,2.209,1.184,2.9,1.547.189.1,7.189,4,7.338,4.125,10.225,8.348,8.064,10.819,12.664,15.165,5.653,5.653,5.664,5.084,6.076,8.875a5.131,5.131,0,0,0,4.635,4.58,44.779,44.779,0,0,0,16.417-1.515l4.9,7.82a4.921,4.921,0,0,0,6.511,1.721,69.811,69.811,0,0,0,9.286-5.706c3.235-2.722,6.7-6.225,6.876-7.487a95.987,95.987,0,0,0,.532-13.829C1460.432,1190.789,1460.326,1189.222,1460.008,1185.693Z" transform="translate(-1293.503 -1094.594)" fill="#4ca935"/>
      <path id="Path_2927" data-name="Path 2927" d="M1412.1,1225.7c-2.929-6.564-7.424-12.244-12.245-17.513-2.078-2.273-13.311-12.455-14.139-13.357-5.1-5.558-11.329-11.272-14.984-17.905-3.827-6.946-5.31-11.238-10.253-19.638-1.683-2.86-6.253-6.041-9.1-7.413-5.37-2.587-23.977-13.075-31.426-16.888-2.556-1.244-8.306-2.309-13.27-3.05l-7.572,10.165-3.068,6.413s-.014.043-.033.106l-.221.028a56.27,56.27,0,0,0-1.919,9c-.353,2.808-.581,9.175-.712,14.135l-2.142,1.208v1.313l-.009,0,.009.011v4.227l1.556,1.048,3.747,2.164.863.667a7.567,7.567,0,0,1,6.931-5.382l.369-.227c.3.068.6.158.9.258a3.072,3.072,0,0,1,1.323.534,18.632,18.632,0,0,1,8.056,8.1,20.4,20.4,0,0,1,2.662,8.357l-.031-.018.063,1.876,33.085,18.848,13.925,8.216a15.159,15.159,0,0,1,5.452-5.839,8.06,8.06,0,0,1,5.6-1.159v-.2a16.719,16.719,0,0,1,4.8,1.875,16.2,16.2,0,0,1,5.514,4.87c.514,1.132,1.387,3.092,2.1,4.853a24.125,24.125,0,0,1,.547,3.255l.419-.189c.005.031.011.06.016.091a25.167,25.167,0,0,1,0,5.709l.036.013c-.009.076-.015.13-.015.13s15.33,4.77,20.915,5.694c.175.016.337.028.472.029a42.376,42.376,0,0,0,6.444-.44A68.219,68.219,0,0,0,1412.1,1225.7Z" transform="translate(-1291.009 -1106.709)" fill="#273f1b"/>
      <path id="Path_2928" data-name="Path 2928" d="M1511.426,1244.721c-2.959,1.842-5.981,3.238-7.975,4.254-1.525.777-2.45,1.268-2.287,1.951.4,1.644,1.949,5.013,3.173,5.986,5.83-1.3,17.306-9.687,18.982-12.915.49-.942-.942-5.974-1.834-7.763A48.917,48.917,0,0,1,1511.426,1244.721Z" transform="translate(-1363.036 -1143.144)" fill="#6d6e72"/>
      <g id="Group_4620-2" data-name="Group 4620" transform="translate(114.048 84.756)">
        <path id="Path_2929" data-name="Path 2929" d="M1484.216,1261.757c2.288-.2,4.747,6.234,2.212,7.557-2.478,1.293-8.866,2.671-17.429,1.414-3.641-1.324-4.227-8.765-.326-8.99A72.542,72.542,0,0,0,1484.216,1261.757Z" transform="translate(-1465.037 -1236.641)" fill="#e2f3f5"/>
        <path id="Path_2930" data-name="Path 2930" d="M1468.172,1261.727c-5.914-.529-3.738,8.393.326,8.99C1467.244,1269.027,1466.326,1263.324,1468.172,1261.727Z" transform="translate(-1464.536 -1236.629)" fill="#b44b21"/>
        <path id="Path_2931" data-name="Path 2931" d="M1538.266,1231.216c-.294,1.685,1.057,7.011,1.7,7.283.788.334,3.232-4.232,3.211-6.566-.018-2.013-1.07-6.734-2.28-8.381C1540.058,1227.25,1538.443,1230.2,1538.266,1231.216Z" transform="translate(-1489.794 -1223.552)" fill="#e2f3f5"/>
      </g>
      <path id="Path_2932" data-name="Path 2932" d="M1527.3,1258.47l-14.719,9.87v5.292l14.719-9.87Z" transform="translate(-1366.955 -1150.765)" fill="#292623"/>
      <path id="Path_2933" data-name="Path 2933" d="M1528.96,1263.818v-5.292l-14.719,9.87h0v5.292l14.719-9.87" transform="translate(-1367.525 -1150.784)" fill="#061331"/>
      <path id="Path_2934" data-name="Path 2934" d="M1420.74,1216.261c.261-.1.521-.195.781-.291-.252.1-.5.2-.745.314Z" transform="translate(-1335.476 -1136.198)" fill="#489e38"/>
      <g id="Group_4622" data-name="Group 4622" transform="translate(8.394 29.658)">
        <path id="Path_2935" data-name="Path 2935" d="M1362.074,1162.778a19.934,19.934,0,0,0-6.843-6.043c-10.571-5.654-23.583-12.815-32.187-16.631a4.386,4.386,0,0,0-2.93-.235c-5.465,1.465-18.742,8.661-15.953,10.144,8.777,4.667,66.193,34.864,74.969,39.257.538.27,1.209-.325.883-.832C1377.41,1184.4,1367.061,1169.792,1362.074,1162.778Z" transform="translate(-1303.78 -1139.719)" fill="#1f1d1b"/>
        <g id="Group_4621" data-name="Group 4621" transform="translate(1.484 2.281)">
          <path id="Path_2936" data-name="Path 2936" d="M1316.684,1145.905c-4.76,2.206-10.661,5.681-10.646,6.868,1.46.776,4.033,2.137,7.357,3.889A38.594,38.594,0,0,1,1316.684,1145.905Z" transform="translate(-1306.038 -1144.12)" fill="#464749" stroke="#1f1d1b" stroke-miterlimit="10" stroke-width="0.9"/>
          <path id="Path_2937" data-name="Path 2937" d="M1318.6,1156.206c7.98,4.206,19.8,10.422,31.137,16.362a72.424,72.424,0,0,1,3.043-16.027c-8.873-4.772-18.8-10.1-25.645-13.107a2.876,2.876,0,0,0-2-.122,26.9,26.9,0,0,0-2.8,1.059A38.54,38.54,0,0,0,1318.6,1156.206Z" transform="translate(-1310.345 -1143.189)" fill="#464749" stroke="#1f1d1b" stroke-miterlimit="10" stroke-width="0.9"/>
          <path id="Path_2938" data-name="Path 2938" d="M1381.537,1172.425a18.829,18.829,0,0,0-6.415-5.665l-4.772-2.563a71.939,71.939,0,0,0-2.977,16.052c13.995,7.333,27.025,14.131,30.776,16.008.005,0,.119.012.119.012C1395.706,1192.294,1385.891,1178.55,1381.537,1172.425Z" transform="translate(-1327.062 -1150.391)" fill="#464749" stroke="#1f1d1b" stroke-miterlimit="10" stroke-width="0.9"/>
        </g>
      </g>
      <path id="Path_2939" data-name="Path 2939" d="M1485.133,1170.151l-2.9,1.594-1.658,4.649h1.056l1.493-3.956,2.43-1.478a5.994,5.994,0,0,0-.33-1.227Z" transform="translate(-1355.986 -1120.349)" fill="#333335"/>
      <path id="Path_2940" data-name="Path 2940" d="M1496.07,1163.248l-8.108,2.808-.315,1.454a6,6,0,0,1,.33,1.227l.045-.027v.312a15.751,15.751,0,0,1,.084,1.983,15.751,15.751,0,0,0-.084-1.983v2.668l1.786.67,6.72-3.65.419-2.654Z" transform="translate(-1358.41 -1118.126)" fill="#bfc1c3"/>
      <g id="Group_4623" data-name="Group 4623" transform="translate(63.371 77.346)">
        <path id="Path_2941" data-name="Path 2941" d="M1395.077,1213.4l-.741-1.125-6.906,3.935v5.934l1.307.57,6.57-4.25-.282-3.588.378-.361c-.079-.384-.17-.767-.264-1.151Z" transform="translate(-1387.43 -1212.278)" fill="#d1d2d4"/>
        <path id="Path_2942" data-name="Path 2942" d="M1403.312,1215.368l.85-.46-3.083-2.6-1.918,1.072c.093.384.185.767.264,1.151l1.113-1.062Z" transform="translate(-1391.451 -1212.287)" fill="#333335"/>
      </g>
      <g id="Group_4624" data-name="Group 4624" transform="translate(7.334)">
        <path id="Path_2943" data-name="Path 2943" d="M1409.5,1122.149q-1.235-1.454-2.507-2.878c-4.128-2.542-15.523-9.441-26.941-15.3q-1.072-.579-2.12-1.152-1.136-.621-2.248-1.226l-.094-.051q-1.041-.565-2.066-1.107l-.208-.109q-.917-.483-1.824-.942l-.272-.138c-1.332-.668-2.653-1.288-3.972-1.847l-.283-.119a40.957,40.957,0,0,0-3.982-1.437l-.091-.03,0,0a27.6,27.6,0,0,0-7.161-1.195c-.222-.014-.438-.021-.645-.021-.155,0-.32.009-.491.023-12.8.758-40.018,19.361-44.62,22.565a17.346,17.346,0,0,0-3.868,4.528c-.555.914-3.932,7.565-3.932,7.565,4.166-3.778,8.348-7.063,10.8-7.721a13.652,13.652,0,0,1,5.4.763c9.342,4.143,22.814,11.919,34.292,18.058,2.956,1.581,5.487,3.172,7.43,5.9,2.325,3.27,15.145,22.776,18.49,27.524.6-.532,1.827-.333,2.429-.862l-14.194-22.815a3.655,3.655,0,0,1,1.671-4.244L1404.86,1124a3.7,3.7,0,0,1,5.125,1.7s.229.441.613,1.185c.281-.2.56-.394.842-.589Z" transform="translate(-1302.168 -1094.594)" fill="#e9eaeb"/>
      </g>
      <path id="Path_2944" data-name="Path 2944" d="M1370.524,1203.669l-5.458-3.152a1.158,1.158,0,0,1-.559-.881v-.774c0-.309.25-.414.559-.236l5.458,3.152a1.158,1.158,0,0,1,.559.881v.774C1371.082,1203.741,1370.833,1203.847,1370.524,1203.669Z" transform="translate(-1316.201 -1130.223)" fill="#1f1d1b"/>
      <path id="Path_2945" data-name="Path 2945" d="M1320.872,1175l-5.459-3.152a1.157,1.157,0,0,1-.559-.881v-.774c0-.308.25-.414.559-.236l5.459,3.151a1.161,1.161,0,0,1,.559.881v.774C1321.43,1175.074,1321.18,1175.18,1320.872,1175Z" transform="translate(-1299.182 -1120.397)" fill="#1f1d1b"/>
      <path id="Path_2946" data-name="Path 2946" d="M1415.85,1187.837c17.4-6.807,28.68-13.72,40.646-24.771l-2.524-1.714-6.451-12.371-6.658-14.214c-.5-.59-1.014-1.168-1.524-1.75-1.514-1.66-2.606-1.8-3.205-1.462l-40.8,24.544c-1.649.929-2.442,3.829-.559,6.732l12.772,22.7a2.376,2.376,0,0,1,1.753.065A51.782,51.782,0,0,0,1415.85,1187.837Z" transform="translate(-1326.201 -1107.212)" fill="#b0b3b5"/>
      <path id="Path_2947" data-name="Path 2947" d="M1498.219,1203.144c-.286-.525-.341-1.122-.667-1.619-1.655-2.517-4.747-4.716-8.119-7.022-1.543-1.056-26.235-17.241-26.235-17.241-5.748,6.167-10.091,8.585-17.52,13.37-8.417,5.423-15.954,9.588-25.908,10.675.154.3.326.615.506.937a159.723,159.723,0,0,1,24.511,25.29c.074.047,5.406,2.4,8.391,2.625C1477.032,1231.953,1500.774,1210.938,1498.219,1203.144Z" transform="translate(-1335.144 -1122.929)" fill="#3f8332"/>
      <g id="Group_4626" data-name="Group 4626" transform="translate(8.394 29.658)">
        <path id="Path_2948" data-name="Path 2948" d="M1362.074,1162.778a19.934,19.934,0,0,0-6.843-6.043c-10.571-5.654-23.583-12.815-32.187-16.631a4.386,4.386,0,0,0-2.93-.235c-5.465,1.465-18.742,8.661-15.953,10.144,8.777,4.667,66.193,34.864,74.969,39.257.538.27,1.209-.325.883-.832C1377.41,1184.4,1367.061,1169.792,1362.074,1162.778Z" transform="translate(-1303.78 -1139.719)" fill="#1f1d1b"/>
        <g id="Group_4625" data-name="Group 4625" transform="translate(1.484 2.281)">
          <path id="Path_2949" data-name="Path 2949" d="M1316.684,1145.905c-4.76,2.206-10.661,5.681-10.646,6.868,1.46.776,4.033,2.137,7.357,3.889A38.594,38.594,0,0,1,1316.684,1145.905Z" transform="translate(-1306.038 -1144.12)" fill="#464749" stroke="#1f1d1b" stroke-miterlimit="10" stroke-width="0.9"/>
          <path id="Path_2950" data-name="Path 2950" d="M1318.6,1156.206c7.98,4.206,19.8,10.422,31.137,16.362a72.424,72.424,0,0,1,3.043-16.027c-8.873-4.772-18.8-10.1-25.645-13.107a2.876,2.876,0,0,0-2-.122,26.9,26.9,0,0,0-2.8,1.059A38.54,38.54,0,0,0,1318.6,1156.206Z" transform="translate(-1310.345 -1143.189)" fill="#464749" stroke="#1f1d1b" stroke-miterlimit="10" stroke-width="0.9"/>
          <path id="Path_2951" data-name="Path 2951" d="M1381.537,1172.425a18.829,18.829,0,0,0-6.415-5.665l-4.772-2.563a71.939,71.939,0,0,0-2.977,16.052c13.995,7.333,27.025,14.131,30.776,16.008.005,0,.119.012.119.012C1395.706,1192.294,1385.891,1178.55,1381.537,1172.425Z" transform="translate(-1327.062 -1150.391)" fill="#464749" stroke="#1f1d1b" stroke-miterlimit="10" stroke-width="0.9"/>
        </g>
      </g>
      <path id="Path_2952" data-name="Path 2952" d="M1455.879,1165.061c-.595-1.765-12.263-24.262-12.263-24.262a3.7,3.7,0,0,0-5.125-1.7l-36.377,21.882a3.655,3.655,0,0,0-1.671,4.244l11.642,20.693a3.735,3.735,0,0,0,4.864,2.482c17.034-6.439,27.592-12.781,38.929-23.335" transform="translate(-1328.466 -1109.691)" fill="#0f0f0f"/>
      <g id="Group_4627" data-name="Group 4627" transform="translate(71.821 28.947)">
        <path id="Path_2953" data-name="Path 2953" d="M1455.879,1165.061c-.595-1.765-12.263-24.262-12.263-24.262a3.7,3.7,0,0,0-5.125-1.7l-36.377,21.882a3.655,3.655,0,0,0-1.671,4.244l11.642,20.693a3.735,3.735,0,0,0,4.864,2.482c17.034-6.439,27.592-12.781,38.929-23.335" transform="translate(-1400.287 -1138.638)" fill="#0f0f0f"/>
        <path id="Path_2954" data-name="Path 2954" d="M1440.126,1142.031,1404,1163.42a2.7,2.7,0,0,0-1.056,3.71l11.617,18.7a2.689,2.689,0,0,0,3.328.967c15.461-6.275,25.662-11.906,35.65-20.613a2.683,2.683,0,0,0,.719-3.236l-10.316-19.982A2.7,2.7,0,0,0,1440.126,1142.031Z" transform="translate(-1401.072 -1139.658)" fill="#757575"/>
        <path id="Path_2955" data-name="Path 2955" d="M1444.059,1148.671c5.641,3.7,11.3,7.373,17.086,10.85q3.7,2.225,7.414,4.428a2.441,2.441,0,0,0-.26-1l-10.316-19.982a2.7,2.7,0,0,0-3.815-.939l-10.626,6.292C1443.715,1148.439,1443.887,1148.557,1444.059,1148.671Z" transform="translate(-1415.113 -1139.658)" fill="#b3b3b3"/>
      </g>
      <path id="Path_2956" data-name="Path 2956" d="M1455.879,1165.061c-.595-1.765-12.263-24.262-12.263-24.262a3.7,3.7,0,0,0-5.125-1.7l-36.377,21.882a3.655,3.655,0,0,0-1.671,4.244l11.642,20.693a3.735,3.735,0,0,0,4.864,2.482c17.034-6.439,27.592-12.781,38.929-23.335" transform="translate(-1328.466 -1109.691)" fill="#0f0f0f"/>
      <path id="Path_2957" data-name="Path 2957" d="M1440.126,1142.031,1404,1163.42a2.7,2.7,0,0,0-1.056,3.71l11.617,18.7a2.689,2.689,0,0,0,3.328.967c15.461-6.275,25.662-11.906,35.65-20.613a2.683,2.683,0,0,0,.719-3.236l-10.316-19.982A2.7,2.7,0,0,0,1440.126,1142.031Z" transform="translate(-1329.25 -1110.711)" fill="#757575"/>
      <path id="Path_2958" data-name="Path 2958" d="M1444.059,1148.671c5.641,3.7,11.3,7.373,17.086,10.85q3.7,2.225,7.414,4.428a2.441,2.441,0,0,0-.26-1l-10.316-19.982a2.7,2.7,0,0,0-3.815-.939l-10.626,6.292C1443.715,1148.439,1443.887,1148.557,1444.059,1148.671Z" transform="translate(-1343.292 -1110.711)" fill="#b3b3b3"/>
      <path id="Rectangle_259" data-name="Rectangle 259" d="M2,0h.335a.127.127,0,0,1,.127.127V5.935a0,0,0,0,1,0,0H1.3A1.3,1.3,0,0,1,0,4.63V2A2,2,0,0,1,2,0Z" transform="translate(1.149 56.946)" fill="#f57e48"/>
    </g>
    <g id="Group_4630" data-name="Group 4630" transform="translate(1405.809 1161.555)">
      <g id="Group_4629" data-name="Group 4629" transform="translate(8.403 8.947)">
        <path id="Path_2959" data-name="Path 2959" d="M1498.327,1219.6l-1.05,1.966c-.758,1.42-2.992,1.742-4.965.715l-6.318-3.288,3.805-7.128,6.318,3.287C1498.091,1216.182,1499.085,1218.183,1498.327,1219.6Z" transform="translate(-1481.046 -1210.699)" fill="#e9eaeb"/>
        <path id="Path_2960" data-name="Path 2960" d="M1479.219,1214.763a.531.531,0,0,0-.717.1c-.11.205.034.494.319.643l4.676,2.432.4-.746Z" transform="translate(-1478.465 -1211.662)" fill="#e9eaeb"/>
        <path id="Path_2961" data-name="Path 2961" d="M1481.667,1210.177a.531.531,0,0,0-.717.1c-.11.206.034.494.319.643l4.676,2.433.4-.747Z" transform="translate(-1479.304 -1210.09)" fill="#e9eaeb"/>
      </g>
      <path id="Path_2962" data-name="Path 2962" d="M1474.41,1196.946c-8.268,1.995-11.176,9.79-6.494,17.41s15.18,12.18,23.448,10.185a12.4,12.4,0,0,0,5.552-2.836,21.906,21.906,0,0,1-2.662-1.255,10.8,10.8,0,0,1-4.193,1.971c-7,1.688-15.883-2.172-19.846-8.621s-1.5-13.047,5.5-14.735,15.883,2.171,19.846,8.621c2.551,4.153,2.429,8.361.156,11.287a26.777,26.777,0,0,0,2.672,1.025c2.348-3.429,2.354-8.177-.528-12.867C1493.177,1199.511,1482.679,1194.951,1474.41,1196.946Z" transform="translate(-1465.68 -1196.477)" fill="#e9eaeb"/>
      <line id="Line_1" data-name="Line 1" x1="8.967" y1="3.895" transform="translate(23.189 18.327)" fill="none" stroke="#e9eaeb" stroke-miterlimit="10" stroke-width="3.975"/>
    </g>
  </g>
</svg>
