<svg xmlns="http://www.w3.org/2000/svg" xmlns:xlink="http://www.w3.org/1999/xlink" width="452.456" height="327.961" viewBox="0 0 452.456 327.961">
  <defs>
    <linearGradient id="linear-gradient" x1="-28.687" y1="-2.148" x2="-28.697" y2="-2.159" gradientUnits="objectBoundingBox">
      <stop offset="0" stop-color="#494b4e"/>
      <stop offset="0.512" stop-color="#797a7e"/>
      <stop offset="0.606" stop-color="#76777a"/>
      <stop offset="0.723" stop-color="#6a6b6e"/>
      <stop offset="0.853" stop-color="#57595b"/>
      <stop offset="0.991" stop-color="#3f4244"/>
      <stop offset="1" stop-color="#3e4042"/>
    </linearGradient>
    <linearGradient id="linear-gradient-2" y1="0.5" x2="1" y2="0.5" gradientUnits="objectBoundingBox">
      <stop offset="0" stop-color="#96acb2"/>
      <stop offset="0.374" stop-color="#8fa8ac"/>
      <stop offset="1" stop-color="#87a4a8"/>
    </linearGradient>
    <linearGradient id="linear-gradient-3" x1="-22.397" y1="-1.898" x2="-22.395" y2="-1.916" gradientUnits="objectBoundingBox">
      <stop offset="0" stop-color="#202325"/>
      <stop offset="1" stop-color="#1d2022"/>
    </linearGradient>
    <linearGradient id="linear-gradient-4" x1="-8.89" y1="-1.055" x2="-8.889" y2="-1.061" xlink:href="#linear-gradient-3"/>
    <linearGradient id="linear-gradient-5" x1="-72.623" y1="-2.73" x2="-72.602" y2="-2.763" xlink:href="#linear-gradient-3"/>
    <linearGradient id="linear-gradient-6" x1="-336.713" y1="-4.982" x2="-338.371" y2="-5.003" gradientUnits="objectBoundingBox">
      <stop offset="0" stop-color="#6e858b"/>
      <stop offset="1" stop-color="#5e7279"/>
    </linearGradient>
    <linearGradient id="linear-gradient-7" x1="-68.178" y1="-1.793" x2="-68.157" y2="-1.826" xlink:href="#linear-gradient-3"/>
    <linearGradient id="linear-gradient-8" x1="-241.262" y1="-3.884" x2="-242.92" y2="-3.905" xlink:href="#linear-gradient-6"/>
    <linearGradient id="linear-gradient-9" x1="-19.681" y1="-0.249" x2="-19.68" y2="-0.267" xlink:href="#linear-gradient-3"/>
    <linearGradient id="linear-gradient-10" x1="-7.783" y1="-0.179" x2="-7.783" y2="-0.186" xlink:href="#linear-gradient-3"/>
    <linearGradient id="linear-gradient-11" x1="-64.068" y1="-0.925" x2="-64.046" y2="-0.958" xlink:href="#linear-gradient-3"/>
    <linearGradient id="linear-gradient-12" x1="-152.762" y1="-2.866" x2="-154.42" y2="-2.887" xlink:href="#linear-gradient-6"/>
    <linearGradient id="linear-gradient-13" x1="-59.639" y1="0.012" x2="-59.618" y2="-0.022" xlink:href="#linear-gradient-3"/>
    <linearGradient id="linear-gradient-14" x1="-57.27" y1="-1.767" x2="-58.928" y2="-1.788" xlink:href="#linear-gradient-6"/>
    <linearGradient id="linear-gradient-15" x1="-75.065" y1="-3.78" x2="-75.054" y2="-3.826" xlink:href="#linear-gradient-3"/>
    <clipPath id="clip-path">
      <path id="SVGID" d="M477.669,319.156a2.137,2.137,0,0,0,1.025-2.192l-5.11-30.364a1.742,1.742,0,0,0-1.719-1.515c-2.556-.032-6.861,1.577-11.483,4.259-7.6,4.385-13.518,10.048-14.653,13.849a4.147,4.147,0,0,0-.079,1.814l4.684,26.768a2.12,2.12,0,0,0,3.155,1.467Z" fill="#0c0d0e"/>
    </clipPath>
    <linearGradient id="linear-gradient-16" x1="-59.068" y1="-12.96" x2="-59.071" y2="-12.947" gradientUnits="objectBoundingBox">
      <stop offset="0" stop-color="#2a2f31"/>
      <stop offset="1" stop-color="#292f31"/>
    </linearGradient>
  </defs>
  <g id="Group_4616" data-name="Group 4616" transform="translate(-34.795 -33.81)">
    <g id="Group_4079" data-name="Group 4079">
      <g id="Group_4057" data-name="Group 4057">
        <path id="Path_1796" data-name="Path 1796" d="M217.8,230.014,37.533,125.266l.025,8.949L217.8,238.962Z" fill="#343638"/>
        <path id="Path_1797" data-name="Path 1797" d="M215.036,172.418,34.795,67.67l.076,59.117L215.137,231.56Z" fill="#c9d6dc"/>
        <path id="Path_1797-2" data-name="Path 1797" d="M215.767,225.6,35.526,120.851l.076,6.185L215.868,231.809Z" fill="#17273e"/>
        <path id="Path_1798" data-name="Path 1798" d="M83.395,34.588c-4.031-2.358-13.689.887-23.348,6.464C47.4,48.328,34.77,59.634,34.795,67.67L215.036,172.418c-.025-8.011,12.6-19.317,25.249-26.618,9.658-5.577,19.292-8.8,23.348-6.464Z" fill="#e6f6fd"/>
        <path id="Path_1799" data-name="Path 1799" d="M265.686,202.356l-.076-59.142c-.025-8.011-12.675-4.741-25.3,2.56-12.65,7.3-25.274,18.607-25.249,26.618l.076,59.142,2.662-1.546v8.974l45.276-26.132-.051-8.949Z" fill="#aecedd"/>
        <path id="Path_1800" data-name="Path 1800" d="M265.686,202.357l-47.811-29.28-2.814,7.4.076,51.081,2.662-1.546v8.949l45.276-26.111-.051-8.949Z" fill="#63787e" opacity="0.3" style="isolation: isolate"/>
      </g>
      <g id="Group_4058" data-name="Group 4058">
        <path id="Path_1801" data-name="Path 1801" d="M269.083,202.836l-51.208-29.76-.025,55.26,51.233,29.711Z" fill="#343638"/>
        <path id="Path_1802" data-name="Path 1802" d="M269.083,145.521l-5.8-3.372c-3.777-2.205-12.8.837-21.827,6.033-11.811,6.82-23.626,17.387-23.6,24.895l51.208,29.761V145.521Z" fill="url(#linear-gradient)"/>
      </g>
      <g id="Group_4059" data-name="Group 4059">
        <path id="Path_1803" data-name="Path 1803" d="M427.776,352.2,225.632,234.729l.025,8.974L427.776,361.176Z" fill="#343638"/>
        <path id="Path_1804" data-name="Path 1804" d="M471.86,335.7l-44.11,25.452v-8.619l44.11-25.452Z" fill="#54585b"/>
        <path id="Path_1805" data-name="Path 1805" d="M425.038,294.606,222.894,177.133l.076,59.142,214.286,124.47Z" fill="#c9d6dc"/>
        <path id="Path_1805-2" data-name="Path 1805" d="M482.384,330.222V326.8l-41.519,26.748a7,7,0,0,1-7.317.161L222.856,230.752l.076,5.753L427.914,356.258a22.781,22.781,0,0,0,23-.066l18.257-10.748C473.882,342.982,482.384,335.534,482.384,330.222Z" fill="#17273e"/>
        <path id="Path_2903" data-name="Path 2903" d="M487.247,332.121l-11.813-67.25c-1.394-7.732-12.523-4.183-25.173,3.093-11.92,6.879-23.816,17.315-25.13,25.2a7.115,7.115,0,0,0,.05,2.387l11.112,63.6c.272,1.6,1.77,2.4,3.4,2.411,3.7.026,9.156.036,12.757.04a14.369,14.369,0,0,0,6.94-1.778l21.821-11.992a7.772,7.772,0,0,0,3.832-5.07C485.955,338.771,487.33,332.629,487.247,332.121Z" fill="url(#linear-gradient-2)"/>
        <path id="Path_2904" data-name="Path 2904" d="M427.776,295.9" fill="#fff"/>
        <path id="Path_2905" data-name="Path 2905" d="M426.692,341.2h0a17.141,17.141,0,0,1-8.586,7.032l-1.462.545,22.075,12.672,5.622.192L425.9,290.593l-.861,4.013,4.007,36.181A16.334,16.334,0,0,1,426.692,341.2Z" fill="#17273e"/>
        <path id="Path_2906" data-name="Path 2906" d="M425.131,293.163s10.518,32.8,12.125,41.409-9.48,20.667-9.48,20.667l9.48,5.506c2.34,1.479,4.147.923,6.108.929l11.578-.184,1.944-.588-22.653-80.986c-1.176,1.163-5.961,6.044-7.238,8.449A21.949,21.949,0,0,0,425.131,293.163Z" fill="#009cdc"/>
        <path id="Path_2907" data-name="Path 2907" d="M485.04,342.759c.915-3.988,2.29-10.13,2.207-10.638l-11.813-67.25a4.87,4.87,0,0,0-2.226-3.533c-.782-.293-1.467-.529-1.941-.684-.131-.023-.26-.048-.4-.065C470.87,260.589,484.856,343.564,485.04,342.759Z" fill="#009cdc"/>
        <path id="Path_1806" data-name="Path 1806" d="M271.494,144.051c-4.031-2.358-13.689.887-23.348,6.464-12.652,7.3-25.277,18.607-25.252,26.618L425.012,294.607c-.025-8.011,12.6-19.317,25.249-26.618,9.4-5.425,20.965-5.146,25.173-3.118.025,0-.327-2.625-2.13-3.523Z" fill="#e6f6fd"/>
        <path id="Path_2908" data-name="Path 2908" d="M473.755,275.178l1.679-10.307c-2.961-4.942-12.506-4.4-25.629,2.01-14.359,7.02-19.551,15.125-23.906,23.712l12.822,5.609,15.512,65.288a14.373,14.373,0,0,0,5.155-1.668l21.821-11.992c4.929-2.432,4.238-8.406,4.929-9.474Z" fill="#17273e"/>
      </g>
      <g id="Group_4074" data-name="Group 4074">
        <path id="Path_2909" data-name="Path 2909" d="M222.856,182.114l202.2,115.839,3.993,32.834L222.856,212.354Z" fill="#0c0d0e"/>
        <g id="Group_4071" data-name="Group 4071">
          <path id="Path_1824" data-name="Path 1824" d="M298.312,253.108l-19.241-11.1a2.716,2.716,0,0,1-1.318-2.079V216.984c0-.735.583-.989,1.318-.558l19.241,11.1a2.723,2.723,0,0,1,1.318,2.079v22.942C299.629,253.259,299.021,253.514,298.312,253.108Zm23.525,13.562L302.6,255.57a2.716,2.716,0,0,1-1.318-2.079V230.546c0-.735.583-.989,1.318-.558l19.241,11.1a2.723,2.723,0,0,1,1.318,2.079v22.942c0,.739-.584.993-1.319.562Zm23.524,13.589-19.241-11.1a2.716,2.716,0,0,1-1.318-2.079V244.134c0-.735.583-.989,1.318-.558l19.241,11.1a2.723,2.723,0,0,1,1.318,2.079V279.7C346.68,280.436,346.1,280.689,345.361,280.259Z" fill="url(#linear-gradient-3)"/>
          <path id="Path_1825" data-name="Path 1825" d="M248.346,224.259l-19.241-11.1a2.716,2.716,0,0,1-1.318-2.079V188.135c0-.735.583-.989,1.318-.558l19.241,11.1a2.723,2.723,0,0,1,1.318,2.079V223.7C249.664,224.437,249.081,224.69,248.346,224.259ZM395.3,309.107l-19.241-11.1a2.716,2.716,0,0,1-1.318-2.079V272.983c0-.735.583-.989,1.318-.558l19.241,11.1a2.723,2.723,0,0,1,1.318,2.079v22.942c.026.738-.583.992-1.318.561Z" fill="url(#linear-gradient-4)"/>
        </g>
        <g id="Group_4072" data-name="Group 4072">
          <path id="Path_1826" data-name="Path 1826" d="M370.2,316.1,350.964,305a2.716,2.716,0,0,1-1.318-2.079V258.406c0-.735.583-.989,1.318-.558l19.241,11.1a2.723,2.723,0,0,1,1.318,2.079v44.49C371.523,316.281,370.94,316.534,370.2,316.1Z" fill="url(#linear-gradient-5)"/>
          <path id="Path_1827" data-name="Path 1827" d="M360.141,261.321c-.253-.127-.482-.3-.735-.456v50.4c.33.152.684.3,1.014.456V261.448C360.329,261.4,360.236,261.359,360.141,261.321Z" fill="url(#linear-gradient-6)"/>
        </g>
        <g id="Group_4073" data-name="Group 4073">
          <path id="Path_1828" data-name="Path 1828" d="M273.417,260.256l-19.241-11.1a2.716,2.716,0,0,1-1.318-2.079V202.559c0-.735.583-.989,1.318-.558l19.241,11.1a2.72,2.72,0,0,1,1.321,2.083v44.49C274.738,260.434,274.152,260.687,273.417,260.256Z" fill="url(#linear-gradient-7)"/>
          <path id="Path_1829" data-name="Path 1829" d="M263.353,205.478c-.254-.127-.482-.3-.735-.456v50.4c.33.152.684.3,1.014.456V205.6A2.883,2.883,0,0,0,263.353,205.478Z" fill="url(#linear-gradient-8)"/>
        </g>
        <path id="Path_1831" data-name="Path 1831" d="M323.079,266.443c-.152.456-.634.583-1.242.254L302.6,255.6a2.716,2.716,0,0,1-1.318-2.079V230.572a.648.648,0,0,1,.557-.729.581.581,0,0,1,.1-.006,1.042,1.042,0,0,0-.076.3v22.942a2.677,2.677,0,0,0,1.318,2.079l19.241,11.1A1.422,1.422,0,0,0,323.079,266.443Zm-24.184-13.765-19.241-11.1a2.716,2.716,0,0,1-1.318-2.079V216.553a.873.873,0,0,1,.076-.3.649.649,0,0,0-.665.633.581.581,0,0,0,.006.1V239.93a2.677,2.677,0,0,0,1.318,2.079l19.241,11.1c.608.355,1.09.228,1.242-.253a1.427,1.427,0,0,1-.66-.179Zm-49.941-28.849-19.241-11.1a2.716,2.716,0,0,1-1.318-2.079V187.679a.873.873,0,0,1,.076-.3.649.649,0,0,0-.665.633.582.582,0,0,0,.006.1v22.938a2.677,2.677,0,0,0,1.318,2.079l19.242,11.1c.608.355,1.09.228,1.242-.253A.94.94,0,0,1,248.954,223.829Zm97.018,56.024-19.241-11.1a2.716,2.716,0,0,1-1.318-2.079V243.7a.873.873,0,0,1,.076-.3.649.649,0,0,0-.665.633.584.584,0,0,0,.006.1V267.08a2.677,2.677,0,0,0,1.318,2.079l19.241,11.1c.608.355,1.09.228,1.242-.253A1.088,1.088,0,0,1,345.972,279.853Zm49.94,28.821-19.24-11.1a2.716,2.716,0,0,1-1.318-2.079V272.552a.873.873,0,0,1,.076-.3.649.649,0,0,0-.665.633.581.581,0,0,0,.006.1v22.938A2.677,2.677,0,0,0,376.089,298l19.241,11.1c.608.355,1.09.228,1.242-.253a1.17,1.17,0,0,1-.662-.175Z" fill="#a7b8ba" opacity="0.9" style="isolation: isolate"/>
      </g>
      <g id="Group_4078" data-name="Group 4078">
        <path id="Path_2910" data-name="Path 2910" d="M34.795,72.224v32.522L215.061,208.7l-.017-31.569Z" fill="#0c0d0e"/>
        <g id="Group_4075" data-name="Group 4075">
          <path id="Path_1832" data-name="Path 1832" d="M111.758,145.5,92.517,134.4a2.716,2.716,0,0,1-1.318-2.079V109.346c0-.735.583-.989,1.318-.558l19.241,11.1a2.723,2.723,0,0,1,1.318,2.079v22.946C113.076,145.673,112.493,145.927,111.758,145.5Zm23.525,13.585-19.241-11.1a2.716,2.716,0,0,1-1.318-2.079V122.959c0-.735.583-.989,1.318-.558l19.241,11.1a2.722,2.722,0,0,1,1.318,2.08v22.945C136.627,159.261,136.018,159.489,135.283,159.081Zm23.551,13.59-19.241-11.1a2.716,2.716,0,0,1-1.318-2.079V136.547c0-.735.583-.989,1.318-.558l19.241,11.1a2.722,2.722,0,0,1,1.315,2.082v22.942C160.149,172.823,159.543,173.081,158.834,172.671Z" fill="url(#linear-gradient-9)"/>
          <path id="Path_1833" data-name="Path 1833" d="M61.818,116.647l-19.266-11.1a2.716,2.716,0,0,1-1.318-2.079V80.528c0-.735.583-.989,1.318-.558l19.242,11.1a2.723,2.723,0,0,1,1.318,2.079V116.09C63.137,116.828,62.554,117.078,61.818,116.647Zm146.956,84.848-19.241-11.1a2.716,2.716,0,0,1-1.318-2.079V165.371c0-.735.583-.989,1.318-.558l19.241,11.1a2.723,2.723,0,0,1,1.318,2.079v22.942C210.094,201.672,209.509,201.928,208.774,201.495Z" fill="url(#linear-gradient-10)"/>
        </g>
        <g id="Group_4076" data-name="Group 4076">
          <path id="Path_1834" data-name="Path 1834" d="M183.677,208.494l-19.241-11.1a2.716,2.716,0,0,1-1.318-2.079v-44.5c0-.735.583-.989,1.318-.558l19.241,11.1A2.72,2.72,0,0,1,185,163.444v44.49C185,208.669,184.387,208.922,183.677,208.494Z" fill="url(#linear-gradient-11)"/>
          <path id="Path_1835" data-name="Path 1835" d="M173.613,153.709c-.253-.127-.482-.3-.735-.456v50.4c.33.152.684.3,1.014.456V153.861A2.688,2.688,0,0,1,173.613,153.709Z" fill="url(#linear-gradient-12)"/>
        </g>
        <g id="Group_4077" data-name="Group 4077">
          <path id="Path_1836" data-name="Path 1836" d="M86.891,152.67,67.65,141.57a2.719,2.719,0,0,1-1.319-2.082V94.978c0-.735.583-.989,1.318-.558l19.242,11.1a2.723,2.723,0,0,1,1.318,2.079v44.49C88.208,152.823,87.6,153.078,86.891,152.67Z" fill="url(#linear-gradient-13)"/>
          <path id="Path_1837" data-name="Path 1837" d="M76.8,97.863c-.254-.127-.482-.3-.735-.456v50.4c.33.152.684.3,1.014.456V98.017A2.907,2.907,0,0,0,76.8,97.863Z" fill="url(#linear-gradient-14)"/>
        </g>
        <path id="Path_1838" data-name="Path 1838" d="M136.551,158.83c-.152.456-.634.583-1.242.253l-19.241-11.1a2.716,2.716,0,0,1-1.318-2.079V122.96a.648.648,0,0,1,.557-.729.582.582,0,0,1,.1-.006,1.043,1.043,0,0,0-.076.3v22.946a2.68,2.68,0,0,0,1.318,2.077l19.241,11.1A1.172,1.172,0,0,0,136.551,158.83Zm-24.184-13.765L93.1,133.965a2.716,2.716,0,0,1-1.318-2.079V108.941a.873.873,0,0,1,.076-.3.649.649,0,0,0-.665.633.582.582,0,0,0,.006.1v22.938a2.677,2.677,0,0,0,1.318,2.079l19.241,11.1c.608.355,1.09.228,1.242-.253A1.094,1.094,0,0,1,112.367,145.065ZM62.4,116.216l-19.241-11.1a2.716,2.716,0,0,1-1.318-2.079V80.092a.873.873,0,0,1,.076-.3.649.649,0,0,0-.665.633.582.582,0,0,0,.006.1v22.938a2.679,2.679,0,0,0,1.318,2.083l19.241,11.1c.608.355,1.09.228,1.242-.253A1,1,0,0,1,62.4,116.216Zm97.016,56.024-19.241-11.1a2.716,2.716,0,0,1-1.318-2.079V136.116a.873.873,0,0,1,.076-.3.649.649,0,0,0-.665.633.584.584,0,0,0,.006.1v22.938a2.677,2.677,0,0,0,1.318,2.079l19.241,11.1c.608.355,1.09.228,1.242-.254a1.429,1.429,0,0,1-.659-.173Zm49.966,28.849-19.241-11.1a2.716,2.716,0,0,1-1.318-2.079V164.965a.873.873,0,0,1,.076-.3.649.649,0,0,0-.665.633.581.581,0,0,0,.006.1v22.938a2.677,2.677,0,0,0,1.318,2.079l19.241,11.1c.608.355,1.09.228,1.242-.253a1.348,1.348,0,0,1-.66-.175Z" fill="#a7b8ba" opacity="0.9" style="isolation: isolate"/>
      </g>
    </g>
    <g id="Group_4616-2" data-name="Group 4616">
      <path id="Path_1830" data-name="Path 1830" d="M424.556,325.91l-19.241-11.1A2.718,2.718,0,0,1,404,312.731V289.786c0-.735.583-.989,1.318-.558l12.32,7.123a9.1,9.1,0,0,1,4.411,6.338L425.9,325.4C425.874,326.062,425.291,326.316,424.556,325.91Z" fill="url(#linear-gradient-15)"/>
      <path id="Path_2911" data-name="Path 2911" d="M425.141,325.478l-19.241-11.1a2.718,2.718,0,0,1-1.318-2.079V289.356a.867.867,0,0,1,.076-.3.649.649,0,0,0-.665.633.581.581,0,0,0,.006.1v22.942a2.677,2.677,0,0,0,1.318,2.079l19.241,11.1c.608.355,1.09.228,1.242-.253a1.508,1.508,0,0,1-.661-.179Z" fill="#a7b8ba" opacity="0.9" style="isolation: isolate"/>
    </g>
    <path id="Path_2912" data-name="Path 2912" d="M451.8,271.327c-7.557,4.362-15.246,9.526-18.758,16.449l8.273,3.864,29.428-14.5.765-9.937C469.123,263.221,460.959,266.061,451.8,271.327Z" fill="#e6f6fd"/>
    <path id="Path_2913" data-name="Path 2913" d="M440.471,356.542l-1.75,4.9c1.671.556,3.112.231,4.643.236l9.084-.074-2.2-9.35a2.858,2.858,0,0,0-3.923-1.959A10.753,10.753,0,0,0,440.471,356.542Z" fill="#0c0d0e"/>
    <path id="Path_2914" data-name="Path 2914" d="M484.849,343.7s-1.361-8.692-1.668-10.707a2.348,2.348,0,0,1,.019-.819l.167-.837a1.773,1.773,0,0,1,3.189.2l.689,1.7a.073.073,0,0,1,0,.044l-2.007,9.175A11.8,11.8,0,0,1,484.849,343.7Z" fill="#0c0d0e"/>
    <g id="Group_4619" data-name="Group 4619">
      <g id="Group_4061" data-name="Group 4061">
        <path id="Path_1809" data-name="Path 1809" d="M477.669,319.156a2.137,2.137,0,0,0,1.025-2.192l-5.11-30.364a1.742,1.742,0,0,0-1.719-1.515c-2.556-.032-6.861,1.577-11.483,4.259-7.6,4.385-13.518,10.048-14.653,13.849a4.147,4.147,0,0,0-.079,1.814l4.684,26.768a2.12,2.12,0,0,0,3.155,1.467Z" fill="#0c0d0e"/>
        <g id="Group_4618" data-name="Group 4618">
          <path id="SVGID-2" data-name="SVGID" d="M477.669,319.156a2.137,2.137,0,0,0,1.025-2.192l-5.11-30.364a1.742,1.742,0,0,0-1.719-1.515c-2.556-.032-6.861,1.577-11.483,4.259-7.6,4.385-13.518,10.048-14.653,13.849a4.147,4.147,0,0,0-.079,1.814l4.684,26.768a2.12,2.12,0,0,0,3.155,1.467Z" fill="#0c0d0e"/>
          <g id="Group_4617" data-name="Group 4617" clip-path="url(#clip-path)">
            <g id="Group_4060" data-name="Group 4060">
              <path id="Path_1810" data-name="Path 1810" d="M486.453,320.655l-33.6,19.386-7.066-4.069,33.581-19.4Z" fill="#0c0d0e" opacity="0.2" style="isolation: isolate"/>
            </g>
          </g>
        </g>
      </g>
      <path id="Path_1823" data-name="Path 1823" d="M473.6,286.616a1.742,1.742,0,0,0-1.719-1.515c-2.556-.031-6.861,1.578-11.483,4.259-7.6,4.385-13.518,10.048-14.653,13.85a4.113,4.113,0,0,0-.079,1.813l.347,1.988,28.281-16.326Z" opacity="0.9" fill="url(#linear-gradient-16)" style="isolation: isolate"/>
    </g>
  </g>
</svg>
