<svg xmlns="http://www.w3.org/2000/svg" width="302.13" height="243.185" viewBox="0 0 302.13 243.185">
  <g id="Group_4631" data-name="Group 4631" transform="translate(-35.81 -50.754)">
    <g id="Group_4631-2" data-name="Group 4631" transform="translate(67.745 163.606)">
      <path id="Path_2963" data-name="Path 2963" d="M74.2,184.691l-3.75-8.54,12.9-2.976-1.8,7.057Z" transform="translate(-70.452 -173.175)" fill="#181817"/>
      <path id="Path_2964" data-name="Path 2964" d="M249.279,286.1l-3.75-8.54,12.9-2.976-1.8,7.057Z" transform="translate(-84.137 -181.101)" fill="#181817"/>
    </g>
    <g id="Group_4636" data-name="Group 4636" transform="translate(35.81 50.754)">
      <path id="Path_1534" data-name="Path 1534" d="M270.3,295.333a16.367,16.367,0,0,0-7.282-12.9c-2.134-1.277-4.068-1.35-5.439-.475l.018-.255-4.794,2.919c-1.679.584-2.754,2.335-2.773,5a16.368,16.368,0,0,0,7.283,12.9c2.317,1.368,4.4,1.368,5.764.237l4.56-2.463C269.237,299.639,270.262,297.924,270.3,295.333Z" transform="translate(-52.554 -68.781)" fill="#37282c"/>
      <path id="Path_1535" data-name="Path 1535" d="M270.762,295.332a16.367,16.367,0,0,0-7.282-12.9c-4.068-2.426-7.424-.548-7.48,4.159a16.365,16.365,0,0,0,7.282,12.9C267.354,301.9,270.707,300.039,270.762,295.332Z" transform="translate(-53.021 -68.78)" fill="#37282c"/>
      <path id="Path_1536" data-name="Path 1536" d="M264.786,298.6a16.367,16.367,0,0,0-7.283-12.9c-4.086-2.408-7.424-.548-7.48,4.159a16.365,16.365,0,0,0,7.282,12.9C261.378,305.165,264.731,303.3,264.786,298.6Z" transform="translate(-52.554 -69.036)" fill="#3b3b3c"/>
      <path id="Path_1539" data-name="Path 1539" d="M262.171,298.019a11.532,11.532,0,0,0-5.108-9.066c-2.864-1.7-5.218-.383-5.254,2.919a11.478,11.478,0,0,0,5.126,9.066C259.783,302.617,262.134,301.321,262.171,298.019Z" transform="translate(-52.693 -69.315)" fill="#a3a7ac"/>
      <path id="Path_1540" data-name="Path 1540" d="M263.24,282.415c-2.134-1.277-4.068-1.35-5.439-.475l.018-.255-4.794,2.919a1.153,1.153,0,0,0-.146.054c3.813-1.9,15.8,8.209,11.256,17.622l3.721-2.007c1.6-.62,2.627-2.353,2.663-4.944A16.412,16.412,0,0,0,263.24,282.415Z" transform="translate(-52.777 -68.779)" fill="#070202"/>
      <path id="Path_1541" data-name="Path 1541" d="M95.357,193.5a16.367,16.367,0,0,0-7.282-12.9c-2.134-1.258-4.068-1.35-5.439-.475l.018-.255-4.794,2.919c-1.679.584-2.754,2.335-2.791,5a16.343,16.343,0,0,0,7.3,12.9c2.317,1.368,4.4,1.368,5.764.237l4.563-2.459C94.3,197.822,95.338,196.089,95.357,193.5Z" transform="translate(-38.879 -60.821)" fill="#37282c"/>
      <path id="Path_1542" data-name="Path 1542" d="M95.826,193.5a16.367,16.367,0,0,0-7.283-12.9c-4.068-2.426-7.424-.565-7.48,4.159a16.367,16.367,0,0,0,7.283,12.9C92.434,200.064,95.771,198.2,95.826,193.5Z" transform="translate(-39.347 -60.82)" fill="#37282c"/>
      <path id="Path_1543" data-name="Path 1543" d="M89.849,196.783a16.367,16.367,0,0,0-7.283-12.9c-4.086-2.408-7.424-.548-7.48,4.159a16.341,16.341,0,0,0,7.3,12.9C86.456,203.35,89.794,201.49,89.849,196.783Z" transform="translate(-38.88 -61.078)" fill="#3b3b3c"/>
      <path id="Path_1546" data-name="Path 1546" d="M87.234,196.184a11.511,11.511,0,0,0-5.108-9.066c-2.864-1.7-5.218-.383-5.254,2.919A11.478,11.478,0,0,0,82,199.1C84.846,200.8,87.2,199.5,87.234,196.184Z" transform="translate(-39.02 -61.355)" fill="#a3a7ac"/>
      <path id="Path_1547" data-name="Path 1547" d="M88.3,180.6c-2.134-1.258-4.068-1.35-5.439-.475l.018-.255-4.794,2.919a1.149,1.149,0,0,0-.146.054c3.811-1.9,15.8,8.211,11.254,17.624l3.721-2.028c1.6-.62,2.627-2.353,2.663-4.944C95.637,188.792,92.371,183.027,88.3,180.6Z" transform="translate(-39.103 -60.821)" fill="#070202"/>
      <path id="Path_2965" data-name="Path 2965" d="M330.883,255.429l-.906.522c-.628-1.949-.629.282-.629-6.245,0-13.523,2.147-39.007.753-53.384a47.873,47.873,0,0,0-2.026-4.947l-4.722-8.339L89.334,50.754,39.728,77.718l-.159-.092L39,77.844l-.052.651-2.211,22.884-.128-.075v37.725l.192.112.022,13.074-1.017.513v1.7l.05-.025,35.634,20.722c.341-4.593,3.8-6.328,8.01-3.85a14.816,14.816,0,0,1,4.055,3.719c.067.087.136.172.2.261a17.609,17.609,0,0,1,3.557,9.256l145.537,84.147c.586-3.5,3.2-4.995,6.5-3.729l.313-.177c.121.06.24.113.362.181,5.6,3.1,7.655,7.188,8.387,11.07l-.232-.135c.088.408.136.823.191,1.237.034.186.069.371.095.556l27.63,15.924.023.357.306-.167.234.135h0l18.948-10.58,36.657-19.961v-3.394Z" transform="translate(-35.81 -50.754)" fill="#e7ecef"/>
      <path id="Path_2966" data-name="Path 2966" d="M71.621,99.369,39.68,80.611l.054-.029c-.246-.125-.49-.251-.737-.373l-.046.589-2.211,22.884-.128-.075v37.725l.192.112.022,13.074-1.017.513v1.7l.05-.025,35.634,20.722c.341-4.593,3.8-6.328,8.01-3.85a14.816,14.816,0,0,1,4.055,3.719c.067.087.136.172.2.261a17.609,17.609,0,0,1,3.557,9.256l25.915,14.984C104.659,181.788,77.162,113.408,71.621,99.369Z" transform="translate(-35.81 -53.056)" fill="#2d95ca"/>
      <path id="Path_2967" data-name="Path 2967" d="M288.3,302.519v-2.872l-1.39-4.542-.905.522c-.628-1.948-.63.282-.63-6.245,0-13.523-.5-54.705-.5-54.705l-3.939-12.538L180.606,163.214c10.427,24.627,39.536,93.3,43.934,102.881l19.631,11.351c.586-3.5,3.2-4.995,6.5-3.729l.313-.177c.121.06.24.113.362.181,5.6,3.1,7.655,7.188,8.387,11.07l-.232-.135c.088.408.136.823.191,1.237.034.186.069.371.095.556l27.63,15.924.023.357.306-.167.234.135.565-.316Z" transform="translate(-47.128 -59.544)" fill="#2d95ca"/>
      <g id="Group_4632" data-name="Group 4632" transform="translate(238.451 132.101)">
        <path id="Path_2968" data-name="Path 2968" d="M354.274,271.273a5.08,5.08,0,0,0,.045.509A5.08,5.08,0,0,1,354.274,271.273Z" transform="translate(-299.154 -200.092)" fill="#2194d5"/>
        <path id="Path_2969" data-name="Path 2969" d="M354.895,245.452c.076-1.8.152-3.639.224-5.482C355.047,241.814,354.971,243.648,354.895,245.452Z" transform="translate(-299.202 -197.645)" fill="#2194d5"/>
        <path id="Path_2970" data-name="Path 2970" d="M354.238,265.971c0-2.113.053-4.518.135-7.127-.083,2.609-.135,5.014-.135,7.127,0,2.447,0,3.664.033,4.331C354.238,269.635,354.238,268.418,354.238,265.971Z" transform="translate(-299.151 -199.12)" fill="#2194d5"/>
        <path id="Path_2971" data-name="Path 2971" d="M354.385,258.136c.083-2.61.2-5.422.32-8.352C354.582,252.714,354.468,255.526,354.385,258.136Z" transform="translate(-299.162 -198.412)" fill="#2194d5"/>
        <path id="Path_2972" data-name="Path 2972" d="M354.732,249.482q.073-1.757.15-3.565Q354.806,247.721,354.732,249.482Z" transform="translate(-299.19 -198.11)" fill="#2194d5"/>
        <path id="Path_2973" data-name="Path 2973" d="M355.339,233.957q-.057,1.846-.126,3.7Q355.282,235.8,355.339,233.957Z" transform="translate(-299.227 -197.175)" fill="#2194d5"/>
        <path id="Path_2974" data-name="Path 2974" d="M294.48,221.9l.026.017,49.067-27.683-.319-.181Z" transform="translate(-294.48 -194.056)" fill="#2194d5"/>
        <path id="Path_2975" data-name="Path 2975" d="M300.7,311.767l15.617-8.72-15.617,8.72Z" transform="translate(-294.966 -202.575)" fill="#2194d5"/>
        <path id="Path_2976" data-name="Path 2976" d="M354.9,273.3c-.078-.243-.147-.422-.207-.56.06.138.129.317.207.56Z" transform="translate(-299.187 -200.206)" fill="#2194d5"/>
        <path id="Path_2977" data-name="Path 2977" d="M354.323,271.825a1.361,1.361,0,0,0,.076.294A1.361,1.361,0,0,1,354.323,271.825Z" transform="translate(-299.158 -200.135)" fill="#2194d5"/>
      </g>
      <path id="Path_2978" data-name="Path 2978" d="M350.709,266.646l-.906.522c-.628-1.949-.629.282-.629-6.245,0-13.523,2.147-39.007.753-53.384a47.872,47.872,0,0,0-2.026-4.947l-4.722-8.339L289.45,224.565l3.939,12.538s.5,41.182.5,54.705c0,6.528,0,4.3.63,6.245l.905-.522,1.39,4.542v2.872l18.63-10.4L352.1,274.582v-3.394Z" transform="translate(-55.636 -61.97)" fill="#45ade4"/>
      <path id="Path_1548" data-name="Path 1548" d="M327.35,180.6,90.248,51.021,40.008,78.329l229.945,135.04Z" transform="translate(-36.138 -50.775)" fill="#76c7f1"/>
      <path id="Path_1556" data-name="Path 1556" d="M346.847,191.587l-57.4,32.769,3.939,12.538,55.717-31.672Z" transform="translate(-55.636 -61.762)" fill="#051039"/>
      <path id="Path_2979" data-name="Path 2979" d="M351.084,272.077l-.906.522c-.628-1.949-.629.282-.629-6.245,0-1.37.023-1.024.061-2.615l-11.58,6.812-1.88,10.1-21.824,12.377L308,288.216,294.253,296.3c.006,1.384.008.786.008,1.857,0,6.528,0,3.376.63,5.324l.905-.522,1.39,4.542v2.872l18.63-10.4,36.657-19.961v-3.394Z" transform="translate(-56.011 -67.402)" fill="#051039"/>
      <path id="Path_1556-2" data-name="Path 1556" d="M345.34,194.455l-49.8,28.221,3.2,10.177,48.433-27.331Z" transform="translate(-56.112 -61.986)" fill="#d7d2ce"/>
      <g id="Group_4634" data-name="Group 4634" transform="translate(239.431 146.942)">
        <path id="Path_1553" data-name="Path 1553" d="M348.5,210.156,295.543,240.2l.912,45.678L348.5,255.834Z" transform="translate(-295.543 -210.156)" fill="#0f0f0e"/>
        <path id="Path_1554" data-name="Path 1554" d="M347.63,213.995l-49,28.294v39.4l49-28.294Z" transform="translate(-295.784 -210.456)" fill="#424345"/>
        <path id="Path_1555" data-name="Path 1555" d="M349.3,248.364l-29.352-17.49L349.3,213.995Z" transform="translate(-297.45 -210.456)" fill="#2d2e2e"/>
        <path id="Path_1572" data-name="Path 1572" d="M298.413,252.941l49.2,4.4-49,28.294Z" transform="translate(-295.767 -213.5)" fill="#313130"/>
        <rect id="Rectangle_190" data-name="Rectangle 190" width="1.806" height="42.049" transform="translate(29.005 15.652)" fill="#0f0f0e"/>
        <path id="Path_1573" data-name="Path 1573" d="M303.745,295.151l-7.133,4.122v6.11l7.133-4.122Z" transform="translate(-295.627 -216.8)" fill="#0d0d0c"/>
        <path id="Path_1574" data-name="Path 1574" d="M352.426,266.575l-7.133,4.122v6.111l7.133-4.122Z" transform="translate(-299.432 -214.566)" fill="#0d0d0c"/>
        <path id="Path_1586" data-name="Path 1586" d="M352.309,267.525l-1.751.985v4.816l1.751-1.04Z" transform="translate(-299.843 -214.64)" fill="#c8c8c9"/>
        <path id="Path_1589" data-name="Path 1589" d="M299.582,298.475l-2.317,1.332v4.853l2.317-1.368Z" transform="translate(-295.678 -217.059)" fill="#c8c8c9"/>
        <g id="Group_4633" data-name="Group 4633" transform="translate(0.782 2.849)">
          <path id="Path_1577" data-name="Path 1577" d="M337.549,225.928l-7.078,3.958v3.7l7.078-3.958Z" transform="translate(-299.055 -214.238)" fill="#0f0f0e"/>
          <path id="Path_1597" data-name="Path 1597" d="M333.651,223.771l-.548.128,1.222,4.962.548-.146Z" transform="translate(-299.261 -214.069)" fill="#0f0f0e"/>
          <path id="Path_1549" data-name="Path 1549" d="M362.36,214.995a.669.669,0,0,0-.456-.054,1.641,1.641,0,0,0-.184-.164.626.626,0,0,0-.62,0l-1.222.656c-.529-1.587-2.12-2.773-7.042-1.879l-.4.821c4.469-.8,6.02.146,6.567,1.532L356.994,217a1.191,1.191,0,0,0-.62,1.04v11.234a.563.563,0,0,0,.31.511.663.663,0,0,0,.456.054,1.638,1.638,0,0,0,.184.164.626.626,0,0,0,.62,0l4.2-2.281a1.048,1.048,0,0,0,.548-.894V215.505A.647.647,0,0,0,362.36,214.995Z" transform="translate(-300.772 -213.246)" fill="#181817"/>
          <path id="Path_1549-2" data-name="Path 1549" d="M306.317,245.611a.668.668,0,0,0-.456-.054,1.636,1.636,0,0,0-.184-.164.626.626,0,0,0-.62,0l-1.222.656c-.529-1.587-2.12-2.773-7.042-1.879l-.4.821c4.469-.8,6.02.146,6.567,1.532l-2.007,1.094a1.191,1.191,0,0,0-.62,1.04v11.234a.564.564,0,0,0,.31.511.664.664,0,0,0,.456.054,1.631,1.631,0,0,0,.184.164.626.626,0,0,0,.62,0l4.2-2.281a1.046,1.046,0,0,0,.548-.894V246.121A.645.645,0,0,0,306.317,245.611Z" transform="translate(-296.391 -215.639)" fill="#181817"/>
        </g>
      </g>
      <path id="Path_2980" data-name="Path 2980" d="M43.29,110.4V96.83L271.4,230.34v9.477Z" transform="translate(-36.395 -54.356)" fill="#051039"/>
      <g id="Group_4635" data-name="Group 4635" transform="translate(10.325 49.596)">
        <path id="Path_1559" data-name="Path 1559" d="M271.5,234.58,47.011,104.555v36.886l147.414,84.406L271.5,289.5Z" transform="translate(-47.011 -104.555)" fill="#0f0f0e"/>
        <path id="Path_2981" data-name="Path 2981" d="M286.478,278.479V246.461L268.29,235.952v31.9Z" transform="translate(-64.307 -114.826)" fill="#181817"/>
        <path id="Path_2982" data-name="Path 2982" d="M174.831,213.846V182.237L154.09,170.326v31.048l.255.306Z" transform="translate(-55.381 -109.696)" fill="#181817"/>
        <path id="Path_2983" data-name="Path 2983" d="M196.01,226.373l.042-31.949-9.462-5.434v31.789Z" transform="translate(-57.921 -111.155)" fill="#181817"/>
        <path id="Path_1565" data-name="Path 1565" d="M149.208,167.52,121.735,151.7v30.583L149.208,198.1Z" transform="translate(-52.852 -108.24)" fill="#181817"/>
        <path id="Path_1566" data-name="Path 1566" d="M76.679,125.666,48.495,109.85v31.508l28.184,14.89Z" transform="translate(-47.127 -104.969)" fill="#333335"/>
        <path id="Path_1576" data-name="Path 1576" d="M116.582,148.751l-35.554-20.6v30.583l35.554,20.6Z" transform="translate(-49.67 -106.4)" fill="#333335"/>
        <path id="Path_1581" data-name="Path 1581" d="M125.548,153.893l-3.813-2.189v24.207l27.471,21.964V170.589Z" transform="translate(-52.852 -108.24)" fill="#181817"/>
        <path id="Path_1582" data-name="Path 1582" d="M48.495,109.85v8.831l28.184,22.53V125.666Z" transform="translate(-47.127 -104.969)" fill="#181817"/>
        <path id="Path_1584" data-name="Path 1584" d="M81.028,128.155v15.926l35.554,28.4V148.751Z" transform="translate(-49.67 -106.4)" fill="#181817"/>
        <path id="Path_1593" data-name="Path 1593" d="M123.758,151.228,100.481,137.8v57.231l23.277,13.445Z" transform="translate(-51.19 -107.154)" fill="#0f0f0e"/>
        <path id="Path_1595" data-name="Path 1595" d="M122.646,148.793l-21.234-12.259-.93,56.556,22.256,13.445Z" transform="translate(-51.19 -107.055)" fill="#181817"/>
        <path id="Path_2984" data-name="Path 2984" d="M110.79,142.657v56.537l1.625.981V143.594Z" transform="translate(-51.996 -107.533)" fill="#0f0f0e"/>
        <path id="Path_2985" data-name="Path 2985" d="M255.1,259.48v-30.7l-34.809-20.317v30.684Z" transform="translate(-60.555 -112.676)" fill="#181817"/>
      </g>
    </g>
    <g id="Group_4637" data-name="Group 4637" transform="translate(247.364 217.947)">
      <path id="Path_1568" data-name="Path 1568" d="M288.561,245.569,265.3,232.124v53.92l23.259,13.429Z" transform="translate(-265.302 -232.124)" fill="#0f0f0e"/>
      <path id="Path_1578" data-name="Path 1578" d="M287.526,245.509l-21.234-12.277.184,49.213,21.234,12.26Z" transform="translate(-265.379 -232.211)" fill="#181817"/>
    </g>
  </g>
</svg>
