<svg xmlns="http://www.w3.org/2000/svg" width="151.795" height="123.539" viewBox="0 0 151.795 123.539">
  <g id="Group_4285" data-name="Group 4285" transform="translate(248.755 -374.611)">
    <path id="Path_2058" data-name="Path 2058" d="M-245.876,424.4l5.116,3.611-.022,5.391-7.966-7.383Z" transform="translate(0.001 9.348)" fill="#302d2c"/>
    <path id="Path_2059" data-name="Path 2059" d="M-143.562,398.892s-38.619-24.281-50.607-24.281c-13.027.308-42.054,21.719-42.054,21.719l50.881,26.48Z" transform="translate(2.353)" fill="#e7e7e7"/>
    <path id="Path_2060" data-name="Path 2060" d="M-143.351,399.42s-18.888-11.453-27.217-15.95-15.391-8.859-23.6-8.859-42.054,21.719-42.054,21.719,4.475.243,22.021,8.956a172.658,172.658,0,0,1,29.074,18.055Z" transform="translate(2.353)" fill="#f6f6f6"/>
    <path id="Path_2061" data-name="Path 2061" d="M-114.724,435.249l-44.667,23.359-2.945,27.164,44.893-25.915Z" transform="translate(16.223 11.383)" fill="#de1c23"/>
    <path id="Path_2062" data-name="Path 2062" d="M-124.385,443.348l-26.228,15.965-.882,16.781,26.964-16.638Z" transform="translate(18.258 12.904)" fill="#dad9d8"/>
    <path id="Path_2063" data-name="Path 2063" d="M-140.225,417.748c-13.507,11.865-24.042,17.967-44.248,25.908l28.925,18.656,44.667-23.36-.418-2.016-28.926-19.188" transform="translate(12.068 8.098)" fill="#de1c23"/>
    <path id="Path_2064" data-name="Path 2064" d="M-138.985,421.942l-12.593-26.888-41.945,23.67,8.325,29.983c20.731-7.756,32.916-14.769,46.213-26.766" transform="translate(10.369 3.838)" fill="#bababa"/>
    <path id="Path_2065" data-name="Path 2065" d="M-140.219,422.263l-12.241-25.011-38.81,22.3,10,26.585c18.341-7.145,29.693-13.367,41.047-23.872" transform="translate(10.792 4.25)" fill="#303030"/>
    <path id="Path_2066" data-name="Path 2066" d="M-153.14,398.227l-37.583,21.592,9.685,25.744c17.762-6.92,28.758-12.944,39.75-23.118Z" transform="translate(10.894 4.433)" fill="#3a3a3a"/>
    <path id="Path_2067" data-name="Path 2067" d="M-179.945,453.975l-9.863,4.648,2.245,10.5,7.617-4.65Z" transform="translate(11.066 14.899)" fill="#7a7a7a"/>
    <path id="Path_2068" data-name="Path 2068" d="M-169.185,479.215c1.3-.9,2.089-2.634,2.071-5.04-.038-5.114-3.7-11.323-8.173-13.863-2-1.134-3.817-1.344-5.22-.777-.251.1-3.809,2.213-3.972,2.333-1.264.911-2.03,2.628-2.007,4.994.037,5.114,3.7,11.321,8.169,13.862,2.119,1.2,4.042,1.367,5.474.668Z" transform="translate(11.69 15.886)" fill="#272727"/>
    <path id="Path_2069" data-name="Path 2069" d="M-187.139,466.946c.039,5.119,3.7,11.325,8.172,13.866s8.078.455,8.041-4.658-3.7-11.326-8.174-13.867S-187.177,461.833-187.139,466.946Z" transform="translate(11.567 16.256)" fill="#383838"/>
    <path id="Path_2070" data-name="Path 2070" d="M-185.1,468.074a12.22,12.22,0,0,0,5.623,9.533c3.077,1.751,5.555.314,5.53-3.2a12.241,12.241,0,0,0-5.625-9.537C-182.654,463.119-185.128,464.552-185.1,468.074Z" transform="translate(11.949 16.804)" fill="#c3c3c3"/>
    <path id="Path_2071" data-name="Path 2071" d="M-235.345,413.274l-8.472,14.331.066,8.314,8.454-5.208Z" transform="translate(0.927 7.258)" fill="#7a7a7a"/>
    <path id="Path_2072" data-name="Path 2072" d="M-224.963,447.39c1.3-.9,2.084-2.633,2.069-5.036-.039-5.117-3.7-11.323-8.173-13.864-1.994-1.135-3.816-1.346-5.221-.777-.249.1-3.805,2.214-3.968,2.333-1.266.911-2.027,2.628-2.01,4.992.034,5.117,3.7,11.324,8.172,13.864,2.113,1.2,4.036,1.367,5.471.666Z" transform="translate(1.218 9.912)" fill="#272727"/>
    <path id="Path_2073" data-name="Path 2073" d="M-242.919,435.126c.037,5.117,3.7,11.323,8.173,13.863s8.077.456,8.041-4.659-3.7-11.323-8.173-13.866S-242.953,430.011-242.919,435.126Z" transform="translate(1.096 10.282)" fill="#383838"/>
    <path id="Path_2074" data-name="Path 2074" d="M-240.887,436.25a12.254,12.254,0,0,0,5.623,9.535c3.081,1.746,5.556.314,5.531-3.208a12.229,12.229,0,0,0-5.622-9.534C-238.433,431.3-240.911,432.732-240.887,436.25Z" transform="translate(1.477 10.83)" fill="#c3c3c3"/>
    <path id="Path_2075" data-name="Path 2075" d="M-174.619,448.245l-6.992-20.094-42.005-24.529-17.309,2.727-3.409.438a53.159,53.159,0,0,0-1.815,8.511c-.584,4.656-.806,19.676-.806,19.676l1.732,2.035,2.258,1.746c.4-5.511,4.111-8.688,9.219-5.737,5.376,3.1,9.737,10.622,9.737,16.791,0,.315-.015.616-.038.912l47.213,27.856.1-2.57c-.023-.306-.036-.613-.036-.915,0-6.168,6.954-6.182,12.331-3.077,4.958,2.862,7.1,6.416,7.711,12.266l9.559-4.307.5-6.579,1.1-9.374Z" transform="translate(0.338 5.446)" fill="#b7191d"/>
    <path id="Path_2076" data-name="Path 2076" d="M-243.572,434.446l-.15-.412c1.828-10.953,18.061-2.52,18.747,11.819a9.663,9.663,0,0,0,1.27.689C-223.705,428.8-242.3,418.577-243.572,434.446Z" transform="translate(0.945 9.755)" fill="#a8181d"/>
    <path id="Path_2077" data-name="Path 2077" d="M-173.158,448.321l-10.584-28.944s-13.73-7.213-19.356-10.51-31.419-15.97-31.419-15.97l-7.332,9.844-2.9,6.06,75.285,44.06,1.3-1.521Z" transform="translate(0.752 3.433)" fill="#dad9d8"/>
    <path id="Path_2078" data-name="Path 2078" d="M-230.567,402.873l-3.69-2.087-5.084,7.524,3.252,1.073Z" transform="translate(1.767 4.914)" fill="#bababa"/>
    <path id="Path_2079" data-name="Path 2079" d="M-180.394,469.234-228.02,442.1l.07,2.1,47.627,27.132Z" transform="translate(3.893 12.67)" fill="#646464"/>
    <path id="Path_2080" data-name="Path 2080" d="M-246.161,426.042l5.112,2.944-.018,4.605-1.562.954-6.127-7.586Z" transform="translate(0 9.655)" fill="#302d2c"/>
    <path id="Path_2081" data-name="Path 2081" d="M-248.748,425.768l5.969,3.448v5.39l-5.969-3.448Z" transform="translate(0.001 9.604)" fill="#646464"/>
    <path id="Path_2082" data-name="Path 2082" d="M-164.792,464.193l-3.161-1.826v1.57l3.161,1.824Z" transform="translate(15.169 16.474)" fill="#7e7e7e"/>
    <path id="Path_2083" data-name="Path 2083" d="M-186.134,419.884l-38.4-20.53-11.132,12.134,57.181,33.506Z" transform="translate(2.457 4.645)" fill="#3a3a3a"/>
    <path id="Path_2084" data-name="Path 2084" d="M-206.791,409.536l-2-1.333-3.385,18.2,2.027,1.189Z" transform="translate(6.866 6.306)" fill="#d0d0d0"/>
    <path id="Path_2085" data-name="Path 2085" d="M-187.312,437.8l-.741-.636-1.163,3.953.741.652Z" transform="translate(11.177 11.744)" fill="#7a7a7a"/>
    <path id="Path_2086" data-name="Path 2086" d="M-211.872,423.419l-.741-.6-1.018,2.665.33.512Z" transform="translate(6.594 9.051)" fill="#7a7a7a"/>
    <path id="Path_2087" data-name="Path 2087" d="M-231.34,403.057l-3.688-2.092-5.086,7.519,3.247,1.077Z" transform="translate(1.622 4.947)" fill="#dadada"/>
    <path id="Path_2088" data-name="Path 2088" d="M-233.932,410.434l-1.556-.907-.6,1.613.4.685Z" transform="translate(2.377 6.555)" fill="#7a7a7a"/>
    <path id="Path_2089" data-name="Path 2089" d="M-115.826,434.437-160.4,457.775l.5,2.023,44.575-23.336Z" transform="translate(16.587 11.231)" fill="#df4d4e"/>
    <path id="Path_2090" data-name="Path 2090" d="M-112.817,440.66l-7.711,5.661.3,7.236-26.583,15.467.355-5.8-13.978.83s-.5,8.384-1.383,9.369-11.844-4.659-11.844-4.659,1.969,4.235,2.935,6.882.405,7.116.405,7.116,7.256,2.563,11.6,2.536,44.045-23.2,45.8-26.662,2.07-12.345,1.735-13.671A18.572,18.572,0,0,0-112.817,440.66Z" transform="translate(14.098 12.399)" fill="#474645"/>
    <path id="Path_2091" data-name="Path 2091" d="M-156.373,398.411l-.557-.329L-168.982,405l21.3,12.477Z" transform="translate(14.976 4.406)" fill="#525252"/>
    <path id="Path_2092" data-name="Path 2092" d="M-158.158,397.936h-.7l4.268,18.765h.7Z" transform="translate(16.876 4.379)" fill="#3a3a3a"/>
    <path id="Path_2093" data-name="Path 2093" d="M-235.692,406.193l-1.085.178-1.049.494,1.6.02Z" transform="translate(2.052 5.929)" fill="#dadada"/>
    <path id="Path_2094" data-name="Path 2094" d="M-173.116,446.476l-71.591-40.189-.262,2.088,99.028,57.319,1.384-2.635Z" transform="translate(0.711 5.947)" fill="#b7191d"/>
    <g id="Group_4284" data-name="Group 4284" transform="translate(-158.517 461.81)">
      <path id="Path_2095" data-name="Path 2095" d="M-164.226,449.791l-2.075-1.752-1.333.745-.5-.757-4.648,2.648v3.994l.879.384,4.422-2.86-.19-2.414,1-.957,1.868,1.28Z" transform="translate(172.78 -448.028)" fill="#474645"/>
    </g>
    <path id="Path_2096" data-name="Path 2096" d="M-177.337,388.581-198.589,400l-10.626-5.954,21.252-11.417Z" transform="translate(7.423 1.505)" fill="#fff"/>
    <path id="Path_2097" data-name="Path 2097" d="M-120,430.562l.242-1.532-.508-1.622-4.682,1.622-.234,1.081-1.674.92-.958,2.685h.61l.862-2.285,1.43-.869v1.721l1.032.387" transform="translate(22.704 9.912)" fill="#474645"/>
    <path id="Path_2098" data-name="Path 2098" d="M-222.965,380.872" transform="translate(4.842 1.175)" fill="#f6f6f6"/>
    <path id="Path_2099" data-name="Path 2099" d="M-163.685,454.8s15.361.771,15.361,2.361v5.177l-13.978.037.233-4.808Z" transform="translate(15.97 15.054)" fill="#dad9d8"/>
    <path id="Path_2100" data-name="Path 2100" d="M-121.12,435.939l-7.5,8.8-.3,4.843,7.805-6.323Z" transform="translate(22.496 11.513)" fill="#dad9d8"/>
  </g>
</svg>
