<?xml version="1.0" encoding="utf-8"?>
<!-- Generator: Adobe Illustrator 23.0.3, SVG Export Plug-In . SVG Version: 6.00 Build 0)  -->
<svg version="1.1" id="圖層_1" xmlns="http://www.w3.org/2000/svg" xmlns:xlink="http://www.w3.org/1999/xlink" x="0px" y="0px"
	 viewBox="0 0 858 564.3" style="enable-background:new 0 0 858 564.3;" xml:space="preserve">
<style type="text/css">
	.st0{fill:#414445;}
	.st1{fill:url(#SVGID_1_);}
	.st2{fill:url(#SVGID_2_);}
	.st3{fill:#ADBEBF;}
	.st4{opacity:0.3;fill:#778C90;enable-background:new    ;}
	.st5{fill:url(#SVGID_3_);}
	.st6{fill:url(#SVGID_4_);}
	.st7{fill:url(#SVGID_5_);}
	.st8{fill:url(#SVGID_6_);}
	.st9{fill:url(#SVGID_7_);}
	.st10{fill:url(#SVGID_8_);}
	.st11{fill:url(#SVGID_9_);}
	.st12{opacity:0.9;fill:#C1CDCE;enable-background:new    ;}
	.st13{fill:#4FB848;}
	.st14{fill:url(#SVGID_10_);}
	.st15{fill:url(#SVGID_11_);}
	.st16{fill:url(#SVGID_12_);}
	.st17{fill:url(#SVGID_13_);}
	.st18{fill:url(#SVGID_14_);}
	.st19{fill:url(#SVGID_15_);}
	.st20{fill:url(#SVGID_16_);}
	.st21{fill:url(#SVGID_17_);}
	.st22{fill:url(#SVGID_18_);}
	.st23{fill:url(#SVGID_19_);}
	.st24{fill:url(#SVGID_20_);}
	.st25{fill:url(#SVGID_21_);}
	.st26{fill:url(#SVGID_22_);}
	.st27{fill:url(#SVGID_23_);}
	.st28{fill:url(#SVGID_24_);}
	.st29{fill:url(#SVGID_25_);}
	.st30{fill:url(#SVGID_26_);}
	.st31{fill:url(#SVGID_27_);}
	.st32{fill:#656869;}
	.st33{fill:url(#SVGID_28_);}
	.st34{fill:url(#SVGID_29_);}
	.st35{fill:url(#SVGID_30_);}
	.st36{fill:url(#SVGID_31_);}
	.st37{clip-path:url(#SVGID_33_);}
	.st38{opacity:0.2;fill:#D3DCDC;enable-background:new    ;}
	.st39{fill:#D6E4E6;}
	.st40{fill:#8C9DA0;}
	.st41{opacity:0.9;fill:#D6E4E6;enable-background:new    ;}
	.st42{clip-path:url(#SVGID_35_);}
	.st43{fill:#EFF8FB;}
	.st44{clip-path:url(#SVGID_37_);}
	.st45{opacity:0.4;fill:#2C3536;enable-background:new    ;}
	.st46{fill:url(#SVGID_38_);}
	.st47{opacity:0.9;fill:url(#SVGID_39_);enable-background:new    ;}
	.st48{fill:url(#SVGID_40_);}
	.st49{fill:url(#SVGID_41_);}
	.st50{fill:url(#SVGID_42_);}
	.st51{fill:url(#SVGID_43_);}
	.st52{fill:url(#SVGID_44_);}
	.st53{fill:url(#SVGID_45_);}
	.st54{fill:url(#SVGID_46_);}
</style>
<g transform="translate(0 -0.003)">
	<g transform="translate(0.026 0.003)">
		<path class="st0" d="M189.4,203.1L2.8,94.7v9.3l186.6,108.4L189.4,203.1z"/>
		
			<linearGradient id="SVGID_1_" gradientUnits="userSpaceOnUse" x1="325.3227" y1="815.3112" x2="325.1787" y2="815.0372" gradientTransform="matrix(186.663 0 0 -169.66 -60618.9492 138422.3125)">
			<stop  offset="0" style="stop-color:#869B9F"/>
			<stop  offset="1" style="stop-color:#71868B"/>
		</linearGradient>
		<path class="st1" d="M186.6,143.5L0,35.1l0.1,61.2l186.6,108.5L186.6,143.5z"/>
		
			<linearGradient id="SVGID_2_" gradientUnits="userSpaceOnUse" x1="325.6776" y1="815.3132" x2="325.5606" y2="814.9791" gradientTransform="matrix(236.89 0 0 -143.4848 -77018.0703 117032.8594)">
			<stop  offset="0" style="stop-color:#BECECF"/>
			<stop  offset="3.800000e-02" style="stop-color:#C8D6D6"/>
			<stop  offset="0.132" style="stop-color:#DAE4E5"/>
			<stop  offset="0.24" style="stop-color:#E8EFF0"/>
			<stop  offset="0.372" style="stop-color:#F0F7F8"/>
			<stop  offset="0.6" style="stop-color:#F3FAFB"/>
			<stop  offset="0.619" style="stop-color:#ECF2F3"/>
			<stop  offset="0.692" style="stop-color:#D7E1E2"/>
			<stop  offset="0.772" style="stop-color:#C8D6D7"/>
			<stop  offset="0.865" style="stop-color:#C0D0D0"/>
			<stop  offset="1" style="stop-color:#BECECE"/>
		</linearGradient>
		<path class="st2" d="M50.3,0.8c-4.2-2.4-14.2,0.9-24.2,6.7C13,15,0,26.7,0,35.1l186.6,108.4c0-8.3,13-20,26.1-27.6
			c10-5.8,20-9.1,24.2-6.7L50.3,0.8z"/>
		<path class="st3" d="M239,174.5l-0.1-61.2c0-8.3-13.1-4.9-26.2,2.7c-13.1,7.6-26.2,19.3-26.1,27.6l0.1,61.2l2.8-1.6v9.3l46.9-27.1
			l-0.1-9.3L239,174.5z"/>
		<path class="st4" d="M239,174.5l-49.5-30.3l-2.9,7.7l0.1,52.9l2.8-1.6l0,9.3l46.8-27l-0.1-9.3L239,174.5z"/>
		<g transform="translate(189.496 111.402)">
			<path class="st0" d="M53,63.6L0,32.8V90l53,30.8V63.6z"/>
			
				<linearGradient id="SVGID_3_" gradientUnits="userSpaceOnUse" x1="131.8201" y1="703.9631" x2="131.3311" y2="703.2561" gradientTransform="matrix(53.037 0 0 -63.5775 -6939.7891 44759.5664)">
				<stop  offset="0" style="stop-color:#585B5C"/>
				<stop  offset="0.512" style="stop-color:#908F8F"/>
				<stop  offset="0.606" style="stop-color:#8B8B8A"/>
				<stop  offset="0.723" style="stop-color:#7E7E7D"/>
				<stop  offset="0.853" style="stop-color:#696A69"/>
				<stop  offset="0.991" style="stop-color:#4E5151"/>
				<stop  offset="1" style="stop-color:#4C4F4F"/>
			</linearGradient>
			<path class="st5" d="M53,4.2l-6-3.5C43.1-1.5,33.7,1.6,24.4,7C12.2,14.1-0.1,25,0,32.8l53,30.8L53,4.2L53,4.2z"/>
		</g>
		<g transform="translate(6.692 47.565)">
			
				<linearGradient id="SVGID_4_" gradientUnits="userSpaceOnUse" x1="308.8402" y1="850.4332" x2="308.9352" y2="849.2882" gradientTransform="matrix(71.354 0 0 -66.5484 -22441.3555 51130.457)">
				<stop  offset="0" style="stop-color:#282D30"/>
				<stop  offset="1" style="stop-color:#24292B"/>
			</linearGradient>
			<path class="st6" d="M73,68.1L53.1,56.6c-0.8-0.5-1.3-1.3-1.4-2.2V30.6c0-0.8,0.6-1,1.4-0.6L73,41.5c0.8,0.5,1.3,1.3,1.4,2.2
				v23.7C74.3,68.2,73.7,68.5,73,68.1z M97.3,82.1L77.4,70.6c-0.8-0.5-1.3-1.3-1.4-2.2V44.7c0-0.8,0.6-1,1.4-0.6l19.9,11.5
				c0.8,0.5,1.3,1.3,1.4,2.2v23.7C98.7,82.3,98.1,82.5,97.3,82.1z M121.7,96.2l-19.9-11.5c-0.8-0.5-1.3-1.3-1.4-2.2V58.8
				c0-0.8,0.6-1,1.4-0.6l19.9,11.5c0.8,0.5,1.3,1.3,1.4,2.2v23.7C123.1,96.3,122.4,96.6,121.7,96.2z"/>
			
				<linearGradient id="SVGID_5_" gradientUnits="userSpaceOnUse" x1="315.6004" y1="811.4566" x2="315.6504" y2="810.6836" gradientTransform="matrix(174.798 0 0 -126.2428 -55575.3008 96961.5703)">
				<stop  offset="0" style="stop-color:#282D30"/>
				<stop  offset="1" style="stop-color:#24292B"/>
			</linearGradient>
			<path class="st7" d="M21.3,38.2L1.3,26.7c-0.8-0.5-1.3-1.3-1.4-2.2V0.8c0-0.8,0.6-1,1.4-0.6l19.9,11.5c0.8,0.5,1.3,1.3,1.4,2.2
				v23.7C22.6,38.4,22,38.6,21.3,38.2z M173.4,126l-19.9-11.5c-0.8-0.5-1.3-1.3-1.4-2.2V88.6c0-0.8,0.6-1,1.4-0.6l19.9,11.5
				c0.8,0.5,1.3,1.3,1.4,2.2v23.7C174.8,126.2,174.1,126.5,173.4,126z"/>
			<g transform="translate(126.147 72.77)">
				
					<linearGradient id="SVGID_6_" gradientUnits="userSpaceOnUse" x1="158.9848" y1="781.7515" x2="159.4488" y2="779.8026" gradientTransform="matrix(22.645 0 0 -60.7142 -4058.9536 42200.25)">
					<stop  offset="0" style="stop-color:#282D30"/>
					<stop  offset="1" style="stop-color:#24292B"/>
				</linearGradient>
				<path class="st8" d="M21.3,60.5L1.3,49c-0.8-0.5-1.3-1.3-1.4-2.2V0.8c0-0.8,0.6-1,1.4-0.6l19.9,11.5c0.8,0.5,1.3,1.3,1.4,2.2
					v46.1C22.6,60.7,22,60.9,21.3,60.5z"/>
				
					<linearGradient id="SVGID_7_" gradientUnits="userSpaceOnUse" x1="-115.9904" y1="695.0205" x2="-117.6714" y2="693.9565" gradientTransform="matrix(1.05 0 0 -52.642 133.2591 36589.3789)">
					<stop  offset="0" style="stop-color:#869B9F"/>
					<stop  offset="1" style="stop-color:#71868B"/>
				</linearGradient>
				<path class="st9" d="M10.8,3.8c-0.3-0.1-0.5-0.3-0.8-0.5v52.2c0.3,0.2,0.7,0.3,1,0.5v-52C11,3.9,10.9,3.8,10.8,3.8z"/>
			</g>
			<g transform="translate(25.954 14.958)">
				
					<linearGradient id="SVGID_8_" gradientUnits="userSpaceOnUse" x1="259.397" y1="838.6503" x2="259.861" y2="836.7013" gradientTransform="matrix(22.648 0 0 -60.7222 -6328.7065 45716.2578)">
					<stop  offset="0" style="stop-color:#282D30"/>
					<stop  offset="1" style="stop-color:#24292B"/>
				</linearGradient>
				<path class="st10" d="M21.3,60.5L1.3,49c-0.8-0.5-1.3-1.3-1.4-2.2V0.8c0-0.8,0.6-1,1.4-0.6l19.9,11.5c0.8,0.5,1.3,1.3,1.4,2.2
					v46.1C22.6,60.7,22,60.9,21.3,60.5z"/>
				
					<linearGradient id="SVGID_9_" gradientUnits="userSpaceOnUse" x1="-15.7995" y1="752.8311" x2="-17.4805" y2="751.7672" gradientTransform="matrix(1.05 0 0 -52.642 28.0565 39632.7188)">
					<stop  offset="0" style="stop-color:#869B9F"/>
					<stop  offset="1" style="stop-color:#71868B"/>
				</linearGradient>
				<path class="st11" d="M10.8,3.8c-0.3-0.1-0.5-0.3-0.8-0.5v52.2c0.3,0.2,0.7,0.3,1,0.5v-52C11,3.9,10.9,3.8,10.8,3.8z"/>
			</g>
			<path class="st12" d="M98.6,81.9c-0.2,0.5-0.7,0.6-1.3,0.3L77.4,70.6c-0.8-0.5-1.3-1.3-1.4-2.2V44.7c0-0.4,0.2-0.7,0.6-0.8
				c0,0,0.1,0,0.1,0c0,0.1-0.1,0.2-0.1,0.3V68c0.1,0.9,0.6,1.7,1.4,2.2l19.9,11.5C98.1,81.8,98.4,81.9,98.6,81.9z M73.6,67.6
				L53.7,56.1c-0.8-0.5-1.3-1.3-1.4-2.2V30.2c0-0.1,0-0.2,0.1-0.3c-0.4,0-0.7,0.3-0.7,0.7c0,0,0,0.1,0,0.1v23.8
				c0.1,0.9,0.6,1.7,1.4,2.2L73,68.1c0.6,0.4,1.1,0.2,1.3-0.3C74,67.8,73.8,67.7,73.6,67.6z M21.9,37.7L1.9,26.2
				c-0.8-0.5-1.3-1.3-1.4-2.2V0.3c0-0.1,0-0.2,0.1-0.3C0.3,0,0,0.3,0,0.7c0,0,0,0.1,0,0.1v23.7c0.1,0.9,0.6,1.7,1.4,2.1l19.9,11.5
				c0.6,0.4,1.1,0.2,1.3-0.3C22.3,37.9,22.1,37.9,21.9,37.7z M122.3,95.7l-19.9-11.5c-0.8-0.5-1.3-1.3-1.4-2.2V58.3
				c0-0.1,0-0.2,0.1-0.3c-0.4,0-0.7,0.3-0.7,0.7c0,0,0,0.1,0,0.1v23.7c0.1,0.9,0.6,1.7,1.4,2.2l19.9,11.5c0.6,0.4,1.1,0.2,1.3-0.3
				C122.8,95.9,122.5,95.9,122.3,95.7L122.3,95.7z M174,125.6l-19.9-11.5c-0.8-0.5-1.3-1.3-1.4-2.2V88.2c0-0.1,0-0.2,0.1-0.3
				c-0.4,0-0.7,0.3-0.7,0.7c0,0,0,0.1,0,0.1v23.7c0.1,0.9,0.6,1.7,1.4,2.2l19.9,11.5c0.6,0.4,1.1,0.2,1.3-0.3
				C174.5,125.8,174.2,125.7,174,125.6L174,125.6z"/>
		</g>
		<path class="st13" d="M186.2,177.2L0,69.4l0,21.4l186.7,108.8L186.2,177.2z"/>
	</g>
	<g transform="translate(0.026 0.003)">
		<path class="st0" d="M384,316.1L197.4,207.6v9.3L384,325.3L384,316.1z"/>
		
			<linearGradient id="SVGID_10_" gradientUnits="userSpaceOnUse" x1="326.3649" y1="814.6454" x2="326.2209" y2="814.3714" gradientTransform="matrix(186.663 0 0 -169.66 -60618.9492 138422.3125)">
			<stop  offset="0" style="stop-color:#869B9F"/>
			<stop  offset="1" style="stop-color:#71868B"/>
		</linearGradient>
		<path class="st14" d="M381.1,256.4L194.5,148l0.1,61.2l186.6,108.5L381.1,256.4z"/>
		
			<linearGradient id="SVGID_11_" gradientUnits="userSpaceOnUse" x1="326.4987" y1="814.5259" x2="326.3818" y2="814.192" gradientTransform="matrix(236.89 0 0 -143.4848 -77018.0703 117032.8594)">
			<stop  offset="0" style="stop-color:#BECECF"/>
			<stop  offset="3.800000e-02" style="stop-color:#C8D6D6"/>
			<stop  offset="0.132" style="stop-color:#DAE4E5"/>
			<stop  offset="0.24" style="stop-color:#E8EFF0"/>
			<stop  offset="0.372" style="stop-color:#F0F7F8"/>
			<stop  offset="0.6" style="stop-color:#F3FAFB"/>
			<stop  offset="0.619" style="stop-color:#ECF2F3"/>
			<stop  offset="0.692" style="stop-color:#D7E1E2"/>
			<stop  offset="0.772" style="stop-color:#C8D6D7"/>
			<stop  offset="0.865" style="stop-color:#C0D0D0"/>
			<stop  offset="1" style="stop-color:#BECECE"/>
		</linearGradient>
		<path class="st15" d="M244.8,113.8c-4.2-2.4-14.2,0.9-24.2,6.7c-13.1,7.5-26.1,19.2-26.1,27.6l186.6,108.4c0-8.3,13-20,26.1-27.6
			c10-5.8,20-9.1,24.2-6.7L244.8,113.8z"/>
		<path class="st3" d="M433.5,287.4l-0.1-61.2c0-8.3-13.1-4.9-26.2,2.6c-13.1,7.6-26.2,19.3-26.1,27.6l0.1,61.2l2.8-1.6v9.3
			l46.9-27.1l-0.1-9.3L433.5,287.4z"/>
		<path class="st4" d="M433.5,287.4L384,257.1l-2.9,7.7l0.1,52.9l2.8-1.6l0,9.3l46.8-27l-0.1-9.3L433.5,287.4z"/>
		<g transform="translate(189.496 111.402)">
			<path class="st0" d="M247.5,176.5l-53-30.8v57.2l53,30.8V176.5z"/>
			
				<linearGradient id="SVGID_12_" gradientUnits="userSpaceOnUse" x1="135.4879" y1="702.1865" x2="134.9989" y2="701.4795" gradientTransform="matrix(53.037 0 0 -63.5775 -6939.7891 44759.5664)">
				<stop  offset="0" style="stop-color:#585B5C"/>
				<stop  offset="0.512" style="stop-color:#908F8F"/>
				<stop  offset="0.606" style="stop-color:#8B8B8A"/>
				<stop  offset="0.723" style="stop-color:#7E7E7D"/>
				<stop  offset="0.853" style="stop-color:#696A69"/>
				<stop  offset="0.991" style="stop-color:#4E5151"/>
				<stop  offset="1" style="stop-color:#4C4F4F"/>
			</linearGradient>
			<path class="st16" d="M247.5,117.2l-6-3.5c-3.9-2.3-13.3,0.9-22.6,6.2c-12.2,7.1-24.5,18-24.4,25.8l53,30.8L247.5,117.2
				L247.5,117.2z"/>
		</g>
		<g transform="translate(6.692 47.565)">
			
				<linearGradient id="SVGID_13_" gradientUnits="userSpaceOnUse" x1="311.5666" y1="848.7359" x2="311.6616" y2="847.5909" gradientTransform="matrix(71.354 0 0 -66.5484 -22441.3555 51130.457)">
				<stop  offset="0" style="stop-color:#282D30"/>
				<stop  offset="1" style="stop-color:#24292B"/>
			</linearGradient>
			<path class="st17" d="M267.5,181l-19.9-11.5c-0.8-0.5-1.3-1.3-1.4-2.2v-23.8c0-0.8,0.6-1,1.4-0.6l19.9,11.5
				c0.8,0.5,1.3,1.3,1.4,2.2v23.7C268.9,181.2,268.3,181.5,267.5,181z M291.9,195.1l-19.9-11.5c-0.8-0.5-1.3-1.3-1.4-2.2v-23.8
				c0-0.8,0.6-1,1.4-0.6l19.9,11.5c0.8,0.5,1.3,1.3,1.4,2.2v23.7C293.2,195.3,292.6,195.5,291.9,195.1z M316.2,209.1l-19.9-11.5
				c-0.8-0.5-1.3-1.3-1.4-2.2v-23.8c0-0.8,0.6-1,1.4-0.6l19.9,11.5c0.8,0.5,1.3,1.3,1.4,2.2v23.7C317.6,209.3,317,209.6,316.2,209.1
				z"/>
			
				<linearGradient id="SVGID_14_" gradientUnits="userSpaceOnUse" x1="316.7133" y1="810.5618" x2="316.7633" y2="809.7889" gradientTransform="matrix(174.798 0 0 -126.2428 -55575.3008 96961.5703)">
				<stop  offset="0" style="stop-color:#282D30"/>
				<stop  offset="1" style="stop-color:#24292B"/>
			</linearGradient>
			<path class="st18" d="M215.8,151.1l-19.9-11.5c-0.8-0.5-1.3-1.3-1.4-2.2v-23.7c0-0.8,0.6-1,1.4-0.6l19.9,11.5
				c0.8,0.5,1.3,1.3,1.4,2.2v23.7C217.2,151.3,216.6,151.6,215.8,151.1z M367.9,239L348,227.5c-0.8-0.5-1.3-1.3-1.4-2.2v-23.7
				c0-0.8,0.6-1,1.4-0.6l19.9,11.5c0.8,0.5,1.3,1.3,1.4,2.2v23.7C369.3,239.2,368.7,239.4,367.9,239z"/>
			<g transform="translate(126.147 72.77)">
				
					<linearGradient id="SVGID_15_" gradientUnits="userSpaceOnUse" x1="167.5753" y1="779.8911" x2="168.0394" y2="777.9421" gradientTransform="matrix(22.645 0 0 -60.7142 -4058.9536 42200.25)">
					<stop  offset="0" style="stop-color:#282D30"/>
					<stop  offset="1" style="stop-color:#24292B"/>
				</linearGradient>
				<path class="st19" d="M215.8,173.4L195.9,162c-0.8-0.5-1.3-1.3-1.4-2.2v-46.1c0-0.8,0.6-1,1.4-0.6l19.9,11.5
					c0.8,0.5,1.3,1.3,1.4,2.2v46.1C217.2,173.6,216.6,173.9,215.8,173.4z"/>
				
					<linearGradient id="SVGID_16_" gradientUnits="userSpaceOnUse" x1="69.2793" y1="692.8748" x2="67.5983" y2="691.8108" gradientTransform="matrix(1.05 0 0 -52.642 133.2591 36589.3789)">
					<stop  offset="0" style="stop-color:#869B9F"/>
					<stop  offset="1" style="stop-color:#71868B"/>
				</linearGradient>
				<path class="st20" d="M205.4,116.7c-0.3-0.1-0.5-0.3-0.8-0.5v52.2c0.3,0.2,0.7,0.3,1.1,0.5v-52
					C205.6,116.8,205.5,116.8,205.4,116.7z"/>
			</g>
			<g transform="translate(25.954 14.958)">
				
					<linearGradient id="SVGID_17_" gradientUnits="userSpaceOnUse" x1="267.9865" y1="836.7902" x2="268.4504" y2="834.8411" gradientTransform="matrix(22.648 0 0 -60.7222 -6328.7065 45716.2578)">
					<stop  offset="0" style="stop-color:#282D30"/>
					<stop  offset="1" style="stop-color:#24292B"/>
				</linearGradient>
				<path class="st21" d="M215.8,173.5L195.9,162c-0.8-0.5-1.3-1.3-1.4-2.2v-46.1c0-0.8,0.6-1,1.4-0.6l19.9,11.5
					c0.8,0.5,1.3,1.3,1.4,2.2v46.1C217.2,173.6,216.6,173.9,215.8,173.5z"/>
				
					<linearGradient id="SVGID_18_" gradientUnits="userSpaceOnUse" x1="169.4701" y1="750.6854" x2="167.7891" y2="749.6215" gradientTransform="matrix(1.05 0 0 -52.642 28.0565 39632.7188)">
					<stop  offset="0" style="stop-color:#869B9F"/>
					<stop  offset="1" style="stop-color:#71868B"/>
				</linearGradient>
				<path class="st22" d="M205.4,116.7c-0.3-0.1-0.5-0.3-0.8-0.5v52.2c0.3,0.2,0.7,0.3,1.1,0.5v-52
					C205.6,116.8,205.5,116.8,205.4,116.7z"/>
			</g>
			<path class="st12" d="M293.2,194.8c-0.2,0.5-0.7,0.6-1.3,0.3l-19.9-11.5c-0.8-0.5-1.3-1.3-1.4-2.2v-23.7c0-0.4,0.2-0.7,0.6-0.8
				c0,0,0.1,0,0.1,0c0,0.1-0.1,0.2-0.1,0.3V181c0.1,0.9,0.6,1.7,1.4,2.2l19.9,11.5C292.7,194.7,292.9,194.8,293.2,194.8z
				 M268.1,180.6l-19.9-11.5c-0.8-0.5-1.3-1.3-1.4-2.2v-23.7c0-0.1,0-0.2,0.1-0.3c-0.4,0-0.7,0.3-0.7,0.7c0,0,0,0.1,0,0.1v23.8
				c0.1,0.9,0.6,1.7,1.4,2.2l19.9,11.5c0.6,0.4,1.1,0.2,1.3-0.3C268.6,180.7,268.3,180.7,268.1,180.6z M216.4,150.7l-19.9-11.5
				c-0.8-0.5-1.3-1.3-1.4-2.2v-23.7c0-0.1,0-0.2,0.1-0.3c-0.4,0-0.7,0.3-0.7,0.7c0,0,0,0.1,0,0.1v23.7c0.1,0.9,0.6,1.7,1.4,2.1
				l19.9,11.5c0.6,0.4,1.1,0.2,1.3-0.3C216.8,150.9,216.6,150.8,216.4,150.7z M316.8,208.7l-19.9-11.5c-0.8-0.5-1.3-1.3-1.4-2.2
				v-23.8c0-0.1,0-0.2,0.1-0.3c-0.4,0-0.7,0.3-0.7,0.7c0,0,0,0.1,0,0.1v23.7c0.1,0.9,0.6,1.7,1.4,2.2l19.9,11.5
				c0.6,0.4,1.1,0.2,1.3-0.3C317.3,208.9,317.1,208.8,316.8,208.7L316.8,208.7z M368.5,238.6l-19.9-11.5c-0.8-0.5-1.3-1.3-1.4-2.2
				v-23.8c0-0.1,0-0.2,0.1-0.3c-0.4,0-0.7,0.3-0.7,0.7c0,0,0,0.1,0,0.1v23.8c0.1,0.9,0.6,1.7,1.4,2.2l19.9,11.5
				c0.6,0.4,1.1,0.2,1.3-0.3C369,238.7,368.8,238.7,368.5,238.6L368.5,238.6z"/>
		</g>
		<path class="st13" d="M380.8,290.2L194.5,182.4l0,21.4l186.7,108.8L380.8,290.2z"/>
	</g>
	<g transform="translate(0.026 0.003)">
		<path class="st0" d="M578.9,428.6L392.4,320.2v9.3L579,437.9L578.9,428.6z"/>
		
			<linearGradient id="SVGID_19_" gradientUnits="userSpaceOnUse" x1="327.4095" y1="813.9818" x2="327.2655" y2="813.7078" gradientTransform="matrix(186.663 0 0 -169.66 -60618.9492 138422.3125)">
			<stop  offset="0" style="stop-color:#869B9F"/>
			<stop  offset="1" style="stop-color:#71868B"/>
		</linearGradient>
		<path class="st23" d="M576.1,369L389.5,260.6l0.1,61.2l186.6,108.5L576.1,369z"/>
		
			<linearGradient id="SVGID_20_" gradientUnits="userSpaceOnUse" x1="327.3219" y1="813.7413" x2="327.2049" y2="813.4073" gradientTransform="matrix(236.89 0 0 -143.4848 -77018.0703 117032.8594)">
			<stop  offset="0" style="stop-color:#BECECF"/>
			<stop  offset="3.800000e-02" style="stop-color:#C8D6D6"/>
			<stop  offset="0.132" style="stop-color:#DAE4E5"/>
			<stop  offset="0.24" style="stop-color:#E8EFF0"/>
			<stop  offset="0.372" style="stop-color:#F0F7F8"/>
			<stop  offset="0.6" style="stop-color:#F3FAFB"/>
			<stop  offset="0.619" style="stop-color:#ECF2F3"/>
			<stop  offset="0.692" style="stop-color:#D7E1E2"/>
			<stop  offset="0.772" style="stop-color:#C8D6D7"/>
			<stop  offset="0.865" style="stop-color:#C0D0D0"/>
			<stop  offset="1" style="stop-color:#BECECE"/>
		</linearGradient>
		<path class="st24" d="M439.8,226.3c-4.2-2.4-14.2,0.9-24.2,6.7c-13.1,7.5-26.1,19.2-26.1,27.6L576.1,369c0-8.3,13-20,26.1-27.6
			c10-5.8,20-9.1,24.2-6.7L439.8,226.3z"/>
		<path class="st3" d="M628.5,400l-0.1-61.2c0-8.3-13.1-4.9-26.2,2.6c-13.1,7.6-26.2,19.3-26.1,27.6l0.1,61.2l2.8-1.6v9.3l46.9-27.1
			l-0.1-9.3L628.5,400z"/>
		<path class="st4" d="M628.5,400L579,369.7l-2.9,7.7l0.1,52.9l2.8-1.6l0,9.3l46.8-27l-0.1-9.3L628.5,400z"/>
		<g transform="translate(189.496 111.402)">
			<path class="st0" d="M442.5,289.1l-53-30.8v57.2l53,30.8V289.1z"/>
			
				<linearGradient id="SVGID_21_" gradientUnits="userSpaceOnUse" x1="139.1645" y1="700.4156" x2="138.6755" y2="699.7086" gradientTransform="matrix(53.037 0 0 -63.5775 -6939.7891 44759.5664)">
				<stop  offset="0" style="stop-color:#585B5C"/>
				<stop  offset="0.512" style="stop-color:#908F8F"/>
				<stop  offset="0.606" style="stop-color:#8B8B8A"/>
				<stop  offset="0.723" style="stop-color:#7E7E7D"/>
				<stop  offset="0.853" style="stop-color:#696A69"/>
				<stop  offset="0.991" style="stop-color:#4E5151"/>
				<stop  offset="1" style="stop-color:#4C4F4F"/>
			</linearGradient>
			<path class="st25" d="M442.5,229.8l-6-3.5c-3.9-2.3-13.3,0.9-22.6,6.2c-12.2,7.1-24.5,18-24.4,25.8l53,30.8L442.5,229.8
				L442.5,229.8z"/>
		</g>
		<g transform="translate(6.692 47.565)">
			
				<linearGradient id="SVGID_22_" gradientUnits="userSpaceOnUse" x1="314.2993" y1="847.0441" x2="314.3943" y2="845.8991" gradientTransform="matrix(71.354 0 0 -66.5484 -22441.3555 51130.457)">
				<stop  offset="0" style="stop-color:#282D30"/>
				<stop  offset="1" style="stop-color:#24292B"/>
			</linearGradient>
			<path class="st26" d="M462.5,293.6l-19.9-11.5c-0.8-0.5-1.3-1.3-1.4-2.2v-23.8c0-0.8,0.6-1,1.4-0.6l19.9,11.5
				c0.8,0.5,1.3,1.3,1.4,2.2V293C463.9,293.8,463.3,294,462.5,293.6z M486.9,307.7l-19.9-11.5c-0.8-0.5-1.3-1.3-1.4-2.2v-23.8
				c0-0.8,0.6-1,1.4-0.6l19.9,11.5c0.8,0.5,1.3,1.3,1.4,2.2v23.7C488.2,307.8,487.6,308.1,486.9,307.7z M511.2,321.7l-19.9-11.5
				c-0.8-0.5-1.3-1.3-1.4-2.2v-23.8c0-0.8,0.6-1,1.4-0.6l19.9,11.5c0.8,0.5,1.3,1.3,1.4,2.2v23.7C512.6,321.9,512,322.1,511.2,321.7
				z"/>
			
				<linearGradient id="SVGID_23_" gradientUnits="userSpaceOnUse" x1="317.8288" y1="809.67" x2="317.8788" y2="808.897" gradientTransform="matrix(174.798 0 0 -126.2428 -55575.3008 96961.5703)">
				<stop  offset="0" style="stop-color:#282D30"/>
				<stop  offset="1" style="stop-color:#24292B"/>
			</linearGradient>
			<path class="st27" d="M410.8,263.7l-19.9-11.5c-0.8-0.5-1.3-1.3-1.4-2.2v-23.7c0-0.8,0.6-1,1.4-0.6l19.9,11.5
				c0.8,0.5,1.3,1.3,1.4,2.2v23.7C412.1,263.9,411.5,264.2,410.8,263.7z M562.9,351.6L543,340.1c-0.8-0.5-1.3-1.3-1.4-2.2v-23.7
				c0-0.8,0.6-1,1.4-0.6l19.9,11.5c0.8,0.5,1.3,1.3,1.4,2.2V351C564.3,351.7,563.7,352,562.9,351.6z"/>
			<g transform="translate(126.147 72.77)">
				
					<linearGradient id="SVGID_24_" gradientUnits="userSpaceOnUse" x1="176.1862" y1="778.0368" x2="176.6502" y2="776.0878" gradientTransform="matrix(22.645 0 0 -60.7142 -4058.9536 42200.25)">
					<stop  offset="0" style="stop-color:#282D30"/>
					<stop  offset="1" style="stop-color:#24292B"/>
				</linearGradient>
				<path class="st28" d="M410.8,286l-19.9-11.5c-0.8-0.5-1.3-1.3-1.4-2.2v-46.1c0-0.8,0.6-1,1.4-0.6l19.9,11.5
					c0.8,0.5,1.3,1.3,1.4,2.2v46.1C412.1,286.2,411.5,286.5,410.8,286z"/>
				
					<linearGradient id="SVGID_25_" gradientUnits="userSpaceOnUse" x1="254.987" y1="690.7361" x2="253.306" y2="689.6721" gradientTransform="matrix(1.05 0 0 -52.642 133.2591 36589.3789)">
					<stop  offset="0" style="stop-color:#869B9F"/>
					<stop  offset="1" style="stop-color:#71868B"/>
				</linearGradient>
				<path class="st29" d="M400.4,229.3c-0.3-0.1-0.5-0.3-0.8-0.5V281c0.3,0.2,0.7,0.3,1.1,0.5v-52
					C400.6,229.4,400.5,229.4,400.4,229.3z"/>
			</g>
			<g transform="translate(25.954 14.958)">
				
					<linearGradient id="SVGID_26_" gradientUnits="userSpaceOnUse" x1="276.5962" y1="834.936" x2="277.0602" y2="832.9871" gradientTransform="matrix(22.648 0 0 -60.7222 -6328.7065 45716.2578)">
					<stop  offset="0" style="stop-color:#282D30"/>
					<stop  offset="1" style="stop-color:#24292B"/>
				</linearGradient>
				<path class="st30" d="M410.8,286.1l-19.9-11.5c-0.8-0.5-1.3-1.3-1.4-2.2v-46.1c0-0.8,0.6-1,1.4-0.6l19.9,11.5
					c0.8,0.5,1.3,1.3,1.4,2.2v46.1C412.1,286.2,411.5,286.5,410.8,286.1z"/>
				
					<linearGradient id="SVGID_27_" gradientUnits="userSpaceOnUse" x1="355.1779" y1="748.5468" x2="353.4969" y2="747.4827" gradientTransform="matrix(1.05 0 0 -52.642 28.0565 39632.7188)">
					<stop  offset="0" style="stop-color:#869B9F"/>
					<stop  offset="1" style="stop-color:#71868B"/>
				</linearGradient>
				<path class="st31" d="M400.4,229.3c-0.3-0.1-0.5-0.3-0.8-0.5V281c0.3,0.2,0.7,0.3,1.1,0.5v-52
					C400.6,229.4,400.5,229.4,400.4,229.3z"/>
			</g>
			<path class="st12" d="M488.1,307.4c-0.2,0.5-0.7,0.6-1.3,0.3l-19.9-11.5c-0.8-0.5-1.3-1.3-1.4-2.2v-23.7c0-0.4,0.2-0.7,0.6-0.8
				c0,0,0.1,0,0.1,0c0,0.1-0.1,0.2-0.1,0.3v23.7c0.1,0.9,0.6,1.7,1.4,2.2l19.9,11.5C487.7,307.3,487.9,307.4,488.1,307.4z
				 M463.1,293.1l-19.9-11.5c-0.8-0.5-1.3-1.3-1.4-2.2v-23.7c0-0.1,0-0.2,0.1-0.3c-0.4,0-0.7,0.3-0.7,0.7c0,0,0,0.1,0,0.1v23.8
				c0.1,0.9,0.6,1.7,1.4,2.2l19.9,11.5c0.6,0.4,1.1,0.2,1.3-0.3C463.6,293.3,463.3,293.3,463.1,293.1z M411.4,263.3l-19.9-11.5
				c-0.8-0.5-1.3-1.3-1.4-2.2v-23.7c0-0.1,0-0.2,0.1-0.3c-0.4,0-0.7,0.3-0.7,0.7c0,0,0,0.1,0,0.1v23.7c0.1,0.9,0.6,1.7,1.4,2.1
				l19.9,11.5c0.6,0.4,1.1,0.2,1.3-0.3C411.8,263.5,411.6,263.4,411.4,263.3z M511.8,321.3l-19.9-11.5c-0.8-0.5-1.3-1.3-1.4-2.2
				v-23.8c0-0.1,0-0.2,0.1-0.3c-0.4,0-0.7,0.3-0.7,0.7c0,0,0,0.1,0,0.1v23.7c0.1,0.9,0.6,1.7,1.4,2.2l19.9,11.5
				c0.6,0.4,1.1,0.2,1.3-0.3C512.3,321.5,512.1,321.4,511.8,321.3L511.8,321.3z M563.5,351.1l-19.9-11.5c-0.8-0.5-1.3-1.3-1.4-2.2
				v-23.8c0-0.1,0-0.2,0.1-0.3c-0.4,0-0.7,0.3-0.7,0.7c0,0,0,0.1,0,0.1v23.8c0.1,0.9,0.6,1.7,1.4,2.2l19.9,11.5
				c0.6,0.4,1.1,0.2,1.3-0.3C564,351.3,563.8,351.3,563.5,351.1L563.5,351.1z"/>
		</g>
		<path class="st13" d="M575.8,402.8L389.5,294.9l0,21.4l186.7,108.8L575.8,402.8z"/>
	</g>
	<g transform="translate(0 69.406)">
		<path class="st0" d="M796.3,485.1L587.1,363.5v9.3l209.3,121.6L796.3,485.1z"/>
		<path class="st32" d="M842,468l-45.6,26.3v-8.9l45.6-26.3V468z"/>
		
			<linearGradient id="SVGID_28_" gradientUnits="userSpaceOnUse" x1="327.3699" y1="744.7263" x2="327.2499" y2="744.4822" gradientTransform="matrix(221.906 0 0 -190.074 -71936.8125 141928.8438)">
			<stop  offset="0" style="stop-color:#869B9F"/>
			<stop  offset="1" style="stop-color:#71868B"/>
		</linearGradient>
		<path class="st33" d="M793.5,425.5L584.3,303.9l0.1,61.2L806.2,494L793.5,425.5z"/>
		<path class="st13" d="M799.3,460.5l-215-124.7l0,21.4l219.4,126.7L799.3,460.5z"/>
		
			<linearGradient id="SVGID_29_" gradientUnits="userSpaceOnUse" x1="327.3202" y1="744.4765" x2="327.2132" y2="744.1695" gradientTransform="matrix(259.2415 0 0 -156.6594 -84127.8594 116952.2813)">
			<stop  offset="0" style="stop-color:#BECECF"/>
			<stop  offset="3.800000e-02" style="stop-color:#C8D6D6"/>
			<stop  offset="0.132" style="stop-color:#DAE4E5"/>
			<stop  offset="0.24" style="stop-color:#E8EFF0"/>
			<stop  offset="0.372" style="stop-color:#F0F7F8"/>
			<stop  offset="0.6" style="stop-color:#F3FAFB"/>
			<stop  offset="0.619" style="stop-color:#ECF2F3"/>
			<stop  offset="0.692" style="stop-color:#D7E1E2"/>
			<stop  offset="0.772" style="stop-color:#C8D6D7"/>
			<stop  offset="0.865" style="stop-color:#C0D0D0"/>
			<stop  offset="1" style="stop-color:#BECECE"/>
		</linearGradient>
		<path class="st34" d="M634.6,269.7c-4.2-2.4-14.2,0.9-24.2,6.7c-13.1,7.6-26.2,19.3-26.1,27.6l209.2,121.6c0-8.3,13-20,26.1-27.6
			c9.7-5.6,19.5-8.9,23.9-6.8c0,0,0,0,0,0L634.6,269.7z"/>
		
			<linearGradient id="SVGID_30_" gradientUnits="userSpaceOnUse" x1="327.8756" y1="743.955" x2="328.0956" y2="743.174" gradientTransform="matrix(64.4691 0 0 -104.6327 -20320.3457 78239.6563)">
			<stop  offset="0" style="stop-color:#B2C3C6"/>
			<stop  offset="0.374" style="stop-color:#ABBFC1"/>
			<stop  offset="1" style="stop-color:#A3BBBD"/>
		</linearGradient>
		<path class="st35" d="M856.4,467.5c1.1-0.6,1.7-1.9,1.5-3.2l-12.2-69.6c-1.4-8-13-4.3-26.1,3.2c-13.1,7.6-26.2,19.3-26.1,27.6
			l11.7,66.8c0.3,1.7,1.9,2.8,3.5,2.5c0.4-0.1,0.7-0.2,1-0.4L856.4,467.5z"/>
	</g>
	<path class="st13" d="M852.7,535.4c1.3-0.7,1.9-2.2,1.7-3.6l-8.5-50.5c-0.2-1.4-1.4-2.5-2.9-2.5c-4.3-0.1-11.4,2.6-19.1,7.1
		c-12.6,7.3-22.5,16.7-24.4,23c-0.3,1-0.3,2-0.1,3l7.8,44.5c0.3,1.9,2.2,3.2,4.1,2.9c0.4-0.1,0.8-0.2,1.2-0.4L852.7,535.4z"/>
	<g transform="translate(407.098 238.144)">
		
			<linearGradient id="SVGID_31_" gradientUnits="userSpaceOnUse" x1="-78.7658" y1="573.7497" x2="-79.1238" y2="574.4387" gradientTransform="matrix(55.1266 0 0 -80.5977 4768.189 46534.1641)">
			<stop  offset="0" style="stop-color:#282D30"/>
			<stop  offset="1" style="stop-color:#24292B"/>
		</linearGradient>
		<path class="st36" d="M442.9,281.6c1.3-0.7,1.9-2.2,1.7-3.6l-8.5-50.5c-0.2-1.4-1.4-2.5-2.9-2.5c-4.3-0.1-11.4,2.6-19.1,7.1
			c-12.6,7.3-22.5,16.7-24.4,23c-0.3,1-0.3,2-0.1,3l7.8,44.5c0.3,1.9,2.2,3.2,4.1,2.9c0.4-0.1,0.8-0.2,1.2-0.4L442.9,281.6z"/>
		<g>
			<defs>
				<path id="SVGID_32_" d="M442.9,281.6c1.3-0.7,1.9-2.2,1.7-3.6l-8.5-50.5c-0.2-1.4-1.4-2.5-2.9-2.5c-4.3-0.1-11.4,2.6-19.1,7.1
					c-12.6,7.3-22.5,16.7-24.4,23c-0.3,1-0.3,2-0.1,3l7.8,44.5c0.3,1.9,2.2,3.2,4.1,2.9c0.4-0.1,0.8-0.2,1.2-0.4L442.9,281.6z"/>
			</defs>
			<clipPath id="SVGID_33_">
				<use xlink:href="#SVGID_32_"  style="overflow:visible;"/>
			</clipPath>
			<g class="st37">
				<path class="st38" d="M457.5,284.1l-55.9,32.3l-11.8-6.8l55.9-32.3L457.5,284.1z"/>
			</g>
		</g>
	</g>
	<g transform="translate(418.161 297.439)">
		<g transform="translate(0 18.925)">
			<path class="st39" d="M400.5,225l-10.6,6.2c-0.3,0.1-0.4,0.4-0.3,0.7l0.9,5.2c0.1,0.4,0.4,0.6,0.8,0.6c0.1,0,0.2,0,0.2-0.1
				l10.6-6.2c0.3-0.1,0.4-0.4,0.3-0.7l-0.9-5.2c-0.1-0.4-0.4-0.6-0.8-0.5C400.6,225,400.5,225,400.5,225z"/>
		</g>
		<g transform="translate(32.488)">
			<path class="st39" d="M400.5,225l-10.6,6.2c-0.3,0.1-0.4,0.4-0.3,0.7l0.9,5.2c0.1,0.4,0.4,0.6,0.8,0.6c0.1,0,0.2,0,0.2-0.1
				l10.6-6.2c0.3-0.1,0.4-0.4,0.3-0.7l-0.9-5.2c-0.1-0.4-0.4-0.6-0.8-0.6C400.6,225,400.6,225,400.5,225z"/>
		</g>
	</g>
	<path class="st40" d="M819.7,541.9l0.9,5.2c0.1,0.3-0.1,0.6-0.3,0.7l-10.6,6.2c-0.3,0.2-0.7,0.1-0.9-0.2c0-0.1-0.1-0.1-0.1-0.2
		l-0.9-5.2c-0.1-0.3,0.1-0.6,0.3-0.7l10.6-6.2c0.3-0.2,0.7-0.1,0.9,0.2C819.6,541.7,819.7,541.8,819.7,541.9z"/>
	<path class="st40" d="M851.1,522.5l-10.6,6.2c-0.3,0.1-0.4,0.4-0.3,0.7l0.9,5.2c0.1,0.4,0.4,0.6,0.8,0.6c0.1,0,0.2,0,0.2-0.1
		l10.6-6.2c0.3-0.1,0.4-0.4,0.3-0.7l-0.9-5.2c-0.1-0.4-0.4-0.6-0.8-0.6C851.3,522.4,851.2,522.4,851.1,522.5z"/>
	<path class="st41" d="M819.7,541.9l0.9,5.2c0.1,0.3-0.1,0.6-0.3,0.7l-10.6,6.2c-0.3,0.2-0.7,0.1-0.9-0.2c0.1,0,0.2,0,0.3-0.1
		l10.6-6.2c0.3-0.1,0.4-0.4,0.3-0.7l-0.9-5.2c0-0.1-0.1-0.2-0.2-0.3C819.3,541.3,819.6,541.5,819.7,541.9
		C819.7,541.9,819.7,541.9,819.7,541.9z M852.2,522.9c0-0.4-0.4-0.6-0.7-0.6c0,0,0,0,0,0c0.1,0.1,0.1,0.2,0.2,0.3l0.9,5.2
		c0.1,0.3-0.1,0.6-0.3,0.7l-10.6,6.2c-0.1,0.1-0.2,0.1-0.3,0.1c0.2,0.3,0.6,0.3,0.9,0.2l10.6-6.2c0.3-0.1,0.4-0.4,0.3-0.7
		L852.2,522.9z"/>
	<g transform="translate(450.649 297.439)">
		<g>
			<defs>
				<path id="SVGID_34_" d="M400.5,225l-10.6,6.2c-0.3,0.1-0.4,0.4-0.3,0.7l0.9,5.2c0.1,0.4,0.4,0.6,0.8,0.6c0.1,0,0.2,0,0.2-0.1
					l10.6-6.2c0.3-0.1,0.4-0.4,0.3-0.7l-0.9-5.2c-0.1-0.4-0.4-0.6-0.8-0.6C400.6,225,400.6,225,400.5,225z"/>
			</defs>
			<clipPath id="SVGID_35_">
				<use xlink:href="#SVGID_34_"  style="overflow:visible;"/>
			</clipPath>
			<g class="st42">
				<path class="st43" d="M390,235.4c-0.1,0-0.3,0-0.3-0.5c0.1-1,0.7-1.8,1.5-2.3c0.2-0.1,0.4-0.2,0.6-0.2c0.1,0,0.3,0,0.3,0.5
					c-0.1,1-0.7,1.8-1.5,2.3C390.5,235.3,390.3,235.4,390,235.4z M394,233.1c-0.1,0-0.3,0-0.3-0.5c0.1-1,0.7-1.8,1.5-2.3
					c0.2-0.1,0.4-0.2,0.6-0.2c0.1,0,0.3,0,0.3,0.5c-0.1,1-0.7,1.8-1.5,2.3C394.4,233,394.2,233.1,394,233.1L394,233.1z M397.9,230.8
					c-0.1,0-0.3,0-0.3-0.5c0.1-1,0.7-1.8,1.5-2.3c0.2-0.1,0.4-0.2,0.6-0.2c0.1,0,0.3,0,0.3,0.5c-0.1,1-0.7,1.8-1.5,2.3
					C398.3,230.7,398.1,230.8,397.9,230.8L397.9,230.8z"/>
			</g>
		</g>
	</g>
	<g transform="translate(418.161 316.374)">
		<g>
			<defs>
				<path id="SVGID_36_" d="M401.5,225.5l0.9,5.2c0.1,0.3-0.1,0.6-0.3,0.7l-10.6,6.2c-0.3,0.2-0.7,0.1-0.9-0.2
					c0-0.1-0.1-0.1-0.1-0.2l-0.9-5.2c-0.1-0.3,0.1-0.6,0.3-0.7l10.6-6.2c0.3-0.2,0.7-0.1,0.9,0.2
					C401.5,225.3,401.5,225.4,401.5,225.5z"/>
			</defs>
			<clipPath id="SVGID_37_">
				<use xlink:href="#SVGID_36_"  style="overflow:visible;"/>
			</clipPath>
			<g class="st44">
				<path class="st43" d="M390,235.4c-0.1,0-0.3,0-0.3-0.5c0.1-1,0.7-1.8,1.5-2.3c0.2-0.1,0.4-0.2,0.6-0.2c0.1,0,0.3,0,0.3,0.5
					c-0.1,1-0.7,1.8-1.5,2.3C390.4,235.3,390.2,235.3,390,235.4z M393.9,233c-0.1,0-0.3,0-0.3-0.5c0.1-1,0.7-1.8,1.5-2.3
					c0.2-0.1,0.4-0.2,0.6-0.2c0.1,0,0.3,0,0.3,0.5c-0.1,1-0.7,1.8-1.5,2.3C394.3,233,394.1,233,393.9,233L393.9,233z M397.8,230.7
					c-0.1,0-0.3,0-0.3-0.5c0.1-1,0.7-1.8,1.5-2.3c0.2-0.1,0.4-0.2,0.6-0.2c0.1,0,0.3,0,0.3,0.5c-0.1,1-0.7,1.8-1.5,2.3
					C398.2,230.6,398,230.7,397.8,230.7L397.8,230.7z"/>
			</g>
		</g>
	</g>
	<path class="st45" d="M810.8,557.9c-0.4,0-0.7-0.3-0.8-0.7l-0.2-1.3c-0.1-0.3,0.1-0.7,0.4-0.8l3.3-1.9c0.1,0,0.3-0.1,0.4-0.1
		c0.4,0,0.7,0.3,0.8,0.7l0.2,1.3c0.1,0.3-0.1,0.7-0.4,0.8l-3.3,1.9C811.1,557.8,810.8,557.9,810.8,557.9z M848.6,535.7
		c-0.4,0-0.7-0.3-0.8-0.7l-0.2-1.3c-0.1-0.3,0.1-0.7,0.4-0.8l3.3-1.9c0.1,0,0.3-0.1,0.4-0.1c0.4,0,0.7,0.3,0.8,0.7l0.2,1.3
		c0.1,0.3-0.1,0.7-0.4,0.8l-3.3,1.9C848.9,535.7,848.8,535.7,848.6,535.7z"/>
	
		<linearGradient id="SVGID_38_" gradientUnits="userSpaceOnUse" x1="328.4944" y1="805.8868" x2="328.5244" y2="805.8028" gradientTransform="matrix(42.4707 0 0 -26.46 -13120.6943 21866.9688)">
		<stop  offset="0" style="stop-color:#FFC931"/>
		<stop  offset="0.167" style="stop-color:#F7BA30"/>
		<stop  offset="0.725" style="stop-color:#E48E2B"/>
		<stop  offset="0.995" style="stop-color:#DD7F29"/>
	</linearGradient>
	<path class="st46" d="M814.5,553.7l0.2,1.3c0,0.2-0.1,0.4-0.3,0.6l-3.3,1.9c-0.3,0.1-0.6,0.1-0.7-0.2c0-0.1-0.1-0.1-0.1-0.2
		l-0.2-1.3c0-0.2,0.1-0.4,0.3-0.6l3.3-1.9c0.2-0.2,0.6-0.1,0.7,0.2C814.4,553.5,814.5,553.6,814.5,553.7z M851.5,531.1l-3.3,1.9
		c-0.2,0.1-0.3,0.3-0.3,0.6l0.2,1.3c0,0.3,0.3,0.5,0.6,0.4c0.1,0,0.1,0,0.2-0.1l3.3-1.9c0.2-0.1,0.3-0.3,0.3-0.6l-0.2-1.3
		c-0.1-0.3-0.3-0.5-0.6-0.4C851.6,531.1,851.6,531.1,851.5,531.1z"/>
	
		<linearGradient id="SVGID_39_" gradientUnits="userSpaceOnUse" x1="328.3881" y1="808.2391" x2="328.2571" y2="808.72" gradientTransform="matrix(47.7384 0 0 -36.4517 -14854.1992 29950.5625)">
		<stop  offset="0" style="stop-color:#343C3E"/>
		<stop  offset="1" style="stop-color:#333B3D"/>
	</linearGradient>
	<path class="st47" d="M843.2,465.6c-0.2-1.4-1.4-2.5-2.9-2.5c-4.3-0.1-11.4,2.6-19.1,7.1c-12.6,7.3-22.5,16.7-24.4,23
		c-0.3,1-0.3,2-0.1,3l0.6,3.3l47.1-27.2L843.2,465.6z"/>
	<g transform="translate(199.81 158.964)">
		<g transform="translate(0)">
			
				<linearGradient id="SVGID_40_" gradientUnits="userSpaceOnUse" x1="121.0713" y1="737.3654" x2="121.1663" y2="736.2194" gradientTransform="matrix(71.38 0 0 -66.5139 -8666.7656 43694.6016)">
				<stop  offset="0" style="stop-color:#282D30"/>
				<stop  offset="1" style="stop-color:#24292B"/>
			</linearGradient>
			<path class="st48" d="M462.5,293l-19.9-11.5c-0.8-0.5-1.3-1.3-1.4-2.2v-23.7c0-0.8,0.6-1,1.4-0.6l19.9,11.5
				c0.8,0.5,1.3,1.3,1.4,2.2v23.7C463.9,293.1,463.3,293.4,462.5,293z M486.9,307l-19.9-11.5c-0.8-0.5-1.3-1.3-1.4-2.2v-23.8
				c0-0.8,0.6-1,1.4-0.6l19.9,11.5c0.8,0.5,1.3,1.3,1.4,2.2v23.7C488.3,307.2,487.6,307.5,486.9,307L486.9,307z M511.2,321.1
				l-19.9-11.5c-0.8-0.5-1.3-1.3-1.4-2.2v-23.8c0-0.8,0.6-1,1.4-0.6l19.9,11.5c0.8,0.5,1.3,1.3,1.4,2.2v23.7
				C512.6,321.3,512,321.5,511.2,321.1L511.2,321.1z"/>
			
				<linearGradient id="SVGID_41_" gradientUnits="userSpaceOnUse" x1="124.6836" y1="699.1595" x2="124.7336" y2="698.3856" gradientTransform="matrix(174.78 0 0 -126.2411 -21820.9023 82897.5547)">
				<stop  offset="0" style="stop-color:#282D30"/>
				<stop  offset="1" style="stop-color:#24292B"/>
			</linearGradient>
			<path class="st49" d="M410.8,263.1l-19.9-11.5c-0.8-0.5-1.3-1.3-1.4-2.2v-23.7c0-0.8,0.6-1,1.4-0.6l19.9,11.5
				c0.8,0.5,1.3,1.3,1.4,2.2v23.7C412.2,263.3,411.5,263.6,410.8,263.1z M562.9,351L543,339.5c-0.8-0.5-1.3-1.3-1.4-2.2v-23.7
				c0-0.8,0.6-1,1.4-0.6l19.9,11.5c0.8,0.5,1.3,1.3,1.4,2.2v23.7C564.3,351.1,563.7,351.4,562.9,351z"/>
		</g>
		<g transform="translate(126.147 72.744)">
			
				<linearGradient id="SVGID_42_" gradientUnits="userSpaceOnUse" x1="-17.28" y1="668.3946" x2="-16.817" y2="666.4466" gradientTransform="matrix(22.648 0 0 -60.7387 313.6391 35452.7695)">
				<stop  offset="0" style="stop-color:#282D30"/>
				<stop  offset="1" style="stop-color:#24292B"/>
			</linearGradient>
			<path class="st50" d="M410.8,285.5L390.9,274c-0.8-0.5-1.3-1.3-1.4-2.2v-46.1c0-0.8,0.6-1,1.4-0.6l19.9,11.5
				c0.8,0.5,1.3,1.3,1.4,2.2v46.1C412.2,285.6,411.5,285.9,410.8,285.5z"/>
			
				<linearGradient id="SVGID_43_" gradientUnits="userSpaceOnUse" x1="61.9019" y1="579.382" x2="60.2209" y2="578.318" gradientTransform="matrix(1.05 0 0 -52.642 336.0056 30726.6641)">
				<stop  offset="0" style="stop-color:#869B9F"/>
				<stop  offset="1" style="stop-color:#71868B"/>
			</linearGradient>
			<path class="st51" d="M400.4,228.8c-0.3-0.1-0.5-0.3-0.8-0.5v52.2c0.3,0.2,0.7,0.3,1.1,0.5v-52
				C400.6,228.8,400.5,228.8,400.4,228.8z"/>
		</g>
		<g transform="translate(25.927 14.932)">
			
				<linearGradient id="SVGID_44_" gradientUnits="userSpaceOnUse" x1="83.1544" y1="725.3053" x2="83.6174" y2="723.3573" gradientTransform="matrix(22.6459 0 0 -60.7393 -1955.9308 38964.6172)">
				<stop  offset="0" style="stop-color:#282D30"/>
				<stop  offset="1" style="stop-color:#24292B"/>
			</linearGradient>
			<path class="st52" d="M410.8,285.5L390.9,274c-0.8-0.5-1.3-1.3-1.4-2.2v-46.1c0-0.8,0.6-1,1.4-0.6l19.9,11.5
				c0.8,0.5,1.3,1.3,1.4,2.2v46.1C412.2,285.6,411.6,285.9,410.8,285.5z"/>
			
				<linearGradient id="SVGID_45_" gradientUnits="userSpaceOnUse" x1="162.1198" y1="637.1927" x2="160.4388" y2="636.1287" gradientTransform="matrix(1.05 0 0 -52.642 230.8002 33770.0078)">
				<stop  offset="0" style="stop-color:#869B9F"/>
				<stop  offset="1" style="stop-color:#71868B"/>
			</linearGradient>
			<path class="st53" d="M400.4,228.8c-0.3-0.1-0.5-0.3-0.8-0.5v52.2c0.3,0.2,0.7,0.3,1.1,0.5v-52
				C400.6,228.8,400.5,228.8,400.4,228.8z"/>
		</g>
		
			<linearGradient id="SVGID_46_" gradientUnits="userSpaceOnUse" x1="107.9693" y1="796.0413" x2="108.2283" y2="794.3184" gradientTransform="matrix(22.674 0 0 -38.3925 -2361.5974 25299.5313)">
			<stop  offset="0" style="stop-color:#282D30"/>
			<stop  offset="1" style="stop-color:#24292B"/>
		</linearGradient>
		<path class="st54" d="M595.8,370l-19.9-11.5c-0.8-0.5-1.3-1.3-1.4-2.2v-23.8c0-0.8,0.6-1,1.4-0.6l12.8,7.4
			c2.4,1.4,4.1,3.8,4.6,6.6l4,23.5C597.2,370.1,596.6,370.4,595.8,370z"/>
		<path class="st12" d="M488.2,306.8c-0.2,0.5-0.7,0.6-1.3,0.3L467,295.6c-0.8-0.5-1.3-1.3-1.4-2.2v-23.7c0-0.4,0.2-0.7,0.6-0.8
			c0,0,0.1,0,0.1,0c0,0.1-0.1,0.2-0.1,0.3V293c0.1,0.9,0.6,1.7,1.4,2.2l19.9,11.5C487.7,306.7,487.9,306.8,488.2,306.8z
			 M463.1,292.5l-19.9-11.5c-0.8-0.5-1.3-1.3-1.4-2.2v-23.7c0-0.1,0-0.2,0.1-0.3c-0.4,0-0.7,0.3-0.7,0.7c0,0,0,0.1,0,0.1v23.7
			c0.1,0.9,0.6,1.7,1.4,2.2l19.9,11.5c0.6,0.4,1.1,0.2,1.3-0.3C463.6,292.7,463.3,292.7,463.1,292.5z M411.4,262.7l-19.9-11.5
			c-0.8-0.5-1.3-1.3-1.4-2.2v-23.8c0-0.1,0-0.2,0.1-0.3c-0.4,0-0.7,0.3-0.7,0.7c0,0,0,0.1,0,0.1v23.7c0.1,0.9,0.6,1.7,1.4,2.2
			l19.9,11.5c0.6,0.4,1.1,0.2,1.3-0.3C411.9,262.9,411.6,262.8,411.4,262.7z M511.8,320.7l-19.9-11.5c-0.8-0.5-1.3-1.3-1.4-2.2
			v-23.8c0-0.1,0-0.2,0.1-0.3c-0.4,0-0.7,0.3-0.7,0.7c0,0,0,0.1,0,0.1v23.7c0.1,0.9,0.6,1.7,1.4,2.2l19.9,11.5
			c0.6,0.4,1.1,0.2,1.3-0.3C512.3,320.9,512,320.8,511.8,320.7L511.8,320.7z M596.5,369.5L576.6,358c-0.8-0.5-1.3-1.3-1.4-2.2v-23.7
			c0-0.1,0-0.2,0.1-0.3c-0.4,0-0.7,0.3-0.7,0.7c0,0,0,0.1,0,0.1v23.7c0.1,0.9,0.6,1.7,1.4,2.2l19.9,11.5c0.6,0.4,1.1,0.2,1.3-0.3
			C596.9,369.7,596.7,369.7,596.5,369.5L596.5,369.5z M563.6,350.5L543.6,339c-0.8-0.5-1.3-1.3-1.4-2.2v-23.7c0-0.1,0-0.2,0.1-0.3
			c-0.4,0-0.7,0.3-0.7,0.7c0,0,0,0.1,0,0.1v23.8c0.1,0.9,0.6,1.7,1.4,2.2L563,351c0.6,0.4,1.1,0.2,1.3-0.3
			C564,350.7,563.8,350.6,563.6,350.5z"/>
	</g>
</g>
<line class="st13" x1="796.3" y1="563.8" x2="66.3" y2="141.6"/>
</svg>
