<svg id="Group_4013" data-name="Group 4013" xmlns="http://www.w3.org/2000/svg" width="178.125" height="129.535" viewBox="0 0 178.125 129.535">
  <path id="Path_1598" data-name="Path 1598" d="M149.268,78.908l-9.691-5.588-.386,5.552,9.691,5.6Z" transform="translate(28.797 15.169)" fill="#414042"/>
  <path id="Path_1599" data-name="Path 1599" d="M118.445,43.38l-.072-1.122-.1-2.728-8.8,4.84-.048.748v.012h0v.024l.024-.012.531.253,3.572-1.895v2.028l.724.036.048-.024v.072Z" transform="translate(22.64 8.178)" fill="#58595b"/>
  <path id="Path_1600" data-name="Path 1600" d="M3.8,35.67l5.19,3.669-.024,5.479L0,37.83Z" transform="translate(0 7.38)" fill="#414042"/>
  <path id="Path_1601" data-name="Path 1601" d="M62.492,10.734,45.426,5.11,2.98,29.417l17.065,5.624Z" transform="translate(0.617 1.057)" fill="#4fb848"/>
  <path id="Path_1602" data-name="Path 1602" d="M118.846,28.4,70.148,0,27.69,24.307l48.7,28.386Z" transform="translate(5.729)" fill="#4fb848"/>
  <path id="Path_1603" data-name="Path 1603" d="M119.026,28.836,70.316.45,27.87,24.757l48.7,28.386Z" transform="translate(5.766 0.093)" fill="#7dc35e"/>
  <path id="Path_1604" data-name="Path 1604" d="M153.673,69.69,108.065,96.012l-2.245,16.2,45.62-26.334Z" transform="translate(21.893 14.418)" fill="#4fb848"/>
  <path id="Path_1605" data-name="Path 1605" d="M151.577,71.34l-42.06,24.391-1.617,9.788,42.06-24.391Z" transform="translate(22.323 14.759)" fill="#58595b"/>
  <path id="Path_1606" data-name="Path 1606" d="M121.8,46.78C108.083,58.837,98.029,64.087,77.5,72.161l36.291,28.627L159.4,74.454l-.422-2.052Z" transform="translate(16.034 9.678)" fill="#4fb848"/>
  <path id="Path_1607" data-name="Path 1607" d="M110.865,23.69,68.25,47.743l8.991,32.4c21.06-7.881,33.66-15.34,47.177-27.529Z" transform="translate(14.12 4.901)" fill="#4fb848"/>
  <path id="Path_1608" data-name="Path 1608" d="M109.589,25.72,70.16,48.385,80.322,75.4c18.634-7.265,30.172-13.577,41.71-24.258Z" transform="translate(14.515 5.321)" fill="#303030"/>
  <path id="Path_1609" data-name="Path 1609" d="M108.9,26.7,70.71,48.641l9.836,26.153c18.055-7.036,29.219-13.155,40.395-23.486Z" transform="translate(14.629 5.524)" fill="#3a3a3a"/>
  <path id="Path_1610" data-name="Path 1610" d="M88.517,80.23,78.5,84.949l2.281,10.669L88.517,90.9Z" transform="translate(16.241 16.599)" fill="#7a7a7a"/>
  <path id="Path_1611" data-name="Path 1611" d="M99.392,105.79c1.328-.917,2.124-2.679,2.1-5.117-.036-5.2-3.753-11.5-8.3-14.084-2.028-1.159-3.874-1.364-5.3-.784-.253.1-3.874,2.245-4.031,2.366-1.279.929-2.064,2.667-2.04,5.081.036,5.2,3.753,11.5,8.3,14.084,2.148,1.219,4.1,1.388,5.564.676Z" transform="translate(16.928 17.687)" fill="#272727"/>
  <path id="Path_1612" data-name="Path 1612" d="M81.17,93.29c.036,5.2,3.753,11.5,8.3,14.084s8.207.459,8.171-4.731-3.753-11.514-8.3-14.084S81.122,88.088,81.17,93.29Z" transform="translate(16.793 18.094)" fill="#383838"/>
  <path id="Path_1613" data-name="Path 1613" d="M83.2,94.388a12.434,12.434,0,0,0,5.709,9.691c3.126,1.774,5.648.314,5.624-3.259a12.415,12.415,0,0,0-5.721-9.691C85.686,89.356,83.176,90.8,83.2,94.388Z" transform="translate(17.213 18.697)" fill="#c3c3c3"/>
  <path id="Path_1614" data-name="Path 1614" d="M22.708,38.79,11.58,44.245l2.534,10.5,8.593-5.286Z" transform="translate(2.396 8.025)" fill="#7a7a7a"/>
  <path id="Path_1615" data-name="Path 1615" d="M32.752,67.38c1.316-.917,2.112-2.679,2.1-5.117-.036-5.2-3.753-11.5-8.3-14.084-2.028-1.159-3.874-1.364-5.31-.784-.241.1-3.862,2.245-4.019,2.365-1.291.929-2.064,2.667-2.04,5.069.036,5.2,3.753,11.5,8.3,14.084,2.148,1.219,4.1,1.388,5.564.676Z" transform="translate(3.14 9.74)" fill="#272727"/>
  <path id="Path_1616" data-name="Path 1616" d="M14.52,54.89c.036,5.2,3.753,11.5,8.3,14.084s8.207.459,8.171-4.731-3.753-11.5-8.3-14.084S14.484,49.688,14.52,54.89Z" transform="translate(3.004 10.149)" fill="#383838"/>
  <path id="Path_1617" data-name="Path 1617" d="M16.55,55.988a12.434,12.434,0,0,0,5.709,9.691c3.126,1.774,5.648.314,5.624-3.259a12.434,12.434,0,0,0-5.709-9.691C19.048,50.955,16.526,52.416,16.55,55.988Z" transform="translate(3.424 10.753)" fill="#c3c3c3"/>
  <path id="Path_1618" data-name="Path 1618" d="M90.882,76.545,78.5,54.882,35.824,29.959,18.24,32.735,2.9,25.18V44.84l8.448,9.933,4.272,2.74c.41-5.6,4.671-7.736,9.86-4.731,5.467,3.15,9.9,10.79,9.9,17.065,0,.326-.012.628-.036.929l60.707,34.976.253.109c-.024-.314-.036-.628-.036-.929,0-6.264,4.429-8.8,9.9-5.636,5.033,2.909,9.2,9.631,9.812,15.569l11.2,6.469,2.257-16.221Z" transform="translate(0.6 5.209)" fill="#367c3c"/>
  <path id="Path_1619" data-name="Path 1619" d="M89.543,75.2,81.77,48.482,32.867,20.12,16.514,30.427,2.9,26.227l126.506,79.908-.555-1.931Z" transform="translate(0.6 4.163)" fill="#367c3c"/>
  <path id="Path_1620" data-name="Path 1620" d="M154.14,77.64l-48.65,28.2,1.436.845,48.65-28.2Z" transform="translate(21.825 16.063)" fill="#414042"/>
  <path id="Path_1621" data-name="Path 1621" d="M112.305,101.233l-4.441.217-8.038-4.61L97.4,98.445l11.731,9.546Z" transform="translate(20.151 20.035)" fill="#414042"/>
  <path id="Path_1622" data-name="Path 1622" d="M107.145,103.678,97.454,98.09l-.374,5.552,9.679,5.6Z" transform="translate(20.085 20.294)" fill="#58595b"/>
  <path id="Path_1623" data-name="Path 1623" d="M3.351,37.31l5.2,2.993-.024,4.671L5.885,46.446.72,38.239Z" transform="translate(0.149 7.719)" fill="#414042"/>
  <path id="Path_1624" data-name="Path 1624" d="M0,37.46l6.071,3.512v5.467L0,42.939Z" transform="translate(0 7.75)" fill="#58595b"/>
  <path id="Path_1625" data-name="Path 1625" d="M77.608,49.727,38.312,26.7,25.76,40.386,83.872,74.432Z" transform="translate(5.329 5.524)" fill="#3a3a3a"/>
  <path id="Path_1626" data-name="Path 1626" d="M56.1,38.334,51.787,35.8,48.54,53.264l4.309,2.522Z" transform="translate(10.042 7.407)" fill="#3a3a3a"/>
  <path id="Path_1627" data-name="Path 1627" d="M55.091,36.377,53.028,35.17,49.25,55.482l2.064,1.207Z" transform="translate(10.189 7.276)" fill="#367c3c"/>
  <path id="Path_1628" data-name="Path 1628" d="M74.153,66.292l-.76-.652L72.21,69.659l.76.664Z" transform="translate(14.939 13.58)" fill="#7a7a7a"/>
  <path id="Path_1629" data-name="Path 1629" d="M49.586,51.9l-.748-.6L47.8,54l.338.519Z" transform="translate(9.889 10.613)" fill="#7a7a7a"/>
  <path id="Path_1630" data-name="Path 1630" d="M27.537,38.917,25.956,38l-.616,1.641.4.688Z" transform="translate(5.243 7.862)" fill="#7a7a7a"/>
  <path id="Path_1631" data-name="Path 1631" d="M152.8,67.99,107.29,94.3l.507,2.052,45.524-26.3Z" transform="translate(22.197 14.066)" fill="#7dc35e"/>
  <path id="Path_1632" data-name="Path 1632" d="M156.381,77.94l-51.281,29.8v5.624l51.281-29.8Z" transform="translate(21.744 16.125)" fill="#58595b"/>
  <path id="Path_1633" data-name="Path 1633" d="M105.255,26.888l-.567-.338L92.45,33.586l21.64,12.684Z" transform="translate(19.127 5.493)" fill="#525252"/>
  <path id="Path_1634" data-name="Path 1634" d="M103.282,26.41h-.712L106.9,45.479h.712Z" transform="translate(21.221 5.464)" fill="#3a3a3a"/>
  <path id="Path_1635" data-name="Path 1635" d="M94.37,77.776,16.514,29.38,2.9,25.18l126.506,79.908-.555-1.931Z" transform="translate(0.6 5.209)" fill="#367c3c"/>
  <path id="Path_1636" data-name="Path 1636" d="M3.27,30.84v3.584L128.412,110.47l.507-3.56Z" transform="translate(0.677 6.38)" fill="#f1f2f2"/>
  <g id="Group_4011" data-name="Group 4011" transform="translate(79.45 78.496)">
    <path id="Path_1637" data-name="Path 1637" d="M73.1,65.04,65.83,69.18v4.055l.893.386,4.3-5.359,2.921-2.776Z" transform="translate(-65.83 -65.04)" fill="#58595b"/>
    <path id="Path_1638" data-name="Path 1638" d="M73.805,65.39,66.54,69.53V73.6l4.912-2.824L71.9,67.49l1.883-1.34Z" transform="translate(-65.683 -64.968)" fill="#58595b"/>
  </g>
  <path id="Path_1639" data-name="Path 1639" d="M43.575,72.731,40.98,56.86l11.49,6.976,2.9,15.69" transform="translate(8.478 11.764)" fill="#efb632"/>
  <path id="Path_1640" data-name="Path 1640" d="M67.345,87.211,64.75,71.34l11.49,6.988,2.884,15.69" transform="translate(13.396 14.759)" fill="#efb632"/>
  <path id="Path_1641" data-name="Path 1641" d="M90.923,97.289,29.42,61.77l.072,2.136L91,99.413Z" transform="translate(6.087 12.779)" fill="#646464"/>
  <path id="Path_1642" data-name="Path 1642" d="M75.051,86.424,30.3,60.56l.072,2.136L75.462,88.717Z" transform="translate(6.269 12.529)" fill="#efb632"/>
  <path id="Path_1643" data-name="Path 1643" d="M90.835,91.677,29.32,56.17l.072,2.136L90.908,93.813Z" transform="translate(6.066 11.621)" fill="#58595b"/>
  <path id="Path_1644" data-name="Path 1644" d="M11.8,52.448l2.305,1.641C15.964,42.962,32.462,51.531,33.15,66.1a9.693,9.693,0,0,0,1.291.7C34.453,48.767,13.1,36.324,11.8,52.448Z" transform="translate(2.441 9.308)" fill="#58595b"/>
  <path id="Path_1645" data-name="Path 1645" d="M78.33,91.86l2.353,1.352c1.436-12.274,18.248-4.176,19.322,9.414a11.657,11.657,0,0,0,1.4.784C101.418,85.379,79.658,75.567,78.33,91.86Z" transform="translate(16.206 17.291)" fill="#58595b"/>
</svg>
