<svg id="Group_4021" data-name="Group 4021" xmlns="http://www.w3.org/2000/svg" width="286.13" height="230.31" viewBox="0 0 286.13 230.31">
  <path id="Path_1715" data-name="Path 1715" d="M6.911,53.88,0,57.37v1.607l6.911-3.49Z" transform="translate(0 39.205)" fill="#7f686c"/>
  <path id="Path_1716" data-name="Path 1716" d="M19.56,70.257l8.483-3.87-8.1-1.538Z" transform="translate(14.232 47.187)" fill="#3a3a3a"/>
  <path id="Path_1717" data-name="Path 1717" d="M162.694,114.21l-2.574-1.52.449,2.781Z" transform="translate(116.508 81.996)" fill="#a6d494"/>
  <path id="Path_1718" data-name="Path 1718" d="M108.4,122.1l8.172-4.613-9.139-1.728Z" transform="translate(78.169 84.23)" fill="#525252"/>
  <path id="Path_1719" data-name="Path 1719" d="M127.444,129.756a15.506,15.506,0,0,0-6.893-12.214c-2.021-1.209-3.853-1.278-5.148-.449l.017-.242-4.544,2.764c-1.589.553-2.609,2.211-2.626,4.734a15.506,15.506,0,0,0,6.893,12.214c2.194,1.3,4.164,1.3,5.459.225l4.319-2.332C126.442,133.833,127.41,132.209,127.444,129.756Z" transform="translate(78.765 84.798)" fill="#4a3437"/>
  <path id="Path_1720" data-name="Path 1720" d="M125.247,129.758a15.506,15.506,0,0,0-6.893-12.214c-3.853-2.3-7.031-.518-7.083,3.939a15.506,15.506,0,0,0,6.893,12.214C122.016,135.977,125.195,134.215,125.247,129.758Z" transform="translate(80.963 84.796)" fill="#4a3437"/>
  <path id="Path_1721" data-name="Path 1721" d="M122.227,131.4a15.506,15.506,0,0,0-6.893-12.214c-3.87-2.28-7.031-.518-7.083,3.939a15.506,15.506,0,0,0,6.893,12.214C119,137.624,122.175,135.862,122.227,131.4Z" transform="translate(78.765 86)" fill="#4a3437"/>
  <path id="Path_1722" data-name="Path 1722" d="M114.97,130.779l5.58-3.006-4.077-2.453Z" transform="translate(83.655 91.186)" fill="#4a3437"/>
  <path id="Path_1723" data-name="Path 1723" d="M114.156,121.185l-4.786-1.313,5.235-3.162Z" transform="translate(79.581 84.921)" fill="#4a3437"/>
  <path id="Path_1724" data-name="Path 1724" d="M118.963,129.282a10.921,10.921,0,0,0-4.837-8.586c-2.712-1.607-4.941-.363-4.976,2.764A10.872,10.872,0,0,0,114,132.046C116.7,133.636,118.929,132.409,118.963,129.282Z" transform="translate(79.42 87.31)" fill="#bcbec0"/>
  <path id="Path_1725" data-name="Path 1725" d="M116.3,128.937a13.608,13.608,0,0,1,1.987,2.747,4.254,4.254,0,0,0,.674-2.4,10.921,10.921,0,0,0-4.837-8.586c-2.712-1.607-4.941-.363-4.976,2.764a8.7,8.7,0,0,0,.19,1.745A10.982,10.982,0,0,1,116.3,128.937Z" transform="translate(79.421 87.31)" fill="#bcbec0"/>
  <path id="Path_1726" data-name="Path 1726" d="M119.5,117.532c-2.021-1.209-3.853-1.278-5.148-.449l.017-.242-4.544,2.764a1.193,1.193,0,0,0-.138.052c3.611-1.8,14.961,7.774,10.659,16.689l3.524-1.9c1.52-.587,2.488-2.229,2.522-4.682A15.538,15.538,0,0,0,119.5,117.532Z" transform="translate(79.813 84.791)" fill="#382528"/>
  <path id="Path_1727" data-name="Path 1727" d="M39.051,78.294a15.506,15.506,0,0,0-6.893-12.214c-2.021-1.192-3.853-1.278-5.148-.449l.017-.242-4.544,2.764c-1.589.553-2.609,2.211-2.643,4.734A15.478,15.478,0,0,0,26.751,85.1c2.194,1.3,4.164,1.3,5.459.225l4.319-2.332C38.049,82.388,39.034,80.747,39.051,78.294Z" transform="translate(14.436 47.357)" fill="#4a3437"/>
  <path id="Path_1728" data-name="Path 1728" d="M36.847,78.3a15.506,15.506,0,0,0-6.893-12.214c-3.853-2.3-7.031-.536-7.083,3.939a15.506,15.506,0,0,0,6.893,12.214C33.633,84.518,36.795,82.756,36.847,78.3Z" transform="translate(16.641 47.351)" fill="#4a3437"/>
  <path id="Path_1729" data-name="Path 1729" d="M33.827,79.954A15.506,15.506,0,0,0,26.934,67.74c-3.87-2.28-7.031-.518-7.083,3.939a15.478,15.478,0,0,0,6.911,12.214C30.613,86.174,33.775,84.412,33.827,79.954Z" transform="translate(14.443 48.564)" fill="#4a3437"/>
  <path id="Path_1730" data-name="Path 1730" d="M26.57,79.329l5.6-3.023L28.073,73.87Z" transform="translate(19.333 53.75)" fill="#4a3437"/>
  <path id="Path_1731" data-name="Path 1731" d="M25.748,69.735,20.98,68.422,26.2,65.26Z" transform="translate(15.266 47.485)" fill="#4a3437"/>
  <path id="Path_1732" data-name="Path 1732" d="M30.563,77.822a10.9,10.9,0,0,0-4.837-8.586c-2.712-1.607-4.941-.363-4.976,2.764A10.872,10.872,0,0,0,25.6,80.586C28.3,82.193,30.529,80.966,30.563,77.822Z" transform="translate(15.098 49.867)" fill="#bcbec0"/>
  <path id="Path_1733" data-name="Path 1733" d="M27.9,77.477a13.608,13.608,0,0,1,1.987,2.747,4.254,4.254,0,0,0,.674-2.4,10.9,10.9,0,0,0-4.837-8.586c-2.712-1.607-4.941-.363-4.976,2.764a8.7,8.7,0,0,0,.19,1.745A11.024,11.024,0,0,1,27.9,77.477Z" transform="translate(15.098 49.867)" fill="#bcbec0"/>
  <path id="Path_1734" data-name="Path 1734" d="M31.1,66.079c-2.021-1.192-3.853-1.278-5.148-.449l.017-.242-4.544,2.764a1.193,1.193,0,0,0-.138.052c3.611-1.8,14.961,7.774,10.659,16.689l3.524-1.918c1.52-.587,2.488-2.229,2.522-4.682A15.532,15.532,0,0,0,31.1,66.079Z" transform="translate(15.491 47.357)" fill="#382528"/>
  <path id="Path_1735" data-name="Path 1735" d="M276.406,131.144,49.379,0,1.8,25.863,229.173,157.888Z" transform="translate(1.31)" fill="#fff"/>
  <path id="Path_1736" data-name="Path 1736" d="M169.4,83.767a.632.632,0,0,0-.432-.052,1.553,1.553,0,0,0-.173-.155.593.593,0,0,0-.587,0l-1.158.622c-.5-1.5-2-2.626-6.669-1.779l-.38.777c4.233-.76,5.7.138,6.219,1.451l-1.9,1.037a1.127,1.127,0,0,0-.587.985V97.295a.534.534,0,0,0,.294.484.632.632,0,0,0,.432.052,1.556,1.556,0,0,0,.173.155.593.593,0,0,0,.587,0l3.974-2.16a.991.991,0,0,0,.518-.847V84.251A.61.61,0,0,0,169.4,83.767Z" transform="translate(116.42 59.747)" fill="#525252"/>
  <path id="Path_1737" data-name="Path 1737" d="M181.8,76.74l-49.289,27.141-1.779,55.7,1.779,14.1L181.8,146.07Z" transform="translate(95.123 55.838)" fill="#4fb848"/>
  <path id="Path_1738" data-name="Path 1738" d="M181.049,80.82,131.76,109.291V155.92l49.289-28.454Z" transform="translate(95.872 58.807)" fill="#0f0f0f"/>
  <path id="Path_1739" data-name="Path 1739" d="M183.111,113.56,132.06,143.033v4.647l51.051-29.473Z" transform="translate(96.09 82.629)" fill="#4fb848"/>
  <path id="Path_1740" data-name="Path 1740" d="M181.4,80.55,131.25,109l.864,43.122L181.4,123.672Z" transform="translate(95.501 58.61)" fill="#0f0f0f"/>
  <path id="Path_1741" data-name="Path 1741" d="M179.214,82.49l-46.4,26.8v38.492l46.4-26.8Z" transform="translate(96.636 60.022)" fill="#525252"/>
  <path id="Path_1742" data-name="Path 1742" d="M171.378,115.038l-27.8-16.568,27.8-15.981Z" transform="translate(104.473 60.022)" fill="#3a3a3a"/>
  <path id="Path_1743" data-name="Path 1743" d="M181.237,75.83l-47.268,26.692-1.589,9.554,49.289-28.454Z" transform="translate(96.323 55.176)" fill="#0f0f0f"/>
  <path id="Path_1744" data-name="Path 1744" d="M41.324,99.093c4.475,2.419,6.116,7.256,6.669,11.178l138.521,79.972c.553-3.283,3.2-4.786,6.53-2.937,5.718,3.162,7.532,7.412,8.085,11.333l26.122,15.117V197.464l-3.542-53.816L.5,21.35.6,82.905l33.067,19C34.206,98.627,37,96.761,41.324,99.093Z" transform="translate(0.364 15.535)" fill="#ed9e34"/>
  <path id="Path_1745" data-name="Path 1745" d="M227.295,194.547v-3.956L225.6,159.148.44,27.71V63.437L95.667,118.48,114.2,129.191Z" transform="translate(0.32 20.163)" fill="#4fb848"/>
  <path id="Path_1746" data-name="Path 1746" d="M223.5,149.4,5.66,23.65V58.583l91.7,52.917,16.084,18.486L223.5,193.528Z" transform="translate(4.118 17.208)" fill="#0f0f0f"/>
  <path id="Path_1747" data-name="Path 1747" d="M183.51,113.766l-2.246-.466L131.56,142l1.572.864Z" transform="translate(95.727 82.44)" fill="#a6d494"/>
  <path id="Path_1748" data-name="Path 1748" d="M135.795,130.185l-3.092-.052-1.33-.743-1,.587,2.937,1.624Z" transform="translate(94.861 94.148)" fill="#a6d494"/>
  <path id="Path_1749" data-name="Path 1749" d="M133.282,131.379l-2.9-1.659v4.544l2.9,1.659Z" transform="translate(94.868 94.388)" fill="#367c3c"/>
  <path id="Path_1750" data-name="Path 1750" d="M137.584,101.321,120.36,91.37V130.9l17.224,9.951Z" transform="translate(87.577 66.483)" fill="#1e1e1e"/>
  <path id="Path_1751" data-name="Path 1751" d="M97.1,77.82,59.77,56.38v29.4l14.65,17.6L97.052,117.21Z" transform="translate(43.49 41.024)" fill="#1e1e1e"/>
  <path id="Path_1752" data-name="Path 1752" d="M69.438,61.949,43.42,46.97V76.806L69.438,91.785Z" transform="translate(31.594 34.177)" fill="#1e1e1e"/>
  <path id="Path_1753" data-name="Path 1753" d="M33.1,40.8,6.41,25.82V55.656L33.1,70.635Z" transform="translate(4.664 18.787)" fill="#414042"/>
  <path id="Path_1754" data-name="Path 1754" d="M2.707,14.86,230.633,146.453l-2.3,11.2L.53,26.055Z" transform="translate(0.386 10.813)" fill="#ed9e34"/>
  <path id="Path_1755" data-name="Path 1755" d="M103.727,83.073,81.7,70.34v58.048L103.727,141.1Z" transform="translate(59.447 51.181)" fill="#0f0f0f"/>
  <path id="Path_1756" data-name="Path 1756" d="M34.276,75.847,0,55.91v1.538L34.017,77.229A7.866,7.866,0,0,1,34.276,75.847Z" transform="translate(0 40.682)" fill="#634e39"/>
  <path id="Path_1757" data-name="Path 1757" d="M116.42,123.4a14.9,14.9,0,0,1,.259,1.693l26.709,15.393v-1.538Z" transform="translate(84.71 89.789)" fill="#367c3c"/>
  <path id="Path_1758" data-name="Path 1758" d="M137.457,98.13l-.777,5.287,34.57-19.954L170.8,79.23Z" transform="translate(99.452 57.65)" fill="#525252"/>
  <path id="Path_1759" data-name="Path 1759" d="M132.7,111.957l46.594-7.187-46.4,26.8Z" transform="translate(96.556 76.234)" fill="#1e1e1e"/>
  <rect id="Rectangle_196" data-name="Rectangle 196" width="1.71" height="39.822" transform="translate(254.22 153.983)" fill="#0f0f0f"/>
  <path id="Path_1760" data-name="Path 1760" d="M138.545,123.5l-6.755,3.9v5.788l6.755-3.9Z" transform="translate(95.894 89.862)" fill="#4a3437"/>
  <path id="Path_1761" data-name="Path 1761" d="M163.145,109.06l-6.755,3.9v5.788l6.755-3.9Z" transform="translate(113.794 79.355)" fill="#4a3437"/>
  <path id="Path_1762" data-name="Path 1762" d="M130.732,126.406l-2.522-1.486v1.589l2.522,1.468Z" transform="translate(93.289 90.895)" fill="#4a3437"/>
  <path id="Path_1763" data-name="Path 1763" d="M94.74,116.188l42.569,24.48V101.14L94.74,76.66Z" transform="translate(68.935 55.78)" fill="#1e1e1e"/>
  <path id="Path_1764" data-name="Path 1764" d="M56.521,54.575,22.85,35.07V64.906l33.671,19.5Z" transform="translate(16.626 25.518)" fill="#414042"/>
  <path id="Path_1765" data-name="Path 1765" d="M102.31,81.017,82.2,69.39l.173,53.591,20.11,11.61Z" transform="translate(59.811 50.49)" fill="#1e1e1e"/>
  <path id="Path_1766" data-name="Path 1766" d="M137.584,133.857V113.125L120.36,100.98v22.926Z" transform="translate(87.577 73.476)" fill="#1e1e1e"/>
  <path id="Path_1767" data-name="Path 1767" d="M59.77,58.23V84.265l37.282,29.8L97.1,84.559Z" transform="translate(43.49 42.37)" fill="#1e1e1e"/>
  <path id="Path_1768" data-name="Path 1768" d="M47.031,49.043,43.42,46.97V69.9L69.438,90.7V64.851Z" transform="translate(31.594 34.177)" fill="#1e1e1e"/>
  <path id="Path_1769" data-name="Path 1769" d="M6.41,25.82v8.362L33.1,55.518V40.8Z" transform="translate(4.664 18.787)" fill="#1e1e1e"/>
  <path id="Path_1770" data-name="Path 1770" d="M137.309,136.128v-23.2L94.74,82.9v28.748Z" transform="translate(68.935 60.32)" fill="#1e1e1e"/>
  <path id="Path_1771" data-name="Path 1771" d="M22.85,35.07V50.152l33.671,26.9V54.575Z" transform="translate(16.626 25.518)" fill="#1e1e1e"/>
  <path id="Path_1772" data-name="Path 1772" d="M82.22,74.07l.086,29.732,20.127,16.084-.1-31.633Z" transform="translate(59.826 53.895)" fill="#1e1e1e"/>
  <rect id="Rectangle_197" data-name="Rectangle 197" width="1.244" height="55.63" transform="translate(151.306 125.184)" fill="#0f0f0f"/>
  <path id="Path_1773" data-name="Path 1773" d="M160.709,109.54l-1.659.933v4.561l1.659-.985Z" transform="translate(115.729 79.704)" fill="#dadada"/>
  <g id="Group_4019" data-name="Group 4019" transform="translate(2.972 25.448)">
    <path id="Path_1774" data-name="Path 1774" d="M2.307,14.73l-.536.207-.052.656L35.236,34.943V33.734Z" transform="translate(-1.72 -14.73)" fill="#ed9e34"/>
    <path id="Path_1775" data-name="Path 1775" d="M215.34,137.853,21.12,25.73v1.209L215.34,139.08Z" transform="translate(12.396 -6.726)" fill="#ed9e34"/>
  </g>
  <path id="Path_1776" data-name="Path 1776" d="M134.314,125.18l-2.194,1.261v4.6l2.194-1.3Z" transform="translate(96.134 91.084)" fill="#dadada"/>
  <path id="Path_1777" data-name="Path 1777" d="M130.916,102.668a.66.66,0,0,0-.311-.553.616.616,0,0,0-.622,0l-4.164,2.384a1.256,1.256,0,0,0-.639,1.106v12.007a.66.66,0,0,0,.311.553.578.578,0,0,0,.622,0l4.25-2.419a1.075,1.075,0,0,0,.553-.95V102.668Z" transform="translate(91.084 74.241)" fill="#525252"/>
  <path id="Path_1778" data-name="Path 1778" d="M131.286,102.811a.66.66,0,0,0-.311-.553.578.578,0,0,0-.622,0l-4.164,2.384a1.256,1.256,0,0,0-.639,1.106v12.007a.66.66,0,0,0,.311.553.578.578,0,0,0,.622,0l4.25-2.419a1.075,1.075,0,0,0,.553-.95V102.811Z" transform="translate(91.354 74.34)" fill="#525252"/>
  <g id="Group_4020" data-name="Group 4020" transform="translate(218.977 170.586)">
    <path id="Path_1779" data-name="Path 1779" d="M127.458,108.259h-.708v-.207c0-2.522-.017-5.978,6.064-9.312l.346.622c-5.718,3.144-5.7,6.237-5.7,8.707Z" transform="translate(-126.75 -98.74)" fill="#525252"/>
  </g>
  <path id="Path_1780" data-name="Path 1780" d="M54.725,53.165,32.68,40.45v60.311l22.045,12.733Z" transform="translate(23.779 29.433)" fill="#0f0f0f"/>
  <path id="Path_1781" data-name="Path 1781" d="M53.3,52.43,33.19,40.82l.173,53.574L53.472,106Z" transform="translate(24.15 29.702)" fill="#414042"/>
  <path id="Path_1782" data-name="Path 1782" d="M53.3,52.43,33.19,40.82l.069,19.4,20.127,16Z" transform="translate(24.15 29.702)" fill="#1e1e1e"/>
  <rect id="Rectangle_198" data-name="Rectangle 198" width="1.244" height="55.63" transform="translate(66.617 75.808)" fill="#0f0f0f"/>
  <path id="Path_1783" data-name="Path 1783" d="M166.793,152.535,27.84,72.2a14.9,14.9,0,0,1,.259,1.693l138.435,80.041A5.6,5.6,0,0,1,166.793,152.535Z" transform="translate(20.257 52.535)" fill="#367c3c"/>
</svg>
