<svg xmlns="http://www.w3.org/2000/svg" xmlns:xlink="http://www.w3.org/1999/xlink" width="600.296" height="248.527" viewBox="0 0 600.296 248.527">
  <defs>
    <filter id="Path_385" x="0" y="0" width="600.296" height="248.527" filterUnits="userSpaceOnUse">
      <feOffset dy="3" input="SourceAlpha"/>
      <feGaussianBlur stdDeviation="3" result="blur"/>
      <feFlood flood-opacity="0.502"/>
      <feComposite operator="in" in2="blur"/>
      <feComposite in="SourceGraphic"/>
    </filter>
  </defs>
  <g transform="matrix(1, 0, 0, 1, 0, 0)" filter="url(#Path_385)">
    <path id="Path_385-2" data-name="Path 385" d="M14671.717,11619.516s60.06,7.3,78.224-8.415,26.112-31.572,46.848-18.842,45.523,15.37,64.96-2.3,24.991-24.6,44.043-25.531,25.019-3.9,34.8,4.5,14.994,16.545,22.785,17.935,18.905,11.256,26.739,17.162,35.44,24.188,47.283,32.233,25.17,20.66,43.954,23.422,16.718,28.705,16.718,28.705c.517,0-4.22,42.095,51.448,51.767s50.808,34.89,50.808,34.89,4.766,13.375,11.795,11.5,17.884-11.5,17.884-11.5,6.894-7.434,16.222-8.544" transform="translate(-14658.82 -11553.72)" fill="none" stroke="#FF7F00"  stroke-width="5" stroke-dasharray="10 10"/>
  </g>
</svg>
