<svg xmlns="http://www.w3.org/2000/svg" xmlns:xlink="http://www.w3.org/1999/xlink" width="98.28" height="69.392" viewBox="0 0 98.28 69.392">
  <defs>
    <filter id="Path_390" x="45.472" y="17.036" width="51.904" height="43.214" filterUnits="userSpaceOnUse">
      <feOffset dy="3" input="SourceAlpha"/>
      <feGaussianBlur stdDeviation="3" result="blur"/>
      <feFlood flood-opacity="0.502"/>
      <feComposite operator="in" in2="blur"/>
      <feComposite in="SourceGraphic"/>
    </filter>
    <filter id="Path_391" x="61.632" y="26.438" width="34.495" height="31.638" filterUnits="userSpaceOnUse">
      <feOffset dy="3" input="SourceAlpha"/>
      <feGaussianBlur stdDeviation="3" result="blur-2"/>
      <feFlood flood-opacity="0.502"/>
      <feComposite operator="in" in2="blur-2"/>
      <feComposite in="SourceGraphic"/>
    </filter>
    <filter id="Path_389" x="0" y="0" width="98.28" height="69.392" filterUnits="userSpaceOnUse">
      <feOffset dy="3" input="SourceAlpha"/>
      <feGaussianBlur stdDeviation="3" result="blur-3"/>
      <feFlood flood-opacity="0.502"/>
      <feComposite operator="in" in2="blur-3"/>
      <feComposite in="SourceGraphic"/>
    </filter>
  </defs>
  <g id="Group_611" data-name="Group 611" transform="translate(-1179.989 -658.288)">
    <g transform="matrix(1, 0, 0, 1, 1179.99, 658.29)" filter="url(#Path_390)">
      <path id="Path_390-2" data-name="Path 390" d="M757.381,3249.909s-7.881-6.82-10.014-4.588-14.02,16.285-14.02,16.285" transform="translate(-673.94 -3218.29)" fill="none" stroke="#00f5ff" stroke-width="5"/>
    </g>
    <g transform="matrix(1, 0, 0, 1, 1179.99, 658.29)" filter="url(#Path_391)">
      <path id="Path_391-2" data-name="Path 391" d="M745.411,3252.517l6.915,4.058" transform="translate(-669.99 -3215.29)" fill="none" stroke="#00f5ff" stroke-width="5"/>
    </g>
    <g transform="matrix(1, 0, 0, 1, 1179.99, 658.29)" filter="url(#Path_389)">
      <path id="Path_389-2" data-name="Path 389" d="M686.588,3228.326s-.668,3.919,3.556,7.517,38.06,27.5,44.037,30.108,19.987,5.757,25.406,6.047" transform="translate(-673.99 -3218.29)" fill="none" stroke="#00f5ff" stroke-width="5"/>
    </g>
  </g>
</svg>
