<svg xmlns="http://www.w3.org/2000/svg" xmlns:xlink="http://www.w3.org/1999/xlink" width="410.519" height="766.238" viewBox="0 0 410.519 766.238">
  <defs>
    <filter id="Path_402" x="0" y="0" width="410.519" height="766.238" filterUnits="userSpaceOnUse">
      <feOffset dy="3" input="SourceAlpha"/>
      <feGaussianBlur stdDeviation="3" result="blur"/>
      <feFlood flood-opacity="0.502"/>
      <feComposite operator="in" in2="blur"/>
      <feComposite in="SourceGraphic"/>
    </filter>
  </defs>
  <g transform="matrix(1, 0, 0, 1, 0, 0)" filter="url(#Path_402)">
    <path id="Path_402-2" data-name="Path 402" d="M273.781,5496.741s10.949,1.547,25.4,9.392,30.934,16.825,42.131,13.8,37.583-13.957,49.7-4.222,15.873,13.989,24.741,13.877,21.5-6.531,30.439-6.107,26.9,3.521,30.258-4.979,1.4-23.15-1.8-35.854-3.427-29-11.146-37.222-24.816-30.318-19.641-41.2a164.222,164.222,0,0,1,10.936-19.373s3.391-.661,0-15.17,1.922-30.308,1.922-30.308,1.888-5.3-1.922-13.519-28.167-59.718-28.167-59.718-10.66-15.794,0-20.647,22.547-8.086,28.167-15.2,17.53-21.454,17.53-21.454,5.036-7.8,4.89-14.019.08-31.591,3.936-35.782,8.8-12.979,12.515-20.462,12.679-17.52,23.163-21.322,9.793-19.567,9.793-19.567c0,.41-3.893-13.063-8.588-20.562s-11.742-47.766,4.609-65.174,12.434-24.543,9.466-27.854-20.778-20.881-22.313-45.035-20.021-47.46-20.021-47.46-5.551-10.571,0-16.841,16.707-6.379,30.762,4.148,57.134,52.395,57.134,52.395,21.644,18.688,51.778,1.014,29.258-30.119,29.258-30.119,2.567-24.69-21.929-30.964-11.43,4.275-41.2-5.216-74.971-25.654-89.255-31.774-55.416-23.99-73.971-44.445" transform="translate(-260.83 -4778.85)" fill="none" stroke="#00f5ff"  stroke-width="5"/>
  </g>
</svg>
