<svg xmlns="http://www.w3.org/2000/svg" xmlns:xlink="http://www.w3.org/1999/xlink" width="62.001" height="70.738" viewBox="0 0 62.001 70.738">
  <defs>
    <filter id="Subtraction_15" x="0" y="0" width="62.001" height="70.738" filterUnits="userSpaceOnUse">
      <feOffset dy="3" input="SourceAlpha"/>
      <feGaussianBlur stdDeviation="3" result="blur"/>
      <feFlood flood-opacity="0.502"/>
      <feComposite operator="in" in2="blur"/>
      <feComposite in="SourceGraphic"/>
    </filter>
  </defs>
  <g id="Group_594" data-name="Group 594" transform="translate(9.501 6.498)">
    <g id="Group_572" data-name="Group 572">
      <g transform="matrix(1, 0, 0, 1, -9.5, -6.5)" filter="url(#Subtraction_15)">
        <path id="Subtraction_15-2" data-name="Subtraction 15" d="M14836.5,695.706h0a80.925,80.925,0,0,1-10.75-9.439,51.049,51.049,0,0,1-7.391-9.676A22.675,22.675,0,0,1,14815,665.5a21.5,21.5,0,1,1,43,0,22.676,22.676,0,0,1-3.359,11.093,51.078,51.078,0,0,1-7.391,9.676,80.883,80.883,0,0,1-10.749,9.439Zm.011-38.493a8.211,8.211,0,1,0,8.211,8.211A8.22,8.22,0,0,0,14836.511,657.213Z" transform="translate(-14805.5 -637.5)" fill="#fff" stroke="rgba(0,0,0,0)" stroke-miterlimit="10" stroke-width="1"/>
      </g>
    </g>
  </g>
</svg>
