<?xml version="1.0" encoding="utf-8"?>
<!-- Generator: Adobe Illustrator 23.0.3, SVG Export Plug-In . SVG Version: 6.00 Build 0)  -->
<svg width="1920" height="1080" version="1.1" id="_1900" xmlns="http://www.w3.org/2000/svg" xmlns:xlink="http://www.w3.org/1999/xlink" x="0px" y="0px"
	 viewBox="0 0 1920 1080" style="enable-background:new 0 0 1920 1080;" xml:space="preserve">
<style type="text/css">
	.st0{fill:#70CCB8;}
</style>
<g>
	<polygon class="st0" points="1028.7,693.2 1030,689.2 1032.7,686.6 1039.3,683.9 1042,682.6 1046,673.3 1048.6,666.6 1051.3,660 
		1052.6,656.1 1018.7,646.1 1003.6,641.6 1002.5,643.7 1018.3,648.1 1010.8,680.6 1026.1,684.1 1022.7,688.6 1021.4,693.9 
		1020.6,696.3 1020.6,696.3 1018.7,701.9 1020.6,696.3 1015.3,699.2 1005.7,703.5 1003.6,704.5 1002.5,706.7 1001.5,708.8 
		1001.5,711.7 998.1,711.7 997.2,723.7 1001.5,723.7 1002.5,708.8 1003.6,706.7 1004.7,705.6 1006.8,704.5 1016.4,701.4 
		1018.7,701.9 1021.4,704.6 1028,735.1 1022.7,760.4 1042.4,756.9 1042,754.4 1042,747.2 1043.3,739.8 1044.6,731.8 1043.3,726.5 
		1042,719.7 1039.3,715.8 1036.7,714.5 1031.3,713.2 1028.7,709.2 1027.4,706.5 1027.4,697 	"/>
	<polygon class="st0" points="920.4,426.8 919.1,427.8 919.1,455 916.7,456.6 916.4,454.8 913.8,455.2 914.9,461.6 917.5,461.2 
		917.2,459.5 921.1,456.9 925.8,458.8 925.8,458.9 923.7,465.3 925.7,466 927.8,459.6 948.3,468 953.6,462.6 960.3,456 960.3,453.3 
		961.6,449.3 962.9,446.7 965.6,446.7 965.6,450.7 966.9,453.3 969.5,454.7 977.5,456 980.2,454.7 982.8,452 982.8,445.4 
		990.8,400.2 1029.4,400.2 1034.8,429.5 1022.8,445.4 1020.1,452 1016.1,456 1008.1,466.7 1014.8,472 1016.3,483.3 1012,483.7 
		1012.2,485.8 1016.6,485.4 1017.1,489.2 1010.5,490.5 1010.5,492.7 1017.5,491.4 1020.5,507.5 1013.1,508.2 1013.3,510.3 
		1020.8,509.6 1020.9,509.6 1023.8,525.4 1019.4,526.4 1019.8,528.5 1024.2,527.5 1026.7,541 1028.2,550.4 1022.7,551.1 
		1022.9,553.2 1028.6,552.5 1032.5,576.9 1030,577.2 1030.3,579.3 1032.8,579 1040,623.5 1071.2,617.5 1073.9,614.8 1073.9,608.3 
		1068.6,604.3 1063.3,599 1060.6,597.6 1061.9,591 1064.6,585.7 1065.9,580.4 1065.9,577.7 1063.3,575.1 1061.9,568.4 1057.9,563.1 
		1056.6,559.1 1052.6,557.8 1051.3,556.4 1047.3,553.8 1047.3,549.8 1046,548.5 1047.3,543.1 1049.9,541.8 1052.6,540.5 
		1053.9,539.2 1053.9,535.2 1052.6,532.5 1052.6,528.5 1051.3,525.8 1050,521.8 1050,517.8 1047.3,513.8 1044.6,512.5 1040.6,509.9 
		1038,507.2 1038,492.5 1035.4,487 1035.4,485.4 1034,482 1032.7,476.9 1032.7,450.3 1031.3,446.3 1031.3,442.3 1034,439.6 
		1036.6,435.6 1040.6,427.6 1040.6,422.3 1039.3,418.3 1040.6,414.3 1040.6,395.7 1035.4,391.7 1027.4,390.4 1018.1,387.7 
		1004.8,385.1 988.9,383.8 979.6,385.1 978.2,387.8 978.2,395.7 976.9,401 974.3,407.7 972.9,414.3 971.6,423.6 970.3,432.9 
		967.6,436.9 961,442.2 959.6,446.2 958.3,452.9 953,459.5 947.7,464.8 942.4,462.2 937,454.2 933,450.2 930.4,446.2 929.1,442.2 
		931.7,424.9 930.4,412.9 934.4,399.6 928.3,399.6 928.3,397.3 924,397.3 924,399.6 919.1,399.6 919.1,421.6 920.4,422.8 
		921.8,422.8 921.8,426.8 	"/>
	<polygon class="st0" points="648.7,211 646.1,205.6 642.1,201.6 639.4,195 634.1,189.6 628.8,187 621.5,212.9 648.7,221.6 
		650,217.6 	"/>
	<polygon class="st0" points="942.3,392.9 946.3,391.6 949.6,391 953,390.3 955.6,389 957,387.6 959.6,385 958.3,382.4 955.6,379.7 
		953,375.7 951.7,370.4 950.3,366.4 947.7,365.1 946.3,363.7 943.7,363.7 941,361.1 939,364.4 937.7,373.7 937.7,383 937,395.6 
		939.4,392.9 	"/>
</g>
</svg>
