<?xml version="1.0" encoding="utf-8"?>
<!-- Generator: Adobe Illustrator 23.0.3, SVG Export Plug-In . SVG Version: 6.00 Build 0)  -->
<svg width="3840" height="2160" version="1.1" id="_1945" xmlns="http://www.w3.org/2000/svg" xmlns:xlink="http://www.w3.org/1999/xlink" x="0px" y="0px"
	 viewBox="0 0 1920 1080" style="enable-background:new 0 0 1920 1080;" xml:space="preserve">
<style type="text/css">
	.st0{fill:#70CCB8;}
</style>
<g>
	<path class="st0" d="M1078.8,589.1l-5.4-4l-5.4-5.4l-2.7-1.3l1.3-6.7l2.7-5.4l1.3-5.4v-2.7l-2.7-2.7l-1.3-6.7l-4-5.4l-1.3-4l-4-1.3
		l-1.3-1.3l-4-2.7v-4l-1.3-1.3l1.3-5.4l2.7-1.3l2.7-1.3l1.3-1.3v-4l-1.3-2.7v-4l-1.3-2.7l-1.3-4v-4l-2.7-4l-2.7-1.3l-4-2.7l-2.7-2.7
		v-14.8l-2.6-5.6v-1.7l-1.4-3.4l-1.3-5.4v-26.9l-1.3-4v-4l2.7-2.7l2.7-4l4-8.1v-5.4l-1.3-4l1.3-4v-18.8l-5.3-4l-8.1-1.3l-9.4-2.7
		l-13.4-2.7l-16.1-1.4l-9.4,1.4l-1.3,2.7v8l-1.3,5.4l-2.7,6.7l-1.3,6.7l-1.3,9.4l-1.3,9.4l-2.7,4l-6.7,5.4l-1.3,4l-1.3,6.7l-5.4,6.7
		l-5.4,5.4l-5.4-2.7l-5.4-8.1l-4-4l-2.7-4l-1.3-4l2.7-17.5l-1.3-12.1l-15.8,0.6v46.4v0v8.9l-3.5,2.6l-1-1.9l-2.1,1l3.2,6.1l1-0.5
		l1-0.5l-1.1-2.2l2.5-1.8l6.8,2.1l-0.5,1.8l-1.5-0.5l-0.7,2.2l4.6,1.5l0.7-2.2l-1.2-0.4l0.5-1.9l6.6,2l2.2,2.2l1.1,2.2l-1.1,14.2
		l-1.1,2.2l-4.4,3.3v4.4h1.1l1.1-2.2l15.3-6.6l13.1-5.5l4.4-1.1l48.8-4.9l0-0.1l0.1,0.2l0.2,1l0.4,2.3l1.1,6l-5,0.8l0.4,2.3l5.1-0.8
		l1.2,6.4l0.4,2.3l3,15.8l-7,1.1l0.3,2.2l7-1.1l1,5.4l0.4,2.2l0.7,3.8l-7.2,1.1l0.3,2.2l7.2-1.1l1.7,8.8l0,0l-4.1,1l0.5,2.2l4-1
		l2.8,14.7l-4.1,1l0.5,2.2l4-1l1.8,9.5l0,0l-3.2,0.8l0.5,2.2l3.1-0.8l1,5.3l-3.9,1l0.5,2.2l3.8-1l1.1,6l-4.8,1.2l0.5,2.2l4.6-1.1
		l4.5,23.7l-2.7,0.7l0.5,2.2l2.6-0.6l3.2,16.9l0.2,0l-0.2,0.1l1.1,12l-4.5,19l-17.4-4.7l-20.5-5c-0.7-0.2-1.4,0.3-1.6,1
		s0.3,1.4,1,1.6l20.5,4.7l-7.1,28.3l-3.3,13.2l-3.3,2.2v1.1l3.3,4.4h2.2l2.1,4.1l-2.4,1l-2.3,1.5l-2.3,1.5l-2.3,2.3l-0.8,3.1
		l-0.8,5.4h-2.7l-1.2,11.5l1.5,0.2l-1.5,12.5l1.5,3.5l8.5,17.7l1.5,0.8l1.5-1.4l0-1.7l-1.5-3.1l-6.2-13.3l-1.5-5.1l0.8-4.6l0.8-4.6
		l0,0l1.2-10.4l0.8-5.4l1.5-3.8l2.3-2.3l2.3-1.5l2.5-1.3l3.3,1.1h3.3l1.1,3.3l8.8,29.6v2.2l-3.3,17.5l19.1-3.8l-0.4-2.7l-1.3-8.1
		v-7.3l1.3-7.5l1.3-8.1l-1.3-5.4l-1.3-6.8l-2.7-3.9l-2.7-1.3l-5.4-1.3l-2.7-4l-1.3-2.7v-9.7l1.3-3.8l1.3-4l2.7-2.7l6.7-2.7l2.7-1.3
		l4-9.4l2.7-6.6l0.1-0.3l2.7-6.7l1.3-4l4-4l5.4-1.3l4-4l2.7-5.4l1.3-4v-5.4l-0.1-5.3l-0.1-0.1l0.1,0l1.3-4V599l2.7-2.7L1078.8,589.1
		z"/>
	<polygon class="st0" points="1022.2,507.3 1019.9,507.7 1020.2,509.9 1022.6,509.5 	"/>
	<polygon class="st0" points="915.3,334.4 921.9,341 929.5,349.7 935.2,358.6 935.2,359.1 932.4,360.7 933.3,363 935.1,362.5 
		935,369.5 937.2,369.5 937.2,374.9 940.5,374.5 942.9,371.9 945.9,371.9 949.9,370.5 953.2,369.9 956.6,369.2 959.3,367.8 
		960.7,366.5 963.4,363.8 962,361.1 959.3,358.4 956.6,354.4 955.3,349.1 954,345.1 951.3,343.7 949.9,342.4 947.2,342.4 
		944.5,339.7 943.2,337 936.5,330.2 928.4,322.1 927.1,319.5 928.4,316.8 927.1,312.8 923.1,310.1 915,304.7 911,298 909.6,291.3 
		912.3,288.6 919,287.3 925.7,287.3 931.1,290 937.8,290 944.5,292.7 949.9,286 955.1,277.7 952.4,272.3 952.2,264.3 948.4,264.3 
		943,258.9 936.3,245.4 930.9,230.7 926.9,217.2 925.6,207.7 925.6,201.1 924.2,194.4 918.8,190.4 910.8,182.3 902.7,178.3 
		901.4,174.3 897.4,175.7 893.4,173 890.7,171.6 885.3,169 884,165 882.6,165 879.9,167.6 874.6,167.6 870.6,163.6 867.9,158.2 
		867.9,154.2 863.9,150.2 857.2,144.9 850.4,139.5 847.8,139.5 842.4,135.5 837,130.1 833,128.8 830.3,126.1 826.3,127.4 
		819.6,123.4 816.7,127.4 814.5,130.7 812.3,134 808,137.3 803.6,139.4 797,140.5 797,143.7 801.3,147.1 806.8,152.6 810.1,148.2 
		814.5,148.2 814.5,150.4 818.9,150.4 818.9,147.1 821.1,145 834.2,154.8 833.1,157 836.4,159.1 839.7,154.8 846.3,160.2 
		840.8,166.8 843,169 845.2,166.8 849.9,171.6 847.6,173.9 848.8,174.5 845.5,177.7 846.3,178.5 849.9,175 851.7,176.2 853.4,175 
		853.9,175.6 873.7,189.8 871.5,192 879.1,197.5 858.3,221.6 845.2,238 836.4,249 828.7,258.9 826.5,262.2 826.5,263.3 908.7,329 
		909.2,329.4 908.6,333.7 904.8,338.4 907.9,340.7 911.5,335.6 914.6,333.9 	"/>
	<polygon class="st0" points="667.6,176.7 665.4,177.8 663.3,178.9 661.1,180 658.9,181.1 653.4,181.1 650.1,180 646.8,178.9 
		643.5,177.8 640.3,175.6 639.2,174.5 638.1,172.3 637,170.1 636.4,168.3 636.3,168.3 636.4,168.3 635.9,166.8 635.9,164.6 
		634.8,161.3 634.8,159.1 633.7,156.9 632.6,154.8 631.5,152.6 630.4,150.4 629.3,148.2 628.2,146 627.1,142.7 626,139.7 626,128.5 
		623.9,126.3 620.6,125.2 618.4,125.2 615.1,123 615.1,123.1 615,123 611.7,121.9 608.5,120.8 604.1,120.8 600.8,119.7 596.4,118.6 
		593.1,116.4 581.1,144.9 564.5,181.1 563.6,183.3 563.6,185.3 564.7,186.5 596.3,200.7 584.8,226.4 587.7,227.7 599.2,202 
		623.3,212.8 621.8,217.7 630.1,221.5 632.4,216.9 638.1,219.4 640.3,220.5 649,220.5 653.4,221.6 654.5,222.7 667.7,223.8 
		667.7,222.7 677.5,222.7 678.6,199.7 679.7,197.5 680.8,196.4 681.2,172.1 677.9,173.5 	"/>
	<polygon class="st0" points="1008.7,485.3 1017.7,483.9 1017.3,481.6 1008.4,483 	"/>
	<polygon class="st0" points="980.1,628.4 979,628.4 978.3,628.8 975.1,628.8 965.7,624.4 957.5,618.5 952.1,612.7 947.2,604.4 
		944.3,597.8 927.6,503 928.6,502.3 929.3,499.9 927.8,498.4 925.5,498.4 924.5,499.3 923.6,500.7 923.6,502.1 940.6,598.7 
		940.6,598.9 943.7,606.1 949.1,615 954.9,621.2 963.6,627.6 974.3,632.6 977,633.8 980,633.8 981.7,633 982.4,631.5 981.6,629.1 	
		"/>
	<polygon class="st0" points="1007.8,470 1007.1,470.8 1006.3,471.5 1006.3,472.3 1007.8,472.3 1009.4,471.5 1010.5,470.9 
		1012.6,470.4 1015.1,470.4 1014.8,468.4 1012.4,468.4 1009.4,469.2 	"/>
	<polygon class="st0" points="1014.1,464.8 1010.7,465.3 1011,467.6 1014.5,467.1 	"/>
</g>
</svg>
