<?xml version="1.0" encoding="utf-8"?>
<!-- Generator: Adobe Illustrator 23.0.3, SVG Export Plug-In . SVG Version: 6.00 Build 0)  -->
<svg width="3840" height="2160" version="1.1" id="Layer_5" xmlns="http://www.w3.org/2000/svg" xmlns:xlink="http://www.w3.org/1999/xlink" x="0px" y="0px"
	 viewBox="0 0 1920 1080" style="enable-background:new 0 0 1920 1080;" xml:space="preserve">
<style type="text/css">
	.st0{fill:#70CCB8;}
</style>
<g>
	<path class="st0" d="M834.5,540.9c-0.7-0.1-1.4,0.4-1.5,1.2c-0.1,0.7,0.4,1.4,1.2,1.5c0.1,0,10.8,1.3,10.8,7.4v115.7
		c0.1,2.4,0.6,4.8,1.5,7c1.8,4.6,6.2,7.6,11.1,7.7h0.1c0.7,0,1.2-0.5,1.3-1.2c0.1-0.7-0.5-1.4-1.2-1.5v0c-10-0.6-10.1-11.6-10.1-12
		V550.9C847.7,542.5,835.1,541,834.5,540.9z"/>
	<polygon class="st0" points="1010.9,774.7 1012.1,783.4 1014.1,783.1 1012.9,774.4 	"/>
	<path class="st0" d="M1025,764.2l18.3-3.8v-7.3l-1.3-9.6l-1.3-7.9v-7.1l1.3-7.4l1.3-7.9l-1.3-5.3l-1.3-6.7l-2.6-3.9l-2.6-1.3
		l-5.3-1.3l-2.6-4l-1.3-2.6v-9.4l1.3-3.7l1.3-4l2.6-2.6l6.6-2.6l2.6-1.3l4-9.3l2.6-6.5l0,0l2.6-6.6l1.3-4l4-4l5.3-1.3l4-4l2.6-5.3
		l1.3-4V614l-0.1-5.1l-0.1,0l0.1-0.1l1.3-4v-5.3l2.6-2.6l0.2-6.1l-5.3-4l-5.3-5.3l-2.6-1.3l1.3-6.6l2.6-5.3l1.3-5.3v-2.6l-2.6-2.6
		l-1.3-6.6l-4-5.3l-1.3-4l-4-1.3l-1.3-1.3l-4-2.6v-4l-1.3-1.3l1.3-5.3l2.6-1.3l2.6-1.3l1.3-1.3v-4l-1.3-2.6v-4l-1.3-2.6l-1.3-4v-4
		l-2.6-4l-2.6-1.3l-4-2.6l-2.6-2.6v-14.5l-2.6-5.5v-1.7l-1.4-3.3l-1.3-5.3v-26.4l-1.3-4v-4l2.6-2.6l2.6-4l4-7.9v-5.3l-1.3-4l1.3-4
		V379l-5.2-4l-8-1.3l-9.3-2.6l-13.2-2.6l-15.8-1.3l-9.2,1.3l-1.3,2.7v7.9l-1.3,5.3l-2.6,6.6l-1.3,6.6l-1.3,9.2l-1.3,9.2l-2.6,4
		l-6.6,5.3l-1.3,4l-1.3,6.6l-5.3,6.6l-5.3,5.3l-5.3-2.6l-5.3-7.9l-4-4l-2.6-4l-1.3-4l2.6-17.2l-1.3-11.8l-0.2,0l4-13.1l0.2,0l2.7-4
		l-3.3,0.4v0l3.3-0.4l2.3-2.5h2.9l4-1.3l3.2-0.6l3.4-0.7l2.6-1.3l1.3-1.3l2.7-2.6l-1.3-2.6l-2.7-2.6l-2.6-4l-1.3-5.3l-1.3-4
		l-2.6-1.4l-1.3-1.3H943l-2.7-2.7L939,342l-6.5-6.5l-7.9-7.9l-1.3-2.6l1.3-2.6l-1.3-4l-4-2.6l-7.9-5.3l-4-6.6l-1.3-6.6l2.8-2.3
		l6.6-1.3h6.6l5.3,2.6h6.6l6.6,2.6l5.3-6.6l5.3-7.9l-2.6-5.3l-0.2-7.9h-3.7l-5.3-5.3l-6.6-13.2l-5.3-14.5l-4-13.2l-1.3-9.4V209
		l-1.3-6.6l-5.3-4l-7.9-7.9l-7.9-4l-1.3-4l-4,1.3l-4-2.6l-2.6-1.3l-5.3-2.7l-1.3-4h-1.4l-2.6,2.6h-5.2l-4-4l-2.6-5.4v-3.8l-4-4
		l-6.6-5.3L848,148h-2.7l-5.3-4l-5.2-5.3l-4-1.3l-2.6-2.6l-4,1.3l-6.6-4l-2.9,3.9l-2.2,3.2l-2.2,3.2l-4.3,3.2l-4.3,2.2l-6.4,1.1l0,0
		h-2.2L791,150l-3.2,1.1h-3.2l-1.1-2.2l-2.2,1.1l-3.2,2.1H776l-1.1-1.1l-1.1-2.2v-2.2l-1.1-1.1l-1.1,1.1v9.7l2.2,7.5l2.2,4.3
		l1.1,2.8v4.8l-2.2,1.1h-3.2l-1.1-3v-3.5l-1.1-4.3l-1.1-2.2l-2.2-3.2l-3.2-3.2l-3.2-2.2l-3.2-2.1h-2.2l-1.1,1.1v2.2l2.2,2.2l6.5,4.3
		l3.1,3.2l1.1,3.2l-1.1,2.2l-1.1,2.1l-3.2,2.2l-5.4,1.1l-4.3,1.1h-11.8l-3.2-2.2l-1.1-2.2l-1-2.2l-3.2-1.1h-2.2l-4.3,1.1l-8.6,3.2
		l-3.2,1.1l-2.2-1.2v-2l-1.1-2.2l-1.1,0.8v1.4l-1.1,3.2L706,178l-4.3,2.1l-3.5,1.2h-3.4l-2.8-1.2l-1.1-1.1l-4.3-1.1l-5,2l0,0l0-0.1
		l-3.3,1.3l-10.1,3.2l-2.2,1.1l-2.2,1.1l-2.2,1.1l-2.2,1.1h-5.4l-3.2-1.1l-3.2-1.1l-3.2-1.1l-3.2-2.1l-1.1-1.1l-1.1-2.1l-1.1-2.2
		l-0.6-1.7l0,0l-0.5-1.5v-2.2l-1.1-3.2v-2.2l-1.1-2.2l-1.1-2.1l-1.1-2.2l-1.1-2.1l-1.1-2.2l-1.1-2.2l-1.1-3.2l-1.1-3v-11l-2.2-2.1
		l-3.2-1.1h-2.2l-3.2-2.1l0,0l0-0.1l-3.2-1.1l-3.2-1.1h-4.3l-3.2-1.1l-4.3-1.1l-3.2-2.2l0,0l-1.1-1.1l-1.1-1.1l-1.1-1.3v-1.9
		l-1.1-1.1l-1.1-1.1l-1.1-1.1l-1.1-1.1l-1.1-2.2l-2.2-2.2l-1.1-2.1l-2.2-3.2V83.2L580,80l-1.1-2.1l1.1-2.2l3.2-2.5v-1.9l-2.2-2.2
		l-2.2-2.2h-2.2l-3.2-1.1l-2.2-2.1l-2.2-3.2l-1.1-4.3l-1.1-3.2l-1.1-3.2l-3.2-1.1l-2.2-1.3v-7.3l-2.2-1.1h-2.2l-2.2,0.2l-3.2-0.2
		l-2.2-1.1l-2.2-1l-1.1-2.2v-3.2l-2.2-2.2l-2.2-1.1l-2.2-3.2l-1.1,1.1v2.2l1.1,3.2v22.6l1.1,3.2l1.3,1l2.9,1h4.8l2.7,0.3l2.2,2.2
		L555,64l1.1,2.2l1.1,4.3l1.1,4.3v4.3l1.1,5.4l3.2,5.4v3.2l2.2,3.3v2.9l-1.1,3.6v4.3l1.1,3.2v2.2l-1.1,2.1l-1.1,2.2v6.5l-1.1,2.2
		l-2.2,1.1v1.1l1.1,3.3v3.2l-1.1,2.2l-1.1,2.1l-1.1,2.2v3.7v0.1v1.5l-3.2,6.5l-2.2,1.1h-2.2l-3.2,1.1l-4.3,1.1l-3.2,1.1h-1.1
		l-2.2,1.1l-1.7,1.1h-1.5l-2.2-2.2v-2.2l1.1-2.1V148l-1.1-1.2l-2.2-1.1h-4.3l-2.2-1.1h-2.2l-3.2-6.5l-1.1-3.2v-3.2l-1.1-3.2
		l-2.2-3.2l-3.2-1.1l-2.4-1.1h-3l-2.8-1.1h-3.6l-2.2-3.2l-1.1-2.2v-3.2l1.1-3.2V107l-1-3.3l-1.1-2.2l-1.1-3.2l-3.2-1.1l-2.2-2.1
		l-2.1-8.6l-0.8-4.2v-3.2l-2.4-1.1H479l-2.1-1l-3.8-2.1h-8.9l-0.9-1H459l-8.5-8.6h-2.1l-3.2-1h-4.2l-3.2-1l-4.2-1l-3.2-2.1l-2.1-2.1
		l-2.1-1.1l-3.2-1l-2.1-1L419,53l-2.1-1.1h-5.3l-3.2-1.1l-3.2-2.1l-4.2-6.3l-2.1-6.3l-3,0.2l-2.9-2.9l-1.9-4.8l-2.8-2.8l0,0l2.9,2.9
		l1.9,4.8l2.9,2.9l3-0.2l-1-3.2l-1-4.2V6.8l1-4.2V0h-80.3l48.8,154.5l80.9-25.3l13.3,42.7l-80.9,25.4l36.8,117l112.3-35.4l5.3,2.7
		l14.7,44.8l-194.5,61.5l0.7,3.3l-6,7.3l-6,6l-5.3,8l2,7.4v4l-0.7,2.7l116.9,63.6l2.2,1.2h1.3l2-0.7l2.9-1.6l15.8-3.5l3.8-2.3h3
		l30.6,15.1l10.6,56c0.2,1.1,1.2,1.9,2.3,1.9c0.1,0,0.3,0,0.4,0c1.3-0.2,2.1-1.5,1.9-2.7l-1.4-7.2c1.2-0.7,1.8-2.1,1.5-3.4
		L521,480.4v-0.1l55.2-9.8l1.3,2.6l11.6,52.3l1.2,5.9l-45.1,8.5l0.2,1.5l4-0.8l0.2,0.8l0.4,0.2l0.4,0.2l1.2-0.2l42.8-8.1l0.4-0.4
		l0.2-0.4v-0.6l-1.3-8l-5.9-38.5v-2.3l6.1-0.8l2.3,0.8l2.3-0.3l3,2.6l3.8,1.5l2.5,0.9h11.4l5.4,5l1,2.3l-0.2,2.7v4.7l1.3,7.1
		l2.6,2.6l4.5,0.6l5.2,1.9l3.9,3.2l1.3,5.2l3.9,5.8l3.9,3.2l3.2,1.9l2.6,1.3l1.9-1.9l1.3-5.2l1.3-4.5l4.5-5.8l-1.3-3.2l1.3-5.2
		l8.6-7.2l2.7,2.5l5.9-6.5l-2.7-2.7l1.6-2.3l1.7-3.8l2.8-2.6l4.1-1.5l1-3l-2.6-1.9l-1.9-3.2l-0.6-4v-4.4l1.9-4.5l4.7-4.7l2-2l0.4-3
		l1.3-3.2l3-3.8l5.4-5.4l7.4-6l6-3.3l7.4-2l4.6-0.8l3.9-3.2l0-5.8l-1.3-6.5l-3.5-5.3l-1.7-3.1l-1.9-5.2l-2.7-3.8l-2.4-0.6l-0.3-0.5
		V396l-0.2-0.4v-0.2L721,395l-0.2-0.2l-0.2-0.2l-0.2-0.2l-0.4-0.4h-0.2l-0.4-0.2H719l-0.2-0.2h-0.6l-0.4,0.2h-0.4l-5.4-4.1l-2.7-2
		l-2.7-2.7l-2-1.3l-0.7-1.3l-1.3-0.7l-1.3,0.7l-1.3,0.7h-3l-7-4.5c-0.1,0-0.1-0.1-0.2-0.1c-0.7-0.3-1.5-0.1-1.8,0.6
		c-0.3,0.7-0.1,1.5,0.6,1.8l10.7,6.8v0.1l0.7,0.7l-2.4,2.4l-3.9-2.9l-0.9,1.2l3.8,2.7l-1.9,1.9l-1.3-1.3l-2.7,2.7l1.5,1.2l-6.9,6.9
		l-6.6-6.6l-1,1l6.6,6.6l-0.2,0.2l2,2.1l-6.7,7.3l-2.7-2.7l-0.7,0.7l2.7,2.7l-1.2,0.7l-2.5-2.7l-0.8,0.8l-6.9-7l-1,1.2l9.5,9.5
		l-9.3,9.3l-6-5.9l3.3-3.5l-0.8-0.8l-3.4,3.5l-3.2-3.1l3.7-3.7h0.3v-0.2h-0.2l-0.4-0.4V412h-0.2v0.2l-3.7,3.7l-1-1.2l4.4-4.4l-3-3
		l-4.4,4.4l-4.2-4.9l6.9-7.1v-0.2l-0.4-0.4H654l-7.1,7.1l-0.4-0.4v-0.2l-4.3-3.4l-4.4-5.4l0.8-0.8l2.9,2.9l0.7-0.7l-2.9-2.9l2.7-2.7
		l3.7,3.7l0.7-0.7l-3.7-3.7l4.7-4.6l3.6,3.6l0.8-0.6l-3.6-3.6l5.1-5l0.4-0.3l6.8,6.8l1-1l-6.7-6.7l4.3-3.4l6.9,6.9l0.8-0.8l-6.8-6.8
		l4.7-3l4.4,4.4l0.8-0.9l-4.2-4.2l2.4-1.5l4.8,3.5l0.5-0.8l-4.5-3.3l1.3-0.8l2.9,1.8c0.2,0.1,0.5,0.2,0.7,0.2c0.5,0,0.9-0.2,1.1-0.6
		c0.4-0.6,0.2-1.4-0.4-1.8l-1.8-1.2l-25.7-15.6h-1l-0.2,0.2l-7-4l-11.3-6.1l11.8-19.3l25.3,16.1l-1.8,2.8l11.5,7l0.6-1.2l-9.6-5.9
		l5.4-8.8l2.1,1.4l0.4-0.6l-2.2-1.4l1.3-2.1l2.3,1.5l0.4-0.6l-2.3-1.5V330l1-1.5l4.8,3.2l0.4-0.6l-4.8-3.2l1.1-1.7l5.3,3.5l0.4-0.6
		l-5.3-3.5l5.6-8.9l4.3,2.9l0.4-0.6l-4.3-2.9l1.6-2.5l5,3.3l0.4-0.6l-5-3.3l1.1-1.8l4.9,2.9l0.4-0.6l-4.9-2.8l3.6-5.6l6.7,3.3
		l13.9,9.7l14.9,8.3h0l0,0l0.1,0H724l11,7l4.5,3.2l8.7,5.4l4,3.3l7.4,6l-6.7,8l2.7,2l6.7-8l12,10.4l-6.6,7.9l2.3,1.9l6.6-7.9
		l13.5,11.2l-1.9,2.5l1,0.8l2.1-2.5l7.9,6.8l-5.6,6.8l1.2,1l5.6-6.8l6.8,5.6l-5.6,7l1.2,1l5.6-7l10.8,8.9l0,0l0,0l0,0l-0.1,0.1
		l-16,19.2l0.2,0.6l7.7,6.4h0.4l15.9-19.1l6.7,5.5l12,20.5v18.4l0.5,49.5c-0.7,0-1.3,0.7-1.3,1.4l0.8,16.7c0,0.7,0.6,1.3,1.3,1.3h0
		c0.7,0,1.3-0.7,1.3-1.4l-0.6-16l65.5,0.4l8.4,20l0.2,139.1l-41.6,59.4l-32.7,0.2V710c0-4.5-2.7-6.4-4.3-7.5l-0.2-0.1
		c-2.5-1.8-8.3-2.8-8.5-2.9c-0.6-0.1-1.2,0.3-1.4,1s0.3,1.2,1,1.4c1.5,0.3,5.8,1.2,7.5,2.5l0.2,0.2c1.5,1,3.3,2.4,3.3,5.6v22.9
		l-0.2,0.5l-2,1.3l-1.3,1.3l-0.7,0.7l-2,2.7l-1.1,3.3l-0.8,3.5l-0.2,3.3l-0.2,4.1l0.2,5.2l-0.2,2.3l0.2,2.7v20.5l1.2,2.7l3.1,5.9
		l3.8,3.8l6,4.6h38l2.9,0.3l2-0.7l1.3-1.2l3-7.6l10.5-10l16-6l7.5-1.8v5.9h-1.7v3.3h6.7v-3.3h-1.7V774l10.5-1.2l2,0.7l7.4-0.7
		l28.7-4l0.1-1l12.6-1.6l13.4-1.3l1.3,0.7l4-1.3l0.8,0.2l-5.7,4l1.2,1.6l7.3-5.2L1025,764.2"/>
	<polygon class="st0" points="245.3,3.4 256.2,0 244.2,0 	"/>
</g>
</svg>
