<?xml version="1.0" encoding="utf-8"?>
<!-- Generator: Adobe Illustrator 23.0.3, SVG Export Plug-In . SVG Version: 6.00 Build 0)  -->
<svg width="1920" height="1080" version="1.1" id="Layer_5" xmlns="http://www.w3.org/2000/svg" xmlns:xlink="http://www.w3.org/1999/xlink" x="0px" y="0px"
	 viewBox="0 0 1920 1080" style="enable-background:new 0 0 1920 1080;" xml:space="preserve">
<style type="text/css">
	.st0{opacity:0.8;}
	.st1{fill:#666666;}
	.st2{clip-path:url(#SVGID_2_);}
	.st3{fill:none;stroke:#FF8300;stroke-width:2.5;stroke-miterlimit:10;}
	.st4{fill:none;stroke:#FF8300;stroke-width:2.5;stroke-linecap:round;stroke-linejoin:round;stroke-dasharray:7.85,7.85;}
	.st5{fill:none;stroke:#FF8300;stroke-width:2.5;stroke-linecap:round;stroke-linejoin:round;}
	.st6{fill:none;stroke:#FF8300;stroke-width:2.5;stroke-linecap:round;stroke-linejoin:round;stroke-dasharray:6.12,6.12;}
	.st7{fill:none;stroke:#FF8300;stroke-width:2.5;stroke-linecap:round;stroke-linejoin:round;stroke-dasharray:4.23,4.23;}
	.st8{fill:none;stroke:#FF8300;stroke-width:2.5;stroke-linecap:round;stroke-linejoin:round;stroke-dasharray:8.49,8.49;}
	.st9{fill:none;stroke:#FF8300;stroke-width:2.5;stroke-linecap:round;stroke-linejoin:round;stroke-dasharray:8.56,8.56;}
	.st10{fill:none;stroke:#FF8300;stroke-width:2.5;stroke-linecap:round;stroke-linejoin:round;stroke-dasharray:9.1,9.1;}
	.st11{fill:none;stroke:#FF8300;stroke-width:2.5;stroke-linecap:round;stroke-linejoin:round;stroke-dasharray:6.96,6.96;}
	.st12{fill:none;stroke:#FF8300;stroke-width:2.5;stroke-linecap:round;stroke-linejoin:round;stroke-dasharray:8.68,8.68;}
	.st13{fill:none;stroke:#FF8300;stroke-width:2.5;stroke-linecap:round;stroke-linejoin:round;stroke-dasharray:7.77,7.77;}
	.st14{fill:none;stroke:#FF8300;stroke-width:2.5;stroke-linecap:round;stroke-linejoin:round;stroke-dasharray:8.59,8.59;}
	.st15{fill:none;stroke:#FF8300;stroke-width:2.5;stroke-linecap:round;stroke-linejoin:round;stroke-dasharray:7.75,7.75;}
	.st16{fill:none;stroke:#FF8300;stroke-width:2.5;stroke-linecap:round;stroke-linejoin:round;stroke-dasharray:9.49,9.49;}
	.st17{fill:none;stroke:#FF8300;stroke-width:2.5;stroke-linecap:round;stroke-linejoin:round;stroke-dasharray:7.27,7.27;}
	.st18{fill:none;stroke:#FF8300;stroke-width:2.5;stroke-linecap:round;stroke-linejoin:round;stroke-dasharray:8.02,8.02;}
	.st19{fill:none;stroke:#FF8300;stroke-width:2.5;stroke-linecap:round;stroke-linejoin:round;stroke-dasharray:9.66,9.66;}
	.st20{fill:none;stroke:#FF8300;stroke-width:2.5;stroke-linecap:round;stroke-linejoin:round;stroke-dasharray:5.47,5.47;}
	.st21{fill:none;stroke:#FF8300;stroke-width:2.5;stroke-linecap:round;stroke-linejoin:round;stroke-dasharray:10.15,10.15;}
	.st22{fill:none;stroke:#FF8300;stroke-width:2.5;stroke-linecap:round;stroke-linejoin:round;stroke-dasharray:8.33,8.33;}
	.st23{fill:none;stroke:#FF8300;stroke-width:2.5;stroke-linecap:round;stroke-linejoin:round;stroke-dasharray:5.44,5.44;}
	.st24{fill:none;stroke:#FF8300;stroke-width:2.5;stroke-linecap:round;stroke-linejoin:round;stroke-dasharray:4.82,4.82;}
	.st25{fill:none;stroke:#FF8300;stroke-width:2.5;stroke-linecap:round;stroke-linejoin:round;stroke-dasharray:5.18,5.18;}
	.st26{fill:none;stroke:#FF8300;stroke-width:2.5;stroke-linecap:round;stroke-linejoin:round;stroke-dasharray:4.28,4.28;}
	.st27{fill:none;stroke:#FF8300;stroke-width:2.5;stroke-linecap:round;stroke-linejoin:round;stroke-dasharray:6.28,6.28;}
	.st28{fill:none;stroke:#FF8300;stroke-width:2.5;stroke-linecap:round;stroke-linejoin:round;stroke-dasharray:6.92,6.92;}
	.st29{fill:none;stroke:#FF8300;stroke-width:2.5;stroke-linecap:round;stroke-linejoin:round;stroke-dasharray:8.32,8.32;}
	.st30{fill:none;stroke:#FF8300;stroke-width:2.5;stroke-linecap:round;stroke-linejoin:round;stroke-dasharray:4.32,4.32;}
	.st31{fill:none;stroke:#FF8300;stroke-width:2.5;stroke-linecap:round;stroke-linejoin:round;stroke-dasharray:6.8,6.8;}
	.st32{fill:none;stroke:#FF8300;stroke-width:2.5;stroke-linecap:round;stroke-linejoin:round;stroke-dasharray:7.35,7.35;}
	.st33{fill:none;stroke:#FF8300;stroke-width:2.5;stroke-linecap:round;stroke-linejoin:round;stroke-dasharray:7.58,7.58;}
	.st34{fill:none;stroke:#FF8300;stroke-width:2.5;stroke-linecap:round;stroke-linejoin:round;stroke-dasharray:7.84,7.84;}
	.st35{fill:none;stroke:#FF8300;stroke-width:2.5;stroke-linecap:round;stroke-linejoin:round;stroke-dasharray:7.83,7.83;}
	.st36{fill:none;stroke:#FF8300;stroke-width:2.5;stroke-linecap:round;stroke-linejoin:round;stroke-dasharray:6.62,6.62;}
	.st37{fill:none;stroke:#FF8300;stroke-width:2.5;stroke-linecap:round;stroke-linejoin:round;stroke-dasharray:8;}
	.st38{fill:none;stroke:#F08219;stroke-width:2.5;stroke-linecap:round;stroke-linejoin:round;stroke-dasharray:8;}
	.st39{display:none;}
	.st40{display:inline;}
</style>
<g class="st0">
	<path class="st1" d="M1273.5,1014.6l68.5-20.7c0,0,0,0,0.1,0c0.9-0.3,1.3-1.2,1-2c-0.3-0.9-1.2-1.3-2-1l-68.5,20.7
		c-0.7,0.2-1.1,0.8-1.1,1.5c0,0.9,0.7,1.6,1.6,1.6C1273.2,1014.7,1273.4,1014.7,1273.5,1014.6z"/>
	<polygon class="st1" points="1051,862.4 1048.3,850.4 1047.3,846.5 1046,845.8 1044.3,845.8 1043,846.4 1042.3,849.1 1041.7,851.7 
		993.4,861.9 995.4,873.8 	"/>
	<path class="st1" d="M1920,0L1920,0l0,573.2l-0.2-0.3l-12.9-17.2l-1.1-1.1h-1.1l-3.2,1.1l-3.2,1.1h-3.2l-1.1,1.1v4.5l-2.2,4.1
		l-2.2,1.1h-1.1l-4.3-2.2l-3.2-2.2l-2.2-2.2l-2.2-3.2l-2.2-4.3l-3.2-3.2l-3.2-2.2l-3.2-1.1l-5.4-3.2l-4.3-1.1h-7.5l-2.2,1.1h-3.2
		l-3.2-1.1l-4.3-1.1l-3.2-2.2l-2.2-1.1l-2.2-2.2l-2.2-1.1l-2.2-1.1l-4.3-3.2l-1.1-2.2l-1.1-2.2l-2.2-1.1h-6.5l-3.2-1.1l-3.2-1.1
		h-2.2l-3.2,2.2l-1.1,1.1h-1.1l-2.2-2.2l-3.2-1.1l-2.2-4.3l-3.2-3.2l-3.2-1.1l-5.4-2.2l-2.2-1.1l-2.2-3.2l-1.1-2.1l-2.2-1.1h-4.3
		l-1.1-1.1l-1.1-2.2l-3.2-2.2l-2.2-1.1l-2.2-4.3l-2.2-3.2l-1.1-3.2l-3.2-4.3l-2.2-1.1v-1.6l2.2-1.6l1.1-4.3v-2.2l-2.2-4.3l-2.2-1.1
		l-1.1-3.2v-3.9l1.1-2.5l3.2-2.1l4.3-2.2l2.2-3.2v-4.3l-1.1-3.2l-1.1-3.2l-1.1-3.2l-1.1-2.2v-2.2l1.1-1.1h2.2l2.2-3.2l2.2-4.3
		l-1.1-2.2l1.1-3.2h-3.2l-1.1-1.1v-1.1l3.2-2.2l3.2-2.2l0.4-0.8l-3.7-1.4l-2.2-1.1l-1.1-1.1v-2.2l-1.1-1.1v-2.1l-1.1-1.1l-2.2-2.1
		l-1.1-2.1l0,0l-1.1-1.1l1.1-3.2l2.2-2.2l2.2-1.1l3.2-2.2l2.2-2.2l1.1-1.1l1.9-1.6l-1.3-4v-4l-4-4l-2.6-4l-5.3-7.9l-6.6-5.3l-5.3-4
		v-2.6l-2.6-1.3v-1.6l2.6-2.3h-4.6l-3.3-2.6l-4-4l-2.6-5.3l-1.3-4l-5.3-2.6l-7.9-4l-6.6-2.6l-2.6-1.3l-4-6.6l-2.6-4l-5.3-4l-4,1.3
		l-1.3-1.3l2.6-2.6v-5.3l1.3-4l2.6-2.6l-1.3-1.3l-2.6-1.3l-1.3-2.6v-1.3l-5.3-1.3l-5.3-2.6l-4-2.6l-1.3-5.3v-4.1l4-3.8l1.3-2.6
		l-5.3-5.1h-2.1l-3.2,1.2l-2,0.6l-1.1-1.7l4.4-2.8v-2.6l-4.4,1.2l-4.9,0.2l-7.9-5.3l-9.3-7.9l-1.3-1.3l-4,1.3l-5.3-4l-1.3,2.6h-1.3
		l-4-2.6l-4-4l-4-2.7l-4-5.3h-52.5l-8.2,1.3l-14.5,2.6l-10.6,4l-6.6,4c0,0-7.9,5.3-9.2,6.6l-7.9,7.9l-10.6,11.9l-11.9,13.2
		l-11.9,14.5l-6.6,7.9l-7.9,5.3l-5.3,5.3l-11.8,10.6l-5.3,6.6l-5.3,2.8l-5.4,2.1l-5.4,2.2l-1.1,1.1l-0.1,0l0.7,2.5l1.1,5.4v5.4
		l-2.9,5.4l-2.6,4l-3.1,1.4h-2.2l-2.2,1.1v8.6l2.2,2.2l3.2,2.1v1.1l-2.2,1.1l-1.1,3.2l-2.2,5.4l-3.2,5.4l-2.2,3.2h-9.7l-1.1-1.1
		l-1.1-2.2v-5.4l-1.1-2.1h-2.2v2.2l-1.2,4.2l-0.5,4l0.2,0.1l-0.8,6.4l1.3,10.6l4,5.3l1.1,0.5l-0.1,0.2l7.9,3.4l10.6,5.3l10.6,6.6
		l3.5,5.9l0.3-0.1l0.4,0.6l4,4l2.6,4v9.2l-1.3,7.9l-5.3,7.9l-7.9,5.3l-6.6,2.6l-4,2.6l-2.6,2.6l-5.3,2.6l-6.6,2.6l-4-1.3h-4l-4,2.6
		l-5.3,4l-4,2.7l-5.3,2.6l-4,6.6l-4,6.6v8.4l-0.6,6l0,0l-0.7,8v36.5l2.6,8.4l5.3,9.2l6.5,5.3l5.2,7.4l4.1,8.5v5.3l1.3,2.6l4,4
		l7.9,1.3l7.5,3.1l8.6,4.3l7.5,4.3l4.3,4.3l2.5,3.2l0,0l1.8,2.2l1.1,3.2l3.2,3.2l1.1,3.2l0.6,2.4v2.2l-5.3,5.3l-4,9.3l-1.1,12.1
		l-5.4,6.5l-1.1,7.5l2.2,5.4l3.2,5.4v5.4l-1.1,4.3l-2.2,2.2l-1,0.6l-3-0.3l-3.7-2.8l-5.3-2.6l-2.6-1.3l-0.5-0.5l0.3-0.5l-1.7-1.7
		l-2.6-5.3l-1.3-2.6h-2.6l-4-1.3l-4-2.6l-1.3-4V684l-2.6-2.6l-5.3-2.6l-4-4l-2.6-2.6l-4-2.6l-5.3-1.3c0,0-4-1.3-4-2.6
		c-0.2-1.4-0.7-2.7-1.3-4v-4.9l-4-4.3l-2.6-4l-4-2.6l-2.6-4l-4-2.6l-4-1.3l-5.3-1.3l-6.6-2.6l-9.5,7.5c0,0-5.3-1.3-6.6-2.6
		c-1.7-1.4-3.4-2.8-5.3-4l-2.6-5.3l-1.3-1.3h-4l-2.6,1.3l-2.6,2.6l-6.6,2.6l-6.4-10.2l-11.9,2.6l-4,1.3l-2.6,1.3l-1.3,4v2.2
		l-2.6,1.8l-4,2.6l-4,2.6l-2.6,2.6l-2.6,4l-4,2.6l-5.3,6.6l-4,4l-2.6,6.6l-2.7,9.2l-2.6,10.6l-1.3,9.3l-2.6,13.2l-5.3,7.9l-2.6,4
		l-4,1.3l-4-2.6l-4-1.3l-2.6,2.6l-2.6,11.9l-4,13.2l-2.6,9.2l-4,9.3l-2.6,6.6l-2.6,9.2l-2.6,10.5l-1.3,9.3l-1.3,5.3l2.6,7.9l2.6,4
		v8.1l-2.6,6.6l-5.3,7.9l-6.6,6.6h-6.6l-2.6-4v-3.1l-5.3-4.8l-1.3-4l-2.6-6.6l-2.6-4h-9.2l-4,1.3h-17.2l-5.3,2.6l-6.6,1.3l-5.3,5.3
		l-1.3,5.3l-5.3,2.6l-1.3,5.3l-2.6,4h-2.6l-2.6-2.6v-3.6l-1.3-5.7l-1.3-4v-5.1l-1.3-2.8l-1.3-5.3l-2.6-5.3l-1.3-2.6l-1.3-5.3
		l-1.3-9.2l2.6-5.3v-11.9l-1.3-5.3l-2.6-5.3l-2.6-5.3v-5.5l-18.4,3.8l0.8,6l2.2,8.6l3,6.7l-2.7,0.7v3.3l-31.3,6.1
		c-1.2,0.3-2,1.3-2,2.5c0,1.4,1.1,2.6,2.6,2.6c0.2,0,0.4,0,0.5-0.1l38.2-8.4l2,13.4c-4.1,0.8-31,6.6-31,6.6
		c-0.6,0.2-1.1,0.7-1.1,1.4c-0.1,0.8,0.6,1.6,1.4,1.6c0.1,0,0.2,0,0.3,0c0,0,27-4.8,31.1-5.6l2,8l-4,1.3v2.7l-20.2,4.1
		c-0.6,0.2-1.1,0.7-1.1,1.4c-0.1,0.8,0.6,1.6,1.4,1.6h0.3l25-5.1l2.7,13.4l3.3,13.4l2.7,12l2,9.4l-2.7,2.7l0,0l-1.2,2.7l-5.8,7.1
		c0,0,0,0,0,0c-0.5,0.6-0.4,1.4,0.2,1.9c0.2,0.2,0.5,0.3,0.8,0.3c0.4,0,0.8-0.2,1-0.5l6-7.3l0.3-0.2l5.4,6l-5.5,7.7c0,0,0,0,0,0
		c-0.4,0.6-0.3,1.4,0.3,1.9c0.2,0.2,0.5,0.2,0.8,0.2c0.4,0,0.8-0.2,1.1-0.6l5.2-7.3l0.1,0.1l2.7,0l0,0l4.1,0.5l2.6,8.1l12-1.3
		l9.4-0.7l0.5-1l28.3-2.3l6.7,5.3l24.7-2l14.7-18l3.3-3.3l0.3-1.3l2.3-3.2l5.5-15.6l1.3-2l3.3-4l1.8-2.5l55.6-49.5l16.7,0.8l4.6,1.5
		l7.7-3.1v19.4l-8.7,5.3l4.8,6.4l11.3-7.1l0.2-15.7v-13.7l0-0.9l11.9,0.1l6,13.4l68.2-30.8l4.7-2l2,3.3l0.7,2l2.7,5.3l3.3-2
		l-2.7-5.3l-0.7-2l-0.7-3.3l4-2.1l5.3-2.3l1.4,2.4l8.7-4l-1.3-2.7l5.3-2l3.5-8l2.7,2.3l5.8,0.4l22.7-16l-2-7.4l-2.7-9.4l7.4-33.8
		l2.3-10.6l-0.1,0l0.1,0l6.4-29.8l-2-2l-18.7-15.6l0,0l0-0.1l-10.8-9.5l0.1-3h6.6v-6h-6.7l0.3-1.6l2.4-60.6l2.7,0.6l5.4-2.3l2.3-5.4
		v-4.9l20.5-44.8h2.4l7.7,3.6l1.4-3l-7.3-3.4l-1.8-2.1l17-37.2l10.9-5.7l243,235.3l9.6,12.4l14.3,14.3h5.3l24.4,24.9h5l22.7-23.9
		v-4.8l-28.9-30l-0.1-1.7l1.5-14.4l-1.5-4.5l-30.6-30.2l-7.3,7.3l-4-0.7l-6.4-3.4l-3.6-2.7l-51.9-48l-4.8-2.9l-123.8-120.2l0.7-3.3
		l9.4-26.7l4,1.3l93.9,90.1l-0.4-0.4l-21.8,22.2l5.3,5.2l21.7-22.3l53.1,51l36.8-38.8l12,11.4l31.4,33.4l20.7,24.1l21.1,25.9
		l6.9,9.5l0.2,0.2l2.5-2.3l2,3.3l0.7,1.3l4.4,5.1l-2.6,1.8l1.3,1.8l2.4-1.7l3.7,7.2l-5.9,4.5l0.6,0.8l-20.3,14.5
		c-0.6,0.4-0.7,1.3-0.3,1.9c0.4,0.6,1.3,0.7,1.9,0.3l20.4-14.6l0.6,0.8l6.1-4.6l0.2,0.2l13.9,20.2l1.1,1.6c-0.4,0-0.7,0.2-1,0.5
		c-0.4,0.5-0.6,1.1-0.4,1.8l-6.4,6.4l2.3,2.3l6.4-6.4c0.6,0.2,1.3,0,1.8-0.5c0,0,0.1-0.1,0.1-0.2l1.4,2l11,8.8l5.4,0.9l0.3,0.3
		l-0.3-0.3l-5.3,4.7l33.4,40.8l4,4.7l5.2,2.8v276.2h-1.9l-0.2,0.1l-6.7-6.1l0.4-0.7v-2.4l6.8-6.8l-3.5-3.5l-7.1,7.1h-2.2l-0.9,0.4
		l-7.1-6.4l0,0l-27.2-27.4l-39.4-18.4l-22.7-4.4V948l-7.4-1l-32.6-6l-54.3-25.5l-7.2-4.2l-6.8-3l-3.6-0.2l-7-2.2l-4-2.7l-7.3-5.3
		l-7.2-4.3l-12.8-5.1l-12.7-4l-11.5-5.3l-11.3-4l-8.7-1.3l-19.4-2l-4.7-2l-4.5-0.5V867h-6.9v2.8l-10.7,2.7l-15.4,5.3l-4.1,0.9
		l-0.6-3.2c0.6-0.6,0.9-1.5,0.8-2.3c-0.2-0.8-0.8-1.5-1.5-1.8l-1.5-8.5l-3.9,0.7l1.5,8.5c-0.2,0.2-0.4,0.5-0.5,0.8
		c-0.5,1.2,0,2.7,1.3,3.2l0.6,3.3l-12.3,2.6l0.3-2.3l-1.3-2.7l-1.3-7.4l-3.6,0.8l1.6,7.4v3.2l1.2,1.6l-1.9,0.4l-22.1,0.7
		c-1.3-0.5-2.6-1-4-1.3h-3.3l-3.3,0.7l-15.4,4.7l-18.7,4.7l-8.7,3.3l-9.4,4.7l-6.7,4.7l-17.8,15.1l-0.5-0.2l-0.6-0.2h-1.2l-0.6,0.2
		l-0.8,0.4l-2.1,1.9l-18.8,17.6l-1.9,1.7l-12,12.6l-23.7,27.8l7,4.7l0,0l-18.6-12.6c-0.1,0-0.1-0.1-0.2-0.1
		c-0.8-0.5-1.8-0.2-2.3,0.6c-0.5,0.8-0.2,1.8,0.6,2.3l18.7,12.6v2.8l1,4.8l1,6.7l1,2.9l2.9,1.9l0.1,4.7l-0.7,4l-2.7,5.3l-2.7,3.3
		l-2,2l-9.3,3.5l-22,4.8l-5.7,1l-7.7,1.9l-6.7,3.8l-5.7,4.8l-2.9,4.8L1280,1066l-4.5,0.7l-0.4-3.6v-6.1l3-15.9l3-12.9l-1.5-3
		l-3.8-0.8l-3.2,1.6h-3.4l-4.6-10.7c-0.4-0.8-1.3-1.2-2.1-0.9s-1.2,1.3-0.9,2.1l4,9.3h-1.2l-7.6,1.5l-2.6,4.4l-4.3-0.9
		c-0.9-0.2-1.7,0.4-1.9,1.3s0.4,1.7,1.3,1.9l3.3,0.7v20.8l-21.4,9.7l-3-11.4v-1.5l14.4-12.9l0.8-3l-1.5-1.5l-3.8,0.8l-16,13.6
		l0.1-0.2l0.6-0.8l-20.3,3.1l-7,1l-4.8,0.8l-3.1,0.4l-6.4,1l-5.2,0.6l-2.3,0.4l-0.8-1l-1.2-10.3l-0.2-0.2v-0.2h-0.4l-3.1,0.2
		l-0.2,0.2h-0.2v0.2h-0.2v0.2l1.2,10.1v0.4l-0.4,0.4l-0.2,0.4v0.2l-16,1.7l-1.4,0.2h-3.9l-0.6-0.2l-0.6-0.4l-0.6-0.4l-0.8-0.4
		l-0.4-0.6l-0.4-0.4l-0.4-0.6l-0.4-0.6l-0.4-0.8l-0.2-0.6l-0.6-8.7v-1.4l1,0.2v0.4l0.8,0.4l0.2-1.2l-0.8-0.2v0.2h-0.4l0.6-2.3
		l0.4,0.2v0.2l0.8,0.2l0.2-1l-0.8-0.2l-0.2,0.4l-0.2-0.2l1.6-5.4v-0.8l-0.2-0.2l-0.2-0.2l1.6-0.4l-2.9-11.2l-0.2-0.4v-0.2l-0.2-0.4
		l-0.2-0.2l-0.4-0.4l-0.4-0.2h-0.4l-0.4-0.2h-0.4l-0.4,0.2l-0.4,0.2l-0.4,0.2l-0.2,0.4l-0.4,0.4l-0.2,0.4v1l1.6,5.4h-9.8l-0.6-0.4
		l-0.6-0.2l-0.8-0.4l-0.8-0.4l-1.2-0.4l-1.4-0.4l-1.9-0.4l-1.3-0.2h-3.1l-1,0.2l-1.2,0.2l-1,0.2l-1.2,0.4l-1.2,0.6l-1.2,0.6
		l-1.4,0.8l-1.3,0.8l-0.2,0.2l-2.9,2.9l-0.2,0.2l-0.2,0.2v1l0.2,0.4l0.2,0.2l0.2,0.2l0.2,0.2h0.2l-2.7,8.5l-1.3,1.2l-1.4,1.2
		l-1.2,1.4l-0.6,0.6l-0.6,1l-0.4,1l-0.8,1.4l-0.2,0.8l-0.8,1.2l-0.2,0.6l-1,1.6l-0.8,1.2l-1.6,1.9l-1.2,1.4l-1.5,1l-2.1,1l-1.7,0.8
		l-2.5,0.8l-2.9,0.6h-2.1l-2.3-0.2l-3.9-0.6l-7-1.7l-7.5-2.1h-0.6l-6-0.4h-3.7l-2.3-0.8l-1.5-0.8l-1.5-0.8l-1.5-0.8l-2.3-1.5l-1.7-1
		l-1.7-0.2l-1.4-0.2l-2.9-0.2l-1.9-0.2l-1.3-0.2l-3.5-0.4l-4.8-1l-5.8-1.2l-1.7,1l-4.6-1.9l-2.3-0.8l-2.1-0.8l-4.6-1.9l-1.7-0.6
		l-1.5-0.8l-4.1-1.6l-20.1-8.1l-0.4-1.7h-0.2l-3.1-1.9l-2.9-1.9l-2.7-7.7l9.3-3.1l0.4-0.2l0.2-0.2l0.2-0.2l0.2-0.2v-0.2l0.2-0.2
		v-0.4l-0.2-0.2v-0.2l-0.2-0.2v-0.2l-0.2-0.2h-0.2l-0.2-0.2h-0.8l-9.5,3.3l-3.3-9.1l9.5-3.3h0.4l0.2-0.2l0.2-0.4l0.2-0.4v-0.6
		l-0.2-0.2l-0.2-0.4l-0.2-0.2h-0.2l-0.4-0.2h-0.6l-9.5,3.3l-2.3-6l4.1-9.7l-3.9-1.5l-4.1,9.7l-1.4,0.8l-6.6-2.9l-1.3-0.6l0.2-0.2
		l-0.4-1.2l3.9-9.4v-0.4l-0.2-0.2l-3.1-1.3h-0.2l-0.2,0.2l-0.2,0.2l-3.9,9.5l-1,0.6l-0.2,0.2L928,991l0.2-0.2l-0.6-1l3.7-9.9v-0.4
		h-0.2l-0.2-0.2l-2.9-1h-0.5v0.2l-3.7,9.9l-0.8,0.4l-0.2,0.4l-8.5-2.9l0.2-0.4l-0.6-0.8l3.1-10.1v-0.4l-0.2-0.2l-2.9-0.8l-0.4-0.2
		l-0.2,0.2h-0.2v0.2l-3.1,10.1l-1,0.4l-8.5-2.5l-0.6-1l2.7-10v-0.2h-0.2v-0.2h-0.2l-3.1-1H899v0.2h-0.2l-0.2,0.2l-2.5,10.1l-1,0.6
		l-8.7-2.1l-0.6-0.6l2.9-10.6l-0.4-0.4l-3.3-1l-0.6,0.4l-2.7,10.3L881,977l-8.4-2.1l-0.6-1h-0.2l2.9-10.6l-3.9-1l-2.9,10.6l-1,0.4
		l-3.1-0.8l-1-1.7l-4.8-1.4l2.7-9.8l-1.5-0.4l-21.3,22l-3.1,3.1l-1.1,0.9l-2.4-4.1l-5.3-4.6h-7.5l-11.6-3.1l1.8-6.9l0.6-0.4l4.1,1.2
		l0.2-0.6h0.2l0.4-1.2l0.4,0.2l-0.2,1.2l2.9,0.8l1.9-1.2l0.6-1.9l-1.2-2.1l-2.9-0.8l-0.4,1.4l-0.6-0.2l0.4-1.2l-0.2-0.2l0.2-0.6
		l-4.3-1.2l-0.2-0.4l1.9-7.3l0.4-0.2l3.3,1l0.4-1.5l0.6,0.2l-0.4,1.4l1,0.4l0.4-1.3h0.8l-0.4,1.5l2.1,0.6l2.1-1.2l0.7-1.9l-0.4-0.6
		l-10.3-2.9l-21.7-5.8l-0.6,0.4L790,944l1.1,2l13.9,3.7l0.2-1.3h0.6l-0.4,1.5l1.2,0.2l0.4-1.4l0.6,0.2l-0.4,1.3l3.3,1l0.2,0.4
		l-1.9,7.2l-0.4,0.4l-15.7-4.3l-0.2,0.6l-0.4,1.2h-0.6l0.2-1.3l-2.7-0.8h-0.2l-2.1,1.2l-0.4,1.9l1.3,2.1l2.7,0.8l0.4-1.3l0.6,0.2
		l-0.2,1.3v0.6l4.1,1l0.4,0.6l-1.9,7.1l1.8,0.5l2-7l0.4-0.4l8.7,2.3l0.4,0.6l-1.9,7.1l-23.8-6.3l-9.9-12.1l-3-3.8l-69.5-17.6
		l-74.6-2.9l-7.7,1.9l-15.8,4.4l1.6-0.4l-1.5-5.3l-3.1,0.9l1.5,5.3l-24.4,6.8l-1.5-5.2l-3.7,1l1.5,5.3l0.5-0.1l-12,3.3l-1.7-6.2
		l-3.7,1l1.7,6.3l0.4-0.1l-10.1,2.8l-1.9-6.7l-3.7,1l1.9,6.7l1.7-0.4l-13.8,3.8h-5.7l-32.5-5.7l-1,5.7l42.1,7.7l1.9,6.7l0.8,5.4
		l-34.9-5.5l-41.6,39.7l-19.5,18.6l-11.6,11.8v1.2l-18.4,3.6l-13.9,2.5l0,0l-11.9,2.2l-36.9,13.9l-2.5-7.3l16.8-12.1l-3.2-5.2
		l-21.3,15.5l4.3,11.3h0l-26.2,9.8l-10.6,4.2h11.7h9.3l8.9-2.6h9.3l3.2-2.2l2.2-2.2l1.1-1.1l1.1,1.1l2.2,1.1h3.2l5.4-1.1l2.2-1.1
		l1.1-2.2l2.2-3.2l1.1-2.2l3.2-2.2l3.2-2.2l3.2-1.1l2.2,1.1l1.7,0.5h3.1l3.2-1.1l4.1-2.2h5.6l0,0l4.9,4.9l4.4,5.6l2.7,1.4l4.1,2.7
		l4.1,1.4l5.5,1.4h5.5l5.5-1.4l5.5-1.4l4.1-1.4l4.1-1.4l6.8-4.1l4.1-4.1l2.7-4.1l2.7-5.4l1.4-4.1l1.4-4.1l2.7-2.7l2.7-2.7l4.1-2.7
		l5.5-2.7l4.1-4.1l2.7-2.7l2.7-1.4l4.1-2.7l1.4-6.8l1.4-4.1l2.7-4.1l2.7-4.1v-4.1v-3.3l-1.4-2.2l1.4-4.1l-0.1,0.1l0.1-0.1l2.7-2.7
		h5.5l4.1,1.4l5.5,1.4l8.4,1.2h0.1v0l5.6,4.9l-0.1,0.1l5.4,4.1l4.1,1.4h14.9l6.8-1.4l4-1.4l5.4-2.7l5.4-2.7l4.1-2.7l4.1-2.7l4.1-1.4
		l5.4-1.3h8.1l3.9,0.4l4.3,1.1h4.3l4.3-1.1l1.7-1.5l5.4-2.7l1.3-4.1l1.4-4l1.4-1.3l2.7-0.3h9.5l4.1,0.3l2.6,0.8l1.4,3.3v2.6l2.7,2.7
		l4.1,1.4H679l4.1,1.3h2.7l5.4,1.4l2-1l2.1-1.1h2.2l4.3,1.1l1.1,1.1l3.2,3.2l2.2,2.2l3.2,2.1l4.3,1.1h3.2l4.3-2.1l4.3-3.3l4.3-2.1
		l4,0.5l4.1,4.1l4.1,2.7l4,4h8.2l1.4-2.7l2.7-1.4h2.7l1.4,2.7l4.1,2.7l4.1,2.7l1.3,2.7v4.1l4.1,1.4l4.1,1.3h2.7l2.7-1.3l2.7-1.4h1.4
		l2.7-1.3l1.3-2.7h4.1l4.1,1.4h8.1l5.4,2.7l2.7,1.4h6.8l4.1,1.3l2.7,1.4l1.3,1.3l1.4,1.3l2.7,2.7l4.1,2.7l1.3,4.1v5.4l1.3,2.7
		l4.1,4.1l1.4,2.7l2.7,2.7l2.7,2.7l1.4,2.7l1.3,1.3l2.7,2.7l2.7,4.1l1.4,4.1l2.7,2.7l2.7,4.1l4.1,4.1l2.7,2.7l1.3,2.7l1.4,2.7
		l0.9,1.8h75.7l0,0l0.1,0h4.2h0v0h65.5l0,0h268.5l0,0h29.9h0l0,0h65.2h0.1h15.9h481h32.4v0v0v-20.6l0,0l0,0v-2.6v0V1029V740.3v-11.4
		v0V573.2L1920,0L1920,0z M1019.1,1080L1019.1,1080L1019.1,1080L1019.1,1080z M1086,1080L1086,1080L1086,1080L1086,1080z
		 M1276.5,1080l-0.5-0.5v-1.4l1.3-1.3l1.3-1.3l1.4-1.4l0,0l2.7-1.3l4.1-1.4l0,0l0,0l4.1,1.4l4.1,4.1l0.6,3.2H1276.5z M1318.2,1058.6
		L1318.2,1058.6L1318.2,1058.6L1318.2,1058.6z M1404.9,1069.9L1404.9,1069.9L1404.9,1069.9L1404.9,1069.9z M1406.3,1077.5l-0.3-2
		l-0.9-5.6l0,0l-0.4-2.5v-10.8l-1.3-10.8v-10.8l-1.4-10.8l-1.3-12.2l-1.3-6.8V997l1.3-5.4l4.1-4.1l9.5-12.2l8.1-9.5l16.2-19l6.8-8.1
		l5.4-4.1l5.4-2.7h5.4l6.8,1.4l5.4,1.3l6.8,1.3l5.4,1.4h14.9l5.4-1.4l6.8-1.3l9.5-2.7l9.5-2.7l9.5-1.3l10.8-1.3h12.2l3.8-1l6.4-3.2
		l7.5-3.2l8.6-3.2l6.4-2.2l5.4-3.1l0,0l2.1-1.2l4.3-2.1l2.2-0.5h2.6l16.1,2.2l13.9,4.3l10.7,4.3l8.6,6.4l7.5,10.6l1.1,2.8l0.3,0.1
		l-0.3,0.1l4.3,11.2l5.4,21.5h0l2.1,6.4l2.2,5.4l4.3,10.7l6.5,13.4l5.3,8l6.1,7l2.4,0.5h3.2l4.3-3.2l3.2-3.2l1.1-5.4l1.1-3.2
		l2.2-2.2l3.2-1.1h3.2l3.2,2.2l1.5,3.2l1.7,3.2l2.2,3.2l4.3,6.4l3.2,6.4l1.1,1.1h1.3l1-1.1l3.2-3.2l4.3-6.4l3.2-3.2l3.2-2.2l5.4-3.2
		l3-1.1h3.4l4.3,1.1l4.3,2.2l5.4,3.2l5.4,3.2l10.7,4.3l12.4,2.2h5.8l4.3,1.1l3.2,2.1l6.4,6.4l7.5,7.5l3.2,5.4l2.1,2.2l3.2,5.4
		l2.1,2.2l4.3,5.4l5.4,7.5l0.7,1.2l0.1,0l0,0l3.6,6.3l2.7,2.7L1406.3,1077.5z M1920,1045l-8.1-8.1l8.1-7.9V1045z"/>
	<polygon class="st1" points="594.7,938.3 593.2,932.8 590.1,933.7 591.6,939.2 	"/>
	<path class="st1" d="M1479.7,618.2c-0.5,0.3-0.7,0.9-0.4,1.4c0.2,0.3,0.5,0.5,0.9,0.5c0.2,0,0.3,0,0.5-0.1l70.2-36.8v0c0,0,0,0,0,0
		c0.5-0.3,0.7-0.9,0.4-1.4c0,0,0,0,0,0c-0.3-0.5-0.9-0.7-1.4-0.4L1479.7,618.2C1479.7,618.2,1479.7,618.2,1479.7,618.2z"/>
	<path class="st1" d="M1452.6,546.7C1452.6,546.7,1452.6,546.7,1452.6,546.7c-0.3-0.5-0.9-0.6-1.4-0.3c0,0,0,0,0,0
		c-0.5,0.3-0.6,0.9-0.3,1.4l28.7,44.1c0.2,0.3,0.5,0.5,0.8,0.5c0.2,0,0.4-0.1,0.5-0.2c0.5-0.3,0.6-0.9,0.3-1.4L1452.6,546.7z"/>
	<path class="st1" d="M1813.5,695.9c1.9,0.1,3.7-0.3,5.3-1.1c4-2.7,15-11.1,15.4-11.4c0,0,0.1-0.1,0.1-0.1c0.6-0.5,0.6-1.3,0.1-1.9
		c-0.5-0.6-1.3-0.6-1.9-0.1c-0.1,0.1-11.4,8.7-15.3,11.3c-2.5,1.7-11.7,0-16.9-1.5c-0.7-0.2-1.5,0.2-1.7,0.9
		c-0.2,0.7,0.2,1.4,0.9,1.7C1800.8,693.9,1808,695.9,1813.5,695.9z"/>
</g>
<g>
	<defs>
		<rect id="SVGID_1_" width="1920" height="1080"/>
	</defs>
	<clipPath id="SVGID_2_">
		<use xlink:href="#SVGID_1_"  style="overflow:visible;"/>
	</clipPath>
	<g class="st2">
		<path id="Pre1900_Kln" class="st3" d="M232.6-154.4l0.4,0.9l4.3,7.5l2.1,3.2l2.1,3.2l1.1,3.2l1.1,4.3l1.1,2.2l1.1,3.2l1.1,1.1
			l3.2,1.1l2.1,2.2l1.1,2.2l2.1,2.2l2.2,1.1h3.2l1.1-1.1l3.2-2.2h4.3l6.5-1.1l6.5-5.4l3.2-7.5l3.2-6.5l2.1-9.7l3.2-6.5l6.4-3.3
			l6.7-4.6h3.9l3.4-1l3.1-2.1h8.7l3.9,1l2.9,0.5l3.4,0.5l3.2,1h2.3l2.9,1.1l3.1,1.1l2.1,1l3.1,2.1l3.2,2.1l2.1,2.1l2.1,2.1l2.1,2.1
			l2.1,1h3.8l0.4-1h1l1.6,1l1.6-1l1-1.1l1.1-1.1v-3l-1.1-1.2v-2.1l1.1-1.1l1-1v-5.3l-1-1l-1.1-1.1l-1-1.1l-1-1.1l-1-2.1v-2.1l1-2.1
			l1-2.1l1-1l2.1-2.1l2.1-2.1l2.1-1h2l2.2-1.1l1.1-2.1v-2.1l1-2.1l2.1-2.1l2.1-2.1l2.1-1.1l2.1-1.1l2.1-1h1.9l2.4-1.1l2.1-1l2.1-2.1
			l2.1-2.1l1-1.1l1-2.1l2.1-2.1l2.1-1.1h6.3l3.1,1.1h2.1l3.2,1h6.3l3.2,1.1l3.1,1.1l3.1,2.1l2.1,1.1h6.3l3.1,1l3.2,2.1l3.1,1h3.1
			l4.2-1l3.1-1.1l2.1-1.1l3.2-4.2l1-3.1l1-4.2l1-3.1l1-3.1l2.1-3.2l2.1-3.1l2.1-3.1l2.1-3.2l2.1-3.1l2.1-3.1l3.1-3.2l4.2-3.1
			c0,0,3.1-3.1,4.2-3.1s2.1-2.1,2.1-2.1v-2.2l-1-4.1l-1-3.2l-1-3.1l-1-3.1l1-3.2l2.1-2.1l2.1-1h4.2v1l-3.1,1l-2.1,1l-1,2.1v2.1
			l1,3.1l1.1,3.1l1,3.2l1.1,3.1v8.4l-1,2.1l-2.1,2.1H503l-2.1,2.1l-2.1,2.1l-3.1,3.2l-2.1,3.2l-3.1,4.2l-2.1,4.2l-2.1,3.1l-1,3.1
			l-1.1,3.1l-1,3.1l-1,3.1l-2.1,3.2l-2.1,2.1l-2.1,3.1l-2.1,3.2l-1.1,3.1l-1,4.2v14.8l-1,3.1v2.1l1,3.1l1,5.3v5.3l-0.7,5.3l-0.3,4.2
			v7.4l1,2.1l1,3.2H473l-2.4-1.1h-4.2l-1.3,1.1l-1.9,2.1l-2.1,2.1l-3.2,3.2l-2.1,2.1l-2.1,2.1l-2.1,2.1l-2.1,1l-2.1,4.2l-2.1,4.2
			l-2.1,4.2l-2.1,4.2l-2.1,3.2l-2.1,3.2l-1.1,4.2l-3.1,4.2l-3.1,3.2l-3.2,3.2l-2.1,2.1l-3.1,2.1l-3.1,3.2l-2.1,2.1l-3.1,1l-3.1,1.1
			h-2.6l-2.6,1l-1,1.1l1,2.1v5.3l1,2.1l-1,2.1l-1,2.1l-1.1,3.2l-1,3.2l-1,3.2l-2.2,4.2v7.4l-1,4.2l-1,4.2v6.3l1,4.2v3.2l1,4.2v8.4
			l-1,4.2v22.1l1,4.2l1,3.2l1,3.2l1,3.2l2.1,3.2l2.1,3.2l3.2,2.1l3.2,1.1h5.3l2.1,1l2.1,2.1l2.1,1l3.1,1l2.1,1.1l2.1,2.1l3.1,2.1
			l4.3,1.1l3.1,1h4.2l3.2,1.1h2.1l1,1l2.1,2.1l2.1,2.1l2.1,2.1l1,1.1h4.3l0.9,1h8.9l1.6,1l2.1,1.1l2.1,1h1.8l2.4,1.1v3.2l0.8,4.2
			l1,4.5l1.1,4.3l2.2,2.2l3.2,1.1l1.1,3.2l1.1,2.2l1.1,3.2v3.2l-1.1,3.2v3.2l1.1,2.2l2.1,3.2h3.6l2.9,1.1h3l2.4,1.1l3.2,1.1l2.2,3.2
			l1.1,3.2v3.2l1.1,3.2l1.1,2.1l1.1,2.2l1.1,2.1h2.2l2.2,1.1h4.3l2.2,1.1l1.1,1.1v4.3l-1.1,2.1v2.2l1.1,1.1l1.1,1.1h1.5l1.7-1.1
			l2.2-1.1h1.1l3.2-1.1l4.3-1.1l3.2-1.1h2.2l2.2-1.1l1.1-2.1l1.1-2.2l1.1-2.1v-5.4l1.1-2.1l1.1-2.1l1.1-2.2v-3.2l-1.1-3.3v-1.1
			l2.2-1.1l1.1-2.2v-6.5l1.1-2.2l1.1-2.2v-2.2l-1.1-3.2v-4.3l1.1-3.6v-2.9l-2.2-3.3v-3.2l-3.2-5.4l-1.1-5.4v-4.3l-1.1-4.3l-1.1-4.3
			L555,64l-1.1-2.2l-2.2-2.2l-2.7-0.3h-4.8l-2.9-1l-1.3-1l-1.1-3.2V31.6l-1.1-3.2v-2.2l1.1-1.1l2.2,3.2l2.2,1.1l2.2,2.2v3.2l1.1,2.2
			l2.2,1l2.2,1.1l3.2,0.2l2.2-0.2h2.2l2.2,1.1v7.3l2.2,1.3l3.2,1.1l1.1,3.2l1.1,3.2l1.1,4.3l2.2,3.2l2.2,2.1l3.2,1.1h2.2l2.2,2.2
			l2.2,2.2v1.9l-3.2,2.5l-1.1,2.2L580,80l1.1,3.2v22.6l2.2,3.2l1.1,2.2l2.2,2.2l1.1,2.2l1.1,1.1l1.1,1.1l1.1,1.1l1.1,1.1v1.9
			l1.1,1.3l1.1,1.1l1.1,1.1l3.2,2.2l4.3,1.1l3.2,1.1h4.3l3.2,1.1l3.2,1.1l3.2,2.1h2.2l3.2,1.1l2.2,2.1v11l1.1,3l1.1,3.2l1.1,2.2
			l1.1,2.1l1.1,2.1l1.1,2.2l1.1,2.1l1.1,2.1v2.2l1.1,3.2v2.1l1.1,3.2l1.1,2.2l1.1,2.1l1.1,1.1l3.2,2.1l3.2,1.1l3.2,1.1l3.2,1.1h5.4
			l2.2-1.1l2.2-1.1l2.2-1.1l2.2-1.1l10.1-3.2l8.3-3.3l4.3,1.1l1.1,1.1l2.8,1.2h3.4l3.5-1.2l4.3-2.1l1.1-2.1l1.1-3.2v-1.4l1.1-0.8
			l1.1,2.2v2l2.2,1.2l3.2-1.1l8.6-3.2l4.3-1.1h2.2l3.2,1.1l1,2.2l1.1,2.2l3.2,2.1h11.8l4.3-1.1l5.4-1.1l3.2-2.2l1.1-2.1l1.1-2.1
			l-1.1-3.2l-3.1-3.2l-6.5-4.3l-2.2-2.1v-2.2l1.1-1.1h2.2l3.2,2.1l3.2,2.1l3.2,3.2l2.2,3.2l1.1,2.2l1.1,4.3v3.5l1.1,3h3.2l2.2-1.1
			v-4.8l-1.1-2.8l-2.2-4.3l-2.2-7.5v-9.7l1.1-1.1l1.1,1.1v2.2l1.1,2.1l1.1,1.1h2.2l3.2-2.2l2.2-1.1l1.1,2.1h3.2l3.2-1.1l2.2-1.1h2.2
			l6.5-1.1l4.3-2.1l4.3-3.2l2.2-3.2l2.2-3.2l2.9-3.9l6.6,4l4-1.3l2.6,2.6l4,1.3l5.2,5.3l5.3,4h2.7l6.6,5.3l6.6,5.3l4,4v3.9l2.6,5.4
			l4,4h5.2l2.6-2.6h1.4l1.3,4l5.3,2.6l2.6,1.3l4,2.6l4-1.3l1.3,4l7.9,4l7.9,7.9l5.3,4l1.3,6.6v6.4l1.3,9.4l4,13.2l5.3,14.5l6.6,13.2
			l5.3,5.3h3.7l0.2,7.9l2.6,5.3l-5.3,7.9l-5.3,6.6l-6.6-2.6h-6.6l-5.3-2.6h-6.6l-6.6,1.3l-2.8,2.3l1.3,6.6l4,6.6l7.9,5.3l4,2.6
			l1.3,4l-1.3,2.6l1.3,2.6l7.9,7.9l6.5,6.5l1.3,2.6l2.7,2.7h2.6l1.3,1.3l2.6,1.4l1.3,4l1.3,5.3l2.6,4l2.7,2.6l1.3,2.6l-2.7,2.6
			l-1.3,1.3l-2.6,1.3l-3.4,0.7l-3.2,0.6l-4,1.3h-2.9l-2.3,2.5l-2.6,4l-4,13.2l1.4,11.8l-2.6,17.2l1.3,4l2.6,4l4,4l5.3,7.9l5.3,2.6
			l5.3-5.3l5.3-6.6l1.3-6.6l1.3-4l6.6-5.3l2.6-4l1.3-9.2l1.3-9.2l1.3-6.6l2.6-6.6l1.3-5.3v-7.9l1.3-2.7l9.2-1.3l15.8,1.3l13.2,2.6
			l9.3,2.6l8,1.3l5.2,4v18.5l-1.3,4l1.3,4v5.3l-4,7.9l-2.6,4l-2.6,2.6v4l1.3,4v26.4l1.3,5.3l1.4,3.4v1.7l2.6,5.5v14.5l2.6,2.6l4,2.6
			l2.6,1.3l2.6,4v4l1.3,4l1.3,2.6v4l1.3,2.6v4l-1.3,1.3l-2.6,1.3l-2.6,1.3l-1.3,5.3l1.3,1.3v4l4,2.6l1.3,1.3l4,1.3l1.3,4l4,5.3
			l1.3,6.6l2.6,2.6v2.6l-1.3,5.3l-2.6,5.3l-1.3,6.6l2.6,1.3l5.3,5.3l5.3,4v6.6l-2.6,2.6v5.3l-1.3,4v10l-1.3,4l-2.6,5.3l-4,4
			l-5.3,1.3l-4,4l-1.3,4l-2.6,6.6l-2.6,6.6l-4,9.3l-2.6,1.3l-6.6,2.6l-2.6,2.6l-1.3,4l-1.3,3.7v9.3l1.3,2.6l2.6,4l5.3,1.3l2.6,1.3
			l2.6,3.9l1.3,6.7l1.3,5.3l-1.4,7.9l-1.3,7.4v7.1l1.3,7.9l1.3,9.6v12.8l2.6,5.3l2.6,5.3l1.3,5.3v11.9l-2.6,5.3l1.3,9.2l1.3,5.3
			l1.3,2.6l2.6,5.3l1.3,5.3l1.3,2.8v5.1l1.3,4l1.3,5.7v3.6l2.6,2.6h2.6l2.6-4l1.3-5.3l5.3-2.6l1.3-5.3l5.3-5.3l6.6-1.3l5.3-2.6h17.2
			l4-1.3h9.2l2.6,4l2.6,6.6l1.3,4l5.3,4.8v3.1l2.6,4h6.6l6.6-6.6l5.3-7.9l2.6-6.6V820l-2.6-4l-2.6-7.9l1.3-5.3l1.3-9.3l2.6-10.5
			l2.6-9.2l2.6-6.6l4-9.3l2.6-9.2l4-13.2l2.6-11.9l2.6-2.6l4,1.3l4,2.6l4-1.3l2.6-4l5.3-7.9l2.6-13.2l1.3-9.3l2.6-10.6l2.7-9.2
			l2.6-6.6l4-4l5.3-6.6l4-2.6l2.6-4l2.6-2.6l4-2.6l4-2.6l2.6-1.8v-2.2l1.3-4l2.6-1.3l4-1.3l11.9-2.6l6.4,10.2l6.6-2.6l2.6-2.6
			l2.6-1.3h4l1.3,1.3l2.6,5.3c1.8,1.2,3.6,2.6,5.3,4c1.3,1.3,6.6,2.6,6.6,2.6l9.5-7.5l6.6,2.6l5.3,1.3l4,1.3l4,2.6l2.6,4l4,2.6
			l2.6,4l4,4.3v4.9c0.6,1.3,1.1,2.6,1.3,4c0,1.3,4,2.6,4,2.6l5.3,1.3l4,2.6l2.6,2.6l4,4l5.3,2.6l2.6,2.6v5.3l1.3,4l4,2.6l4,1.3h2.6
			l1.3,2.6l2.6,5.3l2.6,2.6l2.6,1.3l5.3,2.6l3.7,2.8l3,0.3l1-0.6l2.2-2.2l1.1-4.3v-5.4l-3.2-5.4l-2.2-5.4l1.1-7.5l5.4-6.5l1.1-12.1
			l4-9.3l5.3-5.3v-2.2l-0.6-2.4l-1.1-3.2l-3.2-3.2l-1.1-3.2l-4.3-5.4l-4.3-4.3l-7.5-4.3l-8.6-4.3l-7.5-3.1l-7.9-1.3l-4-4l-1.3-2.6
			v-5.3l-4.1-8.5l-5.2-7.4l-7.3-5.3l-5.3-9.2l-2.6-8.4v-36.5l1.3-14v-8.4l4-6.6l4-6.6l5.3-2.6l4-2.6l5.3-4l4-2.6h4l4,1.3l6.6-2.6
			l5.3-2.6l2.6-2.6l4-2.6l6.6-2.6l7.9-5.3l5.3-7.9l1.3-7.9v-9.2l-2.6-4l-4-4l-4-6.6l-10.8-6.5l-10.6-5.3l-9.2-4l-4-5.3l-1.3-10.6
			l1.3-10.6l1.2-4.2V374h2.2l1.1,2.1v5.4l1.1,2.1l1.1,1.1h9.7l2.2-3.2l3.2-5.4l2.2-5.4l1.1-3.2l2.2-1.1v-1.1l-3.2-2.1l-2.2-2.1v-8.6
			l2.2-1.1h2.2l3.1-1.4l2.6-4l2.9-5.4v-5.4l-1.1-5.4l-0.7-2.5l1.1-1.1l5.4-2.1l5.4-2.1l5.3-2.8l5.3-6.6l11.9-10.6l5.3-5.3l7.9-5.3
			l6.6-7.9l11.9-14.5l11.9-13.2l10.6-11.9l7.9-7.9c1.3-1.3,9.2-6.6,9.2-6.6l6.6-4l10.6-4l14.5-2.6l8.2-1.3h52.5l4,5.3l4,2.6l4,4
			l4,2.6h1.3l1.3-2.6l5.3,4l4-1.3l1.3,1.3l9.3,7.9l7.9,5.3l4.9-0.2l4.4-1.2v2.6l-4.4,2.8l1.1,1.7l2-0.6l3.2-1.1h2.1l5.3,5.1
			l-1.3,2.6l-4,3.8v4.1l1.3,5.3l4,2.6l5.3,2.6l5.3,1.3v1.3l1.3,2.6l2.6,1.3l1.3,1.3l-2.6,2.6l-1.3,4v5.3l-2.6,2.6l1.3,1.3l4-1.3
			l5.3,4l2.6,4l4,6.6l2.6,1.3l6.6,2.6l7.9,4l5.3,2.6l1.3,4l2.6,5.3l4,4l3.3,2.6h4.6l-2.6,2.3v1.6l2.6,1.3v2.6l5.3,4l6.6,5.3l5.3,7.9
			l2.6,4l4,4v4l1.3,4l-1.5,2.1l-1.1,1.1l-2.2,2.2l-3.2,2.1l-2.2,1.1l-2.2,2.1l-1.1,3.2l1.1,1.1l1.1,2.1l2.2,2.1l1.1,1.1v2.1l1.1,1.1
			v1.7l1.1,1.1l2.2,1.1l3.7,1.4l-0.4,0.8l-3.2,2.2l-3.2,2.1v1.1l1.1,1.1h3.2l-1.5,3.2l1.1,2.2l-2.2,4.3l-2.2,3.2h-2.2l-1.1,1.1v2.1
			l1.1,2.2l1.1,3.2l1.1,3.2l1.1,3.2v4.3l-2.2,3.2l-4.3,2.1l-3.2,2.1l-1.1,2.5v3.9l1.1,3.2l2.2,1.1l2.2,4.3v2.1l-1.1,4.3l-2.2,1.6
			v1.6l2.2,1.1l3.2,4.3l1.1,3.2l2.2,3.2l2.2,4.3l2.2,1.1l3.2,2.1l1.1,2.2l1.1,1.1h4.3l2.2,1.1l1.1,2.1l2.2,3.2l2.2,1.1l5.4,2.2
			l3.2,1.1l3.2,3.2l2.2,4.3l3.2,1.1l2.2,2.2h1.1l1.1-1.1l3.2-2.2h2.2l3.2,1.1l3.2,1.1h6.5l2.2,1.1l1.1,2.2l1.1,2.2l4.3,3.2l2.2,1.1
			l2.2,1.1l2.2,2.2l2.2,1.1l3.2,2.2l4.3,1.1l3.2,1.1h3.2l2.2-1.1h7.5l4.3,1.1l5.4,3.2l3.2,1.1l3.2,2.2l3.2,3.2l2.2,4.3l2.2,3.2
			l2.2,2.2l3.2,2.2l4.3,2.2h1.1l2.2-1.1l2.2-4.1v-4.5l1.1-1.1h3.2l3.2-1.1l3.2-1.1h1.1l1.1,1.1l12.9,17.2l5.4,7.5l1.1,2.2l3.2,2.2
			l4.3,2.2l3.2,2.2l4.3,3.2l4.3,2.2l2.2,1.1h2.2l3.2-1.1h2.2l4.3,1.1h6.4l2.2-3.2v-6.5l-1.1-7.5l1.1-4.3v-2.2l-1.1-8.6v-10.8
			l1.1-3.2h1.1l3.2,5.4l6.5,7.5l5.4,5.4l2.2,3.2l4.3,2.2l2.2,3.2v3.2l3.2,2.2l4.3,1.1l4.3,1.1l4.3,2.2l4.3,1.1l2.2-1.1l3.2-2.2h2.2
			v1.1l-1.1,1.1l-4.3,5.4l-4.3,5.4l-6.5,4.3l-5.4,3.2l-9.7,6.5l-4.3,4.3l-1.1,6.5l-2.2,4.3l-4.3,1.1h-5.4l-5.4,1.1l-2.2,1.1
			l-3.2,4.3l-3.2,4.3l-2.2,3.2l1.1,3.2l-1.1,6.5l-1.1,4.3l-1.1,4.3l-2.2,3.2l-2.2,2.2l1.1,1.1l1.1,2.2l1.1,2.2l-2.2,1.1h-4.3
			l-6.5,1.1l-4.8,2.2l-2.7,2.2l-3.2,5.3v16.2l5.4,7.5l2.2,5.1l1.1,6.7l-1.1,4.4v5.6l0.9,3.3l3.4,3.5l8.4,5.8l4.5,3.2l5.8,5.8
			l1.3,5.8l0.7,5.2l2.6,7.8l4.5,7.1l7.1,8.4l6.5,5.2l9,3.2l8.4,1.3l6.5,0.7l3.9,3.5l8.4,1.1l4.7-1.1l3.7-1.5l4.5-2.2l4.5,0.8
			l2.6,1.1l6.1,1.7h3.6l5.8-1.5l5.2,0.6l3.6,0.9l3,1.1h2.2l3.2,1.1h6.6l5.4-2.2h2.1l6.5,1.1h4.3l1.1,1.1l-1.1,1.1l-2.1,3.2l-2.1,3.2
			v2.2l-2.1,1.1l-3.2,2.2l-1.1,2.2l1.1,6.5l2.1,5.4l2.2,5.4l2.1,3.2l1.1,9.7l-2.2,1.1h-5.4l-4.3,2.2h-3.2l-2.1-1.1l-5.4-2.2h-3.2
			l-4.3,1.1l-5.4,2.2l-1.1,2.2v2.2l1.1,4.3l1.1,7.5l-1.1,2.2h-2.2l-3.2-2.2l-2.1-1.1l-2.1-2.2l-3.2-1.1l-3.2-2.2l-3.2-1.1h-3.3
			l-2.2,1.1l-1.1,3.2l2,3.8l2,4l1.3,4.7l5.4,5.8l8.6,6.5l3.2,1.1l4.3,1.1l2.2,1.1l3.2,5.4l-1.1,0.5v1.6l1.1,1.1l8.6,7.5l7.5,5.4h4.3
			l4.3-2.2l4.3-1.1l4.3-3.2l6.5-1.1l6.5-3.2l4.3-1.1l4.3-1l3.2-2.2h1.1v3.2l-1.1,2.2l-2.2,5.4l-1.1,4.3l-3.2,9.7l-1.1,5.4l-2.1,5.4
			l-5.4,6.5l-8.6,11.8l-4.3,6.5l-2.1,5.4l-2.1,2.2l-3.2,4.3v1.1l-2.2,5.4l-1.1,2.2l1.1,1.1l1.1,1.1l2.1,1.1l3.2,2.2l3.2,1.1l2.2,1.1
			h5.4l7.5,5.4l3.2,3.2l3.2,2.2l2.1,1.1l2.1,1.1h6.5l4.3,2.2l1.1,1.8v1.4l2.1,2.2l1.1,1.1h2.1l4.9,1.6l6.1,2.3l7.6,0.8h7.5l6.9,1.5
			l5.8,0.3l2.7,1.1h7l2.1-1.1l4.3-1.1l3.2-1.1l1.1-2.2l5.4-10.8l2.1-2.2l9.7-11.8l2.2-4v-6.8l1.1-1.1l1.1,1.1l1.1,1.1h2.1l1.1-1.1
			l2.1-2.2v-3.2l-2.1-2.2l-3.2-2.5v-2.8l2.9-1.1h2.5l3.2-2.2h2.2l3.2-1.1l3.2-3.2l1.1-3.2l2.1-1.1l3.2-1.1l3.2-1.1l1.1-3.2l1.1-3.2
			l1.1-2.2l2.2-3.2l2.1-3.2l2.1-2.2l3.3-1l3.2-2.2l2.2-3.2l1.1-3.2v-4.3l1.1-4.3l1.1-3.2h1.1l1.7,1.1h1.5l1.1-2.2l3.2-1.1h3.2
			l2.1-1.1l7.5-5.4l3.2-4.3l9.7-10.8v-5.4l1.7-4.3l1.5-2.2l2.1,1.1l-0.1,1.1h2.2l2.2-2.2l5.4-6.5l1.1-2.2l-1.1-3.2v-8.6l2.1-2.2
			l2.2-1.1l3.2-1.1l1.1,1.1l1.1,2.2l2.1-1.1l9.7-10.8l1.1-2.2v-2.2l1.1-2.2l1.3-2.2l3-3.2l4.3-2.2h3.2l1.1,1.1l1.1,1.1l1.1,2.2
			l1.1,1l2.1-1.1l3.2-3.2l2.1-8.6l1.1-8.6l1.1-2.2v-2.2l-1.1-2.2l-2.1-4.3l2.6-3.5h8.4l4.6-13.7v-6.8l-1.5-6.1l-3.8-2.3l-3.8-2.3
			l0.1-3.1l-1.1-4.3l-1.1-3.2l-3.2-2.2l-3.2-1.1l-3.3-1l-3.7-1.1h-3.9l-4.3-3.2l-4.3-3.2l-5.4-3.2l-1.1-3.2l-1.1-5.4l-1.1-6.5v-2.2
			l2.1-4.3l1.1-4.3l1.1-1.1l1.1-1.1l2.2-2.2v-2.2l-1.1-1.1l-3.2-1.1h-2.1l-2.2,1.1l-2.1,1.1h-2.1l-2.2-1.1l-1.1-1.1h-3.2l-1.1,1.1
			l-5.4,4.3h-3.2l-2.2,1.1l-3.5,1.1h-5l-1.1-1.1l-2.2-3.2v-2.2l3.2-8.6l2.1-3.2l5.4-6.5l3.2-2.2l2.1-2.2l1.1-3.2v-2.2l1.1-1.1
			l2.2-2.2l1.1-2.2l1.1-3.2l2.1-2.2l4.3-3.2l2.3-2.2h6.3l5.4-3.2l6.5-4.3l7.5-5.4l5.4-4.3l2.1-4.3l2.1-4.3l3.2-2.2l2.2-3.2l3.2-5.4
			l3.2-3.2l1.1-3.2l1.1-5.4l1.1-5.4l2.1-7.5l1.1-4.3l2.1-2.2l3.2-4.3l1.1-5.4l2.1-5.4l4.3-3.2l1.1-3.2l4.3-6.5l1.1-4.3l2.1-6.5
			l1.1-7.5l1.1-2.2l3.2-3.2h1.1l1.6,1.1h1.6l1.1-1.1l3.2-4.3v-5.4l-1.1-3.2l-1.1-3.2l-0.6-2.2l-1.6-1.1l-1.1,1.1h-3.2l-2.1-1.1
			l-3.2-3.2v-3.2l-2.1-3.2l-1.1-3.2v-3.2l-1.1-3.2l-2.1-3.2l-2.1-4.3v-2.1l2.1-5.4v-3.2l-2.1-3.2l-1.1-2.1v-6.5l1.1-2.1v-2.2
			l-2.2-2.1l-1.1-3.2l-1.1-10.8l-1.1-7.5v-2.1l-1.1-3.2l-1.1-2.2l-1.1-1.1l-1.1-1.1l-1.1-1.1h-2.1l-1.1-1.1l-1.1-1.1v-2.1l-1.1-1.1
			l-2.2-1.1l-4.3-1.1l-2.2-1.1l-5.4-2.1h-2.1l-5.4-2.2h-5.4l-7.5-2.1l-5.4-2.1l-3.2-4.3l-2.1-4.3l-1.1-2.1l-1.1-2.2l-2.1-1.1h-3.2
			l-3.2,1.1l-3.2,1.1l-2.1,2.1l-1.1,1.1l-2.1,1.1h-1.1l-1.1-1.1l-1.1-1.1l-1.1-1.1v-3.2l1.1-3.2l1.1-3.2l1.1-2.2l1.1-2.1l2.1-2.1
			v-6.5l-2.1-3.2l-1.1-2.1v-2.1l-1.1-1.1h-3.2l-1.1-1.1l-1.1-0.9v-2.3l1.1-2.1l1.1-2.1l2.2-2.5v-1.8l1.1-1.1l5.4-5.4l2.1-1.1
			l1.1-1.1l2.1-1.1h2.1l1.1,1.1l1.1,1.1l2.1,1.1l2.1,2.1l2.2,1.1h5.4l2.1-1.1h2.2l1.1-2.1l1.1-3.2l1.1-3.2l4.3-1.1h2.2l2.1-2.1
			l3.2-1.1h3.2l2.1-1.1l2.2-2.1h5.3l2.1-1.1l2.2-1.1h4.3l2.2,1.1l1.1,1.1l6.4,3.2h13l3.2,1.1l2.2,1.1l2.1,1.1l1.1,1.1l2.1,3.2
			l1.1,1.1l1.1,1.1l1.1,1.1l2.1,1.1l3.2,1.1l3.2,1.1h5.4l1.6,0.5l1.1,1.1l1.1,1.1l1.1,1.1l1.1,2.1l1.1,2.1l1.1,3.2l1.1,2.2v3.2
			l1.1,5.4v1.1l2.1,2.1l1.1,2.5v2.9l1.1,4.3l1.1,3.2l3.2,6.5l2.3,3.8l2,2.7l1.1,1.1l15.1,14l2.2,2.2l1.1,1.1l1.1,2.2l1.1,1.5v1.7
			l1.1,1.1l1.1,1.1v2.1l-0.5,1.5v2.3l1.1,2.2l1.1,2.1v17.2l-1.1,2v2.3l2.1,2.1l2.2,3.2l2.1,3.2l2.1,3.2l1.1,3.2l2.1,2.1l4.3,1.3v3
			l3.2,1.1l6.5,2.1l5.4,2.1l8.6,3.2l9.4-2.4l11-7.8l5.8-11.6l-1.9-13.6l-4.5-14.2l1-8.5l5.5-2.6l4.5,9.2l3.9,12.3l3.2,10.3l14.6,9
			h6.6"/>
		<path id="Pre1900_HKI" class="st3" d="M496.4,1513l0.1-0.5l0.7-3l1.1-4.3l1.1-3.2l6.5-11.9l4.3-11.9l1.1-3.2l-1.1-15v-8.8
			l-1.1-3.2l-2.2-2.3l-1.1-3.1v-3.2l1.1-1v-1.1l-1.1-2.2l-3.3-5.4l-4.9-5.4l-1.6-1.1l-5.4,1.1l-2.2-2.2l-1.1-2.2v-2.2l2.2-5.4
			l-1.1-2.2l-5.4-4.3l-1.1-1.1l1.1-1.1l2.2-1.1v-1.1l1.1-2.2l2.2-2.2v-2.2l-3.2-2.2l-3.2-3.2l-1.1-2.2l-3.2-1.1l-1.1-1.1l-1.1-2.2
			l-1.1-2.2l-3.2-2.2l-2.2-2.2h-2.2l-1.1,2.2l-1.1,1.5v1.7l-1.1,2.2l-1.1,1.2v5.3l-2.2,1.1h-4.3l-1.1,1.1l-1,2.2v2.2l-1.1,2.2
			l-2.2,1.1h-1.1l-2.2,1.1l-2.2,3.2l-1.1,2.2l-1.1-1.1v-2.2l-2.2-2.1l-3.2-1.1h-4.3l-1.1-1.1l-3.2-1.1l-1.1-1.1l-3.2-1.1l-2.2-2.2
			l-4.3-1.1l-3.2-3.2l-1.1-4.3l-1.1-2.2l-3.2-5.4l-2.2-6.5v-6.5l-1.1-1.1l-3.2-3.2l-1.1-2.2l2.2-3.2l1.1-7.6l1.1-5.4l2.2-5.4
			l-1.1-1.1l-1.1-4.8v-3.8l-3.2-7v-4.9l-2.2-1.1l-2.2-2.2l-0.5-4.6l-1.6-4l-0.9-2.2l-1.3-1.1l-4.3,1.1l-1.1-1.1l-1.1-3.2l-1.1-1.1
			l-4.3-3.2l-3.2-3.2l-1.1-3.2l1.1-2.2l-1.1-2.2l-2.2-1.1l-2.2-1.1v-2.2l1.1-1.1v-1.1l-1.1-1.1l2.2-2.2l2.2-2.2v-3.2l1.1-5.4
			l2.2-3.2l2.2-5.4v-4.3l-2.2-5.4l-3.2-1.1l-4.3-1.1l-2.2-1.1l-1.1,1.1l-3.2,2.2l-5.4,2.2l-3.2,2.2h-3.2l-4.3,1.1l-5.4,1.1l-7.1-1.1
			h-3.7l-3.2-1.1l-2.3-1.1h-2l-2.2-1.1l-2.2-1.1l-3.4-2.2h-7.4l-7.6-4.3l-2.2-3.2l-1.1-1.1l-2.2-1.1l-1.1-2.2l-2.2-4.3l-5.4-8.6
			l-4.3-6.5l-4.3-4.3l-5.4-3.2l-6.5-2.2l-4.3-4.3l-3.2-4.3l-1.1-4.3v-9.7l1.1-16.2l-1.1-4.3l-1.1-6.5l-1.1-7.6v-3.2l1.1-2.2l3.2-4.3
			l4.3-4.3l2.2-5.4l1.1-7.6l1.1-5.4l1.1-4.3l2.2-3.2l3.2-3.2l8.6-5.4l16.2-7.6l11.9-4.3l18.8-5.4h9.3l3.2-2.2l2.2-2.2l1.1-1.1
			l1.1,1.1l2.2,1.1h3.2l5.4-1.1l2.2-1.1l1.1-2.2l2.2-3.2l1.1-2.2l3.2-2.2l3.2-2.2l3.2-1.1l2.2,1.1l1.7,0.5h3.1l3.2-1.1l4.1-2.2h5.6
			l4.9,4.9l4.4,5.6l2.7,1.4l4.1,2.7l4.1,1.4l5.5,1.4h5.5l5.5-1.4l5.5-1.4l4.1-1.4l4.1-1.4l6.8-4.1l4.1-4.1l2.7-4.1l2.7-5.4l1.4-4.1
			l1.4-4.1l2.7-2.7l2.7-2.7l4.1-2.7l5.5-2.7l4.1-4.1l2.7-2.7l2.7-1.4l4.1-2.7l1.4-6.8l1.4-4.1l2.7-4.1l2.7-4.1v-6.8v-0.5
			c-0.5-0.9-1.4-2.2-1.4-2.2l1.4-4.1l2.7-2.7h5.4l4.1,1.4l5.5,1.4l8.4,1.2l2.3,2.1l1.9,1.9l1.3,0.9l5.4,4.1l4.1,1.4h14.9l6.8-1.4
			l4.1-1.3l5.4-2.7l5.4-2.7l4.1-2.7l4.1-2.7l4.1-1.4l5.4-1.3h8.1l3.9,0.4l4.3,1.1h4.3l4.3-1.1l1.7-1.5l5.4-2.7l1.3-4.1l1.3-4.1
			l1.4-1.3l2.7-0.3h9.5l4.1,0.3l2.6,0.8l1.4,3.3v2.7l2.7,2.7l4.1,1.4H679l4.1,1.3h2.7l5.4,1.4l2-1l2.1-1.1h2.2l4.3,1.1l1.1,1.1
			l3.2,3.2l2.2,2.2l3.2,2.1l4.3,1.1h3.3l4.3-2.1l4.3-3.2l4.3-2.1l4,0.5l4.1,4.1l4.1,2.7l4.1,4.1h8.1l1.4-2.7l2.7-1.4h2.7l1.4,2.7
			l4.1,2.7l4.1,2.7l1.3,2.7v4.1l4.1,1.4l4.1,1.3h2.7l2.7-1.3l2.7-1.4h1.4l2.7-1.3l1.3-2.7h4.1l4.1,1.4h8.1l5.4,2.7l2.7,1.4h6.8
			l4.1,1.3l2.7,1.4l1.3,1.3l1.4,1.3l2.7,2.7l4.1,2.7l1.3,4.1v5.4l1.3,2.7l4.1,4.1l1.4,2.7l2.7,2.7l2.7,2.7l1.4,2.7l1.3,1.3l2.7,2.7
			l2.7,4.1l1.4,4.1l2.7,2.7l2.7,4.1l4.1,4.1l2.7,2.7l1.3,2.7l1.4,2.7l1.3,2.7l4.1,2.7l2.7,5.4l2.7,2.7h4.1l4.1,1.3h4.1l2.7,1.4
			l2.7-1.4h9.5l2.7-1.3l6.8-1.3l6.8,1.3l6.8,1.3l8.1,2.7l6.8,2.7l6.8,2.7l4.1,2.7l5.4,4.1l5.4,4.1l5.4,4.1l1.4,2.7v5.4l1.3,1.3h1.2
			l1.5-1.4l1.3-1.3l4.1-1.4h9.5l2.7-1.3l2.7-1.3l2.7-2.7l4.1-2.7h1.3l1.4,1.4l1.3,1.3l2.7,2.7l1.4,1.3l2.7,2.7v1.7l-4.1,3.7
			l-2.7,2.7l-2.7,4.1l1.4,2.7h5.2l5.6,1.3l4.1,2.7l2.7,1.4l2.7,1.3l4.1,2.7l2.7,1.3l2.7,2.7l1.3,1.3l5.4,4.1l4.1,2.7l4.1,2.7
			l4.1,2.7l2.7,2.7l2.7,1.4h6.8l4.1-1.4h2.7l4.1,1.4l4.1,2.7h18.4l3.3,2.7l5.4-1.3l2.7-1.3l4.1-1.4l2.7-1.3l4.1-1.4l5.4-4.1l4.1-1.3
			l5.4-1.4h4.1l4.1-2.7l2.7-1.4l2.7-1.3l9.5,2.7l9.5-6.8l4.1-5.4v-5.4h8.1l13.5-4.1l6.7-5.4l5.4-1.3l8.1,12.2l-1.3,8.1l2.7,12.2
			l2.7,2.7h8.1l5.4-2.4l5.4-5.7l4.1-5.4l4.1-1.4l9.5-4.1l6.8-6.8l-4.1-10.8v-5.4l1.4-4.1v-2.7l-1.4-4.1v-2.7l1.4-6.8l1.3-4.1
			l2.7-4.1l1.3-4.1l1.4-4.1v-2.7l-2.7-2.7l-1.3-1.3v-1.4l1.3-1.3l1.3-1.3l1.4-1.4l2.7-1.3l4.1-1.4l4.1,1.4l4.1,4.1l1.3,6.8v2.7
			l-1.3,4.1l-2.7,2.7l-1.3,2.7v2.7l4.1,1.3l4.1,2.7l5.4,5.4l5.4,4.1l6.8,2.7l8.1,2.7l8.1,1.4h10.8l4.1,5.4l5.4,4.1l4.1,1.4l6.8-1.4
			l6.8-2.7l6.8-1.4l9.5-2.7h20.3l5.4-4.1l1.4-5.5l-1.4-6.8l-2.7-5.4l-2.7-6.8v-9.5l-1.4-8.1l-1.3-8.1v-10.8l-1.3-10.8v-10.8
			l-1.4-10.8l-1.3-12.2l-1.3-6.8v-8.1l1.3-5.4l4.1-4.1l9.5-12.2l8.1-9.5l16.2-19l6.8-8.1l5.4-4.1l5.5-2.6h5.4l6.8,1.4l5.4,1.3
			l6.8,1.3l5.4,1.4h14.9l5.4-1.4l6.8-1.3l9.5-2.7l9.5-2.7l9.5-1.3l10.8-1.3h12.2l3.8-1l6.4-3.2l7.5-3.2l8.6-3.2l6.4-2.2l7.5-4.3
			l4.3-2.1l2.2-0.5h2.6l16.1,2.2l13.9,4.3l10.7,4.3l8.6,6.4l7.5,10.7l5.4,13.9l5.4,21.5l2.1,6.4l2.2,5.4l4.3,10.7l6.5,13.4l5.3,8
			l6.1,7l2.4,0.5h3.2l4.3-3.2l3.2-3.2l1.1-5.4l1.1-3.2l2.2-2.2l3.2-1.1h3.2l3.2,2.1l1.5,3.2l1.7,3.2l2.2,3.2l4.3,6.4l3.2,6.4
			l1.1,1.1h1.2l0.9-1.1l3.2-3.2l4.3-6.4l3.2-3.2l3.2-2.2l5.4-3.2l3-1.1h3.4l4.3,1.1l4.3,2.2l5.4,3.2l5.4,3.2l10.7,4.3l12.4,2.2h5.8
			l4.3,1.1l3.2,2.1l6.4,6.4l7.5,7.5l3.2,5.4l2.1,2.2l3.2,5.4l2.1,2.2l4.3,5.4l5.4,7.5l4.3,7.5l5.4,5.4l3.2,2.2l5.4,2.1l9.7,5.4
			l6.4,2.2l9.7,2.1l2.4,2.7l2,4.8l2.7,3.8l3.3,6.5l7.6,15.2l7.6,15.2l3.3,2.2l6.5,3.3l9.8,4.3l5.4,2.2l3.3,3.3l7.6,3.3h7.6l5.4-5.4
			l4.3-7.6l2.2-5.4l-1.1-3.3l-4.3-4.3l-3.3-14.1l3.3-6.5l7.6-19.5v-4.3l-1.1-7.6l-1.1-5.4l-1.1-5.4l1.1-3.3l3.3-4.3l4.3-3.3l6.5-1.1
			l4.3,1.1l3.3,1.1l7.6,2.2h6.5l7.6-3.3l4.3-4.3l1.1-3.3l-2.2-1.1l-1.1-3.3l1.1-2.2v-1.1l-1-2.1l1.1-2.2l2.2-1.1l-1.1-2.2l1.1-1.1
			l3.3-2.2l4.3-2.2l2.8-2.3l3.8-0.8l6.8,2.3l6.8,6.1l5.3,6.1l3.8,4.6l4.6,5.3l3,3.8l3,2.3l2.3,3.8l3.8,2.3l3.8,3l3,3l3,2.3l3.8,1.5
			l5.3,3l2.2,2.6l4.3,2.2l2.7,2.7l0.1,1l-0.6,0.7l-1.1,1.1l1.1,2.2l1.1,1.1h2.2l1.1,1.1v2.2l-1.1,2.2l-1.1,3.3l-1.1,3.3l-4.3,7.6
			l-1.1,3.3l-2.2,1.1l-3.3,3.3l-2.2,1.1l-4.3,1.1h-2.2l-4.3,3.3h-1.1l-2.2,1.1l-5.4,6.5l-1.1,3.3v4.3l2.2,2.2l5.4,7.6v1.1l2.2,3.3
			l5.4,6.5l1.1,2.2l1.1,2.2l3.3,3.3l4.3,5.4l1.1,5.4l1.1,3.3l2.2,3.3l4.3,3.3h3.3l3.3-1.1l4.3-1.1l11.9-3.3h2.2l3.3,1.1h2.3l1.1-1.1
			l4.3-4.3h1.1v4.3l1.1,3.3l-1.1,5.4l-1.1,2.2v1.1l-1.1,1.1h-3.3l-1,1.2l-2.2,1.1l-1.1,2.2h-1.1l-3.3-2.2l-1.1-1.1l-1.1,1.1
			l-1.1,2.2l-2.2,4.3l-3.3,2.2h-2.2l-1.1,1.1l1.1,2.2l-1.1,3.3l-4.3,5.4l-3.3,2.2l-4.3,5.4l-1.1,3.3v3.3l2.2,3.3l-1.1,1.1l-3.3,6.5
			l-1.1,6.5l-1.1,2.2l-5.4,3.3v2.2l1.1,4.3l-1.1,2.2v2.2l1.1,2.2l2.2,1.1l1.1,2.2v1.1l1.1,1.1l-3.3,2.2l-3.3,3.3v3.3l-2.2,1.1
			l-2.2,1.1v2.2l1.1,4.3l-1.1,3.3l-2.2,3.3l-2.2,5.4l-2.2,7.6l-3.3,2.2v2.2l1.1,2.2l2.2,6.5l4.3,8.7l2.2,3.3l1.1,2.2h2.2l2.2-2.2
			l4.3-1.1l1.1,2.2v2.1l-1.1,6.5l-1.1,3.3l-4.3,8.7l-2.2,1.1h-2.2l-4.3,2.2l-3.3-1.1l-5.4-3.3v-3.3l1.1-2.2l1.1-3.3v-2.2l-1.1-1.1
			l-3.3-2.2h-1.1l-1.1,2.2l-1.1,1.1l-2.2,1.1h-3.3l-2.2-2.2l1.1-3.3l1.1-3.3v-3.3l-1.1-2.2h-1.1v3.3h-4.3l-3.3-2.2h-1.1l-1.1,2.2
			l-1.1,1.1v2.2l1.1,1.1h-3.3l-2.2,2.2l1.1,1.1l1.1,1.1v2.2l1.1,2.2l1.1,3.3l-1.1,2.2v1.1l2.2,3.3l2.2,2.2l1.1,3.3l2.2,4.3l1.1,1.1
			h5.4l1.1,1.1l3.3,5.4h6.5l2.2,2.2l1.1,3.3v3.3h4.3l5.4,3.3v2.2h4.3l3.3-1.1l5.4,1.1l7.6-5.4h2.1l3.3-2.2h2.2l4.3-4.3l4.3-2.2
			l4.3-5.4l4.3-1.1h6.5l4.3-1.1l5.4-2.2l2.1-4l1.1-0.4l6.5-3.3l6.5-3.3l2.2-3.3l8.7-8.7h1.1l2.2,2.2h2.2l3.3-1.1h3.3l1.1-3.3
			l4.3-2.2l7.6-2.2v-1.1l3.3-2.2h4.3l2.2-1.1l2.2,2.2h4.3l2.2,1.1l3.3,3.3h1.1l2.2-1.1l1.1,1.1l3.3,3.3l3.3,1.1l1.1,1.1v3.3l2.2,3.3
			l3.3,4.3l1.1,2.2l2.2,3.3l2.2,1.1l2.2,2.2l9.8,9.8l1.1,4.3l1.1,1.1l2.2,3.3l4.3,9.8l1.1,2.2l-1.1,2.2l1.1,2.2v3.3l1.1,2.2l4.3,3.3
			h1.1l1.1-3.3l2.2-2.2l3.3-1.1l3.3-2.2l5.4-3.3l5.4-5.4l6.5-4.3l4.3-4.3l3.3-7.6l2.2-8.7l-0.5-2.9l-4.9-10.1l-1.1-2.2l1.1-1.1
			l3.3-1.1l2.2-1.1l5.4-3.3l1.9-0.9l2.3-2.3l4.6,3l3.8,3.8l3,2.3l3,0.8l3,2.3l5.3,3l7.6,9.1l3.8,2.3l2.3,2.3l2.3,2.3l4.6,3.8l3,3.8
			l2.3,2.3l3.8,3l2.3,1.5l3,4.6l7.6,8.3l3.2,6.6l1.1,3.1l0.3,1l-1.5,1.5h-0.8l-2.3-0.8l-1.1-0.5h-3.3l-2.5,2.8h-3l-6.1,0.8l-2.5,3
			h-2.2l-1.1,3.3l-2.2,3.3l-3.3,6.5l-1.1,5.4l-2.2,5.4v2.2l2.2,2.2v2.2l1.1,1.1l1.1,3.3h1.1l1.1,1.1l-1.1,2.2l1.1,3.3l-1.1,2.2
			l1.1,3.3l1.1,1.1l-1.1,2.2l1.1,2.2h1.1l1.1-1.1l1.1,1.1v1.1l2.2,3.3l4.3,5.4l-1.1,1.1v2.2l-1.1,2.2l1.1,1.1h1.1l4.3,4.3v1.1
			l-1.1,1.1h-1.1l-2.2,2.2v2.2l2.2,3.3l-1.1,2.2l-1.1,5.4l-2.2,1.1l-3.3-2.2h-2.2l-1.1,2.2l-0.6,2.9"/>
		<g id="_2019_HKI_Shoreline">
			<polyline class="st4" points="294.1,1084.8 294.7,1083.9 315.2,1075.8 334,1068.8 			"/>
			<polyline class="st5" points="337.6,1067.4 341.4,1066 340,1062.3 			"/>
			<polyline class="st5" points="338.5,1058.5 337.1,1054.8 340.3,1052.4 			"/>
			<line class="st6" x1="345.3" y1="1048.8" x2="352.7" y2="1043.4"/>
			<polyline class="st5" points="355.2,1041.6 358.4,1039.2 361.7,1044.4 358.4,1046.8 			"/>
			<line class="st7" x1="355" y1="1049.2" x2="349.8" y2="1052.9"/>
			<polyline class="st5" points="348.1,1054.1 344.9,1056.5 347.4,1063.8 351.1,1062.3 			"/>
			<polyline class="st8" points="359.1,1059.4 384.3,1049.9 396.2,1047.7 410.1,1045.3 420.4,1043.2 			"/>
			<polyline class="st5" points="424.6,1042.4 428.5,1041.7 428.5,1040.4 430.5,1038.4 			"/>
			<polyline class="st9" points="436.5,1032.3 440.1,1028.6 459.7,1010.1 495.3,976.1 			"/>
			<polyline class="st5" points="498.4,973.2 501.3,970.4 505.2,971 			"/>
			<line class="st10" x1="514.2" y1="972.5" x2="527.7" y2="974.6"/>
			<polyline class="st5" points="532.2,975.3 536.1,975.9 535.5,972 			"/>
			<polyline class="st5" points="534.4,967.7 533.3,963.9 529.4,963.1 			"/>
			<line class="st11" x1="522.5" y1="961.9" x2="498.6" y2="957.5"/>
			<polyline class="st5" points="495.2,956.9 491.2,956.2 492.2,950.5 496.1,951.2 			"/>
			<polyline class="st12" points="504.7,952.7 524.7,956.2 530.5,956.2 534.6,955 			"/>
			<polyline class="st5" points="538.7,953.9 542.6,952.8 540.7,946.1 544.5,945 546.3,951.8 550.2,950.7 			"/>
			<polyline class="st5" points="552.2,950.2 556,949.1 554.3,942.8 558,941.8 559.8,948.1 563.6,947 			"/>
			<polyline class="st5" points="567.4,945.9 571.3,944.9 569.8,939.6 573.5,938.6 575,943.8 578.8,942.8 			"/>
			<polyline class="st5" points="587.8,940.3 591.7,939.2 590.1,933.7 593.3,932.8 594.8,938.3 599.4,937 597.9,931.8 601,930.9 
				602.5,936.2 606.3,935.1 			"/>
			<polyline class="st13" points="613.8,933 616.5,932.3 624.2,930.4 698.8,933.2 768.3,950.8 771.4,954.6 781.2,966.8 786.1,968 
							"/>
			<polyline class="st5" points="789.8,969 793.7,970.1 795.6,962.9 795.2,962.4 791.1,961.4 791.1,960.8 791.3,959.5 790.7,959.3 
				790.3,960.6 787.6,959.8 786.3,957.7 786.7,955.8 788.8,954.6 789,954.6 791.7,955.4 791.5,956.8 792.1,956.8 792.5,955.6 
				792.7,955 796.5,956.1 			"/>
			<polyline class="st5" points="804.5,958.2 808.3,959.3 808.7,958.9 809.6,955.5 			"/>
			<polyline class="st5" points="809.7,955.2 810.6,951.7 810.5,951.3 807.2,950.4 807.5,949 807,948.8 806.6,950.2 805.4,950 
				805.8,948.4 805.2,948.4 805,949.8 801.2,948.8 			"/>
			<polyline class="st5" points="795,947.1 791.1,946.1 790,944 790.5,942 791.1,941.7 795,942.7 			"/>
			<polyline class="st14" points="803.3,944.9 812.8,947.5 815.7,948.3 			"/>
			<polyline class="st5" points="819.8,949.5 823,950.4 823.4,951 822.8,952.9 820.7,954 818.6,953.5 819,951.9 818.2,951.9 
				817.8,953.3 816.8,952.9 817.2,951.5 816.6,951.3 816.3,952.9 813,951.9 812.6,952.1 811.6,956 			"/>
			<polyline class="st5" points="811.5,956 810.6,959.5 810.8,959.8 815.1,961 814.9,961.6 815.1,961.8 814.7,962.9 815.3,963.1 
				815.7,961.8 818.6,962.5 819.7,964.7 819.2,966.6 817.2,967.8 814.3,967 814.5,965.8 814.1,965.7 813.7,966.8 813.5,966.8 
				813.3,967.4 809.3,966.2 808.7,966.6 806.9,973.6 810.7,974.6 			"/>
			<polyline class="st15" points="818.2,976.6 818.4,976.6 826,976.6 828.9,979.1 			"/>
			<polyline class="st5" points="831.7,981.8 833.7,985.3 834.8,984.3 836.6,982.5 			"/>
			<line class="st16" x1="843.2" y1="975.7" x2="853.1" y2="965.5"/>
			<polyline class="st5" points="856.4,962.1 859.2,959.2 860.7,959.6 859.7,963.5 			"/>
			<polyline class="st5" points="859.1,965.6 858,969.5 862.8,970.8 863.8,972.5 866.9,973.3 867.9,972.9 868.9,969.1 			"/>
			<polyline class="st5" points="869.7,966.2 870.8,962.3 874.7,963.3 873.6,967.1 			"/>
			<polyline class="st5" points="872.8,970 871.8,973.9 871.9,973.9 872.5,974.9 876.4,975.8 			"/>
			<polyline class="st5" points="877.2,976 881,977 881.8,976.4 882.6,973.5 			"/>
			<polyline class="st5" points="883.7,969.4 884.5,966.2 885.1,965.8 888.4,966.7 888.8,967.1 887.7,971 			"/>
			<polyline class="st5" points="886.9,973.9 885.9,977.8 886.4,978.3 889.5,979.1 			"/>
			<polyline class="st5" points="892.4,979.8 895.2,980.5 896.1,979.9 897.1,976 			"/>
			<polyline class="st5" points="897.8,973.3 898.6,969.8 898.8,969.6 899,969.6 899,969.5 899.2,969.5 902.3,970.4 902.5,970.4 
				902.5,970.6 902.7,970.6 902.7,970.8 901.7,974.5 			"/>
			<polyline class="st5" points="901,977 900,980.9 900.6,981.8 903.3,982.6 			"/>
			<polyline class="st5" points="906.2,983.5 909.1,984.3 910,984 911.2,980.1 			"/>
			<polyline class="st5" points="912,977.5 913.1,973.9 913.1,973.7 913.3,973.7 913.5,973.5 913.9,973.7 916.8,974.5 917,974.7 
				917,974.9 917,975 			"/>
			<polyline class="st5" points="915.1,981.3 913.9,985.1 914.5,985.9 914.3,986.3 918.1,987.6 			"/>
			<polyline class="st5" points="919,987.9 922.8,989.2 923,988.8 923.8,988.4 924.7,985.9 			"/>
			<polyline class="st5" points="926.1,982.1 927.4,978.5 927.4,978.3 927.6,978.3 927.8,978.3 928,978.3 930.9,979.3 931.1,979.5 
				931.3,979.5 931.3,979.7 931.3,979.9 930,983.3 			"/>
			<polyline class="st5" points="929,986 927.6,989.8 928.2,990.7 928,990.9 931.7,992.4 			"/>
			<polyline class="st5" points="932.6,992.7 936.3,994.2 936.5,994 937.5,993.4 938.5,991 			"/>
			<polyline class="st5" points="940.1,987.2 941.4,984 941.6,983.8 941.8,983.6 941.9,983.6 945,984.9 945.2,985.1 945.2,985.3 			
				"/>
			<polyline class="st5" points="942.4,992.4 941.4,995 941.8,996.1 941.6,996.3 942.9,996.9 945.2,997.9 			"/>
			<polyline class="st5" points="945.8,998.2 949.5,999.8 950.8,999 951.8,996.8 			"/>
			<polyline class="st5" points="953.3,993.1 954.9,989.4 958.8,990.9 957.2,994.6 			"/>
			<polyline class="st5" points="955.6,1002.8 957,1006.6 960.8,1005.3 			"/>
			<polyline class="st5" points="963.9,1004.2 966.5,1003.3 966.9,1003.3 967.1,1003.3 967.5,1003.5 967.7,1003.5 967.8,1003.7 
				968,1004.1 968.2,1004.3 968.2,1004.7 968.2,1004.8 968,1005.2 967.8,1005.6 967.7,1005.8 967.3,1005.8 963.9,1007 			"/>
			<polyline class="st5" points="961.6,1007.8 957.8,1009.1 959.2,1012.9 			"/>
			<polyline class="st5" points="959.7,1014.4 961.1,1018.2 964.9,1016.9 			"/>
			<polyline class="st5" points="967.5,1016 970.6,1014.9 970.8,1014.9 971,1014.9 971.1,1014.9 971.3,1014.9 971.5,1015.1 
				971.7,1015.1 971.9,1015.3 971.9,1015.5 972.1,1015.7 972.1,1015.9 972.3,1016.1 972.3,1016.3 972.3,1016.5 972.1,1016.6 
				972.1,1016.8 971.9,1017 971.7,1017.2 971.5,1017.4 971.1,1017.6 969.3,1018.2 			"/>
			<polyline class="st5" points="965.7,1019.4 961.9,1020.7 963.2,1024.5 			"/>
			<polyline class="st5" points="967.3,1030.3 967.5,1030.4 970.6,1032.3 970.8,1032.3 971.1,1034.1 974.8,1035.6 			"/>
			<polyline class="st17" points="981.6,1038.3 991.3,1042.2 995.3,1043.7 996.9,1044.5 998.6,1045.1 1003.2,1047 1005.2,1047.7 			
				"/>
			<polyline class="st5" points="1008.6,1048.9 1012.3,1050.5 1014.1,1049.5 1016,1049.9 			"/>
			<polyline class="st18" points="1023.9,1051.5 1024.7,1051.7 1028.2,1052 1029.5,1052.2 1031.5,1052.4 1034.4,1052.6 
				1035.7,1052.8 1037.5,1053 1039.2,1054 1041.5,1055.6 1043,1056.3 1044.5,1057.1 1046,1057.8 1048.3,1058.6 1052,1058.6 
				1058,1059 1058.6,1059 1066.1,1061.1 1073.1,1062.9 1076.9,1063.4 1079.2,1063.6 1081.4,1063.6 1084.3,1063.1 1086.8,1062.3 
				1088.5,1061.5 1090.7,1060.5 1092.2,1059.6 1093.3,1058.2 1094.9,1056.3 1095.7,1055.1 1096.6,1053.6 1096.8,1053 1097.6,1051.8 
				1097.8,1051.1 1098.6,1049.7 1099,1048.7 1099.5,1047.8 1100.1,1047.2 1101.3,1045.8 1102.6,1044.7 1104,1043.5 1104.3,1042.7 
							"/>
			<polyline class="st5" points="1105.5,1038.8 1106.7,1035 1106.5,1035 1106.3,1034.8 1106.1,1034.6 1105.9,1034.4 1105.7,1034.1 
				1105.7,1033.8 1105.7,1033.7 1105.7,1033.3 1105.7,1033.1 1105.9,1032.9 1106.1,1032.7 1108.6,1030.3 			"/>
			<polyline class="st19" points="1117.2,1026.2 1117.5,1026.1 1118.5,1025.9 1119.7,1025.9 1121.6,1025.9 1122.9,1026.1 
				1124.9,1026.5 1126.2,1026.9 1127.4,1027.3 1128.2,1027.7 1128.9,1028.1 1129.5,1028.2 1130.1,1028.6 1131.1,1028.6 			"/>
			<polyline class="st5" points="1136,1028.6 1140,1028.6 1138.9,1024.8 			"/>
			<polyline class="st20" points="1140.5,1020.5 1140.7,1020.5 1141.1,1020.7 1141.5,1020.7 1141.9,1020.9 1142.3,1021.3 
				1142.5,1021.5 1142.7,1021.9 1142.7,1022.1 1142.9,1022.4 1144.1,1027.1 			"/>
			<polyline class="st5" points="1144.8,1029.8 1145.8,1033.7 1144.2,1034.1 1144.4,1034.2 1144.6,1034.4 1144.6,1034.8 
				1144.6,1035.2 1143.1,1040.6 1143.2,1040.8 1143.4,1040.4 1144.2,1040.6 1144,1041.6 1143.2,1041.4 1143.2,1041.2 1142.9,1041 
				1142.3,1043.3 1142.7,1043.3 1142.7,1043.1 1143.4,1043.3 1143.2,1044.5 1142.5,1044.1 1142.5,1043.7 1141.5,1043.5 
				1141.5,1044.9 1141.7,1047.5 			"/>
			<polyline class="st21" points="1144.2,1057 1144.2,1057.1 1145,1057.4 1145.6,1057.8 1146.1,1058.2 1146.7,1058.4 1147.5,1058.4 
				1148.1,1058.4 1149.6,1058.4 1150.6,1058.4 1151.9,1058.2 1159,1057.5 			"/>
			<polyline class="st5" points="1164,1056.9 1168,1056.5 1168,1056.3 1168.2,1055.9 1168.6,1055.5 1168.6,1055.1 1168.3,1052.7 			
				"/>
			<polyline class="st5" points="1167.8,1048.8 1167.4,1045.1 1167.4,1044.9 1167.6,1044.9 1167.6,1044.7 1167.8,1044.7 
				1168,1044.5 1171.1,1044.3 1171.3,1044.3 1171.5,1044.3 1171.5,1044.5 1171.7,1044.7 1172.1,1048.4 			"/>
			<polyline class="st5" points="1172.5,1052.2 1172.8,1054.9 1173.6,1055.9 1175.9,1055.5 1177.6,1055.3 			"/>
			<polyline class="st22" points="1185.8,1054.2 1187.5,1054 1190.6,1053.6 1195.4,1052.8 1202.4,1051.8 1214.7,1050 			"/>
			<polyline class="st5" points="1218.8,1049.3 1222.7,1048.7 1222.4,1049.1 1225.5,1046.5 			"/>
			<line class="st23" x1="1229.6" y1="1043" x2="1235.8" y2="1037.7"/>
			<polyline class="st5" points="1237.9,1035.9 1238,1035.8 1241.8,1035.1 1243.3,1036.6 1242.6,1039.6 1241.9,1040.2 			"/>
			<line class="st24" x1="1238.3" y1="1043.4" x2="1232.9" y2="1048.2"/>
			<polyline class="st5" points="1231.1,1049.8 1228.1,1052.5 1228.1,1054 1228.8,1056.4 			"/>
			<polyline class="st5" points="1230.1,1061.6 1231.2,1065.4 1234.8,1063.8 			"/>
			<line class="st25" x1="1239.5" y1="1061.6" x2="1246.6" y2="1058.4"/>
			<polyline class="st5" points="1249,1057.3 1252.6,1055.7 1252.6,1051.7 			"/>
			<line class="st26" x1="1252.6" y1="1047.4" x2="1252.6" y2="1041"/>
			<path class="st5" d="M1252.6,1038.8v-4l-3.3-0.7c-0.2,0-0.4-0.1-0.6-0.3"/>
			<polyline class="st5" points="1250.4,1031.1 1254.4,1031.9 1257,1027.5 1260.9,1026.7 			"/>
			<polyline class="st5" points="1261.8,1026.5 1264.6,1026 1265.8,1026 1264.2,1022.3 			"/>
			<path class="st27" d="M1261.7,1016.5c-0.3-0.8,0.1-1.8,0.9-2.1c0.8-0.3,1.8,0.1,2.1,0.9l0,0l1.8,4.1"/>
			<polyline class="st5" points="1267.7,1022.3 1269.3,1026 1272.7,1026 1273.2,1025.8 			"/>
			<polyline class="st5" points="1275.8,1024.5 1275.9,1024.4 1279.7,1025.2 1281.3,1028.2 1281.1,1028.8 			"/>
			<polyline class="st28" points="1279.5,1035.6 1278.2,1041.1 1275.2,1057.1 1275.2,1059.3 			"/>
			<polyline class="st5" points="1275.2,1062.8 1275.2,1063.1 1275.6,1066.8 1279.5,1066.2 			"/>
			<polyline class="st29" points="1286.3,1061.6 1298.5,1052.8 1301.4,1048 1307.1,1043.3 1313.8,1039.4 1321.5,1037.5 
				1327.2,1036.6 1349.2,1031.8 1358.5,1028.3 1360.5,1026.3 1363.2,1022.9 1365.9,1017.6 1366,1016.9 			"/>
			<polyline class="st5" points="1366.5,1012.8 1366.4,1008.8 1363.6,1006.9 1363.4,1006.4 			"/>
			<polyline class="st30" points="1362.4,1002.2 1361.7,997.3 1361.4,995.8 			"/>
			<polyline class="st5" points="1360.9,993.7 1360.7,992.5 1360.7,989.7 1357.4,987.5 			"/>
			<path class="st31" d="M1351.8,983.7l-9.8-6.7c-0.8-0.5-1.1-1.5-0.6-2.3c0.5-0.8,1.5-1.1,2.3-0.6c0.1,0,0.1,0.1,0.2,0.1l5.5,3.7"
				/>
			<polyline class="st5" points="1352.1,979.8 1355.4,982 1358,979 			"/>
			<polyline class="st32" points="1362.8,973.4 1379.2,954.3 1391.2,941.7 1393.1,940 1411.1,923.1 			"/>
			<polyline class="st5" points="1413.8,920.6 1414,920.5 1414.7,920.1 1415.3,919.9 1415.9,919.9 1416.5,919.9 1417.1,920.1 
				1417.5,920.3 1420.6,917.7 			"/>
			<path class="st33" d="M1426.3,912.8l8.9-7.6l6.7-4.7l9.4-4.7l8.7-3.3l18.7-4.7l15.4-4.7l3.3-0.7h3.3c1.4,0.3,2.7,0.8,4,1.3
				l16.2-0.5"/>
			<polyline class="st5" points="1524.8,883.2 1526.9,883.1 1528.8,882.7 1527.5,881.1 1527.5,879.1 			"/>
			<polyline class="st5" points="1526.8,874.4 1526,870.5 1529.6,869.7 1530.3,873.7 			"/>
			<polyline class="st5" points="1531.5,878.2 1532.2,879.8 1531.9,882 1535.8,881.2 			"/>
			<path class="st5" d="M1540.3,880.3l3.9-0.8l-0.6-3.3c-1.2-0.5-1.8-2-1.3-3.2c0.1-0.3,0.3-0.6,0.5-0.8l-0.7-3.9"/>
			<polyline class="st5" points="1542.1,867.5 1541.3,863.5 1545.3,862.8 1546,866.8 			"/>
			<path class="st5" d="M1546.1,867.4l0.7,3.9c0.8,0.3,1.3,1,1.5,1.8c0.2,0.9-0.1,1.7-0.8,2.3l0.6,3.2l3.9-0.8"/>
			<polyline class="st34" points="1559.5,875.2 1567.7,872.4 1570.7,871.6 			"/>
			<polyline class="st5" points="1574.5,870.7 1578.3,869.7 1578.3,867 1585.2,867 1585.2,869.2 1589.2,869.7 			"/>
			<polyline class="st35" points="1596.6,872 1613.8,873.7 1622.5,875.1 1633.7,879.1 1645.2,884.4 1657.9,888.4 1670.7,893.5 
				1678,897.8 1685.3,903.2 1689.3,905.8 1696.5,908.1 1700.1,908.3 1706.9,911.4 1714.1,915.5 1768.4,941 1801,947 1808.3,948 
				1831.1,952.4 1870.5,970.8 1892.2,992.6 			"/>
			<polyline class="st5" points="1894.9,995.3 1897.7,998.2 1900.7,1000.9 			"/>
			<polyline class="st5" points="1901.9,1002 1904.8,1004.7 1905.8,1004.3 1907.9,1004.3 1910.7,1001.4 			"/>
			<polyline class="st5" points="1912.2,1000 1915,997.1 1918.5,1000.6 1915.6,1003.5 			"/>
			<polyline class="st5" points="1914.5,1004.6 1911.7,1007.4 1911.7,1009.8 1911.3,1010.5 1914.2,1013.2 			"/>
			<polyline class="st5" points="1915,1013.9 1917.9,1016.6 1918.1,1016.5 1920.3,1016.5 1921.4,1015.4 			"/>
			<polyline class="st5" points="1914.8,1034.1 1911.9,1036.9 1914.7,1039.7 			"/>
			<line class="st36" x1="1919.4" y1="1044.4" x2="1926.4" y2="1051.4"/>
			<path class="st37" d="M1273.1,1014.7c0.2,0,0.3,0,0.5-0.1l68.5-20.7c0.9-0.2,1.4-1.1,1.1-2s-1.1-1.4-2-1.1c0,0,0,0-0.1,0
				l-68.5,20.7c-0.9,0.3-1.3,1.2-1.1,2C1271.7,1014.2,1272.4,1014.7,1273.1,1014.7z"/>
		</g>
		<g id="_2019_KLN_Shoreline">
			<polygon class="st38" points="1620.1,529.8 1534.3,446.6 1535,443.3 1544.4,416.5 1548.4,417.9 1641.9,507.7 			"/>
			<path class="st38" d="M2033.1,859.8l-1.3-2l-0.7-2.7l0.6-0.7l46.9-24l3.3-2l-10-25.4l-1.3-1.3l-7.4,0.7l-4.7,0.7l-3.3,0.7
				l-7.3,3.9l-4.5,1.9l-8.4-0.6l-6.1-1.8l-8.8,1.1l-9.7,1.4h-10l-2,4h-5.4l0.1-5.3l-5.2-0.8l-8.1-5.3l-6.7-5.3l-4.7-4l-5-8.6
				l-6.3-12.1l-5.3-12l-7-6.5l-29.7-16.3l-4-4.7l-33.6-40.8l5.3-4.7l-5.4-0.9l-11-8.8l-1.4-2c0,0.1-0.1,0.1-0.1,0.2
				c-0.5,0.4-1.2,0.6-1.8,0.5l-6.4,6.4l-2.3-2.3l6.4-6.4c-0.2-0.6,0-1.3,0.4-1.8c0.3-0.3,0.6-0.4,1-0.5l-1.1-1.6l-13.9-20.2
				l-0.2-0.2l-6.1,4.6l-0.6-0.8l-20.4,14.6c-0.6,0.4-1.4,0.3-1.9-0.3c-0.4-0.6-0.3-1.4,0.3-1.9l20.3-14.5l-0.6-0.8l5.9-4.5l-3.7-7.2
				l-2.4,1.7l-1.3-1.8l2.6-1.8l-4.4-5.1l-0.7-1.3l-2-3.3l-2.5,2.3l-0.2-0.2l-6.9-9.5l-21.1-25.9l-20.7-24.1l-31.4-33.4l-12-11.4
				l-36.8,38.8l-53-50.9l-21.8,22.3l32.8,31.8l4.8,2.9l51.9,48l3.6,2.7l6.4,3.4l4,0.7l7.3-7.3l30.6,30.2l1.5,4.5l-1.5,14.4l0.1,1.7
				l28.9,30v4.8l-22.7,23.9h-5l-24.4-24.9h-5.3l-14.3-14.3l-9.6-12.3l-243-235.3l-10.9,5.7l-17,37.2l1.8,2.1l7.3,3.4l-1.4,3
				l-7.7-3.6h-2.4l-20.5,44.8v4.9l-2.3,5.4l-5.4,2.3l-2.7-0.7l-2.4,60.6l-0.3,1.6h6.7v6h-6.6l-0.1,3l10.8,9.5l18.7,15.6l2,2
				l-6.4,29.8l-9.7,44.4l2.7,9.4l2,7.4l-22.7,16l-5.8-0.4l-2.6-2.2l-3.6,8l-5.3,2l1.3,2.7l-8.7,4l-1.4-2.4l-5.3,2.3l-4,2.1l0.7,3.3
				l0.7,2l2.7,5.3l-3.3,2l-2.7-5.3l-0.7-2l-2-3.3l-72.9,32.8l-6-13.4l-11.9-0.1l-0.1,30.2l-11.2,7.1l-4.8-6.4l8.7-5.3v-19.4
				l-7.7,3.1l-4.6-1.5l-16.7-0.8l-55.6,49.5l-5.1,6.5l-1.3,2l-5.5,15.6l-2.3,3.2l-0.3,1.3l-3.3,3.3l-14.7,18l-24.7,2l-6.7-5.3
				l-28.3,2.3l-0.5,1l-9.4,0.7l-12,1.3l-2.6-8.1l-4.1-0.5h-2.7l-0.1-0.1l-5.2,7.3c-0.2,0.4-0.7,0.6-1.1,0.6c-0.3,0-0.5-0.1-0.8-0.2
				c-0.6-0.4-0.7-1.3-0.3-1.9c0,0,0,0,0,0l5.5-7.7l-5.4-6l-0.3,0.2l-6,7.3c-0.2,0.3-0.6,0.5-1,0.5c-0.3,0-0.6-0.1-0.8-0.3
				c-0.6-0.5-0.7-1.3-0.2-1.9c0,0,0,0,0,0l5.8-7.1l1.3-2.8l2.7-2.7l-2-9.4l-55.6,11.4l-2-11.9l48.3-10.2l0.6-2.6l0.7-2.7l1.3-0.7
				h1.7l1.3,0.8l-2.4-9.5l-2.7-13.4l-25,5.1h-0.3c-0.8-0.1-1.5-0.8-1.4-1.6c0-0.6,0.5-1.2,1.1-1.4l20.2-4.1V819l4-1.3l-2-8
				c-4.1,0.8-31.1,5.6-31.1,5.6c-0.1,0-0.2,0-0.3,0c-0.8-0.1-1.5-0.8-1.4-1.6c0-0.6,0.5-1.2,1.1-1.4c0,0,26.9-5.8,31-6.6l-2-13.4
				l-38.2,8.4c-0.2,0-0.4,0.1-0.5,0.1c-1.4,0-2.6-1.2-2.6-2.6c0-1.2,0.9-2.2,2-2.5l31.3-6.1v-3.3l2.7-0.7l-3-6.7l-2.2-8.6l-0.8-6
				l-5.9,0.6l-7.3,5.2l-1.2-1.6l5.7-4l-0.8-0.2l-4,1.3l-1.3-0.7l-13.4,1.3l-12.6,1.6l-0.1,1l-28.7,4l-7.4,0.7l-2-0.7l-10.5,1.1v6.2
				h1.7v3.3h-6.7v-3.3h1.7v-5.9l-7.5,1.8l-16,6l-10.5,10l-3,7.6l-1.3,1.2l-2,0.7l-2.9-0.3h-38l-6-4.6l-3.8-3.8l-3.1-5.9l-1.2-2.7
				v-20.5l-0.2-2.7l0.2-2.3l-0.2-5.2l0.2-4.1l0.2-3.3l0.8-3.5l1.1-3.3l2-2.7l0.7-0.7l1.3-1.3l2-1.3l0.2-0.5V710
				c0-3.2-1.8-4.5-3.3-5.6l-0.2-0.2c-1.7-1.2-6-2.2-7.5-2.5c-0.6-0.1-1.1-0.7-1-1.4s0.7-1.1,1.4-1c0.2,0,6,1.1,8.5,2.9l0.2,0.1
				c1.6,1.1,4.3,3,4.3,7.5v12.4l32.7-0.2l41.6-59.4l-0.2-139.1l-8.4-20l-65.5-0.4l0.6,16c0,0.7-0.6,1.4-1.3,1.4h0
				c-0.7,0-1.3-0.6-1.3-1.3l-0.8-16.7c0-0.7,0.6-1.4,1.3-1.4l0,0l-0.5-49.5v-18.4l-12-20.5l-6.7-5.5l-15.9,19.1h-0.4l-7.7-6.4
				l-0.2-0.6l16-19.1l-10.8-8.9l-5.6,7l-1.2-1l5.6-7l-6.8-5.6l-5.6,6.8l-1.2-1l5.6-6.8l-7.9-6.8l-2.1,2.5l-1-0.8l1.9-2.5l-13.4-11.2
				l-6.6,7.9l-2.3-1.9l6.6-7.9l-12-10.4l-6.7,8l-2.7-2l6.7-8l-7.4-6l-4-3.3l-8.7-5.4l-4.5-3.2l-11-7l0,0l-14.9-8.3l-13.9-9.7
				l-6.7-3.3l-3.6,5.7l4.9,2.8l-0.4,0.6l-4.9-2.9l-1.1,1.8l5,3.3l-0.4,0.6l-5-3.3l-1.6,2.5l4.3,2.9l-0.4,0.6l-4.3-2.9l-5.6,8.9
				l5.3,3.5l-0.4,0.6l-5.3-3.5l-1.1,1.7l4.8,3.2l-0.4,0.6l-4.8-3.2l-1,1.5v0.1l2.3,1.5l-0.4,0.6l-2.3-1.5l-1.3,2.1l2.2,1.4l-0.4,0.6
				l-2.1-1.4l-5.4,8.8l9.6,5.9l-0.6,1.2l-11.5-7l1.8-2.8l-25.3-16.1l-11.8,19.3l11.3,6.1l7,4l0.2-0.2h1l25.7,15.6l1.8,1.2
				c0.6,0.4,0.8,1.2,0.4,1.9c-0.2,0.4-0.7,0.6-1.1,0.6c-0.3,0-0.5-0.1-0.7-0.2l-2.9-1.8l-1.3,0.8l4.5,3.3l-0.5,0.8l-4.8-3.5
				l-2.4,1.5l4.2,4.2l-0.8,0.9l-4.4-4.4l-4.7,3l6.8,6.8l-0.8,0.8l-6.9-6.9l-4.3,3.4l6.7,6.7l-1,1l-6.8-6.8l-0.4,0.3l-5.1,5l3.6,3.6
				L651,391l-3.6-3.6l-4.7,4.6l3.7,3.7l-0.7,0.7l-3.7-3.7l-2.7,2.7l2.9,2.9l-0.7,0.7l-2.9-2.9l-0.8,0.8l4.4,5.4l4.3,3.4v0.2l0.4,0.4
				l7.1-7.1h0.2l0.4,0.4v0.2l-6.9,7.1l4.2,4.9l4.4-4.4l3,3l-4.4,4.4l1,1.1l3.7-3.7V412h0.2v0.2l0.4,0.4h0.2v0.2H660l-3.7,3.7
				l3.2,3.1l3.4-3.5l0.8,0.8l-3.3,3.5l6,5.9l9.3-9.3l-9.5-9.5l1-1.2l6.9,7l0.8-0.8l2.5,2.7l1.2-0.7l-2.7-2.7l0.7-0.7l2.7,2.7
				l6.7-7.4l-2-2.1l0.2-0.2l-6.6-6.6l1-1l6.6,6.6l6.9-6.9l-1.5-1.2l2.7-2.7l1.3,1.3l1.9-1.9l-3.8-2.7l0.9-1.2l3.9,2.9l2.4-2.4
				l-0.7-0.7v-0.1l-10.7-6.8c-0.7-0.3-0.9-1.2-0.6-1.8s1.2-0.9,1.8-0.6c0.1,0,0.1,0.1,0.2,0.1l7,4.5h3l1.3-0.7l1.3-0.7l1.3,0.7
				l0.7,1.3l2,1.3l2.7,2.7l2.7,2l5.4,4.1h0.4l0.4-0.2h0.6l0.2,0.2h0.4l0.4,0.2h0.2l0.4,0.4l0.2,0.2l0.2,0.2l0.2,0.2l0.2,0.4v0.2
				l0.2,0.4v0.4l0.3,0.5l2.4,0.6l2.7,3.9l1.9,5.2l1.7,3.1l3.5,5.3l1.3,6.5v5.8l-3.9,3.2l-4.6,0.8l-7.4,2l-6,3.3l-7.4,6l-5.4,5.5
				l-3,3.8l-1.3,3.2l-0.4,3l-2,2l-4.7,4.7l-1.9,4.5v4.4l0.6,4l1.9,3.2l2.6,1.9l-1,3l-4.1,1.5l-2.8,2.6l-1.7,3.9l-1.6,2.3l2.7,2.7
				l-5.9,6.5l-2.7-2.5l-8.6,7.2l-1.3,5.2l1.3,3.2l-4.5,5.8l-1.3,4.5l-1.3,5.2l-1.9,1.9l-2.6-1.3l-3.2-1.9l-3.9-3.2l-3.9-5.8
				l-1.3-5.2l-3.9-3.2l-5.2-1.9l-4.5-0.6l-2.6-2.6l-1.3-7.1v-4.7l0.2-2.7l-1-2.3l-5.4-5h-11.4l-2.5-0.9l-3.8-1.5l-3-2.6l-2.3,0.3
				l-2.3-0.8l-6.1,0.8v2.3l5.9,38.5l1.3,8v0.6l-0.2,0.4l-0.4,0.4l-42.8,8.1l-1.2,0.2l-0.4-0.2l-0.4-0.2l-0.2-0.8l-4,0.8l-0.2-1.5
				l45.1-8.5l-1.2-5.9l-11.6-52.3l-1.3-2.6l-55.2,9.8v0.1l11.8,62.5c0.3,1.3-0.3,2.7-1.5,3.4l1.4,7.2c0.2,1.3-0.6,2.5-1.9,2.7
				c-0.1,0-0.3,0-0.4,0c-1.1,0-2.1-0.8-2.3-1.9l-10.6-56l-30.6-15.1h-3l-3.8,2.3l-15.8,3.5l-2.9,1.6l-2,0.7H458l-2.2-1.2
				l-116.9-63.6l0.7-2.7v-4l-2-7.4l5.4-8l6-6l6-7.4l-0.7-3.3l194.6-61.5l-14.7-44.8l-5.3-2.7l-112.3,35.4l-36.8-117l80.9-25.4
				l-13.3-42.7l-80.9,25.4L312.2-17.4L245.3,3.4l-1.3-4l2-0.7l-0.7-2l-4.7-15.4l-4-8L230-46.8l-0.7-2.7l1.3-1.3l-4-12.7l-3.3-2
				l-2-5.3l-4.8-8.8l0.8-3.9l4.5-5.3l6.1-2.1h2l1.3,3.3l-0.7,2.7l2.7,4.7l1.7,6.2l1.6,1.2l2-1.3l2.7,2.7l0.7,2l-1.3,1.3l1.2,1.1
				l0.2,0.1l8.6-1.9l7.2-48.1"/>
			<path class="st38" d="M857.8,681.3L857.8,681.3c-5-0.1-9.4-3.2-11.2-7.7c-0.9-2.2-1.5-4.6-1.5-7V550.9c0-6.1-10.7-7.3-10.8-7.4
				c-0.7-0.1-1.3-0.7-1.2-1.5c0.1-0.7,0.7-1.3,1.5-1.2c0.5,0.1,13.2,1.6,13.2,10v115.7c0,0.5,0.2,11.5,10.1,12
				c0.7,0.1,1.3,0.7,1.2,1.5C858.9,680.7,858.4,681.2,857.8,681.3L857.8,681.3z"/>
			
				<rect x="1011.5" y="774.5" transform="matrix(0.9913 -0.1314 0.1314 0.9913 -93.5649 139.7874)" class="st38" width="2" height="8.8"/>
			<path class="st38" d="M1480.5,592.4c-0.3,0-0.7-0.2-0.8-0.5l-28.7-44.1c-0.3-0.5-0.2-1.1,0.3-1.4c0,0,0,0,0,0
				c0.5-0.3,1.1-0.2,1.4,0.3c0,0,0,0,0,0l28.7,44.1c0.3,0.5,0.2,1.1-0.3,1.4C1480.9,592.3,1480.7,592.4,1480.5,592.4L1480.5,592.4z"
				/>
			<path class="st38" d="M1480.2,620.1c-0.4,0-0.7-0.2-0.9-0.5c-0.3-0.5-0.1-1.1,0.4-1.4c0,0,0,0,0,0l70.2-36.8
				c0.5-0.3,1.1-0.1,1.4,0.4s0.1,1.1-0.4,1.4l0,0l-70.2,36.8C1480.5,620.1,1480.3,620.1,1480.2,620.1z"/>
			<path class="st38" d="M1813.5,695.9c-5.6,0-12.7-2-13.8-2.3c-0.7-0.2-1.1-0.9-0.9-1.7c0.2-0.7,0.9-1.1,1.7-0.9
				c5.2,1.5,14.4,3.2,16.9,1.5c3.9-2.6,15.2-11.2,15.3-11.3c0.6-0.5,1.4-0.4,1.9,0.1c0.5,0.6,0.4,1.4-0.1,1.9c0,0-0.1,0.1-0.1,0.1
				c-0.5,0.4-11.4,8.8-15.4,11.4C1817.2,695.6,1815.4,696,1813.5,695.9z"/>
			<polyline class="st5" points="799.3,971.6 795.5,970.5 797.5,963.5 797.9,963.1 801.8,964.2 			"/>
			<polyline class="st5" points="803.4,964.6 806.6,965.5 807,966 805.1,973.1 801.2,972.1 			"/>
		</g>
	</g>
</g>
<g class="st39">
	<g class="st40">
		<path d="M834.4,326.2L771,273.6l-1.9-39.2l6.7-7.6l-97.8,2.9h-9.7v1.1l-12.9-1.1l-1.1-1.1l-4.3-1.1h-8.6l-74.3-33.4l-1.1-1.3v-2
			l17.2-37.7l-3.3,0.7h-3l-1.7-3H566l-5.8-1.7l-3.1-5v1.6l-3.2,6.5l-2.2,1.1h-2.2l-3.2,1.1l-4.3,1.1l-3.2,1.1h-1.1l-2.2,1.1
			l-1.7,1.1h-1.5l-2.2-2.2v-2.2l1.1-2.1V148l-1.1-1.2l-2.2-1.1h-4.3l-2.2-1.1h-2.2l-3.2-6.5l-1.1-3.2v-3.2l-1.1-3.2l-2.2-3.2
			l-3.2-1.1l-2.4-1.1h-3l-2.8-1.1h-3.6l-2.2-3.2l-1.1-2.2v-3.2l1.1-3.2V107l-1-3.3l-1.1-2.2l-1.1-3.2l-3.2-1.1l-2.2-2.1l-2.1-8.6
			l-0.8-4.2v-3.2l-2.4-1.1H479l-2.1-1l-3.8-2.1h-8.9l-0.9-1H459l-8.5-8.6h-2.1l-3.2-1h-4.2l-3.2-1l-4.2-1l-3.2-2.1l-2.1-2.1
			l-2.1-1.1l-3.2-1l-2.1-1L419,53l-2.1-1.1h-5.3l-3.2-1.1l-3.2-2.1l-4.2-6.3l-2.1-6.3l-3,0.2l-2.9-2.9l-1.9-4.8l-2.9-2.9l-2.9,2.9
			l1,6.7l1.9,5.7l1,6.7l6.7,7.7l37.3,26.8l13.5,43l0.4,3.9l13.3,42.7l-80.9,25.4l36.8,117l112.3-35.4l5.3,2.7l14.7,44.8l-194.5,61.5
			l0.7,3.3l-6,7.3l-6,6l-5.3,8l2,7.4v4l-0.7,2.7l116.9,63.6l2.2,1.2h1.3l2-0.7l2.9-1.6l15.8-3.5l3.8-2.3h3l30.6,15.1l10.6,56
			c0.2,1.1,1.2,1.9,2.3,1.9c0.1,0,0.3,0,0.4,0c1.3-0.2,2.1-1.5,1.9-2.7l-1.4-7.2c1.2-0.7,1.8-2.1,1.5-3.4L521,480.4v-0.1l55.2-9.8
			l1.3,2.6l11.6,52.3l1.2,5.9l-45.1,8.5l0.2,1.5l4-0.8l0.2,0.8l0.4,0.2l0.4,0.2l1.2-0.2l42.8-8.1l0.4-0.4l0.2-0.4v-0.6l-1.3-8
			l-5.9-38.5v-2.3l6.1-0.8l2.3,0.8l2.3-0.3l3,2.6l3.8,1.5l2.5,0.9h11.4l5.4,5l1,2.3l-0.2,2.7v4.7l1.3,7.1l2.6,2.6l4.5,0.6l5.2,1.9
			l3.9,3.2l1.3,5.2l3.9,5.8l3.9,3.2l3.2,1.9l2.6,1.3l1.9-1.9l1.3-5.2l1.3-4.5l4.5-5.8l-1.3-3.2l1.3-5.2l8.6-7.2l2.7,2.5l5.9-6.5
			l-2.7-2.7l1.6-2.3l1.7-3.8l2.8-2.6l4.1-1.5l1-3l-2.6-1.9l-1.9-3.2l-0.6-4v-4.4l1.9-4.5l4.7-4.7l2-2l0.4-3l1.3-3.2l3-3.8l5.4-5.4
			l7.4-6l6-3.3l7.4-2l4.6-0.8l3.9-3.2l0-5.8l-1.3-6.5l-3.5-5.3l-1.7-3.1l-1.9-5.2l-2.7-3.8l-2.4-0.6l-0.3-0.5V396l-0.2-0.4v-0.2
			L721,395l-0.2-0.2l-0.2-0.2l-0.2-0.2l-0.4-0.4h-0.2l-0.4-0.2H719l-0.2-0.2h-0.6l-0.4,0.2h-0.4l-5.4-4.1l-2.7-2l-2.7-2.7l-2-1.3
			l-0.7-1.3l-1.3-0.7l-1.3,0.7l-1.3,0.7h-3l-7-4.5c-0.1,0-0.1-0.1-0.2-0.1c-0.7-0.3-1.5-0.1-1.8,0.6c-0.3,0.7-0.1,1.5,0.6,1.8
			l10.7,6.8v0.1l0.7,0.7l-2.4,2.4l-3.9-2.9l-0.9,1.2l3.8,2.7l-1.9,1.9l-1.3-1.3l-2.7,2.7l1.5,1.2l-6.9,6.9l-6.6-6.6l-1,1l6.6,6.6
			l-0.2,0.2l2,2.1l-6.7,7.3l-2.7-2.7l-0.7,0.7l2.7,2.7l-1.2,0.7l-2.5-2.7l-0.8,0.8l-6.9-7l-1,1.2l9.5,9.5l-9.3,9.3l-6-5.9l3.3-3.5
			l-0.8-0.8l-3.4,3.5l-3.2-3.1l3.7-3.7h0.3v-0.2h-0.2l-0.4-0.4V412h-0.2v0.2l-3.7,3.7l-1-1.2l4.4-4.4l-3-3l-4.4,4.4l-4.2-4.9
			l6.9-7.1v-0.2l-0.4-0.4H654l-7.1,7.1l-0.4-0.4v-0.2l-4.3-3.4l-4.4-5.4l0.8-0.8l2.9,2.9l0.7-0.7l-2.9-2.9l2.7-2.7l3.7,3.7l0.7-0.7
			l-3.7-3.7l4.7-4.6l3.6,3.6l0.8-0.6l-3.6-3.6l5.1-5l0.4-0.3l6.8,6.8l1-1l-6.7-6.7l4.3-3.4l6.9,6.9l0.8-0.8l-6.8-6.8l4.7-3l4.4,4.4
			l0.8-0.9l-4.2-4.2l2.4-1.5l4.8,3.5l0.5-0.8l-4.5-3.3l1.3-0.8l2.9,1.8c0.2,0.1,0.5,0.2,0.7,0.2c0.5,0,0.9-0.2,1.1-0.6
			c0.4-0.6,0.2-1.4-0.4-1.8l-1.8-1.2l-25.7-15.6h-1l-0.2,0.2l-7-4l-11.3-6.1l11.8-19.3l25.3,16.1l-1.8,2.8l11.5,7l0.6-1.2l-9.6-5.9
			l5.4-8.8l2.1,1.4l0.4-0.6l-2.2-1.4l1.3-2.1l2.3,1.5l0.4-0.6l-2.3-1.5V330l1-1.5l4.8,3.2l0.4-0.6l-4.8-3.2l1.1-1.7l5.3,3.5l0.4-0.6
			l-5.3-3.5l5.6-8.9l4.3,2.9l0.4-0.6l-4.3-2.9l1.6-2.5l5,3.3l0.4-0.6l-5-3.3l1.1-1.8l4.9,2.9l0.4-0.6l-4.9-2.8l3.6-5.6l6.7,3.3
			l13.9,9.7l14.9,8.3h0l0,0H834.4z"/>
		<path d="M834.5,540.9c-0.7-0.1-1.4,0.4-1.5,1.2c-0.1,0.7,0.4,1.4,1.2,1.5c0.1,0,10.8,1.3,10.8,7.4v115.7c0.1,2.4,0.6,4.8,1.5,7
			c1.8,4.6,6.2,7.6,11.1,7.7h0.1c0.7,0,1.2-0.5,1.3-1.2c0.1-0.7-0.5-1.4-1.2-1.5v0c-10-0.6-10.1-11.6-10.1-12V550.9
			C847.7,542.5,835.1,541,834.5,540.9z"/>
		<path d="M1015.5,504.2l-48.6-33.4l-6.5,0.7l-4.3,1.1l-12.9,5.4l-15.1,6.5l-1.1,2.1H926l-11.8,4.1v-93.8l15.5-0.6l4-13.2l-11.5,1
			l-1.4-12.7h-32.2l-69.5,29.3l0,0l-0.1,0.1l-16,19.2l0.2,0.6l7.7,6.4h0.4l15.9-19.1l6.7,5.5l12,20.5v18.4l0.5,49.5
			c-0.7,0-1.3,0.7-1.3,1.4l0.8,16.7c0,0.7,0.6,1.3,1.3,1.3h0c0.7,0,1.3-0.7,1.3-1.4l-0.6-16l65.5,0.4l8.4,20l0.2,139.1l-41.6,59.4
			l-32.7,0.2V710c0-4.5-2.7-6.4-4.3-7.5l-0.2-0.1c-2.5-1.8-8.3-2.8-8.5-2.9c-0.6-0.1-1.2,0.3-1.4,1s0.3,1.2,1,1.4
			c1.5,0.3,5.8,1.2,7.5,2.5l0.2,0.2c1.5,1,3.3,2.4,3.3,5.6v22.9l-0.2,0.5l-2,1.3l-1.3,1.3l-0.7,0.7l-2,2.7l-1.1,3.3l-0.8,3.5
			l-0.2,3.3l-0.2,4.1l0.2,5.2l-0.2,2.3l0.2,2.7v20.5l1.2,2.7l3.1,5.9l3.8,3.8l6,4.6h38l2.9,0.3l2-0.7l1.3-1.2l3-7.6l10.5-10l16-6
			l7.5-1.8v5.9h-1.7v3.3h6.7v-3.3h-1.7V774l10.5-1.2l2,0.7l7.4-0.7l28.7-4l0.1-1l12.6-1.6l13.4-1.3l1.3,0.7l4-1.3l0.8,0.2l-5.7,4
			l1.2,1.6l7.3-5.2l5.9-0.6l-0.4-3.1l-1-8.1v-3.2l3.2-17.2v-2.2l-3.7-12.3l-10.6,2.8l-0.6-2.2l10.5-2.8l-4.3-14.5l-1.1-3.2h-3.2
			l-3.2-1.1l-0.1-0.1l-2.2,1.1l-2.4,2.5l-0.9,1.7l-3,17.7L1001,730l0.2,0.7l9.6,20.7l-2.5,1.1l-9.7-20.9l-0.3-1.4l1.4-10.8l-1.9-0.3
			l1.6-11.6h2.3l1-6.2l1.2-2.4l3-3.2l2.6-1.4l-1.9-3.8h-2.2l-3.2-4.3v-1.1l3.2-2.2l10.7-43l17.2,4.6l4.2-18.6l-1.1-11.8
			L1015.5,504.2z"/>
		<polygon points="1012.9,774.4 1010.9,774.7 1012.1,783.4 1014.1,783.1 		"/>
		<polygon points="888.6,371.2 888.7,371.2 834.4,326.2 834.4,326.2 834.4,326.2 724,326.2 735,333.2 739.5,336.3 748.2,341.7 
			752.2,345 759.5,351 752.8,359 755.5,361 762.2,353 774.2,363.4 767.6,371.4 769.9,373.3 776.5,365.4 790,376.5 788.1,379 
			789.1,379.8 791.2,377.3 799.1,384 793.5,390.8 794.7,391.8 800.3,385 807.1,390.7 801.5,397.7 802.6,398.6 808.2,391.6 
			819,400.5 888.5,371.2 		"/>
	</g>
	<g class="st40">
		<polygon points="625.2,134.9 622,133.9 619.8,133.9 616.6,131.7 604.8,161.9 637.6,176.3 637.1,174.8 637.1,172.6 636,169.4 
			636,167.2 634.9,165.1 633.8,162.9 632.8,160.8 631.7,158.6 630.6,156.5 629.5,154.3 628.5,151.1 627.4,148.1 627.4,137.1 		"/>
		<polygon points="1062,581.5 1059.4,580.2 1060.7,573.6 1063.3,568.3 1064.6,563 1064.6,560.4 1062,557.8 1060.7,551.2 
			1056.7,545.9 1055.4,541.9 1051.4,540.6 1050,539.2 1046,536.6 1046,532.6 1044.7,531.3 1046,526 1048.7,524.7 1051.3,523.4 
			1052.6,522 1052.6,518 1051.3,515.4 1051.3,511.4 1050,508.8 1048.7,504.8 1048.7,500.8 1046,496.8 1043.4,495.4 1039.4,492.8 
			1036.8,490.2 1036.8,475.6 1034.2,470.1 1034.2,468.4 1032.8,465.1 1031.5,459.8 1031.5,433.4 1030.2,429.4 1030.2,425.4 
			1032.8,422.7 1035.4,418.7 1039.4,410.8 1039.4,405.5 1038.1,401.5 1039.4,397.5 1039.4,379 1034.2,375 1026.2,373.7 1017,371.1 
			1003.8,368.4 987.9,367.1 978.7,368.4 977.4,371.1 977.4,379 976.1,384.3 973.4,390.9 972.1,397.5 970.8,406.7 969.5,416 
			966.8,420 960.2,425.3 958.9,429.3 957.6,435.9 952.3,442.5 947,447.7 941.7,445.1 936.4,437.2 932.4,433.2 929.8,429.2 
			928.5,425.2 931.1,408 929.8,396.2 914.3,396.8 914.3,442.4 945.8,453.2 951.3,447.8 958.1,441 958.1,438.3 959.4,434.2 
			960.8,431.5 963.5,431.5 963.5,435.6 964.8,438.3 967.6,439.6 975.7,441 978.4,439.6 981.2,436.9 981.2,430.1 989.3,383.9 
			1028.8,383.9 1034.2,413.8 1022,430.1 1019.2,436.9 1015.2,441 1007,451.9 1008.5,466.7 1036.5,614.2 1059.1,609.9 1068.4,608.8 
			1069.7,604.8 1069.7,599.5 1072.4,596.9 1072.6,590.8 1067.3,586.8 		"/>
		<polygon points="1003.8,698.9 1002.6,701.4 1001.6,707.5 999.3,707.5 997.7,719.1 999.6,719.4 1002.3,719.9 1005.2,702.2 
			1006.1,700.5 1008.4,698 1010.6,696.9 1010.7,697 1013.9,698.1 1017.1,698.1 1018.2,701.3 1026.8,730.4 1026.8,732.6 
			1023.6,749.8 1023.6,753 1024.6,761.1 1025,764.2 1043.3,760.4 1043.3,753.1 1042,743.5 1040.7,735.5 1040.7,728.4 1042,721 
			1043.3,713.1 1042,707.8 1040.7,701.1 1038,697.3 1035.4,696 1030.1,694.6 1027.5,690.6 1026.1,688 1026.1,678.6 1027.5,674.9 
			1028.8,670.9 1031.4,668.2 1038,665.6 1040.7,664.3 1044.7,655 1047.3,648.4 1016,640 1008.5,670.1 1005.3,683 1002.1,685.2 
			1002.1,686.3 1005.3,690.6 1007.5,690.6 1009.4,694.4 1006.8,695.8 		"/>
	</g>
	<g class="st40">
		<polygon points="861.2,158.6 854.6,153.3 848,148 845.3,148 840,144 834.8,138.7 830.8,137.4 828.2,134.8 824.2,136.1 
			817.6,132.1 814.7,136 812.5,139.3 810.4,142.5 806.1,145.7 801.8,147.9 795.3,148.9 795.3,152 799.6,155.4 805,160.8 
			808.2,156.5 812.5,156.5 812.5,158.6 816.8,158.6 816.8,155.4 819,153.3 831.9,162.9 830.9,165.1 834.1,167.2 837.3,162.9 
			843.8,168.3 838.4,174.8 840.6,176.9 842.7,174.8 851.3,183.4 870.7,197.4 868.5,199.5 876.1,204.9 855.6,228.6 842.7,244.8 
			834.1,255.5 826.6,265.2 824.4,268.5 824.4,269.5 905.2,334.2 911.6,339.5 918.1,346 925.6,354.6 931.2,363.4 931,374 933.1,374 
			933.1,379.4 936.4,379 938.7,376.5 941.6,376.5 945.6,375.2 948.9,374.5 952.2,373.8 954.9,372.5 956.2,371.2 958.9,368.6 
			957.5,365.9 954.9,363.3 952.2,359.3 950.9,354 949.6,350 947,348.6 945.6,347.3 943,347.3 940.3,344.6 939,342 932.5,335.5 
			924.6,327.5 923.2,324.9 924.6,322.3 923.2,318.3 919.2,315.6 911.3,310.3 907.3,303.7 906,297.1 908.8,294.8 915.4,293.5 
			922,293.5 927.3,296.1 933.9,296.1 940.5,298.8 945.8,292.2 951.1,284.2 948.4,279 948.2,271 944.5,271 939.2,265.8 932.6,252.5 
			927.3,238 923.3,224.8 922,215.4 922,209 920.7,202.4 915.4,198.4 907.5,190.5 899.6,186.5 898.2,182.5 894.2,183.8 890.2,181.1 
			887.6,179.8 882.3,177.2 881,173.2 879.6,173.2 877,175.8 871.8,175.8 867.8,171.8 865.2,166.4 865.2,162.6 		"/>
		<polygon points="613.4,130.6 610.1,129.5 605.8,129.5 602.6,128.5 598.3,127.4 595.1,125.2 583.2,153.2 566.9,188.8 566,190.9 
			566,192.9 567.1,194.2 639.2,226.5 641.4,227.5 650,227.5 654.3,228.6 655.4,229.7 668.3,230.8 668.3,229.7 678,229.7 679,207.1 
			680.1,204.9 681.2,203.8 681.6,180 678.3,181.3 668.3,184.4 666.1,185.5 664,186.6 661.8,187.7 659.7,188.8 654.3,188.8 
			651.1,187.7 647.8,186.6 644.6,185.5 641.4,183.4 640.3,182.3 639.2,180.1 638.1,178 637.5,176.2 604.8,161.8 616.6,131.7 		"/>
		<polygon points="999.6,719.4 998.2,730.2 998.5,731.6 1008.2,752.5 1010.7,751.3 1001.1,730.7 1000.9,730 1002.2,719.8 		"/>
		<polygon points="1059,610 1036.4,614.3 1037.5,626.1 1033.1,644.7 1047.2,648.5 1049.9,641.9 1051.2,637.9 1055.2,633.9 
			1060.5,632.6 1064.5,628.6 1067.1,623.3 1068.4,619.3 1068.4,614 1068.4,608.9 		"/>
		<polygon points="960.8,431.5 959.4,434.2 958.1,438.3 958.1,441 951.3,447.8 945.8,453.2 914.3,442.4 914.3,453.9 929.4,458.5 
			931.5,460.7 932.6,462.8 931.5,476.8 930.5,479 926.2,482.2 926.2,486.5 927.2,486.5 928.3,484.4 943.4,477.9 956.3,472.5 
			960.6,471.4 1008.5,466.6 1007,451.9 1015.2,441 1019.2,436.9 1021.9,430.1 1034.2,413.8 1028.7,383.9 989.3,383.9 981.2,430.1 
			981.2,436.9 978.4,439.6 975.7,441 967.6,439.6 964.9,438.3 963.5,435.6 963.5,431.5 		"/>
	</g>
	<g class="st40">
		<polygon points="914.3,453.9 914.3,490.6 926.1,486.5 926.1,482.2 930.5,479 931.5,476.8 932.6,462.8 931.5,460.7 929.4,458.5 		
			"/>
		<polygon points="709.2,170.5 708.2,171.2 708.2,172.6 707.1,175.8 706,178 701.7,180.1 698.2,181.3 694.9,181.3 692,180.1 
			691,179.1 686.7,178 681.7,180 681.2,203.8 680.2,204.9 679.1,207.1 678,229.7 775.8,226.8 769.1,234.4 771,273.6 888.7,371.3 
			920.9,371.3 922.3,384 933.8,383 936.4,379 933.2,379.4 933.2,374 931,374 931.2,363.4 925.6,354.6 918.1,346 911.6,339.5 
			824.4,269.5 824.4,268.5 855.6,228.6 876.1,204.9 868.5,199.6 870.7,197.4 851.3,183.4 842.7,174.8 840.5,176.9 838.4,174.8 
			843.8,168.3 837.3,162.9 834.1,167.2 830.8,165.1 831.9,162.9 819,153.3 816.8,155.4 816.8,158.6 812.5,158.6 812.5,156.5 
			808.2,156.5 805,160.8 799.6,155.4 795.3,152 795.3,148.9 793.2,148.9 791,150 787.8,151.1 784.6,151.1 783.5,148.9 781.3,150 
			778.1,152.2 776,152.2 774.9,151.1 773.8,148.9 773.8,146.8 772.7,145.7 771.6,146.8 771.6,156.5 773.8,164 776,168.3 
			777.1,171.1 777.1,175.9 774.9,177 771.7,177 770.6,174 770.6,170.5 769.5,166.2 768.5,164 766.3,160.8 763.1,157.5 759.8,155.4 
			756.6,153.3 754.5,153.3 753.4,154.3 753.4,156.5 755.5,158.6 762,162.9 765.1,166.2 766.2,169.4 765.1,171.5 764.1,173.7 
			760.8,175.9 755.4,176.9 751.1,178 739.3,178 736.1,175.9 735,173.7 734,171.5 730.8,170.5 728.6,170.5 724.3,171.5 715.7,174.8 
			712.5,175.9 710.3,174.6 710.3,172.6 		"/>
		<polygon points="543.4,29.4 541.2,28.3 539.1,25.1 538,26.2 538,28.3 539.1,31.6 539.1,54.1 540.2,57.4 541.5,58.4 544.3,59.4 
			549.1,59.4 551.8,59.7 553.9,61.8 555,64 556.1,66.2 557.1,70.5 558.2,74.8 558.2,79.1 559.3,84.5 562.5,89.8 562.5,93.1 
			564.7,96.3 564.7,99.3 563.6,102.8 563.6,107.1 564.7,110.4 564.7,112.5 563.6,114.7 562.5,116.8 562.5,123.3 561.5,125.4 
			559.3,126.5 559.3,127.6 560.4,130.9 560.4,134 559.3,136.2 558.2,138.4 557.1,140.5 557.1,144.3 560.2,149.3 566,151 575.2,151 
			576.9,154 579.9,154 583.2,153.3 595.1,125.2 594,124.2 592.9,123.1 591.8,121.8 591.8,119.8 590.8,118.8 589.7,117.7 
			588.6,116.6 587.5,115.5 586.5,113.4 584.3,111.2 583.2,109.1 581.1,105.8 581.1,83.2 580,80 578.9,77.9 580,75.7 583.2,73.3 
			583.2,71.4 581.1,69.2 578.9,67.1 576.8,67.1 573.5,66 571.4,63.9 569.2,60.6 568.2,56.3 567.1,53.1 566,49.9 562.8,48.8 
			560.6,47.5 560.6,40.2 558.5,39.1 556.3,39.1 554.2,39.3 550.9,39.1 548.8,38 546.6,37 545.5,34.8 545.5,31.6 		"/>
		<polygon points="447.4,129.1 446.9,125.3 433.4,82.3 396.1,55.5 389.4,47.8 388.4,41.1 386.5,35.4 385.5,28.7 388.4,25.8 
			391.3,28.7 393.2,33.5 396,36.3 399,36.2 398,33 397,28.8 397,6.8 398,2.6 398,0 317.7,0 366.4,154.5 		"/>
		<polygon points="256.2,0 244.2,0 245.3,3.4 		"/>
		<polygon points="1008.5,466.6 967.1,470.8 1015.6,504.3 		"/>
		<polygon points="1012,718.7 1012.6,720.9 1023.2,718.1 1022.5,715.9 		"/>
	</g>
</g>
</svg>
