<?xml version="1.0" encoding="utf-8"?>
<!-- Generator: Adobe Illustrator 23.0.3, SVG Export Plug-In . SVG Version: 6.00 Build 0)  -->
<svg width="3840" height="2160" version="1.1" id="_1985" xmlns="http://www.w3.org/2000/svg" xmlns:xlink="http://www.w3.org/1999/xlink" x="0px" y="0px"
	 viewBox="0 0 1920 1080" style="enable-background:new 0 0 1920 1080;" xml:space="preserve">
<style type="text/css">
	.st0{fill:#70CCB8;}
</style>
<g>
	<path class="st0" d="M978.9,637L978.9,637C978.8,637,978.8,637,978.9,637L978.9,637z"/>
	<polygon class="st0" points="1000.9,736 1002.2,725.8 999.6,725.4 998.2,736.2 998.5,737.6 1008.2,758.5 1010.7,757.3 
		1001.1,736.7 	"/>
	<path class="st0" d="M978.9,633.1l-4.5-0.3l-5.1-1.9l-4.1-2.2l-5.9-4.2l-5-5l-3.9-4.5l-2.8-4.5l-2.9-5.6l-2.1-6.5l-14-90.9l0.2-2
		c0.1-1.1-1.1-2.1-2.2-2.1c-1.2-0.1-2.2,0.7-2.5,1.8l0.3,2.3l14.5,91.6v0.1l2.3,7.1l3.1,6l3.1,5l4.1,4.8l5.4,5.4l6.2,4.4l4.6,2.5
		l6,2.3l3.2,0.6l1.8-0.1h0.3c0.8-0.1,1.4-0.8,1.6-1.6C980.6,634.4,980,633.3,978.9,633.1z"/>
	<polygon class="st0" points="916.4,383.1 929.2,383.1 929.6,381.7 932.3,377.8 932.3,377.8 934.7,375.1 937.7,375.1 941.7,373.8 
		944.9,373.1 948.3,372.4 951,371.1 952.3,369.8 955,367.1 953.6,364.5 951,361.8 948.3,357.8 947,352.5 945.7,348.5 943,347.1 
		941.7,345.8 939,345.8 936.3,343.1 935,340.5 928.3,333.8 920.3,325.8 919,323.1 920.4,320.5 919,316.5 915,313.8 907,308.5 
		903,301.8 901.7,295.2 904.3,292.5 911,291.2 917.7,291.2 923,293.8 929.7,293.8 936.3,296.5 941.7,289.8 947,281.8 944.3,276.5 
		944.1,268.5 940.3,268.5 935,263.2 928.4,249.9 923.1,235.2 919.1,221.9 917.8,212.4 917.8,205.9 916.4,199.2 911.1,195.2 
		903.1,187.2 895.1,183.2 893.8,179.2 889.8,180.6 885.8,177.9 883.1,176.6 877.8,173.9 876.4,169.9 875.1,169.9 872.4,172.6 
		867.1,172.6 863.1,168.6 860.4,163.1 860.4,159.2 856.4,155.2 849.8,149.9 843.1,144.6 840.4,144.6 835.1,140.6 829.8,135.3 
		825.8,133.9 823.1,131.3 819.1,132.6 812.5,128.6 809.6,132.6 807.4,135.8 805.2,139.1 800.9,142.4 796.5,144.5 790,145.6 
		790,145.7 787.8,145.7 785.6,146.8 782.4,147.8 779.1,147.8 778,145.7 775.8,146.8 772.6,148.9 770.4,148.9 769.3,147.8 
		768.2,145.7 768.2,143.5 767.1,142.4 766.1,143.5 766.1,153.3 768.2,160.9 770.4,165.2 771.5,168 771.5,172.8 769.3,173.9 
		766.1,173.9 765,170.9 765,167.3 763.9,163 762.8,160.8 760.6,157.6 757.4,154.3 754.1,152.1 750.8,150 748.7,150 747.6,151 
		747.6,153.2 749.8,155.4 756.3,159.7 759.5,163 760.6,166.3 759.5,168.5 758.4,170.6 755.2,172.8 749.8,173.9 745.4,175 733.4,175 
		730.2,172.8 729.1,170.6 728,168.5 724.8,167.4 722.6,167.4 718.2,168.5 709.5,171.7 706.3,172.8 704.1,171.5 704.1,169.5 
		703,167.4 701.9,168.1 701.9,169.5 700.9,172.8 699.8,175 695.4,177.2 691.9,178.3 688.5,178.3 685.6,177.2 684.5,176.1 680.2,175 
		675.2,177 671.8,178.3 661.7,181.5 653,185.8 647.6,185.8 644.3,184.8 637.8,182.6 634.5,180.4 633.4,179.3 631.3,175 630.7,173.2 
		630.6,173.2 630.7,173.2 630.2,171.7 630.2,169.5 629.1,166.3 629.1,164.1 628,161.9 627,159.8 625.9,157.6 624.8,155.4 
		623.7,153.3 622.6,151.1 621.5,147.8 620.4,144.8 620.4,133.7 618.3,131.5 615,130.4 612.9,130.4 609.6,128.3 609.5,128.5 
		609.6,128.3 606.3,127.2 603.1,126.1 598.7,126.1 595.5,125 593.2,124.4 593.2,124.4 591.1,123.9 587.9,121.7 586.8,120.6 
		585.7,119.5 584.6,118.2 584.6,116.3 583.5,115.2 582.4,114.1 581.4,113 580.3,112 579.2,109.8 577,107.6 575.9,105.5 573.7,102.2 
		573.7,79.4 572.6,76.1 571.6,74 572.6,71.8 575.9,69.3 575.9,67.4 573.7,65.3 571.6,63.1 569.4,63.1 566.1,62 564,59.8 561.8,56.5 
		560.7,52.2 559.6,48.9 558.5,45.7 555.3,44.6 553.1,43.3 553.1,35.9 550.9,34.8 548.8,34.8 546.6,35 543.3,34.8 541.2,33.7 
		539,32.6 537.9,30.4 537.9,27.2 535.7,25 533.5,23.9 531.4,20.7 530.3,21.8 530.3,23.9 531.4,27.2 531.4,50 532.4,53.2 533.7,54.2 
		536.6,55.2 541.4,55.2 544.1,55.6 546.3,57.7 547.4,59.9 548.5,62.1 549.6,66.4 550.6,70.8 550.6,75.1 551.7,80.6 555,86 555,89.3 
		557.2,92.5 557.2,95.4 556.1,99 556.1,103.4 557.2,106.7 557.2,108.8 556.1,111 555,113.1 555,119.7 553.9,121.8 551.8,122.9 
		551.8,124 552.8,127.4 552.8,130.6 551.8,132.8 550.7,134.9 549.6,137.1 549.6,140.9 552.7,146 554.6,149.7 558.4,151.5 562.8,151 
		567,151.8 570.5,154.1 573.4,156.8 576.9,159.6 577,159.6 564.7,186.3 564.7,188 646.9,225.4 648.5,224.4 668.7,225.6 669.1,227.1 
		671.5,227.1 671.5,227.2 770.2,224.2 763.5,231.9 765.6,274.8 842.6,338.8 841.8,341.4 835.8,348.3 838.4,350.6 844.5,343.7 
		847.1,342.5 883.2,372.5 916.5,372.7 	"/>
	<polygon class="st0" points="503.9,121.9 500.7,120.8 498.3,119.7 495.3,119.7 492.4,118.7 488.8,118.7 486.6,115.4 485.5,113.2 
		485.5,110 486.6,106.7 486.6,103.4 485.5,100.2 484.4,98 483.3,94.7 480.1,93.7 477.8,94.7 475.9,95.9 471.6,96.2 466.6,96.4 
		463.1,95.1 463.9,98.1 482,129.5 483.4,131.9 485.1,133.4 484.5,135.3 487.5,137.3 488.9,135.2 495.6,139.5 497.5,134.7 
		501.1,132.7 504.6,132 506.8,130.2 507.2,128.4 506.1,125.2 	"/>
	<polygon class="st0" points="232.8,2.5 240.7,0 231.8,0 	"/>
	<polygon class="st0" points="424.8,84.7 423.3,82.4 415.7,77 386,55.9 382.4,52.9 379.2,44.2 379.9,43 377.7,36.8 377.4,31.1 
		377.7,28.3 381.8,28.2 384.2,29.2 387.1,32.1 390.1,31.9 389,28.7 387.9,24.4 387.9,2.2 388.5,0 308.4,0 356.4,152 438.1,126.5 
		426.1,87.5 	"/>
	<polygon class="st0" points="1064.3,587 1059,581.7 1056.3,580.3 1057.7,573.7 1060.3,568.3 1061.7,563 1061.7,560.3 1059,557.6 
		1057.7,551 1053.7,545.6 1052.3,541.6 1048.3,540.3 1047,539 1043,536.3 1043,532.3 1041.6,531 1043,525.6 1045.6,524.3 
		1048.3,523 1049.6,521.6 1049.6,517.6 1048.3,515 1048.3,511 1047,508.3 1045.6,504.3 1045.6,500.3 1043,496.3 1040.3,495 
		1036.3,492.3 1033.6,489.6 1033.6,475 1031,469.4 1031,467.7 1029.6,464.3 1028.3,459 1028.3,432.4 1027,428.4 1027,424.4 
		1029.6,421.7 1032.3,417.7 1036.3,409.7 1036.3,404.4 1035,400.4 1036.3,396.4 1036.3,377.8 1031,373.8 1023,372.4 1013.7,369.8 
		1000.3,367.1 984.3,365.8 975,367.1 973.7,369.8 973.7,377.7 972.3,383 969.7,389.7 968.3,396.4 967,405.7 965.7,415 963,419 
		956.3,424.3 955,428.3 953.7,435 948.3,441.7 943,447 937.7,444.4 932.3,436.4 928.3,432.4 925.7,428.4 924.3,424.4 927,407.1 
		931.2,401.5 931.7,399.3 915.8,399.6 915.8,442.2 915.8,442.2 915.8,442.2 915.8,457.6 915.8,457.6 915.8,470 914,471 906.1,471 
		906.1,473.5 906.7,474.8 915.8,474.8 915.8,494.6 927.8,490.5 927.8,490.5 962,477 972.6,477 1009.6,503.2 1009.6,503.1 
		1018.7,558.3 1027.9,616 1030.1,629.4 1025.8,646 1010,642 1001.4,639.7 993.5,671.4 1004.5,673.7 1004.6,673.6 1004.6,673.7 
		1008.1,674.5 1009.6,675.9 1008.6,680.3 1007.2,686 1004.7,689.4 1003,691.8 1002.3,693.6 1004,695 1007.2,698.7 1010.5,699.8 
		1013.8,699.8 1020.1,705.3 1023.6,721.8 1013,724.6 1013.6,726.8 1024.1,724.1 1025.5,730.8 1026.6,735.1 1024.3,750.5 
		1023.9,756.1 1040,753.2 1038.9,745.5 1037.6,737.5 1037.6,730.3 1038.9,722.8 1040.2,714.8 1038.9,709.5 1037.6,702.7 
		1034.9,698.9 1032.2,697.5 1026.9,696.2 1024.2,692.2 1022.9,689.5 1022.9,679.9 1024.2,676.2 1025.6,672.2 1028.2,669.5 
		1034.9,666.9 1037.6,665.5 1041.6,656.2 1044.2,649.5 1044.2,649.5 1046.9,642.9 1048.2,638.9 1052.2,634.9 1057.5,633.5 
		1061.5,629.5 1064.2,624.2 1065.5,620.2 1065.6,609.6 1065.6,609.6 1066.9,605.6 1066.9,600.3 1069.6,597.6 1069.6,591 	"/>
</g>
</svg>
