<?xml version="1.0" encoding="utf-8"?>
<!-- Generator: Adobe Illustrator 23.0.3, SVG Export Plug-In . SVG Version: 6.00 Build 0)  -->
<svg width="3840" height="2160" version="1.1" id="Layer_5" xmlns="http://www.w3.org/2000/svg" xmlns:xlink="http://www.w3.org/1999/xlink" x="0px" y="0px"
	 viewBox="0 0 3840 2160" style="enable-background:new 0 0 3840 2160;" xml:space="preserve">
<style type="text/css">
	.st0{opacity:0.8;}
	.st1{fill:#666666;}
	.st2{clip-path:url(#SVGID_2_);}
	.st3{fill:none;stroke:#FF8300;stroke-width:5;stroke-miterlimit:10;}
	.st4{fill:none;stroke:#FF8300;stroke-width:2.5;stroke-linecap:round;stroke-linejoin:round;stroke-dasharray:7.85,7.85;}
	.st5{fill:none;stroke:#FF8300;stroke-width:2.5;stroke-linecap:round;stroke-linejoin:round;}
	.st6{fill:none;stroke:#FF8300;stroke-width:2.5;stroke-linecap:round;stroke-linejoin:round;stroke-dasharray:6.12,6.12;}
	.st7{fill:none;stroke:#FF8300;stroke-width:2.5;stroke-linecap:round;stroke-linejoin:round;stroke-dasharray:4.23,4.23;}
	.st8{fill:none;stroke:#FF8300;stroke-width:2.5;stroke-linecap:round;stroke-linejoin:round;stroke-dasharray:8.49,8.49;}
	.st9{fill:none;stroke:#FF8300;stroke-width:2.5;stroke-linecap:round;stroke-linejoin:round;stroke-dasharray:8.56,8.56;}
	.st10{fill:none;stroke:#FF8300;stroke-width:2.5;stroke-linecap:round;stroke-linejoin:round;stroke-dasharray:9.1,9.1;}
	.st11{fill:none;stroke:#FF8300;stroke-width:2.5;stroke-linecap:round;stroke-linejoin:round;stroke-dasharray:6.96,6.96;}
	.st12{fill:none;stroke:#FF8300;stroke-width:2.5;stroke-linecap:round;stroke-linejoin:round;stroke-dasharray:8.68,8.68;}
	.st13{fill:none;stroke:#FF8300;stroke-width:2.5;stroke-linecap:round;stroke-linejoin:round;stroke-dasharray:7.77,7.77;}
	.st14{fill:none;stroke:#FF8300;stroke-width:2.5;stroke-linecap:round;stroke-linejoin:round;stroke-dasharray:8.59,8.59;}
	.st15{fill:none;stroke:#FF8300;stroke-width:2.5;stroke-linecap:round;stroke-linejoin:round;stroke-dasharray:7.75,7.75;}
	.st16{fill:none;stroke:#FF8300;stroke-width:2.5;stroke-linecap:round;stroke-linejoin:round;stroke-dasharray:9.49,9.49;}
	.st17{fill:none;stroke:#FF8300;stroke-width:2.5;stroke-linecap:round;stroke-linejoin:round;stroke-dasharray:7.27,7.27;}
	.st18{fill:none;stroke:#FF8300;stroke-width:2.5;stroke-linecap:round;stroke-linejoin:round;stroke-dasharray:8.02,8.02;}
	.st19{fill:none;stroke:#FF8300;stroke-width:2.5;stroke-linecap:round;stroke-linejoin:round;stroke-dasharray:9.66,9.66;}
	.st20{fill:none;stroke:#FF8300;stroke-width:2.5;stroke-linecap:round;stroke-linejoin:round;stroke-dasharray:5.47,5.47;}
	.st21{fill:none;stroke:#FF8300;stroke-width:2.5;stroke-linecap:round;stroke-linejoin:round;stroke-dasharray:10.15,10.15;}
	.st22{fill:none;stroke:#FF8300;stroke-width:2.5;stroke-linecap:round;stroke-linejoin:round;stroke-dasharray:8.33,8.33;}
	.st23{fill:none;stroke:#FF8300;stroke-width:2.5;stroke-linecap:round;stroke-linejoin:round;stroke-dasharray:5.44,5.44;}
	.st24{fill:none;stroke:#FF8300;stroke-width:2.5;stroke-linecap:round;stroke-linejoin:round;stroke-dasharray:4.82,4.82;}
	.st25{fill:none;stroke:#FF8300;stroke-width:2.5;stroke-linecap:round;stroke-linejoin:round;stroke-dasharray:5.18,5.18;}
	.st26{fill:none;stroke:#FF8300;stroke-width:2.5;stroke-linecap:round;stroke-linejoin:round;stroke-dasharray:4.28,4.28;}
	.st27{fill:none;stroke:#FF8300;stroke-width:2.5;stroke-linecap:round;stroke-linejoin:round;stroke-dasharray:6.28,6.28;}
	.st28{fill:none;stroke:#FF8300;stroke-width:2.5;stroke-linecap:round;stroke-linejoin:round;stroke-dasharray:6.92,6.92;}
	.st29{fill:none;stroke:#FF8300;stroke-width:2.5;stroke-linecap:round;stroke-linejoin:round;stroke-dasharray:8.32,8.32;}
	.st30{fill:none;stroke:#FF8300;stroke-width:2.5;stroke-linecap:round;stroke-linejoin:round;stroke-dasharray:4.32,4.32;}
	.st31{fill:none;stroke:#FF8300;stroke-width:2.5;stroke-linecap:round;stroke-linejoin:round;stroke-dasharray:6.8,6.8;}
	.st32{fill:none;stroke:#FF8300;stroke-width:2.5;stroke-linecap:round;stroke-linejoin:round;stroke-dasharray:7.35,7.35;}
	.st33{fill:none;stroke:#FF8300;stroke-width:2.5;stroke-linecap:round;stroke-linejoin:round;stroke-dasharray:7.58,7.58;}
	.st34{fill:none;stroke:#FF8300;stroke-width:2.5;stroke-linecap:round;stroke-linejoin:round;stroke-dasharray:7.84,7.84;}
	.st35{fill:none;stroke:#FF8300;stroke-width:2.5;stroke-linecap:round;stroke-linejoin:round;stroke-dasharray:7.83,7.83;}
	.st36{fill:none;stroke:#FF8300;stroke-width:2.5;stroke-linecap:round;stroke-linejoin:round;stroke-dasharray:6.62,6.62;}
	.st37{fill:none;stroke:#FF8300;stroke-width:2.5;stroke-linecap:round;stroke-linejoin:round;stroke-dasharray:8;}
	.st38{fill:none;stroke:#F08219;stroke-width:2.5;stroke-linecap:round;stroke-linejoin:round;stroke-dasharray:8;}
	.st39{display:none;}
	.st40{display:inline;}
</style>
<g class="st0">
	<path class="st1" d="M2547,2029.2l137-41.4c0,0,0,0,0.2,0c1.8-0.6,2.6-2.4,2-4c-0.6-1.8-2.4-2.6-4-2l-137,41.4
		c-1.4,0.4-2.2,1.6-2.2,3c0,1.8,1.4,3.2,3.2,3.2C2546.4,2029.4,2546.8,2029.4,2547,2029.2z"/>
	<polygon class="st1" points="2102,1724.8 2096.6,1700.8 2094.6,1693 2092,1691.6 2088.6,1691.6 2086,1692.8 2084.6,1698.2 
		2083.4,1703.4 1986.8,1723.8 1990.8,1747.6 	"/>
	<path class="st1" d="M3840,0L3840,0v1146.4l-0.4-0.6l-25.8-34.4l-2.2-2.2h-2.2l-6.4,2.2l-6.4,2.2h-6.4l-2.2,2.2v9l-4.4,8.2
		l-4.4,2.2h-2.2l-8.6-4.4l-6.4-4.4l-4.4-4.4l-4.4-6.4l-4.4-8.6l-6.4-6.4l-6.4-4.4l-6.4-2.2l-10.8-6.4l-8.6-2.2h-15l-4.4,2.2h-6.4
		l-6.4-2.2l-8.6-2.2l-6.4-4.4l-4.4-2.2l-4.4-4.4l-4.4-2.2l-4.4-2.2l-8.6-6.4l-2.2-4.4l-2.2-4.4l-4.4-2.2h-13l-6.4-2.2l-6.4-2.2h-4.4
		l-6.4,4.4l-2.2,2.2h-2.2l-4.4-4.4l-6.4-2.2l-4.4-8.6l-6.4-6.4l-6.4-2.2l-10.8-4.4l-4.4-2.2l-4.4-6.4l-2.2-4.2l-4.4-2.2h-8.6
		l-2.2-2.2l-2.2-4.4l-6.4-4.4l-4.4-2.2l-4.4-8.6l-4.4-6.4l-2.2-6.4l-6.4-8.6l-4.4-2.2v-3.2l4.4-3.2l2.2-8.6v-4.4l-4.4-8.6l-4.4-2.2
		l-2.2-6.4v-7.8l2.2-5l6.4-4.2l8.6-4.4l4.4-6.4V891l-2.2-6.4l-2.2-6.4l-2.2-6.4l-2.2-4.4V863l2.2-2.2h4.4l4.4-6.4l4.4-8.6l-2.2-4.4
		l2.2-6.4h-6.4l-2.2-2.2v-2.2l6.4-4.4l6.4-4.4l0.8-1.6l-7.4-2.8l-4.4-2.2l-2.2-2.2v-4.4l-2.2-2.2v-4.2l-2.2-2.2l-4.4-4.2l-2.2-4.2
		l0,0l-2.2-2.2l2.2-6.4l4.4-4.4l4.4-2.2l6.4-4.4l4.4-4.4l2.2-2.2l3.8-3.2l-2.6-8v-8l-8-8l-5.2-8l-10.6-15.8l-13.2-10.6l-10.6-8v-5.2
		l-5.2-2.6v-3.2l5.2-4.6h-9.2l-6.6-5.2l-8-8l-5.2-10.6l-2.6-8l-10.6-5.2l-15.8-8l-13.2-5.2l-5.2-2.6l-8-13.2l-5.2-8l-10.6-8l-8,2.6
		l-2.6-2.6l5.2-5.2v-10.6l2.6-8l5.2-5.2l-2.6-2.6l-5.2-2.6l-2.6-5.2v-2.6l-10.6-2.6l-10.6-5.2l-8-5.2l-2.6-10.6v-8.2l8-7.6l2.6-5.2
		l-10.6-10.2h-4.2l-6.4,2.4l-4,1.2l-2.2-3.4l8.8-5.6v-5.2l-8.8,2.4l-9.8,0.4L3284,483l-18.6-15.8l-2.6-2.6l-8,2.6l-10.6-8l-2.6,5.2
		h-2.6l-8-5.2l-8-8l-8-5.4l-8-10.6h-105l-16.4,2.6l-29,5.2l-21.2,8l-13.2,8c0,0-15.8,10.6-18.4,13.2L2988,488l-21.2,23.8l-23.8,26.4
		l-23.8,29L2906,583l-15.8,10.6l-10.6,10.6l-23.6,21.2l-10.6,13.2l-10.6,5.6l-10.8,4.2l-10.8,4.4l-2.2,2.2h-0.2l1.4,5l2.2,10.8v10.8
		l-5.8,10.8l-5.2,8l-6.2,2.8h-4.4l-4.4,2.2v17.2l4.4,4.4l6.4,4.2v2.2l-4.4,2.2l-2.2,6.4l-4.4,10.8l-6.4,10.8l-4.4,6.4H2758l-2.2-2.2
		l-2.2-4.4v-10.8l-2.2-4.2h-4.4v4.4l-2.4,8.4l-1,8l0.4,0.2l-1.6,12.8l2.6,21.2l8,10.6l2.2,1l-0.2,0.4l15.8,6.8l21.2,10.6l21.2,13.2
		l7,11.8l0.6-0.2l0.8,1.2l8,8l5.2,8v18.4l-2.6,15.8l-10.6,15.8l-15.8,10.6l-13.2,5.2l-8,5.2l-5.2,5.2l-10.6,5.2l-13.2,5.2l-8-2.6h-8
		l-8,5.2l-10.6,8l-8,5.4l-10.6,5.2l-8,13.2l-8,13.2v16.8l-1.2,12l0,0l-1.4,16v73l5.2,16.8l10.6,18.4l13,10.6l10.4,14.8l8.2,17v10.6
		l2.6,5.2l8,8l15.8,2.6l15,6.2l17.2,8.6l15,8.6l8.6,8.6l5,6.4l0,0l3.6,4.4l2.2,6.4l6.4,6.4l2.2,6.4l1.2,4.8v4.4l-10.6,10.6l-8,18.6
		l-2.2,24.2l-10.8,13l-2.2,15l4.4,10.8l6.4,10.8v10.8l-2.2,8.6l-4.4,4.4l-2,1.2l-6-0.6l-7.4-5.6l-10.6-5.2l-5.2-2.6l-1-1l0.6-1
		l-3.4-3.4l-5.2-10.6l-2.6-5.2h-5.2l-8-2.6l-8-5.2l-2.6-8v-11l-5.2-5.2l-10.6-5.2l-8-8l-5.2-5.2l-8-5.2l-10.6-2.6c0,0-8-2.6-8-5.2
		c-0.4-2.8-1.4-5.4-2.6-8v-9.8l-8-8.6l-5.2-8l-8-5.2l-5.2-8l-8-5.2l-8-2.6l-10.6-2.6l-13.2-5.2l-19,15c0,0-10.6-2.6-13.2-5.2
		c-3.4-2.8-6.8-5.6-10.6-8l-5.2-10.6l-2.6-2.6h-8l-5.2,2.6l-5.2,5.2l-13.2,5.2l-12.8-20.4l-23.8,5.2l-8,2.6l-5.2,2.6l-2.6,8v4.4
		l-5.2,3.6l-8,5.2l-8,5.2l-5.2,5.2l-5.2,8l-8,5.2l-10.6,13.2l-8,8l-5.2,13.2l-5.4,18.4l-5.2,21.2l-2.6,18.6l-5.2,26.4l-10.6,15.8
		l-5.2,8l-8,2.6l-8-5.2l-8-2.6l-5.2,5.2l-5.2,23.8l-8,26.4l-5.2,18.4l-8,18.6l-5.2,13.2l-5.2,18.4l-5.2,21l-2.6,18.6l-2.6,10.6
		l5.2,15.8l5.2,8v16.2l-5.2,13.2l-10.6,15.8l-13.2,13.2H2273l-5.2-8v-6.2l-10.6-9.6l-2.6-8l-5.2-13.2l-5.2-8h-18.4l-8,2.6h-34.4
		l-10.6,5.2l-13.2,2.6l-10.6,10.6l-2.6,10.6l-10.6,5.2l-2.6,10.6l-5.2,8h-5.2l-5.2-5.2v-7.2l-2.6-11.4l-2.6-8V1659l-2.6-5.6
		l-2.6-10.6l-5.2-10.6l-2.6-5.2l-2.6-10.6l-2.6-18.4l5.2-10.6v-23.8l-2.6-10.6l-5.2-10.6l-5.2-10.6v-11l-36.8,7.6l1.6,12l4.4,17.2
		l6,13.4l-5.4,1.4v6.6l-62.6,12.2c-2.4,0.6-4,2.6-4,5c0,2.8,2.2,5.2,5.2,5.2c0.4,0,0.8,0,1-0.2l76.4-16.8l4,26.8
		c-8.2,1.6-62,13.2-62,13.2c-1.2,0.4-2.2,1.4-2.2,2.8c-0.2,1.6,1.2,3.2,2.8,3.2c0.2,0,0.4,0,0.6,0c0,0,54-9.6,62.2-11.2l4,16l-8,2.6
		v5.4l-40.4,8.2c-1.2,0.4-2.2,1.4-2.2,2.8c-0.2,1.6,1.2,3.2,2.8,3.2h0.6l50-10.2l5.4,26.8l6.6,26.8l5.4,24l4,18.8l-5.4,5.4l0,0
		l-2.4,5.4l-11.6,14.2l0,0c-1,1.2-0.8,2.8,0.4,3.8c0.4,0.4,1,0.6,1.6,0.6c0.8,0,1.6-0.4,2-1l12-14.6l0.6-0.4l10.8,12l-11,15.4l0,0
		c-0.8,1.2-0.6,2.8,0.6,3.8c0.4,0.4,1,0.4,1.6,0.4c0.8,0,1.6-0.4,2.2-1.2l10.4-14.6l0.2,0.2h5.4l0,0l8.2,1l5.2,16.2l24-2.6l18.8-1.4
		l1-2l56.6-4.6l13.4,10.6l49.4-4l29.4-36l6.6-6.6l0.6-2.6l4.6-6.4l11-31.2l2.6-4l6.6-8l3.6-5l111.2-99l33.4,1.6l9.2,3l15.4-6.2v38.8
		l-17.4,10.6l9.6,12.8l22.6-14.2l0.4-31.4V1575v-1.8l23.8,0.2l12,26.8l136.4-61.6l9.4-4l4,6.6l1.4,4l5.4,10.6l6.6-4l-5.4-10.6
		l-1.4-4l-1.4-6.6l8-4.2l10.6-4.6l2.8,4.8l17.4-8l-2.6-5.4l10.6-4l7-16l5.4,4.6l11.6,0.8l45.4-32l-4-14.8l-5.4-18.8l14.8-67.6
		l4.6-21.2h-0.2h0.2l12.8-59.6l-4-4l-37.4-31.2l0,0v-0.2l-21.6-19l0.2-6h13.2v-12H2816l0.6-3.2l4.8-121.2l5.4,1.2l10.8-4.6l4.6-10.8
		v-9.8l41-89.6h4.8l15.4,7.2l2.8-6l-14.6-6.8l-3.6-4.2l34-74.4l21.8-11.4l486,470.6l19.2,24.8l28.6,28.6h10.6l48.8,49.8h10
		l45.4-47.8v-9.6l-57.8-60l-0.2-3.4l3-28.8l-3-9l-61.2-60.4l-14.6,14.6l-8-1.4l-12.8-6.8l-7.2-5.4l-103.8-96l-9.6-5.8l-247.6-240.4
		l1.4-6.6l18.8-53.4l8,2.6l187.8,180.2l-0.8-0.8l-43.6,44.4l10.6,10.4l43.4-44.6l106.2,102l73.6-77.6l24,22.8l62.8,66.8l41.4,48.2
		l42.2,51.8l13.8,19l0.4,0.4l5-4.6l4,6.6l1.4,2.6l8.8,10.2l-5.2,3.6l2.6,3.6l4.8-3.4l7.4,14.4l-11.8,9l1.2,1.6l-40.6,29
		c-1.2,0.8-1.4,2.6-0.6,3.8c0.8,1.2,2.6,1.4,3.8,0.6l40.8-29.2l1.2,1.6l12.2-9.2l0.4,0.4l27.8,40.4l2.2,3.2c-0.8,0-1.4,0.4-2,1
		c-0.8,1-1.2,2.2-0.8,3.6l-12.8,12.8l4.6,4.6l12.8-12.8c1.2,0.4,2.6,0,3.6-1c0,0,0.2-0.2,0.2-0.4l2.8,4l22,17.6l10.8,1.8l0.6,0.6
		l-0.6-0.6l-10.6,9.4l66.8,81.6l8,9.4l10.4,5.6v552.4h-3.8l-0.4,0.2l-13.4-12.2l0.8-1.4v-4.8l13.6-13.6l-7-7l-14.2,14.2h-4.4
		l-1.8,0.8L3796,1995l0,0l-54.4-54.8l-78.8-36.8l-45.4-8.8v1.4l-14.8-2l-65.2-12l-108.6-51l-14.4-8.4l-13.6-6l-7.2-0.4l-14-4.4
		l-8-5.4l-14.6-10.6l-14.4-8.6L3317,1777l-25.4-8l-23-10.6l-22.6-8l-17.4-2.6l-38.8-4l-9.4-4l-9-1v-4.8h-13.8v5.6l-21.4,5.4
		l-30.8,10.6l-8.2,1.8l-1.2-6.4c1.2-1.2,1.8-3,1.6-4.6c-0.4-1.6-1.6-3-3-3.6l-3-17l-7.8,1.4l3,17c-0.4,0.4-0.8,1-1,1.6
		c-1,2.4,0,5.4,2.6,6.4l1.2,6.6l-24.6,5.2l0.6-4.6l-2.6-5.4l-2.6-14.8l-7.2,1.6l3.2,14.8v6.4l2.4,3.2l-3.8,0.8l-44.2,1.4
		c-2.6-1-5.2-2-8-2.6h-6.6l-6.6,1.4l-30.8,9.4l-37.4,9.4l-17.4,6.6l-18.8,9.4l-13.4,9.4l-35.6,30.2l-1-0.4l-1.2-0.4h-2.4l-1.2,0.4
		l-1.6,0.8l-4.2,3.8L2787,1880l-3.8,3.4l-24,25.2l-47.4,55.6l14,9.4l0,0l-37.2-25.2c-0.2,0-0.2-0.2-0.4-0.2c-1.6-1-3.6-0.4-4.6,1.2
		s-0.4,3.6,1.2,4.6l37.4,25.2v5.6l2,9.6l2,13.4l2,5.8l5.8,3.8l0.2,9.4l-1.4,8l-5.4,10.6l-5.4,6.6l-4,4l-18.6,7l-44,9.6l-11.4,2
		l-15.4,3.8l-13.4,7.6l-11.4,9.6l-5.8,9.6l-38,26.8l-9,1.4l-0.8-7.2V2114l6-31.8l6-25.8l-3-6l-7.6-1.6l-6.4,3.2h-6.8l-9.2-21.4
		c-0.8-1.6-2.6-2.4-4.2-1.8s-2.4,2.6-1.8,4.2l8,18.6h-2.4l-15.2,3l-5.2,8.8l-8.6-1.8c-1.8-0.4-3.4,0.8-3.8,2.6s0.8,3.4,2.6,3.8
		l6.6,1.4v41.6l-42.8,19.4l-6-22.8v-3l28.8-25.8l1.6-6l-3-3l-7.6,1.6l-32,27.2l0.2-0.4l1.2-1.6l-40.6,6.2l-14,2l-9.6,1.6l-6.2,0.8
		l-12.8,2l-10.4,1.2l-4.6,0.8l-1.6-2l-2.4-20.6l-0.4-0.4v-0.4h-0.8l-6.2,0.4l-0.4,0.4h-0.4v0.4h-0.4v0.4l2.4,20.2v0.8l-0.8,0.8
		l-0.4,0.8v0.4l-32,3.4l-2.8,0.4h-7.8l-1.2-0.4l-1.2-0.8l-1.2-0.8l-1.6-0.8l-0.8-1.2l-0.8-0.8l-0.8-1.2l-0.8-1.2l-0.8-1.6l-0.4-1.2
		l-1.2-17.4v-2.8l2,0.4v0.8l1.6,0.8l0.4-2.4l-1.6-0.4v0.4h-0.8l1.2-4.6l0.8,0.4v0.4l1.6,0.4l0.4-2l-1.6-0.4l-0.4,0.8l-0.4-0.4
		l3.2-10.8v-1.6l-0.4-0.4l-0.4-0.4l3.2-0.8l-5.8-22.4l-0.4-0.8v-0.4l-0.4-0.8l-0.4-0.4l-0.8-0.8l-0.8-0.4h-0.8l-0.8-0.4h-0.8
		l-0.8,0.4l-0.8,0.4l-0.8,0.4l-0.4,0.8l-0.8,0.8l-0.4,0.8v2l3.2,10.8H2260l-1.2-0.8l-1.2-0.4l-1.6-0.8l-1.6-0.8l-2.4-0.8l-2.8-0.8
		l-3.8-0.8l-2.6-0.4h-6.2l-2,0.4l-2.4,0.4l-2,0.4l-2.4,0.8l-2.4,1.2l-2.4,1.2l-2.8,1.6l-2.6,1.6l-0.4,0.4l-5.8,5.8l-0.4,0.4
		l-0.4,0.4v2l0.4,0.8l0.4,0.4l0.4,0.4l0.4,0.4h0.4l-5.4,17l-2.6,2.4l-2.8,2.4l-2.4,2.8l-1.2,1.2l-1.2,2l-0.8,2l-1.6,2.8l-0.4,1.6
		l-1.6,2.4l-0.4,1.2l-2,3.2l-1.6,2.4l-3.2,3.8l-2.4,2.8l-3,2l-4.2,2l-3.4,1.6l-5,1.6l-5.8,1.2h-4.2l-4.6-0.4l-7.8-1.2l-14-3.4
		l-15-4.2h-1.2l-12-0.8h-7.4l-4.6-1.6l-3-1.6l-3-1.6l-3-1.6l-4.6-3l-3.4-2l-3.4-0.4l-2.8-0.4l-5.8-0.4l-3.8-0.4l-2.6-0.4l-7-0.8
		l-9.6-2l-11.6-2.4l-3.4,2l-9.2-3.8l-4.6-1.6l-4.2-1.6l-9.2-3.8l-3.4-1.2l-3-1.6l-8.2-3.2l-40.2-16.2l-0.8-3.4h-0.4l-6.2-3.8
		l-5.8-3.8l-5.4-15.4l18.6-6.2l0.8-0.4l0.4-0.4l0.4-0.4l0.4-0.4v-0.4l0.4-0.4v-0.8l-0.4-0.4v-0.4l-0.4-0.4v-0.4l-0.4-0.4h-0.4
		l-0.4-0.4h-1.6l-19,6.6l-6.6-18.2l19-6.6h0.8l0.4-0.4l0.4-0.8l0.4-0.8v-1.2l-0.4-0.4l-0.4-0.8l-0.4-0.4h-0.4l-0.8-0.4h-1.2l-19,6.6
		l-4.6-12l8.2-19.4l-7.8-3l-8.2,19.4l-2.8,1.6l-13.2-5.8l-2.6-1.2l0.4-0.4l-0.8-2.4l7.8-18.8v-0.8l-0.4-0.4l-6.2-2.6h-0.4l-0.4,0.4
		l-0.4,0.4l-7.8,19l-2,1.2l-0.4,0.4l-15.8-6.6l0.4-0.4l-1.2-2l7.4-19.8v-0.8h-0.4l-0.4-0.4l-5.8-2h-1v0.4l-7.4,19.8l-1.6,0.8
		l-0.4,0.8l-17-5.8l0.4-0.8l-1.2-1.6l6.2-20.2v-0.8l-0.4-0.4l-5.8-1.6l-0.8-0.4l-0.4,0.4h-0.4v0.4l-6.2,20.2l-2,0.8l-17-5l-1.2-2
		l5.4-20v-0.4h-0.4v-0.4h-0.4l-6.2-2h-0.2v0.4h-0.4l-0.4,0.4l-5,20.2l-2,1.2l-17.4-4.2l-1.2-1.2l5.8-21.2l-0.8-0.8l-6.6-2l-1.2,0.8
		l-5.4,20.6l-1.4,1l-16.8-4.2l-1.2-2h-0.4l5.8-21.2l-7.8-2l-5.8,21.2l-2,0.8l-6.2-1.6l-2-3.4l-9.6-2.8l5.4-19.6l-3-0.8l-42.6,44
		l-6.2,6.2l-2.2,1.8l-4.8-8.2l-10.6-9.2h-15l-23.2-6.2l3.6-13.8l1.2-0.8l8.2,2.4l0.4-1.2h0.4l0.8-2.4l0.8,0.4l-0.4,2.4l5.8,1.6
		l3.8-2.4l1.2-3.8l-2.4-4.2l-5.8-1.6l-0.8,2.8l-1.2-0.4l0.8-2.4l-0.4-0.4l0.4-1.2l-8.6-2.4l-0.4-0.8l3.8-14.6l0.8-0.4l6.6,2l0.8-3
		l1.2,0.4l-0.8,2.8l2,0.8l0.8-2.6h1.6l-0.8,3l4.2,1.2l4.2-2.4l1.4-3.8l-0.8-1.2l-20.6-5.8l-43.4-11.6l-1.2,0.8l-1,3.8l2.2,4
		l27.8,7.4l0.4-2.6h1.2l-0.8,3l2.4,0.4l0.8-2.8l1.2,0.4l-0.8,2.6l6.6,2l0.4,0.8l-3.8,14.4l-0.8,0.8l-31.4-8.6l-0.4,1.2l-0.8,2.4
		h-1.2l0.4-2.6l-5.4-1.6h-0.4l-4.2,2.4l-0.8,3.8l2.6,4.2l5.4,1.6l0.8-2.6l1.2,0.4l-0.4,2.6v1.2l8.2,2l0.8,1.2l-3.8,14.2l3.6,1l4-14
		l0.8-0.8l17.4,4.6l0.8,1.2l-3.8,14.2l-47.6-12.6l-19.8-24.2l-6-7.6l-139-35.2l-149.2-5.8l-15.4,3.8l-31.6,8.8l3.2-0.8l-3-10.6
		l-6.2,1.8l3,10.6l-48.8,13.6l-3-10.4l-7.4,2l3,10.6l1-0.2l-24,6.6l-3.4-12.4l-7.4,2l3.4,12.6l0.8-0.2l-20.2,5.6l-3.8-13.4l-7.4,2
		l3.8,13.4l3.4-0.8l-27.6,7.6h-11.4l-65-11.4l-2,11.4l84.2,15.4l3.8,13.4l1.6,10.8l-69.8-11l-83.2,79.4l-39,37.2L857,2082v2.4
		l-36.8,7.2l-27.8,5l0,0l-23.8,4.4l-73.8,27.8l-5-14.6l33.6-24.2l-6.4-10.4l-42.6,31l8.6,22.6l0,0l-52.4,19.6l-21.2,8.4h23.4h18.6
		l17.8-5.2h18.6l6.4-4.4l4.4-4.4l2.2-2.2l2.2,2.2l4.4,2.2h6.4l10.8-2.2l4.4-2.2l2.2-4.4l4.4-6.4l2.2-4.4l6.4-4.4l6.4-4.4l6.4-2.2
		l4.4,2.2l3.4,1h6.2l6.4-2.2l8.2-4.4h11.2l0,0l9.8,9.8l8.8,11.2l5.4,2.8l8.2,5.4l8.2,2.8l11,2.8h11l11-2.8l11-2.8l8.2-2.8l8.2-2.8
		l13.6-8.2l8.2-8.2l5.4-8.2l5.4-10.8l2.8-8.2l2.8-8.2l5.4-5.4l5.4-5.4l8.2-5.4l11-5.4l8.2-8.2l5.4-5.4l5.4-2.8l8.2-5.4l2.8-13.6
		l2.8-8.2l5.4-8.2l5.4-8.2v-8.2v-6.6l-2.8-4.4l2.8-8.2l-0.2,0.2l0.2-0.2l5.4-5.4h11l8.2,2.8l11,2.8l16.8,2.4h0.2l0,0l11.2,9.8
		l-0.2,0.2l10.8,8.2l8.2,2.8h29.8l13.6-2.8l8-2.8l10.8-5.4l10.8-5.4l8.2-5.4l8.2-5.4l8.2-2.8l10.8-2.6h16.2l7.8,0.8l8.6,2.2h8.6
		l8.6-2.2l3.4-3l10.8-5.4l2.6-8.2l2.8-8l2.8-2.6l5.4-0.6h19l8.2,0.6l5.2,1.6l2.8,6.6v5.2l5.4,5.4l8.2,2.8h31.2l8.2,2.6h5.4l10.8,2.8
		l4-2l4.2-2.2h4.4l8.6,2.2l2.2,2.2l6.4,6.4l4.4,4.4l6.4,4.2l8.6,2.2h6.4l8.6-4.2l8.6-6.6l8.6-4.2l8,1l8.2,8.2l8.2,5.4l8,8h16.4
		l2.8-5.4l5.4-2.8h5.4l2.8,5.4l8.2,5.4l8.2,5.4l2.6,5.4v8.2l8.2,2.8l8.2,2.6h5.4l5.4-2.6l5.4-2.8h2.8l5.4-2.6l2.6-5.4h8.2l8.2,2.8
		h16.2l10.8,5.4l5.4,2.8h13.6l8.2,2.6l5.4,2.8l2.6,2.6l2.8,2.6l5.4,5.4l8.2,5.4l2.6,8.2v10.8l2.6,5.4l8.2,8.2l2.8,5.4l5.4,5.4
		l5.4,5.4l2.8,5.4l2.6,2.6l5.4,5.4l5.4,8.2l2.8,8.2l5.4,5.4l5.4,8.2l8.2,8.2l5.4,5.4l2.6,5.4l2.8,5.4l1.8,3.6h151.4l0,0h0.2h8.4l0,0
		l0,0h131l0,0h537l0,0h59.8l0,0l0,0h130.4h0.2h31.8h962h64.8l0,0l0,0v-41.2l0,0l0,0v-5.2l0,0V2058v-577.4v-22.8l0,0v-311.4L3840,0
		L3840,0z M2038.2,2160L2038.2,2160L2038.2,2160L2038.2,2160z M2172,2160L2172,2160L2172,2160L2172,2160z M2553,2160l-1-1v-2.8
		l2.6-2.6l2.6-2.6l2.8-2.8l0,0l5.4-2.6l8.2-2.8l0,0l0,0l8.2,2.8l8.2,8.2l1.2,6.4H2553V2160z M2636.4,2117.2L2636.4,2117.2
		L2636.4,2117.2L2636.4,2117.2z M2809.8,2139.8L2809.8,2139.8L2809.8,2139.8L2809.8,2139.8z M2812.6,2155l-0.6-4l-1.8-11.2l0,0
		l-0.8-5v-21.6l-2.6-21.6V2070l-2.8-21.6l-2.6-24.4l-2.6-13.6V1994l2.6-10.8l8.2-8.2l19-24.4l16.2-19l32.4-38l13.6-16.2l10.8-8.2
		l10.8-5.4h10.8l13.6,2.8l10.8,2.6l13.6,2.6l10.8,2.8h29.8l10.8-2.8l13.6-2.6l19-5.4l19-5.4l19-2.6l21.6-2.6h24.4l7.6-2l12.8-6.4
		l15-6.4l17.2-6.4l12.8-4.4l10.8-6.2l0,0l4.2-2.4l8.6-4.2l4.4-1h5.2l32.2,4.4l27.8,8.6l21.4,8.6l17.2,12.8l15,21.2l2.2,5.6l0.6,0.2
		l-0.6,0.2l8.6,22.4l10.8,43l0,0l4.2,12.8l4.4,10.8l8.6,21.4l13,26.8l10.6,16l12.2,14l4.8,1h6.4l8.6-6.4l6.4-6.4l2.2-10.8l2.2-6.4
		l4.4-4.4l6.4-2.2h6.4l6.4,4.4l3,6.4l3.4,6.4l4.4,6.4l8.6,12.8l6.4,12.8l2.2,2.2h2.6l2-2.2l6.4-6.4l8.6-12.8l6.4-6.4l6.4-4.4
		l10.8-6.4l6-2.2h6.8l8.6,2.2l8.6,4.4l10.8,6.4l10.8,6.4l21.4,8.6l24.8,4.4h11.6l8.6,2.2l6.4,4.2l12.8,12.8l15,15l6.4,10.8l4.2,4.4
		l6.4,10.8l4.2,4.4l8.6,10.8l10.8,15l1.4,2.4h0.2l0,0l7.2,12.6l5.4,5.4L2812.6,2155z M3840,2090l-16.2-16.2l16.2-15.8V2090z"/>
	<polygon class="st1" points="1189.4,1876.6 1186.4,1865.6 1180.2,1867.4 1183.2,1878.4 	"/>
	<path class="st1" d="M2959.4,1236.4c-1,0.6-1.4,1.8-0.8,2.8c0.4,0.6,1,1,1.8,1c0.4,0,0.6,0,1-0.2l140.4-73.6l0,0l0,0
		c1-0.6,1.4-1.8,0.8-2.8l0,0c-0.6-1-1.8-1.4-2.8-0.8L2959.4,1236.4L2959.4,1236.4z"/>
	<path class="st1" d="M2905.2,1093.4L2905.2,1093.4c-0.6-1-1.8-1.2-2.8-0.6l0,0c-1,0.6-1.2,1.8-0.6,2.8l57.4,88.2c0.4,0.6,1,1,1.6,1
		c0.4,0,0.8-0.2,1-0.4c1-0.6,1.2-1.8,0.6-2.8L2905.2,1093.4z"/>
	<path class="st1" d="M3627,1391.8c3.8,0.2,7.4-0.6,10.6-2.2c8-5.4,30-22.2,30.8-22.8l0.2-0.2c1.2-1,1.2-2.6,0.2-3.8
		c-1-1.2-2.6-1.2-3.8-0.2c-0.2,0.2-22.8,17.4-30.6,22.6c-5,3.4-23.4,0-33.8-3c-1.4-0.4-3,0.4-3.4,1.8s0.4,2.8,1.8,3.4
		C3601.6,1387.8,3616,1391.8,3627,1391.8z"/>
</g>
<g>
	<g>
		<defs>
			<rect id="SVGID_1_" width="3840" height="2160"/>
		</defs>
		<clipPath id="SVGID_2_">
			<use xlink:href="#SVGID_1_"  style="overflow:visible;"/>
		</clipPath>
		<g class="st2">
			<path id="Pre1900_Kln" class="st3" d="M465.2-308.8l0.8,1.8l8.6,15l4.2,6.4l4.2,6.4l2.2,6.4l2.2,8.6l2.2,4.4l2.2,6.4l2.2,2.2
				l6.4,2.2l4.2,4.4l2.2,4.4l4.2,4.4l4.4,2.2h6.4l2.2-2.2l6.4-4.4h8.6l13-2.2l13-10.8l6.4-15l6.4-13l4.2-19.4l6.4-13l12.8-6.6
				l13.4-9.2h7.8l6.8-2l6.2-4.2h17.4l7.8,2l5.8,1l6.8,1l6.4,2h4.6l5.8,2.2l6.2,2.2l4.2,2l6.2,4.2l6.4,4.2l4.2,4.2l4.2,4.2l4.2,4.2
				l4.2,2h7.6l0.8-2h2l3.2,2l3.2-2l2-2.2l2.2-2.2v-6l-2.2-2.4v-4.2l2.2-2.2l2-2V-334l-2-2l-2.2-2.2l-2-2.2l-2-2.2l-2-4.2v-4.2l2-4.2
				l2-4.2l2-2l4.2-4.2l4.2-4.2l4.2-2h4l4.4-2.2l2.2-4.2v-4.2l2-4.2l4.2-4.2l4.2-4.2l4.2-2.2l4.2-2.2l4.2-2h3.8l4.8-2.2l4.2-2
				l4.2-4.2l4.2-4.2l2-2.2l2-4.2l4.2-4.2l4.2-2.2H841l6.2,2.2h4.2l6.4,2h12.6l6.4,2.2l6.2,2.2l6.2,4.2l4.2,2.2H906l6.2,2l6.4,4.2
				l6.2,2h6.2l8.4-2l6.2-2.2l4.2-2.2l6.4-8.4l2-6.2l2-8.4l2-6.2l2-6.2l4.2-6.4l4.2-6.2l4.2-6.2l4.2-6.4l4.2-6.2l4.2-6.2l6.2-6.4
				l8.4-6.2c0,0,6.2-6.2,8.4-6.2s4.2-4.2,4.2-4.2v-4.4l-2-8.2l-2-6.4l-2-6.2l-2-6.2l2-6.4l4.2-4.2l4.2-2h8.4v2l-6.2,2l-4.2,2l-2,4.2
				v4.2l2,6.2l2.2,6.2l2,6.4l2.2,6.2v16.8l-2,4.2l-4.2,4.2H1006l-4.2,4.2l-4.2,4.2l-6.2,6.4l-4.2,6.4l-6.2,8.4l-4.2,8.4l-4.2,6.2
				l-2,6.2l-2.2,6.2l-2,6.2l-2,6.2l-4.2,6.4l-4.2,4.2l-4.2,6.2l-4.2,6.4l-2.2,6.2l-2,8.4v29.6l-2,6.2v4.2l2,6.2l2,10.6v10.6
				l-1.4,10.6l-0.6,8.4v14.8l2,4.2l2,6.4H946l-4.8-2.2h-8.4l-2.6,2.2l-3.8,4.2l-4.2,4.2l-6.4,6.4l-4.2,4.2l-4.2,4.2l-4.2,4.2l-4.2,2
				l-4.2,8.4l-4.2,8.4l-4.2,8.4l-4.2,8.4l-4.2,6.4l-4.2,6.4l-2.2,8.4l-6.2,8.4l-6.2,6.4l-6.4,6.4l-4.2,4.2l-6.2,4.2l-6.2,6.4
				l-4.2,4.2l-6.2,2l-6.2,2.2h-5.2l-5.2,2l-2,2.2l2,4.2v10.6l2,4.2l-2,4.2l-2,4.2l-2.2,6.4l-2,6.4l-2,6.4l-4.4,8.4v14.8l-2,8.4
				l-2,8.4v12.6l2,8.4v6.4l2,8.4V5.2l-2,8.4v44.2l2,8.4l2,6.4l2,6.4l2,6.4l4.2,6.4l4.2,6.4l6.4,4.2l6.4,2.2h10.6l4.2,2l4.2,4.2
				l4.2,2l6.2,2l4.2,2.2l4.2,4.2l6.2,4.2l8.6,2.2l6.2,2h8.4l6.4,2.2h4.2l2,2l4.2,4.2l4.2,4.2l4.2,4.2l2,2.2h8.6l1.8,2h17.8l3.2,2
				l4.2,2.2l4.2,2h3.6l4.8,2.2v6.4l1.6,8.4l2,9l2.2,8.6l4.4,4.4l6.4,2.2l2.2,6.4l2.2,4.4l2.2,6.4v6.4l-2.2,6.4v6.4l2.2,4.4l4.2,6.4
				h7.2l5.8,2.2h6l4.8,2.2l6.4,2.2l4.4,6.4l2.2,6.4v6.4l2.2,6.4l2.2,4.2l2.2,4.4l2.2,4.2h4.4l4.4,2.2h8.6l4.4,2.2l2.2,2.2v8.6
				l-2.2,4.2v4.4l2.2,2.2l2.2,2.2h3l3.4-2.2l4.4-2.2h2.2l6.4-2.2l8.6-2.2l6.4-2.2h4.4l4.4-2.2l2.2-4.2l2.2-4.4l2.2-4.2v-10.8
				l2.2-4.2l2.2-4.2l2.2-4.4v-6.4l-2.2-6.6v-2.2l4.4-2.2l2.2-4.4v-13l2.2-4.4l2.2-4.4v-4.4l-2.2-6.4v-8.6l2.2-7.2v-5.8l-4.4-6.6
				v-6.4L1120,169l-2.2-10.8v-8.6l-2.2-8.6l-2.2-8.6l-3.4-4.4l-2.2-4.4l-4.4-4.4l-5.4-0.6h-9.6l-5.8-2l-2.6-2l-2.2-6.4v-45l-2.2-6.4
				v-4.4l2.2-2.2l4.4,6.4l4.4,2.2l4.4,4.4v6.4l2.2,4.4l4.4,2l4.4,2.2l6.4,0.4l4.4-0.4h4.4l4.4,2.2V95l4.4,2.6l6.4,2.2l2.2,6.4
				l2.2,6.4l2.2,8.6l4.4,6.4l4.4,4.2l6.4,2.2h4.4l4.4,4.4l4.4,4.4v3.8l-6.4,5l-2.2,4.4l1.2,4l2.2,6.4v45.2l4.4,6.4l2.2,4.4l4.4,4.4
				l2.2,4.4l2.2,2.2l2.2,2.2l2.2,2.2l2.2,2.2v3.8l2.2,2.6l2.2,2.2l2.2,2.2l6.4,4.4l8.6,2.2l6.4,2.2h8.6l6.4,2.2l6.4,2.2l6.4,4.2h4.4
				l6.4,2.2l4.4,4.2v22l2.2,6l2.2,6.4l2.2,4.4l2.2,4.2l2.2,4.2l2.2,4.4l2.2,4.2l2.2,4.2v4.4l2.2,6.4v4.2l2.2,6.4l2.2,4.4l2.2,4.2
				l2.2,2.2l6.4,4.2l6.4,2.2l6.4,2.2l6.4,2.2h10.8l4.4-2.2l4.4-2.2l4.4-2.2l4.4-2.2l20.2-6.4l16.6-6.6l8.6,2.2l2.2,2.2l5.6,2.4h6.8
				l7-2.4l8.6-4.2l2.2-4.2l2.2-6.4v-2.8l2.2-1.6l2.2,4.4v4l4.4,2.4l6.4-2.2l17.2-6.4l8.6-2.2h4.4l6.4,2.2l2,4.4l2.2,4.4l6.4,4.2
				h23.6l8.6-2.2l10.8-2.2l6.4-4.4l2.2-4.2l2.2-4.2l-2.2-6.4l-6.2-6.4l-13-8.6l-4.4-4.2V309l2.2-2.2h4.4l6.4,4.2l6.4,4.2l6.4,6.4
				l4.4,6.4l2.2,4.4l2.2,8.6v7l2.2,6h6.4l4.4-2.2v-9.6l-2.2-5.6l-4.4-8.6l-4.4-15v-19.4l2.2-2.2l2.2,2.2v4.4l2.2,4.2l2.2,2.2h4.4
				l6.4-4.4l4.4-2.2l2.2,4.2h6.4l6.4-2.2l4.4-2.2h4.4l13-2.2l8.6-4.2l8.6-6.4l4.4-6.4l4.4-6.4l5.8-7.8l13.2,8l8-2.6l5.2,5.2l8,2.6
				l10.4,10.6l10.6,8h5.4l13.2,10.6l13.2,10.6l8,8v7.8l5.2,10.8l8,8h10.4l5.2-5.2h2.8l2.6,8l10.6,5.2l5.2,2.6l8,5.2l8-2.6l2.6,8
				l15.8,8l15.8,15.8l10.6,8l2.6,13.2v12.8l2.6,18.8l8,26.4l10.6,29l13.2,26.4L1891,542h7.4l0.4,15.8l5.2,10.6l-10.6,15.8
				l-10.6,13.2l-13.2-5.2h-13.2l-10.6-5.2h-13.2l-13.2,2.6l-5.6,4.6l2.6,13.2l8,13.2l15.8,10.6l8,5.2l2.6,8l-2.6,5.2l2.6,5.2
				l15.8,15.8l13,13l2.6,5.2l5.4,5.4h5.2l2.6,2.6l5.2,2.8l2.6,8l2.6,10.6l5.2,8l5.4,5.2l2.6,5.2l-5.4,5.2l-2.6,2.6l-5.2,2.6
				l-6.8,1.4l-6.4,1.2l-8,2.6h-5.8l-4.6,5l-5.2,8l-8,26.4l2.8,23.6l-5.2,34.4l2.6,8l5.2,8l8,8l10.6,15.8l10.6,5.2l10.6-10.6
				l10.6-13.2l2.6-13.2l2.6-8l13.2-10.6l5.2-8l2.6-18.4l2.6-18.4l2.6-13.2l5.2-13.2l2.6-10.6v-15.8l2.6-5.4l18.4-2.6l31.6,2.6
				l26.4,5.2l18.6,5.2l16,2.6l10.4,8v37l-2.6,8l2.6,8v10.6l-8,15.8l-5.2,8l-5.2,5.2v8l2.6,8v52.8l2.6,10.6l2.8,6.8v3.4l5.2,11v29
				l5.2,5.2l8,5.2l5.2,2.6l5.2,8v8l2.6,8l2.6,5.2v8l2.6,5.2v8l-2.6,2.6l-5.2,2.6l-5.2,2.6l-2.6,10.6l2.6,2.6v8l8,5.2l2.6,2.6l8,2.6
				l2.6,8l8,10.6l2.6,13.2l5.2,5.2v5.2l-2.6,10.6l-5.2,10.6l-2.6,13.2l5.2,2.6l10.6,10.6l10.6,8v13.2l-5.2,5.2v10.6l-2.6,8v20
				l-2.6,8l-5.2,10.6l-8,8l-10.6,2.6l-8,8l-2.6,8l-5.2,13.2l-5.2,13.2l-8,18.6l-5.2,2.6l-13.2,5.2l-5.2,5.2l-2.6,8l-2.6,7.4v18.6
				l2.6,5.2l5.2,8l10.6,2.6l5.2,2.6l5.2,7.8l2.6,13.4l2.6,10.6l-2.8,15.8l-2.6,14.8v14.2l2.6,15.8l2.6,19.2v25.6l5.2,10.6l5.2,10.6
				l2.6,10.6v23.8l-5.2,10.6l2.6,18.4l2.6,10.6l2.6,5.2l5.2,10.6l2.6,10.6l2.6,5.6v10.2l2.6,8l2.6,11.4v7.2l5.2,5.2h5.2l5.2-8
				l2.6-10.6l10.6-5.2l2.6-10.6l10.6-10.6l13.2-2.6l10.6-5.2h34.4l8-2.6h18.4l5.2,8l5.2,13.2l2.6,8l10.6,9.6v6.2l5.2,8h13.2
				l13.2-13.2l10.6-15.8l5.2-13.2V1640l-5.2-8l-5.2-15.8l2.6-10.6l2.6-18.6l5.2-21l5.2-18.4l5.2-13.2l8-18.6l5.2-18.4l8-26.4
				l5.2-23.8l5.2-5.2l8,2.6l8,5.2l8-2.6l5.2-8l10.6-15.8l5.2-26.4l2.6-18.6l5.2-21.2l5.4-18.4l5.2-13.2l8-8l10.6-13.2l8-5.2l5.2-8
				l5.2-5.2l8-5.2l8-5.2l5.2-3.6v-4.4l2.6-8l5.2-2.6l8-2.6l23.8-5.2l12.8,20.4l13.2-5.2l5.2-5.2l5.2-2.6h8l2.6,2.6l5.2,10.6
				c3.6,2.4,7.2,5.2,10.6,8c2.6,2.6,13.2,5.2,13.2,5.2l19-15l13.2,5.2l10.6,2.6l8,2.6l8,5.2l5.2,8l8,5.2l5.2,8l8,8.6v9.8
				c1.2,2.6,2.2,5.2,2.6,8c0,2.6,8,5.2,8,5.2l10.6,2.6l8,5.2l5.2,5.2l8,8l10.6,5.2l5.2,5.2v10.6l2.6,8l8,5.2l8,2.6h5.2l2.6,5.2
				l5.2,10.6l5.2,5.2l5.2,2.6l10.6,5.2l7.4,5.6l6,0.6l2-1.2l4.4-4.4l2.2-8.6v-10.8l-6.4-10.8l-4.4-10.8l2.2-15l10.8-13l2.2-24.2
				l8-18.6l10.6-10.6v-4.4l-1.2-4.8l-2.2-6.4l-6.4-6.4l-2.2-6.4l-8.6-10.8l-8.6-8.6l-15-8.6l-17.2-8.6l-15-6.2l-15.8-2.6l-8-8
				l-2.6-5.2v-10.6l-8.2-17l-10.4-14.8l-14.6-10.6l-10.6-18.4l-5.2-16.8v-73l2.6-28v-16.8l8-13.2l8-13.2l10.6-5.2l8-5.2l10.6-8
				l8-5.2h8l8,2.6l13.2-5.2l10.6-5.2l5.2-5.2l8-5.2l13.2-5.2l15.8-10.6l10.6-15.8l2.6-15.8v-18.4l-5.2-8l-8-8l-8-13.2l-21.6-13
				l-21.2-10.6l-18.4-8l-8-10.6l-2.6-21.2l2.6-21.2l2.4-8.4v-4h4.4l2.2,4.2V763l2.2,4.2l2.2,2.2h19.4l4.4-6.4l6.4-10.8l4.4-10.8
				l2.2-6.4l4.4-2.2v-2.2l-6.4-4.2l-4.4-4.2V705l4.4-2.2h4.4l6.2-2.8l5.2-8l5.8-10.8v-10.8l-2.2-10.8l-1.4-5l2.2-2.2l10.8-4.2
				l10.8-4.2l10.6-5.6l10.6-13.2l23.8-21.2l10.6-10.6l15.8-10.6l13.2-15.8l23.8-29l23.8-26.4l21.2-23.8L3005,472
				c2.6-2.6,18.4-13.2,18.4-13.2l13.2-8l21.2-8l29-5.2l16.4-2.6h105l8,10.6l8,5.2l8,8l8,5.2h2.6l2.6-5.2l10.6,8l8-2.6l2.6,2.6
				l18.6,15.8l15.8,10.6l9.8-0.4l8.8-2.4v5.2l-8.8,5.6l2.2,3.4l4-1.2l6.4-2.2h4.2l10.6,10.2l-2.6,5.2l-8,7.6v8.2l2.6,10.6l8,5.2
				l10.6,5.2l10.6,2.6v2.6l2.6,5.2l5.2,2.6l2.6,2.6l-5.2,5.2l-2.6,8v10.6l-5.2,5.2l2.6,2.6l8-2.6l10.6,8l5.2,8l8,13.2l5.2,2.6
				l13.2,5.2l15.8,8l10.6,5.2l2.6,8l5.2,10.6l8,8l6.6,5.2h9.2l-5.2,4.6v3.2l5.2,2.6v5.2l10.6,8l13.2,10.6L3502,730l5.2,8l8,8v8
				l2.6,8l-3,4.2l-2.2,2.2l-4.4,4.4l-6.4,4.2l-4.4,2.2l-4.4,4.2l-2.2,6.4l2.2,2.2l2.2,4.2l4.4,4.2l2.2,2.2v4.2l2.2,2.2v3.4l2.2,2.2
				l4.4,2.2l7.4,2.8l-0.8,1.6l-6.4,4.4l-6.4,4.2v2.2l2.2,2.2h6.4l-3,6.4l2.2,4.4l-4.4,8.6l-4.4,6.4h-4.4l-2.2,2.2v4.2l2.2,4.4
				l2.2,6.4l2.2,6.4l2.2,6.4v8.6l-4.4,6.4l-8.6,4.2l-6.4,4.2l-2.2,5v7.8l2.2,6.4l4.4,2.2l4.4,8.6v4.2l-2.2,8.6l-4.4,3.2v3.2l4.4,2.2
				l6.4,8.6l2.2,6.4l4.4,6.4l4.4,8.6l4.4,2.2l6.4,4.2l2.2,4.4l2.2,2.2h8.6l4.4,2.2l2.2,4.2l4.4,6.4l4.4,2.2l10.8,4.4l6.4,2.2
				l6.4,6.4l4.4,8.6l6.4,2.2l4.4,4.4h2.2l2.2-2.2l6.4-4.4h4.4l6.4,2.2l6.4,2.2h13l4.4,2.2l2.2,4.4l2.2,4.4l8.6,6.4l4.4,2.2l4.4,2.2
				l4.4,4.4l4.4,2.2l6.4,4.4l8.6,2.2l6.4,2.2h6.4l4.4-2.2h15l8.6,2.2l10.8,6.4l6.4,2.2l6.4,4.4l6.4,6.4l4.4,8.6l4.4,6.4l4.4,4.4
				l6.4,4.4l8.6,4.4h2.2l4.4-2.2l4.4-8.2v-9l2.2-2.2h6.4l6.4-2.2l6.4-2.2h2.2l2.2,2.2l25.8,34.4l10.8,15l2.2,4.4l6.4,4.4l8.6,4.4
				l6.4,4.4l8.6,6.4l8.6,4.4l4.4,2.2h4.4l6.4-2.2h4.4l8.6,2.2h12.8l4.4-6.4v-13l-2.2-15l2.2-8.6v-4.4l-2.2-17.2v-21.6l2.2-6.4h2.2
				l6.4,10.8l13,15l10.8,10.8l4.4,6.4l8.6,4.4l4.4,6.4v6.4l6.4,4.4l8.6,2.2l8.6,2.2l8.6,4.4l8.6,2.2l4.4-2.2l6.4-4.4h4.4v2.2
				l-2.2,2.2l-8.6,10.8l-8.6,10.8l-13,8.6l-10.8,6.4l-19.4,13l-8.6,8.6l-2.2,13l-4.4,8.6l-8.6,2.2h-10.8l-10.8,2.2l-4.4,2.2
				l-6.4,8.6l-6.4,8.6l-4.4,6.4l2.2,6.4l-2.2,13l-2.2,8.6l-2.2,8.6l-4.4,6.4l-4.4,4.4l2.2,2.2l2.2,4.4l2.2,4.4l-4.4,2.2h-8.6
				l-13,2.2l-9.6,4.4l-5.4,4.4l-6.4,10.6v32.4l10.8,15l4.4,10.2l2.2,13.4l-2.2,8.8v11.2l1.8,6.6l6.8,7l16.8,11.6l9,6.4l11.6,11.6
				l2.6,11.6l1.4,10.4l5.2,15.6l9,14.2l14.2,16.8l13,10.4l18,6.4l16.8,2.6l13,1.4l7.8,7l16.8,2.2l9.4-2.2l7.4-3l9-4.4l9,1.6l5.2,2.2
				l12.2,3.4h7.2l11.6-3l10.4,1.2l7.2,1.8l6,2.2h4.4l6.4,2.2h13.2l10.8-4.4h4.2l13,2.2h8.6l2.2,2.2l-2.2,2.2l-4.2,6.4l-4.2,6.4v4.4
				l-4.2,2.2l-6.4,4.4l-2.2,4.4l2.2,13l4.2,10.8l4.4,10.8l4.2,6.4l2.2,19.4l-4.4,2.2H4175l-8.6,4.4h-6.4l-4.2-2.2l-10.8-4.4h-6.4
				l-8.6,2.2l-10.8,4.4l-2.2,4.4v4.4l2.2,8.6l2.2,15l-2.2,4.4h-4.4l-6.4-4.4l-4.2-2.2l-4.2-4.4l-6.4-2.2l-6.4-4.4l-6.4-2.2h-6.6
				l-4.4,2.2l-2.2,6.4l4,7.6l4,8l2.6,9.4l10.8,11.6l17.2,13l6.4,2.2l8.6,2.2l4.4,2.2l6.4,10.8l-2.2,1v3.2l2.2,2.2l17.2,15l15,10.8
				h8.6l8.6-4.4l8.6-2.2l8.6-6.4l13-2.2l13-6.4l8.6-2.2l8.6-2l6.4-4.4h2.2v6.4l-2.2,4.4l-4.4,10.8l-2.2,8.6l-6.4,19.4l-2.2,10.8
				l-4.2,10.8l-10.8,13l-17.2,23.6l-8.6,13l-4.2,10.8l-4.2,4.4l-6.4,8.6v2.2l-4.4,10.8l-2.2,4.4l2.2,2.2l2.2,2.2l4.2,2.2l6.4,4.4
				l6.4,2.2l4.4,2.2h10.8l15,10.8l6.4,6.4l6.4,4.4l4.2,2.2l4.2,2.2h13l8.6,4.4l2.2,3.6v2.8l4.2,4.4l2.2,2.2h4.2l9.8,3.2l12.2,4.6
				l15.2,1.6h15l13.8,3l11.6,0.6l5.4,2.2h14l4.2-2.2l8.6-2.2l6.4-2.2l2.2-4.4l10.8-21.6l4.2-4.4l19.4-23.6l4.4-8v-13.6l2.2-2.2
				l2.2,2.2l2.2,2.2h4.2l2.2-2.2l4.2-4.4v-6.4l-4.2-4.4l-6.4-5v-5.6l5.8-2.2h5l6.4-4.4h4.4l6.4-2.2l6.4-6.4l2.2-6.4l4.2-2.2l6.4-2.2
				l6.4-2.2l2.2-6.4l2.2-6.4l2.2-4.4l4.4-6.4l4.2-6.4l4.2-4.4l6.6-2l6.4-4.4l4.4-6.4l2.2-6.4v-8.6l2.2-8.6l2.2-6.4h2.2l3.4,2.2h3
				l2.2-4.4l6.4-2.2h6.4l4.2-2.2l15-10.8l6.4-8.6l19.4-21.6v-10.8l3.4-8.6l3-4.4l4.2,2.2l-0.2,2.2h4.4l4.4-4.4l10.8-13l2.2-4.4
				l-2.2-6.4v-17.2l4.2-4.4l4.4-2.2l6.4-2.2l2.2,2.2l2.2,4.4l4.2-2.2l19.4-21.6l2.2-4.4v-4.4l2.2-4.4l2.6-4.4l6-6.4l8.6-4.4h6.4
				l2.2,2.2l2.2,2.2l2.2,4.4l2.2,2l4.2-2.2l6.4-6.4l4.2-17.2l2.2-17.2l2.2-4.4v-4.4l-2.2-4.4l-4.2-8.6l5.2-7h16.8l9.2-27.4v-13.6
				l-3-12.2l-7.6-4.6l-7.6-4.6l0.2-6.2l-2.2-8.6l-2.2-6.4l-6.4-4.4l-6.4-2.2l-6.6-2l-7.4-2.2h-7.8l-8.6-6.4l-8.6-6.4l-10.8-6.4
				l-2.2-6.4l-2.2-10.8l-2.2-13v-4.4l4.2-8.6l2.2-8.6l2.2-2.2l2.2-2.2l4.4-4.4v-4.4l-2.2-2.2l-6.4-2.2h-4.2l-4.4,2.2l-4.2,2.2h-4.2
				l-4.4-2.2l-2.2-2.2h-6.4l-2.2,2.2l-10.8,8.6h-6.4l-4.4,2.2l-7,2.2h-10l-2.2-2.2l-4.4-6.4v-4.4l6.4-17.2l4.2-6.4l10.8-13l6.4-4.4
				l4.2-4.4l2.2-6.4v-4.4l2.2-2.2l4.4-4.4l2.2-4.4l2.2-6.4l4.2-4.4l8.6-6.4l4.6-4.4h12.6l10.8-6.4l13-8.6l15-10.8l10.8-8.6l4.2-8.6
				l4.2-8.6l6.4-4.4l4.4-6.4l6.4-10.8l6.4-6.4l2.2-6.4l2.2-10.8l2.2-10.8l4.2-15l2.2-8.6l4.2-4.4l6.4-8.6l2.2-10.8l4.2-10.8l8.6-6.4
				l2.2-6.4l8.6-13l2.2-8.6l4.2-13l2.2-15l2.2-4.4l6.4-6.4h2.2l3.2,2.2h3.2l2.2-2.2l6.4-8.6v-10.8l-2.2-6.4l-2.2-6.4l-1.2-4.4
				l-3.2-2.2l-2.2,2.2h-6.4l-4.2-2.2l-6.4-6.4v-6.4l-4.2-6.4l-2.2-6.4v-6.4l-2.2-6.4l-4.2-6.4l-4.2-8.6v-4.2l4.2-10.8v-6.4l-4.2-6.4
				l-2.2-4.2v-13l2.2-4.2V930l-4.4-4.2l-2.2-6.4l-2.2-21.6l-2.2-15v-4.2l-2.2-6.4l-2.2-4.4l-2.2-2.2l-2.2-2.2l-2.2-2.2h-4.2
				l-2.2-2.2l-2.2-2.2v-4.2l-2.2-2.2l-4.4-2.2l-8.6-2.2l-4.4-2.2l-10.8-4.2h-4.2l-10.8-4.4h-10.8l-15-4.2l-10.8-4.2l-6.4-8.6
				l-4.2-8.6l-2.2-4.2l-2.2-4.4l-4.2-2.2h-6.4l-6.4,2.2l-6.4,2.2l-4.2,4.2l-2.2,2.2l-4.2,2.2h-2.2l-2.2-2.2l-2.2-2.2l-2.2-2.2v-6.4
				l2.2-6.4l2.2-6.4l2.2-4.4l2.2-4.2l4.2-4.2v-13l-4.2-6.4l-2.2-4.2v-4.2l-2.2-2.2h-6.4l-2.2-2.2l-2.2-1.8v-4.6l2.2-4.2l2.2-4.2
				l4.4-5v-3.6l2.2-2.2l10.8-10.8l4.2-2.2l2.2-2.2l4.2-2.2h4.2l2.2,2.2l2.2,2.2l4.2,2.2l4.2,4.2l4.4,2.2h10.8l4.2-2.2h4.4l2.2-4.2
				l2.2-6.4l2.2-6.4l8.6-2.2h4.4l4.2-4.2l6.4-2.2h6.4l4.2-2.2l4.4-4.2h10.6l4.2-2.2l4.4-2.2h8.6l4.4,2.2l2.2,2.2l12.8,6.4h26
				l6.4,2.2l4.4,2.2l4.2,2.2l2.2,2.2l4.2,6.4l2.2,2.2l2.2,2.2l2.2,2.2l4.2,2.2l6.4,2.2l6.4,2.2h10.8l3.2,1l2.2,2.2l2.2,2.2l2.2,2.2
				l2.2,4.2l2.2,4.2l2.2,6.4l2.2,4.4v6.4l2.2,10.8v2.2l4.2,4.2l2.2,5v5.8l2.2,8.6l2.2,6.4l6.4,13l4.6,7.6l4,5.4l2.2,2.2l30.2,28
				l4.4,4.4l2.2,2.2l2.2,4.4l2.2,3v3.4l2.2,2.2l2.2,2.2v4.2l-1,3v4.6l2.2,4.4l2.2,4.2v34.4l-2.2,4v4.6l4.2,4.2l4.4,6.4l4.2,6.4
				l4.2,6.4l2.2,6.4l4.2,4.2l8.6,2.6v6l6.4,2.2l13,4.2l10.8,4.2l17.2,6.4l18.8-4.8l22-15.6l11.6-23.2l-3.8-27.2l-9-28.4l2-17l11-5.2
				l9,18.4l7.8,24.6l6.4,20.6l29.2,18h13.2"/>
			<path id="Pre1900_HKI" class="st3" d="M992.8,3026l0.2-1l1.4-6l2.2-8.6l2.2-6.4l13-23.8l8.6-23.8l2.2-6.4l-2.2-30v-17.6l-2.2-6.4
				l-4.4-4.6l-2.2-6.2v-6.4l2.2-2v-2.2l-2.2-4.4l-6.6-10.8l-9.8-10.8l-3.2-2.2l-10.8,2.2l-4.4-4.4l-2.2-4.4v-4.4l4.4-10.8l-2.2-4.4
				l-10.8-8.6l-2.2-2.2l2.2-2.2l4.4-2.2v-2.2l2.2-4.4l4.4-4.4v-4.4l-6.4-4.4l-6.4-6.4l-2.2-4.4l-6.4-2.2l-2.2-2.2l-2.2-4.4l-2.2-4.4
				l-6.4-4.4l-4.4-4.4h-4.4l-2.2,4.4l-2.2,3v3.4l-2.2,4.4l-2.2,2.4v10.6l-4.4,2.2H912l-2.2,2.2l-2,4.4v4.4l-2.2,4.4l-4.4,2.2H899
				l-4.4,2.2l-4.4,6.4l-2.2,4.4l-2.2-2.2v-4.4l-4.4-4.2l-6.4-2.2h-8.6l-2.2-2.2l-6.4-2.2l-2.2-2.2l-6.4-2.2l-4.4-4.4l-8.6-2.2
				l-6.4-6.4l-2.2-8.6l-2.2-4.4l-6.4-10.8l-4.4-13v-13l-2.2-2.2l-6.4-6.4l-2.2-4.4l4.4-6.4l2.2-15.2l2.2-10.8l4.4-10.8l-2.2-2.2
				l-2.2-9.6v-7.6l-6.4-14v-9.8l-4.4-2.2l-4.4-4.4l-1-9.2l-3.2-8l-1.8-4.4l-2.6-2.2l-8.6,2.2l-2.2-2.2l-2.2-6.4l-2.2-2.2l-8.6-6.4
				l-6.4-6.4l-2.2-6.4l2.2-4.4l-2.2-4.4l-4.4-2.2l-4.4-2.2v-4.4l2.2-2.2v-2.2l-2.2-2.2l4.4-4.4l4.4-4.4v-6.4l2.2-10.8l4.4-6.4
				l4.4-10.8v-8.6l-4.4-10.8l-6.4-2.2l-8.6-2.2l-4.4-2.2l-2.2,2.2l-6.4,4.4l-10.8,4.4l-6.4,4.4h-6.4l-8.6,2.2l-10.8,2.2l-14.2-2.2
				h-7.4l-6.4-2.2l-4.6-2.2h-4l-4.4-2.2l-4.4-2.2l-6.8-4.4H625l-15.2-8.6l-4.4-6.4l-2.2-2.2l-4.4-2.2l-2.2-4.4l-4.4-8.6l-10.8-17.2
				l-8.6-13l-8.6-8.6l-10.8-6.4l-13-4.4l-8.6-8.6l-6.4-8.6l-2.2-8.6V2355l2.2-32.4l-2.2-8.6l-2.2-13l-2.2-15.2v-6.4l2.2-4.4l6.4-8.6
				l8.6-8.6l4.4-10.8l2.2-15.2l2.2-10.8l2.2-8.6l4.4-6.4l6.4-6.4l17.2-10.8l32.4-15.2l23.8-8.6l37.6-10.8h18.6l6.4-4.4l4.4-4.4
				l2.2-2.2l2.2,2.2l4.4,2.2h6.4l10.8-2.2l4.4-2.2l2.2-4.4l4.4-6.4l2.2-4.4l6.4-4.4l6.4-4.4l6.4-2.2l4.4,2.2l3.4,1h6.2l6.4-2.2
				l8.2-4.4h11.2l9.8,9.8l8.8,11.2l5.4,2.8l8.2,5.4l8.2,2.8l11,2.8h11l11-2.8l11-2.8l8.2-2.8l8.2-2.8l13.6-8.2l8.2-8.2l5.4-8.2
				l5.4-10.8l2.8-8.2l2.8-8.2l5.4-5.4l5.4-5.4l8.2-5.4l11-5.4l8.2-8.2l5.4-5.4l5.4-2.8l8.2-5.4l2.8-13.6l2.8-8.2l5.4-8.2l5.4-8.2
				v-13.6v-1c-1-1.8-2.8-4.4-2.8-4.4l2.8-8.2l5.4-5.4h10.8l8.2,2.8l11,2.8l16.8,2.4l4.6,4.2l3.8,3.8l2.6,1.8l10.8,8.2l8.2,2.8h29.8
				l13.6-2.8l8.2-2.6l10.8-5.4l10.8-5.4l8.2-5.4l8.2-5.4l8.2-2.8l10.8-2.6h16.2l7.8,0.8l8.6,2.2h8.6l8.6-2.2l3.4-3l10.8-5.4l2.6-8.2
				l2.6-8.2l2.8-2.6l5.4-0.6h19l8.2,0.6l5.2,1.6l2.8,6.6v5.4l5.4,5.4l8.2,2.8h32l8.2,2.6h5.4l10.8,2.8l4-2l4.2-2.2h4.4l8.6,2.2
				l2.2,2.2l6.4,6.4l4.4,4.4l6.4,4.2l8.6,2.2h6.6l8.6-4.2l8.6-6.4l8.6-4.2l8,1l8.2,8.2l8.2,5.4l8.2,8.2h16.2l2.8-5.4l5.4-2.8h5.4
				l2.8,5.4l8.2,5.4l8.2,5.4l2.6,5.4v8.2l8.2,2.8l8.2,2.6h5.4l5.4-2.6l5.4-2.8h2.8l5.4-2.6l2.6-5.4h8.2l8.2,2.8h16.2l10.8,5.4
				l5.4,2.8h13.6l8.2,2.6l5.4,2.8l2.6,2.6l2.8,2.6l5.4,5.4l8.2,5.4l2.6,8.2v10.8l2.6,5.4l8.2,8.2l2.8,5.4l5.4,5.4l5.4,5.4l2.8,5.4
				l2.6,2.6l5.4,5.4l5.4,8.2l2.8,8.2l5.4,5.4l5.4,8.2l8.2,8.2l5.4,5.4l2.6,5.4l2.8,5.4l2.6,5.4l8.2,5.4l5.4,10.8l5.4,5.4h8.2
				l8.2,2.6h8.2l5.4,2.8l5.4-2.8h19l5.4-2.6l13.6-2.6l13.6,2.6l13.6,2.6l16.2,5.4l13.6,5.4l13.6,5.4l8.2,5.4l10.8,8.2l10.8,8.2
				l10.8,8.2l2.8,5.4v10.8l2.6,2.6h2.4l3-2.8l2.6-2.6l8.2-2.8h19l5.4-2.6l5.4-2.6l5.4-5.4l8.2-5.4h2.6l2.8,2.8l2.6,2.6l5.4,5.4
				l2.8,2.6l5.4,5.4v3.4l-8.2,7.4l-5.4,5.4l-5.4,8.2l2.8,5.4h10.4l11.2,2.6l8.2,5.4l5.4,2.8l5.4,2.6l8.2,5.4l5.4,2.6l5.4,5.4
				l2.6,2.6l10.8,8.2l8.2,5.4l8.2,5.4l8.2,5.4l5.4,5.4l5.4,2.8h13.6l8.2-2.8h5.4l8.2,2.8l8.2,5.4h36.8l6.6,5.4l10.8-2.6l5.4-2.6
				l8.2-2.8l5.4-2.6l8.2-2.8l10.8-8.2l8.2-2.6l10.8-2.8h8.2l8.2-5.4l5.4-2.8l5.4-2.6l19,5.4l19-13.6l8.2-10.8v-10.8h16.2l27-8.2
				l13.4-10.8l10.8-2.6l16.2,24.4l-2.6,16.2l5.4,24.4l5.4,5.4h16.2l10.8-4.8l10.8-11.4l8.2-10.8l8.2-2.8l19-8.2l13.6-13.6l-8.2-21.6
				v-10.8l2.8-8.2v-5.4l-2.8-8.2v-5.4l2.8-13.6l2.6-8.2l5.4-8.2l2.6-8.2l2.8-8.2v-5.4l-5.4-5.4l-2.6-2.6v-2.8l2.6-2.6l2.6-2.6
				l2.8-2.8l5.4-2.6l8.2-2.8l8.2,2.8l8.2,8.2l2.6,13.6v5.4l-2.6,8.2l-5.4,5.4l-2.6,5.4v5.4l8.2,2.6l8.2,5.4l10.8,10.8l10.8,8.2
				l13.6,5.4l16.2,5.4l16.2,2.8h21.6l8.2,10.8l10.8,8.2l8.2,2.8l13.6-2.8l13.6-5.4l13.6-2.8l19-5.4h40.6l10.8-8.2l2.8-11l-2.8-13.6
				l-5.4-10.8l-5.4-13.6v-19l-2.8-16.2l-2.6-16.2v-21.6l-2.6-21.6V2069l-2.8-21.6l-2.6-24.4l-2.6-13.6v-16.2l2.6-10.8l8.2-8.2
				l19-24.4l16.2-19l32.4-38l13.6-16.2l10.8-8.2l11-5.2h10.8l13.6,2.8l10.8,2.6l13.6,2.6l10.8,2.8h29.8l10.8-2.8l13.6-2.6l19-5.4
				l19-5.4l19-2.6l21.6-2.6h24.4l7.6-2l12.8-6.4l15-6.4l17.2-6.4l12.8-4.4l15-8.6l8.6-4.2l4.4-1h5.2l32.2,4.4l27.8,8.6l21.4,8.6
				l17.2,12.8l15,21.4l10.8,27.8l10.8,43l4.2,12.8l4.4,10.8l8.6,21.4l13,26.8l10.6,16l12.2,14l4.8,1h6.4l8.6-6.4l6.4-6.4l2.2-10.8
				l2.2-6.4l4.4-4.4l6.4-2.2h6.4l6.4,4.2l3,6.4l3.4,6.4l4.4,6.4l8.6,12.8l6.4,12.8l2.2,2.2h2.4l1.8-2.2l6.4-6.4l8.6-12.8l6.4-6.4
				l6.4-4.4l10.8-6.4l6-2.2h6.8l8.6,2.2l8.6,4.4l10.8,6.4l10.8,6.4l21.4,8.6l24.8,4.4h11.6l8.6,2.2l6.4,4.2l12.8,12.8l15,15
				l6.4,10.8l4.2,4.4l6.4,10.8l4.2,4.4l8.6,10.8l10.8,15l8.6,15l10.8,10.8l6.4,4.4l10.8,4.2l19.4,10.8l12.8,4.4l19.4,4.2l4.8,5.4
				l4,9.6l5.4,7.6l6.6,13l15.2,30.4l15.2,30.4l6.6,4.4l13,6.6l19.6,8.6l10.8,4.4l6.6,6.6l15.2,6.6h15.2l10.8-10.8l8.6-15.2l4.4-10.8
				l-2.2-6.6l-8.6-8.6l-6.6-28.2l6.6-13l15.2-39v-8.6l-2.2-15.2l-2.2-10.8l-2.2-10.8l2.2-6.6l6.6-8.6l8.6-6.6l13-2.2l8.6,2.2
				l6.6,2.2l15.2,4.4h13l15.2-6.6l8.6-8.6l2.2-6.6l-4.4-2.2l-2.2-6.6l2.2-4.4v-2.2l-2-4.2l2.2-4.4l4.4-2.2l-2.2-4.4l2.2-2.2l6.6-4.4
				l8.6-4.4l5.6-4.6l7.6-1.6l13.6,4.6l13.6,12.2l10.6,12.2l7.6,9.2l9.2,10.6l6,7.6l6,4.6l4.6,7.6l7.6,4.6l7.6,6l6,6l6,4.6l7.6,3
				l10.6,6l4.4,5.2l8.6,4.4l5.4,5.4l0.2,2l-1.2,1.4l-2.2,2.2l2.2,4.4l2.2,2.2h4.4l2.2,2.2v4.4l-2.2,4.4l-2.2,6.6l-2.2,6.6l-8.6,15.2
				l-2.2,6.6l-4.4,2.2l-6.6,6.6l-4.4,2.2l-8.6,2.2h-4.4l-8.6,6.6h-2.2l-4.4,2.2l-10.8,13l-2.2,6.6v8.6l4.4,4.4l10.8,15.2v2.2
				l4.4,6.6l10.8,13l2.2,4.4l2.2,4.4l6.6,6.6l8.6,10.8l2.2,10.8l2.2,6.6l4.4,6.6l8.6,6.6h6.6l6.6-2.2l8.6-2.2l23.8-6.6h4.4l6.6,2.2
				h4.6l2.2-2.2l8.6-8.6h2.2v8.6l2.2,6.6l-2.2,10.8l-2.2,4.4v2.2l-2.2,2.2h-6.6l-2,2.4l-4.4,2.2l-2.2,4.4h-2.2l-6.6-4.4l-2.2-2.2
				l-2.2,2.2l-2.2,4.4l-4.4,8.6l-6.6,4.4h-4.4l-2.2,2.2l2.2,4.4l-2.2,6.6l-8.6,10.8l-6.6,4.4l-8.6,10.8l-2.2,6.6v6.6l4.4,6.6
				l-2.2,2.2l-6.6,13l-2.2,13l-2.2,4.4l-10.8,6.6v4.4l2.2,8.6l-2.2,4.4v4.4l2.2,4.4l4.4,2.2l2.2,4.4v2.2l2.2,2.2l-6.6,4.4l-6.6,6.6
				v6.6l-4.4,2.2l-4.4,2.2v4.4l2.2,8.6l-2.2,6.6l-4.4,6.6l-4.4,10.8l-4.4,15.2l-6.6,4.4v4.4l2.2,4.4l4.4,13l8.6,17.4l4.4,6.6
				l2.2,4.4h4.4l4.4-4.4l8.6-2.2l2.2,4.4v4.2l-2.2,13l-2.2,6.6l-8.6,17.4l-4.4,2.2h-4.4l-8.6,4.4l-6.6-2.2l-10.8-6.6v-6.6l2.2-4.4
				l2.2-6.6v-4.4l-2.2-2.2l-6.6-4.4h-2.2l-2.2,4.4l-2.2,2.2l-4.4,2.2h-6.6l-4.4-4.4l2.2-6.6l2.2-6.6v-6.6l-2.2-4.4h-2.2v6.6h-8.6
				l-6.6-4.4h-2.2l-2.2,4.4l-2.2,2.2v4.4l2.2,2.2h-6.6l-4.4,4.4l2.2,2.2l2.2,2.2v4.4l2.2,4.4l2.2,6.6l-2.2,4.4v2.2l4.4,6.6l4.4,4.4
				l2.2,6.6l4.4,8.6l2.2,2.2h10.8l2.2,2.2l6.6,10.8h13l4.4,4.4l2.2,6.6v6.6h8.6l10.8,6.6v4.4h8.6l6.6-2.2l10.8,2.2l15.2-10.8h4.2
				l6.6-4.4h4.4l8.6-8.6l8.6-4.4l8.6-10.8l8.6-2.2h13l8.6-2.2l10.8-4.4l4.2-8l2.2-0.8l13-6.6l13-6.6l4.4-6.6l17.4-17.4h2.2l4.4,4.4
				h4.4l6.6-2.2h6.6l2.2-6.6l8.6-4.4l15.2-4.4v-2.2l6.6-4.4h8.6l4.4-2.2l4.4,4.4h8.6l4.4,2.2l6.6,6.6h2.2l4.4-2.2l2.2,2.2l6.6,6.6
				l6.6,2.2l2.2,2.2v6.6l4.4,6.6l6.6,8.6l2.2,4.4l4.4,6.6l4.4,2.2l4.4,4.4l19.6,19.6l2.2,8.6l2.2,2.2l4.4,6.6l8.6,19.6l2.2,4.4
				l-2.2,4.4l2.2,4.4v6.6l2.2,4.4l8.6,6.6h2.2l2.2-6.6l4.4-4.4l6.6-2.2l6.6-4.4l10.8-6.6l10.8-10.8l13-8.6l8.6-8.6l6.6-15.2
				l4.4-17.4l-1-5.8l-9.8-20.2l-2.2-4.4l2.2-2.2l6.6-2.2l4.4-2.2l10.8-6.6l3.8-1.8l4.6-4.6l9.2,6l7.6,7.6l6,4.6l6,1.6l6,4.6l10.6,6
				l15.2,18.2l7.6,4.6l4.6,4.6l4.6,4.6l9.2,7.6l6,7.6l4.6,4.6l7.6,6l4.6,3l6,9.2l15.2,16.6l6.4,13.2l2.2,6.2l0.6,2l-3,3h-1.6
				l-4.6-1.6l-2.2-1h-6.6l-5,5.6h-6l-12.2,1.6l-5,6h-4.4l-2.2,6.6l-4.4,6.6l-6.6,13l-2.2,10.8l-4.4,10.8v4.4l4.4,4.4v4.4l2.2,2.2
				l2.2,6.6h2.2l2.2,2.2l-2.2,4.4l2.2,6.6l-2.2,4.4l2.2,6.6l2.2,2.2l-2.2,4.4l2.2,4.4h2.2l2.2-2.2l2.2,2.2v2.2l4.4,6.6l8.6,10.8
				l-2.2,2.2v4.4l-2.2,4.4l2.2,2.2h2.2l8.6,8.6v2.2l-2.2,2.2h-2.2l-4.4,4.4v4.4l4.4,6.6l-2.2,4.4l-2.2,10.8l-4.4,2.2l-6.6-4.4h-4.4
				l-2.2,4.4l-1.2,5.8"/>
			<g id="_2019_HKI_Shoreline">
				<polyline class="st4" points="588.2,2169.6 589.4,2167.8 630.4,2151.6 668,2137.6 				"/>
				<polyline class="st5" points="675.2,2134.8 682.8,2132 680,2124.6 				"/>
				<polyline class="st5" points="677,2117 674.2,2109.6 680.6,2104.8 				"/>
				<line class="st6" x1="690.6" y1="2097.6" x2="705.4" y2="2086.8"/>
				<polyline class="st5" points="710.4,2083.2 716.8,2078.4 723.4,2088.8 716.8,2093.6 				"/>
				<line class="st7" x1="710" y1="2098.4" x2="699.6" y2="2105.8"/>
				<polyline class="st5" points="696.2,2108.2 689.8,2113 694.8,2127.6 702.2,2124.6 				"/>
				<polyline class="st8" points="718.2,2118.8 768.6,2099.8 792.4,2095.4 820.2,2090.6 840.8,2086.4 				"/>
				<polyline class="st5" points="849.2,2084.8 857,2083.4 857,2080.8 861,2076.8 				"/>
				<polyline class="st9" points="873,2064.6 880.2,2057.2 919.4,2020.2 990.6,1952.2 				"/>
				<polyline class="st5" points="996.8,1946.4 1002.6,1940.8 1010.4,1942 				"/>
				<line class="st10" x1="1028.4" y1="1945" x2="1055.4" y2="1949.2"/>
				<polyline class="st5" points="1064.4,1950.6 1072.2,1951.8 1071,1944 				"/>
				<polyline class="st5" points="1068.8,1935.4 1066.6,1927.8 1058.8,1926.2 				"/>
				<line class="st11" x1="1045" y1="1923.8" x2="997.2" y2="1915"/>
				<polyline class="st5" points="990.4,1913.8 982.4,1912.4 984.4,1901 992.2,1902.4 				"/>
				<polyline class="st12" points="1009.4,1905.4 1049.4,1912.4 1061,1912.4 1069.2,1910 				"/>
				<polyline class="st5" points="1077.4,1907.8 1085.2,1905.6 1081.4,1892.2 1089,1890 1092.6,1903.6 1100.4,1901.4 				"/>
				<polyline class="st5" points="1104.4,1900.4 1112,1898.2 1108.6,1885.6 1116,1883.6 1119.6,1896.2 1127.2,1894 				"/>
				<polyline class="st5" points="1134.8,1891.8 1142.6,1889.8 1139.6,1879.2 1147,1877.2 1150,1887.6 1157.6,1885.6 				"/>
				<polyline class="st5" points="1175.6,1880.6 1183.4,1878.4 1180.2,1867.4 1186.6,1865.6 1189.6,1876.6 1198.8,1874 
					1195.8,1863.6 1202,1861.8 1205,1872.4 1212.6,1870.2 				"/>
				<polyline class="st13" points="1227.6,1866 1233,1864.6 1248.4,1860.8 1397.6,1866.4 1536.6,1901.6 1542.8,1909.2 
					1562.4,1933.6 1572.2,1936 				"/>
				<polyline class="st5" points="1579.6,1938 1587.4,1940.2 1591.2,1925.8 1590.4,1924.8 1582.2,1922.8 1582.2,1921.6 1582.6,1919 
					1581.4,1918.6 1580.6,1921.2 1575.2,1919.6 1572.6,1915.4 1573.4,1911.6 1577.6,1909.2 1578,1909.2 1583.4,1910.8 1583,1913.6 
					1584.2,1913.6 1585,1911.2 1585.4,1910 1593,1912.2 				"/>
				<polyline class="st5" points="1609,1916.4 1616.6,1918.6 1617.4,1917.8 1619.2,1911 				"/>
				<polyline class="st5" points="1619.4,1910.4 1621.2,1903.4 1621,1902.6 1614.4,1900.8 1615,1898 1614,1897.6 1613.2,1900.4 
					1610.8,1900 1611.6,1896.8 1610.4,1896.8 1610,1899.6 1602.4,1897.6 				"/>
				<polyline class="st5" points="1590,1894.2 1582.2,1892.2 1580,1888 1581,1884 1582.2,1883.4 1590,1885.4 				"/>
				<polyline class="st14" points="1606.6,1889.8 1625.6,1895 1631.4,1896.6 				"/>
				<polyline class="st5" points="1639.6,1899 1646,1900.8 1646.8,1902 1645.6,1905.8 1641.4,1908 1637.2,1907 1638,1903.8 
					1636.4,1903.8 1635.6,1906.6 1633.6,1905.8 1634.4,1903 1633.2,1902.6 1632.6,1905.8 1626,1903.8 1625.2,1904.2 1623.2,1912 
									"/>
				<polyline class="st5" points="1623,1912 1621.2,1919 1621.6,1919.6 1630.2,1922 1629.8,1923.2 1630.2,1923.6 1629.4,1925.8 
					1630.6,1926.2 1631.4,1923.6 1637.2,1925 1639.4,1929.4 1638.4,1933.2 1634.4,1935.6 1628.6,1934 1629,1931.6 1628.2,1931.4 
					1627.4,1933.6 1627,1933.6 1626.6,1934.8 1618.6,1932.4 1617.4,1933.2 1613.8,1947.2 1621.4,1949.2 				"/>
				<polyline class="st15" points="1636.4,1953.2 1636.8,1953.2 1652,1953.2 1657.8,1958.2 				"/>
				<polyline class="st5" points="1663.4,1963.6 1667.4,1970.6 1669.6,1968.6 1673.2,1965 				"/>
				<line class="st16" x1="1686.4" y1="1951.4" x2="1706.2" y2="1931"/>
				<polyline class="st5" points="1712.8,1924.2 1718.4,1918.4 1721.4,1919.2 1719.4,1927 				"/>
				<polyline class="st5" points="1718.2,1931.2 1716,1939 1725.6,1941.6 1727.6,1945 1733.8,1946.6 1735.8,1945.8 1737.8,1938.2 
									"/>
				<polyline class="st5" points="1739.4,1932.4 1741.6,1924.6 1749.4,1926.6 1747.2,1934.2 				"/>
				<polyline class="st5" points="1745.6,1940 1743.6,1947.8 1743.8,1947.8 1745,1949.8 1752.8,1951.6 				"/>
				<polyline class="st5" points="1754.4,1952 1762,1954 1763.6,1952.8 1765.2,1947 				"/>
				<polyline class="st5" points="1767.4,1938.8 1769,1932.4 1770.2,1931.6 1776.8,1933.4 1777.6,1934.2 1775.4,1942 				"/>
				<polyline class="st5" points="1773.8,1947.8 1771.8,1955.6 1772.8,1956.6 1779,1958.2 				"/>
				<polyline class="st5" points="1784.8,1959.6 1790.4,1961 1792.2,1959.8 1794.2,1952 				"/>
				<polyline class="st5" points="1795.6,1946.6 1797.2,1939.6 1797.6,1939.2 1798,1939.2 1798,1939 1798.4,1939 1804.6,1940.8 
					1805,1940.8 1805,1941.2 1805.4,1941.2 1805.4,1941.6 1803.4,1949 				"/>
				<polyline class="st5" points="1802,1954 1800,1961.8 1801.2,1963.6 1806.6,1965.2 				"/>
				<polyline class="st5" points="1812.4,1967 1818.2,1968.6 1820,1968 1822.4,1960.2 				"/>
				<polyline class="st5" points="1824,1955 1826.2,1947.8 1826.2,1947.4 1826.6,1947.4 1827,1947 1827.8,1947.4 1833.6,1949 
					1834,1949.4 1834,1949.8 1834,1950 				"/>
				<polyline class="st5" points="1830.2,1962.6 1827.8,1970.2 1829,1971.8 1828.6,1972.6 1836.2,1975.2 				"/>
				<polyline class="st5" points="1838,1975.8 1845.6,1978.4 1846,1977.6 1847.6,1976.8 1849.4,1971.8 				"/>
				<polyline class="st5" points="1852.2,1964.2 1854.8,1957 1854.8,1956.6 1855.2,1956.6 1855.6,1956.6 1856,1956.6 1861.8,1958.6 
					1862.2,1959 1862.6,1959 1862.6,1959.4 1862.6,1959.8 1860,1966.6 				"/>
				<polyline class="st5" points="1858,1972 1855.2,1979.6 1856.4,1981.4 1856,1981.8 1863.4,1984.8 				"/>
				<polyline class="st5" points="1865.2,1985.4 1872.6,1988.4 1873,1988 1875,1986.8 1877,1982 				"/>
				<polyline class="st5" points="1880.2,1974.4 1882.8,1968 1883.2,1967.6 1883.6,1967.2 1883.8,1967.2 1890,1969.8 1890.4,1970.2 
					1890.4,1970.6 				"/>
				<polyline class="st5" points="1884.8,1984.8 1882.8,1990 1883.6,1992.2 1883.2,1992.6 1885.8,1993.8 1890.4,1995.8 				"/>
				<polyline class="st5" points="1891.6,1996.4 1899,1999.6 1901.6,1998 1903.6,1993.6 				"/>
				<polyline class="st5" points="1906.6,1986.2 1909.8,1978.8 1917.6,1981.8 1914.4,1989.2 				"/>
				<polyline class="st5" points="1911.2,2005.6 1914,2013.2 1921.6,2010.6 				"/>
				<polyline class="st5" points="1927.8,2008.4 1933,2006.6 1933.8,2006.6 1934.2,2006.6 1935,2007 1935.4,2007 1935.6,2007.4 
					1936,2008.2 1936.4,2008.6 1936.4,2009.4 1936.4,2009.6 1936,2010.4 1935.6,2011.2 1935.4,2011.6 1934.6,2011.6 1927.8,2014 
									"/>
				<polyline class="st5" points="1923.2,2015.6 1915.6,2018.2 1918.4,2025.8 				"/>
				<polyline class="st5" points="1919.4,2028.8 1922.2,2036.4 1929.8,2033.8 				"/>
				<polyline class="st5" points="1935,2032 1941.2,2029.8 1941.6,2029.8 1942,2029.8 1942.2,2029.8 1942.6,2029.8 1943,2030.2 
					1943.4,2030.2 1943.8,2030.6 1943.8,2031 1944.2,2031.4 1944.2,2031.8 1944.6,2032.2 1944.6,2032.6 1944.6,2033 1944.2,2033.2 
					1944.2,2033.6 1943.8,2034 1943.4,2034.4 1943,2034.8 1942.2,2035.2 1938.6,2036.4 				"/>
				<polyline class="st5" points="1931.4,2038.8 1923.8,2041.4 1926.4,2049 				"/>
				<polyline class="st5" points="1934.6,2060.6 1935,2060.8 1941.2,2064.6 1941.6,2064.6 1942.2,2068.2 1949.6,2071.2 				"/>
				<polyline class="st17" points="1963.2,2076.6 1982.6,2084.4 1990.6,2087.4 1993.8,2089 1997.2,2090.2 2006.4,2094 
					2010.4,2095.4 				"/>
				<polyline class="st5" points="2017.2,2097.8 2024.6,2101 2028.2,2099 2032,2099.8 				"/>
				<polyline class="st18" points="2047.8,2103 2049.4,2103.4 2056.4,2104 2059,2104.4 2063,2104.8 2068.8,2105.2 2071.4,2105.6 
					2075,2106 2078.4,2108 2083,2111.2 2086,2112.6 2089,2114.2 2092,2115.6 2096.6,2117.2 2104,2117.2 2116,2118 2117.2,2118 
					2132.2,2122.2 2146.2,2125.8 2153.8,2126.8 2158.4,2127.2 2162.8,2127.2 2168.6,2126.2 2173.6,2124.6 2177,2123 2181.4,2121 
					2184.4,2119.2 2186.6,2116.4 2189.8,2112.6 2191.4,2110.2 2193.2,2107.2 2193.6,2106 2195.2,2103.6 2195.6,2102.2 
					2197.2,2099.4 2198,2097.4 2199,2095.6 2200.2,2094.4 2202.6,2091.6 2205.2,2089.4 2208,2087 2208.6,2085.4 				"/>
				<polyline class="st5" points="2211,2077.6 2213.4,2070 2213,2070 2212.6,2069.6 2212.2,2069.2 2211.8,2068.8 2211.4,2068.2 
					2211.4,2067.6 2211.4,2067.4 2211.4,2066.6 2211.4,2066.2 2211.8,2065.8 2212.2,2065.4 2217.2,2060.6 				"/>
				<polyline class="st19" points="2234.4,2052.4 2235,2052.2 2237,2051.8 2239.4,2051.8 2243.2,2051.8 2245.8,2052.2 2249.8,2053 
					2252.4,2053.8 2254.8,2054.6 2256.4,2055.4 2257.8,2056.2 2259,2056.4 2260.2,2057.2 2262.2,2057.2 				"/>
				<polyline class="st5" points="2272,2057.2 2280,2057.2 2277.8,2049.6 				"/>
				<polyline class="st20" points="2281,2041 2281.4,2041 2282.2,2041.4 2283,2041.4 2283.8,2041.8 2284.6,2042.6 2285,2043 
					2285.4,2043.8 2285.4,2044.2 2285.8,2044.8 2288.2,2054.2 				"/>
				<polyline class="st5" points="2289.6,2059.6 2291.6,2067.4 2288.4,2068.2 2288.8,2068.4 2289.2,2068.8 2289.2,2069.6 
					2289.2,2070.4 2286.2,2081.2 2286.4,2081.6 2286.8,2080.8 2288.4,2081.2 2288,2083.2 2286.4,2082.8 2286.4,2082.4 2285.8,2082 
					2284.6,2086.6 2285.4,2086.6 2285.4,2086.2 2286.8,2086.6 2286.4,2089 2285,2088.2 2285,2087.4 2283,2087 2283,2089.8 
					2283.4,2095 				"/>
				<polyline class="st21" points="2288.4,2114 2288.4,2114.2 2290,2114.8 2291.2,2115.6 2292.2,2116.4 2293.4,2116.8 2295,2116.8 
					2296.2,2116.8 2299.2,2116.8 2301.2,2116.8 2303.8,2116.4 2318,2115 				"/>
				<polyline class="st5" points="2328,2113.8 2336,2113 2336,2112.6 2336.4,2111.8 2337.2,2111 2337.2,2110.2 2336.6,2105.4 				
					"/>
				<polyline class="st5" points="2335.6,2097.6 2334.8,2090.2 2334.8,2089.8 2335.2,2089.8 2335.2,2089.4 2335.6,2089.4 2336,2089 
					2342.2,2088.6 2342.6,2088.6 2343,2088.6 2343,2089 2343.4,2089.4 2344.2,2096.8 				"/>
				<polyline class="st5" points="2345,2104.4 2345.6,2109.8 2347.2,2111.8 2351.8,2111 2355.2,2110.6 				"/>
				<polyline class="st22" points="2371.6,2108.4 2375,2108 2381.2,2107.2 2390.8,2105.6 2404.8,2103.6 2429.4,2100 				"/>
				<polyline class="st5" points="2437.6,2098.6 2445.4,2097.4 2444.8,2098.2 2451,2093 				"/>
				<line class="st23" x1="2459.2" y1="2086" x2="2471.6" y2="2075.4"/>
				<polyline class="st5" points="2475.8,2071.8 2476,2071.6 2483.6,2070.2 2486.6,2073.2 2485.2,2079.2 2483.8,2080.4 				"/>
				<line class="st24" x1="2476.6" y1="2086.8" x2="2465.8" y2="2096.4"/>
				<polyline class="st5" points="2462.2,2099.6 2456.2,2105 2456.2,2108 2457.6,2112.8 				"/>
				<polyline class="st5" points="2460.2,2123.2 2462.4,2130.8 2469.6,2127.6 				"/>
				<line class="st25" x1="2479" y1="2123.2" x2="2493.2" y2="2116.8"/>
				<polyline class="st5" points="2498,2114.6 2505.2,2111.4 2505.2,2103.4 				"/>
				<line class="st26" x1="2505.2" y1="2094.8" x2="2505.2" y2="2082"/>
				<path class="st5" d="M2505.2,2077.6v-8l-6.6-1.4c-0.4,0-0.8-0.2-1.2-0.6"/>
				<polyline class="st5" points="2500.8,2062.2 2508.8,2063.8 2514,2055 2521.8,2053.4 				"/>
				<polyline class="st5" points="2523.6,2053 2529.2,2052 2531.6,2052 2528.4,2044.6 				"/>
				<path class="st27" d="M2523.4,2033c-0.6-1.6,0.2-3.6,1.8-4.2s3.6,0.2,4.2,1.8l0,0l3.6,8.2"/>
				<polyline class="st5" points="2535.4,2044.6 2538.6,2052 2545.4,2052 2546.4,2051.6 				"/>
				<polyline class="st5" points="2551.6,2049 2551.8,2048.8 2559.4,2050.4 2562.6,2056.4 2562.2,2057.6 				"/>
				<polyline class="st28" points="2559,2071.2 2556.4,2082.2 2550.4,2114.2 2550.4,2118.6 				"/>
				<polyline class="st5" points="2550.4,2125.6 2550.4,2126.2 2551.2,2133.6 2559,2132.4 				"/>
				<polyline class="st29" points="2572.6,2123.2 2597,2105.6 2602.8,2096 2614.2,2086.6 2627.6,2078.8 2643,2075 2654.4,2073.2 
					2698.4,2063.6 2717,2056.6 2721,2052.6 2726.4,2045.8 2731.8,2035.2 2732,2033.8 				"/>
				<polyline class="st5" points="2733,2025.6 2732.8,2017.6 2727.2,2013.8 2726.8,2012.8 				"/>
				<polyline class="st30" points="2724.8,2004.4 2723.4,1994.6 2722.8,1991.6 				"/>
				<polyline class="st5" points="2721.8,1987.4 2721.4,1985 2721.4,1979.4 2714.8,1975 				"/>
				<path class="st31" d="M2703.6,1967.4L2684,1954c-1.6-1-2.2-3-1.2-4.6s3-2.2,4.6-1.2c0.2,0,0.2,0.2,0.4,0.2l11,7.4"/>
				<polyline class="st5" points="2704.2,1959.6 2710.8,1964 2716,1958 				"/>
				<polyline class="st32" points="2725.6,1946.8 2758.4,1908.6 2782.4,1883.4 2786.2,1880 2822.2,1846.2 				"/>
				<polyline class="st5" points="2827.6,1841.2 2828,1841 2829.4,1840.2 2830.6,1839.8 2831.8,1839.8 2833,1839.8 2834.2,1840.2 
					2835,1840.6 2841.2,1835.4 				"/>
				<path class="st33" d="M2852.6,1825.6l17.8-15.2l13.4-9.4l18.8-9.4l17.4-6.6l37.4-9.4l30.8-9.4l6.6-1.4h6.6
					c2.8,0.6,5.4,1.6,8,2.6l32.4-1"/>
				<polyline class="st5" points="3049.6,1766.4 3053.8,1766.2 3057.6,1765.4 3055,1762.2 3055,1758.2 				"/>
				<polyline class="st5" points="3053.6,1748.8 3052,1741 3059.2,1739.4 3060.6,1747.4 				"/>
				<polyline class="st5" points="3063,1756.4 3064.4,1759.6 3063.8,1764 3071.6,1762.4 				"/>
				<path class="st5" d="M3080.6,1760.6l7.8-1.6l-1.2-6.6c-2.4-1-3.6-4-2.6-6.4c0.2-0.6,0.6-1.2,1-1.6l-1.4-7.8"/>
				<polyline class="st5" points="3084.2,1735 3082.6,1727 3090.6,1725.6 3092,1733.6 				"/>
				<path class="st5" d="M3092.2,1734.8l1.4,7.8c1.6,0.6,2.6,2,3,3.6c0.4,1.8-0.2,3.4-1.6,4.6l1.2,6.4l7.8-1.6"/>
				<polyline class="st34" points="3119,1750.4 3135.4,1744.8 3141.4,1743.2 				"/>
				<polyline class="st5" points="3149,1741.4 3156.6,1739.4 3156.6,1734 3170.4,1734 3170.4,1738.4 3178.4,1739.4 				"/>
				<polyline class="st35" points="3193.2,1744 3227.6,1747.4 3245,1750.2 3267.4,1758.2 3290.4,1768.8 3315.8,1776.8 3341.4,1787 
					3356,1795.6 3370.6,1806.4 3378.6,1811.6 3393,1816.2 3400.2,1816.6 3413.8,1822.8 3428.2,1831 3536.8,1882 3602,1894 
					3616.6,1896 3662.2,1904.8 3741,1941.6 3784.4,1985.2 				"/>
				<polyline class="st5" points="3789.8,1990.6 3795.4,1996.4 3801.4,2001.8 				"/>
				<polyline class="st5" points="3803.8,2004 3809.6,2009.4 3811.6,2008.6 3815.8,2008.6 3821.4,2002.8 				"/>
				<polyline class="st5" points="3824.4,2000 3830,1994.2 3837,2001.2 3831.2,2007 				"/>
				<polyline class="st5" points="3829,2009.2 3823.4,2014.8 3823.4,2019.6 3822.6,2021 3828.4,2026.4 				"/>
				<polyline class="st5" points="3830,2027.8 3835.8,2033.2 3836.2,2033 3840.6,2033 3842.8,2030.8 				"/>
				<polyline class="st5" points="3829.6,2068.2 3823.8,2073.8 3829.4,2079.4 				"/>
				<line class="st36" x1="3838.8" y1="2088.8" x2="3852.8" y2="2102.8"/>
				<path class="st37" d="M2546.2,2029.4c0.4,0,0.6,0,1-0.2l137-41.4c1.8-0.4,2.8-2.2,2.2-4s-2.2-2.8-4-2.2c0,0,0,0-0.2,0l-137,41.4
					c-1.8,0.6-2.6,2.4-2.2,4C2543.4,2028.4,2544.8,2029.4,2546.2,2029.4z"/>
			</g>
			<g id="_2019_KLN_Shoreline">
				<polygon class="st38" points="3240.2,1059.6 3068.6,893.2 3070,886.6 3088.8,833 3096.8,835.8 3283.8,1015.4 				"/>
				<path class="st38" d="M4066.2,1719.6l-2.6-4l-1.4-5.4l1.2-1.4l93.8-48l6.6-4l-20-50.8l-2.6-2.6l-14.8,1.4l-9.4,1.4l-6.6,1.4
					l-14.6,7.8l-9,3.8l-16.8-1.2l-12.2-3.6l-17.6,2.2l-19.4,2.8h-20l-4,8H3986l0.2-10.6l-10.4-1.6l-16.2-10.6l-13.4-10.6l-9.4-8
					l-10-17.2l-12.6-24.2l-10.6-24l-14-13l-59.4-32.6l-8-9.4L3755,1384l10.6-9.4l-10.8-1.8l-22-17.6l-2.8-4c0,0.2-0.2,0.2-0.2,0.4
					c-1,0.8-2.4,1.2-3.6,1l-12.8,12.8l-4.6-4.6l12.8-12.8c-0.4-1.2,0-2.6,0.8-3.6c0.6-0.6,1.2-0.8,2-1l-2.2-3.2l-27.8-40.4l-0.4-0.4
					l-12.2,9.2l-1.2-1.6l-40.8,29.2c-1.2,0.8-2.8,0.6-3.8-0.6c-0.8-1.2-0.6-2.8,0.6-3.8l40.6-29l-1.2-1.6l11.8-9l-7.4-14.4l-4.8,3.4
					l-2.6-3.6l5.2-3.6l-8.8-10.2l-1.4-2.6l-4-6.6l-5,4.6l-0.4-0.4l-13.8-19l-42.2-51.8l-41.4-48.2l-62.8-66.8l-24-22.8l-73.6,77.6
					l-106-101.8l-43.6,44.6l65.6,63.6l9.6,5.8l103.8,96l7.2,5.4l12.8,6.8l8,1.4l14.6-14.6l61.2,60.4l3,9l-3,28.8l0.2,3.4l57.8,60
					v9.6l-45.4,47.8h-10l-48.8-49.8h-10.6l-28.6-28.6l-19.2-24.6l-486-470.6l-21.8,11.4l-34,74.4l3.6,4.2l14.6,6.8l-2.8,6l-15.4-7.2
					h-4.8l-41,89.6v9.8l-4.6,10.8l-10.8,4.6l-5.4-1.4l-4.8,121.2l-0.6,3.2h13.4v12h-13.2l-0.2,6l21.6,19l37.4,31.2l4,4l-12.8,59.6
					l-19.4,88.8l5.4,18.8l4,14.8l-45.4,32l-11.6-0.8l-5.2-4.4l-7.2,16l-10.6,4l2.6,5.4l-17.4,8l-2.8-4.8l-10.6,4.6l-8,4.2l1.4,6.6
					l1.4,4l5.4,10.6l-6.6,4l-5.4-10.6l-1.4-4l-4-6.6l-145.8,65.6l-12-26.8l-23.8-0.2l-0.2,60.4l-22.4,14.2l-9.6-12.8l17.4-10.6
					v-38.8l-15.4,6.2l-9.2-3l-33.4-1.6l-111.2,99l-10.2,13l-2.6,4l-11,31.2l-4.6,6.4l-0.6,2.6l-6.6,6.6l-29.4,36l-49.4,4L2237,1781
					l-56.6,4.6l-1,2l-18.8,1.4l-24,2.6l-5.2-16.2l-8.2-1h-5.4l-0.2-0.2l-10.4,14.6c-0.4,0.8-1.4,1.2-2.2,1.2c-0.6,0-1-0.2-1.6-0.4
					c-1.2-0.8-1.4-2.6-0.6-3.8l0,0l11-15.4l-10.8-12l-0.6,0.4l-12,14.6c-0.4,0.6-1.2,1-2,1c-0.6,0-1.2-0.2-1.6-0.6
					c-1.2-1-1.4-2.6-0.4-3.8l0,0l11.6-14.2l2.6-5.6l5.4-5.4l-4-18.8l-111.2,22.8l-4-23.8l96.6-20.4l1.2-5.2l1.4-5.4l2.6-1.4h3.4
					l2.6,1.6l-4.8-19l-5.4-26.8l-50,10.2h-0.6c-1.6-0.2-3-1.6-2.8-3.2c0-1.2,1-2.4,2.2-2.8l40.4-8.2v-6.4l8-2.6l-4-16
					c-8.2,1.6-62.2,11.2-62.2,11.2c-0.2,0-0.4,0-0.6,0c-1.6-0.2-3-1.6-2.8-3.2c0-1.2,1-2.4,2.2-2.8c0,0,53.8-11.6,62-13.2l-4-26.8
					l-76.4,16.8c-0.4,0-0.8,0.2-1,0.2c-2.8,0-5.2-2.4-5.2-5.2c0-2.4,1.8-4.4,4-5l62.6-12.2v-6.6l5.4-1.4l-6-13.4l-4.4-17.2l-1.6-12
					l-11.8,1.2l-14.6,10.4l-2.4-3.2l11.4-8l-1.6-0.4l-8,2.6l-2.6-1.4l-26.8,2.6l-25.2,3.2l-0.2,2l-57.4,8l-14.8,1.4l-4-1.4l-21,2.2
					v12.4h3.4v6.6h-13.4v-6.6h3.4v-11.8l-15,3.6l-32,12l-21,20l-6,15.2l-2.6,2.4l-4,1.4l-5.8-0.6h-76l-12-9.2l-7.6-7.6l-6.2-11.8
					l-2.4-5.4v-41l-0.4-5.4l0.4-4.6l-0.4-10.4l0.4-8.2l0.4-6.6l1.6-7l2.2-6.6l4-5.4l1.4-1.4l2.6-2.6l4-2.6l0.4-1V1420
					c0-6.4-3.6-9-6.6-11.2l-0.4-0.4c-3.4-2.4-12-4.4-15-5c-1.2-0.2-2.2-1.4-2-2.8s1.4-2.2,2.8-2c0.4,0,12,2.2,17,5.8l0.4,0.2
					c3.2,2.2,8.6,6,8.6,15v24.8l65.4-0.4l83.2-118.8L1843,1047l-16.8-40l-131-0.8l1.2,32c0,1.4-1.2,2.8-2.6,2.8l0,0
					c-1.4,0-2.6-1.2-2.6-2.6l-1.6-33.4c0-1.4,1.2-2.8,2.6-2.8l0,0l-1-99v-36.8l-24-41l-13.4-11l-31.8,38.2h-0.8l-15.4-12.8l-0.4-1.2
					l32-38.2l-21.6-17.8l-11.2,14l-2.4-2l11.2-14l-13.6-11.2l-11.2,13.6l-2.4-2l11.2-13.6l-15.8-13.6l-4.2,5l-2-1.6l3.8-5
					l-26.8-22.4l-13.2,15.8l-4.6-3.8l13.2-15.8l-24-20.8l-13.4,16l-5.4-4l13.4-16l-14.8-12l-8-6.6l-17.4-10.8l-9-6.4l-22-14l0,0
					l-29.8-16.6l-27.8-19.4l-13.4-6.6l-7.2,11.4l9.8,5.6l-0.8,1.2l-9.8-5.8l-2.2,3.6l10,6.6l-0.8,1.2l-10-6.6l-3.2,5l8.6,5.8
					l-0.8,1.2l-8.6-5.8L1350,650l10.6,7l-0.8,1.2l-10.6-7l-2.2,3.4l9.6,6.4l-0.8,1.2l-9.6-6.4l-2,3v0.2l4.6,3l-0.8,1.2l-4.6-3
					l-2.6,4.2l4.4,2.8l-0.8,1.2l-4.2-2.8l-10.8,17.6l19.2,11.8l-1.2,2.4l-23-14l3.6-5.6l-50.6-32.2l-23.6,38.6l22.6,12.2l14,8
					l0.4-0.4h2l51.4,31.2l3.6,2.4c1.2,0.8,1.6,2.4,0.8,3.8c-0.4,0.8-1.4,1.2-2.2,1.2c-0.6,0-1-0.2-1.4-0.4l-5.8-3.6l-2.6,1.6l9,6.6
					l-1,1.6l-9.6-7l-4.8,3l8.4,8.4l-1.6,1.8l-8.8-8.8l-9.4,6l13.6,13.6l-1.6,1.6l-13.8-13.8l-8.6,6.8l13.4,13.4l-2,2l-13.6-13.6
					l-0.8,0.6l-10.2,10l7.2,7.2l-0.4,2.4l-7.2-7.2l-9.4,9.2l7.4,7.4l-1.4,1.4l-7.4-7.4l-5.4,5.4l5.8,5.8l-1.4,1.4l-5.8-5.8l-1.6,1.6
					l8.8,10.8l8.6,6.8v0.4l0.8,0.8l14.2-14.2h0.4l0.8,0.8v0.4l-13.8,14.2l8.4,9.8l8.8-8.8l6,6l-8.8,8.8l2,2.2l7.4-7.4V824h0.4v0.4
					l0.8,0.8h0.4v0.4h-0.8l-7.4,7.4l6.4,6.2l6.8-7l1.6,1.6l-6.6,7l12,11.8l18.6-18.6l-19-19l2-2.4l13.8,14l1.6-1.6l5,5.4l2.4-1.4
					l-5.4-5.4l1.4-1.4l5.4,5.4l13.4-14.8l-4-4.2l0.4-0.4l-13.2-13.2l2-2l13.2,13.2l13.8-13.8l-3-2.4l5.4-5.4l2.6,2.6l3.8-3.8
					l-7.6-5.4l1.8-2.4l7.8,5.8l4.8-4.8l-1.4-1.4V775l-21.4-13.6c-1.4-0.6-1.8-2.4-1.2-3.6s2.4-1.8,3.6-1.2c0.2,0,0.2,0.2,0.4,0.2
					l14,9h6l2.6-1.4l2.6-1.4l2.6,1.4l1.4,2.6l4,2.6l5.4,5.4l5.4,4l10.8,8.2h0.8l0.8-0.4h1.2l0.4,0.4h0.8l0.8,0.4h0.4l0.8,0.8
					l0.4,0.4l0.4,0.4l0.4,0.4l0.4,0.8v0.4l0.4,0.8v0.8l0.6,1l4.8,1.2l5.4,7.8l3.8,10.4l3.4,6.2l7,10.6l2.6,13v11.6l-7.8,6.4
					l-9.2,1.6l-14.8,4l-12,6.6l-14.8,12l-10.8,11l-6,7.6l-2.6,6.4l-0.8,6l-4,4l-9.4,9.4l-3.8,9v8.8l1.2,8l3.8,6.4l5.2,3.8l-2,6
					l-8.2,3l-5.6,5.2l-3.4,7.8l-3.2,4.6l5.4,5.4l-11.8,13l-5.4-5l-17.2,14.4l-2.6,10.4l2.6,6.4l-9,11.6l-2.6,9l-2.6,10.4l-3.8,3.8
					l-5.2-2.6l-6.4-3.8l-7.8-6.4l-7.8-11.6l-2.6-10.4l-7.8-6.4l-10.4-3.8l-9-1.2l-5.2-5.2l-2.6-14.2v-9.4l0.4-5.4l-2-4.6l-10.8-10
					H1215l-5-1.8l-7.6-3l-6-5.2l-4.6,0.6l-4.6-1.6l-12.2,1.6v4.6l11.8,77l2.6,16v1.2l-0.4,0.8l-0.8,0.8l-85.6,16.2l-2.4,0.4
					l-0.8-0.4l-0.8-0.4l-0.4-1.6l-8,1.6l-0.4-3l90.2-17l-2.4-11.8l-23.2-104.6l-2.6-5.2L1041.4,961v0.2l23.6,125
					c0.6,2.6-0.6,5.4-3,6.8l2.8,14.4c0.4,2.6-1.2,5-3.8,5.4c-0.2,0-0.6,0-0.8,0c-2.2,0-4.2-1.6-4.6-3.8l-21.2-112l-61.2-30.2h-6
					l-7.6,4.6l-31.6,7l-5.8,3.2l-4,1.4H916l-4.4-2.4L677.8,853.4l1.4-5.4v-8l-4-14.8l10.8-16l12-12l12-14.8l-1.4-6.6l389.2-123
					l-29.4-89.6l-10.6-5.4l-224.6,70.8l-73.6-234l161.8-50.8l-26.6-85.4L733,309.2l-108.6-344L490.6,6.8l-2.6-8l4-1.4l-1.4-4
					l-9.4-30.8l-8-16L460-93.6l-1.4-5.4l2.6-2.6l-8-25.4l-6.6-4l-4-10.6l-9.6-17.6l1.6-7.8l9-10.6l12.2-4.2h4l2.6,6.6l-1.4,5.4
					l5.4,9.4l3.4,12.4l3.2,2.4l4-2.6l5.4,5.4l1.4,4l-2.6,2.6l2.4,2.2l0.4,0.2l17.2-3.8l14.4-96.2"/>
				<path class="st38" d="M1715.6,1362.6L1715.6,1362.6c-10-0.2-18.8-6.4-22.4-15.4c-1.8-4.4-3-9.2-3-14v-231.4
					c0-12.2-21.4-14.6-21.6-14.8c-1.4-0.2-2.6-1.4-2.4-3c0.2-1.4,1.4-2.6,3-2.4c1,0.2,26.4,3.2,26.4,20V1333c0,1,0.4,23,20.2,24
					c1.4,0.2,2.6,1.4,2.4,3C1717.8,1361.4,1716.8,1362.4,1715.6,1362.6L1715.6,1362.6z"/>
				
					<rect x="2022.9" y="1548.9" transform="matrix(0.9913 -0.1314 0.1314 0.9913 -187.1341 279.5931)" class="st38" width="4" height="17.6"/>
				<path class="st38" d="M2961,1184.8c-0.6,0-1.4-0.4-1.6-1l-57.4-88.2c-0.6-1-0.4-2.2,0.6-2.8l0,0c1-0.6,2.2-0.4,2.8,0.6l0,0
					l57.4,88.2c0.6,1,0.4,2.2-0.6,2.8C2961.8,1184.6,2961.4,1184.8,2961,1184.8L2961,1184.8z"/>
				<path class="st38" d="M2960.4,1240.2c-0.8,0-1.4-0.4-1.8-1c-0.6-1-0.2-2.2,0.8-2.8l0,0l140.4-73.6c1-0.6,2.2-0.2,2.8,0.8
					s0.2,2.2-0.8,2.8l0,0l-140.4,73.6C2961,1240.2,2960.6,1240.2,2960.4,1240.2z"/>
				<path class="st38" d="M3627,1391.8c-11.2,0-25.4-4-27.6-4.6c-1.4-0.4-2.2-1.8-1.8-3.4c0.4-1.4,1.8-2.2,3.4-1.8
					c10.4,3,28.8,6.4,33.8,3c7.8-5.2,30.4-22.4,30.6-22.6c1.2-1,2.8-0.8,3.8,0.2c1,1.2,0.8,2.8-0.2,3.8l-0.2,0.2
					c-1,0.8-22.8,17.6-30.8,22.8C3634.4,1391.2,3630.8,1392,3627,1391.8z"/>
				<polyline class="st5" points="1598.6,1943.2 1591,1941 1595,1927 1595.8,1926.2 1603.6,1928.4 				"/>
				<polyline class="st5" points="1606.8,1929.2 1613.2,1931 1614,1932 1610.2,1946.2 1602.4,1944.2 				"/>
			</g>
		</g>
	</g>
</g>
<g class="st39">
	<g class="st40">
		<path d="M1668.8,652.4L1542,547.2l-3.8-78.4l13.4-15.2l-195.6,5.8h-19.4v2.2l-25.8-2.2l-2.2-2.2l-8.6-2.2h-17.2l-148.6-66.8
			l-2.2-2.6v-4l34.4-75.4l-6.6,1.4h-6l-3.4-6H1132l-11.6-3.4l-6.2-10v3.2l-6.4,13l-4.4,2.2h-4.4l-6.4,2.2l-8.6,2.2l-6.4,2.2h-2.2
			l-4.4,2.2l-3.4,2.2h-3l-4.4-4.4v-4.4l2.2-4.2V296l-2.2-2.4l-4.4-2.2h-8.6l-4.4-2.2h-4.4l-6.4-13l-2.2-6.4v-6.4l-2.2-6.4l-4.4-6.4
			l-6.4-2.2l-4.8-2.2h-6l-5.6-2.2h-7.2l-4.4-6.4l-2.2-4.4v-6.4l2.2-6.4V214l-2-6.6l-2.2-4.4l-2.2-6.4l-6.4-2.2l-4.4-4.2l-4.2-17.2
			l-1.6-8.4v-6.4L961,156h-3l-4.2-2l-7.6-4.2h-17.8l-1.8-2H918l-17-17.2h-4.2l-6.4-2H882l-6.4-2l-8.4-2l-6.4-4.2l-4.2-4.2l-4.2-2.2
			l-6.4-2l-4.2-2l-3.8-4l-4.2-2.2h-10.6l-6.4-2.2l-6.4-4.2L802,84.8l-4.2-12.6l-6,0.4l-5.8-5.8l-3.8-9.6l-5.8-5.8l-5.8,5.8l2,13.4
			l3.8,11.4l2,13.4l13.4,15.4l74.6,53.6l27,86l0.8,7.8l26.6,85.4L759,394.4l73.6,234l224.6-70.8l10.6,5.4l29.4,89.6l-389,123
			l1.4,6.6l-12,14.6l-12,12l-10.6,16l4,14.8v8l-1.4,5.4l233.8,127.2l4.4,2.4h2.6l4-1.4l5.8-3.2l31.6-7l7.6-4.6h6l61.2,30.2l21.2,112
			c0.4,2.2,2.4,3.8,4.6,3.8c0.2,0,0.6,0,0.8,0c2.6-0.4,4.2-3,3.8-5.4l-2.8-14.4c2.4-1.4,3.6-4.2,3-6.8l-23.2-125v-0.2l110.4-19.6
			l2.6,5.2l23.2,104.6l2.4,11.8l-90.2,17l0.4,3l8-1.6l0.4,1.6l0.8,0.4l0.8,0.4l2.4-0.4l85.6-16.2l0.8-0.8l0.4-0.8v-1.2l-2.6-16
			l-11.8-77v-4.6l12.2-1.6l4.6,1.6l4.6-0.6l6,5.2l7.6,3l5,1.8h22.8l10.8,10l2,4.6l-0.4,5.4v9.4l2.6,14.2l5.2,5.2l9,1.2l10.4,3.8
			l7.8,6.4l2.6,10.4l7.8,11.6l7.8,6.4l6.4,3.8l5.2,2.6l3.8-3.8l2.6-10.4l2.6-9l9-11.6l-2.6-6.4l2.6-10.4l17.2-14.4l5.4,5l11.8-13
			l-5.4-5.4l3.2-4.6l3.4-7.6l5.6-5.2l8.2-3l2-6l-5.2-3.8l-3.8-6.4l-1.2-8V938l3.8-9l9.4-9.4l4-4l0.8-6l2.6-6.4l6-7.6l10.8-10.8
			l14.8-12l12-6.6l14.8-4l9.2-1.6l7.8-6.4v-11.6l-2.6-13l-7-10.6l-3.4-6.2l-3.8-10.4l-5.4-7.6l-4.8-1.2l-0.6-1V792l-0.4-0.8v-0.4
			l-0.8-0.8l-0.4-0.4l-0.4-0.4l-0.4-0.4l-0.8-0.8h-0.4l-0.8-0.4h-0.8l-0.4-0.4h-1.2l-0.8,0.4h-0.8l-10.8-8.2l-5.4-4l-5.4-5.4l-4-2.6
			l-1.4-2.6l-2.6-1.4l-2.6,1.4l-2.6,1.4h-6l-14-9c-0.2,0-0.2-0.2-0.4-0.2c-1.4-0.6-3-0.2-3.6,1.2s-0.2,3,1.2,3.6l21.4,13.6v0.2
			l1.4,1.4l-4.8,4.8l-7.8-5.8l-1.8,2.4l7.6,5.4l-3.8,3.8l-2.6-2.6l-5.4,5.4l3,2.4l-13.8,13.8l-13.2-13.2l-2,2l13.2,13.2l-0.4,0.4
			l4,4.2l-13.4,14.6l-5.4-5.4l-1.4,1.4l5.4,5.4l-2.4,1.4l-5-5.4l-1.6,1.6l-13.8-14l-2,2.4l19,19l-18.6,18.6l-12-11.8l6.6-7l-1.6-1.6
			l-6.8,7l-6.4-6.2l7.4-7.4h0.6v-0.4h-0.4l-0.8-0.8V824h-0.4v0.4l-7.4,7.4l-2-2.4l8.8-8.8l-6-6l-8.8,8.8l-8.4-9.8l13.8-14.2V799
			l-0.8-0.8h-0.4l-14.2,14.2l-0.8-0.8v-0.4l-8.6-6.8l-8.8-10.8l1.6-1.6l5.8,5.8l1.4-1.4l-5.8-5.8l5.4-5.4l7.4,7.4l1.4-1.4l-7.4-7.4
			l9.4-9.2l7.2,7.2l1.6-1.2l-7.2-7.2l10.2-10l0.8-0.6l13.6,13.6l2-2l-13.4-13.4l8.6-6.8L1332,768l1.6-1.6l-13.6-13.6l9.4-6l8.8,8.8
			l1.6-1.8l-8.4-8.4l4.8-3l9.6,7l1-1.6l-9-6.6l2.6-1.6l5.8,3.6c0.4,0.2,1,0.4,1.4,0.4c1,0,1.8-0.4,2.2-1.2c0.8-1.2,0.4-2.8-0.8-3.6
			l-3.6-2.4l-51.4-31.2h-2l-0.4,0.4l-14-8l-22.6-12.2l23.6-38.6l50.6,32.2l-3.6,5.6l23,14l1.2-2.4l-19.2-11.8l10.8-17.6l4.2,2.8
			l0.8-1.2l-4.4-2.8l2.6-4.2l4.6,3l0.8-1.2l-4.6-3V660l2-3l9.6,6.4l0.8-1.2l-9.6-6.4l2.2-3.4l10.6,7l0.8-1.2l-10.6-7l11.2-17.8
			l8.6,5.8l0.8-1.2l-8.6-5.8l3.2-5l10,6.6l0.8-1.2l-10-6.6l2.2-3.6l9.8,5.8l0.8-1.2l-9.8-5.6l7.2-11.2l13.4,6.6l27.8,19.4l29.8,16.6
			l0,0l0,0h220.4V652.4z"/>
		<path d="M1669,1081.8c-1.4-0.2-2.8,0.8-3,2.4c-0.2,1.4,0.8,2.8,2.4,3c0.2,0,21.6,2.6,21.6,14.8v231.4c0.2,4.8,1.2,9.6,3,14
			c3.6,9.2,12.4,15.2,22.2,15.4h0.2c1.4,0,2.4-1,2.6-2.4s-1-2.8-2.4-3l0,0c-20-1.2-20.2-23.2-20.2-24v-231.6
			C1695.4,1085,1670.2,1082,1669,1081.8z"/>
		<path d="M2031,1008.4l-97.2-66.8l-13,1.4l-8.6,2.2l-25.8,10.8l-30.2,13l-2.2,4.2h-2l-23.6,8.2V793.8l31-1.2l8-26.4l-23,2
			l-2.8-25.4h-64.4l-139,58.6l0,0l-0.2,0.2l-32,38.4l0.4,1.2l15.4,12.8h0.8l31.8-38.2l13.4,11l24,41v36.8l1,99
			c-1.4,0-2.6,1.4-2.6,2.8l1.6,33.4c0,1.4,1.2,2.6,2.6,2.6l0,0c1.4,0,2.6-1.4,2.6-2.8l-1.2-32l131,0.8l16.8,40l0.4,278.2
			l-83.2,118.8l-65.4,0.4V1420c0-9-5.4-12.8-8.6-15l-0.4-0.2c-5-3.6-16.6-5.6-17-5.8c-1.2-0.2-2.4,0.6-2.8,2s0.6,2.4,2,2.8
			c3,0.6,11.6,2.4,15,5l0.4,0.4c3,2,6.6,4.8,6.6,11.2v45.8l-0.4,1l-4,2.6l-2.6,2.6l-1.4,1.4l-4,5.4l-2.2,6.6l-1.6,7l-0.4,6.6
			l-0.4,8.2l0.4,10.4l-0.4,4.6l0.4,5.4v41l2.4,5.4l6.2,11.8l7.6,7.6l12,9.2h76l5.8,0.6l4-1.4l2.6-2.4l6-15.2l21-20l32-12l15-3.6
			v11.8h-3.4v6.6h13.4v-6.6h-3.4V1548l21-2.4l4,1.4l14.8-1.4l57.4-8l0.2-2l25.2-3.2l26.8-2.6l2.6,1.4l8-2.6l1.6,0.4l-11.4,8l2.4,3.2
			l14.6-10.4l11.8-1.2l-0.8-6.2l-2-16.2v-6.4l6.4-34.4v-4.4l-7.4-24.6l-21.2,5.6l-1.2-4.4l21-5.6l-8.6-29l-2.2-6.4h-6.4l-6.4-2.2
			l-0.2-0.2l-4.4,2.2l-4.8,5l-1.8,3.4l-6,35.4l-2.2,19.8l0.4,1.4l19.2,41.4l-5,2.2l-19.4-41.8l-0.6-2.8l2.8-21.6l-3.8-0.6l3.2-23.2
			h4.6l2-12.4l2.4-4.8l6-6.4l5.2-2.8l-3.8-7.6h-4.4l-6.4-8.6v-2.2l6.4-4.4l21.4-86l34.4,9.2l8.4-37.2l-2.2-23.6L2031,1008.4z"/>
		<polygon points="2025.8,1548.8 2021.8,1549.4 2024.2,1566.8 2028.2,1566.2 		"/>
		<polygon points="1777.2,742.4 1777.4,742.4 1668.8,652.4 1668.8,652.4 1668.8,652.4 1448,652.4 1470,666.4 1479,672.6 
			1496.4,683.4 1504.4,690 1519,702 1505.6,718 1511,722 1524.4,706 1548.4,726.8 1535.2,742.8 1539.8,746.6 1553,730.8 1580,753 
			1576.2,758 1578.2,759.6 1582.4,754.6 1598.2,768 1587,781.6 1589.4,783.6 1600.6,770 1614.2,781.4 1603,795.4 1605.2,797.2 
			1616.4,783.2 1638,801 1777,742.4 		"/>
	</g>
	<g class="st40">
		<polygon points="1250.4,269.8 1244,267.8 1239.6,267.8 1233.2,263.4 1209.6,323.8 1275.2,352.6 1274.2,349.6 1274.2,345.2 
			1272,338.8 1272,334.4 1269.8,330.2 1267.6,325.8 1265.6,321.6 1263.4,317.2 1261.2,313 1259,308.6 1257,302.2 1254.8,296.2 
			1254.8,274.2 		"/>
		<polygon points="2124,1163 2118.8,1160.4 2121.4,1147.2 2126.6,1136.6 2129.2,1126 2129.2,1120.8 2124,1115.6 2121.4,1102.4 
			2113.4,1091.8 2110.8,1083.8 2102.8,1081.2 2100,1078.4 2092,1073.2 2092,1065.2 2089.4,1062.6 2092,1052 2097.4,1049.4 
			2102.6,1046.8 2105.2,1044 2105.2,1036 2102.6,1030.8 2102.6,1022.8 2100,1017.6 2097.4,1009.6 2097.4,1001.6 2092,993.6 
			2086.8,990.8 2078.8,985.6 2073.6,980.4 2073.6,951.2 2068.4,940.2 2068.4,936.8 2065.6,930.2 2063,919.6 2063,866.8 
			2060.4,858.8 2060.4,850.8 2065.6,845.4 2070.8,837.4 2078.8,821.6 2078.8,811 2076.2,803 2078.8,795 2078.8,758 2068.4,750 
			2052.4,747.4 2034,742.2 2007.6,736.8 1975.8,734.2 1957.4,736.8 1954.8,742.2 1954.8,758 1952.2,768.6 1946.8,781.8 1944.2,795 
			1941.6,813.4 1939,832 1933.6,840 1920.4,850.6 1917.8,858.6 1915.2,871.8 1904.6,885 1894,895.4 1883.4,890.2 1872.8,874.4 
			1864.8,866.4 1859.6,858.4 1857,850.4 1862.2,816 1859.6,792.4 1828.6,793.6 1828.6,884.8 1891.6,906.4 1902.6,895.6 1916.2,882 
			1916.2,876.6 1918.8,868.4 1921.6,863 1927,863 1927,871.2 1929.6,876.6 1935.2,879.2 1951.4,882 1956.8,879.2 1962.4,873.8 
			1962.4,860.2 1978.6,767.8 2057.6,767.8 2068.4,827.6 2044,860.2 2038.4,873.8 2030.4,882 2014,903.8 2017,933.4 2073,1228.4 
			2118.2,1219.8 2136.8,1217.6 2139.4,1209.6 2139.4,1199 2144.8,1193.8 2145.2,1181.6 2134.6,1173.6 		"/>
		<polygon points="2007.6,1397.8 2005.2,1402.8 2003.2,1415 1998.6,1415 1995.4,1438.2 1999.2,1438.8 2004.6,1439.8 2010.4,1404.4 
			2012.2,1401 2016.8,1396 2021.2,1393.8 2021.4,1394 2027.8,1396.2 2034.2,1396.2 2036.4,1402.6 2053.6,1460.8 2053.6,1465.2 
			2047.2,1499.6 2047.2,1506 2049.2,1522.2 2050,1528.4 2086.6,1520.8 2086.6,1506.2 2084,1487 2081.4,1471 2081.4,1456.8 
			2084,1442 2086.6,1426.2 2084,1415.6 2081.4,1402.2 2076,1394.6 2070.8,1392 2060.2,1389.2 2055,1381.2 2052.2,1376 
			2052.2,1357.2 2055,1349.8 2057.6,1341.8 2062.8,1336.4 2076,1331.2 2081.4,1328.6 2089.4,1310 2094.6,1296.8 2032,1280 
			2017,1340.2 2010.6,1366 2004.2,1370.4 2004.2,1372.6 2010.6,1381.2 2015,1381.2 2018.8,1388.8 2013.6,1391.6 		"/>
	</g>
	<g class="st40">
		<polygon points="1722.4,317.2 1709.2,306.6 1696,296 1690.6,296 1680,288 1669.6,277.4 1661.6,274.8 1656.4,269.6 1648.4,272.2 
			1635.2,264.2 1629.4,272 1625,278.6 1620.8,285 1612.2,291.4 1603.6,295.8 1590.6,297.8 1590.6,304 1599.2,310.8 1610,321.6 
			1616.4,313 1625,313 1625,317.2 1633.6,317.2 1633.6,310.8 1638,306.6 1663.8,325.8 1661.8,330.2 1668.2,334.4 1674.6,325.8 
			1687.6,336.6 1676.8,349.6 1681.2,353.8 1685.4,349.6 1702.6,366.8 1741.4,394.8 1737,399 1752.2,409.8 1711.2,457.2 
			1685.4,489.6 1668.2,511 1653.2,530.4 1648.8,537 1648.8,539 1810.4,668.4 1823.2,679 1836.2,692 1851.2,709.2 1862.4,726.8 
			1862,748 1866.2,748 1866.2,758.8 1872.8,758 1877.4,753 1883.2,753 1891.2,750.4 1897.8,749 1904.4,747.6 1909.8,745 
			1912.4,742.4 1917.8,737.2 1915,731.8 1909.8,726.6 1904.4,718.6 1901.8,708 1899.2,700 1894,697.2 1891.2,694.6 1886,694.6 
			1880.6,689.2 1878,684 1865,671 1849.2,655 1846.4,649.8 1849.2,644.6 1846.4,636.6 1838.4,631.2 1822.6,620.6 1814.6,607.4 
			1812,594.2 1817.6,589.6 1830.8,587 1844,587 1854.6,592.2 1867.8,592.2 1881,597.6 1891.6,584.4 1902.2,568.4 1896.8,558 
			1896.4,542 1889,542 1878.4,531.6 1865.2,505 1854.6,476 1846.6,449.6 1844,430.8 1844,418 1841.4,404.8 1830.8,396.8 1815,381 
			1799.2,373 1796.4,365 1788.4,367.6 1780.4,362.2 1775.2,359.6 1764.6,354.4 1762,346.4 1759.2,346.4 1754,351.6 1743.6,351.6 
			1735.6,343.6 1730.4,332.8 1730.4,325.2 		"/>
		<polygon points="1226.8,261.2 1220.2,259 1211.6,259 1205.2,257 1196.6,254.8 1190.2,250.4 1166.4,306.4 1133.8,377.6 1132,381.8 
			1132,385.8 1134.2,388.4 1278.4,453 1282.8,455 1300,455 1308.6,457.2 1310.8,459.4 1336.6,461.6 1336.6,459.4 1356,459.4 
			1358,414.2 1360.2,409.8 1362.4,407.6 1363.2,360 1356.6,362.6 1336.6,368.8 1332.2,371 1328,373.2 1323.6,375.4 1319.4,377.6 
			1308.6,377.6 1302.2,375.4 1295.6,373.2 1289.2,371 1282.8,366.8 1280.6,364.6 1278.4,360.2 1276.2,356 1275,352.4 1209.6,323.6 
			1233.2,263.4 		"/>
		<polygon points="1999.2,1438.8 1996.4,1460.4 1997,1463.2 2016.4,1505 2021.4,1502.6 2002.2,1461.4 2001.8,1460 2004.4,1439.6 		
			"/>
		<polygon points="2118,1220 2072.8,1228.6 2075,1252.2 2066.2,1289.4 2094.4,1297 2099.8,1283.8 2102.4,1275.8 2110.4,1267.8 
			2121,1265.2 2129,1257.2 2134.2,1246.6 2136.8,1238.6 2136.8,1228 2136.8,1217.8 		"/>
		<polygon points="1921.6,863 1918.8,868.4 1916.2,876.6 1916.2,882 1902.6,895.6 1891.6,906.4 1828.6,884.8 1828.6,907.8 
			1858.8,917 1863,921.4 1865.2,925.6 1863,953.6 1861,958 1852.4,964.4 1852.4,973 1854.4,973 1856.6,968.8 1886.8,955.8 
			1912.6,945 1921.2,942.8 2017,933.2 2014,903.8 2030.4,882 2038.4,873.8 2043.8,860.2 2068.4,827.6 2057.4,767.8 1978.6,767.8 
			1962.4,860.2 1962.4,873.8 1956.8,879.2 1951.4,882 1935.2,879.2 1929.8,876.6 1927,871.2 1927,863 		"/>
	</g>
	<g class="st40">
		<polygon points="1828.6,907.8 1828.6,981.2 1852.2,973 1852.2,964.4 1861,958 1863,953.6 1865.2,925.6 1863,921.4 1858.8,917 		
			"/>
		<polygon points="1418.4,341 1416.4,342.4 1416.4,345.2 1414.2,351.6 1412,356 1403.4,360.2 1396.4,362.6 1389.8,362.6 1384,360.2 
			1382,358.2 1373.4,356 1363.4,360 1362.4,407.6 1360.4,409.8 1358.2,414.2 1356,459.4 1551.6,453.6 1538.2,468.8 1542,547.2 
			1777.4,742.6 1841.8,742.6 1844.6,768 1867.6,766 1872.8,758 1866.4,758.8 1866.4,748 1862,748 1862.4,726.8 1851.2,709.2 
			1836.2,692 1823.2,679 1648.8,539 1648.8,537 1711.2,457.2 1752.2,409.8 1737,399.2 1741.4,394.8 1702.6,366.8 1685.4,349.6 
			1681,353.8 1676.8,349.6 1687.6,336.6 1674.6,325.8 1668.2,334.4 1661.6,330.2 1663.8,325.8 1638,306.6 1633.6,310.8 
			1633.6,317.2 1625,317.2 1625,313 1616.4,313 1610,321.6 1599.2,310.8 1590.6,304 1590.6,297.8 1586.4,297.8 1582,300 
			1575.6,302.2 1569.2,302.2 1567,297.8 1562.6,300 1556.2,304.4 1552,304.4 1549.8,302.2 1547.6,297.8 1547.6,293.6 1545.4,291.4 
			1543.2,293.6 1543.2,313 1547.6,328 1552,336.6 1554.2,342.2 1554.2,351.8 1549.8,354 1543.4,354 1541.2,348 1541.2,341 
			1539,332.4 1537,328 1532.6,321.6 1526.2,315 1519.6,310.8 1513.2,306.6 1509,306.6 1506.8,308.6 1506.8,313 1511,317.2 
			1524,325.8 1530.2,332.4 1532.4,338.8 1530.2,343 1528.2,347.4 1521.6,351.8 1510.8,353.8 1502.2,356 1478.6,356 1472.2,351.8 
			1470,347.4 1468,343 1461.6,341 1457.2,341 1448.6,343 1431.4,349.6 1425,351.8 1420.6,349.2 1420.6,345.2 		"/>
		<polygon points="1086.8,58.8 1082.4,56.6 1078.2,50.2 1076,52.4 1076,56.6 1078.2,63.2 1078.2,108.2 1080.4,114.8 1083,116.8 
			1088.6,118.8 1098.2,118.8 1103.6,119.4 1107.8,123.6 1110,128 1112.2,132.4 1114.2,141 1116.4,149.6 1116.4,158.2 1118.6,169 
			1125,179.6 1125,186.2 1129.4,192.6 1129.4,198.6 1127.2,205.6 1127.2,214.2 1129.4,220.8 1129.4,225 1127.2,229.4 1125,233.6 
			1125,246.6 1123,250.8 1118.6,253 1118.6,255.2 1120.8,261.8 1120.8,268 1118.6,272.4 1116.4,276.8 1114.2,281 1114.2,288.6 
			1120.4,298.6 1132,302 1150.4,302 1153.8,308 1159.8,308 1166.4,306.6 1190.2,250.4 1188,248.4 1185.8,246.2 1183.6,243.6 
			1183.6,239.6 1181.6,237.6 1179.4,235.4 1177.2,233.2 1175,231 1173,226.8 1168.6,222.4 1166.4,218.2 1162.2,211.6 1162.2,166.4 
			1160,160 1157.8,155.8 1160,151.4 1166.4,146.6 1166.4,142.8 1162.2,138.4 1157.8,134.2 1153.6,134.2 1147,132 1142.8,127.8 
			1138.4,121.2 1136.4,112.6 1134.2,106.2 1132,99.8 1125.6,97.6 1121.2,95 1121.2,80.4 1117,78.2 1112.6,78.2 1108.4,78.6 
			1101.8,78.2 1097.6,76 1093.2,74 1091,69.6 1091,63.2 		"/>
		<polygon points="894.8,258.2 893.8,250.6 866.8,164.6 792.2,111 778.8,95.6 776.8,82.2 773,70.8 771,57.4 776.8,51.6 782.6,57.4 
			786.4,67 792,72.6 798,72.4 796,66 794,57.6 794,13.6 796,5.2 796,0 635.4,0 732.8,309 		"/>
		<polygon points="512.4,0 488.4,0 490.6,6.8 		"/>
		<polygon points="2017,933.2 1934.2,941.6 2031.2,1008.6 		"/>
		<polygon points="2024,1437.4 2025.2,1441.8 2046.4,1436.2 2045,1431.8 		"/>
	</g>
</g>
</svg>
