<svg xmlns="http://www.w3.org/2000/svg" width="143.788" height="113.304" viewBox="0 0 143.788 113.304">
  <g id="Group_4248" data-name="Group 4248" transform="translate(-521 -537.999)" style="mix-blend-mode: multiply;isolation: isolate">
    <g id="Group_4245" data-name="Group 4245" transform="translate(99.705 -98.68)">
      <path id="Path_559" data-name="Path 559" d="M520.833,658.672,482.5,636.679l-36.042,20.278L484.7,679.411Z" fill="#e5e4e4"/>
      <path id="Path_563" data-name="Path 563" d="M520.833,658.672,484.7,679.411l7.413,29.464L536.6,683.229Z" fill="#aeaead"/>
      <path id="Path_564" data-name="Path 564" d="M520.743,662.308l-33.21,19.436,6.661,24.845,40-23.261Z" fill="#c9c9c9"/>
      <path id="Path_566" data-name="Path 566" d="M535.1,680.631l-43.7,25.554,1.968,8.352,46.379-28.1Z" fill="#aeaead"/>
      <path id="Path_567" data-name="Path 567" d="M503.15,718.613l-11.109,5.5,1.143,9.079,12.8-7.414Z" fill="#878189"/>
      <path id="Path_568" data-name="Path 568" d="M516.059,741.449c0-5.488-3.882-12.173-8.665-14.935a6.852,6.852,0,0,0-5.1-1.04c-.308.077-4.956,2.653-5.068,2.738-1.294.99-1.922,2.707-1.922,5.172,0,5.488,3.874,12.173,8.657,14.935a6.618,6.618,0,0,0,5.384.951c.447-.15,4.822-2.43,5.634-3.659A7.46,7.46,0,0,0,516.059,741.449Z" fill="#7c7c7b"/>
      <path id="Path_569" data-name="Path 569" d="M494.354,733.856c0,5.488,3.874,12.177,8.657,14.938s8.661.547,8.661-4.937-3.878-12.173-8.661-14.935S494.354,728.368,494.354,733.856Z" fill="#818180"/>
      <path id="Path_570" data-name="Path 570" d="M503.012,731.834c-3.381-1.949-6.116-.389-6.116,3.489a13.478,13.478,0,0,0,6.116,10.556c3.381,1.949,6.119.389,6.119-3.489A13.476,13.476,0,0,0,503.012,731.834Zm.139,13.151a12.278,12.278,0,0,1-5.576-9.612c0-3.531,2.5-4.952,5.576-3.177a12.3,12.3,0,0,1,5.573,9.612c0,3.532-2.5,4.953-5.574,3.178Z" fill="#cdcbcf"/>
      <path id="Path_582" data-name="Path 582" d="M437.606,675.635l-11.11,5.493,1.021,9.073,12.918-7.408Z" fill="#878189"/>
      <path id="Path_583" data-name="Path 583" d="M449.011,703.615c0-5.488-3.874-12.173-8.657-14.935a6.874,6.874,0,0,0-5.1-1.04c-.308.081-4.956,2.653-5.068,2.738-1.3.99-1.918,2.711-1.918,5.176,0,5.488,3.874,12.173,8.657,14.935a6.654,6.654,0,0,0,5.388.951c.443-.146,4.818-2.434,5.634-3.662A7.482,7.482,0,0,0,449.011,703.615Z" fill="#7c7c7b"/>
      <path id="Path_584" data-name="Path 584" d="M427.312,696.02c0,5.488,3.874,12.173,8.657,14.935s8.657.551,8.657-4.937-3.874-12.173-8.657-14.935S427.312,690.536,427.312,696.02Z" fill="#818180"/>
      <path id="Path_585" data-name="Path 585" d="M435.971,694c-3.381-1.953-6.119-.389-6.119,3.489a13.476,13.476,0,0,0,6.119,10.552c3.381,1.952,6.116.393,6.116-3.489A13.466,13.466,0,0,0,435.971,694Zm.139,13.151a12.285,12.285,0,0,1-5.576-9.612c0-3.531,2.5-4.956,5.576-3.181a12.279,12.279,0,0,1,5.569,9.612C441.679,707.507,439.191,708.928,436.11,707.153Z" fill="#cdcbcf"/>
      <path id="Path_597" data-name="Path 597" d="M564.187,709.4l-44.68,25.886-4.834,8.251,44.677-25.886Z" fill="#706e71"/>
      <path id="Path_599" data-name="Path 599" d="M565.066,702.756l-44.62,25.884-.879,6.765,44.638-26.011Z" fill="#929191"/>
      <path id="Path_600" data-name="Path 600" d="M565.011,702.162l-45.172,24.656.4,2.007,44.844-26.062Z" fill="#b2aeb4"/>
      <path id="Path_601" data-name="Path 601" d="M537.3,683.782l-45.841,25.041,28.831,19.351,44.681-25.931Z" fill="#e5e4e4"/>
      <path id="Path_602" data-name="Path 602" d="M422.624,671.958l-1.329,4.525,4.383,12.666,1.8,1.04c1.363-3.624,5.03-4.664,9.343-2.172,5.472,3.158,9.913,10.814,9.913,17.1,0,.077-.008.154-.008.235l.385,1.275,45.579,26.312.554.258c-.039-.427-.062-.851-.062-1.263,0-6.285,4.44-8.811,9.917-5.653,5.238,3.027,9.52,10.171,9.886,16.282l1.8,1.04,5.072-8.434.593-6.578Z" fill="#aeaead"/>
      <path id="Path_612" data-name="Path 612" d="M520.293,728.089l-28.054-19.8-67.156-38.318-2.46,1.981,97.8,56.719Z" fill="#aeaead"/>
      <path id="Path_615" data-name="Path 615" d="M484.7,679.411l7.413,29.464-67.026-38.9,21.376-13.019Z" fill="#aeaead"/>
      <path id="Path_613" data-name="Path 613" d="M482.931,681.359l-29.619-17.1-15.706,11.376,50.729,29.723.9-2.211Z" fill="#c9c9c9"/>
      <path id="Path_620" data-name="Path 620" d="M468.216,672.965l-.855-.525L463.8,691.413l.943.663Z" fill="#e3e2e2"/>
    </g>
  </g>
</svg>
