<svg xmlns="http://www.w3.org/2000/svg" xmlns:xlink="http://www.w3.org/1999/xlink" width="469.344" height="340.001" viewBox="0 0 469.344 340.001">
  <defs>
    <linearGradient id="linear-gradient" x1="-15.96" y1="2.482" x2="-15.961" y2="2.48" gradientUnits="objectBoundingBox">
      <stop offset="0" stop-color="#71888c"/>
      <stop offset="1" stop-color="#5d7277"/>
    </linearGradient>
    <linearGradient id="linear-gradient-2" x1="-58.955" y1="5.402" x2="-58.965" y2="5.391" gradientUnits="objectBoundingBox">
      <stop offset="0" stop-color="#47494a"/>
      <stop offset="0.512" stop-color="#7e7d7d"/>
      <stop offset="0.606" stop-color="#797978"/>
      <stop offset="0.723" stop-color="#6b6b6a"/>
      <stop offset="0.853" stop-color="#565757"/>
      <stop offset="0.991" stop-color="#3e4040"/>
      <stop offset="1" stop-color="#3c3e3e"/>
    </linearGradient>
    <linearGradient id="linear-gradient-3" x1="-14.316" y1="1.62" x2="-14.317" y2="1.618" xlink:href="#linear-gradient"/>
    <linearGradient id="linear-gradient-4" x1="-12.262" y1="2.188" x2="-12.263" y2="2.186" gradientUnits="objectBoundingBox">
      <stop offset="0" stop-color="#afc1c2"/>
      <stop offset="0.038" stop-color="#bbccca"/>
      <stop offset="0.132" stop-color="#d0dcdc"/>
      <stop offset="0.24" stop-color="#e2eaeb"/>
      <stop offset="0.372" stop-color="#ecf5f5"/>
      <stop offset="0.6" stop-color="#f0f8f9"/>
      <stop offset="0.619" stop-color="#e7eeef"/>
      <stop offset="0.692" stop-color="#cdd8d9"/>
      <stop offset="0.772" stop-color="#bcc"/>
      <stop offset="0.865" stop-color="#b2c4c3"/>
      <stop offset="1" stop-color="#afc1c1"/>
    </linearGradient>
    <linearGradient id="linear-gradient-5" x1="-51.999" y1="2.114" x2="-51.996" y2="2.106" gradientUnits="objectBoundingBox">
      <stop offset="0" stop-color="#a1b4b7"/>
      <stop offset="0.374" stop-color="#9ab0b1"/>
      <stop offset="1" stop-color="#90aaac"/>
    </linearGradient>
    <linearGradient id="linear-gradient-6" x1="-75.337" y1="3.209" x2="-75.343" y2="3.218" gradientUnits="objectBoundingBox">
      <stop offset="0" stop-color="#1e2224"/>
      <stop offset="1" stop-color="#1b1f21"/>
    </linearGradient>
    <clipPath id="clip-path">
      <path id="SVGID" d="M471.686,311.727a2.876,2.876,0,0,0,1.38-2.95l-6.876-40.852a2.343,2.343,0,0,0-2.313-2.037c-3.437-.043-9.23,2.122-15.449,5.73-10.228,5.9-18.186,13.518-19.714,18.633a5.569,5.569,0,0,0-.107,2.44l6.3,36.013a2.853,2.853,0,0,0,4.243,1.974Z" transform="translate(-428.52 -265.887)" fill="none"/>
    </clipPath>
    <linearGradient id="linear-gradient-7" x1="-78.783" y1="5.467" x2="-78.782" y2="5.464" gradientUnits="objectBoundingBox">
      <stop offset="0" stop-color="#f9b424"/>
      <stop offset="0.167" stop-color="#eea422"/>
      <stop offset="0.725" stop-color="#d5761e"/>
      <stop offset="0.995" stop-color="#cc661d"/>
    </linearGradient>
    <linearGradient id="linear-gradient-8" x1="-86.784" y1="7.01" x2="-86.787" y2="7.024" gradientUnits="objectBoundingBox">
      <stop offset="0" stop-color="#272e30"/>
      <stop offset="1" stop-color="#272e2f"/>
    </linearGradient>
    <linearGradient id="linear-gradient-9" x1="-45.01" y1="5.314" x2="-45.008" y2="5.296" xlink:href="#linear-gradient-6"/>
    <linearGradient id="linear-gradient-10" x1="-18.202" y1="2.718" x2="-18.202" y2="2.711" xlink:href="#linear-gradient-6"/>
    <linearGradient id="linear-gradient-11" x1="-141.613" y1="5.179" x2="-141.592" y2="5.146" xlink:href="#linear-gradient-6"/>
    <linearGradient id="linear-gradient-12" x1="-358.26" y1="4.166" x2="-359.918" y2="4.145" xlink:href="#linear-gradient"/>
    <linearGradient id="linear-gradient-13" x1="-137.159" y1="6.116" x2="-137.138" y2="6.083" xlink:href="#linear-gradient-6"/>
    <linearGradient id="linear-gradient-14" x1="-262.79" y1="5.264" x2="-264.448" y2="5.244" xlink:href="#linear-gradient"/>
    <linearGradient id="linear-gradient-15" x1="-144.092" y1="8.81" x2="-144.08" y2="8.764" xlink:href="#linear-gradient-6"/>
    <linearGradient id="linear-gradient-16" x1="-42.287" y1="6.958" x2="-42.285" y2="6.941" xlink:href="#linear-gradient-6"/>
    <linearGradient id="linear-gradient-17" x1="-17.094" y1="3.593" x2="-17.094" y2="3.586" xlink:href="#linear-gradient-6"/>
    <linearGradient id="linear-gradient-18" x1="-133.048" y1="6.987" x2="-133.027" y2="6.954" xlink:href="#linear-gradient-6"/>
    <linearGradient id="linear-gradient-19" x1="-174.297" y1="6.282" x2="-175.955" y2="6.261" xlink:href="#linear-gradient"/>
    <linearGradient id="linear-gradient-20" x1="-128.626" y1="7.923" x2="-128.605" y2="7.89" xlink:href="#linear-gradient-6"/>
    <linearGradient id="linear-gradient-21" x1="-78.805" y1="7.381" x2="-80.463" y2="7.36" xlink:href="#linear-gradient"/>
    <linearGradient id="linear-gradient-22" x1="0.556" y1="0.333" x2="0.439" y2="0.667" gradientUnits="objectBoundingBox">
      <stop offset="0" stop-color="#bececf"/>
      <stop offset="0.038" stop-color="#c8d6d6"/>
      <stop offset="0.132" stop-color="#dae4e5"/>
      <stop offset="0.24" stop-color="#e8eff0"/>
      <stop offset="0.372" stop-color="#f0f7f8"/>
      <stop offset="0.6" stop-color="#f3fafb"/>
      <stop offset="0.619" stop-color="#ecf2f3"/>
      <stop offset="0.692" stop-color="#d7e1e2"/>
      <stop offset="0.772" stop-color="#c8d6d7"/>
      <stop offset="0.865" stop-color="#c0d0d0"/>
      <stop offset="1" stop-color="#becece"/>
    </linearGradient>
  </defs>
  <g id="Group_4542" data-name="Group 4542" transform="translate(-30.15 -28.331)">
    <g id="Group_4079" data-name="Group 4079" transform="translate(30.15 28.332)">
      <g id="Group_4057" data-name="Group 4057">
        <path id="Path_1796" data-name="Path 1796" d="M219.868,228.437,32.888,119.788l.026,9.282L219.868,237.718Z" transform="translate(-30.048 -24.926)" fill="#333536"/>
        <path id="Path_1797" data-name="Path 1797" d="M217.1,170.841,30.15,62.192l.079,61.319,186.98,108.675Z" transform="translate(-30.15 -27.071)" fill="url(#linear-gradient)"/>
        <path id="Path_2694" data-name="Path 2694" d="M156.25,135.758v61.265L183.3,213.505V151.694Z" transform="translate(-25.454 -24.331)" fill="#d90064" opacity="0.9" style="isolation: isolate"/>
        <path id="Path_2695" data-name="Path 2695" d="M60.313,79.56v61.265l27.049,16.482V95.5Z" transform="translate(-29.027 -26.424)" fill="#d90064" opacity="0.9" style="isolation: isolate"/>
        <path id="Path_1799" data-name="Path 1799" d="M262.926,199.254l-.079-61.345c-.026-8.309-13.147-4.918-26.242,2.655-13.121,7.572-26.215,19.3-26.189,27.609l.079,61.345,2.761-1.6v9.308l46.962-27.105-.053-9.282Z" transform="translate(-23.436 -24.431)" fill="#9bafb0"/>
        <path id="Path_1800" data-name="Path 1800" d="M262.926,197.969,213.335,167.6l-2.919,7.676.079,52.983,2.761-1.6v9.282l46.962-27.083-.053-9.282Z" transform="translate(-23.436 -23.145)" fill="#64797d" opacity="0.3" style="isolation: isolate"/>
      </g>
      <g id="Group_4058" data-name="Group 4058" transform="translate(189.873 111.62)">
        <path id="Path_1801" data-name="Path 1801" d="M266.346,198.466,213.231,167.6l-.026,57.318,53.141,30.818Z" transform="translate(-213.205 -134.765)" fill="#333536"/>
        <path id="Path_1802" data-name="Path 1802" d="M266.346,140.2l-6.021-3.5c-3.918-2.287-13.277.868-22.64,6.258-12.251,7.074-24.506,18.035-24.48,25.822l53.115,30.869V140.2Z" transform="translate(-213.205 -135.944)" fill="url(#linear-gradient-2)"/>
      </g>
      <g id="Group_4059" data-name="Group 4059" transform="translate(195.104 113.54)">
        <path id="Path_1803" data-name="Path 1803" d="M430.659,351.1,220.987,229.251l.026,9.308L430.659,360.407Z" transform="translate(-218.147 -134.389)" fill="#333536"/>
        <path id="Path_1804" data-name="Path 1804" d="M468.858,330.542l-45.753,26.4V348l45.753-26.4Z" transform="translate(-210.619 -130.949)" fill="#535657"/>
        <path id="Path_1805" data-name="Path 1805" d="M427.921,293.5,218.249,171.655,218.328,233,440.595,362.105Z" transform="translate(-218.249 -136.534)" fill="url(#linear-gradient-3)"/>
        <path id="Path_1806" data-name="Path 1806" d="M427.895,294.765c-.026-8.309,13.069-20.036,26.189-27.609,9.75-5.627,19.536-8.966,23.9-6.862.026,0,.026,0,0-.026Z" transform="translate(-218.249 -137.795)" fill="url(#linear-gradient-4)"/>
        <path id="Path_1807" data-name="Path 1807" d="M483.421,332.491a3.1,3.1,0,0,0,1.5-3.181l-12.253-69.755c-1.446-8.02-12.989-4.339-26.111,3.208-13.121,7.572-26.215,19.3-26.189,27.609l11.7,66.972a3.056,3.056,0,0,0,4.549,2.129Z" transform="translate(-210.721 -133.428)" fill="url(#linear-gradient-5)"/>
        <path id="Path_2696" data-name="Path 2696" d="M342.345,243.991v61.265l27.049,16.482V259.927Z" transform="translate(-213.627 -133.84)" fill="#d90064" opacity="0.9" style="isolation: isolate"/>
        <path id="Path_2697" data-name="Path 2697" d="M246.409,187.793v61.265l27.049,16.482V203.729Z" transform="translate(-217.2 -135.933)" fill="#d90064" opacity="0.9" style="isolation: isolate"/>
      </g>
      <path id="Path_1808" data-name="Path 1808" d="M478.411,329.593a3.427,3.427,0,0,0,1.644-3.514l-8.191-48.66a2.792,2.792,0,0,0-2.755-2.427c-4.1-.051-11,2.528-18.4,6.826-12.184,7.026-21.663,16.1-23.483,22.194a6.643,6.643,0,0,0-.127,2.906l7.508,42.9a3.4,3.4,0,0,0,3.934,2.76,3.363,3.363,0,0,0,1.121-.41Z" transform="translate(-15.37 -19.146)" fill="#d90064" opacity="0.9" style="isolation: isolate"/>
      <g id="Group_4061" data-name="Group 4061" transform="translate(413.207 246.403)">
        <path id="Path_1809" data-name="Path 1809" d="M471.686,311.727a2.876,2.876,0,0,0,1.38-2.95l-6.876-40.852a2.343,2.343,0,0,0-2.313-2.037c-3.437-.043-9.23,2.122-15.449,5.73-10.228,5.9-18.186,13.518-19.714,18.633a5.569,5.569,0,0,0-.107,2.44l6.3,36.013a2.853,2.853,0,0,0,4.243,1.974Z" transform="translate(-428.52 -265.887)" fill="url(#linear-gradient-6)"/>
        <g id="Group_4543" data-name="Group 4543">
          <g id="Group_4542-2" data-name="Group 4542" clip-path="url(#clip-path)">
            <g id="Group_4060" data-name="Group 4060" transform="translate(0.272 42.361)">
              <path id="Path_1810" data-name="Path 1810" d="M483.493,312.222l-45.2,26.082-9.507-5.475,45.18-26.1Z" transform="translate(-428.782 -306.727)" fill="#c7d2d2" opacity="0.2" style="isolation: isolate"/>
            </g>
          </g>
        </g>
      </g>
      <path id="Path_1821" data-name="Path 1821" d="M437.112,350.915a.842.842,0,0,1-.815-.684l-.236-1.288a.814.814,0,0,1,.394-.841l3.313-1.946a2.446,2.446,0,0,1,.421-.1.843.843,0,0,1,.815.684l.236,1.288a.817.817,0,0,1-.394.841l-3.313,1.946A2.472,2.472,0,0,1,437.112,350.915Zm37.916-22.2a.842.842,0,0,1-.815-.684l-.236-1.288a.814.814,0,0,1,.394-.841l3.34-1.946a2.451,2.451,0,0,1,.421-.1.843.843,0,0,1,.815.684l.236,1.288a.817.817,0,0,1-.394.841l-3.313,1.946a4.546,4.546,0,0,1-.443.109Z" transform="translate(-15.033 -17.326)" fill="#212829" opacity="0.4" style="isolation: isolate"/>
      <path id="Path_1822" data-name="Path 1822" d="M440.809,346.706l.236,1.288a.532.532,0,0,1-.263.552l-3.339,1.946a.526.526,0,0,1-.789-.368l-.236-1.288a.529.529,0,0,1,.263-.552l3.34-1.946a.52.52,0,0,1,.788.368Zm37.1-22.587-3.34,1.946a.574.574,0,0,0-.263.552l.236,1.288a.528.528,0,0,0,.789.368l3.336-1.95a.578.578,0,0,0,.263-.552l-.237-1.288a.541.541,0,0,0-.637-.423.521.521,0,0,0-.151.055Z" transform="translate(-15.019 -17.319)" fill="url(#linear-gradient-7)"/>
      <path id="Path_1823" data-name="Path 1823" d="M466.21,267.946a2.344,2.344,0,0,0-2.313-2.037c-3.438-.043-9.232,2.122-15.45,5.73-10.228,5.9-18.186,13.518-19.714,18.633a5.554,5.554,0,0,0-.106,2.44l.467,2.674,38.049-21.965Z" transform="translate(-15.313 -19.484)" opacity="0.9" fill="url(#linear-gradient-8)" style="isolation: isolate"/>
      <g id="Group_4074" data-name="Group 4074" transform="translate(200.18 159.276)">
        <g id="Group_4071" data-name="Group 4071">
          <path id="Path_1824" data-name="Path 1824" d="M294.433,249l-19.958-11.513a2.819,2.819,0,0,1-1.367-2.156v-23.8c0-.762.6-1.026,1.367-.579l19.958,11.513a2.823,2.823,0,0,1,1.367,2.156v23.8C295.8,249.161,295.168,249.425,294.433,249Zm24.4,14.067-19.958-11.513a2.819,2.819,0,0,1-1.367-2.156V225.6c0-.762.6-1.026,1.367-.579l19.958,11.513a2.823,2.823,0,0,1,1.367,2.156v23.8c0,.766-.606,1.03-1.368.583Zm24.4,14.1-19.958-11.513a2.819,2.819,0,0,1-1.367-2.156V239.7c0-.762.6-1.026,1.367-.579l19.958,11.513a2.823,2.823,0,0,1,1.367,2.156v23.8C344.6,277.35,344,277.612,343.234,277.166Z" transform="translate(-221.281 -180.814)" fill="url(#linear-gradient-9)"/>
          <path id="Path_1825" data-name="Path 1825" d="M244.467,220.155l-19.958-11.513a2.819,2.819,0,0,1-1.367-2.156v-23.8c0-.762.6-1.026,1.367-.579l19.958,11.513a2.823,2.823,0,0,1,1.367,2.156v23.8C245.834,220.34,245.229,220.6,244.467,220.155ZM396.9,308.163,376.938,296.65a2.819,2.819,0,0,1-1.367-2.156v-23.8c0-.762.6-1.026,1.367-.579L396.9,281.628a2.823,2.823,0,0,1,1.367,2.156v23.8c.027.766-.6,1.029-1.367.582Z" transform="translate(-223.142 -181.889)" fill="url(#linear-gradient-10)"/>
        </g>
        <g id="Group_4072" data-name="Group 4072" transform="translate(126.397 72.888)">
          <path id="Path_1826" data-name="Path 1826" d="M366.326,312.8l-19.958-11.513A2.819,2.819,0,0,1,345,299.133V252.957c0-.762.6-1.026,1.367-.579l19.958,11.513a2.823,2.823,0,0,1,1.367,2.156v46.147C367.693,312.987,367.088,313.249,366.326,312.8Z" transform="translate(-345.001 -252.16)" fill="url(#linear-gradient-11)"/>
          <path id="Path_1827" data-name="Path 1827" d="M355.523,255.86c-.262-.132-.5-.311-.762-.473v52.277c.342.158.709.311,1.052.473V255.992A3.028,3.028,0,0,0,355.523,255.86Z" transform="translate(-344.638 -252.04)" fill="url(#linear-gradient-12)"/>
        </g>
        <g id="Group_4073" data-name="Group 4073" transform="translate(26.005 14.961)">
          <path id="Path_1828" data-name="Path 1828" d="M269.538,256.955,249.58,245.442a2.819,2.819,0,0,1-1.367-2.156V197.11c0-.762.6-1.026,1.367-.579l19.958,11.513a2.822,2.822,0,0,1,1.37,2.161v46.147C270.908,257.14,270.3,257.4,269.538,256.955Z" transform="translate(-248.213 -196.313)" fill="url(#linear-gradient-13)"/>
          <path id="Path_1829" data-name="Path 1829" d="M258.735,200.017c-.263-.132-.5-.311-.762-.473v52.277c.342.158.71.311,1.052.473V200.145A2.987,2.987,0,0,0,258.735,200.017Z" transform="translate(-247.85 -196.192)" fill="url(#linear-gradient-14)"/>
        </g>
        <path id="Path_1830" data-name="Path 1830" d="M423.237,323.381l-19.958-11.513a2.819,2.819,0,0,1-1.367-2.156v-23.8c0-.762.6-1.026,1.367-.579l12.779,7.388a9.44,9.44,0,0,1,4.575,6.574l4,23.56C424.6,323.539,424,323.8,423.237,323.381Z" transform="translate(-216.484 -178.044)" fill="url(#linear-gradient-15)"/>
        <path id="Path_1831" data-name="Path 1831" d="M321.982,263.91c-.158.473-.658.6-1.288.263L300.736,252.66a2.819,2.819,0,0,1-1.367-2.156V226.7a.673.673,0,0,1,.578-.757.71.71,0,0,1,.106-.005,1.083,1.083,0,0,0-.079.311v23.8a2.777,2.777,0,0,0,1.367,2.156L321.3,263.718A1.488,1.488,0,0,0,321.982,263.91ZM296.9,249.632,276.94,238.119a2.819,2.819,0,0,1-1.367-2.156v-23.8a.9.9,0,0,1,.079-.311.673.673,0,0,0-.69.657.606.606,0,0,0,.006.106v23.8a2.777,2.777,0,0,0,1.367,2.156l19.958,11.513c.631.368,1.131.236,1.288-.262a1.489,1.489,0,0,1-.685-.186Zm-51.8-29.923-19.958-11.518a2.819,2.819,0,0,1-1.367-2.156V182.212a.9.9,0,0,1,.079-.311.673.673,0,0,0-.69.657.605.605,0,0,0,.006.106v23.792a2.777,2.777,0,0,0,1.367,2.156l19.959,11.517c.631.368,1.131.236,1.288-.262A.974.974,0,0,1,245.1,219.709Zm100.631,58.111L325.77,266.306a2.819,2.819,0,0,1-1.367-2.156V240.323a.9.9,0,0,1,.079-.311.673.673,0,0,0-.69.657.6.6,0,0,0,.006.106v23.8a2.777,2.777,0,0,0,1.367,2.156l19.958,11.513c.631.368,1.131.236,1.288-.262A1.136,1.136,0,0,1,345.728,277.819ZM430.5,326.777l-19.958-11.513a2.819,2.819,0,0,1-1.367-2.156v-23.8a.9.9,0,0,1,.079-.311.673.673,0,0,0-.69.657.6.6,0,0,0,.006.106v23.8a2.776,2.776,0,0,0,1.367,2.156L429.9,327.227c.631.368,1.131.236,1.288-.262a1.564,1.564,0,0,1-.686-.186Zm-32.973-19.064L377.571,296.2a2.819,2.819,0,0,1-1.367-2.156v-23.8a.9.9,0,0,1,.079-.311.673.673,0,0,0-.69.657.6.6,0,0,0,.006.106V294.49a2.777,2.777,0,0,0,1.367,2.156l19.958,11.513c.631.368,1.131.236,1.288-.262a1.211,1.211,0,0,1-.687-.181Z" transform="translate(-223.141 -181.888)" fill="#b3c1c1" opacity="0.9" style="isolation: isolate"/>
      </g>
      <g id="Group_4078" data-name="Group 4078" transform="translate(6.679 47.661)">
        <g id="Group_4075" data-name="Group 4075">
          <path id="Path_1832" data-name="Path 1832" d="M107.879,141.393,87.921,129.88a2.819,2.819,0,0,1-1.367-2.156V103.9c0-.762.6-1.026,1.367-.579l19.958,11.513a2.823,2.823,0,0,1,1.367,2.156v23.8C109.246,141.577,108.641,141.84,107.879,141.393Zm24.4,14.091-19.958-11.513a2.819,2.819,0,0,1-1.367-2.156v-23.8c0-.762.6-1.026,1.367-.579l19.958,11.513a2.822,2.822,0,0,1,1.367,2.157v23.8C133.674,155.671,133.042,155.907,132.28,155.484Zm24.428,14.1L136.75,158.067a2.819,2.819,0,0,1-1.367-2.156v-23.8c0-.762.6-1.026,1.367-.579l19.958,11.513a2.824,2.824,0,0,1,1.364,2.16V169C158.072,169.738,157.443,170.005,156.708,169.58Z" transform="translate(-34.728 -73.208)" fill="url(#linear-gradient-16)"/>
          <path id="Path_1833" data-name="Path 1833" d="M57.94,112.543,37.956,101.026a2.819,2.819,0,0,1-1.367-2.156V75.079c0-.762.6-1.026,1.367-.579L57.915,86.012a2.823,2.823,0,0,1,1.367,2.156v23.8C59.308,112.731,58.7,112.99,57.94,112.543Zm152.429,88.008-19.958-11.513a2.819,2.819,0,0,1-1.367-2.156v-23.8c0-.762.6-1.026,1.367-.579l19.958,11.513a2.823,2.823,0,0,1,1.367,2.156v23.8C211.738,200.734,211.131,201,210.369,200.551Z" transform="translate(-36.589 -74.282)" fill="url(#linear-gradient-17)"/>
        </g>
        <g id="Group_4076" data-name="Group 4076" transform="translate(126.423 72.909)">
          <path id="Path_1834" data-name="Path 1834" d="M179.8,205.193,159.84,193.679a2.819,2.819,0,0,1-1.367-2.156V145.37c0-.762.6-1.026,1.367-.579L179.8,156.3a2.825,2.825,0,0,1,1.37,2.161v46.147C181.168,205.374,180.534,205.637,179.8,205.193Z" transform="translate(-158.473 -144.573)" fill="url(#linear-gradient-18)"/>
          <path id="Path_1835" data-name="Path 1835" d="M169,148.248c-.262-.132-.5-.311-.762-.473v52.277c.342.158.709.311,1.052.473V148.406A2.785,2.785,0,0,1,169,148.248Z" transform="translate(-158.11 -144.453)" fill="url(#linear-gradient-19)"/>
        </g>
        <g id="Group_4077" data-name="Group 4077" transform="translate(26.032 14.988)">
          <path id="Path_1836" data-name="Path 1836" d="M83.012,149.369,63.054,137.856a2.822,2.822,0,0,1-1.368-2.16V89.529c0-.762.6-1.026,1.367-.579l19.959,11.512a2.823,2.823,0,0,1,1.367,2.156v46.147C84.378,149.528,83.747,149.792,83.012,149.369Z" transform="translate(-61.686 -88.732)" fill="url(#linear-gradient-20)"/>
          <path id="Path_1837" data-name="Path 1837" d="M72.183,92.4c-.263-.132-.5-.311-.762-.473v52.277c.342.158.709.311,1.052.473V92.562A2.915,2.915,0,0,0,72.183,92.4Z" transform="translate(-61.323 -88.613)" fill="url(#linear-gradient-21)"/>
        </g>
        <path id="Path_1838" data-name="Path 1838" d="M135.455,156.3c-.158.473-.658.6-1.288.262l-19.958-11.513a2.819,2.819,0,0,1-1.367-2.156v-23.8a.673.673,0,0,1,.578-.757.71.71,0,0,1,.106-.005,1.081,1.081,0,0,0-.079.311v23.8a2.777,2.777,0,0,0,1.367,2.154l19.958,11.513A1.222,1.222,0,0,0,135.455,156.3Zm-25.085-14.278L90.387,130.5a2.819,2.819,0,0,1-1.367-2.156v-23.8a.9.9,0,0,1,.079-.311.673.673,0,0,0-.69.657.6.6,0,0,0,.006.106v23.792a2.777,2.777,0,0,0,1.367,2.156l19.958,11.513c.631.368,1.131.236,1.288-.262A1.133,1.133,0,0,1,110.371,142.018ZM58.544,112.095,38.586,100.578a2.819,2.819,0,0,1-1.367-2.156v-23.8a.9.9,0,0,1,.079-.311.673.673,0,0,0-.69.657.6.6,0,0,0,.006.106V98.869a2.779,2.779,0,0,0,1.367,2.161l19.958,11.513c.631.368,1.131.236,1.288-.262A1.04,1.04,0,0,1,58.544,112.095Zm100.629,58.111-19.958-11.513a2.819,2.819,0,0,1-1.367-2.156v-23.8a.9.9,0,0,1,.079-.311.673.673,0,0,0-.69.657.6.6,0,0,0,.006.106v23.792a2.777,2.777,0,0,0,1.367,2.156l19.958,11.513c.631.368,1.131.236,1.288-.263a1.482,1.482,0,0,1-.684-.179ZM211,200.128l-19.958-11.513a2.819,2.819,0,0,1-1.367-2.156v-23.8a.9.9,0,0,1,.079-.311.673.673,0,0,0-.69.657.6.6,0,0,0,.006.106V186.9a2.777,2.777,0,0,0,1.367,2.156L210.4,200.572c.631.368,1.131.236,1.288-.262a1.409,1.409,0,0,1-.685-.182Z" transform="translate(-36.588 -74.281)" fill="#b3c1c1" opacity="0.9" style="isolation: isolate"/>
      </g>
      <path id="Path_2698" data-name="Path 2698" d="M429.074,295.116l38.049-21.964.871,5.348-38.017,21.864Z" transform="translate(-15.293 -19.214)" fill="#e0e0df"/>
      <path id="Path_2703" data-name="Path 2703" d="M50.29.808C46.118-1.632,36.12,1.727,26.121,7.5,13.053,15.032-.016,26.736.01,35.055l187.5,109.17c-.026-8.293,13.042-20,26.137-27.555,10-5.773,19.97-9.106,24.169-6.692Z" transform="translate(0.016 -0.004)" fill="url(#linear-gradient-22)"/>
      <path id="Path_2704" data-name="Path 2704" d="M50.29.808C46.118-1.632,36.12,1.727,26.121,7.5,13.053,15.032-.016,26.736.01,35.055l209.5,121.5c-.026-8.293,13.042-20,26.137-27.555,10-5.773,19.97-9.106,24.169-6.692Z" transform="translate(195.016 113.996)" fill="url(#linear-gradient-22)"/>
    </g>
    <g id="Group_4544" data-name="Group 4544" transform="translate(487.127 322.238)">
      <path id="Path_2699" data-name="Path 2699" d="M479.348,317.176l-7.528,6.942c-.549.506-1.1.344-1.1-.325v-4.931a1.933,1.933,0,0,1,.741-1.419l7.527-5.565c.516-.382.976-.179.976.428v3.555A1.936,1.936,0,0,1,479.348,317.176Z" transform="translate(-470.719 -311.685)" fill="#262829"/>
    </g>
    <g id="Group_4545" data-name="Group 4545" transform="translate(446.906 344.271)">
      <path id="Path_2700" data-name="Path 2700" d="M432.557,343.3l11.674-3.229a1.789,1.789,0,0,0,1.1-1.6v-4.931c0-.5-.315-.741-.74-.564l-11.674,4.607a1.858,1.858,0,0,0-.976,1.554V342.7C431.942,343.144,432.193,343.39,432.557,343.3Z" transform="translate(-431.942 -332.927)" fill="#262829"/>
    </g>
    <g id="Group_4546" data-name="Group 4546" transform="translate(449.158 347.304)">
      <path id="Path_2701" data-name="Path 2701" d="M434.521,342.739l7.749-2.143a1.187,1.187,0,0,0,.73-1.059v-3.274c0-.331-.21-.492-.492-.374l-7.748,3.058a1.233,1.233,0,0,0-.647,1.032v2.359C434.113,342.632,434.279,342.8,434.521,342.739Z" transform="translate(-434.113 -335.851)" fill="#ebf7fa"/>
    </g>
    <g id="Group_4547" data-name="Group 4547" transform="translate(490.062 325.82)">
      <path id="Path_2702" data-name="Path 2702" d="M478.284,318.152l-4.132,3.81c-.3.279-.6.19-.6-.177v-2.707a1.059,1.059,0,0,1,.407-.778l4.131-3.055c.283-.21.535-.1.535.235v1.95A1.063,1.063,0,0,1,478.284,318.152Z" transform="translate(-473.548 -315.138)" fill="#ebf7fa"/>
    </g>
  </g>
</svg>
