<svg xmlns="http://www.w3.org/2000/svg" xmlns:xlink="http://www.w3.org/1999/xlink" width="535.305" height="391.085" viewBox="0 0 535.305 391.085">
  <defs>
    <linearGradient id="linear-gradient" x1="-7.213" y1="2.482" x2="-7.214" y2="2.48" gradientUnits="objectBoundingBox">
      <stop offset="0" stop-color="#c5d4d6"/>
      <stop offset="1" stop-color="#96b7bf"/>
    </linearGradient>
    <linearGradient id="linear-gradient-2" x1="-5.691" y1="3.178" x2="-5.692" y2="3.176" gradientUnits="objectBoundingBox">
      <stop offset="0" stop-color="#afc1c2"/>
      <stop offset="0.038" stop-color="#bbccca"/>
      <stop offset="0.132" stop-color="#d0dcdc"/>
      <stop offset="0.24" stop-color="#e2eaeb"/>
      <stop offset="0.372" stop-color="#ecf5f5"/>
      <stop offset="0.6" stop-color="#f0f8f9"/>
      <stop offset="0.619" stop-color="#e7eeef"/>
      <stop offset="0.692" stop-color="#cdd8d9"/>
      <stop offset="0.772" stop-color="#bcc"/>
      <stop offset="0.865" stop-color="#b2c4c3"/>
      <stop offset="1" stop-color="#afc1c1"/>
    </linearGradient>
    <linearGradient id="linear-gradient-3" x1="-28.598" y1="5.402" x2="-28.608" y2="5.391" gradientUnits="objectBoundingBox">
      <stop offset="0" stop-color="#47494a"/>
      <stop offset="0.512" stop-color="#7e7d7d"/>
      <stop offset="0.606" stop-color="#797978"/>
      <stop offset="0.723" stop-color="#6b6b6a"/>
      <stop offset="0.853" stop-color="#565757"/>
      <stop offset="0.991" stop-color="#3e4040"/>
      <stop offset="1" stop-color="#3c3e3e"/>
    </linearGradient>
    <linearGradient id="linear-gradient-4" x1="-5.758" y1="1.62" x2="-5.759" y2="1.618" xlink:href="#linear-gradient"/>
    <linearGradient id="linear-gradient-5" x1="-22.33" y1="5.314" x2="-22.329" y2="5.296" gradientUnits="objectBoundingBox">
      <stop offset="0" stop-color="#1e2224"/>
      <stop offset="1" stop-color="#1b1f21"/>
    </linearGradient>
    <linearGradient id="linear-gradient-6" x1="-8.862" y1="2.718" x2="-8.862" y2="2.711" xlink:href="#linear-gradient-5"/>
    <linearGradient id="linear-gradient-7" x1="-72.42" y1="5.179" x2="-72.399" y2="5.146" xlink:href="#linear-gradient-5"/>
    <linearGradient id="linear-gradient-8" x1="-336.65" y1="4.166" x2="-338.308" y2="4.145" gradientUnits="objectBoundingBox">
      <stop offset="0" stop-color="#71888c"/>
      <stop offset="1" stop-color="#96b7bf"/>
    </linearGradient>
    <linearGradient id="linear-gradient-9" x1="-67.976" y1="6.116" x2="-67.954" y2="6.083" xlink:href="#linear-gradient-5"/>
    <linearGradient id="linear-gradient-10" x1="-241.192" y1="5.264" x2="-242.85" y2="5.244" xlink:href="#linear-gradient-8"/>
    <linearGradient id="linear-gradient-11" x1="-19.615" y1="6.958" x2="-19.614" y2="6.941" xlink:href="#linear-gradient-5"/>
    <linearGradient id="linear-gradient-12" x1="-7.756" y1="3.593" x2="-7.756" y2="3.586" xlink:href="#linear-gradient-5"/>
    <linearGradient id="linear-gradient-13" x1="-63.865" y1="6.987" x2="-63.844" y2="6.954" xlink:href="#linear-gradient-5"/>
    <linearGradient id="linear-gradient-14" x1="-152.699" y1="6.282" x2="-154.357" y2="6.261" xlink:href="#linear-gradient-8"/>
    <linearGradient id="linear-gradient-15" x1="-59.437" y1="7.923" x2="-59.416" y2="7.89" xlink:href="#linear-gradient-5"/>
    <linearGradient id="linear-gradient-16" x1="-57.207" y1="7.381" x2="-58.865" y2="7.36" xlink:href="#linear-gradient-8"/>
    <linearGradient id="linear-gradient-17" x1="-24.188" y1="2.161" x2="-24.184" y2="2.153" gradientUnits="objectBoundingBox">
      <stop offset="0" stop-color="#a1b4b7"/>
      <stop offset="0.374" stop-color="#dbf0f5"/>
      <stop offset="1" stop-color="#90aaac"/>
    </linearGradient>
    <linearGradient id="linear-gradient-18" x1="-40.316" y1="3.141" x2="-40.323" y2="3.15" gradientUnits="objectBoundingBox">
      <stop offset="0" stop-color="#1e2224"/>
      <stop offset="1" stop-color="#010000"/>
    </linearGradient>
    <linearGradient id="linear-gradient-19" x1="-40.436" y1="3.327" x2="-40.443" y2="3.336" xlink:href="#linear-gradient-5"/>
    <clipPath id="clip-path">
      <path id="SVGID" d="M479.8,316.094a3.211,3.211,0,0,0,1.541-3.293l-7.675-45.6a2.615,2.615,0,0,0-2.581-2.274c-3.839-.048-10.3,2.368-17.246,6.4-11.417,6.585-20.3,15.089-22.005,20.8a6.228,6.228,0,0,0-.118,2.724l7.035,40.2a3.184,3.184,0,0,0,4.738,2.2Z" transform="translate(-431.621 -264.926)" fill="none"/>
    </clipPath>
    <linearGradient id="linear-gradient-20" x1="-46.577" y1="7.422" x2="-46.58" y2="7.436" gradientUnits="objectBoundingBox">
      <stop offset="0" stop-color="#272e30"/>
      <stop offset="1" stop-color="#272e2f"/>
    </linearGradient>
    <linearGradient id="linear-gradient-21" x1="0" y1="0.5" x2="1" y2="0.5" xlink:href="#linear-gradient-5"/>
    <linearGradient id="linear-gradient-24" x1="0.556" y1="0.333" x2="0.439" y2="0.667" gradientUnits="objectBoundingBox">
      <stop offset="0" stop-color="#bececf"/>
      <stop offset="0.038" stop-color="#c8d6d6"/>
      <stop offset="0.132" stop-color="#dae4e5"/>
      <stop offset="0.24" stop-color="#e8eff0"/>
      <stop offset="0.372" stop-color="#f0f7f8"/>
      <stop offset="0.6" stop-color="#f3fafb"/>
      <stop offset="0.619" stop-color="#ecf2f3"/>
      <stop offset="0.692" stop-color="#d7e1e2"/>
      <stop offset="0.772" stop-color="#c8d6d7"/>
      <stop offset="0.865" stop-color="#c0d0d0"/>
      <stop offset="1" stop-color="#becece"/>
    </linearGradient>
    <linearGradient id="linear-gradient-25" x1="0.551" y1="0.346" x2="0.444" y2="0.653" xlink:href="#linear-gradient-24"/>
  </defs>
  <g id="Group_4464" data-name="Group 4464" transform="translate(-30.037 -28.247)">
    <g id="Group_4079" data-name="Group 4079" transform="translate(30.15 28.332)">
      <g id="Group_4057" data-name="Group 4057">
        <path id="Path_1796" data-name="Path 1796" d="M248.194,244.9,32.888,119.788l.03,10.689L248.194,255.584Z" transform="translate(-29.618 -10.555)" fill="#333536"/>
        <path id="Path_1797" data-name="Path 1797" d="M245.427,187.3,30.15,62.192l.091,70.608L245.547,257.939Z" transform="translate(-30.15 -21.75)" fill="url(#linear-gradient)"/>
        <path id="Path_1798" data-name="Path 1798" d="M88.2,29.261c-4.815-2.816-16.35,1.059-27.886,7.72C45.2,45.672,30.12,59.176,30.15,68.774L245.427,193.883c-.03-9.568,15.049-23.072,30.157-31.792,11.535-6.661,23.042-10.511,27.886-7.72Z" transform="translate(-30.15 -28.332)" fill="url(#linear-gradient-2)"/>
        <path id="Path_1799" data-name="Path 1799" d="M270.882,209.281l-.091-70.638c-.03-9.568-15.139-5.663-30.218,3.058-15.109,8.719-30.187,22.224-30.157,31.792l.091,70.638,3.179-1.846V253l54.077-31.212L267.7,211.1Z" transform="translate(4.89 -7.973)" fill="#9bafb0"/>
        <path id="Path_1800" data-name="Path 1800" d="M270.882,202.571l-57.1-34.972-3.361,8.838.091,61.01,3.179-1.847V246.29L267.763,215.1l-.061-10.689Z" transform="translate(4.89 -1.261)" fill="#64797d" opacity="0.3" style="isolation: isolate"/>
      </g>
      <g id="Group_4058" data-name="Group 4058" transform="translate(218.638 128.53)">
        <path id="Path_1801" data-name="Path 1801" d="M274.4,203.143,213.235,167.6l-.03,66L274.4,269.086Z" transform="translate(-213.205 -129.791)" fill="#333536"/>
        <path id="Path_1802" data-name="Path 1802" d="M274.4,140.84l-6.933-4.027c-4.511-2.634-15.288,1-26.07,7.206-14.107,8.146-28.219,20.767-28.189,29.734L274.367,209.3V140.84Z" transform="translate(-213.205 -135.944)" fill="url(#linear-gradient-3)"/>
      </g>
      <g id="Group_4059" data-name="Group 4059" transform="translate(224.662 171.182)">
        <path id="Path_1803" data-name="Path 1803" d="M462.424,369.559,220.987,229.251l.03,10.718L462.424,380.277Z" transform="translate(-217.717 -160.459)" fill="#333536"/>
        <path id="Path_1804" data-name="Path 1804" d="M475.789,331.9l-52.684,30.4V352l52.684-30.4Z" transform="translate(-178.429 -142.508)" fill="#535657"/>
        <path id="Path_1805" data-name="Path 1805" d="M490.984,384.23l36.322-41.37L474.279,374.6,445.714,303.6,218.249,171.655l.091,70.638L474.279,390.958Z" transform="translate(-218.249 -171.655)" fill="url(#linear-gradient-4)"/>
      </g>
      <g id="Group_4074" data-name="Group 4074" transform="translate(230.506 183.405)">
        <g id="Group_4071" data-name="Group 4071" transform="translate(0 0)">
          <path id="Path_1824" data-name="Path 1824" d="M297.663,254.8l-22.981-13.258a3.246,3.246,0,0,1-1.574-2.483V211.655c0-.878.7-1.181,1.574-.666l22.981,13.258a3.251,3.251,0,0,1,1.574,2.483v27.4C299.236,254.982,298.51,255.286,297.663,254.8Zm28.1,16.2L302.78,257.742a3.246,3.246,0,0,1-1.574-2.483V227.854c0-.878.7-1.181,1.574-.666l22.981,13.258a3.251,3.251,0,0,1,1.574,2.483v27.4c0,.883-.7,1.186-1.575.671Zm28.1,16.23-22.981-13.258a3.246,3.246,0,0,1-1.574-2.483V244.083c0-.878.7-1.181,1.574-.666l22.981,13.258a3.251,3.251,0,0,1,1.574,2.483v27.4C355.433,287.441,354.737,287.743,353.858,287.23Z" transform="translate(-213.43 -176.281)" fill="url(#linear-gradient-5)"/>
          <path id="Path_1825" data-name="Path 1825" d="M247.7,225.952l-22.981-13.258a3.246,3.246,0,0,1-1.574-2.483V182.806c0-.878.7-1.181,1.574-.666L247.7,195.4a3.251,3.251,0,0,1,1.574,2.483v27.406C249.272,226.165,248.575,226.467,247.7,225.952ZM423.219,327.293l-22.981-13.258a3.247,3.247,0,0,1-1.574-2.483V284.147c0-.878.7-1.181,1.574-.666l22.981,13.258a3.251,3.251,0,0,1,1.574,2.483v27.4c.031.881-.7,1.185-1.574.67Z" transform="translate(-223.142 -181.889)" fill="url(#linear-gradient-6)"/>
        </g>
        <g id="Group_4072" data-name="Group 4072" transform="translate(145.546 83.93)">
          <path id="Path_1826" data-name="Path 1826" d="M369.556,321.99l-22.981-13.258A3.246,3.246,0,0,1,345,306.249V253.077c0-.878.7-1.181,1.574-.666l22.981,13.258a3.251,3.251,0,0,1,1.574,2.483V321.29C371.13,322.2,370.434,322.5,369.556,321.99Z" transform="translate(-345.001 -252.16)" fill="url(#linear-gradient-7)"/>
          <path id="Path_1827" data-name="Path 1827" d="M355.639,255.932c-.3-.152-.576-.358-.878-.545v60.2c.394.182.817.358,1.211.545V256.083A3.484,3.484,0,0,0,355.639,255.932Z" transform="translate(-343.104 -251.532)" fill="url(#linear-gradient-8)"/>
        </g>
        <g id="Group_4073" data-name="Group 4073" transform="translate(29.944 17.228)">
          <path id="Path_1828" data-name="Path 1828" d="M272.768,266.143l-22.981-13.258a3.246,3.246,0,0,1-1.574-2.483V197.23c0-.878.7-1.181,1.574-.666l22.981,13.258a3.25,3.25,0,0,1,1.578,2.488v53.138C274.346,266.355,273.646,266.657,272.768,266.143Z" transform="translate(-248.213 -196.313)" fill="url(#linear-gradient-9)"/>
          <path id="Path_1829" data-name="Path 1829" d="M258.851,200.089c-.3-.152-.576-.358-.878-.545v60.2c.394.182.817.358,1.211.545v-60.05A3.439,3.439,0,0,0,258.851,200.089Z" transform="translate(-246.316 -195.685)" fill="url(#linear-gradient-10)"/>
        </g>
        <path id="Path_1831" data-name="Path 1831" d="M336.953,276.334c-.182.545-.757.7-1.483.3l-22.981-13.258a3.246,3.246,0,0,1-1.574-2.483V233.49a.775.775,0,0,1,.665-.872.815.815,0,0,1,.122-.006,1.245,1.245,0,0,0-.091.358v27.4a3.2,3.2,0,0,0,1.574,2.483l22.981,13.258A1.714,1.714,0,0,0,336.953,276.334Zm-28.885-16.441-22.981-13.258a3.246,3.246,0,0,1-1.574-2.483V216.746a1.036,1.036,0,0,1,.091-.358.775.775,0,0,0-.794.756.7.7,0,0,0,.007.122v27.4a3.2,3.2,0,0,0,1.574,2.483l22.981,13.258c.726.424,1.3.272,1.483-.3a1.715,1.715,0,0,1-.788-.214ZM248.42,225.436l-22.981-13.262a3.246,3.246,0,0,1-1.574-2.483V182.259a1.036,1.036,0,0,1,.091-.358.775.775,0,0,0-.794.756.7.7,0,0,0,.007.122v27.4a3.2,3.2,0,0,0,1.574,2.483l22.982,13.261c.726.424,1.3.272,1.483-.3A1.121,1.121,0,0,1,248.42,225.436ZM364.3,292.35l-22.981-13.258a3.246,3.246,0,0,1-1.574-2.483V249.173a1.036,1.036,0,0,1,.091-.358.775.775,0,0,0-.794.756.7.7,0,0,0,.007.122v27.4a3.2,3.2,0,0,0,1.574,2.483L363.6,292.835c.726.424,1.3.272,1.483-.3A1.307,1.307,0,0,1,364.3,292.35Zm59.647,34.423-22.98-13.259a3.246,3.246,0,0,1-1.574-2.483v-27.4a1.035,1.035,0,0,1,.091-.358.775.775,0,0,0-.794.756.7.7,0,0,0,.007.122v27.4a3.2,3.2,0,0,0,1.574,2.483l22.981,13.258c.726.424,1.3.272,1.483-.3a1.4,1.4,0,0,1-.791-.209Z" transform="translate(-223.138 -181.886)" fill="#b3c1c1" opacity="0.9" style="isolation: isolate"/>
      </g>
      <g id="Group_4078" data-name="Group 4078" transform="translate(7.691 54.882)">
        <g id="Group_4075" data-name="Group 4075">
          <path id="Path_1832" data-name="Path 1832" d="M111.109,147.194,88.128,133.937a3.246,3.246,0,0,1-1.574-2.483V104.017c0-.878.7-1.181,1.574-.666l22.981,13.258a3.251,3.251,0,0,1,1.574,2.483V146.5C112.683,147.406,111.987,147.709,111.109,147.194Zm28.1,16.226-22.981-13.258a3.246,3.246,0,0,1-1.574-2.483v-27.4c0-.878.7-1.181,1.574-.666l22.981,13.258a3.25,3.25,0,0,1,1.574,2.484v27.405C140.812,163.635,140.085,163.907,139.207,163.42Zm28.129,16.232-22.981-13.258a3.246,3.246,0,0,1-1.574-2.483V136.506c0-.878.7-1.181,1.574-.666L167.336,149.1a3.252,3.252,0,0,1,1.571,2.487v27.4C168.907,179.833,168.183,180.141,167.336,179.652Z" transform="translate(-26.877 -68.68)" fill="url(#linear-gradient-11)"/>
          <path id="Path_1833" data-name="Path 1833" d="M61.174,118.339,38.163,105.078a3.246,3.246,0,0,1-1.574-2.483V75.2c0-.878.7-1.181,1.574-.666L61.145,87.789a3.251,3.251,0,0,1,1.574,2.483v27.4C62.75,118.555,62.053,118.854,61.174,118.339ZM236.7,219.68l-22.981-13.258a3.246,3.246,0,0,1-1.574-2.483V176.534c0-.878.7-1.181,1.574-.666L236.7,189.125a3.251,3.251,0,0,1,1.574,2.483v27.4C238.272,219.892,237.574,220.2,236.7,219.68Z" transform="translate(-36.589 -74.282)" fill="url(#linear-gradient-12)"/>
        </g>
        <g id="Group_4076" data-name="Group 4076" transform="translate(145.576 83.954)">
          <path id="Path_1834" data-name="Path 1834" d="M183.028,214.376l-22.981-13.258a3.246,3.246,0,0,1-1.574-2.483V145.49c0-.878.7-1.181,1.574-.666l22.981,13.258a3.253,3.253,0,0,1,1.578,2.488v53.138C184.606,214.585,183.876,214.888,183.028,214.376Z" transform="translate(-158.473 -144.573)" fill="url(#linear-gradient-13)"/>
          <path id="Path_1835" data-name="Path 1835" d="M169.111,148.32c-.3-.152-.576-.358-.878-.545v60.2c.394.182.817.358,1.211.545V148.5A3.209,3.209,0,0,1,169.111,148.32Z" transform="translate(-156.576 -143.95)" fill="url(#linear-gradient-14)"/>
        </g>
        <g id="Group_4077" data-name="Group 4077" transform="translate(29.975 17.259)">
          <path id="Path_1836" data-name="Path 1836" d="M86.243,158.556,63.261,145.3a3.249,3.249,0,0,1-1.575-2.487V89.649c0-.878.7-1.181,1.574-.666l22.982,13.256a3.251,3.251,0,0,1,1.574,2.483V157.86C87.816,158.738,87.089,159.043,86.243,158.556Z" transform="translate(-61.686 -88.732)" fill="url(#linear-gradient-15)"/>
          <path id="Path_1837" data-name="Path 1837" d="M72.3,92.474c-.3-.152-.576-.358-.878-.545v60.2c.394.182.817.358,1.211.545V92.658A3.357,3.357,0,0,0,72.3,92.474Z" transform="translate(-59.794 -88.11)" fill="url(#linear-gradient-16)"/>
        </g>
        <path id="Path_1838" data-name="Path 1838" d="M150.43,168.716c-.182.545-.757.7-1.483.3L125.966,155.76a3.246,3.246,0,0,1-1.574-2.483v-27.4a.775.775,0,0,1,.665-.872.817.817,0,0,1,.122-.006,1.245,1.245,0,0,0-.091.358V152.76a3.2,3.2,0,0,0,1.574,2.481L149.643,168.5A1.407,1.407,0,0,0,150.43,168.716Zm-28.885-16.441L98.534,139.017a3.246,3.246,0,0,1-1.574-2.483V109.129a1.036,1.036,0,0,1,.091-.358.775.775,0,0,0-.794.756.7.7,0,0,0,.007.122v27.4a3.2,3.2,0,0,0,1.574,2.483l22.981,13.258c.726.424,1.3.272,1.483-.3A1.3,1.3,0,0,1,121.545,152.275ZM61.867,117.818,38.886,104.557a3.246,3.246,0,0,1-1.574-2.483v-27.4a1.036,1.036,0,0,1,.091-.358.775.775,0,0,0-.794.756.7.7,0,0,0,.007.122v27.4a3.2,3.2,0,0,0,1.574,2.488l22.981,13.258c.726.424,1.3.272,1.483-.3A1.2,1.2,0,0,1,61.867,117.818Zm115.874,66.914L154.76,171.475a3.246,3.246,0,0,1-1.574-2.483V141.586a1.036,1.036,0,0,1,.091-.358.775.775,0,0,0-.794.756.7.7,0,0,0,.007.122v27.4a3.2,3.2,0,0,0,1.574,2.483l22.981,13.258c.726.424,1.3.272,1.483-.3a1.706,1.706,0,0,1-.787-.207Zm59.678,34.457-22.981-13.258a3.247,3.247,0,0,1-1.574-2.483V176.043a1.036,1.036,0,0,1,.091-.358.775.775,0,0,0-.794.756.7.7,0,0,0,.007.122v27.4a3.2,3.2,0,0,0,1.574,2.483L236.723,219.7c.726.424,1.3.272,1.483-.3a1.623,1.623,0,0,1-.788-.209Z" transform="translate(-36.585 -74.276)" fill="#b3c1c1" opacity="0.9" style="isolation: isolate"/>
      </g>
    </g>
    <path id="Path_2429" data-name="Path 2429" d="M490.612,321.829,468.59,252.238c-1.666-9.235-14.957-5-30.066,3.694-15.109,8.719-30.187,22.224-30.157,31.792l22.37,69.727q11.511,6.315,23.292,12.124l35.382-20.4Q490.061,335.5,490.612,321.829Z" transform="translate(73.519 42.514)" fill="url(#linear-gradient-17)"/>
    <g id="Group_4465" data-name="Group 4465" transform="translate(-2)">
      <path id="Path_1809" data-name="Path 1809" d="M474.716,310.23a3.207,3.207,0,0,0,1.54-3.293l-2.445-43.49c-.172-1.3-6.5-4.377-7.811-4.383-3.838-.048-10.3,2.368-17.244,6.4-11.417,6.585-20.3,15.089-22.005,20.8a6.21,6.21,0,0,0-.118,2.724l7.035,40.2c.946,5.089,7.243,9.365,7.568,9.176Z" transform="translate(77.05 44.85)" fill="url(#linear-gradient-18)"/>
      <g id="Group_4061" data-name="Group 4061" transform="translate(509.66 310.916)">
        <path id="Path_1809-2" data-name="Path 1809" d="M479.8,316.094a3.211,3.211,0,0,0,1.541-3.293l-7.675-45.6a2.615,2.615,0,0,0-2.581-2.274c-3.839-.048-10.3,2.368-17.246,6.4-11.417,6.585-20.3,15.089-22.005,20.8a6.228,6.228,0,0,0-.118,2.724l7.035,40.2a3.184,3.184,0,0,0,4.738,2.2Z" transform="translate(-431.621 -264.926)" fill="url(#linear-gradient-19)"/>
        <g id="Group_4462" data-name="Group 4462">
          <g id="Group_4461" data-name="Group 4461" clip-path="url(#clip-path)">
            <g id="Group_4060" data-name="Group 4060" transform="translate(0.303 47.284)">
              <path id="Path_1810" data-name="Path 1810" d="M492.946,310.649l-50.459,29.113-10.612-6.112,50.432-29.136Z" transform="translate(-431.875 -304.515)" fill="#c7d2d2" opacity="0.2" style="isolation: isolate"/>
            </g>
          </g>
        </g>
      </g>
      <path id="Path_1823" data-name="Path 1823" d="M472.959,263.1a2.619,2.619,0,0,0-2.582-2.275c-3.838-.047-10.3,2.37-17.245,6.4-11.418,6.585-20.3,15.089-22.005,20.8a6.211,6.211,0,0,0-.119,2.724l.522,2.984L474,269.215Z" transform="translate(77.9 45.193)" opacity="0.9" fill="url(#linear-gradient-20)" style="isolation: isolate"/>
      <path id="Path_2430" data-name="Path 2430" d="M469.535,303.931c-6.366,3.172-12.987,6.112-19.311,9.468l3.474,19.857a3.186,3.186,0,0,0,4.738,2.2l12.953-8.072a3.212,3.212,0,0,0,1.54-3.293Z" transform="translate(81.655 53.571)" fill="url(#linear-gradient-21)"/>
    </g>
    <path id="Path_2431" data-name="Path 2431" d="M428.233,331.346l25.383-4.017s1.56-.481,2.365,4.017,0,16,0,16Z" transform="translate(73.38 59.117)" fill="url(#linear-gradient-21)"/>
    <path id="Path_2432" data-name="Path 2432" d="M478.242,307.262l-7.637,10.333a3.594,3.594,0,0,0,0,4.667c1.336,2.324,4.683,6.078,7.184,8.812C478.171,324.886,478.242,307.262,478.242,307.262Z" transform="translate(85.376 55.32)" fill="url(#linear-gradient-21)"/>
    <ellipse id="Ellipse_280" data-name="Ellipse 280" cx="4.174" cy="4.953" rx="4.174" ry="4.953" transform="translate(518.008 388.562)" fill="#90aaac"/>
    <ellipse id="Ellipse_281" data-name="Ellipse 281" cx="3.339" cy="4.5" rx="3.339" ry="4.5" transform="translate(557.664 370.146)" fill="#90aaac"/>
    <path id="Path_2433" data-name="Path 2433" d="M58.707.943C53.838-1.905,42.17,2.015,30.5,8.752,15.22,17.541-.031,31.2,0,40.908l217.74,126.54c-.031-9.677,15.22-23.336,30.5-32.156,11.668-6.737,23.305-10.627,28.205-7.809Z" transform="translate(30.037 28.243)" fill="url(#linear-gradient-24)"/>
    <path id="Path_2434" data-name="Path 2434" d="M131.75,44.1c-4.773-2.792-16.211,1.051-27.649,7.655C89.12,60.406,74.17,73.8,74.2,83.282L302.214,214.139c-.03-9.487,18.02-24.021,33-32.667,11.138-6.424,18.683-10.735,23.667-8.333C358.91,173.139,358.88,173.139,131.75,44.1Z" transform="translate(179.936 117.526)" fill="url(#linear-gradient-25)"/>
    <ellipse id="Ellipse_282" data-name="Ellipse 282" cx="4.174" cy="4.953" rx="4.174" ry="4.953" transform="translate(519.008 388.562)" fill="#fff"/>
    <ellipse id="Ellipse_283" data-name="Ellipse 283" cx="3.339" cy="4.5" rx="3.339" ry="4.5" transform="translate(558.664 370.146)" fill="#fff"/>
  </g>
</svg>
