<?xml version="1.0" encoding="utf-8"?>
<!-- Generator: Adobe Illustrator 23.0.3, SVG Export Plug-In . SVG Version: 6.00 Build 0)  -->
<svg version="1.1" id="圖層_1" xmlns="http://www.w3.org/2000/svg" xmlns:xlink="http://www.w3.org/1999/xlink" x="0px" y="0px"
	 viewBox="0 0 511.6 698.5" style="enable-background:new 0 0 511.6 698.5;" xml:space="preserve">
<style type="text/css">
	.st0{opacity:0.5;}
	.st1{fill:#F9FAFC;}
	.st2{fill:#FFFFFF;}
	.st3{opacity:0.1;}
	.st4{opacity:0.5;fill:#F9FAFC;enable-background:new    ;}
</style>
<g id="Group_283" transform="translate(-3051.343 947.651)">
	<g id="Group_282" transform="translate(13.566 13.492)">
		<g id="Group_281">
			<g id="Group_279" transform="translate(2.275 1.87)" class="st0">
				<path id="Path_259" class="st1" d="M3188.2-267.1h-132.5l-17.9-18.6v-657.7h235.6l17.2-17.8h236.3l17.9,18.6v611.7l-44.3,45.9
					h-295.2L3188.2-267.1z M3056.8-269.8h130.3l17.2-17.8h295.2l42.8-44.4v-609.5l-16.4-17h-234.2l-17.2,17.8h-234.1v653.9
					L3056.8-269.8z"/>
			</g>
			<path id="Path_260" class="st2" d="M3062.7-277.2l-11.1-11.5v-640.9h228.9l17.2-17.8h226.8l11.1,11.5v601.9L3498-295h-295.3
				l-17.2,17.8L3062.7-277.2z"/>
			<g id="Group_280" transform="translate(13.778 13.802)" class="st3">
				<path id="Path_261" class="st1" d="M3510.1-959.8l10.4,10.8v600.8l-36.8,38.1h-295.3l-0.4,0.4l-16.8,17.4h-121.8l-10.4-10.8
					v-639h228.2l0.4-0.4l16.8-17.4L3510.1-959.8 M3510.7-961.1h-226.8l-17.2,17.8h-228.9v640.9l11.1,11.5h122.9l17.2-17.8h295.3
					l37.5-38.9v-601.9L3510.7-961.1L3510.7-961.1z"/>
			</g>
			<path id="Path_262" class="st4" d="M3044.9-940.3c0,2-1.6,3.6-3.6,3.7c-2,0-3.6-1.7-3.6-3.7c0-2,1.6-3.6,3.6-3.7
				C3043.3-943.9,3044.9-942.3,3044.9-940.3z"/>
			<path id="Path_263" class="st4" d="M3280.7-940.3c0,2-1.6,3.6-3.6,3.7c-2,0-3.6-1.7-3.6-3.7c0-2,1.6-3.6,3.6-3.7
				C3279.2-943.9,3280.8-942.3,3280.7-940.3z"/>
			<path id="Path_264" class="st4" d="M3297.4-957.5c0,2-1.6,3.6-3.6,3.7c-2,0-3.6-1.7-3.6-3.7c0-2,1.6-3.6,3.6-3.7
				C3295.8-961.1,3297.4-959.5,3297.4-957.5z"/>
			<path id="Path_265" class="st4" d="M3531.4-957.5c0,2-1.6,3.6-3.6,3.7c-2,0-3.6-1.7-3.6-3.7c0-2,1.6-3.6,3.6-3.7
				C3529.8-961.1,3531.4-959.5,3531.4-957.5z"/>
			<path id="Path_266" class="st4" d="M3506.6-284.2c0,2-1.6,3.6-3.6,3.7c-2,0-3.6-1.7-3.6-3.7c0-2,1.6-3.6,3.6-3.7
				C3505-287.8,3506.6-286.2,3506.6-284.2z"/>
			<path id="Path_267" class="st4" d="M3211-284.2c0,2-1.6,3.6-3.6,3.7c-2,0-3.6-1.7-3.6-3.7c0-2,1.6-3.6,3.6-3.7
				C3209.5-287.8,3211.1-286.2,3211-284.2z"/>
			<path id="Path_268" class="st4" d="M3193.6-266.3c0,2-1.6,3.6-3.6,3.7c-2,0-3.6-1.7-3.6-3.7c0-2,1.6-3.6,3.6-3.7
				C3192.1-270,3193.7-268.3,3193.6-266.3z"/>
			<path id="Path_269" class="st4" d="M3062.3-266.3c0,2-1.6,3.6-3.6,3.7c-2,0-3.6-1.7-3.6-3.7c0-2,1.6-3.6,3.6-3.7
				C3060.7-270,3062.3-268.3,3062.3-266.3z"/>
			<path id="Path_270" class="st4" d="M3045-284.3c0,2-1.6,3.6-3.6,3.7c-2,0-3.6-1.7-3.6-3.7c0-2,1.6-3.6,3.6-3.7
				C3043.4-287.9,3045-286.3,3045-284.3z"/>
			<path id="Path_271" class="st4" d="M3549.3-328.3c0,2-1.6,3.6-3.6,3.7c-2,0-3.6-1.7-3.6-3.7c0-2,1.6-3.6,3.6-3.7
				C3547.8-331.9,3549.4-330.3,3549.3-328.3z"/>
			<path id="Path_272" class="st4" d="M3549.3-940.3c0,2-1.6,3.6-3.6,3.7c-2,0-3.6-1.7-3.6-3.7c0-2,1.6-3.6,3.6-3.7
				C3547.8-943.9,3549.4-942.3,3549.3-940.3z"/>
		</g>
	</g>
</g>
</svg>
