<?xml version="1.0" encoding="utf-8"?>
<!-- Generator: Adobe Illustrator 23.0.3, SVG Export Plug-In . SVG Version: 6.00 Build 0)  -->
<svg version="1.1" id="圖層_1" xmlns="http://www.w3.org/2000/svg" xmlns:xlink="http://www.w3.org/1999/xlink" x="0px" y="0px"
	 viewBox="0 0 511.6 552" style="enable-background:new 0 0 511.6 552;" xml:space="preserve">
<style type="text/css">
	.st0{opacity:0.5;}
	.st1{fill:#F9FAFC;}
	.st2{fill:#FFFFFF;}
	.st3{opacity:0.1;}
	.st4{opacity:0.5;fill:#F9FAFC;enable-background:new    ;}
</style>
<g id="Group_283" transform="translate(-3051.343 947.651)">
	<g id="Group_282" transform="translate(13.566 13.492)">
		<g id="Group_281">
			<g id="Group_279" transform="translate(2.275 1.87)" class="st0">
				<path id="Path_259" class="st1" d="M3188.2-326.3h-132.5l-17.9-18.6v-657.7h235.6l17.2-17.8h236.3l17.9,18.6v611.7l-44.3,45.9
					h-295.2L3188.2-326.3z M3056.8-329h130.3l17.2-17.8h295.2l42.8-44.4v-609.5l-16.4-17h-234.2l-17.2,17.8h-234.1V-346L3056.8-329z
					"/>
			</g>
			<path id="Path_260" class="st2" d="M3062.7-336.4l-11.1-11.5v-640.9h228.9l17.2-17.8h226.8l11.1,11.5v601.9l-37.5,38.9h-295.3
				l-17.2,17.8L3062.7-336.4z"/>
			<g id="Group_280" transform="translate(13.778 13.802)" class="st3">
				<path id="Path_261" class="st1" d="M3510.1-1019.1l10.4,10.8v600.8l-36.8,38.1h-295.3l-0.4,0.4l-16.8,17.4h-121.8l-10.4-10.8
					v-639h228.2l0.4-0.4l16.8-17.4L3510.1-1019.1 M3510.7-1020.4h-226.8l-17.2,17.8h-228.9v640.9l11.1,11.5h122.9L3189-368h295.3
					l37.5-38.9v-601.9L3510.7-1020.4L3510.7-1020.4z"/>
			</g>
			<path id="Path_262" class="st4" d="M3044.9-999.5c0,2-1.6,3.6-3.6,3.7c-2,0-3.6-1.7-3.6-3.7c0-2,1.6-3.6,3.6-3.7
				C3043.3-1003.2,3044.9-1001.5,3044.9-999.5z"/>
			<path id="Path_263" class="st4" d="M3280.7-999.5c0,2-1.6,3.6-3.6,3.7c-2,0-3.6-1.7-3.6-3.7c0-2,1.6-3.6,3.6-3.7
				C3279.2-1003.2,3280.8-1001.5,3280.7-999.5z"/>
			<path id="Path_264" class="st4" d="M3297.4-1016.7c0,2-1.6,3.6-3.6,3.7c-2,0-3.6-1.7-3.6-3.7c0-2,1.6-3.6,3.6-3.7
				C3295.8-1020.4,3297.4-1018.7,3297.4-1016.7z"/>
			<path id="Path_265" class="st4" d="M3531.4-1016.7c0,2-1.6,3.6-3.6,3.7c-2,0-3.6-1.7-3.6-3.7c0-2,1.6-3.6,3.6-3.7
				C3529.8-1020.4,3531.4-1018.7,3531.4-1016.7z"/>
			<path id="Path_266" class="st4" d="M3506.6-343.5c0,2-1.6,3.6-3.6,3.7c-2,0-3.6-1.7-3.6-3.7c0-2,1.6-3.6,3.6-3.7
				C3505-347.1,3506.6-345.5,3506.6-343.5z"/>
			<path id="Path_267" class="st4" d="M3211-343.5c0,2-1.6,3.6-3.6,3.7c-2,0-3.6-1.7-3.6-3.7c0-2,1.6-3.6,3.6-3.7
				C3209.5-347.1,3211.1-345.5,3211-343.5z"/>
			<path id="Path_268" class="st4" d="M3193.6-325.6c0,2-1.6,3.6-3.6,3.7c-2,0-3.6-1.7-3.6-3.7c0-2,1.6-3.6,3.6-3.7
				C3192.1-329.2,3193.7-327.6,3193.6-325.6z"/>
			<path id="Path_269" class="st4" d="M3062.3-325.6c0,2-1.6,3.6-3.6,3.7c-2,0-3.6-1.7-3.6-3.7c0-2,1.6-3.6,3.6-3.7
				C3060.7-329.2,3062.3-327.6,3062.3-325.6z"/>
			<path id="Path_270" class="st4" d="M3045-343.5c0,2-1.6,3.6-3.6,3.7c-2,0-3.6-1.7-3.6-3.7c0-2,1.6-3.6,3.6-3.7
				C3043.4-347.2,3045-345.5,3045-343.5z"/>
			<path id="Path_271" class="st4" d="M3549.3-387.5c0,2-1.6,3.6-3.6,3.7c-2,0-3.6-1.7-3.6-3.7c0-2,1.6-3.6,3.6-3.7
				C3547.8-391.2,3549.4-389.5,3549.3-387.5z"/>
			<path id="Path_272" class="st4" d="M3549.3-999.5c0,2-1.6,3.6-3.6,3.7c-2,0-3.6-1.7-3.6-3.7c0-2,1.6-3.6,3.6-3.7
				C3547.8-1003.2,3549.4-1001.5,3549.3-999.5z"/>
		</g>
	</g>
</g>
</svg>
