<svg xmlns="http://www.w3.org/2000/svg" width="56" height="57" viewBox="0 0 56 57">
  <g id="Group_4358" data-name="Group 4358" transform="translate(-706.992 -973)">
    <!-- <g id="Ellipse_276" data-name="Ellipse 276" transform="translate(706.992 973)" fill="none" stroke="#074a45" stroke-width="3">
      <ellipse cx="28" cy="28.5" rx="28" ry="28.5" stroke="none"/>
      <ellipse cx="28" cy="28.5" rx="26.5" ry="27" fill="none"/>
    </g> -->
    <g id="Group_4357" data-name="Group 4357" transform="translate(12301.218 -12329.523)">
      <g id="Group_4355" data-name="Group 4355" transform="translate(-11571.768 13328.25)">
        <rect id="Rectangle_252" data-name="Rectangle 252" width="7.996" height="7.443" transform="translate(1.55 4.887)" fill="#074a45"/>
      </g>
      <g id="noun_Home_3554003" transform="translate(-11579.218 13317)">
        <path id="Path_2073" data-name="Path 2073" d="M20,42.19A3.407,3.407,0,0,0,23.406,45.6H42.142a3.406,3.406,0,0,0,3.407-3.407V29.479a2.67,2.67,0,0,0-1.192-2.227L34.29,20.541a2.734,2.734,0,0,0-3.032,0L21.192,27.252A2.67,2.67,0,0,0,20,29.479Zm2.555-12.711a.119.119,0,0,1,.051-.1l10.07-6.715a.179.179,0,0,1,.2,0l10.07,6.715a.119.119,0,0,1,.051.1V42.19a.852.852,0,0,1-.852.852H23.406a.852.852,0,0,1-.852-.852Z" transform="translate(-20 -20.083)" fill="#074a45"/>
      </g>
    </g>
  </g>
</svg>
