<?xml version="1.0" encoding="utf-8"?>
<!-- Generator: Adobe Illustrator 23.0.3, SVG Export Plug-In . SVG Version: 6.00 Build 0)  -->
<svg version="1.1" id="圖層_1" xmlns="http://www.w3.org/2000/svg" xmlns:xlink="http://www.w3.org/1999/xlink" x="0px" y="0px"
	 viewBox="0 0 224 284.2" style="enable-background:new 0 0 224 284.2;" xml:space="preserve">
<style type="text/css">
	.st0{fill:none;stroke:#FFFFFF;stroke-width:2;stroke-miterlimit:10;}
</style>
<path id="Path_2" class="st0" d="M223,71.2c0,7.6-12.2,11.6-12.2,11.6l-78.7,21.4l-1.8,44.7l30.4,22.2c1.2,0.9,2.2,1.9,3.1,3.1
	c4.5,6.2,3.1,14.8-3.1,19.2l-57.5,46.5l-2.8,31.1c-0.6,6.9-6.4,12.1-13.3,12.2c-7.4,0-13.4-6-13.4-13.3l-0.1-165.4L16.7,133
	c-4.7,2.4-10.5,1-13.6-3.3c-3.5-4.8-2.5-11.6,2.4-15.1l54.7-39.8c9.3-6.8,20.5-10.4,32-10.4l21.8,0c11.5,0,15.8,0.8,30.3,0h71.1
	C215.4,64.4,223,63.6,223,71.2z M127.9,186.7l-18.6-13.3l-2.9,31.9L127.9,186.7z M78.6,25.8c-0.1-1.1-0.1-2.2,0-3.3
	C79.5,9.8,90.5,0.2,103.3,1.1C116,2,125.6,13,124.7,25.8l-0.9,11.4c-0.9,11.6-10.4,20.6-22,20.8h-0.2C90,57.8,80.4,48.8,79.5,37.2
	L78.6,25.8z"/>
</svg>
