<svg xmlns="http://www.w3.org/2000/svg" width="224.029" height="284.183" viewBox="0 0 224.029 284.183">
  <path id="Path_2" data-name="Path 2" d="M464.674,704.844h71.091c14.548.756,18.812-.03,30.3,0l21.844.015a54.059,54.059,0,0,1,31.958,10.407l54.718,39.8a10.818,10.818,0,0,1-11.209,18.42l-57.109-28.6-.113,165.421a13.35,13.35,0,0,1-26.646,1.182l-2.788-31.114-57.46-46.455A13.775,13.775,0,0,1,519.3,811.6l30.445-22.232-1.829-44.653-78.675-21.432s-12.265-4.035-12.221-11.622S464.674,704.844,464.674,704.844ZM573.621,845.822l-2.863-31.943L552.15,827.15ZM600.51,677.688a22.576,22.576,0,0,1-22.062,20.8h-.184a22.579,22.579,0,0,1-22.036-20.831l-.913-11.44a23.12,23.12,0,1,1,46.124.031Z" transform="translate(-456.024 -640.465)" fill="none" stroke="#fff" stroke-miterlimit="10" stroke-width="2"/>
</svg>
