<svg id="Group_117" data-name="Group 117" xmlns="http://www.w3.org/2000/svg" width="195.487" height="182.742" viewBox="0 0 195.487 182.742">
  <path id="Path_23" data-name="Path 23" d="M337.824,3258.02l-3.709,4.783,30.18,24.659v2.167h-1.1v1.068h2.229v1.1h-1.343v3.358l-.519.367v3.083h-4.61v6.594h3.954l.15.111c-.02.114-.48.4-.5.43-.068.1-.132.19-.195.283h-3.257v8.426l-1.832,1.313.488.7,2.717-1.648v2.168h1.587v-.611l1,.432.162.11a.877.877,0,0,0,.432.146l.389.167v3.6h1.1v.763h-1.313l-2.137,1.893.733.855,4.488-2.717,5.282-1.71h13.1l.58,3.572-1.893.4.275,1.16,1.862-.214,1.4,7.663-1.984.458.305,1.251,1.984-.4,3.206,14.41-1.924.55.428,1.373,1.832-.4,2.442,14.5-1.5,4.366-9.983-2.809-.58,1.679,4.732,1.649-1.985,10.777-1.282,1.374,1.557,2.564-2.137.947-1.587,7.144v3.023l2.595,5.129,1.282-.61-2.168-5.007v-2.534l1.282-5.861,1.069-.672h2.2l1.5,2.687,1.557,6.2-1.069,4.7-.671,2.015c.022.408-.966,1.221-.966,1.221l.052,2.769.328.817a3.074,3.074,0,0,0,.773,1.926l.422,1.052,6.443,21.412.407,2.157h-1.425l1.689,3.159L398.9,3437v-.733h3.949v1.018h2.442v-1.14l1.384-.569,5.083-.176,5.012-.842v3.786l7.265-2.582,4.13-3.972.083-1.221a7.244,7.244,0,0,0,1.832-4.762l-1.221-.407,2.239-8.263,4.681-9,6.676-22.8,6.757-7,4.885,3.7,1.954-3.378-1.954-3.379,1.181-.489,1.465,2.524,4.111-.489,16.242,10.828-.407.855,1.791,1.059v1.058l4.844,2.727,1.018-1.466,3.256,1.791.9-1.913.611,2.117-.692,1.913,4.518,2.117,2.076-4.03,1.669.611a2.321,2.321,0,0,0,3.038-1.085c.025-.026.038-.041.035-.05l0-.01c.462-.938.708-2.494.446-5.034a34.593,34.593,0,0,0-1.887-3.509l.448-6.187,2.117-2.6,2.931.285,1.425-8.427-4.478-2.768-1.547,1.3-2.239-1.628,1.547-2.2-1.14-.692-1.75,2.116-9.444-8.019.814-.977-.773-.692-.9.977-2.483-5.21h1.628v-1.506h-1.75v-3.338l.977-2.89,11.642-15.183-2.076-2.117,2.991-3.428q.444-.112.89-.22l4.057,1.328,5.78-7.246s1.181-8.182-4.6-12.131l2.239-7.856,1.954-3.094,2.687-3.053v-1.893l-.855-1.526v-3.785l2.5-3.053,2.32,1.343,1.526-1.893-.977-1.221,1.587-1.527,1.466,1.16,1.221-.61.672-1.893,1.526.427,5.251-2.5.467.028V3258.02Z" transform="translate(-330.472 -3258.02)" fill="#074a45"/>
  <path id="Path_24" data-name="Path 24" d="M1032.054,3325.051v-47.475c-.71-.672-1.156-1.045-1.156-1.045h1.156v-18.51a4.748,4.748,0,0,0-.8.319c-1.335.728-.121,1.942-1.515,4.369s-8.8,3.884-8.8,3.884v4.612c0,3.034-3.031,4.094-3.031,4.094a14.023,14.023,0,0,0-2.465,0,7.762,7.762,0,0,0-5.4,5.945c.014.113.029.227.041.34a21.525,21.525,0,0,0,.309,2.456,28.211,28.211,0,0,1-.186,5,14.723,14.723,0,0,1-1.667,4.827,16.913,16.913,0,0,1-3.81,4.536c-2.045,1.887-4.252.019-5.768-2-.147,1.233-.062,2.51-.1,3.762-.026.921-.035.917-.055,1.838a11.59,11.59,0,0,0,0,2.833c.112.428.922.673,1.416,1,.018.012.03.036.05.045a19.526,19.526,0,0,0,2.654,1.329c1.632.54,3.318.918,4.98,1.369.122.033.315.087.336.167a5.466,5.466,0,0,1,.434,2.073l9.085.3-1.27-1.238Z" transform="translate(-836.567 -3258.02)" fill="#70ccb8"/>
  <path id="Path_25" data-name="Path 25" d="M499.439,3311.763a5.52,5.52,0,0,0,.525-2.047q-.038-17.063-.014-34.126a6.107,6.107,0,0,0-1.645-.469,1.2,1.2,0,0,1-.738,1.5,9.263,9.263,0,0,0-3.2,2.074,29.145,29.145,0,0,0-1.1,7.4c-.139,2.454-.124,4.724-1.041,7.045-1.083,2.741-3.329,6.937-6.926,6.286a9.115,9.115,0,0,1-3.052-1.631l-.034-.02c.077.569.181,1.311.213,1.461a1.221,1.221,0,0,1-1.55,1.4c-.008.454-.015.907-.025,1.36a9.779,9.779,0,0,0,0,2.6.477.477,0,0,0,.065.139,1.293,1.293,0,0,1,1.71-.794c2.746,1.161,7.056,1.125,8.5,4.225a8.426,8.426,0,0,1,.215,4.756,15.327,15.327,0,0,1-1.916,5.359,13.6,13.6,0,0,1-2.628,3.07,1.18,1.18,0,0,1-1.03.929l0,0a34.328,34.328,0,0,0-3.915,4.078c-1.217,1.521-2.151,3.208-3.253,4.805-1.023,1.484-2.172,2.876-3.29,4.289-2.193,2.772-4.413,5.811-4.611,9.467a1.216,1.216,0,0,1-2.051.783q-.015.325-.027.648-.142,3.7-.134,7.411a3.225,3.225,0,0,0,1.106,2.726,30.684,30.684,0,0,1,2.734,2.59,2.089,2.089,0,0,0,1.4.637,1.713,1.713,0,0,1,1.6,2.117c-.549,1.932.832,2.97,1.878,4.026a2.84,2.84,0,0,0,3.524.632,1.573,1.573,0,0,1,.39-.077,1.431,1.431,0,0,1,1.683.791,1.208,1.208,0,0,0,1,.771c.944.11,1.885.257,2.82.429a3.976,3.976,0,0,0,2.157-.072,3.622,3.622,0,0,0-1.354-.778,20.553,20.553,0,0,0-3.973-.915c-1.468-.235-.841-2.464.615-2.231,2.187.35,5.2.733,6.652,2.654l.006.009.158-.105c.149.293.415.573.413.853,0,.159,0,.319,0,.48a3.961,3.961,0,0,1,.082,1.251,1.035,1.035,0,0,1,.4.88,9.022,9.022,0,0,1-3.282,7.2,1.2,1.2,0,0,1-1.045.231,13.517,13.517,0,0,0-1.469,4.016c-.636,3.72,2.538,6.469,2.362,10.143a1.175,1.175,0,0,1-1.464,1.115,37.2,37.2,0,0,1-5.672-1.563,1.142,1.142,0,0,1-1.216-.206c-.2-.176-.395-.36-.58-.548a7.42,7.42,0,0,1-2.038-1.339,7,7,0,0,1-1.4-2.479,20.653,20.653,0,0,0-1.315-3.122,9.941,9.941,0,0,0-2.735-2.748c-1.713-1.227-3.564-2.217-5.268-3.435a1.1,1.1,0,0,1-.622-.013,11.678,11.678,0,0,1-4.926-2.75,1.153,1.153,0,0,1-.289-.434c-4.771-1.506-9.85-2.162-14.654-3.438a1.049,1.049,0,0,1-.726-.592l-.2.013c-2.528.132-6.182.83-7.361,3.026-.614,1.144-1.24,2.66-2.7,2.834-.066.009-.131.012-.2.015a14.017,14.017,0,0,1-4.613,3.418,1.225,1.225,0,0,1-.53.116,22.621,22.621,0,0,0-1.295,4.723,16.3,16.3,0,0,0-.314,3.87,18.24,18.24,0,0,1,.211,4.158c-.428,2.649-3.113,4.362-4.7,6.313a58.147,58.147,0,0,0-5.13,8.025c-1.691,2.979-2.906,6.137-4.344,9.235a21.05,21.05,0,0,0-1.5,4.571,5.191,5.191,0,0,0-.263,1.886c.1.508.486.687.917.945a3.578,3.578,0,0,1,1.909,2.37c.187.729-.38,1.5-.434,2.255-.067.943.305,1.68-.183,2.25,0,.038,0,.076,0,.114l-.092-.01c-1.166,1.262-3.187,1.655-5.033,1.624-.51-.009-1.02-.038-1.528-.081a1.07,1.07,0,0,1-1.085.874c-1.4.008-2.774.023-3.871-.975a1.016,1.016,0,0,1-.365-.792c-1.069-.24-2.131-.5-3.184-.742a33.714,33.714,0,0,0-3.907-.785,6.555,6.555,0,0,0-.762-.035c-.029,0-.111.007-.158.009a3.968,3.968,0,0,0-.582.124c-.949.288-1.323,1.008-1.781,1.822a6.956,6.956,0,0,1-2.17,2.525,4.706,4.706,0,0,1-3.161,1.04c-1.653-.353-1.356-2.167-1.325-3.61a1.876,1.876,0,0,1-.059-.431c0-.171,0-.342.006-.513,0-.024-.009-.048-.014-.072-.576-2.556-2-4.9-3.025-7.291-.909-2.117-1.828-4.464-1.283-6.8a1,1,0,0,1,.991-.826c.013-.07.029-.139.042-.208a8.493,8.493,0,0,0,.3-2.848c-.368-1.2-1.606-1.864-2.687-2.619-1.286-.9-2.707-1.935-3.262-3.37-.649-1.741-.683-2.435.486-3.616.5-.5,1-1,1.491-1.5a1.166,1.166,0,0,1-.187-.306,4.655,4.655,0,0,1,.3-4.037c.632-1.389,1.395-2.689.656-4.186a28.66,28.66,0,0,0-2.62-3.6,4.985,4.985,0,0,1-.929-3.675c.612-5.532,6.986-5.4,11.191-5.133a1.188,1.188,0,0,1,1.157,1.157,3.488,3.488,0,0,0,.228.987,2.589,2.589,0,0,1,1.979.1,3.023,3.023,0,0,1,1.216,1.621,12.546,12.546,0,0,0,.98,1.366c-.069-.437-.1-.876-.194-1.313-.159-.716-.475-1.391-.661-2.1a5.864,5.864,0,0,1,.406-4.105,11.365,11.365,0,0,0,.975-3.727,2.07,2.07,0,0,0-.631-1.625c-.9,1.641-1.6,3.39-2.364,5.1.014.141.026.282.033.423.015.27-.32.6-.621.841l-.032.067c-.525,1.069-2.144.505-2.156-.584-.037-3.285-.761-6.6.222-9.82.376-1.233.943-2.4,1.377-3.608a13.041,13.041,0,0,0,.719-4.4,27.464,27.464,0,0,0-1.3-7.9c-.406-1.366-.966-2.682-1.254-4.08-.059-.285-.11-.572-.16-.859a.441.441,0,0,1-.083-.5c-.135-.844-.254-1.692-.41-2.533-.2-1.071-.334-2.49-1.278-3.154a5.674,5.674,0,0,1-1.908-1.662,2.872,2.872,0,0,1,.08-2.895,4.432,4.432,0,0,0,.559-1.029,5.1,5.1,0,0,0-.269-1.872c-1.152-5.051-4.844-9.226-4.675-14.587.095-2.986.658-5.812-.2-8.736a13.815,13.815,0,0,1-.654-3.48,6.535,6.535,0,0,1-1.077.355,1.169,1.169,0,0,1-1.306-1.7,7.606,7.606,0,0,1,1.6-1.677c-.609-.014-1.219-.016-1.831-.016a1.172,1.172,0,0,1-1.115-1.464,4.931,4.931,0,0,1,.247-1.044.448.448,0,0,0,.021-.048.905.905,0,0,0-.059-.108,5.837,5.837,0,0,1-.338-.606,1.289,1.289,0,0,1-.133-.841,4.065,4.065,0,0,1-2.223-.886,12.221,12.221,0,0,1-2.7-4.069,10.8,10.8,0,0,0-1.018-1.789,1.952,1.952,0,0,0-.154-.167,5.482,5.482,0,0,0-.147.631c-.038.48-.026.964-.062,1.444a3.554,3.554,0,0,1-.83,2.343c-.68.7-1.808,1-2.347,1.827-.559.863-.117,1.766.2,2.619.744,1.973.073,3.334-1.342,4.762a48.758,48.758,0,0,0-3.688,4.228,21.254,21.254,0,0,1-3.908,4.13,5.927,5.927,0,0,1-1.954.977,5.283,5.283,0,0,1-.591.427,1.674,1.674,0,0,1-2.547-.776c-.1-.185-.2-.365-.308-.542a5.048,5.048,0,0,1-1.206-1.777,2.543,2.543,0,0,1-.6-.941,7.456,7.456,0,0,1-.024-2.042q.047-.461.122-.911c.134-1.534.532-3.046.743-4.567.067-.48.155-.952.26-1.42a2.15,2.15,0,0,1,.051-1.227,17.4,17.4,0,0,1,.449-1.744,2.043,2.043,0,0,1,.67-1.017c.039-.023.075-.048.111-.073.254-.674.518-1.346.777-2.023a22.371,22.371,0,0,0,1.454-7.649c.071-2.526.062-5.047.239-7.569.076-1.088.476-2.792-.508-3.582-1.173-.942-3.131-.976-4.558-1.061a14.91,14.91,0,0,1-5.392-1.023l2.2-.191a3.322,3.322,0,0,1,3.068-4.205c3.962-.459,4.61-.565,5.137-1.208s1.234-4.952-2.756-8.368c-3.924-3.36-3.621-2.643-3.791-5.061H318.84v42.543a11.555,11.555,0,0,1,1.346,1.587c.834,1.255,1.523,2.608,2.249,3.933a3.422,3.422,0,0,1,.509,1.279c.105,1.364.123,2.735.156,4.1.053,2.2.129,4.4.127,6.607,0,2.464-.094,4.928-.12,7.392-.022,2.106-.012,4.213.01,6.319,0,.155.222.307.34.46.1-.14.3-.28.294-.418-.018-1.366-.063-2.733-.114-4.1-.013-.342.036-.567.457-.56,2.3.039,4.61.08,6.915.093q5.543.031,11.086.017a.782.782,0,0,1,.9.648c.263.864.634,1.695.948,2.544.518,1.4,1.3,2.737,1.092,4.331a10.3,10.3,0,0,0-.03,1.35q0,18.286.012,36.572a2.386,2.386,0,0,1-.48,1.488c-.514.7-1.03,1.405-1.524,2.122q-4.7,6.809-9.385,13.625a1.554,1.554,0,0,1-1.459.781c-2.545-.064-5.092-.025-7.638-.025h-.767c0-.981.02-1.879,0-2.776a3.79,3.79,0,0,0-2.513-3.721,1.137,1.137,0,0,0-1.516.258c.339.065.54.121.745.141a3.021,3.021,0,0,1,2.484,2.289c.057,1.841.124,3.684.119,5.525a2.683,2.683,0,0,1-.407,1.44c-.88,1.278-1.9,2.459-1.95,4.137-.032,1-.258,1.987-.258,2.98,0,1.411.148,2.823.195,4.235.034,1.036-.031,2.075.025,3.109a2.9,2.9,0,0,0,.4,1.227c.465.812,1,1.584,1.415,2.23a2.771,2.771,0,0,1,.782.28c.583.468,1.084,1.079,1.885,1.158.41.041.833-.077,1.249-.07,1.095.019,2.189.088,3.283.1,1.73.017,3.461,0,5.261,0l-.219.472a1.935,1.935,0,0,0,2.237-.743q1.269-1.758,2.6-3.467c.472-.6.9-1.465,1.534-1.681,2.43-.832,4.715-2.117,7.366-2.306,2.217-.158,4.42-.508,6.629-.772,1.943-.233,3.89-.438,5.828-.7,3.077-.421,6.148-.885,9.223-1.32.55-.078,1.107-.1,1.661-.148l.031.142-1.317,1.042.107.246a2.473,2.473,0,0,0,.738-.193,4.457,4.457,0,0,1,2.314-1.062c.448-.007.9-.049,1.344-.063.275-.009.55.006.824.01-.045.278-.09.556-.134.834-.014.088,1.054,3.41,1.262,4.7.1.614.775,1.25.117,1.423-.058.015-1.508.024-1.57.029.01.054.019.107.026.159-1.766.389-3.469.762-5.171,1.14-.992.22-1.973.495-2.97.68-1.309.244-3.028.311-2.937,1.014.183.92.942.42,2.422.183.022,0,5.474-1.117,8.177-1.675l2.457-.51.668,3.478c-1.526.3-3,.588-4.463.885q-2.045.415-4.086.85c-.617.131-.483.572-.391.994.1.479.373.514.79.356a7.052,7.052,0,0,1,1.214-.314c1.2-.22,2.4-.413,3.6-.632s2.375-.458,3.617-.7a8.611,8.611,0,0,0,.206,1.52c.2.61-.1.665-.547.624-.584-.053-.92.088-.7.764a.721.721,0,0,1-.024.264l-5.867,1.318c-.068.846.145,1.079.762.938,2.11-.479,4.229-.921,6.33-1.434.477-.117.607.047.7.42.27,1.068.55,2.133.807,3.2.2.85.379,1.707.567,2.562-1.09.182-1.3.448-1.388,1.5-.017.208-.3.589-.355.571-.552-.177-.872.238-1.255.448a11.051,11.051,0,0,1-3.807.805,28.06,28.06,0,0,0-3.988.785c-1.366.424-2.8.625-4.335.95.151.983.325,2.125.5,3.3,1.57-.287,3.014-.514,4.441-.823,1.072-.232,2.112-.613,3.184-.846,1.265-.275,2.553-.449,3.826-.692a2.587,2.587,0,0,0,1.263-.4c.87-.848,1.906-.368,2.859-.493.062-.008.169.173.222.282a4.515,4.515,0,0,1,.214.566,12.472,12.472,0,0,1,.468,1.6.9.9,0,0,1-.33.653c-.743.65-1.539,1.239-2.276,1.895a1.062,1.062,0,0,0-.217,1.6c.383.394.845.323,1.477-.225.422-.367.808-.818,1.543-.619l-.409.846h1.1l.1.16c-.453.453-.928.887-1.348,1.368a1.4,1.4,0,0,0-.354.789c-.006.146.341.451.494.43.325-.044.807-.177.907-.41a4.224,4.224,0,0,1,2.026-2.171c.487-.253.9-.188,1.084.358a9.763,9.763,0,0,1,.387,1.4c.117.678.5.885,1.144.83,1.5-.128,3.011-.219,4.515-.353a4.368,4.368,0,0,0,.943-.279,5.7,5.7,0,0,1,1.04-.354c1.019-.124,2.045-.2,3.07-.273.836-.058,1.674-.083,2.406-.118.317.323-.165,1.085.726.881v-1c.7-.183,1.048.314,1.4.677a4.266,4.266,0,0,0,3.358,1.342,23.4,23.4,0,0,0,4.3-.508,2.172,2.172,0,0,0,1.35-.73c1.176-1.379,2.358-2.757,3.585-4.09a9.747,9.747,0,0,0,2.586-4.615,10.474,10.474,0,0,1,3.438-5.753c1.051-.944,2.072-1.921,3.118-2.871a28.365,28.365,0,0,1,4.09-3.435,15.861,15.861,0,0,0,2.47-2.16c1.6-1.519,3.161-3.069,4.754-4.59.114-.108.351-.087.671-.156.167-.6.8-.243,1.312-.264l.048-.466,6.891-1.081c0,1.635-.068,3.328.026,5.011a1.759,1.759,0,0,1-1.084,1.909c-1.608.845-1.572.886-.609,2.454.212.345.405.425.75.217.914-.552,1.829-1.1,2.756-1.63a.863.863,0,0,0,.457-.875c-.019-2.388-.009-4.777-.009-7.166v-.668c.96-.07,1.81-.126,2.659-.2a.613.613,0,0,1,.739.394c.426,1.016.911,2.009,1.332,3.027.135.326.261.438.585.272.2-.1.414-.163.615-.257,1.822-.859,3.632-1.744,5.466-2.576q5.246-2.383,10.515-4.716c1.322-.587,2.662-1.133,4.081-1.734.372.781.714,1.519,1.073,2.249.466.947.507.952,1.38.337-.018-1.151-1.216-1.935-.977-3.141l2.736-1.238c.2.979.742.639,1.234.405l.5.872.114-.064-.371-.852c.515-.419,1.7-.4.936-1.626,1.725-.221,1.868-1.669,2.379-2.829.506.187.964.339,1.41.522a1.827,1.827,0,0,0,2.552-.927,2.079,2.079,0,0,1,.782-.676c.51-.31,1.079-.527,1.568-.863.258-.177.313-.636.813-.43.1.04.411-.208.489-.383.369-.824.465-.839,1.244-.458a3.739,3.739,0,0,0,1.154.161c.021-.323.043-.645.068-1.014h-.927c-.267-.905-.545-1.763-.768-2.636a5.342,5.342,0,0,1-.405-2.156c.71-3.491,1.552-6.954,2.352-10.445.862.641.992.595,1.2-.38a3.353,3.353,0,0,1,.165-.578c.234-.564-.144-.557-.505-.541a1.954,1.954,0,0,0-.458.152,2.212,2.212,0,0,1-.021-.469c.575-2.763,1.143-5.528,1.745-8.286a1.306,1.306,0,0,0-.531-1.475c-1.575-1.252-3.085-2.585-4.673-3.821a1.63,1.63,0,0,1-.746-1.7,1.36,1.36,0,0,0,0-.2c.012-.515-.253-.735-.753-.721-.428.011-.856.026-1.284.009-.68-.027-.772-.214-.817-1.009-.039-.684.356-.653.811-.635.305.012.612,0,.908,0,.052-.369.1-.7.146-1.026.056-.377-.035-.587-.485-.6a14.441,14.441,0,0,1-1.493-.181,8.683,8.683,0,0,0,.253-1.347c.1-3.21.175-6.422.258-9.633.053-2.044.1-4.089.164-6.133a11.989,11.989,0,0,1,.166-1.2,2.084,2.084,0,0,0,2.347-.384c.421-.334.586-.6.3-1.035a1.281,1.281,0,0,1,.262-1.9.635.635,0,0,0,.156-.214c1.032-2.18,2.076-4.354,3.084-6.545.545-1.185,1.026-2.4,1.54-3.608l.891.561.186-.666.492.152.042-.106-1.212-.606c.66-1.558.66-1.558,1.9-1.467,0-.318.126-.721-.023-.921-.54-.727-.519-.926.147-1.594.262-.263.564-.781.47-1.048-.231-.654.18-.787.42-.916a4.8,4.8,0,0,1,.151-.9,20.013,20.013,0,0,1,.948-2.138c.229-.421.185-1.135.966-1.116.052,0,.136-.265.16-.414s-.052-.323,0-.459C499.047,3312.724,499.254,3312.248,499.439,3311.763Zm-175.263-2.7c-.024.126-.267.211-.534.4v-1.405c.192.047.479.058.5.133A2.122,2.122,0,0,1,324.176,3309.065Zm12.169,10.13c-.156.423-.549.262-.6.075a15.114,15.114,0,0,1-.287-1.9l1.314.647C336.626,3318.422,336.487,3318.809,336.345,3319.2Zm6.288-28.021a2.843,2.843,0,0,1-.869.433v-1.461a2.471,2.471,0,0,1,.827.366A.675.675,0,0,1,342.633,3291.175Zm.957-6.087c-.239-.083-.418-.337-.622-.52.183-.181.371-.511.547-.5.219.009.428.294.83.608C343.954,3284.9,343.722,3285.134,343.589,3285.087Zm4.2,10.379c-.118-.037-.338-.073-.339-.114-.018-.787-.73-.892-1.194-1.3l.227-.194c.371.181.64.309.906.443.147.074.4.143.412.242A5.087,5.087,0,0,1,347.79,3295.467Zm10.333,35.117-.264.6-.792-.964,1.552-.507c.047.413.089.784.148,1.3Zm10.2-6.277c.818-.368,1.368.061,1.4,1.1Zm30.909,110.667c-.479.615-1.173.507-1.892.479v-.7c.733.25,1.5.591,1.815-.531l.167.076C399.3,3434.525,399.357,3434.819,399.236,3434.974Zm10.095,4.153c-1.191.089-2.366.176-3.541.265a12.284,12.284,0,0,1-1.6.112,2.9,2.9,0,0,1-1.223-.336,11.652,11.652,0,0,1-1.35-1.027l1.854-2.079.184.1.229,2.577,5.448-.232Zm.471.032c-.069-.874-.146-1.55-.16-2.227,0-.163.184-.457.314-.475.713-.1,1.436-.134,2.287-.2Zm44.66-29.765-.741-1.924,1.084-.278c.031.223.059.574.133.916.063.292.18.571.31.971Z" transform="translate(-318.84 -3258.02)" fill="#70ccb8"/>
</svg>
