<?xml version="1.0" encoding="utf-8"?>
<!-- Generator: Adobe Illustrator 25.2.1, SVG Export Plug-In . SVG Version: 6.00 Build 0)  -->
<svg version="1.1" id="Layer_1" xmlns="http://www.w3.org/2000/svg" xmlns:xlink="http://www.w3.org/1999/xlink" x="0px" y="0px"
	 viewBox="0 0 225 366" style="enable-background:new 0 0 225 366;" xml:space="preserve">
<style type="text/css">
	.st0{fill:#FFFFFF;}
	.st1{fill:#004A47;}
	.st2{fill:#007A6F;stroke:#FFFFFF;stroke-width:0.5;}
	.st3{fill:#09B9A7;}
	.st4{fill:#97FFE2;}
	.st5{fill:#666666;}
	.st6{fill:none;stroke:#FF8300;stroke-width:3;}
	.st7{fill:none;stroke:#FF8300;stroke-width:3;stroke-dasharray:5;}
	.st8{enable-background:new    ;}
</style>
<g transform="translate(196.865 300.119)">
	<path class="st0" d="M7.7,48.2l7.7,17.7l-7.7-4.3L0,65.9L7.7,48.2z"/>
	<path class="st0" d="M4.2,40.9v-10h2l4.1,6.7v-6.7h1.9v10h-2l-4-6.5v6.5H4.2z"/>
</g>
<g transform="translate(60 6)">
	<path class="st1" d="M25.8,25.8H0.3V0.3h25.5V25.8z"/>
	<path class="st0" d="M0.5,0.5v25h25v-25H0.5z M0,0h26v26H0V0z"/>
</g>
<path class="st2" d="M60,52h26v26H60V52z"/>
<path class="st3" d="M60,98h26v26H60V98z"/>
<path class="st4" d="M60,145h26v26H60V145z"/>
<path class="st5" d="M60,284h26v26H60V284z"/>
<path class="st6" d="M60.5,204.5h26"/>
<path class="st7" d="M60.5,250.5h26"/>
<g class="st8">
	<path class="st0" d="M98.9,15.2v-1.7c0.8,0,1.3-0.1,1.7-0.2c0.5-0.1,0.9-0.3,1.2-0.7c0.2-0.2,0.4-0.5,0.5-0.9
		c0.1-0.2,0.1-0.4,0.1-0.5h2.1V24h-2.6v-8.8H98.9z"/>
	<path class="st0" d="M109.4,12.4c0.8-0.8,1.8-1.3,3.1-1.3c1.9,0,3.3,0.9,4,2.6c0.4,1,0.6,2.3,0.6,3.8c0,1.5-0.2,2.8-0.6,3.9
		c-0.8,2-2.1,2.9-4.1,2.9c-1,0-1.8-0.3-2.6-0.8c-0.8-0.6-1.2-1.4-1.3-2.5h2.5c0.1,0.4,0.2,0.7,0.5,0.9s0.6,0.4,1,0.4
		c0.8,0,1.4-0.5,1.7-1.4c0.2-0.5,0.3-1.2,0.3-2.2c-0.2,0.3-0.5,0.5-0.7,0.7c-0.5,0.3-1,0.4-1.7,0.4c-1,0-1.9-0.3-2.7-1.1
		c-0.8-0.7-1.2-1.7-1.2-3C108.2,14.4,108.6,13.3,109.4,12.4z M113.6,17.5c0.6-0.4,0.9-1,0.9-1.9c0-0.7-0.2-1.3-0.5-1.7
		s-0.8-0.6-1.4-0.6c-0.4,0-0.8,0.1-1.1,0.4c-0.5,0.4-0.7,1-0.7,1.9c0,0.8,0.2,1.3,0.5,1.7c0.3,0.4,0.8,0.6,1.4,0.6
		C113,17.8,113.3,17.7,113.6,17.5z"/>
	<path class="st0" d="M126,12.9c0.7,1.1,1,2.8,1,4.9s-0.3,3.7-1,4.9s-1.8,1.7-3.4,1.7s-2.8-0.6-3.4-1.7s-1-2.8-1-4.9s0.3-3.7,1-4.9
		s1.8-1.7,3.4-1.7S125.4,11.7,126,12.9z M121.1,21.1c0.2,0.8,0.7,1.2,1.5,1.2s1.2-0.4,1.5-1.2s0.3-1.9,0.3-3.4
		c0-1.5-0.1-2.7-0.3-3.4s-0.7-1.1-1.5-1.1s-1.2,0.4-1.5,1.1s-0.4,1.9-0.4,3.4C120.8,19.2,120.9,20.3,121.1,21.1z"/>
	<path class="st0" d="M136,12.9c0.7,1.1,1,2.8,1,4.9s-0.3,3.7-1,4.9s-1.8,1.7-3.4,1.7s-2.8-0.6-3.4-1.7s-1-2.8-1-4.9s0.3-3.7,1-4.9
		s1.8-1.7,3.4-1.7S135.4,11.7,136,12.9z M131.2,21.1c0.2,0.8,0.7,1.2,1.5,1.2s1.2-0.4,1.5-1.2s0.3-1.9,0.3-3.4
		c0-1.5-0.1-2.7-0.3-3.4s-0.7-1.1-1.5-1.1s-1.2,0.4-1.5,1.1s-0.4,1.9-0.4,3.4C130.8,19.2,130.9,20.3,131.2,21.1z"/>
</g>
<g class="st8">
	<path class="st0" d="M151.8,22.7c-2.4,0.7-5.1,1.3-7.8,1.7l-0.5-1.9c2.8-0.3,5.6-0.9,8.3-1.7V22.7z M155.1,24.1
		c-0.2-0.2-0.3-0.5-0.5-0.7c-0.9,1.1-2,1.9-3.1,2.6l-1-1.6c1.2-0.7,2.3-1.7,3.3-2.9c-0.3-0.6-0.5-1.3-0.6-2.1
		c-0.4-1.8-0.6-3.9-0.7-6.3h-8.8v-1.8h8.8V9.2h1.9v2.1h1.9c-0.3-0.5-0.5-1-0.8-1.5l1.9-0.3c0.3,0.5,0.5,1.1,0.8,1.8h1.7v1.8h-5.4
		c0,2,0.2,3.7,0.5,5.3c0.1,0.4,0.1,0.8,0.2,1.1c0.9-1.5,1.6-3.3,2.2-5.3l1.7,0.9c-0.8,2.6-1.9,4.9-3.1,6.7c0.1,0.2,0.2,0.4,0.3,0.6
		c0.5,0.9,1,1.3,1.5,1.3c0.3,0,0.6-0.9,0.8-2.8L160,22c-0.5,2.5-1.2,3.8-2.2,3.8C156.9,25.8,156,25.2,155.1,24.1z M151.4,14.6v5.8
		h-7v-5.8H151.4z M149.6,16.3h-3.3v2.4h3.3V16.3z"/>
	<path class="st0" d="M164.8,9.5v11.8c1.2-0.5,2.4-1.1,3.6-1.8l0.6,1.8c-2.1,1.2-4.3,2.2-6.7,3l-0.7-1.8c0.4-0.1,0.9-0.3,1.3-0.5
		V9.5H164.8z M171.4,16l-1.6,1.1c-0.9-1.5-2-3.2-3.5-5.1l1.6-1C169.4,13,170.5,14.6,171.4,16z M168.3,25.7l-1.3-1.5
		c3-1.8,4.9-3.9,5.8-6.4c0.7-2.2,1.1-4.9,1.1-8.4h1.9c0,3.4-0.4,6.3-1.1,8.7l-0.2,0.6c1.4,1.8,2.6,3.5,3.6,5.3l-1.5,1.5
		c-0.7-1.6-1.7-3.2-2.9-5C172.6,22.5,170.8,24.2,168.3,25.7z"/>
	<path class="st0" d="M192.4,9.7c-0.3,0.5-0.7,1-1,1.5h4.4v1.8h-16.3v-1.8h4.6c-0.3-0.6-0.6-1.2-1-1.7l2-0.3c0.4,0.6,0.7,1.2,1.1,2
		h3.2c0.5-0.7,0.9-1.4,1.3-2.2L192.4,9.7z M184.5,25.8l-0.5-1.8l1.3,0.1c0.4,0,0.6-0.3,0.6-0.8v-1h-3.3v3.8h-1.8V14h7v9.5
		c0,1.5-0.6,2.2-1.8,2.2H184.5z M185.8,17.3v-1.5h-3.3v1.5H185.8z M185.8,20.5V19h-3.3v1.5H185.8z M191,15.1v7.7h-1.8v-7.7H191z
		 M190.5,25.7l-0.4-1.8c0.8,0.1,1.5,0.1,2.2,0.1c0.4,0,0.6-0.2,0.6-0.7v-9.6h1.9v10.1c0,1.3-0.6,1.9-1.8,1.9H190.5z"/>
</g>
<g class="st8">
	<path class="st0" d="M98.9,61.2v-1.7c0.8,0,1.3-0.1,1.7-0.2c0.5-0.1,0.9-0.3,1.2-0.7c0.2-0.2,0.4-0.5,0.5-0.9
		c0.1-0.2,0.1-0.4,0.1-0.5h2.1V70h-2.6v-8.8H98.9z"/>
	<path class="st0" d="M109.4,58.4c0.8-0.8,1.8-1.3,3.1-1.3c1.9,0,3.3,0.9,4,2.6c0.4,1,0.6,2.3,0.6,3.8c0,1.5-0.2,2.8-0.6,3.9
		c-0.8,2-2.1,2.9-4.1,2.9c-1,0-1.8-0.3-2.6-0.8c-0.8-0.6-1.2-1.4-1.3-2.5h2.5c0.1,0.4,0.2,0.7,0.5,0.9s0.6,0.4,1,0.4
		c0.8,0,1.4-0.5,1.7-1.4c0.2-0.5,0.3-1.2,0.3-2.2c-0.2,0.3-0.5,0.5-0.7,0.7c-0.5,0.3-1,0.4-1.7,0.4c-1,0-1.9-0.3-2.7-1.1
		c-0.8-0.7-1.2-1.7-1.2-3C108.2,60.4,108.6,59.3,109.4,58.4z M113.6,63.5c0.6-0.4,0.9-1,0.9-1.9c0-0.7-0.2-1.3-0.5-1.7
		s-0.8-0.6-1.4-0.6c-0.4,0-0.8,0.1-1.1,0.4c-0.5,0.4-0.7,1-0.7,1.9c0,0.8,0.2,1.3,0.5,1.7c0.3,0.4,0.8,0.6,1.4,0.6
		C113,63.8,113.3,63.7,113.6,63.5z"/>
	<path class="st0" d="M126,58.9c0.7,1.1,1,2.8,1,4.9s-0.3,3.7-1,4.9s-1.8,1.7-3.4,1.7s-2.8-0.6-3.4-1.7s-1-2.8-1-4.9s0.3-3.7,1-4.9
		s1.8-1.7,3.4-1.7S125.4,57.7,126,58.9z M121.1,67.1c0.2,0.8,0.7,1.2,1.5,1.2s1.2-0.4,1.5-1.2s0.3-1.9,0.3-3.4
		c0-1.5-0.1-2.7-0.3-3.4s-0.7-1.1-1.5-1.1s-1.2,0.4-1.5,1.1s-0.4,1.9-0.4,3.4C120.8,65.2,120.9,66.3,121.1,67.1z"/>
</g>
<g class="st8">
	<path class="st0" d="M128.9,61.2v-1.7c0.8,0,1.3-0.1,1.7-0.2c0.5-0.1,0.9-0.3,1.2-0.7c0.2-0.2,0.4-0.5,0.5-0.9
		c0.1-0.2,0.1-0.4,0.1-0.5h2.1V70h-2.6v-8.8H128.9z"/>
	<path class="st0" d="M138.6,64h10.1v1.9h-10.1V64z"/>
</g>
<g class="st8">
	<path class="st0" d="M151.1,61.2v-1.7c0.8,0,1.3-0.1,1.7-0.2c0.5-0.1,0.9-0.3,1.2-0.7c0.2-0.2,0.4-0.5,0.5-0.9
		c0.1-0.2,0.1-0.4,0.1-0.5h2.1V70h-2.6v-8.8H151.1z"/>
	<path class="st0" d="M161.6,58.4c0.8-0.8,1.8-1.3,3.1-1.3c1.9,0,3.3,0.9,4,2.6c0.4,1,0.6,2.3,0.6,3.8c0,1.5-0.2,2.8-0.6,3.9
		c-0.8,2-2.1,2.9-4.1,2.9c-1,0-1.8-0.3-2.6-0.8c-0.8-0.6-1.2-1.4-1.3-2.5h2.5c0.1,0.4,0.2,0.7,0.5,0.9s0.6,0.4,1,0.4
		c0.8,0,1.4-0.5,1.7-1.4c0.2-0.5,0.3-1.2,0.3-2.2c-0.2,0.3-0.5,0.5-0.7,0.7c-0.5,0.3-1,0.4-1.7,0.4c-1,0-1.9-0.3-2.7-1.1
		c-0.8-0.7-1.2-1.7-1.2-3C160.4,60.4,160.8,59.3,161.6,58.4z M165.8,63.5c0.6-0.4,0.9-1,0.9-1.9c0-0.7-0.2-1.3-0.5-1.7
		s-0.8-0.6-1.4-0.6c-0.4,0-0.8,0.1-1.1,0.4c-0.5,0.4-0.7,1-0.7,1.9c0,0.8,0.2,1.3,0.5,1.7c0.3,0.4,0.8,0.6,1.4,0.6
		C165.2,63.8,165.5,63.7,165.8,63.5z"/>
	<path class="st0" d="M179.3,67.2h-1.4V70h-2.5v-2.7h-5v-2.2l4.7-7.7h2.8v8h1.4V67.2z M175.4,65.3v-5.5l-3.2,5.5H175.4z"/>
	<path class="st0" d="M182.9,66.6c0.1,0.5,0.3,1,0.6,1.3c0.3,0.3,0.7,0.4,1.2,0.4c0.6,0,1.1-0.2,1.4-0.7s0.5-1,0.5-1.6
		c0-0.7-0.2-1.2-0.5-1.6c-0.3-0.4-0.8-0.7-1.4-0.7c-0.3,0-0.6,0-0.8,0.1c-0.4,0.1-0.7,0.4-0.9,0.8l-2.2-0.1l0.9-7h7v2.1h-5.2
		l-0.5,2.8c0.4-0.3,0.7-0.4,0.9-0.5c0.4-0.1,0.8-0.2,1.3-0.2c1.1,0,2,0.4,2.8,1.1s1.2,1.7,1.2,3.1c0,1.2-0.4,2.2-1.1,3.2
		c-0.8,0.9-1.9,1.4-3.4,1.4c-1.2,0-2.2-0.3-3-1s-1.2-1.6-1.3-2.8H182.9z"/>
</g>
<g class="st8">
	<path class="st0" d="M98.9,107.2v-1.7c0.8,0,1.3-0.1,1.7-0.2c0.5-0.1,0.9-0.3,1.2-0.7c0.2-0.2,0.4-0.5,0.5-0.9
		c0.1-0.2,0.1-0.4,0.1-0.5h2.1V116h-2.6v-8.8H98.9z"/>
	<path class="st0" d="M109.4,104.4c0.8-0.8,1.8-1.3,3.1-1.3c1.9,0,3.3,0.9,4,2.6c0.4,1,0.6,2.3,0.6,3.8c0,1.5-0.2,2.8-0.6,3.9
		c-0.8,2-2.1,2.9-4.1,2.9c-1,0-1.8-0.3-2.6-0.8c-0.8-0.6-1.2-1.4-1.3-2.5h2.5c0.1,0.4,0.2,0.7,0.5,0.9s0.6,0.4,1,0.4
		c0.8,0,1.4-0.5,1.7-1.4c0.2-0.5,0.3-1.2,0.3-2.2c-0.2,0.3-0.5,0.5-0.7,0.7c-0.5,0.3-1,0.4-1.7,0.4c-1,0-1.9-0.3-2.7-1.1
		c-0.8-0.7-1.2-1.7-1.2-3C108.2,106.4,108.6,105.3,109.4,104.4z M113.6,109.5c0.6-0.4,0.9-1,0.9-1.9c0-0.7-0.2-1.3-0.5-1.7
		s-0.8-0.6-1.4-0.6c-0.4,0-0.8,0.1-1.1,0.4c-0.5,0.4-0.7,1-0.7,1.9c0,0.8,0.2,1.3,0.5,1.7c0.3,0.4,0.8,0.6,1.4,0.6
		C113,109.8,113.3,109.7,113.6,109.5z"/>
	<path class="st0" d="M127.1,113.2h-1.4v2.7h-2.5v-2.7h-5v-2.2l4.7-7.7h2.8v8h1.4V113.2z M123.2,111.3v-5.5l-3.2,5.5H123.2z"/>
</g>
<g class="st8">
	<path class="st0" d="M134.3,106.5c0-0.2-0.1-0.4-0.2-0.7c-0.3-0.4-0.7-0.6-1.2-0.6c-0.8,0-1.4,0.5-1.7,1.4
		c-0.2,0.5-0.3,1.2-0.4,2.2c0.3-0.4,0.7-0.6,1.1-0.8s0.9-0.3,1.4-0.3c1.1,0,2.1,0.4,2.8,1.2s1.1,1.7,1.1,2.9c0,1.2-0.4,2.2-1.1,3.1
		s-1.8,1.4-3.3,1.4c-1.6,0-2.8-0.7-3.6-2c-0.6-1-0.9-2.4-0.9-4.1c0-1,0-1.8,0.1-2.4c0.1-1.1,0.4-2,0.9-2.7c0.4-0.6,0.8-1.1,1.4-1.5
		s1.3-0.6,2.1-0.6c1.2,0,2.1,0.3,2.8,0.9c0.7,0.6,1.1,1.4,1.2,2.4H134.3z M131.3,113.6c0.4,0.4,0.8,0.7,1.4,0.7c0.6,0,1-0.2,1.3-0.6
		c0.3-0.4,0.5-1,0.5-1.6c0-0.7-0.2-1.3-0.5-1.7c-0.4-0.4-0.8-0.6-1.3-0.6c-0.4,0-0.8,0.1-1.1,0.4c-0.5,0.4-0.7,1-0.7,1.8
		C130.8,112.6,130.9,113.2,131.3,113.6z"/>
	<path class="st0" d="M139.6,110h10.1v1.9h-10.1V110z"/>
</g>
<g class="st8">
	<path class="st0" d="M151.1,107.2v-1.7c0.8,0,1.3-0.1,1.7-0.2c0.5-0.1,0.9-0.3,1.2-0.7c0.2-0.2,0.4-0.5,0.5-0.9
		c0.1-0.2,0.1-0.4,0.1-0.5h2.1V116h-2.6v-8.8H151.1z"/>
	<path class="st0" d="M161.6,104.4c0.8-0.8,1.8-1.3,3.1-1.3c1.9,0,3.3,0.9,4,2.6c0.4,1,0.6,2.3,0.6,3.8c0,1.5-0.2,2.8-0.6,3.9
		c-0.8,2-2.1,2.9-4.1,2.9c-1,0-1.8-0.3-2.6-0.8c-0.8-0.6-1.2-1.4-1.3-2.5h2.5c0.1,0.4,0.2,0.7,0.5,0.9s0.6,0.4,1,0.4
		c0.8,0,1.4-0.5,1.7-1.4c0.2-0.5,0.3-1.2,0.3-2.2c-0.2,0.3-0.5,0.5-0.7,0.7c-0.5,0.3-1,0.4-1.7,0.4c-1,0-1.9-0.3-2.7-1.1
		c-0.8-0.7-1.2-1.7-1.2-3C160.4,106.4,160.8,105.3,161.6,104.4z M165.8,109.5c0.6-0.4,0.9-1,0.9-1.9c0-0.7-0.2-1.3-0.5-1.7
		s-0.8-0.6-1.4-0.6c-0.4,0-0.8,0.1-1.1,0.4c-0.5,0.4-0.7,1-0.7,1.9c0,0.8,0.2,1.3,0.5,1.7c0.3,0.4,0.8,0.6,1.4,0.6
		C165.2,109.8,165.5,109.7,165.8,109.5z"/>
	<path class="st0" d="M170.8,110.5c0.3-0.6,0.8-1,1.4-1.3c-0.6-0.4-1-0.9-1.2-1.3c-0.2-0.5-0.3-0.9-0.3-1.3c0-0.9,0.3-1.7,1-2.4
		c0.7-0.7,1.7-1,3-1s2.3,0.3,3,1c0.7,0.7,1,1.4,1,2.4c0,0.4-0.1,0.9-0.3,1.3c-0.2,0.5-0.6,0.9-1.2,1.2c0.6,0.4,1.1,0.8,1.4,1.4
		c0.3,0.6,0.5,1.2,0.5,1.9c0,1.1-0.4,2-1.2,2.7c-0.8,0.8-1.9,1.1-3.3,1.1c-1.4,0-2.5-0.4-3.2-1.1c-0.7-0.8-1.1-1.7-1.1-2.7
		C170.4,111.7,170.5,111.1,170.8,110.5z M173.4,113.7c0.3,0.3,0.8,0.5,1.3,0.5s1-0.2,1.3-0.5s0.5-0.8,0.5-1.5c0-0.7-0.2-1.1-0.5-1.5
		c-0.3-0.3-0.8-0.5-1.3-0.5s-1,0.2-1.3,0.5c-0.3,0.3-0.5,0.8-0.5,1.5C173,112.9,173.1,113.4,173.4,113.7z M173.6,107.9
		c0.3,0.3,0.7,0.4,1.2,0.4c0.5,0,0.9-0.1,1.2-0.4c0.3-0.3,0.4-0.7,0.4-1.1c0-0.5-0.1-0.9-0.4-1.2c-0.3-0.3-0.7-0.4-1.2-0.4
		c-0.5,0-0.9,0.1-1.2,0.4s-0.4,0.7-0.4,1.2C173.2,107.3,173.3,107.7,173.6,107.9z"/>
	<path class="st0" d="M182.9,112.6c0.1,0.5,0.3,1,0.6,1.3c0.3,0.3,0.7,0.4,1.2,0.4c0.6,0,1.1-0.2,1.4-0.7s0.5-1,0.5-1.6
		c0-0.7-0.2-1.2-0.5-1.6c-0.3-0.4-0.8-0.7-1.4-0.7c-0.3,0-0.6,0-0.8,0.1c-0.4,0.1-0.7,0.4-0.9,0.8l-2.2-0.1l0.9-7h7v2.1h-5.2
		l-0.5,2.8c0.4-0.3,0.7-0.4,0.9-0.5c0.4-0.1,0.8-0.2,1.3-0.2c1.1,0,2,0.4,2.8,1.1s1.2,1.7,1.2,3.1c0,1.2-0.4,2.2-1.1,3.2
		c-0.8,0.9-1.9,1.4-3.4,1.4c-1.2,0-2.2-0.3-3-1s-1.2-1.6-1.3-2.8H182.9z"/>
</g>
<g class="st8">
	<path class="st0" d="M98.9,156.2v-1.7c0.8,0,1.3-0.1,1.7-0.2c0.5-0.1,0.9-0.3,1.2-0.7c0.2-0.2,0.4-0.5,0.5-0.9
		c0.1-0.2,0.1-0.4,0.1-0.5h2.1V165h-2.6v-8.8H98.9z"/>
	<path class="st0" d="M109.4,153.4c0.8-0.8,1.8-1.3,3.1-1.3c1.9,0,3.3,0.9,4,2.6c0.4,1,0.6,2.3,0.6,3.8c0,1.5-0.2,2.8-0.6,3.9
		c-0.8,2-2.1,2.9-4.1,2.9c-1,0-1.8-0.3-2.6-0.8c-0.8-0.6-1.2-1.4-1.3-2.5h2.5c0.1,0.4,0.2,0.7,0.5,0.9s0.6,0.4,1,0.4
		c0.8,0,1.4-0.5,1.7-1.4c0.2-0.5,0.3-1.2,0.3-2.2c-0.2,0.3-0.5,0.5-0.7,0.7c-0.5,0.3-1,0.4-1.7,0.4c-1,0-1.9-0.3-2.7-1.1
		c-0.8-0.7-1.2-1.7-1.2-3C108.2,155.4,108.6,154.3,109.4,153.4z M113.6,158.5c0.6-0.4,0.9-1,0.9-1.9c0-0.7-0.2-1.3-0.5-1.7
		s-0.8-0.6-1.4-0.6c-0.4,0-0.8,0.1-1.1,0.4c-0.5,0.4-0.7,1-0.7,1.9c0,0.8,0.2,1.3,0.5,1.7c0.3,0.4,0.8,0.6,1.4,0.6
		C112.9,158.8,113.3,158.7,113.6,158.5z"/>
	<path class="st0" d="M119.6,159.5c0.3-0.6,0.8-1,1.4-1.3c-0.6-0.4-1-0.9-1.2-1.3c-0.2-0.5-0.3-0.9-0.3-1.3c0-0.9,0.3-1.7,1-2.4
		c0.7-0.7,1.7-1,3-1s2.3,0.3,3,1c0.7,0.7,1,1.4,1,2.4c0,0.4-0.1,0.9-0.3,1.3c-0.2,0.5-0.6,0.9-1.2,1.2c0.6,0.4,1.1,0.8,1.4,1.4
		c0.3,0.6,0.5,1.2,0.5,1.9c0,1.1-0.4,2-1.2,2.7s-1.9,1.1-3.3,1.1c-1.4,0-2.5-0.4-3.2-1.1s-1.1-1.7-1.1-2.7
		C119.1,160.7,119.3,160.1,119.6,159.5z M122.2,162.7c0.3,0.3,0.8,0.5,1.3,0.5s1-0.2,1.3-0.5s0.5-0.8,0.5-1.5c0-0.7-0.2-1.1-0.5-1.5
		c-0.3-0.3-0.8-0.5-1.3-0.5s-1,0.2-1.3,0.5c-0.3,0.3-0.5,0.8-0.5,1.5C121.7,161.9,121.9,162.4,122.2,162.7z M122.4,156.9
		c0.3,0.3,0.7,0.4,1.2,0.4c0.5,0,0.9-0.1,1.2-0.4s0.4-0.7,0.4-1.1c0-0.5-0.1-0.9-0.4-1.2s-0.7-0.4-1.2-0.4c-0.5,0-0.9,0.1-1.2,0.4
		c-0.3,0.3-0.4,0.7-0.4,1.2C121.9,156.3,122.1,156.7,122.4,156.9z"/>
</g>
<g class="st8">
	<path class="st0" d="M135.5,155.5c0-0.2-0.1-0.4-0.2-0.7c-0.3-0.4-0.7-0.6-1.2-0.6c-0.8,0-1.4,0.5-1.7,1.4
		c-0.2,0.5-0.3,1.2-0.4,2.2c0.3-0.4,0.7-0.6,1.1-0.8s0.9-0.3,1.4-0.3c1.1,0,2.1,0.4,2.8,1.2s1.1,1.7,1.1,2.9c0,1.2-0.4,2.2-1.1,3.1
		s-1.8,1.4-3.3,1.4c-1.6,0-2.8-0.7-3.6-2c-0.6-1-0.9-2.4-0.9-4.1c0-1,0-1.8,0.1-2.4c0.1-1.1,0.4-2,0.9-2.7c0.4-0.6,0.8-1.1,1.4-1.5
		s1.3-0.6,2.1-0.6c1.2,0,2.1,0.3,2.8,0.9c0.7,0.6,1.1,1.4,1.2,2.4H135.5z M132.5,162.6c0.4,0.4,0.8,0.7,1.4,0.7c0.6,0,1-0.2,1.3-0.6
		c0.3-0.4,0.5-1,0.5-1.6c0-0.7-0.2-1.3-0.5-1.7c-0.4-0.4-0.8-0.6-1.3-0.6c-0.4,0-0.8,0.1-1.1,0.4c-0.5,0.4-0.7,1-0.7,1.8
		C132,161.6,132.2,162.2,132.5,162.6z"/>
</g>
<g class="st8">
	<path class="st0" d="M153.2,163.7c-2.4,0.7-5.1,1.3-7.9,1.7l-0.5-1.9c2.8-0.3,5.6-0.9,8.3-1.7V163.7z M156.5,165.1
		c-0.2-0.2-0.3-0.5-0.5-0.7c-0.9,1.1-2,1.9-3.1,2.6l-1-1.6c1.2-0.7,2.3-1.7,3.3-2.9c-0.3-0.6-0.5-1.3-0.6-2.1
		c-0.4-1.8-0.6-3.9-0.7-6.3H145v-1.8h8.8v-2.1h1.9v2.1h1.9c-0.3-0.5-0.5-1-0.8-1.5l1.9-0.3c0.3,0.5,0.5,1.1,0.8,1.8h1.7v1.8h-5.4
		c0,2,0.2,3.7,0.5,5.3c0.1,0.4,0.1,0.8,0.2,1.1c0.9-1.5,1.6-3.3,2.2-5.3l1.7,0.9c-0.8,2.6-1.9,4.9-3.1,6.7c0.1,0.2,0.2,0.4,0.3,0.6
		c0.5,0.9,1,1.3,1.5,1.3c0.3,0,0.6-0.9,0.8-2.8l1.6,1.1c-0.5,2.5-1.2,3.8-2.2,3.8C158.3,166.8,157.4,166.2,156.5,165.1z
		 M152.8,155.6v5.8h-7v-5.8H152.8z M151,157.3h-3.3v2.4h3.3V157.3z"/>
	<path class="st0" d="M167.2,150.5v11.8c1.2-0.5,2.4-1.1,3.6-1.8l0.6,1.8c-2.1,1.2-4.3,2.2-6.7,3l-0.7-1.8c0.4-0.1,0.9-0.3,1.3-0.5
		v-12.5H167.2z M173.8,157l-1.6,1.1c-0.9-1.5-2-3.2-3.5-5.1l1.6-1C171.8,154,172.9,155.6,173.8,157z M170.7,166.7l-1.3-1.5
		c3-1.8,4.9-3.9,5.8-6.4c0.7-2.2,1.1-4.9,1.1-8.4h1.9c0,3.4-0.4,6.3-1.1,8.7l-0.2,0.6c1.4,1.8,2.6,3.5,3.6,5.3l-1.5,1.5
		c-0.7-1.6-1.7-3.2-2.9-5C175,163.5,173.1,165.2,170.7,166.7z"/>
	<path class="st0" d="M188.1,150.9c-0.9,1.9-2.6,3.7-4.8,5.3l-0.6-1.8c1.7-1.2,2.9-2.6,3.7-4.3L188.1,150.9z M188.5,155.5
		c-0.4,0.9-1,1.7-1.6,2.5v8.7h-1.8v-6.9c-0.5,0.5-1.1,0.9-1.7,1.3l-0.6-1.8c1.8-1.3,3.1-2.9,4-4.7L188.5,155.5z M199,158.4l-1.3,0.9
		c-0.2-0.4-0.5-0.8-0.7-1.2c-1.4,0.2-3,0.4-4.9,0.6l0.5,0.2c-0.1,0.3-0.3,0.5-0.4,0.8h5v1.5c-0.4,1.1-1,2.1-2,2.9
		c1.2,0.6,2.6,1,4.1,1.4l-1.1,1.6c-1.8-0.5-3.3-1.1-4.6-1.8c-1.4,0.8-3.1,1.4-5.2,1.9l-0.8-1.5c1.8-0.4,3.2-0.8,4.4-1.4
		c-0.6-0.5-1.2-1.1-1.7-1.7c-0.5,0.5-1,1-1.6,1.4l-1.3-1.2c1.5-1,2.6-2.3,3.4-3.8c-0.6,0-1.3,0.1-2,0.1l-0.5-1.5
		c1.2-0.4,2.6-1.3,4-2.6c-0.9,0.1-2,0.2-3.3,0.3l-0.2-1.5c0.5,0,1-0.3,1.4-0.7c0.4-0.5,1-1.4,1.8-2.7l1.7,0.6
		c-0.7,1-1.4,1.9-2.1,2.7c0.9-0.1,1.7-0.2,2.5-0.3c0.5-0.5,0.9-1,1.4-1.5l1.6,0.8c-1.9,2.1-3.6,3.6-5.2,4.7c1.6-0.2,3-0.4,4.2-0.6
		c-0.3-0.5-0.6-0.9-0.9-1.4l1.3-0.8C197.6,155.9,198.5,157.2,199,158.4z M195.4,161.2h-3.7c0.5,0.7,1.2,1.4,2,1.9
		C194.4,162.5,195,161.9,195.4,161.2z"/>
</g>
<g class="st8">
	<path class="st0" d="M98.9,202.2v-1.7c0.8,0,1.3-0.1,1.7-0.2c0.5-0.1,0.9-0.3,1.2-0.7c0.2-0.2,0.4-0.5,0.5-0.9
		c0.1-0.2,0.1-0.4,0.1-0.5h2.1V211h-2.6v-8.8H98.9z"/>
	<path class="st0" d="M109.4,199.4c0.8-0.8,1.8-1.3,3.1-1.3c1.9,0,3.3,0.9,4,2.6c0.4,1,0.6,2.3,0.6,3.8c0,1.5-0.2,2.8-0.6,3.9
		c-0.8,2-2.1,2.9-4.1,2.9c-1,0-1.8-0.3-2.6-0.8c-0.8-0.6-1.2-1.4-1.3-2.5h2.5c0.1,0.4,0.2,0.7,0.5,0.9s0.6,0.4,1,0.4
		c0.8,0,1.4-0.5,1.7-1.4c0.2-0.5,0.3-1.2,0.3-2.2c-0.2,0.3-0.5,0.5-0.7,0.7c-0.5,0.3-1,0.4-1.7,0.4c-1,0-1.9-0.3-2.7-1.1
		c-0.8-0.7-1.2-1.7-1.2-3C108.2,201.4,108.6,200.3,109.4,199.4z M113.6,204.5c0.6-0.4,0.9-1,0.9-1.9c0-0.7-0.2-1.3-0.5-1.7
		s-0.8-0.6-1.4-0.6c-0.4,0-0.8,0.1-1.1,0.4c-0.5,0.4-0.7,1-0.7,1.9c0,0.8,0.2,1.3,0.5,1.7c0.3,0.4,0.8,0.6,1.4,0.6
		C113,204.8,113.3,204.7,113.6,204.5z"/>
	<path class="st0" d="M126,199.9c0.7,1.1,1,2.8,1,4.9s-0.3,3.7-1,4.9s-1.8,1.7-3.4,1.7s-2.8-0.6-3.4-1.7s-1-2.8-1-4.9s0.3-3.7,1-4.9
		s1.8-1.7,3.4-1.7S125.4,198.7,126,199.9z M121.1,208.1c0.2,0.8,0.7,1.2,1.5,1.2s1.2-0.4,1.5-1.2s0.3-1.9,0.3-3.4
		c0-1.5-0.1-2.7-0.3-3.4s-0.7-1.1-1.5-1.1s-1.2,0.4-1.5,1.1s-0.4,1.9-0.4,3.4C120.8,206.2,120.9,207.3,121.1,208.1z"/>
	<path class="st0" d="M136,199.9c0.7,1.1,1,2.8,1,4.9s-0.3,3.7-1,4.9s-1.8,1.7-3.4,1.7s-2.8-0.6-3.4-1.7s-1-2.8-1-4.9s0.3-3.7,1-4.9
		s1.8-1.7,3.4-1.7S135.4,198.7,136,199.9z M131.2,208.1c0.2,0.8,0.7,1.2,1.5,1.2s1.2-0.4,1.5-1.2s0.3-1.9,0.3-3.4
		c0-1.5-0.1-2.7-0.3-3.4s-0.7-1.1-1.5-1.1s-1.2,0.4-1.5,1.1s-0.4,1.9-0.4,3.4C130.8,206.2,130.9,207.3,131.2,208.1z"/>
</g>
<g class="st8">
	<path class="st0" d="M156.4,196.7c-0.3,0.5-0.7,1-1,1.5h4.4v1.8h-16.3v-1.8h4.6c-0.3-0.6-0.6-1.2-1-1.7l2-0.3
		c0.4,0.6,0.7,1.2,1.1,2h3.2c0.5-0.7,0.9-1.4,1.3-2.2L156.4,196.7z M148.5,212.8l-0.5-1.8l1.3,0.1c0.4,0,0.6-0.3,0.6-0.8v-1h-3.3
		v3.8h-1.8V201h7v9.5c0,1.5-0.6,2.2-1.8,2.2H148.5z M149.8,204.3v-1.5h-3.3v1.5H149.8z M149.8,207.5V206h-3.3v1.5H149.8z M155,202.1
		v7.7h-1.8v-7.7H155z M154.5,212.7l-0.4-1.8c0.8,0.1,1.5,0.1,2.2,0.1c0.4,0,0.6-0.2,0.6-0.7v-9.6h1.9v10.1c0,1.3-0.6,1.9-1.8,1.9
		H154.5z"/>
	<path class="st0" d="M165.4,203.1l-1.3,1.3c-0.6-0.7-1.5-1.5-2.7-2.4l1.3-1.3C163.8,201.5,164.7,202.3,165.4,203.1z M165.7,206.8
		c-0.7,2.1-1.5,4-2.4,5.9l-1.7-0.8c1-1.9,1.8-3.8,2.6-5.7L165.7,206.8z M165.7,198.6l-1.3,1.3c-0.6-0.7-1.5-1.5-2.7-2.3l1.3-1.3
		C164.1,197.1,165,197.9,165.7,198.6z M167.9,200.2h8.9c-0.1,1.5-0.1,2.9-0.1,4.1h1.4v1.7h-1.5c-0.1,1-0.1,1.9-0.1,2.6h1.3v1.6h-1.4
		c0,0.4-0.1,0.7-0.1,0.8c-0.2,0.6-0.5,1-1,1.3c-0.5,0.3-1.2,0.4-2.2,0.4c-0.5,0-1.1,0-1.7,0l-0.6-1.7c0.8,0,1.4,0.1,2.1,0.1
		c0.4,0,0.8-0.1,1.1-0.1c0.3-0.1,0.5-0.3,0.7-0.7c0,0,0-0.1,0-0.2H166c0.3-1.4,0.5-2.8,0.7-4.2h-1.6v-1.7h1.8
		c0.1-1.1,0.2-2.2,0.3-3.2c-0.3,0.3-0.5,0.6-0.8,0.8l-1.2-1.4c1.1-1.1,2.1-2.6,2.9-4.5l1.9,0.4l-0.5,1h7.9v1.7h-8.9
		C168.4,199.5,168.2,199.9,167.9,200.2z M168.1,208.6h3.7c-0.5-0.5-1.2-1.1-2-1.7l0.9-0.9h-2.2C168.4,207,168.3,207.9,168.1,208.6z
		 M168.9,201.8c0,0.9-0.1,1.7-0.2,2.5h3.2c-0.5-0.5-1.2-0.9-2-1.4l1.1-1.1H168.9z M175,201.8h-3.7c0.8,0.5,1.5,1,2.1,1.5l-1,1h2.5
		C174.9,203.6,174.9,202.7,175,201.8z M174.7,208.6c0-0.7,0.1-1.5,0.1-2.6h-3.5c0.7,0.5,1.4,1,1.9,1.5l-1,1H174.7z"/>
	<path class="st0" d="M195.4,203.4h-13v2.3c-0.1,3-0.6,5.4-1.7,7.2l-1.4-1.2c0.9-1.4,1.3-3.4,1.4-5.9v-4.1h14.8V203.4z M188.6,196.1
		v2.8h4v-2.1h1.8v3.8H181v-3.8h1.8v2.1h4v-2.8H188.6z M194.7,204.4v1.7h-4.6v1.7h5.5v1.7h-5.5v3.4h-1.9v-3.4h-5.3v-1.7h5.3v-1.7
		h-4.5v-1.7H194.7z"/>
	<path class="st0" d="M199.6,208.5c-0.1,1.5-0.3,2.9-0.6,4.2l-1.6-0.5c0.4-1.1,0.6-2.4,0.7-3.9L199.6,208.5z M204,207l-1.5,0.4
		c0-0.3-0.1-0.5-0.1-0.7c-1.6,0.5-3,0.8-4.4,1l-0.5-1.7c0.3-0.1,0.6-0.3,0.8-0.5c0.5-0.5,1.1-1.3,1.8-2.5c-0.7,0.1-1.5,0.3-2.2,0.4
		l-0.5-1.7c0.3-0.1,0.5-0.4,0.8-0.7c0.7-1.5,1.4-3.1,1.9-4.8l1.8,0.7c-0.8,1.9-1.5,3.4-2.3,4.6c0.5-0.1,1-0.1,1.5-0.2
		c0.3-0.6,0.7-1.4,1.1-2.1l1.7,0.6c-1.5,2.7-2.7,4.6-3.7,5.9c0.6-0.1,1.3-0.3,1.9-0.5c-0.1-0.4-0.2-0.9-0.4-1.3l1.4-0.5
		C203.5,204.5,203.8,205.7,204,207z M202,211.7l-1.6,0.4c-0.1-1.4-0.2-2.7-0.3-3.7l1.4-0.3C201.7,209.2,201.9,210.4,202,211.7z
		 M204.1,210l-1.3,0.6c-0.3-1-0.5-1.8-0.8-2.6l1.3-0.4C203.6,208.3,203.9,209.1,204.1,210z M207.4,205.8v1.3c-0.5,2.3-1.4,4.1-3,5.3
		l-1-1.4c1.1-0.9,1.9-2.1,2.4-3.6h-1.7v-1.5H207.4z M207.2,197.7c0.2-0.5,0.3-1,0.5-1.5l1.9,0.3c-0.1,0.4-0.3,0.8-0.5,1.2h3.8v6.8
		h-3v1.2c0.2,0.4,0.4,0.8,0.6,1.2c0.9-0.6,1.7-1.2,2.4-1.8l1,1.3c-0.7,0.6-1.6,1.2-2.6,1.8c0.8,1,1.7,1.9,2.9,2.7l-1.1,1.4
		c-1.3-1.2-2.4-2.5-3.2-3.9v2.6c0,1.2-0.6,1.8-1.7,1.8h-1.3l-0.4-1.7c0.4,0.1,0.8,0.1,1.1,0.1c0.4,0,0.6-0.2,0.6-0.7v-6.1h-3.5v-6.8
		H207.2z M211.1,200.3v-1h-4.8v1H211.1z M211.1,201.9h-4.8v1h4.8V201.9z"/>
</g>
<g class="st8">
	<path class="st0" d="M101.8,290.6v-1.5h1.9v1.5h5.9v-1.5h1.9v1.5h3v1.8h-3v7.6h3.3v1.7H98.5V300h3.3v-7.6h-3v-1.8H101.8z
		 M105.2,303.1c-1.4,1-3.2,2-5.3,2.8l-1.2-1.5c2-0.7,3.7-1.5,5.1-2.4L105.2,303.1z M109.6,293.9v-1.5h-5.9v1.5H109.6z M109.6,296.9
		v-1.5h-5.9v1.5H109.6z M109.6,300v-1.5h-5.9v1.5H109.6z M114.5,304.2l-1,1.6c-1.7-1-3.5-1.9-5.3-2.5l1-1.4
		C111.1,302.6,112.9,303.3,114.5,304.2z"/>
	<path class="st0" d="M121.7,289.8c-0.4,1.3-0.9,2.6-1.6,3.8v12.3h-1.9v-9.4c-0.5,0.6-1,1.2-1.5,1.8l-0.6-1.9c1.7-2.1,3-4.5,3.8-7.3
		L121.7,289.8z M130.8,299.6l-1.7-0.5c0.4-1.4,0.7-3,0.9-4.9l-2.1,0.6v7.1H126v-6.6l-2.1,0.6v7c0,0.5,0.3,0.8,0.9,0.8h5.3
		c0.4,0,0.6-0.1,0.8-0.3c0.1-0.3,0.3-1.1,0.3-2.5l1.8,0.6c-0.1,1.9-0.4,3-0.7,3.4c-0.3,0.4-1,0.6-1.9,0.6h-6.1
		c-1.5,0-2.3-0.8-2.3-2.4v-6.6l-1.4,0.4v-1.8l1.4-0.4v-3.9h1.9v3.3l2.1-0.6v-4.3h1.9v3.8l3.9-1.2
		C131.7,294.2,131.4,296.8,130.8,299.6z"/>
	<path class="st0" d="M144.4,290.3v-1.2h1.8v1.2h4.2v1.6h-4.2v0.8h3.3v8.2h1.5v1.7h-3.4c1.1,0.6,2.2,1.3,3.2,2.1l-1.1,1.3
		c-1.1-1-2.2-1.8-3.4-2.5l1-0.9h-4.1l1.1,0.9c-1,0.9-2.3,1.8-3.9,2.5l-1.1-1.4c1.4-0.6,2.5-1.2,3.5-2h-3.4v-1.3
		c-1.5,0.6-3.1,1.1-4.8,1.5l-0.5-1.8c0.7-0.1,1.3-0.3,2-0.4v-5.4h-1.8v-1.8h1.8v-4.1h1.8v4.1h1.6v1.8h-1.6v4.9
		c0.5-0.2,1.1-0.4,1.6-0.6v1.5h1.4v-8.2h3.3v-0.8h-4.2v-1.6H144.4z M147.8,294.9v-0.7h-4.9v0.7H147.8z M147.8,296.9v-0.7h-4.9v0.7
		H147.8z M147.8,298.9v-0.7h-4.9v0.7H147.8z M147.8,300.9v-0.8h-4.9v0.8H147.8z"/>
	<path class="st0" d="M156.4,296.1l-1.3,1.3c-0.6-0.7-1.5-1.5-2.7-2.4l1.3-1.3C154.7,294.5,155.6,295.3,156.4,296.1z M156.6,299.8
		c-0.7,2.1-1.5,4-2.4,5.9l-1.7-0.8c1-1.9,1.8-3.8,2.6-5.7L156.6,299.8z M156.6,291.6l-1.3,1.3c-0.6-0.7-1.5-1.5-2.7-2.3l1.3-1.3
		C155,290.1,155.9,290.9,156.6,291.6z M158.9,293.2h8.9c-0.1,1.5-0.1,2.9-0.1,4.1h1.4v1.7h-1.5c-0.1,1-0.1,1.9-0.1,2.6h1.3v1.6h-1.4
		c0,0.4-0.1,0.7-0.1,0.8c-0.2,0.6-0.5,1-1,1.3c-0.5,0.3-1.2,0.4-2.2,0.4c-0.5,0-1.1,0-1.7,0l-0.6-1.7c0.8,0,1.4,0.1,2.1,0.1
		c0.4,0,0.8-0.1,1.1-0.1c0.3-0.1,0.5-0.3,0.7-0.7c0,0,0-0.1,0-0.2H157c0.3-1.4,0.5-2.8,0.7-4.2h-1.6v-1.7h1.8
		c0.1-1.1,0.2-2.2,0.3-3.2c-0.3,0.3-0.5,0.6-0.8,0.8l-1.2-1.4c1.1-1.1,2.1-2.6,2.9-4.5l1.9,0.4l-0.5,1h7.9v1.7h-8.9
		C159.3,292.5,159.1,292.9,158.9,293.2z M159.1,301.6h3.7c-0.5-0.5-1.2-1.1-2-1.7l0.9-0.9h-2.2C159.4,300,159.2,300.9,159.1,301.6z
		 M159.9,294.8c0,0.9-0.1,1.7-0.2,2.5h3.2c-0.5-0.5-1.2-0.9-2-1.4l1.1-1.1H159.9z M165.9,294.8h-3.7c0.8,0.5,1.5,1,2.1,1.5l-1,1h2.5
		C165.8,296.6,165.9,295.7,165.9,294.8z M165.6,301.6c0-0.7,0.1-1.5,0.1-2.6h-3.5c0.7,0.5,1.4,1,1.9,1.5l-1,1H165.6z"/>
	<path class="st0" d="M186.2,289.7v1.8h-13.1v11.2c0,0.5,0.3,0.8,0.8,0.8h12.6v1.8h-13.1c-1.4,0-2.1-0.7-2.1-2.1v-11.6h-0.7v-1.8
		H186.2z M179.3,297.7v5.1H174v-5.1H179.3z M183.8,292.2v4.6h-8.4v-4.6H183.8z M177.7,299.3h-1.9v2h1.9V299.3z M182,293.9h-4.9v1.3
		h4.9V293.9z M185.6,297.7v5.1h-5.2v-5.1H185.6z M184,299.3H182v2h1.9V299.3z"/>
	<path class="st0" d="M190.1,293.8v-4.5h1.9v4.5h1.5v1.8H192v4.7c0.5-0.2,1-0.5,1.5-0.7v1.9c-1.4,0.7-3,1.4-4.6,1.9l-0.5-1.9
		c0.6-0.1,1.2-0.3,1.7-0.5v-5.4h-1.6v-1.8H190.1z M198.8,302.4c-1.8,0.7-3.6,1.2-5.6,1.7l-0.5-1.8c2.1-0.3,4.1-0.8,6.1-1.6V302.4z
		 M199.5,291.5c0-0.7,0-1.5,0-2.2h1.8c0,0.8,0,1.5,0,2.2h1.3c-0.2-0.6-0.4-1.1-0.6-1.6l1.7-0.3c0.2,0.6,0.3,1.2,0.5,1.9h0.7v1.8
		h-3.6c0,2.1,0.1,3.9,0.2,5.4c0.5-1.3,0.9-2.7,1.2-4.3l1.6,0.7c-0.6,2.7-1.4,4.9-2.4,6.7c0.3,1.3,0.5,2,0.8,2.1
		c0.3,0,0.6-0.9,0.9-2.5l1.4,1.2c-0.6,2.2-1.4,3.3-2.3,3.3c-0.6,0-1.2-0.5-1.7-1.4c-0.1-0.3-0.3-0.6-0.4-0.9c-0.8,1-1.7,1.8-2.7,2.4
		l-1.2-1.5c1.3-0.7,2.4-1.7,3.3-3.1c-0.1-0.5-0.2-0.9-0.2-1.4c-0.2-1.7-0.4-4-0.5-6.6h-6.2v-1.8H199.5z M198.8,294.6v5.3H194v-5.3
		H198.8z M197.2,296.1h-1.6v2.3h1.6V296.1z"/>
</g>
<g class="st8">
	<path class="st0" d="M98.8,254.5c0.4-0.8,1.2-1.7,2.5-2.7c1.2-0.8,1.9-1.4,2.2-1.8c0.5-0.6,0.8-1.2,0.8-1.8c0-0.5-0.1-1-0.4-1.3
		s-0.7-0.5-1.3-0.5c-0.8,0-1.3,0.3-1.6,0.9c-0.2,0.3-0.3,0.8-0.3,1.6h-2.4c0-1.1,0.2-2,0.6-2.6c0.7-1.3,1.9-1.9,3.6-1.9
		c1.3,0,2.4,0.4,3.2,1.1c0.8,0.7,1.2,1.7,1.2,3c0,0.9-0.3,1.8-0.8,2.5c-0.4,0.5-1,1-1.8,1.6l-1,0.7c-0.6,0.4-1.1,0.8-1.3,1
		s-0.4,0.4-0.6,0.7h5.6v2.2h-8.7C98.2,256.1,98.4,255.2,98.8,254.5z"/>
	<path class="st0" d="M117,245.9c0.7,1.1,1,2.8,1,4.9s-0.3,3.7-1,4.9s-1.8,1.7-3.4,1.7s-2.8-0.6-3.4-1.7s-1-2.8-1-4.9s0.3-3.7,1-4.9
		s1.8-1.7,3.4-1.7S116.4,244.7,117,245.9z M112.1,254.1c0.2,0.8,0.7,1.2,1.5,1.2s1.2-0.4,1.5-1.2s0.3-1.9,0.3-3.4
		c0-1.5-0.1-2.7-0.3-3.4s-0.7-1.1-1.5-1.1s-1.2,0.4-1.5,1.1s-0.4,1.9-0.4,3.4C111.8,252.2,111.9,253.3,112.1,254.1z"/>
	<path class="st0" d="M119.9,248.2v-1.7c0.8,0,1.3-0.1,1.7-0.2c0.5-0.1,0.9-0.3,1.2-0.7c0.2-0.2,0.4-0.5,0.5-0.9
		c0.1-0.2,0.1-0.4,0.1-0.5h2.1V257h-2.6v-8.8H119.9z"/>
	<path class="st0" d="M129.4,245.4c0.8-0.8,1.8-1.3,3.1-1.3c1.9,0,3.3,0.9,4,2.6c0.4,1,0.6,2.3,0.6,3.8c0,1.5-0.2,2.8-0.6,3.9
		c-0.8,2-2.1,2.9-4.1,2.9c-1,0-1.8-0.3-2.6-0.8c-0.8-0.6-1.2-1.4-1.3-2.5h2.5c0.1,0.4,0.2,0.7,0.5,0.9s0.6,0.4,1,0.4
		c0.8,0,1.4-0.5,1.7-1.4c0.2-0.5,0.3-1.2,0.3-2.2c-0.2,0.3-0.5,0.5-0.7,0.7c-0.5,0.3-1,0.4-1.7,0.4c-1,0-1.9-0.3-2.7-1.1
		c-0.8-0.7-1.2-1.7-1.2-3C128.2,247.4,128.6,246.3,129.4,245.4z M133.6,250.5c0.6-0.4,0.9-1,0.9-1.9c0-0.7-0.2-1.3-0.5-1.7
		s-0.8-0.6-1.4-0.6c-0.4,0-0.8,0.1-1.1,0.4c-0.5,0.4-0.7,1-0.7,1.9c0,0.8,0.2,1.3,0.5,1.7c0.3,0.4,0.8,0.6,1.4,0.6
		C133,250.8,133.3,250.7,133.6,250.5z"/>
</g>
<g class="st8">
	<path class="st0" d="M147.4,249.1l-1.3,1.3c-0.6-0.7-1.5-1.5-2.7-2.4l1.3-1.3C145.8,247.5,146.7,248.3,147.4,249.1z M147.7,252.8
		c-0.7,2.1-1.5,4-2.4,5.9l-1.7-0.8c1-1.9,1.8-3.8,2.6-5.7L147.7,252.8z M147.7,244.6l-1.3,1.3c-0.6-0.7-1.5-1.5-2.7-2.3l1.3-1.3
		C146.1,243.1,147,243.9,147.7,244.6z M149.9,246.2h8.9c-0.1,1.5-0.1,2.9-0.1,4.1h1.4v1.7h-1.5c-0.1,1-0.1,1.9-0.1,2.6h1.3v1.6h-1.4
		c0,0.4-0.1,0.7-0.1,0.8c-0.2,0.6-0.5,1-1,1.3c-0.5,0.3-1.2,0.4-2.2,0.4c-0.5,0-1.1,0-1.7,0l-0.6-1.7c0.8,0,1.4,0.1,2.1,0.1
		c0.4,0,0.8-0.1,1.1-0.1c0.3-0.1,0.5-0.3,0.7-0.7c0,0,0-0.1,0-0.2H148c0.3-1.4,0.5-2.8,0.7-4.2h-1.6v-1.7h1.8
		c0.1-1.1,0.2-2.2,0.3-3.2c-0.3,0.3-0.5,0.6-0.8,0.8l-1.2-1.4c1.1-1.1,2.1-2.6,2.9-4.5l1.9,0.4l-0.5,1h7.9v1.7h-8.9
		C150.4,245.5,150.2,245.9,149.9,246.2z M150.1,254.6h3.7c-0.5-0.5-1.2-1.1-2-1.7l0.9-0.9h-2.2C150.4,253,150.3,253.9,150.1,254.6z
		 M150.9,247.8c0,0.9-0.1,1.7-0.2,2.5h3.2c-0.5-0.5-1.2-0.9-2-1.4l1.1-1.1H150.9z M157,247.8h-3.7c0.8,0.5,1.5,1,2.1,1.5l-1,1h2.5
		C156.9,249.6,156.9,248.7,157,247.8z M156.7,254.6c0-0.7,0.1-1.5,0.1-2.6h-3.5c0.7,0.5,1.4,1,1.9,1.5l-1,1H156.7z"/>
	<path class="st0" d="M177.4,249.4h-13v2.3c-0.1,3-0.6,5.4-1.7,7.2l-1.4-1.2c0.9-1.4,1.3-3.4,1.4-5.9v-4.1h14.8V249.4z M170.6,242.1
		v2.8h4v-2.1h1.8v3.8H163v-3.8h1.8v2.1h4v-2.8H170.6z M176.7,250.4v1.7h-4.6v1.7h5.5v1.7h-5.5v3.4h-1.9v-3.4h-5.3v-1.7h5.3v-1.7
		h-4.5v-1.7H176.7z"/>
	<path class="st0" d="M181.6,254.5c-0.1,1.5-0.3,2.9-0.6,4.2l-1.6-0.5c0.4-1.1,0.6-2.4,0.7-3.9L181.6,254.5z M186,253l-1.5,0.4
		c0-0.3-0.1-0.5-0.1-0.7c-1.6,0.5-3,0.8-4.4,1l-0.5-1.7c0.3-0.1,0.6-0.3,0.8-0.5c0.5-0.5,1.1-1.3,1.8-2.5c-0.7,0.1-1.5,0.3-2.2,0.4
		l-0.5-1.7c0.3-0.1,0.5-0.4,0.8-0.7c0.7-1.5,1.4-3.1,1.9-4.8l1.8,0.7c-0.8,1.9-1.5,3.4-2.3,4.6c0.5-0.1,1-0.1,1.5-0.2
		c0.3-0.6,0.7-1.4,1.1-2.1l1.7,0.6c-1.5,2.7-2.7,4.6-3.7,5.9c0.6-0.1,1.3-0.3,1.9-0.5c-0.1-0.4-0.2-0.9-0.4-1.3l1.4-0.5
		C185.5,250.5,185.8,251.7,186,253z M184,257.7l-1.6,0.4c-0.1-1.4-0.2-2.7-0.3-3.7l1.4-0.3C183.7,255.2,183.9,256.4,184,257.7z
		 M186.1,256l-1.3,0.6c-0.3-1-0.5-1.8-0.8-2.6l1.3-0.4C185.6,254.3,185.9,255.1,186.1,256z M189.4,251.8v1.3c-0.5,2.3-1.4,4.1-3,5.3
		l-1-1.4c1.1-0.9,1.9-2.1,2.4-3.6h-1.7v-1.5H189.4z M189.2,243.7c0.2-0.5,0.3-1,0.5-1.5l1.9,0.3c-0.1,0.4-0.3,0.8-0.5,1.2h3.8v6.8
		h-3v1.2c0.2,0.4,0.4,0.8,0.6,1.2c0.9-0.6,1.7-1.2,2.4-1.8l1,1.3c-0.7,0.6-1.6,1.2-2.6,1.8c0.8,1,1.7,1.9,2.9,2.7l-1.1,1.4
		c-1.3-1.2-2.4-2.5-3.2-3.9v2.6c0,1.2-0.6,1.8-1.7,1.8h-1.3l-0.4-1.7c0.4,0.1,0.8,0.1,1.1,0.1c0.4,0,0.6-0.2,0.6-0.7v-6.1h-3.5v-6.8
		H189.2z M193.1,246.3v-1h-4.8v1H193.1z M193.1,247.9h-4.8v1h4.8V247.9z"/>
</g>
</svg>
