<?xml version="1.0" encoding="utf-8"?>
<!-- Generator: Adobe Illustrator 25.2.1, SVG Export Plug-In . SVG Version: 6.00 Build 0)  -->
<svg version="1.1" id="Layer_1" xmlns="http://www.w3.org/2000/svg" xmlns:xlink="http://www.w3.org/1999/xlink" x="0px" y="0px"
	 viewBox="0 0 230 310" style="enable-background:new 0 0 230 310;" xml:space="preserve">
<style type="text/css">
	.st0{fill:#004A47;}
	.st1{fill:#FFFFFF;}
	.st2{font-family:'Helvetica-Bold';}
	.st3{font-size:18px;}
	.st4{fill:#007A6F;}
	.st5{fill:none;stroke:#FFFFFF;stroke-width:0.5;}
	.st6{letter-spacing:1;}
	.st7{fill:#09B9A7;}
	.st8{fill:#97FFE2;}
	.st9{fill:#666666;}
	.st10{fill:none;stroke:#FF8300;stroke-width:3;}
	.st11{fill:none;stroke:#FF8300;stroke-width:3;stroke-dasharray:5;}
</style>
<g id="Group_629" transform="translate(-2276 236)">
	<g transform="matrix(1, 0, 0, 1, 2276, -236)">
		<g id="Path_383-2" transform="translate(9 6)">
			<path class="st0" d="M25.8,25.8H0.2V0.2h25.5V25.8z"/>
			<path class="st1" d="M0.5,0.5v25h25v-25H0.5 M0,0h26v26H0V0z"/>
		</g>
	</g>
	<text transform="matrix(1 0 0 1 2319 -212)" class="st2 st3">1900 or before</text>
	<g id="Rectangle_72" transform="translate(2285 -184)">
		<rect class="st4" width="26" height="26"/>
		<rect x="0.2" y="0.2" class="st5" width="25.5" height="25.5"/>
	</g>
	<text transform="matrix(1 0 0 1 2319 -166)" class="st2 st3">190</text>
	<text transform="matrix(1 0 0 1 2349.0322 -166)" class="st2 st3 st6">1–</text>
	<text transform="matrix(1 0 0 1 2371.2139 -166)" class="st2 st3">1945</text>
	<g id="Rectangle_71" transform="translate(2285 -138)">
		<rect class="st7" width="26" height="26"/>
		<rect x="0.2" y="0.2" class="st5" width="25.5" height="25.5"/>
	</g>
	<text transform="matrix(1 0 0 1 2319 -120)" class="st2 st3">194</text>
	<text transform="matrix(1 0 0 1 2349.0322 -120)" class="st2 st3 st6">6–</text>
	<text transform="matrix(1 0 0 1 2371.2139 -120)" class="st2 st3">1985</text>
	<g id="Rectangle_70" transform="translate(2285 -91)">
		<rect class="st8" width="26" height="26"/>
		<rect x="0.2" y="0.2" class="st5" width="25.5" height="25.5"/>
	</g>
	<g id="Rectangle_111" transform="translate(2285 48)">
		<rect class="st9" width="26" height="26"/>
		<rect x="0.2" y="0.2" class="st5" width="25.5" height="25.5"/>
	</g>
	<text transform="matrix(1 0 0 1 2319 -71)" class="st2 st3">1986 or after</text>
	<text transform="matrix(1 0 0 1 2319 -25)" class="st2 st3">Coastline before 1900</text>
	<text transform="matrix(1 0 0 1 2319 68)" class="st2 st3">Other reclaimed area</text>
	<line id="Line_75" class="st10" x1="2285.5" y1="-31.5" x2="2311.5" y2="-31.5"/>
	<text transform="matrix(1 0 0 1 2319 21)" class="st2 st3">Coastline in 2019</text>
	<line id="Line_92" class="st11" x1="2285.5" y1="14.5" x2="2311.5" y2="14.5"/>
</g>
</svg>
