<?xml version="1.0" encoding="utf-8"?>
<!-- Generator: Adobe Illustrator 23.0.3, SVG Export Plug-In . SVG Version: 6.00 Build 0)  -->
<svg version="1.1" id="圖層_1" xmlns="http://www.w3.org/2000/svg" xmlns:xlink="http://www.w3.org/1999/xlink" x="0px" y="0px"
	 viewBox="0 0 225 366" style="enable-background:new 0 0 225 366;" xml:space="preserve">
<style type="text/css">
	.st0{stroke:#000000;stroke-width:2;stroke-linecap:square;}
	.st1{font-family:'Arial-BoldMT';}
	.st2{font-size:16px;}
	.st3{font-family:'YuGothicUI-Bold';}
	.st4{font-size:14px;}
	.st5{fill:#004A47;}
	.st6{fill:#FFFFFF;}
	.st7{font-size:18px;}
	.st8{fill:#007A6F;}
	.st9{letter-spacing:1;}
	.st10{fill:#09B9A7;}
	.st11{fill:#97FFE2;}
	.st12{fill:#666666;}
	.st13{fill:none;stroke:#FF8300;stroke-width:3;}
	.st14{fill:none;stroke:#FF8300;stroke-width:3;stroke-dasharray:5;}
</style>
<g id="Group_568" transform="translate(-3567 -649)">
	<g id="Group_417" transform="translate(2714 310)">
		<g id="Group_93" transform="translate(913 687.027)">
			<line id="Line_27" class="st0" x1="119.3" y1="13.4" x2="0.5" y2="13.4"/>
			<line id="Line_28" class="st0" x1="0" y1="0" x2="0" y2="13.4"/>
			<line id="Line_29" class="st0" x1="119" y1="0" x2="119" y2="13.4"/>
		</g>
		<text transform="matrix(1 0 0 1 853.117 700)" class="st1 st2">??? </text>
		<text transform="matrix(1 0 0 1 886.8826 700.3516)" class="st3 st2">米</text>
		<g id="Group_32" transform="translate(1049.865 639.119)">
			<path id="Path_15" d="M7.7,48.2l7.7,17.7l-7.7-4.3L0,65.9L7.7,48.2z"/>
			<text transform="matrix(1 0 0 1 3.135 40.881)" class="st1 st4">N</text>
		</g>
	</g>
	<g id="Group_567" transform="translate(1342 885)">
		<g transform="matrix(1, 0, 0, 1, 2225, -236)">
			<g id="Path_383-2" transform="translate(60 6)">
				<path class="st5" d="M25.8,25.8H0.3V0.3h25.5V25.8z"/>
				<path class="st6" d="M0.5,0.5v25h25v-25H0.5 M0,0h26v26H0V0z"/>
			</g>
		</g>
		<text transform="matrix(1 0 0 1 2319 -212)" class="st1 st7">~ 1900</text>
		<rect id="Rectangle_72" x="2285" y="-184" class="st8" width="26" height="26"/>
		<text transform="matrix(1 0 0 1 2319 -166)" class="st1 st7">190</text>
		<text transform="matrix(1 0 0 1 2349.0322 -166)" class="st1 st7 st9">1–</text>
		<text transform="matrix(1 0 0 1 2371.2139 -166)" class="st1 st7">1945</text>
		<rect id="Rectangle_71" x="2285" y="-138" class="st10" width="26" height="26"/>
		<text transform="matrix(1 0 0 1 2319 -120)" class="st1 st7">194</text>
		<text transform="matrix(1 0 0 1 2349.0322 -120)" class="st1 st7 st9">6–</text>
		<text transform="matrix(1 0 0 1 2371.2139 -120)" class="st1 st7">1985</text>
		<rect id="Rectangle_70" x="2285" y="-91" class="st11" width="26" height="26"/>
		<rect id="Rectangle_111" x="2285" y="48" class="st12" width="26" height="26"/>
		<text transform="matrix(1 0 0 1 2319 -71)" class="st1 st7 st9">198</text>
		<text transform="matrix(1 0 0 1 2352.2722 -71)" class="st1 st7 st9">6</text>
		<text transform="matrix(1 0 0 1 2363.363 -70.6045)" class="st3 st7 st9">及以後</text>
		<text transform="matrix(1 0 0 1 2319 -25)" class="st1 st7">1900</text>
		<text transform="matrix(1 0 0 1 2359.043 -24.6045)" class="st3 st7">年前海岸線</text>
		<text transform="matrix(1 0 0 1 2319 68)" class="st3 st7">其他填海區域</text>
		<line id="Line_75" class="st13" x1="2285.5" y1="-31.5" x2="2311.5" y2="-31.5"/>
		<text transform="matrix(1 0 0 1 2319 21)" class="st1 st7">2019</text>
		<text transform="matrix(1 0 0 1 2359.043 21.3955)" class="st3 st7">年海岸線</text>
		<line id="Line_92" class="st14" x1="2285.5" y1="14.5" x2="2311.5" y2="14.5"/>
	</g>
</g>
</svg>
