<?xml version="1.0" encoding="utf-8"?>
<!-- Generator: Adobe Illustrator 25.2.1, SVG Export Plug-In . SVG Version: 6.00 Build 0)  -->
<svg version="1.1" id="Layer_1" xmlns="http://www.w3.org/2000/svg" xmlns:xlink="http://www.w3.org/1999/xlink" x="0px" y="0px"
	 viewBox="0 0 296 366" style="enable-background:new 0 0 296 366;" xml:space="preserve">
<style type="text/css">
	.st0{fill:#004A47;}
	.st1{fill:#FFFFFF;}
	.st2{fill:#007A6F;stroke:#FFFFFF;stroke-width:0.5;}
	.st3{fill:#09B9A7;}
	.st4{fill:#97FFE2;}
	.st5{fill:#666666;}
	.st6{fill:none;stroke:#FF8300;stroke-width:3;}
	.st7{fill:none;stroke:#FF8300;stroke-width:3;stroke-dasharray:5;}
	.st8{enable-background:new    ;}
</style>
<g transform="translate(196.865 300.119)">
	<path d="M46.7,48.2l7.7,17.7l-7.7-4.3L39,65.9L46.7,48.2z"/>
	<path d="M43.2,40.9v-10h2l4.1,6.7v-6.7h1.9v10h-2l-4-6.5v6.5H43.2z"/>
</g>
<g transform="translate(60 6)">
	<path class="st0" d="M25.8,25.8H0.3V0.3h25.5V25.8z"/>
	<path class="st1" d="M0.5,0.5v25h25v-25H0.5z M0,0h26v26H0V0z"/>
</g>
<path class="st2" d="M60,52h26v26H60V52z"/>
<path class="st3" d="M60,98h26v26H60V98z"/>
<path class="st4" d="M60,145h26v26H60V145z"/>
<path class="st5" d="M60,284h26v26H60V284z"/>
<path class="st6" d="M60.5,204.5h26"/>
<path class="st7" d="M60.5,250.5h26"/>
<g class="st8">
	<path d="M98.1,15.6v-1.7c0.8,0,1.3-0.1,1.7-0.2c0.5-0.1,0.9-0.3,1.2-0.7c0.2-0.2,0.4-0.5,0.5-0.9c0.1-0.2,0.1-0.4,0.1-0.5h2.1v12.7
		h-2.6v-8.8L98.1,15.6z"/>
	<path d="M108.5,12.8c0.8-0.8,1.8-1.3,3.1-1.3c1.9,0,3.3,0.9,4,2.6c0.4,1,0.6,2.3,0.6,3.8s-0.2,2.8-0.6,3.9c-0.8,2-2.1,2.9-4.1,2.9
		c-1,0-1.8-0.3-2.6-0.8c-0.8-0.6-1.2-1.4-1.3-2.5h2.5c0.1,0.4,0.2,0.7,0.5,0.9s0.6,0.4,1,0.4c0.8,0,1.4-0.5,1.7-1.4
		c0.2-0.5,0.3-1.2,0.3-2.2c-0.2,0.3-0.5,0.5-0.7,0.7c-0.5,0.3-1,0.4-1.7,0.4c-1,0-1.9-0.3-2.7-1.1c-0.8-0.7-1.2-1.7-1.2-3
		C107.4,14.7,107.7,13.6,108.5,12.8z M112.7,17.8c0.6-0.4,0.9-1,0.9-1.9c0-0.7-0.2-1.3-0.5-1.7s-0.8-0.6-1.4-0.6
		c-0.4,0-0.8,0.1-1.1,0.4c-0.5,0.4-0.7,1-0.7,1.9c0,0.8,0.2,1.3,0.5,1.7s0.8,0.6,1.4,0.6C112.1,18.1,112.4,18,112.7,17.8z"/>
	<path d="M125.2,13.2c0.7,1.1,1,2.8,1,4.9s-0.3,3.7-1,4.9s-1.8,1.7-3.4,1.7s-2.8-0.6-3.4-1.7s-1-2.8-1-4.9s0.3-3.7,1-4.9
		s1.8-1.7,3.4-1.7S124.5,12.1,125.2,13.2z M120.3,21.5c0.2,0.8,0.7,1.2,1.5,1.2s1.2-0.4,1.5-1.2s0.3-1.9,0.3-3.4s-0.1-2.7-0.3-3.4
		s-0.7-1.1-1.5-1.1s-1.2,0.4-1.5,1.1s-0.4,1.9-0.4,3.4S120.1,20.7,120.3,21.5z"/>
	<path d="M135.2,13.2c0.7,1.1,1,2.8,1,4.9s-0.3,3.7-1,4.9s-1.8,1.7-3.4,1.7s-2.8-0.6-3.4-1.7s-1-2.8-1-4.9s0.3-3.7,1-4.9
		s1.8-1.7,3.4-1.7S134.6,12.1,135.2,13.2z M130.3,21.5c0.2,0.8,0.7,1.2,1.5,1.2s1.2-0.4,1.5-1.2s0.3-1.9,0.3-3.4s-0.1-2.7-0.3-3.4
		s-0.7-1.1-1.5-1.1s-1.2,0.4-1.5,1.1s-0.4,1.9-0.4,3.4C130,19.6,130.1,20.7,130.3,21.5z"/>
	<path d="M151,23.2c-0.8,1-2,1.5-3.7,1.5s-2.9-0.5-3.7-1.5s-1.2-2.2-1.2-3.6s0.4-2.6,1.2-3.6s2-1.5,3.7-1.5s2.9,0.5,3.7,1.5
		s1.2,2.2,1.2,3.6S151.8,22.2,151,23.2z M149,21.8c0.4-0.5,0.6-1.3,0.6-2.2c0-1-0.2-1.7-0.6-2.2s-1-0.8-1.7-0.8s-1.3,0.3-1.7,0.8
		s-0.6,1.3-0.6,2.2c0,1,0.2,1.7,0.6,2.2s1,0.8,1.7,0.8S148.6,22.3,149,21.8z"/>
	<path d="M159.3,14.5h0.2v2.6c-0.2,0-0.3,0-0.4,0s-0.2,0-0.3,0c-1,0-1.7,0.3-2,1c-0.2,0.4-0.3,0.9-0.3,1.7v4.6H154v-9.6h2.4v1.7
		c0.4-0.6,0.7-1.1,1-1.3c0.5-0.4,1.1-0.6,1.8-0.6C159.3,14.5,159.3,14.5,159.3,14.5z"/>
	<path d="M174.2,15.9c0.7,0.9,1.1,2.1,1.1,3.5c0,1.5-0.4,2.7-1.1,3.7s-1.7,1.5-3,1.5c-0.8,0-1.4-0.2-1.9-0.5c-0.3-0.2-0.6-0.5-0.9-1
		v1.2h-2.5V11.4h2.5V16c0.3-0.4,0.7-0.8,1.1-1c0.5-0.3,1-0.4,1.7-0.4C172.5,14.6,173.5,15,174.2,15.9L174.2,15.9z M172.1,21.8
		c0.4-0.5,0.5-1.2,0.5-2.1c0-0.7-0.1-1.2-0.3-1.7c-0.3-0.8-1-1.3-1.9-1.3s-1.5,0.4-1.9,1.2c-0.2,0.4-0.3,1-0.3,1.7
		c0,0.8,0.2,1.5,0.5,2s0.9,0.8,1.7,0.8C171.2,22.5,171.7,22.3,172.1,21.8z"/>
	<path d="M183.3,15c0.7,0.3,1.2,0.8,1.7,1.4c0.4,0.6,0.6,1.2,0.8,2c0.1,0.4,0.1,1.1,0.1,1.9h-7c0,1,0.4,1.6,1,2
		c0.4,0.2,0.8,0.4,1.4,0.4s1-0.1,1.4-0.4c0.2-0.2,0.4-0.4,0.5-0.7h2.6c-0.1,0.6-0.4,1.1-0.9,1.7c-0.9,0.9-2.1,1.4-3.6,1.4
		c-1.3,0-2.4-0.4-3.4-1.2s-1.5-2.1-1.5-3.8s0.4-2.9,1.3-3.8s2-1.3,3.4-1.3C181.8,14.5,182.6,14.7,183.3,15z M179.5,17.1
		c-0.4,0.4-0.6,0.9-0.7,1.5h4.3c0-0.7-0.3-1.2-0.7-1.5s-0.9-0.5-1.5-0.5C180.4,16.6,179.9,16.8,179.5,17.1L179.5,17.1z"/>
	<path d="M191,11.3h0.5v2c-0.1,0-0.4,0-0.7,0s-0.6,0.1-0.7,0.2s-0.2,0.3-0.2,0.5s0,0.5,0,0.8h1.6v1.8h-1.6v7.7h-2.5v-7.7H186v-1.8
		h1.4v-0.6c0-1,0.2-1.7,0.5-2.1c0.4-0.6,1.2-0.9,2.6-0.9C190.7,11.3,190.9,11.3,191,11.3L191,11.3z"/>
	<path d="M201,23.2c-0.8,1-2,1.5-3.7,1.5s-2.9-0.5-3.7-1.5s-1.2-2.2-1.2-3.6s0.4-2.6,1.2-3.6s2-1.5,3.7-1.5s2.9,0.5,3.7,1.5
		s1.2,2.2,1.2,3.6S201.8,22.2,201,23.2z M199,21.8c0.4-0.5,0.6-1.3,0.6-2.2c0-1-0.2-1.7-0.6-2.2s-1-0.8-1.7-0.8s-1.3,0.3-1.7,0.8
		s-0.6,1.3-0.6,2.2c0,1,0.2,1.7,0.6,2.2s1,0.8,1.7,0.8S198.6,22.3,199,21.8z"/>
	<path d="M209.3,14.5h0.2v2.6c-0.2,0-0.3,0-0.4,0s-0.2,0-0.3,0c-1,0-1.7,0.3-2,1c-0.2,0.4-0.3,0.9-0.3,1.7v4.6H204v-9.6h2.4v1.7
		c0.4-0.6,0.7-1.1,1-1.3c0.5-0.4,1.1-0.6,1.8-0.6C209.3,14.5,209.3,14.5,209.3,14.5z"/>
	<path d="M217.3,15c0.7,0.3,1.2,0.8,1.7,1.4c0.4,0.6,0.6,1.2,0.8,2c0.1,0.4,0.1,1.1,0.1,1.9h-7c0,1,0.4,1.6,1,2
		c0.4,0.2,0.8,0.4,1.4,0.4s1-0.1,1.4-0.4c0.2-0.2,0.4-0.4,0.5-0.7h2.6c-0.1,0.6-0.4,1.1-0.9,1.7c-0.9,0.9-2.1,1.4-3.6,1.4
		c-1.3,0-2.4-0.4-3.4-1.2s-1.5-2.1-1.5-3.8s0.4-2.9,1.3-3.8s2-1.3,3.4-1.3C215.8,14.5,216.6,14.7,217.3,15z M213.5,17.1
		c-0.4,0.4-0.6,0.9-0.7,1.5h4.3c0-0.7-0.3-1.2-0.7-1.5s-0.9-0.5-1.5-0.5C214.4,16.6,213.9,16.8,213.5,17.1L213.5,17.1z"/>
</g>
<g class="st8">
	<path d="M98.1,61.6v-1.7c0.8,0,1.3-0.1,1.7-0.2c0.5-0.1,0.9-0.3,1.2-0.7c0.2-0.2,0.4-0.5,0.5-0.9c0.1-0.2,0.1-0.4,0.1-0.5h2.1v12.7
		h-2.6v-8.8h-3L98.1,61.6z"/>
	<path d="M108.5,58.8c0.8-0.8,1.8-1.3,3.1-1.3c1.9,0,3.3,0.9,4,2.6c0.4,1,0.6,2.3,0.6,3.8c0,1.5-0.2,2.8-0.6,3.9
		c-0.8,2-2.1,2.9-4.1,2.9c-1,0-1.8-0.3-2.6-0.8c-0.8-0.6-1.2-1.4-1.3-2.5h2.5c0.1,0.4,0.2,0.7,0.5,0.9s0.6,0.4,1,0.4
		c0.8,0,1.4-0.5,1.7-1.4c0.2-0.5,0.3-1.2,0.3-2.2c-0.2,0.3-0.5,0.5-0.7,0.7c-0.5,0.3-1,0.4-1.7,0.4c-1,0-1.9-0.3-2.7-1.1
		c-0.8-0.7-1.2-1.7-1.2-3C107.4,60.7,107.7,59.6,108.5,58.8z M112.7,63.8c0.6-0.4,0.9-1,0.9-1.9c0-0.7-0.2-1.3-0.5-1.7
		s-0.8-0.6-1.4-0.6c-0.4,0-0.8,0.1-1.1,0.4c-0.5,0.4-0.7,1-0.7,1.9c0,0.8,0.2,1.3,0.5,1.7c0.3,0.4,0.8,0.6,1.4,0.6
		C112.1,64.1,112.4,64,112.7,63.8z"/>
	<path d="M125.2,59.2c0.7,1.1,1,2.8,1,4.9s-0.3,3.7-1,4.9s-1.8,1.7-3.4,1.7s-2.8-0.6-3.4-1.7s-1-2.8-1-4.9s0.3-3.7,1-4.9
		s1.8-1.7,3.4-1.7S124.5,58.1,125.2,59.2z M120.3,67.5c0.2,0.8,0.7,1.2,1.5,1.2s1.2-0.4,1.5-1.2s0.3-1.9,0.3-3.4s-0.1-2.7-0.3-3.4
		s-0.7-1.1-1.5-1.1s-1.2,0.4-1.5,1.1s-0.4,1.9-0.4,3.4S120.1,66.7,120.3,67.5z"/>
</g>
<g class="st8">
	<path d="M128.1,61.6v-1.7c0.8,0,1.3-0.1,1.7-0.2c0.5-0.1,0.9-0.3,1.2-0.7c0.2-0.2,0.4-0.5,0.5-0.9c0.1-0.2,0.1-0.4,0.1-0.5h2.1
		v12.7h-2.6v-8.8h-3V61.6z"/>
	<path d="M137.8,64.3h10.1v1.9h-10.1V64.3z"/>
</g>
<g class="st8">
	<path d="M150.3,61.6v-1.7c0.8,0,1.3-0.1,1.7-0.2c0.5-0.1,0.9-0.3,1.2-0.7c0.2-0.2,0.4-0.5,0.5-0.9c0.1-0.2,0.1-0.4,0.1-0.5h2.1
		v12.7h-2.6v-8.8h-3V61.6z"/>
	<path d="M160.7,58.8c0.8-0.8,1.8-1.3,3.1-1.3c1.9,0,3.3,0.9,4,2.6c0.4,1,0.6,2.3,0.6,3.8c0,1.5-0.2,2.8-0.6,3.9
		c-0.8,2-2.1,2.9-4.1,2.9c-1,0-1.8-0.3-2.6-0.8c-0.8-0.6-1.2-1.4-1.3-2.5h2.5c0.1,0.4,0.2,0.7,0.5,0.9s0.6,0.4,1,0.4
		c0.8,0,1.4-0.5,1.7-1.4c0.2-0.5,0.3-1.2,0.3-2.2c-0.2,0.3-0.5,0.5-0.7,0.7c-0.5,0.3-1,0.4-1.7,0.4c-1,0-1.9-0.3-2.7-1.1
		c-0.8-0.7-1.2-1.7-1.2-3C159.6,60.7,160,59.6,160.7,58.8z M165,63.8c0.6-0.4,0.9-1,0.9-1.9c0-0.7-0.2-1.3-0.5-1.7s-0.8-0.6-1.4-0.6
		c-0.4,0-0.8,0.1-1.1,0.4c-0.5,0.4-0.7,1-0.7,1.9c0,0.8,0.2,1.3,0.5,1.7c0.3,0.4,0.8,0.6,1.4,0.6C164.3,64.1,164.7,64,165,63.8
		L165,63.8z"/>
	<path d="M178.5,67.6h-1.4v2.7h-2.5v-2.7h-5v-2.2l4.7-7.7h2.8v8h1.4V67.6z M174.6,65.6v-5.5l-3.2,5.5H174.6z"/>
	<path d="M182,66.9c0.1,0.5,0.3,1,0.6,1.3s0.7,0.4,1.2,0.4c0.6,0,1.1-0.2,1.4-0.7s0.5-1,0.5-1.6c0-0.7-0.2-1.2-0.5-1.6
		s-0.8-0.7-1.4-0.7c-0.3,0-0.6,0-0.8,0.1c-0.4,0.1-0.7,0.4-0.9,0.8l-2.2-0.1l0.9-7h7v2.1h-5.2l-0.5,2.8c0.4-0.3,0.7-0.4,0.9-0.5
		c0.4-0.1,0.8-0.2,1.3-0.2c1.1,0,2,0.4,2.8,1.1s1.2,1.7,1.2,3.1c0,1.2-0.4,2.2-1.1,3.2c-0.8,0.9-1.9,1.4-3.4,1.4c-1.2,0-2.2-0.3-3-1
		s-1.2-1.6-1.3-2.8h2.5V66.9z"/>
</g>
<g class="st8">
	<path d="M98.1,107.6v-1.7c0.8,0,1.3-0.1,1.7-0.2c0.5-0.1,0.9-0.3,1.2-0.7c0.2-0.2,0.4-0.5,0.5-0.9c0.1-0.2,0.1-0.4,0.1-0.5h2.1
		v12.7h-2.6v-8.8L98.1,107.6z"/>
	<path d="M108.5,104.8c0.8-0.8,1.8-1.3,3.1-1.3c1.9,0,3.3,0.9,4,2.6c0.4,1,0.6,2.3,0.6,3.8s-0.2,2.8-0.6,3.9c-0.8,2-2.1,2.9-4.1,2.9
		c-1,0-1.8-0.3-2.6-0.8c-0.8-0.6-1.2-1.4-1.3-2.5h2.5c0.1,0.4,0.2,0.7,0.5,0.9s0.6,0.4,1,0.4c0.8,0,1.4-0.5,1.7-1.4
		c0.2-0.5,0.3-1.2,0.3-2.2c-0.2,0.3-0.5,0.5-0.7,0.7c-0.5,0.3-1,0.4-1.7,0.4c-1,0-1.9-0.3-2.7-1.1c-0.8-0.7-1.2-1.7-1.2-3
		C107.4,106.7,107.7,105.6,108.5,104.8z M112.7,109.8c0.6-0.4,0.9-1,0.9-1.9c0-0.7-0.2-1.3-0.5-1.7s-0.8-0.6-1.4-0.6
		c-0.4,0-0.8,0.1-1.1,0.4c-0.5,0.4-0.7,1-0.7,1.9c0,0.8,0.2,1.3,0.5,1.7s0.8,0.6,1.4,0.6C112.1,110.1,112.4,110,112.7,109.8z"/>
	<path d="M126.2,113.6h-1.4v2.7h-2.5v-2.7h-5v-2.2l4.7-7.7h2.8v8h1.4V113.6z M122.3,111.6v-5.5l-3.2,5.5H122.3z"/>
</g>
<g class="st8">
	<path d="M133.4,106.8c0-0.2-0.1-0.4-0.2-0.7c-0.3-0.4-0.7-0.6-1.2-0.6c-0.8,0-1.4,0.5-1.7,1.4c-0.2,0.5-0.3,1.2-0.4,2.2
		c0.3-0.4,0.7-0.6,1.1-0.8s0.9-0.3,1.4-0.3c1.1,0,2.1,0.4,2.8,1.2s1.1,1.7,1.1,2.9s-0.4,2.2-1.1,3.1s-1.8,1.4-3.3,1.4
		c-1.6,0-2.8-0.7-3.6-2c-0.6-1-0.9-2.4-0.9-4.1c0-1,0-1.8,0.1-2.4c0.1-1.1,0.4-2,0.9-2.7c0.4-0.6,0.8-1.1,1.4-1.5s1.3-0.6,2.1-0.6
		c1.2,0,2.1,0.3,2.8,0.9s1.1,1.4,1.2,2.4h-2.5V106.8z M130.5,114c0.4,0.4,0.8,0.7,1.4,0.7s1-0.2,1.3-0.6s0.5-1,0.5-1.6
		c0-0.7-0.2-1.3-0.5-1.7c-0.4-0.4-0.8-0.6-1.3-0.6c-0.4,0-0.8,0.1-1.1,0.4c-0.5,0.4-0.7,1-0.7,1.8C129.9,113,130.1,113.6,130.5,114
		L130.5,114z"/>
	<path d="M138.8,110.3h10.1v1.9h-10.1V110.3z"/>
</g>
<g class="st8">
	<path d="M150.3,107.6v-1.7c0.8,0,1.3-0.1,1.7-0.2c0.5-0.1,0.9-0.3,1.2-0.7c0.2-0.2,0.4-0.5,0.5-0.9c0.1-0.2,0.1-0.4,0.1-0.5h2.1
		v12.7h-2.6v-8.8L150.3,107.6z"/>
	<path d="M160.7,104.8c0.8-0.8,1.8-1.3,3.1-1.3c1.9,0,3.3,0.9,4,2.6c0.4,1,0.6,2.3,0.6,3.8s-0.2,2.8-0.6,3.9c-0.8,2-2.1,2.9-4.1,2.9
		c-1,0-1.8-0.3-2.6-0.8c-0.8-0.6-1.2-1.4-1.3-2.5h2.5c0.1,0.4,0.2,0.7,0.5,0.9s0.6,0.4,1,0.4c0.8,0,1.4-0.5,1.7-1.4
		c0.2-0.5,0.3-1.2,0.3-2.2c-0.2,0.3-0.5,0.5-0.7,0.7c-0.5,0.3-1,0.4-1.7,0.4c-1,0-1.9-0.3-2.7-1.1c-0.8-0.7-1.2-1.7-1.2-3
		C159.6,106.7,160,105.6,160.7,104.8z M165,109.8c0.6-0.4,0.9-1,0.9-1.9c0-0.7-0.2-1.3-0.5-1.7s-0.8-0.6-1.4-0.6
		c-0.4,0-0.8,0.1-1.1,0.4c-0.5,0.4-0.7,1-0.7,1.9c0,0.8,0.2,1.3,0.5,1.7s0.8,0.6,1.4,0.6C164.3,110.1,164.7,110,165,109.8L165,109.8
		z"/>
	<path d="M170,110.9c0.3-0.6,0.8-1,1.4-1.3c-0.6-0.4-1-0.9-1.2-1.3c-0.2-0.5-0.3-0.9-0.3-1.3c0-0.9,0.3-1.7,1-2.4s1.7-1,3-1
		s2.3,0.3,3,1s1,1.4,1,2.4c0,0.4-0.1,0.9-0.3,1.3c-0.2,0.5-0.6,0.9-1.2,1.2c0.6,0.4,1.1,0.8,1.4,1.4s0.5,1.2,0.5,1.9
		c0,1.1-0.4,2-1.2,2.7c-0.8,0.8-1.9,1.1-3.3,1.1s-2.5-0.4-3.2-1.1c-0.7-0.8-1.1-1.7-1.1-2.7C169.5,112.1,169.7,111.4,170,110.9
		L170,110.9z M172.6,114.1c0.3,0.3,0.8,0.5,1.3,0.5s1-0.2,1.3-0.5s0.5-0.8,0.5-1.5s-0.2-1.1-0.5-1.5c-0.3-0.3-0.8-0.5-1.3-0.5
		s-1,0.2-1.3,0.5s-0.5,0.8-0.5,1.5S172.3,113.8,172.6,114.1z M172.8,108.3c0.3,0.3,0.7,0.4,1.2,0.4s0.9-0.1,1.2-0.4s0.4-0.7,0.4-1.1
		c0-0.5-0.1-0.9-0.4-1.2s-0.7-0.4-1.2-0.4s-0.9,0.1-1.2,0.4s-0.4,0.7-0.4,1.2C172.3,107.6,172.5,108,172.8,108.3z"/>
	<path d="M182,112.9c0.1,0.5,0.3,1,0.6,1.3s0.7,0.4,1.2,0.4c0.6,0,1.1-0.2,1.4-0.7s0.5-1,0.5-1.6c0-0.7-0.2-1.2-0.5-1.6
		s-0.8-0.7-1.4-0.7c-0.3,0-0.6,0-0.8,0.1c-0.4,0.1-0.7,0.4-0.9,0.8l-2.2-0.1l0.9-7h7v2.1h-5.2l-0.5,2.8c0.4-0.3,0.7-0.4,0.9-0.5
		c0.4-0.1,0.8-0.2,1.3-0.2c1.1,0,2,0.4,2.8,1.1s1.2,1.7,1.2,3.1c0,1.2-0.4,2.2-1.1,3.2c-0.8,0.9-1.9,1.4-3.4,1.4c-1.2,0-2.2-0.3-3-1
		s-1.2-1.6-1.3-2.8h2.5V112.9z"/>
</g>
<g class="st8">
	<path d="M98.1,156.6v-1.7c0.8,0,1.3-0.1,1.7-0.2c0.5-0.1,0.9-0.3,1.2-0.7c0.2-0.2,0.4-0.5,0.5-0.9c0.1-0.2,0.1-0.4,0.1-0.5h2.1
		v12.7h-2.6v-8.8L98.1,156.6z"/>
	<path d="M108.5,153.8c0.8-0.8,1.8-1.3,3.1-1.3c1.9,0,3.3,0.9,4,2.6c0.4,1,0.6,2.3,0.6,3.8s-0.2,2.8-0.6,3.9c-0.8,2-2.1,2.9-4.1,2.9
		c-1,0-1.8-0.3-2.6-0.8c-0.8-0.6-1.2-1.4-1.3-2.5h2.5c0.1,0.4,0.2,0.7,0.5,0.9s0.6,0.4,1,0.4c0.8,0,1.4-0.5,1.7-1.4
		c0.2-0.5,0.3-1.2,0.3-2.2c-0.2,0.3-0.5,0.5-0.7,0.7c-0.5,0.3-1,0.4-1.7,0.4c-1,0-1.9-0.3-2.7-1.1c-0.8-0.7-1.2-1.7-1.2-3
		C107.4,155.7,107.7,154.6,108.5,153.8L108.5,153.8z M112.7,158.8c0.6-0.4,0.9-1,0.9-1.9c0-0.7-0.2-1.3-0.5-1.7s-0.8-0.6-1.4-0.6
		c-0.4,0-0.8,0.1-1.1,0.4c-0.5,0.4-0.7,1-0.7,1.9c0,0.8,0.2,1.3,0.5,1.7s0.8,0.6,1.4,0.6C112.1,159.1,112.4,159,112.7,158.8z"/>
	<path d="M117.8,159.9c0.3-0.6,0.8-1,1.4-1.3c-0.6-0.4-1-0.9-1.2-1.3c-0.2-0.5-0.3-0.9-0.3-1.3c0-0.9,0.3-1.7,1-2.4s1.7-1,3-1
		s2.3,0.3,3,1s1,1.4,1,2.4c0,0.4-0.1,0.9-0.3,1.3c-0.2,0.5-0.6,0.9-1.2,1.2c0.6,0.4,1.1,0.8,1.4,1.4s0.5,1.2,0.5,1.9
		c0,1.1-0.4,2-1.2,2.7c-0.8,0.8-1.9,1.1-3.3,1.1s-2.5-0.4-3.2-1.1c-0.7-0.8-1.1-1.7-1.1-2.7C117.3,161.1,117.5,160.4,117.8,159.9
		L117.8,159.9z M120.4,163.1c0.3,0.3,0.8,0.5,1.3,0.5s1-0.2,1.3-0.5s0.5-0.8,0.5-1.5s-0.2-1.1-0.5-1.5c-0.3-0.3-0.8-0.5-1.3-0.5
		s-1,0.2-1.3,0.5s-0.5,0.8-0.5,1.5S120.1,162.8,120.4,163.1z M120.5,157.3c0.3,0.3,0.7,0.4,1.2,0.4s0.9-0.1,1.2-0.4s0.4-0.7,0.4-1.1
		c0-0.5-0.1-0.9-0.4-1.2s-0.7-0.4-1.2-0.4s-0.9,0.1-1.2,0.4s-0.4,0.7-0.4,1.2C120.1,156.6,120.3,157,120.5,157.3z"/>
	<path d="M133.4,155.8c0-0.2-0.1-0.4-0.2-0.7c-0.3-0.4-0.7-0.6-1.2-0.6c-0.8,0-1.4,0.5-1.7,1.4c-0.2,0.5-0.3,1.2-0.4,2.2
		c0.3-0.4,0.7-0.6,1.1-0.8s0.9-0.3,1.4-0.3c1.1,0,2.1,0.4,2.8,1.2s1.1,1.7,1.1,2.9s-0.4,2.2-1.1,3.1s-1.8,1.4-3.3,1.4
		c-1.6,0-2.8-0.7-3.6-2c-0.6-1-0.9-2.4-0.9-4.1c0-1,0-1.8,0.1-2.4c0.1-1.1,0.4-2,0.9-2.7c0.4-0.6,0.8-1.1,1.4-1.5s1.3-0.6,2.1-0.6
		c1.2,0,2.1,0.3,2.8,0.9s1.1,1.4,1.2,2.4h-2.5V155.8z M130.5,163c0.4,0.4,0.8,0.7,1.4,0.7s1-0.2,1.3-0.6s0.5-1,0.5-1.6
		c0-0.7-0.2-1.3-0.5-1.7c-0.4-0.4-0.8-0.6-1.3-0.6c-0.4,0-0.8,0.1-1.1,0.4c-0.5,0.4-0.7,1-0.7,1.8C129.9,162,130.1,162.6,130.5,163
		L130.5,163z"/>
	<path d="M151,164.2c-0.8,1-2,1.5-3.7,1.5s-2.9-0.5-3.7-1.5s-1.2-2.2-1.2-3.6s0.4-2.6,1.2-3.6s2-1.5,3.7-1.5s2.9,0.5,3.7,1.5
		s1.2,2.2,1.2,3.6S151.8,163.2,151,164.2z M149,162.8c0.4-0.5,0.6-1.3,0.6-2.2c0-1-0.2-1.7-0.6-2.2s-1-0.8-1.7-0.8s-1.3,0.3-1.7,0.8
		s-0.6,1.3-0.6,2.2c0,1,0.2,1.7,0.6,2.2s1,0.8,1.7,0.8S148.6,163.3,149,162.8z"/>
	<path d="M159.3,155.5h0.2v2.6c-0.2,0-0.3,0-0.4,0s-0.2,0-0.3,0c-1,0-1.7,0.3-2,1c-0.2,0.4-0.3,0.9-0.3,1.7v4.6H154v-9.6h2.4v1.7
		c0.4-0.6,0.7-1.1,1-1.3c0.5-0.4,1.1-0.6,1.8-0.6C159.3,155.5,159.3,155.5,159.3,155.5L159.3,155.5z"/>
	<path d="M169.8,159.5c0.5-0.1,0.8-0.1,1-0.2c0.4-0.2,0.5-0.4,0.5-0.7c0-0.4-0.1-0.7-0.4-0.8s-0.7-0.2-1.2-0.2c-0.6,0-1,0.1-1.3,0.4
		c-0.2,0.2-0.3,0.5-0.4,0.9h-2.4c0.1-0.8,0.3-1.5,0.7-2.1c0.7-0.8,1.8-1.3,3.4-1.3c1.1,0,2,0.2,2.8,0.6s1.2,1.2,1.2,2.4v4.4v1.1
		c0,0.3,0.1,0.6,0.1,0.7s0.2,0.2,0.4,0.3v0.4h-2.7c-0.1-0.2-0.1-0.4-0.2-0.5s-0.1-0.4-0.1-0.6c-0.3,0.4-0.7,0.7-1.2,1
		s-1.2,0.5-1.8,0.5c-0.9,0-1.6-0.2-2.2-0.7s-0.9-1.2-0.9-2.1c0-1.2,0.5-2,1.4-2.6c0.5-0.3,1.2-0.5,2.2-0.6L169.8,159.5z
		 M171.3,160.7c-0.2,0.1-0.3,0.2-0.5,0.2c-0.2,0.1-0.4,0.1-0.7,0.2l-0.6,0.1c-0.5,0.1-0.9,0.2-1.2,0.3c-0.4,0.2-0.6,0.6-0.6,1.1
		c0,0.4,0.1,0.7,0.4,0.9c0.2,0.2,0.5,0.3,0.9,0.3c0.5,0,1.1-0.2,1.5-0.5c0.5-0.3,0.7-0.9,0.7-1.7v-0.9L171.3,160.7z"/>
	<path d="M180,152.3h0.5v2c-0.1,0-0.4,0-0.7,0s-0.6,0.1-0.7,0.2s-0.2,0.3-0.2,0.5s0,0.5,0,0.8h1.6v1.8h-1.6v7.7h-2.5v-7.7H175v-1.8
		h1.4v-0.6c0-1,0.2-1.7,0.5-2.1c0.4-0.6,1.2-0.9,2.6-0.9C179.7,152.3,179.9,152.3,180,152.3L180,152.3z"/>
	<path d="M181,157.6v-1.8h1.3v-2.7h2.5v2.7h1.6v1.8h-1.5v5.1c0,0.4,0,0.6,0.1,0.7s0.4,0.1,0.9,0.1h0.2h0.2v1.9h-1.2
		c-1.2,0-2-0.2-2.4-0.6c-0.3-0.3-0.4-0.7-0.4-1.3v-5.9H181z"/>
	<path d="M194.3,156c0.7,0.3,1.2,0.8,1.7,1.4c0.4,0.6,0.6,1.2,0.8,2c0.1,0.4,0.1,1.1,0.1,1.9h-7c0,1,0.4,1.6,1,2
		c0.4,0.2,0.8,0.4,1.4,0.4s1-0.1,1.4-0.4c0.2-0.2,0.4-0.4,0.5-0.7h2.6c-0.1,0.6-0.4,1.1-0.9,1.7c-0.9,0.9-2.1,1.4-3.6,1.4
		c-1.3,0-2.4-0.4-3.4-1.2s-1.5-2.1-1.5-3.8s0.4-2.9,1.3-3.8s2-1.3,3.4-1.3C192.8,155.5,193.6,155.7,194.3,156L194.3,156z
		 M190.5,158.1c-0.4,0.4-0.6,0.9-0.7,1.5h4.3c0-0.7-0.3-1.2-0.7-1.5s-0.9-0.5-1.5-0.5C191.4,157.6,190.9,157.8,190.5,158.1
		L190.5,158.1z"/>
	<path d="M203.4,155.5h0.2v2.6c-0.2,0-0.3,0-0.4,0s-0.2,0-0.3,0c-1,0-1.7,0.3-2,1c-0.2,0.4-0.3,0.9-0.3,1.7v4.6h-2.5v-9.6h2.4v1.7
		c0.4-0.6,0.7-1.1,1-1.3c0.5-0.4,1.1-0.6,1.8-0.6C203.3,155.5,203.3,155.5,203.4,155.5L203.4,155.5z"/>
</g>
<g class="st8">
	<path d="M99.4,199.7c1-1.1,2.4-1.6,4-1.6c2.2,0,3.7,0.7,4.7,2.1c0.6,0.8,0.8,1.6,0.9,2.4h-2.7c-0.2-0.6-0.4-1.1-0.7-1.4
		c-0.5-0.6-1.2-0.8-2.1-0.8c-1,0-1.7,0.4-2.3,1.2s-0.8,1.9-0.8,3.4s0.3,2.5,0.9,3.3s1.3,1.1,2.2,1.1s1.6-0.3,2.1-0.9
		c0.3-0.3,0.5-0.8,0.7-1.5h2.7c-0.2,1.4-0.8,2.6-1.8,3.4s-2.2,1.3-3.7,1.3c-1.8,0-3.3-0.6-4.3-1.8c-1.1-1.2-1.6-2.8-1.6-4.9
		C97.6,202.7,98.2,201,99.4,199.7z"/>
	<path d="M119,210.2c-0.8,1-2,1.5-3.7,1.5c-1.6,0-2.9-0.5-3.7-1.5s-1.2-2.2-1.2-3.6s0.4-2.6,1.2-3.6s2-1.5,3.7-1.5
		c1.6,0,2.9,0.5,3.7,1.5s1.2,2.2,1.2,3.6S119.8,209.2,119,210.2z M117,208.8c0.4-0.5,0.6-1.3,0.6-2.2c0-1-0.2-1.7-0.6-2.2
		s-1-0.8-1.7-0.8s-1.3,0.3-1.7,0.8s-0.6,1.3-0.6,2.2c0,1,0.2,1.7,0.6,2.2s1,0.8,1.7,0.8S116.6,209.3,117,208.8z"/>
	<path d="M125.8,205.5c0.5-0.1,0.8-0.1,1-0.2c0.4-0.2,0.5-0.4,0.5-0.7c0-0.4-0.1-0.7-0.4-0.8s-0.7-0.2-1.2-0.2c-0.6,0-1,0.1-1.3,0.4
		c-0.2,0.2-0.3,0.5-0.4,0.9h-2.4c0.1-0.8,0.3-1.5,0.7-2.1c0.7-0.8,1.8-1.3,3.4-1.3c1.1,0,2,0.2,2.8,0.6s1.2,1.2,1.2,2.4v4.4v1.1
		c0,0.3,0.1,0.6,0.1,0.7s0.2,0.2,0.4,0.3v0.4h-2.7c-0.1-0.2-0.1-0.4-0.2-0.5s-0.1-0.4-0.1-0.6c-0.3,0.4-0.7,0.7-1.2,1
		s-1.2,0.5-1.8,0.5c-0.9,0-1.6-0.2-2.2-0.7s-0.9-1.2-0.9-2.1c0-1.2,0.5-2,1.4-2.6c0.5-0.3,1.2-0.5,2.2-0.6L125.8,205.5z
		 M127.3,206.7c-0.2,0.1-0.3,0.2-0.5,0.2c-0.2,0.1-0.4,0.1-0.7,0.2l-0.6,0.1c-0.5,0.1-0.9,0.2-1.2,0.3c-0.4,0.2-0.6,0.6-0.6,1.1
		c0,0.4,0.1,0.7,0.4,0.9c0.2,0.2,0.5,0.3,0.9,0.3c0.5,0,1.1-0.2,1.5-0.5c0.5-0.3,0.7-0.9,0.7-1.7L127.3,206.7z"/>
	<path d="M133.9,208.3c0.1,0.4,0.2,0.8,0.3,0.9c0.3,0.3,0.9,0.5,1.7,0.5c0.5,0,0.9-0.1,1.2-0.2s0.4-0.4,0.4-0.7s-0.1-0.5-0.4-0.6
		c-0.2-0.1-1.1-0.4-2.6-0.8c-1.1-0.3-1.9-0.6-2.3-1s-0.7-1-0.7-1.7c0-0.9,0.3-1.6,1-2.3s1.7-1,2.9-1s2.2,0.2,2.9,0.7
		c0.8,0.5,1.2,1.3,1.3,2.5h-2.5c0-0.3-0.1-0.6-0.3-0.8c-0.3-0.3-0.7-0.5-1.4-0.5c-0.5,0-0.9,0.1-1.2,0.3c-0.2,0.2-0.3,0.4-0.3,0.6
		c0,0.3,0.1,0.5,0.4,0.6c0.2,0.1,1.1,0.4,2.6,0.7c1,0.2,1.7,0.6,2.2,1.1s0.7,1.1,0.7,1.8c0,0.9-0.4,1.7-1.1,2.3s-1.8,0.9-3.3,0.9
		s-2.6-0.3-3.3-1c-0.7-0.6-1.1-1.4-1.1-2.4L133.9,208.3z"/>
	<path d="M141,203.6v-1.8h1.3v-2.7h2.5v2.7h1.6v1.8h-1.6v5.1c0,0.4,0,0.6,0.1,0.7s0.4,0.1,0.9,0.1h0.2h0.2v1.9H145
		c-1.2,0-2-0.2-2.4-0.6c-0.3-0.3-0.4-0.7-0.4-1.3v-5.9H141z"/>
	<path d="M150.5,211.3H148v-13h2.5V211.3z"/>
	<path d="M155.6,200.6h-2.5v-2.3h2.5V200.6z M153,201.8h2.5v9.6H153V201.8z"/>
	<path d="M165.7,202.3c0.6,0.5,0.9,1.4,0.9,2.6v6.5H164v-5.8c0-0.5-0.1-0.9-0.2-1.2c-0.2-0.5-0.7-0.7-1.4-0.7
		c-0.8,0-1.4,0.4-1.7,1.1c-0.2,0.4-0.2,0.9-0.2,1.5v5.2H158v-9.6h2.4v1.4c0.3-0.5,0.6-0.8,0.9-1.1c0.5-0.4,1.2-0.6,2-0.6
		C164.3,201.5,165.1,201.8,165.7,202.3L165.7,202.3z"/>
	<path d="M175.2,202c0.7,0.3,1.2,0.8,1.7,1.4c0.4,0.6,0.6,1.2,0.8,2c0.1,0.4,0.1,1.1,0.1,1.9h-7c0,1,0.4,1.6,1,2
		c0.4,0.2,0.8,0.4,1.4,0.4s1-0.1,1.4-0.4c0.2-0.2,0.4-0.4,0.5-0.7h2.6c-0.1,0.6-0.4,1.1-0.9,1.7c-0.9,0.9-2.1,1.4-3.6,1.4
		c-1.3,0-2.4-0.4-3.4-1.2s-1.5-2.1-1.5-3.8s0.4-2.9,1.3-3.8s2-1.3,3.4-1.3C173.8,201.5,174.6,201.7,175.2,202L175.2,202z
		 M171.5,204.1c-0.4,0.4-0.6,0.9-0.7,1.5h4.3c0-0.7-0.3-1.2-0.7-1.5s-0.9-0.5-1.5-0.5S171.8,203.8,171.5,204.1L171.5,204.1z"/>
	<path d="M192.2,202.9c0.7,0.9,1.1,2.1,1.1,3.5c0,1.5-0.4,2.7-1.1,3.7s-1.7,1.5-3,1.5c-0.8,0-1.4-0.2-1.9-0.5
		c-0.3-0.2-0.6-0.5-0.9-1v1.2h-2.5v-12.9h2.5v4.6c0.3-0.4,0.7-0.8,1.1-1c0.5-0.3,1-0.4,1.7-0.4C190.5,201.6,191.5,202,192.2,202.9
		L192.2,202.9z M190.1,208.8c0.4-0.5,0.5-1.2,0.5-2.1c0-0.7-0.1-1.2-0.3-1.7c-0.3-0.8-1-1.3-1.9-1.3s-1.5,0.4-1.9,1.2
		c-0.2,0.4-0.3,1-0.3,1.7c0,0.8,0.2,1.5,0.5,2s0.9,0.8,1.7,0.8C189.2,209.5,189.7,209.3,190.1,208.8L190.1,208.8z"/>
	<path d="M201.2,202c0.7,0.3,1.2,0.8,1.7,1.4c0.4,0.6,0.6,1.2,0.8,2c0.1,0.4,0.1,1.1,0.1,1.9h-7c0,1,0.4,1.6,1,2
		c0.4,0.2,0.8,0.4,1.4,0.4s1-0.1,1.4-0.4c0.2-0.2,0.4-0.4,0.5-0.7h2.6c-0.1,0.6-0.4,1.1-0.9,1.7c-0.9,0.9-2.1,1.4-3.6,1.4
		c-1.3,0-2.4-0.4-3.4-1.2s-1.5-2.1-1.5-3.8s0.4-2.9,1.3-3.8s2-1.3,3.4-1.3C199.8,201.5,200.6,201.7,201.2,202L201.2,202z
		 M197.5,204.1c-0.4,0.4-0.6,0.9-0.7,1.5h4.3c0-0.7-0.3-1.2-0.7-1.5s-0.9-0.5-1.5-0.5S197.8,203.8,197.5,204.1L197.5,204.1z"/>
	<path d="M209,198.3h0.5v2c-0.1,0-0.4,0-0.7,0s-0.6,0.1-0.7,0.2s-0.2,0.3-0.2,0.5s0,0.5,0,0.8h1.6v1.8h-1.6v7.7h-2.5v-7.7H204v-1.8
		h1.4v-0.6c0-1,0.2-1.7,0.5-2.1c0.4-0.6,1.2-0.9,2.6-0.9C208.7,198.3,208.8,198.3,209,198.3L209,198.3z"/>
	<path d="M219,210.2c-0.8,1-2,1.5-3.7,1.5s-2.9-0.5-3.7-1.5s-1.2-2.2-1.2-3.6s0.4-2.6,1.2-3.6s2-1.5,3.7-1.5s2.9,0.5,3.7,1.5
		s1.2,2.2,1.2,3.6S219.8,209.2,219,210.2z M217,208.8c0.4-0.5,0.6-1.3,0.6-2.2c0-1-0.2-1.7-0.6-2.2s-1-0.8-1.7-0.8s-1.3,0.3-1.7,0.8
		s-0.6,1.3-0.6,2.2c0,1,0.2,1.7,0.6,2.2s1,0.8,1.7,0.8S216.6,209.3,217,208.8z"/>
	<path d="M227.3,201.5h0.2v2.6c-0.2,0-0.3,0-0.4,0s-0.2,0-0.3,0c-1,0-1.7,0.3-2,1c-0.2,0.4-0.3,0.9-0.3,1.7v4.6H222v-9.6h2.4v1.7
		c0.4-0.6,0.7-1.1,1-1.3c0.5-0.4,1.1-0.6,1.8-0.6C227.2,201.5,227.3,201.5,227.3,201.5L227.3,201.5z"/>
	<path d="M235.2,202c0.7,0.3,1.2,0.8,1.7,1.4c0.4,0.6,0.6,1.2,0.8,2c0.1,0.4,0.1,1.1,0.1,1.9h-7c0,1,0.4,1.6,1,2
		c0.4,0.2,0.8,0.4,1.4,0.4s1-0.1,1.4-0.4c0.2-0.2,0.4-0.4,0.5-0.7h2.6c-0.1,0.6-0.4,1.1-0.9,1.7c-0.9,0.9-2.1,1.4-3.6,1.4
		c-1.3,0-2.4-0.4-3.4-1.2s-1.5-2.1-1.5-3.8s0.4-2.9,1.3-3.8s2-1.3,3.4-1.3C233.8,201.5,234.6,201.7,235.2,202L235.2,202z
		 M231.5,204.1c-0.4,0.4-0.6,0.9-0.7,1.5h4.3c0-0.7-0.3-1.2-0.7-1.5s-0.9-0.5-1.5-0.5S231.8,203.8,231.5,204.1L231.5,204.1z"/>
	<path d="M244.1,202.6v-1.7c0.8,0,1.3-0.1,1.7-0.2c0.5-0.1,0.9-0.3,1.2-0.7c0.2-0.2,0.4-0.5,0.5-0.9c0.1-0.2,0.1-0.4,0.1-0.5h2.1
		v12.7h-2.6v-8.8L244.1,202.6z"/>
	<path d="M254.6,199.8c0.8-0.8,1.8-1.3,3.1-1.3c1.9,0,3.3,0.9,4,2.6c0.4,1,0.6,2.3,0.6,3.8s-0.2,2.8-0.6,3.9c-0.8,2-2.1,2.9-4.1,2.9
		c-1,0-1.8-0.3-2.6-0.8c-0.8-0.6-1.2-1.4-1.3-2.5h2.5c0.1,0.4,0.2,0.7,0.5,0.9s0.6,0.4,1,0.4c0.8,0,1.4-0.5,1.7-1.4
		c0.2-0.5,0.3-1.2,0.3-2.2c-0.2,0.3-0.5,0.5-0.7,0.7c-0.5,0.3-1,0.4-1.7,0.4c-1,0-1.9-0.3-2.7-1.1c-0.8-0.7-1.2-1.7-1.2-3
		C253.4,201.7,253.8,200.6,254.6,199.8L254.6,199.8z M258.8,204.8c0.6-0.4,0.9-1,0.9-1.9c0-0.7-0.2-1.3-0.5-1.7s-0.8-0.6-1.4-0.6
		c-0.4,0-0.8,0.1-1.1,0.4c-0.5,0.4-0.7,1-0.7,1.9c0,0.8,0.2,1.3,0.5,1.7s0.8,0.6,1.4,0.6C258.1,205.1,258.5,205,258.8,204.8
		L258.8,204.8z"/>
	<path d="M271.2,200.2c0.7,1.1,1,2.8,1,4.9s-0.3,3.7-1,4.9s-1.8,1.7-3.4,1.7s-2.8-0.6-3.4-1.7s-1-2.8-1-4.9s0.3-3.7,1-4.9
		s1.8-1.7,3.4-1.7S270.6,199.1,271.2,200.2z M266.3,208.5c0.2,0.8,0.7,1.2,1.5,1.2s1.2-0.4,1.5-1.2s0.3-1.9,0.3-3.4
		s-0.1-2.7-0.3-3.4s-0.7-1.1-1.5-1.1s-1.2,0.4-1.5,1.1s-0.4,1.9-0.4,3.4C266,206.6,266.1,207.7,266.3,208.5z"/>
	<path d="M281.2,200.2c0.7,1.1,1,2.8,1,4.9s-0.3,3.7-1,4.9s-1.8,1.7-3.4,1.7s-2.8-0.6-3.4-1.7s-1-2.8-1-4.9s0.3-3.7,1-4.9
		s1.8-1.7,3.4-1.7S280.6,199.1,281.2,200.2z M276.3,208.5c0.2,0.8,0.7,1.2,1.5,1.2s1.2-0.4,1.5-1.2s0.3-1.9,0.3-3.4
		s-0.1-2.7-0.3-3.4s-0.7-1.1-1.5-1.1s-1.2,0.4-1.5,1.1s-0.4,1.9-0.4,3.4C276,206.6,276.1,207.7,276.3,208.5z"/>
</g>
<g class="st8">
	<path d="M108.2,303.2c-1,1-2.4,1.5-4.2,1.5s-3.3-0.5-4.2-1.5c-1.3-1.2-2-3-2-5.3c0-2.4,0.7-4.2,2-5.3c1-1,2.4-1.5,4.2-1.5
		s3.3,0.5,4.2,1.5c1.3,1.2,2,3,2,5.3C110.1,300.2,109.5,302,108.2,303.2z M106.5,301.2c0.6-0.8,0.9-1.9,0.9-3.4s-0.3-2.6-0.9-3.4
		s-1.5-1.2-2.6-1.2s-1.9,0.4-2.6,1.2s-1,1.9-1,3.4s0.3,2.6,1,3.4s1.5,1.2,2.6,1.2S105.8,302,106.5,301.2z"/>
	<path d="M111,296.6v-1.8h1.3v-2.7h2.5v2.7h1.6v1.8h-1.6v5.1c0,0.4,0,0.6,0.1,0.7s0.4,0.1,0.9,0.1h0.2h0.2v1.9H115
		c-1.2,0-2-0.2-2.4-0.6c-0.3-0.3-0.4-0.7-0.4-1.3v-5.9L111,296.6z"/>
	<path d="M124.9,294.8c0.5,0.2,0.9,0.5,1.2,0.9s0.4,0.7,0.5,1.1s0.1,1,0.1,1.9v5.6h-2.6v-5.8c0-0.5-0.1-0.9-0.3-1.2
		c-0.2-0.4-0.7-0.7-1.3-0.7c-0.7,0-1.2,0.2-1.5,0.7c-0.3,0.4-0.5,1.1-0.5,1.9v5.2H118v-12.9h2.5v4.6c0.4-0.6,0.8-0.9,1.3-1.2
		c0.5-0.2,1-0.3,1.5-0.3C123.8,294.5,124.4,294.6,124.9,294.8L124.9,294.8z"/>
	<path d="M135.2,295c0.7,0.3,1.2,0.8,1.7,1.4c0.4,0.6,0.6,1.2,0.8,2c0.1,0.4,0.1,1.1,0.1,1.9h-7c0,1,0.4,1.6,1,2
		c0.4,0.2,0.8,0.4,1.4,0.4s1-0.1,1.4-0.4c0.2-0.2,0.4-0.4,0.5-0.7h2.6c-0.1,0.6-0.4,1.1-0.9,1.7c-0.9,0.9-2.1,1.4-3.6,1.4
		c-1.3,0-2.4-0.4-3.4-1.2s-1.5-2.1-1.5-3.8s0.4-2.9,1.3-3.8s2-1.3,3.4-1.3C133.8,294.5,134.5,294.7,135.2,295z M131.5,297.1
		c-0.4,0.4-0.6,0.9-0.7,1.5h4.3c0-0.7-0.3-1.2-0.7-1.5s-0.9-0.5-1.5-0.5S131.8,296.8,131.5,297.1L131.5,297.1z"/>
	<path d="M144.3,294.5h0.2v2.6c-0.2,0-0.3,0-0.4,0s-0.2,0-0.3,0c-1,0-1.7,0.3-2,1c-0.2,0.4-0.3,0.9-0.3,1.7v4.6h-2.6v-9.6h2.4v1.7
		c0.4-0.6,0.7-1.1,1-1.3c0.5-0.4,1.1-0.6,1.8-0.6C144.2,294.5,144.3,294.5,144.3,294.5L144.3,294.5z"/>
	<path d="M156.3,294.5h0.2v2.6c-0.2,0-0.3,0-0.4,0s-0.2,0-0.3,0c-1,0-1.7,0.3-2,1c-0.2,0.4-0.3,0.9-0.3,1.7v4.6H151v-9.6h2.4v1.7
		c0.4-0.6,0.7-1.1,1-1.3c0.5-0.4,1.1-0.6,1.8-0.6C156.2,294.5,156.3,294.5,156.3,294.5L156.3,294.5z"/>
	<path d="M164.2,295c0.7,0.3,1.2,0.8,1.7,1.4c0.4,0.6,0.6,1.2,0.8,2c0.1,0.4,0.1,1.1,0.1,1.9h-7c0,1,0.4,1.6,1,2
		c0.4,0.2,0.8,0.4,1.4,0.4s1-0.1,1.4-0.4c0.2-0.2,0.4-0.4,0.5-0.7h2.6c-0.1,0.6-0.4,1.1-0.9,1.7c-0.9,0.9-2.1,1.4-3.6,1.4
		c-1.3,0-2.4-0.4-3.4-1.2s-1.5-2.1-1.5-3.8s0.4-2.9,1.3-3.8s2-1.3,3.4-1.3C162.8,294.5,163.6,294.7,164.2,295z M160.5,297.1
		c-0.4,0.4-0.6,0.9-0.7,1.5h4.3c0-0.7-0.3-1.2-0.7-1.5s-0.9-0.5-1.5-0.5S160.8,296.8,160.5,297.1L160.5,297.1z"/>
	<path d="M173.7,298.2c0-0.4-0.2-0.7-0.4-1c-0.3-0.4-0.7-0.6-1.3-0.6c-0.8,0-1.4,0.4-1.7,1.3c-0.2,0.4-0.2,1-0.2,1.8
		c0,0.7,0.1,1.3,0.2,1.7c0.3,0.8,0.9,1.2,1.7,1.2c0.6,0,1-0.2,1.3-0.5c0.2-0.3,0.4-0.7,0.4-1.2h2.6c-0.1,0.8-0.3,1.5-0.8,2.2
		c-0.8,1.1-2,1.6-3.5,1.6s-2.7-0.5-3.4-1.4s-1.1-2.1-1.1-3.6c0-1.6,0.4-2.9,1.2-3.8s1.9-1.4,3.3-1.4c1.2,0,2.2,0.3,3,0.8
		s1.2,1.5,1.4,2.9H173.7z"/>
	<path d="M180.6,304.3h-2.5v-13h2.5V304.3z"/>
	<path d="M186.8,298.5c0.5-0.1,0.8-0.1,1-0.2c0.4-0.2,0.5-0.4,0.5-0.7c0-0.4-0.1-0.7-0.4-0.8s-0.7-0.2-1.2-0.2c-0.6,0-1,0.1-1.3,0.4
		c-0.2,0.2-0.3,0.5-0.4,0.9h-2.4c0.1-0.8,0.3-1.5,0.7-2.1c0.7-0.8,1.8-1.3,3.4-1.3c1.1,0,2,0.2,2.8,0.6s1.2,1.2,1.2,2.4v4.4v1.1
		c0,0.3,0.1,0.6,0.1,0.7s0.2,0.2,0.4,0.3v0.4h-2.7c-0.1-0.2-0.1-0.4-0.2-0.5s-0.1-0.4-0.1-0.6c-0.3,0.4-0.7,0.7-1.2,1
		s-1.2,0.5-1.8,0.5c-0.9,0-1.6-0.2-2.2-0.7s-0.9-1.2-0.9-2.1c0-1.2,0.5-2,1.4-2.6c0.5-0.3,1.2-0.5,2.2-0.6L186.8,298.5z
		 M188.3,299.7c-0.2,0.1-0.3,0.2-0.5,0.2c-0.2,0.1-0.4,0.1-0.7,0.2l-0.6,0.1c-0.5,0.1-0.9,0.2-1.2,0.3c-0.4,0.2-0.6,0.6-0.6,1.1
		c0,0.4,0.1,0.7,0.4,0.9c0.2,0.2,0.5,0.3,0.9,0.3c0.5,0,1.1-0.2,1.5-0.5c0.5-0.3,0.7-0.9,0.7-1.7v-0.9H188.3z"/>
	<path d="M195.6,293.6h-2.5v-2.3h2.5V293.6z M193.1,294.8h2.5v9.6h-2.5V294.8z"/>
	<path d="M210,294.8c0.4,0.2,0.8,0.5,1.1,0.9c0.3,0.3,0.5,0.7,0.5,1.2c0.1,0.3,0.1,0.8,0.1,1.4v6h-2.6v-6.1c0-0.4-0.1-0.7-0.2-0.9
		c-0.2-0.4-0.6-0.7-1.2-0.7c-0.7,0-1.2,0.3-1.4,0.9c-0.1,0.3-0.2,0.7-0.2,1.1v5.7h-2.5v-5.7c0-0.6-0.1-1-0.2-1.2
		c-0.2-0.5-0.6-0.7-1.2-0.7c-0.7,0-1.2,0.2-1.4,0.7c-0.1,0.3-0.2,0.7-0.2,1.2v5.8h-2.5v-9.6h2.4v1.4c0.3-0.5,0.6-0.9,0.9-1.1
		c0.5-0.4,1.1-0.6,1.9-0.6c0.7,0,1.3,0.2,1.8,0.5c0.4,0.3,0.6,0.7,0.8,1.2c0.3-0.6,0.7-1,1.2-1.2c0.5-0.3,1.1-0.4,1.7-0.4
		C209.1,294.6,209.6,294.6,210,294.8L210,294.8z"/>
	<path d="M220.3,295c0.7,0.3,1.2,0.8,1.7,1.4c0.4,0.6,0.6,1.2,0.8,2c0.1,0.4,0.1,1.1,0.1,1.9h-7c0,1,0.4,1.6,1,2
		c0.4,0.2,0.8,0.4,1.4,0.4s1-0.1,1.4-0.4c0.2-0.2,0.4-0.4,0.5-0.7h2.6c-0.1,0.6-0.4,1.1-0.9,1.7c-0.9,0.9-2.1,1.4-3.6,1.4
		c-1.3,0-2.4-0.4-3.4-1.2s-1.5-2.1-1.5-3.8s0.4-2.9,1.3-3.8s2-1.3,3.4-1.3C218.8,294.5,219.6,294.7,220.3,295z M216.5,297.1
		c-0.4,0.4-0.6,0.9-0.7,1.5h4.3c0-0.7-0.3-1.2-0.7-1.5s-0.9-0.5-1.5-0.5C217.4,296.6,216.9,296.8,216.5,297.1L216.5,297.1z"/>
	<path d="M229.1,294.9c0.5,0.3,0.8,0.6,1.1,1.1v-4.6h2.5v12.9h-2.4V303c-0.4,0.6-0.8,1-1.2,1.2s-1,0.4-1.7,0.4
		c-1.1,0-2.1-0.5-2.8-1.4c-0.8-0.9-1.1-2.1-1.1-3.5c0-1.6,0.4-2.9,1.1-3.9s1.8-1.4,3-1.4C228.1,294.5,228.7,294.7,229.1,294.9
		L229.1,294.9z M229.7,301.7c0.4-0.5,0.6-1.2,0.6-2c0-1.2-0.3-2-0.9-2.5c-0.4-0.3-0.8-0.5-1.3-0.5c-0.7,0-1.3,0.3-1.6,0.8
		c-0.3,0.6-0.5,1.2-0.5,2.1s0.2,1.6,0.5,2.1s0.9,0.8,1.6,0.8S229.4,302.3,229.7,301.7L229.7,301.7z"/>
	<path d="M243.8,298.5c0.5-0.1,0.8-0.1,1-0.2c0.4-0.2,0.5-0.4,0.5-0.7c0-0.4-0.1-0.7-0.4-0.8s-0.7-0.2-1.2-0.2c-0.6,0-1,0.1-1.3,0.4
		c-0.2,0.2-0.3,0.5-0.4,0.9h-2.4c0.1-0.8,0.3-1.5,0.7-2.1c0.7-0.8,1.8-1.3,3.4-1.3c1.1,0,2,0.2,2.8,0.6s1.2,1.2,1.2,2.4v4.4v1.1
		c0,0.3,0.1,0.6,0.1,0.7s0.2,0.2,0.4,0.3v0.4h-2.7c-0.1-0.2-0.1-0.4-0.2-0.5s-0.1-0.4-0.1-0.6c-0.3,0.4-0.7,0.7-1.2,1
		s-1.2,0.5-1.8,0.5c-0.9,0-1.6-0.2-2.2-0.7s-0.9-1.2-0.9-2.1c0-1.2,0.5-2,1.4-2.6c0.5-0.3,1.2-0.5,2.2-0.6L243.8,298.5z
		 M245.4,299.7c-0.2,0.1-0.3,0.2-0.5,0.2c-0.2,0.1-0.4,0.1-0.7,0.2l-0.6,0.1c-0.5,0.1-0.9,0.2-1.2,0.3c-0.4,0.2-0.6,0.6-0.6,1.1
		c0,0.4,0.1,0.7,0.4,0.9c0.2,0.2,0.5,0.3,0.9,0.3c0.5,0,1.1-0.2,1.5-0.5c0.5-0.3,0.7-0.9,0.7-1.7v-0.9H245.4z"/>
	<path d="M255.4,294.5h0.2v2.6c-0.2,0-0.3,0-0.4,0s-0.2,0-0.3,0c-1,0-1.7,0.3-2,1c-0.2,0.4-0.3,0.9-0.3,1.7v4.6h-2.5v-9.6h2.4v1.7
		c0.4-0.6,0.7-1.1,1-1.3c0.5-0.4,1.1-0.6,1.8-0.6C255.3,294.5,255.3,294.5,255.4,294.5L255.4,294.5z"/>
	<path d="M263.3,295c0.7,0.3,1.2,0.8,1.7,1.4c0.4,0.6,0.6,1.2,0.8,2c0.1,0.4,0.1,1.1,0.1,1.9h-7c0,1,0.4,1.6,1,2
		c0.4,0.2,0.8,0.4,1.4,0.4s1-0.1,1.4-0.4c0.2-0.2,0.4-0.4,0.5-0.7h2.6c-0.1,0.6-0.4,1.1-0.9,1.7c-0.9,0.9-2.1,1.4-3.6,1.4
		c-1.3,0-2.4-0.4-3.4-1.2s-1.5-2.1-1.5-3.8s0.4-2.9,1.3-3.8s2-1.3,3.4-1.3C261.9,294.5,262.6,294.7,263.3,295z M259.5,297.1
		c-0.4,0.4-0.6,0.9-0.7,1.5h4.3c0-0.7-0.3-1.2-0.7-1.5s-0.9-0.5-1.5-0.5C260.4,296.6,259.9,296.8,259.5,297.1L259.5,297.1z"/>
	<path d="M270.9,298.5c0.5-0.1,0.8-0.1,1-0.2c0.4-0.2,0.5-0.4,0.5-0.7c0-0.4-0.1-0.7-0.4-0.8s-0.7-0.2-1.2-0.2c-0.6,0-1,0.1-1.3,0.4
		c-0.2,0.2-0.3,0.5-0.4,0.9h-2.4c0.1-0.8,0.3-1.5,0.7-2.1c0.7-0.8,1.8-1.3,3.4-1.3c1.1,0,2,0.2,2.8,0.6s1.2,1.2,1.2,2.4v4.4v1.1
		c0,0.3,0.1,0.6,0.1,0.7s0.2,0.2,0.4,0.3v0.4h-2.7c-0.1-0.2-0.1-0.4-0.2-0.5s-0.1-0.4-0.1-0.6c-0.3,0.4-0.7,0.7-1.2,1
		s-1.2,0.5-1.8,0.5c-0.9,0-1.6-0.2-2.2-0.7s-0.9-1.2-0.9-2.1c0-1.2,0.5-2,1.4-2.6c0.5-0.3,1.2-0.5,2.2-0.6L270.9,298.5z
		 M272.4,299.7c-0.2,0.1-0.3,0.2-0.5,0.2c-0.2,0.1-0.4,0.1-0.7,0.2l-0.6,0.1c-0.5,0.1-0.9,0.2-1.2,0.3c-0.4,0.2-0.6,0.6-0.6,1.1
		c0,0.4,0.1,0.7,0.4,0.9c0.2,0.2,0.5,0.3,0.9,0.3c0.5,0,1.1-0.2,1.5-0.5c0.5-0.3,0.7-0.9,0.7-1.7v-0.9H272.4z"/>
</g>
<g class="st8">
	<path d="M99.4,245.7c1-1.1,2.4-1.6,4-1.6c2.2,0,3.7,0.7,4.7,2.1c0.6,0.8,0.8,1.6,0.9,2.4h-2.7c-0.2-0.6-0.4-1.1-0.7-1.4
		c-0.5-0.6-1.2-0.8-2.1-0.8c-1,0-1.7,0.4-2.3,1.2s-0.8,1.9-0.8,3.4s0.3,2.5,0.9,3.3s1.3,1.1,2.2,1.1s1.6-0.3,2.1-0.9
		c0.3-0.3,0.5-0.8,0.7-1.5h2.7c-0.2,1.4-0.8,2.6-1.8,3.4s-2.2,1.3-3.7,1.3c-1.8,0-3.3-0.6-4.3-1.8c-1.1-1.2-1.6-2.8-1.6-4.9
		C97.6,248.7,98.2,247,99.4,245.7L99.4,245.7z"/>
	<path d="M119,256.2c-0.8,1-2,1.5-3.7,1.5c-1.6,0-2.9-0.5-3.7-1.5s-1.2-2.2-1.2-3.6s0.4-2.6,1.2-3.6s2-1.5,3.7-1.5
		c1.6,0,2.9,0.5,3.7,1.5s1.2,2.2,1.2,3.6S119.8,255.2,119,256.2z M117,254.8c0.4-0.5,0.6-1.3,0.6-2.2c0-1-0.2-1.7-0.6-2.2
		s-1-0.8-1.7-0.8s-1.3,0.3-1.7,0.8s-0.6,1.3-0.6,2.2c0,1,0.2,1.7,0.6,2.2s1,0.8,1.7,0.8S116.6,255.3,117,254.8z"/>
	<path d="M125.8,251.5c0.5-0.1,0.8-0.1,1-0.2c0.4-0.2,0.5-0.4,0.5-0.7c0-0.4-0.1-0.7-0.4-0.8s-0.7-0.2-1.2-0.2c-0.6,0-1,0.1-1.3,0.4
		c-0.2,0.2-0.3,0.5-0.4,0.9h-2.4c0.1-0.8,0.3-1.5,0.7-2.1c0.7-0.8,1.8-1.3,3.4-1.3c1.1,0,2,0.2,2.8,0.6s1.2,1.2,1.2,2.4v4.4v1.1
		c0,0.3,0.1,0.6,0.1,0.7s0.2,0.2,0.4,0.3v0.4h-2.7c-0.1-0.2-0.1-0.4-0.2-0.5s-0.1-0.4-0.1-0.6c-0.3,0.4-0.7,0.7-1.2,1
		s-1.2,0.5-1.8,0.5c-0.9,0-1.6-0.2-2.2-0.7s-0.9-1.2-0.9-2.1c0-1.2,0.5-2,1.4-2.6c0.5-0.3,1.2-0.5,2.2-0.6L125.8,251.5z
		 M127.3,252.7c-0.2,0.1-0.3,0.2-0.5,0.2c-0.2,0.1-0.4,0.1-0.7,0.2l-0.6,0.1c-0.5,0.1-0.9,0.2-1.2,0.3c-0.4,0.2-0.6,0.6-0.6,1.1
		c0,0.4,0.1,0.7,0.4,0.9c0.2,0.2,0.5,0.3,0.9,0.3c0.5,0,1.1-0.2,1.5-0.5c0.5-0.3,0.7-0.9,0.7-1.7L127.3,252.7z"/>
	<path d="M133.9,254.3c0.1,0.4,0.2,0.8,0.3,0.9c0.3,0.3,0.9,0.5,1.7,0.5c0.5,0,0.9-0.1,1.2-0.2s0.4-0.4,0.4-0.7s-0.1-0.5-0.4-0.6
		c-0.2-0.1-1.1-0.4-2.6-0.8c-1.1-0.3-1.9-0.6-2.3-1s-0.7-1-0.7-1.7c0-0.9,0.3-1.6,1-2.3s1.7-1,2.9-1s2.2,0.2,2.9,0.7
		c0.8,0.5,1.2,1.3,1.3,2.5h-2.5c0-0.3-0.1-0.6-0.3-0.8c-0.3-0.3-0.7-0.5-1.4-0.5c-0.5,0-0.9,0.1-1.2,0.3c-0.2,0.2-0.3,0.4-0.3,0.6
		c0,0.3,0.1,0.5,0.4,0.6c0.2,0.1,1.1,0.4,2.6,0.7c1,0.2,1.7,0.6,2.2,1.1s0.7,1.1,0.7,1.8c0,0.9-0.4,1.7-1.1,2.3s-1.8,0.9-3.3,0.9
		s-2.6-0.3-3.3-1c-0.7-0.6-1.1-1.4-1.1-2.4L133.9,254.3z"/>
	<path d="M141,249.6v-1.8h1.3v-2.7h2.5v2.7h1.6v1.8h-1.6v5.1c0,0.4,0,0.6,0.1,0.7s0.4,0.1,0.9,0.1h0.2h0.2v1.9H145
		c-1.2,0-2-0.2-2.4-0.6c-0.3-0.3-0.4-0.7-0.4-1.3v-5.9L141,249.6z"/>
	<path d="M150.5,257.3H148v-13h2.5V257.3z"/>
	<path d="M155.6,246.6h-2.5v-2.3h2.5V246.6z M153,247.8h2.5v9.6H153V247.8z"/>
	<path d="M165.7,248.3c0.6,0.5,0.9,1.4,0.9,2.6v6.5H164v-5.8c0-0.5-0.1-0.9-0.2-1.2c-0.2-0.5-0.7-0.7-1.4-0.7
		c-0.8,0-1.4,0.4-1.7,1.1c-0.2,0.4-0.2,0.9-0.2,1.5v5.2H158v-9.6h2.4v1.4c0.3-0.5,0.6-0.8,0.9-1.1c0.5-0.4,1.2-0.6,2-0.6
		C164.3,247.5,165.1,247.8,165.7,248.3L165.7,248.3z"/>
	<path d="M175.2,248c0.7,0.3,1.2,0.8,1.7,1.4c0.4,0.6,0.6,1.2,0.8,2c0.1,0.4,0.1,1.1,0.1,1.9h-7c0,1,0.4,1.6,1,2
		c0.4,0.2,0.8,0.4,1.4,0.4s1-0.1,1.4-0.4c0.2-0.2,0.4-0.4,0.5-0.7h2.6c-0.1,0.6-0.4,1.1-0.9,1.7c-0.9,0.9-2.1,1.4-3.6,1.4
		c-1.3,0-2.4-0.4-3.4-1.2s-1.5-2.1-1.5-3.8s0.4-2.9,1.3-3.8s2-1.3,3.4-1.3C173.8,247.5,174.6,247.7,175.2,248L175.2,248z
		 M171.5,250.1c-0.4,0.4-0.6,0.9-0.7,1.5h4.3c0-0.7-0.3-1.2-0.7-1.5s-0.9-0.5-1.5-0.5S171.8,249.8,171.5,250.1L171.5,250.1z"/>
	<path d="M186.6,246.6h-2.5v-2.3h2.5V246.6z M184,247.8h2.5v9.6H184V247.8z"/>
	<path d="M196.7,248.3c0.6,0.5,0.9,1.4,0.9,2.6v6.5H195v-5.8c0-0.5-0.1-0.9-0.2-1.2c-0.2-0.5-0.7-0.7-1.4-0.7
		c-0.8,0-1.4,0.4-1.7,1.1c-0.2,0.4-0.2,0.9-0.2,1.5v5.2H189v-9.6h2.4v1.4c0.3-0.5,0.6-0.8,0.9-1.1c0.5-0.4,1.2-0.6,2-0.6
		C195.3,247.5,196.1,247.8,196.7,248.3L196.7,248.3z"/>
	<path d="M205,254.8c0.4-0.8,1.2-1.7,2.5-2.7c1.2-0.8,1.9-1.4,2.2-1.8c0.5-0.6,0.8-1.2,0.8-1.8c0-0.5-0.1-1-0.4-1.3
		s-0.7-0.5-1.3-0.5c-0.8,0-1.3,0.3-1.6,0.9c-0.2,0.3-0.3,0.8-0.3,1.6h-2.4c0-1.1,0.2-2,0.6-2.6c0.7-1.3,1.9-1.9,3.6-1.9
		c1.3,0,2.4,0.4,3.2,1.1s1.2,1.7,1.2,3c0,0.9-0.3,1.8-0.8,2.5c-0.4,0.5-1,1-1.8,1.6l-1,0.7c-0.6,0.4-1.1,0.8-1.3,1s-0.4,0.4-0.6,0.7
		h5.6v2.2h-8.7C204.4,256.4,204.6,255.6,205,254.8z"/>
	<path d="M222.2,246.2c0.7,1.1,1,2.8,1,4.9s-0.3,3.7-1,4.9s-1.8,1.7-3.4,1.7s-2.8-0.6-3.4-1.7s-1-2.8-1-4.9s0.3-3.7,1-4.9
		s1.8-1.7,3.4-1.7S221.5,245.1,222.2,246.2z M217.3,254.5c0.2,0.8,0.7,1.2,1.5,1.2s1.2-0.4,1.5-1.2s0.3-1.9,0.3-3.4
		s-0.1-2.7-0.3-3.4s-0.7-1.1-1.5-1.1s-1.2,0.4-1.5,1.1s-0.4,1.9-0.4,3.4C217,252.6,217.1,253.7,217.3,254.5z"/>
	<path d="M225.1,248.6v-1.7c0.8,0,1.3-0.1,1.7-0.2c0.5-0.1,0.9-0.3,1.2-0.7c0.2-0.2,0.4-0.5,0.5-0.9c0.1-0.2,0.1-0.4,0.1-0.5h2.1
		v12.7h-2.6v-8.8L225.1,248.6z"/>
	<path d="M235.6,245.8c0.8-0.8,1.8-1.3,3.1-1.3c1.9,0,3.3,0.9,4,2.6c0.4,1,0.6,2.3,0.6,3.8s-0.2,2.8-0.6,3.9c-0.8,2-2.1,2.9-4.1,2.9
		c-1,0-1.8-0.3-2.6-0.8c-0.8-0.6-1.2-1.4-1.3-2.5h2.5c0.1,0.4,0.2,0.7,0.5,0.9s0.6,0.4,1,0.4c0.8,0,1.4-0.5,1.7-1.4
		c0.2-0.5,0.3-1.2,0.3-2.2c-0.2,0.3-0.5,0.5-0.7,0.7c-0.5,0.3-1,0.4-1.7,0.4c-1,0-1.9-0.3-2.7-1.1c-0.8-0.7-1.2-1.7-1.2-3
		C234.4,247.7,234.8,246.6,235.6,245.8z M239.8,250.8c0.6-0.4,0.9-1,0.9-1.9c0-0.7-0.2-1.3-0.5-1.7s-0.8-0.6-1.4-0.6
		c-0.4,0-0.8,0.1-1.1,0.4c-0.5,0.4-0.7,1-0.7,1.9c0,0.8,0.2,1.3,0.5,1.7s0.8,0.6,1.4,0.6C239.2,251.1,239.5,251,239.8,250.8
		L239.8,250.8z"/>
</g>
</svg>
