<?xml version="1.0" encoding="utf-8"?>
<!-- Generator: Adobe Illustrator 23.0.3, SVG Export Plug-In . SVG Version: 6.00 Build 0)  -->
<svg version="1.1" id="圖層_1" xmlns="http://www.w3.org/2000/svg" xmlns:xlink="http://www.w3.org/1999/xlink" x="0px" y="0px"
	 viewBox="0 0 225 366" style="enable-background:new 0 0 225 366;" xml:space="preserve">
<style type="text/css">
	.st0{fill:none;stroke:#FFFFFF;stroke-width:2;stroke-linecap:square;}
	.st1{fill:#FFFFFF;}
	.st2{font-family:'Arial-BoldMT';}
	.st3{font-size:16px;}
	.st4{enable-background:new    ;}
	.st5{fill:#004A47;}
	.st6{fill:#007A6F;stroke: #fff;stroke-width: .5px;}
	.st7{fill:#09B9A7;}
	.st8{fill:#97FFE2;}
	.st9{fill:#666666;}
	.st10{fill:none;stroke:#FF8300;stroke-width:3;}
	.st11{fill:none;stroke:#FF8300;stroke-width:3;stroke-dasharray:5;}
</style>
<g id="Group_568" transform="translate(-3567 -649)">
	<g id="Group_417" transform="translate(2714 310)">
		<g id="Group_93" transform="translate(913 687.027)">
			<line id="Line_27" class="st0" x1="119.3" y1="13.4" x2="0.5" y2="13.4"/>
			<line id="Line_28" class="st0" x1="0" y1="0" x2="0" y2="13.4"/>
			<line id="Line_29" class="st0" x1="119" y1="0" x2="119" y2="13.4"/>
		</g>
		<text transform="matrix(1 0 0 1 853.117 700)" class="st1 st2 st3">500 </text>
		<g class="st4">
			<path class="st1" d="M890.1,694l-2,0c-0.1,0-0.1,0-0.1,0s0-0.1,0-0.1v-1.2c0-0.1,0-0.1,0-0.1c0,0,0.1,0,0.1,0l2,0h3.8v-3.6
				c0-0.8,0-1.4-0.1-1.9c0.7,0,1.3,0.1,1.8,0.1c0.2,0,0.3,0.1,0.3,0.2c0,0.1,0,0.2-0.1,0.4c-0.1,0.3-0.1,0.6-0.1,1.1v3.6h4.1l2,0
				c0.1,0,0.1,0,0.2,0s0,0.1,0,0.1v1.2c0,0.1,0,0.1,0,0.1c0,0-0.1,0-0.2,0l-2,0h-3.3c0.8,1,1.7,1.9,2.8,2.8c1,0.7,2,1.3,3.1,1.8
				c-0.3,0.3-0.5,0.7-0.8,1.2c-0.1,0.3-0.2,0.4-0.3,0.4c-0.1,0-0.2-0.1-0.4-0.2c-2.4-1.4-4.2-3-5.4-4.9l0.1,6.3
				c0,0.1-0.1,0.2-0.2,0.2H894c-0.1,0-0.2-0.1-0.2-0.2c0-0.1,0-0.5,0-1.1c0-2,0.1-3.6,0.1-5.1c-1.2,1.9-2.9,3.5-5.1,4.8
				c-0.2,0.1-0.3,0.2-0.4,0.2c-0.1,0-0.2-0.1-0.3-0.4c-0.2-0.4-0.5-0.8-0.8-1.1c1.2-0.6,2.3-1.3,3.4-2.2c0.9-0.8,1.7-1.6,2.3-2.6
				H890.1z M890.6,688.2c0.7,0.8,1.3,1.7,1.9,2.7c0,0.1,0,0.1,0,0.1c0,0,0,0.1-0.1,0.2l-1,0.7c-0.1,0.1-0.1,0.1-0.2,0.1
				c0,0-0.1,0-0.1-0.1c-0.4-0.9-1-1.9-1.8-2.8c0-0.1-0.1-0.1-0.1-0.1c0,0,0.1-0.1,0.2-0.2l0.9-0.6c0.1,0,0.1-0.1,0.2-0.1
				C890.5,688.1,890.5,688.1,890.6,688.2z M896.9,691.4c0.6-0.8,1.2-1.6,1.6-2.5c0.1-0.3,0.2-0.5,0.3-0.8c0.7,0.3,1.2,0.5,1.5,0.7
				c0.2,0.1,0.2,0.2,0.2,0.3c0,0.1-0.1,0.2-0.2,0.3c-0.1,0-0.2,0.2-0.4,0.5c-0.4,0.6-0.8,1.3-1.4,2.1c-0.2,0.2-0.3,0.3-0.3,0.3
				c0,0-0.2-0.1-0.4-0.2C897.5,691.6,897.2,691.5,896.9,691.4z"/>
		</g>
		<g id="Group_32" transform="translate(1049.865 639.119)">
			<path id="Path_15" class="st1" d="M7.7,48.2l7.7,17.7l-7.7-4.3L0,65.9L7.7,48.2z"/>
			<g class="st4">
				<path class="st1" d="M4.2,40.9v-10h2l4.1,6.7v-6.7h1.9v10h-2l-4-6.5v6.5H4.2z"/>
			</g>
		</g>
	</g>
	<g id="Group_567" transform="translate(1342 885)">
		<g transform="matrix(1, 0, 0, 1, 2225, -236)">
			<g id="Path_383-2" transform="translate(60 6)">
				<path class="st5" d="M25.8,25.8H0.3V0.3h25.5V25.8z"/>
				<path class="st1" d="M0.5,0.5v25h25v-25H0.5 M0,0h26v26H0V0z"/>
			</g>
		</g>
		<g class="st4">
			<path class="st1" d="M2319.6-216.6v-2.3c0.7-0.8,1.6-1.2,2.6-1.2c0.4,0,0.7,0,1,0.1c0.3,0.1,0.9,0.3,1.7,0.6
				c0.8,0.3,1.4,0.5,1.6,0.5c0.3,0,0.7-0.1,1.1-0.3c0.4-0.2,0.9-0.5,1.3-1v2.4c-0.3,0.3-0.6,0.5-1.1,0.8s-1,0.4-1.5,0.4
				c-0.3,0-0.6,0-0.9-0.1s-0.7-0.2-1.3-0.5c-0.9-0.4-1.6-0.6-2.1-0.6C2321.2-217.8,2320.4-217.4,2319.6-216.6z"/>
			<path class="st1" d="M2341.6-212h-2.5v-9.3c-0.9,0.8-2,1.5-3.2,1.9v-2.2c0.6-0.2,1.3-0.6,2.1-1.2c0.8-0.6,1.3-1.3,1.6-2.1h2V-212
				z"/>
			<path class="st1" d="M2345.3-215l2.4-0.3c0.1,0.5,0.2,0.8,0.5,1.1s0.6,0.4,1,0.4c0.5,0,0.9-0.2,1.3-0.7s0.6-1.4,0.7-2.9
				c-0.6,0.7-1.4,1.1-2.3,1.1c-1,0-1.9-0.4-2.6-1.2c-0.7-0.8-1.1-1.8-1.1-3.1c0-1.3,0.4-2.4,1.2-3.2c0.8-0.8,1.8-1.2,3-1.2
				c1.3,0,2.4,0.5,3.2,1.5c0.8,1,1.3,2.7,1.3,5c0,2.4-0.4,4.1-1.3,5.1s-2,1.6-3.4,1.6c-1,0-1.8-0.3-2.4-0.8
				C2345.9-213.1,2345.5-213.9,2345.3-215z M2350.9-220.4c0-0.8-0.2-1.4-0.5-1.9c-0.4-0.4-0.8-0.7-1.3-0.7c-0.5,0-0.8,0.2-1.1,0.5
				c-0.3,0.4-0.5,1-0.5,1.8c0,0.8,0.2,1.4,0.5,1.8c0.3,0.4,0.7,0.6,1.2,0.6c0.5,0,0.9-0.2,1.2-0.6
				C2350.8-219.1,2350.9-219.6,2350.9-220.4z"/>
			<path class="st1" d="M2359.5-224.9c1.2,0,2.2,0.4,2.9,1.3c0.8,1.1,1.3,2.8,1.3,5.2c0,2.4-0.4,4.2-1.3,5.3
				c-0.7,0.9-1.7,1.3-2.9,1.3c-1.3,0-2.3-0.5-3-1.4c-0.8-1-1.2-2.7-1.2-5.2c0-2.4,0.4-4.2,1.3-5.2
				C2357.3-224.5,2358.2-224.9,2359.5-224.9z M2359.5-222.9c-0.3,0-0.6,0.1-0.8,0.3s-0.4,0.5-0.5,1c-0.2,0.6-0.3,1.7-0.3,3.2
				s0.1,2.6,0.2,3.1s0.3,0.9,0.6,1.1c0.2,0.2,0.5,0.3,0.8,0.3s0.6-0.1,0.8-0.3s0.4-0.5,0.5-1c0.2-0.6,0.3-1.7,0.3-3.2
				s-0.1-2.5-0.2-3.1c-0.2-0.6-0.3-0.9-0.6-1.1C2360-222.8,2359.8-222.9,2359.5-222.9z"/>
			<path class="st1" d="M2369.5-224.9c1.2,0,2.2,0.4,2.9,1.3c0.8,1.1,1.3,2.8,1.3,5.2c0,2.4-0.4,4.2-1.3,5.3
				c-0.7,0.9-1.7,1.3-2.9,1.3c-1.3,0-2.3-0.5-3-1.4c-0.8-1-1.2-2.7-1.2-5.2c0-2.4,0.4-4.2,1.3-5.2
				C2367.3-224.5,2368.2-224.9,2369.5-224.9z M2369.5-222.9c-0.3,0-0.6,0.1-0.8,0.3s-0.4,0.5-0.5,1c-0.2,0.6-0.3,1.7-0.3,3.2
				s0.1,2.6,0.2,3.1s0.3,0.9,0.6,1.1c0.2,0.2,0.5,0.3,0.8,0.3s0.6-0.1,0.8-0.3s0.4-0.5,0.5-1c0.2-0.6,0.3-1.7,0.3-3.2
				s-0.1-2.5-0.2-3.1c-0.2-0.6-0.3-0.9-0.6-1.1C2370-222.8,2369.8-222.9,2369.5-222.9z"/>
		</g>
		<rect id="Rectangle_72" x="2285" y="-184" class="st6" width="26" height="26"/>
		<g class="st4">
			<path class="st1" d="M2326.1-166h-2.5v-9.3c-0.9,0.8-2,1.5-3.2,1.9v-2.2c0.6-0.2,1.3-0.6,2.1-1.2c0.8-0.6,1.3-1.3,1.6-2.1h2V-166
				z"/>
			<path class="st1" d="M2329.8-169l2.4-0.3c0.1,0.5,0.2,0.8,0.5,1.1s0.6,0.4,1,0.4c0.5,0,0.9-0.2,1.3-0.7s0.6-1.4,0.7-2.9
				c-0.6,0.7-1.4,1.1-2.3,1.1c-1,0-1.9-0.4-2.6-1.2c-0.7-0.8-1.1-1.8-1.1-3.1c0-1.3,0.4-2.4,1.2-3.2c0.8-0.8,1.8-1.2,3-1.2
				c1.3,0,2.4,0.5,3.2,1.5c0.8,1,1.3,2.7,1.3,5c0,2.4-0.4,4.1-1.3,5.1s-2,1.6-3.4,1.6c-1,0-1.8-0.3-2.4-0.8
				C2330.4-167.1,2330-167.9,2329.8-169z M2335.4-174.4c0-0.8-0.2-1.4-0.5-1.9s-0.8-0.7-1.3-0.7c-0.5,0-0.8,0.2-1.1,0.5
				c-0.3,0.4-0.5,1-0.5,1.8c0,0.8,0.2,1.4,0.5,1.8c0.3,0.4,0.7,0.6,1.2,0.6c0.5,0,0.9-0.2,1.2-0.6S2335.4-173.6,2335.4-174.4z"/>
			<path class="st1" d="M2344-178.9c1.2,0,2.2,0.4,2.9,1.3c0.8,1.1,1.3,2.8,1.3,5.2c0,2.4-0.4,4.2-1.3,5.3c-0.7,0.9-1.7,1.3-2.9,1.3
				c-1.3,0-2.3-0.5-3-1.4c-0.8-1-1.2-2.7-1.2-5.2c0-2.4,0.4-4.2,1.3-5.2C2341.7-178.5,2342.7-178.9,2344-178.9z M2344-176.9
				c-0.3,0-0.6,0.1-0.8,0.3s-0.4,0.5-0.5,1c-0.2,0.6-0.3,1.7-0.3,3.2s0.1,2.6,0.2,3.1s0.3,0.9,0.6,1.1c0.2,0.2,0.5,0.3,0.8,0.3
				s0.6-0.1,0.8-0.3s0.4-0.5,0.5-1c0.2-0.6,0.3-1.7,0.3-3.2s-0.1-2.5-0.2-3.1c-0.2-0.6-0.3-0.9-0.6-1.1
				C2344.5-176.8,2344.3-176.9,2344-176.9z"/>
		</g>
		<g class="st4">
			<path class="st1" d="M2356.1-166h-2.5v-9.3c-0.9,0.8-2,1.5-3.2,1.9v-2.2c0.6-0.2,1.3-0.6,2.1-1.2c0.8-0.6,1.3-1.3,1.6-2.1h2V-166
				z"/>
			<path class="st1" d="M2360-169.7v-1.8h10v1.8H2360z"/>
		</g>
		<g class="st4">
			<path class="st1" d="M2378.3-166h-2.5v-9.3c-0.9,0.8-2,1.5-3.2,1.9v-2.2c0.6-0.2,1.3-0.6,2.1-1.2c0.8-0.6,1.3-1.3,1.6-2.1h2V-166
				z"/>
			<path class="st1" d="M2382-169l2.4-0.3c0.1,0.5,0.2,0.8,0.5,1.1s0.6,0.4,1,0.4c0.5,0,0.9-0.2,1.3-0.7s0.6-1.4,0.7-2.9
				c-0.6,0.7-1.4,1.1-2.3,1.1c-1,0-1.9-0.4-2.6-1.2c-0.7-0.8-1.1-1.8-1.1-3.1c0-1.3,0.4-2.4,1.2-3.2c0.8-0.8,1.8-1.2,3-1.2
				c1.3,0,2.4,0.5,3.2,1.5c0.8,1,1.3,2.7,1.3,5c0,2.4-0.4,4.1-1.3,5.1s-2,1.6-3.4,1.6c-1,0-1.8-0.3-2.4-0.8
				C2382.6-167.1,2382.2-167.9,2382-169z M2387.6-174.4c0-0.8-0.2-1.4-0.5-1.9c-0.4-0.4-0.8-0.7-1.3-0.7c-0.5,0-0.8,0.2-1.1,0.5
				c-0.3,0.4-0.5,1-0.5,1.8c0,0.8,0.2,1.4,0.5,1.8c0.3,0.4,0.7,0.6,1.2,0.6c0.5,0,0.9-0.2,1.2-0.6
				C2387.5-173.1,2387.6-173.6,2387.6-174.4z"/>
			<path class="st1" d="M2396.8-166v-2.6h-5.3v-2.2l5.6-8.2h2.1v8.2h1.6v2.2h-1.6v2.6H2396.8z M2396.8-170.8v-4.4l-3,4.4H2396.8z"/>
			<path class="st1" d="M2402-169.3l2.5-0.3c0.1,0.6,0.3,1,0.6,1.3c0.3,0.3,0.7,0.5,1.2,0.5c0.5,0,1-0.2,1.3-0.6
				c0.4-0.4,0.5-1,0.5-1.9c0-0.8-0.2-1.4-0.5-1.8c-0.4-0.4-0.8-0.6-1.4-0.6c-0.7,0-1.3,0.3-1.9,0.9l-2-0.3l1.3-6.7h6.5v2.3h-4.7
				l-0.4,2.2c0.6-0.3,1.1-0.4,1.7-0.4c1.1,0,2,0.4,2.8,1.2s1.1,1.8,1.1,3.1c0,1.1-0.3,2-0.9,2.8c-0.8,1.1-2,1.7-3.5,1.7
				c-1.2,0-2.2-0.3-2.9-1S2402.2-168.2,2402-169.3z"/>
		</g>
		<rect id="Rectangle_71" x="2285" y="-138" class="st7" width="26" height="26"/>
		<g class="st4">
			<path class="st1" d="M2326.1-120h-2.5v-9.3c-0.9,0.8-2,1.5-3.2,1.9v-2.2c0.6-0.2,1.3-0.6,2.1-1.2c0.8-0.6,1.3-1.3,1.6-2.1h2V-120
				z"/>
			<path class="st1" d="M2329.8-123l2.4-0.3c0.1,0.5,0.2,0.8,0.5,1.1s0.6,0.4,1,0.4c0.5,0,0.9-0.2,1.3-0.7s0.6-1.4,0.7-2.9
				c-0.6,0.7-1.4,1.1-2.3,1.1c-1,0-1.9-0.4-2.6-1.2c-0.7-0.8-1.1-1.8-1.1-3.1c0-1.3,0.4-2.4,1.2-3.2c0.8-0.8,1.8-1.2,3-1.2
				c1.3,0,2.4,0.5,3.2,1.5c0.8,1,1.3,2.7,1.3,5c0,2.4-0.4,4.1-1.3,5.1s-2,1.6-3.4,1.6c-1,0-1.8-0.3-2.4-0.8
				C2330.4-121.1,2330-121.9,2329.8-123z M2335.4-128.4c0-0.8-0.2-1.4-0.5-1.9s-0.8-0.7-1.3-0.7c-0.5,0-0.8,0.2-1.1,0.5
				c-0.3,0.4-0.5,1-0.5,1.8c0,0.8,0.2,1.4,0.5,1.8c0.3,0.4,0.7,0.6,1.2,0.6c0.5,0,0.9-0.2,1.2-0.6S2335.4-127.6,2335.4-128.4z"/>
			<path class="st1" d="M2344.6-120v-2.6h-5.3v-2.2l5.6-8.2h2.1v8.2h1.6v2.2h-1.6v2.6H2344.6z M2344.6-124.8v-4.4l-3,4.4H2344.6z"/>
		</g>
		<g class="st4">
			<path class="st1" d="M2358.2-129.7l-2.4,0.3c-0.1-0.5-0.2-0.9-0.5-1.1s-0.6-0.4-1-0.4c-0.5,0-1,0.2-1.3,0.7
				c-0.4,0.5-0.6,1.4-0.7,2.9c0.6-0.7,1.4-1.1,2.3-1.1c1,0,1.9,0.4,2.7,1.2c0.7,0.8,1.1,1.8,1.1,3c0,1.3-0.4,2.4-1.2,3.2
				s-1.8,1.2-3,1.2c-1.3,0-2.4-0.5-3.2-1.5c-0.8-1-1.3-2.7-1.3-5c0-2.4,0.4-4.1,1.3-5.1s2-1.6,3.4-1.6c1,0,1.8,0.3,2.4,0.8
				C2357.6-131.6,2358-130.8,2358.2-129.7z M2352.6-124.3c0,0.8,0.2,1.4,0.6,1.9s0.8,0.7,1.3,0.7c0.5,0,0.8-0.2,1.1-0.5
				s0.5-0.9,0.5-1.8c0-0.8-0.2-1.5-0.5-1.8s-0.7-0.6-1.2-0.6c-0.5,0-0.9,0.2-1.2,0.6C2352.7-125.6,2352.6-125.1,2352.6-124.3z"/>
			<path class="st1" d="M2360-123.7v-1.8h10v1.8H2360z"/>
		</g>
		<g class="st4">
			<path class="st1" d="M2378.3-120h-2.5v-9.3c-0.9,0.8-2,1.5-3.2,1.9v-2.2c0.6-0.2,1.3-0.6,2.1-1.2c0.8-0.6,1.3-1.3,1.6-2.1h2V-120
				z"/>
			<path class="st1" d="M2382-123l2.4-0.3c0.1,0.5,0.2,0.8,0.5,1.1s0.6,0.4,1,0.4c0.5,0,0.9-0.2,1.3-0.7s0.6-1.4,0.7-2.9
				c-0.6,0.7-1.4,1.1-2.3,1.1c-1,0-1.9-0.4-2.6-1.2c-0.7-0.8-1.1-1.8-1.1-3.1c0-1.3,0.4-2.4,1.2-3.2c0.8-0.8,1.8-1.2,3-1.2
				c1.3,0,2.4,0.5,3.2,1.5c0.8,1,1.3,2.7,1.3,5c0,2.4-0.4,4.1-1.3,5.1s-2,1.6-3.4,1.6c-1,0-1.8-0.3-2.4-0.8
				C2382.6-121.1,2382.2-121.9,2382-123z M2387.6-128.4c0-0.8-0.2-1.4-0.5-1.9c-0.4-0.4-0.8-0.7-1.3-0.7c-0.5,0-0.8,0.2-1.1,0.5
				c-0.3,0.4-0.5,1-0.5,1.8c0,0.8,0.2,1.4,0.5,1.8c0.3,0.4,0.7,0.6,1.2,0.6c0.5,0,0.9-0.2,1.2-0.6
				C2387.5-127.1,2387.6-127.6,2387.6-128.4z"/>
			<path class="st1" d="M2394.1-127c-0.6-0.3-1.1-0.6-1.4-1.1c-0.3-0.5-0.4-1-0.4-1.6c0-1,0.3-1.8,1-2.4c0.7-0.6,1.6-0.9,2.9-0.9
				c1.2,0,2.2,0.3,2.9,0.9c0.7,0.6,1,1.4,1,2.4c0,0.6-0.2,1.1-0.5,1.6c-0.3,0.5-0.7,0.8-1.3,1.1c0.7,0.3,1.3,0.7,1.6,1.3
				c0.4,0.6,0.6,1.2,0.6,1.9c0,1.2-0.4,2.2-1.1,2.9c-0.8,0.7-1.8,1.1-3,1.1c-1.2,0-2.1-0.3-2.9-0.9c-0.9-0.7-1.4-1.7-1.4-3
				c0-0.7,0.2-1.3,0.5-1.9C2392.8-126.2,2393.4-126.6,2394.1-127z M2394.4-123.9c0,0.7,0.2,1.2,0.5,1.6c0.3,0.4,0.8,0.6,1.3,0.6
				c0.5,0,0.9-0.2,1.3-0.5s0.5-0.9,0.5-1.6c0-0.6-0.2-1.1-0.5-1.5s-0.8-0.5-1.3-0.5c-0.6,0-1.1,0.2-1.3,0.6
				C2394.5-124.9,2394.4-124.4,2394.4-123.9z M2394.6-129.4c0,0.5,0.1,0.9,0.4,1.2c0.3,0.3,0.6,0.4,1.1,0.4c0.5,0,0.8-0.1,1.1-0.4
				c0.3-0.3,0.4-0.7,0.4-1.2c0-0.5-0.1-0.8-0.4-1.1c-0.3-0.3-0.6-0.4-1.1-0.4c-0.5,0-0.9,0.1-1.1,0.4S2394.6-129.9,2394.6-129.4z"/>
			<path class="st1" d="M2402-123.3l2.5-0.3c0.1,0.6,0.3,1,0.6,1.3c0.3,0.3,0.7,0.5,1.2,0.5c0.5,0,1-0.2,1.3-0.6
				c0.4-0.4,0.5-1,0.5-1.9c0-0.8-0.2-1.4-0.5-1.8c-0.4-0.4-0.8-0.6-1.4-0.6c-0.7,0-1.3,0.3-1.9,0.9l-2-0.3l1.3-6.7h6.5v2.3h-4.7
				l-0.4,2.2c0.6-0.3,1.1-0.4,1.7-0.4c1.1,0,2,0.4,2.8,1.2s1.1,1.8,1.1,3.1c0,1.1-0.3,2-0.9,2.8c-0.8,1.1-2,1.7-3.5,1.7
				c-1.2,0-2.2-0.3-2.9-1S2402.2-122.2,2402-123.3z"/>
		</g>
		<rect id="Rectangle_70" x="2285" y="-91" class="st8" width="26" height="26"/>
		<rect id="Rectangle_111" x="2285" y="48" class="st9" width="26" height="26"/>
		<g class="st4">
			<path class="st1" d="M2326.1-71h-2.5v-9.3c-0.9,0.8-2,1.5-3.2,1.9v-2.2c0.6-0.2,1.3-0.6,2.1-1.2c0.8-0.6,1.3-1.3,1.6-2.1h2V-71z"
				/>
			<path class="st1" d="M2330.8-74l2.4-0.3c0.1,0.5,0.2,0.8,0.5,1.1s0.6,0.4,1,0.4c0.5,0,0.9-0.2,1.3-0.7s0.6-1.4,0.7-2.9
				c-0.6,0.7-1.4,1.1-2.3,1.1c-1,0-1.9-0.4-2.6-1.2c-0.7-0.8-1.1-1.8-1.1-3.1c0-1.3,0.4-2.4,1.2-3.2c0.8-0.8,1.8-1.2,3-1.2
				c1.3,0,2.4,0.5,3.2,1.5c0.8,1,1.3,2.7,1.3,5c0,2.4-0.4,4.1-1.3,5.1s-2,1.6-3.4,1.6c-1,0-1.8-0.3-2.4-0.8
				C2331.4-72.1,2331-72.9,2330.8-74z M2336.4-79.4c0-0.8-0.2-1.4-0.5-1.9s-0.8-0.7-1.3-0.7c-0.5,0-0.8,0.2-1.1,0.5
				c-0.3,0.4-0.5,1-0.5,1.8c0,0.8,0.2,1.4,0.5,1.8c0.3,0.4,0.7,0.6,1.2,0.6c0.5,0,0.9-0.2,1.2-0.6S2336.4-78.6,2336.4-79.4z"/>
			<path class="st1" d="M2343.9-78c-0.6-0.3-1.1-0.6-1.4-1.1c-0.3-0.5-0.4-1-0.4-1.6c0-1,0.3-1.8,1-2.4s1.6-0.9,2.9-0.9
				c1.2,0,2.2,0.3,2.9,0.9s1,1.4,1,2.4c0,0.6-0.2,1.1-0.5,1.6c-0.3,0.5-0.7,0.8-1.3,1.1c0.7,0.3,1.3,0.7,1.6,1.3s0.6,1.2,0.6,1.9
				c0,1.2-0.4,2.2-1.1,2.9s-1.8,1.1-3,1.1c-1.2,0-2.1-0.3-2.9-0.9c-0.9-0.7-1.4-1.7-1.4-3c0-0.7,0.2-1.3,0.5-1.9
				C2342.6-77.2,2343.1-77.6,2343.9-78z M2344.2-74.9c0,0.7,0.2,1.2,0.5,1.6s0.8,0.6,1.3,0.6c0.5,0,0.9-0.2,1.3-0.5s0.5-0.9,0.5-1.6
				c0-0.6-0.2-1.1-0.5-1.5s-0.8-0.5-1.3-0.5c-0.6,0-1.1,0.2-1.3,0.6S2344.2-75.4,2344.2-74.9z M2344.4-80.4c0,0.5,0.1,0.9,0.4,1.2
				s0.6,0.4,1.1,0.4c0.5,0,0.8-0.1,1.1-0.4c0.3-0.3,0.4-0.7,0.4-1.2c0-0.5-0.1-0.8-0.4-1.1c-0.3-0.3-0.6-0.4-1.1-0.4
				c-0.5,0-0.9,0.1-1.1,0.4S2344.4-80.9,2344.4-80.4z"/>
		</g>
		<g class="st4">
			<path class="st1" d="M2361.4-80.7l-2.4,0.3c-0.1-0.5-0.2-0.9-0.5-1.1s-0.6-0.4-1-0.4c-0.5,0-1,0.2-1.3,0.7s-0.6,1.4-0.7,2.9
				c0.6-0.7,1.4-1.1,2.3-1.1c1,0,1.9,0.4,2.6,1.2s1.1,1.8,1.1,3c0,1.3-0.4,2.4-1.2,3.2s-1.8,1.2-3,1.2c-1.3,0-2.4-0.5-3.2-1.5
				c-0.8-1-1.3-2.7-1.3-5c0-2.4,0.4-4.1,1.3-5.1s2-1.6,3.4-1.6c1,0,1.8,0.3,2.4,0.8S2361.2-81.8,2361.4-80.7z M2355.8-75.3
				c0,0.8,0.2,1.4,0.6,1.9s0.8,0.7,1.3,0.7c0.5,0,0.8-0.2,1.1-0.5s0.5-0.9,0.5-1.8c0-0.8-0.2-1.5-0.5-1.8s-0.7-0.6-1.2-0.6
				c-0.5,0-0.9,0.2-1.2,0.6C2356-76.6,2355.8-76.1,2355.8-75.3z"/>
		</g>
		<g class="st4">
			<path class="st1" d="M2374.2-84.8c0.3,0,0.5,0,0.6-0.1c0.1,0,0.2-0.1,0.2-0.1c0.1,0,0.4,0.2,0.7,0.5c0.4,0.4,0.6,0.6,0.6,0.8
				c0,0.1-0.1,0.2-0.2,0.3c-0.2,0.2-0.3,0.4-0.4,0.5c-0.2,0.9-0.4,1.8-0.6,2.5h2.5c0.2,0,0.3,0,0.4-0.1c0.1-0.1,0.2-0.1,0.3-0.1
				c0.1,0,0.4,0.2,0.7,0.5c0.4,0.3,0.5,0.6,0.5,0.7c0,0.1-0.1,0.2-0.2,0.3c-0.1,0.1-0.2,0.3-0.4,0.7c-0.7,2-1.7,3.6-2.9,5
				c1.4,0.9,3,1.6,4.8,2.2c-0.3,0.3-0.5,0.8-0.8,1.4c-0.1,0.3-0.2,0.4-0.3,0.4c0,0-0.2,0-0.4-0.1c-1.9-0.8-3.5-1.7-4.7-2.6
				c-1.3,1.1-3,2-5,2.6c-0.2,0.1-0.3,0.1-0.4,0.1c-0.1,0-0.2-0.2-0.4-0.5c-0.2-0.5-0.5-0.8-0.8-1.1c2.1-0.5,3.8-1.3,5.2-2.3
				c-1.5-1.4-2.6-3.2-3.3-5.2c-0.1,0.8-0.3,1.6-0.5,2.4c-0.7,2.4-1.9,4.5-3.6,6.2c-0.2,0.2-0.3,0.3-0.4,0.3c-0.1,0-0.2-0.1-0.4-0.4
				c-0.3-0.4-0.7-0.7-1-1c1.7-1.4,3-3.3,3.8-5.8c0.5-1.5,0.7-3.6,0.7-6.4h-0.7l-2.5,0c-0.1,0-0.1,0-0.2,0s0-0.1,0-0.2v-1.4
				c0-0.1,0-0.2,0-0.2s0.1,0,0.2,0l2.5,0H2374.2z M2370.2-83c0.6,3.7,2,6.5,4.4,8.5c1.1-1.1,1.9-2.6,2.5-4.2h-2.4l-0.2,0.6
				c-0.1,0.1-0.2,0.2-0.3,0.2c-0.1,0-0.3,0-0.7-0.1c-0.5-0.1-0.8-0.1-0.8-0.2c0,0,0-0.1,0-0.2c0.5-1.5,1-3,1.3-4.7L2370.2-83
				L2370.2-83z"/>
			<path class="st1" d="M2391.7-77c0,0.2,0,0.3,0,0.6c0,0.3,0,0.5,0.1,0.8c0,0.2,0,0.3,0,0.4c0,0.1,0,0.2-0.1,0.2s-0.2,0.1-0.4,0.2
				c-2,1-4.1,2-6.5,2.9c-0.3,0.1-0.4,0.2-0.5,0.3c-0.1,0.1-0.2,0.1-0.3,0.1c-0.1,0-0.2-0.1-0.3-0.3c-0.2-0.4-0.3-1.1-0.5-1.9
				c0.6-0.1,1.1-0.3,1.7-0.4l0.4-0.1l-0.1-7.7c0-1.3-0.1-2.3-0.1-2.7c0.8,0,1.5,0.1,2,0.1c0.2,0,0.3,0.1,0.3,0.2
				c0,0.1,0,0.2-0.1,0.4c-0.1,0.1-0.1,0.6-0.1,1.2c0,0.2,0,0.4,0,0.7l0.1,7.1C2388.7-75.5,2390.2-76.2,2391.7-77z M2387.6-70.9
				c1.8-0.7,3.1-1.4,4.1-2.2c0.9-0.7,1.6-1.5,2.2-2.5c1-1.6,1.6-3.8,1.8-6.7c0-0.5,0.1-0.9,0.1-1.3c0-0.4,0-0.9-0.1-1.3
				c0.8,0.1,1.5,0.1,2.1,0.2c0.2,0,0.3,0.1,0.3,0.3c0,0.1,0,0.2-0.1,0.4c-0.1,0.2-0.1,0.7-0.2,1.6c-0.2,3-0.8,5.3-1.7,7
				c1,1.5,2.3,2.8,3.8,3.9c-0.4,0.4-0.7,0.9-1,1.5c-0.1,0.3-0.2,0.4-0.3,0.4c-0.1,0-0.2-0.1-0.4-0.3c-1.1-1.1-2.2-2.3-3.2-3.7
				c-0.7,0.9-1.4,1.7-2.3,2.3c-0.8,0.6-1.9,1.2-3.1,1.8c-0.2,0.1-0.4,0.1-0.4,0.1c-0.1,0-0.2-0.1-0.4-0.4
				C2388.3-70.1,2388-70.5,2387.6-70.9z M2390.7-83.3c1,0.9,1.9,2,2.7,3.3c0,0.1,0.1,0.1,0.1,0.1c0,0.1-0.1,0.1-0.2,0.2l-1.2,0.8
				c-0.1,0.1-0.2,0.1-0.2,0.1c-0.1,0-0.1-0.1-0.2-0.2c-0.8-1.3-1.6-2.4-2.6-3.3c-0.1-0.1-0.1-0.1-0.1-0.1c0-0.1,0.1-0.1,0.2-0.2
				l1.1-0.7c0.1-0.1,0.2-0.1,0.2-0.1S2390.6-83.4,2390.7-83.3z"/>
			<path class="st1" d="M2405.9-81.7c0.5,0.2,0.9,0.5,1.3,0.8c0.2,0.1,0.2,0.2,0.2,0.3c0,0.1,0,0.1-0.1,0.2
				c-0.1,0.1-0.2,0.2-0.4,0.4c-0.4,0.6-0.8,1.2-1.2,1.7v6.6l0,2.2c0,0.1,0,0.2,0,0.2c0,0-0.1,0-0.2,0h-1.5c-0.1,0-0.2-0.1-0.2-0.2
				l0-2.2v-2.6c0-0.4,0-1.1,0-2c-0.4,0.4-0.7,0.7-1,0.9c-0.2,0.2-0.3,0.2-0.4,0.2c-0.1,0-0.2-0.1-0.2-0.4c-0.2-0.6-0.4-1-0.6-1.3
				c1.5-1.2,2.7-2.5,3.6-4C2405.6-81.1,2405.8-81.4,2405.9-81.7z M2405.7-85.7c0.4,0.1,0.8,0.4,1.4,0.8c0.2,0.1,0.3,0.2,0.3,0.3
				c0,0.1-0.1,0.2-0.3,0.3c-0.1,0.1-0.3,0.2-0.5,0.5c-0.9,1.2-2,2.2-3.1,3c-0.2,0.1-0.3,0.2-0.4,0.2c-0.1,0-0.2-0.1-0.3-0.4
				c-0.2-0.4-0.5-0.8-0.8-1.1c1.2-0.7,2.3-1.7,3.2-2.8C2405.4-85.1,2405.6-85.4,2405.7-85.7z M2416-81.2c0.9,1,1.7,2.1,2.4,3.5
				c0,0.1,0.1,0.1,0.1,0.2c0,0.1-0.1,0.1-0.2,0.2l-1.1,0.6c-0.1,0.1-0.2,0.1-0.2,0.1c0,0-0.1-0.1-0.1-0.2c-0.2-0.5-0.4-0.9-0.6-1.1
				c-1.4,0.2-3.3,0.3-5.6,0.5c0.3,0.1,0.6,0.1,1,0.2c0.2,0.1,0.3,0.1,0.3,0.2s-0.1,0.2-0.2,0.3c-0.1,0-0.2,0.1-0.3,0.3h3.1
				c0.2,0,0.3,0,0.4-0.1c0.1,0,0.2-0.1,0.2-0.1c0.1,0,0.4,0.2,0.7,0.5c0.3,0.3,0.5,0.6,0.5,0.7c0,0.1-0.1,0.2-0.2,0.3
				c-0.1,0.1-0.3,0.3-0.5,0.6c-0.5,0.7-1.1,1.4-1.7,2c1.2,0.6,2.8,1,4.9,1.3c-0.2,0.3-0.5,0.7-0.6,1.2c-0.1,0.2-0.1,0.4-0.2,0.4
				c0,0.1-0.1,0.1-0.2,0.1c-0.1,0-0.2,0-0.4-0.1c-2-0.5-3.6-1.1-4.9-1.8c-1.4,0.9-3,1.5-4.9,1.9c-0.2,0-0.3,0.1-0.4,0.1
				c-0.1,0-0.3-0.2-0.4-0.5c-0.2-0.4-0.4-0.7-0.6-1c1.9-0.3,3.5-0.8,4.9-1.5c-0.6-0.5-1.1-1-1.6-1.6c-0.6,0.5-1.2,1-1.9,1.4
				c-0.2,0.1-0.4,0.2-0.4,0.2c-0.1,0-0.2-0.1-0.4-0.4c-0.2-0.3-0.4-0.6-0.7-0.9c1.5-0.8,2.7-1.7,3.4-2.7c0.2-0.3,0.4-0.6,0.6-1
				c-0.5,0.1-1,0.1-1.4,0.1c-0.5,0-0.8,0.1-1,0.2c-0.2,0.1-0.3,0.1-0.3,0.1c-0.1,0-0.2-0.1-0.3-0.3c-0.1-0.5-0.2-1-0.2-1.6
				c0.4,0,0.7,0,1.1,0c0.1,0,0.3,0,0.4,0c0.3,0,0.8,0,1.5,0l0.7-0.7c-0.9-0.9-1.8-1.7-2.9-2.4c-0.1-0.1-0.1-0.1-0.1-0.2
				c0,0,0-0.1,0.1-0.2l0.7-0.8c0.1-0.1,0.1-0.1,0.2-0.1s0.1,0,0.2,0.1c0.1,0.1,0.4,0.3,0.7,0.5c0.5-0.7,1-1.3,1.4-1.9
				c0.2-0.3,0.3-0.6,0.5-1c0.6,0.2,1.1,0.4,1.6,0.7c0.2,0.1,0.2,0.2,0.2,0.3c0,0.1-0.1,0.2-0.2,0.3c-0.1,0.1-0.3,0.3-0.5,0.5
				c-0.8,1-1.3,1.7-1.7,2.1c0.4,0.4,0.8,0.7,1.1,0.9c0.8-0.9,1.4-1.7,2-2.5c0.3-0.3,0.5-0.7,0.6-1c0.6,0.2,1.1,0.4,1.5,0.7
				c0.2,0.1,0.3,0.2,0.3,0.3c0,0.1-0.1,0.2-0.2,0.3c-0.1,0.1-0.3,0.3-0.6,0.6c-0.7,0.9-1.7,2-3.2,3.4c1.5-0.1,2.6-0.2,3.4-0.3
				c-0.1-0.2-0.4-0.5-0.8-1c0-0.1-0.1-0.1-0.1-0.1c0-0.1,0.1-0.1,0.2-0.2l0.9-0.5c0.1-0.1,0.2-0.1,0.2-0.1
				C2415.9-81.3,2415.9-81.2,2416-81.2z M2414-75h-3.4c0.5,0.6,1.1,1.2,1.8,1.7C2413-73.8,2413.5-74.3,2414-75z"/>
		</g>
		<g class="st4">
			<path class="st1" d="M2326.1-25h-2.5v-9.3c-0.9,0.8-2,1.5-3.2,1.9v-2.2c0.6-0.2,1.3-0.6,2.1-1.2c0.8-0.6,1.3-1.3,1.6-2.1h2V-25z"
				/>
			<path class="st1" d="M2329.8-28l2.4-0.3c0.1,0.5,0.2,0.8,0.5,1.1s0.6,0.4,1,0.4c0.5,0,0.9-0.2,1.3-0.7s0.6-1.4,0.7-2.9
				c-0.6,0.7-1.4,1.1-2.3,1.1c-1,0-1.9-0.4-2.6-1.2c-0.7-0.8-1.1-1.8-1.1-3.1c0-1.3,0.4-2.4,1.2-3.2c0.8-0.8,1.8-1.2,3-1.2
				c1.3,0,2.4,0.5,3.2,1.5c0.8,1,1.3,2.7,1.3,5c0,2.4-0.4,4.1-1.3,5.1s-2,1.6-3.4,1.6c-1,0-1.8-0.3-2.4-0.8
				C2330.4-26.1,2330-26.9,2329.8-28z M2335.4-33.4c0-0.8-0.2-1.4-0.5-1.9s-0.8-0.7-1.3-0.7c-0.5,0-0.8,0.2-1.1,0.5
				c-0.3,0.4-0.5,1-0.5,1.8c0,0.8,0.2,1.4,0.5,1.8c0.3,0.4,0.7,0.6,1.2,0.6c0.5,0,0.9-0.2,1.2-0.6S2335.4-32.6,2335.4-33.4z"/>
			<path class="st1" d="M2344-37.9c1.2,0,2.2,0.4,2.9,1.3c0.8,1.1,1.3,2.8,1.3,5.2c0,2.4-0.4,4.2-1.3,5.3c-0.7,0.9-1.7,1.3-2.9,1.3
				c-1.3,0-2.3-0.5-3-1.4c-0.8-1-1.2-2.7-1.2-5.2c0-2.4,0.4-4.2,1.3-5.2C2341.7-37.5,2342.7-37.9,2344-37.9z M2344-35.9
				c-0.3,0-0.6,0.1-0.8,0.3s-0.4,0.5-0.5,1c-0.2,0.6-0.3,1.7-0.3,3.2s0.1,2.6,0.2,3.1s0.3,0.9,0.6,1.1c0.2,0.2,0.5,0.3,0.8,0.3
				s0.6-0.1,0.8-0.3s0.4-0.5,0.5-1c0.2-0.6,0.3-1.7,0.3-3.2s-0.1-2.5-0.2-3.1c-0.2-0.6-0.3-0.9-0.6-1.1
				C2344.5-35.8,2344.3-35.9,2344-35.9z"/>
			<path class="st1" d="M2354-37.9c1.2,0,2.2,0.4,2.9,1.3c0.8,1.1,1.3,2.8,1.3,5.2c0,2.4-0.4,4.2-1.3,5.3c-0.7,0.9-1.7,1.3-2.9,1.3
				c-1.3,0-2.3-0.5-3-1.4c-0.8-1-1.2-2.7-1.2-5.2c0-2.4,0.4-4.2,1.3-5.2C2351.8-37.5,2352.7-37.9,2354-37.9z M2354-35.9
				c-0.3,0-0.6,0.1-0.8,0.3s-0.4,0.5-0.5,1c-0.2,0.6-0.3,1.7-0.3,3.2s0.1,2.6,0.2,3.1s0.3,0.9,0.6,1.1c0.2,0.2,0.5,0.3,0.8,0.3
				s0.6-0.1,0.8-0.3s0.4-0.5,0.5-1c0.2-0.6,0.3-1.7,0.3-3.2s-0.1-2.5-0.2-3.1c-0.2-0.6-0.3-0.9-0.6-1.1
				C2354.5-35.8,2354.3-35.9,2354-35.9z"/>
		</g>
		<g class="st4">
			<path class="st1" d="M2362.4-27.2l-2.3,0c-0.1,0-0.2,0-0.2,0s0-0.1,0-0.2v-1.4c0-0.1,0.1-0.2,0.2-0.2l2.3,0h0.4v-2.5l0-1.6
				c0-0.1,0-0.1,0-0.2s0.1,0,0.2,0l2.5,0h2.3v-2.4h-3.7c-0.6,0.9-1.3,1.8-2.1,2.6c-0.2,0.2-0.3,0.3-0.4,0.3c-0.1,0-0.2-0.1-0.4-0.3
				c-0.3-0.4-0.6-0.7-1-1c1.4-1.2,2.6-2.7,3.3-4.4c0.2-0.5,0.4-0.9,0.5-1.3c0.8,0.2,1.3,0.3,1.7,0.4c0.2,0.1,0.3,0.2,0.3,0.3
				c0,0.1-0.1,0.2-0.2,0.3c-0.2,0.1-0.3,0.4-0.5,0.7l-0.4,0.8h7.4l2.5,0c0.1,0,0.1,0,0.2,0s0,0.1,0,0.2v1.3c0,0.1,0,0.1,0,0.2
				s-0.1,0-0.2,0l-2.5,0h-2.8v2.4h1.9l2.5,0c0.1,0,0.2,0.1,0.2,0.2v1.4c0,0.1-0.1,0.2-0.2,0.2l-2.5,0h-1.9v2.6h3.8l2.3,0
				c0.1,0,0.2,0.1,0.2,0.2v1.4c0,0.1,0,0.1,0,0.2c0,0-0.1,0-0.2,0l-2.3,0h-3.8v0.9l0,2.9c0,0.1,0,0.2,0,0.2c0,0-0.1,0-0.2,0h-1.6
				c-0.1,0-0.2,0-0.2,0c0,0,0-0.1,0-0.2l0-2.9v-0.9H2362.4z M2364.8-28.9h3v-2.6h-3V-28.9z"/>
			<path class="st1" d="M2380.5-35.4l-2.3,0c-0.1,0-0.2,0-0.2,0c0,0,0-0.1,0-0.2V-37c0-0.1,0-0.1,0-0.2s0.1,0,0.2,0l2.3,0h2.1
				c-0.3-0.6-0.6-1.2-1-1.8c0-0.1-0.1-0.1-0.1-0.1c0,0,0.1-0.1,0.2-0.2l1.2-0.5c0.1,0,0.2-0.1,0.2-0.1c0,0,0.1,0,0.2,0.1
				c0.4,0.6,0.8,1.2,1,1.7c0,0.1,0,0.1,0,0.1c0,0-0.1,0.1-0.2,0.2l-1.1,0.4h4.1c0.4-0.6,0.8-1.2,1.1-1.7c0.2-0.3,0.3-0.6,0.3-0.9
				c0.8,0.2,1.4,0.3,1.8,0.5c0.2,0.1,0.3,0.2,0.3,0.3c0,0.1-0.1,0.1-0.2,0.2c-0.1,0.1-0.3,0.3-0.5,0.6c-0.2,0.3-0.4,0.7-0.7,1h2.4
				l2.3,0c0.1,0,0.2,0,0.2,0c0,0,0,0.1,0,0.2v1.4c0,0.1,0,0.2,0,0.2c0,0-0.1,0-0.2,0l-2.3,0H2380.5z M2382.2-25
				c0.5,0,0.9,0.1,1.2,0.1c0.3,0,0.4,0,0.5-0.1c0.1-0.1,0.1-0.2,0.1-0.4v-1.5h-2.9v1.3l0,2.3c0,0.1,0,0.2,0,0.2c0,0-0.1,0-0.2,0
				h-1.4c-0.1,0-0.1,0-0.2,0s0-0.1,0-0.2l0-2.3v-5.9l0-2.4c0-0.1,0.1-0.2,0.2-0.2l1.9,0h2.3l1.9,0c0.1,0,0.2,0.1,0.2,0.2l0,2.5v3.9
				l0,2.4c0,0.8-0.1,1.2-0.4,1.5c-0.3,0.2-1,0.4-2,0.4c-0.3,0-0.5,0-0.5-0.1c0,0-0.1-0.2-0.1-0.5C2382.5-24.3,2382.4-24.7,2382.2-25
				z M2384-32.6h-2.9v1.4h2.9V-32.6z M2381.1-28.3h2.9v-1.4h-2.9V-28.3z M2387.3-33.7c0.5,0,1.1,0.1,1.8,0.1c0.2,0,0.3,0.1,0.3,0.2
				c0,0,0,0.2-0.1,0.4c0,0.2-0.1,0.8-0.1,1.8v2.1l0,1.9c0,0.1,0,0.1,0,0.2s-0.1,0-0.2,0h-1.4c-0.1,0-0.2,0-0.2,0c0,0,0-0.1,0-0.1
				l0-1.9v-2.1C2387.4-32.2,2387.4-33.1,2387.3-33.7z M2388.4-25.2c0.5,0.1,1.1,0.1,1.8,0.1c0.3,0,0.5-0.1,0.6-0.2
				c0.1-0.1,0.2-0.3,0.2-0.5V-32c0-1.1,0-1.9-0.1-2.4c0.7,0,1.3,0.1,1.9,0.1c0.2,0,0.3,0.1,0.3,0.2c0,0.1,0,0.2-0.1,0.4
				c-0.1,0.2-0.1,0.7-0.1,1.7v3.5l0,3.1c0,0.8-0.2,1.4-0.6,1.6c-0.3,0.2-0.6,0.3-0.9,0.3c-0.3,0-0.9,0.1-1.6,0.1
				c-0.3,0-0.5,0-0.5-0.1c0,0-0.1-0.2-0.2-0.5C2388.8-24.4,2388.6-24.8,2388.4-25.2z"/>
			<path class="st1" d="M2396.9-34.8c1.1,0.6,1.9,1.2,2.6,1.8c0.1,0.1,0.1,0.1,0.1,0.2c0,0,0,0.1-0.1,0.2l-0.8,1.1
				c-0.1,0.1-0.2,0.2-0.2,0.2c0,0-0.1,0-0.2-0.1c-0.7-0.7-1.6-1.4-2.5-2c-0.1,0-0.1-0.1-0.1-0.1c0,0,0-0.1,0.1-0.2l0.8-0.9
				c0.1-0.1,0.1-0.1,0.2-0.1C2396.8-34.9,2396.9-34.9,2396.9-34.8z M2395.7-24.4c0.3-0.5,0.6-0.9,0.8-1.4c0.7-1.4,1.2-2.8,1.5-4.4
				c0.4,0.4,0.7,0.6,1,0.9c0.3,0.2,0.4,0.3,0.4,0.5c0,0.1,0,0.2-0.1,0.4c-0.3,1.1-0.8,2.5-1.5,4.1c-0.2,0.3-0.2,0.6-0.2,0.7
				c0,0.2-0.1,0.3-0.2,0.3c-0.1,0-0.2,0-0.4-0.1C2396.7-23.6,2396.3-24,2395.7-24.4z M2397.7-39.3c0.8,0.4,1.6,1.1,2.5,1.9
				c0.1,0.1,0.1,0.1,0.1,0.1s0,0.1-0.1,0.2l-0.8,1.1c-0.1,0.1-0.1,0.2-0.2,0.2c0,0-0.1,0-0.2-0.1c-0.8-0.9-1.7-1.6-2.5-2
				c-0.1,0-0.1-0.1-0.1-0.1c0,0,0-0.1,0.1-0.2l0.8-0.9c0.1-0.1,0.1-0.1,0.2-0.1C2397.6-39.4,2397.6-39.4,2397.7-39.3z M2399.3-34.5
				c1.2-1.1,2.1-2.4,2.6-3.9c0.2-0.5,0.3-1,0.3-1.4c0.6,0.1,1.2,0.2,1.7,0.3c0.2,0.1,0.3,0.1,0.3,0.3c0,0.1-0.1,0.2-0.2,0.3
				c-0.2,0.2-0.3,0.4-0.4,0.6c-0.1,0.2-0.2,0.4-0.2,0.6h5.9l2.4,0c0.1,0,0.2,0,0.2,0s0,0.1,0,0.1v1.3c0,0.1,0,0.2,0,0.2
				c0,0-0.1,0-0.2,0l-2.4,0h-6.7c-0.2,0.3-0.4,0.7-0.7,1.1l2.3,0h3.9l2.3,0c0.1,0,0.2,0.1,0.2,0.2c0,0.6-0.1,1.1-0.1,1.5l-0.1,2
				l1.5,0c0.1,0,0.2,0,0.2,0c0,0,0,0.1,0,0.2v1.3c0,0.1,0,0.1,0,0.2c0,0-0.1,0-0.2,0c0,0-0.1,0-0.2,0c-0.4,0-0.9,0-1.4,0
				c0,0.6-0.1,1.4-0.2,2.3l1.3,0c0.1,0,0.2,0,0.2,0c0,0,0,0.1,0,0.2v1.2c0,0.1,0,0.1,0,0.2s-0.1,0-0.2,0c0,0-0.1,0-0.2,0
				c-0.4,0-0.8,0-1.3,0l0,0.4c-0.1,0.8-0.4,1.4-0.8,1.7c-0.4,0.3-0.9,0.5-1.6,0.5c-0.5,0-0.8,0-1,0s-0.2,0-0.3-0.1
				c0-0.1-0.1-0.2-0.2-0.5c-0.2-0.5-0.3-0.9-0.5-1.2c0.5,0.1,1,0.1,1.7,0.1c0.5,0,0.8-0.3,0.9-0.9h-6c-0.1,0.4-0.2,0.7-0.2,1
				c0,0.2-0.1,0.3-0.3,0.3c-0.1,0-0.3,0-0.7-0.1c-0.4-0.1-0.6-0.1-0.7-0.1c-0.1,0-0.2-0.1-0.2-0.1c0,0,0-0.1,0-0.2
				c0.2-0.5,0.3-0.9,0.4-1.4c0.3-1.1,0.5-2.1,0.6-3.2c-0.4,0-0.8,0-1.2,0c-0.2,0-0.4,0-0.4,0c-0.1,0-0.2,0-0.2,0c0,0,0-0.1,0-0.2
				v-1.3c0-0.1,0-0.1,0-0.2c0,0,0.1,0,0.2,0l1.7,0c0.1-0.5,0.2-1.3,0.2-2.3c0-0.4,0.1-0.8,0.1-1.2c-0.2,0.3-0.5,0.7-0.8,1.1
				c-0.2,0.2-0.3,0.3-0.4,0.3c-0.1,0-0.2-0.1-0.4-0.3C2400-34,2399.7-34.3,2399.3-34.5z M2402.6-27.3h2c0.1-0.5,0.2-1.3,0.3-2.3
				h-1.9C2402.9-28.9,2402.8-28.1,2402.6-27.3z M2403.4-33.4c-0.1,0.7-0.1,1.4-0.2,2.2h1.9c0-0.5,0.1-1.2,0.1-2.2H2403.4z
				 M2408.7-29.7h-2.1c-0.1,1-0.2,1.8-0.3,2.3h2.2C2408.6-27.9,2408.7-28.6,2408.7-29.7z M2408.9-33.4h-2l-0.2,2.2h2.1
				C2408.9-32.3,2408.9-33,2408.9-33.4z"/>
			<path class="st1" d="M2417.1-32.8v1c0,1.4-0.1,2.8-0.4,4c-0.3,1.5-0.8,2.8-1.5,4.1c-0.1,0.2-0.2,0.3-0.3,0.3s-0.2-0.1-0.4-0.3
				c-0.4-0.5-0.7-0.8-1.1-1c0.7-1.1,1.2-2.3,1.5-3.7c0.2-0.9,0.3-2.1,0.3-3.9l0-2c0-0.1,0.1-0.2,0.2-0.2l2.5,0h9l2.4,0
				c0.1,0,0.2,0,0.2,0c0,0,0,0.1,0,0.2v1.3c0,0.1,0,0.2,0,0.2c0,0-0.1,0-0.2,0l-2.4,0H2417.1z M2426.7-39c0.7,0,1.3,0.1,1.8,0.1
				c0.2,0,0.3,0.1,0.3,0.2c0,0.1,0,0.2-0.1,0.3c-0.1,0.1-0.1,0.4-0.1,0.8v0.6l0,1.2c0,0.1,0,0.2,0,0.2c0,0-0.1,0-0.2,0l-2.5,0h-7.7
				l-2.5,0c-0.1,0-0.1,0-0.2,0c0,0,0-0.1,0-0.2l0-1.2v-0.6c0-0.6,0-1.1-0.1-1.4c0.6,0,1.2,0.1,1.8,0.1c0.2,0,0.3,0.1,0.3,0.2
				c0,0,0,0.1-0.1,0.3c-0.1,0.1-0.1,0.4-0.1,0.7v0.5h3.7V-38c0-0.7,0-1.3-0.1-1.7c0.7,0,1.3,0.1,1.9,0.1c0.2,0,0.3,0.1,0.3,0.2
				l-0.1,0.3c-0.1,0.2-0.1,0.6-0.1,1.1v0.9h3.9v-0.6C2426.8-38.1,2426.8-38.6,2426.7-39z M2420.8-30l-2.4,0c-0.1,0-0.1,0-0.2,0
				s0-0.1,0-0.2v-1.2c0-0.1,0-0.1,0-0.2s0.1,0,0.2,0l2.4,0h5.1l2.4,0c0.1,0,0.2,0,0.2,0s0,0.1,0,0.2v1.2c0,0.1,0,0.1,0,0.2
				c0,0-0.1,0-0.2,0l-2.4,0h-1.9v1.6h3.1l2.5,0c0.1,0,0.1,0,0.2,0s0,0.1,0,0.2v1.3c0,0.1,0,0.2,0,0.2c0,0-0.1,0-0.2,0l-2.5,0h-3.1
				v1.1l0,2.3c0,0.1,0,0.2,0,0.2c0,0-0.1,0-0.2,0h-1.6c-0.1,0-0.1,0-0.2,0c0,0,0-0.1,0-0.2l0-2.3v-1.1h-1.9l-2.5,0
				c-0.1,0-0.2,0-0.2,0c0,0,0-0.1,0-0.2v-1.3c0-0.1,0-0.1,0-0.2c0,0,0.1,0,0.2,0l2.5,0h1.9V-30H2420.8z"/>
			<path class="st1" d="M2437.3-25.2c1.4-0.9,2.4-2.2,3-3.8h-0.6l-1.1,0c-0.1,0-0.2,0-0.2,0c0,0,0-0.1,0-0.2v-1.2l-0.6,0.2
				c-0.1,0-0.2,0-0.2,0c-0.1,0-0.1-0.1-0.1-0.2l-0.1-0.5c-0.3,0-0.7,0.1-1.1,0.1v5l0,2.4c0,0.1,0,0.2,0,0.2c0,0-0.1,0-0.2,0h-1.4
				c-0.1,0-0.1,0-0.2,0c0,0,0-0.1,0-0.2l0-2.4v-4.8l-1.4,0.1c-0.3,0-0.5,0.1-0.7,0.1c-0.1,0-0.2,0.1-0.3,0.1c-0.1,0-0.2-0.1-0.2-0.3
				c-0.1-0.5-0.2-1-0.2-1.5c0.4,0,0.9,0.1,1.3,0.1c0.2-0.2,0.5-0.7,1-1.4c-0.6-0.8-1.4-1.7-2.3-2.7c-0.1-0.1-0.1-0.1-0.1-0.2
				c0,0,0-0.1,0.1-0.2l0.7-0.9c0.1-0.1,0.1-0.2,0.2-0.2s0.1,0,0.1,0.1l0.4,0.4c0.4-0.7,0.7-1.3,1-2c0.1-0.3,0.2-0.6,0.3-0.9
				c0.5,0.2,1,0.4,1.5,0.7c0.2,0.1,0.2,0.2,0.2,0.3c0,0.1-0.1,0.2-0.2,0.2c-0.1,0.1-0.2,0.2-0.3,0.4c-0.5,1-1,1.8-1.5,2.5l0.8,0.9
				c0.6-0.9,1-1.6,1.2-2c0.2-0.4,0.4-0.8,0.5-1.1c0.8,0.3,1.3,0.5,1.5,0.7c0.1,0.1,0.2,0.2,0.2,0.3c0,0.1-0.1,0.2-0.2,0.3
				c-0.1,0.1-0.3,0.3-0.6,0.7c-0.9,1.4-1.8,2.8-2.8,4c0.9-0.1,1.7-0.1,2.1-0.1c-0.1-0.4-0.3-0.8-0.5-1.3c0-0.1,0-0.1,0-0.1
				c0-0.1,0.1-0.1,0.2-0.2l0.8-0.3c0.1,0,0.1,0,0.1,0c0.1,0,0.1,0.1,0.2,0.2c0.4,1,0.8,2,1.1,3.2c0,0,0,0.1,0,0.1c0,0,0,0.1-0.1,0.1
				c0.1,0,0.5,0,1,0h0.7c0.2,0,0.3,0,0.3-0.1c0.1,0,0.2-0.1,0.2-0.1c0.1,0,0.3,0.2,0.6,0.5c0.2,0.2,0.4,0.4,0.5,0.5v-2.1h-0.8
				l-2.2,0c-0.1,0-0.1,0-0.2,0s0-0.1,0-0.2l0-1.7v-2.7l0-1.7c0-0.1,0-0.2,0-0.2c0,0,0.1,0,0.2,0l2.2,0h0.4c0.1-0.3,0.2-0.6,0.3-0.8
				c0.1-0.3,0.1-0.7,0.2-1c0.6,0,1.2,0.1,1.7,0.2c0.2,0,0.3,0.1,0.3,0.2c0,0.1,0,0.2-0.1,0.3c-0.1,0.1-0.2,0.2-0.3,0.4
				c-0.1,0.2-0.2,0.4-0.3,0.7h1.1l2.2,0c0.1,0,0.1,0,0.2,0c0,0,0,0.1,0,0.2l0,1.7v2.7l0,1.7c0,0.1,0,0.2,0,0.2s-0.1,0-0.2,0l-2.2,0
				h-0.9c0.3,0.9,0.6,1.7,1,2.3c0.5-0.4,0.9-0.8,1.3-1.3c0.3-0.3,0.5-0.6,0.7-0.8c0.4,0.3,0.8,0.6,1,0.8c0.1,0.1,0.2,0.3,0.2,0.4
				c0,0.1-0.1,0.2-0.2,0.3c-0.2,0.1-0.4,0.3-0.7,0.5c-0.3,0.3-0.8,0.8-1.5,1.3c0.7,0.8,1.6,1.6,2.8,2.4c-0.3,0.3-0.6,0.7-0.8,1.2
				c-0.1,0.2-0.2,0.4-0.3,0.4s-0.2-0.1-0.4-0.3c-1.4-1.3-2.4-2.7-3.1-4.2c0.1,1.9,0.1,3.1,0.1,3.5c0,0.7-0.2,1.2-0.7,1.5
				c-0.4,0.2-1,0.3-1.8,0.3c-0.3,0-0.5,0-0.5-0.1c-0.1-0.1-0.1-0.2-0.2-0.5c-0.1-0.5-0.3-0.9-0.5-1.2c0.5,0,0.9,0.1,1.3,0.1
				c0.4,0,0.7-0.2,0.7-0.6v-3.8c0,0-0.1,0.1-0.2,0.2c-0.1,0.1-0.3,0.3-0.4,0.6c-0.6,1.6-1.5,3-2.8,4.2c-0.2,0.2-0.3,0.3-0.4,0.3
				c-0.1,0-0.2-0.1-0.4-0.4C2438-24.7,2437.7-24.9,2437.3-25.2z M2431.8-25c0.4-1,0.7-2.1,0.7-3.2c0-0.3,0-0.6,0-0.8
				c0-0.1,0-0.2,0-0.3c0.6,0.1,1.1,0.2,1.4,0.3c0.2,0.1,0.3,0.1,0.3,0.2c0,0.1,0,0.2-0.1,0.3c-0.1,0.1-0.1,0.3-0.1,0.7
				c-0.2,1.5-0.4,2.5-0.6,3.2c-0.1,0.3-0.2,0.4-0.2,0.4c-0.1,0-0.2-0.1-0.4-0.2C2432.4-24.8,2432.1-24.9,2431.8-25z M2437.6-29.6
				c0.1,0,0.1,0,0.2,0c0,0,0.1,0.1,0.1,0.2c0.3,0.8,0.5,1.6,0.6,2.6c0,0.1,0,0.1,0,0.1c0,0.1-0.1,0.1-0.2,0.2l-0.9,0.3
				c-0.1,0-0.2,0.1-0.2,0.1c-0.1,0-0.1-0.1-0.1-0.2c-0.1-0.8-0.3-1.8-0.5-2.7c0-0.1,0-0.1,0-0.1c0-0.1,0.1-0.1,0.2-0.1L2437.6-29.6z
				 M2441-36.7v1.1h4.5v-1.1H2441z M2445.5-33.1v-1.2h-4.5v1.2H2445.5z"/>
		</g>
		<g class="st4">
			<path class="st1" d="M2322.3,65.3l-2.2,0c-0.1,0-0.2-0.1-0.2-0.2v-1.3c0-0.1,0.1-0.2,0.2-0.2l2.2,0h1.3v-6.9h-0.5l-2.4,0
				c-0.1,0-0.1,0-0.2,0s0-0.1,0-0.2v-1.2c0-0.1,0-0.2,0-0.2c0,0,0.1,0,0.2,0l2.4,0h0.5v-0.4c0-0.9,0-1.5-0.1-1.9
				c0.8,0,1.4,0.1,1.9,0.1c0.2,0,0.2,0.1,0.2,0.2c0,0.1,0,0.2-0.1,0.3c-0.1,0.2-0.1,0.6-0.1,1.3v0.4h5.1v-0.4c0-0.9,0-1.5-0.1-1.9
				c0.8,0,1.4,0.1,1.9,0.1c0.2,0,0.2,0.1,0.2,0.2c0,0,0,0.1,0,0.2c0,0.1,0,0.1,0,0.2c-0.1,0.2-0.1,0.6-0.1,1.3v0.4h0.6l2.4,0
				c0.1,0,0.1,0,0.2,0c0,0,0,0.1,0,0.2v1.2c0,0.1,0,0.1,0,0.2s-0.1,0-0.2,0l-2.4,0h-0.6v6.9h1.4l2.2,0c0.1,0,0.2,0.1,0.2,0.2v1.3
				c0,0.1-0.1,0.2-0.2,0.2l-2.2,0H2322.3z M2325.1,65.4c0.5,0.2,0.9,0.5,1.4,0.8c0.2,0.1,0.3,0.2,0.3,0.3c0,0.1-0.1,0.2-0.3,0.3
				c-0.1,0-0.3,0.2-0.7,0.4c-1.1,0.9-2.4,1.6-3.8,2.1c-0.2,0.1-0.3,0.1-0.4,0.1c-0.1,0-0.2-0.1-0.4-0.4c-0.3-0.4-0.6-0.8-0.9-1.1
				c1.6-0.5,2.9-1.1,4-1.8C2324.5,65.9,2324.8,65.7,2325.1,65.4z M2325.4,58.1h5.1v-1.3h-5.1V58.1z M2325.4,60.9h5.1v-1.3h-5.1V60.9
				z M2325.4,63.7h5.1v-1.4h-5.1V63.7z M2335.7,67.8c-0.3,0.3-0.6,0.7-0.8,1.1c-0.2,0.3-0.3,0.4-0.4,0.4c-0.1,0-0.2,0-0.4-0.1
				c-1.7-0.5-3.2-1.4-4.5-2.7c-0.1-0.1-0.1-0.1-0.1-0.1c0-0.1,0.1-0.1,0.2-0.2l1.1-0.6c0.1-0.1,0.2-0.1,0.2-0.1c0,0,0.1,0,0.2,0.1
				C2332.2,66.6,2333.8,67.3,2335.7,67.8z"/>
			<path class="st1" d="M2337.5,60.1c1.5-1.6,2.7-3.5,3.5-5.8c0.1-0.3,0.2-0.8,0.3-1.3c0.9,0.2,1.4,0.4,1.7,0.5
				c0.2,0.1,0.3,0.2,0.3,0.3c0,0.1-0.1,0.2-0.2,0.3c-0.1,0.1-0.2,0.3-0.4,0.7c-0.2,0.7-0.6,1.5-1,2.4v9.2l0,2.7
				c0,0.1-0.1,0.2-0.2,0.2h-1.5c-0.1,0-0.2-0.1-0.2-0.2l0-2.7v-4.1c0-0.9,0-1.6,0-2.1c-0.4,0.5-0.8,1-1.1,1.4
				c-0.1,0.2-0.2,0.2-0.3,0.2c-0.1,0-0.2-0.1-0.2-0.3C2338,60.9,2337.8,60.4,2337.5,60.1z M2352.4,64.5c0.4,0.2,0.9,0.4,1.4,0.6
				c0.2,0.1,0.3,0.1,0.4,0.1c0,0,0.1,0.1,0.1,0.2c0,0,0,0.1,0,0.2c-0.1,1.4-0.5,2.3-1,2.7c-0.4,0.3-1,0.5-1.8,0.6
				c-0.7,0.1-1.6,0.1-2.9,0.1c-1.9,0-3.1-0.1-3.6-0.3c-0.7-0.3-1.1-0.9-1.1-1.8v-5.8l-1.2,0.4c-0.1,0-0.1,0-0.1,0
				c-0.1,0-0.1-0.1-0.1-0.2l-0.3-1.3c0-0.1,0-0.1,0-0.1c0,0,0.1-0.1,0.2-0.1c0.4-0.1,0.9-0.2,1.5-0.4v-2.2c0-0.8,0-1.5-0.1-2.1
				c0.6,0,1.2,0,1.8,0.1c0.2,0,0.3,0.1,0.3,0.2c0,0.1,0,0.2-0.1,0.3c-0.1,0.1-0.1,0.5-0.1,1v2l1.8-0.6v-2.4c0-1.1,0-1.9-0.1-2.5
				c0.7,0,1.3,0.1,1.9,0.1c0.2,0,0.3,0.1,0.3,0.2c0,0.1,0,0.2-0.1,0.4c-0.1,0.2-0.1,0.9-0.1,2v1.7l1.4-0.4c0.7-0.2,1.3-0.4,1.8-0.6
				c0.1,0,0.2-0.1,0.4-0.1c0.1,0,0.1,0,0.1,0s0,0,0,0c0.1,0,0.2,0.1,0.2,0.2l0,1.6c-0.1,2.4-0.2,4-0.4,4.8c-0.2,0.8-0.8,1.3-1.6,1.3
				c-0.2,0-0.5,0-0.8-0.1c-0.2,0-0.3-0.1-0.4-0.1c0-0.1-0.1-0.2-0.1-0.5c-0.1-0.5-0.2-0.8-0.4-1.2c0.4,0.1,0.7,0.1,1,0.1
				c0.3,0,0.5-0.2,0.6-0.7c0.1-0.7,0.2-1.8,0.2-3.3l-2.1,0.7v3l0,2.7c0,0.1,0,0.2,0,0.2c0,0-0.1,0-0.2,0h-1.5c-0.1,0-0.2,0-0.2,0
				c0,0,0-0.1,0-0.2l0-2.7V60l-1.8,0.6v5.7c0,0.5,0.2,0.8,0.6,0.9c0.3,0.1,1.2,0.1,2.5,0.1c1.6,0,2.6-0.2,3-0.5
				C2352.1,66.5,2352.3,65.7,2352.4,64.5z"/>
			<path class="st1" d="M2363.3,66.3l-2.5,0c-0.1,0-0.2,0-0.2,0c0,0,0-0.1,0-0.2v-1.2c-0.9,0.5-2,0.9-3.3,1.4
				c-0.3,0.1-0.5,0.2-0.6,0.3c-0.1,0.1-0.2,0.2-0.3,0.2c-0.1,0-0.2-0.1-0.3-0.2c-0.2-0.4-0.3-1-0.5-1.6c0.6-0.1,1.2-0.2,1.8-0.4
				l0.3-0.1v-5.1h-0.1l-1.6,0c-0.1,0-0.2-0.1-0.2-0.2v-1.4c0-0.1,0.1-0.2,0.2-0.2l1.6,0h0.1V56c0-1,0-1.9-0.1-2.7
				c0.7,0,1.3,0.1,1.9,0.1c0.2,0,0.3,0.1,0.3,0.2s0,0.2-0.1,0.4c-0.1,0.2-0.1,0.9-0.1,2v1.6l1.5,0c0.1,0,0.2,0,0.2,0
				c0,0,0,0.1,0,0.2v1.4c0,0.1,0,0.1,0,0.2s-0.1,0-0.2,0l-1.5,0v4.4c0.5-0.2,1-0.5,1.8-0.9c0,0.3,0,0.5,0,0.6c0,0.2,0,0.3,0,0.5
				c0,0.2,0,0.3,0,0.3c0,0.1,0,0.2-0.1,0.3c-0.1,0.1-0.2,0.1-0.4,0.3l0,0h0l2.5,0h6.3l2.5,0c0.1,0,0.2,0.1,0.2,0.2v1.1
				c0,0.1-0.1,0.2-0.2,0.2l-2.5,0H2363.3z M2364,66.3c0.5,0.3,0.9,0.5,1.2,0.8c0.2,0.1,0.2,0.2,0.2,0.3c0,0.1-0.1,0.2-0.2,0.2
				c-0.2,0-0.4,0.1-0.6,0.3c-1,0.7-2,1.2-3.2,1.5c-0.2,0.1-0.3,0.1-0.4,0.1c-0.1,0-0.3-0.1-0.4-0.4c-0.2-0.4-0.5-0.7-0.8-1
				c1.3-0.3,2.5-0.7,3.5-1.2C2363.5,66.7,2363.8,66.5,2364,66.3z M2363.6,55.9l-2.5,0c-0.1,0-0.2,0-0.2,0c0,0,0-0.1,0-0.2v-1.1
				c0-0.1,0-0.1,0-0.2c0,0,0.1,0,0.2,0l2.5,0h1.8v-0.3c0-0.5,0-1-0.1-1.3c0.8,0,1.4,0.1,1.9,0.1c0.2,0,0.3,0.1,0.3,0.2
				c0,0.1,0,0.2-0.1,0.3c-0.1,0.1-0.1,0.4-0.1,0.7v0.3h2.2l2.5,0c0.1,0,0.1,0,0.2,0s0,0.1,0,0.2v1.1c0,0.1,0,0.2,0,0.2
				c0,0-0.1,0-0.2,0l-2.5,0h-2.2v0.9h1.1l2.3,0c0.1,0,0.2,0,0.2,0c0,0,0,0.1,0,0.2l0,1.8v3.3l0,1.7c0,0.1-0.1,0.2-0.2,0.2l-2.3,0
				h-3.7l-2.3,0c-0.1,0-0.2-0.1-0.2-0.2l0-1.7v-3.3l0-1.8c0-0.1,0-0.2,0-0.2s0.1,0,0.2,0l2.3,0h0.8v-0.9H2363.6z M2369,58.1h-5.1
				v0.9h5.1V58.1z M2363.9,60.8h5.1V60h-5.1V60.8z M2369,62.7v-0.8h-5.1v0.8H2369z M2368.7,66.4c1,0.6,2.2,1.1,3.8,1.5
				c-0.2,0.2-0.5,0.5-0.7,1c-0.2,0.3-0.3,0.4-0.4,0.4c-0.1,0-0.2,0-0.4-0.1c-1.2-0.4-2.3-1-3.5-1.8c-0.1-0.1-0.1-0.1-0.1-0.1
				c0-0.1,0-0.1,0.1-0.2l0.8-0.7c0.1-0.1,0.1-0.1,0.2-0.1C2368.5,66.3,2368.6,66.4,2368.7,66.4z"/>
			<path class="st1" d="M2374.9,57.8c1.1,0.6,1.9,1.2,2.6,1.8c0.1,0.1,0.1,0.1,0.1,0.2c0,0,0,0.1-0.1,0.2l-0.8,1.1
				c-0.1,0.1-0.2,0.2-0.2,0.2c0,0-0.1,0-0.2-0.1c-0.7-0.7-1.6-1.4-2.5-2c-0.1,0-0.1-0.1-0.1-0.1c0,0,0-0.1,0.1-0.2l0.8-0.9
				c0.1-0.1,0.1-0.1,0.2-0.1C2374.8,57.7,2374.8,57.7,2374.9,57.8z M2373.7,68.2c0.3-0.5,0.6-0.9,0.8-1.4c0.7-1.4,1.2-2.8,1.5-4.4
				c0.4,0.4,0.7,0.6,1,0.9c0.3,0.2,0.4,0.3,0.4,0.5c0,0.1,0,0.2-0.1,0.4c-0.3,1.1-0.8,2.5-1.5,4.1c-0.2,0.3-0.2,0.6-0.2,0.7
				c0,0.2-0.1,0.3-0.2,0.3c-0.1,0-0.2,0-0.4-0.1C2374.7,69,2374.2,68.6,2373.7,68.2z M2375.7,53.3c0.8,0.4,1.6,1.1,2.5,1.9
				c0.1,0.1,0.1,0.1,0.1,0.1s0,0.1-0.1,0.2l-0.8,1.1c-0.1,0.1-0.1,0.2-0.2,0.2c0,0-0.1,0-0.2-0.1c-0.8-0.9-1.7-1.6-2.5-2
				c-0.1,0-0.1-0.1-0.1-0.1c0,0,0-0.1,0.1-0.2l0.8-0.9c0.1-0.1,0.1-0.1,0.2-0.1C2375.5,53.2,2375.6,53.2,2375.7,53.3z M2377.3,58.1
				c1.2-1.1,2.1-2.4,2.6-3.9c0.2-0.5,0.3-1,0.3-1.4c0.6,0.1,1.2,0.2,1.7,0.3c0.2,0.1,0.3,0.1,0.3,0.3c0,0.1-0.1,0.2-0.2,0.3
				c-0.2,0.2-0.3,0.4-0.4,0.6c-0.1,0.2-0.2,0.4-0.2,0.6h5.9l2.4,0c0.1,0,0.2,0,0.2,0s0,0.1,0,0.1v1.3c0,0.1,0,0.2,0,0.2
				c0,0-0.1,0-0.2,0l-2.4,0h-6.7c-0.2,0.3-0.4,0.7-0.7,1.1l2.3,0h3.9l2.3,0c0.1,0,0.2,0.1,0.2,0.2c0,0.6-0.1,1.1-0.1,1.5l-0.1,2
				l1.5,0c0.1,0,0.2,0,0.2,0c0,0,0,0.1,0,0.2v1.3c0,0.1,0,0.1,0,0.2c0,0-0.1,0-0.2,0c0,0-0.1,0-0.2,0c-0.4,0-0.9,0-1.4,0
				c0,0.6-0.1,1.4-0.2,2.3l1.3,0c0.1,0,0.2,0,0.2,0c0,0,0,0.1,0,0.2v1.2c0,0.1,0,0.1,0,0.2s-0.1,0-0.2,0c0,0-0.1,0-0.2,0
				c-0.4,0-0.8,0-1.3,0l0,0.4c-0.1,0.8-0.4,1.4-0.8,1.7c-0.4,0.3-0.9,0.5-1.6,0.5c-0.5,0-0.8,0-1,0s-0.2,0-0.3-0.1
				c0-0.1-0.1-0.2-0.2-0.5c-0.2-0.5-0.3-0.9-0.5-1.2c0.5,0.1,1,0.1,1.7,0.1c0.5,0,0.8-0.3,0.9-0.9h-6c-0.1,0.4-0.2,0.7-0.2,1
				c0,0.2-0.1,0.3-0.3,0.3c-0.1,0-0.3,0-0.7-0.1c-0.4-0.1-0.6-0.1-0.7-0.1c-0.1,0-0.2-0.1-0.2-0.1c0,0,0-0.1,0-0.2
				c0.2-0.5,0.3-0.9,0.4-1.4c0.3-1.1,0.5-2.1,0.6-3.2c-0.4,0-0.8,0-1.2,0c-0.2,0-0.4,0-0.4,0c-0.1,0-0.2,0-0.2,0c0,0,0-0.1,0-0.2
				v-1.3c0-0.1,0-0.1,0-0.2c0,0,0.1,0,0.2,0l1.7,0c0.1-0.5,0.2-1.3,0.2-2.3c0-0.4,0.1-0.8,0.1-1.2c-0.2,0.3-0.5,0.7-0.8,1.1
				c-0.2,0.2-0.3,0.3-0.4,0.3c-0.1,0-0.2-0.1-0.4-0.3C2378,58.6,2377.7,58.3,2377.3,58.1z M2380.6,65.3h2c0.1-0.5,0.2-1.3,0.3-2.3
				h-1.9C2380.9,63.7,2380.7,64.5,2380.6,65.3z M2381.4,59.2c-0.1,0.7-0.1,1.4-0.2,2.2h1.9c0-0.5,0.1-1.2,0.1-2.2H2381.4z
				 M2386.7,62.9h-2.1c-0.1,1-0.2,1.8-0.3,2.3h2.2C2386.6,64.7,2386.6,64,2386.7,62.9z M2386.9,59.2h-2l-0.2,2.2h2.1
				C2386.9,60.3,2386.9,59.6,2386.9,59.2z"/>
			<path class="st1" d="M2394.5,55.3v11.8h10.8l2.4,0c0.1,0,0.2,0,0.2,0c0,0,0,0.1,0,0.2v1.3c0,0.1,0,0.1,0,0.2c0,0-0.1,0-0.2,0
				l-2.4,0h-10.8v0.5c0,0.1,0,0.2,0,0.2s-0.1,0-0.2,0h-1.5c-0.1,0-0.1,0-0.2,0c0,0,0-0.1,0-0.2l0-3.8v-7.8l0-3.8c0-0.1,0-0.2,0-0.2
				s0.1,0,0.2,0l2.4,0h10.1l2.3,0c0.1,0,0.1,0,0.2,0s0,0.1,0,0.2v1.4c0,0.1-0.1,0.2-0.2,0.2l-2.3,0H2394.5z M2399,61.4l1.6,0
				c0.1,0,0.1,0,0.2,0s0,0.1,0,0.2l0,1.4v1.5l0,1.4c0,0.1-0.1,0.2-0.2,0.2l-1.6,0h-1.6l-1.6,0c-0.1,0-0.2,0-0.2,0c0,0,0-0.1,0-0.1
				l0-1.4v-1.5l0-1.4c0-0.1,0-0.1,0-0.2c0,0,0.1,0,0.2,0l1.6,0H2399z M2397.1,62.7v2h2.2v-2H2397.1z M2402.6,56.4l2.1,0
				c0.1,0,0.2,0.1,0.2,0.2l0,1.2V59l0,1.3c0,0.1-0.1,0.2-0.2,0.2l-2.1,0h-2.9l-2,0c-0.1,0-0.2,0-0.2,0c0,0,0-0.1,0-0.2l0-1.3v-1.2
				l0-1.2c0-0.1,0-0.2,0-0.2c0,0,0.1,0,0.2,0l2,0H2402.6z M2403.1,59.1v-1.4h-4v1.4H2403.1z M2405.2,61.4l1.6,0c0.1,0,0.2,0,0.2,0
				c0,0,0,0.1,0,0.2l0,1.4v1.5l0,1.4c0,0.1,0,0.1,0,0.1s-0.1,0-0.2,0l-1.6,0h-1.6l-1.6,0c-0.1,0-0.2-0.1-0.2-0.2l0-1.4v-1.5l0-1.4
				c0-0.1,0-0.1,0-0.2s0.1,0,0.2,0l1.6,0H2405.2z M2405.5,64.7v-2h-2.2v2H2405.5z"/>
			<path class="st1" d="M2420.4,64c-0.1,0.5-0.1,0.8-0.1,1.1c0,0.3,0,0.5-0.1,0.6c-0.1,0.1-0.2,0.1-0.5,0.2c-1,0.4-2.4,0.7-4.1,1.2
				l-0.7,0.2c-0.2,0.1-0.3,0.1-0.4,0.1c-0.1,0-0.2-0.1-0.3-0.3c-0.1-0.5-0.3-1-0.4-1.6c-0.6,0.3-1.5,0.6-2.8,1
				c-0.3,0.1-0.5,0.2-0.5,0.3c-0.1,0.1-0.2,0.1-0.3,0.1c-0.1,0-0.2-0.1-0.2-0.2c-0.1-0.5-0.3-1-0.4-1.6c0.5-0.1,1-0.2,1.6-0.3
				l0.4-0.1v-5.3h0l-1.6,0c-0.1,0-0.2-0.1-0.2-0.2v-1.3c0-0.1,0-0.2,0-0.2c0,0,0.1,0,0.1,0l1.6,0V56c0-1.1,0-2-0.1-2.7
				c0.7,0,1.3,0.1,1.9,0.1c0.2,0,0.3,0.1,0.3,0.2c0,0.1,0,0.2-0.1,0.4c-0.1,0.2-0.1,0.9-0.1,2v1.7l1.3,0c0.1,0,0.1,0,0.2,0
				c0,0,0,0.1,0,0.2v1.3c0,0.1,0,0.2,0,0.2s-0.1,0-0.2,0c0,0-0.1,0-0.4,0c-0.3,0-0.6,0-0.9,0V64c0.6-0.2,1.1-0.5,1.6-0.7
				c0,0.3-0.1,0.7-0.1,1.1c0,0.3,0,0.5-0.1,0.6c0,0.1-0.2,0.2-0.4,0.3c-0.2,0.1-0.3,0.2-0.4,0.2c0.6,0,1.2-0.1,1.9-0.2
				C2417.6,64.9,2419.2,64.4,2420.4,64z M2416.9,68.2c2-1,3.5-2.2,4.7-3.6c-0.5-1.8-0.8-4.2-0.9-7.1h-3.2l-2.5,0c-0.1,0-0.1,0-0.2,0
				c0,0,0-0.1,0-0.2V56c0-0.1,0-0.1,0-0.2s0.1,0,0.2,0l2.5,0h3.1v-0.2c0-1.1-0.1-1.9-0.1-2.6c0.7,0,1.3,0.1,1.8,0.1
				c0.2,0,0.3,0.1,0.3,0.2c0,0.1,0,0.2-0.1,0.4c-0.1,0.2-0.1,0.6-0.1,1.2v0.8h1l2.5,0c0.1,0,0.2,0,0.2,0c0,0,0,0.1,0,0.2v1.3
				c0,0.1,0,0.2,0,0.2c0,0-0.1,0-0.2,0l-2.5,0h-1c0.1,2,0.2,3.7,0.5,5.1c0.3-0.6,0.5-1.2,0.7-2c0.2-0.7,0.3-1.3,0.3-1.8
				c0.5,0.1,1,0.3,1.5,0.5c0.2,0.1,0.3,0.2,0.3,0.3c0,0.1-0.1,0.2-0.2,0.3c-0.1,0.1-0.2,0.4-0.4,1c-0.5,1.5-1.1,2.8-1.8,4
				c0.2,0.8,0.5,1.4,0.7,1.8c0.2,0.3,0.3,0.4,0.4,0.4c0.3,0,0.4-0.8,0.5-2.3c0.2,0.2,0.5,0.4,0.9,0.7c0.2,0.1,0.3,0.2,0.4,0.2
				c0.1,0,0.1,0.1,0.1,0.2c0,0,0,0.1,0,0.3c-0.1,1.2-0.4,2.1-0.7,2.5c-0.3,0.4-0.7,0.5-1.2,0.5c-0.9,0-1.7-0.9-2.4-2.8
				c-0.9,1-2,1.9-3.4,2.7c-0.3,0.1-0.4,0.2-0.5,0.2c-0.1,0-0.2-0.1-0.4-0.3C2417.6,68.7,2417.3,68.4,2416.9,68.2z M2418.4,58.8
				l1.4,0c0.1,0,0.2,0,0.2,0c0,0,0,0.1,0,0.2l0,1.4V62l0,1.4c0,0.1,0,0.2,0,0.2c0,0-0.1,0-0.2,0l-1.4,0h-1.4l-1.4,0
				c-0.1,0-0.2,0-0.2,0s0-0.1,0-0.2l0-1.4v-1.6l0-1.4c0-0.1,0-0.2,0-0.2s0.1,0,0.2,0l1.4,0H2418.4z M2418.5,62.1v-1.9h-1.6v1.9
				H2418.5z M2424.4,53.3c0.4,0.5,0.7,0.9,1,1.5c0,0.1,0,0.1,0,0.1c0,0.1-0.1,0.1-0.2,0.2l-0.8,0.4c-0.1,0.1-0.2,0.1-0.2,0.1
				c0,0-0.1-0.1-0.1-0.2c-0.3-0.6-0.6-1.1-1-1.5c0-0.1-0.1-0.1-0.1-0.1c0-0.1,0.1-0.1,0.2-0.2l0.8-0.3c0.1,0,0.1,0,0.2,0
				C2424.3,53.2,2424.4,53.2,2424.4,53.3z"/>
		</g>
		<line id="Line_75" class="st10" x1="2285.5" y1="-31.5" x2="2311.5" y2="-31.5"/>
		<g class="st4">
			<path class="st1" d="M2328.1,18.7V21h-8.7c0.1-0.9,0.4-1.7,0.8-2.5s1.4-1.8,2.8-3.1c1.1-1,1.8-1.7,2-2.1c0.3-0.5,0.5-1,0.5-1.5
				c0-0.6-0.1-1-0.4-1.3s-0.7-0.4-1.2-0.4c-0.5,0-0.9,0.2-1.2,0.5s-0.5,0.8-0.5,1.5l-2.5-0.2c0.1-1.4,0.6-2.3,1.4-2.9
				s1.7-0.9,2.9-0.9c1.3,0,2.3,0.3,3,1s1.1,1.5,1.1,2.6c0,0.6-0.1,1.1-0.3,1.7c-0.2,0.5-0.5,1.1-1,1.6c-0.3,0.4-0.8,0.9-1.6,1.6
				s-1.3,1.2-1.5,1.4s-0.4,0.5-0.5,0.7H2328.1z"/>
			<path class="st1" d="M2334,8.1c1.2,0,2.2,0.4,2.9,1.3c0.8,1.1,1.3,2.8,1.3,5.2c0,2.4-0.4,4.2-1.3,5.3c-0.7,0.9-1.7,1.3-2.9,1.3
				c-1.3,0-2.3-0.5-3-1.4c-0.8-1-1.2-2.7-1.2-5.2c0-2.4,0.4-4.2,1.3-5.2C2331.7,8.5,2332.7,8.1,2334,8.1z M2334,10.1
				c-0.3,0-0.6,0.1-0.8,0.3s-0.4,0.5-0.5,1c-0.2,0.6-0.3,1.7-0.3,3.2s0.1,2.6,0.2,3.1s0.3,0.9,0.6,1.1s0.5,0.3,0.8,0.3
				s0.6-0.1,0.8-0.3s0.4-0.5,0.5-1c0.2-0.6,0.3-1.7,0.3-3.2s-0.1-2.5-0.2-3.1c-0.2-0.6-0.3-0.9-0.6-1.1S2334.2,10.1,2334,10.1z"/>
			<path class="st1" d="M2346.1,21h-2.5v-9.3c-0.9,0.8-2,1.5-3.2,1.9v-2.2c0.6-0.2,1.3-0.6,2.1-1.2c0.8-0.6,1.3-1.3,1.6-2.1h2V21z"
				/>
			<path class="st1" d="M2349.8,18l2.4-0.3c0.1,0.5,0.2,0.8,0.5,1.1s0.6,0.4,1,0.4c0.5,0,0.9-0.2,1.3-0.7s0.6-1.4,0.7-2.9
				c-0.6,0.7-1.4,1.1-2.3,1.1c-1,0-1.9-0.4-2.6-1.2c-0.7-0.8-1.1-1.8-1.1-3.1c0-1.3,0.4-2.4,1.2-3.2c0.8-0.8,1.8-1.2,3-1.2
				c1.3,0,2.4,0.5,3.2,1.5c0.8,1,1.3,2.7,1.3,5c0,2.4-0.4,4.1-1.3,5.1s-2,1.6-3.4,1.6c-1,0-1.8-0.3-2.4-0.8
				C2350.4,19.9,2350,19.1,2349.8,18z M2355.4,12.6c0-0.8-0.2-1.4-0.5-1.9c-0.4-0.4-0.8-0.7-1.3-0.7c-0.5,0-0.8,0.2-1.1,0.5
				c-0.3,0.4-0.5,1-0.5,1.8c0,0.8,0.2,1.4,0.5,1.8c0.3,0.4,0.7,0.6,1.2,0.6c0.5,0,0.9-0.2,1.2-0.6
				C2355.3,13.9,2355.4,13.4,2355.4,12.6z"/>
		</g>
		<g class="st4">
			<path class="st1" d="M2362.4,18.8l-2.3,0c-0.1,0-0.2,0-0.2,0s0-0.1,0-0.2v-1.4c0-0.1,0.1-0.2,0.2-0.2l2.3,0h0.4v-2.5l0-1.6
				c0-0.1,0-0.1,0-0.2s0.1,0,0.2,0l2.5,0h2.3v-2.4h-3.7c-0.6,0.9-1.3,1.8-2.1,2.6c-0.2,0.2-0.3,0.3-0.4,0.3c-0.1,0-0.2-0.1-0.4-0.3
				c-0.3-0.4-0.6-0.7-1-1c1.4-1.2,2.6-2.7,3.3-4.4c0.2-0.5,0.4-0.9,0.5-1.3c0.8,0.2,1.3,0.3,1.7,0.4c0.2,0.1,0.3,0.2,0.3,0.3
				c0,0.1-0.1,0.2-0.2,0.3c-0.2,0.1-0.3,0.4-0.5,0.7l-0.4,0.8h7.4l2.5,0c0.1,0,0.1,0,0.2,0s0,0.1,0,0.2v1.3c0,0.1,0,0.1,0,0.2
				s-0.1,0-0.2,0l-2.5,0h-2.8v2.4h1.9l2.5,0c0.1,0,0.2,0.1,0.2,0.2v1.4c0,0.1-0.1,0.2-0.2,0.2l-2.5,0h-1.9v2.6h3.8l2.3,0
				c0.1,0,0.2,0.1,0.2,0.2v1.4c0,0.1,0,0.1,0,0.2c0,0-0.1,0-0.2,0l-2.3,0h-3.8v0.9l0,2.9c0,0.1,0,0.2,0,0.2c0,0-0.1,0-0.2,0h-1.6
				c-0.1,0-0.2,0-0.2,0c0,0,0-0.1,0-0.2l0-2.9v-0.9H2362.4z M2364.8,17.1h3v-2.6h-3V17.1z"/>
			<path class="st1" d="M2378.9,11.2c1.1,0.6,1.9,1.2,2.6,1.8c0.1,0.1,0.1,0.1,0.1,0.2c0,0,0,0.1-0.1,0.2l-0.8,1.1
				c-0.1,0.1-0.2,0.2-0.2,0.2c0,0-0.1,0-0.2-0.1c-0.7-0.7-1.6-1.4-2.5-2c-0.1,0-0.1-0.1-0.1-0.1c0,0,0-0.1,0.1-0.2l0.8-0.9
				c0.1-0.1,0.1-0.1,0.2-0.1C2378.8,11.1,2378.9,11.1,2378.9,11.2z M2377.7,21.6c0.3-0.5,0.6-0.9,0.8-1.4c0.7-1.4,1.2-2.8,1.5-4.4
				c0.4,0.4,0.7,0.6,1,0.9c0.3,0.2,0.4,0.3,0.4,0.5c0,0.1,0,0.2-0.1,0.4c-0.3,1.1-0.8,2.5-1.5,4.1c-0.2,0.3-0.2,0.6-0.2,0.7
				c0,0.2-0.1,0.3-0.2,0.3c-0.1,0-0.2,0-0.4-0.1C2378.7,22.4,2378.3,22,2377.7,21.6z M2379.7,6.7c0.8,0.4,1.6,1.1,2.5,1.9
				c0.1,0.1,0.1,0.1,0.1,0.1s0,0.1-0.1,0.2l-0.8,1.1c-0.1,0.1-0.1,0.2-0.2,0.2c0,0-0.1,0-0.2-0.1c-0.8-0.9-1.7-1.6-2.5-2
				c-0.1,0-0.1-0.1-0.1-0.1c0,0,0-0.1,0.1-0.2l0.8-0.9c0.1-0.1,0.1-0.1,0.2-0.1C2379.6,6.6,2379.6,6.6,2379.7,6.7z M2381.3,11.5
				c1.2-1.1,2.1-2.4,2.6-3.9c0.2-0.5,0.3-1,0.3-1.4c0.6,0.1,1.2,0.2,1.7,0.3c0.2,0.1,0.3,0.1,0.3,0.3c0,0.1-0.1,0.2-0.2,0.3
				c-0.2,0.2-0.3,0.4-0.4,0.6c-0.1,0.2-0.2,0.4-0.2,0.6h5.9l2.4,0c0.1,0,0.2,0,0.2,0s0,0.1,0,0.1v1.3c0,0.1,0,0.2,0,0.2
				c0,0-0.1,0-0.2,0l-2.4,0h-6.7c-0.2,0.3-0.4,0.7-0.7,1.1l2.3,0h3.9l2.3,0c0.1,0,0.2,0.1,0.2,0.2c0,0.6-0.1,1.1-0.1,1.5l-0.1,2
				l1.5,0c0.1,0,0.2,0,0.2,0c0,0,0,0.1,0,0.2v1.3c0,0.1,0,0.1,0,0.2c0,0-0.1,0-0.2,0c0,0-0.1,0-0.2,0c-0.4,0-0.9,0-1.4,0
				c0,0.6-0.1,1.4-0.2,2.3l1.3,0c0.1,0,0.2,0,0.2,0c0,0,0,0.1,0,0.2V20c0,0.1,0,0.1,0,0.2s-0.1,0-0.2,0c0,0-0.1,0-0.2,0
				c-0.4,0-0.8,0-1.3,0l0,0.4c-0.1,0.8-0.4,1.4-0.8,1.7c-0.4,0.3-0.9,0.5-1.6,0.5c-0.5,0-0.8,0-1,0s-0.2,0-0.3-0.1
				c0-0.1-0.1-0.2-0.2-0.5c-0.2-0.5-0.3-0.9-0.5-1.2c0.5,0.1,1,0.1,1.7,0.1c0.5,0,0.8-0.3,0.9-0.9h-6c-0.1,0.4-0.2,0.7-0.2,1
				c0,0.2-0.1,0.3-0.3,0.3c-0.1,0-0.3,0-0.7-0.1c-0.4-0.1-0.6-0.1-0.7-0.1c-0.1,0-0.2-0.1-0.2-0.1c0,0,0-0.1,0-0.2
				c0.2-0.5,0.3-0.9,0.4-1.4c0.3-1.1,0.5-2.1,0.6-3.2c-0.4,0-0.8,0-1.2,0c-0.2,0-0.4,0-0.4,0c-0.1,0-0.2,0-0.2,0c0,0,0-0.1,0-0.2
				v-1.3c0-0.1,0-0.1,0-0.2c0,0,0.1,0,0.2,0l1.7,0c0.1-0.5,0.2-1.3,0.2-2.3c0-0.4,0.1-0.8,0.1-1.2c-0.2,0.3-0.5,0.7-0.8,1.1
				c-0.2,0.2-0.3,0.3-0.4,0.3c-0.1,0-0.2-0.1-0.4-0.3C2382,12,2381.7,11.7,2381.3,11.5z M2384.6,18.7h2c0.1-0.5,0.2-1.3,0.3-2.3
				h-1.9C2384.9,17.1,2384.8,17.9,2384.6,18.7z M2385.4,12.6c-0.1,0.7-0.1,1.4-0.2,2.2h1.9c0-0.5,0.1-1.2,0.1-2.2H2385.4z
				 M2390.7,16.3h-2.1c-0.1,1-0.2,1.8-0.3,2.3h2.2C2390.6,18.1,2390.7,17.4,2390.7,16.3z M2390.9,12.6h-2l-0.2,2.2h2.1
				C2390.9,13.7,2390.9,13,2390.9,12.6z"/>
			<path class="st1" d="M2399.1,13.2v1c0,1.4-0.1,2.8-0.4,4c-0.3,1.5-0.8,2.8-1.5,4.1c-0.1,0.2-0.2,0.3-0.3,0.3s-0.2-0.1-0.4-0.3
				c-0.4-0.5-0.7-0.8-1.1-1c0.7-1.1,1.2-2.3,1.5-3.7c0.2-0.9,0.3-2.1,0.3-3.9l0-2c0-0.1,0.1-0.2,0.2-0.2l2.5,0h9l2.4,0
				c0.1,0,0.2,0,0.2,0c0,0,0,0.1,0,0.2V13c0,0.1,0,0.2,0,0.2c0,0-0.1,0-0.2,0l-2.4,0H2399.1z M2408.7,7c0.7,0,1.3,0.1,1.8,0.1
				c0.2,0,0.3,0.1,0.3,0.2c0,0.1,0,0.2-0.1,0.3c-0.1,0.1-0.1,0.4-0.1,0.8V9l0,1.2c0,0.1,0,0.2,0,0.2c0,0-0.1,0-0.2,0l-2.5,0h-7.7
				l-2.5,0c-0.1,0-0.1,0-0.2,0c0,0,0-0.1,0-0.2l0-1.2V8.5c0-0.6,0-1.1-0.1-1.4c0.6,0,1.2,0.1,1.8,0.1c0.2,0,0.3,0.1,0.3,0.2
				c0,0,0,0.1-0.1,0.3c-0.1,0.1-0.1,0.4-0.1,0.7v0.5h3.7V8c0-0.7,0-1.3-0.1-1.7c0.7,0,1.3,0.1,1.9,0.1c0.2,0,0.3,0.1,0.3,0.2
				l-0.1,0.3c-0.1,0.2-0.1,0.6-0.1,1.1v0.9h3.9V8.3C2408.8,7.9,2408.8,7.4,2408.7,7z M2402.8,16l-2.4,0c-0.1,0-0.1,0-0.2,0
				s0-0.1,0-0.2v-1.2c0-0.1,0-0.1,0-0.2s0.1,0,0.2,0l2.4,0h5.1l2.4,0c0.1,0,0.2,0,0.2,0s0,0.1,0,0.2v1.2c0,0.1,0,0.1,0,0.2
				c0,0-0.1,0-0.2,0l-2.4,0h-1.9v1.6h3.1l2.5,0c0.1,0,0.1,0,0.2,0s0,0.1,0,0.2v1.3c0,0.1,0,0.2,0,0.2c0,0-0.1,0-0.2,0l-2.5,0h-3.1
				v1.1l0,2.3c0,0.1,0,0.2,0,0.2c0,0-0.1,0-0.2,0h-1.6c-0.1,0-0.1,0-0.2,0c0,0,0-0.1,0-0.2l0-2.3v-1.1h-1.9l-2.5,0
				c-0.1,0-0.2,0-0.2,0c0,0,0-0.1,0-0.2v-1.3c0-0.1,0-0.1,0-0.2c0,0,0.1,0,0.2,0l2.5,0h1.9V16H2402.8z"/>
			<path class="st1" d="M2419.3,20.8c1.4-0.9,2.4-2.2,3-3.8h-0.6l-1.1,0c-0.1,0-0.2,0-0.2,0c0,0,0-0.1,0-0.2v-1.2l-0.6,0.2
				c-0.1,0-0.2,0-0.2,0c-0.1,0-0.1-0.1-0.1-0.2l-0.1-0.5c-0.3,0-0.7,0.1-1.1,0.1v5l0,2.4c0,0.1,0,0.2,0,0.2c0,0-0.1,0-0.2,0h-1.4
				c-0.1,0-0.1,0-0.2,0c0,0,0-0.1,0-0.2l0-2.4v-4.8l-1.4,0.1c-0.3,0-0.5,0.1-0.7,0.1c-0.1,0-0.2,0.1-0.3,0.1c-0.1,0-0.2-0.1-0.2-0.3
				c-0.1-0.5-0.2-1-0.2-1.5c0.4,0,0.9,0.1,1.3,0.1c0.2-0.2,0.5-0.7,1-1.4c-0.6-0.8-1.4-1.7-2.3-2.7c-0.1-0.1-0.1-0.1-0.1-0.2
				c0,0,0-0.1,0.1-0.2l0.7-0.9c0.1-0.1,0.1-0.2,0.2-0.2s0.1,0,0.1,0.1l0.4,0.4c0.4-0.7,0.7-1.3,1-2c0.1-0.3,0.2-0.6,0.3-0.9
				c0.5,0.2,1,0.4,1.5,0.7c0.2,0.1,0.2,0.2,0.2,0.3c0,0.1-0.1,0.2-0.2,0.2c-0.1,0.1-0.2,0.2-0.3,0.4c-0.5,1-1,1.8-1.5,2.5l0.8,0.9
				c0.6-0.9,1-1.6,1.2-2c0.2-0.4,0.4-0.8,0.5-1.1c0.8,0.3,1.3,0.5,1.5,0.7c0.1,0.1,0.2,0.2,0.2,0.3c0,0.1-0.1,0.2-0.2,0.3
				c-0.1,0.1-0.3,0.3-0.6,0.7c-0.9,1.4-1.8,2.8-2.8,4c0.9-0.1,1.7-0.1,2.1-0.1c-0.1-0.4-0.3-0.8-0.5-1.3c0-0.1,0-0.1,0-0.1
				c0-0.1,0.1-0.1,0.2-0.2l0.8-0.3c0.1,0,0.1,0,0.1,0c0.1,0,0.1,0.1,0.2,0.2c0.4,1,0.8,2,1.1,3.2c0,0,0,0.1,0,0.1c0,0,0,0.1-0.1,0.1
				c0.1,0,0.5,0,1,0h0.7c0.2,0,0.3,0,0.3-0.1c0.1,0,0.2-0.1,0.2-0.1c0.1,0,0.3,0.2,0.6,0.5c0.2,0.2,0.4,0.4,0.5,0.5v-2.1h-0.8
				l-2.2,0c-0.1,0-0.1,0-0.2,0s0-0.1,0-0.2l0-1.7V9.8l0-1.7c0-0.1,0-0.2,0-0.2c0,0,0.1,0,0.2,0l2.2,0h0.4c0.1-0.3,0.2-0.6,0.3-0.8
				c0.1-0.3,0.1-0.7,0.2-1c0.6,0,1.2,0.1,1.7,0.2c0.2,0,0.3,0.1,0.3,0.2c0,0.1,0,0.2-0.1,0.3c-0.1,0.1-0.2,0.2-0.3,0.4
				c-0.1,0.2-0.2,0.4-0.3,0.7h1.1l2.2,0c0.1,0,0.1,0,0.2,0c0,0,0,0.1,0,0.2l0,1.7v2.7l0,1.7c0,0.1,0,0.2,0,0.2s-0.1,0-0.2,0l-2.2,0
				h-0.9c0.3,0.9,0.6,1.7,1,2.3c0.5-0.4,0.9-0.8,1.3-1.3c0.3-0.3,0.5-0.6,0.7-0.8c0.4,0.3,0.8,0.6,1,0.8c0.1,0.1,0.2,0.3,0.2,0.4
				c0,0.1-0.1,0.2-0.2,0.3c-0.2,0.1-0.4,0.3-0.7,0.5c-0.3,0.3-0.8,0.8-1.5,1.3c0.7,0.8,1.6,1.6,2.8,2.4c-0.3,0.3-0.6,0.7-0.8,1.2
				c-0.1,0.2-0.2,0.4-0.3,0.4s-0.2-0.1-0.4-0.3c-1.4-1.3-2.4-2.7-3.1-4.2c0.1,1.9,0.1,3.1,0.1,3.5c0,0.7-0.2,1.2-0.7,1.5
				c-0.4,0.2-1,0.3-1.8,0.3c-0.3,0-0.5,0-0.5-0.1c-0.1-0.1-0.1-0.2-0.2-0.5c-0.1-0.5-0.3-0.9-0.5-1.2c0.5,0,0.9,0.1,1.3,0.1
				c0.4,0,0.7-0.2,0.7-0.6v-3.8c0,0-0.1,0.1-0.2,0.2c-0.1,0.1-0.3,0.3-0.4,0.6c-0.6,1.6-1.5,3-2.8,4.2c-0.2,0.2-0.3,0.3-0.4,0.3
				c-0.1,0-0.2-0.1-0.4-0.4C2420,21.3,2419.7,21.1,2419.3,20.8z M2413.8,21c0.4-1,0.7-2.1,0.7-3.2c0-0.3,0-0.6,0-0.8
				c0-0.1,0-0.2,0-0.3c0.6,0.1,1.1,0.2,1.4,0.3c0.2,0.1,0.3,0.1,0.3,0.2c0,0.1,0,0.2-0.1,0.3c-0.1,0.1-0.1,0.3-0.1,0.7
				c-0.2,1.5-0.4,2.5-0.6,3.2c-0.1,0.3-0.2,0.4-0.2,0.4c-0.1,0-0.2-0.1-0.4-0.2C2414.4,21.2,2414.1,21.1,2413.8,21z M2419.6,16.4
				c0.1,0,0.1,0,0.2,0c0,0,0.1,0.1,0.1,0.2c0.3,0.8,0.5,1.6,0.6,2.6c0,0.1,0,0.1,0,0.1c0,0.1-0.1,0.1-0.2,0.2l-0.9,0.3
				c-0.1,0-0.2,0.1-0.2,0.1c-0.1,0-0.1-0.1-0.1-0.2c-0.1-0.8-0.3-1.8-0.5-2.7c0-0.1,0-0.1,0-0.1c0-0.1,0.1-0.1,0.2-0.1L2419.6,16.4z
				 M2423,9.3v1.1h4.5V9.3H2423z M2427.5,12.9v-1.2h-4.5v1.2H2427.5z"/>
		</g>
		<line id="Line_92" class="st11" x1="2285.5" y1="14.5" x2="2311.5" y2="14.5"/>
	</g>
</g>
</svg>
