<?xml version="1.0" encoding="utf-8"?>
<!-- Generator: Adobe Illustrator 23.0.3, SVG Export Plug-In . SVG Version: 6.00 Build 0)  -->
<svg width="1920" height="1080" version="1.1" id="_1945" xmlns="http://www.w3.org/2000/svg" xmlns:xlink="http://www.w3.org/1999/xlink" x="0px" y="0px"
	 viewBox="0 0 1920 1080" style="enable-background:new 0 0 1920 1080;" xml:space="preserve">
<style type="text/css">
	.st0{fill:none;}
	.st1{fill:#70CCB8;}
</style>
<polygon class="st0" points="1920,1080 0,1080 0,0 121.7,0 1920,0 "/>
<g>
	<polygon class="st1" points="1253.3,373.3 1263,381.1 1270.6,392 1276.6,404.5 1276.6,412.3 1278.5,416.2 1284.4,422 1296,423.9 
		1307.1,428.4 1319.8,434.8 1330.9,441.1 1337.3,447.5 1341,452.1 1343.5,447.5 1332.8,438.9 1342.4,428.4 1339.4,425.6 
		1329.6,436.3 1327.7,434.8 1277.5,393.3 1282.2,388.6 1279.8,386.3 1275.1,391 1263.1,363.3 1271.2,362.7 1270.9,358.2 
		1261.2,358.9 1261.1,358.6 1261.1,338 1267.5,322.1 1270.6,322.1 1281.8,299.9 1261.1,288.7 1254.8,287.2 1242.7,281.6 
		1241.6,293.5 1241.6,347.3 1245.5,359.7 	"/>
	<polygon class="st1" points="760.3,267.7 757,268.2 757.5,271.5 760.9,271 	"/>
	<polygon class="st1" points="765.6,295.7 765,292.5 759.1,293.9 759.8,297.1 	"/>
	<polygon class="st1" points="739.5,213.7 738.4,214.8 737.3,215.9 737.3,217 739.5,217 741.8,215.9 743.5,214.9 746.5,214.2 
		750.1,214.2 749.6,211.4 746.2,211.4 741.7,212.5 	"/>
	<polygon class="st1" points="843.1,820.9 855.4,819.8 855.4,815.9 843.1,817 	"/>
	<polygon class="st1" points="699.4,443.2 697.8,443.2 696.9,443.7 692.2,443.7 678.5,437.4 666.7,428.8 658.9,420.4 651.8,408.4 
		647.5,398.9 623.3,261.5 624.8,260.4 625.9,257 623.6,254.8 620.3,254.8 618.8,256.2 617.4,258.2 617.4,260.2 642.1,400.2 
		642.1,400.5 646.7,410.8 654.4,423.8 662.8,432.8 675.5,442.1 691,449.3 694.9,451 699.2,451 701.6,449.8 702.7,447.6 701.6,444.3 
			"/>
	<polygon class="st1" points="740.8,235.8 753.9,233.8 753.3,230.5 740.3,232.5 	"/>
	<polygon class="st1" points="798.3,762.5 790.7,764.2 789.7,758.1 785.2,758.9 787.5,772.2 792,771.5 791.5,768.6 799.2,766.8 	"/>
	<path class="st1" d="M1353.2,438l-9.5,9.5l-2.6,4.7l2.6,3.3l1.6,4.8l4.8,4.8l1.5,4.7l0.9,3.6v3.2l-7.8,7.8l-5.8,13.6l-1.6,17.9
		l-7.9,9.5l-1.6,11.1l3.2,7.9l4.8,7.9v7.9l-1.6,6.3l-3.2,3.2l-1.5,0.9l-4.5-0.5l-5.5-4.1l-7.8-3.9l-3.9-1.9l-1.4-1.4l0-0.1l-2.5-2.5
		l-3.9-7.8l-2-3.9h-3.8l-5.8-1.9l-5.8-3.9l-2-5.8v-7.8l-3.9-3.9l-7.8-3.9l-5.8-5.8l-3.9-3.9l-5.8-3.9l-7.8-1.9c0,0-5.8-1.9-5.8-3.9
		c0-1.9-1.9-5.8-1.9-5.8v-7.2l-5.8-6.4l-3.9-5.8l-5.8-3.9l-3.9-5.8l-5.8-3.9l-5.8-1.9l-7.8-2l-9.7-3.9l-9.7-5.8c0,0-7.7-2-9.7-3.9
		c-2.5-2.1-5.1-4.1-7.8-5.8l-3.9-7.8l-1.9-2h-5.8l-3.9,2l-3.9,3.9l-9.7,3.9l-13.6,2l-17.5,3.9l-5.8,2l-3.9,2l-2,5.8v3.2l-3.9,2.6
		l-5.8,3.9l-5.8,3.9l-3.9,3.9l-3.9,5.8l-5.8,3.9l-7.8,9.7l-5.8,5.8l-3.9,9.7l-3.9,13.6l-3.9,15.6l-2,13.6l-3.9,19.5l-7.8,11.7
		l-3.9,5.8l-5.8,1.9l-5.8-3.9l-5.8-2l-3.9,3.9l-3.9,17.5l-5.8,19.5l-3.9,13.6l-5.8,13.6l-3.9,9.7l-3.9,13.6l-3.8,15.6l-2,13.6
		l-2,7.8l3.9,11.7l3.9,5.8v11.6l-3.9,9.7l-7.8,11.7l-9.7,9.7h-9.7l-3.9-5.8V758l-7.8-7.2l-1.9-5.8l-3.9-9.7l-3.9-5.8h-13.6l-5.8,2
		h-25.1l-7.8,3.9l-9.7,2l-7.8,7.8l-1.9,7.8l-7.8,3.9l-2,7.8l-3.9,5.8h-3.9l-3.9-3.9v-5.3l-1.9-8.3l-2-5.8v-7.5l-2-4.2l-1.9-7.8
		l-3.9-7.8l-1.9-3.9l-2-7.8l-2-13.6l3.9-7.8v-17.5l-2-7.8l-3.9-7.8l-3.9-7.8V627l-1.9-14.2l-2-11.7v-10.5l2-10.9l1.9-11.7l-1.9-7.8
		l-2-9.9l-3.9-5.7l-3.9-1.9l-7.8-2l-3.9-5.8l-1.9-3.9v-14l1.9-5.6l2-5.8l3.9-3.9l9.7-3.9l3.9-2l5.8-13.6l3.9-9.7l0.1,0l3.9-9.7
		l1.9-5.8l5.9-5.8l7.8-2l5.8-5.8l3.9-7.8l2-5.8V422l0-7.8l-0.1,0l2-5.8v-7.8l3.9-3.9v-9.7l-7.8-5.8l-7.8-7.8l-3.9-2l2-9.7l4-7.7
		l2-7.8v-3.9l-3.9-3.9l-2-9.7l-5.8-7.8l-2-5.8l-5.8-1.9l-1.9-2l-5.8-3.9v-5.8l-2-2l2-7.8l3.9-1.9l3.9-2l2-2v-5.8l-2-3.9v-5.9
		l-1.9-3.9l-2-5.8v-5.8l-3.9-5.8l-3.9-2l-5.8-3.9L790,239v-21.4l-3.8-8.1v-2.5l-2-4.9l-2-7.8v-38.9l-1.9-5.8v-5.8l3.9-3.9l3.9-5.8
		l5.8-11.6v-7.8l-1.9-5.8l1.9-5.8V75.5l-7.7-5.9l-11.8-1.9l-13.6-3.9l-19.5-3.9L717.9,58l-13.6,1.8l-2,4v11.6l-1.9,7.8l-3.9,9.7
		l-1.9,9.7l-2,13.6l-2,13.6l-3.9,5.8l-9.7,7.8l-1.9,5.8l-2,9.7l-7.8,9.7l-7.8,7.8l-7.8-3.9l-7.8-11.7l-5.8-5.8l-3.9-5.8l-1.9-5.8
		l4.1-25.3l-2-17.5l-22.8,0.9l-0.1,67.2v12.9l-5.2,3.7l-1.4-2.7l-3,1.5l4.6,8.9l1.5-0.8l1.5-0.8l-1.6-3.2l3.7-2.6l9.9,3.1l-0.8,2.7
		l-2.2-0.7l-1.1,3.2l6.7,2.2l1-3.2l-1.8-0.6l0.8-2.7l9.6,3l3.2,3.2l1.6,3.2l-1.6,20.6l-1.6,3.2l-6.3,4.8v6.4h1.6l1.6-3.2l22.4-9.7
		l19-7.9l6.3-1.6l70.6-7.1l0,0l0,0.2l0.3,1.5l0.6,3.3l1.6,8.6l-7.2,1.1l0.5,3.3l7.3-1.2l1.8,9.2l0.6,3.3l4.3,22.8l-10.1,1.6l0.5,3.2
		l10.2-1.6l1.5,7.9l0.6,3.2l1,5.5l-10.4,1.6l0.5,3.2l10.5-1.7l2.4,12.8l0.6,3.2l4,21.2l-6,1.5l0.8,3.2l5.8-1.4l2.6,13.7l-4.7,1.2
		l0.8,3.2l4.5-1.1l1.5,7.7l-5.7,1.4l0.8,3.2l5.5-1.4l1.7,8.7l-6.9,1.7l0.8,3.2l6.7-1.7l6.5,34.3l-4,1l0.8,3.2l3.8-0.9l4.7,24.5
		l0.2,0l-0.1,0l1.6,17.5l-6.5,27.3l-25.3-6.8l-29.7-7.2c-0.8,0-1.5,0.4-1.8,1.1c-0.5,1-0.1,2.2,0.9,2.7l29.7,6.9l-10.3,41l-4.8,19
		l-4.8,3.2v1.6l4.8,6.3h3.2l3,6l-3.5,1.5l-3.3,2.2l-3.3,2.2l-3.3,3.3l-1.1,4.5l-1.1,7.8h-3.8l-1.8,16.7l7.8,1.1l1.7-15l1.2-7.8
		l2.2-5.5l3.3-3.3l3.3-2.2l3.6-1.9l4.8,1.6h4.8l1.6,4.7l12.7,42.9v3.2l-4.8,25.4v4.8l1,8.2l-15.5,1.4c-0.2,0-0.4,0.1-0.6,0.2
		l-2.2,1.1c-0.6,0.3-1,1-0.9,1.7l3.3,23.4c0,0.2,0.1,0.5,0.3,0.7l4.5,6.7c0.3,0.5,0.8,0.7,1.4,0.7c0.3,0,0.7-0.1,0.9-0.3
		c0,0,0,0,0,0c0.8-0.5,0.9-1.5,0.4-2.3L759,662l-3.1-21.8l0.9-0.4l15.2-1.4h0.1l1.7,14l2.6,10.4l-7,1.3l-0.3-1.7l-3.3,0.5l1.1,6.7
		l3.3-0.5l-0.3-1.7l7.3-1.4l7.6,34l-43.4,9.5l1,4.3l43.4-9.5l4.1,18.5l-33.9,7.3l0.8,3.3l33.8-7.3l4.2,18.8L758,753l0.9,4.4
		l36.7-8.1l0.3,1.5l6,28.8l-42.7,9.1l0.9,4.4l42.7-9.1l2.5,11.9l-2.7,0.6l1.4,7.3l3-0.9l0.1,0.3l2.5,3.6l-2.5,3l3.9,4.5l4.1,2.5
		l7.1,2l0.6-2.6l-1.3-0.3l-6.3-3.2l-4.8-4.8l0,0l4.8,4.8l6.4,3.2l7.9,1.6h9.5L920,810l-1.1,13.2v6.7l29.3-4.6l-2.5-7.7l-0.5-9.8
		l15.9-1.4l-9.5,9.5l3.2,3.2l23.8-23.8l-3.2-3.2l9.6-28.6l-4.8-1.6v-4.8l14.3-55.6l19-30.2l33.3-122.2l33.3-34.9l30.2,19l4.8-6.3
		l-3.2-1.6v-1.6l9.5-9.5l3.2-1.6l3.2-4.8h15.9l6.3,3.2v3.2l1.6,3.2h1.6l1.6-3.2h1.6l1.6,3.2l46,30.2l17.5,11.1l4.8,6.3l15.4,10.8
		l24.3,14.6l12.7,9.5l3.2,1.6l12.9-22.4l1.4,1.7v4.8l3.2,3.2v1.6l-6.3,14.3l23.8,9.5l9.5-20.6h1.6l4.3,3.2h2.1l3.2-4.8v-1.6
		l-3.2-3.2l3.2-4.8v-3.2l0.1-8.7l9.4-19.9l-11.1-6.3l-1.6-1.6l3.2-14.3l3.2-11.1l1.6-4.8l1.6-4.8l3.2-4.8l17.5,3.2l1.6-1.6
		l17.5-42.9l0-1.6L1353.2,438z"/>
	<polygon class="st1" points="748.6,206.1 743.6,206.9 744.1,210.2 749.2,209.4 	"/>
	<polygon class="st1" points="745.1,629.3 747.3,627.3 747.3,624.8 745,620.3 736.1,601 733.9,593.6 735,586.9 736.2,580.2 
		730.6,579.4 728.4,597.5 730.6,602.5 742.8,628.1 	"/>
</g>
</svg>
