<?xml version="1.0" encoding="utf-8"?>
<!-- Generator: Adobe Illustrator 23.0.3, SVG Export Plug-In . SVG Version: 6.00 Build 0)  -->
<svg width="3840" height="2160" version="1.1" id="_1900" xmlns="http://www.w3.org/2000/svg" xmlns:xlink="http://www.w3.org/1999/xlink" x="0px" y="0px"
	 viewBox="0 0 1920 1080" style="enable-background:new 0 0 1920 1080;" xml:space="preserve">
<style type="text/css">
	.st0{fill:#70CCB8;}
</style>
<g>
	<polygon class="st0" points="666.8,242.6 665.2,243.8 665.2,277.1 662.3,279 661.9,276.8 658.7,277.4 660,285.2 663.2,284.7 
		662.9,282.6 667.6,279.4 673.4,281.8 673.4,281.9 670.9,289.8 673.3,290.6 675.9,282.8 701,293 707.5,286.5 715.6,278.4 
		715.6,275.1 717.3,270.3 718.9,267 722.1,267 722.1,271.9 723.8,275.2 727,276.8 736.8,278.4 740,276.8 743.3,273.5 743.3,265.4 
		753,210.1 800.2,210.1 806.7,245.9 792,265.4 788.8,273.5 783.9,278.4 774.1,291.4 782.3,297.9 784.3,311.8 779,312.3 779.2,314.9 
		784.6,314.4 784.6,314.4 785.3,319 777.2,320.6 777.2,323.3 785.7,321.7 789.4,341.4 780.2,342.3 780.5,344.9 789.7,344 789.8,344 
		793.4,363.4 788,364.6 788.6,367.1 793.9,365.9 796.9,382.5 798.8,394.1 792,394.8 792.3,397.4 799.2,396.6 804,426.4 801,426.8 
		801.3,429.4 804.4,429 804.4,428.9 813.2,483.2 851.4,475.9 854.7,472.7 854.7,464.5 848.1,459.7 841.6,453.2 838.4,451.5 
		840,443.4 843.3,436.9 844.9,430.4 844.9,427.2 841.6,423.9 840,415.8 835.1,409.3 833.5,404.4 828.6,402.8 827,401.1 822.1,397.9 
		822.1,393 820.5,391.4 822.1,384.9 825.4,383.3 828.6,381.6 830.3,380 830.3,375.1 828.6,371.9 828.6,367 827,363.8 825.4,358.9 
		825.4,354 822.1,349.1 818.9,347.5 814,344.3 810.8,341 810.8,323.2 807.6,316.4 807.6,314.3 805.9,310.2 804.3,303.7 804.3,271.1 
		802.6,266.3 802.6,261.4 805.9,258.1 809.1,253.3 814,243.5 814,237 812.4,232.1 814,227.2 814,204.5 807.6,199.6 797.8,198 
		786.4,194.7 770.1,191.5 750.6,189.9 739.3,191.5 737.6,194.8 737.6,204.5 736,211 732.7,219.1 731,227.2 729.4,238.6 727.8,250 
		724.5,254.8 716.4,261.3 714.8,266.2 713.2,274.3 706.6,282.5 700.1,289 693.6,285.7 687.1,276 682.3,271.1 679,266.2 677.4,261.3 
		680.6,240.2 679,225.6 683.9,209.4 676.4,209.4 676.4,206.6 671.2,206.6 671.2,209.5 665.2,209.5 665.2,236.4 666.8,237.8 
		668.5,237.8 668.5,242.6 	"/>
	<path class="st0" d="M924.5,768.6l-1.6-4.9l-3.3-8.1l-3.3-4.9H905l-4.9,1.6H879l-6.5,3.3l-8.1,1.6l-6.5,6.5l-1.6,6.5l-6.5,3.3
		l-1.6,6.5l-3.3,4.9h-3.3l-3.3-3.3v-4.4l-1.6-7l-1.6-4.9v-6.3l-1.6-3.5l-1.6-6.5l-3.3-6.5l-1.6-3.3l-1.6-6.5l-1.6-11.4l3.3-6.5
		v-14.6l-1.6-6.5l-3.3-6.5l-3.3-6.5V665l-1.6-11.8l-1.6-9.8v-8.8l1.6-9.1l1.6-9.8l-1.6-6.5l-1.6-8.3l-3.3-4.8l-3.3-1.6l-6.5-1.6
		l-3.2-4.9l-1.6-3.3v-11.7l1.6-4.6l1.6-4.9l3.2-3.2l8.1-3.3l3.3-1.6l4.9-11.4l3.3-8.1l3.3-8.1l1.6-5l-41.5-12.2l-18.5-5.5l-1.3,2.6
		l19.3,5.3l-9.2,39.8l18.7,4.3l-4.1,5.5l-1.6,6.5l-3.3,9.8l2.3-6.9l-6.5,3.6l-11.8,5.2l-2.6,1.3l-1.3,2.6l-1.3,2.6v3.6h-4.1
		l-1.1,14.7h5.2l1.3-18.3l1.3-2.6l1.3-1.3l2.6-1.3l11.8-3.9l2.9,0.7l3.3,3.3l8.1,37.4l-6.5,30.9l1.2,7.3l-10.5,1.5l-3.5,1.8v3.1
		l2.7,15.2l4.1,5.5c0.2,0.3,0.6,0.5,1,0.5c0.3,0,0.6-0.1,0.8-0.3c0.6-0.4,0.7-1.3,0.3-1.8l-3.7-5l-2.5-14.3v-1.3l1.7-0.8l10.2-1.5
		l3,19.2l-3.7,0.9l-0.2-1.6l-2.6,0.4l0.9,5.8l2.6-0.4l-0.3-1.6l4.2-1l2.7,2.7l5.5,27.3l-23.9,4.7v2.6l24.5-4.7l3.2,15.9l-25,5.7v2.6
		l25.5-6l3.3,16.3l-30.1,5.3v2.6l30.5-5.4l2.3,11.4l-5.5,0.5v2.6l5.9-0.8l4.4,22l-2.9,0.4l1,6.5l3.3-0.4l0.9,4.6l1.6,3.3l3.3,3.3
		l4.9,3.3l6.5,1.6l3.6-0.2v2.8h3.9v-3l73.8-4.4v1.6l3.1-0.2l0.4,12.7h2.9v-12.9l6.9-0.4v13.3h3.2l-0.4-13.5l11.6-0.7l-6.5,4.9
		l1.6,1.7l22.8-16.3l-1.6-3.3l4.9-8.1l3.3,1.7l4.9-9.8h-3.3l3.3-6.5l-9.8-3.3l14.6-53.7l17.9-22.8l26-89.4l34.1-37.4l17.9,16.3
		l24.4-30.9l8.1,6.5l3.3-4.9h6.5l4.9,3.3l3.3,3.3l3.3,4.9l3.3,3.3l8.1,4.9l6.5,6.5h3.3l3.3,3.3l1.6,4.9l4.9,3.3l1.6,3.3l-4.3,4.9
		l7.8,5.2l4.6-5.2l4.9,1.6v3.3l3.3,1.6h3.3l1.6,1.6l1.6,3.3l22.8,14.6h3.3l1.6-1.6l3.3,1.6v4.9l3.3,3.3h1.6l1.6-1.6l14.9-23.2
		l-2.7-5.3l-1.6-3.3h-3.3l-4.9-1.6l-4.9-3.3l-1.6-4.9V580l-3.3-3.3l-6.5-3.3l-4.9-4.9l-3.3-3.3l-4.9-3.3l-6.5-1.6
		c0,0-4.9-1.6-4.9-3.3s-1.6-4.9-1.6-4.9v-6l-4.9-5.3l-3.3-4.9l-4.9-3.3l-3.3-4.9l-4.9-3.3l-4.9-1.6l-6.5-1.6l-8.1-3.3l-8.1-4.9
		c0,0-6.5-1.6-8.1-3.3c-2.1-1.8-4.2-3.4-6.5-4.9l-3.3-6.5l-1.6-1.6h-4.9l-3.3,1.6l-3.3,3.3l-8.1,3.2l-11.4,1.6l-14.6,3.3l-4.9,1.6
		l-3.3,1.6l-1.6,4.9v2.7l-3.3,2.2l-4.9,3.3l-4.9,3.3l-3.3,3.3l-3.3,4.9l-4.9,3.3l-6.5,8.1l-4.9,4.9l-3.3,8.1l-3.3,11.4l-3.3,13
		l-1.6,11.4l-3.3,16.3l-6.5,9.8l-3.3,4.9l-4.9,1.6l-4.9-3.3l-4.9-1.6l-3.3,3.3l-3.3,14.6l-4.9,16.3l-3.3,11.4l-4.9,11.5l-3.3,8.1
		l-3.3,11.4l-3.3,13l-1.6,11.4l-1.6,6.5l3.3,9.8l3.3,4.9v9.8l-3.3,8.1l-6.5,9.8l-8.1,8.1h-8.1l-3.3-4.9v-3.8L924.5,768.6z"/>
	<polygon class="st0" points="1266.9,487 1264.6,484.7 1257.1,492.2 1218,458.9 1214.8,452.4 1205,431.2 1205,416.6 1206.6,413.3 
		1218,392.2 1188.8,377.6 1187.9,386.6 1187.9,431.6 1191.2,441.8 1197.7,453.2 1205.8,459.7 1212.3,466.2 1217.2,479.2 
		1217.2,485.8 1218.8,489 1223.7,493.9 1233.5,495.5 1244.8,495.5 1253,498.8 1262.7,502 1272.5,506.9 1273.3,506 1259.6,494.3 	"/>
</g>
</svg>
