<?xml version="1.0" encoding="utf-8"?>
<!-- Generator: Adobe Illustrator 23.0.3, SVG Export Plug-In . SVG Version: 6.00 Build 0)  -->
<svg width="1920" height="1080" version="1.1" id="_2019" xmlns="http://www.w3.org/2000/svg" xmlns:xlink="http://www.w3.org/1999/xlink" x="0px" y="0px"
	 viewBox="0 0 1920 1080" style="enable-background:new 0 0 1920 1080;" xml:space="preserve">
<style type="text/css">
	.st0{opacity:0.8;}
	.st1{fill:#666666;}
	.st2{clip-path:url(#SVGID_2_);}
	.st3{fill:none;stroke:#FF8300;stroke-width:2.5;stroke-miterlimit:10;}
	.st4{fill:none;stroke:#FF8300;stroke-width:2.5;stroke-linecap:round;stroke-linejoin:round;stroke-dasharray:8.24,8.24;}
	.st5{fill:none;stroke:#FF8300;stroke-width:2.5;stroke-linecap:round;stroke-linejoin:round;}
	.st6{fill:none;stroke:#FF8300;stroke-width:2.5;stroke-linecap:round;stroke-linejoin:round;stroke-dasharray:8.63,8.63;}
	.st7{fill:none;stroke:#FF8300;stroke-width:2.5;stroke-linecap:round;stroke-linejoin:round;stroke-dasharray:7.71,7.71;}
	.st8{fill:none;stroke:#FF8300;stroke-width:2.5;stroke-linecap:round;stroke-linejoin:round;stroke-dasharray:7.38,7.38;}
	.st9{fill:none;stroke:#FF8300;stroke-width:2.5;stroke-linecap:round;stroke-linejoin:round;stroke-dasharray:5.69,5.69;}
	.st10{fill:none;stroke:#FF8300;stroke-width:2.5;stroke-linecap:round;stroke-linejoin:round;stroke-dasharray:8.14,8.14;}
	.st11{fill:none;stroke:#FF8300;stroke-width:2.5;stroke-linecap:round;stroke-linejoin:round;stroke-dasharray:5.17,5.17;}
	.st12{fill:none;stroke:#FF8300;stroke-width:2.5;stroke-linecap:round;stroke-linejoin:round;stroke-dasharray:4.29,4.29;}
	.st13{fill:none;stroke:#FF8300;stroke-width:2.5;stroke-linecap:round;stroke-linejoin:round;stroke-dasharray:8.19,8.19;}
	.st14{fill:none;stroke:#FF8300;stroke-width:2.5;stroke-linecap:round;stroke-linejoin:round;stroke-dasharray:7.45,7.45;}
	.st15{fill:none;stroke:#FF8300;stroke-width:2.5;stroke-linecap:round;stroke-linejoin:round;stroke-dasharray:8.97,8.97;}
	.st16{fill:none;stroke:#FF8300;stroke-width:2.5;stroke-linecap:round;stroke-linejoin:round;stroke-dasharray:4.39,4.39;}
	.st17{fill:none;stroke:#FF8300;stroke-width:2.5;stroke-linecap:round;stroke-linejoin:round;stroke-dasharray:4.91,4.91;}
	.st18{fill:none;stroke:#FF8300;stroke-width:2.5;stroke-linecap:round;stroke-linejoin:round;stroke-dasharray:5.5,5.5;}
	.st19{fill:none;stroke:#FF8300;stroke-width:2.5;stroke-linecap:round;stroke-linejoin:round;stroke-dasharray:4.83,4.83;}
	.st20{fill:none;stroke:#FF8300;stroke-width:2.5;stroke-linecap:round;stroke-linejoin:round;stroke-dasharray:8.04,8.04;}
	.st21{fill:none;stroke:#FF8300;stroke-width:2.5;stroke-linecap:round;stroke-linejoin:round;stroke-dasharray:9.11,9.11;}
	.st22{fill:none;stroke:#FF8300;stroke-width:2.5;stroke-linecap:round;stroke-linejoin:round;stroke-dasharray:9.12,9.12;}
	.st23{fill:none;stroke:#FF8300;stroke-width:2.5;stroke-linecap:round;stroke-linejoin:round;stroke-dasharray:6.81,6.81;}
	.st24{fill:none;stroke:#FF8300;stroke-width:2.5;stroke-linecap:round;stroke-linejoin:round;stroke-dasharray:7.1,7.1;}
	.st25{fill:none;stroke:#FF8300;stroke-width:2.5;stroke-linecap:round;stroke-linejoin:round;stroke-dasharray:9.08,9.08;}
	.st26{fill:none;stroke:#FF8300;stroke-width:2.5;stroke-linecap:round;stroke-linejoin:round;stroke-dasharray:8.71,8.71;}
	.st27{fill:none;stroke:#FF8300;stroke-width:2.5;stroke-linecap:round;stroke-linejoin:round;stroke-dasharray:7.4,7.4;}
	.st28{fill:none;stroke:#FF8300;stroke-width:2.5;stroke-linecap:round;stroke-linejoin:round;stroke-dasharray:10.3,10.3;}
	.st29{fill:none;stroke:#FF8300;stroke-width:2.5;stroke-linecap:round;stroke-linejoin:round;stroke-dasharray:7.67,7.67;}
	.st30{fill:none;stroke:#FF8300;stroke-width:2.5;stroke-linecap:round;stroke-linejoin:round;stroke-dasharray:7.63,7.63;}
	.st31{fill:none;stroke:#FF8300;stroke-width:2.5;stroke-linecap:round;stroke-linejoin:round;stroke-dasharray:7.55,7.55;}
	.st32{fill:none;stroke:#FF8300;stroke-width:2.5;stroke-linecap:round;stroke-linejoin:round;stroke-dasharray:8.05,8.05;}
	.st33{fill:none;stroke:#FF8300;stroke-width:2.5;stroke-linecap:round;stroke-linejoin:round;stroke-dasharray:8.01,8.01;}
	.st34{fill:none;stroke:#FF8300;stroke-width:2.5;stroke-linecap:round;stroke-linejoin:round;stroke-dasharray:7.54,7.54;}
	.st35{fill:none;stroke:#FF8300;stroke-width:2.5;stroke-linecap:round;stroke-linejoin:round;stroke-dasharray:8.06,8.06;}
	.st36{fill:none;stroke:#FF8300;stroke-width:2.5;stroke-linecap:round;stroke-linejoin:round;stroke-dasharray:8;}
	.st37{fill:none;stroke:#F08219;stroke-width:2.5;stroke-linecap:round;stroke-linejoin:round;stroke-dasharray:8;}
</style>
<g class="st0">
	<polygon class="st1" points="1922,430 1922,500.5 1922,500.5 1922,430 	"/>
	<path class="st1" d="M1920,501.9v-74.4l2,2.5V307.3l-1.5-1.1l-0.5-1V0h0v305.1l-1-2.1l-1.6-3.1l-3.1-1.6h-9.4l-4.7-1.6l-4.7-1.6
		h-3.1l-4.7,3.1l-1.6,1.6h-1.6l-3.1-3.1l-4.7-1.6l-3.1-6.2l-4.7-4.7l-4.7-1.6l-7.8-3.1l-3.1-1.6l-3.1-4.7l-1.6-3.1l-3.1-1.6h-6.2
		l-1.6-1.6l-1.6-3.1l-4.7-3.1l-3.1-1.6l-3.1-6.2l-3.1-4.7l-1.6-4.7l-4.7-6.2l-3.1-1.6v-2.3l3.1-2.4l1.6-6.2v-3.1l-3.1-6.2l-3.1-1.6
		l-1.6-4.7v-5.7l1.6-3.7l4.7-3.1l6.2-3.1l3.1-4.7v-6.3l-1.6-4.7l-1.6-4.7l-1.6-4.7l-1.6-3.1v-3.1l1.6-1.6h1.6h1.6l3.1-4.7l3.1-6.2
		l-1.6-3.1l1.6-4.7h-3.1h-1.6l-1.6-1.6v-1.6l4.7-3.1l4.7-3.1l0.7-1.1l-5.3-2l-3.1-1.6l-1.6-1.6v-3.1l-1.6-1.6v-3.1l-1.6-1.5
		l-3.1-3.1l-1.6-3.1l0,0l-1.6-1.6l1.6-4.7l3.1-3.1l3.1-1.6l4.7-3.1l3.1-3.1l1.6-1.5l2.2-3l-1.9-5.7V78l-5.7-5.7l-3.8-5.7l-7.7-11.5
		l-9.6-7.7l-7.7-5.7v-3.8l-3.8-2v-2.4l3.8-3.4h-6.7l-4.8-3.8l-5.7-5.7l-3.8-7.7l-1.9-5.7l-7.7-3.8l-6.6-3.3h-77h0h-280.8h-2.8h-52.7
		l-6.7,3.5l-7.8,3.1l-7.8,3.1l-1.6,1.6l0.7-0.1l-0.7,0.1l1,3.6l1.6,7.8v7.8l-4.2,7.8l-3.8,5.7l-4.5,2.1h-3.1l-3.1,1.6v12.5l3.1,3.1
		l4.6,3.1V68l-3.1,1.6l-1.6,4.7l-3.1,7.8l-4.7,7.8l-3.1,4.7h-14l-1.6-1.6l-1.6-3.1V82l-1.6-3.1h-3.1v3.2l-1.7,6l-0.7,5.7l69.5,33.5
		l14,9.4l6.2,9.4l6.2,15.6l1.6,18.7l-0.3,2.4l0.3-2.4l-1.6-18.7l-6.2-15.6l-6.2-9.4l-14-9.4l-69.5-33.5l-1.2,9.6l1.9,15.3l5.7,7.7
		l1.9,0.8l0,0l11.5,4.9l15.3,7.6l15.3,9.6l5.1,8.6l11.9-10.7l1.3-1.6l0,0l-1.3,1.6l-11.9,10.7l0.6,1l5.7,5.7l3.8,5.7v13.4l-1.9,11.5
		l-7.7,11.5l-11.5,7.7l-9.6,3.8l-5.7,3.8l-3.8,3.8l-7.7,3.8l-9.6,3.8l-5.7-1.9h-5.7l-5.7,3.8l-7.7,5.7l-5.7,3.8l-7.7,3.8l-5.7,9.6
		l-5.7,9.6v12.2l-0.8,8.7l11.8,5.4l6.2,1.6l20.3,10.9l58.1,18.7l4.5,1.1l7.8-3.3l3.3-7.8v-7.2l29.8-65h3.4l11.1,5.2l2-4.4l-10.6-5
		l-2.7-3l24.7-53.9l15.8-8.2l352,341l13.8,18l20.8,20.9h7.6l35.3,36h7.3l32.9-34.7v-7l-41.9-43.4l-0.2-2.4l2.2-20.9l-2.2-6.6
		l-44.3-43.7l-10.7,10.7l-5.8-1l-9.3-4.9l-5.2-3.8l-75.2-69.6l-6.9-4.2l-48.6-47.2l30.5-31.3l-7.6-7.3l-30.6,31.1l-123.2-119.6
		l1-4.8l13.6-38.8l5.8,1.9L1749,353.7l53.3-56.2l17.4,16.5l45.6,48.4l30,34.9l24.7,30.2L1920,501.9c-0.5,0.4-0.8,0.9-0.8,1.5
		c0,0.6,0.3,1.2,0.7,1.5v33.3c-1.2,0.9-2.3,1.6-3.1,2.2c-3.7,2.5-17,0-24.6-2.2c-1-0.2-2,0.3-2.3,1.3c-0.3,1,0.2,2.1,1.3,2.4
		c1.6,0.4,11.9,3.3,20,3.3c3.2,0,6-0.4,7.8-1.6l1-0.7v-38c0.3,0.2,0.7,0.4,1.2,0.4c0.3,0,0.6-0.1,0.8-0.2v-4.7L1920,501.9
		C1920,501.9,1920,501.9,1920,501.9z M1290.4,110.3L1290.4,110.3l6.2,3L1290.4,110.3z M1320.9,253.7l-4.6-1.5l0,0L1320.9,253.7
		L1320.9,253.7z M1338.1,231.8l-6.2-4.7l0,0L1338.1,231.8L1338.1,231.8z M1344.4,136.4l-1.3-0.7L1344.4,136.4L1344.4,136.4z
		 M1348.3,133.6l-1.4,0.5l0,0L1348.3,133.6l2.7-0.1l2.9,1.4l3.9,3.9v3.9l-2,3.9h0l2-3.9l0-3.9l-3.9-3.9l-2.9-1.4L1348.3,133.6z
		 M1358.3,213.1l-6.2-3.1l0,0L1358.3,213.1L1358.3,213.1z M1794.1,143.9l-15.6,6.2v0L1794.1,143.9l-3.1-14l-1.6-9.4l1.6-4.7
		l19.6-3.7l-19.6,3.7l-1.6,4.7L1794.1,143.9z"/>
	<path class="st1" d="M51.7,340.4c0,0.1,0,0.1,0,0.2c0.4,1.8,2.2,3,4,2.6c1.8-0.4,3-2.2,2.6-4l-2-10.4c1.7-1.1,2.5-3,2.2-5
		l-17.1-90.6V233l80-14.2l1.9,3.8l16.9,75.8l1.7,8.6l-65.4,12.3l0.3,2.2l5.9-1.1l0.3,1.1l0.6,0.3L84,322l1.7-0.3l62-11.7l0.6-0.6
		l0.3-0.6v-0.8l-1.8-11.6l-8.5-55.8v-3.3l8.8-1.1l3.3,1.1l3.4-0.5l4.3,3.8l5.5,2.2l3.6,1.3h16.5l7.8,7.2l1.5,3.4l-0.3,4v6.8
		l1.9,10.3l3.7,3.8l6.5,0.9l7.5,2.8l5.6,4.7l1.9,7.5l5.6,8.4l5.6,4.7l4.7,2.8l3.8,1.9l2.8-2.8l1.9-7.5l1.9-6.6l6.5-8.4l-1.9-4.7
		l1.9-7.5l12.4-10.4l4,3.7l8.6-9.5l-3.9-3.9l2.3-3.3l2.4-5.6l4.1-3.7l6-2.2l1.6-4.5l-3.7-2.8l-2.8-4.7l-0.9-5.8v-6.4l2.8-6.6
		l6.8-6.8l2.9-2.9l0.6-4.3l1.9-4.7l4.3-5.5l7.8-7.8l10.7-8.7l8.7-4.8l10.7-2.9l6.6-1.1l5.6-4.7v-8.4l-1.9-9.4l-5-7.6l-2.4-4.5
		l-2.8-7.5l-4-5.6l-3.5-0.8l-0.5-0.8v-0.5l-0.3-0.6V110l-0.3-0.6l-0.3-0.3l-0.3-0.3l-0.3-0.3l-0.6-0.6h-0.3l-0.6-0.3h-0.6l-0.3-0.3
		h-0.8l-0.6,0.3h-0.6l-7.9-6l-3.9-2.9l-3.9-3.9l-2.9-1.9l-1-1.9l-1.9-1l-1.9,1l-1.9,1h-4.3l-10.2-6.5c-0.1,0-0.1-0.1-0.2-0.1
		c-0.9-0.5-2.1-0.2-2.6,0.7c-0.5,0.9-0.2,2.1,0.7,2.6l15.5,9.9l0.1,0.1l1,1l-3.5,3.5l-5.7-4.1l-1.3,1.7l5.4,3.9l-2.8,2.8l-1.9-1.9
		l-3.9,3.9l2.1,1.7l-10,10l-9.5-9.5l-1.5,1.5l9.5,9.5l-0.3,0.3l2.8,3l-9.6,10.6l-3.9-3.9l-1,1l3.9,3.9l-1.7,1l-3.6-3.9l-1.1,1.1
		l-10.1-10.1l-1.4,1.7l13.7,13.7l-13.4,13.4l-8.7-8.6l4.8-5l-1.2-1.1l-4.8,5l-4.6-4.5l5.3-5.3h0.3v-0.3H243l-0.5-0.6v-0.3h-0.3v0.3
		l-5.3,5.3l-1.4-1.7l6.4-6.4l-4.3-4.3l-6.4,6.4l-6.1-7.1l10-10.3v-0.3l-0.6-0.6h-0.3l-10.3,10.3l-0.6-0.6v-0.3l-6.2-4.9l-6.4-7.8
		l1.3-1.2l4.1,4.2l1-1l-4.2-4.1l3.9-3.9l5.3,5.3l1-1l-5.3-5.3l6.8-6.7l5.3,5.2l1-1l-5.2-5.2l7.3-7.2l0.5-0.4l9.9,9.9l1.5-1.5
		l-9.7-9.7l6.2-5l10,10l1.2-1.2l-9.8-9.8l6.8-4.3l6.3,6.3l1.2-1.2l-6-6l3.4-2.1l7,5l0.8-1.1l-6.5-4.7l1.9-1.2l4.1,2.7
		c0.9,0.5,2,0.3,2.5-0.5c0.6-0.9,0.5-2.1-0.4-2.7l-2.7-1.8l-37.3-22.6h-1.4l-0.3,0.3l-10.1-5.9l-16.4-8.8l17-28l36.7,23.3l-2.7,4
		l16.7,10.1l0.8-1.7L250.4,33l7.8-12.7l3.1,2.1l0.6-0.9l-3.1-2.1l1.9-3.1l3.3,2.2l0.6-0.9l-3.4-2.2l0.1-0.1l1.4-2.2l6.9,4.6l0.6-0.9
		l-6.9-4.6l1.6-2.5l7.7,5.1l0.6-0.9l-7.7-5.1l5.5-8.7H78.6l3.2,9.8L3,34.7v208.1l33.3,16.4L51.7,340.4z"/>
	<polygon class="st1" points="492.5,9.6 492.6,9.7 335.6,9.7 351.6,19.8 357.9,24.3 370.5,32.1 376.3,36.9 387,45.6 377.3,57.3 
		381.2,60.2 390.9,48.5 408.3,63.6 398.8,75.1 402.2,77.9 411.7,66.4 431.3,82.7 428.5,86.3 429.9,87.4 433,83.8 444.5,93.6 
		436.3,103.4 438,104.8 446.1,95 456,103.1 447.8,113.2 449.5,114.6 457.6,104.5 473.3,117.4 574.2,74.9 617.9,74.9 619.9,93.3 
		636.5,91.9 640.4,86.2 643.8,82.3 648,82.3 653.8,80.4 658.4,79.5 663.3,78.5 667.1,76.6 669.1,74.7 672.9,70.8 671,67 667.1,63.2 
		663.3,57.5 661.4,49.8 659.5,44.1 655.7,42.2 653.8,40.2 649.9,40.2 646.1,36.4 644.2,32.6 634.6,23 623.2,11.5 621.2,7.7 
		623.2,3.9 621.8,0 568.6,0 595.1,21.2 604.4,29 568.3,0 483.9,0 480.9,0 318.3,0 335.6,9.6 	"/>
	<polygon class="st1" points="69.8,917.6 75.1,916.1 72.4,906.3 67,907.8 	"/>
	<polygon class="st1" points="472.7,919.4 475.8,917.7 476.6,914.9 476.1,914 461.2,909.8 429.8,901.4 429,902 428.1,904.9 
		429.8,907.9 450,913.3 450.3,911.3 451.1,911.3 450.5,913.5 452.2,913.8 452.8,911.8 453.6,912.1 453.1,914.1 457.8,915.5 
		458.1,916 455.3,926.4 454.7,927 432,920.8 431.8,921.6 431.2,923.3 430.4,923.3 430.6,921.3 426.7,920.2 426.4,920.2 423.4,921.9 
		422.8,924.7 424.8,927.8 428.7,928.9 429.3,926.9 430.1,927.2 429.8,929.2 429.8,930 435.7,931.4 436.3,932.2 433.6,942.6 
		436.1,943.3 439.1,933.1 439.7,932.5 452.3,935.9 452.8,936.7 450.1,947 452.7,947.6 455.3,937.6 456.2,937 462.1,938.7 
		462.3,937.8 462.6,937.8 463.2,936.1 463.8,936.4 463.5,938.1 467.7,939.2 470.5,937.5 471.3,934.8 469.6,931.7 465.4,930.5 
		464.9,932.5 464,932.3 464.6,930.6 464.3,930.3 464.6,929.5 458.4,927.8 458.1,927.2 460.9,916.6 461.5,916.3 466.3,917.7 
		466.8,915.4 467.7,915.7 467.1,917.7 468.5,918.3 469.1,916.3 470.2,916.3 469.6,918.5 	"/>
	<path class="st1" d="M1903.8,910.7l-10.6-1.5l-47.3-8.8l-78.6-36.8l-10.5-6l-9.9-4.4l-12.7-0.7l-9.7-1l-10.7-2.9l-17.4-5.8
		l-26.2-9.7l-21.3-6.8l-23.3-5.8l-32-3.9l-30-5.8l0,0l30,5.8l32,3.9l23.3,5.8l21.3,6.8l26.2,9.7l17.4,5.8l10.7,2.9l9.7,1l7.6,0.4
		l-10.4-3.3l-5.8-3.9l-10.7-7.8l-10.5-6.2l-18.6-7.4l-18.4-5.8l-16.6-7.8l-16.3-5.8l-12.6-1.9l-28.1-2.9l-6.8-2.9l-6.5-0.7v-3.3
		h-9.9v4l-15.5,3.9l-22.3,7.8l-6,1.3l-0.8-4.6c0.9-0.9,1.4-2.1,1.1-3.4c-0.3-1.2-1.1-2.1-2.2-2.6l-2.2-12.3l-5.7,1l2.2,12.4
		c-0.9,0.9-1.3,2.1-1.1,3.3c0.3,1.1,1,2.1,2.1,2.5l0.9,4.8l-17.9,3.8l0.5-3.3l-1.9-3.9l-1.9-10.7l-5.2,1.1l2.3,10.8v4.6l1.8,2.3
		l-2.7,0.6l-32,1c0,0-4.8-1.9-5.8-1.9h-4.8l-4.8,1l-22.3,6.8l-27.1,6.8l-12.6,4.8l-13.6,6.8l-9.7,6.8l-25.7,21.9l-0.7-0.3l-0.8-0.3
		h-1.7l-0.8,0.3l-1.1,0.6l-3.1,2.8l-27.2,25.5l-2.8,2.5l-17.4,18.2l-34.4,40.2l10.1,6.9l58.5-65.2l8.1,7.1l0,0l-8.1-7l-58.5,65.2
		l-27-18.3c0,0-0.1-0.1-0.1-0.1c-1.1-0.7-2.6-0.4-3.3,0.8c-0.7,1.1-0.4,2.6,0.8,3.3l27.2,18.5v4.1l1.4,6.9l1.4,9.7l1.4,4.2l4.2,2.8
		l0.1,6.9l-1,5.8l-3.9,7.8l-3.9,4.8l-2.9,2.9l-13.4,5.1l-31.9,6.9l-8.3,1.4l-11.1,2.8l-9.7,5.6l-8.3,6.9l-4.2,6.9l-24.4,17.5h-9.2
		l-0.3-2.5v-8.8l4.4-23.1l4.4-18.7l-2.2-4.4l-5.5-1.1l-4.7,2.3l-4.9,0l-6.6-15.5c-0.5-1.2-1.9-1.7-3.1-1.2c-1.2,0.5-1.7,1.9-1.2,3.1
		l5.8,13.5h-1.8l-11,2.2l-3.8,6.4l-6.3-1.3c-1.3-0.3-2.5,0.5-2.8,1.8c-0.3,1.3,0.5,2.5,1.8,2.8l4.7,1v30.1l-29.4,13.3h-1.9
		l-4.2-15.7v-2.2l20.9-18.7l1.1-4.4l-2.2-2.2l-5.5,1.1l-22.1,18.9l0.1-0.1l-29.4,4.5l-10.1,1.4l-7,1.1l-4.5,0.6l-9.3,1.4l-7.6,0.8
		l-3.4,0.6l-1.1-1.4l-1.7-14.8l-0.3-0.3v-0.3h-0.6l-4.5,0.3l-0.3,0.3h-0.3v0.3h-0.3v0.3l1.7,14.6v0.6l-0.6,0.6l-0.3,0.6v0.3
		l-23.3,2.5l-2,0.3h-5.6l-0.8-0.3l-0.8-0.6l-0.8-0.6l-1.1-0.6l-0.6-0.8l-0.6-0.6l-0.6-0.8l-0.6-0.8l-0.6-1.1l-0.3-0.8l-0.8-12.6v-2
		l1.4,0.3v0.6l1.1,0.6l0.3-1.7l-1.1-0.3v0.3h-0.6l0.8-3.4l0.6,0.3v0.3l1.1,0.3l0.3-1.4l-1.1-0.3l-0.3,0.6l-0.3-0.3l2.2-7.8v-1.2
		l-0.3-0.3l-0.3-0.3l2.2-0.6l-4.2-16.3l-0.3-0.6v-0.3l-0.3-0.6l-0.3-0.3l-0.6-0.6l-0.6-0.3H937l-0.6-0.3h-0.6l-0.6,0.3l-0.6,0.3
		l-0.6,0.3l-0.3,0.6l-0.6,0.6l-0.3,0.6v1.4l2.2,7.8h-14l-0.8-0.6l-0.8-0.3l-1.1-0.6l-1.1-0.6l-1.7-0.6l-2-0.6l-2.8-0.6l-2-0.3h-4.5
		l-1.4,0.3l-1.7,0.3l-1.4,0.3l-1.7,0.6l-1.7,0.8l-1.7,0.8l-2,1.1l-2,1.1l-0.3,0.3l-4.2,4.2l-0.3,0.3l-0.3,0.3v1.4l0.3,0.6l0.3,0.3
		l0.3,0.3l0.3,0.3h0.3l-3.9,12.3l-2,1.7l-2,1.7l-1.7,2l-0.8,0.8l-0.8,1.4l-0.6,1.4l-1.1,2l-0.3,1.1l-1.1,1.7l-0.3,0.8l-1.4,2.2
		l-1.1,1.7l-2.2,2.8l-1.7,2l-2.2,1.4l-3.1,1.4l-2.5,1.1l-3.6,1.1l-4.2,0.8h-3.1l-3.4-0.3l-5.6-0.8l-10.1-2.5l-10.9-3.1h-0.8
		l-8.7-0.6h-5.3l-3.3-1.1l-2.2-1.1l-2.2-1.1l-2.2-1.1l-3.3-2.2l-2.5-1.5l-2.5-0.3l-2-0.3l-4.2-0.3l-2.8-0.3l-2-0.3l-5-0.6l-7-1.4
		l-8.4-1.7l-2.5,1.4l-6.7-2.8l-3.4-1.1l-3.1-1.1l-6.7-2.8l-2.5-0.8l-2.2-1.1l-5.9-2.3l-29.1-11.8l-0.6-2.5h-0.3l-4.5-2.8l-4.2-2.8
		l-3.9-11.2l13.5-4.5l0.6-0.3l0.3-0.3l0.3-0.3l0.3-0.3v-0.3l0.3-0.3v-0.6l-0.3-0.3v-0.3l-0.3-0.3v-0.3l-0.3-0.3h-0.3l-0.3-0.3h-1.1
		l-13.7,4.8l-4.8-13.2l13.7-4.8h0.6l0.3-0.3l0.3-0.6l0.3-0.6v-0.8l-0.3-0.3l-0.3-0.6l-0.3-0.3h-0.3l-0.6-0.3H684l-13.7,4.8l-3.4-8.7
		l5.9-14l-5.6-2.2l-5.9,14l-2,1.1l-9.5-4.2l-2-0.8l0.3-0.3l-0.6-1.7l5.6-13.7v-0.5l-0.3-0.3l-4.5-2h-0.3l-0.3,0.3l-0.3,0.3
		l-5.6,13.7l-1.4,0.8l-0.3,0.3l-12-4.8l0.3-0.3l-0.8-1.4l5.3-14.3v-0.6h-0.3l-0.3-0.3l-4.2-1.4h-0.8v0.3l-5.3,14.3l-1.1,0.6
		l-0.3,0.6l-12.3-4.2l0.3-0.6l-0.8-1.1l4.5-14.6v-0.6L612,949l-4.2-1l-0.6-0.3L607,948h-0.3v0.3l-4.5,14.6l-1.4,0.6l-12.3-3.7
		l-0.8-1.4l3.9-14.6v-0.3h-0.3v-0.3H591l-4.5-1.4h-0.3v0.3H586l-0.3,0.3l-3.6,14.6l-1.4,0.8l-12.6-3.1l-0.8-0.8l4.2-15.4l-0.6-0.6
		l-4.8-1.4l-0.8,0.6l-3.9,14.9l-1.1,0.8l-12.3-3.1l-0.8-1.4h-0.3l4.2-15.4l-5.6-1.4l-4.2,15.4l-1.4,0.6l-4.5-1.1l-1.4-2.5l-7-2
		l3.9-14.3l-2.2-0.6l-30.8,31.9l-4.5,4.5l-1.6,1.3l0,0l-3.5-5.9l-7.7-6.6h-11l-53.9-14.3l-14.3-17.6l-4.4-5.5l-100.8-25.5L188,885.1
		l-11.1,2.8l-20.3,5.7l-2.1-7.7l-4.5,1.3l2.1,7.7l-6.6,1.8l-2.2-8l-4.5,1.3l2.2,8l-24.2,6.7l-2.1-7.6l-5.4,1.5l2.1,7.6l-16.7,4.6
		l-2.5-9.1l-5.4,1.5l2.5,9.1l-37.1,10.3h-8.3L0,914.8v8.6l56.3,10.2l2.8,9.7l2.8,16.6l0,0l-1.5-8.8l-50.5-8L0,952.5v43.2l11-21.9
		l3.4-4l4-4h7.9l5.9,2l7.9,2l12.1,1.7h0l8.1,7.1l7.8,5.9l5.9,2h7.8h13.7l9.8-2l5.9-2l7.8-3.9l7.8-3.9l5.9-3.9l5.9-3.9l5.9-2l7.8-2
		h7.8h3.9l5.7,0.6l6.2,1.6h6.2l6.2-1.6l2.4-2.1l7.8-3.9l2-5.9l2-5.9l2-2l3.9-0.4h3.9h5.9h3.9l5.9,0.4l3.8,1.1l2.1,4.8v3.9l3.9,3.9
		l5.9,2h5.9h2h5.9h3.9h5.9l5.9,2h3.9l7.8,2l2.9-1.4l3.1-1.5h3.1l6.2,1.5l1.6,1.6l4.7,4.7l3.1,3.1l4.7,3.1l6.2,1.6h4.7l6.2-3.1
		l6.2-4.7l6.2-3.1l5.8,0.8l5.9,5.9l5.9,3.9l5.9,5.9h3.9h3.9h3.9l2-3.9l3.9-2h3.9l2,3.9l5.9,3.9l5.9,3.9l2,3.9v5.9l5.9,2l5.9,2h3.9
		l3.9-2l3.9-2h2l3.9-2l2-3.9h5.9l5.9,2h3.9h3.9h3.9l7.8,3.9l3.9,2h5.9h3.9l5.9,2l3.9,2l2,2l2,2l3.9,3.9l5.9,3.9l2,5.9v7.8l2,3.9
		l5.9,5.9l2,3.9l3.9,3.9l3.9,3.9l2,3.9l2,2l3.9,3.9l3.9,5.9l2,5.9l3.9,3.9l2.2,3.3h44.3l2.6,1h104.5h435.9h9.2h30.8h25.3h112.8h9.1
		H1920v0h-601.2v-12.1l-2-15.7v-15.7l-2-15.7l-2-17.7l-2-9.8v-11.8l2-7.8l5.9-5.9l13.7-17.7l11.8-13.7l23.5-27.5l9.8-11.8l7.8-5.9
		l7.8-3.9h7.8l9.8,2l7.8,2l9.8,2l7.8,2h21.6l7.8-2l9.8-2l13.7-3.9l13.7-3.9l13.7-2l15.7-2h17.7l5.6-1.5l9.3-4.7l10.8-4.7l12.4-4.7
		l9.3-3.1l7.8-4.5l-1.6-12.6l0.1,0l1.6,12.6l3-1.7l6.2-3.1l3.2-0.8h3.7l23.3,3.1l20.2,6.3l15.5,6.2l12.4,9.3l10.9,15.5l1.6,4
		l14.7-4.3l-14.7,4.4l6.2,16.2l7.8,31.1h0l3.1,9.3l3.1,7.8l6.2,15.5l9.5,19.4l7.6,11.7l8.9,10.1l3.6,0.7h4.7l6.2-4.7l4.7-4.7
		l1.6-7.8l1.6-4.7l3.1-3.1l4.7-1.6h4.7l4.7,3.1l2.2,4.7l2.5,4.7l3.1,4.7l6.2,9.3l4.7,9.3l1.5,1.6h1.8l1.3-1.6l4.7-4.7l6.2-9.3
		l4.7-4.7l4.7-3.1l7.8-4.7l4.4-1.6h4.9l6.2,1.6l6.2,3.1l7.8,4.7l7.8,4.7l15.5,6.2l17.7,3.1v-69.1h1v-38.9L1903.8,910.7L1903.8,910.7
		z M681.2,1079.9l0.9-0.9h9.6l3.5,0.9H681.2z M1171.5,1080l2.4-1h22.6l-2.7-8.3l3.1,9.3H1171.5z M1286.7,1031.8l-70.5,17l-2.3,1.5
		l-2.5,2.3l-2.9,5.6c-0.7,1.2-1.9,2-3.3,2c-0.6,0-1.2-0.2-1.8-0.5c-1.8-1-2.6-3.3-1.6-5.1l0,0l0,0c-1,1.8-0.3,4.1,1.6,5.1
		c0.5,0.3,1.2,0.4,1.8,0.4c1.4,0,2.7-0.8,3.3-2l2.9-5.6l2.5-2.3l2.3-1.5L1286.7,1031.8c2-0.5,3.3-2.6,2.8-4.6
		c-0.2-0.8-0.6-1.4-1.1-1.9c0.6,0.5,1,1.2,1.2,2C1290,1029.3,1288.8,1031.3,1286.7,1031.8z M1309.6,1080l-1-7.7l-1.6-20.2l-3.1-20.2
		l-6.2-12.4l-7.8-10.9l-26.4-23.3l-1.6-3.1l28-31.1l10.2-12.6l-10.2,12.6l-28,31.1l1.6,3.1l26.4,23.3l7.8,10.9l6.2,12.4l1.6,9.3
		l1.6,10.9l1.6,20.2L1309.6,1080L1309.6,1080z M1349,878.1l-0.8,1l4.4-6.3L1349,878.1z M1462.4,854.7l-4.3-22.9l0,0L1462.4,854.7
		L1462.4,854.7z M1777.8,951.1L1777.8,951.1l0.2-0.6L1777.8,951.1z M1808.7,952.7L1808.7,952.7l0-6.5h0V952.7z"/>
	<path class="st1" d="M1128.9,1007.2l99.2-30c0,0,0.1,0,0.1,0c1.2-0.4,1.9-1.7,1.5-2.9s-1.7-1.9-2.9-1.5l-99.3,30
		c-1.2,0.4-1.9,1.7-1.6,2.9C1126.3,1006.8,1127.6,1007.5,1128.9,1007.2z"/>
	<path class="st1" d="M1385.9,330.7l41.7,63.9c0.3,0.4,0.7,0.7,1.2,0.7c0.3,0,0.6-0.1,0.8-0.2c0.7-0.4,0.9-1.3,0.4-2l-41.7-63.9
		c-0.4-0.7-1.3-0.9-2-0.4l0,0C1385.6,329.2,1385.5,330.1,1385.9,330.7z"/>
	<path class="st1" d="M1426.9,434.1c0,0.8,0.7,1.4,1.5,1.4c0.2,0,0.5-0.1,0.7-0.2l101.6-53.3l0.1,0c0.6-0.4,0.9-1.2,0.6-1.8
		c-0.3-0.7-1.2-1.1-1.9-0.8l-101.7,53.3C1427.2,433,1426.9,433.5,1426.9,434.1z"/>
</g>
<g>
	<defs>
		<rect id="SVGID_1_" width="1920" height="1080"/>
	</defs>
	<clipPath id="SVGID_2_">
		<use xlink:href="#SVGID_1_"  style="overflow:visible;"/>
	</clipPath>
	<g class="st2">
		<path id="Pre1900_Kln" class="st3" d="M-379.4-686.7l0.6,1.3l6.2,10.9l3.1,4.7l3.1,4.7l1.6,4.7l1.6,6.2l1.6,3.1l1.6,4.7l1.6,1.6
			l4.7,1.6l3.1,3.1l1.6,3.1l3.1,3.1l3.1,1.6h4.7l1.6-1.6l4.7-3.1h6.2l9.4-1.6l9.4-7.8l4.7-10.9l4.7-9.4l3.1-14l4.7-9.4l9.4-4.7
			l9.7-6.7h5.7l5-1.5l4.6-3h12.6l5.6,1.5l4.3,0.8l4.9,0.8l4.7,1.5h3.3l4.2,1.5l4.6,1.5l3,1.5l4.6,3l4.6,3l3,3l3,3l3.1,3l3,1.5h5.4
			l0.6-1.5h1.5l2.3,1.5l2.3-1.5l1.5-1.5l1.5-1.5v-4.4l-1.5-1.7v-3l1.5-1.6l1.5-1.4v-7.6l-1.4-1.5l-1.6-1.5l-1.5-1.5l-1.5-1.5l-1.5-3
			v-3l1.5-3l1.5-3l1.5-1.5l3-3l3.1-3l3-1.5h2.9l3.2-1.5l1.5-3v-3l1.5-3l3-3l3-3l3-1.5l3.1-1.5l3-1.5h2.7l3.4-1.5l3-1.5l3-3l3-3
			l1.5-1.5l1.5-3l3-3l3.1-1.5h9.1l4.6,1.5h3.1l4.6,1.5h9.1l4.6,1.5l4.6,1.5l4.6,3l3,1.5h9.8l4.6,1.5l4.6,3l4.6,1.5h4.6l6.1-1.5
			l4.6-1.5l3-1.5l4.6-6.1l1.5-4.9l1.5-6.1l1.5-4.6l1.5-4.6l3-4.6l3-4.6l3-4.6l3.1-4.6l3-4.6l3-4.6l4.6-4.6l6.1-4.6
			c0,0,4.6-4.6,6.1-4.6s3-3,3-3v-3.2l-1.5-5.9l-1.5-4.6l-1.5-4.6l-1.5-4.6l1.5-4.6l3-3l3-1.5h6.1l0,1.5l-4.6,1.5l-3,1.5l-1.5,3v3
			l1.5,4.6l1.5,4.6l1.7,4.6l1.5,4.6v12.2l-1.5,3l-3,3h-9.2l-3,3l-3,3l-4.7,4.7l-3,4.6l-4.6,6.1l-3,6.1l-3.1,4.6l-1.5,4.6l-1.6,4.6
			l-1.5,4.6l-1.5,4.6l-3,4.6l-3,3l-3,4.6l-3,4.6l-1.5,4.6l-1.5,6.1v21.3l-1.5,4.6v3l1.5,4.6l1.5,7.6v7.6l-1,7.6l-0.5,6.1v10.7l1.5,3
			l1.5,4.6h-1l-3.5-1.5h-6.1l-1.8,1.5l-2.8,3l-3,3l-4.6,4.6L-56-642l-3,3l-3,3l-3,1.5l-3,6.1l-3,6.1l-3,6.1l-3,6.1l-3,4.6l-3,4.6
			l-1.5,6.1l-4.6,6.1l-4.6,4.6l-4.6,4.6l-3.1,3l-4.6,3l-4.6,4.6l-3,3l-4.6,1.5l-4.6,1.5h-3.8l-3.8,1.5l-1.5,1.5l1.5,3v7.6l1.5,3
			l-1.5,3l-1.5,3l-1.5,4.6l-1.5,4.6l-1.5,4.6l-3.1,6.1v10.7l-1.5,6.1l-1.5,6.1v9.1l1.5,6.1v4.6l1.5,6.1v12.2l-1.5,6.1v32l1.5,6.1
			l1.5,4.6l1.5,4.6l1.5,4.6l3.1,4.6l3,4.6l4.6,3l4.6,1.5h7.6l3,1.5l3,3l3,1.5l4.6,1.5l3,1.5l3,3l4.6,3l6.1,1.5l4.6,1.5h6.1l4.6,1.5
			h3l1.5,1.5l3,3l3,3l3,3l1.5,1.5h6.3l1.3,1.5H-31l2.4,1.5l3,1.5l3,1.5h2.6l3.4,1.5v4.6l1.1,6l1.6,6.2l1.6,6.2l3.3,3.5l4.7,1.6
			l1.6,4.7l1.6,3.1l1.6,4.7v4.7l-1.6,4.7v4.7l1.6,3.1l3.1,4.7h5.2l4.1,1.6h4.4l3.4,1.6l4.7,1.6l3.1,4.7L30-272v4.7l1.6,4.7l1.6,3.1
			l1.6,3.1l1.6,3.1h3.1l3.1,1.6h6.2l3.1,1.6l1.6,1.6v6.2l-1.6,3.1v3.1l1.6,1.6L55-233h2.2l2.5-1.6l3.1-1.6h1.6l4.6-1.5l6.2-1.6
			l4.7-1.6H83l3.1-1.6l1.6-3.1l1.6-3.1l1.6-3.1v-7.8l1.6-3.1l1.6-3.1l1.6-3.1v-4.6l-1.6-4.8v-1.6l3.1-1.6l1.6-3.1v-9.4l1.6-3.1
			l1.6-3.1v-3.1l-1.6-4.7v-6.2l1.6-5.2v-4.1l-3.1-4.7v-4.7l-4.7-7.8l-1.6-7.8v-6.2l-1.6-6.2l-1.6-6.3l-1.6-3.1l-1.6-3.1l-3.2-3.1
			l-3.8-0.5h-6.9l-4.2-1.4l-1.9-1.4l-1.6-4.7v-32.8l-1.6-4.7v-3.1l1.6-1.6l3.1,4.7l3.1,1.6l3.1,3.1v4.7l1.6,3.1l3.1,1.6l3.1,1.6
			l4.7,0.3l3.1-0.3h3.1l3.1,1.6v10.6l3.2,1.9l4.7,1.6l1.6,4.7l1.6,4.7l1.6,6.2l3.1,4.7l3.1,3.1l4.7,1.6h3.1l3.1,3.1l3.1,3.1v2.7
			l-4.6,3.5l-1.6,3.1l1.6,3.2l1.6,4.7v32.8l3.1,4.7l1.6,3.1l3.1,3.1l1.6,3.1l1.6,1.6l1.6,1.6l1.6,1.6l1.6,1.6v2.8l1.6,1.9l1.6,1.6
			l1.6,1.6l4.7,3.1l6.2,1.6l4.7,1.6h6.2l4.7,1.6l4.7,1.6l4.7,3.1h3.1l4.7,1.6l3.1,3.1v16l1.6,4.3l1.6,4.7l1.6,3.1l1.6,3.1l1.6,3.1
			l1.6,3.1l1.6,3.1l1.6,3.1v3.1l1.6,4.7v3.1l1.6,4.7l1.6,3.1l1.6,3.1l1.6,1.6l4.7,3.1l4.7,1.6l4.7,1.6l4.7,1.6h7.8l3.1-1.6l3.1-1.6
			l3.1-1.6l3.1-1.6l14.6-4.6l11.9-4.7l6.2,1.6l1.6,1.6l4.1,1.7h4.9l5-1.7l6.2-3.1l1.6-3.1l1.6-4.7v-2l1.6-1.1l1.6,3.1v2.9l3.1,1.8
			l4.7-1.6l12.5-4.7l6.2-1.6h3.1l4.7,1.6l1.6,3.1l1.6,3.1l4.7,3.1H372l6.2-1.6l7.8-1.6l4.7-3.1l1.6-3.1l1.6-3.1l-1.6-4.7l-4.7-4.7
			l-9.4-6.2l-3.1-3.1v-3.1l1.6-1.6h3.1l4.7,3.1l4.7,3.1l4.7,4.7l3.1,4.7l1.6,3.1l1.6,6.2v5.1l1.6,4.3h4.7l3.1-1.6v-6.9l-1.6-4
			l-3.1-6.2l-3.1-10.9v-14l1.6-1.6l1.6,1.6v3.1l1.6,3.1l1.6,1.6h3.1l4.7-3.1l3.1-1.6l1.6,3.1h4.6l4.7-1.6l3.1-1.6h3.2l9.4-1.6
			l6.2-3.1l6.2-4.7l3.1-4.7l3-4.7l4.2-5.7l9.6,5.7l5.7-1.9l3.8,3.8l5.7,1.9l7.6,7.6l7.6,5.7h3.8l9.6,7.7l9.6,7.6l5.7,5.7v5.6
			l3.8,7.8l5.7,5.7h7.7l3.8-3.8h1.9l1.9,5.7l7.7,3.8l3.8,1.9l5.7,3.8l5.7-1.9l1.9,5.7l11.5,5.7l11.5,11.5l7.7,5.7l1.9,9.6v9.3
			l1.9,13.6l5.8,19.1l7.7,21l9.6,19.1l7.7,7.7h5.4l0.3,11.5l3.8,7.7l-7.7,11.5l-7.7,9.6l-9.6-3.8H627l-7.7-3.8h-9.6l-9.6,1.9
			l-3.8,3.8l1.9,9.6l5.7,9.6l11.5,7.7l5.7,3.8l1.9,5.7l-1.9,3.8l1.9,3.8L634.6,23l9.6,9.6l1.9,3.8l3.8,3.8h3.8l1.9,1.9l3.8,1.9
			l1.9,5.7l1.9,7.7l3.8,5.7L671,67l1.9,3.8l-3.8,3.8l-1.9,1.9l-3.8,1.9l-4.9,1l-4.7,0.9l-5.8,1.9h-4.2l-3.4,3.8l-3.8,5.7l-5.7,19.1
			l1.9,17.2l-3.8,24.9l1.9,5.7l3.8,5.7l5.7,5.7l7.6,11.5l7.7,3.8l7.7-7.7l7.7-9.6l1.9-9.6l1.9-5.7l9.6-7.6l3.8-5.7l1.9-13.4
			l1.9-13.4l1.9-9.6l3.8-9.6l1.9-7.7V74.8l1.9-3.9l13.4-1.9l23,1.9l19.1,3.8l13.4,3.8l11.5,1.9l7.6,5.8v26.8l-1.9,5.7l1.9,5.7v7.7
			l-5.7,11.5l-3.8,5.7l-3.8,3.8v5.7l1.9,5.7v38.3l1.9,7.7l2,4.9v2.5l3.7,8v21.1l3.8,3.8l5.7,3.8l3.8,1.9l3.8,5.7v5.7l1.9,5.7
			l1.9,3.8v5.7l1.9,3.8v5.7l-1.9,1.9l-3.8,1.9l-3.8,1.9l-1.9,7.7l1.9,1.9v5.7l5.7,3.8l1.9,1.9l5.7,1.9l1.9,5.7l5.7,7.6l1.9,9.6
			l3.8,3.8v3.8l-2,7.6l-3.8,7.7l-1.9,9.6l3.8,1.9l7.7,7.6l7.7,5.7v9.6l-3.8,3.8v7.6l-1.9,5.7v15.3l-1.9,5.7l-3.8,7.6l-5.7,5.7
			l-7.7,1.9l-5.7,5.7l-1.9,5.7l-3.8,9.6l-3.8,9.5l-5.7,13.4l-3.8,1.9l-9.6,3.8l-3.8,3.9l-1.9,5.7l-1.9,5.4v13.8l1.9,3.8l3.8,5.7
			l7.7,1.9l3.8,1.9l3.8,5.6l1.9,9.7l1.9,7.7l-1.9,11.5l-1.9,10.7v10.3l1.9,11.5l1.9,14v18.6l3.8,7.7l3.9,7.6l1.9,7.7v17.3l-3.8,7.7
			l1.9,13.4l1.9,7.7l1.9,3.8l3.8,7.7l1.9,7.7l1.9,4.1v7.4l1.9,5.7l1.9,8.2v5.2l3.8,3.8h3.8l3.8-5.7l1.9-7.7l7.7-3.8l1.9-7.7l7.7-7.7
			l9.6-1.9l7.7-3.8H891l5.7-1.9h13.4l3.8,5.7l3.8,9.6l1.9,5.7l7.7,7v4.4l3.8,5.7h9.6l9.6-9.6l7.7-11.5l3.8-9.6v-11.4l-3.8-5.7
			l-3.8-11.5l1.9-7.7l1.9-13.4l3.8-15.3l3.8-13.4l3.8-9.6l5.7-13.4l3.8-13.4l5.7-19.1l3.8-17.2l3.8-3.8l5.7,1.9l5.7,3.8l5.7-1.9
			l3.8-5.7l7.7-11.5l3.8-19.1l1.9-13.4l3.8-15.3l3.8-13.4l3.8-9.6l5.7-5.7l7.7-9.6l5.7-3.8l3.8-5.7l3.8-3.8l5.7-3.8l5.7-3.8l3.8-2.5
			v-3.2l1.9-5.7l3.8-1.9l5.7-1.9l17.1-3.8l9.2,14.7l9.6-3.8l3.8-3.8l3.8-1.9h5.7l1.9,1.9l3.8,7.6c2.7,1.8,5.2,3.7,7.7,5.7
			c1.9,1.9,9.6,3.8,9.6,3.8l13.7-10.9l9.6,3.8l7.7,1.9l5.7,1.9l5.7,3.8l3.8,5.7l5.7,3.8l3.8,5.7l5.7,6.3v7.1c0,0,1.9,3.8,1.9,5.7
			s5.7,3.8,5.7,3.8l7.7,1.9l5.7,3.8l3.8,3.8l5.7,5.7l7.7,3.8l3.8,3.8v7.7l1.9,5.7l5.7,3.8l5.7,1.9h3.8l1.9,3.8l3.8,7.7l3.8,3.8
			l3.8,1.9l7.7,3.8l5.4,4.1l4.4,0.5l1.5-0.9l3.1-3.1l1.6-6.2v-7.8l-4.7-7.8l-3.1-7.8l1.6-10.9l7.8-9.4l1.6-17.6l5.7-13.4l7.7-7.6
			v-3.1l-0.9-3.5l-1.6-4.7l-4.7-4.7l-1.6-4.7l-6.2-7.8l-6.2-6.2l-10.9-6.2l-12.4-6.2l-10.9-4.5l-11.5-1.9l-5.7-5.7l-1.9-3.8v-7.6
			l-5.9-12.3l-7.5-10.7l-9.6-7.6l-7.7-13.4l-3.8-12.1v-52.9l1.9-20.3v-12.2l5.7-9.6l5.7-9.6l7.7-3.8l5.7-3.8l7.7-5.7l5.7-3.8h5.7
			l5.7,1.9l9.6-3.8l7.7-3.8l3.8-3.8l5.7-3.8l9.6-3.8l11.5-7.6l7.7-11.5l1.9-11.5v-13.4l-3.8-5.7l-5.7-5.7l-5.7-9.6l-15.3-9.6
			l-15.3-7.6l-13.4-5.7l-5.7-7.7l-1.9-15.3l1.9-15.3l1.7-6v-3.2h3.1l1.6,3.1v7.8l1.6,3.1l1.6,1.6h14l3.1-4.7l4.7-7.8l3.1-7.8
			l1.6-4.7l3.1-1.6v-1.6l-4.7-3.1l-3.1-3.1V47.7l3.1-1.6h3.1l4.5-2.1l3.8-5.7l4.2-7.8v-7.8l-1.6-7.8l-1-3.7l1.6-1.6l7.8-3.1l7.8-3.1
			l7.7-4l7.7-9.6l17.2-15.3l7.7-7.6l11.5-7.7l9.6-11.5l17.2-21l17.2-19.1l15.3-17.2l11.4-11.5c1.9-1.9,13.4-9.6,13.4-9.6l9.6-5.7
			l15.3-5.7l21-3.8l11.9-1.9h76.1l5.7,7.6l5.7,3.8l5.7,5.7l5.7,3.8h1.9l1.9-3.8l7.7,5.7l5.7-1.9l1.9,1.9l13.4,11.5l11.5,7.7l7-0.2
			l6.3-1.7v3.8l-6.3,4l1.6,2.5l2.9-0.8l4.6-1.7h3.1l7.7,7.4l-1.9,3.8l-5.8,5.5v6l1.9,7.7l5.7,3.8l7.7,3.8l7.7,1.9v1.9l1.9,3.8
			l3.8,1.9l1.9,1.9l-3.8,3.8l-1.9,5.7v7.7l-3.7,3.8l1.8,1.9l5.7-1.9l7.7,5.7l3.8,5.7l5.8,9.6l3.8,1.9l9.6,3.8l11.5,5.7l7.7,3.8
			l1.9,5.7l3.8,7.7l5.7,5.7l4.8,3.8h6.7l-3.8,3.4v2.4l3.8,2v3.8l7.7,5.7l9.6,7.7l7.7,11.5l3.8,5.7l5.7,5.7v5.7l1.9,5.7l-2.2,3
			L1828,94l-3.1,3.1l-4.7,3.1l-3.1,1.6l-3.1,3.1l-1.6,4.7l1.6,1.6l1.6,3.1l3.1,3.1l1.6,1.6v3.1l1.6,1.6v3.1l1.6,1.6l3.1,1.6l5.3,2
			l-0.7,1.1l-4.7,3.1l-4.7,3.1v1.6l1.6,1.6h4.6l-1.6,4.7l1.6,3.1l-3.1,6.2l-3.1,4.7h-3.1l-1.6,1.6v3.1l1.6,3.1l1.6,4.7l1.6,4.7
			l1.6,4.7v6.3l-3.1,4.7l-6.2,3.2l-4.7,3.1l-1.6,3.7v5.7l1.6,4.7l3.1,1.6l3.1,6.2v3l-1.6,6.2l-3.1,2.4v2.4l3.1,1.6l4.7,6.2l1.6,4.7
			l3.1,4.7l3.1,6.2l3.1,1.6l4.7,3.1l1.6,3.1l1.6,1.6h6.2l3.1,1.6l1.6,3.1l3.1,4.7l3.1,1.6l7.8,3.1l4.7,1.6l4.7,4.7l3.1,6.2l4.7,1.6
			l3.1,3.1h1.6l1.6-1.6l4.7-3.1h3.1l4.7,1.6l4.7,1.6h9.4l3.1,1.6l1.6,3.1l1.6,3.1l6.2,4.7l3.1,1.6l3.1,1.6l3.1,3.1l3.1,1.6l4.7,3.1
			l6.2,1.6l4.7,1.6h4.7l3.1-1.6h10.9l6.2,1.6l7.8,4.7l4.7,1.6l4.7,3.1l4.7,4.7l3.1,6.2l3.1,4.7l3.1,3.1l4.7,3.1l6.2,3.1h1.6l3.1-1.6
			l3.1-5.9v-6.6l1.6-1.6h4.7l4.7-1.6l4.7-1.6h1.6l1.6,1.6l18.7,25l7.8,10.9l1.6,3.1l4.7,3.1l6.2,3.1l4.7,3.1l6.2,4.7l6.2,3.1
			l3.1,1.6h3.1l4.7-1.6h3.1l6.2,1.6h9.4l3.1-4.7v-9.4l-1.6-10.9l1.6-6.2v-3.1l-1.6-12.5v-15.6l1.6-4.7h1.6l4.7,7.8l9.4,10.9l7.8,7.8
			l3.1,4.7l6.2,3.1l3.1,4.7v4.7l4.7,3.1l6.2,1.6l6.2,1.6l6.2,3.1l6.2,1.6l3.1-1.6l4.7-3.1h3.1v1.6l-1.6,1.6l-6.2,7.8l-6.2,7.8
			l-9.4,6.2l-7.8,4.7l-14,9.4l-6.2,6.2l-1.6,9.4l-3.1,6.2l-6.2,1.6h-7.8l-7.8,1.6l-3.1,1.6l-4.7,6.2l-4.7,6.2l-3.1,4.7l1.6,4.7
			l-1.6,9.4l-1.6,6.2l-1.6,6.2l-3.1,4.7l-3.1,3.1l1.6,1.6l1.6,3.1l1.6,3.1l-3.1,1.6h-6.2l-9.4,1.6l-6.9,3.1l-4,3.1l-4.7,7.7V548
			l7.8,10.9l3.1,7.5l1.6,9.7l-1.6,6.4v8.2l1.3,4.8l4.9,5l12.2,8.4l6.6,4.7l8.4,8.4l1.9,8.4l0.9,7.5l3.8,11.2l6.6,10.3l10.3,12.2
			l9.4,7.5l13.1,4.7l12.2,1.9l9.4,0.9l5.6,5l12.2,1.5l6.8-1.5l5.4-2.2l6.6-3.1l6.5,1.2l3.7,1.6l8.9,2.5h5.2l8.4-2.2l7.5,0.9l5.3,1.3
			l4.4,1.6h3.1l4.7,1.6h9.4l7.8-3.1h3.1l9.4,1.6h6.3l1.6,1.6l-1.6,1.6l-3.1,4.7l-3.1,4.7v3.1l-3.1,1.6l-4.6,3.2l-1.6,3.1l1.6,9.4
			l3.1,7.8l3.1,7.8l3.1,4.7l1.6,14l-3.1,1.6h-7.8l-6.2,3.1h-4.8l-3.1-1.6l-7.8-3.1h-4.7l-6.2,1.6l-7.8,3.1l-1.6,3.1v3.1l1.6,6.2
			l1.6,10.9l-1.6,3.1h-3.1l-4.7-3.1l-3.1-1.6l-3.1-3.1l-4.7-1.6l-4.7-3.1l-4.7-1.6h-4.7l-3.1,1.6l-1.6,4.7l2.9,5.5l2.9,5.8l1.9,6.8
			l7.9,8.4l12.5,9.4l4.7,1.6l6.2,1.6l3.1,1.6l4.7,7.8l-1.6,0.8v2.3l1.6,1.6l12.5,10.9l10.9,7.8h6.2l6.2-3.1l6.2-1.6l6.2-4.7l9.4-1.6
			l9.4-4.7l6.2-1.6l6.2-1.6l4.7-3.1h1.6v4.7l-1.6,3.1l-3.1,7.8l-1.6,6.2l-4.7,14l-1.6,7.8l-3,7.9l-7.8,9.4l-12.5,17.2l-6.2,9.4
			l-3.1,7.8l-3.1,3.1l-4.7,6.2v1.6l-3.1,7.8l-1.6,3.1l1.6,1.6l1.6,1.6l3.1,1.6l4.7,3.1l4.7,1.6l3.1,1.6h7.8l10.9,7.8l4.7,4.8
			l4.7,3.1l3.1,1.6l3.1,1.6h9.4l6.2,3.1l1.6,2.6v2l3.1,3.1l1.6,1.6h3.1l7.1,2.3l8.8,3.3l11,1.1h10.9l10,2.2l8.4,0.5l3.9,1.6h10.2
			l3.1-1.6l6.2-1.6l4.7-1.6l1.6-3.1l7.8-15.6l3.1-3.1l14-17.2l3.1-5.7v-9.9l1.6-1.6l1.6,1.6l1.6,1.6h3.1l1.6-1.6l3.1-3.1v-4.7
			l-3.1-3.1l-4.7-3.7v-4.1l4.2-1.6h3.6l4.6-3.1h3.2l4.7-1.6l4.7-4.7l1.6-4.7l3.1-1.6l4.7-1.6l4.7-1.6l1.6-4.7l1.6-4.7l1.6-3.1
			l3.1-4.7l3.1-4.7l3.1-3.1l4.7-1.6l4.7-3.1l3.1-4.7l1.6-4.7v-6.2l1.6-6.2l1.6-4.7h1.6l2.5,1.6h2.2l1.6-3.1l4.7-1.6h4.7l3.1-1.6
			l10.9-7.8l4.7-6.2l14-15.6V807l2.5-6.2l2.2-3.1l3.1,1.6l-0.1,1.6h3.3l3.1-3.1l7.8-9.4l1.6-3.1l-1.6-4.7V768l3.1-3.1l3.1-1.6
			l4.7-1.6l1.6,1.6l1.6,3.1l3.1-1.6l14-15.6l1.6-3.1V743l1.6-3.1l1.9-3.1l4.3-4.7l6.2-3.1h4.7l1.6,1.6l1.6,1.6l1.6,3.1l1.6,1.6
			l3.1-1.6l4.7-4.7l3.1-12.5l1.6-12.5l1.6-3.1v-3.1l-1.6-3.1l-3.1-6.2l3.8-5.1h12.1l6.6-19.8v-9.9l-2.2-8.8l-5.5-3.3l-5.5-3.3
			l0.1-4.5l-1.6-6.2l-1.6-4.7l-4.7-3.1l-4.7-1.6l-4.7-1.6l-5.3-1.6h-5.6l-6.2-4.7l-6.2-4.7l-7.8-4.7l-1.6-4.7l-1.6-7.8l-1.6-9.4
			v-3.1l3.1-6.2l1.6-6.2l1.6-1.6l1.6-1.6l3.1-3.1v-3.1l-1.6-1.6l-4.7-1.6h-3.1l-3.1,1.6l-3.1,1.6h-3.1l-3.1-1.6l-1.6-1.6h-4.7
			l-1.6,1.6l-7.8,6.2h-4.7l-3.1,1.6l-5.1,1.6h-7.3l-1.6-1.6l-3.1-4.7v-3.1l4.7-12.5l3.1-4.7l7.8-9.4l4.7-3.1l3.1-3.1l1.6-4.7v-3.1
			l1.6-1.6l3.2-3.1l1.6-3.1l1.6-4.7l3.1-3.1l6.2-4.7l3.3-3.1h9.2l7.8-4.7l9.4-6.2l10.9-7.8l7.8-6.2l3.1-6.2l3.1-6.2l4.7-3.1l3.1-4.7
			l4.7-7.8l4.7-4.7l1.6-4.7l1.6-7.8l1.6-7.8l3.1-10.9l1.6-6.2l3.1-3.1l4.7-6.2l1.6-7.8l3.1-7.8l6.2-4.7l1.6-4.7l6.2-9.4l1.6-6.2
			l3.1-9.4l1.6-10.9l1.6-3.1l4.7-4.7h1.6l2.3,1.6h2.4l1.6-1.6l4.7-6.3v-7.8l-1.6-4.7l-1.6-4.7l-0.8-3.1l-2.3-1.6l-1.6,1.6h-4.7
			l-3.1-1.6l-4.7-4.7v-4.7l-3.1-4.7l-1.6-4.7v-4.7l-1.6-4.7l-3.1-4.7l-3.1-6.2v-3.1l3.1-7.8v-4.7l-3.1-4.7l-1.6-3.1v-9.4l1.6-3.1
			V211l-3.1-3.1l-1.6-4.7l-1.6-15.6l-1.6-10.9v-3.1l-1.6-4.7l-1.6-3.1l-1.6-1.6l-1.6-1.6l-1.6-1.6h-3.1l-1.6-1.6l-1.6-1.6v-3.1
			l-1.6-1.6l-3.1-1.6l-6.2-1.6l-3.1-1.6l-7.8-3.1h-3.1l-7.8-3.1h-7.8l-11-3.1l-7.8-3.1l-4.7-6.2l-3.1-6.2l-1.6-3.1l-1.6-3.1
			l-3.1-1.6h-4.7l-4.7,1.6l-4.7,1.6l-3.1,3.1l-1.6,1.6l-3.1,1.6h-1.6l-1.6-1.6l-1.6-1.6l-1.6-1.6v-4.7l1.6-4.7l1.6-4.7l1.6-3.1
			l1.6-3.1l3.1-3.1v-9.4l-3.1-4.7l-1.6-3.1v-3.1l-1.6-1.6h-4.7l-1.5-1.6l-1.6-1.3V69l1.6-3.1l1.6-3.1l3.1-3.6v-2.6l1.6-1.6l7.8-7.8
			l3.1-1.6l1.6-1.6l3.1-1.6h3.1l1.6,1.6l1.6,1.6l3.1,1.6l3.1,3.1l3.1,1.6h7.8l3.1-1.6h3.1l1.6-3.1l1.6-4.7l1.6-4.7l6.2-1.6h3.1
			l3.1-3.1l4.7-1.6h4.7l3.1-1.6l3.1-3.1h7.8l3.1-1.6l3.1-1.6h6.2l3.1,1.6l1.6,1.6l9.2,4.7h18.9l4.7,1.6l3.1,1.6l3.1,1.6l1.6,1.6
			l3.1,4.7l1.6,1.6l1.6,1.6l1.6,1.6l3.1,1.6l4.7,1.6l4.7,1.6h7.8l2.3,0.8l1.6,1.6l1.6,1.6l1.6,1.6l1.6,3.1l1.6,3.1l1.6,4.7l1.6,3.1
			V76l1.6,7.8v1.6l3.1,3.1l1.6,3.6v4.2l1.6,6.2l1.6,4.7l4.7,9.4l3.3,5.5l3,3.9l1.6,1.6l21.9,20.3l3.1,3.1l1.6,1.6l1.6,3.1l1.6,2.2
			v2.4l1.6,1.6l1.6,1.6v3.1l-0.8,2.1v3.4l1.6,3.2l1.6,3.1v25l-1.6,3v3.3l3.1,3.1l3.1,4.7l3.1,4.7l3.1,4.7l1.6,4.7l3.1,3.1l6.2,1.9
			v4.4l4.7,1.6l9.4,3.1l7.8,3.1l12.5,4.7l13.7-3.4l15.9-11.2l8.4-16.9l-2.9-19.7l-6.6-20.6l1.4-12.3l8-3.8l6.6,13.3l5.6,17.8l4.7,15
			l21.1,13.1h9.6"/>
		<path id="Pre1900_HKI" class="st3" d="M2.8,1729.2l0.1-0.7l1-4.3l1.5-6.2l1.6-4.7l9.4-17.2l6.3-17.2l1.6-4.7l-1.6-21.7v-12.7
			l-1.6-4.7l-3.1-3.4l-1.6-4.4v-4.7l1.6-1.5v-1.6l-1.6-3.1l-4.7-7.8l-7.1-7.8l-2.3-1.6l-7.8,1.6l-3.1-3.1l-1.6-3.1v-3.1l3.1-7.8
			l-1.6-3.1l-7.8-6.3l-1.6-1.6l1.6-1.6l3.1-1.6v-1.6l1.6-3.1l3.1-3.2v-3.1l-4.7-3.1l-4.7-4.7l-1.6-3.1l-4.7-1.6l-1.6-1.6l-1.6-3.1
			l-1.6-3.1l-4.7-3.1l-3.1-3.1h-3.1l-1.6,3.1l-1.6,2.2v2.5l-1.6,3.1l-1.6,1.8v7.6l-3.1,1.6h-6.3l-1.6,1.6l-1.6,3.1v3.1l-1.6,3.1
			l-3.1,1.6h-1.6l-3.1,1.6l-3.1,4.7l-1.6,3.1l-1.6-1.6v-3.1l-3.1-3.1l-4.7-1.6h-6.3l-1.6-1.6l-4.7-1.6l-1.6-1.6l-4.7-1.6l-3.1-3.1
			l-6.3-1.6l-4.7-4.7l-1.6-6.3l-1.6-3.1l-4.7-7.8l-3.1-9.4v-9.4l-1.6-1.6l-4.7-4.7l-1.6-3.1l3.1-4.7l1.6-11l1.6-7.8l3.1-7.8
			l-1.6-1.6l-1.6-6.9v-5.6l-4.7-10.1v-7.1l-3.1-1.6l-3.1-3.1l-0.8-6.7l-2.4-5.8l-1.2-3.1l-1.9-1.6l-6.3,1.6l-1.6-1.6l-1.6-4.7
			l-1.6-1.6l-6.3-4.7l-4.7-4.7l-1.6-4.7l1.6-3.1l-1.6-3.1l-3.1-1.6l-3.1-1.6v-3.1l1.6-1.6v-1.6l-1.6-1.6l3.1-3.1l3.1-3.1v-4.7
			l1.6-7.8l3.1-4.7l3.1-7.8v-6.3l-3.1-7.8l-4.7-1.6l-6.3-1.6l-3.1-1.6l-1.6,1.6l-4.7,3.1l-7.8,3.1l-4.7,3.1h-4.7l-6.3,1.6l-7.8,1.6
			l-10.3-1.6h-5.3l-4.7-1.6l-3.3-1.6h-3l-3.1-1.6l-3.1-1.6l-4.9-3.1h-10.7l-11-6.3l-3.1-4.7l-1.6-1.6l-3.1-1.6l-1.6-3.1l-3.1-6.3
			l-7.8-12.5l-6.3-9.4l-6.3-6.3l-7.8-4.7l-9.4-3.1l-6.3-6.3l-4.7-6.3l-1.6-6.3v-14.1l1.6-23.5l-1.6-6.3l-1.6-9.4l-1.6-10.9v-4.6
			l1.6-3.1l4.7-6.3l6.3-6.3l3.1-7.8l1.6-11l1.6-7.8l1.6-6.3l3.1-4.7l4.7-4.7l12.5-7.8l23.5-11l17.2-6.2l27.3-7.8h13.4l4.7-3.1
			l3.1-3.1l1.6-1.6l1.6,1.6l3.1,1.6h4.7l7.8-1.6l3.1-1.6l1.6-3.1l3.1-4.7l1.6-3.1l4.7-3.1l4.7-3.1l4.7-1.6l3.1,1.6l2.5,0.8h4.6
			l4.7-1.6l6-3.1h8.1l7,7l6.3,8.1l4,2l5.9,4l5.9,2l7.9,2h7.9l7.9-2l7.9-2l5.9-2l5.9-2l9.9-5.9l5.9-5.9l4-5.9l4-7.9l2-5.9l2-5.9l4-4
			l4-4l5.9-4l7.9-4l5.9-5.9l3.9-4l4-2l5.9-4l2-9.9l2-5.9l4-5.9l4-5.9v-9.9v-0.8c-0.7-1.3-2-3.2-2-3.2l2-5.9l4-4h7.9l5.9,2l7.9,2
			l12.1,1.7l3.4,3l2.8,2.8l1.9,1.3l7.8,5.9l5.9,2h21.2l9.8-2l5.9-2l7.8-3.9l7.8-3.9l5.9-3.9l5.9-3.9l5.9-2l7.9-2h11.8l5.7,0.6
			l6.2,1.6h6.2l6.2-1.6l2.4-2.1l7.8-3.9l2-5.9l2-5.9l2-2l3.9-0.4h13.7l5.9,0.4l3.8,1.1l2.1,4.8v3.9l3.9,3.9l5.9,2h23.5l5.9,2h3.9
			l7.8,2l2.7-1.1l3.1-1.5h3.1l6.2,1.5l1.5,1.5l4.7,4.7l3.1,3.1l4.7,3.1l6.2,1.5h4.7l6.2-3.1l6.2-4.7l6.2-3.1l5.8,0.8l5.9,5.9
			l5.9,3.9l5.9,5.9h11.8l2-3.9l3.9-2h3.9l2,3.9l5.9,3.9l5.9,3.9l2,3.9v5.9l5.9,2l5.9,2h3.9l3.9-2l3.9-2h2l3.9-2l2-3.9h5.8l5.9,2
			h11.8l7.8,3.9l3.9,2h9.8l5.9,2l3.9,2l2,2l2,2l3.9,3.9l5.9,3.9l2,5.9v7.8l2,3.9l5.9,5.9l2,3.9l3.9,3.9l3.9,3.9l2,3.9l2,2l3.9,3.9
			l3.9,5.9l2,5.9l3.9,3.9l3.9,5.9l5.9,5.9l3.9,3.9l2,3.9l2,3.9l2,3.9l5.9,3.9l3.9,7.8l3.9,3.9h5.9l5.9,2h5.4l3.9,2l3.9-2h13.7l3.9-2
			l9.8-2l9.8,2l9.8,2l11.8,3.9l9.8,3.9l9.8,3.9l5.9,3.9l7.8,5.9l7.8,5.9l7.8,5.9l2,3.9v7.9l2,1.9h1.8l2.2-2l2-2l5.9-2h13.7l3.9-2
			l3.9-2l3.9-3.9l5.9-3.9h2l2,2l2,2l3.9,3.9l2,2l3.9,3.9v2.5l-5.9,5.3l-3.9,3.9l-3.9,5.9l2,3.9h7.6l8.1,2l5.9,3.9l3.9,2l3.9,2
			l5.9,3.9l3.9,2l3.9,3.9l2,2l7.8,5.9l5.9,3.9l5.9,3.9l5.9,3.9l3.9,3.9l3.9,2h9.5l5.9-2h3.9l5.9,2l5.9,3.9h26.6l4.8,3.9l7.8-2l3.9-2
			l5.9-2l3.9-2l5.9-2l7.8-5.9l5.9-2l7.8-2h5.9l5.9-3.9l3.9-2l3.9-2l13.7,3.9l13.7-9.8l5.9-7.8v-7.8h11.8l19.6-5.9l9.8-7.8l7.8-2
			l11.8,17.7l-2,11.8l3.9,17.7l3.9,3.9h11.8l7.8-3.5l7.8-8.3l5.9-7.8l5.9-2l13.7-5.9l9.8-9.8l-5.9-15.7v-7.8l2-5.9v-3.9l-2-5.9v-3.9
			l2-9.8l2-5.9l3.9-5.9l2-5.9l2-5.9v-3.9l-3.9-3.9l-2-2v-2l2-2l2-2l2-2l3.9-2l5.9-2l5.9,2l5.9,5.9l2,9.8v4.1l-2,5.9l-3.9,3.9l-2,3.9
			v3.9l5.9,2l5.9,3.9l7.8,7.8l7.8,5.9l9.8,3.9l11.8,3.9l11.8,2h15.7l5.9,7.8l7.8,5.9l5.9,2l9.8-2l9.8-3.9l9.8-2l13.7-3.9h29.4
			l7.8-5.9l2-7.8l-2-9.8l-3.9-7.8l-3.9-9.8v-13.7l-2-11.8l-2-11.8v-15.7l-2-15.7v-15.7l-2-15.7l-2-17.7l-2-9.8v-11.8l2-7.8l5.9-5.9
			l13.7-17.7l11.8-13.7l23.6-27.4l9.8-11.8l7.8-5.9l7.8-3.9h7.8l9.8,2l7.8,2l9.8,2l7.8,2h21.6l7.8-2l9.8-2l13.7-3.9l13.7-3.9l13.7-2
			l15.7-2h17.7l5.6-1.5l9.3-4.7l10.9-4.7l12.4-4.7l9.3-3.1l10.9-6.2l6.2-3.1l3.2-0.8h3.8l23.3,3.1l20.2,6.2l15.5,6.2l12.4,9.3
			l10.9,15.5l7.8,20.2l7.8,31.1l3.1,9.3l3.1,7.8l6.2,15.5l9.5,19.4l7.6,11.7l8.9,10.2l3.6,0.7h4.7l6.2-4.7l4.7-4.7l1.6-7.8l1.6-4.7
			l3.1-3.1l4.7-1.6h4.7l4.7,3.1l2.2,4.7l2.4,4.7l3.1,4.7l6.2,9.3l4.7,9.3l1.6,1.6h1.8l1.3-1.6l4.7-4.7l6.2-9.3l4.7-4.7l4.7-3.1
			l7.8-4.7l4.4-1.6h4.9l6.2,1.6l6.2,3.1l7.8,4.7l7.8,4.7l15.5,6.2l18,3.1h8.4l6.2,1.5l4.7,3.1l9.3,9.3l10.9,10.9l4.7,7.8l3.1,3.1
			l4.7,7.8l3.1,3.1l6.2,7.8l7.8,10.9l6.2,10.9l7.8,7.8l4.7,3.1l7.8,3.1l14,7.8l9.3,3.1l14,3.1l3.5,3.8l2.8,6.9l3.9,5.5l4.7,9.4
			l11,22l11,22l4.7,3.1l9.4,4.7l14.1,6.3l7.9,3.1l4.7,4.7l11,4.7h11l7.9-7.9l6.3-11l3.1-7.8l-1.6-4.7l-6.3-6.3l-4.7-20.4l4.7-9.4
			l11-28.3v-6.3l-1.6-11l-1.6-7.9l-1.6-7.8l1.6-4.7l4.7-6.3l6.3-4.7l9.4-1.6l6.3,1.6l4.7,1.6l11,3.1h9.4l11-4.7l6.3-6.3l1.6-4.7
			l-3.1-1.6l-1.6-4.7l1.6-3.1v-1.6l-1.6-3.1l1.6-3.1l3.1-1.6l-1.6-3.1l1.6-1.6l4.7-3.1l6.3-3.1l4.1-3.4l5.5-1.1l9.9,3.3l9.9,8.8
			l7.7,8.8l5.5,6.6l6.6,7.7l4.4,5.5l4.4,3.3l3.3,5.5l5.5,3.3l5.5,4.4l4.4,4.4l4.4,3.3l5.5,2.2l7.7,4.4l3.1,3.7l6.3,3.1l3.9,4
			l0.1,1.4l-0.9,0.9l-1.6,1.6l1.6,3.1l1.6,1.6h3.1l1.6,1.6v3.1l-1.6,3.1l-1.6,4.7l-1.6,4.7l-6.3,11l-1.6,4.7l-3.1,1.6l-4.7,4.7
			l-3.1,1.6l-6.3,1.6h-3.1l-6.3,4.7h-1.6l-3.1,1.6l-7.9,9.4l-1.6,4.7v6.3l3.1,3.2l7.9,11v1.6l3.1,4.7l7.9,9.4l1.6,3.1l1.6,3.1
			l4.7,4.7l6.3,7.9l1.6,7.9l1.6,4.7l3.1,4.7l6.3,4.7h4.7l4.7-1.6l6.3-1.6l17.3-4.7h3.1l4.7,1.6h3.1l1.6-1.6l6.3-6.3h1.6v6.3l1.6,4.7
			l-1.6,7.8l-1.6,3.2v1.6l-1.6,1.6h-4.7l-1.6,1.6l-3.1,1.6l-1.6,3.1h-1.6l-4.7-3.1l-1.6-1.6l-1.6,1.6l-1.6,3.1l-3.1,6.3l-4.7,3.1
			h-3.1l-1.6,1.6l1.6,3.1l-1.6,4.7l-6.3,7.9l-4.7,3.1l-6.3,7.9l-1.6,4.7v4.7l3.1,4.7l-1.6,1.6l-4.7,9.4l-1.6,9.4l-1.6,3.1l-7.9,4.7
			v3.1l1.6,6.3l-1.6,3.1v3.1l1.6,3.2l3.1,1.6l1.6,3.1v1.6l1.6,1.6l-4.7,3.1l-4.7,4.7v4.7l-3.1,1.6l-3.2,1.6v3.2l1.6,6.3l-1.6,4.7
			l-3.1,4.7l-3.1,7.8l-3.1,11l-4.7,3.1v3.2l1.6,3.1l3.1,9.4l6.3,12.6l3.1,4.7l1.6,3.1h3.1l3.1-3.1l6.3-1.6l1.6,3.1v3.1l-1.6,9.4
			l-1.6,4.7l-6.3,12.6l-3.1,1.6h-3.1l-6.3,3.2l-4.7-1.6l-7.9-4.7v-4.7l1.6-3.1l1.6-4.7v-3.1l-1.6-1.6l-4.7-3.1h-1.6l-1.6,3.1
			l-1.6,1.6l-3.1,1.6h-4.7l-3.1-3.1l1.6-4.7l1.6-4.7v-4.7l-1.6-3.1h-1.6v4.7h-6.3l-4.7-3.1h-1.6l-1.6,3.1l-1.6,1.6v3.1l1.6,1.6h-4.7
			l-3.1,3.2l1.6,1.6l1.6,1.6v3.1l1.6,3.1l1.6,4.7l-1.6,3.1v1.6l3.1,4.7l3.1,3.2l1.6,4.7l3.1,6.3l1.6,1.6h7.9l1.6,1.6l4.7,7.8h9.4
			l3.1,3.2l1.6,4.7v4.7h6.3l7.9,4.7v3.1h6.3l4.7-1.6l7.9,1.6l11-7.9h3.2l4.7-3.1h3.1l6.3-6.3l6.3-3.2l6.3-7.8l6.3-1.6h9.4l6.3-1.6
			l7.9-3.1l3.1-5.8l1.6-0.5l9.4-4.7l9.4-4.7l3.1-4.7l12.6-12.6h1.6l3.1,3.1h3.1l4.7-1.6h4.7l1.6-4.7l6.3-3.2l11-3.1v-1.6l4.7-3.1
			h6.3l3.1-1.6l3.1,3.1h6.3l3.1,1.6l4.7,4.7h1.6l3.1-1.6l1.6,1.6l4.7,4.7l4.7,1.6l1.6,1.6v4.7l3.1,4.7l4.7,6.3l1.6,3.1l3.1,4.7
			l3.1,1.6l3.1,3.1l14.1,14.1l1.6,6.3l1.6,1.6l3.1,4.7l6.3,14.1l1.6,3.1l-1.6,3.2l1.6,3.1v4.7l1.6,3.1l6.3,4.7h1.6l1.6-4.7l3.1-3.1
			l4.7-1.6l4.7-3.1l7.9-4.7l7.9-7.8l9.4-6.3l6.3-6.3l4.7-11l3.1-12.6l-0.8-4.2l-7.1-14.7l-1.6-3.2l1.6-1.6l4.7-1.6l3.1-1.6l7.9-4.7
			l2.8-1.3l3.3-3.3l6.6,4.4l5.5,5.5l4.4,3.3l4.4,1.1l4.4,3.3l7.7,4.4l11,13.2l5.5,3.3l3.3,3.3l3.3,3.3l6.6,5.5l4.4,5.5l3.3,3.3
			l5.5,4.4l3.3,2.2l4.4,6.6l11,12.1l4.7,9.5l1.6,4.4l0.4,1.4l-2.2,2.2h-1.1l-3.3-1.1l-1.6-0.7h-4.7l-3.6,4h-4.4l-8.8,1.1l-3.7,4.3
			h-3.1l-1.6,4.7l-3.1,4.7l-4.7,9.4l-1.6,7.9l-3.1,7.8v3.2l3.1,3.1v3.1l1.6,1.6l1.6,4.7h1.6l1.6,1.6l-1.6,3.1l1.6,4.7l-1.6,3.1
			l1.6,4.7l1.6,1.6l-1.6,3.1l1.6,3.1h1.6l1.6-1.6l1.6,1.6v1.6l3.1,4.7l6.3,7.8l-1.6,1.6v3.1l-1.6,3.1l1.6,1.6h1.6l6.3,6.3v1.6
			l-1.6,1.6h-1.6l-3.1,3.1v3.1l3.1,4.7l-1.6,3.1l-1.6,7.9l-3.1,1.6l-4.7-3.2h-3.1l-1.6,3.2l-0.8,4.2"/>
		<g id="_2019_HKI_Shoreline">
			<polyline class="st4" points="-88.2,1037.1 -78.7,1027.5 -50.4,1000.6 4,948.7 			"/>
			<polyline class="st5" points="6.9,945.9 9.8,943.1 13.8,943.7 			"/>
			<line class="st6" x1="22.3" y1="945.1" x2="52.2" y2="949.8"/>
			<polyline class="st5" points="56.4,950.5 60.4,951.1 59.7,947.1 			"/>
			<polyline class="st5" points="57.4,937.5 56.3,933.6 52.4,932.9 			"/>
			<line class="st7" x1="44.8" y1="931.5" x2="3.1" y2="923.9"/>
			<polyline class="st5" points="-0.7,923.2 -4.7,922.5 -4,918.6 			"/>
			<polyline class="st5" points="-3.9,918.1 -3.3,914.2 0.6,914.9 			"/>
			<polyline class="st8" points="7.9,916.2 43.8,922.5 52.2,922.5 62.3,919.6 			"/>
			<polyline class="st5" points="65.9,918.6 69.7,917.5 68.7,913.7 			"/>
			<polyline class="st5" points="68.1,911.7 67,907.8 72.4,906.3 73.5,910.2 			"/>
			<polyline class="st5" points="74.1,912.3 75.2,916.1 79,915 			"/>
			<polyline class="st5" points="85.4,913.3 89.2,912.2 88.2,908.4 			"/>
			<polyline class="st5" points="87.8,907 86.7,903.1 92.1,901.6 93.2,905.5 			"/>
			<polyline class="st5" points="93.6,906.8 94.6,910.7 98.5,909.6 			"/>
			<polyline class="st5" points="107.4,907.2 111.3,906.1 109.2,898.5 114.6,896.9 116.7,904.6 120.6,903.5 			"/>
			<line class="st9" x1="126" y1="902" x2="134.3" y2="899.7"/>
			<polyline class="st5" points="137,898.9 140.9,897.9 139.8,894 			"/>
			<polyline class="st5" points="139.7,893.8 138.6,889.9 143.1,888.6 144.2,892.5 			"/>
			<polyline class="st5" points="144.3,892.8 145.4,896.6 152,894.8 149.9,887.1 154.4,885.8 156.5,893.5 160.4,892.4 			"/>
			<polyline class="st10" points="168.2,890.3 176.9,887.9 188,885.1 296.1,889.2 396.8,914.7 401.2,920.2 415.5,937.8 425.8,940.5 
							"/>
			<polyline class="st5" points="429.7,941.6 433.6,942.6 434.6,938.7 			"/>
			<polyline class="st5" points="435.3,936.1 436.3,932.3 435.7,931.4 429.8,930 429.8,929.2 430.1,927.2 429.3,927 428.7,928.9 
				424.9,927.8 			"/>
			<polyline class="st5" points="423.5,925.7 422.8,924.7 423.4,921.9 426.5,920.2 426.8,920.2 430.7,921.3 430.4,923.3 
				431.2,923.3 431.8,921.6 432.1,920.8 435.9,921.8 			"/>
			<line class="st11" x1="440.9" y1="923.2" x2="448.4" y2="925.2"/>
			<polyline class="st5" points="450.9,925.9 454.8,927 455.3,926.4 456.2,923.3 			"/>
			<polyline class="st5" points="457.3,919.3 458.1,916 457.9,915.5 453.1,914.1 453.7,912.1 452.8,911.8 452.3,913.8 450.6,913.5 
				451.1,911.3 450.3,911.3 450,913.2 446.1,912.2 			"/>
			<line class="st12" x1="442" y1="911.1" x2="435.8" y2="909.5"/>
			<polyline class="st5" points="433.7,908.9 429.8,907.9 428.2,904.8 429,902 429.8,901.5 433.7,902.5 			"/>
			<polyline class="st13" points="441.6,904.6 461.2,909.9 469.3,912.1 			"/>
			<polyline class="st5" points="473.2,913.3 476.1,914.1 476.6,914.9 475.8,917.7 474.9,918.2 			"/>
			<polyline class="st5" points="473.4,919 472.7,919.4 469.6,918.5 470.2,916.3 469.1,916.3 468.5,918.3 467.1,917.7 467.7,915.7 
				466.8,915.5 466.3,917.7 461.5,916.3 460.9,916.6 459.9,920.5 			"/>
			<polyline class="st5" points="459,924 458.1,927.2 458.4,927.8 464.6,929.5 464.3,930.3 464.6,930.6 464,932.3 464.9,932.6 
				465.4,930.6 469.6,931.7 471.3,934.8 470.5,937.6 467.7,939.3 463.5,938.2 463.8,936.5 463.2,936.2 462.6,937.9 462.4,937.9 
				462.1,938.7 456.2,937 455.3,937.6 454.6,940.5 			"/>
			<polyline class="st5" points="453.7,943.8 452.7,947.7 456.5,948.7 			"/>
			<polyline class="st14" points="463.8,950.6 469.4,952.1 480.4,952.1 487.4,958.1 			"/>
			<polyline class="st5" points="489.5,961.2 491.5,964.6 491.5,964.6 493.2,963.3 494.5,962 			"/>
			<line class="st15" x1="500.8" y1="955.6" x2="522.6" y2="933"/>
			<polyline class="st5" points="525.7,929.7 528.5,926.9 530.7,927.4 529.7,931.3 			"/>
			<polyline class="st5" points="527.8,937.8 526.8,941.7 533.8,943.7 535.2,946.2 539.7,947.3 541.1,946.8 542.1,942.9 			"/>
			<polyline class="st5" points="544.2,935.2 545.3,931.3 550.9,932.7 549.8,936.6 			"/>
			<polyline class="st5" points="547.7,944.3 546.7,948.2 547,948.2 547.8,949.5 551.7,950.5 			"/>
			<polyline class="st5" points="556.3,951.7 560.1,952.6 561.3,951.8 561.9,949.3 			"/>
			<polyline class="st5" points="564.4,939.8 565.2,937 566,936.4 570.8,937.8 571.3,938.3 570.3,942.2 			"/>
			<polyline class="st5" points="568.2,949.9 567.1,953.8 568,954.6 570.7,955.3 			"/>
			<polyline class="st5" points="578.3,957.1 580.6,957.7 582,956.8 583,953 			"/>
			<polyline class="st5" points="584.8,945.5 585.6,942.3 585.9,942 586.2,942 586.2,941.7 586.5,941.7 591,943.1 591.2,943.1 
				591.2,943.4 591.5,943.4 591.5,943.7 590.5,947.3 			"/>
			<polyline class="st5" points="588.6,954.4 587.6,958.2 588.4,959.6 590.7,960.3 			"/>
			<polyline class="st5" points="598.4,962.6 600.8,963.3 602.2,962.7 603.3,958.9 			"/>
			<polyline class="st5" points="605.5,951.7 606.6,948.2 606.6,947.9 606.9,947.9 607.2,947.6 607.8,947.9 611,948.7 			"/>
			<line class="st16" x1="611.5" y1="952.2" x2="609.6" y2="958.5"/>
			<polyline class="st5" points="608.9,960.6 607.8,964.4 608.6,965.5 608.3,966.1 612.1,967.4 			"/>
			<polyline class="st5" points="616.9,969 620.7,970.3 620.9,969.7 622,969.2 622.8,967.2 			"/>
			<polyline class="st5" points="626.1,958.4 627.4,954.9 627.4,954.6 627.7,954.6 627.9,954.6 628.2,954.6 632.4,956 632.7,956.3 
				633,956.3 633,956.6 633,956.8 631.8,960.1 			"/>
			<polyline class="st5" points="629,967.4 627.7,971.1 628.5,972.5 628.2,972.8 631.9,974.3 			"/>
			<polyline class="st5" points="636.5,976.1 640.3,977.6 640.5,977.3 642,976.5 642.7,974.6 			"/>
			<polyline class="st5" points="646.3,965.7 647.5,962.7 647.8,962.5 648.1,962.2 648.4,962.2 651.8,963.7 			"/>
			<line class="st17" x1="652.1" y1="967.5" x2="649.3" y2="974.4"/>
			<polyline class="st5" points="648.4,976.6 647.5,978.7 648.1,980.4 647.8,980.7 649.8,981.5 651.5,982.3 			"/>
			<polyline class="st5" points="655.7,984.1 659.3,985.7 661.3,984.6 662,983 			"/>
			<polyline class="st5" points="665.6,974.3 667.2,970.6 672.8,972.8 671.2,976.5 			"/>
			<polyline class="st18" points="669.1,981.6 666.9,986.8 667.8,989.2 			"/>
			<polyline class="st5" points="668.8,991.8 670.3,995.5 674,994.2 			"/>
			<polyline class="st5" points="681.8,991.5 684,990.8 684.5,990.8 684.8,990.8 685.4,991 685.7,991 685.9,991.3 686.2,991.9 
				686.5,992.2 686.5,992.7 686.5,993 686.2,993.5 685.9,994.1 685.7,994.4 685.1,994.4 681.8,995.5 			"/>
			<polyline class="st5" points="675.1,997.8 671.4,999.2 672.7,1002.9 			"/>
			<polyline class="st5" points="674.8,1008.6 676.1,1012.3 679.9,1011 			"/>
			<polyline class="st5" points="687.1,1008.5 689.9,1007.6 690.1,1007.6 690.4,1007.6 690.7,1007.6 691,1007.6 691.3,1007.8 
				691.5,1007.8 691.8,1008.1 691.8,1008.4 692.1,1008.7 692.1,1009 692.4,1009.2 692.4,1009.5 692.4,1009.8 692.1,1010.1 
				692.1,1010.4 691.8,1010.6 691.5,1010.9 691.3,1011.2 690.7,1011.5 689.8,1011.8 			"/>
			<polyline class="st5" points="681,1014.7 677.3,1016 678.6,1019.7 			"/>
			<polyline class="st19" points="680.2,1024.3 681.2,1027.2 684.7,1029.5 			"/>
			<polyline class="st5" points="686.7,1030.8 689.9,1032.8 690.1,1032.8 690.7,1035.3 694.4,1036.8 			"/>
			<polyline class="st20" points="701.9,1039.8 719.8,1047.1 725.7,1049.3 728,1050.4 730.5,1051.3 737.2,1054.1 740.3,1055.2 
				743,1056.1 			"/>
			<polyline class="st5" points="746.7,1057.6 750.4,1059.1 752.9,1057.7 754,1057.9 			"/>
			<polyline class="st10" points="762,1059.5 768.3,1060.8 773.4,1061.4 775.3,1061.6 778.1,1061.9 782.3,1062.2 784.3,1062.5 
				786.8,1062.8 789.3,1064.3 792.6,1066.5 794.8,1067.6 797,1068.7 799.2,1069.8 802.5,1070.9 807.8,1070.9 816.5,1071.4 
				817.3,1071.4 828.3,1074.5 838.4,1077.1 844,1077.9 847.3,1078.2 850.4,1078.2 854.6,1077.3 858.3,1076.2 860.8,1075.1 
				863.9,1073.7 866.1,1072.3 867.8,1070.3 870,1067.5 871.1,1065.8 872.5,1063.6 872.8,1062.8 873.9,1061.1 874.2,1060 875.3,1058 
				875.9,1056.6 876.8,1055.2 877.6,1054.4 879.3,1052.4 881.2,1050.7 883.2,1049 884.7,1044.4 			"/>
			<polyline class="st5" points="885.9,1040.5 887.1,1036.7 886.8,1036.7 886.5,1036.4 886.3,1036.1 886,1035.9 885.7,1035.3 
				885.7,1035 885.7,1034.7 885.7,1034.2 885.7,1033.9 886,1033.6 886.3,1033.3 888.5,1031.1 			"/>
			<polyline class="st21" points="896,1026 896.4,1025.8 898,1024.9 899.7,1024.4 901.1,1024.1 902.8,1023.8 904.2,1023.5 
				905.9,1023.5 908.7,1023.5 910.7,1023.8 913.5,1024.4 915.4,1024.9 917.1,1025.5 918.2,1026.1 919.3,1026.6 920.2,1026.9 
				921,1027.5 926.8,1027.5 			"/>
			<polyline class="st5" points="931.3,1027.5 935.3,1027.5 934.2,1023.6 			"/>
			<polyline class="st22" points="935.5,1015.8 935.9,1015.7 936.4,1015.7 937,1016 937.5,1016 938.1,1016.3 938.7,1016.8 
				939,1017.1 939.2,1017.7 939.2,1017.9 939.5,1018.5 941.6,1026.4 			"/>
			<polyline class="st5" points="942.7,1030.9 943.7,1034.7 941.5,1035.3 941.8,1035.6 942,1035.9 942,1036.4 942,1037 941.5,1039 
							"/>
			<polyline class="st5" points="940.9,1041 939.8,1044.8 940.1,1045.1 940.3,1044.6 941.5,1044.8 941.2,1046.2 940.1,1045.9 
				940.1,1045.7 939.5,1045.4 938.7,1048.8 939.2,1048.8 939.2,1048.5 940.3,1048.8 940.1,1050.4 939,1049.9 939,1049.3 937.5,1049 
				937.5,1051 937.7,1053 			"/>
			<polyline class="st23" points="938.1,1059.8 938.4,1063.6 938.7,1064.4 939.2,1065.6 939.8,1066.4 940.3,1067.3 940.9,1067.8 
				941.5,1068.7 942.6,1069.2 943.4,1069.8 944.3,1070.3 945.1,1070.6 946.2,1070.6 947.1,1070.6 949.3,1070.6 950.7,1070.6 
				952.7,1070.3 968.6,1068.6 			"/>
			<polyline class="st5" points="972,1068.2 975.9,1067.8 975.9,1067.5 976.2,1067 976.8,1066.4 976.8,1065.8 976.6,1064.1 			"/>
			<polyline class="st5" points="975.5,1055 975.1,1051.3 975.1,1051 975.4,1051 975.4,1050.7 975.7,1050.7 975.9,1050.4 
				980.4,1050.2 980.7,1050.2 981,1050.2 981,1050.4 981.3,1050.7 981.7,1054.3 			"/>
			<polyline class="st5" points="982.7,1063.4 982.9,1065.6 984.1,1067 987.4,1066.4 988,1066.3 			"/>
			<polyline class="st24" points="995.1,1065.6 1004.2,1064.2 1008.7,1063.6 1015.7,1062.5 1025.8,1061.1 1047.8,1057.7 			"/>
			<polyline class="st5" points="1051.3,1057.2 1055.2,1056.6 1054.8,1057.1 1057.9,1054.5 			"/>
			<line class="st25" x1="1064.8" y1="1048.6" x2="1075.1" y2="1039.8"/>
			<polyline class="st5" points="1078.9,1037.6 1082.9,1036.8 1085.1,1039 1084.1,1042.9 			"/>
			<line class="st13" x1="1078.3" y1="1048.5" x2="1069.1" y2="1056.7"/>
			<polyline class="st5" points="1066.1,1059.4 1063.1,1062.1 1063.1,1064.3 1063.5,1066 			"/>
			<polyline class="st5" points="1066.4,1076.9 1067.5,1080.8 1071.1,1079.1 			"/>
			<line class="st26" x1="1079" y1="1075.5" x2="1090.9" y2="1070.1"/>
			<polyline class="st5" points="1094.9,1068.3 1098.6,1066.7 1098.6,1062.7 			"/>
			<line class="st27" x1="1098.6" y1="1055.3" x2="1098.6" y2="1044.2"/>
			<polyline class="st5" points="1098.6,1040.5 1098.6,1036.5 1098.6,1036.5 1094.7,1035.7 			"/>
			<polyline class="st5" points="1097.2,1031.4 1101.1,1032.2 1104.8,1025.8 1108.8,1025 			"/>
			<polyline class="st5" points="1113.6,1024 1115.8,1023.6 1117.6,1023.6 1116,1019.9 			"/>
			<path class="st28" d="M1112,1010.5l-0.2-0.4c-0.5-1.2,0-2.6,1.2-3.1c1.2-0.5,2.6,0,3.1,1.2l3,7"/>
			<polyline class="st5" points="1121.1,1020 1122.7,1023.7 1126.7,1023.7 			"/>
			<polyline class="st5" points="1133.9,1021.7 1137.8,1022.5 1139.6,1026.1 			"/>
			<polyline class="st29" points="1138.5,1033.5 1135.6,1045.6 1131.2,1068.7 1131.2,1074.9 			"/>
			<polyline class="st5" points="1131.4,1078.7 1131.8,1082.7 1135.7,1082.1 			"/>
			<polyline class="st30" points="1142.4,1078.8 1165.1,1062.5 1169.2,1055.6 1177.6,1048.7 1187.3,1043.1 1198.3,1040.3 
				1206.7,1038.9 1238.5,1032 1252,1026.9 1254.9,1024 1258.8,1019.2 1262.6,1011.4 1263.4,1006.5 			"/>
			<polyline class="st5" points="1263.5,1002.8 1263.5,998.8 1260.2,996.5 			"/>
			<polyline class="st14" points="1257.6,989.8 1256.6,982.1 1255.9,978.7 			"/>
			<polyline class="st5" points="1255.2,975.1 1255.2,971.1 1251.8,968.8 			"/>
			<path class="st31" d="M1245.6,964.6l-17.7-12c-1.1-0.7-1.5-2.2-0.8-3.3c0.7-1.1,2.2-1.5,3.3-0.8c0,0,0.1,0.1,0.1,0.1l10.4,7"/>
			<polyline class="st5" points="1244.2,957.7 1247.5,960 1250.1,956.9 			"/>
			<polyline class="st32" points="1255.4,950.8 1281.9,919.8 1299.3,901.5 1302.1,899 1329.3,873.5 1330.4,872.4 			"/>
			<polyline class="st5" points="1333.7,870.1 1334.3,869.9 1335.1,869.9 1336,869.9 1336.8,870.2 1337.5,870.5 1340.5,867.9 			"/>
			<path class="st33" d="M1346.6,862.7l16.6-14.1l9.7-6.8l13.6-6.8l12.6-4.8l27.1-6.8l22.3-6.8l4.8-1h4.8c1,0,5.8,1.9,5.8,1.9
				l26.8-0.8"/>
			<polyline class="st5" points="1494.7,816.6 1495.9,816.6 1498.7,816 1496.9,813.7 1496.9,812.6 			"/>
			<polyline class="st5" points="1495.5,802.2 1494.7,798.3 1499.8,797.2 1500.5,801.1 			"/>
			<polyline class="st5" points="1503.4,811.2 1503.7,811.7 1503.2,815 1507.1,814.2 			"/>
			<path class="st5" d="M1517.2,812.1l3.9-0.8l-0.9-4.8c-1.1-0.5-1.9-1.4-2.1-2.5c-0.2-1.2,0.2-2.4,1.1-3.3l-0.7-3.9"/>
			<polyline class="st5" points="1517.6,792.2 1516.9,788.2 1522.6,787.2 1523.3,791.1 			"/>
			<path class="st5" d="M1524.1,795.6l0.7,3.9c1.1,0.5,1.9,1.4,2.2,2.6c0.2,1.3-0.2,2.5-1.1,3.4l0.8,4.6l3.9-0.8"/>
			<polyline class="st34" points="1537.9,807 1555,801.1 1563,799.1 			"/>
			<polyline class="st5" points="1566.6,798.2 1570.5,797.2 1570.5,793.2 1574.5,793.2 			"/>
			<polyline class="st5" points="1576.5,793.2 1580.5,793.2 1580.5,796.5 1584.4,796.9 			"/>
			<polyline class="st35" points="1592,799.4 1593.8,800.1 1621.9,803 1634.5,805 1650.8,810.8 1667.4,818.5 1685.8,824.3 
				1704.4,831.7 1714.9,837.9 1725.5,845.7 1731.3,849.5 1741.8,852.9 1746.9,853.2 1756.8,857.5 1767.3,863.6 1845.8,900.4 
				1893.1,909.2 1903.8,910.7 1936.7,917 1993.9,943.7 2027.6,977.6 			"/>
			<path class="st36" d="M1128.2,1007.3c0.2,0,0.5,0,0.7-0.1l99.2-30c1.2-0.3,2-1.6,1.6-2.9s-1.6-2-2.9-1.6c0,0-0.1,0-0.1,0
				l-99.3,30c-1.2,0.4-1.9,1.7-1.6,2.9C1126.2,1006.6,1127.2,1007.3,1128.2,1007.3L1128.2,1007.3z"/>
		</g>
		<g id="_2019_KLN_Shoreline">
			<polygon class="st37" points="1631,304.7 1506.7,184.1 1507.7,179.3 1521.3,140.6 1527.1,142.5 1662.6,272.6 			"/>
			<path class="st37" d="M2229.4,782.8l-1.9-2.9l-1-3.9l0.9-1l67.9-34.8l4.9-2.9l-14.5-36.8l-1.9-1.9l-10.7,1l-6.8,1l-4.8,1
				l-10.6,5.7l-6.6,2.8l-12.2-0.9l-8.8-2.5l-12.7,1.6l-14,2.1h-14.5l-2.9,5.7h-7.9l0.1-7.8l-7.6-1.1l-11.8-7.6l-9.7-7.8l-6.8-5.8
				l-7.3-12.5l-9.1-17.5l-7.8-17.4l-10.3-9.3l-43.1-23.6l-5.8-6.8l-48.4-59.1l7.8-6.8l-7.9-1.3l-15.9-12.7l-2-2.9
				c-0.1,0.1-0.1,0.2-0.2,0.2c-0.7,0.6-1.7,0.9-2.6,0.7l-9.2,9.2l-3.4-3.4l9.2-9.2c-0.2-0.9,0-1.9,0.7-2.6c0.4-0.4,0.9-0.6,1.5-0.7
				l-1.6-2.3l-20.2-29.2l-0.3-0.3l-8.8,6.7l-0.9-1.1l-29.5,21.1c-0.3,0.2-0.7,0.4-1.1,0.4c-1.1,0-1.9-0.9-1.9-1.9
				c0-0.6,0.3-1.2,0.8-1.6l29.4-21.1l-0.9-1.2l8.6-6.5l-5.4-10.5l-3.4,2.5l-1.9-2.6l3.7-2.7l-6.4-7.4l-1-1.9l-2.9-4.9l-3.6,3.3
				l-0.3-0.4l-10.1-13.8l-30.6-37.5l-30-34.9l-45.6-48.4l-17.4-16.5l-53.3,56.1l-76.8-73.8l-31.5,32.4l47.5,46.1l6.9,4.2l75.2,69.6
				l5.2,3.8l9.3,4.9l5.8,1l10.7-10.7l44.3,43.7l2.2,6.6l-2.2,20.9l0.2,2.4l41.9,43.4v7l-32.9,34.7h-7.3l-35.3-36h-7.6l-20.8-20.9
				l-13.8-18l-352-341l-15.8,8.2l-24.7,53.9l2.7,3l10.6,5l-2,4.4l-11.1-5.2h-3.4l-29.8,65v7.2l-3.3,7.8l-7.8,3.3l-3.8-0.9l-3.4,87.8
				l-0.5,2.3h9.7v8.7l-9.6-0.1l-0.1,4.4l15.6,13.7l27.1,22.6l2.9,2.9l-9.3,43.2l-14,64.3l3.9,13.6l2.9,10.7l-33,23.2l-8.5-0.6
				l-3.8-3.2l-5.2,11.5l-7.8,2.9l1.9,3.9l-12.6,5.8l-2.1-3.5l-7.7,3.3l-5.7,3.1l1,4.8l1,2.9l3.9,7.8l-4.8,2.9l-3.9-7.8l-1-2.9
				l-2.9-4.8l-105.6,47.4l-8.7-19.4l-17.2-0.1l-0.2,43.7l-16.3,10.3l-7-9.3l12.6-7.8v-28l-11.1,4.5l-6.6-2.2l-24.2-1.1L996.8,759
				l-7.4,9.4l-1.9,2.9l-8,22.6l-3.3,4.7l-0.4,1.8l-4.9,4.8l-21.3,26.2l-35.8,2.9l-9.7-7.8l-41,3.3l-0.7,1.5l-13.6,1l-17.4,1.9
				l-3.7-11.8l-6-0.8H818l-0.1-0.1l-7.5,10.5c-0.4,0.5-1,0.8-1.6,0.8c-1.1,0-1.9-0.9-1.9-1.9c0-0.4,0.1-0.8,0.4-1.1l7.9-11.2
				l-7.8-8.7l-0.5,0.3l-8.7,10.6c-0.4,0.4-0.9,0.7-1.5,0.7c-0.4,0-0.9-0.2-1.2-0.4c-0.8-0.7-0.9-1.9-0.3-2.7l8.4-10.3l1.8-4l3.9-3.9
				l-2.9-13.6l-80.5,16.4l-3-17.2l69.9-14.8l0.9-3.8l1-3.9l1.9-1h2.5l1.9,1.1l-3.4-13.7l-3.9-19.4l-36.2,7.4c-0.1,0-0.3,0-0.4,0
				c-1.2,0-2.2-0.9-2.3-2.1c0-1.1,0.8-2.1,1.9-2.2l29.3-6v-3.9l5.8-1.9l-2.9-11.6c-5.9,1.2-45.1,8.1-45.1,8.1c-0.1,0-0.3,0-0.4,0
				c-1.2,0-2.2-1-2.2-2.2c0-1.1,0.8-2,1.8-2.2c0,0,39-8.4,45-9.6L785,685l-55.4,12.3c-0.3,0.1-0.5,0.1-0.8,0.1
				c-2.1,0-3.7-1.7-3.7-3.8c0-1.8,1.2-3.3,3-3.7l45.3-8.8v-4.8l3.9-1l-4.4-9.7l-3.1-12.5l-1.1-8.7l-8.5,0.9l-10.7,7.5l-1.7-2.4
				l8.3-5.8l-1.2-0.2l-5.8,1.9l-1.9-1l-19.4,1.9l-18.3,2.4l-0.1,1.5l-41.7,5.8l-10.7,1l-2.9-1l-15.2,1.7v9h2.4v4.8h-9.7v-4.8h2.4
				V659l-10.9,2.7l-23.3,8.8l-15.2,14.5l-4.4,11l-1.7,1.7l-2.9,1l-4.2-0.4h-55l-8.8-6.6l-5.5-5.5l-4.5-8.6l-1.7-3.9v-29.7l-0.2-4
				l0.3-3.4L496,629l0.3-5.9l0.3-4.8l1.1-5l1.6-4.8l2.9-3.9l1-1l1.9-1.9l2.9-1.9l0.2-0.7v-33.1c0-4.7-2.7-6.6-4.8-8.1l-0.3-0.2
				c-2.5-1.8-8.8-3.2-10.9-3.6c-0.9-0.2-1.5-1.2-1.2-2.1c0.2-0.8,1-1.4,1.8-1.3c0.4,0.1,8.7,1.5,12.3,4.2l0.3,0.2
				c2.3,1.7,6.2,4.4,6.2,10.9v18l47.4-0.3l60.2-86L619,296.1l-12.2-29l-94.9-0.6l0.9,23.2c0,1.1-0.8,1.9-1.9,2h-0.1
				c-1,0-1.9-0.8-1.9-1.9l-1-24.2c0-1.1,0.8-2,1.9-2c0,0,0,0,0,0h0.1l-0.8-71.8v-26.6l-17.4-29.7l-9.7-8l-23,27.7h-0.6l-11.2-9.2
				l-0.3-0.8l23.3-27.7l-15.7-12.9l-8.1,10.1l-1.7-1.4l8.2-10.1l-9.9-8.1l-8.1,9.8l-1.7-1.4l8.1-9.8L430,83.8l-3.1,3.7l-1.4-1.1
				l2.8-3.7l-19.6-16.2l-9.5,11.5l-3.4-2.8l9.5-11.5l-17.4-15.1l-9.7,11.6l-3.9-2.9l9.7-11.6l-10.7-8.7l-5.8-4.8l-12.6-7.8l-6.3-4.5
				l-16-10.1l0,0L311-2.3l-20-14.1l-9.7-4.8l-5.2,8.2l7.1,4.1L282.7-8l-7.1-4.1l-1.6,2.6l7.2,4.8l-0.6,0.9l-7.2-4.8L271.1-5l6.2,4.2
				L276.7,0l-6.2-4.1l-8.1,12.8l7.7,5.1l-0.6,0.9l-7.7-5.1l-1.6,2.5l6.9,4.6l-0.6,0.9l-6.9-4.6l-1.4,2.2l-0.1,0.1l3.4,2.2l-0.6,0.9
				l-3.3-2.2l-1.9,3.1l3.1,2.1l-0.6,0.9l-3.1-2L247.4,33l13.9,8.6l-0.8,1.7l-16.7-10.1l2.7-4L209.7,5.8l-17.1,28l16.4,8.8l10.1,5.9
				l0.3-0.3h1.4l37.3,22.6l2.7,1.8c0.9,0.6,1,1.9,0.4,2.7c-0.6,0.8-1.7,1-2.5,0.5l-4.1-2.7l-1.9,1.2l6.5,4.7l-0.8,1.1l-7-5l-3.4,2.1
				l6,6l-1.2,1.2l-6.3-6.3l-6.8,4.3l9.8,9.8l-1.2,1.2l-10-10l-6.2,5l9.7,9.7l-1.5,1.4l-9.9-9.9l-0.5,0.4l-7.4,7.2l5.2,5.2l-1,1
				l-5.3-5.2l-6.8,6.7l5.3,5.3l-1,1l-5.3-5.3l-3.9,3.9l4.2,4.1l-1,1l-4.1-4.2l-1.3,1.2l6.4,7.8l6.2,4.9v0.3l0.6,0.6l10.3-10.3h0.3
				l0.6,0.6v0.3l-10,10.3l6.1,7.1l6.4-6.4l4.3,4.3l-6.4,6.4l1.4,1.7l5.3-5.3v-0.3h0.3v0.3l0.6,0.6h0.3v0.3h-0.3l-5.3,5.3l4.6,4.5
				l4.8-5l1.2,1.1l-4.8,5l8.7,8.6l13.4-13.4l-13.7-13.7l1.4-1.7l10.1,10.1l1.1-1.1l3.6,3.9l1.7-1l-3.9-3.9l1-1l3.9,3.9l9.6-10.6
				l-2.9-3l0.3-0.3l-9.5-9.6l1.5-1.5l9.5,9.6l10-10l-2.1-1.7l3.9-3.9l1.9,1.9l2.8-2.8l-5.4-3.9l1.3-1.7l5.7,4.1l3.5-3.5l-1-1
				l-0.1-0.1l-15.5-9.9c-0.9-0.5-1.3-1.7-0.7-2.6c0.5-0.9,1.7-1.3,2.6-0.7c0.1,0,0.1,0.1,0.2,0.1l10.2,6.5h4.3l1.9-1l1.9-1l1.9,1
				l1,1.9l2.9,1.9l3.9,3.9l3.9,2.9l7.9,6h0.6l0.6-0.3h0.8l0.3,0.3h0.6l0.6,0.3h0.3l0.6,0.6l0.3,0.3l0.3,0.3l0.3,0.3l0.3,0.6v0.3
				l0.3,0.6v0.6l0.5,0.8l3.5,0.8l4,5.6l2.8,7.5l2.4,4.5l5,7.6l1.9,9.4v8.4l-5.6,4.7l-6.6,1.1l-10.6,2.9l-8.7,4.9l-10.7,8.7l-7.8,7.8
				l-4.3,5.5l-1.9,4.7l-0.6,4.3l-2.9,2.9l-6.8,6.8l-2.8,6.6v6.4l0.9,5.8l2.8,4.7l3.7,2.8l-1.6,4.5l-6,2.2l-4.1,3.7l-2.4,5.6
				l-2.3,3.3l3.9,3.9l-8.6,9.5l-4-3.7l-12.4,10.4l-1.9,7.5l1.9,4.7l-6.5,8.4l-1.9,6.6l-1.9,7.5l-2.8,2.8l-3.8-1.9l-4.7-2.8l-5.6-4.7
				l-5.6-8.4l-1.9-7.5l-5.6-4.7l-7.5-2.8l-6.6-0.9l-3.7-3.8l-1.9-10.3v-6.8l0.3-4l-1.5-3.4l-7.8-7.2h-16.5l-3.6-1.3l-5.5-2.2
				l-4.3-3.8l-3.4,0.5l-3.3-1.1l-8.8,1.1v3.3l8.5,55.8l1.8,11.6v0.8l-0.3,0.6l-0.6,0.6l-62,11.7L81,322l-0.6-0.3l-0.6-0.3l-0.3-1.1
				l-5.9,1.1l-0.3-2.2l65.4-12.3l-1.7-8.6l-16.9-75.8l-1.9-3.8l-80,14.2v0.1l17.1,90.6c0.4,2-0.5,3.9-2.2,5l2,10.4
				c0.4,1.8-0.8,3.6-2.6,4c-1.8,0.4-3.6-0.8-4-2.6c0-0.1,0-0.1,0-0.2l-15.4-81.2L-11,237.4h-4.4l-5.5,3.3l-22.9,5.1l-4.2,2.3l-2.9,1
				h-2l-3.2-1.8l-169.2-92.2l1-3.9v-5.8l-2.9-10.7l7.8-11.6l8.7-8.7l8.7-10.7l-1-4.8L78.8,9.8L57.5-55.1L49.8-59L-113-7.7
				l-53.3-169.5L-49-214l-19.3-61.9l-117.3,36.7l-78.5-249l-96.9,30l-1.9-5.8l2.9-1l-1-2.9l-6.8-22.3l-5.8-11.6l-9.7-29.1l-1-3.9
				l1.9-1.9l-5.8-18.3l-4.8-2.9l-2.9-7.8l-7-12.8l1.1-5.6l6.6-7.6l8.9-3h2.9l1.9,4.8l-1,3.9l3.9,6.8l2.5,9l2.3,1.7l2.9-1.9l3.9,3.9
				l1,2.9l-1.9,1.9l1.8,1.6l0.3,0.2l12.5-2.8l10.4-69.7"/>
			<path class="st37" d="M526.4,524.2h-0.1c-7.1-0.2-13.4-4.6-16.1-11.2c-1.4-3.2-2.1-6.6-2.2-10.1V335.3c0-8.8-15.5-10.6-15.6-10.7
				c-1.1-0.2-1.8-1.2-1.6-2.2c0.2-1,1-1.7,2-1.6c0.8,0.1,19.1,2.3,19.1,14.5v167.6c0,0.7,0.2,16.6,14.6,17.4c1.1,0.1,1.8,1,1.7,2.1
				C528.2,523.4,527.4,524.1,526.4,524.2L526.4,524.2z"/>
			
				<rect x="749.2" y="659.3" transform="matrix(0.9913 -0.1314 0.1314 0.9913 -80.9491 104.3983)" class="st37" width="2.9" height="12.7"/>
			<path class="st37" d="M1428.8,395.3c-0.5,0-1-0.2-1.2-0.7l-41.7-63.9c-0.4-0.7-0.3-1.6,0.4-2c0.7-0.4,1.6-0.3,2,0.4l0,0
				l41.7,63.9c0.4,0.7,0.2,1.6-0.4,2C1429.3,395.2,1429,395.3,1428.8,395.3z"/>
			<path class="st37" d="M1428.3,435.5c-0.8,0-1.5-0.6-1.5-1.4c0-0.6,0.3-1.1,0.8-1.3l101.7-53.3c0.7-0.3,1.6,0,1.9,0.8
				c0.3,0.7,0,1.4-0.6,1.8L1429,435.4C1428.8,435.5,1428.5,435.5,1428.3,435.5z"/>
			<path class="st37" d="M1911.3,545.3c-8.1,0-18.4-2.9-20-3.3c-1-0.3-1.6-1.4-1.3-2.4c0.3-1,1.3-1.5,2.3-1.3
				c7.5,2.2,20.9,4.7,24.6,2.2c5.7-3.8,22-16.3,22.2-16.4c0.9-0.6,2.1-0.4,2.7,0.5c0.6,0.8,0.4,1.9-0.3,2.6
				c-0.7,0.5-16.6,12.7-22.4,16.5C1917.3,544.9,1914.4,545.3,1911.3,545.3z"/>
			<polyline class="st5" points="440,944.3 436.1,943.3 437.3,939.5 			"/>
			<polyline class="st5" points="438.2,936.2 439.1,933.1 439.6,932.6 443.5,933.6 			"/>
			<polyline class="st5" points="449.4,935.2 452.3,935.9 452.8,936.8 451.8,940.6 			"/>
			<polyline class="st5" points="451.1,943.1 450.1,947 446.3,946 			"/>
		</g>
	</g>
</g>
</svg>
