<?xml version="1.0" encoding="utf-8"?>
<!-- Generator: Adobe Illustrator 23.0.3, SVG Export Plug-In . SVG Version: 6.00 Build 0)  -->
<svg width="1920" height="1080" version="1.1" id="_1985" xmlns="http://www.w3.org/2000/svg" xmlns:xlink="http://www.w3.org/1999/xlink" x="0px" y="0px"
	 viewBox="0 0 1920 1080" style="enable-background:new 0 0 1920 1080;" xml:space="preserve">
<style type="text/css">
	.st0{opacity:0.8;}
	.st1{fill:#666666;}
	.st2{clip-path:url(#SVGID_2_);}
	.st3{fill:none;stroke:#FF8300;stroke-width:2.5;stroke-linecap:round;stroke-linejoin:round;}
	.st4{fill:none;stroke:#FF8300;stroke-width:2.5;stroke-linecap:round;stroke-linejoin:round;stroke-dasharray:7.41,7.41;}
	.st5{fill:none;stroke:#FF8300;stroke-width:2.5;stroke-linecap:round;stroke-linejoin:round;stroke-dasharray:8.66,8.66;}
	.st6{fill:none;stroke:#FF8300;stroke-width:2.5;stroke-linecap:round;stroke-linejoin:round;stroke-dasharray:9.2,9.2;}
	.st7{fill:none;stroke:#FF8300;stroke-width:2.5;stroke-linecap:round;stroke-linejoin:round;stroke-dasharray:7.55,7.55;}
	.st8{fill:none;stroke:#FF8300;stroke-width:2.5;stroke-linecap:round;stroke-linejoin:round;stroke-dasharray:7.47,7.47;}
	.st9{fill:none;stroke:#FF8300;stroke-width:2.5;stroke-linecap:round;stroke-linejoin:round;stroke-dasharray:4.01,4.01;}
	.st10{fill:none;stroke:#FF8300;stroke-width:2.5;stroke-linecap:round;stroke-linejoin:round;stroke-dasharray:6.46,6.46;}
	.st11{fill:none;stroke:#FF8300;stroke-width:2.5;stroke-linecap:round;stroke-linejoin:round;stroke-dasharray:7.81,7.81;}
	.st12{fill:none;stroke:#FF8300;stroke-width:2.5;stroke-linecap:round;stroke-linejoin:round;stroke-dasharray:5.19,5.19;}
	.st13{fill:none;stroke:#FF8300;stroke-width:2.5;stroke-linecap:round;stroke-linejoin:round;stroke-dasharray:4.3,4.3;}
	.st14{fill:none;stroke:#FF8300;stroke-width:2.5;stroke-linecap:round;stroke-linejoin:round;stroke-dasharray:8.2,8.2;}
	.st15{fill:none;stroke:#FF8300;stroke-width:2.5;stroke-linecap:round;stroke-linejoin:round;stroke-dasharray:8.13,8.13;}
	.st16{fill:none;stroke:#FF8300;stroke-width:2.5;stroke-linecap:round;stroke-linejoin:round;stroke-dasharray:8.52,8.52;}
	.st17{fill:none;stroke:#FF8300;stroke-width:2.5;stroke-linecap:round;stroke-linejoin:round;stroke-dasharray:4.38,4.38;}
	.st18{fill:none;stroke:#FF8300;stroke-width:2.5;stroke-linecap:round;stroke-linejoin:round;stroke-dasharray:6.54,6.54;}
	.st19{fill:none;stroke:#FF8300;stroke-width:2.5;stroke-linecap:round;stroke-linejoin:round;stroke-dasharray:5.49,5.49;}
	.st20{fill:none;stroke:#FF8300;stroke-width:2.5;stroke-linecap:round;stroke-linejoin:round;stroke-dasharray:4.81,4.81;}
	.st21{fill:none;stroke:#FF8300;stroke-width:2.5;stroke-linecap:round;stroke-linejoin:round;stroke-dasharray:8.02,8.02;}
	.st22{fill:none;stroke:#FF8300;stroke-width:2.5;stroke-linecap:round;stroke-linejoin:round;stroke-dasharray:8.16,8.16;}
	.st23{fill:none;stroke:#FF8300;stroke-width:2.5;stroke-linecap:round;stroke-linejoin:round;stroke-dasharray:9.09,9.09;}
	.st24{fill:none;stroke:#FF8300;stroke-width:2.5;stroke-linecap:round;stroke-linejoin:round;stroke-dasharray:9.1,9.1;}
	.st25{fill:none;stroke:#FF8300;stroke-width:2.5;stroke-linecap:round;stroke-linejoin:round;stroke-dasharray:6.8,6.8;}
	.st26{fill:none;stroke:#FF8300;stroke-width:2.5;stroke-linecap:round;stroke-linejoin:round;stroke-dasharray:7.89,7.89;}
	.st27{fill:none;stroke:#FF8300;stroke-width:2.5;stroke-linecap:round;stroke-linejoin:round;stroke-dasharray:8.74,8.74;}
	.st28{fill:none;stroke:#FF8300;stroke-width:2.5;stroke-linecap:round;stroke-linejoin:round;stroke-dasharray:7.97,7.97;}
	.st29{fill:none;stroke:#FF8300;stroke-width:2.5;stroke-linecap:round;stroke-linejoin:round;stroke-dasharray:7.2,7.2;}
	.st30{fill:none;stroke:#FF8300;stroke-width:2.5;stroke-linecap:round;stroke-linejoin:round;stroke-dasharray:8.23,8.23;}
	.st31{fill:none;stroke:#FF8300;stroke-width:2.5;stroke-linecap:round;stroke-linejoin:round;stroke-dasharray:6.94,6.94;}
	.st32{fill:none;stroke:#FF8300;stroke-width:2.5;stroke-linecap:round;stroke-linejoin:round;stroke-dasharray:4.97,4.97;}
	.st33{fill:none;stroke:#FF8300;stroke-width:2.5;stroke-linecap:round;stroke-linejoin:round;stroke-dasharray:7.98,7.98;}
	.st34{fill:none;stroke:#FF8300;stroke-width:2.5;stroke-linecap:round;stroke-linejoin:round;stroke-dasharray:8.35,8.35;}
	.st35{fill:none;stroke:#FF8300;stroke-width:2.5;stroke-linecap:round;stroke-linejoin:round;stroke-dasharray:5.96,5.96;}
	.st36{fill:none;stroke:#FF8300;stroke-width:2.5;stroke-linecap:round;stroke-linejoin:round;stroke-dasharray:4.37,4.37;}
	.st37{fill:none;stroke:#FF8300;stroke-width:2.5;stroke-linecap:round;stroke-linejoin:round;stroke-dasharray:4,4;}
	.st38{fill:none;stroke:#FF8300;stroke-width:2.5;stroke-linecap:round;stroke-linejoin:round;stroke-dasharray:5.41,5.41;}
	.st39{fill:none;stroke:#FF8300;stroke-width:2.5;stroke-linecap:round;stroke-linejoin:round;stroke-dasharray:7.27,7.27;}
	.st40{fill:none;stroke:#FF8300;stroke-width:2.5;stroke-linecap:round;stroke-linejoin:round;stroke-dasharray:8.88,8.88;}
	.st41{fill:none;stroke:#FF8300;stroke-width:2.5;stroke-linecap:round;stroke-linejoin:round;stroke-dasharray:7.96,7.96;}
	.st42{opacity:0.9;}
	.st43{fill:none;stroke:#FF8300;stroke-width:2.5;stroke-linecap:round;stroke-linejoin:round;stroke-dasharray:8.17,8.17;}
	.st44{fill:none;stroke:#FF8300;stroke-width:2.5;stroke-linecap:round;stroke-linejoin:round;stroke-dasharray:8.45,8.45;}
	.st45{fill:none;stroke:#FF8300;stroke-width:2.5;stroke-linecap:round;stroke-linejoin:round;stroke-dasharray:7.51,7.51;}
	.st46{fill:none;stroke:#FF8300;stroke-width:2.5;stroke-linecap:round;stroke-linejoin:round;stroke-dasharray:8.1,8.1;}
	.st47{fill:none;stroke:#FF8300;stroke-width:2.5;stroke-linecap:round;stroke-linejoin:round;stroke-dasharray:6.45,6.45;}
	.st48{fill:none;stroke:#FF8300;stroke-width:2.5;stroke-linecap:round;stroke-linejoin:round;stroke-dasharray:7.67,7.67;}
	.st49{fill:none;stroke:#FF8300;stroke-width:2.5;stroke-linecap:round;stroke-linejoin:round;stroke-dasharray:8.04,8.04;}
	.st50{fill:none;stroke:#FF8300;stroke-width:2.5;stroke-linecap:round;stroke-linejoin:round;stroke-dasharray:7.74,7.74;}
	.st51{fill:none;stroke:#FF8300;stroke-width:2.5;stroke-linecap:round;stroke-linejoin:round;stroke-dasharray:6.84,6.84;}
	.st52{fill:none;stroke:#FF8300;stroke-width:2.5;stroke-linecap:round;stroke-linejoin:round;stroke-dasharray:4.36,4.36;}
	.st53{fill:none;stroke:#FF8300;stroke-width:2.5;stroke-linecap:round;stroke-linejoin:round;stroke-dasharray:4.19,4.19;}
	.st54{fill:none;stroke:#FF8300;stroke-width:2.5;stroke-linecap:round;stroke-linejoin:round;stroke-dasharray:6.98,6.98;}
	.st55{fill:none;stroke:#FF8300;stroke-width:2.5;stroke-linecap:round;stroke-linejoin:round;stroke-dasharray:7.88,7.88;}
	.st56{fill:none;stroke:#FF8300;stroke-width:2.5;stroke-linecap:round;stroke-linejoin:round;stroke-dasharray:9.35,9.35;}
	.st57{fill:none;stroke:#FF8300;stroke-width:2.5;stroke-linecap:round;stroke-linejoin:round;stroke-dasharray:8.86,8.86;}
	.st58{fill:none;stroke:#FF8300;stroke-width:2.5;stroke-linecap:round;stroke-linejoin:round;stroke-dasharray:8.36,8.36;}
	.st59{fill:none;stroke:#FF8300;stroke-width:2.5;stroke-linecap:round;stroke-linejoin:round;stroke-dasharray:7.25,7.25;}
	.st60{fill:none;stroke:#FF8300;stroke-width:2.5;stroke-linecap:round;stroke-linejoin:round;stroke-dasharray:8.5,8.5;}
	.st61{fill:none;stroke:#FF8300;stroke-width:2.5;stroke-linecap:round;stroke-linejoin:round;stroke-dasharray:5.14,5.14;}
	.st62{fill:none;stroke:#FF8300;stroke-width:2.5;stroke-linecap:round;stroke-linejoin:round;stroke-dasharray:5.89,5.89;}
	.st63{fill:none;stroke:#FF8300;stroke-width:2.5;stroke-linecap:round;stroke-linejoin:round;stroke-dasharray:4.15,4.15;}
	.st64{fill:none;stroke:#FF8300;stroke-width:2.5;stroke-linecap:round;stroke-linejoin:round;stroke-dasharray:9.49,9.49;}
	.st65{fill:none;stroke:#FF8300;stroke-width:2.5;stroke-linecap:round;stroke-linejoin:round;stroke-dasharray:9.43,9.43;}
	.st66{fill:none;stroke:#FF8300;stroke-width:2.5;stroke-linecap:round;stroke-linejoin:round;stroke-dasharray:8.19,8.19;}
	.st67{fill:none;stroke:#FF8300;stroke-width:2.5;stroke-linecap:round;stroke-linejoin:round;stroke-dasharray:7.05,7.05;}
	.st68{fill:none;stroke:#FF8300;stroke-width:2.5;stroke-linecap:round;stroke-linejoin:round;stroke-dasharray:8.05,8.05;}
	.st69{fill:none;stroke:#FF8300;stroke-width:2.5;stroke-linecap:round;stroke-linejoin:round;stroke-dasharray:8,8;}
	.st70{fill:none;stroke:#FF8300;stroke-width:2.5;stroke-linecap:round;stroke-linejoin:round;stroke-dasharray:7.39,7.39;}
	.st71{fill:none;stroke:#FF8300;stroke-width:2.5;stroke-linecap:round;stroke-linejoin:round;stroke-dasharray:8.11,8.11;}
	.st72{fill:none;stroke:#FF8300;stroke-width:2.5;stroke-linecap:round;stroke-linejoin:round;stroke-dasharray:8.9,8.9;}
	.st73{fill:none;stroke:#FF8300;stroke-width:2.5;stroke-linecap:round;stroke-linejoin:round;stroke-dasharray:10.11,10.11;}
	.st74{fill:none;stroke:#FF8300;stroke-width:2.5;stroke-linecap:round;stroke-linejoin:round;stroke-dasharray:7.8,7.8;}
	.st75{fill:none;stroke:#FF8300;stroke-width:2.5;stroke-linecap:round;stroke-linejoin:round;stroke-dasharray:7.87,7.87;}
	.st76{fill:none;stroke:#FF8300;stroke-width:2.5;stroke-linecap:round;stroke-linejoin:round;stroke-dasharray:7.86,7.86;}
	.st77{fill:none;stroke:#FF8300;stroke-width:2.5;stroke-linecap:round;stroke-linejoin:round;stroke-dasharray:6.87,6.87;}
	.st78{fill:none;stroke:#FF8300;stroke-width:2.5;stroke-linecap:round;stroke-linejoin:round;stroke-dasharray:9.07,9.07;}
	.st79{fill:none;stroke:#FF8300;stroke-width:2.5;stroke-linecap:round;stroke-linejoin:round;stroke-dasharray:8.03,8.03;}
	.st80{fill:none;stroke:#FF8300;stroke-width:2.5;stroke-linecap:round;stroke-linejoin:round;stroke-dasharray:7.02,7.02;}
	.st81{fill:none;stroke:#FF8300;stroke-width:2.5;stroke-linecap:round;stroke-linejoin:round;stroke-dasharray:7.43,7.43;}
	.st82{fill:none;stroke:#FF8300;stroke-width:2.5;stroke-linecap:round;stroke-linejoin:round;stroke-dasharray:4.28,4.28;}
	.st83{fill:none;stroke:#FF8300;stroke-width:2.5;stroke-linecap:round;stroke-linejoin:round;stroke-dasharray:8.39,8.39;}
	.st84{fill:none;stroke:#FF8300;stroke-width:2.5;stroke-linecap:round;stroke-linejoin:round;stroke-dasharray:8.06,8.06;}
	.st85{fill:none;stroke:#FF8300;stroke-width:2.5;stroke-linecap:round;stroke-linejoin:round;stroke-dasharray:6.42,6.42;}
	.st86{fill:none;stroke:#FF8300;stroke-width:2.5;stroke-linecap:round;stroke-linejoin:round;stroke-dasharray:4.29,4.29;}
	.st87{fill:none;stroke:#FF8300;stroke-width:2.5;stroke-linecap:round;stroke-linejoin:round;stroke-dasharray:7.21,7.21;}
	.st88{fill:none;stroke:#FF8300;stroke-width:2.5;stroke-linecap:round;stroke-linejoin:round;stroke-dasharray:4.45,4.45;}
	.st89{fill:none;stroke:#FF8300;stroke-width:2.5;stroke-linecap:round;stroke-linejoin:round;stroke-dasharray:8.33,8.33;}
	.st90{fill:none;stroke:#FF8300;stroke-width:2.5;stroke-linecap:round;stroke-linejoin:round;stroke-dasharray:9.16,9.16;}
	.st91{fill:none;stroke:#FF8300;stroke-width:2.5;stroke-linecap:round;stroke-linejoin:round;stroke-dasharray:8.71,8.71;}
	.st92{fill:none;stroke:#FF8300;stroke-width:2.5;stroke-linecap:round;stroke-linejoin:round;stroke-dasharray:8.56,8.56;}
	.st93{fill:none;stroke:#FF8300;stroke-width:2.5;stroke-linecap:round;stroke-linejoin:round;stroke-dasharray:7.4,7.4;}
	.st94{fill:none;stroke:#FF8300;stroke-width:2.5;stroke-linecap:round;stroke-linejoin:round;stroke-dasharray:8.61,8.61;}
	.st95{fill:none;stroke:#FF8300;stroke-width:2.5;stroke-linecap:round;stroke-linejoin:round;stroke-dasharray:4.49,4.49;}
	.st96{fill:none;stroke:#FF8300;stroke-width:2.5;stroke-linecap:round;stroke-linejoin:round;stroke-dasharray:7.57,7.57;}
	.st97{fill:none;stroke:#FF8300;stroke-width:2.5;stroke-linecap:round;stroke-linejoin:round;stroke-dasharray:4.52,4.52;}
	.st98{fill:none;stroke:#FF8300;stroke-width:2.5;stroke-linecap:round;stroke-linejoin:round;stroke-dasharray:8.14,8.14;}
	.st99{fill:none;stroke:#FF8300;stroke-width:2.5;stroke-linecap:round;stroke-linejoin:round;stroke-dasharray:7.83,7.83;}
	.st100{fill:none;stroke:#FF8300;stroke-width:2.5;stroke-linecap:round;stroke-linejoin:round;stroke-dasharray:8.07,8.07;}
	.st101{fill:none;stroke:#FF8300;stroke-width:2.5;stroke-linecap:round;stroke-linejoin:round;stroke-dasharray:8.79,8.79;}
	.st102{fill:none;stroke:#FF8300;stroke-width:2.5;stroke-linecap:round;stroke-linejoin:round;stroke-dasharray:7.58,7.58;}
	.st103{fill:none;stroke:#FF8300;stroke-width:2.5;stroke-linecap:round;stroke-linejoin:round;stroke-dasharray:7.65,7.65;}
	.st104{fill:none;stroke:#FF8300;stroke-width:2.5;stroke-linecap:round;stroke-linejoin:round;stroke-dasharray:7.88;}
	.st105{fill:none;stroke:#FF8300;stroke-width:2.5;stroke-linecap:round;stroke-linejoin:round;stroke-dasharray:7.63;}
	.st106{fill:none;stroke:#FF8300;stroke-width:2.5;stroke-linecap:round;stroke-linejoin:round;stroke-dasharray:4.41;}
	.st107{fill:none;stroke:#FF8300;stroke-width:2.5;stroke-linecap:round;stroke-linejoin:round;stroke-dasharray:2.92;}
	.st108{fill:none;stroke:#FF8300;stroke-width:2.5;stroke-linecap:round;stroke-linejoin:round;stroke-dasharray:5.87,5.87;}
	.st109{fill:none;stroke:#FF8300;stroke-width:2.5;stroke-linecap:round;stroke-linejoin:round;stroke-dasharray:8.85,8.85;}
	.st110{fill:none;stroke:#FF8300;stroke-width:2.5;stroke-linecap:round;stroke-linejoin:round;stroke-dasharray:7.69,7.69;}
	.st111{fill:none;stroke:#FF8300;stroke-width:2.5;stroke-linecap:round;stroke-linejoin:round;stroke-dasharray:7.45,7.45;}
	.st112{fill:none;stroke:#FF8300;stroke-width:2.5;stroke-linecap:round;stroke-linejoin:round;stroke-dasharray:8.77,8.77;}
	.st113{fill:none;stroke:#FF8300;stroke-width:2.5;stroke-linecap:round;stroke-linejoin:round;stroke-dasharray:8.51,8.51;}
	.st114{fill:none;stroke:#FF8300;stroke-width:2.5;stroke-miterlimit:10;}
	.st115{opacity:0.9;fill:none;stroke:#FF8300;stroke-width:2.5;stroke-miterlimit:10;enable-background:new    ;}
</style>
<g class="st0">
	<polygon class="st1" points="730,1078.2 728.1,1079.6 728,1080 735.3,1080 733.1,1078.2 	"/>
	<polygon class="st1" points="666.5,1080 693.6,1080 693.5,1080 	"/>
	<path class="st1" d="M670.3,1073.5L670.3,1073.5L670.3,1073.5l-14.6-5.3l1.3-4.3l-13.9-4.3l-1.2,3.7l-10.6-3.8l-0.3-1.6l1-4.9
		l-0.3-1.6l3.1-10.5c0-0.1,0.1-0.2,0.1-0.3c0.3-1.2-0.5-2.4-1.7-2.7c-1.2-0.3-2.4,0.5-2.7,1.7l-3.1,10.6l-11.2-3.1l3-10.2
		c0-0.1,0.1-0.2,0.1-0.3c0.3-1.2-0.5-2.4-1.7-2.7c-1.2-0.3-2.4,0.5-2.7,1.7l-3,10.3l-1.8,3.2l-0.6,1.5l-0.4,0.5l-0.1,0.5l-7.3-4.6
		l1.1-2.5l-6.6-4.3l6.5-20.2l-16.3-10.9l-2.2,3.3l13.9,9.3l-6.2,19.2l-34.6-21.7l-6.9-6.3l5.4-4.3c0.7-0.6,0.8-1.6,0.3-2.4
		s-1.6-0.8-2.4-0.3l-5.8,4.7l-2.1-2l7.2-6.3c0.9-0.8,1-2.2,0.2-3.2c-0.8-0.9-2.2-1-3.2-0.2l-7.6,6.6l-1.3-1.1l-4.3-7l-0.6-0.4
		l10-11.3l-4.6-4.1l-10.4,11.7l-7.1-4.3l0.2-1.1l0.5-2.2c0,0-0.3-0.9-0.4-1.3l6.7-10.3l-4.7-3l-6.7,10.2l-1.8,0.3l-1.1,0.8l-1.3,1.2
		l-8.2-5l6.7-10c0.3-0.7,0.1-1.6-0.4-2.2c-0.8-0.8-2-0.8-2.8,0l-6.1,9.2l-6.3-4.1l5.4-9c0.2-0.2,0.3-0.4,0.4-0.7
		c0.4-1-0.2-2.2-1.2-2.5c-1-0.4-2.2,0.2-2.5,1.2l-6.4,10.7l-0.6-0.4l-22.8-14.4l-30.8-7.7l-37.4-9.8l-16.5-21.3l-4.2-4.6l-97.2-26.1
		l-111.9-4.3l-11.2,2.8L35,919.1l-7.9,1.2L0,915.5v7l39.8,6.6l3.3,12l3.4,12.5l-3.8,14.8l-6,1.4l-0.1,0.2l2.1,2.1l2,1.4l7.9,6l6,2
		h21.7l9.9-2l6-2l7.9-4l7.9-4l5.9-4l6-4l6-2l7.9-2h11.9l5.7,0.6l6.3,1.6h6.3l6.3-1.6l2.4-2.1l7.9-4l2-6l2-5.9l2-2l4-0.4h13.9
		l5.9,0.4l3.8,1l2.1,4.8v4l4,4l6,2h23.7l6,2h4l7.9,2l2.9-1.4l3.1-1.6h3.1l6.3,1.6l1.6,1.6l4.7,4.7l3.1,3.1l4.7,3.1l5.8,1.4h4.7
		l6.3-3.1l6.3-4.7l6.3-3.1l5.9,0.8l6,6l6,4l5.9,6h11.9l2-4l4-2h4l2,4l5.9,4l6,4l2,4v5.4l6,2l6,2h4l4-2l4-2h2l4-2l2-4h5.9l6,2h11.4
		l7.9,4l4,2h9.9l5.9,2l4,2l2,2l2,2l4,4l6,4l2,6v7.9l2,4l6,6l2,4l4,4l4,4l2,4l2,2l4,4l4,6l2,5.9l4,4l4,5.9l2.7,2.7l159.3,0
		L670.3,1073.5z M461.7,969.6l-0.5-0.1L461.7,969.6L461.7,969.6L461.7,969.6z"/>
	<polygon class="st1" points="728,1080 728,1080 735.4,1080 735.3,1080 	"/>
	<polygon class="st1" points="813.5,375.4 809.6,373.4 811.6,363.8 815.4,356 817.3,348.3 817.3,344.5 813.5,340.6 811.6,330.9 
		805.8,323.2 803.8,317.4 798,315.5 796.1,313.6 790.3,309.7 790.3,303.9 788.4,302 790.3,294.3 794.1,292.4 798,290.5 799.9,288.5 
		799.9,282.7 798,278.9 798,273.1 796.1,269.2 794.1,263.4 794.1,257.6 790.3,251.8 786.4,249.9 780.6,246 776.8,242.2 776.8,220.9 
		773,212.9 773,210.4 771,205.5 769.1,197.8 769.1,159.2 767.1,153.4 767.1,147.6 771,143.7 774.9,137.9 780.7,126.3 780.7,118.6 
		778.7,112.8 780.7,107 780.7,80 773,74.2 761.4,72.3 747.8,68.4 728.5,64.6 705.4,62.7 691.9,64.6 689.9,68.5 689.9,80 688,87.8 
		684.2,97.4 682.2,107 680.3,120.5 678.4,134 674.5,139.8 664.9,147.5 662.9,153.3 661,163 653.1,172.6 645.4,180.4 637.6,176.5 
		629.9,164.9 624.1,159.1 620.3,153.3 618.3,147.5 622.2,122.5 628.4,114.5 629,111.3 606,111.7 606,173.4 606.2,195.7 606.2,213.7 
		603.6,215.1 592.1,215.1 592.1,218.7 593,220.6 606.2,220.6 606.2,249.4 623.5,243.4 623.5,243.4 673.1,223.8 688.5,223.8 
		742.1,261.7 742.1,261.7 755.3,341.6 768.6,425.2 768.8,425.2 768.6,425.3 771.7,444.6 765.6,468.8 792.3,473.8 796.1,464.2 
		798,458.4 803.8,452.6 811.6,450.7 817.4,444.9 821.2,437.2 823.1,431.4 823.1,415.9 823.1,415.9 823.1,415.9 825.1,410.1 
		825.1,402.4 828.9,398.5 828.9,388.9 821.2,383.1 	"/>
	<path class="st1" d="M697.6,450l-6.5-0.5l-7.4-2.8l-6-3.2l-8.5-6l-7.3-7.3l-5.6-6.6l-4.1-6.6l-4.3-8.1l-3-9.5l-20.3-131.8l0.2-2.9
		c0.1-1.5-1.6-3-3.2-3.1s-3.5,1.1-3.6,2.6l0.3,3.5l21.1,132.6v0.2l3.3,10.3l4.5,8.6l4.5,7.2l6,7l7.9,7.9l9,6.4l6.6,3.5l8.7,3.3
		l4.5,0.8l2.6-0.2h0.4l0,0c1.4-0.1,2.5-1.2,2.7-2.6C700.3,451.5,699.2,450.1,697.6,450z"/>
	<polygon class="st1" points="603.3,31.8 614.3,44.4 622.5,57.2 622.2,72.7 625.3,72.7 625.3,80.6 630.1,80 633.5,76.2 637.8,76.2 
		643.6,74.2 648.3,73.3 653.3,72.3 657.1,70.4 659,68.4 662.9,64.6 661,60.7 657.1,56.9 653.3,51.1 651.3,43.3 649.4,37.6 
		645.5,35.6 643.6,33.7 639.8,33.7 635.9,29.8 634,26 624.3,16.3 612.7,4.7 610.8,0.9 611.2,0 566,0 593.8,22.3 	"/>
	<rect x="958.7" y="1080" class="st1" width="37.3" height="0"/>
	<path class="st1" d="M1118.5,1004.7c0.2,0,0.4,0,0.6-0.1l99.6-28.5c1.2-0.3,1.8-1.6,1.5-2.7c0,0,0,0,0,0c-0.3-1.1-1.5-1.8-2.6-1.5
		l-99.6,28.5l0,0c-1.2,0.4-1.8,1.6-1.5,2.7C1116.7,1004,1117.5,1004.7,1118.5,1004.7z"/>
	<path class="st1" d="M1904.4,942.9v-29.5l-4.8-3.9l-7-1.5l-50.4-9.1L1750,854l-31.6-11.2l-8.9,3l-14.9-4.5l-55.6-17.9l-63.4-17.5
		h-0.1V792h-5v14.7l-4.3,0.8l-40.1,8.8l-0.1-0.4l-2.6-2.6l-3.3-14.2l-6,1.4l3.3,14.2l-0.3,0.1l-1.1,3.8L1500,822l-1.5-7.6
		c0.8-0.6,1.3-1.7,1.1-2.7c-0.1-0.7-0.5-1.2-1.1-1.6l-3.1-16.1l-5.5,1.1l3.7,15.8l-0.4,1.3c0,0.3,0,0.5,0,0.8c0.2,1,1,1.8,2,2
		l1.6,7.7l-28.5,6.3l-2.6,2.3l-2.9-5.2l-8.8,1l-0.3,1.1l-0.2-1l-43.4,10.3l-53,26.1l-9.2,10.6l-28.7,31.6l-8.4-7.5l-60.2,67.5v1.7
		l-30.4-20.7c-1.1-0.8-2.7-0.5-3.5,0.7c-0.8,1.1-0.5,2.7,0.6,3.5l33.1,22.5l-0.2,4.2l3.2,10.6l1.4,4.2l4.2,2.8l11.5,6.3l-0.1,6.1
		l2.4,0.3l0.1,7l-3.7-0.1l-1.3,2.7l-19.5,5.5l-16.2,4.7l-30.6,8.1l-12.8,1.3l-10.5,3.9l-6.1,4.7l-12,9.2l-0.6,4.8l-27.1,19.5l-1.9,1
		h-10.5l-0.3-0.5l-0.2-3.4l1.8-10.7l5.6-26.6l-0.4-16l-4.7-2.6l-8.1,3c-3.3-8-7.6-18.2-8.2-19c-0.5-0.7-1.4-0.9-2.2-0.4
		c-0.8,0.5-1.1,1.5-0.6,2.3c0.5,1,4.4,10.1,7.8,18.3l-0.4,0.2h-10.7l-5.6,6.9l-9.4-2.7l-0.8,2.7l8.8,2.5v28.9l-33.9,15.4l-6.3-15.8
		l-0.7-1.6l22.8-18.9l0.8-2.5l-0.4-2.7l-3-1.6l-3.9,1.7l-35.3,29.5L996,1080h163.4l0,0h33l0,0H1304l0,0l8.6,0l-0.1-0.7v-15.9
		l-2-15.9v-15.8l-2-15.9l-2-17.8l-2-9.9v-11.9l2-7.9l6-6l13.9-17.8l5.2-6.1l-0.2-0.2l6.3-7.4l23.8-27.8l9.9-11.9l7.9-6l7.9-4h7.9
		l9.9,2l7.9,2l9.9,2l7.9,2h21.8l7.9-2l9.9-2l13.9-4l13.9-4l13.9-2l15.9-2h17.8l5.6-1.5l9.4-4.7l11-4.7l12.6-4.7l9.4-3.1l8-4.5v-0.1
		l0.5,0.1l9.3-4.9l3.3-0.8h3.8l23.6,3.1l20.4,6.3l15.7,6.3l12.6,9.4l11,15.7l1.3,3.5l-0.4,0.1l6.4,16.8l7.8,31.4l0.8,2.4l2.8,7
		l3.1,7.8l6.3,15.7l9.6,19.6l7.7,11.8l9,10.3l3.6,0.7h4.7l6.3-4.7l4.7-4.7l1.6-7.8l1.6-4.7l3.1-3.1l4.7-1.5h4.7l4.7,3.1l2.2,4.7
		l2.5,4.7l3.1,4.7l6.3,9.4l4.7,9.4l1.6,1.6h1.8l1.3-1.6l4.7-4.7l6.3-9.4l4.7-4.7l4.7-3.1l7.8-4.7l4.5-1.6h4.9l6.3,1.6l6.3,3.1
		l7.8,4.7l7.8,4.7l15.7,6.3l18.2,3.1l0.5,0v-65.3l-29.2,0.2L1904.4,942.9z M1552,826L1552,826h0.1H1552z M1885.7,949.5l-0.2-2.3h0
		L1885.7,949.5L1885.7,949.5z"/>
	<polygon class="st1" points="952.1,1074.6 952.5,1080 958.7,1080 958.2,1074.1 	"/>
	<path class="st1" d="M1913,464.4c-1-1-2.6-1-3.6,0l-45.3,45.9c-1,1-1,2.6,0,3.6c1,1,2.6,1,3.6,0l45.3-45.9
		C1914,467,1914,465.4,1913,464.4z"/>
	<path class="st1" d="M1919.9,302l-1.6-3.1l-1.6-3.2l-3.2-1.6h-9.4l-4.7-1.6l-4.7-1.6h-3.2l-4.7,3.1l-1.6,1.6h-1.6l-3.2-3.2
		l-4.7-1.6l-3.2-6.3l-4.7-4.7l-4.7-1.6l-7.9-3.1l-3.1-1.6l-3.2-4.7l-1.6-3.1l-3.2-1.6h-6.3l-1.6-1.6l-1.6-3.2l-4.7-3.1l-3.1-1.6
		l-3.2-6.3l-3.2-4.7l-1.6-4.7l-4.7-6.3l-3.1-1.6v-2.3l3.1-2.4l1.6-6.3V217l-3.2-6.3l-3.2-1.6l-1.6-4.7v-5.8l1.6-3.7l4.7-3.1l6.3-3.1
		l3.2-4.7v-6.3l-1.6-4.7l-1.6-4.7l-1.6-4.7l-1.6-3.2v-3.1l1.6-1.6h1.6h1.6l3.2-4.7l3.2-6.3l-1.6-3.1l1.6-4.7h-3.2h-1.6l-1.6-1.6
		v-1.6l4.7-3.1l4.7-3.2l0.7-1.1l-5.4-2l-3.2-1.6l-1.6-1.6v-3.1l-1.6-1.6v-3.2l-1.6-1.6l-3.1-3.1l-1.6-3.2l-0.8,0.1l-1.3-1.3l1.6-4.7
		l3.2-3.1l3.2-1.6l4.7-3.2l4.7-4.7l2.2-3L1830,78v-5.8l-5.8-5.8L1812.6,49l-9.7-7.7l-7.7-5.8v-3.8l-3.9-2v-2.4l3.9-3.4h-6.7
		l-4.8-3.9l-5.8-5.8l-3.9-7.7l-1.9-5.8l-0.6-0.3h-70.4l-1.4-0.5h-352.3l-3.4,0.5h-18.7l-7.3,2.9l-1.6,1.6l0.6-0.1l0.9,3.3l1.6,7.8
		v7.9l-4.2,7.9l-3.9,5.8l-4.5,2.1h-3.1l-3.2,1.6v12.6l3.2,3.2l4.8,3.1v1.6l-3.2,1.6l-1.6,4.7l-3.2,7.9l-4.7,7.9l-3.2,4.7h-14.2
		l-1.6-1.6l-1.6-3.2v-7.9l-1.6-3.1h-3.3v3.2L1269,82l-0.7,5.8l1.4,1.4l-1.9-0.9l-1.2,9.7l1.9,15.4l5.8,7.7l1.9,0.8l12.1,4.5
		l15.4,7.7l15.4,9.7l4.7,9.1l0.6,1l5.8,5.8l3.9,5.8V179l-1.9,11.6l-7.7,11.6l-11.6,7.7l-9.7,3.9l-5.8,3.9l-3.9,3.9l-7.7,3.9
		l-9.7,3.9l-5.8-1.9h-5.8l-5.8,3.9l-7.7,5.8l-5.8,3.9l-7.7,3.9l-5.8,9.7l-5.8,9.6v12.3l-0.8,8.7l12,5.5l6.3,1.6l20.9,10.5l56.7,15
		l6.3,4.9l7.9-3.4l3.3-7.8v-7.2c0,0,18.7-42,23.6-52.7l3.9,1.9l1.1-2.2l6.5,3.7c0.2,0.1,0.4,0.1,0.6,0.1c0.4,0,0.8-0.2,1-0.6
		c0,0,0,0,0,0c0.3-0.5,0.1-1.2-0.4-1.5l-10.5-6l2.8-6.4l2.8-0.6l9,4.3c0.4,0.2,0.8,0.3,1.2,0.3c1.1,0,2.1-0.7,2.5-1.7
		c0.6-1.4,0-3.1-1.4-3.9l-9.1-4.4l-1.3-2.5l23.5-52.9l16.8-8.8l356.8,342.4l14,18.2l21,21l7.1,0.3l36.3,36.1h7.3l33.2-35v-7
		l-43.4-41.9l-2.8-4.2l3-20.4l-1.8-7.3l-45.9-45.1l-4.2-1.4l-7,9.8l-11.2-2.8l-5.6-2.8l-75.5-71.3l-7-4.2l-183.2-176.2l-1.4-4.2
		l15.4-36.4l6.4,0.3l221,212.9l58.7-61.5l100.3,97.4l17.3,23.9L1919.9,302L1919.9,302z"/>
</g>
<g>
	<defs>
		<rect id="SVGID_1_" width="1920" height="1080"/>
	</defs>
	<clipPath id="SVGID_2_">
		<use xlink:href="#SVGID_1_"  style="overflow:visible;"/>
	</clipPath>
	<g class="st2">
		<g id="HKI_2019">
			<polyline class="st3" points="1119.4,1002.9 1119.1,1002.9 1118.8,1002.9 1118.5,1002.9 1118.5,1002.7 1118.2,1002.7 
				1118.2,1002.4 1118,1002.4 1118,1002.1 1117.7,1002.1 1117.7,1001.8 1117.7,1001.5 1117.7,1001.3 1117.7,1001 1117.7,1000.7 
				1117.7,1000.4 1117.7,1000.1 1118,1000.1 1118,999.9 1118.2,999.9 1118.2,999.6 1118.5,999.6 1118.8,999.3 1122.3,998.3 			"/>
			<line class="st4" x1="1129.4" y1="996.3" x2="1211.3" y2="972.7"/>
			<polyline class="st3" points="1214.8,971.7 1216.9,971.1 1217.2,971.1 1217.5,971.1 1217.8,971.1 1218.1,971.3 1218.3,971.3 
				1218.6,971.3 1218.6,971.6 1218.9,971.6 1218.9,971.9 1219.2,972.2 1219.2,972.5 1219.2,972.7 1219.4,973 1219.4,973.3 
				1219.2,973.3 1219.2,973.6 1219.2,973.9 1218.9,974.1 1218.9,974.4 1218.6,974.4 1218.6,974.7 1218.3,974.7 1218.1,974.7 
				1215.8,975.5 1214.8,975.8 			"/>
			<line class="st5" x1="1206.5" y1="978.2" x2="1127.4" y2="1000.8"/>
			<polyline class="st3" points="1123.2,1002 1119.9,1002.9 1119.6,1002.9 1119.4,1002.9 			"/>
			<polyline class="st3" points="437.1,942.1 436.3,945 435.5,945.6 431.6,944.5 			"/>
			<polyline class="st3" points="425.7,942.8 422.7,941.9 422.1,941.3 423.2,937.5 			"/>
			<polyline class="st3" points="424.3,933.6 425.2,930.5 425.8,930 429.7,931 			"/>
			<polyline class="st3" points="435.7,932.6 438.6,933.4 439.1,934.2 438.1,938.1 			"/>
			<line class="st6" x1="4.9" y1="942.1" x2="36.7" y2="947.2"/>
			<polyline class="st3" points="41.3,947.9 45.2,948.5 44,944.7 			"/>
			<polyline class="st3" points="40.4,933.4 39.2,929.6 35.3,928.9 			"/>
			<line class="st7" x1="27.8" y1="927.6" x2="-13.1" y2="920.4"/>
			<polyline class="st8" points="-8.6,914 27.2,920.3 46.4,915.8 			"/>
			<polyline class="st3" points="50,914.9 53.9,914 52.9,910.1 			"/>
			<polyline class="st3" points="52.8,909.7 51.7,905.8 54.8,905 55.8,908.8 			"/>
			<polyline class="st3" points="56,909.3 57,913.1 60.9,912.1 			"/>
			<polyline class="st3" points="68.6,910 72.5,908.9 71.4,905.1 			"/>
			<polyline class="st3" points="71.3,904.6 70.2,900.8 73.3,899.9 74.4,903.8 			"/>
			<polyline class="st3" points="74.5,904.2 75.6,908.1 79.4,907.1 			"/>
			<line class="st9" x1="83.3" y1="906" x2="89.1" y2="904.5"/>
			<polyline class="st3" points="91.1,904 94.9,903 94,899.1 			"/>
			<polyline class="st3" points="93.9,898.5 92.9,894.6 96,893.8 97.1,897.6 			"/>
			<polyline class="st3" points="97.3,898.3 98.3,902.2 102.1,901.1 			"/>
			<line class="st10" x1="108.4" y1="899.4" x2="117.7" y2="896.8"/>
			<polyline class="st3" points="120.8,896 124.7,894.9 123.8,891.5 124.7,891.2 123.6,886.7 122.4,887 122.4,886.7 125.5,885.9 
				125.8,886.2 124.7,886.5 125.8,891 126.9,890.7 127.8,894 131.6,893 			"/>
			<polyline class="st3" points="132,892.9 135.9,891.8 135,887.9 			"/>
			<polyline class="st3" points="134.9,887.5 133.9,883.7 135.9,883.1 137,887 			"/>
			<polyline class="st3" points="137.1,887.4 138.1,891.2 142,890.3 			"/>
			<polyline class="st11" points="149.6,888.3 172.8,882.5 284.7,886.8 288.6,888.1 383.2,913.4 397.9,932 			"/>
			<polyline class="st3" points="400.3,935.1 402.3,937.5 403.1,937.8 404.2,937.3 406.9,938 			"/>
			<polyline class="st3" points="415,940.1 418.8,941.2 419.7,940.6 420.4,937.7 			"/>
			<polyline class="st3" points="421.5,933.8 422.5,930 421.9,929.1 416,927.7 416,926.9 416.3,924.9 415.5,924.6 414.9,926.6 
				411,925.5 			"/>
			<polyline class="st3" points="409.6,923.3 409,922.4 409.5,919.6 412.6,917.9 412.9,917.9 416.9,919 416.6,921 417.4,921 
				418,919.3 418.3,918.5 422.1,919.5 			"/>
			<line class="st12" x1="427.1" y1="920.9" x2="434.6" y2="922.9"/>
			<polyline class="st3" points="437.1,923.6 441,924.6 441.5,924.1 442.4,921 			"/>
			<polyline class="st3" points="443.5,916.9 444.4,913.7 444.1,913.1 439.3,911.7 439.9,909.8 439,909.5 438.5,911.4 436.8,911.2 
				437.3,908.9 436.5,908.9 436.2,910.9 432.4,909.8 			"/>
			<line class="st13" x1="428.2" y1="908.8" x2="422" y2="907.1"/>
			<polyline class="st3" points="419.9,906.6 416,905.5 414.3,902.5 415.2,899.6 416,899.1 419.9,900.1 			"/>
			<polyline class="st14" points="427.8,902.2 447.4,907.5 455.5,909.8 			"/>
			<polyline class="st3" points="459.5,910.9 462.3,911.7 462.9,912.5 462,915.4 461.1,915.9 			"/>
			<polyline class="st3" points="459.6,916.7 459,917 455.9,916.2 456.4,914 455.3,914 454.7,915.9 453.3,915.4 453.9,913.4 
				453.1,913.1 452.5,915.4 447.7,914 447.2,914.2 446.1,918.1 			"/>
			<polyline class="st3" points="445.2,921.6 444.4,924.9 444.6,925.5 450.8,927.2 450.5,928 450.8,928.3 450.3,930 451.1,930.2 
				451.6,928.3 455.9,929.4 457.5,932.5 456.7,935.3 453.9,937 449.7,935.8 450,934.2 449.4,933.9 448.9,935.6 448.6,935.6 
				448.3,936.4 442.4,934.7 441.5,935.3 440.8,938.2 			"/>
			<polyline class="st3" points="439.6,942.7 438.7,946 439,946.5 442.9,947.5 			"/>
			<polyline class="st15" points="450.8,949.5 469.9,954.4 478,957.6 			"/>
			<polyline class="st3" points="481.4,959.9 484.7,962.1 487.5,959.3 			"/>
			<line class="st16" x1="493.5" y1="953.2" x2="514.2" y2="931.7"/>
			<polyline class="st3" points="517.1,928.7 519.9,925.8 522.2,926.3 521.1,930.2 			"/>
			<polyline class="st3" points="519.3,936.7 518.2,940.6 525.2,942.5 526.6,945.1 531.1,946.2 532.5,945.6 533.5,941.8 			"/>
			<polyline class="st3" points="535.6,934.1 536.7,930.2 542.3,931.6 541.2,935.5 			"/>
			<polyline class="st3" points="539.1,943.2 538.1,947 538.4,947 539.2,948.4 543.1,949.4 			"/>
			<polyline class="st3" points="547.6,950.5 551.5,951.5 552.6,950.7 553.3,948.1 			"/>
			<polyline class="st3" points="555.8,938.7 556.5,935.8 557.4,935.3 562.1,936.7 562.7,937.2 561.6,941.1 			"/>
			<polyline class="st3" points="559.5,948.8 558.5,952.6 559.3,953.5 562.1,954.1 			"/>
			<polyline class="st3" points="569.6,956 571.9,956.5 573.3,955.7 574.3,951.8 			"/>
			<polyline class="st3" points="576.1,944.6 577,941.2 577.2,940.9 577.5,940.9 577.5,940.6 577.8,940.6 582.3,942 582.5,942 
				582.5,942.3 582.8,942.3 582.8,942.5 581.8,946.1 			"/>
			<polyline class="st3" points="579.9,953.2 578.9,957.1 579.7,958.5 582,959.2 			"/>
			<polyline class="st3" points="589.7,961.4 592,962.1 593.4,961.6 594.6,957.7 			"/>
			<polyline class="st3" points="596.8,950.6 597.9,947 597.9,946.7 598.2,946.7 598.5,946.5 599,946.7 602.3,947.6 			"/>
			<line class="st17" x1="602.8" y1="951" x2="600.8" y2="957.3"/>
			<polyline class="st3" points="600.2,959.4 599,963.2 599.9,964.3 599.6,964.9 603.4,966.2 			"/>
			<polyline class="st3" points="608.1,967.8 611.9,969.1 612.2,968.5 613.3,968 614,966 			"/>
			<polyline class="st3" points="617.3,957.2 618.6,953.7 618.6,953.5 618.9,953.5 619.2,953.5 619.5,953.5 623.6,954.8 
				623.9,955.1 624.2,955.1 624.2,955.4 624.2,955.7 623,958.9 			"/>
			<polyline class="st3" points="620.3,966.2 618.9,969.9 619.7,971.3 619.5,971.6 623.2,973.1 			"/>
			<polyline class="st3" points="627.8,974.9 631.5,976.4 631.8,976.1 633.2,975.3 633.9,973.4 			"/>
			<polyline class="st18" points="636.4,967.4 638.7,961.6 639,961.3 639.3,961 639.6,961 644,963 644.3,963.2 644.3,963.5 
				644.3,963.8 640.7,972.8 			"/>
			<polyline class="st3" points="639.4,975.8 638.7,977.5 639.3,979.2 639.3,979.5 641,980.3 642.9,981.2 			"/>
			<polyline class="st3" points="646.8,982.9 650.5,984.5 652.4,983.4 653.1,981.8 			"/>
			<polyline class="st3" points="656.8,973.1 658.3,969.4 663.9,971.6 662.3,975.3 			"/>
			<polyline class="st19" points="660.2,980.4 658,985.6 659,988 			"/>
			<polyline class="st3" points="659.9,990.5 661.4,994.3 665.2,993 			"/>
			<polyline class="st3" points="674.3,989.8 675.1,989.5 675.6,989.5 675.9,989.5 676.5,989.8 676.8,989.8 677,990.1 677.3,990.6 
				677.6,990.9 677.6,991.5 677.6,991.8 677.3,992.3 677,992.9 676.8,993.2 676.2,993.2 673,994.3 			"/>
			<polyline class="st3" points="666.3,996.6 662.5,997.9 663.9,1001.7 			"/>
			<polyline class="st3" points="665.9,1007.3 667.3,1011 671,1009.7 			"/>
			<polyline class="st3" points="678.2,1007.2 681,1006.3 681.2,1006.3 681.5,1006.3 681.8,1006.3 682.1,1006.3 682.3,1006.6 
				682.6,1006.6 682.9,1006.8 682.9,1007.1 683.2,1007.4 683.2,1007.7 683.5,1008 683.5,1008.3 683.5,1008.5 683.2,1008.8 
				683.2,1009.1 682.9,1009.4 682.6,1009.7 682.3,1009.9 681.8,1010.2 680.9,1010.5 			"/>
			<polyline class="st3" points="672.2,1013.4 668.4,1014.7 669.7,1018.5 			"/>
			<polyline class="st20" points="671.3,1023 672.3,1025.9 675.8,1028.2 			"/>
			<polyline class="st3" points="677.8,1029.5 681,1031.4 681.2,1031.4 681.8,1034 685.5,1035.5 			"/>
			<polyline class="st21" points="692.9,1038.5 710.9,1045.7 716.7,1047.9 719,1049.1 721.5,1049.9 728.2,1052.7 731.3,1053.8 
				733.9,1054.7 			"/>
			<polyline class="st3" points="737.7,1056.2 741.3,1057.7 743.9,1056.3 745,1056.6 			"/>
			<polyline class="st22" points="753,1058.2 759.2,1059.4 764.3,1060 766.2,1060.3 769,1060.5 773.2,1060.8 775.2,1061.1 
				777.7,1061.4 780.5,1064.4 782.5,1066.1 784.7,1067.5 786.6,1068.6 788.6,1069.2 790.3,1069.5 798.7,1069.5 807.3,1070 
				808.2,1070 819.1,1073.1 829.1,1075.6 834.7,1076.5 838.1,1076.8 841.2,1076.8 845.4,1075.9 849,1074.8 851.5,1073.7 
				854.6,1072.3 856.8,1070.9 858.5,1068.9 860.7,1066.1 861.8,1064.4 863.3,1062.2 863.5,1061.4 864.7,1059.7 864.9,1058.6 
				866,1056.6 866.6,1055.2 867.5,1053.8 868.3,1053 870,1051 871.9,1049.3 873.9,1047.7 875.3,1043.1 			"/>
			<polyline class="st3" points="876.6,1039.2 877.8,1035.4 877.5,1035.4 877.2,1035.1 877,1034.8 876.7,1034.5 876.4,1034 
				876.4,1033.7 876.4,1033.4 876.4,1032.8 876.4,1032.6 876.7,1032.3 877,1032 879.2,1029.7 			"/>
			<polyline class="st23" points="886.7,1024.7 887,1024.5 888.7,1023.6 890.4,1023.1 891.8,1022.8 893.5,1022.5 894.8,1022.2 
				896.5,1022.2 899.3,1022.2 901.3,1022.5 904.1,1023.1 906,1023.6 907.7,1024.2 908.8,1024.7 909.9,1025.3 910.8,1025.6 
				911.6,1026.1 917.3,1026.1 			"/>
			<polyline class="st3" points="921.9,1026.1 925.9,1026.1 924.8,1022.3 			"/>
			<polyline class="st24" points="926.1,1014.6 926.4,1014.4 927,1014.4 927.6,1014.7 928.1,1014.7 928.7,1015 929.2,1015.5 
				929.5,1015.8 929.8,1016.4 929.8,1016.6 930.1,1017.2 932.1,1025.1 			"/>
			<polyline class="st3" points="933.3,1029.5 934.3,1033.4 932,1034 932.3,1034.3 932.6,1034.5 932.6,1035.1 932.6,1035.7 
				932,1037.7 			"/>
			<polyline class="st3" points="931.5,1039.6 930.3,1043.5 930.6,1043.8 930.9,1043.2 932,1043.5 931.8,1044.9 930.6,1044.6 
				930.6,1044.3 930.1,1044 929.2,1047.4 929.8,1047.4 929.8,1047.1 930.9,1047.4 930.6,1049.1 929.5,1048.5 929.5,1047.9 
				928.1,1047.7 928.1,1049.6 928.3,1051.7 			"/>
			<polyline class="st25" points="928.7,1058.4 929,1062.2 929.2,1063.1 929.8,1064.2 930.3,1065 930.9,1065.8 931.5,1066.4 
				932,1067.2 933.2,1067.8 934,1068.4 934.8,1068.9 935.7,1069.2 936.8,1069.2 937.6,1069.2 939.9,1069.2 941.3,1069.2 
				943.2,1068.9 959.1,1067.2 			"/>
			<polyline class="st3" points="962.5,1066.8 966.4,1066.4 966.4,1066.1 966.7,1065.6 967.3,1065 967.3,1064.4 967.1,1062.7 			"/>
			<polyline class="st3" points="966,1053.6 965.6,1049.9 965.6,1049.6 965.9,1049.6 965.9,1049.3 966.1,1049.3 966.4,1049.1 
				970.9,1048.8 971.2,1048.8 971.5,1048.8 971.5,1049.1 971.7,1049.3 972.1,1052.9 			"/>
			<polyline class="st3" points="973.2,1062 973.4,1064.2 974.5,1065.6 977.9,1065 978.5,1064.9 			"/>
			<polyline class="st26" points="986.3,1064 994.7,1062.8 999.1,1062.2 1006.1,1061.1 1016.2,1059.7 1045.6,1055.2 1065.4,1038.7 
				1068.2,1036.5 1069.3,1035.4 1069.9,1035.1 1070.7,1035.1 1071.6,1035.1 1072.4,1035.4 1072.9,1035.7 1073.5,1035.9 
				1074.1,1036.8 1074.3,1037.3 1074.6,1038.4 1074.6,1039 1074.3,1039.8 1073.8,1040.7 1073.2,1041.2 1057.2,1054.8 			"/>
			<polyline class="st3" points="1054.2,1057.4 1051.1,1060 1052.5,1063.7 			"/>
			<polyline class="st3" points="1056.2,1074.1 1057.6,1077.9 1061.3,1076.5 			"/>
			<polyline class="st27" points="1069.6,1073.6 1072.4,1072.6 1091.2,1058.4 1092.3,1054.5 			"/>
			<polyline class="st3" points="1093.4,1050.3 1093.4,1046.3 1091.7,1046 1091.7,1042.6 1093.1,1042.4 1092.5,1037.1 
				1093.1,1034.5 1091.7,1033.4 1092,1032 1088.1,1030.9 			"/>
			<polyline class="st3" points="1088,1030.9 1084.1,1029.8 1084.1,1029.2 1088,1030.2 			"/>
			<polyline class="st3" points="1092.5,1031.3 1093.1,1031.4 1093.6,1031.2 1096.2,1030.1 1096.7,1027.3 1098.7,1025 
				1102.7,1025.3 			"/>
			<polyline class="st3" points="1106.3,1024.5 1110.1,1023.3 1108.5,1019.7 			"/>
			<polyline class="st3" points="1104,1009.2 1102.9,1006.6 1103.1,1005.7 1103.1,1005.5 1103.7,1004.9 1104,1004.9 1104.5,1004.6 
				1105.1,1004.9 1105.4,1005.2 1105.7,1005.5 1106.7,1007.8 			"/>
			<polyline class="st3" points="1111.4,1018.8 1112.9,1022.5 1115.8,1022.5 1116.9,1022.1 			"/>
			<polyline class="st28" points="1124.5,1020.7 1126.7,1021.4 1128.9,1024.7 1128.9,1027.9 1126.7,1031.2 1127.1,1034.5 
				1126.9,1038.8 1125.5,1045.5 1118.7,1076.6 			"/>
			<polyline class="st3" points="1119.6,1080.4 1119.6,1080.7 1120.2,1081.5 1122.7,1082.6 1126.4,1081.1 			"/>
			<line class="st29" x1="1132.8" y1="1077.8" x2="1153.6" y2="1063.7"/>
			<polyline class="st3" points="1156.6,1061.7 1159.9,1059.4 1160.5,1055.5 			"/>
			<polyline class="st30" points="1165.9,1049.7 1176.4,1041.2 1188.4,1036.8 1193.4,1037.3 1194.8,1036.5 1242.4,1023.3 
				1247.1,1017.7 1250.1,1009.7 1251.3,1001.7 1253,994 1248.9,981.3 			"/>
			<polyline class="st3" points="1247.6,977.3 1247.1,975.8 1246.3,973.6 1247.1,972.7 1248.3,970.8 1247.1,969.9 1245,968.5 			"/>
			<line class="st31" x1="1239.2" y1="964.6" x2="1219.1" y2="951"/>
			<polyline class="st3" points="1216.3,948.9 1216.1,948.4 1216.1,947.9 1216.4,947.3 1216.7,946.7 1216.9,946.5 1217.5,946.2 
				1218.1,945.9 1218.6,946.2 1219.2,946.2 1221.5,947.8 			"/>
			<polyline class="st32" points="1225.5,950.7 1225.9,950.9 1231.7,954.8 			"/>
			<polyline class="st3" points="1233.8,956.2 1237.1,958.5 1239.7,955.5 			"/>
			<polyline class="st33" points="1245,949.5 1247.1,947 1271.7,918.8 1289.1,900.6 1291.9,898.1 1319,872.7 1319.6,872.1 			"/>
			<polyline class="st3" points="1322.7,869.5 1323.2,869.3 1324,869 1324.9,869 1325.7,869 1326.5,869.3 1329.3,866.4 			"/>
			<polyline class="st34" points="1335,860.3 1337.6,857.5 1352.9,845.4 1369.3,834.5 1385.7,829 1404.3,823.6 1420.9,819.1 
				1438.4,813.9 1453.5,813.9 1475.6,815.9 1486,815.9 			"/>
			<polyline class="st3" points="1490.2,815.9 1494.2,815.9 1492.2,814.2 1491.8,812.9 			"/>
			<line class="st35" x1="1491.5" y1="807.1" x2="1489.5" y2="798.4"/>
			<polyline class="st3" points="1490.3,796 1493.6,795.3 1493.9,795.3 1494.2,795.3 1494.2,795.5 1494.5,795.8 1494.8,796.1 
				1495.4,799.2 			"/>
			<polyline class="st36" points="1496.3,803.5 1497.4,808.7 1498.2,809.7 			"/>
			<polyline class="st3" points="1499,811.6 1499.2,812.4 1498,815.1 1498,815.4 1501.8,814.3 			"/>
			<line class="st37" x1="1505.7" y1="813.3" x2="1511.6" y2="812.2"/>
			<polyline class="st3" points="1513.6,811.8 1517.5,811 1516.6,807.1 			"/>
			<polyline class="st38" points="1514.7,802.4 1515.2,800.5 1513.7,794.5 			"/>
			<polyline class="st3" points="1513.1,791.9 1512.3,788.3 1512.3,788 1512.6,787.7 1512.8,787.4 1513.1,787.1 1515.9,786.7 			"/>
			<polyline class="st39" points="1518.8,792.1 1520.4,799.6 1521.6,801.1 1521.9,802.4 			"/>
			<polyline class="st3" points="1521.8,805.9 1522.4,809.8 1526.3,808.6 			"/>
			<polyline class="st40" points="1534.7,805.8 1542.6,803.2 1550.5,800.9 1555.1,797.5 1563.3,796.4 1563.8,796.4 			"/>
			<polyline class="st3" points="1568.3,796.4 1572.3,796.4 1572.3,794.1 1573.1,792.9 1573.1,792.7 			"/>
			<polyline class="st3" points="1572.5,784.1 1572.3,780.1 1572.6,779.8 1572.8,779.8 1573.1,780.1 1573.3,783.7 			"/>
			<polyline class="st3" points="1573.7,792.6 1573.7,792.6 1574.9,793.8 1574.9,796.1 1578.9,796.2 			"/>
			<path class="st41" d="M1586.8,796.7l25.1,3.9l13.1,2.2l15.3,5.5l17.5,7.7l13.1,5.5l14.2,4.4c0.6,0.3,19.3,5,19.3,5l21.9,9.4
				L1750,854l92.3,44.9l92.8,14.8l57.5,26.8l51.5,49.3"/>
		</g>
		<g id="KLN_2019" class="st42">
			<polyline class="st3" points="1423.1,393 1422.5,393 1422.2,392.4 1421.3,391.6 1420.2,389.8 			"/>
			<line class="st21" x1="1415.8" y1="383.1" x2="1382.9" y2="332.7"/>
			<polyline class="st3" points="1380.7,329.3 1379.9,328 1379.6,327.5 1379.6,326.9 1379.9,326.3 1380.2,325.8 1380.8,325.8 
				1381.3,325.8 1381.9,325.8 1382.5,326 1383,327.2 1383.3,327.5 			"/>
			<line class="st43" x1="1387.7" y1="334.3" x2="1421.4" y2="385.5"/>
			<polyline class="st3" points="1423.7,388.9 1424.8,390.5 1425,391.3 1424.8,391.9 1424.8,392.4 1424.2,392.7 1423.9,393 
				1423.3,393 1423.1,393 			"/>
			<polyline class="st3" points="1423.6,433.6 1423.1,433.6 1422.5,433.6 1422.2,433 1421.9,432.7 1421.6,432.2 1421.9,431.6 
				1421.9,431.3 1422.2,430.8 1422.8,430.5 1424.4,429.6 			"/>
			<line class="st44" x1="1431.9" y1="425.7" x2="1518.1" y2="380.9"/>
			<polyline class="st3" points="1521.9,379 1524.9,377.4 1525.5,377.4 1525.8,377.1 1526.3,377.1 1526.9,377.4 1527.2,377.7 
				1527.5,378.5 1527.5,378.8 1527.5,379.4 1527.2,380 1527.2,380 			"/>
			<line class="st45" x1="1520.5" y1="383.4" x2="1430.6" y2="430.1"/>
			<polyline class="st3" points="1427.2,431.9 1424.5,433.3 1423.6,433.6 			"/>
			<polyline class="st3" points="507.8,516.8 509.8,516.8 510.6,516.8 511.2,517.1 511.5,517.5 			"/>
			<polyline class="st46" points="506.1,520.5 505.9,520.5 502.2,519.3 499.9,517.9 497.4,516.5 495.7,515.1 494.6,513.7 
				492.9,510.9 492,508.6 491.5,506.1 491.2,503 490.9,499.6 491.5,334.1 491.5,333 491.2,332.1 491.2,331 490.9,330.1 490,328.2 
				488.6,325.9 487.5,324.2 485.8,323.1 483.5,321.7 481.9,320.8 479.6,320.3 477,320 476.2,320 475.6,319.7 475.4,319.4 
				475.1,318.9 474.8,318.6 474.8,318.3 474.8,317.7 474.8,317.1 475.1,316.9 475.4,316.6 475.6,316.3 475.9,316 476.2,315.7 
				476.5,315.7 477,315.7 477.6,315.7 479.6,316 482.7,316.6 484.4,317.4 487.2,318.9 489.8,320.8 491.5,322.5 493.1,325.3 
				494.3,328.2 494.8,331.6 495.1,334.4 495.1,345.7 495.1,486.9 495.1,503.5 495.1,505.2 496,507.5 497.7,510.6 499.1,512.6 
				500.5,513.7 			"/>
			<polyline class="st3" points="504,515.6 505.9,516.2 507.8,516.8 			"/>
			<polyline class="st3" points="936.2,814.7 935.9,810.7 939.8,810.4 			"/>
			<polyline class="st3" points="946.9,809.8 950.9,809.5 948.3,812.6 			"/>
			<polyline class="st3" points="940.7,821.5 938.1,824.6 937.8,824.6 937.8,824.8 937.6,824.8 937.3,824.8 937.3,825.1 937,825.1 
				936.7,821.1 			"/>
			<polyline class="st3" points="931.3,825.4 935.3,825.1 935,820.9 931,821.2 			"/>
			<line class="st47" x1="924.6" y1="821.7" x2="915" y2="822.5"/>
			<polyline class="st3" points="911.8,822.8 907.8,823.2 907.5,819.2 			"/>
			<polyline class="st3" points="907,812.9 906.6,809 903.2,809.2 903.2,810.4 901.4,812.6 			"/>
			<polyline class="st3" points="897.9,816.7 895.3,819.7 898.3,822.4 			"/>
			<polyline class="st3" points="901,824.7 903.8,827.1 904.1,827.1 904.4,827.4 904.7,827.4 904.9,827.4 905.5,827.4 908.3,827.2 
							"/>
			<line class="st48" x1="916" y1="826.6" x2="927.5" y2="825.7"/>
			<polyline class="st3" points="1630.2,298.2 1628.9,299.5 1627,300.4 1624.1,297.6 			"/>
			<line class="st21" x1="1618.3" y1="292" x2="1505.6" y2="183.6"/>
			<polyline class="st3" points="1502.7,180.8 1499.8,178.1 1501.2,176.6 1501.2,174.6 			"/>
			<line class="st49" x1="1503.9" y1="167.1" x2="1513.8" y2="140.7"/>
			<polyline class="st3" points="1515.2,137 1516.6,133.2 1520.2,134.8 			"/>
			<line class="st15" x1="1526.6" y1="139.7" x2="1652.4" y2="261"/>
			<polyline class="st3" points="1655.3,263.8 1658.2,266.6 1657.6,269.7 1657,270.3 			"/>
			<line class="st50" x1="1651.7" y1="275.9" x2="1632.9" y2="295.4"/>
			<line class="st3" x1="290.3" y1="98.5" x2="288.2" y2="95.1"/>
			<polyline class="st51" points="283.3,90.8 277,87.3 270.8,83.4 262.7,78.6 			"/>
			<polyline class="st3" points="259.8,76.8 259,76.3 258.1,76.3 257.9,76.6 257.6,77.2 257.3,77.7 257.3,78.3 257.9,78.9 
				260.5,80.6 			"/>
			<line class="st52" x1="264.3" y1="82.9" x2="269.8" y2="86.4"/>
			<polyline class="st3" points="271.6,87.5 275.1,89.6 272.2,92.4 			"/>
			<polyline class="st3" points="269.7,95 266.9,97.8 272.3,103.2 268.6,106.8 263.2,101.5 260.4,104.3 			"/>
			<polyline class="st3" points="254.2,110.5 251.4,113.3 254.5,116.4 251.6,119.3 			"/>
			<polyline class="st3" points="246.6,124.3 243.7,127.2 239.8,123.5 239.2,124.3 239.2,124.6 242.9,128.3 241.8,129.1 
				238.1,125.2 236.9,126.3 234.1,123.5 			"/>
			<polyline class="st3" points="229.6,119 226.8,116.1 225.4,117.8 228.2,120.7 			"/>
			<polyline class="st3" points="236.4,128.9 239.2,131.7 236.4,134.5 			"/>
			<polyline class="st3" points="228.5,142.4 225.6,145.2 222.8,142.4 			"/>
			<line class="st53" x1="219.8" y1="139.5" x2="215.3" y2="135.1"/>
			<polyline class="st3" points="213.8,133.6 211,130.8 216.3,125.5 216.6,125.5 216.6,125.2 216.3,125.2 215.8,124.6 215.8,124.3 
				215.5,124.3 215.5,124.6 210.1,130 208.7,128.3 211.5,125.5 			"/>
			<polyline class="st3" points="212.6,124.4 215.2,121.8 215.2,121.5 213.8,120.4 211,123.2 			"/>
			<polyline class="st3" points="210.1,124.1 207.3,126.9 205,124.6 207.8,121.7 			"/>
			<polyline class="st3" points="209.2,120.2 211.3,118.1 211.3,117.8 210.7,117.3 210.4,117.3 207.8,119.9 			"/>
			<polyline class="st3" points="206.7,120.9 203.9,123.8 203.4,123.2 203.4,122.9 200.5,120.1 			"/>
			<polyline class="st54" points="195.5,115.3 193.2,113 188,107.9 			"/>
			<polyline class="st3" points="185.6,105.4 182.7,102.6 185.6,99.8 			"/>
			<polyline class="st55" points="191.3,94.3 204.8,80.8 215.2,72.7 217.2,71 224.6,67 			"/>
			<polyline class="st3" points="228.1,65.3 228.8,65 231.6,63.3 235,65.4 			"/>
			<line class="st56" x1="234.3" y1="61.2" x2="206.2" y2="44.5"/>
			<polyline class="st3" points="202.2,42.1 200,40.8 199.4,40.8 199.1,40.8 198.6,40.8 198.3,41 194.8,39 			"/>
			<line class="st57" x1="187.2" y1="34.5" x2="175.8" y2="27.6"/>
			<polyline class="st3" points="172,25.3 168.6,23.2 170.7,19.8 			"/>
			<line class="st58" x1="175.1" y1="12.7" x2="181.6" y2="2"/>
			<line class="st59" x1="195.4" y1="1" x2="216.9" y2="14.4"/>
			<polyline class="st3" points="220,16.3 223.4,18.4 220.6,23.2 224,25.3 			"/>
			<polyline class="st3" points="232.7,30.7 236.1,32.8 236.9,31.1 233.6,29 			"/>
			<polyline class="st3" points="226.8,24.8 223.4,22.7 225.5,19.3 			"/>
			<polyline class="st3" points="229.2,13.1 231.3,9.7 235,11.9 235.5,11.1 232.1,9 			"/>
			<polyline class="st3" points="226.8,5.8 223.4,3.8 225.4,0.9 228.8,3 			"/>
			<polyline class="st3" points="233.8,6.2 237.2,8.3 237.8,7.4 234.1,5.2 235.5,2.9 239,5 			"/>
			<polyline class="st3" points="240,5.6 243.4,7.7 243.7,7.1 240.4,4.9 			"/>
			<polyline class="st3" points="239.4,4.3 236.1,2.1 237.8,-0.8 241.2,1.3 			"/>
			<polyline class="st3" points="242.3,2 245.7,4 246,3.5 242.7,1.3 			"/>
			<polyline class="st3" points="241.7,0.6 238.4,-1.6 240.5,-5 			"/>
			<polyline class="st60" points="278.3,-19.9 308.4,-1 310.4,0.4 326.5,10.5 336.4,16.5 345.7,22.4 359.9,33.8 			"/>
			<polyline class="st3" points="363.2,36.5 366.4,39 363.8,42.1 			"/>
			<polyline class="st3" points="359.4,47.3 356.8,50.3 360.1,53.1 362.6,50 			"/>
			<polyline class="st3" points="367,44.7 369.5,41.5 372.5,44.2 			"/>
			<line class="st61" x1="376.4" y1="47.5" x2="382.3" y2="52.5"/>
			<polyline class="st3" points="384.2,54.2 387.3,56.8 384.7,59.9 			"/>
			<polyline class="st3" points="380.2,65.3 377.6,68.4 381,71.2 383.6,68.1 			"/>
			<polyline class="st3" points="388.1,62.7 390.6,59.6 393.7,62.2 			"/>
			<line class="st62" x1="398.3" y1="65.9" x2="405.1" y2="71.6"/>
			<polyline class="st3" points="407.3,73.4 410.4,76 407.6,79.7 409,80.8 412.1,77.1 415.1,79.7 			"/>
			<polyline class="st3" points="420.6,84.4 423.7,87 421.1,90.1 			"/>
			<polyline class="st3" points="418,93.8 415.5,96.9 417.2,98.3 419.7,95.2 			"/>
			<polyline class="st3" points="422.8,91.5 425.4,88.4 428.5,91 			"/>
			<polyline class="st3" points="432.2,94.1 435.3,96.6 432.8,99.7 			"/>
			<polyline class="st3" points="429.6,103.7 427.1,106.8 428.8,108.2 431.3,105.1 			"/>
			<polyline class="st3" points="434.4,101.1 437,98 440,100.6 			"/>
			<line class="st63" x1="443.3" y1="103.2" x2="448.1" y2="107.2"/>
			<polyline class="st3" points="449.7,108.5 452.8,111 450.2,114.1 			"/>
			<line class="st64" x1="444.1" y1="121.4" x2="435" y2="132.3"/>
			<polyline class="st3" points="431.9,135.9 429.3,139 429.6,139.8 432,141.8 			"/>
			<polyline class="st3" points="438.3,146.9 440.9,149.1 441.5,149.1 444,146.1 			"/>
			<line class="st65" x1="450" y1="138.8" x2="459.1" y2="127.9"/>
			<polyline class="st3" points="462.1,124.3 464.6,121.2 467.7,123.8 			"/>
			<polyline class="st66" points="474,129 475.4,130.2 492.9,160.1 492.9,187 492.9,250.6 			"/>
			<polyline class="st3" points="492.9,254.7 492.9,258.7 492.3,258.7 492,259 491.7,259.3 491.5,259.5 491.2,260.7 491.2,261.2 
				491.2,261.8 			"/>
			<polyline class="st67" points="491.2,268.8 491.2,282.4 491.2,284.4 491.7,285.8 492.3,286.4 493.1,286.7 495.1,285.8 495.7,285 
				495.3,268.2 			"/>
			<polyline class="st3" points="495.2,264.7 495.1,260.7 499.1,260.7 			"/>
			<line class="st68" x1="507.2" y1="260.7" x2="583.7" y2="260.7"/>
			<polyline class="st3" points="587.7,260.7 591.7,260.7 593.1,264.4 			"/>
			<polyline class="st22" points="596,272 603.6,292 603.8,495.1 547.8,575.1 			"/>
			<polyline class="st3" points="545.4,578.5 543.1,581.8 539.1,581.8 			"/>
			<line class="st69" x1="531.1" y1="581.8" x2="503.1" y2="582"/>
			<polyline class="st3" points="499.1,582 495.1,582 495.1,578 			"/>
			<polyline class="st70" points="495.1,570.6 495.1,565.9 494.8,563.4 494.3,560.8 492.9,557.5 491.7,555.5 489.5,552.9 
				486.6,550.4 483.8,549 480.7,548.1 479,547.9 476.8,547.6 475.9,547.9 475.4,548.1 475.1,549 475.1,549.8 475.4,550.7 
				475.9,551.3 477.6,551.8 479.5,551.8 481,551.8 485.2,553.5 487.8,555.8 489.8,558 491.2,561.1 491.7,563.7 491.7,566.8 
				491.7,573.3 492,582.6 491.7,584.3 491.7,588.2 			"/>
			<polyline class="st3" points="491.7,591.9 491.7,592.5 491.7,595.9 490.9,596.7 488.9,598.7 			"/>
			<polyline class="st71" points="484.2,605.3 481.3,611.7 480.2,616.8 479.9,621.6 479.6,627.5 479.9,635.1 479.6,638.5 
				479.9,642.5 479.9,672.4 481.6,676.3 487.5,684 492.9,689 501,695.3 505,695.8 510.9,695.3 518,695.5 553.3,695.3 559.8,695.5 
				561.8,695.3 563.2,694.1 568.3,683.4 572.8,678 576.5,674.7 579,672.4 581.5,670.1 583.5,668.2 610.3,658 653.1,651.9 671.7,650 
				694.9,646.9 736.7,641.2 737.6,641 			"/>
			<polyline class="st3" points="741.5,640.1 745.4,639.2 742.2,641.5 			"/>
			<polyline class="st3" points="738.5,644 735.3,646.3 736.7,648 740,645.7 			"/>
			<polyline class="st72" points="747.6,641.3 748,641.2 754.8,640.7 762.7,639.8 763.2,640.1 763.5,640.7 764.4,655.4 			"/>
			<polyline class="st3" points="764.7,659.8 764.9,663.8 762.9,664.1 763.5,666.6 759.6,667.5 			"/>
			<polyline class="st3" points="757.7,667.9 755.6,668.3 755.3,668.6 755,668.9 755,669.2 755.3,669.5 755.6,669.7 756.2,669.7 
				759.5,669 			"/>
			<polyline class="st3" points="759.9,668.9 763.8,668 764.6,671.4 759.5,672.5 760.4,676.8 760.1,677.4 756.2,678.2 			"/>
			<polyline class="st3" points="753.9,678.8 750,679.6 750,679.9 746,680.7 			"/>
			<polyline class="st73" points="736.1,682.7 730.2,683.8 721.3,685.8 			"/>
			<polyline class="st3" points="716.3,686.8 714.4,687.2 713.8,687.8 713.5,688.1 713,688.7 713,688.9 712.7,689.5 712.7,690.1 
				712.7,690.6 713,691.2 713.5,692 713.8,692.2 			"/>
			<polyline class="st54" points="720.6,691.6 727.9,690.1 733.3,688.9 758.2,683.7 			"/>
			<polyline class="st3" points="761.6,683 762.7,682.7 765.5,682.2 765.8,682.4 769.4,681.6 769.7,681 771.4,680.7 772.2,684.7 			
				"/>
			<polyline class="st3" points="774.6,696.3 775.4,700 775.4,700.2 771.5,701 			"/>
			<line class="st74" x1="763.8" y1="702.6" x2="737.1" y2="708.2"/>
			<polyline class="st3" points="733.3,709 729.3,709.8 730.5,715.5 734.4,714.6 			"/>
			<line class="st75" x1="742.1" y1="713" x2="769" y2="707.3"/>
			<polyline class="st3" points="772.9,706.4 776.8,705.6 777.5,709.5 			"/>
			<polyline class="st3" points="778.5,714.7 779.3,718.6 772.3,720 773.4,724.8 769.5,725.6 			"/>
			<line class="st76" x1="761.8" y1="727.3" x2="750.3" y2="729.7"/>
			<polyline class="st3" points="746.4,730.5 742.9,731.3 742.6,731.6 742.3,731.6 742,732.1 742,732.4 742.3,733.8 742.6,734.4 
				742.9,734.7 743.2,734.7 743.5,734.7 743.5,734.7 			"/>
			<polyline class="st77" points="750.2,733.2 762.1,730.7 773.7,728.3 			"/>
			<polyline class="st3" points="777.1,727.6 781,726.8 781.8,730.7 			"/>
			<line class="st78" x1="783.7" y1="739.6" x2="786.6" y2="752.9"/>
			<polyline class="st3" points="787.5,757.3 788.3,761.2 788.1,761.5 787.8,760.9 786.9,760.4 786.1,759.8 785.3,759.5 
				784.8,759.5 			"/>
			<polyline class="st3" points="782.1,766.5 782.7,766.9 783.3,767.2 784.1,767.4 785,767.4 785.8,767.2 785.8,767.4 781.9,768.3 
							"/>
			<line class="st74" x1="774.3" y1="769.9" x2="717" y2="782"/>
			<polyline class="st3" points="713.2,782.8 709.8,783.5 709.3,783.5 709.3,783.8 709,784.1 709,784.4 709.7,787.3 			"/>
			<polyline class="st3" points="711.6,795.7 712.4,799.1 712.4,799.3 712.4,799.6 712.7,799.6 713,799.6 716.3,799 			"/>
			<line class="st79" x1="724.2" y1="797.4" x2="783.3" y2="785.9"/>
			<polyline class="st3" points="787.3,785.1 791.2,784.3 791.7,788.3 			"/>
			<polyline class="st80" points="792.5,795.3 793,799.4 791.5,802.7 790.3,805.2 			"/>
			<polyline class="st3" points="788.3,808.1 785.8,811.2 786.1,811.2 785.3,812.3 785.3,812 782.7,815.2 			"/>
			<polyline class="st3" points="782.7,815.5 782.4,816 782.4,816.8 782.7,817.4 783,817.7 783.5,818 783.8,818 784.4,818.3 
				784.7,818 785.3,818 785.5,817.7 786.1,816.8 788.1,814.3 787.8,814.3 788.6,813.2 788.6,813.5 791.1,810.3 			"/>
			<polyline class="st3" points="791.7,809.7 793.2,807.8 794.6,807 797.1,810 			"/>
			<polyline class="st3" points="799.4,812.9 799.9,813.5 800.8,814.6 801.6,815.2 802.2,815.7 801.6,817.7 800.4,819.2 			"/>
			<polyline class="st3" points="799.1,820.9 797.4,823.1 796.8,824.2 796.5,823.9 794.1,827.1 			"/>
			<polyline class="st3" points="797.6,828.3 799.4,826.2 799.9,825 800.2,825.3 802.7,822.2 			"/>
			<polyline class="st3" points="808,818.6 808.4,818.5 810.7,815.7 811.2,816 812.1,816.3 813.2,816.6 814.3,816.8 814.9,816.8 
				816,820.7 			"/>
			<polyline class="st81" points="818,827.8 818.6,829.8 820,830.7 842.2,828.9 			"/>
			<polyline class="st3" points="845.9,828.6 848.5,828.4 849.9,828.4 851.9,826.2 852.9,826.1 			"/>
			<line class="st82" x1="857.2" y1="825.8" x2="863.6" y2="825.2"/>
			<polyline class="st3" points="865.7,825.1 869.7,824.8 869.7,825 875.3,824.5 875.3,824.2 879.3,823.9 			"/>
			<polyline class="st83" points="887.7,823.3 891.4,823.1 899.6,830.1 900.2,830.4 900.7,830.7 901.3,831 901.9,831.3 902.4,831.3 
				903,831.3 903.6,831.3 930.9,829.9 			"/>
			<polyline class="st3" points="935.1,829.7 939.1,829.5 941.8,826.6 			"/>
			<polyline class="st84" points="947.2,820.6 962.3,803.8 964.2,801.3 965.1,800.5 965.9,799.6 966.5,798.5 967.6,797.1 
				968.2,795.9 968.7,794.8 969.6,793.4 969.9,792.3 970.4,791.1 976.1,775 976.7,773.3 976.9,772.2 977.5,771.4 977.8,770.8 
				978.1,770.2 978.3,769.7 978.9,769.1 988.5,757 994.4,751.6 1002.3,744.5 1015.6,732.7 1018.7,729.8 1046.1,705.3 1079.8,674.7 
				1101.6,674.3 			"/>
			<polyline class="st3" points="1105.6,674.3 1109.6,674.2 1109.6,676.6 1109.6,678.2 			"/>
			<line class="st85" x1="1109.5" y1="684.6" x2="1109.2" y2="707.1"/>
			<polyline class="st3" points="1109.2,710.3 1109.2,714.3 1105.7,716.3 			"/>
			<polyline class="st3" points="1101.5,718.8 1098.1,720.8 1100.1,724.3 			"/>
			<polyline class="st3" points="1101.4,726.7 1103.4,730.1 1106.9,728.1 			"/>
			<line class="st86" x1="1110.6" y1="726" x2="1116.2" y2="722.8"/>
			<polyline class="st3" points="1118.1,721.7 1121.5,719.7 1121.5,715.7 			"/>
			<line class="st87" x1="1121.4" y1="708.5" x2="1121.3" y2="683.2"/>
			<polyline class="st3" points="1121.3,679.6 1121.2,675.6 1125.2,675.6 			"/>
			<polyline class="st3" points="1134.4,675.6 1138.4,675.6 1140.1,679.3 			"/>
			<line class="st88" x1="1141.9" y1="683.3" x2="1144.7" y2="689.4"/>
			<polyline class="st3" points="1145.6,691.5 1147.2,695.1 1150.9,693.5 			"/>
			<line class="st89" x1="1158.5" y1="690.1" x2="1246.1" y2="651.3"/>
			<polyline class="st3" points="1249.8,649.6 1250.3,649.4 1253.4,647.7 1254.2,649.4 1255.6,650.8 1255.7,650.9 			"/>
			<polyline class="st3" points="1259.5,659.1 1260.7,661.8 1261,662.1 1261.3,662.4 1261.6,662.4 1261.8,662.1 1265.5,660.4 
				1265.8,660.1 1265.8,659.8 1264.3,656.4 			"/>
			<polyline class="st3" points="1260.8,648.7 1260.7,648.5 1260.7,646.5 1260.2,644.8 1263.8,643.1 			"/>
			<polyline class="st3" points="1271.4,639.7 1275.1,638.1 1276.5,641.2 1276.8,641.5 1276.8,641.8 1277.1,641.8 1277.4,641.8 
				1277.7,641.5 1280.4,640.3 			"/>
			<polyline class="st3" points="1284.4,638.5 1288.1,637 1288.1,636.7 1288.4,636.7 1288.4,636.4 1288.4,636.1 1287,632.7 
				1290.6,631 			"/>
			<polyline class="st36" points="1294.6,629.2 1294.9,629 1297.4,623.4 			"/>
			<polyline class="st3" points="1298.3,621.4 1300,617.7 1303.6,619.4 			"/>
			<polyline class="st90" points="1312.2,621.3 1313.5,621.1 1338.5,603.2 			"/>
			<polyline class="st3" points="1342.2,600.5 1343.7,599.4 1345.2,598.3 1345.4,598.3 1345.4,598 1345.4,597.7 1345.4,597.4 
				1344.5,594.4 			"/>
			<polyline class="st91" points="1342,586.1 1339.5,577.9 1338.7,574 1350.4,522.5 			"/>
			<polyline class="st3" points="1351.3,518.3 1352.2,514.4 1354.2,516.1 1353.3,521.2 1358.4,522.3 1359.8,514.7 1354.8,513.8 
				1354.5,515.2 1352.5,513.5 1353.3,509.6 			"/>
			<line class="st92" x1="1355" y1="501.2" x2="1361.1" y2="471.9"/>
			<polyline class="st3" points="1361.9,467.7 1362.8,463.8 1359.7,461.2 			"/>
			<line class="st93" x1="1354" y1="456.5" x2="1322.9" y2="430.3"/>
			<polyline class="st3" points="1320,427.9 1317,425.3 1317.1,422 1321.1,422.1 			"/>
			<polyline class="st3" points="1323.5,422.1 1327.5,422.2 1327.8,414.3 1323.8,414.1 			"/>
			<polyline class="st3" points="1322.2,414.1 1318.2,414 1318.4,410 			"/>
			<line class="st55" x1="1318.7" y1="402.1" x2="1321.8" y2="327.3"/>
			<polyline class="st3" points="1322,323.4 1322.2,319.4 1324.4,317.7 1325,320 1327,320.5 1327.5,319.1 1325.8,318.5 
				1330.4,316.9 1330.6,315.4 1335.2,314.6 1333.2,313.5 1332.3,311.2 1334.6,307.9 			"/>
			<line class="st94" x1="1338.9" y1="300.5" x2="1358.8" y2="257.5"/>
			<polyline class="st3" points="1360.6,253.6 1362.3,249.9 1365.1,251.6 1364.5,252.5 1365.9,253.3 1366.5,254.4 1367.1,253.9 
				1366.5,253 1367.6,250.8 1368.8,250.8 1371.2,252.2 			"/>
			<polyline class="st3" points="1372.1,252.7 1375.5,254.7 1375.8,254.2 1372.3,252.2 			"/>
			<polyline class="st3" points="1370,250.9 1368.8,250.2 1367.6,250.2 1366.5,249.4 1365.9,250.2 1362.8,248.5 1364.5,244.9 			"/>
			<polyline class="st3" points="1365.1,243.7 1366.8,240 1370.4,240 1370.8,240.2 			"/>
			<polyline class="st3" points="1379,244.1 1380.1,244.6 1380.6,244.6 1380.9,244.6 1381.2,244.6 1381.8,244.3 1382,244.3 
				1382.3,244 1382.6,243.7 1382.6,243.4 1382.9,242.9 1382.9,242.6 1383.2,242 1383.2,241.7 1383.2,241.4 1383.2,241.2 
				1382.9,240.9 1382.9,240.6 1382.6,240.6 1382.6,240.3 1382.3,240.3 1382.3,240 1378.7,238.4 			"/>
			<polyline class="st3" points="1372.8,235.7 1372.4,235.5 1370.2,232.7 1372.4,227.6 1374.4,228.5 1376.9,222.5 1375.3,221.7 
				1377.2,217.2 1378.9,217.7 1379.8,216.6 1377.8,215.8 1379.5,212.1 			"/>
			<line class="st95" x1="1381.4" y1="208.1" x2="1384.2" y2="201.9"/>
			<polyline class="st3" points="1385.2,199.9 1386.8,196.3 1389.1,197.4 1389.9,195.1 1388.8,194.6 1391.3,189.2 1390.2,188.9 
				1391.8,185.3 			"/>
			<line class="st96" x1="1395.2" y1="178.7" x2="1405" y2="172.9"/>
			<polyline class="st3" points="1408.2,170.9 1411.7,168.9 1414.6,171.7 			"/>
			<polyline class="st69" points="1420.3,177.2 1493,247.1 1567.5,318.3 			"/>
			<polyline class="st3" points="1570.4,321.1 1570.9,321.7 1571.2,323.1 1571.2,324.2 1570.9,324.8 1570.4,324.5 1570.1,324.8 
				1570.7,325 1573,327.4 			"/>
			<polyline class="st3" points="1573.2,327.6 1576,330.4 1576.3,330.1 1577.4,330.1 1579.4,330.7 1579.7,331 1579.7,331 			"/>
			<polyline class="st3" points="1583.8,334.6 1584.5,335.8 1584.8,336.1 1585.9,338 1585.3,338.3 1584.8,338.9 1587.6,341.7 			"/>
			<polyline class="st3" points="1587.8,341.9 1590.2,344.3 1590.7,344.5 1591.3,344 1591.6,344 1593.3,344.5 1595.1,345.2 			"/>
			<polyline class="st3" points="1597.5,347.4 1600,349.9 1600.3,350.2 1600.6,350.2 1600.9,350.2 1601.2,349.9 1604,352.7 			"/>
			<line class="st97" x1="1607.3" y1="355.8" x2="1612.2" y2="360.5"/>
			<polyline class="st3" points="1613.8,362.1 1616.7,364.9 1616.7,365.4 1616.7,365.7 1617,366.3 1618.8,368 			"/>
			<line class="st98" x1="1624.7" y1="373.7" x2="1633.5" y2="382.1"/>
			<polyline class="st3" points="1636.4,385 1639.3,387.7 1638.2,388.3 1636.7,386.9 1635.9,388 1638.2,390 1639.8,388.3 
				1642.7,391.1 			"/>
			<polyline class="st43" points="1648.6,396.8 1648.9,397 1655.9,408.4 1677.4,429 1684.5,431.2 1684.7,431.2 1691.9,438.3 			"/>
			<polyline class="st3" points="1694.9,441.1 1697.7,443.9 1698,443.4 1700.9,446.1 			"/>
			<polyline class="st99" points="1706.5,451.6 1736.1,480.1 1739.8,483.5 1844.6,584.5 1846.6,586 1848.5,586.5 1850.5,586.5 
				1854.5,586.3 1884.1,555.2 1885.5,552.4 1886.1,549.3 1885.5,547.6 1884.4,545.6 1851.3,513.4 1846.1,507.5 			"/>
			<polyline class="st3" points="1843.6,504.5 1840.9,501.5 1841.6,497.6 			"/>
			<polyline class="st100" points="1842.9,489.6 1844.3,480.9 1843.2,475.8 1840.6,471 1799.2,431.6 			"/>
			<polyline class="st3" points="1795.8,429.4 1792.9,426.7 1788.7,431.2 1789.5,432.1 1792.9,428.4 1795.4,430.9 1792.6,433.8 			
				"/>
			<polyline class="st3" points="1788.7,437.7 1785.8,440.5 1782,439.3 			"/>
			<polyline class="st74" points="1775,436.1 1766.3,430.4 1762.1,427.3 1757.3,422.8 1737.6,403.8 1702.8,370.5 1697.3,365.2 			
				"/>
			<polyline class="st3" points="1694.5,362.5 1693.5,361.5 1693.2,361.2 1693.2,360.6 1693.2,360.1 1693.8,359.2 1691.5,357 
				1690.1,358.6 1687.3,356.1 1686.4,357 1684.2,356.1 1683,355 			"/>
			<line class="st101" x1="1676.7" y1="348.9" x2="1641.9" y2="315.3"/>
			<polyline class="st3" points="1638.8,312.3 1635.9,309.5 1637,307 1637.9,306.1 			"/>
			<line class="st102" x1="1643.1" y1="300.6" x2="1661.6" y2="281.5"/>
			<polyline class="st3" points="1664.2,278.8 1666.9,275.9 1669.8,278.7 			"/>
			<line class="st103" x1="1675.3" y1="284" x2="1738.7" y2="345"/>
			<polyline class="st3" points="1741.4,347.7 1744.3,350.5 1747.1,347.6 			"/>
			<line class="st44" x1="1752.9" y1="341.5" x2="1796.7" y2="295.6"/>
			<polyline class="st3" points="1799.6,292.5 1802.3,289.6 1805.2,292.4 			"/>
			<polyline class="st26" points="1810.9,297.9 1902.7,387 1945.7,446.4 			"/>
			<g id="Piers">
				<line class="st104" x1="238.9" y1="-1.7" x2="245.7" y2="2.3"/>
				<line class="st105" x1="198" y1="88.3" x2="203.4" y2="93.7"/>
				<line class="st3" x1="215.3" y1="73.2" x2="218.2" y2="76"/>
				<line class="st3" x1="222.4" y1="80.1" x2="225.2" y2="82.9"/>
				<line class="st105" x1="189.8" y1="96.5" x2="195.1" y2="101.9"/>
				<line class="st3" x1="242.5" y1="102.1" x2="245.3" y2="104.9"/>
				<line class="st3" x1="249.4" y1="109.1" x2="252.2" y2="112"/>
				<line class="st106" x1="196.3" y1="110.7" x2="193.2" y2="113.8"/>
				<line class="st106" x1="197.4" y1="111.8" x2="194.3" y2="114.9"/>
				<line class="st3" x1="207.4" y1="79.5" x2="210.2" y2="82.3"/>
				<line class="st3" x1="214.5" y1="86.6" x2="217.3" y2="89.4"/>
				<line class="st3" x1="207.1" y1="107.8" x2="204.3" y2="110.7"/>
				<line class="st3" x1="200.2" y1="114.9" x2="197.4" y2="117.8"/>
				<line class="st107" x1="228.6" y1="65.6" x2="231.2" y2="67"/>
				<line class="st3" x1="230.6" y1="75.5" x2="227.9" y2="72.6"/>
				<line class="st3" x1="226.3" y1="71" x2="223.5" y2="68.1"/>
			</g>
			<polyline class="st3" points="1921.9,542.3 1921.1,542.8 1920.8,543.1 1920.5,543.1 1920.2,543.4 1919.9,543.4 1919.7,543.7 
				1919.4,544 1919.1,544 1918.8,544 1918.8,544.3 1918.5,544.3 1918.3,544.3 1918,544.5 1917.7,544.5 1917.7,544.8 1917.4,544.8 
				1916.8,544.8 1916.3,545.1 1916,545.1 1915.4,545.4 1915.1,545.4 1914.8,545.4 1914.6,545.4 1914,545.4 1913.8,545.4 			"/>
			<polyline class="st108" points="1908,545 1903.2,544.3 1901.2,544 1899.8,543.7 1899.3,543.6 			"/>
			<polyline class="st3" points="1896.4,543.2 1892.4,542.6 1892.4,542.3 1892.1,542.3 1891.9,542.3 1891.9,542 1891.6,542 
				1891.6,541.7 1891.3,541.7 1891.3,541.4 1891,541.4 1891,541.1 1891,540.9 1891,540.6 1891,540.3 1891,540 1891,539.7 
				1891.3,539.4 1891.6,539.2 1891.6,538.9 1891.9,538.9 1892.1,538.6 1892.4,538.6 1892.7,538.6 1893,538.6 1893.3,538.6 
				1897.3,539.2 1897.3,539.4 1899.8,540 1901.2,540 			"/>
			<polyline class="st3" points="1910.6,541.7 1910.6,541.7 1910.9,541.7 1911.2,541.7 1911.4,541.7 1911.7,541.7 1912,541.7 
				1912.3,541.7 1912.6,541.7 1912.9,541.7 1913.1,541.7 1913.4,541.7 1913.7,541.7 1914,541.7 1914.3,541.7 1914.6,541.7 
				1914.6,541.4 1914.8,541.4 1915.1,541.4 1915.4,541.4 1915.7,541.4 1915.7,541.1 1916,541.1 1916.3,541.1 1916.6,541.1 
				1916.6,540.9 1916.8,540.9 1917.1,540.9 1917.4,540.6 1917.7,540.6 1918,540.6 1918,540.3 1918.3,540.3 1918.3,540 1918.5,540 
				1918.8,539.7 1919.4,539.4 1919.9,539.2 1921.8,537.7 			"/>
			<line class="st3" x1="741.8" y1="671.8" x2="741.2" y2="667.9"/>
			<polyline class="st3" points="740.6,663.3 740,659.4 741.5,659.1 742.1,663 			"/>
			<polyline class="st3" points="742.8,667.9 743.5,671.8 741.8,671.8 			"/>
			<line class="st109" x1="47" y1="-47.2" x2="61.6" y2="-0.8"/>
			<polyline class="st3" points="63,3.5 64.2,7.3 60.3,8.5 			"/>
			<line class="st75" x1="52.8" y1="10.9" x2="-213.8" y2="94.9"/>
			<polyline class="st110" points="-26,236.7 -22.4,236.6 11.6,255 			"/>
			<polyline class="st3" points="15,256.8 18.5,258.7 19.2,262.6 			"/>
			<line class="st111" x1="20.6" y1="270" x2="33.4" y2="339.6"/>
			<polyline class="st3" points="34.6,343.1 34.7,343.3 36.1,343.9 38.3,343.6 39.8,341.6 39.8,340.4 39.7,340 			"/>
			<polyline class="st3" points="38.3,334.1 37.5,330.2 39.2,329.1 39.8,328.2 40.2,327.4 			"/>
			<line class="st34" x1="39.3" y1="319.3" x2="25" y2="241.2"/>
			<polyline class="st3" points="24.3,237.1 23.6,233.2 27.5,232.4 			"/>
			<line class="st112" x1="36.1" y1="230.8" x2="100.8" y2="218.8"/>
			<polyline class="st3" points="105.1,218 109,217.3 109.8,221.2 			"/>
			<line class="st96" x1="111.1" y1="228.7" x2="124.3" y2="299.3"/>
			<polyline class="st3" points="125,303 125.7,307 121.8,307.7 			"/>
			<line class="st113" x1="113.4" y1="309.3" x2="67.4" y2="317.9"/>
			<polyline class="st3" points="63.3,318.7 59.3,319.4 59.6,321.7 65.6,320.6 65.9,321.7 66.4,322 67,322.3 68.7,322 69.7,321.8 
							"/>
			<polyline class="st74" points="77.3,320.4 131.7,310.1 132.3,309.5 132.6,308.9 132.6,308.1 120.9,245.9 			"/>
			<polyline class="st3" points="120.2,242 119.8,240 120.6,238.3 124.6,237.4 			"/>
			<polyline class="st3" points="128.6,236.6 132.6,235.7 132.8,237.1 138.5,236 139.6,239.7 142.5,236.9 			"/>
			<polyline class="st3" points="145.7,233.9 147.1,232.4 148,230.7 			"/>
		</g>
		<g id="Pre1900_Kln">
			<path class="st114" d="M128.8,182.6l-2.9-0.8l-1.7-2l-3.6-1.2l-3.6-0.8l-4.5-1.6l-4-1l-5-0.1l-3.6,2.8h-3.1l-2.1,1.1l-2,0.5
				l-2.2,0.6l-0.7,1.7l-0.5,2.6l-0.1,5.2l-1,3.8l-4.1,1.9l-6.1-7.6l-3.2-1.1l-5.2-1.8l-4.4,0.4l-5.1,1.2l-4.9,2l-4.1,3.4l-2.9,2.4
				l0.9,1.7l-2.5,2.4l-3,0.6l-2.8,1.3l-2.8,0.6l-4.4,1l-4,0.9l-3.5-0.1l-3,0.8l-3,2.6l-4.2,1.9l-4.6,4.4l-3.4,1l-4.1,1.1l-5,1.3
				l-3.1,3.6l-2.7,3.1l-3,0.3l-2.3-0.4l-2.2-1.4l-2-1.9l-2.6-1.9l-3.4-1.5l-2.5-2.4l-5-8.4l-2.3-4.4l-2-5.4h-2l-1-2.2l-1-3.3l-0.2-2
				l-0.8-2.3v-2.2l-1-2.2v-2.2l-0.2-2.2v-2.4l0.1-5.5v-2.1l-0.7-1.8l-1.5-1.7l-1.5-2.2l0.5-1.2l1.5-1.9l1.4-0.4l3.2,0.2l2.4-0.3
				l3.3-0.1l4-1.7l3.4-1.8l2.9-2l2.4-2.3l2.5-2.5l2.6-2.3l3.7-4.2l3.8-5.1l4.7-5.9l8-4.8l9.3-1.2l8.4-2.2l7-1.9l8.3-1.8l8.9-1.5
				l9.2-5.4l5.6-3.3l5.8-5.2l4.9-6.5l3.6-7.3l3.3-7.1l2-4.1l1.7-6l1.2-7.6l3.5-5.7l5.9-3.3l6.8-0.8h7.7l7.2,2.4l6.4,4.9l1.3,3.8
				l3.4,6.4l4.4,1.3l7.1,17.1l9.8,11.1l8.6,8l2.8,2.4l3.4,3.2l5.2,6.6l9.8,7.5l8,7l11.4,7.8l11.6,5.7l21.1,7l8.1,1l7.4,0.4l4.6,0.1
				l2.4-0.3l2.3-1.4l3.2-1.3l3.8,0.9l4.1-0.6l9-4.6l6.9-7.9l4.3-7.1l2.4-5.1V126l-0.5-4.3l-0.1-1.2l-2.3-4.2l-1-2.7l3.2-2.4l2.3-4.6
				l0.2-5.1l-0.3-3h2.5l4.7,2.6l3.6,1.8l3.7,1l2.9,1.3l2.9,1.5l3.8,3.5l2.6,6.8l2.1,3.5l2.9,4.1l4.2,5.4l5.2,9.3v8.1l-2.1,2.2
				l-6.4,1.9l-10.4,3.5l-7.3,4.5l-8.4,5.2l-12.3,13.2L272,191.9l-5.2,7.6l-3.3,5.3l-3,8l-0.2,6.1l-1.5,5.8l1.8,6.1l2,4l-6.1,14.1
				l-24.2,19.3l-2,7l-1.6,6.1l-2.7,5.4l-3.6,5.6l-4.1,2.9h-4.5l-4.3-3.8l-4.9-5.2l-3.8-4.5l-0.8-0.8l-3-2.8l-4.2-3l-4.8-3.8
				l-2.3-3.2L182,261l-3.6-7.1l-3.9-5.6l-2.2-2.1l-4.6-3.8l-5.4-3l-5.1-2.6l-4.9-3l-4.2-3.1l-0.7-1.2l0.1-1.8l2.4-7.1l1.9-3.7
				l0.7-3.6v-5.5c0-0.5-1.7-5.4-1.7-5.4l-1.4-4.6l-1.5-3.5l-1.2-3.1l-2.6-2l-3-2.4l-6.7-3.3l-2.7-0.7L128.8,182.6z"/>
			<path id="Pre1900_Kln-2" class="st114" d="M-292-955.2l1.2,8.9l8.7-12.1h6.5l3.1,4.7l9.5,9.5l4.7,9.4l-3.1,9.5l-6.3,7.9l-9.4,4.7
				l-4.7,6.3l-1.6,9.5l-4.7,6.3l-4.6,7.1l-4.9,7l-4.7,6.3v6.3l-4.7,1.6l-3.1-3.2l-4.7-6.3l-6.3-6.3l-12.6-3.2l-11,3.2l-9.5,4.7
				l-7.9,4.7l-12.6-1.6l-4.7-1.6l-4.7,3.1l-7.8,1.6l-9.4,4.7l-9.5,7.9l-7.9,7.9l-4.7,7.9l-3.1,6.3l-4.7,6.3l-3.1,7.9v7.9l-4.7,4.7
				l-7.9,3.2h-12.6l-3.1,3.2v4.6l1.6,3.2l4.7,7.9l3.1,7.9l1.6,4.7h3.1l4.7-1.6l4.7-1.6h6.3l4.7,1.6l7.9,3.2l7.9,4.7l7.9,7.9l1.6,6.3
				l-1.6,7.9l-1.6,11.1v7.8l3.1,9.5l1.6,6.3v3.2l3.1,6.3l6.3,11l3.1,4.7l3.1,4.7l1.6,4.7l1.6,6.3l1.6,3.2l1.6,4.7l1.6,1.6l4.7,1.6
				l3.1,3.2l1.6,3.1l3.1,3.2l3.1,1.6h4.7l1.6-1.6l4.7-3.2h6.3l9.5-1.6l9.4-7.9l4.7-11l4.7-9.5l3.1-14.2l4.7-9.4l9.5-4.7l9.8-6.7h5.7
				l5-1.5l4.6-3.1h12.8l5.7,1.5l4.3,0.8l4.9,0.8l4.7,1.5h3.4l4.2,1.5l4.6,1.5l3.1,1.5l4.6,3.1l4.6,3.1l3.1,3.1l3.1,3.1l3.1,3.1
				l3.1,1.5h5.5l0.6-1.5h1.5l2.3,1.5l2.3-1.5l1.5-1.5l1.5-1.5v-4.5l-1.5-1.7v-3l1.5-1.7l1.5-1.4v-7.7l-1.4-1.5l-1.6-1.5l-1.5-1.5
				l-1.5-1.5l-1.5-3.1v-3.1l1.5-3.1l1.5-3.1l1.5-1.5l3.1-3.1l3.1-3.1l3.1-1.5h2.9l3.2-1.5l1.5-3.1v-3.1l1.5-3.1l3.1-3.1l3.1-3.1
				l3.1-1.5l3.1-1.5l3.1-1.5h2.7l3.4-1.5l3.1-1.5l3.1-3.1l3.1-3.1l1.5-1.5l1.5-3.1l3.1-3.1l3.1-1.5h9.2l4.6,1.5h3.1l4.6,1.5h9.2
				l4.6,1.5l4.6,1.5l4.6,3.1l3.1,1.5h9.2l4.6,1.5l4.6,3.1l4.6,1.5h4.6l6.2-1.5l4.6-1.5l3.1-1.5l4.6-6.2l1.5-4.6l1.5-6.2l1.5-4.6
				l1.5-4.6l3.1-4.6l3.1-4.6l3.1-4.6l3.1-4.6l3.1-4.6l3.1-4.6l4.6-4.6l6.1-4.6c0,0,4.6-4.6,6.2-4.6s3.1-3.1,3.1-3.1v-3.2l-1.5-6
				l-1.5-4.6l-1.5-4.6l-1.6-4.6l1.5-4.6l3.1-3.1l3.1-1.5h6.2l-0.1,1.5L8.8-873l-3.1,1.5l-1.5,3.1v3.1l1.5,4.6l1.5,4.6l1.5,4.6
				l1.5,4.6v12.3l-1.5,3.1l-3.1,3.1h-9.2l-3.1,3.1l-3.1,3.1l-4.6,4.6l-3.1,4.7l-4.6,6.2l-3.1,6.1l-3.1,4.6l-1.5,4.6l-1.5,4.6
				l-1.5,4.6l-1.5,4.6l-3.1,4.6l-3.1,3.1l-3.1,4.6l-3.1,4.6l-1.5,4.6l-1.6,6.2v21.5l-1.5,4.6v3.1l1.5,4.6l1.5,7.7v7.7l-1,7.7
				l-0.5,6.2v10.8l1.5,3l1.5,4.6h-1l-3.6-1.5h-6.2l-1.8,1.5l-2.8,3.1l-3.1,3.1l-4.6,4.6l-3.1,3.1l-3.1,3.1l-3.1,3.1l-3.1,1.5
				l-3.1,6.2l-3.1,6.1l-3.1,6.2l-3.1,6.1l-3.1,4.6l-3.1,4.6l-1.5,6.2l-4.6,6.2l-4.6,4.6l-4.6,4.6l-3.1,3.1l-4.6,3.1l-4.6,4.6
				l-3.1,3.1l-4.6,1.5l-4.6,1.5h-3.9l-3.8,1.5l-1.5,1.5l1.5,3.1v7.7l1.5,3.1l-1.5,3.1l-1.5,3.1l-1.5,4.6l-1.5,4.6l-1.5,4.6l-3.1,6.2
				v10.8l-1.5,6.2l-1.5,6.1v9.2l1.5,6.1v4.6l1.5,6.1v12.3l-1.5,6.1v32.3l1.5,6.1l1.5,4.6l-4.4,0.3l-4.2-4.2l-3.4-1.4l0.9,3.7
				l1.5,3.4l2.3,4l2.9,4.3l3.8,6.6l7.4,7l6.6,4.9l6.4,4.3l6.9,4.1l6.3,2.1l6.1,2.3l7.4,3.1l7.2,3.5l7.4,3.1l7,2.9l8,2.9l8,3.5l9,4.1
				l8.8,4.8l2.5,3.4l2.1,5.5l-0.3,6.1l-0.6,4l0,3l5.1,1.9l7.2-0.3l6.3-0.4l2.7-1.8l3.3-1.5l4.7,1.6l1.6,4.7l1.6,3.1l1.6,4.7v4.7
				l-1.6,4.7v4.7l1.6,3.1l3.1,4.7h5.3l4.2,1.6h4.5l3.5,1.6l4.7,1.6l3.1,4.7l1.6,4.7l-0.6,2.6l-3.2,2.7l-5.1,1L0-272.1l-2.7,6.9
				l4.1,3.4l2.9,4.4l3.2,4.4l4.5,3.9l5.7,4.2l6.3,4l6.5,2.5l5.7,1.9l5,1.3l4.6,2.4l10.3,2.2l8.2,1.2L67-232l1.3-6l1.7-3.6l2.4-2.3
				l2.1-4.2l1.7-4.1l0.9-3.4l1.3-2.6l-3-4.9v-5.5l1.6-3.1l1.6-3.1l1.6-3.1v-4.6l-1.6-4.8v-1.6l3.2-1.6l1.6-3.1v-9.5l1.6-3.2l1.6-3.1
				v-3.1l-1.6-4.7v-6.3l1.6-5.2v-4.2l-3.2-4.8v-4.7l-4.7-7.9l-1.6-7.9v-6.3l-1.6-6.3l-1.5-6.3l-1.6-3.1l-1.6-3.1l-3.2-3.1l-3.9-0.5
				h-7l-4.2-1.4l-1.9-1.4l-1.6-4.7v-33.1l-1.6-4.7v-3.1l1.6-1.6l3.2,4.7l3.1,1.6l3.2,3.1v4.7l1.6,3.2l3.2,1.6l3.2,1.6l4.7,0.3
				l3.2-0.3h3.2l3.1,1.6v10.7l3.2,1.9l4.7,1.6l1.6,4.7l1.6,4.7l1.6,6.3l3.2,4.7l3.2,3.1l4.7,1.6h3.2l3.2,3.1l3.1,3.1v2.7l-4.7,3.5
				l-1.6,3.1l1.6,3.1l1.6,4.7v33.1l3.1,4.7l1.6,3.1l3.2,3.1l1.6,3.1l1.6,1.6l1.6,1.6l1.6,1.6l1.6,1.6v2.8l1.6,1.9l1.6,1.6l1.5,1.5
				l4.7,3.1l6.3,1.6l4.7,1.6h6.3l4.7,1.6l4.7,1.6l4.7,3.1h3.1l4.7,1.6l3.1,3.1v16.1l1.6,4.3l1.6,4.7l1.6,3.1l1.6,3.1l1.6,3.1
				l1.6,3.1l1.6,3.1l1.6,3.1v3.1l1.6,4.7v3.1l1.6,4.7l1.6,3.1l1.6,3.1l1.6,1.6l4.7,3.1l4.7,1.6l4.7,1.6l4.7,1.6h7.9l3.1-1.6l3.1-1.6
				l3.1-1.6l3.1-1.6l14.7-4.7l12.1-4.8l6.3,1.6l1.6,1.6l4.1,1.7h5l5.1-1.7l6.3-3.1l1.6-3.1l1.6-4.7v-2l1.6-1.1l1.6,3.1v2.9l3.1,1.8
				l4.7-1.6l12.6-4.7l6.3-1.6h3.1l4.7,1.6l1.6,3.1l1.6,3.1l4.7,3.1h17.3l6.3-1.6l7.9-1.6l4.7-3.1l1.6-3.1l1.6-3.1l-1.6-4.7l-4.7-4.7
				l-9.4-6.3l-3.1-3.1v-3.1l1.6-1.6h3.1l4.7,3.1l4.7,3.1l4.7,4.7l3.1,4.7l1.6,3.1l1.6,6.3v5.1l1.6,4.3h4.7l3.1-1.6v-7l-1.6-4
				l-3.1-6.3l-3.1-11v-14.2l1.6-1.6l1.6,1.6v3.1l1.6,3.1l1.6,1.6h3.1l4.7-3.1l3.1-1.6l1.6,3.1h4.7l4.7-1.6l3.1-1.6h3.1l9.5-1.6
				l6.3-3.1l6.3-4.7l3.1-4.7l3.1-4.7l4.2-5.8l9.6,5.8l5.8-1.9l3.9,3.9l5.8,1.9l7.7,7.7l7.7,5.8h3.9l9.6,7.7l9.7,7.7l5.8,5.8v5.6
				l3.9,7.9l5.8,5.8h7.7l3.9-3.9h1.9l1.9,5.8l7.7,3.9l3.9,1.9l5.8,3.9l5.8-1.9l1.9,5.8l11.6,5.8l11.6,11.6l7.7,5.8l1.9,9.6v9.4
				l1.9,13.7l5.8,19.3l7.7,21.2L634-86l7.7,7.7h5.5l0.3,11.6l3.8,7.7l-7.7,11.6l-7.7,9.6l-9.7-3.9h-9.7l-7.7-3.9h-9.7l-9.7,1.9
				l-3.9,3.9l1.9,9.7l5.8,9.6l11.6,7.7l5.8,3.9l1.9,5.8l-1.9,3.9l1.9,3.9l11.6,11.6L634,26l1.9,3.9l3.9,3.9h3.9l1.9,1.9l3.9,1.9
				l1.9,5.8l1.9,7.7l3.9,5.8l3.8,3.8l1.9,3.9l-3.9,3.9l-1.9,1.9l-3.9,1.9l-4.9,1l-4.7,0.9l-5.8,1.9h-4.3l-3.5,3.8l-3.9,5.8l3.9,6.4
				v14.6l-1.6,7.6l-6.2,8l-3.9,25.1l1.9,5.8l3.9,5.8l5.8,5.8l7.7,11.6l7.7,3.9l7.7-7.7l7.7-9.6l1.9-9.7l1.9-5.8l9.7-7.7l3.9-5.8
				l1.9-13.5l1.9-13.5l1.9-9.7l3.8-9.6l1.9-7.8V68.5l1.9-3.9l13.5-1.9l23.2,1.9l19.3,3.9l13.5,3.9l11.6,1.9l7.7,5.8v27l-1.9,5.8
				l1.9,5.8v7.7l-5.8,11.6l-3.9,5.8l-3.9,3.9v5.8l1.9,5.8v38.6l1.9,7.7l2,4.9v2.5l3.8,8.1v21.2l3.9,3.9l5.8,3.9l3.9,1.9l3.9,5.8v5.8
				l1.9,5.8l1.9,3.9v5.8l1.9,3.9v5.8l-1.9,1.9l-3.9,1.9l-3.9,1.9l-1.9,7.7l1.9,1.9v5.8l5.8,3.9l1.9,1.9l5.8,1.9l1.9,5.8l5.8,7.7
				l1.9,9.7l3.9,3.9v3.9l-1.9,7.7l-3.9,7.7l-1.9,9.6l3.9,1.9l7.7,7.7l7.7,5.8v9.6l-3.9,3.9v7.7l-1.9,5.8v15.5l-1.9,5.8l-3.9,7.7
				l-5.8,5.8l-7.7,1.9l-5.8,5.8l-1.9,5.8l-3.9,9.6l-3.9,9.6l-5.8,13.5l-3.9,1.9l-9.7,3.9l-3.9,3.9l-1.9,5.8l-1.9,5.4v13.9l1.9,3.9
				l3.9,5.8l7.7,1.9l3.9,1.9l3.9,5.7l1.9,9.8l1.9,7.7l-1.9,11.6l-1.9,10.8v10.4l1.9,11.6l1.9,14.1v18.8l3.9,7.7l3.9,7.7l1.9,7.7
				v17.4l-3.9,7.7l1.9,13.5l1.9,7.7l1.9,3.9l3.9,7.7l1.9,7.7l1.9,4.2v7.4l1.9,5.8l1.9,8.3v5.2l3.9,3.9h3.9l3.9-5.8l1.9-7.7l7.7-3.9
				l1.9-7.7l7.7-7.7l9.7-1.9l7.7-3.9H883l5.8-1.9h13.5l3.9,5.8l3.8,9.7l1.9,5.8l7.7,7.1v4.5l3.9,5.8h9.7l9.7-9.7l7.7-11.6l3.9-9.7
				v-11.5l-3.9-5.8l-3.9-11.6l1.9-7.7l1.9-13.5l3.9-15.5l3.9-13.5l3.9-9.7l5.8-13.5l3.9-13.5l5.8-19.3l3.9-17.4l3.9-3.9l5.8,1.9
				l5.8,3.9l5.8-1.9l3.9-5.8l7.7-11.6l3.9-19.3l1.9-13.5l3.9-15.4l3.9-13.5l3.9-9.7l5.8-5.8l7.7-9.6l5.8-3.9l3.9-5.8l3.9-3.9
				l5.8-3.9l5.8-3.9l3.9-2.6v-3.2l1.9-5.8l3.9-1.9l5.8-1.9l17.4-3.9l9.3,14.9l9.7-3.9l3.9-3.9l3.9-1.9h5.8l1.9,1.9l3.9,7.7
				c2.7,1.8,5.3,3.7,7.7,5.8c1.9,1.9,9.7,3.9,9.7,3.9l13.8-11l9.7,3.9l7.7,1.9l5.8,1.9l5.8,3.9l3.9,5.8l5.8,3.9l3.9,5.8l5.8,6.3v7.2
				c0,0,1.9,3.9,1.9,5.8s5.8,3.9,5.8,3.9l7.7,1.9l5.8,3.9l3.9,3.9l5.8,5.8l7.7,3.9l3.9,3.9v7.7l1.9,5.8l5.8,3.9l5.8,1.9h3.9l1.9,3.9
				l3.9,7.7l3.9,3.9l3.9,1.9l7.7,3.9l5.5,4.1l4.4,0.5l1.5-0.9l3.2-3.2l1.6-6.3v-7.9l-4.7-7.9l-3.2-7.9l1.6-11l7.9-9.4l1.6-17.7
				l5.8-13.5l7.7-7.7v-3.1l-0.9-3.5l-1.6-4.7l-4.7-4.7l-1.6-4.7l-6.3-7.9l-6.3-6.3l-11-6.3l-12.6-6.3l-11-4.5l-11.6-1.9l-5.8-5.8
				l-1.9-3.9v-7.7l-5.9-12.4l-7.6-10.8l-9.7-7.7l-7.7-13.5l-3.9-12.2v-53.4l1.9-20.5v-12.3l5.8-9.6l5.8-9.7l7.7-3.9l5.8-3.9l7.7-5.8
				l5.8-3.9h5.8l5.8,1.9l9.7-3.9l7.7-3.9l3.9-3.9l5.8-3.9l9.7-3.9l11.6-7.7l7.7-11.6l1.9-11.6V165l-3.9-5.8l-5.8-5.8l-5.8-9.6
				l-15.4-9.6l-15.4-7.7l-13.5-5.8l-5.8-7.7l-1.9-15.4l1.9-15.4l1.7-6.1v-3.2h3.2l1.6,3.2v7.9l1.6,3.2l1.6,1.6h14.2l3.2-4.7l4.7-7.9
				l3.2-7.9l1.6-4.7l3.2-1.6v-1.6l-4.8-3.1l-3.2-3.2V41.2l3.2-1.6h3.1l4.5-2.1l3.9-5.8l4.2-7.9V16l-1.6-7.8l-1-3.7l1.6-1.6l7.9-3.2
				l7.9-3.2l7.8-4l7.7-9.7l17.4-15.4l7.7-7.7l11.6-7.8l9.7-11.6l17.4-21.2l17.4-19.3l15.4-17.4l11.6-11.5l13.5-9.6l9.7-5.8l15.4-5.8
				l21.2-3.9l12-1.9h76.8l5.8,7.7l5.8,3.9l5.8,5.8l5.8,3.9h1.9l1.9-3.9l7.7,5.8l5.8-1.9l1.9,1.9l13.5,11.6l11.6,7.7l7.1-0.2l6.4-1.7
				v3.9l-6.4,4.1l1.6,2.5l2.9-0.8l4.6-1.7h3.1l7.7,7.5l-1.9,3.9l-5.8,5.6v6l1.9,7.7l5.8,3.9l7.7,3.9l7.7,1.9v1.9l1.9,3.9l3.9,1.9
				l1.9,1.9l-3.9,3.9l-1.9,5.7v7.7l-3.8,3.9l1.8,1.9l5.8-1.9l7.7,5.8l3.9,5.8l5.8,9.6l3.9,1.9l9.7,3.9l11.6,5.8l7.7,3.9l1.9,5.8
				l3.9,7.7l5.8,5.8l4.8,3.9h6.7l-3.9,3.4v2.4l3.9,2V35l7.7,5.8l9.7,7.7l7.7,11.6l3.9,5.8l5.8,5.8v5.8l1.9,5.8l-2.2,3l-1.6,1.6
				l-3.2,3.2l-4.7,3.2l-3.2,1.6l-3.2,3.2l-1.6,4.7l1.6,1.6l1.6,3.2l3.2,3.1l1.6,1.6v3.2l1.6,1.6v3.2l1.6,1.6l3.2,1.6l5.4,2l-0.7,1.1
				l-4.7,3.1l-4.7,3.1v1.6l1.6,1.6h4.7l-1.6,4.7l1.6,3.1l-3.2,6.3l-3.2,4.7h-3.1l-1.6,1.6v3.1l1.6,3.1l1.6,4.7l1.6,4.7l1.6,4.7v6.4
				l-3.2,4.7l-6.3,3.1l-4.7,3.1l-1.6,3.7v5.8l1.6,4.7l3.2,1.6l3.1,6.2v3.1l-1.6,6.3l-3.2,2.4v2.3l3.2,1.6l4.7,6.3l1.6,4.7l3.2,4.7
				l3.2,6.3l3.2,1.6l4.7,3.1l1.6,3.1l1.6,1.6h6.3l3.2,1.6l1.6,3.1l3.2,4.7l3.1,1.6l7.9,3.1l4.8,1.6l4.7,4.7l3.2,6.3l4.7,1.6l3.2,3.1
				h1.6l1.6-1.6l4.7-3.1h3.2l4.7,1.6l4.7,1.6h9.4l3.2,1.6l1.6,3.1l1.6,3.1l6.3,4.7l3.2,1.6l3.2,1.6l3.1,3.1l3.2,1.6l4.7,3.1l6.3,1.6
				l4.7,1.6h4.7l3.2-1.6h11l6.3,1.6l7.9,4.7l4.7,1.6l4.7,3.1l4.7,4.7l3.1,6.3l3.2,4.7l3.2,3.1l4.7,3.1l6.3,3.1h1.6l3.2-1.6l3.2-6
				v-6.6l1.6-1.6h4.7l4.7-1.6l4.7-1.6h1.6l1.6,1.6l18.9,25.2l7.9,11l1.6,3.1l4.7,3.1l6.3,3.1l4.7,3.1l6.3,4.7l6.3,3.1l3.1,1.6h3.1
				l4.7-1.6h3.1l6.3,1.6h9.4l3.1-4.7v-9.4l-1.6-11l1.6-6.3v-3.1l-1.6-12.6v-15.7l1.6-4.7h1.6l4.7,7.9l9.4,11l7.9,7.9l3.1,4.7
				l6.3,3.1l3.1,4.7v4.7l4.7,3.1l6.3,1.6l6.3,1.6l6.3,3.1l6.3,1.6l3.1-1.6l4.7-3.1h3.1v1.6l-1.6,1.6l-6.3,7.9l-6.3,7.9l-9.4,6.3
				l-7.9,4.7l-14.2,9.5l-6.3,6.3l-1.6,9.5l-3.1,6.3l-6.3,1.6h-7.9l-7.9,1.6l-3.1,1.6l-4.7,6.3l-4.7,6.3l-3.1,4.7l1.6,4.7l-1.6,9.5
				l-1.6,6.3l-1.6,6.3l-3.1,4.7l-3.1,3.1l1.6,1.6l1.6,3.1l1.6,3.1l-3.1,1.6h-6.3l-9.4,1.6l-7,3.1l-4,3.2l-4.7,7.8V546l7.9,11
				l3.1,7.5l1.6,9.8l-1.6,6.4v8.3l1.6,5.8l1.7,3.4l1.4,4.4v6.9l0.3,5.3l3.1,8.7l3,4.4l3.1,3.2l1.7,5.1l4.5,8.4l6.4,11.7l6.1,12.6
				l4.7,9.5l4.9,7.8l6.3,4.7l11.7,7.9l11.9,4.7l11.1,3.1l8.4,1.1l5.6,0.3l6.3,0.2h6.3l4.7-1.6h4.7l3.1,1.6h25.2l6.3-3.2h6.3l4.7-3.2
				l4.7-1.6l4.7-3.2l3.1-1.6h6.3l4.7-3.1h3.1l4.7,1.6h9.4l7.9-3.2h3.1l9.4,1.6h6.3l1.6,1.6l-1.6,1.6l-3.1,4.7l-3.1,4.7v3.2l-3.1,1.6
				l-4.7,3.2l-1.6,3.2l1.6,9.5l3.1,7.9l3.1,7.9l3.1,4.7l1.6,14.2l-3.1,1.6h-7.8l-6.3,3.1h-4.7l-3.1-1.6l-7.9-3.2h-4.7l-6.3,1.6
				l-7.9,3.1l-1.6,3.2v3.2l1.6,6.3l1.6,11l-1.6,3.2h-3.1l-4.7-3.2l-3.1-1.6l-3.1-3.2l-4.7-1.6l-4.8-3.1l-4.7-1.6h-4.7l-3.2,1.6
				l-1.6,4.7l-1.6,6.3l1.6,4.7l4.7,6.3l11,9.5l12.6,9.5l4.7,1.6l6.3,1.6l3.1,1.6l4.7,7.9l-1.6,0.8v2.4l1.6,1.6l12.6,11l11,7.9h6.3
				l6.3-3.2l6.3-1.6l6.3-4.7l5-0.8l7.5,1.2l1.3,5.3l3.6-1.1l5.1-1.8l6-2.7l2.4-0.5l2.2,0.2l1,4l-1.7,5.2l-4.5,4.6l-4.4,2l-2.6,3.8
				l-0.3,4.6l1,3.2l-1.6,3.5l-1.3,2.5l-3.1,2.3h-1.9l-1.8,3.7l1,1.1l-2.4,6.8l-2.5,4.2l-1.9,2.2l-2,6l-2,0.7l-2.6,2.8l-2.1,5.7
				l1,3.2l-3.2,2.8l-2.8,6l-4.7,5.1l0.7,4.5l-1.6,5.3l-1.8,2.9l1.4,1.2l5.4,1.6l4.4,3.2l6.9,1.3l5,3.4l2.6,3.6h2.9l7.7,6.1l7.4,7.1
				l4.3,4.6l5,2.1h5.2l3.9,1.3l2.2,4.2v3l5.1,2.3h10.8l1.4,2.2l3.8,1h8.8l4.4,2.6l5.8,1.6h5.4l5,3.1l5.5,2.3h2.2l1.4-1.7l2-0.8
				l1.3,1l2.5,0.8l0.9,1.7l-0.6,1l1.8,1.3l1-1.7l1.3-0.9l3.4-0.4l4.4,0.5l2.6,0.8l2.5-1.2l2.9-2.1l3-5.5l2.6-5.5l3.3-5.5l5.1-6.8
				l4.3-4.6l5.9-7.2l5.4-5.1l5.6-6l1.4-6.1l-2.2-6.3l-0.7-6.3l1.4-4.6l-0.1-3.7l1-4l1.7-2l2-0.3l3.7,2l3.9,1.4l2.7,0.4l2.7-2l3-2.9
				l4-2.2l3.5-3.1l1.8-2.5l0.8-3.1l1.2-3.7l3-1.8l2.5-0.7l2.5,0.9h2l1.7-1l0.7-5.6l3.3-4l3.5-6.1l2-3.8V881l3.6-3.5l5-1.2l5.4-3.3
				l2.1-3.8l1.4-2.4l2.1,0.2l1.6-2.6l-1.2-4.3V855l-0.7-3.8l4-5l5.7-5.2l4.5-1.2l4.5,1.9l3.6,0.5l4.7-2.8l7.3-5.2l3.1-2.8l3.8-5.7
				l5-6.4l5.7-5l2.6-2.8c0,0-1.9-4.3-1.2-4.3s-1.6-5.4-1.6-5.4l1.9-4.7l2.1-2.8h2.1l2.6,2.1l2.6,0.5l4-1.9l4.7-3.8l4.5-6.9l1.4-8.8
				l-1.2-6.6l-2.1-5.2l0.9-2.8l5.4-2.1l5.4,1l2.6,1.9l3.3,0.9l4.3-3.3l3.3-4l4.3-5.4l4-6.4l3.6-5.2v-4.7l2.4-3.3l5.7-2.6l5.2-2.6
				l4.5,0.9l2.1,4.7l1.9,3.8l3.1-0.2l4.3-3.3l3.3-5.9v-7.3l1.6-8l3.1-7.1V697l-1.9-2.1l-3.5,0.2l-1.7-2.6l2.6-3.3l-0.5-5l-0.9-5.7
				l-1.2-3.8l1.7-6.6l1.2-6.4l-0.2-5.2l3.5-1.9l5.1-2.2l4.4-4l4.1-5l4.7-2.8l1.1-5.7l0.1-5.9l-0.1-7l-0.8-7l-3-2.3l-5.1-2.9
				l-4.1-2.3l-4.4-1l-3.6-0.5l-5.9-2.2l-8.8-3.5l-6.3-2.8l-3.4-5.5l-2.6-7l-3.2-8.4l-3.9-9.5l-3.9-8.4l1.9-1.5l1.5-2.6l0.5-3.7
				l-0.8-4.5l-3.3-1.9l-3.9,0.1l-3.5,0.1l-3.1,1h-3.1l-3.3-1.5l-2.6-0.7l-4.6,1l-2.9,2.5l-3.1,3.1l-3.6,2.8l-5.7,1h-11.8l-1.1-2.7
				V545l1.4-6.3l2.6-5l4.6-5.3l5.3-3.3l6.6-4.9l2.9-4.2l1.2-4.9l1.6-3.3l1.6-4.8l1.5-3.3l2.6-1l3.9-3.3l4.5-3.7l1.9,2h3.8l2-1.6
				l4.6-3.5c0,0,8.6-5.6,8.3-6s10.6-8,10.6-8l12.2-10.3l1.9-3.5v-4.8l1.2-2l-0.9-2.8l0.3-2.3l2.3-3.9l3.2-3l3.7-1.7l2.6-0.9l0.8-2.1
				l1.8-2.5l2.2-1.8l0.4-2.7l-0.2-4.6l-0.2-5.5l0.8-2.5l2.7-2l0.6-2.3l-1.2-2.8l0.3-2.3l2.3-3.2l0.4-3.4l1.2-3.9l0.4-3.6l1.6-2
				l3.5-2l4.2-2.9l0.7-3.1l2.6-3.9l-0.3-3.9l0.2-3.9l2-3.6l4.4-6l5.2-4.1l2-4.3l2.5-4.3l0.4-4.9l2.7-3.6l1.6-4.1l2.9-3.9l2-2.6
				l-1.6-2.5l-0.7-3.3l1.2-4.1l2.6-4.8l2.3-1.3l4.1,0.2l3.7,1l2.8,1.3l1.2-1.2l-1.4-1.5l-2.5-1.9l0.4-2l3-3.8v-4.5l-0.8-4.2l0.6-2.8
				l0.7-4.1l-1.8-3.4l-4.2-1.9h-3.5l-3.7-0.6l-2.5-2.3l-2.8-4.1l-2.6-5.8l-0.9-4.3l0.1-4.1l-0.3-4.1l-1.5-2.8l-2.5-4.2l-5-2.8
				l-3.8-4l-3.7-1.6v-3.1l3.1-7.9v-4.7l-3.1-4.7l-1.6-3.1v-9.4l1.6-3.1v-3.1l-3.1-3.1l-1.6-4.7l-1.6-15.7l-1.6-11v-3.2l-1.6-4.7
				l-1.6-3.1l-1.6-1.6l-3.1-3.1h-3.1l-1.6-1.6l-1.6-1.6v-3.1l-1.6-1.6l-3.1-1.6l-6.3-1.6l-3.1-1.6l-7.9-3.1h-3.1l-7.9-3.1h-7.9
				l-11-3.1l-7.9-3.1l-4.7-6.3l-3.1-6.3l-1.6-3.2l-1.6-3.1l-3.1-1.6h-4.7l-2.6,2.1l-3.8,1l-2.3-2.7l-0.4-4.7l2.3-6.5l5-6.7l3.6-6.5
				l-0.7-7.6l-3.1-5.9l-2.8-3.7l-3.1-2.5h-4.5l-3.8,2l-3.4,1.5l-3.6,0.2v-5.8l2.3-4.4l4.7-4.1l2.2-4.7v-3.6l2.5-2l3.6-0.4l2.3-3.1
				l5.4-1.8l3-1.4l1.8-3.4l2.7-3.4l3.2-0.7l5.6,1.4l5,3.4l4.7,2.9l3.2,0.5l4.1-1.3l3.2,0.5l3.2-1.3l4.9-3.6l10.4-4.7l6.3-3.2
				l5.8-1.6l2.5-1.4l2-2.4l3.4,0.7l3.6-0.4l7.4-1.3l9.7-0.9l5.9,1.8l7,2.4h16.9l8.1,1.9l5.8,4.1l2.5,4.9l2,4.7l4.3,2l8.5,2l7.2,1.3
				l3.6-1.3l3.8,1.3l1.6,4l4,6.1l2.7,7.4l3,10.5l1.6,6.8l1.6,9l1.6,9.3l2.4,7.9l3.2,4.7l4.1,10.8l4.8,10.3l4.7,7.7l4.1,4.5l4.7,4.7
				l1.6,3.1l1.6,2.3v2.5l3.1,3.1v3.2l-0.8,2.1v3.4l3.1,6.3V200l-1.6,3v3.3l0.7,1.8l2.3-0.1l2.9-1.9l2.5-1.4l3-1l2.9,0.6l3.1,3.3
				l7.1,8.4l1.4,7.3l5.8,4.3l2.9,5.8l13,4.3l14.5,7.3l8.7,2.9l1.4,2.9h2.9v-2.9h5.8l2.9,1.4l5.8-1.4l2.9-4.4h7.3l8.7-1.4l4.4-1.4
				l1.4-5.8l1.4-7.3l-2.9-13l-2.9-5.8l-2.9-4.4l-1.4-13V184l-1.4-4.3l1.4-4.4l-4.3-5.8l-1.4-2.9l1.4-5.8V155l2.9-2.9l4.4,2.9
				l1.4,2.9l4.4-2.9l7.2,1.4l4.4,7.3l1.4,10.1l2.9,7.3l5.1,5.6"/>
		</g>
		<g id="Pre1900_HKI">
			<path id="Pre1900_HKI-2" class="st115" d="M2159.1,1160.7l4.8,20.6l6.4,6.3l1.6,4.8l-3.2,7.9l-6.4,11.1l-7.9,7.9h-11.1l-11.1-4.8
				l-4.8-4.8l-7.9-3.2l-14.3-6.3l-9.5-4.8l-4.8-3.2l-11.1-22.2l-11.1-22.2l-4.8-9.5l-3.9-5.5l-2.8-7l-3.6-3.9l-14.1-3.1l-10-1.3
				l-14.6-7.5l-4-1.6l-7.4-6.8l-7.8-7.8l-6.3-11l-7.8-11l-6.3-7.8l-3.1-3.1l-4.7-7.8l-3.1-3.1l-4.7-7.8l-11-11l-9.4-9.4l-4.7-3.1
				l-6.3-1.6h-8.5l-18.2-3.1l-15.7-6.3l-7.8-4.7l-7.8-4.7l-6.3-3.1l-6.3-1.6h-4.9l-4.5,1.6l-7.8,4.7l-4.7,3.1l-4.7,4.7l-6.3,9.4
				l-4.7,4.7l-1.3,1.6h-1.8l-1.6-1.6l-4.7-9.4l-6.3-9.4l-3.1-4.7l-2.5-4.7l-2.2-4.7l-4.7-3.1h-4.7l-4.8,1.6l-3.1,3.1l-1.6,4.7
				l-1.6,7.8l-4.7,4.7l-6.3,4.7h-4.7l-3.6-0.7l-9-10.3l-7.7-11.8l-9.6-19.6l-6.3-15.7l-3.1-7.8l-3.1-9.4l-7.8-31.4L1702,885
				l-11-15.7l-12.6-9.4l-15.7-6.3l-20.4-6.3l-23.6-3.1h-3.8l-3.3,0.8l-6.3,3.1l-11,6.3l-9.4,3.1l-12.6,4.7l-11,4.7l-9.4,4.7
				l-5.6,1.5h-17.8l-15.9,2l-13.9,2l-13.9,4l-13.9,4l-9.9,2l-7.9,2h-21.8l-7.9-2l-9.9-2l-7.9-2l-9.9-2h-7.9l-7.9,4l-7.9,6l-9.9,11.9
				l-23.8,27.8l-11.9,13.9l-13.9,17.8l-6,6l-2,7.9v11.9l2,9.9l2,17.8l2,15.9v15.8l2,15.9v15.9l2,11.9l2,11.9v13.9l4,9.9l4,7.9l2,9.9
				l-2,7.9l-7.9,6h-29.7l-13.9,4l-9.9,2l-9.9,4l-9.9,2l-5.9-2l-7.9-6l-6-7.9h-15.9l-11.9-2l-11.9-4l-9.9-4l-7.9-6l-7.9-7.9l-6-4
				l-5.9-2v-4l2-4l4-4l2-5.9v-4l-2-9.9l-5.9-6l-6-2l-5.9,2l-4,2l-2,2l-2,2l-2,2v2l2,2l4,4v4l-2,5.9l-2,6l-4,5.9l-2,6l-2,9.9v4l2,5.9
				v4l-2,5.9v7.9l6,15.9l-9.9,9.9l-13.9,5.9l-6,2l-5.9,7.9l-7.9,8.3l-7.9,3.6h-11.9l-4-4l-4-17.8l2-11.9l-11.9-17.8l-7.9,2l-9.9,7.9
				l-19.8,6h-11.7v7.9l-6,7.9l-13.9,9.9l-13.9-4l-4,2l-4,2l-5.9,4h-6l-7.9,2l-6,2l-7.9,5.9l-6,2l-4,2l-6,2l-4,2l-7.9,2l-4.8-4h-26.7
				l-5.9-4l-6-2h-4l-6,2h-9.9l-4-2l-4-4l-6-4l-5.9-4l-6-4l-7.9-5.9l-2-2l-4-4l-4-2l-5.9-4l-4-2l-4-2l-6-4l-8.2-2h-7.7l-2-4l4-5.9
				l4-4l6-5.4v-2.6l-4-4l-2-2l-4-4l-2-2l-2-2h-2l-6,4l-4,4l-4,2l-4,2h-13.3l-6,2l-2,2l-2.2,2H700l-2-1.9v-8l-2-4l-7.9-5.9l-7.9-6
				l-7.9-6l-5.9-4l-9.9-4l-9.9-4l-11.9-4l-9.9-2l-9.9-2l-9.9,2l-4,2H587l-4,2l-4-2h-6l-6-2h-5.9l-4-4l-4-7.9l-6-4l-2-4l-2-4l-2-4
				l-4-4l-6-6l-4-5.9l-4-4l-2-5.9l-4-6l-4-4l-2-2l-2-4l-4-4l-4-4l-2-4l-6-6l-2-4v-7.9l-2-6l-6-4l-4-4l-2-2l-2-2l-4-2l-5.9-2h-9.9
				l-4-2l-7.9-4h-11l-6-2h-5.9l-2,4l-4,2h-2l-4,2l-4,2h-4l-6-2l-6-2v-4.8l-2-4l-6-4l-5.9-4l-2-4h-4l-4,2l-2,4h-11.9l-5.9-6l-6-4
				l-6-6l-5.9-0.8l-6.3,3.1l-6.3,4.7l-6.3,3.1h-4.7l-5.8-1.4l-4.7-3.1l-3.1-3.1L285,958l-1.6-1.6l-6.3-1.6h-3.1l-3.1,1.6l-2.9,1.4
				l-7.9-2h-4l-5.9-2h-23.7l-6-2l-4-4v-4l-2.1-4.8l-3.8-1l-5.9-0.4h-13.9l-4,0.4l-2,2l-2,5.9l-2,6l-7.9,4l-2.4,2.1l-6.3,1.6h-6.3
				l-6.3-1.6l-5.7-0.6H134l-7.9,2l-6,2l-6,4l-5.9,4l-7.9,4l-7.9,4l-6,2l-9.9,2H54.7l-6-2l-7.9-6l-2-1.4l-2.8-2.8l-3.4-3l-12.3-1.8
				l-8-2L7.7,961l-6.8,2.1l-4.3,3.2l-2.8,5.9l0.3,2.5l0.5,3.6v6l-4,6l-4,6l-2,6l-2,10l-6,4l-4,2l-4,4l-6,6l-8,4l-6,4l-4,4l-4,4l-2,6
				l-2,6l-4,8l-4,6l-6,6l-10,6l-6,2l-6,2l-8,2l-8,2h-8l-8-2l-6-2l-6-4l-4-2l-6.4-8.2l-7.1-7.1h-7.9l-6.1,3.2l-4.8,1.6h-4.6l-2.5-0.8
				l-3.2-1.6l-4.7,1.6l-4.8,3.2l-4.7,3.2l-1.6,3.2l-3.2,4.7l-1.6,3.2l-3.2,1.6l-7.9,1.6h-4.7l-3.2-1.6l-1.6-1.6l-1.6,1.6l-3.2,3.2
				l-4.7,3.2h-13.6l-27.5,7.9l-17.4,6.3l-24.2,12.2l-6.9,6l-6.5,5.7l-1.2,5.6l-4.3,4.8l-1.6,6.7l-1.3,7l-1.4,6.2l-4,7.7l-3.2,3.6
				l-4,2.4l-2.3,2.6l-0.7,5.4l-1.9,6.1l-1.2,7.5l3.4,6.8l1.1,6.9l-0.8,4.4l-2,1.9l0.8,7.1l-2,7.5l-0.5,6.2l0.8,9.6l-1.5,4.8l0.9,6.3
				l6.7,8.2l6.1,6l5.7,5.2l12.8,4.2l6.4,6.1l4,9.2l11.6,12.4l3.9,1l3.7,5.8l2.8,4.3l2.8,5l4.3,3.2l6.2,4.3l7.6,1.8l4.4,0.5h5.4
				l4.7,2l3,2.1l3.3,1.6l4.7,1.6h5.4l10.4,1.6l7.9-1.6l6.3-1.6h4.8l4.7-3.2l7.9-3.2l4.7-3.2l1.6-1.6l3.2,1.6l6.3,1.6l4.8,1.6
				l3.2,7.9v6.3l-3.2,7.9l-3.2,4.8l-1.6,7.9v4.8l-3.2,3.2l-3.2,3.2l1.6,1.6v1.4l-1.6,1.6v3.2l3.2,1.6l3.2,1.6l1.6,3.2l-1.6,3.2
				l1.6,4.8l4.7,4.7l6.3,4.8l1.6,1.6l1.6,4.7l1.6,1.6l6.3-1.6l1.9,1.6l1.3,3.2l2.4,5.9l0.8,6.8l3.2,3.2l3.2,1.6v7.2l4.7,10.2v5.7
				l1.6,7l1.6,1.6l-3.2,7.9l-1.6,7.9l-1.6,11.1l-3.2,4.7l1.6,3.2l1,4.2l0.7,5.7l1.7,6.7l4.1,14.4l4.4,4.2l3.1,2.1l2.4,5.4l4.8,4.7
				l3.8,5.9l5.2,1.6l3.7,0.2l3.1,0.3l4.8,1.6l4.4,0.7l3.6,0.9l5.9,1.9l3.1,2.7l-0.2,3.1l0.5,2.5l2.2,1.3l1.6-2.3l2.1-5.6l2.3-1.7
				l1.5-1.8l3.2-1.6l2.8-2.4l1.2-3.7l0.6-3.1l0.6-2.7l2.3-0.6l3.1,2.9l3.7-0.8l1.7-1.6l-1.7-4.4l2.3-4.8l1.7-2.7l2.5-1.7l3.5,0.6
				l3.3,0.2h2.7l2.9-0.2l2.1,1.3v2.1l1.1,2.6l4.8,1.6l4,2.6l2.3,5.3l-2.9,3l-0.4,3.3l0.6,3.9l1.5,2.5l1.2,1.6l3.1,3.8l1.9,3.5
				l2.3,3.1l-1.9,4.1l-2,2.6l-0.3,5v3.2l1.6,3.2l3.2,3.2l7.9,0.2l5.6,3.3l4,4.4l4.7,7.9l1.6,3.2v5.2l-0.2,3.9l1.6,3.4l1.7,3.2
				l2.6,4.6l2.9,3.6l-0.9,7.2l0.5,5.3l-1.2,4.6l1.7,5l2,5l-1.4,5.5l-1.3,4.6l-2.1,4.3l-2.4-0.2l0.4,2.8l1.5,1.3l-2.1,4.5l-2.9,3.2
				l-9.5,18l-3.8,6l-1.2,5l-1,4.4l-2.1,5.7h2756.1l-0.1-2l0.7-4.5l-0.8-4.6l1.2-2.4l3.5-0.7l6.1,1l3.5-0.8l0.5-3.7l-1.9-2.6l1.4-1.4
				l2.1-2.1l0.7-3.6l-2.8-1.5l-0.8-3.5l1.7-2.6l3.3-0.8l2.6-2.7l-1.8-4.1h-1.6l-1.6-1.6l-1.3-2.6l1-3.8l-1.3-6.4l-1-2.9l1.8-2.9
				l-2.1-0.8l-2.6-0.5l-1.1-2.4l-0.3-3.3l0.2-1.9l-2.4-2.7l-0.3-4l-1.9-3.3l-0.5-4.1l-0.9-4.4l-4.2-2.3l-4.1-1.1l-1.1-4.6l-1.2-4.2
				l-5.5-3.9l-0.5-2.7l0.6-5.1l3.2-2.7l-1.7-5.2l0.5-5.9l2.8-5.2l0.5-3.8l1.9-1.7l1.4-4.7l2.6-3.1l6.1-1.7l5.6-0.9l7-1l5.5,1.6
				l7.1-3.4l4.9,0.3l3.3-1.8l2.5-1.8l-0.9-5.3l-3.2-6.2l-12.7-12.7l-4.8-6.3l-3.2-1.6l-4.8-6.3h-3.2l-4.8-6.3l-6-6l-5.1-1.9
				l-1.6-1.6l-3.2-4.8l-2.7-4.7l-0.6-5.9l-2.9-2l-3.7-3.7l-4-0.1l-5.2-2.6l-5.1-3l-3.6-2.9l-5.3-1.8l-4.5-4.4l-4.4-3.8l-4.8-3.3
				l-4.8-3l-4.1-0.8l-2.7,3.4l-3.8,4.1l-3.8,1.7l-4.4,0.5l-2.2,2.9l0.6,3.4l1.1,5.5l11.4,13.2l0.8,4.2l-3.2,12.7l-4.8,11.1l-6.4,6.3
				l-9.5,6.3l-7.9,7.9l-7.9,4.8l-4.8,3.2l-4.8,1.6l-3.2,3.2l-1.6,4.8h-1.6l-6.4-4.8l-1.6-3.2v-4.8l-1.6-3.2l1.6-3.2l-1.6-3.2
				l-6.4-14.3l-3.2-4.8l-1.6-1.6l-4.6-5.6l-10.3-14.8l-1.9-3.1l-0.6-2.3v-2.3l-1.6-3.2c0,0-3.3-2-3.8-2.3s-3.5-4-3.5-4l-4.5-6.5
				l-5.4-5.7l-4.6-3.2l-5.2-4.1l-1.6-1.6l-3.2,1.6h-1.6l-4.8-4.8l-3.2-1.6h-6.4l-3.2-3.2l-3.2,1.6h-6.4l-4.8,3.2v1.6l-11.1,3.2
				l-6.4,3.2l-1.6,4.8h-4.8l-4.8,1.6h-3.2l-3.2-3.2h-1.6l-12.7,12.7l-3.2,4.8l-9.5,4.8l-9.5,4.8l-1.6,0.5l-3.1,5.8l-7.9,3.2
				l-6.4,1.6h-9.5l-6.4,1.6l-6.4,7.9l-6.4,3.2l-6.4,6.3h-3.2l-4.8,3.2h-3.2l-11.1,7.9l-7.9-1.6l-4.8,1.6h-6.4v-3.2l-7.9-4.8h-6.4
				v-4.8l-1.6-4.8l-3.2-3.2h-9.5l-4.8-7.9l-1.6-1.6h-7.9l-1.6-1.6l-3.2-6.3l-1.6-4.8l-3.2-3.2l-3.2-4.8v-1.6l1.6-3.2l-1.6-4.8
				l-1.6-3.2v-3.2l-1.6-1.6l-1.6-1.6l3.2-3.2h4.8l-1.6-1.6v-3.2l1.6-1.6l1.6-3.2h1.6l4.8,3.2h6.4v-4.8h1.5l1.6,3.2v4.8l-1.6,4.8
				l-1.6,4.8l3.2,3.2h4.8l3.2-1.6l1.6-1.6l1.6-3.2h1.6l4.8,3.2l1.6,1.6v3.2l-1.6,4.8l-1.6,3.2v4.8l7.9,4.8l4.8,1.6l6.4-3.2h3.2
				l3.2-1.6l6.4-12.7l1.6-4.8l1.6-9.5v-3.2l-1.6-3.2l-6.4,1.6l-3.2,3.2h-3.2l-1.6-3.2l-3.2-4.8l-6.4-12.7l-3.2-9.5l-1.6-3.2v-3.2
				l4.8-3.2l3.2-11.1l3.2-7.9l3.2-4.8l1.6-4.8l-1.6-6.4v-3.2l3.2-1.6l3.2-1.6v-4.8l4.8-4.8l4.8-3.2l-1.6-1.6v-1.5l-1.6-3.2l-3.2-1.6
				l-1.6-3.2v-3.2l1.6-3.2l-1.6-6.3v-3.2l7.9-4.8l1.6-3.2l1.6-9.5l4.8-9.5l1.6-1.6l-3.2-4.8v-4.8l1.6-4.8l6.4-7.9l4.8-3.2l6.4-7.9
				l1.6-4.8l-1.6-3.2l1.6-1.6h3.2l4.8-3.2l3.2-6.3l1.6-3.2l1.6-1.6l1.6,1.6l4.8,3.2h1.6l1.6-3.2l3.2-1.6l1.6-1.6h4.8l1.6-1.6v-1.6
				l1.6-3.2l1.6-7.9l-1.6-4.8v-6.3h-1.6l-6.4,6.3l-1.6,1.6h-3.2l-4.8-1.6h-3.2l-17.5,4.8l-6.4,1.6l-4.8,1.6h-4.7l-6.4-4.8l-3.2-4.8
				l-1.6-4.8l-1.6-7.9l-6.4-7.9l-4.8-4.8l-1.6-3.2l-1.6-3.2l-7.9-9.5l-3.2-4.8v-1.6l-7.9-11.1l-3.2-3.2v-6.3l1.6-4.8l7.9-9.5
				l3.2-1.6h1.5l6.4-4.8h3.2l6.4-1.6l3.2-1.6l4.8-4.8l3.2-1.6l4-2.3l3.8-9l1.6-4.8l3.8-3.8l2.8-3.2l0.4-3.7l-3.3-4.2l-3.7,1.2
				l-2.3-0.7l0.2-4.6l3.2-2.5l0.9-2.3l-3-2.8l-5.1-3.3l-6.4-3.2h-3.2l-2.4-2.4l-4-0.8l-3.2-1.6h-3.1l-6.4-4.8l-3.2-1.6l-2.7-1.4
				l-2.1-1.8l-0.1-2.2l-1.3-2.4l-3.2-1.5l-2.3,2.4l-6.2-8.5l-3.5-4.9l-4.6-4.7l-4.6-4.7l-3.3-3.5l-1.4-3.3l-0.9-3.7l-3.2-3.8
				l-3.4-1.6l-3.4-0.8l-2.3-5.8l-7.5-6.3l-7.5-3.4l-4.8,0.2l-5.1,1.3l-5.8,4.3l-2.5,4.6l-1.1,3.3l-1.7,2.5l-1,2.9l0.8,4l2.7,4.6
				l1.5,5.2l-2.1,1.9l-1.5,1.2l-2.1,0.8l-2.6,1.7l-10.2-1.4l-6.6-1h-9.5l-8.3,2.2l-6.5-0.5l-9.1,0.5l-7,2.2l-6.7,6.2l-1.2,7.8
				l1.2,5.6l-1.1,7.2l-1.5,4.7l0.2,4.6l1.4,9.7v6.4L2159.1,1160.7z"/>
		</g>
	</g>
</g>
</svg>
