<?xml version="1.0" encoding="utf-8"?>
<!-- Generator: Adobe Illustrator 23.0.3, SVG Export Plug-In . SVG Version: 6.00 Build 0)  -->
<svg width="3840" height="2160" version="1.1" id="_1985" xmlns="http://www.w3.org/2000/svg" xmlns:xlink="http://www.w3.org/1999/xlink" x="0px" y="0px"
	 viewBox="0 0 1920 1080" style="enable-background:new 0 0 1920 1080;" xml:space="preserve">
<style type="text/css">
	.st0{fill:#70CCB8;}
</style>
<g>
	<path class="st0" d="M738.5,494l-5.5-0.4l-6.3-2.4l-5.1-2.7l-7.2-5.1l-6.2-6.2l-4.7-5.6l-3.5-5.6l-3.6-6.8l-2.5-8l-17.2-111.3
		l0.2-2.4c0.1-1.3-1.4-2.5-2.7-2.6c-1.3-0.1-2.9,0.9-3,2.2l0.3,3l17.8,112v0.2l2.8,8.7l3.8,7.3l3.8,6.1l5,5.9l6.7,6.7l7.6,5.4l5.6,3
		l7.3,2.8l3.9,0.7l2.2-0.1h0.4l0,0.1c1.2-0.1,2.1-1,2.2-2.2C740.8,495.4,739.8,494.2,738.5,494z"/>
	<polygon class="st0" points="762.5,621.9 774.3,647.4 777.3,646 765.6,620.8 765.4,620 767,607.5 763.7,607 762,620.2 	"/>
	<path class="st0" d="M1276,486.1L1276,486.1L1276,486.1l-14.6-12.9l0.1-2.8h8.1v-6.7h-7.9l3.2-81.5l-47.9-12.7l0,0l-17.3-9.3
		l-5.3-1.3l-10.1-4.6l-0.9,9.9v45.1l3.3,10.3l6.5,11.4l8.2,6.5l6.4,9.1l5,10.5v6.5l1.6,3.3l4.9,4.9l9.8,1.6l9.3,3.8l10.6,5.3
		l9.3,5.3l5.3,5.3l3.1,3.9l0,0.1l2.2,2.8l1.3,4l4,4l1.3,4l0.8,3v2.7l-6.5,6.5l-4.9,11.4l-1.3,15l-6.6,8l-1.3,9.3l2.7,6.7l4,6.6v6.7
		l-1.3,5.3l-2.7,2.7l-1.3,0.7l-3.7-0.4l-4.6-3.5l-6.5-3.3l-3.3-1.6l-1.2-1.2l0.1-0.1l-2.1-2.1l-3.3-6.5l-1.6-3.3h-3.3l-4.9-1.6
		l-4.9-3.3l-1.6-4.9v-6.5l-3.3-3.3l-6.5-3.3l-4.9-4.9l-3.3-3.3l-4.9-3.3l-6.5-1.6c0,0-4.9-1.6-4.9-3.3s-1.6-4.9-1.6-4.9v-6.1
		l-4.9-5.3l-3.3-4.9l-4.9-3.3l-3.3-4.9l-4.9-3.3l-4.9-1.6l-6.5-1.6l-8.2-3.3l-11.7,9.3c0,0-6.5-1.6-8.2-3.3
		c-2.1-1.8-4.2-3.4-6.5-4.9l-3.3-6.5l-1.6-1.6h-4.9l-3.3,1.6l-3.3,3.3l-8.2,3.3l-7.9-12.5l-14.7,3.3l-4.9,1.6l-3.3,1.6l-1.6,4.9v2.7
		l-3.3,2.2l-4.9,3.3l-4.9,3.3l-3.3,3.3l-3.3,4.9l-4.9,3.3l-6.5,8.2l-4.9,4.9l-3.3,8.2l-3.3,11.4l-3.3,13l-1.6,11.4l-3.3,16.3
		l-6.5,9.8l-3.3,4.9l-4.9,1.6l-4.9-3.3l-4.9-1.6l-3.3,3.3l-3.3,14.7L970,638l-3.3,11.4l-4.9,11.4l-3.3,8.2l-3.3,11.5l-3.3,13
		l-1.6,11.4l-1.6,6.5l3.3,9.8l3.3,4.9v9.8L952,744l-6.5,9.7l-8.2,8.2h-8.2L926,757v-3.7l-6.5-6l-1.6-4.9l-3.3-8.2l-3.3-4.9h-11.4
		L895,731h-21.2l-6.5,3.3l-8.2,1.6l-6.5,6.5l-1.6,6.5l-6.5,3.3l-1.6,6.5l-3.3,4.9h-3.3l-3.3-3.3v-4.4l-1.6-7l-1.6-4.9v-6.3l-1.6-3.5
		l-1.6-6.5l-3.3-6.5l-1.6-3.3l-1.6-6.5l-1.7-11.4l3.3-6.6v-14.7l-1.6-6.5l-3.3-6.5l-3.3-6.5v-15.8l-1.6-11.9l-1.6-9.8v-8.8l1.6-9.1
		l1.6-9.8l-1.6-6.5l-1.6-8.3l-3.3-4.8l-3.3-1.6l-6.5-1.6l-3.3-4.9l-1.6-3.3v-11.7l1.6-4.6l1.6-4.9l3.3-3.3l8.2-3.3l3.3-1.6l4.9-11.4
		l3.3-8.2l-0.1,0l3.2-8.1l1.6-4.9l4.9-4.9l6.5-1.6l4.9-4.9l3.3-6.5l1.6-4.9l0-13l1.6-4.9v-6.5l3.3-3.3v-8.2l-6.5-4.9l-6.5-6.5
		l-3.3-1.6l1.7-8.1l3.3-6.5l1.6-6.5v-3.3l-3.3-3.3l-1.6-8.2l-4.9-6.5l-1.6-4.9l-4.9-1.6l-1.6-1.6l-4.9-3.3v-4.9l-1.6-1.6l1.6-6.5
		l3.3-1.6l3.3-1.6l1.6-1.6v-4.9l-1.6-3.3v-4.9l-1.6-3.3l-1.6-4.9v-4.9l-3.3-4.9l-3.3-1.6l-4.9-3.3l-3.3-3.3v-17.9l-3.2-6.8v-2.1
		l-1.7-4.1l-1.6-6.5v-32.6l-1.6-4.9v-4.9l3.3-3.3l3.3-4.9l4.9-9.8v-6.5l-1.6-4.9l1.6-4.9v-22.8l-6.5-4.9l-9.9-1.6l-11.4-3.3
		l-16.3-3.3l-19.6-1.6l-11.5,1.6l-1.6,3.3v9.7l-1.6,6.5l-3.3,8.1l-1.6,8.2l-1.6,11.4l-1.6,11.4l-3.3,4.9l-8.2,6.5l-1.6,4.9l-1.6,8.1
		l-6.5,8.2l-6.5,6.5l-6.5-3.3l-6.5-9.8l-4.9-4.9l-3.3-4.9l-1.6-4.9l3.3-21.2l5.2-6.8l0.5-2.7l-19.4,0.4v52.1l0,0v18.8l0,0v15.2
		l-2.2,1.2h-9.7v3l0.8,1.6h11.1v24.3l14.6-5.1v0l41.9-16.5h13l-0.1-0.1L776,335l11.1,67.5l11.3,70.6l2.6,16.4l-5.2,20.3l-16.5-4.2
		l-0.1,0.2l0-0.2l-13.3-3.5l-9.6,38.7l13.4,2.8l0-0.1l0,0.1l4.3,1.1l1.8,1.6l-1.2,5.3l-1.8,7l-3,4.2l-2.1,3l-0.8,2.2l2,1.7l4,4.5
		l4,1.3l0,0h4l0,0h0l7.8,6.8l6.6,31.2l1.3,5.3l-2.8,18.9l-0.4,6.8l1.2,8.6l-14.3,1.1l1.9,20.5l2.4,4.7c0.2,0.4,0.6,0.6,1,0.6
		c0.2,0,0.4,0,0.5-0.1c0,0,0,0,0,0c0.6-0.3,0.8-1,0.5-1.6l-2.2-4.3l-1.6-17.7l12-0.9h0.1l1.3,9.8l0.4,9.9l0.1,0.6l-4.3,1l-0.1-1.3
		l-2.3,0.2l0.3,2.7l0.7,1.2l6.3-1.5l1.9,8.2l-40,7.8c-1,0.2-1.8,1.1-1.8,2.2c0,1.2,1,2.1,2.2,2.1c0.1,0,0.3,0,0.4,0l40.2-7.8
		l0.1,0.5l1.3-0.2l3.5,16.6l-36.3,7c-0.9,0.2-1.5,0.9-1.5,1.8c0,1,0.8,1.9,1.9,1.9c0.1,0,0.2,0,0.4,0l36.3-7l2.2,10.7l-5,0.9
		l0.5,3.5l-25.6,5c0,0,0,0,0,0c-1,0.2-1.7,1.2-1.5,2.2c0.2,0.9,0.9,1.5,1.8,1.5c0.1,0,0.2,0,0.4,0l30.8-6l3.9,18.7l2.4,13.9
		L749,775.5l2.4,14.2l65.9-13.3l0.8,9.3l1,5.2l-1.8,0.8v2.5l-6.7,8c-0.8,0.9-0.6,2.3,0.3,3.1c0,0,0,0,0,0c0.9,0.8,2.3,0.6,3.1-0.3
		l7-8.3l5.8,7.4l-7.2,8.6c-0.8,0.9-0.6,2.3,0.3,3.1c0.9,0.8,2.3,0.6,3.1-0.3l8.2-9.8l1.5,1.8L849,807l4,3.5l3.7,3.3l47.2-3.8l7,6.5
		l30.6-2.7l24.3-25.5l8.8-24.1l3.4-5.3l83.1-75.3l25.2-0.4l0.2,24.8l2,3.5l2.9,0.6l2.7-0.5l2-2.2l0.7-114.1l4.9,2l7.4,5.3l3.2-4.1
		l-8.2-5.3l-3.2-3.7l15.5-22.1l0.1,0l4.4-7l4,2.8l3.1-0.2l5.5,5.7l5,3.1l4.5,2.6l8.5,3.3l38.3,28.4l12.4,7.5l12.2,7.1l3,0.8
		l28.9,11.3l0-0.1l6.7,5.7h6l27.1-20.1l-5.3-18.4l9.4-44.8l0,0l9.7-49.6L1276,486.1z"/>
	<polygon class="st0" points="793.7,605.4 793.2,602.6 780.1,606 780.9,608.7 	"/>
	<polygon class="st0" points="777.1,575.6 772.5,578 768.9,581.9 767.4,584.9 766.1,592.4 763.4,592.5 761.4,606.6 763.7,607 
		767,607.5 770.5,585.9 771.6,583.8 774.5,580.7 778.4,578.8 785.1,579.1 781.1,575.6 777.1,575.6 	"/>
</g>
</svg>
