<?xml version="1.0" encoding="utf-8"?>
<!-- Generator: Adobe Illustrator 23.0.3, SVG Export Plug-In . SVG Version: 6.00 Build 0)  -->
<svg width="1920" height="1080" version="1.1" id="_1985" xmlns="http://www.w3.org/2000/svg" xmlns:xlink="http://www.w3.org/1999/xlink" x="0px" y="0px"
	 viewBox="0 0 1920 1080" style="enable-background:new 0 0 1920 1080;" xml:space="preserve">
<style type="text/css">
	.st0{fill:#70CCB8;}
</style>
<g>
	<polygon class="st0" points="789.5,766.6 710.1,783.4 713,800.2 791.2,784.3 	"/>
	<path class="st0" d="M1351.2,522.5l11.5-58.7l-28.6-23.2l-17.3-15.3l0.1-3.3h9.6v-7.9h-9.3l3.8-96.5l-56.6-15l0-0.1l-20.5-11
		l-6.3-1.6l-12-5.5l-1.1,11.7v53.4l3.9,12.2l7.7,13.5l9.7,7.7l7.6,10.8l5.9,12.4v7.7l1.9,3.9l5.8,5.8l11.6,1.9l11,4.5l12.6,6.3
		l11,6.3l6.3,6.3l3.7,4.6l0,0l2.6,3.3l1.6,4.7l4.7,4.7l1.6,4.7l0.9,3.5v3.1l-7.7,7.7l-5.8,13.5l-1.6,17.7l-7.9,9.4l-1.6,11l3.2,7.9
		l4.8,7.9v7.9l-1.6,6.3l-3.2,3.2l-1.5,0.9l-4.4-0.5l-5.5-4.1l-7.7-3.9l-3.9-1.9l-1.4-1.4l0,0l-2.4-2.4l-3.9-7.7l-1.9-3.9h-3.9
		l-5.8-1.9l-5.8-3.9l-1.9-5.8V526l-3.9-3.9l-7.7-3.9l-5.8-5.8l-3.9-3.9l-5.8-3.9l-7.7-1.9c0,0-5.8-1.9-5.8-3.9
		c0-1.9-1.9-5.8-1.9-5.8V486l-5.8-6.3l-3.9-5.8l-5.8-3.9l-3.9-5.8l-5.8-3.9l-5.8-1.9l-7.7-1.9l-9.7-3.9l-13.8,11
		c0,0-7.7-1.9-9.7-3.9c-2.4-2.1-5-4-7.7-5.8l-3.9-7.7l-1.9-1.9h-5.8l-3.9,1.9l-3.9,3.9l-9.7,3.9l-9.3-14.8l-17.4,3.9l-5.8,1.9
		l-3.9,1.9l-1.9,5.8v3.2l-3.9,2.6l-5.8,3.9l-5.8,3.9l-3.9,3.9l-3.9,5.8l-5.8,3.9l-7.7,9.7l-5.8,5.8l-3.9,9.7l-3.9,13.5l-3.9,15.4
		l-1.9,13.5l-3.9,19.3l-7.7,11.6l-3.9,5.8l-5.8,1.9l-5.8-3.9l-5.8-1.9l-3.9,3.9l-3.9,17.4l-5.8,19.3l-3.9,13.5l-5.8,13.5l-3.9,9.7
		l-3.9,13.5l-3.9,15.5l-1.9,13.5l-1.9,7.7l3.9,11.6l3.9,5.8v11.5l-3.9,9.7l-7.7,11.6l-9.7,9.7h-9.7l-3.9-5.8V757l-7.7-7.1l-1.9-5.8
		l-3.8-9.7l-3.9-5.8h-13.5l-5.8,1.9h-25.2l-7.7,3.9l-9.7,1.9l-7.7,7.7l-1.9,7.7l-7.7,3.9l-1.9,7.7l-3.9,5.8h-3.9l-3.9-3.9v-5.2
		l-1.9-8.3l-1.9-5.8v-7.4l-1.9-4.2l-1.9-7.7L798,719l-1.9-3.9l-1.9-7.7l-1.9-13.5l3.9-7.7v-17.4l-1.9-7.7l-3.9-7.7l-3.9-7.7v-18.8
		l-1.9-14.1l-1.9-11.6v-10.4l1.9-10.8l1.9-11.6l-1.9-7.7l-1.9-9.8l-3.9-5.7l-3.9-1.9l-7.7-1.9l-3.9-5.8l-1.9-3.9v-13.9l1.9-5.4
		l1.9-5.8l3.9-3.9l9.7-3.9l3.9-1.9l5.8-13.5l3.9-9.6l-0.1,0c0,0,0.1,0,0.1,0c1.3-3.2,2.6-6.4,3.9-9.7l1.9-5.8l5.8-5.8l7.7-1.9
		l5.8-5.8l3.9-7.7l1.9-5.8l0-15.5l-0.1,0l0.1,0l1.9-5.8v-7.7l3.9-3.9v-9.7l-7.7-5.8l-7.7-7.7l-3.9-1.9l1.9-9.6l3.9-7.7l1.9-7.7v-3.9
		l-3.9-3.9l-1.9-9.7l-5.8-7.7l-1.9-5.8l-5.8-1.9l-1.9-1.9l-5.8-3.9v-5.8l-1.9-1.9l1.9-7.7l3.9-1.9l3.9-1.9l1.9-1.9v-5.8l-1.9-3.9
		v-5.8l-1.9-3.9l-1.9-5.8v-5.8l-3.9-5.8l-3.9-1.9l-5.8-3.9l-3.9-3.9v-21.2l-3.8-8.1v-2.5l-2-4.9l-1.9-7.7v-38.6l-1.9-5.8v-5.8
		l3.9-3.9l3.9-5.8l5.8-11.6v-7.7l-1.9-5.8l1.9-5.8V80l-7.7-5.8l-11.6-1.9l-13.5-3.9l-19.3-3.9l-23.2-1.9l-13.5,1.9l-1.9,3.9V80
		l-1.9,7.8l-3.8,9.6l-1.9,9.7l-1.9,13.5l-1.9,13.5l-3.9,5.8l-9.7,7.7l-1.9,5.8L661,163l-7.9,9.6l-7.7,7.7l-7.7-3.9l-7.7-11.6
		l-5.8-5.8l-3.9-5.8l-1.9-5.8l3.9-25.1l6.2-8l0.7-3.2l-23,0.4v61.7l0.2,22.2v18l-2.6,1.4h-11.5v3.6l0.9,1.9h13.2v28.8l17.3-6v0
		l49.6-19.6h15.3l53.6,37.9l0.1,0v0l13.2,79.9l13.3,83.6l0.2,0l-0.2,0l3.1,19.4l-6.2,24.1c0,0,0,0,0.1,0l-0.1,0l-19.5-5l-15.7-4.2
		l-11.4,45.9l15.9,3.3l0,0l5.1,1.3l2.2,1.9l-1.4,6.3l-2.1,8.3l-3.5,5l-2.5,3.5l-1,2.6l2.4,2l4.8,5.3l4.7,1.6l0,0l0,0l0,0l-5.4,2.9
		l-4.3,4.6l-1.8,3.5l-1.5,8.9h-3.3l-2.4,16.8l2.8,0.4l0,0.1l-2,15.6l0.5,2l14,30.3l3.6-1.7l-13.8-29.8l-0.2-1l1.4-11l4.7-29.4
		l1.2-2.5l3.5-3.6l4.6-2.3l8,0.4l0,0l4.5,3.9l5.1,24l-15.4,4.1l0.8,3.2l15.2-4l2.1,9.6l1.6,6.2l-3.4,22.3l-0.5,8.1l1.4,10.2l-17,1.3
		l2.2,24.3l2.8,5.6c0.4,0.7,1.2,1,1.9,0.6c0.7-0.4,1-1.2,0.6-1.9l-2.6-5.1l-1.9-20.9l14.2-1.1h0.1l1.6,11.7l0.5,11.7l0.2,0.7l-5,1.2
		l-0.1-1.6l-2.8,0.3l0.3,3.2l0.8,1.5l7.6-2l2.3,9.7l-47.4,9.2c-1.4,0.1-2.4,1.4-2.3,2.7s1.4,2.4,2.7,2.3c0.2,0,0.3,0,0.5,0l47.6-9.2
		l0.1,0.5l1.6-0.2l4.1,19.7l-43,8.3c-1,0.2-1.7,1.1-1.8,2.1c0,1.2,1,2.3,2.2,2.3c0.1,0,0.3,0,0.4,0l43-8.3l2.7,12.8l-6,1l0.6,4.1
		l-30.2,5.8c-1,0.2-1.7,1.1-1.8,2.1c0,1.2,1,2.3,2.2,2.3c0.1,0,0.3,0,0.4,0l36.4-7l4.7,22.1l3,17.4l2.5,27.8l1.1,6l-2.2,1v3
		l-7.9,9.5c0,0,0,0,0,0c-0.9,1.1-0.8,2.7,0.3,3.6c0.5,0.4,1,0.6,1.7,0.6c0.8,0,1.5-0.3,2-0.9l8.2-9.9l6.9,8.8l-8.5,10.2
		c-0.9,1.1-0.8,2.7,0.3,3.7c1.1,0.9,2.7,0.8,3.7-0.3l9.7-11.7l1.7,2.3l19.2-0.4l4.8,4.1l4.3,3.9l55.9-4.5l8.4,7.8l36.3-3.1
		l28.7-30.2l10.5-28.5l4-6.3l98.4-89.2l29.8-0.4l0.2,29.3l2.3,4.1l3.4,0.7l3.2-0.6l2.4-2.6l0.7-135.1l5.9,2.3l8.7,6.2l3.8-4.8
		l-9.7-6.2l-3.8-4.4l18.4-26.2l0,0l0.1,0l5.3-8.3l4.8,3.4l3.7-0.3l6.6,6.8l6,3.7l5.3,3.1l10.1,3.8l45.3,33.6l14.7,8.9l14.5,8.4
		l3.6,0.8c11.4,4.5,22.7,8.9,34.1,13.4l0.1-0.1l0,0.1l8,6.8h7.1l32.1-23.8l-6.3-21.7L1351.2,522.5L1351.2,522.5z"/>
	<path class="st0" d="M697.6,450l-6.5-0.5l-7.4-2.8l-6-3.2l-8.5-6l-7.3-7.3l-5.6-6.6l-4.1-6.6l-4.3-8.1l-3-9.5l-20.3-131.8l0.2-2.9
		c0.1-1.5-1.6-3-3.2-3.1s-3.5,1.1-3.6,2.6l0.3,3.5l21.1,132.6v0.2l3.3,10.3l4.5,8.6l4.5,7.2l6,7l7.9,7.9l9,6.4l6.6,3.5l8.7,3.3
		l4.5,0.8l2.6-0.2h0.4l0,0c1.4-0.1,2.5-1.2,2.7-2.6C700.3,451.5,699.2,450.1,697.6,450z"/>
</g>
</svg>
