<?xml version="1.0" encoding="utf-8"?>
<!-- Generator: Adobe Illustrator 23.0.3, SVG Export Plug-In . SVG Version: 6.00 Build 0)  -->
<svg width="1920" height="1080" version="1.1" id="_1900" xmlns="http://www.w3.org/2000/svg" xmlns:xlink="http://www.w3.org/1999/xlink" x="0px" y="0px"
	 viewBox="0 0 1920 1080" style="enable-background:new 0 0 1920 1080;" xml:space="preserve">
<style type="text/css">
	.st0{opacity:0.8;}
	.st1{fill:#666666;}
	.st2{clip-path:url(#SVGID_2_);}
	.st3{opacity:0.9;}
	.st4{fill:none;stroke:#FF8300;stroke-width:2.5;stroke-linecap:round;stroke-linejoin:round;}
	.st5{fill:none;stroke:#FF8300;stroke-width:2.5;stroke-linecap:round;stroke-linejoin:round;stroke-dasharray:7.99,7.99;}
	.st6{fill:none;stroke:#FF8300;stroke-width:2.5;stroke-linecap:round;stroke-linejoin:round;stroke-dasharray:8.13,8.13;}
	.st7{fill:none;stroke:#FF8300;stroke-width:2.5;stroke-linecap:round;stroke-linejoin:round;stroke-dasharray:7.93,7.93;}
	.st8{fill:none;stroke:#FF8300;stroke-width:2.5;stroke-linecap:round;stroke-linejoin:round;stroke-dasharray:8.11,8.11;}
	.st9{fill:none;stroke:#FF8300;stroke-width:2.5;stroke-linecap:round;stroke-linejoin:round;stroke-dasharray:6.41,6.41;}
	.st10{fill:none;stroke:#FF8300;stroke-width:2.5;stroke-linecap:round;stroke-linejoin:round;stroke-dasharray:6.96,6.96;}
	.st11{fill:none;stroke:#FF8300;stroke-width:2.5;stroke-linecap:round;stroke-linejoin:round;stroke-dasharray:8,8;}
	.st12{fill:none;stroke:#FF8300;stroke-width:2.5;stroke-linecap:round;stroke-linejoin:round;stroke-dasharray:8.09,8.09;}
	.st13{fill:none;stroke:#FF8300;stroke-width:2.5;stroke-linecap:round;stroke-linejoin:round;stroke-dasharray:7.7,7.7;}
	.st14{fill:none;stroke:#FF8300;stroke-width:2.5;stroke-linecap:round;stroke-linejoin:round;stroke-dasharray:8.81,8.81;}
	.st15{fill:none;stroke:#FF8300;stroke-width:2.5;stroke-linecap:round;stroke-linejoin:round;stroke-dasharray:7.84,7.84;}
	.st16{fill:none;stroke:#FF8300;stroke-width:2.5;stroke-linecap:round;stroke-linejoin:round;stroke-dasharray:7.65,7.65;}
	.st17{fill:none;stroke:#FF8300;stroke-width:2.5;stroke-linecap:round;stroke-linejoin:round;stroke-dasharray:7.42,7.42;}
	.st18{fill:none;stroke:#FF8300;stroke-width:2.5;stroke-linecap:round;stroke-linejoin:round;stroke-dasharray:8.32,8.32;}
	.st19{fill:none;stroke:#FF8300;stroke-width:2.5;stroke-linecap:round;stroke-linejoin:round;stroke-dasharray:8.73,8.73;}
	.st20{fill:none;stroke:#FF8300;stroke-width:2.5;stroke-linecap:round;stroke-linejoin:round;stroke-dasharray:7.53,7.53;}
	.st21{fill:none;stroke:#FF8300;stroke-width:2.5;stroke-linecap:round;stroke-linejoin:round;stroke-dasharray:8.47,8.47;}
	.st22{fill:none;stroke:#FF8300;stroke-width:2.5;stroke-linecap:round;stroke-linejoin:round;stroke-dasharray:7.77,7.77;}
	.st23{fill:none;stroke:#FF8300;stroke-width:2.5;stroke-linecap:round;stroke-linejoin:round;stroke-dasharray:8.15,8.15;}
	.st24{fill:none;stroke:#FF8300;stroke-width:2.5;stroke-linecap:round;stroke-linejoin:round;stroke-dasharray:5.12,5.12;}
	.st25{fill:none;stroke:#FF8300;stroke-width:2.5;stroke-linecap:round;stroke-linejoin:round;stroke-dasharray:4.2,4.2;}
	.st26{fill:none;stroke:#FF8300;stroke-width:2.5;stroke-linecap:round;stroke-linejoin:round;stroke-dasharray:7,7;}
	.st27{fill:none;stroke:#FF8300;stroke-width:2.5;stroke-linecap:round;stroke-linejoin:round;stroke-dasharray:7.89,7.89;}
	.st28{fill:none;stroke:#FF8300;stroke-width:2.5;stroke-linecap:round;stroke-linejoin:round;stroke-dasharray:9.36,9.36;}
	.st29{fill:none;stroke:#FF8300;stroke-width:2.5;stroke-linecap:round;stroke-linejoin:round;stroke-dasharray:8.87,8.87;}
	.st30{fill:none;stroke:#FF8300;stroke-width:2.5;stroke-linecap:round;stroke-linejoin:round;stroke-dasharray:8.37,8.37;}
	.st31{fill:none;stroke:#FF8300;stroke-width:2.5;stroke-linecap:round;stroke-linejoin:round;stroke-dasharray:7.26,7.26;}
	.st32{fill:none;stroke:#FF8300;stroke-width:2.5;stroke-linecap:round;stroke-linejoin:round;stroke-dasharray:8.51,8.51;}
	.st33{fill:none;stroke:#FF8300;stroke-width:2.5;stroke-linecap:round;stroke-linejoin:round;stroke-dasharray:5.15,5.15;}
	.st34{fill:none;stroke:#FF8300;stroke-width:2.5;stroke-linecap:round;stroke-linejoin:round;stroke-dasharray:5.9,5.9;}
	.st35{fill:none;stroke:#FF8300;stroke-width:2.5;stroke-linecap:round;stroke-linejoin:round;stroke-dasharray:4.16,4.16;}
	.st36{fill:none;stroke:#FF8300;stroke-width:2.5;stroke-linecap:round;stroke-linejoin:round;stroke-dasharray:9.51,9.51;}
	.st37{fill:none;stroke:#FF8300;stroke-width:2.5;stroke-linecap:round;stroke-linejoin:round;stroke-dasharray:9.45,9.45;}
	.st38{fill:none;stroke:#FF8300;stroke-width:2.5;stroke-linecap:round;stroke-linejoin:round;stroke-dasharray:8.2,8.2;}
	.st39{fill:none;stroke:#FF8300;stroke-width:2.5;stroke-linecap:round;stroke-linejoin:round;stroke-dasharray:7.05,7.05;}
	.st40{fill:none;stroke:#FF8300;stroke-width:2.5;stroke-linecap:round;stroke-linejoin:round;stroke-dasharray:8.06,8.06;}
	.st41{fill:none;stroke:#FF8300;stroke-width:2.5;stroke-linecap:round;stroke-linejoin:round;stroke-dasharray:8.16,8.16;}
	.st42{fill:none;stroke:#FF8300;stroke-width:2.5;stroke-linecap:round;stroke-linejoin:round;stroke-dasharray:8.01,8.01;}
	.st43{fill:none;stroke:#FF8300;stroke-width:2.5;stroke-linecap:round;stroke-linejoin:round;stroke-dasharray:7.67,7.67;}
	.st44{fill:none;stroke:#FF8300;stroke-width:2.5;stroke-linecap:round;stroke-linejoin:round;stroke-dasharray:7.12,7.12;}
	.st45{fill:none;stroke:#FF8300;stroke-width:2.5;stroke-linecap:round;stroke-linejoin:round;stroke-dasharray:8.12,8.12;}
	.st46{fill:none;stroke:#FF8300;stroke-width:2.5;stroke-linecap:round;stroke-linejoin:round;stroke-dasharray:8.91,8.91;}
	.st47{fill:none;stroke:#FF8300;stroke-width:2.5;stroke-linecap:round;stroke-linejoin:round;stroke-dasharray:10.12,10.12;}
	.st48{fill:none;stroke:#FF8300;stroke-width:2.5;stroke-linecap:round;stroke-linejoin:round;stroke-dasharray:6.99,6.99;}
	.st49{fill:none;stroke:#FF8300;stroke-width:2.5;stroke-linecap:round;stroke-linejoin:round;stroke-dasharray:7.81,7.81;}
	.st50{fill:none;stroke:#FF8300;stroke-width:2.5;stroke-linecap:round;stroke-linejoin:round;stroke-dasharray:7.88,7.88;}
	.st51{fill:none;stroke:#FF8300;stroke-width:2.5;stroke-linecap:round;stroke-linejoin:round;stroke-dasharray:7.97,7.97;}
	.st52{fill:none;stroke:#FF8300;stroke-width:2.5;stroke-linecap:round;stroke-linejoin:round;stroke-dasharray:6.88,6.88;}
	.st53{fill:none;stroke:#FF8300;stroke-width:2.5;stroke-linecap:round;stroke-linejoin:round;stroke-dasharray:9.09,9.09;}
	.st54{fill:none;stroke:#FF8300;stroke-width:2.5;stroke-linecap:round;stroke-linejoin:round;stroke-dasharray:8.25,8.25;}
	.st55{fill:none;stroke:#FF8300;stroke-width:2.5;stroke-linecap:round;stroke-linejoin:round;stroke-dasharray:7.44,7.44;}
	.st56{fill:none;stroke:#FF8300;stroke-width:2.5;stroke-linecap:round;stroke-linejoin:round;stroke-dasharray:4.29,4.29;}
	.st57{fill:none;stroke:#FF8300;stroke-width:2.5;stroke-linecap:round;stroke-linejoin:round;stroke-dasharray:8.19,8.19;}
	.st58{fill:none;stroke:#FF8300;stroke-width:2.5;stroke-linecap:round;stroke-linejoin:round;stroke-dasharray:7.9,7.9;}
	.st59{fill:none;stroke:#FF8300;stroke-width:2.5;stroke-linecap:round;stroke-linejoin:round;stroke-dasharray:9.49,9.49;}
	.st60{fill:none;stroke:#FF8300;stroke-width:2.5;stroke-linecap:round;stroke-linejoin:round;stroke-dasharray:4.3,4.3;}
	.st61{fill:none;stroke:#FF8300;stroke-width:2.5;stroke-linecap:round;stroke-linejoin:round;stroke-dasharray:7.22,7.22;}
	.st62{fill:none;stroke:#FF8300;stroke-width:2.5;stroke-linecap:round;stroke-linejoin:round;stroke-dasharray:4.46,4.46;}
	.st63{fill:none;stroke:#FF8300;stroke-width:2.5;stroke-linecap:round;stroke-linejoin:round;stroke-dasharray:8.34,8.34;}
	.st64{fill:none;stroke:#FF8300;stroke-width:2.5;stroke-linecap:round;stroke-linejoin:round;stroke-dasharray:4.66,4.66;}
	.st65{fill:none;stroke:#FF8300;stroke-width:2.5;stroke-linecap:round;stroke-linejoin:round;stroke-dasharray:4.38,4.38;}
	.st66{fill:none;stroke:#FF8300;stroke-width:2.5;stroke-linecap:round;stroke-linejoin:round;stroke-dasharray:9.17,9.17;}
	.st67{fill:none;stroke:#FF8300;stroke-width:2.5;stroke-linecap:round;stroke-linejoin:round;stroke-dasharray:8.72,8.72;}
	.st68{fill:none;stroke:#FF8300;stroke-width:2.5;stroke-linecap:round;stroke-linejoin:round;stroke-dasharray:8.31,8.31;}
	.st69{fill:none;stroke:#FF8300;stroke-width:2.5;stroke-linecap:round;stroke-linejoin:round;stroke-dasharray:8.53,8.53;}
	.st70{fill:none;stroke:#FF8300;stroke-width:2.5;stroke-linecap:round;stroke-linejoin:round;stroke-dasharray:8.62,8.62;}
	.st71{fill:none;stroke:#FF8300;stroke-width:2.5;stroke-linecap:round;stroke-linejoin:round;stroke-dasharray:4.17,4.17;}
	.st72{fill:none;stroke:#FF8300;stroke-width:2.5;stroke-linecap:round;stroke-linejoin:round;stroke-dasharray:4.5,4.5;}
	.st73{fill:none;stroke:#FF8300;stroke-width:2.5;stroke-linecap:round;stroke-linejoin:round;stroke-dasharray:7.46,7.46;}
	.st74{fill:none;stroke:#FF8300;stroke-width:2.5;stroke-linecap:round;stroke-linejoin:round;stroke-dasharray:4.53,4.53;}
	.st75{fill:none;stroke:#FF8300;stroke-width:2.5;stroke-linecap:round;stroke-linejoin:round;stroke-dasharray:8.18,8.18;}
	.st76{fill:none;stroke:#FF8300;stroke-width:2.5;stroke-linecap:round;stroke-linejoin:round;stroke-dasharray:8.08,8.08;}
	.st77{fill:none;stroke:#FF8300;stroke-width:2.5;stroke-linecap:round;stroke-linejoin:round;stroke-dasharray:8.8,8.8;}
	.st78{fill:none;stroke:#FF8300;stroke-width:2.5;stroke-linecap:round;stroke-linejoin:round;stroke-dasharray:7.59,7.59;}
	.st79{fill:none;stroke:#FF8300;stroke-width:2.5;stroke-linecap:round;stroke-linejoin:round;stroke-dasharray:7.66,7.66;}
	.st80{fill:none;stroke:#FF8300;stroke-width:2.5;stroke-linecap:round;stroke-linejoin:round;stroke-dasharray:7.86,7.86;}
	.st81{fill:none;stroke:#FF8300;stroke-width:2.5;stroke-linecap:round;stroke-linejoin:round;stroke-dasharray:9.81,9.81;}
	.st82{fill:none;stroke:#FF8300;stroke-width:2.5;stroke-linecap:round;stroke-linejoin:round;stroke-dasharray:7.61;}
	.st83{fill:none;stroke:#FF8300;stroke-width:2.5;stroke-linecap:round;stroke-linejoin:round;stroke-dasharray:7.85;}
	.st84{fill:none;stroke:#FF8300;stroke-width:2.5;stroke-linecap:round;stroke-linejoin:round;stroke-dasharray:7.6;}
	.st85{fill:none;stroke:#FF8300;stroke-width:2.5;stroke-linecap:round;stroke-linejoin:round;stroke-dasharray:4.4;}
	.st86{fill:none;stroke:#FF8300;stroke-width:2.5;stroke-linecap:round;stroke-linejoin:round;stroke-dasharray:2.91;}
	.st87{fill:none;stroke:#FF8300;stroke-width:2.5;stroke-linecap:round;stroke-linejoin:round;stroke-dasharray:5.84,5.84;}
	.st88{fill:none;stroke:#FF8300;stroke-width:2.5;stroke-linecap:round;stroke-linejoin:round;stroke-dasharray:6.62,6.62;}
	.st89{fill:none;stroke:#FF8300;stroke-width:2.5;stroke-linecap:round;stroke-linejoin:round;stroke-dasharray:6.08,6.08;}
	.st90{fill:none;stroke:#FF8300;stroke-width:2.5;stroke-linecap:round;stroke-linejoin:round;stroke-dasharray:7.4,7.4;}
	.st91{fill:none;stroke:#FF8300;stroke-width:2.5;stroke-linecap:round;stroke-linejoin:round;stroke-dasharray:8.65,8.65;}
	.st92{fill:none;stroke:#FF8300;stroke-width:2.5;stroke-linecap:round;stroke-linejoin:round;stroke-dasharray:8.45,8.45;}
	.st93{fill:none;stroke:#FF8300;stroke-width:2.5;stroke-linecap:round;stroke-linejoin:round;stroke-dasharray:8.76,8.76;}
	.st94{fill:none;stroke:#FF8300;stroke-width:2.5;stroke-linecap:round;stroke-linejoin:round;stroke-dasharray:4.08,4.08;}
	.st95{fill:none;stroke:#FF8300;stroke-width:2.5;stroke-linecap:round;stroke-linejoin:round;stroke-dasharray:5.61,5.61;}
	.st96{fill:none;stroke:#FF8300;stroke-width:2.5;stroke-linecap:round;stroke-linejoin:round;stroke-dasharray:7.96,7.96;}
	.st97{fill:none;stroke:#FF8300;stroke-width:2.5;stroke-linecap:round;stroke-linejoin:round;stroke-dasharray:4.96,4.96;}
	.st98{fill:none;stroke:#FF8300;stroke-width:2.5;stroke-linecap:round;stroke-linejoin:round;stroke-dasharray:6.93,6.93;}
	.st99{fill:none;stroke:#FF8300;stroke-width:2.5;stroke-linecap:round;stroke-linejoin:round;stroke-dasharray:8.22,8.22;}
	.st100{fill:none;stroke:#FF8300;stroke-width:2.5;stroke-linecap:round;stroke-linejoin:round;stroke-dasharray:7.18,7.18;}
	.st101{fill:none;stroke:#FF8300;stroke-width:2.5;stroke-linecap:round;stroke-linejoin:round;stroke-dasharray:7.94,7.94;}
	.st102{fill:none;stroke:#FF8300;stroke-width:2.5;stroke-linecap:round;stroke-linejoin:round;stroke-dasharray:4.07,4.07;}
	.st103{fill:none;stroke:#FF8300;stroke-width:2.5;stroke-linecap:round;stroke-linejoin:round;stroke-dasharray:6.79,6.79;}
	.st104{fill:none;stroke:#FF8300;stroke-width:2.5;stroke-linecap:round;stroke-linejoin:round;stroke-dasharray:9.08,9.08;}
	.st105{fill:none;stroke:#FF8300;stroke-width:2.5;stroke-linecap:round;stroke-linejoin:round;stroke-dasharray:4.81,4.81;}
	.st106{fill:none;stroke:#FF8300;stroke-width:2.5;stroke-linecap:round;stroke-linejoin:round;stroke-dasharray:5.48,5.48;}
	.st107{fill:none;stroke:#FF8300;stroke-width:2.5;stroke-linecap:round;stroke-linejoin:round;stroke-dasharray:5.01,5.01;}
	.st108{fill:none;stroke:#FF8300;stroke-width:2.5;stroke-linecap:round;stroke-linejoin:round;stroke-dasharray:4.26,4.26;}
	.st109{fill:none;stroke:#FF8300;stroke-width:2.5;stroke-linecap:round;stroke-linejoin:round;stroke-dasharray:7.49,7.49;}
	.st110{fill:none;stroke:#FF8300;stroke-width:2.5;stroke-linecap:round;stroke-linejoin:round;stroke-dasharray:7.54,7.54;}
	.st111{fill:none;stroke:#FF8300;stroke-width:2.5;stroke-linecap:round;stroke-linejoin:round;stroke-dasharray:5.06,5.06;}
	.st112{fill:none;stroke:#FF8300;stroke-width:2.5;stroke-linecap:round;stroke-linejoin:round;stroke-dasharray:9.14,9.14;}
	.st113{opacity:0.9;fill:none;stroke:#FF8300;stroke-width:2.5;stroke-miterlimit:10;enable-background:new    ;}
	.st114{fill:none;stroke:#FF8300;stroke-width:2.5;stroke-miterlimit:10;}
</style>
<g class="st0">
	<polygon class="st1" points="650.4,101.3 655.1,100.4 660,99.4 663.9,97.5 665.8,95.5 669.6,91.7 667.7,87.8 663.9,84 660,78.2 
		658.1,70.5 656.2,64.8 652.3,62.8 650.4,60.9 646.5,60.9 642.7,57 639.8,61.9 637.9,75.3 637.9,88.8 636.9,107.1 640.4,103.3 
		644.6,103.3 	"/>
	<polygon class="st1" points="772.1,373.4 775.7,373 786.1,437.3 831.4,428.6 835.2,424.8 835.2,415.1 827.5,409.4 819.8,401.7 
		816,399.7 817.9,390.1 821.7,382.4 823.7,374.7 823.7,370.9 819.8,367 817.9,357.4 812.1,349.7 810.2,343.9 804.4,342 802.5,340.1 
		796.7,336.2 796.7,330.4 794.8,328.5 796.7,320.8 800.6,318.9 804.4,317 806.3,315 806.3,309.3 804.4,305.4 804.4,299.6 
		802.5,295.8 800.6,290 800.6,284.2 796.7,278.5 792.9,276.5 787.1,272.7 783.2,268.8 783.2,261.1 783.2,257.3 783.2,247.6 
		779.5,239.6 779.5,237.1 777.5,232.3 775.5,224.5 775.5,218.8 775.5,211.1 775.5,205.3 775.5,197.6 775.5,191.8 775.5,186 
		773.6,180.3 773.6,174.5 777.5,170.6 781.3,164.9 787.1,153.3 787.1,145.6 785.2,139.8 787.1,134.1 787.1,124.4 787.1,112.9 
		787.1,107.1 779.5,101.3 767.8,99.4 754.4,95.5 735.1,91.7 712,89.8 698.5,91.7 696.6,95.6 696.6,107.1 694.7,114.8 690.8,124.4 
		688.9,134.1 687,147.5 685,161 681.2,166.8 671.6,174.5 669.6,180.3 667.7,189.9 660,199.5 652.3,207.2 644.6,203.4 636.9,191.8 
		631.1,186 627.3,180.3 625.4,174.5 629.2,149.5 627.3,132.1 633.1,112.9 624.3,112.9 624.3,109.6 618.1,109.6 618.1,113 610.9,113 
		610.9,141.9 610.9,144.9 612.8,146.6 614.8,146.6 614.8,152.3 612.8,152.3 610.9,153.8 610.9,156.8 610.9,193.1 607.5,195.5 
		607,192.8 603.2,193.5 604.8,202.7 608.6,202.1 608.2,199.6 613.8,195.9 620.7,198.7 620.6,198.8 617.6,208.1 620.5,209.1 
		623.5,199.9 653.3,212 661,204.3 670.6,194.7 670.6,190.8 672.5,185.1 674.5,181.2 678.3,181.2 678.3,183.1 678.3,187 680.2,190.8 
		684.1,192.8 695.6,194.7 699.5,192.8 703.3,188.9 703.3,179.3 714.9,113.8 770.7,113.8 778.4,156.2 761.1,179.3 757.2,188.9 
		751.5,194.7 739.9,210.1 749.5,217.8 751.9,234.3 745.6,234.9 745.9,238 752.3,237.4 752.3,237.4 753.1,242.8 743.5,244.7 
		743.5,247.9 753.6,246 757.9,269.3 747.1,270.4 747.4,273.5 758.3,272.4 758.5,272.4 762.7,295.3 762.6,295.3 756.2,296.7 
		756.9,299.7 763.3,298.3 766.9,317.9 769.1,331.6 761,332.5 761.4,335.6 769.5,334.7 769.6,334.6 775.3,369.9 771.7,370.4 	"/>
	<polygon class="st1" points="1352.5,152.9 1351.2,153.5 1348.3,156.2 1340.6,156.2 1288.6,131.2 1281.3,148.1 1293.4,153.3 
		1308.8,161 1324.2,170.6 1329.2,178.9 1340.6,167.8 1346.4,163.9 1350.2,165.8 1356,165.8 1359.8,165.8 1361.8,162 1361.8,158.1 
		1357.9,154.3 1355.1,152.9 	"/>
	<polygon class="st1" points="1192.3,1078.4 1187.5,1080 1192.8,1080 	"/>
	<polygon class="st1" points="1314.6,1056.2 1314.6,1040.8 1312.7,1025.4 1310.7,1008.1 1308.8,998.5 1308.8,986.9 1310.7,979.2 
		1316.5,973.5 1330,956.1 1334.7,950.7 1341.6,942.7 1339,939.4 1331,947.7 1320.5,939.4 1309.7,953.3 1277.2,925.5 1272.6,930.1 
		1305.1,958 1302,964.1 1308.1,968.8 1306.6,979.6 1305.1,982.7 1283.4,964.1 1255.6,998.1 1264.9,1005.8 1280.3,1019.8 
		1292.7,1033.7 1302,1049.1 1308.1,1064.6 1310.3,1078.4 1310.2,1080 1316.5,1080 1316.5,1071.6 	"/>
	<path class="st1" d="M0,999.6l1.6-5l3.9-5.8l3.8-5.8v-9.6c1.9,1.9-1.9-3.9-1.9-3.9L0,981.7V999.6z"/>
	<polygon class="st1" points="1920,960.2 1825.7,957.1 1825.7,968.6 1804.6,966.7 1804.6,957.1 1798,957.1 1794.2,952.5 
		1790.8,948.4 1787,948.4 1787,950.8 1789.7,950.8 1792.4,954 1794.9,957.1 1794.9,987.9 1780.3,971.9 1784.8,968.6 1782.9,966.1 
		1778.2,969.7 1776.6,967.8 1779,958.1 1780.6,958.3 1781.2,954.5 1775,953.6 1774.5,957.4 1775.9,957.6 1774.1,965.1 1773.8,964.8 
		1771.8,960.9 1771.8,957.1 1781.5,934 1777.6,932.1 1768,955.2 1764.1,957.1 1760.3,957.1 1754.5,955.2 1750.7,953.2 1748.7,951.3 
		1748.7,951.3 1748.7,951 1750.2,952.1 1752.9,948.3 1742.1,940.6 1739.4,944.4 1744,947.7 1744,951.2 1711.2,950.3 1715,963.8 
		1718.9,977.3 1724.7,990.8 1732.4,1006.2 1740.1,1017.7 1743.9,1023.5 1747.8,1027.4 1753.6,1027.4 1759.3,1023.5 1763.2,1019.7 
		1765.1,1013.9 1765.1,1010 1768.9,1004.3 1772.8,1000.4 1778.6,996.6 1782.4,994.6 1786.3,996.6 1788.2,1000.4 1792.1,1006.2 
		1797.8,1015.8 1801.7,1023.5 1805.5,1029.3 1809.4,1031.2 1813.2,1031.2 1815.2,1027.4 1817.1,1021.6 1820.9,1015.8 1828.6,1008.1 
		1834.4,1004.3 1840.2,1002.3 1846,1002.3 1853.7,1006.2 1863.3,1012 1871,1015.8 1876.8,1021.6 1886.4,1025.4 1896,1027.4 
		1907.6,1029.3 1920,1033.9 	"/>
	<path class="st1" d="M580.9,1076.9l-1.8-1.2l6.2-8.3l-3.7-2.8l-6.4,8.5l-1.9-1.3l-2.1,3.2l-0.8-0.6l-6.7-9.5l13.6-9.8l-2-2.8
		l-13.4,10l-10.2-14.3l3.9-3.7l-1.5-1.6l-4,2.9l-22-30.9l-7.7-5.8l-52-30.8l-4.3-1.2l6.5-23.8h-3.1c0,0-7.4,22.2-7,22.8l-30.7-8.5
		l3.7-14.3h-3.1l-3.8,13.4l-54.1-15l3.8-13.9h-3.1l-4.1,12.9l-25.9-7.2v-13.5h-2.6l-0.4,13.3l-64.6-4.8l0.3-6.9H273l-0.5,6.6
		l-43.6-3.3l5.2-4.9l-35.4-3.1l-0.1,5.7l-9.4-0.7l-21.7,5.7l-4.3-16.9h-3.1l4,17.8l-21.8,5.8l-3.8-14.3h-3.1l4.1,15.1l-88.1,23.3
		l4.1,3.1l5.8,1.9h21.2l9.6-1.9l5.8-1.9l7.7-3.8l7.7-3.8l5.8-3.8l5.8-3.8l5.8-1.9l7.7-1.9h11.6l5.8,5.8l3.9,1.9l5.8,1.9h7.7l7.7-1.9
		l7.7-3.8l1.9-5.8l1.9-5.8l1.9-1.9l3.9-1.9h13.5l5.8,1.9h3.8l1.9,5.8v3.8l3.9,3.8l5.8,1.9h23.1l5.8,1.9h3.9l7.7,1.9h11.5l3.8,1.9
		l1.9,1.9l1.9,3.8l3.8,1.9h3.8l3.9,1.9l1.9,1.9h7.7l3.8-1.9l3.9-1.9l1.9-1.9l3.9-3.8l3.9-1.9h1.9l3.9-1.9l3.8-1.9l1.9-1.9h1.9
		l3.8,1.9l5.8,3.8l3.8,3.8l7.7,5.8l5.8,5.8l5.8,3.8l5.8,5.8h11.5l1.9-3.8l3.9-1.9h3.9l1.9,3.8l5.8,3.8l5.8,3.8l1.9,3.8v5.8l5.8,1.9
		l5.8,1.9h3.9l3.8-1.9l3.9-1.9h1.9l3.9-1.9l1.9-3.8h5.8l5.8,1.9h11.5l7.7,3.8l3.8,1.9h9.6l5.8,1.9l3.8,1.9l1.9,1.9l1.9,1.9l3.9,3.8
		l5.8,3.8l1.9,5.8v7.7l1.9,3.8l5.8,5.8l1.9,3.8l3.8,3.8l3.8,3.9l1.9,3.8l1.9,1.9l3.8,3.8l3.8,5.8l1.9,5.8l3.8,3.8l0.5,0.7h24.3
		L580.9,1076.9z"/>
	<polygon class="st1" points="594.2,1080 596.6,1080 594.4,1079.3 	"/>
	<path class="st1" d="M1189.9,1053.4c-1,1.3-0.8,3.2,0.5,4.3c1.3,1.1,3.3,0.8,4.3-0.5l5.9-7.4l3.8-2.5l5.6-1.4l67.9-12.3
		c1.7-0.2,2.9-1.7,2.8-3.3c-0.2-1.7-1.7-2.9-3.3-2.8c-0.2,0-0.3,0-0.5,0.1l-68,12.4l-6.9,1.7l-5.5,3.7L1189.9,1053.4z"/>
</g>
<g>
	<defs>
		<rect id="SVGID_1_" width="1920" height="1080"/>
	</defs>
	<clipPath id="SVGID_2_">
		<use xlink:href="#SVGID_1_"  style="overflow:visible;"/>
	</clipPath>
	<g class="st2">
		<g id="KLN_2019" class="st3">
			<polyline class="st4" points="1418.6,397.4 1418.1,397.4 1417.8,396.9 1416.9,396 1415.7,394.2 			"/>
			<line class="st5" x1="1411.4" y1="387.5" x2="1378.7" y2="337.3"/>
			<polyline class="st4" points="1376.5,334 1375.7,332.7 1375.4,332.1 1375.4,331.6 1375.7,331 1375.9,330.4 1376.5,330.4 
				1377.1,330.4 1377.6,330.4 1378.2,330.7 1378.8,331.9 1379,332.2 			"/>
			<line class="st6" x1="1383.5" y1="339" x2="1417" y2="389.9"/>
			<polyline class="st4" points="1419.3,393.3 1420.3,394.9 1420.6,395.8 1420.3,396.3 1420.3,396.9 1419.8,397.2 1419.5,397.4 
				1418.9,397.4 1418.6,397.4 			"/>
			<polyline class="st4" points="1419.2,437.9 1418.6,437.9 1418.1,437.9 1417.8,437.3 1417.5,437 1417.2,436.5 1417.5,435.9 
				1417.5,435.6 1417.8,435 1418.3,434.8 1419.9,433.9 			"/>
			<polyline class="st7" points="1427,430.3 1520.1,381.9 1520.7,381.9 1520.9,381.6 1521.5,381.6 1522.1,381.9 1522.4,382.2 
				1522.7,383 1522.7,383.3 1522.7,383.9 1522.4,384.4 1521.8,384.7 1426.3,434.3 			"/>
			<polyline class="st4" points="1422.8,436.1 1420,437.6 1419.2,437.9 			"/>
			<polyline class="st4" points="507,523.5 508.9,523.5 509.8,523.5 510.4,523.8 510.7,524.3 			"/>
			<polyline class="st8" points="505.2,527.2 505,527.2 501.3,526.1 499,524.7 496.5,523.2 494.8,521.8 493.7,520.4 492,517.6 
				491.1,515.3 490.6,512.8 490.3,509.7 490,506.3 490.6,340.6 490.6,339.5 490.3,338.6 490.3,337.5 490,336.7 489.2,334.7 
				487.7,332.4 486.6,330.7 484.9,329.6 482.6,328.2 481,327.3 478.7,326.8 476.1,326.5 475.3,326.5 474.7,326.2 474.5,325.9 
				474.2,325.4 473.9,325.1 473.9,324.8 473.9,324.2 473.9,323.7 474.2,323.4 474.5,323.1 474.7,322.8 475,322.5 475.3,322.3 
				475.6,322.3 476.1,322.3 476.7,322.3 478.7,322.5 481.8,323.1 483.5,323.9 486.3,325.4 488.9,327.3 490.6,329 492.3,331.9 
				493.4,334.7 494,338.1 494.2,340.9 494.2,352.2 494.2,493.5 494.2,510.2 494.2,511.9 495.1,514.2 496.8,517.3 498.2,519.3 
				499.6,520.4 			"/>
			<polyline class="st4" points="503.1,522.3 505,523 507,523.5 			"/>
			<line class="st4" x1="937.7" y1="815.7" x2="941.7" y2="815.4"/>
			<polyline class="st4" points="948.7,814.9 952.7,814.6 950.1,817.7 			"/>
			<polyline class="st4" points="942.5,826.5 940,829.6 939.7,829.6 939.7,829.9 939.4,829.9 939.1,829.9 939.1,830.2 938.8,830.2 
				938.5,826.2 			"/>
			<line class="st4" x1="938" y1="819.7" x2="937.7" y2="815.7"/>
			<line class="st4" x1="936.8" y1="825.9" x2="932.8" y2="826.3"/>
			<line class="st9" x1="926.5" y1="826.8" x2="916.9" y2="827.6"/>
			<polyline class="st4" points="913.7,827.8 909.7,828.2 909.4,824.2 			"/>
			<polyline class="st4" points="909,818 908.6,814 905.2,814.3 905.2,815.5 903.3,817.6 			"/>
			<polyline class="st4" points="899.8,821.7 897.3,824.8 900.3,827.4 			"/>
			<polyline class="st10" points="905.5,832 905.8,832.1 906,832.1 906.3,832.4 906.6,832.4 906.9,832.4 907.4,832.4 929.7,830.7 
							"/>
			<polyline class="st4" points="933.1,830.5 937.1,830.2 936.8,825.9 			"/>
			<line class="st4" x1="1618.4" y1="301.8" x2="1615.5" y2="299"/>
			<line class="st5" x1="1609.8" y1="293.5" x2="1497.5" y2="185.5"/>
			<polyline class="st4" points="1494.6,182.8 1491.8,180 1493.2,178.6 1493.2,176.6 			"/>
			<line class="st11" x1="1495.8" y1="169" x2="1505.6" y2="142.8"/>
			<polyline class="st4" points="1507,139.1 1508.4,135.3 1512.1,136.9 			"/>
			<line class="st12" x1="1518.4" y1="141.8" x2="1643.7" y2="262.6"/>
			<polyline class="st4" points="1646.6,265.4 1649.5,268.2 1648.9,271.3 1648.3,271.9 			"/>
			<line class="st13" x1="1643" y1="277.4" x2="1624.3" y2="296.9"/>
			<polyline class="st4" points="1621.7,299.6 1620.4,301 1618.4,301.8 			"/>
			<line class="st14" x1="40.1" y1="-44.9" x2="54.7" y2="1.3"/>
			<polyline class="st4" points="56,5.5 57.2,9.3 53.4,10.5 			"/>
			<line class="st15" x1="45.9" y1="12.9" x2="-219.6" y2="96.6"/>
			<polyline class="st16" points="-32.6,237.9 -29,237.7 4.8,256 			"/>
			<polyline class="st4" points="8.2,257.9 11.7,259.8 12.4,263.7 			"/>
			<line class="st17" x1="13.8" y1="271" x2="26.6" y2="340.3"/>
			<polyline class="st4" points="27.7,343.8 27.8,344 29.2,344.6 31.5,344.3 32.9,342.3 32.9,341.2 32.8,340.8 			"/>
			<polyline class="st4" points="31.5,334.9 30.6,331 32.3,329.9 32.9,329 33.3,328.2 			"/>
			<line class="st18" x1="32.5" y1="320.1" x2="18.3" y2="242.4"/>
			<polyline class="st4" points="17.5,238.3 16.8,234.3 20.7,233.6 			"/>
			<line class="st19" x1="29.3" y1="232" x2="93.7" y2="220"/>
			<polyline class="st4" points="97.9,219.2 101.9,218.5 102.7,222.4 			"/>
			<line class="st20" x1="103.9" y1="229.9" x2="117.1" y2="300.2"/>
			<polyline class="st4" points="117.8,303.9 118.6,307.8 114.6,308.6 			"/>
			<line class="st21" x1="106.3" y1="310.1" x2="60.5" y2="318.8"/>
			<polyline class="st4" points="56.3,319.5 52.4,320.3 52.7,322.5 58.6,321.4 58.9,322.5 59.5,322.8 60,323.1 61.7,322.8 
				62.7,322.6 			"/>
			<polyline class="st22" points="70.4,321.2 124.5,310.9 125.1,310.4 125.3,309.8 125.3,309 113.7,247 			"/>
			<polyline class="st4" points="113,243.2 112.6,241.1 113.5,239.4 117.4,238.6 			"/>
			<polyline class="st4" points="121.4,237.7 125.3,236.9 125.6,238.3 131.3,237.2 132.4,240.8 135.3,238.1 			"/>
			<polyline class="st4" points="140.4,233 140.4,233 144,231.2 			"/>
			<polyline class="st4" points="285.2,98.3 283.6,97.8 281.5,96.7 			"/>
			<polyline class="st23" points="274.5,92.7 269.7,89.6 264,86.3 			"/>
			<polyline class="st4" points="260.5,84.2 257.9,82.6 257,82.6 256.7,82.9 256.4,83.4 256.1,84 256.1,84.6 256.7,85.1 257.5,85.6 
							"/>
			<line class="st24" x1="261.9" y1="88.4" x2="268.4" y2="92.5"/>
			<polyline class="st4" points="270.5,93.8 274,95.9 271.1,98.7 			"/>
			<polyline class="st4" points="268.6,101.2 265.8,104.1 271.1,109.4 267.5,113.1 262.1,107.7 259.3,110.6 			"/>
			<polyline class="st4" points="253,116.8 250.2,119.6 253.3,122.7 250.5,125.6 			"/>
			<polyline class="st4" points="245.4,130.6 242.6,133.5 238.6,129.8 238.1,130.6 238.1,130.9 241.7,134.6 240.6,135.4 
				236.9,131.5 235.8,132.6 233,129.8 			"/>
			<polyline class="st4" points="228.4,125.3 225.6,122.4 224.2,124.1 227,127 			"/>
			<polyline class="st4" points="235.2,135.1 238.1,138 235.2,140.8 			"/>
			<polyline class="st4" points="227.3,148.7 224.5,151.6 221.6,148.8 			"/>
			<line class="st25" x1="218.6" y1="145.8" x2="214.1" y2="141.4"/>
			<polyline class="st4" points="212.6,139.9 209.8,137.1 215.2,131.8 215.4,131.8 215.4,131.5 215.2,131.5 214.6,130.9 
				214.6,130.6 214.3,130.6 214.3,130.9 208.9,136.3 207.5,134.6 210.4,131.8 			"/>
			<polyline class="st4" points="211.2,130.9 214,128.1 214,127.8 212.6,126.7 209.8,129.5 			"/>
			<polyline class="st4" points="208.9,130.4 206.1,133.2 203.9,130.9 206.6,128 			"/>
			<polyline class="st4" points="208.1,126.5 210.1,124.4 210.1,124.1 209.5,123.6 209.2,123.6 206.6,126.2 			"/>
			<polyline class="st4" points="205.6,127.2 202.7,130.1 202.2,129.5 202.2,129.2 199.3,126.4 			"/>
			<polyline class="st26" points="194.3,121.6 192,119.3 186.8,114.2 			"/>
			<polyline class="st4" points="184.4,111.7 181.5,108.9 184.4,106.1 			"/>
			<polyline class="st27" points="190.1,100.6 203.6,87.1 214,78.9 216,77.2 223.4,73.3 			"/>
			<polyline class="st4" points="227,71.6 227.6,71.3 230.4,69.6 233.9,71.6 			"/>
			<line class="st28" x1="233.2" y1="67.4" x2="205" y2="50.7"/>
			<polyline class="st4" points="201,48.3 198.8,47 198.2,47 197.9,47 197.4,47 197.1,47.2 193.6,45.2 			"/>
			<line class="st29" x1="186" y1="40.7" x2="174.6" y2="33.8"/>
			<polyline class="st4" points="170.8,31.5 167.4,29.4 169.5,26 			"/>
			<line class="st30" x1="173.8" y1="18.9" x2="180.4" y2="8.1"/>
			<polyline class="st4" points="182.6,4.6 184.6,1.2 188,3.3 			"/>
			<line class="st31" x1="194.2" y1="7.1" x2="215.8" y2="20.6"/>
			<polyline class="st4" points="218.8,22.5 222.2,24.6 219.4,29.4 222.8,31.5 			"/>
			<polyline class="st4" points="231.5,36.9 234.9,39 235.8,37.3 232.4,35.2 			"/>
			<polyline class="st4" points="225.6,31 222.2,28.9 224.3,25.5 			"/>
			<polyline class="st4" points="228.1,19.3 230.1,15.9 233.8,18.1 234.4,17.3 231,15.2 			"/>
			<polyline class="st4" points="225.6,12 222.2,9.9 224.2,7.1 227.6,9.2 			"/>
			<polyline class="st4" points="232.7,12.3 236.1,14.4 236.6,13.6 233,11.3 234.4,9.1 237.8,11.1 			"/>
			<polyline class="st4" points="238.9,11.8 242.3,13.9 242.6,13.3 239.3,11.1 			"/>
			<polyline class="st4" points="238.3,10.4 234.9,8.2 236.6,5.4 240.1,7.5 			"/>
			<polyline class="st4" points="241.1,8.1 244.6,10.2 244.8,9.6 241.5,7.4 			"/>
			<polyline class="st4" points="240.5,6.8 237.2,4.6 239.3,1.2 			"/>
			<polyline class="st32" points="277.2,-13.7 307.3,5.1 309.3,6.5 325.4,16.7 335.3,22.6 344.6,28.6 358.9,40 			"/>
			<polyline class="st4" points="362.2,42.7 365.3,45.2 362.8,48.3 			"/>
			<polyline class="st4" points="358.3,53.5 355.7,56.5 359.1,59.3 361.6,56.2 			"/>
			<polyline class="st4" points="365.9,50.9 368.5,47.8 371.5,50.4 			"/>
			<line class="st33" x1="375.4" y1="53.7" x2="381.3" y2="58.8"/>
			<polyline class="st4" points="383.2,60.4 386.3,63 383.7,66.1 			"/>
			<polyline class="st4" points="379.2,71.5 376.6,74.6 380,77.4 382.6,74.4 			"/>
			<polyline class="st4" points="387.1,68.9 389.6,65.8 392.7,68.4 			"/>
			<line class="st34" x1="397.3" y1="72.2" x2="404.1" y2="77.8"/>
			<polyline class="st4" points="406.4,79.7 409.4,82.3 406.6,85.9 408,87.1 411.1,83.4 414.2,86 			"/>
			<polyline class="st4" points="419.7,90.7 422.7,93.3 420.2,96.3 			"/>
			<polyline class="st4" points="417.1,100.1 414.5,103.2 416.2,104.6 418.8,101.5 			"/>
			<polyline class="st4" points="421.9,97.8 424.4,94.7 427.5,97.2 			"/>
			<polyline class="st4" points="431.2,100.3 434.3,102.9 431.8,106 			"/>
			<polyline class="st4" points="428.6,109.9 426.1,113.1 427.8,114.5 430.3,111.4 			"/>
			<polyline class="st4" points="433.5,107.4 436,104.3 439.1,106.8 			"/>
			<line class="st35" x1="442.3" y1="109.5" x2="447.1" y2="113.4"/>
			<polyline class="st4" points="448.8,114.8 451.8,117.3 449.3,120.4 			"/>
			<line class="st36" x1="443.2" y1="127.7" x2="434" y2="138.6"/>
			<polyline class="st4" points="431,142.2 428.4,145.3 428.7,146.1 431.1,148.1 			"/>
			<polyline class="st4" points="437.3,153.3 440,155.5 440.5,155.5 443.1,152.4 			"/>
			<line class="st37" x1="449.1" y1="145.1" x2="458.1" y2="134.2"/>
			<polyline class="st4" points="461.2,130.6 463.7,127.5 466.8,130.1 			"/>
			<polyline class="st38" points="473,135.3 474.5,136.5 492,166.5 492,193.3 492,257 			"/>
			<polyline class="st4" points="492,261.1 492,265.1 491.4,265.1 491.1,265.4 490.9,265.7 490.6,266 490.3,267.1 490.3,267.7 
				490.3,268.2 			"/>
			<polyline class="st39" points="490.3,275.3 490.3,288.9 490.3,290.9 490.9,292.3 491.4,292.9 492.3,293.1 494.2,292.3 
				494.8,291.4 494.4,274.6 			"/>
			<polyline class="st4" points="494.3,271.1 494.2,267.1 498.2,267.1 			"/>
			<line class="st40" x1="506.3" y1="267.1" x2="582.9" y2="267.1"/>
			<polyline class="st4" points="586.9,267.1 590.9,267.1 592.3,270.9 			"/>
			<polyline class="st41" points="595.2,278.5 602.8,298.5 603.1,501.8 546.9,581.9 			"/>
			<polyline class="st4" points="544.6,585.3 542.3,588.5 538.3,588.6 			"/>
			<line class="st42" x1="530.3" y1="588.6" x2="502.3" y2="588.8"/>
			<polyline class="st4" points="498.2,588.8 494.2,588.8 494.2,584.8 			"/>
			<polyline class="st43" points="494.2,577.2 494.2,572.7 494,570.2 493.4,567.6 492,564.2 490.9,562.3 488.6,559.7 485.8,557.2 
				482.9,555.8 482.1,555.5 			"/>
			<polyline class="st4" points="478.3,554.7 478.1,554.6 475.9,554.3 475,554.6 474.5,554.9 474.2,555.8 474.2,556.6 474.5,557.4 
				475,558 475.6,558.2 			"/>
			<polyline class="st44" points="482.4,559.5 484.4,560.3 486.9,562.5 488.9,564.8 490.3,567.9 490.9,570.4 490.9,573.5 
				490.9,580.1 491.1,589.4 490.9,591.1 490.9,595.1 			"/>
			<polyline class="st4" points="490.9,598.7 490.9,599.3 490.9,602.7 490,603.5 488,605.5 			"/>
			<polyline class="st45" points="483.3,612.1 480.4,618.5 479.3,623.6 479,628.4 478.7,634.3 479,642 478.7,645.4 479,649.3 
				479,679.3 480.7,683.2 486.6,690.9 492,696 500.2,702.2 504.1,702.7 510.1,702.2 517.1,702.5 552.5,702.2 559,702.5 561,702.2 
				562.4,701 567.5,690.3 572,684.9 575.7,681.5 578.2,679.3 580.8,677 582.7,675 609.6,664.9 652.4,658.8 671,656.8 694.2,653.7 
				736.1,648.1 737,647.9 			"/>
			<polyline class="st4" points="740.9,647 744.8,646.1 741.5,648.4 			"/>
			<polyline class="st4" points="737.9,650.9 734.6,653.2 736.1,654.8 739.4,652.6 			"/>
			<polyline class="st46" points="747,648.1 747.4,648.1 754.2,647.5 762.1,646.7 762.6,646.9 762.9,647.5 763.8,662.2 			"/>
			<polyline class="st4" points="764.1,666.7 764.3,670.7 762.3,671 762.9,673.5 759,674.3 			"/>
			<polyline class="st4" points="758.1,674.5 755,675.2 754.7,675.5 754.4,675.8 754.4,676 754.7,676.3 755,676.6 755.6,676.6 
				758.9,675.9 			"/>
			<polyline class="st4" points="759.3,675.8 763.2,674.9 764,678.3 759,679.4 759.8,683.7 759.5,684.3 755.6,685.1 			"/>
			<polyline class="st4" points="753.3,685.6 749.3,686.5 749.3,686.8 745.4,687.6 			"/>
			<polyline class="st47" points="735.5,689.6 729.6,690.8 720.6,692.7 			"/>
			<polyline class="st4" points="715.7,693.7 713.7,694.1 713.2,694.7 712.9,695 712.3,695.5 712.3,695.8 712,696.4 712,697 
				712,697.5 712.3,698.1 712.9,699 713.2,699.1 			"/>
			<polyline class="st48" points="720,698.5 727.3,697 732.7,695.8 757.5,690.6 			"/>
			<polyline class="st4" points="761,689.8 762.1,689.6 764.9,689 765.2,689.3 768.8,688.5 769.1,687.9 770.8,687.6 771.6,691.6 			
				"/>
			<polyline class="st4" points="774,703.2 774.8,706.9 774.8,707.1 770.9,708 			"/>
			<line class="st49" x1="763.2" y1="709.6" x2="736.5" y2="715.1"/>
			<polyline class="st4" points="732.6,715.9 728.7,716.8 729.8,722.4 733.8,721.6 			"/>
			<line class="st50" x1="741.5" y1="719.9" x2="768.4" y2="714.2"/>
			<polyline class="st4" points="772.3,713.3 776.2,712.5 777,716.4 			"/>
			<polyline class="st4" points="778,721.6 778.7,725.5 771.7,726.9 772.8,731.7 768.9,732.6 			"/>
			<line class="st51" x1="761.1" y1="734.2" x2="749.4" y2="736.7"/>
			<polyline class="st4" points="745.5,737.5 742.3,738.2 742,738.5 741.7,738.5 741.4,739.1 741.4,739.4 741.7,740.8 742,741.3 
				742.3,741.6 742.6,741.6 742.8,741.6 742.9,741.6 			"/>
			<polyline class="st52" points="749.6,740.1 761.5,737.7 773.2,735.2 			"/>
			<polyline class="st4" points="776.5,734.5 780.4,733.7 781.3,737.6 			"/>
			<line class="st53" x1="783.2" y1="746.5" x2="786" y2="759.8"/>
			<polyline class="st4" points="787,764.3 787.8,768.2 787.5,768.5 787.2,767.9 786.4,767.4 785.5,766.8 784.7,766.5 784.3,766.5 
							"/>
			<polyline class="st4" points="781.5,773.5 782.1,773.9 782.7,774.1 783.5,774.4 784.4,774.4 785.3,774.1 785.3,774.4 
				781.3,775.3 			"/>
			<line class="st49" x1="773.7" y1="776.9" x2="716.4" y2="789"/>
			<polyline class="st4" points="712.6,789.8 709.2,790.5 708.6,790.5 708.6,790.8 708.4,791.1 708.4,791.4 709,794.3 			"/>
			<polyline class="st4" points="711,802.7 711.8,806.1 711.8,806.4 711.8,806.7 712,806.7 712.3,806.7 715.7,806 			"/>
			<line class="st54" x1="723.8" y1="804.3" x2="784.4" y2="791.6"/>
			<polyline class="st4" points="788.4,790.8 792.3,790 793.1,793.9 			"/>
			<polyline class="st4" points="794.9,802.2 795.7,806.1 792.5,808.5 			"/>
			<polyline class="st4" points="787.7,815.1 785.3,818.2 785.5,818.2 784.7,819.4 784.7,819.1 782.2,822.2 			"/>
			<polyline class="st4" points="782.1,822.5 781.8,823 781.8,823.9 782.1,824.5 782.4,824.7 783,825 783.3,825 783.8,825.3 
				784.1,825 784.7,825 785,824.7 785.5,823.9 787.5,821.3 787.2,821.3 788.1,820.2 788.1,820.5 790.6,817.4 			"/>
			<polyline class="st4" points="791.1,816.7 792.6,814.8 794,814 796.6,817.1 			"/>
			<polyline class="st4" points="798.9,819.9 799.4,820.5 800.2,821.6 801.1,822.2 801.6,822.8 801.1,824.7 799.9,826.3 			"/>
			<polyline class="st4" points="798.5,828 796.8,830.1 796.3,831.2 796,831 793.6,834.2 			"/>
			<polyline class="st4" points="797.1,835.3 798.8,833.2 799.4,832.1 799.7,832.4 802.1,829.2 			"/>
			<polyline class="st4" points="807.5,825.6 807.9,825.6 810.1,822.8 810.7,823 811.5,823.3 812.7,823.6 813.8,823.9 814.4,823.9 
				815.5,827.7 			"/>
			<polyline class="st55" points="817.5,834.9 818,836.9 819.5,837.7 841.7,836 			"/>
			<polyline class="st4" points="845.4,835.7 848,835.5 849.4,835.5 851.4,833.2 852.4,833.1 			"/>
			<line class="st56" x1="856.7" y1="832.8" x2="863.1" y2="832.3"/>
			<polyline class="st4" points="865.2,832.1 869.2,831.8 869.2,832.1 874.9,831.5 874.9,831.2 878.8,831 			"/>
			<polyline class="st57" points="887,830.4 891,830.1 899.2,837.2 899.7,837.5 900.3,837.7 900.9,838 901.4,838.3 902,838.3 
				902.6,838.3 903.1,838.3 913.3,837.5 933.4,835.8 946.5,834.3 969.1,808.1 971.1,805.5 972,804.7 972.8,803.8 973.4,802.7 
				974.5,801.3 975.1,800.2 975.6,799 976.5,797.6 976.8,796.5 977.3,795.3 983,779.2 983.6,777.5 983.8,776.4 984.4,775.5 
				984.7,775 985,774.4 985.3,773.9 985.8,773.3 995.4,761.1 1001.4,755.8 1009.3,748.7 1022.6,736.8 1025.7,734 1053.1,709.4 
				1062.3,701.2 			"/>
			<polyline class="st4" points="1065.4,698.5 1068.4,695.8 1068.4,696.1 1071.5,693.3 1072.9,691.9 1073.7,691.9 1074.3,693.9 
				1074.6,694.1 1078.5,693.5 			"/>
			<polyline class="st58" points="1086,691 1089.3,689.7 1098.1,688.5 1105.1,688.5 1112.5,687.4 1113,686.9 			"/>
			<polyline class="st4" points="1115.8,684.1 1118.1,680.8 1118.1,684.8 			"/>
			<line class="st59" x1="1118.1" y1="694.3" x2="1118.1" y2="708.6"/>
			<polyline class="st4" points="1118.1,713.3 1118.1,717.3 1114.7,719.3 			"/>
			<polyline class="st4" points="1108.6,722.9 1105.1,725 1107.1,728.4 			"/>
			<polyline class="st4" points="1108.5,730.8 1110.5,734.3 1113.9,732.3 			"/>
			<line class="st60" x1="1117.7" y1="730.1" x2="1123.3" y2="726.9"/>
			<polyline class="st4" points="1125.1,725.8 1128.6,723.8 1128.6,719.8 			"/>
			<line class="st61" x1="1128.5" y1="712.6" x2="1128.3" y2="687.3"/>
			<polyline class="st4" points="1128.3,683.7 1128.3,679.7 1132.3,679.7 			"/>
			<polyline class="st4" points="1141.5,679.7 1145.5,679.7 1147.2,683.4 			"/>
			<line class="st62" x1="1149" y1="687.4" x2="1151.8" y2="693.5"/>
			<polyline class="st4" points="1152.7,695.6 1154.3,699.2 1158,697.6 			"/>
			<line class="st63" x1="1165.6" y1="694.2" x2="1253.3" y2="655.3"/>
			<polyline class="st4" points="1257.1,653.6 1257.5,653.4 1260.6,651.7 1261.4,653.4 1262.8,654.8 1262.9,654.9 			"/>
			<line class="st64" x1="1264.8" y1="659.2" x2="1267.8" y2="665.5"/>
			<polyline class="st4" points="1269.5,666 1272.7,664.5 1273,664.2 1273,663.9 1271.5,660.5 			"/>
			<polyline class="st4" points="1268,652.8 1267.9,652.6 1267.9,650.6 1267.4,648.9 1271,647.2 			"/>
			<polyline class="st4" points="1278.7,643.7 1282.4,642.1 1283.8,645.2 1284.1,645.5 1284.1,645.8 1284.3,645.8 1284.6,645.8 
				1284.9,645.5 1287.7,644.3 			"/>
			<polyline class="st4" points="1291.7,642.6 1295.4,641 1295.4,640.7 1295.6,640.7 1295.6,640.4 1295.6,640.2 1294.2,636.8 
				1297.9,635.1 			"/>
			<polyline class="st65" points="1301.8,633.2 1302.1,633.1 1304.7,627.4 			"/>
			<polyline class="st4" points="1305.6,625.4 1307.2,621.8 1310.9,623.5 			"/>
			<polyline class="st66" points="1319.5,625.3 1320.8,625.2 1345.8,607.2 			"/>
			<polyline class="st4" points="1349.5,604.5 1351.1,603.4 1352.5,602.3 1352.7,602.3 1352.7,602 1352.7,601.7 1352.7,601.4 
				1351.8,598.4 			"/>
			<polyline class="st67" points="1349.3,590.1 1346.8,581.9 1346,578 1357.7,526.5 			"/>
			<polyline class="st4" points="1358.6,522.2 1359.5,518.3 1361.5,520 1360.7,525.1 1365.8,526.2 1367.2,518.6 1362.1,517.8 
				1361.8,519.2 1359.8,517.5 1360.6,513.5 			"/>
			<line class="st68" x1="1362.2" y1="505.4" x2="1367.8" y2="476.8"/>
			<polyline class="st4" points="1368.7,472.8 1369.4,468.8 1366.1,466.7 			"/>
			<line class="st69" x1="1358.9" y1="462.1" x2="1319.3" y2="436.9"/>
			<polyline class="st4" points="1315.7,434.6 1312.3,432.5 1312.9,426.3 1316.9,426.4 			"/>
			<polyline class="st4" points="1318.5,426.4 1322.5,426.6 1322.8,418.6 1318.8,418.5 			"/>
			<polyline class="st4" points="1317.2,418.5 1313.2,418.4 1313.3,414.4 			"/>
			<line class="st27" x1="1313.7" y1="406.5" x2="1316.8" y2="331.6"/>
			<polyline class="st4" points="1317,327.7 1317.1,323.7 1319.4,322 1320,324.2 1321.9,324.8 1322.5,323.4 1320.8,322.8 
				1325.3,321.1 1325.6,319.7 1330.1,318.9 1328.2,317.7 1327.3,315.5 1329.5,312.1 			"/>
			<line class="st70" x1="1333.8" y1="304.7" x2="1353.8" y2="261.7"/>
			<polyline class="st4" points="1355.6,257.8 1357.3,254.1 1360.1,255.8 1359.5,256.7 1360.9,257.5 1361.5,258.6 1362.1,258.1 
				1361.5,257.2 1362.7,255 1363.8,255 1366.3,256.4 			"/>
			<polyline class="st4" points="1367.1,256.9 1370.6,258.9 1370.8,258.4 1367.4,256.4 			"/>
			<polyline class="st4" points="1365.1,255.1 1363.8,254.4 1362.7,254.4 1361.5,253.6 1360.9,254.4 1357.8,252.7 1359.5,249.1 			
				"/>
			<polyline class="st4" points="1360.1,247.9 1361.8,244.2 1365.5,244.2 1365.8,244.4 			"/>
			<polyline class="st71" points="1369.5,246.1 1375.1,248.8 1375.2,248.8 			"/>
			<polyline class="st4" points="1377.2,248.4 1377.3,248.2 1377.6,247.9 1377.6,247.6 1377.9,247.1 1377.9,246.8 1378.2,246.2 
				1378.2,245.9 1378.2,245.6 1378.2,245.4 1377.9,245.1 1377.9,244.8 1377.6,244.8 1377.6,244.5 1377.3,244.5 1377.3,244.2 
				1373.7,242.6 			"/>
			<polyline class="st4" points="1367.8,239.9 1367.4,239.7 1365.2,236.9 1367.4,231.8 1369.4,232.6 1372,226.7 1370.3,225.9 
				1372.3,221.3 1374,221.9 1374.8,220.8 1372.8,219.9 1374.5,216.3 			"/>
			<line class="st72" x1="1376.4" y1="212.2" x2="1379.2" y2="206.1"/>
			<polyline class="st4" points="1380.2,204 1381.9,200.4 1384.1,201.5 1385,199.3 1383.8,198.7 1386.4,193.3 1385.3,193.1 
				1386.9,189.4 			"/>
			<line class="st73" x1="1390.3" y1="182.9" x2="1400" y2="177.4"/>
			<polyline class="st4" points="1403.3,175.5 1406.8,173.6 1409.6,176.3 			"/>
			<polyline class="st11" points="1415.4,181.9 1488.2,251.9 1562.7,323.2 			"/>
			<polyline class="st4" points="1565.6,325.9 1566.2,326.5 1566.5,327.9 1566.5,329 1566.2,329.6 1565.6,329.3 1565.3,329.6 
				1565.9,329.9 1568.3,332.3 			"/>
			<polyline class="st4" points="1568.4,332.4 1571.3,335.3 1571.6,335 1572.7,335 1574.7,335.5 1574.9,335.8 1575,335.8 			"/>
			<polyline class="st4" points="1579.1,339.5 1579.8,340.6 1580,340.9 1581.2,342.9 1580.6,343.2 1580,343.7 1582.9,346.6 			"/>
			<polyline class="st4" points="1583,346.7 1585.4,349.1 1586,349.4 1586.5,348.8 1586.8,348.8 1588.5,349.4 1590.3,350.1 			"/>
			<polyline class="st4" points="1592.8,352.2 1595.3,354.8 1595.6,355 1595.9,355 1596.2,355 1596.4,354.8 1599.3,357.5 			"/>
			<line class="st74" x1="1602.6" y1="360.7" x2="1607.5" y2="365.4"/>
			<polyline class="st4" points="1609.1,367 1612,369.7 1612,370.3 1612,370.6 1612.3,371.1 1614.1,372.9 			"/>
			<line class="st41" x1="1619.9" y1="378.5" x2="1628.8" y2="387"/>
			<polyline class="st4" points="1631.7,389.9 1634.6,392.6 1633.5,393.2 1632.1,391.8 1631.2,392.9 1633.5,394.9 1635.2,393.2 
				1638,396 			"/>
			<polyline class="st75" points="1643.9,401.7 1644.2,402 1651.3,413.3 1672.8,433.9 1679.8,436.2 1680.1,436.2 1687.3,443.2 			
				"/>
			<polyline class="st4" points="1690.3,446.1 1693.1,448.9 1693.4,448.3 1696.3,451.1 			"/>
			<polyline class="st15" points="1701.9,456.5 1731.6,485.1 1735.2,488.5 1840.1,589.7 1842.1,591.1 1844.1,591.7 1846,591.7 
				1850,591.4 1879.7,560.3 1881.1,557.4 1881.7,554.3 1881.1,552.6 1880,550.7 1846.9,518.4 1841.7,512.5 			"/>
			<polyline class="st4" points="1839.1,509.6 1836.4,506.6 1837.1,502.6 			"/>
			<polyline class="st76" points="1838.4,494.6 1839.8,485.9 1838.7,480.8 1836.2,476 1794.7,436.5 			"/>
			<polyline class="st4" points="1791.3,434.4 1788.4,431.6 1784.1,436.2 1785,437 1788.4,433.3 1790.9,435.9 1788.1,438.7 			"/>
			<polyline class="st4" points="1784.1,442.7 1781.3,445.5 1777.5,444.3 			"/>
			<polyline class="st43" points="1770.5,441.1 1761.8,435.3 1757.6,432.2 1752.8,427.7 1733,408.8 1698.2,375.4 1694.2,371.5 			
				"/>
			<polyline class="st4" points="1691.4,368.9 1688.9,366.4 1688.6,366.1 1688.6,365.5 1688.6,364.9 1689.2,364.1 1686.9,361.8 
				1685.5,363.5 1682.7,361 1681.8,361.8 1679.5,361 1678.4,359.9 			"/>
			<line class="st77" x1="1672.1" y1="353.8" x2="1637.2" y2="320.2"/>
			<polyline class="st4" points="1634.1,317.1 1631.2,314.3 1632.3,311.8 1633.2,310.9 			"/>
			<line class="st78" x1="1638.4" y1="305.4" x2="1656.9" y2="286.3"/>
			<polyline class="st4" points="1659.5,283.6 1662.3,280.7 1665.2,283.5 			"/>
			<line class="st79" x1="1670.7" y1="288.8" x2="1734.1" y2="349.9"/>
			<polyline class="st4" points="1736.9,352.5 1739.8,355.3 1742.5,352.4 			"/>
			<line class="st80" x1="1748" y1="346.8" x2="1788.8" y2="304.2"/>
			<polyline class="st4" points="1791.5,301.4 1794.3,298.5 1797.2,301.3 			"/>
			<polyline class="st15" points="1802.9,306.7 1813.8,317.2 1886.2,396.3 1904.8,418.9 1924.2,445.1 			"/>
			<line class="st81" x1="1931.3" y1="492.1" x2="1919.4" y2="500.8"/>
			<polyline class="st4" points="1915.4,503.6 1912.2,506 1912.5,507.4 1913.6,508.3 1915,508 1917.1,506.5 			"/>
			<g id="Piers">
				<line class="st82" x1="241.6" y1="0.3" x2="248.1" y2="4.3"/>
				<line class="st83" x1="239" y1="4.3" x2="245.8" y2="8.2"/>
				<line class="st84" x1="198.3" y1="93.9" x2="203.7" y2="99.3"/>
				<line class="st4" x1="215.6" y1="78.9" x2="218.4" y2="81.7"/>
				<line class="st4" x1="222.6" y1="85.7" x2="225.5" y2="88.5"/>
				<line class="st84" x1="190.1" y1="102.1" x2="195.5" y2="107.4"/>
				<line class="st4" x1="242.7" y1="107.6" x2="245.5" y2="110.5"/>
				<line class="st4" x1="249.5" y1="114.6" x2="252.3" y2="117.5"/>
				<line class="st85" x1="196.6" y1="116.2" x2="193.5" y2="119.3"/>
				<line class="st85" x1="197.8" y1="117.3" x2="194.6" y2="120.5"/>
				<line class="st4" x1="207.6" y1="85.1" x2="210.5" y2="87.9"/>
				<line class="st4" x1="214.7" y1="92.2" x2="217.5" y2="95"/>
				<line class="st4" x1="207.4" y1="113.4" x2="204.6" y2="116.3"/>
				<line class="st4" x1="200.5" y1="120.4" x2="197.8" y2="123.3"/>
				<line class="st86" x1="228.9" y1="71.3" x2="231.4" y2="72.7"/>
				<line class="st4" x1="230.8" y1="81.2" x2="228.1" y2="78.3"/>
				<line class="st4" x1="226.5" y1="76.7" x2="223.8" y2="73.8"/>
			</g>
			<polyline class="st4" points="1915.6,546.1 1914.7,546.7 1914.4,547 1914.2,547 1913.9,547.3 1913.6,547.3 1913.3,547.5 
				1913,547.8 1912.8,547.8 1912.5,547.8 1912.5,548.1 1912.2,548.1 1911.9,548.1 1911.6,548.4 1911.3,548.4 1911.3,548.7 
				1911.1,548.7 1910.5,548.7 1909.9,549 1909.6,549 1909.1,549.2 1908.8,549.2 1908.5,549.2 1908.2,549.2 1907.7,549.2 
				1907.5,549.2 			"/>
			<polyline class="st87" points="1901.7,548.9 1896.9,548.1 1894.9,547.8 1893.5,547.5 1893,547.5 			"/>
			<polyline class="st4" points="1890.1,547 1886.2,546.4 1886.2,546.1 1885.9,546.1 1885.6,546.1 1885.6,545.8 1885.3,545.8 
				1885.3,545.6 1885.1,545.6 1885.1,545.3 1884.8,545.3 1884.8,545 1884.8,544.7 1884.8,544.4 1884.8,544.2 1884.8,543.9 
				1884.8,543.6 1885.1,543.3 1885.3,543 1885.3,542.7 1885.6,542.7 1885.9,542.5 1886.2,542.5 1886.5,542.5 1886.8,542.5 
				1887,542.5 1891,543 1891,543.3 1893.5,543.9 1894.9,543.9 			"/>
			<polyline class="st4" points="1904.2,545.6 1904.3,545.6 1904.6,545.6 1904.8,545.6 1905.1,545.6 1905.4,545.6 1905.7,545.6 
				1906,545.6 1906.3,545.6 1906.5,545.6 1906.8,545.6 1907.1,545.6 1907.4,545.6 1907.7,545.6 1907.9,545.6 1908.2,545.6 
				1908.2,545.3 1908.5,545.3 1908.8,545.3 1909.1,545.3 1909.4,545.3 1909.4,545 1909.6,545 1909.9,545 1910.2,545 1910.2,544.7 
				1910.5,544.7 1910.8,544.7 1911.1,544.4 1911.3,544.4 1911.6,544.4 1911.6,544.2 1911.9,544.2 1911.9,543.9 1912.2,543.9 
				1912.5,543.6 1913,543.3 1913.6,543 1915.5,541.6 			"/>
			<polyline class="st88" points="1920.7,537.6 1922.9,536 1926.6,533.1 1928,532 1928.6,531.7 1928.7,531.7 			"/>
			<polyline class="st89" points="1928.5,536.5 1927.7,537.1 1922.9,540.5 1921.1,541.8 			"/>
			<polyline class="st4" points="1918.7,543.6 1918.4,543.9 1915.6,546.1 			"/>
			<line class="st4" x1="740" y1="675.2" x2="739.4" y2="671.2"/>
			<polyline class="st4" points="738.8,666.7 738.3,662.8 739.7,662.5 740.3,666.4 			"/>
			<polyline class="st4" points="741,671.3 741.7,675.2 740,675.2 			"/>
		</g>
		<g id="HKI_2019">
			<polyline class="st4" points="1122.4,988 1122.1,988 1121.8,988 1121.5,988 1121.5,987.7 1121.3,987.7 1121.3,987.4 1121,987.4 
				1121,987.2 1120.7,987.2 1120.7,986.9 1120.7,986.6 1120.7,986.3 1120.7,986 1120.7,985.8 1120.7,985.5 1120.7,985.2 1121,985.2 
				1121,984.9 1121.3,984.9 1121.3,984.7 1121.5,984.7 1121.8,984.4 1125.3,983.4 			"/>
			<line class="st90" x1="1132.4" y1="981.3" x2="1214.2" y2="957.8"/>
			<polyline class="st4" points="1217.7,956.8 1219.8,956.2 1220.1,956.2 1220.4,956.2 1220.7,956.2 1220.9,956.5 1221.2,956.5 
				1221.5,956.5 1221.5,956.7 1221.8,956.7 1221.8,957 1222.1,957.3 1222.1,957.6 1222.1,957.8 1222.3,958.1 1222.3,958.4 
				1222.1,958.4 1222.1,958.7 1222.1,959 1221.8,959.2 1221.8,959.5 1221.5,959.5 1221.5,959.8 1221.2,959.8 1220.9,959.8 
				1218.7,960.6 1217.7,960.9 			"/>
			<line class="st91" x1="1209.4" y1="963.3" x2="1130.4" y2="985.9"/>
			<polyline class="st4" points="1126.3,987.1 1122.9,988 1122.7,988 1122.4,988 			"/>
			<polyline class="st45" points="2022.9,978.4 1983.1,932.9 1927.2,901.2 1834.4,883.3 1742.3,838.6 1720,831.9 1711.4,825.2 
				1701.6,817.6 1687.4,811 1673.2,806.7 1660.1,801.2 1642.7,793.6 1627.4,788.1 1614.3,786 1590.3,780.5 1578.3,780.5 
				1576.9,780.5 			"/>
			<polyline class="st4" points="1572.9,780.3 1568.9,780.3 1568.9,778 1567.8,776.9 1567.8,776.7 			"/>
			<polyline class="st4" points="1567.3,767.8 1567.2,764.9 1566.9,764.6 1566.7,764.6 1566.4,764.9 1566.7,768.9 			"/>
			<polyline class="st4" points="1567.2,776.8 1567.2,777.2 1566.4,778.3 1566.4,780.5 1562.4,780.5 			"/>
			<polyline class="st92" points="1554,781 1549.9,781.6 1545.5,784.9 1537.9,787 1528.1,790.3 1526.4,790.8 			"/>
			<polyline class="st4" points="1522.4,792.1 1518.6,793.4 1518,789.4 			"/>
			<polyline class="st93" points="1516.2,781.3 1514.2,771.9 1513.9,771.3 1513.6,771 1513,771 1509.7,771.6 1509.4,771.9 
				1509.1,772.2 1508.8,772.4 1508.8,772.7 1511.6,784.4 1511.1,786.7 1511.1,786.9 			"/>
			<polyline class="st4" points="1513,790.6 1513.9,794.5 1509.9,795.3 			"/>
			<polyline class="st4" points="1499,797.6 1495.2,798.7 1495.2,798.4 1496.3,795.9 1496.2,794.9 			"/>
			<line class="st94" x1="1494.4" y1="791.4" x2="1493.2" y2="785.4"/>
			<polyline class="st4" points="1492.8,783.4 1492.1,780.3 1491.8,780 1491.5,779.7 1491.5,779.4 1491.3,779.4 1491,779.4 
				1487.6,780.2 			"/>
			<polyline class="st95" points="1487.7,785.3 1489.6,793.4 1489.6,793.5 			"/>
			<polyline class="st4" points="1489.2,796.2 1489.6,797.6 1491.5,799.2 1487.5,799.2 			"/>
			<polyline class="st12" points="1479.4,799.2 1473.7,799.2 1456.1,799.2 1441.1,799.2 1423.5,804.4 1406.9,808.9 1388.4,814.3 
				1372,819.8 1355.6,830.7 1340.3,842.7 1334.8,848.7 			"/>
			<polyline class="st4" points="1332,851.6 1329.3,854.5 1328.5,854.3 1327.6,854.3 1326.8,854.3 1325.9,854.5 1325.4,854.8 			"/>
			<polyline class="st96" points="1319.5,860 1294.7,883.3 1291.9,885.8 1274.6,904 1250,932.2 1245.2,937.6 			"/>
			<polyline class="st4" points="1242.6,940.6 1239.9,943.6 1236.6,941.4 			"/>
			<polyline class="st97" points="1232.5,938.6 1228.8,936.1 1227.7,935.2 1226.4,934.3 			"/>
			<polyline class="st4" points="1224.4,932.9 1222.1,931.3 1221.5,931.3 1220.9,931 1220.4,931.3 1219.8,931.6 1219.6,931.9 
				1219.3,932.4 1219,933 1219,933.5 1219.2,934 			"/>
			<line class="st98" x1="1224.9" y1="938.1" x2="1245" y2="951.7"/>
			<polyline class="st4" points="1247.8,953.6 1250,955 1251.1,955.9 1250,957.8 1249.2,958.7 1250,960.9 1250.5,962.5 			"/>
			<polyline class="st99" points="1253,970.3 1255.9,979.1 1254.1,986.8 1252.9,994.8 1250,1002.7 1245.3,1008.4 1197.8,1021.5 
				1196.4,1022.3 1191.3,1021.8 1179.3,1026.3 1165.6,1037.3 			"/>
			<polyline class="st4" points="1163.5,1040.4 1162.9,1044.4 1159.6,1046.7 			"/>
			<polyline class="st100" points="1153.6,1050.7 1133.3,1064.5 1132.8,1064.7 			"/>
			<polyline class="st4" points="1129.4,1066.1 1125.7,1067.6 1123.2,1066.5 1122.7,1065.6 1122.6,1065.4 			"/>
			<polyline class="st101" points="1122.3,1057.7 1127.1,1030.2 1127.7,1026 1128.8,1019.6 1129.7,1016.2 1131.9,1013 
				1131.9,1009.7 1129.7,1006.4 1126.4,1005.3 1123.7,1006 			"/>
			<polyline class="st4" points="1119.9,1007.1 1118.8,1007.5 1116,1007.5 1114.4,1003.9 			"/>
			<polyline class="st4" points="1109.7,992.9 1108.7,990.5 1108.4,990.2 1108.1,990 1107.6,989.7 1107,990 1106.7,990 
				1106.2,990.5 1106.2,990.8 1105.9,991.6 1106.7,993.5 			"/>
			<line class="st102" x1="1108.3" y1="997.3" x2="1110.8" y2="1002.8"/>
			<polyline class="st4" points="1111.6,1004.7 1113.2,1008.4 1109.3,1009.5 			"/>
			<polyline class="st4" points="1105.7,1010.3 1101.7,1010.1 1099.8,1012.3 1099.2,1015.1 1096.7,1016.2 1096.1,1016.5 
				1095.5,1016.3 			"/>
			<polyline class="st4" points="1091.1,1015.2 1087.2,1014.3 1087.2,1014.8 1091,1015.9 			"/>
			<polyline class="st4" points="1091.2,1016 1095,1017 1094.7,1018.4 1096.1,1019.6 1095.6,1022.1 1096.1,1027.4 1094.7,1027.7 
				1094.7,1031 1096.4,1031.3 1096.4,1035.3 			"/>
			<polyline class="st67" points="1094,1043.6 1075.5,1057.5 1068.5,1060 			"/>
			<polyline class="st4" points="1064.4,1061.5 1060.7,1062.8 1059.3,1059.1 			"/>
			<polyline class="st4" points="1055.6,1048.7 1054.3,1045 1057.3,1042.4 			"/>
			<polyline class="st50" points="1063.3,1037.3 1076.3,1026.3 1076.9,1025.7 1077.4,1024.9 1077.7,1024 1077.7,1023.5 
				1077.4,1022.3 1077.1,1021.8 1076.6,1021 1076,1020.7 1075.5,1020.4 1074.6,1020.1 1073.8,1020.1 1073,1020.1 1072.4,1020.4 
				1071.3,1021.5 1068.5,1023.8 1048.7,1040.2 1019.3,1044.7 1009.3,1046.1 1002.3,1047.2 997.8,1047.8 988.6,1049.2 985.6,1049.5 
							"/>
			<polyline class="st4" points="981.7,1049.9 981.1,1050 977.7,1050.6 976.6,1049.2 976.4,1047 			"/>
			<polyline class="st4" points="975.3,1037.9 974.9,1034.4 974.7,1034.1 974.7,1033.8 974.4,1033.8 974.1,1033.8 969.6,1034.1 
				969.4,1034.4 969.1,1034.4 969.1,1034.6 968.8,1034.6 968.8,1034.9 969.2,1038.6 			"/>
			<polyline class="st4" points="970.3,1047.7 970.5,1049.4 970.5,1050 969.9,1050.6 969.6,1051.1 969.6,1051.4 965.7,1051.8 			"/>
			<polyline class="st103" points="958.9,1052.6 946.5,1053.9 944.5,1054.2 943.1,1054.2 940.9,1054.2 940,1054.2 938.9,1054.2 
				938.1,1053.9 937.2,1053.3 936.4,1052.8 935.3,1052.2 934.7,1051.4 934.2,1050.8 933.6,1050 933,1049.2 932.5,1048 932.2,1047.2 
				931.7,1040.1 			"/>
			<polyline class="st4" points="931.5,1036.7 931.4,1034.6 931.4,1032.7 932.8,1033 932.8,1033.5 933.9,1034.1 934.2,1032.4 
				933,1032.1 933,1032.4 932.5,1032.4 933.3,1029.1 933.9,1029.3 933.9,1029.6 935,1029.9 935.3,1028.5 934.2,1028.2 933.9,1028.8 
				933.6,1028.5 934.7,1024.7 			"/>
			<polyline class="st4" points="935.3,1022.7 935.8,1020.7 935.8,1020.1 935.8,1019.6 935.6,1019.3 935.3,1019 937.5,1018.4 
				936.5,1014.6 			"/>
			<polyline class="st104" points="934.3,1005.8 933.3,1002.2 933,1001.7 933,1001.4 932.8,1000.8 932.5,1000.6 931.9,1000 
				931.4,999.7 930.8,999.7 930.3,999.5 929.7,999.5 929.2,999.7 928.6,1000 928,1000.3 927.8,1000.8 927.2,1001.4 926.9,1002 
				926.9,1002.5 926.9,1003 			"/>
			<polyline class="st4" points="928,1007.3 929.2,1011.2 925.2,1011.2 			"/>
			<polyline class="st104" points="916.1,1011.2 914.9,1011.2 914.1,1010.6 913.2,1010.3 912.1,1009.8 911,1009.2 909.3,1008.7 
				907.4,1008.1 904.6,1007.5 902.6,1007.3 899.8,1007.3 898.2,1007.3 896.8,1007.5 895.1,1007.8 893.7,1008.1 892,1008.7 
				890.3,1009.5 888.7,1010.3 886.7,1011.5 886,1011.9 			"/>
			<polyline class="st4" points="882.5,1014.8 880.3,1017 880,1017.3 879.7,1017.6 879.7,1017.9 879.7,1018.4 879.7,1018.7 
				879.7,1019 880,1019.6 880.3,1019.8 880.6,1020.1 880.8,1020.4 881.1,1020.4 879.9,1024.2 			"/>
			<polyline class="st23" points="877.4,1032 877.2,1032.7 875.3,1034.4 873.3,1036 871.6,1038 870.8,1038.8 870,1040.2 
				869.4,1041.6 868.3,1043.6 868,1044.7 866.9,1046.4 866.6,1047.2 865.2,1049.4 864.1,1051.1 861.8,1053.9 860.2,1055.9 
				857.9,1057.3 854.9,1058.7 852.4,1059.8 848.7,1060.9 844.5,1061.7 841.5,1061.7 838.1,1061.4 832.5,1060.6 822.5,1058.1 
				811.6,1055 810.8,1055 802.1,1054.5 793.7,1054.5 792,1054.2 790.1,1053.6 788.1,1052.5 785.9,1051.1 783.9,1049.4 781.2,1046.4 
				778.6,1046.1 776.7,1045.8 772.5,1045.5 769.7,1045.3 767.8,1045 762.7,1044.4 755.7,1043 752.5,1042.4 			"/>
			<polyline class="st4" points="748.5,1041.6 747.4,1041.3 744.8,1042.7 741.2,1041.2 			"/>
			<polyline class="st42" points="733.7,1038.4 731.7,1037.7 725,1034.9 722.5,1034.1 720.3,1033 714.4,1030.7 692.8,1022 			"/>
			<polyline class="st4" points="689.1,1020.5 685.4,1019 684.8,1016.5 684.5,1016.5 681.4,1014.5 			"/>
			<polyline class="st105" points="677.3,1011.9 675.9,1010.9 674.1,1005.8 			"/>
			<polyline class="st4" points="673.3,1003.5 672,999.7 675.8,998.5 			"/>
			<polyline class="st4" points="684.5,995.6 685.4,995.3 685.9,995 686.2,994.7 686.5,994.4 686.8,994.2 686.8,993.9 687,993.6 
				687,993.3 687,993 686.8,992.8 686.8,992.5 686.5,992.2 686.5,991.9 686.2,991.6 685.9,991.6 685.7,991.3 685.4,991.3 
				685.1,991.3 684.8,991.3 684.5,991.3 681.8,992.3 			"/>
			<polyline class="st4" points="674.6,994.8 670.8,996.1 669.5,992.3 			"/>
			<polyline class="st4" points="667.5,986.7 666.1,983 669.9,981.7 			"/>
			<polyline class="st4" points="676.5,979.4 679.8,978.2 680.3,978.2 680.6,978 680.9,977.4 681.2,976.8 681.2,976.5 681.2,976 
				680.9,975.7 680.6,975.2 680.3,974.9 680.1,974.9 679.5,974.6 679.2,974.6 678.7,974.6 677.9,974.9 			"/>
			<polyline class="st4" points="668.8,978 665,979.3 663.5,975.6 			"/>
			<line class="st106" x1="661.7" y1="970.5" x2="664.9" y2="962.9"/>
			<polyline class="st4" points="666,960.4 667.5,956.7 661.9,954.5 660.4,958.2 			"/>
			<polyline class="st4" points="656.7,966.8 656,968.5 654.1,969.6 650.4,968 			"/>
			<polyline class="st4" points="646.6,966.3 644.6,965.4 642.9,964.7 642.9,964.3 642.4,962.6 643.1,960.9 			"/>
			<line class="st107" x1="645" y1="956.2" x2="647.8" y2="949.3"/>
			<polyline class="st4" points="646.6,947.6 643.2,946.1 642.9,946.1 642.6,946.4 642.4,946.7 641.2,949.7 			"/>
			<polyline class="st4" points="637.5,958.5 636.8,960.4 635.4,961.2 635.1,961.5 631.4,960 			"/>
			<polyline class="st4" points="626.8,958.2 623.1,956.7 623.4,956.5 622.5,955 623.9,951.3 			"/>
			<polyline class="st4" points="626.6,944 627.8,940.8 627.8,940.5 627.8,940.3 627.6,940.3 627.3,940 623.1,938.6 622.8,938.6 
				622.5,938.6 622.3,938.6 622.3,938.9 621,942.3 			"/>
			<polyline class="st4" points="617.7,951.1 617,953.1 615.8,953.7 615.6,954.2 611.8,952.9 			"/>
			<polyline class="st4" points="607.1,951.3 603.3,950 603.5,949.5 602.7,948.3 603.9,944.5 			"/>
			<polyline class="st4" points="606.2,937.1 607.2,933.8 607.2,933.5 607.2,933.3 606.9,933 602.7,931.9 602.2,931.6 601.9,931.9 
				601.6,931.9 601.6,932.2 600.5,935.7 			"/>
			<polyline class="st4" points="598.3,942.8 597.1,946.7 595.7,947.2 593.3,946.5 			"/>
			<polyline class="st4" points="585.7,944.3 583.5,943.6 582.6,942.2 583.7,938.3 			"/>
			<polyline class="st4" points="585.5,931.3 586.5,927.7 586.5,927.4 586.2,927.4 586.2,927.1 586,927.1 581.5,925.7 581.2,925.7 
				581.2,926 580.9,926 580.7,926.3 579.8,929.8 			"/>
			<polyline class="st4" points="578,936.9 577,940.8 575.6,941.7 573.3,941.1 			"/>
			<polyline class="st4" points="565.8,939.3 563.1,938.6 562.2,937.7 563.3,933.9 			"/>
			<polyline class="st4" points="565.4,926.2 566.4,922.4 565.8,921.8 561.1,920.4 560.3,921 559.5,923.9 			"/>
			<polyline class="st4" points="557,933.3 556.4,935.8 555.2,936.6 551.4,935.7 			"/>
			<polyline class="st4" points="546.8,934.5 543,933.5 542.1,932.2 541.8,932.2 542.9,928.3 			"/>
			<polyline class="st4" points="545,920.7 546,916.8 540.4,915.4 539.4,919.3 			"/>
			<polyline class="st4" points="537.3,926.9 536.3,930.8 534.9,931.3 530.4,930.2 529,927.7 522,925.7 523.1,921.9 			"/>
			<polyline class="st4" points="524.9,915.3 525.9,911.5 523.7,910.9 520.9,913.8 			"/>
			<line class="st32" x1="515" y1="919.9" x2="494.3" y2="941.4"/>
			<polyline class="st4" points="491.3,944.4 488.5,947.2 485.2,945 			"/>
			<polyline class="st4" points="483.5,943.9 481.8,942.8 479.9,942.5 479.3,941.4 479,939.7 475.1,938.7 			"/>
			<line class="st58" x1="467.5" y1="936.8" x2="456" y2="933.8"/>
			<polyline class="st4" points="452.2,932.9 448.3,931.9 448,931.3 448.9,928 			"/>
			<polyline class="st4" points="450,923.6 450.8,920.7 451.6,920.2 457.5,921.8 457.8,921 458.1,921 458.6,919.3 459.2,919.6 
				458.9,921.3 463.1,922.4 465.9,920.7 466.7,917.9 465,914.8 460.9,913.7 460.3,915.7 459.5,915.4 460,913.7 459.7,913.5 
				460,912.6 453.9,910.9 453.6,910.4 454.5,907.1 			"/>
			<polyline class="st4" points="455.4,903.6 456.4,899.8 457,899.5 461.7,900.9 462.3,898.7 463.1,898.9 462.5,900.9 463.9,901.4 
				464.5,899.5 465.6,899.5 465,901.7 468.1,902.5 468.8,902.2 			"/>
			<polyline class="st4" points="470.2,901.4 471.2,900.9 472,898.1 471.5,897.3 468.6,896.4 			"/>
			<polyline class="st23" points="460.7,894.2 456.7,893.1 433.2,886.8 			"/>
			<polyline class="st4" points="429.3,885.7 425.4,884.7 424.6,885.2 423.7,888 425.4,891.1 429.3,892.1 			"/>
			<line class="st108" x1="433.4" y1="893.2" x2="439.6" y2="894.8"/>
			<polyline class="st4" points="441.6,895.4 445.5,896.4 445.8,894.5 446.6,894.5 446.1,896.7 447.7,897 448.3,895 449.1,895.3 
				448.6,897.3 453.3,898.7 453.6,899.2 452.7,902.5 			"/>
			<polyline class="st4" points="451.6,906.4 450.8,909.5 450.3,910.1 446.4,909 			"/>
			<line class="st33" x1="441.4" y1="907.7" x2="434" y2="905.7"/>
			<polyline class="st4" points="431.5,905 427.6,904 427.4,904.8 426.8,906.5 426,906.5 426.2,904.5 422.3,903.4 422,903.4 
				419,905.1 418.4,907.9 419,908.8 			"/>
			<polyline class="st4" points="420.4,911 424.3,912 424.8,910.1 425.7,910.4 425.4,912.3 425.4,913.2 431.3,914.6 431.8,915.4 
				430.8,919.3 			"/>
			<polyline class="st4" points="429.8,923.1 429,926 428.2,926.6 424.3,925.5 			"/>
			<polyline class="st4" points="416.3,923.4 413.7,922.7 412.5,923.2 411.7,922.9 409.8,920.5 			"/>
			<polyline class="st6" points="404.7,914.1 392.7,898.9 298.6,873.8 184.1,869.9 160.1,876.4 			"/>
			<polyline class="st4" points="156.2,877.5 152.3,878.5 151.2,874.7 			"/>
			<polyline class="st4" points="151.1,874.3 150.1,870.4 148.1,871 149.1,874.9 			"/>
			<polyline class="st4" points="149.1,875.2 150.1,879.1 146.2,880.2 			"/>
			<polyline class="st4" points="145.8,880.3 142,881.3 141.1,878 140,878.3 138.9,873.8 140,873.5 139.7,873.2 136.7,874.1 
				136.7,874.3 137.8,874.1 138.9,878.5 138.1,878.8 138.9,882.2 135,883.2 			"/>
			<line class="st9" x1="128.9" y1="885" x2="119.6" y2="887.5"/>
			<polyline class="st4" points="116.5,888.4 112.6,889.4 111.6,885.6 			"/>
			<polyline class="st4" points="111.4,884.9 110.4,881 107.3,881.9 108.3,885.8 			"/>
			<polyline class="st4" points="108.4,886.4 109.3,890.3 105.4,891.3 			"/>
			<polyline class="st4" points="93.9,894.3 90,895.3 89,891.4 			"/>
			<polyline class="st4" points="88.9,891 87.8,887.2 84.7,888 85.8,891.9 			"/>
			<polyline class="st4" points="85.9,892.3 86.9,896.1 83.1,897.2 			"/>
			<polyline class="st4" points="75.4,899.3 71.6,900.3 70.5,896.5 			"/>
			<polyline class="st4" points="70.4,896.1 69.4,892.2 66.3,893.1 67.3,896.9 			"/>
			<polyline class="st4" points="67.5,897.3 68.5,901.2 64.7,902.2 			"/>
			<polyline class="st109" points="57.5,904.2 51.5,905.9 2.2,897.9 			"/>
			<line class="st110" x1="5.1" y1="905.5" x2="46" y2="912"/>
			<polyline class="st4" points="49.8,912.5 53.7,913.2 54.8,917 			"/>
			<line class="st111" x1="56.1" y1="921.9" x2="58.1" y2="929.2"/>
			<polyline class="st4" points="58.8,931.7 59.9,935.5 55.9,934.9 			"/>
			<line class="st112" x1="46.9" y1="933.5" x2="15.3" y2="928.5"/>
			<polyline class="st4" points="10.8,927.8 6.8,927.1 3.9,929.9 			"/>
			<polyline class="st4" points="446.3,927.5 445.6,930.4 444.7,931 440.9,929.8 			"/>
			<polyline class="st4" points="435.1,928.2 432,927.3 431.5,926.7 432.6,922.9 			"/>
			<polyline class="st4" points="433.7,919 434.6,916 435.1,915.4 439,916.4 			"/>
			<polyline class="st4" points="445,918 447.9,918.8 448.4,919.7 447.4,923.5 			"/>
		</g>
		<g id="Pre1900_HKI">
			<path id="Pre1900_HKI-2" class="st113" d="M-13.4,1737.4l3.5-3.5l1.9-3.8l1.9-5.8l1.9-1.9l-3.8-1.9l3.8-3.8l3.8-3.8l1.9-3.8
				l3.8-5.8h2.5l1.4-5.8v-3.8l1.9-3.8l1.9-1.9l1.9-5.8v-13.5l5.8-5.8v-7.7l1.9-5.8v-11.6l-3.9-1.9v-5.7l-1.9-2l1.9-3.8l-1.9-3.8
				h-1.9l-1.9-3.8l-3.9-1.9l1.9-5.8v-11.6l-1.9-1.9l-3.8-1.9v-3.8l-5.8,1.9l-6.6-1.9l-3,1.9h-3.8l-1.9-1.9l-1.9,1.9l-3.9-1.9v-3.7
				l1.9-4l-3.9-3.8v-3.1l-3.9-4.6l-1.9-3.8l-3.8-1.9l-1.9-3.8l3.9-5.8l3.9-3.8l3.9-5.8l-1.9-5.8l-1.9-3.8l-1.9-3.8v-7.7l1.9-3.8
				l-3.9-3.8l-1.9-5.8v-5.8l-2-3.8l-1.9,5.8h-5.8l-3.8-1.9l-1.9,1.9v5.8l-1.9,1.9l1.9,3.8l-1.9,3.7l-5.8,0.1l-1.9,1.9l-1.9,5.8
				l-1.9,3.9l-3.9,1.9l-3.8,1.9l-3.8,1.9l-5.8,1.9v5.8l-3.8,1.9l-1.9-1.9v-3.3l-3.8-2.4h-7.7l-3.8-5.8h-3.9l-1.9-1.9l-3.8,1.9
				l-1.9-1.9l-1.9-3.9l-3.8-1.9v-5.7l-1.9-2l-3.8-5.8l-3.8-5.8l-1.9-1.9v-6.3l1.9-3.3l-1.9-3.8l3.8-5.8v-7.7l-1.9-5.8l1.9-5.8
				l3.8-1.9l-1.9-5.8v-5.8l1.9-5.8l1.9-3.8l3.8-3.9l1.9-5.8l-3.8-3.8l-1.9,1.9v-7.7l3.8-3.8l-1.9-3.8l1.9-1.9v-3.8l-3.8-1.9v-3.8
				l-1.9-3.8h-3.8l-3.8-3.8v-3.9l-3.9-1.9l-3.9-1.9l-3.9-1.9l-1.9-3.8v-5.8l-3.9-1.9l1.9-3.8l-1.9-1.9l1.9-3.8v-9.6l1.9-5.8l3.9-3.8
				v-1.9l-3.9-3.8v-9.6l-5.8-5.8l-3.9-3.8l-3.9-1.9l-3.9,3.8v5.4l-1.9,2.3l-1.9,3.8l-3.9,1.9l-1.9,3.8l-3.9,1.9h-5.8l-5.8,1.9
				l-3.8-2h-3.9l-5.8-3.8h-11.6l-9.6-1.9l-5.8-1.9h-3.9l-3.9-5.8h-5.8l-1.9-3.8l-1.9-1.9l-5.8-1.9l-1.9-1.9l-5.8-1.9l-1.9-1.9
				l-3.9-1.9v-2.3l-3.9-3.5l1.9-5.8l-1.9-3.5l-1.9-2.3h-3.9l-3.9-3.8l-1.9-3.8l-1.9-1.9l-5.8-1.9l-1.9-3.8l-5.8-7.7h-4l-3.6-1.9
				l-1.9-3.8l-3.9-1.9l-3.9-3.8l-3.9-1.9l-3.9-1.9l-3.9-1.9h-3.4l-2.4-1.9l-3.9,1.9l-3.9-3.8l-5.8-1.9l-1.9-3.8l1.9-7.7l-1.9-3.8
				v-3.5l-1.9-2.2l1.9-3.9l-3.9-1.9l1.9-5.8l-5.8-1.9l3.9-5.8l1.9-7.7l5.8-5.8v-7.7l1.9-5.8l1.9-5.8v-5.8l5.8-3.8v-5.8l-1.9-3.8
				l1.9-3.8v-5.8l3.9-1.9l5.8-3.8l5.8-7.7l3.9-1.9l3.9-5.8l1.9-3.8l3.9-5.8l1.9-5.8l3.9-3.8l3.9-5.8l11.5-9.6l7.7-3.8l3.9-5.8
				l7.7-1.9l3.9-1.9l13.5-1.9l3.9-1.9l5.8-1.9l5.8-3.8l13.5-1.9l7.7-1.9h9.3l10-1.9h7.7l9.6,3.8l9.6,1.9h17.3l7.7,1.9l7.7,1.9
				l3.8,1.9l5.8,3.8l5.8,1.9l7.7,1.9h7.7l7.7-1.9l7.7-1.9l5.8-1.9l5.8-1.9l9.6-5.8l5.8-5.8l3.8-5.8l3.8-7.7l1.9-5.8l1.9-5.8l3.8-3.8
				l3.8-3.8l5.8-3.8l7.7-3.8l5.8-5.8l3.9-3.8l3.8-1.9l5.8-3.9l1.9-9.6l1.9-5.8l3.8-5.8l3.9-5.8v-9.6c1.9,1.9-1.9-3.9-1.9-3.9
				l1.9-5.8l3.8-3.8h7.7l5.8,1.9l7.7,1.9l13.5,1.9l7.7,5.8l5.8,1.9h21.2l9.6-1.9l5.8-1.9l7.7-3.8l7.7-3.8l5.8-3.8l5.8-3.8l5.8-1.9
				l7.7-1.9h11.6l5.8,5.8l3.9,1.9l5.8,1.9h7.7l7.7-1.9l7.7-3.8l1.9-5.8l1.9-5.8l1.9-1.9l3.9-2h13.5l5.8,1.9h3.9l1.9,5.8v3.8l3.9,3.8
				l5.8,1.9h23.1l5.8,1.9h3.9l7.7,1.9h11.5l3.9,1.9l1.9,1.9l1.9,3.8l3.9,1.9h3.8l3.9,1.9l1.9,1.9h7.7l3.9-1.9l3.9-1.9l1.9-1.9
				l3.9-3.8l3.9-1.9h1.9l3.9-1.9l3.9-1.9l1.9-1.9h1.9l3.9,1.9l5.8,3.8l3.9,3.8l7.7,5.8l5.8,5.8l5.8,3.8l5.8,5.8h11.5l1.9-3.8
				l3.9-1.9h3.9l1.9,3.8l5.8,3.8l5.8,3.8l1.9,3.8v5.8l5.8,1.9l5.8,1.9h3.9l3.9-1.9l3.9-1.9h1.9l3.9-1.9l1.9-3.8h5.8l5.8,1.9h11.5
				l7.7,3.8l3.9,1.9h9.6l5.8,1.9l3.9,1.9l1.9,1.9l1.9,1.9l3.9,3.8l5.8,3.8l1.9,5.8v7.7l1.9,3.8l5.8,5.8l1.9,3.8l3.8,3.8l3.8,3.8
				l1.9,3.9l1.9,1.9l3.9,3.8l3.8,5.8l1.9,5.8l3.8,3.8l3.8,5.8l5.8,5.8l3.8,3.8l1.9,3.8l1.9,3.9l1.9,3.8l5.8,3.8l3.8,7.7l3.8,3.8h5.8
				l5.8,1.9h5.8l3.8,1.9l3.8-1.9h13.5l3.9-1.9l9.6-1.9l9.6,1.9l9.6,1.9l11.5,3.8l9.6,3.8l9.6,3.8l5.8,3.8l7.7,5.8l7.7,5.8l7.7,5.8
				l1.9,3.8v7.8l1.9,1.9h1.7l2.1-1.9l1.9-1.9l5.8-1.9h13.5l3.8-1.9l3.8-1.9l3.9-3.8l5.8-3.8h1.9l1.9,1.9l1.9,1.9l3.8,3.8l1.9,1.9
				l3.8,3.8v2.5l-5.8,5.2l-3.8,3.8l-3.8,5.8l1.9,3.9h7.5l7.9,1.9l5.8,3.8l3.8,1.9l3.8,1.9l5.8,3.8l3.8,1.9l3.8,3.8l1.9,1.9l7.7,5.8
				l5.8,3.8l5.8,3.8l5.8,3.8l3.8,3.8l3.8,1.9h9.6l5.8-1.9h3.8l5.8,1.9l5.8,3.8h26.1l4.7,3.8l7.7-1.9l3.8-1.9l5.8-1.9l3.8-1.9
				l5.8-1.9l7.7-5.8l5.8-1.9l7.7-1.9h5.8l5.8-3.8l3.8-1.9l3.8-1.9l13.5,3.8l13.5-9.6l5.8-7.7v-7.7h11.5l19.3-5.8l9.6-7.7l7.7-1.9
				l11.6,17.3l-1.9,11.6l3.8,17.3l3.8,3.8h11.6l7.7-3.4l7.7-8.1l5.8-7.7l5.8-1.9l13.5-5.8l9.6-9.6l-5.8-15.4v-7.7l1.9-5.8v-3.8
				l-1.9-5.8v-3.8l1.2-6.1l1.4-3.5l1.5-1.5l3.1-3.1l4.6-4.6l3.1-4.6l1.5-4.6l1.6-4.6l-1.6-3.1l-3.1-3.1l-1.5-3.1l-1.6-4.6l1.2-3.4
				l3.8-1.9l5.8-1.9l5.8,1.9l5.8,5.8l1.9,9.6v3.8l-1.9,5.8l-3.8,3.8l-1.9,3.8v3.8l5.8,1.9l5.8,3.8l7.7,7.7l7.7,5.8l9.6,3.8l11.6,3.8
				l11.6,1.9h15.4l5.8,7.7l7.7,5.8l5.8,1.9l9.6-1.9l9.6-3.8l9.6-1.9l13.5-3.8h28.9l7.7-5.8l1.9-7.7l-1.9-9.6l-3.8-7.7l-3.8-9.6
				v-13.5l-1.9-11.6l-1.9-11.6v-15.4l-1.9-15.4v-15.4l-1.9-15.4l-1.9-17.3l-1.9-9.6v-11.5l1.9-7.7l5.8-5.8l13.5-17.3l11.6-13.5
				l23.1-27l9.6-11.5l7.7-5.8l7.7-3.8h7.7l9.6,1.9l7.7,1.9l9.6,1.9l7.7,1.9h21.2l7.7-1.9l9.6-1.9l13.5-3.8l13.5-3.8l13.5-1.9
				l15.4-1.9h17.3l11.6-1.9l7.8-1.9l9.6-3.8l11.6-5.8l15.4-7.7l11.6-3.8l12.2-1.9h16.7l5.8,1.9l7.7,3.8l11.6,5.8l15.4,5.8l10.6,5.7
				l4.8,4l1.9,3.8l1.9,11.5l3.8,17.3l3.8,17.3l3.8,13.5l3.8,13.5l3.8,13.5l5.8,13.5l7.7,15.4l7.7,11.6l3.8,5.8l3.8,3.9h5.8l5.8-3.8
				l3.8-3.8l1.9-5.8v-3.9l3.8-5.8l3.8-3.8l5.8-3.8l3.8-1.9l3.8,1.9l1.9,3.8l3.8,5.8l5.8,9.6l3.8,7.7l3.8,5.8l3.8,1.9h3.8l1.9-3.8
				l1.9-5.8l3.8-5.8l7.7-7.7l5.8-3.8l5.8-1.9h5.8l7.7,3.8l9.6,5.8l7.7,3.8l5.8,5.8l9.6,3.8l9.6,1.9l11.6,1.9l15.4,5.8l9.6,7.7
				l3.8,5.8l11.6,15.4l5.8,9.6l7.7,9.6l5.8,9.6l5.8,9.6l9.6,9.6l11.6,7.7l15.4,9.6l17.3,7.7l13.5,3.8l15.4,3.8l7.7,5.8l7.7,11.6
				l5.8,9.6l7.7,11.6l5.8,9.6l3.9,3.8l5.8,3.8l7.7,3.8l5.8,5.8l5.8,3.8l3.9-1.9l5.8-5.8l3.9-3.8l1.9,5.8l3.9,1.9h5.8l3.9,3.8
				l5.7,3.9h5.8v-13.5l3.9-3.8l5.8-5.8l3.9-5.8l-3.9-1.9l-5.8-7.7l-3.9-11.6v-11.6l1.9-13.5l7.7-11.6v-13.5l-1.9-9.6l-3.9-11.6v-9.7
				l5.8-7.7l9.6-5.8l7.7-1.9h5.8l7.7,1.9l5.8,7.7l5.8,7.7l7.7,5.8l9.6-1.9l3.9,1.9l3.9-1.9l-1.9-5.8l-1.9-3.8v-19.3l-3.9-7.7v-5.8
				l5.8-3.8l9.6-1.9h7.7l3.9,5.8l5.8,3.8l3.9,5.8l3.9,3.8l7.7,5.8l7.7,5.8l7.7,5.8l5.8,5.8l9.6,7.7l7.7,5.8l7.7,1.9l5.8,1.9l1.9,3.8
				h7.7l3.9,3.8l3.9,1.9l3.9,1.9l3.9,3.8l-7.7,1.9l-1.9,1.9l3.9,1.9h5.8l3.9,1.9l3.9,5.8l-1.9,1.9l-1.9,3.8l-1.9,3.9l-1.9,3.8v3.8
				l-3.9,1.9l1.9,3.8l-1.9,3.8l-1.9,3.8l-3.9,1.9v3.8l-3.9,3.8l-5.8,1.9l-3.9,3.8l-5.8,1.9l-1.9,1.9l-5.8,1.9l-3.9,1.9v5.8l-1.9,7.7
				v7.7l1.9,5.8l1.9,1.9l3.9,3.8l5.8,3.8l3.9,1.9h3.8v3.8l-1.9,3.8l3.9,1.9l3.9,3.8l3.9,3.8l1.9,5.8l3.9,5.8l5.8,3.8l5.8,3.8
				l5.8,1.9l5.8-1.9h5.8l3.9-1.9h17.3l3.9-1.9l1.9-3.8v-3.8l3.9-1.9l1.9,1.9v3.8l-1.9,1.9l1.9,1.9h3.9l1.9,1.9l-1.9,1.9l1.9,1.9
				l1.9,1.9l-3.9,1.9l-1.9,3.9l-1.9,1.9v3.8l-5.8,1.9l-1.9,1.9l-5.8,1.9l-3.9,3.8h-3.9l-3.9-3.8l-3.9-3.8l-1.9,3.8v3.8l1.9,3.8
				l1.9,1.9l-1.9,3.8h-1.9l-3.9-1.9l-3.9,3.8v3.8l-1.9,1.9l-3.9,3.8v1.9l-1.9,5.8l-1.9,3.8l-1.9,5.8l-3.9,1.9v9.6l-1.9,1.9l-1.9,3.8
				l-1.9,5.8v3.8l1.9,3.8l-5.8,1.9l-1.9,1.9l1.9,3.8l-1.9,1.9l-1.9,3.8v5.8l-3.9,5.8l3.9,1.9l-1.9,1.9l3.9,1.9l1.9,3.8l-3.9,1.9
				l1.9,3.8l-3.9,1.9l-1.9,1.9l1.9,1.9l-5.8,3.8v3.8l-1.9,3.8l-1.9,5.8l-3.9,1.9v3.8l-5.8,1.9l-1.9,5.8l1.9,5.8l-3.9,5.8l-1.9,3.8
				l3.9,1.9v5.8l-3.9,3.8l-1.9,3.8l1.9,5.8l3.9,5.8l5.8,5.8l3.9,1.9l5.8-1.9l3.9-1.9l3.9,1.9l1.9,3.8l-1.9,3.9v7.7l-1.9,5.8
				l-5.8,1.9l-1.9,5.8l-3.9,3.8l-5.8,1.9h-7.7l-3.9-3.8l-3.9-3.8v-3.8l1.9-3.8h3.9v-3.8l-3.9-1.9l-3.9-3.8l-3.9,1.9l-1.9,1.9
				l-3.9-1.9l-1.9-3.8l-1.9-5.8l-1.9-3.8l1.4-2.4l-1.4-3.4l-3.9-1.9h-5.8l-3.9-3.8l-1.9-3.8v-3.8l-3.9-3.8l-1.9-3.8l-5.8-1.9
				l1.9,3.8l3.9,3.8l1.9,5.8l1.9,1.9v5.8l-3.9,3.8h3.9l3.2,1.4l0.7,6.3l1.9,1.9l-3.9,3.9v3.8l1.9,1.9v5.8l1.9,3.8v5.8l3.9,3.8
				l5.8,3.8h5.8l1.9,1.9l1.9,5.8l1.9,1.9l1.9,3.8l-1.9,3.8l1.9,1.9l1.9-1.9l3.9-1.9l1.9,3.8l5.8,1.9v1.9l-1.9,3.8l-1.9,3.8l1.9,3.8
				l3.9-5.8l5.8-1.9h5.8l3.9,5.7l3.9,3.8l5.8,1.9l3.9,1.9l5.8-3.8l5.8-3.8l1.9-5.8l5.8-5.8l7.7-3.8l5.8-5.8l11.6-1.9h7.7l1.9-7.7
				l3.9-5.8h7.7l7.7-1.9l5.8-3.8l3.9-3.8l0,0l5.8-3.8l3.9-3.8l5.8-1.9h5.8l3.9-1.9l3.9-1.9l1.9-3.8l3.9-3.8h1.9l5.8-3.8l3.9-5.8
				l3.9-5.8l3.9-1.9h9.6l3.9,1.9l1.9,1.9l3.9,3.8l1.9,1.9h3.9l3.9,1.9l1.9,1.9l1.9,1.9l1.9,3.8l1.9,1.9l1.9,3.8l1.9,3.8l1.9,1.9
				l1.9,3.8l1.9,1.9l1.9,3.8v11.6l3.9,1.9l1.9,1.9l1.9,1.9l3.9,1.9l1.9,1.9l1.9,1.9l1.9,1.9v7.7l-1.9,1.9l-1.9,1.9l1.9,3.8l3.9,1.9
				v9.6l-1.9,1.9l-1.9,3.8v3.8l-1.9,1.9l1.9,1.9l3.9,1.9v1.9l-3.9,3.8l-1.9,3.8l-1.9,3.8v1.9l1.9-1.9l3.9-3.8l1.9-1.9l3.9-1.9h25
				l5.8-1.9h17.3l3.9-3.8l3.9-3.9l3.9-1.9h1.9l1.9-5.8V1551l1.9-3.8l-1.9-3.8l-1.9-5.8l1.9-3.8v-11.6l-1.9-7.7v-3.8l1.9-3.8v-3.8
				l1.9-1.9l9.6-1.9l1.9-1.9l5.8-3.8h3.9l3.9-3.8l3.9,1.9h5.8l3.9,3.8l1.9,1.9l3.9,1.9l5.9,2l3.9,3.8l1.9,5.8h1.9l3.9,3.8v3.8
				l1.9,5.8l3.9,3.8v3.8l1.9,3.8l3.9,1.9v3.8l1.9,5.8l3.9,3.8l1.9,3.8h5.8l3.9,1.9l5.8,1.9l7.7,3.8h7.7l3.9,1.9l3.9,1.9l1.9,3.8h3.8
				l3.9,1.9l3.9,3.8l-1.9,1.9l-3.9,1.9l-5.8,1.9l-3.9,1.9l-3.9,1.9l-5.8,1.9h-5.8l-3.9,1.9l-3.9-3.8h-1.9l-1.9,3.8l-1.9,1.9
				l-3.9-1.9l-1.9-1.9l-3.9,1.9h-3.8l-1.9,3.8v13.5l1.9,9.6v5.8l1.9,3.8v1.9l1.9,5.8v3.8l3.9,3.8v11.6l-1.9,3.8v9.6l1.9,3.8l1.9,3.8
				l1.9,1.9h3.9l1.9,3.8l5.8,1.9l3.9,1.9l1.9,1.9l-1.9,3.8l5.8,1.9l1.9,1.9v3.8l1.9,1.9l1.9,3.9l-5.8,1.9l-3.9,3.8l-3.9,3.3v6.4
				l-3.9,3.8v5.8l-1.9,5.8l-1.7,3.5"/>
			<polygon id="Pre1900_Kettle_Is." class="st114" points="1098,1038.3 1101.9,1034.4 1105.3,1036.4 1105.3,1041.3 1109.6,1042.2 
				1111.5,1046 1109.6,1049.9 1109.6,1053.7 1107.6,1055.6 1104.8,1061.6 1099.9,1059.5 1096.1,1059.5 1093.2,1061.6 1090.3,1061.4 
				1092.2,1057.6 1096.1,1055.6 1096.1,1051.8 1093.7,1048 1094.2,1044.1 1096.1,1042.2 			"/>
		</g>
		<g id="Pre1900_Kln">
			<path id="Pre1900_KLN-2" class="st113" d="M3854,1524.1h-11.6l-9.6-1.9l-7.7-3.8l-5.8-1.9l-5.8-3.8l-7.7-3.8l-5.8-5.8l-3.9-3.8
				l-3.9-3.8h-7.7l-3.9-1.9l-1.9-2.5v-5.2l-1.9-5.8l-5.8-7.7l-7.7-3.8l-5.8-1.9h-3.9l-3.9,1.9l-3.9,3.8l-1.9,1.9l-1.9,3.8v13.5
				l-1.9,1.9l-3.9,3.8h-1.9v3.9l1.9,1.9l1.9,3.8l1.9,1.9l-1.9,1.9l1.9,3.8l1.9,3.8v3.8l1.9,5.8l-1.9,5.8l3.9,1.9l1.9,5.8v9.6
				l-1.9,5.8l-1.9,3.8l1.9,5.8l1.9,5.8l5.8,4.1v3.6l-3.9,5.8l-5.8,7.7l-5.8,7.7l-3.9,5.8l-5.8,5.8l-5.8,1.9l-7.7,1.9h-7.7l-3.9-1.9
				l-3.9-3.8l-5.8-1.9l-3.9-3.8h-7.7l-3.9-1.9l-3.9-1.9h-7.7l-3.9-1.9v-3.8l1.9-3.8l1.9-3.8l3.9-4.3v-5.3l-1.9-5.8l-3.9-5.8
				l-7.7-5.8l-3.9-5.4v-6.1l-3.9-5.8l-1.9-5.8l-5.8-5.8l-3.9-5.8l-1.9-3.8l-3.9-5.8l-3.9-7.7l-3.9-7.7l-5.8-3.8l-5.8-3.8l-5.8-3.8
				l-7.7-3.9l-5.8-1.9l-7.7-1.9h-7.7l-5.8,1.9l-7.7-1.9l-5.8-1.9l-3.9-3.8l-3.9-3.8h-5.8l-5.8-1.9l-5.8-1.9l-5.8-3.8l-5.8-3.8
				l-9.6-6.3l-1.9-5.3v-5.8l1.9-3.8l-1.9-3.8l1.9-5.3v-6.2l-1.9-5.8v-3.8l1.9-6v-13.3l-5.8-7.7l-7.7-3.8l-7.7-1.9h-5.8l-5.8,1.9
				l-5.8,3.8h-5.8l-7.7-3.8l-7.7-5.8l-9.6-1.9h-30.8l-13.5,1.9l-17.3-1.9l-3.9-1.9l-3.9-3.8l-5.8-3.8h-5.8l-7.7-3.8l-3.9-5.8h-3.9
				l-5.8-1.9l-5.8-1.9l-1.9,1.9h-3.9l-3.9,1.9l-3.9,3.9v3.8l-1.9,5.8l1.9,5.8l1.9,3.8l3.9,3.8v5.8l3.9,3.8l3.9,5.8l1.9,7.7l3.9,5.8
				l1.9,5.8l-1.9,3.8l-1.9,5.8l-5.8,3.8h-5.8l-7.7,1.9l-7.7-0.2l-3.9-1.7l-3.9,1.9l-3.9,1.9l-1.9,5.8l-1.9,5.8l-5.8,5.8l-3.9,5.8
				v3.8l-3.9,5.8l-3.9,3.8l-3.9,5.8v13.5l1.9,5.8l3.9,3.8l3.9,1.9l3.9,3.8v5.8l-3.9,5.8l-2.6,1.9h-5.1l-3.9-1.9l-3.9-1.9l-1.9-1.9
				l1.9-3.8l3.9-1.9v-3.8l-1.9-7.7l-1.9-9.6l-7.7-5.8l-5.8-1.9l-9.6-3.8l-5.8-3.8l-5.8-3.8l-1.9-5.8l-3.9-3.8l-3.9-5.8l-3.9-7.7
				l-3.9-5.8l-1.9-5.8l1.9-5.8v-17.3l-1.9-5.8l-1.9-5.8l1.9-7.7l1.9-7.7l1.9-9.6v-5.8l1.9-3.8l5.8-1.9v-21.2l-3.9-9.6l-3.9-9.6
				l-5.8-11.6l-3.9-13.5l-3.9-3.8l-1.9-5.8v-5.8l1.9-3.8v-7.7l1.9-5.8l3.9-7.7v-21.2l1.9-7.7l1.9-5.8v-5.8l3.9-5.8v-5.8l3.9-7.7
				l1.9-3.8l5.8-1.9l3.9-3.8l3.9-1.9h9.6l3.9,1.9l3.9,1.9h5.8l1.9-3.8l3.9-3.8l3.9-5.8l5.8-5.8l-3.9-1.9v-1.9h3.9l3.9-1.9l3.9-1.9
				l3.9-1.9l3.9-1.9l3.9-1.9l1.9-3.8l3.9-3.8l3.9-5.8l1.9-3.9l1.9-5.8l1.9-5.8l-1.9-3.8v-3.8h-3.9l-5.8-1.9l-1.9-0.7v-3.2l-3.9,1.9
				l-3.3,3.8h-2.5l-1.9-3.8v-1.9l1.9-3.8l-3.9-3.8l-1.9-5.8v-3.8l3.9-3.8l1.9-3.8v-3.8l-3.9-7.7l-1.9-5.8l-3.9-5.8l-3.9-5.8
				l-5.8-7.7l-3.9-3.8l-3.9-3.8l-3.9-1.9l-3.9-1.9h-3.9l-3.9,1.9h-3.9l-1.9-1.9l-1.9-3.8h-5.8l-1.9,3.8v1.9l-1.9,1.9l-3.9,1.9h-3.9
				l-5.8,1.9h-11.6l-2.5,1.9h-5.2l-1.9-1.9l-1.9-3.8l-3.9-5.8l-1.9-3.8v-3.8l-1.9-3.8l1.9-3.8v-7.7l-1.9-3.8l-1.9-3.8v-7.7l1.9-3.8
				l1.9-3.8l3.9-3.8l5.8-3.8l3.9-3.8l1.9-5.8v-11.6l1.9-7.7l1.9-5.8v-9.6l1.9-5.7l1.9-3.8l5.8-3.8l5.8-3.8l5.8-5.8l3.9-3.8l1.9-7.7
				l1.9-7.7l1.9-6.8v-6.7l-1.9-5.8l-1.9-5.8l-1.9-5.8v-5.8l-5.8-3.8v-3.8l1.9-3.8l-1.9-1.9l-6.7-1l-5.8-3.8l-8.7-6.7h-5.8l-5.8-1
				l-3.9,1l-3.9,1.9h-3.9l-3.9-1.9l-1.9-1.9l-1.9-1.9V829l1.9-3.8v-5.8l1.9-7.7V806l1.9-1.9l3.9-5.8l3.9-5.8l3.9-5.8v-21.2l1.9-3.8
				v-3.8l-1.9-6.4v-12.8h-1.9l-1.9,1.9l-3.9-1.9l-3.9-3.8l-3.9-3.8l-3.9-3.8l-3.9-3.8l-5.8-3.8l-3.9-3.8l-3.9-1.9l-1.9-1.9l-1.9-1.9
				l-1.9-1.9l-1.9,1.9v9.6l-3.9,1.9H3132l-3.9,1.9l-1.9-1.9l-3.9-1.9h-5.8l-5.8-1.9h-3.8l-3.9,1.9l-3.9,1.9l-1.9-1.9l1.9-1.9
				l3.9-1.9l-1.9-1.9l-3.9-5.8l-3.9-5.8l-5.8-3.8l-3.9-1.9v-3.8l-3.9-3.8l-3.9-3.8v-3.8l1.9-1.9v-5.8l-1.9-9.6l-1.9-9.6v-13.5
				l-1.9-3.8l-1.9-3.8l-1.9-3.8l-1.9-5.8l-3.9-5.8l-3.9-3.8l-1.9-3.8l1.9-5.8l1.9-5.8l-1.9-3.8l-1.9-5.8l-1.9-5.8v-3.8l1.9-3.8
				l1.9-5.8l-1.9-5.8l-1.9-1.9l-3.9-5.8l-5.8-7.7l-3.9-5.8l-3.9-3.9v-3.8h-1.9l-3.9-1.9l-3.9-5.8l-3.9-5.8l-1.9-1.9l-1.9-3.8
				l-3.9-5.8l-1.9-3.9l-3.9-3.9V496l-1.9-3.9l-5.8-1.9l-5.8-1.9l-5.8-1.9l-5.8,1.9l-3.9,1.9l-3.9,1.9h-5.8l-3.9,1.9l-1.9-1.9v-3.9
				l-3.9-3.9l-1.9-3.9l-1.9-1.9v-3.9l-3.9-3.9l-1.9-3.9l-3.9-3.9l-1.9-3.9l-1.9-3.9v-5.8l1.9-3.9v-7.7l-1.9-3.9v-5.8l-3.9-5.8
				l-1.9-3.9l1.9-3.9l1.9-3.9l1.9-3.9l1.9-3.9l3.9-1.9l5.8-3.9l5.8-1.9l3.9-1.9l5.8-3.9l1.9-3.9l1.9-7.7l1.9-7.7l1.9-7.7l1.9-5.8
				l3.9-3.9v-5.8l1.9-3.9l3.9-1.9l3.9-3.9v-3.9l3.9-5.8l5.8-5.8l3.9-1.9l3.9,1.9l5.8,1.9l3.9,3.9l3.9,1.9l3.9,1.9l3.9,3.9v-1.9
				l1.9-3.9h5.8l1.9-1.9l1.9-1.9l3.9-1.9l1.9-3.9V317l1.9-1.9l4.6-2.9l5-6.7l5.8-5.8l5.8-5.8l7.7-5.8l1.9-5v-6.6l-3.9-7.7l-3.9-5.3
				v-21.7l-5.7-3.9l-3.9-5.8l-3.9-5.8l-1.9-5.8l-1.9-3.9l-3.8-3.8h-3.9l-5.8-3.9l-3.9-3.9l-5.8-1.9l-5.8-1.9l-3.9-3.9l-3.9-1.9h-3.9
				l-3.9-3.9l-3.9-1.9l-1.9-5.8l-1.9-5.8l-3.9-3.9v-3.9l-3.9-5.1l-1.9-4.5l-3.9-3.9h-3.9l-3.9,1.9l-3.9,1.9l-1.9,3.9l-1.9,3.9v7.7
				l3.9,3.9l1.9,7.7v11.6l1.9,7.7l1.9,5.8l1.9,3.9v3.9l1.9,1.9h5.8l1.9,2.2v3.6l-1.9,5.8l-1.9,3.9l-1.9,3.9l-1.9,1.9l-1.9,1.9v3.9
				l-3.9,1.9h-3.9l-3.9-1.9h-3.9l-3.9,1.9l-3.9,1.9l-3.9,1.9l-5.8,1.9h-5.8l-5.8-1.9l-5.8-1.9h-5.8l-5.8-1.9l-5.8-3.9l-5.8-1.9
				l-5.8-2.5V240l-5.8-5.8l-5.8-5.8l-3.9-5.8l-3.9-7.7l-1.9-7.8v-48l-1.9-7.7l-5.8-7.7l-7.7-5.8l-5.8-3.9l-5.8-5.8l-5.8-7.7
				l-3.9-5.8l-4.1-5.1h-4.4l-5,1.3l-5.7-2.1v-3.8l-3.9-5.8l-1.9-5.8l-1.9-5.8l-1.9-7.7l-2-5.7l-3.9-7.7l-5.8-3.9l-7.7-1.9h-7.7
				l-3.9-3.8l-1.9-3.8l-5.8-5.8l-3.9-3.8l-5.8-3.8l-5.8-1.9h-15.4l-3.9-1.9L2745,32l-5.8-1.9h-5.8l-3.8,1.9l-5.8,3.8l-5.8,1.9
				l-5.8,3.8l-5.8,3.8l-5.8,1.9l-5.8,2l-5.8,1.9h-5.8l-1.9,3.8V59l-3.9,1.9l-3.9-1.9l-5.8-3.9l-1.9-3.8l-5.8-1.9l-3.9-3.8l-1.9,1.9
				v5.8l-3.9,3.8l-3.8,2l-3.9,3.8l-5.8,1.9l-3.9,3.8l-1.9,3.8l-5.8,1.9l-7.7,1.9l-1.9,3.8V84l3.9,1.9h21.2l3.9,1.9l3.9,3.8v11.6
				l-1.9,3.8l-2.3,2h3.2l2.9,1.9v1.9l-1.9,3.8l-1.9,7.7h3.9l3.9,1.9l3.9,1.9h3.9l1.9-3.8l3.9-3.8l1.9-3.8l1.9-1.9h7.7l1.9,1.9
				l1.9,1.9l1.9,1.9v1.9l1.9,3.8l1.9,3.9l1.9,3.9l3.9,3.9l3.9,1.9l3.9,1.9h5.8l5.8,1.9l7.7,3.9l7.7,1.9h7.7l7.7,1.9l5.8,3.9l1.9,5.8
				l3.9,1.9l3.9,1.9l3.9,3.9l1.9,3.9V188l1.9,5.8l1.9,5.8l1.9,5.8v11.6l1.9,7.7v5.8l1.9,5.8l1.9,7.7v3.9l-3.9,3.9l-1.9,3.9v5.8
				l1.9,3.9l3.9,5.8l1.9,5.8v11.6l3.9,3.9h9.6l3.9,1.9l1.1,4.2v14.1l-1.1,6.7l-1.9,5.8l-3.9,1.9h-7.7l-1.9,1.9v19.3l-3.9,4v5.6
				l-5.8,7.7l-3.9,7.7l-3.9,9.6l-3.9,5.8l-3.9,5.8l-3.9,5.8l-3.9,6v5.5l-1.9,3.9l-1.9,5.8l-1.9,5.8l-1.9,7v6.5l-3.9,3.9l-5.8,5.8
				l-1.9,3.9l-1.9,5.8l-3.9,5.8l-5.8,3.9l-7.7,5.8l-9.6,5.8l-7.7,5.8l-5.8,3.9l-5.8,3.9l-5.8,3.9l-5.8,1.9l-5.8,3.9l-5.8,3.9
				l-3.9,1.9v3.9l-1.9,3.8h-3.9v8.2l-3.9,9.1l-7.7,3.8l-7.7,7.7l-5.8,7.7l1.9,5.8l3.9,3.8v3.8h8.4l7-1.9l9.6-3.8l9.6,1.9l7.7-1.9
				l3.9-5.8h7.7l3.9,1.9v7.1l-1.9,8.3l-1.9,11.5l-1.9,7.7l1.9,11.5l-1.9,9.6l7.7,7.7h2.8l6.8,3.8h11.6l3.9,3.8h5.8l5.8,1.9l5.8,3.8
				l1.9,5.8l-1.9,7.7l-1.9,7.7l-1.9,5.8l-5.8,5.8l-0.8,7.7l0.8,9.7v5.8l1.9,11.5v7.7l-1.9,9.6v9.6l1.9,9.6l-1.9,5.8l-5.8,1.9h-7.7
				l-5.8-1.9l-3.9,1.9h-6l-5.5,5.8l-3.9,13.5l-1.9,5.8l-5.8,5.8l-7.8,1.9l-5.8,1.9l-5.8,5.8l-3.9,7.7l-1.9,9.6l-3.9,5.8l-3.9,1.9
				h-6.8l-2.9,9.6l-7.7,7.7l-5.8,7.7l-7.7,5.8l-5.8,5.8l-3.9,5.8l-5.6,5.8l-4,1.9l-1.9-1.9l-3.9,5.8l-5.8,5.8l-5.8,1.9h-7.7
				l-1.9,1.9l-5.8,3.8l-1.9,1.9v6.8l-1.9,4.8l-5.8,3.8h-3.9l-1.9,1.9l1.9,9.6l-3.9,9.6l-3.9,3.8l-5.8,1.9l-3.9,3.8l-3.9,3.8
				l-7.7,1.9l-5.8,1.9l-5.8,3.8l-1.9,3.8l3.9,3.8l1.9,3.8l-3.9,3.8l-3.9,5.8l-3.9,7.7l-3.9,7.7l-5.8,5.8l-3.9,7.7l-5.8,5.8l-3.9,7.7
				l-3.9,7.7l-5.8,7.7l-3.9,3.8l-7.7-1.9h-13.5l-5.8-3.8l-7.7-1.9l-5.8-3.9h-7.7l-3.9-3.8l-3.9-1.9v-3.8h-1.9l-1.9,1.9v3.8h-1.9
				l-3.9-3.8h-1.9l-1.9,1.9l-1.9,3.8h-3.9l-1.9-1.9l-1.9-3.8l-7.7-7.7h-5.8l-1.9-3.8l-1.9-1.9l-5.8-1.9l-3.9-3.8l-7.7-5.8h-3.9
				l-5.8-5.8h-3.8l-3.9-3.8l-3.9-3.8h-5.8l-3.9,1.9h-3.9l-1.9-3.8l1.9-3.8l1.9-3.8v-3.8l3.9-3.8l3.9-3.8l5.8-5.8V933l1.9-1.9h3.9
				l1.9-1.9l1.9-1.9l-3.9-1.9l-2-1.9l1.9-1.9l3.9-3.8l3.9-1.9l1.9-5.8l1.9-3.8l3.9-5.8l3.9-3.8l1.9-3.8v-13.5l1.9-5.8l1.4-1.4
				l2.4-2.4l3.9-3.8l3.9-7.7l1.9-3.8v-13.5l-7.7-1.9l-7.7,5.8l-5.8,5.8l-9.6-1.9l-9.6,1.9l-7.7,3.8l-6.1,5.8l-5.5,4.5
				c0,0-9.6-2.6-5.8-0.7s-5.9-3.8-5.9-3.8v-3.6l-5.6-2.2l-5.8-7.7l-7.7-3.8v-11.5l-1.9-4l-9.6-1.9l-9.6-3.8l-5.8-5.8l-5.8-3.8
				l-5.8-5.8l-3.8-1.9l-1.9-3.8l1.9-3.9l1.9-3.8v-1.9h-9.6l-1.9-1.9l3.9-3.8l3.9-3.8h3.9l3.9-3.8h3.9l1.9,1.9h3.9l3.9,3.8l3.9,3.8
				l7.7,1.9h3.9l5.8-1.9l1.9-1.9l-1.9-5.8l-1.9-5.8l-1.9-5.8v-3.8h3.9l1.9,1.9l3.9,1.9l5.8-1.9h7.7l3.9,1.9l1.9,3.8l3.9,1.9h3.9
				l3.3-3.8l4.4-1.9h5.8l5.8,1.9l3.9-1.9v-3.8l-1.9-3.8l-1.9-5.8l-5.8-7.7l-5.8-13.5l-1.9-5.8v-3.8l1.9-7.7l5.8-5.8l5.8-5.8l3.9-5.8
				l3.9-3.8l3.9-1.9l1.9-1.9h-5.8l-3.9,1.9h-3.9l-1.9-1.9l-1.9-1.9l-3.9,1.9h-3.9l-3.9,1.9l-5.8,1.9h-5.8l-5.8,1.9l-1.9,1.9
				l-1.9-1.9l-5.8,1.9l-3.9,3.8l-3.9,1.9l-7.7,1.9h-21.2l-11.6,1.9l-5.8-1.9h-19.3l-9.6-1.9l-5.8-3.8l-9.6-1.9l-5.8-1.9l-9.6,3.8
				h-5.8l-5.8-5.8l-5.8-3.8l-7.7-5.8l-7.7-1.9l-3.7-7.7l-2-3.8l-5.8-7.7l-1.9-9.6v-6.2l-11.6-15l-11.6-13.5l-3.9-5.8v-3.8l1.9-5.8
				v-25l-3.9-21.2l-3.9-7.7l-5.8-5.8l-1.9-7.7v-12.3l3.9-5l5.8-5.8l7.7-3.9h9.6l3.9-1.9l3.9-5.8l3.9-7.7l3.9-5.8v-7.7l1.9-3.9
				l1.9-5.8l-3.9-5.8l-1.9-1.9l-1.9-3.9l3.9-1.9h5.1l4.5-1.9v-5.8l1.9-3.9l11.5-2l13.5-3.9l1.9-7.7l5.8-9.6l11.6-7.7l11.6-5.8
				l3.9-5.8h-14.7l-8.4-3.9l-11.6,1.9l-16.6-1.9l-14.1-3.9l-7.7-3.9l-5.8,3.9h-5.8l-3.9-5.8l-5.8-3.9l-5.8-1.9l-7.7-1.9l-3.9-1.9
				l-1.9-5.7l-3.9-4l-1.9-5.8l-3.9-5.8l-3.9-3.9l-1.9-5.8l-1.9-3.9l-3.9-5.8l-3.9-3.9l-3.9-1.9l-3.9,1.9l-1.9,3.9h-3.9l-1.9,1.9
				l-3.9-1.9v-8.5l-1.9,0.8l-1.9,3.9l-1.9,5.8v15.4l-1.9,1.9h-3.8l-3.8-3.9h-5.8l-1.9-3.9l-5.8-3.9v-4.9l-5.8-6.6l-3.8-5.8l-5.8-5.8
				l-3.8-1.9c0,0-9.6-3.9-7.7-3.9h-7.4l-6,2h-9.6l-3.3-1.9l-2.4-1.9h-4.5l-5.1,1.9h-2l-1.9-3.9h-3.3l-2.5-1.9l-5.1-1l-2.6-2.9h-5.2
				l-8.3-3.9h-6.6l-8.8-3.9l-5.8-1.9l-5.8-5.8l-5.8-5.8l-7.7-5.8l-3.9-3.9l-5.8-1.9l-3.8-1.9l-3.8-3.9l-1.9-1.9h-5.8l-3.8-3.9
				l-5.8-3.9l-3.8-3.9l-3.8-7.7l-1.9-7.7l-1.9-3.9l-1.9-5.8l-1.9-9.6l-3.8-9.6l-1.9-7.7l-3.8-3.9l-1.9-1.9v-1.9l3.8-1.9l5.8-1.9
				l5.8-1.9l7.7-1.9l5.8-7.7l3.8-3.9v-19.2l1.9-3.9h5l4.6-5.8l5.8-7.7l1.9-9.6l5.8-5.8l-5.8-7.7l-1.9-3.8l-3.8,1.9l-3.8-3.8
				l-5.8-3.8l-7.7-1.9l-5.8-5.8v-7.7l-1.9-5.8v-5.8l-5.8-5.8l-3.8-5.8l-7.7-11.5l-9.6-7.7l-7.7-5.8v-3.8l-3.8-2v-2.3l3.8-3.3h-6.7
				l-4.8-3.9l-5.8-5.8l-3.8-7.7l-1.9-5.8l-7.7-3.9l-11.6-5.8l-9.6-3.8l-3.8-1.9l-5.8-9.6l-3.9-5.8l-7.7-5.8l-5.8,1.9l-1.8-1.9
				l3.7-3.9v-7.7l1.9-5.8l3.8-3.8l-1.9-1.9l-3.8-1.9l-1.9-3.8v-1.9l-7.7-1.9l-7.7-3.8l-5.8-3.9l-1.9-7.7v-6l5.8-5.6l1.9-3.8
				l-7.7-7.4h-3.1l-4.6,1.8l-2.9,0.8l-1.6-2.5l6.4-4.1v-3.8l-6.4,1.6l-7.1,0.2l-11.6-7.7l-13.5-11.5l-1.9-1.9l-5.8,1.9l-7.7-5.8
				l-1.9,3.8h-2l-5.8-3.8l-5.8-5.8l-5.8-3.9l-5.8-7.7h-76.6l-12,1.9l-21.2,3.9l-15.4,5.8l-9.6,5.8c0,0-11.6,7.7-13.5,9.6l-11.6,11.6
				l-15.4,17.3L1422.4-70l-17.3,21.2l-9.6,11.5l-11.6,7.7l-7.7,7.7l-17.3,15.4l-7.7,9.6v11l-1.9,14l-3.8,7.7l-7.7,9.6l-9.6,5.8
				l-7.7,7.7l-3.8,5.8V90l-3.8,11.4l-8.3,3.3l-11-3.3l-1.9-7.7l-3.8-7.7l-1.9,5.8l-1.9,9.6l-9.6,7.7l-1.9,15.4l1.9,15.4l5.8,7.7
				l13.5,5.8l15.4,7.7l15.4,9.6l5.8,9.6l5.8,5.8l3.8,5.8v13.5l-1.9,11.6l-7.7,11.6l-11.6,7.7l-9.6,3.9l-5.8,3.8l-3.8,3.9l-7.7,3.9
				l-9.6,3.9l-5.8-1.9h-5.8l-5.8,3.8l-7.7,5.8l-5.8,3.9l-7.7,3.9l-5.8,9.6l-5.8,9.6v12.3l-1.9,20.4V376l3.9,12.2l7.7,13.5l9.6,7.7
				l7.7,7.7l5.8,15.4v7.7l1.9,3.9l5.8,5.8l11.6,1.9h13.5l9.6,3.9l11.6,3.9l11.6,5.8l5.8,1.9l5.8,3.9l1.9-1.9l7.7,5.8v5.8l-3.8,5.8
				l-1.9,9.6l-5.8,7.7l-7.7,7.7l-5.8,13.5v17.3l-5.8,9.6v11.5l5.8,13.5l-1.9,9.6l1.9,7.7l-1.9,5.8l-5.8,1.9l-3.9-3.8l-7.7-5.8
				l-7.7-3.8l-3.8-1.9l-3.8-3.9l-3.8-7.7l-1.9-3.8h-3.8l-5.8-1.9l-5.8-3.8l-1.9-5.8v-7.7l-3.8-3.8l-7.7-3.8l-5.8-5.8l-3.8-3.8
				l-5.8-3.8l-7.7-1.9c0,0-5.8-1.9-5.8-3.8s-1.9-5.8-1.9-5.8v-7.2l-5.8-6.3l-3.8-5.8l-5.8-3.9l-3.8-5.8l-5.8-3.9l-5.8-1.9l-7.7-1.9
				l-9.6-3.9l-9.6-5.8c0,0-7.7-1.9-9.6-3.9c-2.4-2.1-5-4-7.7-5.8l-3.8-7.7l-1.9-1.9h-5.8l-3.8,1.9l-3.8,3.9l-9.6,3.9l-13.5,1.9
				l-17.3,3.9l-5.8,1.9l-3.8,1.9l-1.9,5.8v3.2l-3.8,2.6l-5.8,3.9l-5.8,3.9l-3.8,3.9l-3.9,5.8l-5.8,3.9l-7.7,9.6l-5.8,5.8l-3.8,9.6
				l-3.8,13.5l-3.8,15.4l-1.9,13.5l-3.9,19.3l-7.7,11.5l-3.8,5.8l-5.8,1.9l-5.8-3.8l-5.8-1.9l-3.8,3.8l-3.8,17.3l-5.8,19.3
				l-3.8,13.5l-5.8,13.5l-3.8,9.6l-3.8,13.5l-3.8,15.4l-1.9,13.5l-1.9,7.7l3.8,11.5l3.8,5.8v11.5l-3.8,9.6l-7.7,11.5l-9.6,9.6h-9.6
				l-3.8-5.8v-4.5l-7.7-7.1l-1.9-5.8l-3.8-9.6l-3.8-5.8h-13.5l-5.8,1.9h-25l-7.7,3.8l-9.6,1.9l-7.7,7.7l-1.9,7.7l-7.7,3.8l-1.9,7.7
				l-3.8,5.8h-3.8l-3.8-3.9v-5.2l-2-8.3l-1.9-5.8v-7.4l-1.9-4.1l-1.9-7.7l-3.8-7.7l-1.9-3.8l-1.9-7.7l-1.9-13.5l3.9-7.7v-17.3
				l-1.9-7.7l-3.8-7.7l-3.8-7.7v-18.7l-1.9-14l-1.9-11.6v-10.4l1.9-10.8l1.9-11.5l-1.9-7.7l-1.9-9.8l-3.8-5.6l-3.8-1.9l-7.7-1.9
				l-3.8-5.8l-1.9-3.8v-13.9l1.9-5.4l1.9-5.8l3.8-3.8l9.6-3.8l3.8-1.9l5.8-13.5l3.8-9.6l3.9-9.6l1.9-5.8l5.8-5.8l7.7-1.9l5.8-5.8
				l3.8-7.7l1.9-5.8v-15.5l1.9-5.8v-7.7l3.8-3.9v-9.6l-7.7-5.8l-7.7-7.7l-3.8-1.9l1.9-9.6l3.8-7.7l1.9-7.7v-3.9l-3.9-3.9l-1.9-9.6
				l-5.8-7.7l-1.9-5.8l-5.8-1.9l-1.9-1.9l-5.8-3.9v-5.8l-1.9-1.9l1.9-7.7l3.8-1.9l3.8-1.9l1.9-1.9v-5.8l-1.9-3.9v-5.8l-1.9-3.9
				l-1.9-5.8v-5.8l-3.8-5.8l-3.8-1.9l-5.8-3.9l-3.8-3.9v-21.2l-3.8-8.1v-2.5l-2-4.9l-1.9-7.7V186l-1.9-5.8v-5.8l3.8-3.9l3.8-5.8
				l5.8-11.6v-7.7l-1.9-5.8l1.9-5.8v-27l-7.6-5.8l-11.7-1.8l-13.5-3.8l-19.3-3.9L712,89.8l-13.5,1.9l-1.9,3.9v11.5l-1.9,7.7
				l-3.8,9.6l-1.9,9.6l-1.9,13.5l-2,13.5l-3.8,5.8l-9.6,7.7l-1.9,5.8l-1.9,9.6l-7.7,9.6l-7.7,7.7l-7.7-3.9l-7.7-11.6l-5.8-5.8
				l-3.8-5.8l-1.9-5.8l3.9-25l-1.9-17.3l5.8-19.3l3.8-5.8l3.4-3.8h4.3l5.8-1.9l4.7-0.9l4.9-1l3.8-1.9l1.9-1.9l3.8-3.8l-1.9-3.8
				l-3.9-3.8l-3.9-5.8l-1.9-7.7l-1.9-5.8l-3.8-1.9l-1.9-1.9h-3.8l-3.8-3.8l-1.9-3.8l-9.6-9.6L619.6,32l-1.9-3.9l1.9-3.9l-1.9-5.8
				l-5.8-3.9L600.3,7l-5.8-9.6l-1.9-9.6l3.8-3.9l9.6-1.9h9.6l7.7,3.9h9.6l9.6,3.9l7.7-9.6l7.7-11.5l-3.8-7.7l-0.3-11.5h-5.4
				l-7.7-7.7l-9.6-19.3l-7.7-21.2l-5.8-19.3l-1.9-13.7v-9.4l-1.9-9.6l-7.7-5.8l-11.5-11.6L583-174l-1.9-5.8l-5.8,1.9l-5.8-3.9
				l-3.8-1.9l-7.7-3.9l-1.9-5.8h-1.9l-3.8,3.9h-7.7l-5.8-5.8L533-203v-5.6l-5.8-5.8l-9.6-7.7l-9.6-7.7h-3.9l-7.7-5.8l-7.7-7.7
				l-5.8-1.9l-3.9-3.9l-5.8,1.9l-9.6-5.8l-15.4-3.8l-15.4-3.9l-15.4-1.9l-1.9-5.8l-9.6-3.9h-7.7c1.9,0-1.9-5.8-1.9-5.8l-1.9-1.9
				l-1.9,1.9l-1.9,3.9l-3.9-1.9h-5.8l-7.7,5.8l-7.7,3.9l-11.5,3.9l-11.5,3.9l-11.5,3.9l-9.6,5.8l-5.8,3.9l-5.8,1.9l-3.9,5.8
				l-5.8,3.8l-3.9,1.9l-1.9,5.7l-5.8,5.8l-9.6,3.9l-5.8,1.9l-1.9,5.8l-3.9,3.9l-3.9-1.6v-4.1l-3.9-1.9h-7.7l-5.8,1.9l-3.9,1.9
				l-1.9,3.9v3.9l3.9,1.9h3.8l2,11.6l-3.9,3.9l-5.8,0.7l-1.9,3.1l1.9,7.7l-1.9,9.6l-5.8,11.6l-2,3.9h-3.9l-3.8,3.8l-3.9-1.9l1.9-5.8
				l-1.9-9.6l-3.9-7.7l-5.8-5.8l-3.9-9.6l-7.7-7.8l-7.7-3.8l-5.8-5.8v-3.9l3.9-3.9l3.9-3.9l3.9-7.7l2-11.5l-3.9-7.7l-5.8-3.9
				l-5.8-3.9l-1.9-5.6v-7.9l-3.9-5.8l-5.8-5.8h-7.7l-5.8-3.8l-7.7-7.7H146l-1.9-3.9l-7.7-5.8l-5.8-5.8l-5.8-3.9l-1.9-7.4v-6
				l-5.8-3.9l-7.7,1.9c0,0-11.6,1.9-9.6,1.9H86.3l-5.8,1.9l-1.9,11.8v17.1l-5.8,5.8l3.8,7.6v9.8l-3.8,6.4v10.9l-1.9,3.9l-7.7,1.9
				l-5.8,5.8l-8,3.9H42l-3.8-3.9l-3.8-11.6l-9.6-3.9L11.2-251l-5.8-7.7l-3.8-10.6v-16.4l-10.3-1.9h-9l-5.8-3.9l-3.9-9.6l1.9-13.5
				l-3.9-1.9l-3.9-1.9l-3.8-7.7v-9.6l-1.9-5.8l-1.9-13.5l-3.8-3.9l-7.7-3.9l-3.8-1.9l-3.9-2l-2.9,1.9h-6.7l-7.7-1.9l-7.7-7.7
				l-2.2-3.8h-26.7l-3.8-1.9l-11.5-11.5l-7-5.8h-6.5l-7.7-3.9l-1.9-7.7l-1.9-7.7l-3.9-1.9v-7.7l3.9-13.5V-455l1.9-9.6l3.9-5.8
				l-1.9-5.8l-1.9-7.7l-3.9-3.9l3.9-5.8v-3.9l-5.8-5.8v-5.9l3.9-5.8l3.9-7.7v-9.6l1.9-7.7l5.8-13.5l1.9-13.5l-1.9-5.8l-5.8-3.8v-3.8
				l5.8-1.9h5.8l11.6-5.8l13.4-15.4l11.6-15.4l3.8-11.6l1.9-5.8l3.8-3.8l9.6-9.6l9.6-9.6l7.7-11.6l3.9-3.8v-11.5l3.8-7.7l3.8-3.8
				v-3.8l1.9-5.8l1.9-13.5l1.9-25v-11.5l1.9-9.6l3.8-1.9l3.8,1.9l3.8,1.9l1.9-1.9l3.9-7.7l1.9-7.7l1.9-5.8l3.9-1.9l1.9,1.9h3.9
				l-1.9-3.9v-19.3l3.9-5.8l3.9-3.8l3.8-1.9l-1.9-3.8H-8l-7.7,5.8l-5.8,7.7v9.6l-1.9,9.6l-7.7,9.6l-11.5,5.8l-11.5,5.8h-23.1
				l-9.7-3.9l-7.7-7.7l-5.8-5.8l-5.8-3.8h-15.4l-5.8,1.9l-5.8,5.8l-1.9,5.8l-3.9,3.8l-7.7,1.9l-7.7,1.9l-9.6,5.8l-7.7,7.7l-1.9,5.8
				l-7.7,1.9l-5.8,6.7l-5.8,8.7l-1.9,5.8l1.9,3.8l3.9,5.8l1.9,5.5v6.1l-1.9,5.8v7.7l-1.9,3.8h-3.9l-7.7-3.8l-9.6-5.8l-1.9-5.8
				l-1.9-9.6l-7.7-3.8l-11.6-3.8l-15.4-1.9l-13.5-1.9l-9.6,1.9l-9.6,3.8l-9.6,3.8l-9.6,1.9h-7.7l-3.9,1.9l-5.8,5.8l-3.9,9.6v7.7
				l1.9,9.6l1.9,9.6v3.8l-5.8,3.8l-7.7,1.9l-5.8,3.8l-5.8,3.8l-1.9,3.8l-5.8,1.9l-3.9-1.9l-1.9-3.8l-5.8-1.9l-5.8-1.9l-3.9-1.9v-5.8
				l-3.9-3.8l-1.9-7.7l-1.9-9.6l-7.7-9.6l-3.9-5.8l-3.9-7.7v-9.6l-3.9-7.7v-9.6l1.9-5.8l1.9-7.7l1.9-9.6v-7.7l-5.8-5.8l-7.7-5.8
				l-5.8-3.8l-5.7-1.9h-7.7l-5.8,1.9l-3.9,1.9l-4.1,3.8h-3.6l-3.9-5.8l-1.9-5.8l-3.9-5.8l-3.9-3.8l-3.9-1.9h-5.8l-1.9-1.9v-1.9
				l1.9-1.9l3.9-1.9l3.9-1.9h1.9l1.9,1.9l3.9,1.9l3.9,1.9h5.8l3.9,1.9l3.9-1.9l3.9-1.9l3.9-5.8v-3.8l3.9-5.8l3.9-5.8l3.9-1.9
				l-1.9-3.8l-1.9-3.8l1.9-3.8l3.9-1.9l5.8-3.8l3.9-5.8l1.9-5.8l3.9-5.8l7.7-5.8l7.7-5.8h9.6l7.7,1.9l3.9,3.8l1.9,3.8l5.8,3.8h5.8
				l3.9-5.8l1.9-7.7l3.9-5.8l7.7-1.9l7.7,1.9l7.7,5.8l5.8,1.9l3.9,3.8l3.9,5.8l5.8-1.9l5.8-3.8v-7.7l5.8-7.7l5.8-3.8l3.9-1.9
				l-1.9-3.8l-3.9-7.7l-1.9-7.7l3.9-5.8l5.8-5.8l8-1.9h5.4l5.8-3.8l3.9-5.8l-1.9-7.7l-9.6-7.7l-1.9-3.8l-7.7-3.8l-9.6-9.6l-9.6-7.7
				l-3.9-7.7l-5.8-9.6l-5.8-1.9l-9.6-1.9l-9-3.8l-8.3-1.9l-3.9-3.8l-5.8-5.8l-5.8-1.9l-5.8,1.9l-5.8,5.8l-7.7,3.8l-9.6,1.9l-7.7-1.9
				l-9.6-3.8l-5.8-5.8l-7.7-5.8l-3.9-1.9l-5.8-1.9l-3.9-1.9l1.9-7.7l1.9-5.8l3.9-7.7l3.9-7.7l5.8-11.6l1.9-11.6l1.9-1.9h7.7l5.8,1.9
				h15.4l1.9-5.8l3.9-5.8l1.9-5.8l-5.8-3.8l-7.7-1.9l-9.6-3.8l-11.5-7.7l-5.8-3.8h-11.5l-7.7-3.8l-9.6-9.6l-9.6-9.6l-7.7-5.8h-3.9
				l-3.9-5.8l-1.9-5.8l-1.9-5.8v-5.8l-1.9-6l-3.9-1.7l-1.9,1.9l1.9,3.8l1.9,5.8v5.8l-1.9,5.8l1.9,7.7l1.9,3.9l-3.9,1.9l-7.7,1.9
				h-3.9l-3.9,1.9l-3.9,3.8h-3.9l-3.9-1.9l-5.8-3.8l-5.8-3.8l-5.8-1.9l-5.8-1.9h-3.8l-1.9,3.3v6.4l-1.9,1.9l-3.8,1.9h-1.9v-3.8
				l1.9-3.8l1.9-5.8l-1.9-3.8h-7.7l-1.9-4.5v-3.2l-3.8-3.8h-3.8l-3.8,1.9l-5.8,3.8h-3.8l-3.8-1.9l-3.8-5.8l-1.9,5.8l-3.8,1.4v8.2
				l-1.9,7.7l-6.3,5.8h-5.3v7.7l-3.8,5.8l-7.7,3.8l-7.7,5.8l-7.7,3.8l-7.7,3.8l-5.8,1.9l-3.8,5.8l-5.8,3.8l-5.8,1.9l-5.8,1.9
				l-5.8,3.8l-5.8,3.8l-3.9,5.8l-3.8,5.8l-3.8,1.9l1.9,3.8l-3.8,5.8l-6.4,3.9h-5.2l-7.7,1.9l-5.8,3.8l-3.8,5.8v5.8l1.9,5.8l-5.1,3.8
				h-4.5l1.9,3.8l-1.9,3.8l-5.8,1.9"/>
			<path id="Pre1900_Stonecutter_Is." class="st114" d="M213.2,301.3l-5.8-5.8l-5.8-5.8l-3.9-9.6l-11.6-5.8l-3.9-5.8l-3.9-9.6
				l-5.8-11.6l-7.7-9.6l-3.9-3.9l-11.5-1.9h-4.4l-3.3-3.9l7.7-3.9l3.9-9.6l-5.8-9.7l1.9-1.9v-5.8l-1.9-3.9l-3.9-3.9l-5.8-3.9h-13
				l-4.3-5.7l-3.8-2h-4l-3.8-3.9l-1.9,1.9h-7.7l-5.8,5.8l-5.8,2l-3.9,5.8v18l-1.9-0.7l-1.9-5.8l-3.8-7.7l-3.8-1.9h-5.8l-1.9-3.9
				h-7.7l-3.8,3.9h-5.8l-3.9,5.8l-1.9,3.9l-7.8,1.9l-9.6,1.9l-9.6,1.9l-7.7,5.8l-1.9,3.9H-6.4l-5.8,7.7h-7.7l-7.7-5.8l-5.8-5.8
				l-1.9-5.8l-5.8-5.8l-1.9-5.8v-3.9l-3.9-3.9l1.9-3.9l-3.8-3.8v-7.2l1.9-4.4l-3.8-5.8h-4.9l1-3.9l1.9-3.9v-3.9l-3-2.4v-5.1l1-4.1
				l1.9,1.9c0.1,1.5,0.8,2.8,1.9,3.9c1,1.1,2.4,1.8,3.8,1.9l1.9,3.9l5.8,3.9v1.9l7.7-5.8l5.8-3.9l3.9-1.9l3.9-7.7l7.7-7.7l5.8-5.8
				H7.1l11.6-1.9l11.6-1.9H37l14.4-5.8l7.7-7.7l13.5-11.5c0,0,5.8-15.4,5.8-13.5s5.8-13.5,5.8-13.5v-7.7l3.9-5.8v-3.8h3.2
				c1.5,0.5,3,1.2,4.5,1.9h7.7l1.9,1.9l5.8-1.9l3.8,3.8h3.9l5.8,5.8l3.9,3.9v5.8l1.9,1.9l3.9,3.8l1.9,7.7l5.8,7.7V99h3.9l7.7,7.7
				l3.9,5.8l5.8,3.9l7.7,9.6l13.5,9.6l9.6,9.6l11.6,5.8l13.5,5.8l7.7,1.9h9.6l3.9,1.9h7.7l3.9-3.9l7.7-1.9h5.8l5.8-5.8l5.8-7.7
				l3.9-3.9V128l3.9-0.1l-3.9-3.8l-1.9-3.8h-5.8l1.9-1.9v-5.8l5.8,1.9l3.9-5.1v-6.1l1.9-4.2l5.8,1.9l1.9,1.9l7.7,1.9l7.7,3.8
				l5.8,7.7l1.9,5.8l5.8,5.8l3.9,5.8l3.9,7.7l-1.9,5.8v5.7l-5.8,1.9l-7.7,1.9l-7.7,1.9l-7.7,3.9l-5.8,3.9l-7.7,7.7l-9.6,9.6
				l-7.7,9.6l-7.7,7.7l-3.9,5.8l-3.9,7.7v5.8l1.9,7.7l-5.8,1.9l-5.8,3.9l-5.8,3.9l-5.8,7.7l-1.9,3.9v5.8l-1.9,3.9v17.3l-3.9,7.7
				l-3.9,5.8l-3.9,5.8l-1.9,3.9L213.2,301.3z"/>
		</g>
	</g>
</g>
</svg>
