<?xml version="1.0" encoding="utf-8"?>
<!-- Generator: Adobe Illustrator 23.0.3, SVG Export Plug-In . SVG Version: 6.00 Build 0)  -->
<svg width="1920" height="1080" version="1.1" id="_1945" xmlns="http://www.w3.org/2000/svg" xmlns:xlink="http://www.w3.org/1999/xlink" x="0px" y="0px"
	 viewBox="0 0 1920 1080" style="enable-background:new 0 0 1920 1080;" xml:space="preserve">
<style type="text/css">
	.st0{clip-path:url(#SVGID_2_);}
	.st1{fill:none;stroke:#FF8300;stroke-width:2.5;stroke-miterlimit:10;}
	.st2{fill:none;stroke:#FF8300;stroke-width:2.5;stroke-linecap:round;stroke-linejoin:round;}
	.st3{opacity:0.9;fill:none;stroke:#FF8300;stroke-width:2.5;stroke-miterlimit:10;enable-background:new    ;}
	.st4{opacity:0.9;}
	.st5{fill:none;stroke:#FF8300;stroke-width:2.5;stroke-linecap:round;stroke-linejoin:round;stroke-dasharray:8.08,8.08;}
	.st6{fill:none;stroke:#FF8300;stroke-width:2.5;stroke-linecap:round;stroke-linejoin:round;stroke-dasharray:8.23,8.23;}
	.st7{fill:none;stroke:#FF8300;stroke-width:2.5;stroke-linecap:round;stroke-linejoin:round;stroke-dasharray:8.02,8.02;}
	.st8{fill:none;stroke:#FF8300;stroke-width:2.5;stroke-linecap:round;stroke-linejoin:round;stroke-dasharray:8.15,8.15;}
	.st9{fill:none;stroke:#FF8300;stroke-width:2.5;stroke-linecap:round;stroke-linejoin:round;stroke-dasharray:7.91,7.91;}
	.st10{fill:none;stroke:#FF8300;stroke-width:2.5;stroke-linecap:round;stroke-linejoin:round;stroke-dasharray:6.51,6.51;}
	.st11{fill:none;stroke:#FF8300;stroke-width:2.5;stroke-linecap:round;stroke-linejoin:round;stroke-dasharray:7.05,7.05;}
	.st12{fill:none;stroke:#FF8300;stroke-width:2.5;stroke-linecap:round;stroke-linejoin:round;stroke-dasharray:8.11,8.11;}
	.st13{fill:none;stroke:#FF8300;stroke-width:2.5;stroke-linecap:round;stroke-linejoin:round;stroke-dasharray:8.18,8.18;}
	.st14{fill:none;stroke:#FF8300;stroke-width:2.5;stroke-linecap:round;stroke-linejoin:round;stroke-dasharray:7.8,7.8;}
	.st15{fill:none;stroke:#FF8300;stroke-width:2.5;stroke-linecap:round;stroke-linejoin:round;stroke-dasharray:7.86,7.86;}
	.st16{fill:none;stroke:#FF8300;stroke-width:2.5;stroke-linecap:round;stroke-linejoin:round;stroke-dasharray:8.57,8.57;}
	.st17{fill:none;stroke:#FF8300;stroke-width:2.5;stroke-linecap:round;stroke-linejoin:round;stroke-dasharray:7.62,7.62;}
	.st18{fill:none;stroke:#FF8300;stroke-width:2.5;stroke-linecap:round;stroke-linejoin:round;stroke-dasharray:8.83,8.83;}
	.st19{fill:none;stroke:#FF8300;stroke-width:2.5;stroke-linecap:round;stroke-linejoin:round;stroke-dasharray:8.41,8.41;}
	.st20{fill:none;stroke:#FF8300;stroke-width:2.5;stroke-linecap:round;stroke-linejoin:round;stroke-dasharray:7.51,7.51;}
	.st21{fill:none;stroke:#FF8300;stroke-width:2.5;stroke-linecap:round;stroke-linejoin:round;stroke-dasharray:7.75,7.75;}
	.st22{fill:none;stroke:#FF8300;stroke-width:2.5;stroke-linecap:round;stroke-linejoin:round;stroke-dasharray:7.93,7.93;}
	.st23{fill:none;stroke:#FF8300;stroke-width:2.5;stroke-linecap:round;stroke-linejoin:round;stroke-dasharray:7.96,7.96;}
	.st24{fill:none;stroke:#FF8300;stroke-width:2.5;stroke-linecap:round;stroke-linejoin:round;stroke-dasharray:7.69,7.69;}
	.st25{fill:none;stroke:#FF8300;stroke-width:2.5;stroke-linecap:round;stroke-linejoin:round;stroke-dasharray:8.9,8.9;}
	.st26{fill:none;stroke:#FF8300;stroke-width:2.5;stroke-linecap:round;stroke-linejoin:round;stroke-dasharray:8.17,8.17;}
	.st27{fill:none;stroke:#FF8300;stroke-width:2.5;stroke-linecap:round;stroke-linejoin:round;stroke-dasharray:8.27,8.27;}
	.st28{fill:none;stroke:#FF8300;stroke-width:2.5;stroke-linecap:round;stroke-linejoin:round;stroke-dasharray:4.61,4.61;}
	.st29{fill:none;stroke:#FF8300;stroke-width:2.5;stroke-linecap:round;stroke-linejoin:round;stroke-dasharray:8.09,8.09;}
	.st30{fill:none;stroke:#FF8300;stroke-width:2.5;stroke-linecap:round;stroke-linejoin:round;stroke-dasharray:7.56,7.56;}
	.st31{fill:none;stroke:#FF8300;stroke-width:2.5;stroke-linecap:round;stroke-linejoin:round;stroke-dasharray:4.58,4.58;}
	.st32{fill:none;stroke:#FF8300;stroke-width:2.5;stroke-linecap:round;stroke-linejoin:round;stroke-dasharray:4.01,4.01;}
	.st33{fill:none;stroke:#FF8300;stroke-width:2.5;stroke-linecap:round;stroke-linejoin:round;stroke-dasharray:8.73,8.73;}
	.st34{fill:none;stroke:#FF8300;stroke-width:2.5;stroke-linecap:round;stroke-linejoin:round;stroke-dasharray:7.98,7.98;}
	.st35{fill:none;stroke:#FF8300;stroke-width:2.5;stroke-linecap:round;stroke-linejoin:round;stroke-dasharray:8.05,8.05;}
	.st36{fill:none;stroke:#FF8300;stroke-width:2.5;stroke-linecap:round;stroke-linejoin:round;stroke-dasharray:8.82,8.82;}
	.st37{fill:none;stroke:#FF8300;stroke-width:2.5;stroke-linecap:round;stroke-linejoin:round;stroke-dasharray:9.28,9.28;}
	.st38{fill:none;stroke:#FF8300;stroke-width:2.5;stroke-linecap:round;stroke-linejoin:round;stroke-dasharray:4.45,4.45;}
	.st39{fill:none;stroke:#FF8300;stroke-width:2.5;stroke-linecap:round;stroke-linejoin:round;stroke-dasharray:8.44,8.44;}
	.st40{fill:none;stroke:#FF8300;stroke-width:2.5;stroke-linecap:round;stroke-linejoin:round;stroke-dasharray:4.54,4.54;}
	.st41{fill:none;stroke:#FF8300;stroke-width:2.5;stroke-linecap:round;stroke-linejoin:round;stroke-dasharray:7.31,7.31;}
	.st42{fill:none;stroke:#FF8300;stroke-width:2.5;stroke-linecap:round;stroke-linejoin:round;stroke-dasharray:4.37,4.37;}
	.st43{fill:none;stroke:#FF8300;stroke-width:2.5;stroke-linecap:round;stroke-linejoin:round;stroke-dasharray:9.62,9.62;}
	.st44{fill:none;stroke:#FF8300;stroke-width:2.5;stroke-linecap:round;stroke-linejoin:round;stroke-dasharray:8,8;}
	.st45{fill:none;stroke:#FF8300;stroke-width:2.5;stroke-linecap:round;stroke-linejoin:round;stroke-dasharray:7.78,7.78;}
	.st46{fill:none;stroke:#FF8300;stroke-width:2.5;stroke-linecap:round;stroke-linejoin:round;stroke-dasharray:4.36,4.36;}
	.st47{fill:none;stroke:#FF8300;stroke-width:2.5;stroke-linecap:round;stroke-linejoin:round;stroke-dasharray:7.54,7.54;}
	.st48{fill:none;stroke:#FF8300;stroke-width:2.5;stroke-linecap:round;stroke-linejoin:round;stroke-dasharray:8.35,8.35;}
	.st49{fill:none;stroke:#FF8300;stroke-width:2.5;stroke-linecap:round;stroke-linejoin:round;stroke-dasharray:7.9,7.9;}
	.st50{fill:none;stroke:#FF8300;stroke-width:2.5;stroke-linecap:round;stroke-linejoin:round;stroke-dasharray:9.21,9.21;}
	.st51{fill:none;stroke:#FF8300;stroke-width:2.5;stroke-linecap:round;stroke-linejoin:round;stroke-dasharray:6.97,6.97;}
	.st52{fill:none;stroke:#FF8300;stroke-width:2.5;stroke-linecap:round;stroke-linejoin:round;stroke-dasharray:4.04,4.04;}
	.st53{fill:none;stroke:#FF8300;stroke-width:2.5;stroke-linecap:round;stroke-linejoin:round;stroke-dasharray:7.07,7.07;}
	.st54{fill:none;stroke:#FF8300;stroke-width:2.5;stroke-linecap:round;stroke-linejoin:round;stroke-dasharray:10.26,10.26;}
	.st55{fill:none;stroke:#FF8300;stroke-width:2.5;stroke-linecap:round;stroke-linejoin:round;stroke-dasharray:9.02,9.02;}
	.st56{fill:none;stroke:#FF8300;stroke-width:2.5;stroke-linecap:round;stroke-linejoin:round;stroke-dasharray:7.49,7.49;}
	.st57{fill:none;stroke:#FF8300;stroke-width:2.5;stroke-linecap:round;stroke-linejoin:round;stroke-dasharray:7.87,7.87;}
	.st58{fill:none;stroke:#FF8300;stroke-width:2.5;stroke-linecap:round;stroke-linejoin:round;stroke-dasharray:7.14,7.14;}
	.st59{fill:none;stroke:#FF8300;stroke-width:2.5;stroke-linecap:round;stroke-linejoin:round;stroke-dasharray:8.29,8.29;}
	.st60{fill:none;stroke:#FF8300;stroke-width:2.5;stroke-linecap:round;stroke-linejoin:round;stroke-dasharray:9.57,9.57;}
	.st61{fill:none;stroke:#FF8300;stroke-width:2.5;stroke-linecap:round;stroke-linejoin:round;stroke-dasharray:9.64,9.64;}
	.st62{fill:none;stroke:#FF8300;stroke-width:2.5;stroke-linecap:round;stroke-linejoin:round;stroke-dasharray:4.23,4.23;}
	.st63{fill:none;stroke:#FF8300;stroke-width:2.5;stroke-linecap:round;stroke-linejoin:round;stroke-dasharray:5.99,5.99;}
	.st64{fill:none;stroke:#FF8300;stroke-width:2.5;stroke-linecap:round;stroke-linejoin:round;stroke-dasharray:5.23,5.23;}
	.st65{fill:none;stroke:#FF8300;stroke-width:2.5;stroke-linecap:round;stroke-linejoin:round;stroke-dasharray:7.46,7.46;}
	.st66{fill:none;stroke:#FF8300;stroke-width:2.5;stroke-linecap:round;stroke-linejoin:round;stroke-dasharray:7.36,7.36;}
	.st67{fill:none;stroke:#FF8300;stroke-width:2.5;stroke-linecap:round;stroke-linejoin:round;stroke-dasharray:8.49,8.49;}
	.st68{fill:none;stroke:#FF8300;stroke-width:2.5;stroke-linecap:round;stroke-linejoin:round;stroke-dasharray:8.99,8.99;}
	.st69{fill:none;stroke:#FF8300;stroke-width:2.5;stroke-linecap:round;stroke-linejoin:round;stroke-dasharray:6.77,6.77;}
	.st70{fill:none;stroke:#FF8300;stroke-width:2.5;stroke-linecap:round;stroke-linejoin:round;stroke-dasharray:7.1,7.1;}
	.st71{fill:none;stroke:#FF8300;stroke-width:2.5;stroke-linecap:round;stroke-linejoin:round;stroke-dasharray:4.27,4.27;}
	.st72{fill:none;stroke:#FF8300;stroke-width:2.5;stroke-linecap:round;stroke-linejoin:round;stroke-dasharray:5.2,5.2;}
	.st73{fill:none;stroke:#FF8300;stroke-width:2.5;stroke-linecap:round;stroke-linejoin:round;stroke-dasharray:8.26,8.26;}
	.st74{fill:none;stroke:#FF8300;stroke-width:2.5;stroke-linecap:round;stroke-linejoin:round;stroke-dasharray:7.68;}
	.st75{fill:none;stroke:#FF8300;stroke-width:2.5;stroke-linecap:round;stroke-linejoin:round;stroke-dasharray:4.44;}
	.st76{fill:none;stroke:#FF8300;stroke-width:2.5;stroke-linecap:round;stroke-linejoin:round;stroke-dasharray:2.94;}
	.st77{fill:none;stroke:#FF8300;stroke-width:2.5;stroke-linecap:round;stroke-linejoin:round;stroke-dasharray:5.93,5.93;}
	.st78{fill:none;stroke:#FF8300;stroke-width:2.5;stroke-linecap:round;stroke-linejoin:round;stroke-dasharray:7.52,7.52;}
	.st79{fill:none;stroke:#FF8300;stroke-width:2.5;stroke-linecap:round;stroke-linejoin:round;stroke-dasharray:7.43,7.43;}
	.st80{fill:none;stroke:#FF8300;stroke-width:2.5;stroke-linecap:round;stroke-linejoin:round;stroke-dasharray:8.1,8.1;}
	.st81{fill:none;stroke:#FF8300;stroke-width:2.5;stroke-linecap:round;stroke-linejoin:round;stroke-dasharray:8.6,8.6;}
	.st82{fill:none;stroke:#FF8300;stroke-width:2.5;stroke-linecap:round;stroke-linejoin:round;stroke-dasharray:5.27,5.27;}
	.st83{fill:none;stroke:#FF8300;stroke-width:2.5;stroke-linecap:round;stroke-linejoin:round;stroke-dasharray:5.19,5.19;}
	.st84{fill:none;stroke:#FF8300;stroke-width:2.5;stroke-linecap:round;stroke-linejoin:round;stroke-dasharray:4.18,4.18;}
	.st85{fill:none;stroke:#FF8300;stroke-width:2.5;stroke-linecap:round;stroke-linejoin:round;stroke-dasharray:5.73,5.73;}
	.st86{fill:none;stroke:#FF8300;stroke-width:2.5;stroke-linecap:round;stroke-linejoin:round;stroke-dasharray:8.21,8.21;}
	.st87{fill:none;stroke:#FF8300;stroke-width:2.5;stroke-linecap:round;stroke-linejoin:round;stroke-dasharray:5.07,5.07;}
	.st88{fill:none;stroke:#FF8300;stroke-width:2.5;stroke-linecap:round;stroke-linejoin:round;stroke-dasharray:7.06,7.06;}
	.st89{fill:none;stroke:#FF8300;stroke-width:2.5;stroke-linecap:round;stroke-linejoin:round;stroke-dasharray:7.32,7.32;}
	.st90{fill:none;stroke:#FF8300;stroke-width:2.5;stroke-linecap:round;stroke-linejoin:round;stroke-dasharray:8.07,8.07;}
	.st91{fill:none;stroke:#FF8300;stroke-width:2.5;stroke-linecap:round;stroke-linejoin:round;stroke-dasharray:4.08,4.08;}
	.st92{fill:none;stroke:#FF8300;stroke-width:2.5;stroke-linecap:round;stroke-linejoin:round;stroke-dasharray:8.88,8.88;}
	.st93{fill:none;stroke:#FF8300;stroke-width:2.5;stroke-linecap:round;stroke-linejoin:round;stroke-dasharray:8.01,8.01;}
	.st94{fill:none;stroke:#FF8300;stroke-width:2.5;stroke-linecap:round;stroke-linejoin:round;stroke-dasharray:6.9,6.9;}
	.st95{fill:none;stroke:#FF8300;stroke-width:2.5;stroke-linecap:round;stroke-linejoin:round;stroke-dasharray:9.26,9.26;}
	.st96{fill:none;stroke:#FF8300;stroke-width:2.5;stroke-linecap:round;stroke-linejoin:round;stroke-dasharray:9.24,9.24;}
	.st97{fill:none;stroke:#FF8300;stroke-width:2.5;stroke-linecap:round;stroke-linejoin:round;stroke-dasharray:8.28,8.28;}
	.st98{fill:none;stroke:#FF8300;stroke-width:2.5;stroke-linecap:round;stroke-linejoin:round;stroke-dasharray:4.92,4.92;}
	.st99{fill:none;stroke:#FF8300;stroke-width:2.5;stroke-linecap:round;stroke-linejoin:round;stroke-dasharray:5.6,5.6;}
	.st100{fill:none;stroke:#FF8300;stroke-width:2.5;stroke-linecap:round;stroke-linejoin:round;stroke-dasharray:5.13,5.13;}
	.st101{fill:none;stroke:#FF8300;stroke-width:2.5;stroke-linecap:round;stroke-linejoin:round;stroke-dasharray:4.47,4.47;}
	.st102{fill:none;stroke:#FF8300;stroke-width:2.5;stroke-linecap:round;stroke-linejoin:round;stroke-dasharray:8.66,8.66;}
	.st103{fill:none;stroke:#FF8300;stroke-width:2.5;stroke-linecap:round;stroke-linejoin:round;stroke-dasharray:8.06,8.06;}
	.st104{fill:none;stroke:#FF8300;stroke-width:2.5;stroke-linecap:round;stroke-linejoin:round;stroke-dasharray:8.3,8.3;}
	.st105{fill:none;stroke:#FF8300;stroke-width:2.5;stroke-linecap:round;stroke-linejoin:round;stroke-dasharray:5.26,5.26;}
	.st106{fill:none;stroke:#FF8300;stroke-width:2.5;stroke-linecap:round;stroke-linejoin:round;stroke-dasharray:7.79,7.79;}
	.st107{fill:none;stroke:#FF8300;stroke-width:2.5;stroke-linecap:round;stroke-linejoin:round;stroke-dasharray:6.55,6.55;}
	.st108{fill:none;stroke:#FF8300;stroke-width:2.5;stroke-linecap:round;stroke-linejoin:round;stroke-dasharray:4.07,4.07;}
	.st109{fill:none;stroke:#FF8300;stroke-width:2.5;stroke-linecap:round;stroke-linejoin:round;stroke-dasharray:7.61,7.61;}
	.st110{fill:none;stroke:#FF8300;stroke-width:2.5;stroke-linecap:round;stroke-linejoin:round;stroke-dasharray:7.67,7.67;}
	.st111{fill:none;stroke:#FF8300;stroke-width:2.5;stroke-linecap:round;stroke-linejoin:round;stroke-dasharray:5.17,5.17;}
	.st112{fill:none;stroke:#FF8300;stroke-width:2.5;stroke-linecap:round;stroke-linejoin:round;stroke-dasharray:9.3,9.3;}
	.st113{opacity:0.8;}
	.st114{fill:#666666;}
	.st115{opacity:0.8;fill:#666666;}
</style>
<g>
	<defs>
		<polygon id="SVGID_1_" points="1920,1080 0,1080 0,0 121.7,0 1920,0 		"/>
	</defs>
	<clipPath id="SVGID_2_">
		<use xlink:href="#SVGID_1_"  style="overflow:visible;"/>
	</clipPath>
	<g class="st0">
		<g id="Pre1900_Kln">
			<path class="st1" d="M-168.9-467.6v28.3l1.6,6.2l1.6,4.6l1.6,4.6l1.6,4.6l3.1,4.6l3.1,4.6l4.6,3.1l4.6,1.5h7.8l3.1,1.5l3.1,3.1
				l3.1,1.5l4.6,1.5l3.1,1.5l3.1,3.1l4.7,3.1l6.2,1.5l4.7,1.5h6.2l4.7,1.5h3.1l1.6,1.5l3.1,3.1l3.1,3.1l3.1,3.1l1.5,1.5h6.4l1.4,1.5
				h13.1l2.4,1.5l3.1,1.5l3.1,1.5h2.7l3.5,1.5v4.6l1.2,6.1l1.6,6.4l1.6,6.4l3.2,3.2l4.8,1.6l1.6,4.7l1.6,3.2l1.6,4.8v4.8l-1.6,4.8
				v4.8l1.6,3.2l3.2,4.8h5.3l4.2,1.6h4.4l3.5,1.6l4.8,1.7l3.2,4.8l1.6,4.8v4.8l1.6,4.7l1.6,3.2l1.6,3.2l1.6,3.2h3.2l3.1,1.6h6.4
				l3.2,1.6l1.6,1.6v6.4l-1.6,3.2v3.2l1.6,1.6l1.6,1.6H33l2.5-1.6l3.1-1.6h1.6l4.7-1.6l6.3-1.6l4.8-1.6h3.2l3.2-1.6l1.6-3.2l1.6-3.2
				l1.6-3.2v-7.9l1.6-3.2l1.6-3.2l1.6-3.2v-4.7l-1.6-4.9v-1.6l3.2-1.6l1.6-3.2v-9.5l1.6-3.2l1.6-3.2v-3.2l-1.6-4.8v-6.4l1.6-5.3
				v-4.2l-3.2-4.8v-4.8l-4.8-7.9l-1.6-7.9v-6.4l-1.6-6.4l-1.6-6.4l-1.6-3.2l-1.6-3.2l-3.2-3.2l-1.6-4.8l-1.6-4.8v-33.3l-1.6-4.8
				v-3.2l1.6-1.6l3.2,4.8l3.2,1.6l3.2,3.2v4.7l1.6,3.2l3.2,1.6l3.2,1.6l4.8,0.3l3.2-0.3h3.2l3.2,1.6v10.8l3.2,1.9l4.8,1.6l1.6,4.7
				l1.6,4.8l1.6,6.4l3.2,4.8l3.2,3.2l4.8,1.6h3.2l3.2,3.2l3.2,3.2v2.8l-4.8,3.6l-1.6,3.2l1.6,3.2l1.6,4.8v33.3l3.2,4.8l1.6,3.2
				l3.2,3.2l1.6,3.2l1.6,1.6l1.6,1.6l1.6,1.6l1.6,1.6v2.8l1.6,2l1.6,1.6l1.6,1.6l4.8,3.2l6.4,1.6l4.8,1.6h6.4l4.8,1.6l4.8,1.6
				l4.8,3.2h3.2l4.8,1.6l3.2,3.2v16.3l1.6,4.4l1.6,4.8l1.6,3.2l1.6,3.2l1.6,3.2l1.6,3.2l1.6,3.2l1.6,3.2v3.2l1.6,4.8v3.2l1.6,4.8
				l1.6,3.2l1.6,3.2l1.6,1.6l4.8,3.2l4.8,1.6l4.8,1.6l4.7,1.6h7.9l3.2-1.6l3.2-1.6l3.2-1.6l3.2-1.6l14.8-4.7l12.2-4.8l6.4,1.6
				l1.6,1.6l4.1,1.7h5l5.1-1.7l6.4-3.2l1.6-3.2l1.6-4.8v-2.1l1.6-1.1l1.6,3.2v2.9l3.2,1.8l4.8-1.6l12.7-4.8l6.4-1.6h3.2l4.8,1.6
				l1.6,3.2l1.6,3.2l4.8,3.2h17.5l6.4-1.6l7.9-1.6l4.8-3.2l1.6-3.2l1.6-3.2l-1.6-4.8l-4.8-4.8l-9.5-6.4l-3.2-3.2v-3.2l1.6-1.6h3.2
				l4.8,3.2l4.8,3.2l4.8,4.8l3.2,4.8l1.6,3.2l1.6,6.4v5.2l1.6,4.4h4.8l3.2-1.5v-7.1l-1.6-4.1l-3.2-6.4l-3.2-11.1v-14.3l1.6-1.6
				l1.6,1.6v3.2l1.6,3.2l1.6,1.6h3.2l4.8-3.2l3.2-1.6l1.6,3.2h4.8l4.8-1.6l3.2-1.6h3.3l9.5-1.6l6.4-3.2l6.4-4.8l3.2-4.8l3.2-4.8
				l4.2-5.8l9.7,5.8l5.8-2l3.9,3.9l5.8,1.9l7.8,7.8l7.8,5.8h3.9l9.7,7.8l9.7,7.8l5.8,5.8v5.7l3.9,8l5.8,5.8h7.8l3.9-3.9h2l2,5.8
				l7.8,3.9l3.9,1.9l5.8,3.9l5.8-2l1.9,5.8l11.7,5.8l11.7,11.7l7.8,5.8l1.9,9.7v9.5l2,13.9l5.8,19.5l7.8,21.4L646-92l7.8,7.8h5.5
				l0.3,11.7l3.9,7.8L655.6-53l-7.8,9.7l-9.7-3.9h-9.7l-7.8-3.9h-9.7l-9.7,1.9l-3.9,3.9l1.9,9.7l5.8,9.7l11.7,7.8l5.8,3.9l2,5.8
				l-2,3.9l2,3.9l11.7,11.7l9.7,9.8l2,3.9l3.9,3.9h3.9l2,2l3.9,1.9l2,5.8l2,7.8l3.9,5.8l3.8,3.8l2,3.9l-3.9,3.9l-2,1.9l-3.9,2l-5,1
				l-4.8,0.9l-5.8,1.9h-4.3l-3.5,3.9l-3.9,5.8l-5.8,19.5l2,17.5l-4,25.3l1.9,5.8l3.9,5.8l5.8,5.8l7.8,11.7l7.8,3.9l7.8-7.8l7.8-9.7
				l2-9.7l1.9-5.8l9.7-7.8l3.9-5.8l2-13.6l2-13.6l1.9-9.7l3.9-9.7l1.9-7.8V63.8l2-4l13.6-1.8l23.4,1.9l19.5,3.9l13.6,3.9l11.8,1.9
				l7.7,5.9v27.3l-1.9,5.8l1.9,5.8v7.8l-5.8,11.6l-3.9,5.8l-3.9,3.9v5.8l1.9,5.8v38.9l2,7.8l2,4.9v2.5l3.8,8.1V239l3.9,3.9l5.8,3.9
				l3.9,1.9l3.9,5.8v5.8l2,5.8l1.9,3.9v5.9l2,3.9v5.8l-2,2l-3.9,2l-3.9,1.9l-2,7.8l2,2v5.8l5.8,3.9l1.9,2l5.8,1.9l2,5.8l5.8,7.8
				l2,9.7l3.9,3.9v3.9l-2,7.8l-4,7.7l-2,9.7l3.9,2l7.8,7.8l7.8,5.8v9.7l-3.9,3.9v7.8l-2,5.8v15.6l-2,5.8l-3.9,7.8l-5.7,5.8l-7.8,2
				l-5.9,5.8l-1.9,5.8l-3.9,9.7l-3.9,9.7l-5.8,13.6l-3.9,2l-9.7,3.9l-3.9,3.9l-2,5.8l-1.9,5.5v14l1.9,3.9l3.9,5.8l7.8,2l3.9,1.9
				l3.9,5.7l2,9.9l1.9,7.8l-1.9,11.7l-2,10.9v10.5l2,11.7l1.9,14.2v18.9l3.9,7.8l3.9,7.8l2,7.8v17.5l-3.9,7.8l2,13.6l2,7.8l1.9,3.9
				l3.9,7.8l1.9,7.8l2,4.2v7.5l2,5.8l1.9,8.3v5.3l3.9,3.9h3.9l3.9-5.8l2-7.8l7.8-3.9l1.9-7.8l7.8-7.8l9.7-2l7.8-3.9H897l5.8-2h13.6
				l3.9,5.8l3.9,9.7l1.9,5.8l7.8,7.2v4.5l3.9,5.8h9.7l9.7-9.7l7.8-11.7l3.9-9.7v-11.6l-3.9-5.8l-3.9-11.7l2-7.8l2-13.6l3.8-15.6
				l3.9-13.6l3.9-9.7l5.8-13.6l3.9-13.6l5.8-19.5l3.9-17.5l3.9-3.9l5.8,2l5.8,3.9l5.8-1.9l3.9-5.8l7.8-11.7l3.9-19.5l2-13.6
				l3.9-15.6l3.9-13.6l3.9-9.7l5.8-5.8l7.8-9.7l5.8-3.9l3.9-5.8l3.9-3.9l5.8-3.9l5.8-3.9l3.9-2.6v-3.2l2-5.8l3.9-2l5.8-2l17.5-3.9
				l13.6-2l9.7-3.9l3.9-3.9l3.9-2h5.8l1.9,2l3.9,7.8c2.7,1.8,5.3,3.7,7.8,5.8c2,2,9.7,3.9,9.7,3.9l9.7,5.8l9.7,3.9l7.8,2l5.8,1.9
				l5.8,3.9l3.9,5.8l5.8,3.9l3.9,5.8l5.8,6.4v7.3c0,0,1.9,3.9,1.9,5.8s5.8,3.9,5.8,3.9l7.8,1.9l5.8,3.9l3.9,3.9l5.8,5.8l7.8,3.9
				l3.9,3.9v7.8l2,5.8l5.8,3.9l5.8,1.9h3.8l2,3.9l3.9,7.8l3.9,3.9l3.9,1.9l7.8,3.9l5.5,4.1l4.5,0.5l1.5-0.9l3.2-3.2l1.6-6.3v-7.9
				l-4.8-7.9l-3.2-7.9l1.6-11.1l7.9-9.5l1.6-17.9l5.8-13.6l7.8-7.8v-3.2l-0.9-3.6l-1.6-4.7l-4.8-4.8l-1.6-4.8l-6.3-7.9l-6.3-6.4
				l-11.1-6.4l-12.7-6.4l-11.1-4.6l-11.6-1.9l-5.8-5.8l-1.9-3.9v-7.8l-6-12.5l-7.6-10.9l-9.7-7.8l-7.8-13.6l-3.9-12.3v-53.9
				l1.9-20.6v-12.4l5.8-9.7l5.8-9.7l7.8-3.9l5.8-3.9l7.8-5.8l5.8-3.9h5.8l5.8,2l9.7-3.9l7.8-3.9l3.9-3.9l5.8-3.9l9.7-3.9l11.7-7.8
				l7.8-11.7l1.9-11.7v-13.6l-3.9-5.8l-5.8-5.8l-5.8-9.7l-15.6-9.7l-15.6-7.8l-13.6-5.8l-5.8-7.8l-2-15.6l2-15.6l1.7-6.2v-3.2h3.2
				l1.6,3.2v7.9l1.6,3.2l1.6,1.6h14.3l3.2-4.8l4.8-7.9l3.2-7.9l1.6-4.8l3.2-1.6v-1.6l-4.8-3.2l-3.2-3.2V36.3l3.2-1.6h3.2l4.6-2.1
				l3.9-5.8l4.2-7.9v-7.9l-1.6-7.9l1.6-11.1v-4.8l1.6-4.8l1.6-1.6l7.9-3.2l7.9-3.2l7.9-4.1l7.8-9.7l17.5-15.6l7.8-7.8l11.7-7.8
				l9.7-11.7l17.5-21.4l17.5-19.5l15.6-17.5l11.7-11.7c2-1.9,13.6-9.7,13.6-9.7l9.7-5.8l15.6-5.8l21.4-3.9l12.1-1.9h77.4l5.8,7.8
				l5.8,3.9l5.8,5.8l5.8,3.9h2l1.9-3.9l7.8,5.8l5.8-1.9l2,1.9l13.6,11.7l11.7,7.8l7.2-0.2l6.5-1.7v3.9l-6.5,4.1l1.6,2.5l2.9-0.8
				l4.7-1.7h3.1l7.8,7.5l-2,3.9l-5.8,5.6v6l2,7.8l5.8,3.9l7.8,3.9l7.8,1.9v2l2,3.9l3.9,2l1.9,1.9l-3.9,3.9l-1.9,5.8v7.8l-4,3.8
				l1.8,2l5.8-2l7.8,5.8l3.9,5.8l5.8,9.7l3.9,2l9.7,3.9l11.7,5.8l7.8,3.9l2,5.8l3.9,7.8l5.8,5.8l4.9,3.9h6.8l-3.9,3.4v2.4l3.9,2v3.9
				l7.8,5.8l9.7,7.8l7.8,11.7l3.9,5.8l5.8,5.8V56l1.9,5.8l-2.3,3.1l-1.6,1.6l-3.2,3.2l-4.8,3.2l-3.2,1.6l-3.2,3.2l-1.6,4.8l1.5,1.6
				l1.6,3.2l3.2,3.2l1.6,1.6v3.2l1.6,1.6v3.2l1.6,1.6l3.2,1.6l5.4,2l-0.7,1.1l-4.8,3.2l-4.8,3.2v1.6l1.6,1.6h4.8l-1.6,4.8l1.6,3.2
				l-3.2,6.4l-3.2,4.8h-3.2l-1.6,1.6v3.2l1.6,3.2l1.6,4.8l1.6,4.8l1.6,4.8v6.4l-3.2,4.8l-6.3,3.2l-4.8,3.2l-1.6,3.7v5.8l1.6,4.8
				l3.2,1.6l3.2,6.4v3.2l-1.6,6.4l-3.2,2.4v2.4l3.2,1.6l4.8,6.4l1.6,4.8l3.2,4.8l3.2,6.4l3.2,1.6l4.8,3.2l1.6,3.2l1.6,1.6h6.3
				l3.2,1.6l1.6,3.2l3.2,4.8l3.2,1.6l7.9,3.2l4.8,1.6l4.8,4.8l3.2,6.4l4.8,1.6l3.2,3.2h1.6l1.6-1.6l4.8-3.2h3.2l4.8,1.6l4.8,1.6h9.5
				l3.2,1.6l1.6,3.2l1.6,3.2l6.3,4.8l3.2,1.6l3.2,1.6l3.2,3.2l3.2,1.6l4.8,3.2l6.3,1.6l4.8,1.6h4.8l3.2-1.6h11.1l6.3,1.6l7.9,4.8
				l4.8,1.6l4.8,3.2l4.8,4.8l3.2,6.4l3.2,4.8l3.2,3.2l4.8,3.2l6.3,3.2h1.6l3.2-1.6l3.2-6v-6.7l1.6-1.6h4.8l4.8-1.6l4.8-1.6h1.6
				l1.6,1.6l19.1,25.4l7.9,11.1l1.6,3.2l4.8,3.2l6.4,3.2l4.8,3.2l6.4,4.8l6.4,3.2l3.2,1.6h3.2l4.8-1.6h3.2l6.4,1.6h9.5l3.2-4.8v-9.5
				l-1.6-11.1l1.6-6.4v-3.2l-1.6-12.7v-15.9l1.6-4.8h1.6l4.8,7.9l9.5,11.1l7.9,7.9l3.2,4.8l6.4,3.2l3.2,4.8v4.8l4.8,3.2l6.4,1.6
				l6.4,1.6l6.4,3.2l6.4,1.6l3.2-1.6l4.8-3.2h3.2v1.6l-1.6,1.6l-6.4,7.9l-6.4,7.9l-9.5,6.4l-7.9,4.8l-14.3,9.5l-6.4,6.4l-1.6,9.5
				l-3.2,6.4l-6.4,1.6h-7.9l-7.9,1.6l-3.2,1.6l-4.8,6.4l-4.8,6.4l-3.2,4.8l1.6,4.8l-1.6,9.5l-1.6,6.4l-1.6,6.4l-3.2,4.8l-3.2,3.2
				l1.6,1.6l1.6,3.2l1.6,3.2l-3.2,1.6h-6.4l-9.5,1.6l-7.1,3.2l-4,3.2l-4.8,7.8v23.9l7.9,11.1l3.2,7.6l1.6,9.9l-1.6,6.5v8.3l1.6,5.9
				v4.8l-1.6,4.2v6.9l1.6,3.2l9.5,11.5v2.7l3.2,3.2l3.2,3.2l3.2,6.3l6.4,15.9l4.8,12.7l4.8,9.5l6.4,7.9l6.4,4.8l12.7,6.3l11.1,6.3
				h19l4.8,1.6l7.9,3.2h6.4l4.8-1.6h4.8l3.2,1.6h25.4l6.4-3.2h6.4l4.8-3.2l4.8-1.6l4.8-3.2l3.2-1.6h6.4l4.8-3.2h3.2l4.8,1.6h9.5
				l7.9-3.2h3.2l9.5,1.6h6.4l1.6,1.6l-1.6,1.6l-3.2,4.8l-3.2,4.8v3.2l-3.2,1.6l-4.8,3.2l-1.6,3.2l1.6,9.5l3.2,7.9l3.2,7.9l3.2,4.8
				l1.6,14.3l-3.2,1.6h-7.9l-6.4,3.2h-4.8l-3.2-1.6l-7.9-3.2h-4.8l-6.4,1.6l-7.9,3.2l-1.6,3.2v3.2l1.6,6.3l1.6,11.1l-1.6,3.2h-3.2
				l-4.8-3.2l-3.2-1.6l-3.2-3.2l-4.8-1.6l-4.8-3.2l-4.8-1.6h-4.8l-3.2,1.6l-1.6,4.8l-1.6,6.3l1.6,4.8l4.8,6.3l11.1,9.5l12.7,9.5
				l4.8,1.6l6.4,1.6l3.2,1.6l4.8,7.9l-1.6,0.8v2.4l1.6,1.6l12.7,11.1l11.1,7.9h6.4l6.4-3.2l6.4-1.6l6.4-4.8l9.5-1.6l9.5-4.8l6.4-1.6
				l6.4-1.6l4.8-3.2h1.6v4.8l-1.6,3.2l-3.2,7.9l-1.6,6.3l-4.8,14.3l-1.6,7.9l-3.2,7.9l-7.9,9.5l-12.7,17.5l-6.4,9.5l-3.2,7.9
				l-3.1,3.2l-4.8,6.3v1.6l-3.2,7.9l-1.6,3.1l1.6,1.6l1.6,1.6l3.2,1.6l4.8,3.2l4.8,1.6l3.2,1.6h7.9l11.1,7.9l4.8,4.8l4.8,3.2
				l3.2,1.6l3.2,1.6h9.5l6.4,3.2l1.6,2.7v2.1l3.2,3.2l1.6,1.6h3.2l3.2-1.6h3.2l6.4,1.6h15.9l3.2,1.6l6.4,4.8l7.9,3.2l3.9,1.6h10.4
				l3.2-1.6l6.4-1.6l4.8-1.6l1.6-3.2l7.9-15.9l3.2-3.2l14.3-17.4l3.2-5.8v-10l1.6-1.6l1.6,1.6l1.6,1.6h3.2l1.6-1.6l3.2-3.2v-4.8
				l-3.2-3.2l-4.8-3.8v-4.2l4.3-1.6h3.6l4.7-3.2h3.2l4.8-1.6l4.8-4.8l1.6-4.8l3.2-1.6l4.8-1.6l4.8-1.6l1.6-4.8l1.6-4.8l1.6-3.2
				l3.2-4.8l3.2-4.8l3.2-3.2l4.8-1.6l4.8-3.2l3.2-4.8l1.6-4.8V846l1.6-6.3l1.6-4.8h1.6l2.5,1.6h2.2l1.6-3.2l4.8-1.6h4.8l3.2-1.6
				l11.1-7.9l4.8-6.3l14.3-15.9v-8l2.6-6.3l2.2-3.2l3.2,1.6l-0.1,1.6h3.3l3.2-3.2l7.9-9.5l1.6-3.2l-1.6-4.8v-12.7l3.2-3.2l3.2-1.6
				l4.8-1.6l1.6,1.6l1.6,3.2l3.2-1.6l14.3-15.9l1.6-3.2v-3.2l1.6-3.2l2-3.2l4.4-4.8l6.4-3.2h4.8l1.6,1.6l1.6,1.6l1.6,3.2l1.6,1.6
				l3.2-1.6l4.8-4.8l3.2-12.7l1.6-12.7l1.6-3.2v-3.2l-1.6-3.2l-3.2-6.3l1.6-4.8l1.6-9.5v-19l3.2-3.2l1.6-3.2v-6.3l1.6-9.5l-1.6-6.3
				l-1.6-4.8l-4.8-3.2l-4.8-1.6l-4.8-1.6l-5.4-1.6h-5.7l-6.4-4.8l-6.4-4.8l-7.9-4.8l-1.6-4.8l-1.6-7.9l-1.6-9.5v-3.2l3.2-6.3
				l1.6-6.3l1.6-1.6l1.6-1.6l3.2-3.2v-3.2l-1.6-1.6l-4.8-1.6h-3.2l-3.2,1.6l-3.2,1.6h-3.2l-3.2-1.6l-1.6-1.6h-4.8l-1.6,1.6l-7.9,6.3
				h-4.8l-3.2,1.6l-5.2,1.6h-7.5l-1.6-1.6l-3.2-4.8v-3.2l4.8-12.7l3.2-4.8l7.9-9.5l4.8-3.2l3.2-3.2l1.6-4.8v-3.2l1.6-1.6l3.2-3.2
				l1.6-3.2l1.6-4.8l3.2-3.2l6.4-4.8l3.4-3.2h9.3l7.9-4.8l9.5-6.4l11.1-7.9l7.9-6.4l3.1-6.3l3.2-6.4l4.8-3.2l3.2-4.8l4.8-7.9
				l4.8-4.8l1.6-4.8l1.6-7.9l1.6-7.9l3.2-11.1l1.6-6.4l3.2-3.2l4.8-6.4l1.6-7.9l3.2-7.9l6.4-4.8l1.6-4.8l6.4-9.5l1.6-6.4l3.2-9.5
				l1.6-11.1l1.6-3.2l4.8-4.8h1.6l2.4,1.6h2.4l1.6-1.6l4.8-6.4v-7.9l-1.6-4.8l-1.6-4.8l-0.8-3.2l-2.4-1.6l-1.6,1.6h-4.8l-3.2-1.6
				l-4.8-4.8v-4.8l-3.2-4.8l-1.6-4.8v-4.8l-1.6-4.8l-3.2-4.8l-3.2-6.4v-3.2l3.2-7.9v-4.8l-3.2-4.8l-1.6-3.2v-9.5l1.6-3.2v-3.2
				l-3.2-3.2l-1.6-4.8l-1.6-15.9l-1.6-11.1v-3.2l-1.6-4.8l-1.6-3.2l-1.6-1.6l-1.6-1.6l-1.6-1.6h-3.2l-1.6-1.6l-1.6-1.6v-3.2
				l-1.6-1.6l-3.2-1.6l-6.4-1.6l-3.2-1.6l-7.9-3.2h-3.2l-7.9-3.2h-7.9l-11.1-3.2l-7.9-3.2l-4.8-6.3l-3.2-6.3l-1.6-3.2l-1.6-3.2
				l-3.2-1.6h-4.8l-4.8,1.6l-4.8,1.6l-3.2,3.2l-1.6,1.6l-3.2,1.6h-1.6l-1.6-1.6l-1.6-1.6l-1.6-1.6v-4.8l1.6-4.8l1.6-4.8l1.6-3.2
				l1.6-3.2l3.2-3.2v-9.5l-3.2-4.8l-1.6-3.2V49l-1.6-1.5h-4.8l-1.6-1.6l-1.6-1.3v-3.5l1.6-3.2l1.6-3.2l3.2-3.7v-2.6l1.6-1.6l7.9-7.9
				l3.2-1.6l1.6-1.6l3.2-1.6h3.2l1.6,1.6l1.6,1.6l3.2,1.6l3.2,3.2l3.2,1.6h7.9l3.2-1.6h3.1l1.6-3.2l1.6-4.8l1.6-4.8l6.4-1.6h3.2
				l3.2-3.2l4.8-1.6h4.7l3.2-1.6l3.2-3.2h7.9l3.2-1.6l3.2-1.6h6.4l3.2,1.6l1.6,1.6l9.4,4.8h19.2l4.8,1.6l3.2,1.6l3.2,1.6l1.6,1.6
				l3.2,4.8l1.6,1.6l1.6,1.6l1.6,1.6l3.2,1.6l4.8,1.6l4.8,1.6h7.9l2.4,0.8l1.6,1.6l1.6,1.6l1.6,1.6l1.6,3.2l1.6,3.2l1.6,4.8l1.6,3.2
				v4.8l1.6,7.9v1.6l3.2,3.2l1.6,3.7v4.3l1.6,6.3l1.6,4.8l4.8,9.5l3.3,5.6l3,4l1.6,1.6l22.2,20.6l3.2,3.2l1.6,1.6l1.6,3.2l1.6,2.3
				v2.5l1.6,1.6l1.6,1.6v3.2l-0.8,2.1v3.4l1.6,3.2l1.6,3.1v25.4l-1.6,3v3.3l3.2,3.2l3.2,4.8l3.2,4.8l3.2,4.8l1.6,4.8l3.2,3.2
				l6.4,1.9v4.4l4.8,1.6l9.5,3.2l7.9,3.2l12.7,4.8h65.2v-696.1H-168.9z"/>
			<path class="st1" d="M111,50.9l-10-3.3h-7.5l-6.2,3.3l-3.8,5.8v7.7l-1.3,6.3L81,74.2v4.1l-2.5,1.3h-2.8v4l1.6,1.4l-1.9,3.8
				l-3.7,4.5l-2.8,5.2l-1.3,3.7l-4.1,2.1l-2.5,5l-2.4,2.9l-2.7-2.9l-8.4,2.9l-11.2,2.2H29l-11,1.7l-8.9,2.2l-7.8,3.3l-6.7,3.3
				l-6.7,6.7l-4.5,5.6l-5.6,7.8l-2.2,3.4l-2.2,2.2l-4.4,1.1l-2.2,1.1l-2.3,1.1l-5.6-1.1l-3.3-2.2l-2.2-1.1l-1.1,1.1l-1.1,1.1h-4.5
				l-1.1,1.1l-1.1,2.2l1.1,1.1h2.2l2.2,1.1l1.1,1.1v14.5l-1.1,2.2v2.2l1.1,2.2v2.2l-1.1,2.2l2.2,2.2l1.1,3.4l1.1,2.2h2.1l1.3,5.6
				l3.3,4.4l4.5,8.9l2.2,2.2l4.5,3.3h3.4c-0.1,0,2.2,1.1,2.2,1.1l2.2,2.2l2.2,1.1h3.3l4.5-2.2l7.8-5.6l3.3-3.4l2.2-4.4l3.3-4.5
				l3.4-2.2l4.4-1.1H18l3.3-1.1l2.2-1.1l3.3-1.1l3.3-1.1h4.5l3.3,1.1l3.3,1.1l1.1-1.1l-1.1-2.2l-1.1-2.2l1.1-2.2l3.3-2.2l5.6-2.2
				l6.7-2.3l5.6-1.1H67l5.6,3.4l3.3,1.1l2.2,2.2l1.1-1.1l1.1-3.3l2.2-4.5l2.2-1.1h4.5l2.2,1.1l2.2-2.2l2.2-1.1h3.3l4.5-1.1h8.9
				l2.2,2.2v2.4l3.3,1l4.5,2.2h8.9l2.2,2.2l2.2,3.3l2.2,2.2v2l-2.2,2.5l2.2,1.8v5l1.1,4.3l3,4.3l-1.9,2.4v2.2l1.9,2.7l-0.8,2.9
				l0.6,5l2.2-1.1l3.3-1.1h4.5l3.3,3.4l3.3,1.1l3.4,1.1l4.4,3.4l2.2,2.2l3.4,6.7l1.1,6.7l1.1,4.5l2.2,3.3l4.5,2.2l2.2,3.3v3.7l2.2,3
				l5.6,4.5l3.3,2.2l4.5,1.1h3.3l2.3,1.1l1.1,2.2l1.1,3.3l4.5,3.3h2.2l1.2,1.1l1.1,5.6h1.5l0.8-3.3l3.4-4.5l3.3-3.3l-1.1-4.5
				l1.1-8.5l5.6-16l5.6-11.1l8.9-11.1l8.9-8.9l5.6-2.2l1.1-5.6l2.2-8.9l2.2-6.7l5.6-7.8l14.5-14.5l13.4-12.3l8.9-6.7l7.8-3.4l10-3.3
				l7.8-2.2l2.3-2.2v-8.3l-5.6-9.5L325,120v-4.5l-2.2-2.2l-7.8-7.8l-3.4-4.5v-2.2l-2.2-1.1h-6.7l-4.5-1.1l-4.5-3.3h-4.5l-2.2,2.2
				v5.6l-1.1,4.5l-3.4,2.2h-4.5l-1.1,1.1v3.3l1.1,1.1l3.3-1.1v3.3l2.2,3.3l1.1,3.3l-2.2,3.3l-1.1,3.3l-1.1,5.6l-6.7,7.8l-8.9,7.8
				l-3.3,1.1l-4.5-1.1l-3.3,2.2l-4.5,4.4h-4.4l-8.9-1.1l-24.5-8.9l-23.4-12.3l-8.9-5.6l-4.5-4.5l-5.5-8.9l-3.3-7.8l-1.5-2.4l-4-2
				l-8.9-5.6l-11.5-10.6l-10.9-14l-3.4-6.4l-0.8-8.6l-1.3-3.9l-4.5-1.1L111,50.9z"/>
		</g>
		<g id="Pre1900_HKI">
			<polygon class="st2" points="1109.4,1044.2 1106.1,1044.2 1102.7,1041.8 1102.3,1037.1 1100.8,1032.8 1102.3,1028 1103.7,1023.2 
				1104.6,1020.8 1107.8,1019.3 1110.9,1020.3 1113.3,1022.7 1115.2,1024.6 1116.6,1026.1 1116.1,1029.9 1115.2,1034.7 1115.2,1039 
				1114.7,1041.8 1112.3,1043.8 			"/>
			<path class="st3" d="M2767.1,1744.5l1.3-3.4v-5.8l1.6-4.4l1.6-7.9l1.6-3.2h3.2l4.8,3.2l3.2-1.6l1.6-7.9l1.6-3.2l-3.2-4.8v-3.2
				l3.2-3.2h1.5l1.6-1.6v-1.6l-6.4-6.3h-1.6l-1.6-1.6l1.6-3.2v-3.2l1.6-1.6l-6.4-7.9l-3.2-4.8v-1.6l-1.6-1.6l-1.6,1.6h-1.5l-1.6-3.2
				l1.6-3.2l-1.6-1.6l-1.6-4.8l1.6-3.2l-1.6-4.8l1.6-3.2l-1.6-1.6h-1.6l-1.6-4.8l-1.6-1.6v-3.2l-3.2-3.2v-3.2l3.2-7.9l1.6-7.9
				l4.8-9.5l3.2-4.8l1.6-4.8h3.2l4.8-3.2l9.5-0.7l3.2-0.9l3.2-4.8h4.8l3.2,1.6l1.6,1.6h1.6l1.6-1.6v-3.4l-1.6-4.5l-6.4-7.9
				l-12.7-12.7l-4.8-6.3l-3.2-1.6l-4.8-6.3h-3.2l-4.8-6.3l-7.9-7.9h-3.2l-1.6-1.6l-3.2-4.8l-17.5-14.3l-7.9-6.3l-3.2-1.6h-3.2
				l-3.2-3.2l-6.4-6.3l-3.2-3.2l-3.2-1.6l-3.2,1.6l-7.9,4.8l-3.2,1.6l-4.8,1.6l-1.6,1.6l1.6,3.2l7.2,14.8l0.8,4.2l-3.2,12.7
				l-4.8,11.1l-6.4,6.3l-9.5,6.3l-7.9,7.9l-7.9,4.8l-4.8,3.2l-4.8,1.6l-3.2,3.2l-1.6,4.8h-1.6l-6.4-4.8l-1.6-3.2v-4.8l-1.6-3.2
				l1.6-3.2l-1.6-3.2l-6.4-14.3l-3.2-4.8l-1.6-1.6l-1.6-6.3l-14.3-14.3l-3.2-3.2l-3.2-1.6l-3.2-4.8l-1.6-3.2l-4.8-6.3l-3.2-4.8v-4.8
				l-1.6-1.6l-4.8-1.6l-4.8-4.8l-1.6-1.6l-3.2,1.6h-1.6l-4.8-4.8l-3.2-1.6h-6.4l-3.2-3.2l-3.2,1.6h-6.4l-4.8,3.2v1.6l-11.1,3.2
				l-6.4,3.2l-1.6,4.8h-4.8l-4.8,1.6h-3.2l-3.2-3.2h-1.6l-12.7,12.7l-3.2,4.8l-9.5,4.8l-9.5,4.8l-1.6,0.5l-3.1,5.8l-7.9,3.2
				l-6.4,1.6h-9.5l-6.4,1.6l-6.4,7.9l-6.4,3.2l-6.4,6.3h-3.2l-4.8,3.2h-3.2l-11.1,7.9l-7.9-1.6l-4.8,1.6h-6.4v-3.2l-7.9-4.8h-6.4
				v-4.8l-1.6-4.8l-3.2-3.2h-9.5l-4.8-7.9l-1.6-1.6h-7.9l-1.6-1.6l-3.2-6.3l-1.6-4.8l-3.2-3.2l-3.2-4.8v-1.6l1.6-3.2l-1.6-4.8
				l-1.6-3.2v-3.2l-1.6-1.6l-1.6-1.6l3.2-3.2h4.8l-1.6-1.6v-3.2l1.6-1.6l1.6-3.2h1.6l4.8,3.2h6.4v-4.8h1.6l1.6,3.2v4.8l-1.6,4.8
				l-1.6,4.8l3.2,3.2h4.8l3.2-1.6l1.6-1.6l1.6-3.2h1.6l4.8,3.2l1.6,1.6v3.2l-1.6,4.8l-1.6,3.2v4.8l7.9,4.8l4.8,1.6l6.4-3.2h3.2
				l3.2-1.6l6.4-12.7l1.6-4.8l1.6-9.5v-3.2l-1.6-3.2l-6.4,1.6l-3.2,3.2h-3.2l-1.6-3.2l-3.2-4.8l-6.4-12.7l-3.2-9.5l-1.6-3.2v-3.2
				l4.8-3.2l3.2-11.1l3.2-7.9l3.2-4.8l1.6-4.8l-1.6-6.3v-3.2l3.2-1.6l3.2-1.6v-4.8l4.8-4.8l4.8-3.2l-1.6-1.6v-1.6l-1.6-3.2l-3.2-1.6
				l-1.6-3.2v-3.2l1.6-3.2l-1.6-6.3v-3.2l7.9-4.8l1.6-3.2l1.6-9.5l4.8-9.5l1.6-1.6l-3.2-4.8v-4.8l1.6-4.8l6.4-7.9l4.8-3.2l6.4-7.9
				l1.6-4.8l-1.6-3.2l1.6-1.6h3.2l4.8-3.2l3.2-6.3l1.6-3.2l1.6-1.6l1.6,1.6l4.8,3.2h1.6l1.6-3.2l3.2-1.6l1.6-1.6h4.8l1.6-1.6v-1.6
				l1.6-3.2l1.6-7.9l-1.6-4.8v-6.3h-1.6l-6.4,6.3l-1.6,1.6h-3.2l-4.8-1.6h-3.2l-17.5,4.8l-6.4,1.6l-4.8,1.6h-4.8l-6.4-4.8l-3.2-4.8
				l-1.6-4.8l-1.6-7.9l-6.4-7.9l-4.8-4.8l-1.6-3.2l-1.6-3.2l-7.9-9.5l-3.2-4.8v-1.6l-7.9-11.1l-3.2-3.2v-6.3l1.6-4.8l7.9-9.5
				l3.2-1.6h1.6l6.4-4.8h3.2l6.4-1.6l3.2-1.6l4.7-4.7l3.2-1.6l1.6-4.8l6.4-11.1l1.6-4.8l1.6-4.8l1.6-3.2v-3.2l-1.6-1.6h-3.2
				l-1.6-1.6l-1.6-3.2l1.6-1.6l0.9-1l-0.1-1.4l-4-4l-6.4-3.2h-3.2l-1.6-3.2h-4.8l-3.2-1.6h-3.2l-6.4-4.8l-3.2-1.6l-1.6-3.2h-3.2
				l-4.8-4.8l-4.8-3.2l-4.8-3.2l-4.8-1.6l-1.6-4.8l-3.2-3.2l-9.5-9.5l-3.2-3.2l-3.2-6.3l-9.5-9.5l-7.9-4.8l-4.8-3.2h-6.4l-6.4,3.2
				l-4.8,3.2l-1.6,1.6l1.6,3.2l-3.2,1.6l-1.6,3.2l1.6,3.2v1.6l-1.6,3.2l1.6,4.8l3.2,1.6l-1.6,4.8l-6.4,6.3l-11.1,4.8h-9.5l-11.1-3.2
				l-4.8-1.6l-6.4-1.6l-9.5,1.6l-6.4,4.8l-4.8,6.3l-1.6,4.8l1.6,7.9l1.6,7.9c0,0,1.6,7.9,1.6,11.1v6.3l-11.1,28.6l-4.8,9.5l4.8,20.6
				l6.4,6.3l1.6,4.8l-3.2,7.9c0,0-4.8,9.5-6.4,11.1l-7.9,7.9h-11.1l-11.1-4.8l-4.8-4.8l-7.9-3.2l-14.3-6.3l-9.5-4.8l-4.8-3.2
				l-11.1-22.2l-11.1-22.2l-4.8-9.5l-3.2-3.2l-14.3-4.8l-14.3-3.2l-9.5-3.2l-14.3-7.9l-7.9-3.2l-4.8-3.2l-7.9-7.9l-6.3-11.1
				l-7.9-11.1l-6.3-7.9l-3.2-3.2l-4.8-7.9l-3.2-3.2l-4.8-7.9l-11.1-11.1l-9.5-9.5l-4.8-3.2l-6.3-1.6h-8.6l-18.4-3.2l-15.9-6.3
				l-7.9-4.8l-7.9-4.8l-6.3-3.2l-6.3-1.6h-5l-4.5,1.6l-7.9,4.8l-4.8,3.2l-4.8,4.8l-6.3,9.5l-4.8,4.8l-1.3,1.6h-1.9l-1.6-1.6
				l-4.8-9.5l-6.3-9.5l-3.2-4.8l-2.5-4.8l-2.3-4.8l-4.8-3.2h-4.8l-4.8,1.6l-3.2,3.2l-1.6,4.8l-1.6,7.9l-4.8,4.8l-6.3,4.8h-4.8
				l-3.6-0.7l-9.1-10.4l-7.8-11.9l-9.7-19.8l-6.3-15.9l-3.2-7.9l-3.2-9.5l-7.9-31.7l-7.9-20.6l-11.1-15.9l-12.7-9.5l-15.9-6.3
				l-20.6-6.3l-23.8-3.2h-3.8l-3.3,0.8l-6.3,3.2l-11.1,6.3l-9.5,3.2l-12.7,4.8l-11.1,4.8l-9.5,4.8l-5.7,1.5h-18l-16,2l-14,2l-14,4
				l-14,4l-10,2l-8,2h-22l-8-2l-10-2l-8-2l-10-2h-8l-8,4l-8,6l-10,12l-24,28.1l-12,14l-14,18l-6,6l-2,8v12l2,10l2,18l2,16v16l2,16
				v16l2,12l2,12v14l4,10l4,8l2,10l-2,8l-8,6h-30.6l-14,4l-10,2l-10,4l-10,2l-6-2l-8-6l-6-8h-16l-12-2l-12-4l-10-4l-8-6l-8-8l-6-4
				l-6-2v-4l2-4l4-4l2-6v-4l-2-10l-6-6l-6-2l-6,2l-4,2l-2,2l-2,2l-2,2v2l2,2l4,4v4l-2,6l-2,6l-4,6l-2,6l-2,10v4l2,6v4l-2,6v8l6,16
				l-10,10l-14,6l-6,2l-6,8l-8,8.4l-8,3.6h-12l-4-4l-4-18l2-12l-12-18l-8,2l-10,8l-20,6h-12v8l-6,8l-14,10l-14-4l-4,2l-4,2l-6,4h-6
				l-8,2l-6,2l-8,6l-6,2l-4,2l-6,2l-4,2l-8,2l-4.9-4h-28l-6-4l-6-2h-4l-6,2h-10l-4-2l-4-4l-6-4l-6-4l-6-4l-8-6l-2-2l-4-4l-4-2l-6-4
				l-4-2l-4-2l-6-4l-8.3-2h-8l-2-4l4-6l4-4l6-5.4v-2.6l-4-4l-2-2l-4-4l-2-2l-2-2h-2l-6,4l-4,4l-4,2l-4,2h-14l-6,2l-2,2l-2.2,2H706
				l-2-2v-8.1l-2-4l-8-6l-8-6l-8-6l-6-4l-10-4l-10-4l-12-4l-10-2l-10-2l-10,2l-4,2h-14l-4,2l-4-2h-6l-6-2h-6l-4-4l-4-8l-6-4l-2-4
				l-2-4l-2-4l-4-4l-6-6l-4-6l-4-4l-2-6l-4-6l-4-4l-2-2l-2-4l-4-4l-4-4l-2-4l-6-6l-2-4v-8l-2-6l-6-4l-4-4l-2-2l-2-2l-4-2l-6-2h-10
				l-4-2l-8-4h-12l-6-2h-6l-2,4l-4,2h-2l-4,2l-4,2h-4l-6-2l-6-2v-6l-2-4l-6-4l-6-4l-2-4h-4l-4,2l-2,4h-12l-6-6l-6-4l-6-6l-6-0.8
				l-7.2,3.3l-6.4,4.8l-6.3,3.2h-4.8l-6.4-1.6l-4.8-3.2l-3.1-3.2l-4.8-4.8l-1.6-1.6l-6.4-1.6h-3.2l-3.2,1.6l-2.9,1.5l-8-2h-4l-6-2
				H227l-6-2l-4-4v-4l-2.1-4.9l-3.9-1.1l-6-0.4h-14l-4,0.4l-2,2l-2,6l-2,6l-8,4l-2.5,2.1l-6.4,1.6h-6.4l-6.4-1.6l-5.8-0.6h-12l-8,2
				l-6,2l-6,4l-6,4l-8,4l-8,4l-6,2l-10,2H53.4l-6-2l-8-6l-14-2l-8-2l-6-2h-8l-4,4l-2,6c0,0,1.3,1.9,2,3.2v0.8v10l-4,6l-4,6l-2,6
				l-2,10l-6,4l-4,2l-4,4l-6,6l-8,4l-6,4l-4,4l-4,4l-2,6l-2,6l-4,8l-4,6l-6,6l-10,6l-6,2l-6,2l-8,2l-8,2h-8l-8-2l-6-2l-6-4l-4-2
				l-6.4-8.2l-7.1-7.1h-8.2l-6.1,3.2l-4.8,1.6h-4.6l-2.5-0.8l-3.2-1.6l-4.8,1.6l-4.8,3.2l-4.8,3.2l-1.6,3.2l-3.2,4.8l-1.6,3.2
				l-3.2,1.6l-7.9,1.6h-4.8l-3.2-1.6l-1.6-1.6l-1.6,1.6l-3.2,3.2l-4.8,3.2H-250l-27.7,7.9l-17.5,6.3l-23.8,11.1l-12.7,7.9l-4.8,4.8
				l-3.2,4.8l-1.6,6.3l-1.6,7.9l-1.6,11.1l-3.2,7.9l-6.4,6.3l-4.8,6.3l-1.6,3.2v4.8l1.6,11.1l1.6,9.5l1.6,6.3l-1.6,23.8v14.3
				l1.6,6.3l4.8,6.3l6.4,6.3l9.5,3.2l7.9,4.8l6.4,6.3l6.4,9.5l7.9,12.7l3.2,6.3l1.6,3.2l3.2,1.6l1.6,1.6l3.2,4.8l11.1,6.3h10.9
				l5,3.2l3.2,1.6l3.2,1.6h3l3.3,1.6l4.8,1.6h5.4l10.5,1.6l7.9-1.6l6.4-1.6h4.8l4.8-3.2l7.9-3.2l4.8-3.2l1.6-1.6l3.2,1.6l6.4,1.6
				l4.8,1.6l3.2,7.9v6.3l-3.2,7.9l-3.2,4.8l-1.6,7.9v4.8l-3.2,3.2l-3.2,3.2l1.6,1.6v1.8l-1.6,1.6v3.2l3.2,1.6l3.2,1.6l1.6,3.2
				l-1.6,3.2l1.6,4.8l4.8,4.8l6.4,4.8l1.6,1.6l1.6,4.8l1.6,1.6l6.4-1.6l1.9,1.6l1.3,3.2l2.4,5.9l0.8,6.8l3.2,3.2l3.2,1.6v7.2
				l4.8,10.3v5.7l1.6,7l1.6,1.6l-3.2,7.9l-1.6,7.9l-1.6,11.1l-3.2,4.8l1.6,3.2l4.8,4.8l1.6,1.6v9.5l3.2,9.5l4.8,7.9l1.6,3.2l1.6,6.3
				l4.8,4.8l6.3,1.6l3.2,3.2l4.8,1.6l1.6,1.6l4.8,1.6l1.6,1.6h6.3l4.8,1.6l3.2,3.2v3.2l1.6,1.6l1.6-3.2l3.2-4.8l3.2-1.6h1.6l3.2-1.6
				l1.6-3.2v-3.2l1.6-3.2l1.6-1.6h6.3l3.2-1.6v-7.7l1.6-1.8l1.6-3.2v-2.5l1.6-2.2l1.6-3.2h3.2l3.2,3.2l4.8,3.2l1.6,3.2l1.6,3.2
				l1.6,1.6l4.8,1.6l1.6,3.2l4.8,4.8l4.8,3.2v3.2l-3.6,3.2l-1.6,3.2v1.6l-3.2,1.6l-1.6,1.6l1.6,1.6l7.9,6.3l1.6,3.2l-3.2,7.9v3.2
				l1.6,3.2l3.2,3.2l7.9-1.6l2.4,1.6l7.2,7.9l4.8,7.9l1.6,3.2v1.7l-1.6,1.5v4.8L3,1645l3.2,3.4l1.6,4.8v12.9l1.6,22l-1.6,4.8
				l-6.3,17.5l-9.5,17.5l-1.6,4.8l-1.6,6.3l-3.2,4.8v0.8L2767.1,1744.5z"/>
		</g>
		<g id="KLN_2019" class="st4">
			<polyline class="st2" points="1434.2,386.4 1433.6,386.4 1433.3,385.8 1432.5,385 1431.3,383.1 			"/>
			<line class="st5" x1="1426.9" y1="376.4" x2="1393.8" y2="325.6"/>
			<polyline class="st2" points="1391.6,322.2 1390.8,321 1390.5,320.4 1390.5,319.8 1390.8,319.3 1391.1,318.7 1391.6,318.7 
				1392.2,318.7 1392.8,318.7 1393.3,319 1393.9,320.1 1394.1,320.4 			"/>
			<line class="st6" x1="1398.6" y1="327.3" x2="1432.6" y2="378.8"/>
			<polyline class="st2" points="1434.9,382.2 1435.9,383.8 1436.2,384.7 1435.9,385.2 1435.9,385.8 1435.3,386.1 1435.1,386.4 
				1434.5,386.4 1434.2,386.4 			"/>
			<polyline class="st2" points="1434.8,427.2 1434.2,427.2 1433.6,427.2 1433.3,426.7 1433.1,426.4 1432.8,425.8 1433.1,425.2 
				1433.1,424.9 1433.3,424.4 1433.9,424.1 1435.5,423.3 			"/>
			<polyline class="st7" points="1442.6,419.6 1536.8,370.7 1537.3,370.7 1537.6,370.4 1538.2,370.4 1538.8,370.7 1539,371 
				1539.3,371.8 1539.3,372.1 1539.3,372.7 1539,373.2 1538.5,373.5 1441.9,423.7 			"/>
			<polyline class="st2" points="1438.4,425.5 1435.6,426.9 1434.8,427.2 			"/>
			<polyline class="st2" points="512.9,513.8 514.9,513.8 515.8,513.8 516.3,514.1 516.9,514.9 516.9,515.5 516.9,516.4 
				516.3,516.9 515.8,517.5 514.6,517.8 513.4,517.8 			"/>
			<polyline class="st8" points="505.7,515.4 504.9,514.9 502.3,513.5 500.6,512.1 499.5,510.6 497.8,507.8 496.9,505.5 
				496.3,502.9 496,499.8 495.8,496.4 496.3,329 496.3,327.8 496,327 496,325.8 495.8,325 494.9,323 493.5,320.7 492.3,319 
				490.6,317.8 488.3,316.4 486.8,315.6 			"/>
			<polyline class="st2" points="482.8,314.8 481.8,314.7 480.9,314.7 480.3,314.4 480,314.1 479.8,313.5 479.5,313.3 479.5,313 
				479.5,312.4 479.5,311.8 479.8,311.5 480,311.3 480.3,311 480.6,310.7 480.9,310.4 481.2,310.4 481.8,310.4 482.3,310.4 
				484.3,310.7 484.9,310.8 			"/>
			<polyline class="st9" points="492.2,313.6 494.6,315.5 496.3,317.3 498,320.1 499.2,323 499.8,326.4 500,329.2 500,340.7 
				500,483.5 500,500.4 500,502.1 500.9,504.4 502.6,507.5 504,509.5 505.6,510.8 			"/>
			<polyline class="st2" points="509.1,512.6 510.9,513.2 512.9,513.8 			"/>
			<line class="st2" x1="948.2" y1="809.1" x2="952.2" y2="808.8"/>
			<polyline class="st2" points="959.3,808.3 963.3,808 960.7,811 			"/>
			<polyline class="st2" points="953,820 950.5,823.1 950.2,823.1 950.2,823.4 949.9,823.4 949.6,823.4 949.6,823.7 949.3,823.7 
				949,819.7 			"/>
			<line class="st2" x1="948.5" y1="813.1" x2="948.2" y2="809.1"/>
			<line class="st2" x1="947.3" y1="819.4" x2="943.3" y2="819.7"/>
			<line class="st10" x1="936.8" y1="820.3" x2="927.1" y2="821.1"/>
			<polyline class="st2" points="923.9,821.3 919.9,821.7 919.6,817.7 			"/>
			<polyline class="st2" points="919.1,811.4 918.8,807.4 915.3,807.7 915.3,808.8 913.5,811 			"/>
			<polyline class="st2" points="909.9,815.2 907.3,818.2 910.3,820.9 			"/>
			<polyline class="st11" points="915.7,825.5 915.9,825.7 916.2,825.7 916.5,826 916.8,826 917,826 917.6,826 940.1,824.2 			"/>
			<polyline class="st2" points="943.6,824 947.6,823.7 947.3,819.4 			"/>
			<line class="st2" x1="1636.1" y1="289.8" x2="1633.2" y2="287"/>
			<line class="st5" x1="1627.4" y1="281.4" x2="1513.9" y2="172.2"/>
			<polyline class="st2" points="1511,169.4 1508.1,166.6 1509.5,165.2 1509.5,163.2 			"/>
			<line class="st12" x1="1512.2" y1="155.6" x2="1522.1" y2="129"/>
			<polyline class="st2" points="1523.6,125.2 1525,121.5 1528.6,123.1 			"/>
			<line class="st13" x1="1535" y1="128" x2="1661.7" y2="250.1"/>
			<polyline class="st2" points="1664.6,253 1667.5,255.8 1666.9,258.9 1666.4,259.5 			"/>
			<line class="st14" x1="1661" y1="265.1" x2="1642.1" y2="284.8"/>
			<polyline class="st2" points="1639.3,287.6 1638.1,288.9 1636.1,289.8 			"/>
			<polyline class="st2" points="141.9,220.8 139.4,223.3 139.1,223.6 			"/>
			<polyline class="st2" points="137.3,225.3 134.4,228.1 133.3,224.4 127.5,225.5 127.3,224.1 123.3,225 			"/>
			<polyline class="st2" points="119.2,225.9 115.3,226.7 114.4,228.4 114.8,230.4 			"/>
			<polyline class="st15" points="116.2,238.2 127.3,297 127.3,297.8 127,298.4 126.4,299 67.8,310 			"/>
			<polyline class="st2" points="63.9,310.8 63,311 61.3,311.3 60.7,311 60.1,310.7 59.8,309.5 53.8,310.7 53.5,308.4 57.5,307.6 
							"/>
			<line class="st16" x1="65.9" y1="306.1" x2="112.3" y2="297.4"/>
			<polyline class="st2" points="116.5,296.6 120.4,295.8 119.7,291.9 			"/>
			<line class="st17" x1="118.3" y1="284.4" x2="104.9" y2="213.2"/>
			<polyline class="st2" points="104.3,209.5 103.5,205.6 99.6,206.3 			"/>
			<line class="st18" x1="90.9" y1="207.9" x2="25.8" y2="220"/>
			<polyline class="st2" points="21.5,220.8 17.5,221.6 18.3,225.5 			"/>
			<line class="st19" x1="19.8" y1="233.8" x2="34.1" y2="312.4"/>
			<polyline class="st2" points="34.2,316.4 33.8,317.3 33.3,318.1 31.5,319.3 32.4,323.1 			"/>
			<polyline class="st2" points="33.8,329.1 33.8,329.5 33.8,330.7 32.4,332.7 30.1,333 28.7,332.4 28.6,332.3 			"/>
			<line class="st20" x1="26.8" y1="325" x2="13.8" y2="254.9"/>
			<polyline class="st2" points="13.1,251.2 12.4,247.3 8.9,245.4 			"/>
			<polyline class="st21" points="2.1,241.7 -28.7,225 -36.3,225.2 			"/>
			<line class="st22" x1="-217.6" y1="81.1" x2="50.8" y2="-3.5"/>
			<polyline class="st22" points="1942.7,431.4 1925.6,408.1 1906.7,385.2 1833.6,305.3 1819.6,291.9 			"/>
			<polyline class="st2" points="1816.7,289.2 1813.8,286.4 1811.1,289.3 			"/>
			<line class="st23" x1="1805.6" y1="295" x2="1764.2" y2="338.1"/>
			<polyline class="st2" points="1761.5,340.9 1758.7,343.8 1755.8,341 			"/>
			<line class="st21" x1="1750.3" y1="335.7" x2="1686.1" y2="273.9"/>
			<polyline class="st2" points="1683.3,271.2 1680.4,268.4 1677.7,271.3 			"/>
			<line class="st24" x1="1672.3" y1="276.8" x2="1653.7" y2="296.2"/>
			<polyline class="st2" points="1651,299 1650.2,299.8 1649,302.4 1651.9,305.2 			"/>
			<line class="st25" x1="1658.3" y1="311.4" x2="1693.5" y2="345.4"/>
			<polyline class="st2" points="1696.7,348.4 1697.9,349.5 1700.2,350.4 1701,349.5 1703.9,352.1 1705.3,350.4 1707.6,352.7 
				1707,353.5 1707,354.1 1707,354.7 1707.3,355 1709.9,357.5 			"/>
			<polyline class="st21" points="1715.4,362.9 1716.7,364.1 1751.9,397.8 1771.9,416.9 1776.7,421.5 1781,424.7 1791.3,431.5 
				1793,432.4 1793.2,432.5 			"/>
			<polyline class="st2" points="1796.9,433.7 1800.7,434.9 1803.5,432.1 			"/>
			<polyline class="st2" points="1807.6,428.1 1810.4,425.2 1807.8,422.7 1804.4,426.4 1803.6,425.5 1807.8,420.9 1810.8,423.7 			
				"/>
			<polyline class="st26" points="1817.1,428.6 1856.1,465.8 1858.7,470.6 1859.8,475.8 1857.7,488.7 			"/>
			<polyline class="st2" points="1857.1,492.7 1856.4,496.6 1859.1,499.6 			"/>
			<polyline class="st22" points="1864.3,505.6 1867,508.6 1900.4,541.2 1901.6,543.2 1902.1,544.9 1901.6,548.1 1900.1,550.9 
				1870.1,582.3 1866.1,582.6 1864.1,582.6 1862.1,582.1 1860.1,580.6 1754.1,478.4 1750.4,474.9 1717.6,443.3 			"/>
			<polyline class="st2" points="1714.8,440.6 1711.9,437.8 1711.6,438.4 1708.7,435.6 			"/>
			<polyline class="st27" points="1702.8,429.8 1698.4,425.5 1698.2,425.5 1691,423.2 1669.3,402.4 1662.2,391 1658.9,387.8 			"/>
			<polyline class="st2" points="1655.9,384.9 1653,382.1 1651.3,383.8 1649,381.8 1649.9,380.7 1651.3,382.1 1652.4,381.5 
				1649.6,378.8 			"/>
			<line class="st27" x1="1643.6" y1="373" x2="1634.7" y2="364.4"/>
			<polyline class="st2" points="1631.7,361.5 1629.9,359.8 1629.6,359.2 1629.6,359 1629.6,358.4 1626.7,355.6 			"/>
			<line class="st28" x1="1623.4" y1="352.4" x2="1618.4" y2="347.6"/>
			<polyline class="st2" points="1616.8,346 1613.9,343.2 1613.6,343.5 1613.3,343.5 1613,343.5 1612.7,343.2 1610.2,340.7 			"/>
			<polyline class="st2" points="1607.7,338.5 1605.9,337.8 1604.2,337.2 1603.9,337.2 1603.3,337.8 1602.7,337.5 1600.4,335.1 			
				"/>
			<polyline class="st2" points="1600.1,334.9 1597.3,332.1 1597.9,331.5 1598.4,331.2 1597.3,329.2 1597,329 1596.4,327.8 			"/>
			<polyline class="st2" points="1592.2,324.1 1591.9,323.8 1589.9,323.3 1588.7,323.3 1588.4,323.5 1585.6,320.7 			"/>
			<polyline class="st2" points="1585.4,320.5 1583,318.1 1582.5,317.8 1582.7,317.5 1583.3,317.8 1583.6,317.3 1583.6,316.1 
				1583.3,314.7 1582.8,314.1 			"/>
			<polyline class="st29" points="1576.9,308.5 1504.5,239.3 1428,165.7 			"/>
			<polyline class="st2" points="1425.1,162.9 1422.2,160.1 1418.7,162.1 			"/>
			<polyline class="st30" points="1412.1,165.8 1405.1,169.8 1403.7,172.8 			"/>
			<polyline class="st2" points="1402.2,176.2 1400.5,179.8 1401.6,180.1 1399.1,185.6 1400.2,186.1 1399.3,188.4 1397.1,187.3 
				1395.4,190.9 			"/>
			<line class="st31" x1="1393.4" y1="195.1" x2="1390.6" y2="201.3"/>
			<polyline class="st2" points="1389.6,203.4 1387.9,207 1389.9,207.8 1389.1,209 1387.3,208.4 1385.3,213 1387.1,213.8 
				1384.5,219.8 1382.5,219 1380.2,224.1 1382.5,227 1382.8,227.1 			"/>
			<polyline class="st2" points="1388.8,229.9 1392.5,231.5 1392.5,231.8 1392.8,231.8 1392.8,232.1 1393.1,232.1 1393.1,232.4 
				1393.3,232.7 1393.3,233 1393.3,233.3 1393.3,233.5 1393.1,234.1 1393.1,234.4 1392.8,235 1392.8,235.3 1392.5,235.5 
				1392.2,235.8 1391.9,235.8 1391.7,235.9 			"/>
			<line class="st32" x1="1388" y1="235.1" x2="1382.6" y2="232.5"/>
			<polyline class="st2" points="1380.7,231.7 1380.5,231.5 1376.8,231.5 1375.1,235.2 			"/>
			<polyline class="st2" points="1374.5,236.5 1372.8,240.1 1375.9,241.8 1376.5,241 1377.6,241.8 1378.8,241.8 1380,242.5 			"/>
			<polyline class="st2" points="1382.4,243.9 1385.9,245.8 1385.6,246.4 1382.2,244.4 			"/>
			<polyline class="st2" points="1381.2,243.8 1378.8,242.4 1377.6,242.4 1376.5,244.7 1377.1,245.5 1376.5,246.1 1375.9,245 
				1374.5,244.1 1375.1,243.3 1372.2,241.5 1370.5,245.2 			"/>
			<polyline class="st33" points="1366.8,253.1 1347.1,295.8 1346.6,296.6 			"/>
			<polyline class="st2" points="1344.1,300.2 1341.9,303.5 1342.8,305.8 1344.8,307 1340.2,307.8 1339.9,309.3 1335.3,311 
				1337.1,311.5 1336.5,313 1334.5,312.4 1333.9,310.1 1331.6,311.8 1331.5,315.8 			"/>
			<line class="st34" x1="1331.1" y1="323.8" x2="1328" y2="399.5"/>
			<polyline class="st2" points="1327.8,403.5 1327.6,407.5 1331.6,407.6 			"/>
			<polyline class="st2" points="1333.3,407.7 1337.3,407.8 1337.2,411.8 			"/>
			<polyline class="st2" points="1337.2,411.8 1337.1,415.8 1333.1,415.7 			"/>
			<polyline class="st2" points="1331.3,415.6 1327.3,415.5 1326.8,421.8 1330.6,423 			"/>
			<polyline class="st33" points="1338.9,425.6 1339.9,425.9 1353.1,438 1376.6,455.2 			"/>
			<polyline class="st2" points="1380.1,457.8 1383.3,460.2 1382.6,464.1 			"/>
			<line class="st35" x1="1381.2" y1="472.1" x2="1376.2" y2="499.8"/>
			<polyline class="st2" points="1375.5,503.7 1374.8,507.7 1376.8,509.4 1377.1,508 1382.2,508.8 1380.8,516.5 1375.6,515.4 
				1376.5,510.2 1374.5,508.5 1373.6,512.4 			"/>
			<polyline class="st36" points="1371.6,521 1360.8,568.8 1361.6,572.8 1365.4,585.3 			"/>
			<polyline class="st2" points="1366.7,589.5 1367.6,592.5 1367.6,592.8 1367.6,593.1 1367.6,593.4 1367.3,593.4 1365.9,594.5 
				1364.4,595.6 			"/>
			<polyline class="st37" points="1356.8,601 1335.3,616.5 1330.2,617.1 1329.5,616.7 			"/>
			<polyline class="st2" points="1325.3,614.8 1321.6,613.1 1320,616.7 			"/>
			<polyline class="st38" points="1318.2,620.8 1316.5,624.5 1314.1,625.6 			"/>
			<polyline class="st2" points="1312.1,626.5 1308.5,628.2 1309.9,631.7 1309.9,631.9 1309.9,632.2 1309.6,632.2 1309.6,632.5 
				1306,634.1 			"/>
			<polyline class="st2" points="1301.8,635.9 1299.1,637.1 1298.8,637.4 1298.5,637.4 1298.2,637.4 1298.2,637.1 1297.9,636.8 
				1296.5,633.7 1292.8,635.2 			"/>
			<polyline class="st2" points="1284.9,638.8 1281.3,640.5 1281.9,642.2 1281.9,644.2 1282,644.4 			"/>
			<polyline class="st2" points="1285.5,652.3 1287.1,655.6 1287.1,655.9 1286.8,656.2 1283.1,657.9 1282.8,658.2 1282.5,658.2 
				1282.2,657.9 1281.9,657.6 1280.7,655 			"/>
			<polyline class="st2" points="1276.8,646.6 1276.8,646.5 1275.3,645.1 1274.5,643.4 1271.3,645.1 1271,645.3 			"/>
			<line class="st39" x1="1263.3" y1="648.7" x2="1174.6" y2="688"/>
			<polyline class="st2" points="1170.7,689.7 1167.1,691.3 1165.4,687.7 			"/>
			<line class="st40" x1="1163.6" y1="683.6" x2="1160.8" y2="677.4"/>
			<polyline class="st2" points="1159.9,675.3 1158.2,671.6 1154.2,671.6 			"/>
			<polyline class="st2" points="1144.8,671.6 1140.8,671.6 1140.8,675.6 			"/>
			<line class="st41" x1="1140.9" y1="683" x2="1141" y2="708.5"/>
			<polyline class="st2" points="1141.1,712.2 1141.1,716.2 1137.6,718.2 			"/>
			<line class="st42" x1="1133.8" y1="720.4" x2="1128.2" y2="723.7"/>
			<polyline class="st2" points="1126.3,724.8 1122.8,726.8 1120.8,723.3 			"/>
			<polyline class="st2" points="1119.4,720.8 1117.4,717.3 1120.8,715.3 			"/>
			<polyline class="st2" points="1127.1,711.7 1130.5,709.6 1130.5,705.6 			"/>
			<line class="st43" x1="1130.5" y1="696" x2="1130.5" y2="681.6"/>
			<polyline class="st2" points="1130.5,676.8 1130.5,672.8 1128.2,676.1 			"/>
			<polyline class="st44" points="1121.7,679.9 1117.4,680.5 1110.3,680.6 1101.4,681.7 1094.3,684.5 			"/>
			<polyline class="st2" points="1090.5,685.6 1086.5,686.2 1086.2,685.9 1085.7,683.9 1084.8,683.9 1083.4,685.4 1080.2,688.2 
				1080.2,687.9 1077.2,690.6 			"/>
			<polyline class="st45" points="1071.4,695.8 1064.8,701.6 1037.1,726.5 1033.9,729.3 1020.5,741.3 1012.5,748.5 1006.5,753.9 
				996.8,766.2 996.3,766.8 996,767.3 995.7,767.9 995.4,768.5 994.8,769.3 994.5,770.5 994,772.2 988.3,788.5 987.7,789.6 
				987.4,790.8 986.5,792.2 986,793.3 985.4,794.5 984.3,795.9 983.7,797 982.8,797.9 982,798.8 980,801.3 957.1,827.9 943.8,829.3 
				923.5,831 913.3,831.9 912.7,831.9 912.1,831.9 911.5,831.9 911,831.6 910.4,831.3 909.8,831 909.3,830.8 901,823.6 892.5,824.2 
							"/>
			<polyline class="st2" points="888.7,824.5 884.7,824.8 884.7,825 879,825.6 879,825.3 875,825.7 			"/>
			<line class="st46" x1="870.6" y1="826" x2="864.1" y2="826.5"/>
			<polyline class="st2" points="861.9,826.7 861,826.8 859,829 857.5,829 855,829.3 			"/>
			<polyline class="st47" points="847.5,829.8 828.7,831.3 827.3,830.5 825.7,824.8 			"/>
			<polyline class="st2" points="824.6,821.2 823.5,817.3 823,817.3 821.8,817 820.7,816.8 819.8,816.5 819.3,816.2 817,819 
				816.6,819.1 			"/>
			<polyline class="st2" points="811.2,822.8 808.7,825.9 808.4,825.6 807.8,826.8 806.1,828.9 			"/>
			<polyline class="st2" points="802.6,827.7 805,824.5 805.3,824.8 805.8,823.6 807.5,821.5 			"/>
			<polyline class="st2" points="808.9,819.7 810.1,818.2 810.7,816.2 810.1,815.6 809.3,815 808.4,813.9 807.9,813.3 			"/>
			<polyline class="st2" points="805.5,810.4 803,807.3 801.5,808.2 800.1,810 			"/>
			<polyline class="st2" points="799.5,810.8 797,813.9 797,813.6 796.1,814.8 796.4,814.8 794.4,817.3 793.8,818.2 793.5,818.5 
				793,818.5 792.7,818.8 792.1,818.5 791.8,818.5 791.3,818.2 791,817.9 790.7,817.3 790.7,816.5 790.9,816 			"/>
			<polyline class="st2" points="791,815.6 793.5,812.5 793.5,812.8 794.4,811.6 794.1,811.6 796.6,808.5 			"/>
			<polyline class="st2" points="801.5,801.8 804.7,799.3 803.9,795.4 			"/>
			<polyline class="st2" points="802.1,787 801.3,783 797.3,783.9 			"/>
			<line class="st48" x1="789.2" y1="785.6" x2="727.9" y2="798.4"/>
			<polyline class="st2" points="723.8,799.2 720.4,799.9 720.1,799.9 719.8,799.9 719.8,799.6 719.8,799.3 719.1,796 			"/>
			<polyline class="st2" points="717.1,787.4 716.4,784.5 716.4,784.2 716.7,783.9 716.7,783.6 717.3,783.6 720.6,782.9 			"/>
			<line class="st49" x1="728.4" y1="781.3" x2="786.3" y2="769"/>
			<polyline class="st2" points="790.2,768.2 794.1,767.3 794.1,767.1 793.3,767.3 792.4,767.3 791.5,767.1 791,766.8 790.4,766.4 
							"/>
			<polyline class="st2" points="793.2,759.3 793.5,759.3 794.4,759.6 795.3,760.2 796.1,760.8 796.4,761.3 796.7,761.1 
				795.9,757.2 			"/>
			<line class="st50" x1="793.9" y1="748.1" x2="791.1" y2="734.6"/>
			<polyline class="st2" points="790.1,730.1 789.3,726.2 785.3,727 			"/>
			<polyline class="st51" points="778.5,728.5 770.1,730.2 754.7,733.4 			"/>
			<polyline class="st2" points="751.3,734.2 751,734.2 750.7,734.2 750.4,733.9 750.1,733.3 749.8,731.9 749.8,731.6 750.1,731.1 
				750.4,731.1 750.7,730.8 753.9,730.1 			"/>
			<line class="st5" x1="761.8" y1="728.4" x2="773.7" y2="725.9"/>
			<polyline class="st2" points="777.6,725 781.5,724.2 780.4,719.3 787.5,717.9 786.8,714 			"/>
			<polyline class="st2" points="785.8,708.7 785,704.8 781.1,705.6 			"/>
			<line class="st34" x1="773.3" y1="707.3" x2="746" y2="713.1"/>
			<polyline class="st2" points="742,713.9 738.1,714.8 737,709.1 740.9,708.3 			"/>
			<line class="st9" x1="748.7" y1="706.6" x2="775.8" y2="701"/>
			<polyline class="st2" points="779.6,700.2 783.5,699.3 783.5,699.1 782.8,695.4 			"/>
			<line class="st52" x1="782" y1="691.5" x2="780.8" y2="685.5"/>
			<polyline class="st2" points="780.4,683.6 779.5,679.6 777.8,679.9 777.6,680.5 773.8,681.4 773.6,681.1 770.7,681.6 
				769.6,681.9 			"/>
			<polyline class="st53" points="762.7,683.3 741,687.9 735.6,689.1 727.6,690.8 724.7,691.4 			"/>
			<polyline class="st2" points="721.2,691.2 721,691.1 720.4,690.2 720.1,689.6 720.1,689.1 720.1,688.5 720.4,687.9 720.4,687.6 
				721,687.1 721.3,686.8 721.8,686.2 723.8,685.8 			"/>
			<polyline class="st54" points="733.8,683.7 737.8,682.8 748.9,680.6 			"/>
			<polyline class="st2" points="753.9,679.6 757.8,678.8 757.8,678.5 761.8,677.6 			"/>
			<polyline class="st2" points="764.2,677.1 768.1,676.2 768.4,675.6 767.6,671.4 772.7,670.2 771.8,666.8 767.9,667.7 			"/>
			<polyline class="st2" points="767.6,666.2 771.6,665.4 771,662.8 773,662.5 772.7,658.5 			"/>
			<polyline class="st55" points="772.2,649.5 771.6,639.1 771.3,638.5 770.7,638.2 762.7,639.1 755.8,639.7 754.4,639.9 
				753.6,640.2 751.4,641.7 			"/>
			<polyline class="st2" points="747.7,644.2 744.4,646.5 743,644.8 746.3,642.5 			"/>
			<polyline class="st2" points="750,639.9 753.3,637.7 749.4,638.5 			"/>
			<polyline class="st15" points="741.7,640 702.1,645.4 678.7,648.5 659.9,650.5 616.6,656.6 589.5,666.9 587.5,668.9 584.9,671.2 
				582.3,673.5 578.6,676.9 574,682.3 568.9,693.2 567.5,694.3 565.5,694.6 558.9,694.3 523.2,694.6 516,694.3 510,694.9 506,694.3 
				497.8,688 492.3,682.9 486.3,675.2 484.6,671.2 484.6,640.9 484.3,636.9 484.6,633.5 484.3,625.8 484.6,619.8 484.9,614.9 
				486,609.8 489.2,602.9 490.3,601.2 491.3,599.6 			"/>
			<polyline class="st2" points="493.8,596.6 495.8,594.6 496.6,593.8 496.6,590.3 496.6,589.8 			"/>
			<polyline class="st56" points="496.6,582.3 496.6,582.1 496.9,580.3 496.6,570.9 496.6,564.3 496.6,561.2 496,558.6 494.6,555.5 
				492.6,553.2 490,550.9 485.8,549.2 484.3,549.2 482.3,549.2 480.6,548.6 480,548.1 479.8,547.2 479.8,546.3 480,545.5 
				480.6,545.2 481.5,544.9 483.8,545.2 485.5,545.5 488.6,546.3 491.5,547.8 494.3,550.3 496.6,552.9 497.8,554.9 499.2,558.3 
				499.8,560.9 500,563.5 500,572 			"/>
			<polyline class="st2" points="500,575.8 500,579.8 504,579.8 			"/>
			<line class="st12" x1="512.2" y1="579.7" x2="540.6" y2="579.5"/>
			<polyline class="st2" points="544.6,579.5 548.6,579.5 550.9,576.2 			"/>
			<polyline class="st57" points="555.4,569.8 610,491.8 609.8,286.4 600.6,262.1 			"/>
			<polyline class="st2" points="599.2,258.4 597.8,254.7 593.8,254.7 			"/>
			<line class="st8" x1="585.6" y1="254.7" x2="508.1" y2="254.7"/>
			<polyline class="st2" points="504,254.7 500,254.7 500.1,258.7 			"/>
			<polyline class="st58" points="500.3,265.8 500.6,279.3 500,280.1 498,281 497.2,280.7 496.6,280.1 496,278.7 496,276.7 
				496,259.3 			"/>
			<polyline class="st2" points="496,255.7 496,255.3 496,254.7 496.3,253.5 496.6,253.3 496.9,253 497.2,252.7 497.8,252.7 
				497.8,248.7 			"/>
			<polyline class="st59" points="497.8,240.4 497.8,180.1 497.8,153 480,122.7 475.4,118.8 			"/>
			<polyline class="st2" points="472.3,116.1 469.2,113.6 466.6,116.6 			"/>
			<line class="st60" x1="460.5" y1="124" x2="451.4" y2="135.1"/>
			<polyline class="st2" points="448.3,138.8 445.8,141.8 445.2,141.8 442.6,139.7 			"/>
			<polyline class="st2" points="436.2,134.4 433.8,132.4 433.5,131.6 436.1,128.5 			"/>
			<line class="st61" x1="442.3" y1="121.1" x2="451.5" y2="110"/>
			<polyline class="st2" points="454.6,106.3 457.2,103.3 454.1,100.7 			"/>
			<line class="st62" x1="450.8" y1="98.1" x2="445.9" y2="94"/>
			<polyline class="st2" points="444.3,92.7 441.2,90.1 438.7,93.3 			"/>
			<polyline class="st2" points="435.4,97.3 432.9,100.4 431.2,99 433.7,95.9 			"/>
			<polyline class="st2" points="437,91.8 439.5,88.7 436.4,86.2 			"/>
			<polyline class="st2" points="432.6,83 429.5,80.4 426.9,83.5 			"/>
			<polyline class="st2" points="423.8,87.3 421.2,90.4 419.5,89 422,85.9 			"/>
			<polyline class="st2" points="425.2,82.1 427.8,79 424.7,76.4 			"/>
			<polyline class="st2" points="419.1,71.6 416.1,69 412.9,72.7 411.5,71.6 414.4,67.9 411.3,65.3 			"/>
			<line class="st63" x1="406.6" y1="61.5" x2="399.7" y2="55.8"/>
			<polyline class="st2" points="397.4,53.8 394.4,51.3 391.8,54.4 			"/>
			<polyline class="st2" points="387.2,59.9 384.6,63 381.2,60.1 383.8,57.1 			"/>
			<polyline class="st2" points="388.4,51.5 390.9,48.4 387.9,45.8 			"/>
			<line class="st64" x1="383.9" y1="42.4" x2="378" y2="37.3"/>
			<polyline class="st2" points="376,35.6 372.9,33 370.4,36.1 			"/>
			<polyline class="st2" points="366,41.6 363.5,44.7 360.1,41.9 362.7,38.8 			"/>
			<polyline class="st2" points="367.2,33.5 369.8,30.4 366.7,27.9 			"/>
			<polyline class="st65" points="360.9,23.3 348.9,13.6 339.4,7.6 329.4,1.6 313.1,-8.7 311.1,-10.1 276.6,-31.7 			"/>
			<polyline class="st2" points="242.4,-4 245.7,-1.8 245.4,-1.2 242,-3.3 			"/>
			<polyline class="st2" points="240.9,-4 237.4,-6.1 236,-3.8 239.7,-1.5 239.1,-0.7 235.8,-2.8 			"/>
			<polyline class="st2" points="234,0.1 237.4,2.2 236.9,3 233.2,0.8 231.1,4.2 			"/>
			<polyline class="st2" points="227.2,10.5 225.2,13.9 228.6,16 			"/>
			<polyline class="st2" points="235.5,20.4 238.9,22.5 238,24.2 234.6,22.1 			"/>
			<polyline class="st2" points="225.7,16.6 222.3,14.5 225.2,9.6 221.8,7.5 			"/>
			<line class="st66" x1="215.5" y1="3.6" x2="193.7" y2="-10"/>
			<line class="st67" x1="180.7" y1="-3.4" x2="174" y2="7.4"/>
			<polyline class="st2" points="171.8,11.1 169.7,14.5 173.1,16.6 			"/>
			<polyline class="st68" points="180.8,21.2 189.4,26.5 192.4,28.2 			"/>
			<polyline class="st2" points="196.3,30.5 199.7,32.5 200,32.2 200.6,32.2 200.9,32.2 201.4,32.2 203.7,33.5 			"/>
			<polyline class="st69" points="209.5,37 239.4,54.8 239.7,55 240,55.6 240,56.2 240,56.5 239.8,56.9 			"/>
			<polyline class="st2" points="236.9,57.1 233.4,55 230.6,56.8 230,57 			"/>
			<polyline class="st34" points="222.9,60.6 218.9,62.8 216.9,64.5 206.3,72.8 191.2,87.9 189.8,89.2 			"/>
			<polyline class="st2" points="186.9,92 184,94.8 186.9,97.6 			"/>
			<polyline class="st70" points="191.9,102.6 194.6,105.3 199.5,110.1 			"/>
			<polyline class="st2" points="202,112.5 204.9,115.3 204.9,115.6 205.4,116.2 208.3,113.3 			"/>
			<polyline class="st2" points="209.4,112.2 212,109.6 212.3,109.6 212.9,110.2 212.9,110.5 210.9,112.6 			"/>
			<polyline class="st2" points="209.4,114.1 206.6,117 208.9,119.3 211.7,116.5 			"/>
			<polyline class="st2" points="212.6,115.6 215.4,112.8 216.9,113.9 216.9,114.2 214.3,116.8 			"/>
			<polyline class="st2" points="213.1,117.9 210.3,120.8 211.7,122.5 217.2,117 217.2,116.8 217.4,116.8 217.4,117 218,117.6 
				218.3,117.6 218.3,117.9 218,117.9 212.6,123.3 215.4,126.1 			"/>
			<line class="st71" x1="218.5" y1="129.1" x2="223.1" y2="133.6"/>
			<polyline class="st2" points="224.6,135.1 227.4,137.9 230.3,135.1 			"/>
			<polyline class="st2" points="238.3,127 241.1,124.2 238.3,121.3 			"/>
			<polyline class="st2" points="230,113 227.2,110.2 228.6,108.5 231.4,111.3 			"/>
			<polyline class="st2" points="236,115.9 238.9,118.8 240,117.6 243.7,121.6 244.9,120.8 241.1,117 241.1,116.8 241.7,115.9 
				245.7,119.6 248.6,116.8 			"/>
			<polyline class="st2" points="253.8,111.6 256.6,108.8 253.4,105.6 256.3,102.8 			"/>
			<polyline class="st2" points="262.6,96.4 265.4,93.6 270.9,99 274.6,95.3 269.1,89.9 272,87.1 			"/>
			<polyline class="st2" points="274.6,84.4 277.4,81.6 274,79.6 			"/>
			<line class="st72" x1="269.6" y1="76.8" x2="263" y2="72.6"/>
			<polyline class="st2" points="260.8,71.3 260,70.8 259.4,70.2 259.4,69.6 259.7,69 260,68.5 260.3,68.2 261.1,68.2 263.9,69.8 
							"/>
			<polyline class="st73" points="271,74 273.1,75.3 279.4,79.3 281.5,80.5 			"/>
			<polyline class="st2" points="285.1,82.5 287.1,83.6 288.8,84.1 289.7,88 			"/>
			<line class="st2" x1="290" y1="89.4" x2="291" y2="93.3"/>
			<g id="Piers">
				<line class="st74" x1="201" y1="79.6" x2="206.4" y2="85"/>
				<line class="st2" x1="218.4" y1="64.5" x2="221.3" y2="67.3"/>
				<line class="st2" x1="225.6" y1="71.4" x2="228.4" y2="74.2"/>
				<line class="st74" x1="192.7" y1="87.9" x2="198.1" y2="93.3"/>
				<line class="st2" x1="245.9" y1="93.5" x2="248.6" y2="96.4"/>
				<line class="st2" x1="252.8" y1="100.6" x2="255.6" y2="103.5"/>
				<line class="st75" x1="199.3" y1="102.2" x2="196.1" y2="105.3"/>
				<line class="st75" x1="200.4" y1="103.3" x2="197.3" y2="106.5"/>
				<line class="st2" x1="210.4" y1="70.8" x2="213.3" y2="73.6"/>
				<line class="st2" x1="217.6" y1="77.9" x2="220.4" y2="80.8"/>
				<line class="st2" x1="210.1" y1="99.3" x2="207.4" y2="102.2"/>
				<line class="st2" x1="203.2" y1="106.4" x2="200.4" y2="109.3"/>
				<line class="st76" x1="231.9" y1="56.8" x2="234.4" y2="58.2"/>
				<line class="st2" x1="233.9" y1="66.8" x2="231.1" y2="63.9"/>
				<line class="st2" x1="229.5" y1="62.2" x2="226.7" y2="59.3"/>
			</g>
			<polyline class="st77" points="1922.3,539.4 1917.6,538.6 1915.6,538.4 1914.1,538.1 1913.6,538 			"/>
			<polyline class="st2" points="1910.7,537.5 1906.7,536.9 1906.7,536.6 1906.4,536.6 1906.1,536.6 1906.1,536.4 1905.8,536.4 
				1905.8,536.1 1905.6,536.1 1905.6,535.8 1905.3,535.8 1905.3,535.5 1905.3,535.2 1905.3,534.9 1905.3,534.6 1905.3,534.4 
				1905.3,534.1 1905.6,533.8 1905.8,533.5 1905.8,533.2 1906.1,533.2 1906.4,532.9 1906.7,532.9 1907,532.9 1907.3,532.9 
				1907.6,532.9 1911.6,533.5 1911.6,533.8 1914.1,534.4 1915.5,534.4 			"/>
			<line class="st2" x1="748.4" y1="667.1" x2="747.8" y2="663.1"/>
			<polyline class="st2" points="747.2,658.5 746.7,654.5 748.1,654.2 748.7,658.2 			"/>
			<polyline class="st2" points="749.5,663.1 750.1,667.1 748.4,667.1 			"/>
		</g>
		<g id="HKI_2019">
			<g id="HKI_2019-2">
				<polyline class="st2" points="1123.6,996.6 1123.3,996.6 1123.1,996.6 1122.8,996.6 1122.8,996.3 1122.5,996.3 1122.5,996 
					1122.2,996 1122.2,995.8 1121.9,995.8 1121.9,995.5 1121.9,995.2 1121.9,994.9 1121.9,994.6 1121.9,994.4 1121.9,994.1 
					1121.9,993.8 1122.2,993.8 1122.2,993.5 1122.5,993.5 1122.5,993.2 1122.8,993.2 1123.1,992.9 1126.5,991.9 				"/>
				<line class="st78" x1="1133.7" y1="989.9" x2="1216.8" y2="966"/>
				<polyline class="st2" points="1220.4,964.9 1222.5,964.3 1222.8,964.3 1223.1,964.3 1223.4,964.3 1223.7,964.6 1223.9,964.6 
					1224.2,964.6 1224.2,964.9 1224.5,964.9 1224.5,965.2 1224.8,965.5 1224.8,965.7 1224.8,966 1225.1,966.3 1225.1,966.6 
					1224.8,966.6 1224.8,966.9 1224.8,967.2 1224.5,967.4 1224.5,967.7 1224.2,967.7 1224.2,968 1223.9,968 1223.7,968 
					1221.4,968.8 1220.4,969.1 				"/>
				<line class="st79" x1="1213.3" y1="971.2" x2="1131.1" y2="994.7"/>
				<polyline class="st2" points="1127.5,995.7 1124.2,996.6 1123.9,996.6 1123.6,996.6 				"/>
				<polyline class="st2" points="437.5,935.3 436.8,938.2 435.9,938.7 432,937.6 				"/>
				<polyline class="st2" points="426,935.9 423,935 422.4,934.4 423.5,930.6 				"/>
				<polyline class="st2" points="424.7,926.6 425.6,923.5 426.1,923 430,924 				"/>
				<polyline class="st2" points="436.2,925.6 439,926.4 439.6,927.3 438.6,931.1 				"/>
				<path class="st80" d="M2052.5,977.3l-43.8-44l-58.3-27.2l-94.9-18.3l-94.3-45.7l-22.3-10.4l-22.2-9.5c0,0-19.1-4.8-19.6-5.1
					l-14.4-4.4l-13.3-5.5l-17.7-7.8l-15.5-5.5l-13.3-2.2l-24.4-5.6h-12.2h-1.5"/>
				<polyline class="st2" points="1580.8,785.9 1576.8,785.8 1576.8,783.5 1575.6,782.4 1575.6,782.3 				"/>
				<polyline class="st2" points="1575.2,773.8 1575.1,770.2 1574.8,769.9 1574.5,769.9 1574.2,770.2 1574.5,774.2 				"/>
				<polyline class="st2" points="1575.1,782.3 1575.1,782.7 1574.2,783.8 1574.2,786.1 1570.2,786.1 				"/>
				<polyline class="st81" points="1561.7,786.6 1557.5,787.1 1553.1,790.5 1545.3,792.7 1535.3,796 1533.7,796.5 				"/>
				<polyline class="st2" points="1529.6,797.9 1525.8,799.1 1525.1,795.2 				"/>
				<polyline class="st82" points="1524.6,790.2 1523.8,789.2 1522.4,782.8 				"/>
				<polyline class="st2" points="1521.8,780.2 1521.2,777.3 1520.9,776.7 1520.7,776.4 1520.1,776.4 1516.7,777 1516.4,777.3 
					1516.1,777.6 1515.8,777.8 1515.8,778.1 1516.7,781.7 				"/>
				<polyline class="st83" points="1517.9,786.8 1518.7,790 1518.1,792.3 1518.7,794.3 1518.7,794.3 				"/>
				<polyline class="st2" points="1520.1,796.3 1520.9,800.2 1517,801 				"/>
				<polyline class="st2" points="1505.8,803.4 1501.9,804.5 1501.9,804.2 1503.1,801.6 1502.9,800.7 				"/>
				<line class="st84" x1="1501.2" y1="797.1" x2="1499.9" y2="791"/>
				<polyline class="st2" points="1499.5,788.9 1498.8,785.8 1498.6,785.5 1498.3,785.2 1498.3,784.9 1498,784.9 1497.7,784.9 
					1494.4,785.7 				"/>
				<polyline class="st85" points="1494.4,790.9 1496.3,799.1 1496.3,799.2 				"/>
				<polyline class="st2" points="1495.9,802 1496.3,803.3 1498.3,805 1494.3,805 				"/>
				<polyline class="st86" points="1486.1,805 1480.1,805 1462.3,805 1447.1,805 1429.2,810.3 1412.4,814.8 1393.6,820.4 
					1376.9,825.9 1360.3,837 1344.8,849.2 1339.2,855.2 				"/>
				<polyline class="st2" points="1336.3,858.2 1333.6,861.2 1332.8,860.9 1331.9,860.9 1331.1,860.9 1330.2,861.2 1329.8,861.4 
									"/>
				<polyline class="st29" points="1323.7,866.7 1298.5,890.3 1295.6,892.9 1278.1,911.3 1253.1,939.9 1248.2,945.5 				"/>
				<polyline class="st2" points="1245.6,948.6 1242.9,951.6 1239.6,949.3 				"/>
				<polyline class="st87" points="1235.4,946.5 1231.6,943.9 1230.5,943.1 1229.2,942.2 				"/>
				<polyline class="st2" points="1227.1,940.7 1224.8,939.1 1224.2,939.1 1223.7,938.8 1223.1,939.1 1222.5,939.4 1222.2,939.7 
					1222,940.2 1221.7,940.8 1221.7,941.4 1221.9,941.8 				"/>
				<line class="st88" x1="1227.6" y1="945.9" x2="1248.1" y2="959.8"/>
				<polyline class="st2" points="1251,961.7 1253.1,963.2 1254.3,964 1253.1,966 1252.3,966.9 1253.1,969.1 1253.6,970.6 				"/>
				<polyline class="st48" points="1256.2,978.6 1259.1,987.5 1257.3,995.4 1256.1,1003.5 1253.1,1011.5 1248.3,1017.3 
					1200.1,1030.6 1198.7,1031.5 1193.6,1030.9 1181.4,1035.4 1167.5,1046.7 				"/>
				<polyline class="st2" points="1165.3,1049.9 1164.7,1053.9 1161.4,1056.1 				"/>
				<polyline class="st89" points="1155.3,1060.2 1134.7,1074.3 1134.1,1074.5 				"/>
				<polyline class="st2" points="1130.7,1075.9 1127,1077.4 1124.5,1076.3 1123.9,1075.4 1123.8,1075.2 				"/>
				<polyline class="st90" points="1123.6,1067.4 1128.4,1039.4 1129,1035.2 1130.1,1028.7 1131.1,1025.3 1133.3,1022 
					1133.3,1018.6 1131.1,1015.3 1127.7,1014.2 1124.9,1014.9 				"/>
				<polyline class="st2" points="1121,1016.1 1120,1016.4 1117.1,1016.5 1115.5,1012.8 				"/>
				<line class="st91" x1="1113.9" y1="1009" x2="1111.5" y2="1003.4"/>
				<polyline class="st2" points="1110.7,1001.5 1109.7,999.2 1109.4,998.9 1109.2,998.6 1108.6,998.3 1108,998.6 1107.8,998.6 
					1107.2,999.2 1107.2,999.5 1106.9,1000.3 1108,1002.9 				"/>
				<polyline class="st2" points="1112.7,1013.6 1114.3,1017.3 1110.4,1018.5 				"/>
				<polyline class="st2" points="1106.6,1019.2 1102.7,1019 1100.7,1021.3 1100.1,1024.1 1097.6,1025.2 1097,1025.5 1096.4,1025.4 
									"/>
				<polyline class="st2" points="1091.8,1024.2 1087.9,1023.3 1087.9,1023.8 1091.8,1024.9 				"/>
				<polyline class="st2" points="1092,1025 1095.8,1026.1 1095.6,1027.5 1097,1028.7 1096.4,1031.2 1096.6,1032.6 				"/>
				<polyline class="st2" points="1096.6,1032.6 1097,1036.6 1095.6,1036.9 1095.6,1040.3 1097.3,1040.6 1097.3,1044.6 				"/>
				<polyline class="st92" points="1094.8,1053 1076,1067.2 1068.9,1069.7 				"/>
				<polyline class="st2" points="1064.8,1071.2 1061,1072.6 1059.6,1068.8 				"/>
				<polyline class="st2" points="1055.8,1058.2 1054.5,1054.4 1057.5,1051.8 				"/>
				<polyline class="st93" points="1063.6,1046.7 1076.9,1035.4 1077.4,1034.9 1078,1034 1078.3,1033.2 1078.3,1032.6 1078,1031.5 
					1077.7,1030.9 1077.1,1030.1 1076.6,1029.8 1076,1029.5 1075.2,1029.2 1074.3,1029.2 1073.5,1029.2 1072.9,1029.5 
					1071.8,1030.6 1068.9,1032.9 1048.8,1049.6 1019,1054.2 1008.8,1055.6 1001.8,1056.7 997.2,1057.3 987.9,1058.7 984.8,1059 				
					"/>
				<polyline class="st2" points="980.8,1059.5 980.2,1059.5 976.8,1060.1 975.7,1058.7 975.4,1056.5 				"/>
				<polyline class="st2" points="974.4,1047.2 974,1043.7 973.7,1043.4 973.7,1043.1 973.4,1043.1 973.1,1043.1 968.6,1043.4 
					968.3,1043.7 968,1043.7 968,1043.9 967.8,1043.9 967.8,1044.2 968.2,1047.9 				"/>
				<polyline class="st2" points="969.3,1057.3 969.5,1059 969.5,1059.5 968.9,1060.1 968.6,1060.7 968.6,1060.9 964.6,1061.4 				
					"/>
				<polyline class="st94" points="957.8,1062.1 945.1,1063.5 943.1,1063.8 941.7,1063.8 939.4,1063.8 938.6,1063.8 937.4,1063.8 
					936.6,1063.5 935.7,1062.9 934.9,1062.4 933.7,1061.8 933.2,1060.9 932.6,1060.4 932,1059.5 931.5,1058.7 930.9,1057.6 
					930.6,1056.7 930.1,1049.4 				"/>
				<polyline class="st2" points="929.9,1046 929.8,1043.9 929.8,1042 931.2,1042.3 931.2,1042.8 932.3,1043.4 932.6,1041.7 
					931.5,1041.4 931.5,1041.7 930.9,1041.7 931.8,1038.3 932.3,1038.6 932.3,1038.8 933.5,1039.1 933.7,1037.7 932.6,1037.4 
					932.3,1038 932,1037.7 933.1,1033.9 				"/>
				<polyline class="st2" points="933.7,1031.8 934.3,1029.8 934.3,1029.2 934.3,1028.7 934,1028.4 933.7,1028.1 936,1027.5 
					935,1023.6 				"/>
				<polyline class="st95" points="932.7,1014.7 931.8,1011.1 931.5,1010.5 931.5,1010.2 931.2,1009.7 930.9,1009.4 930.3,1008.8 
					929.8,1008.5 929.2,1008.5 928.6,1008.2 928.1,1008.2 927.5,1008.5 926.9,1008.8 926.4,1009.1 926.1,1009.7 925.5,1010.2 
					925.2,1010.8 925.2,1011.4 925.2,1011.8 				"/>
				<polyline class="st2" points="926.4,1016.3 927.5,1020.1 923.5,1020.1 				"/>
				<polyline class="st96" points="914.3,1020.1 913,1020.1 912.2,1019.6 911.3,1019.3 910.2,1018.7 909.1,1018.2 907.4,1017.6 
					905.4,1017 902.6,1016.5 900.6,1016.2 897.8,1016.2 896,1016.2 894.6,1016.5 892.9,1016.7 891.5,1017 889.8,1017.6 
					888.1,1018.4 886.4,1019.3 884.4,1020.4 883.7,1020.9 				"/>
				<polyline class="st2" points="880.2,1023.8 877.9,1026.1 877.6,1026.4 877.3,1026.7 877.3,1026.9 877.3,1027.5 877.3,1027.8 
					877.3,1028.1 877.6,1028.7 877.9,1028.9 878.2,1029.2 878.5,1029.5 878.8,1029.5 877.5,1033.3 				"/>
				<polyline class="st97" points="875,1041.2 874.8,1042 872.8,1043.7 870.8,1045.4 869.1,1047.3 868.3,1048.2 867.4,1049.6 
					866.9,1051 865.7,1053 865.4,1054.2 864.3,1055.8 864,1056.7 862.6,1059 861.5,1060.7 859.2,1063.5 857.5,1065.5 855.2,1066.9 
					852.1,1068.3 849.6,1069.4 845.9,1070.6 841.6,1071.4 838.5,1071.4 835.1,1071.2 829.5,1070.3 819.3,1067.8 808.2,1064.6 
					807.3,1064.6 798.6,1064.1 790.1,1064.1 788.4,1063.8 786.4,1063.2 784.4,1062.1 782.1,1060.7 780.1,1059 777.3,1055.8 
					774.8,1055.6 772.8,1055.3 768.5,1055 765.7,1054.7 763.7,1054.4 758.6,1053.9 751.5,1052.4 748.1,1051.8 				"/>
				<polyline class="st2" points="744.1,1051 743,1050.8 740.5,1052.2 736.8,1050.6 				"/>
				<polyline class="st8" points="729.1,1047.8 727.2,1047.1 720.3,1044.2 717.8,1043.4 715.5,1042.3 709.6,1040 687.6,1031.1 				
					"/>
				<polyline class="st2" points="683.8,1029.6 680.1,1028.1 679.5,1025.5 679.3,1025.5 676.1,1023.6 				"/>
				<polyline class="st98" points="672,1020.9 670.5,1019.9 668.6,1014.6 				"/>
				<polyline class="st2" points="667.8,1012.3 666.5,1008.5 670.3,1007.3 				"/>
				<polyline class="st2" points="679.2,1004.3 680.1,1004 680.7,1003.7 681,1003.4 681.2,1003.1 681.5,1002.9 681.5,1002.6 
					681.8,1002.3 681.8,1002 681.8,1001.7 681.5,1001.4 681.5,1001.2 681.2,1000.9 681.2,1000.6 681,1000.3 680.7,1000.3 
					680.4,1000 680.1,1000 679.8,1000 679.5,1000 679.3,1000 676.5,1001 				"/>
				<polyline class="st2" points="669.1,1003.5 665.4,1004.8 664,1001.1 				"/>
				<polyline class="st2" points="661.9,995.3 660.5,991.5 664.3,990.2 				"/>
				<polyline class="st2" points="671.2,987.8 674.4,986.7 675,986.7 675.3,986.4 675.6,985.8 675.8,985.3 675.8,985 675.8,984.4 
					675.6,984.2 675.3,983.6 675,983.3 674.7,983.3 674.2,983 673.9,983 673.3,983 672.5,983.3 				"/>
				<polyline class="st2" points="663.2,986.5 659.4,987.8 658,984.1 				"/>
				<line class="st99" x1="656.1" y1="978.9" x2="659.3" y2="971.2"/>
				<polyline class="st2" points="660.4,968.6 662,964.9 656.3,962.6 654.8,966.3 				"/>
				<polyline class="st2" points="651,975.2 650.3,976.8 648.4,977.9 644.7,976.3 				"/>
				<polyline class="st2" points="640.7,974.5 638.7,973.7 637,972.9 637,972.5 636.5,970.8 637.2,969.2 				"/>
				<line class="st100" x1="639.1" y1="964.4" x2="642" y2="957.3"/>
				<polyline class="st2" points="640.7,955.6 637.3,954.1 637,954.1 636.7,954.4 636.5,954.7 635.3,957.6 				"/>
				<polyline class="st2" points="631.5,966.8 630.8,968.6 629.4,969.4 629.1,969.7 625.4,968.2 				"/>
				<polyline class="st2" points="620.6,966.3 616.9,964.9 617.2,964.6 616.3,963.2 617.7,959.4 				"/>
				<polyline class="st2" points="620.5,952 621.7,948.7 621.7,948.5 621.7,948.2 621.4,948.2 621.2,947.9 616.9,946.5 616.6,946.5 
					616.3,946.5 616,946.5 616,946.7 614.8,950.2 				"/>
				<polyline class="st2" points="611.4,959.2 610.7,961.2 609.5,961.8 609.3,962.3 605.5,961 				"/>
				<polyline class="st2" points="600.6,959.4 596.8,958.1 597.1,957.5 596.2,956.4 597.4,952.6 				"/>
				<line class="st101" x1="598.7" y1="948.3" x2="600.7" y2="941.9"/>
				<polyline class="st2" points="599.5,940.5 596.2,939.7 595.7,939.4 595.4,939.7 595.1,939.7 595.1,939.9 594,943.5 				"/>
				<polyline class="st2" points="591.7,950.9 590.5,954.7 589.1,955.3 586.8,954.5 				"/>
				<polyline class="st2" points="578.9,952.2 576.7,951.6 575.8,950.1 576.8,946.3 				"/>
				<polyline class="st2" points="578.8,939 579.8,935.4 579.8,935.1 579.5,935.1 579.5,934.8 579.2,934.8 574.7,933.4 574.4,933.4 
					574.4,933.7 574.1,933.7 573.8,934 573,937.5 				"/>
				<polyline class="st2" points="571.1,944.8 570.1,948.7 568.7,949.6 566.5,949 				"/>
				<polyline class="st2" points="558.7,947.1 556,946.5 555.1,945.6 556.2,941.8 				"/>
				<polyline class="st2" points="558.3,933.9 559.4,930 558.8,929.5 554,928 553.1,928.6 552.4,931.5 				"/>
				<polyline class="st2" points="549.8,941.1 549.2,943.6 548,944.5 544.2,943.5 				"/>
				<polyline class="st2" points="539.5,942.3 535.6,941.4 534.7,939.9 534.4,939.9 535.5,936.1 				"/>
				<polyline class="st2" points="537.6,928.2 538.7,924.4 533,922.9 532,926.8 				"/>
				<polyline class="st2" points="529.8,934.7 528.8,938.5 527.3,939.1 522.8,938 521.4,935.4 514.3,933.4 515.4,929.6 				"/>
				<polyline class="st2" points="517.2,922.8 518.3,919 516,918.4 513.2,921.3 				"/>
				<line class="st102" x1="507.2" y1="927.5" x2="486.2" y2="949.3"/>
				<polyline class="st2" points="483.1,952.4 480.3,955.3 477,953 				"/>
				<polyline class="st2" points="475.2,951.8 473.5,950.7 471.5,950.4 471,949.3 470.7,947.6 466.8,946.6 				"/>
				<line class="st103" x1="459" y1="944.6" x2="447.3" y2="941.6"/>
				<polyline class="st2" points="443.4,940.7 439.5,939.7 439.2,939.1 440.1,935.8 				"/>
				<polyline class="st2" points="441.3,931.2 442,928.3 442.9,927.8 448.9,929.5 449.1,928.6 449.4,928.6 450,926.9 450.5,927.2 
					450.3,928.9 454.5,930 457.4,928.3 458.2,925.5 456.5,922.4 452.3,921.2 451.7,923.2 450.8,922.9 451.4,921.2 451.1,921 
					451.4,920.1 445.2,918.4 444.9,917.8 445.7,914.6 				"/>
				<polyline class="st2" points="446.7,910.9 447.7,907.1 448.3,906.8 453.1,908.2 453.7,905.9 454.5,906.2 454,908.2 455.4,908.8 
					455.9,906.8 457.1,906.8 456.5,909 459.6,909.9 460.3,909.5 				"/>
				<polyline class="st2" points="461.8,908.7 462.7,908.2 463.6,905.4 463,904.5 460.1,903.7 				"/>
				<polyline class="st104" points="452.2,901.5 448,900.3 424.1,893.9 				"/>
				<polyline class="st2" points="420.1,892.8 416.3,891.8 415.4,892.3 414.6,895.2 416.3,898.3 420.1,899.3 				"/>
				<line class="st42" x1="424.4" y1="900.4" x2="430.7" y2="902.1"/>
				<polyline class="st2" points="432.8,902.7 436.7,903.7 437,901.7 437.8,901.7 437.2,904 438.9,904.2 439.5,902.3 440.4,902.5 
					439.8,904.5 444.6,905.9 444.9,906.5 444,909.8 				"/>
				<polyline class="st2" points="442.9,913.9 442,917 441.5,917.5 437.6,916.5 				"/>
				<line class="st105" x1="432.5" y1="915.1" x2="424.9" y2="913.1"/>
				<polyline class="st2" points="422.4,912.4 418.5,911.3 418.2,912.2 417.7,913.9 416.8,913.9 417.1,911.9 413.1,910.8 
					412.9,910.8 409.7,912.5 409.2,915.3 409.8,916.2 				"/>
				<polyline class="st2" points="411.3,918.4 415.1,919.5 415.7,917.5 416.5,917.8 416.3,919.8 416.3,920.7 422.2,922.1 
					422.8,922.9 421.8,926.8 				"/>
				<polyline class="st2" points="420.7,930.8 419.9,933.7 419.1,934.3 415.2,933.2 				"/>
				<polyline class="st2" points="407,931 404.4,930.3 403.2,930.9 402.4,930.6 400.5,928.2 				"/>
				<polyline class="st106" points="395.6,922 383.1,906.2 287.6,880.7 171.4,876.8 146.7,883.5 				"/>
				<polyline class="st2" points="143,884.5 139.1,885.5 138,881.7 				"/>
				<polyline class="st2" points="137.9,881.2 136.8,877.3 134.9,877.9 135.8,881.8 				"/>
				<polyline class="st2" points="135.9,882.2 136.8,886.1 133,887.2 				"/>
				<polyline class="st2" points="132.5,887.3 128.6,888.4 127.8,885 126.6,885.3 125.5,880.7 126.6,880.4 126.3,880.2 123.2,881 
					123.2,881.3 124.4,881 125.5,885.5 124.6,885.8 125.5,889.2 121.6,890.3 				"/>
				<line class="st107" x1="115.3" y1="892" x2="105.9" y2="894.6"/>
				<polyline class="st2" points="102.7,895.5 98.9,896.6 97.8,892.7 				"/>
				<polyline class="st2" points="97.6,892 96.6,888.1 93.5,888.9 94.4,892.8 				"/>
				<polyline class="st2" points="94.6,893.5 95.4,897.4 91.6,898.4 				"/>
				<line class="st108" x1="87.7" y1="899.5" x2="81.7" y2="901"/>
				<polyline class="st2" points="79.8,901.5 75.9,902.5 74.8,898.7 				"/>
				<polyline class="st2" points="74.7,898.2 73.6,894.3 70.5,895.2 71.6,899 				"/>
				<polyline class="st2" points="71.7,899.5 72.8,903.4 68.9,904.4 				"/>
				<polyline class="st2" points="61.1,906.6 57.2,907.6 56.1,903.8 				"/>
				<polyline class="st2" points="56,903.3 54.9,899.4 51.8,900.3 52.9,904.1 				"/>
				<polyline class="st2" points="53,904.6 54.1,908.5 50.2,909.6 				"/>
				<polyline class="st109" points="42.9,911.6 36.8,913.3 -13.3,905.2 				"/>
				<line class="st110" x1="-10.3" y1="912.9" x2="31.3" y2="919.5"/>
				<polyline class="st2" points="35.1,920 39.1,920.7 40.1,924.5 				"/>
				<line class="st111" x1="41.5" y1="929.5" x2="43.5" y2="937"/>
				<polyline class="st2" points="44.2,939.5 45.3,943.3 41.3,942.7 				"/>
				<line class="st112" x1="32.2" y1="941.3" x2="0" y2="936.2"/>
			</g>
		</g>
	</g>
</g>
<g class="st113">
	<rect x="1920" class="st114" width="0" height="949.1"/>
	<polyline class="st114" points="481.1,978.9 483.2,975.4 480.3,973.7 478.3,977.1 476.8,976.1 470.4,972.9 464.8,971.5 
		470.7,949.7 467.4,948.8 461.5,970.8 443.2,966.3 445.8,954.1 442.5,953.4 439.9,965.5 427.4,962.4 430.2,949.5 426.9,948.8 
		424.1,961.7 417.5,960 420.2,947.4 416.9,946.7 414.2,959.2 404.3,956.8 406.8,945.2 403.5,944.5 401,956 393.6,954.2 396.8,939.6 
		393.5,938.9 390.4,953.4 379.3,950.7 381.2,941.8 377.9,941.1 376,949.9 366.1,947.5 369.5,936.5 366.3,935.5 362.9,946.8 
		348.3,943.2 351.5,923.7 348.2,923.2 345,942.6 339.7,942.1 340.3,928.9 337,928.8 336.3,941.8 330.6,941.3 331.4,925.7 
		328.1,925.5 327.3,940.9 299.7,938.4 299.7,927.8 296.4,927.8 296.4,938 295.8,938 259.6,937.1 259.6,931.1 256.2,931.1 
		256.2,937.1 233.6,936.6 233.6,930.1 230.3,930.1 230.3,936.5 227.2,936.4 203.5,936.4 203.5,934.6 211.3,934.9 211.4,930.4 
		190.3,929.8 190.2,934.2 198,934.5 198,936.4 176.8,936.4 168.9,938 157.8,941.4 153.8,923.2 150.5,923.9 154.6,942.4 49.8,974.5 
		39.4,975.6 47.4,981.6 53.4,983.6 75.7,983.6 85.7,981.6 91.7,979.6 99.7,975.6 107.7,971.6 113.7,967.6 119.7,963.6 125.7,961.6 
		133.7,959.6 145.7,959.6 151.5,960.3 157.8,961.9 164.2,961.9 170.5,960.3 173,958.1 181,954.1 183,948.1 185,942.1 187,940.1 
		191,939.7 205,939.7 211,940.1 214.9,941.3 217,946.1 217,950.1 221,954.1 227,956.1 251.1,956.1 257.1,958.1 261.1,958.1 
		269.1,960.1 272,958.7 275.2,957.1 278.4,957.1 284.7,958.6 286.3,960.2 291.1,965 294.2,968.2 299,971.4 305.4,973 310.1,973 
		316.5,969.8 322.8,965 329.6,962.1 335.6,962.9 341.6,968.9 347.6,972.9 353.6,978.9 365.6,978.9 367.6,974.9 371.6,972.9 
		375.6,972.9 377.6,976.9 383.6,980.9 389.6,984.9 391.6,988.9 391.6,994.9 397.6,996.9 403.6,998.9 407.6,998.9 411.6,996.9 
		415.6,994.9 417.6,994.9 421.6,992.9 423.6,988.9 429.6,988.9 435.6,990.9 447.6,990.9 455.6,994.9 459.6,996.9 469.6,996.9 
		475.6,998.9 479.6,1000.9 481.6,1002.9 483.6,1004.9 487.6,1008.9 493.6,1012.9 495.6,1018.9 495.6,1026.9 497.6,1030.9 
		503.6,1036.9 505.6,1040.9 509.6,1044.9 513.6,1048.9 515.6,1052.9 517.6,1054.9 521.6,1058.9 525.6,1064.9 527.6,1070.9 
		531.6,1074.9 535,1080 600.3,1080 602.9,1068.8 599.6,1068.1 596.9,1080 583.6,1080 579.6,1078.4 580.2,1076.1 579.9,1075.9 
		588.5,1065.2 585.9,1063.1 577.2,1073.8 575.7,1072.7 573,1075.2 571.7,1073.3 576.5,1069.3 574.4,1066.7 569.7,1070.6 566,1065.4 
		582.5,1053.2 580.5,1050.5 564,1062.7 552.3,1046.4 556.8,1043.1 554.8,1040.4 550.3,1043.7 542.6,1032.9 543.4,1034.1 
		544.4,1031.5 545.5,1029.3 547.5,1027 550,1025.9 552.3,1027 556.7,1023.7 556.7,1022.6 555.6,1020.4 555.6,1018.1 562.3,1013.7 
		563.4,1011.8 563.4,1010.3 561.2,1009.2 558.9,1010.3 551.1,1015.9 550,1015.9 548.9,1014.8 548.9,1013.7 557.2,1008 557.8,1005.9 
		556.8,1004.2 554.8,1004.2 541.7,1013.1 528.3,1013.1 528.3,1013.1 522.8,1006.3 522.9,1006.3 524.2,1008 527.9,1002.3 
		525.1,1000.5 521.8,1005.6 515.7,1001.6 526.5,985.4 523.7,983.5 512.9,999.8 507.3,996.1 511.1,989.9 508.2,988.1 504.5,994.3 
		495,988 499.9,979.9 497,978.1 492.2,986.2 	"/>
	<path class="st114" d="M1283.8,1017.1l-73.8,17.8l-4.1,2.6l-4,3.8l-3.6,6.8c0,0,0,0,0,0c-1,1.9-0.3,4.3,1.6,5.3
		c0.6,0.3,1.2,0.5,1.8,0.5c1.4,0,2.8-0.8,3.4-2.1l3-5.7l2.5-2.4l2.4-1.5l72.6-17.5c2.1-0.5,3.4-2.6,2.9-4.7
		C1288,1017.9,1285.9,1016.6,1283.8,1017.1z"/>
	<polygon class="st114" points="619.2,1080 622.7,1080 622.9,1078.8 619.7,1078.1 	"/>
	<polygon class="st114" points="1173.1,1080 1201,1080 1197.6,1069.8 	"/>
	<polygon class="st114" points="1902.8,946.8 1887.2,946.8 1886.9,949.1 1826,949.1 1826,942.4 1812,942.8 1812,952.2 1802.6,952.2 
		1802.6,947.9 1799.2,947.9 1799.2,952.3 1797.7,952.3 1794.5,947.5 1800.8,928.5 1797.7,926.9 1789.7,947.5 1786.5,949.1 
		1772.3,944.3 1772.2,944.3 1772.8,942 1777,944.3 1779.1,940.4 1764.6,932.6 1762.5,936.5 1768.8,939.9 1767.9,942.9 1767.5,942.8 
		1759.8,941.2 1761.3,936 1759.2,935.3 1757.6,940.8 1751.6,939.6 1740.8,938.8 1751.6,928.5 1737.3,885.7 1720.7,890.6 1727,907.1 
		1734.9,938.8 1734.9,938.8 1738.1,948.3 1741.3,956.3 1747.6,972.2 1757.3,992 1765.1,1003.9 1774.2,1014.3 1777.8,1015 
		1782.6,1015 1788.9,1010.3 1793.7,1005.5 1795.3,997.6 1796.9,992.8 1800,989.6 1804.8,988 1809.6,988 1814.3,991.2 1816.6,996 
		1819.1,1000.8 1822.3,1005.5 1828.6,1015 1833.4,1024.6 1835,1026.2 1836.8,1026.2 1838.1,1024.6 1842.9,1019.8 1849.2,1010.3 
		1854,1005.5 1858.8,1002.3 1866.7,997.6 1871.2,996 1876.2,996 1882.6,997.6 1888.9,1000.8 1896.9,1005.5 1904.8,1010.3 
		1920,1016.4 1920,949.1 1903,949.1 	"/>
	<polygon class="st114" points="1167,1077.9 1168,1080 691.3,1080 676.9,1076.2 673.7,1079.3 673.5,1080 1171.8,1080 1170,1076.4 	
		"/>
	<polygon class="st114" points="1570.6,826.9 1567.5,826.9 1481.7,847.5 1472.2,849.1 1467.8,825.6 1421.4,834.8 1362.7,863.4 
		1356.3,873 1303.9,938.3 1290.4,927.2 1277.7,916.8 1274.3,921.2 1286.6,930.9 1300.3,942.6 1290.1,954.1 1267.4,979.3 1269,982.5 
		1296,1006.3 1304,1017.4 1310.3,1030.1 1311.9,1039.6 1313.5,1050.8 1315.1,1071.4 1316.2,1080 1325.3,1080 1325.3,1066.6 
		1323.3,1050.6 1323.3,1034.6 1321.3,1018.6 1319.3,1000.6 1317.3,990.6 1317.3,978.6 1319.3,970.6 1325.3,964.6 1339.3,946.6 
		1343.6,941.6 1351.8,932.5 1375.8,904.5 1385.8,892.5 1393.8,886.5 1401.8,882.5 1409.8,882.5 1419.8,884.5 1427.8,886.5 
		1437.8,888.5 1445.8,890.5 1467.8,890.5 1475.8,888.5 1485.8,886.5 1499.8,882.5 1513.8,878.5 1527.8,876.5 1543.8,874.5 
		1561.8,874.5 1567.5,873 1577,868.2 1588.1,863.4 1600.8,858.7 1610.3,855.5 1618.3,850.9 1616.6,838 	"/>
</g>
<g class="st113">
	<polygon class="st114" points="1856.7,56 1856.7,50.2 1850.9,44.3 1847,38.5 1839.2,26.8 1829.5,19.1 1821.7,13.2 1821.7,9.3 
		1817.8,7.3 1817.8,4.9 1821.7,1.5 1814.9,1.5 1813,0 1778.6,0 1778.6,6.1 1780.2,7.7 1786.5,7.7 1789.7,25.2 1796.1,49 
		1796.1,90.3 1802.4,106.2 1802.4,123.7 1818.3,117.3 1815.1,103 1813.5,93.5 1815.1,88.8 1840.5,84 1838.9,82.4 1840.5,77.6 
		1843.7,74.4 1846.9,72.8 1851.7,69.7 1854.8,66.5 1856.4,64.9 1858.7,61.8 	"/>
	<path class="st114" d="M1376.9,136.4l-6.3-9.5l-14.3-9.5l-70.7-34.1l-1.2,9.8l2,15.6l5.8,7.8l1.9,0.8l0,0l11.7,5l15.6,7.8l15.7,9.7
		l5.2,8.7l0,0l0.6,1l5.8,5.8l3.9,5.8v13.6l-1.9,11.7l-7.8,11.7l-11.7,7.8l-9.7,3.9l-5.8,3.9l-3.9,3.9l-7.8,3.9l-9.7,3.9l-5.8-2h-5.8
		l-5.8,3.9l-7.8,5.8l-5.8,3.9l-7.8,3.9l-5.8,9.7l-5.8,9.7v12.4l-0.8,8.8l12.1,5.5l6.3,1.6l20.6,11.1l24.9-30l2.9,2.9l2.8-2.8
		l-3.2-3.2l18.6-22.4l4.8,1.6l4.8-12.7l4.8-7.9l-1.6-1.6l3.2-4.8l6.3,4.8l14.3-22.2l6.3,3.2l12.7-19.1l1.6-14.2l-1.6-19
		L1376.9,136.4z"/>
</g>
<polygon class="st115" points="596.7,10 595.8,16.2 590.2,23 594.7,26.4 599.9,18.9 604.5,16.5 605.4,17.3 614.9,26.8 626.1,39.5 
	634.3,52.4 634.3,53.1 630.3,55.4 631.5,58.7 634.2,58.1 634,68.1 637.2,68.1 637.2,76 642,75.5 645.5,71.6 649.8,71.6 655.6,69.6 
	660.3,68.7 665.3,67.7 669.2,65.7 671.2,63.8 675.1,59.9 673.1,56 669.2,52.1 665.3,46.3 663.4,38.5 661.4,32.6 657.5,30.7 
	655.6,28.8 651.7,28.8 647.8,24.9 645.9,21 636.1,11.2 624.9,0 584.2,0 595.9,9.3 "/>
<g class="st113">
	<polygon class="st114" points="760.3,267.7 757,268.2 757.5,271.5 760.9,271 	"/>
	<polygon class="st114" points="765,292.5 759.1,293.9 759.8,297.1 765.6,295.7 	"/>
	<polygon class="st114" points="753.3,230.5 740.3,232.5 740.8,235.8 753.9,233.8 	"/>
	<polygon class="st114" points="699.4,443.2 697.8,443.2 696.9,443.7 692.2,443.7 678.5,437.4 666.7,428.8 658.9,420.4 651.8,408.4 
		647.5,398.9 623.3,261.5 624.8,260.4 625.9,257 623.6,254.8 620.3,254.8 618.8,256.2 617.4,258.2 617.4,260.2 642.1,400.2 
		642.1,400.5 646.7,410.8 654.4,423.8 662.8,432.8 675.5,442.1 691,449.3 694.9,451 699.2,451 701.6,449.8 702.7,447.6 701.6,444.3 
			"/>
	<polygon class="st114" points="743.5,214.9 746.5,214.2 750.1,214.2 749.6,211.4 746.2,211.4 741.7,212.5 739.5,213.7 738.4,214.8 
		737.3,215.9 737.3,217 739.5,217 741.8,215.9 	"/>
	<polygon class="st114" points="748.6,206.1 743.6,206.9 744.1,210.2 749.2,209.4 	"/>
	<polyline class="st114" points="609.4,168.9 609.4,181.8 604.2,185.5 602.8,182.8 599.8,184.3 604.4,193.2 605.9,192.4 
		607.4,191.7 605.7,188.5 609.4,185.8 619.3,188.9 618.6,191.6 616.3,190.8 615.3,194 622,196.2 623,193.1 621.2,192.5 622,189.7 
		631.6,192.7 634.8,195.9 636.4,199.1 634.8,219.7 633.2,222.9 626.8,227.6 626.8,234 628.4,234 630,230.8 652.4,221.2 671.4,213.2 
		677.7,211.6 748.4,204.5 748.4,204.5 748.4,204.6 748.7,206.2 749.3,209.4 750.9,218.1 743.7,219.2 744.2,222.5 751.6,221.3 
		753.3,230.5 753.9,233.8 758.3,256.6 748.2,258.2 748.7,261.5 758.9,259.9 760.4,267.7 761,271 762,276.5 751.6,278.1 752.1,281.3 
		762.6,279.7 765,292.5 765.6,295.7 769.6,317 763.6,318.5 764.4,321.6 770.2,320.2 772.8,334 768.1,335.1 768.9,338.3 773.4,337.2 
		774.9,344.9 769.2,346.3 770,349.5 775.5,348.1 777.2,356.8 770.3,358.5 771.1,361.7 777.8,360 784.3,394.3 780.3,395.3 
		781.1,398.5 784.9,397.6 789.5,422.1 789.6,422.1 791.2,439.6 784.7,467 805.5,472.6 809.4,462.8 811.3,457 817.2,451.2 825,449.2 
		830.8,443.4 834.7,435.6 836.6,429.8 836.6,422 836.6,414.2 836.6,414.2 836.6,414.2 838.6,408.3 838.6,400.6 842.5,396.7 
		842.5,386.9 834.7,381.1 826.9,373.3 823,371.3 825,361.6 829,353.9 830.9,346.1 830.9,342.2 827,338.3 825.1,328.6 819.2,320.8 
		817.2,315 811.4,313 809.4,311.1 803.6,307.2 803.6,301.4 801.7,299.4 803.6,291.6 807.5,289.7 811.4,287.7 813.3,285.7 
		813.3,279.9 811.4,276 811.4,270.1 809.4,266.3 807.5,260.4 807.5,254.6 803.6,248.7 799.7,246.8 793.9,242.9 790,239 790,217.6 
		786.2,209.4 786.2,206.9 784.2,202 782.2,194.2 782.2,155.3 780.2,149.4 780.2,143.6 784.1,139.7 788,133.9 793.8,122.2 
		793.8,114.5 791.9,108.6 793.8,102.8 793.8,75.5 786.1,69.7 774.4,67.7 760.7,63.8 741.3,59.9 717.9,58 704.3,59.8 702.3,63.8 
		702.3,75.5 700.4,83.3 696.5,93 694.6,102.7 692.6,116.4 690.6,130 686.7,135.8 677,143.6 675.1,149.4 673.1,159.2 665.3,168.9 
		657.6,176.7 649.8,172.8 642,161.1 636.1,155.3 632.2,149.4 630.3,143.6 634.4,118.3 632.4,100.8 609.5,101.7 609.5,168.8 	"/>
</g>
</svg>
