<?xml version="1.0" encoding="utf-8"?>
<!-- Generator: Adobe Illustrator 23.0.3, SVG Export Plug-In . SVG Version: 6.00 Build 0)  -->
<svg width="1920" height="1080" version="1.1" id="_2019" xmlns="http://www.w3.org/2000/svg" xmlns:xlink="http://www.w3.org/1999/xlink" x="0px" y="0px"
	 viewBox="0 0 1920 1080" style="enable-background:new 0 0 1920 1080;" xml:space="preserve">
<style type="text/css">
	.st0{fill:#70CCB8;}
</style>
<g>
	<path class="st0" d="M1369.2,468l-2.9-2.9l-27.1-22.6l0,0l0,0l-15.6-13.7l0.1-4.4l9.6,0.1v-8.7h-9.7l0.5-2.3l3.4-87.8l-0.6-0.2
		l-57.9-18.7l-20.2-10.9l-6.2-1.6l-11.8-5.4l-1.1,11.6v52.9l3.8,12.1l7.7,13.4l9.6,7.6l7.5,10.7l5.9,12.3v7.7l1.9,3.8l5.7,5.7
		l11.5,1.9l10.9,4.5l12.4,6.2l10.9,6.2l6.2,6.2l3.7,4.6l0,0l0,0l2.6,3.2l1.6,4.7l4.7,4.7l1.6,4.7l0.9,3.5v3.1l-7.7,7.7l-5.7,13.4
		l-1.6,17.6l-7.8,9.4l-1.6,10.9l3.1,7.8l4.7,7.8v7.8l-1.6,6.2l-3.1,3.1l-1.5,0.9l-4.4-0.5l-5.4-4.1l-7.7-3.8l-3.8-1.9l-1.4-1.4l0,0
		l0-0.1l-2.4-2.4l-3.8-7.7l-1.9-3.8h-3.8l-5.7-1.9l-5.7-3.8l-1.9-5.7v-7.7l-3.8-3.8l-7.7-3.8l-5.7-5.7l-3.8-3.8l-5.7-3.8l-7.7-1.9
		c0,0-5.7-1.9-5.7-3.8c0-1.9-1.9-5.7-1.9-5.7v-7.1l-5.7-6.3l-3.8-5.7l-5.7-3.8l-3.8-5.7l-5.7-3.8l-5.7-1.9l-7.7-1.9l-9.6-3.8
		l-13.7,10.9c0,0-7.7-1.9-9.6-3.8c-2.4-2.1-5-4-7.7-5.7l-3.8-7.6l-1.9-1.9h-5.7l-3.8,1.9l-3.8,3.8l-9.6,3.8L1109,442l-17.1,3.8
		l-5.7,1.9l-3.8,1.9l-1.9,5.7v3.2l-3.8,2.5l-5.7,3.8l-5.7,3.8l-3.8,3.8l-3.8,5.7l-5.7,3.8l-7.7,9.6l-5.7,5.7l-3.8,9.6l-3.8,13.4
		l-3.8,15.3l-1.9,13.4l-3.8,19.1l-7.7,11.5l-3.8,5.7l-5.7,1.9l-5.7-3.8l-5.7-1.9l-3.8,3.8l-3.8,17.2l-5.7,19.1l-3.8,13.4l-5.7,13.4
		l-3.8,9.6l-3.8,13.4l-3.8,15.3l-1.9,13.4l-1.9,7.7l3.8,11.5l3.8,5.7v11.4l-3.8,9.6l-7.7,11.5l-9.6,9.6h-9.6l-3.8-5.7V757l-7.7-7
		l-1.9-5.7l-3.8-9.6l-3.8-5.7h-13.4l-5.7,1.9h-24.9l-7.7,3.8l-9.6,1.9l-7.7,7.7l-1.9,7.7l-7.7,3.8l-1.9,7.7l-3.8,5.7h-3.8l-3.8-3.8
		v-5.2l-1.9-8.2l-1.9-5.7v-7.4l-1.9-4.1l-1.9-7.7l-3.8-7.7l-1.9-3.8l-1.9-7.7l-1.9-13.4l3.8-7.7v-17.3L803,662l-3.9-7.6l-3.8-7.7
		v-7.9v-10.6l-1.9-14l-1.9-11.5v-10.3l1.9-10.7l1.9-11.5l-1.9-7.7l-1.9-9.7l-3.8-5.6l-3.8-1.9l-7.7-1.9l-3.8-5.7l-1.9-3.8v-13.8
		l1.9-5.4l1.9-5.7l3.8-3.9l9.6-3.8l3.8-1.9l5.7-13.4l3.8-9.5l-0.1-0.3l0.1,0.3l3.8-9.6l1.9-5.7l5.7-5.7l7.7-1.9l5.7-5.7l3.8-7.7
		l1.9-5.7v-7.6l0-7.7l0,0l1.9-5.7v-7.7l3.8-3.8v-9.6l-7.7-5.7l-7.7-7.7l-3.8-1.9l1.9-9.6l3.8-7.7l2-7.7v-3.8l-3.8-3.8l-1.9-9.6
		l-5.7-7.7l-1.9-5.7l-5.7-1.9l-1.9-1.9l-5.7-3.8v-5.7l-1.9-1.9l1.9-7.7l3.8-1.9l3.8-2l1.9-1.9V287l-1.9-3.8v-5.7l-1.9-3.8l-1.9-5.7
		v-5.7l-3.8-5.7l-3.8-1.9l-5.7-3.8l-3.8-3.8v-21l-3.7-8v-2.5l-2-4.8l-1.9-7.7v-38.3l-1.9-5.7v-5.7l3.8-3.8l3.8-5.7l5.7-11.5v-7.7
		l-1.9-5.7l1.9-5.7V86.2l-7.6-5.8l-11.5-1.9l-13.4-3.8L738,70.8l-23-1.9l-13.4,1.9l-1.9,3.9v11.4l-1.9,7.6l-3.8,9.6l-1.9,9.6
		l-1.9,13.4l-1.9,13.4l-3.8,5.7l-9.6,7.6l-1.9,5.7l-1.9,9.6l-7.7,9.6l-0.9,0.9l0,0l0,0l-6.8,6.8l-7.7-3.8l-7.6-11.5l-5.7-5.7
		l-3.8-5.7l-1.9-5.7l3.8-24.9l-1.9-17.2l5.7-19.1l-16.6,1.4l-2-18.4h-46.7l-100.9,42.5l-23.3,27.7l0.3,0.8l11.2,9.2h0.6l23-27.7
		l9.7,8l17.4,29.7v26.6l0.8,71.8h-0.1c0,0,0,0,0,0c-1.1,0-1.9,0.9-1.9,2l1,24.2c0,1,0.9,1.9,1.9,1.9h0.1c1-0.1,1.9-0.9,1.9-2
		l-0.9-23.2l94.9,0.6l12.2,29l0.3,201.5l-60.2,86l-47.4,0.3v-18c0-6.5-3.9-9.2-6.2-10.9l-0.3-0.2c-3.7-2.6-12-4.1-12.3-4.2
		c-0.8-0.1-1.6,0.5-1.8,1.3c-0.2,0.9,0.3,1.8,1.2,2.1c2.2,0.4,8.4,1.8,10.9,3.6l0.3,0.2c2.1,1.5,4.8,3.4,4.8,8.1V599l-0.2,0.7
		l-2.9,1.9l-1.9,1.9l-1,1l-2.9,3.9l-1.6,4.8l-1.1,5l-0.3,4.8L496,629l0.2,7.6l-0.3,3.4l0.3,3.9v29.7l1.7,3.9l4.5,8.6l5.5,5.5
		l8.8,6.6h55l4.2,0.4l2.9-1l1.7-1.7l4.4-11l15.2-14.5l23.3-8.8l10.9-2.7v8.5h-2.4v4.8h9.7v-4.8H639v-9l15.3-1.6l2.9,1l10.7-1
		l41.7-5.8l0.1-1.5l18.3-2.4l19.4-1.9l1.9,1l5.8-1.9l1.2,0.2l-8.3,5.8l1.7,2.4l10.7-7.5l8.5-0.9l1.1,8.6l3.1,12.5l4.4,9.7l-3.9,1
		v4.8l-45.3,8.8c-1.7,0.4-3,1.9-3,3.7c0,2.1,1.7,3.8,3.7,3.8c0.3,0,0.5,0,0.8-0.1L785,685l2.9,19.2c-6,1.2-45,9.6-45,9.6
		c-1,0.2-1.8,1.1-1.8,2.2c0,1.2,1,2.2,2.2,2.2c0.1,0,0.3,0,0.4,0c0,0,39.2-7,45.1-8.1l2.9,11.6l-5.8,1.9v3.9l-29.3,6
		c-1.1,0.2-1.9,1.1-1.9,2.2c0,1.2,1.1,2.2,2.3,2.1c0.1,0,0.3,0,0.4,0l36.2-7.4l3.9,19.4l3.4,13.7l0,0l-1.9-1.1h-2.5l-1.9,1l-1,3.9
		l-0.9,3.8l-69.9,14.8l3,17.2l80.5-16.5l0-0.1l0,0.1l2.9,13.6l-3.8,3.8l0,0l0,0l0,0l0,0l-1.8,4l-8.3,10.2c-0.4,0.5-0.6,1.3-0.4,2
		c0.3,0.8,1,1.3,1.8,1.3c0.6,0,1.1-0.3,1.5-0.7l8.7-10.6l0.5-0.3l7.8,8.7l-7.9,11.2c-0.2,0.3-0.4,0.7-0.4,1.1c0,1.1,0.9,1.9,1.9,1.9
		c0.6,0,1.2-0.3,1.6-0.8l7.5-10.5l0.1,0.1l3.7,0l0.1,0.1l6,0.8l3.7,11.8l17.4-1.9l13.6-1l0.7-1.5l41-3.3l9.7,7.8l35.8-2.9l21.3-26.2
		l4.8-4.8l0.4-1.8l3.3-4.7l8-22.6l1.9-2.9l4.8-5.8l2.6-3.6l80.5-71.8l24.2,1.1l6.6,2.2l11.1-4.5v28l-12.6,7.8l7,9.3l16.3-10.3
		l0.2-22.7v-19.8l0-1.5l0.1,0.3l17.2,0.1l8.7,19.4l98.8-44.6l6.8-2.9l2.9,4.8l1,2.9l3.9,7.8l4.8-2.9l-3.9-7.8l-1-2.9l-1-4.8l5.7-3.1
		l7.7-3.3l2.1,3.5l12.6-5.8l-1.9-3.9l7.8-2.9l5.2-11.6l3.8,3.2l8.5,0.6l32.9-23.3l-2.9-10.7l-3.9-13.6l10.7-48.9l3.3-15.3l-0.1,0
		l0.1-0.1L1369.2,468z"/>
	
		<rect x="749.2" y="659.2" transform="matrix(0.9914 -0.1308 0.1308 0.9914 -80.619 103.9142)" class="st0" width="2.9" height="12.7"/>
	<path class="st0" d="M492.8,320.7c-1-0.1-1.9,0.6-2,1.6c-0.2,1.1,0.5,2.1,1.6,2.2c0.2,0,15.6,1.9,15.6,10.7v167.6
		c0.1,3.5,0.9,6.9,2.2,10.1c2.6,6.6,9,11,16.1,11.2h0.1c1,0,1.8-0.8,1.9-1.8c0.1-1.1-0.7-2-1.7-2.1c-14.4-0.8-14.7-16.8-14.7-17.4
		V335.3C511.9,323,493.6,320.8,492.8,320.7z"/>
</g>
</svg>
