<?xml version="1.0" encoding="utf-8"?>
<!-- Generator: Adobe Illustrator 23.0.3, SVG Export Plug-In . SVG Version: 6.00 Build 0)  -->
<svg width="3840" height="2160" version="1.1" id="_2019" xmlns="http://www.w3.org/2000/svg" xmlns:xlink="http://www.w3.org/1999/xlink" x="0px" y="0px"
	 viewBox="0 0 1920 1080" style="enable-background:new 0 0 1920 1080;" xml:space="preserve">
<style type="text/css">
	.st0{opacity:0.8;}
	.st1{fill:#666666;}
	.st2{clip-path:url(#SVGID_2_);}
	.st3{fill:none;stroke:#FF8300;stroke-width:2.5;stroke-miterlimit:10;}
	.st4{fill:none;stroke:#FF8300;stroke-width:2.5;stroke-linecap:round;stroke-linejoin:round;stroke-dasharray:8.67,8.67;}
	.st5{fill:none;stroke:#FF8300;stroke-width:2.5;stroke-linecap:round;stroke-linejoin:round;}
	.st6{fill:none;stroke:#FF8300;stroke-width:2.5;stroke-linecap:round;stroke-linejoin:round;stroke-dasharray:7.8,7.8;}
	.st7{fill:none;stroke:#FF8300;stroke-width:2.5;stroke-linecap:round;stroke-linejoin:round;stroke-dasharray:7.04,7.04;}
	.st8{fill:none;stroke:#FF8300;stroke-width:2.5;stroke-linecap:round;stroke-linejoin:round;stroke-dasharray:8.87,8.87;}
	.st9{fill:none;stroke:#FF8300;stroke-width:2.5;stroke-linecap:round;stroke-linejoin:round;stroke-dasharray:7.84,7.84;}
	.st10{fill:none;stroke:#FF8300;stroke-width:2.5;stroke-linecap:round;stroke-linejoin:round;stroke-dasharray:4.39,4.39;}
	.st11{fill:none;stroke:#FF8300;stroke-width:2.5;stroke-linecap:round;stroke-linejoin:round;stroke-dasharray:8.26,8.26;}
	.st12{fill:none;stroke:#FF8300;stroke-width:2.5;stroke-linecap:round;stroke-linejoin:round;stroke-dasharray:6.66,6.66;}
	.st13{fill:none;stroke:#FF8300;stroke-width:2.5;stroke-linecap:round;stroke-linejoin:round;stroke-dasharray:10.07,10.07;}
	.st14{fill:none;stroke:#FF8300;stroke-width:2.5;stroke-linecap:round;stroke-linejoin:round;stroke-dasharray:7.33,7.33;}
	.st15{fill:none;stroke:#FF8300;stroke-width:2.5;stroke-linecap:round;stroke-linejoin:round;stroke-dasharray:4.23,4.23;}
	.st16{fill:none;stroke:#FF8300;stroke-width:2.5;stroke-linecap:round;stroke-linejoin:round;stroke-dasharray:9.26,9.26;}
	.st17{fill:none;stroke:#FF8300;stroke-width:2.5;stroke-linecap:round;stroke-linejoin:round;stroke-dasharray:7.61,7.61;}
	.st18{fill:none;stroke:#FF8300;stroke-width:2.5;stroke-linecap:round;stroke-linejoin:round;stroke-dasharray:7.45,7.45;}
	.st19{fill:none;stroke:#FF8300;stroke-width:2.5;stroke-linecap:round;stroke-linejoin:round;stroke-dasharray:7.29,7.29;}
	.st20{fill:none;stroke:#FF8300;stroke-width:2.5;stroke-linecap:round;stroke-linejoin:round;stroke-dasharray:7.81,7.81;}
	.st21{fill:none;stroke:#FF8300;stroke-width:2.5;stroke-linecap:round;stroke-linejoin:round;stroke-dasharray:7.53,7.53;}
	.st22{fill:none;stroke:#FF8300;stroke-width:2.5;stroke-linecap:round;stroke-linejoin:round;stroke-dasharray:7.25,7.25;}
	.st23{fill:none;stroke:#FF8300;stroke-width:2.5;stroke-linecap:round;stroke-linejoin:round;stroke-dasharray:6.5,6.5;}
	.st24{fill:none;stroke:#FF8300;stroke-width:2.5;stroke-linecap:round;stroke-linejoin:round;stroke-dasharray:6.94,6.94;}
	.st25{fill:none;stroke:#FF8300;stroke-width:2.5;stroke-linecap:round;stroke-linejoin:round;stroke-dasharray:5.83,5.83;}
	.st26{fill:none;stroke:#FF8300;stroke-width:2.5;stroke-linecap:round;stroke-linejoin:round;stroke-dasharray:8.28,8.28;}
	.st27{fill:none;stroke:#FF8300;stroke-width:2.5;stroke-linecap:round;stroke-linejoin:round;stroke-dasharray:8.82,8.82;}
	.st28{fill:none;stroke:#FF8300;stroke-width:2.5;stroke-linecap:round;stroke-linejoin:round;stroke-dasharray:7.89,7.89;}
	.st29{fill:none;stroke:#FF8300;stroke-width:2.5;stroke-linecap:round;stroke-linejoin:round;stroke-dasharray:5.88,5.88;}
	.st30{fill:none;stroke:#FF8300;stroke-width:2.5;stroke-linecap:round;stroke-linejoin:round;stroke-dasharray:7.75,7.75;}
	.st31{fill:none;stroke:#FF8300;stroke-width:2.5;stroke-linecap:round;stroke-linejoin:round;stroke-dasharray:10.19,10.19;}
	.st32{fill:none;stroke:#FF8300;stroke-width:2.5;stroke-linecap:round;stroke-linejoin:round;stroke-dasharray:8.11,8.11;}
	.st33{fill:none;stroke:#FF8300;stroke-width:2.5;stroke-linecap:round;stroke-linejoin:round;stroke-dasharray:4.62,4.62;}
	.st34{fill:none;stroke:#FF8300;stroke-width:2.5;stroke-linecap:round;stroke-linejoin:round;stroke-dasharray:8.7,8.7;}
	.st35{fill:none;stroke:#FF8300;stroke-width:2.5;stroke-linecap:round;stroke-linejoin:round;stroke-dasharray:8.01,8.01;}
	.st36{fill:none;stroke:#FF8300;stroke-width:2.5;stroke-linecap:round;stroke-linejoin:round;stroke-dasharray:8;}
	.st37{fill:none;stroke:#F08219;stroke-width:2.5;stroke-linecap:round;stroke-linejoin:round;stroke-dasharray:8;}
	.st38{display:none;}
	.st39{display:inline;}
</style>
<g class="st0">
	<path class="st1" d="M1102,964.6c0.2,0,0.4,0,0.6-0.1l83.8-25.3c0.2,0,0.4-0.1,0.6-0.2c1-0.5,1.4-1.7,0.9-2.7
		c-0.5-1-1.7-1.4-2.7-0.9l-83.8,25.3l0,0c-0.7,0.3-1.2,1-1.3,1.7C1100.1,963.5,1100.9,964.5,1102,964.6z"/>
	<path class="st1" d="M1907.8,1015.9l-24.1-24.1l-0.1,0l15.7-15.3l-1.3-2.5l0.4-0.7v-2.8l8.3-7.9l-4.2-4.1l-8.6,8.3h-2.6l-0.2,0.1
		l-8.1-7.4l0.5-0.8v-3l8.3-8.3l-4.3-4.3l-8.7,8.7h-2.6l-1.1,0.5l-8.7-7.9v0l-33.3-33.5l-48.2-22.5L1757,883v0l-9-1.2l-40-7.4
		l-66.3-31.1l-8.8-5.1l-8.4-3.7l-4.3-0.4l-8.8-2.8l-4.9-3.3l-9-6.5l-8.8-5.2l-15.7-6.2l-15.5-4.9l-14-6.5l-13.8-4.9l-10.6-1.6
		l-23.7-2.5l-5.7-2.5l-5.5-0.6v-2.8h-8.4v3.4l-13.1,3.3l-18.8,6.5l-5.1,1.1l-0.7-3.9c0.8-0.7,1.2-1.8,1-2.9c-0.2-1-0.9-1.8-1.9-2.2
		l-1.9-10.4l-4.8,0.9l1.9,10.5c-0.3,0.3-0.5,0.6-0.7,1c-0.6,1.5,0.1,3.3,1.6,3.9l0.7,4l-15.1,3.2l0.4-2.8l-1.6-3.3l-1.6-9l-4.3,0.9
		l1.9,9.1v3.9l1.5,2l-2.3,0.5l-27,0.8c-1.6-0.7-3.2-1.2-4.9-1.6h-4.1l-4.1,0.8l-18.8,5.7l-22.9,5.7l-10.6,4.1l-11.4,5.7l-8.2,5.7
		l-21.7,18.5l-0.6-0.3l-0.7-0.2h-1.4l-0.7,0.2l-0.9,0.5l-2.6,2.4l-23,21.5l-2.4,2.1l-14.7,15.4l-29,34l-14.3-9.6
		c-0.9-0.6-2.2-0.4-2.8,0.5c-0.6,0.9-0.4,2.2,0.5,2.8l23,15.6v3.3l1.2,5.8l1.2,8.2l1.2,3.5l3.5,2.3l0.1,5.8l-0.8,4.9l-3.3,6.5
		l-3.3,4.1l-2.4,2.5l-11.3,4.3l-26.9,5.8l-7,1.2l-9.4,2.3l-8.2,4.7l-7,5.8l-3.5,5.8l-22.7,16.3l-5.5,0.8l-0.4-4.4v-7.4l3.7-19.5
		l3.7-15.8l-1.8-3.7l-4.6-0.9l-4,2h-4.2l-5.6-13c0-0.2-0.1-0.4-0.2-0.5c-0.6-0.9-1.8-1.2-2.7-0.7s-1.2,1.8-0.7,2.7l4.9,11.5h-1.5
		l-9.3,1.9l-3.2,5.4l-5.3-1.1c-0.9-0.1-1.7,0.5-2,1.3c-0.4,1,0.1,2.2,1.2,2.6l4,0.8v25.5l-26.3,11.9l-3.7-13.9v-1.9l17.7-15.8
		l0.9-3.7l-1.9-1.9l-4.6,0.9l-18.9,16.1l0.2-0.3l-24.8,3.8l-8.5,1.2l-5.9,1l-3.8,0.5l-7.8,1.2l-6.4,0.7l-2.8,0.5l-1-1.2l-1.4-12.5
		l-0.2-0.2v-0.2h-0.5l-3.8,0.2l-0.2,0.2H973v0.2h-0.3v0.2l1.4,12.3v0.5l-0.5,0.5l-0.2,0.5v0.2l-19.6,2.1l-1.7,0.2h-4.7l-0.7-0.2
		l-0.7-0.5l-0.7-0.5l-1-0.5l-0.5-0.7l-0.5-0.5l-0.5-0.7l-0.5-0.7l-0.5-0.9l-0.2-0.7l-0.7-10.7v-1.7l1.2,0.2v0.5l1,0.5l0.2-1.4
		l-0.9-0.2v0.2H942l0.7-2.8l0.5,0.2v0.2l0.9,0.2l0.2-1.2l-1-0.2l-0.2,0.5l-0.2-0.2l1.9-6.6v-1l-0.2-0.2l-0.2-0.2l1.9-0.5l-3.5-13.7
		l-0.2-0.5v-0.2l-0.2-0.5l-0.2-0.2l-0.5-0.5l-0.5-0.2h-0.4l-0.5-0.2h-0.5l-0.5,0.2l-0.5,0.2l-0.5,0.2l-0.2,0.5l-0.5,0.5l-0.2,0.5
		v1.2l1.9,6.6h-12.1l-0.7-0.5l-0.7-0.2l-1-0.5l-0.9-0.5l-1.4-0.5l-1.7-0.5l-2.4-0.5l-1.7-0.2h-3.8l-1.2,0.2l-1.4,0.2l-1.2,0.2
		l-1.4,0.5l-1.4,0.7l-1.4,0.7l-1.7,1l-1.7,0.9l-0.2,0.2l-3.5,3.5l-0.2,0.2l-0.2,0.2v1.2l0.2,0.5l0.2,0.2l0.2,0.2l0.2,0.2h0.2
		l-3.3,10.4l-1.7,1.4l-1.7,1.4l-1.4,1.7l-0.7,0.7l-0.7,1.2l-0.5,1.2l-0.9,1.7l-0.2,1l-1,1.4l-0.2,0.7l-1.2,1.9l-0.9,1.4l-1.9,2.4
		l-1.4,1.7l-1.9,1.2l-2.6,1.2l-2.1,1l-3.1,0.9l-3.5,0.7h-2.6l-2.8-0.2l-4.7-0.7l-8.5-2.1l-9.2-2.6h-0.7l-7.3-0.5H827l-2.8-0.9
		l-1.9-0.9l-1.9-0.9l-1.8-0.9l-2.8-1.8l-2.1-1.3l-2.1-0.2l-1.7-0.2l-3.5-0.2l-2.4-0.2l-1.7-0.2l-4.3-0.5l-5.9-1.2l-7.1-1.4l-2.1,1.2
		l-5.7-2.4l-2.8-0.9l-2.6-1l-5.7-2.4l-2.1-0.7l-1.9-1l-5-1.9l-24.6-9.9l-0.5-2.1h-0.2l-3.8-2.4l-3.5-2.4l-3.3-9.5l11.4-3.8l0.5-0.2
		l0.2-0.2l0.2-0.2l0.2-0.2v-0.2l0.2-0.2v-0.5l-0.2-0.2v-0.2l-0.2-0.2v-0.2l-0.2-0.2H733l-0.2-0.2h-1l-11.6,4l-4-11.1l11.6-4h0.5
		l0.2-0.2l0.2-0.5l0.2-0.5v-0.7l-0.2-0.2l-0.2-0.5l-0.2-0.2H728l-0.5-0.2h-0.7l-11.6,4l-2.8-7.3l5-11.8l-4.7-1.9l-5,11.8l-1.7,0.9
		l-8-3.5l-1.7-0.7l0.2-0.2l-0.5-1.4l4.7-11.6v-0.5l-0.2-0.2l-3.8-1.7h-0.2l-0.2,0.2l-0.2,0.2l-4.8,11.5l-1.2,0.7l-0.2,0.2l-10.2-4
		l0.2-0.2l-0.7-1.2l4.5-12.1v-0.4h-0.2l-0.2-0.2l-3.5-1.2H679v0.2l-4.5,12.1l-0.9,0.5l-0.2,0.5l-10.4-3.5l0.2-0.5l-0.7-0.9l3.8-12.3
		v-0.5l-0.2-0.2l-3.5-0.9l-0.5-0.2l-0.2,0.2h-0.2v0.2l-3.8,12.3l-1.2,0.5l-10.4-3.1l-0.7-1.2l3.3-12.3v-0.2h-0.2v-0.2h-0.2l-3.8-1.2
		h-0.2v0.2H644l-0.2,0.2l-3.1,12.3l-1.2,0.7l-10.6-2.6l-0.7-0.7l3.5-13l-0.5-0.5l-4-1.2l-0.7,0.5l-3.3,12.5l-1,0.7l-10.4-2.6
		l-0.7-1.2h-0.2l3.5-13l-4.7-1.2l-3.5,13L605,914l-3.8-0.9l-1.2-2.1l-5.9-1.7l3.3-12.1l-1.9-0.5l-26,27l-3.8,3.8l-1.3,1.1l0,0
		l-2.9-5L555,918h-9.3l-14.1-3.7l2.2-8.5l0.7-0.5l5,1.4l0.2-0.7h0.2l0.5-1.4l0.5,0.2l-0.2,1.4l3.5,0.9l2.4-1.4l0.7-2.4l-1.4-2.6
		l-3.5-0.9l-0.5,1.7l-0.7-0.2l0.5-1.4l-0.2-0.2l0.2-0.7l-5.2-1.4l-0.2-0.5l2.4-9l0.5-0.2l4,1.2l0.5-1.9l0.7,0.2l-0.5,1.7l1.2,0.5
		l0.5-1.7h0.9l-0.5,1.9l2.6,0.7l2.6-1.4l0.7-2.4l-0.5-0.7l-12.5-3.5l-26.5-7.1l-0.7,0.5l-0.7,2.4l1.4,2.6l17,4.5l0.2-1.7h0.7
		l-0.5,1.9l1.4,0.2l0.5-1.7l0.7,0.2l-0.5,1.7l4,1.2l0.2,0.5l-2.4,8.8l-0.5,0.5l-19.2-5.2l-0.2,0.7l-0.5,1.4h-0.7l0.2-1.7l-3.3-0.9
		h-0.2l-2.6,1.4l-0.5,2.4l1.6,2.6l3.3,1l0.5-1.7l0.7,0.2l-0.2,1.7v0.7l5,1.2l0.5,0.7l-2.3,8.7l-15.2-4l-12.1-14.9l-3.7-4.6
		l-85.1-21.5l-91.3-3.5l-9.4,2.3l-17.1,4.8l-1.8-6.5l-3.8,1l1.8,6.5l-5.6,1.6l-1.9-6.7l-3.8,1.1l1.9,6.7l-20.4,5.7l-1.8-6.4
		l-4.6,1.3l1.8,6.4l-14.1,3.9l-2.1-7.7l-4.6,1.3l2.1,7.7l-11.9,3.3l-2.3-8.3l-4.6,1.3l2.3,8.2l2.6-0.7l-17.6,4.9h-7l-39.8-7l-1.2,7
		l51.5,9.5l2.3,8.2l1.1,6.5l-42.7-6.7l-50.9,48.5l-23.9,22.7l-14.2,14.4v1.5l-22.6,4.4l-17,3l-14.5,2.6L0,1013.1v9.3l3.3-2.2l4-1.3
		l2.7,1.3l2.1,0.7h3.8l4-1.3l5.1-2.7h6.8l0,0l5.9,6l5.3,6.8l3.4,1.6l5,3.3l5,1.7l6.7,1.7h6.7l6.7-1.6l6.7-1.7l5-1.7l5-1.7l8.3-5l5-5
		l3.3-5l3.3-6.7l1.7-5l1.7-5l3.3-3.3l3.3-3.3l5-3.3l6.7-3.3l5-5l3.3-3.3l3.3-1.7l5-3.3l1.7-8.4l1.7-5l3.3-5l3.3-5v-5l0.1-4l-1.7-2.7
		l1.7-5l0,0l0,0l3.3-3.3h6.7l5,1.7l6.7,1.7l10.3,1.5h0.1l-0.1,0.1l6.8,6l0.1,0l6.5,4.9l5,1.7h18.2l8.3-1.6l5-1.7l6.6-3.3l6.5-3.3
		l5-3.3l5-3.3l5-1.7l6.6-1.7h9.9l4.8,0.5l5.3,1.3h5.3l5.3-1.2l2-1.8l6.6-3.3l1.7-5l1.7-5l1.7-1.7l3.3-0.3h11.5l5,0.3l3.2,0.9l1.7,4
		v3.2l3.3,3.3l5,1.7h19.8l5,1.7h3.3l6.6,1.7l2.4-1.2l2.6-1.3h2.6l5.2,1.3l1.3,1.3l3.9,3.9l2.6,2.6l3.9,2.6l5.2,1.3h3.9l5.2-2.7
		l5.2-3.9l5.3-2.6l4.9,0.7l5,5l5,3.3l5,5h9.8l1.7-3.3l3.3-1.7h3.3l1.7,3.3l5,3.3l5,3.3l1.7,3.3v5l5,1.7l5,1.7h3.4l3.3-1.7l3.3-1.7
		h1.3l3.3-1.7l1.7-3.3h5l5,1.7h9.9l6.6,3.3l3.3,1.7h8.3l5,1.7l3.3,1.7l1.7,1.7l1.7,1.7l3.3,3.3l5,3.3l1.7,5v6.4l1.7,3.3l5,5l1.7,3.3
		l3.3,3.3l3.3,3.3l1.7,3.3l1.7,1.7l3.3,3.3l3.3,5l1.7,5l3.3,3.3l3.3,5l5,5l3.3,3.3l1.7,3.3l1.7,3.3l1.7,3.3l5,3.3l3.3,6.6l3.3,3.3h5
		l5,1.7h5l3.3,1.7l3.3-1.7h11.6l3.3-1.7l8.3-1.7l8.3,1.7l8.3,1.7l9.9,3.3l8.3,3.3l8.3,3.3l5,3.3l6.6,5l1.7,1.3h89.5h164h0.1h75.3v0
		h3.2l0,0h0h25h0.5l-0.5,0.2h798l-0.1-0.2h8.6l0.1,0.2h19.9v-0.2l0-3.8l0,0v-57.1h0l0-3.3 M517.6,910.5l2.5-8.6l0.5-0.5l10.7,2.8
		l0.5,0.7l-2.3,8.6L517.6,910.5z M1100.6,1080l0.5-2.4l0.1,0l1.1-5.3l1.7-5l3.3-5l1.7-5l1.7-5v-3.3l-5-5v-1.7l1.7-1.7l1.7-1.7
		l1.7-1.7l0,0l0,0l3.3-1.7l5-1.7l0,0l4.9,1.6l5,5l1.7,8.3v3.3l-1.7,5l-3.3,3.3l-1.7,3.3v3.3l5,1.7l5,3.3l6.6,6.6l1.8,1.3H1100.6z
		 M1273.8,1080l-0.9-4.6l-3.3-6.6l-3.3-8.3v-11.6l-1.7-9.9l-1.2-6.9h0l-0.5-3.1v-13.2l-1.7-13.3v-13.3l-1.7-13.3l-1.7-14.9l-1.7-8.3
		v-9.9l1.7-6.6l5-5l11.6-14.9l9.9-11.6l19.9-23.2l8.3-9.9l6.6-5l6.6-3.3h6.6l8.3,1.7l6.6,1.7l8.3,1.7l6.6,1.7h18.2l6.6-1.7l8.3-1.7
		l11.6-3.3l11.6-3.3l11.5-1.6l13.3-1.7h14.9l4.7-1.2l7.9-3.9l9.2-3.9l10.5-3.9l7.9-2.6l6.6-3.8l0.1-0.2l0,0.3l2.6-1.5l5.3-2.6
		l2.7-0.7h3.2l19.7,2.6l17,5.3l13.1,5.3l10.5,7.9l9.2,13.1l1.3,3.4l5.3,13.7l6.6,26.2l0,0h-0.1l2.6,7.9l2.6,6.6l5.3,13.1l8,16.4
		l6.4,9.8l7.5,8.6l3,0.6h3.9l5.3-3.9l4-4l1.2-6.5l1.3-3.9l2.6-2.6l3.9-1.3h3.9l3.9,2.6l1.9,3.9l2.1,3.9l2.6,3.9l5.3,7.9l3.9,7.9
		l1.3,1.3h1.5l1.1-1.3l3.9-3.9l5.3-7.9l3.9-3.9l3.9-2.6l6.6-3.9l3.7-1.3h4.2l5.3,1.3l5.3,2.6l6.6,3.9l6.6,3.9l13.1,5.2l15.2,2.6h7.1
		l5.2,1.3l3.9,2.6l7.9,7.9l9.2,9.2l3.9,6.6l2.6,2.6l3.9,6.6l2.6,2.6l5.3,6.6l6.6,9.2l0.8,1.4l0,0l4.4,7.8l6.6,6.6l3.9,2.6l6.6,2.6
		l10.9,6.1l0.9,0.5l7.9,2.6l11.7,2.6l3.1,3.2l2.3,5.8l3.8,5.7l0-0.1l0,0.3l0.2,0.3H1273.8z M1900.1,1080l-0.1-0.1L1900.1,1080
		L1900.1,1080z M1920,1019.1L1920,1019.1L1920,1019.1L1920,1019.1z"/>
	<path class="st1" d="M1909,550.4l3.4-2.6l5.9-2.6l1.7-0.3v-97.1l-0.3-0.1l-5.3-4l-4-2.6l-5.3-2.6l-3.9-2.6l-1.3-2.6l-6.6-9.2
		l-15.8-21.1l-1.3-1.3h-1.3l-4,1.3l-3.9,1.3h-4l-1.3,1.3v5.5l-2.6,5l-2.4,1.3h-1.3l-5.3-2.6l-4-2.6l-2.6-2.6l-2.6-4l-2.6-5.3l-4-4
		l-4-2.6l-4-1.3l-6.6-4l-5.3-1.3h-9.2l-2.3,1.3h-4l-4-1.3l-5.3-1.3l-4-2.6l-2.6-1.3l-2.6-2.6l-2.6-1.3l-2.6-1.3l-5.3-4l-1.3-2.6
		l-1.3-2.6l-2.6-1.3h-7.9l-4-1.3l-4-1.3h-2.6l-4,2.6l-1.3,1.3h-1.3l-2.6-2.6l-4-1.3l-2.6-5.3l-4-4l-4-1.3l-6.6-2.6l-2.6-1.3l-2.6-4
		l-1.3-2.6l-2.6-1.3h-5.3l-1.3-1.3l-1.3-2.6l-4-2.6l-2.6-1.3l-2.6-5.3l-2.6-4l-1.3-4l-3.9-5.3l-2.6-1.3v-1.9l2.6-2l1.3-5.3v-2.5
		l-2.6-5.3l-2.6-1.3l-1.3-4v-4.8l1.3-3.1l4-2.6l5.3-2.6l2.6-4v-5.3l-1.3-4l-1.3-4l-1.3-4l-1.3-2.6v-2.7l1.3-1.3h2.6l2.6-4l2.6-5.3
		l-1.3-2.6l1.3-3.9h-4l-1.3-1.3v-1.3l4-2.6l4-2.6l0.6-0.9l-4.5-1.7l-2.6-1.3l-1.3-1.3v-2.6l-1.3-1.3v-2.6l-1.3-1.3l-2.6-2.6
		l-1.3-2.5l0,0l-0.1-0.1l0-0.1l0,0l-1.2-1.2l1.3-4l2.6-2.6l2.6-1.3l3.9-2.6l2.6-2.6l1.3-1.3l1.9-2.5l-1.6-4.8v-4.8l-4.8-4.9
		l-3.2-4.8l-6.5-9.7l-8.1-6.5l-6.5-4.8v-3.2l-3.2-1.6v-2l3.2-2.8h-5.6l-4.1-3.2l-4.8-4.8l-3.2-6.5l-1.6-4.8l-6.5-3.2l-9.7-4.8
		l-8.1-3.3l-3.2-1.6l-4.8-8.1l-3.2-4.8l-6.5-4.8l-4.8,1.6l-1.5-1.6l3.1-3.2v-6.5l1.6-4.8l3.2-3.2l-1.6-1.6l-3.2-1.6l-1.6-3.2v-1.6
		l-6.5-1.6l-6.5-3.2l-4.8-3.2l-1.6-6.5v-5l4.8-4.7l1.6-3.2l-6.5-6.3h-2.6l-3.9,1.4l-2.4,0.7l-1.3-2.1l5.3-3.4v-3.2l-5.3,1.4l-6,0.2
		l-9.7-6.5l-11.3-9.7l-1.6-1.6l-4.8,1.6l-6.5-4.9l-1.6,3.2h-1.6l-4.8-3.2L1518,0h-117.7l-6.2,3.7c0,0-9.7,6.5-11.3,8.1
		s-9.7,9.7-9.7,9.7L1360.2,36l-14.5,16.1l-14.5,17.8l-8.1,9.7l-9.7,6.5l-6.5,6.5l-14.5,12.9l-6.5,8.1l-6.5,3.4l-6.6,2.6l-6.6,2.6
		l-1.3,1.3l6.3-0.9l-6.2,0.9l0.9,3.1l1.3,6.6v6.6l-3.5,6.6l-3.2,4.8l-3.8,1.8h-2.6l-2.6,1.3v10.5l2.6,2.6l3.9,2.6v1.3l-2.6,1.3
		l-1.3,4l-2.6,6.6l-4,6.6l-2.6,4h-11.8l-1.3-1.3l-1.3-2.6v-6.6l-1.3-2.6h-2.6v2.6l-1.4,5.1l-0.6,4.8l0.4,0.2l-0.4-0.1l-1,8.1
		l1.6,12.9l4.8,6.5l1.6,0.7l0,0l9.7,4.1l12.9,6.5l12.9,8l4.3,7.2l0,0l0,0l0.5,0.8l4.8,4.9l3.2,4.8v11.3l-1.6,9.7l-6.5,9.7l-9.7,6.5
		l-8.1,3.2l-4.8,3.2l-3.2,3.2l-6.5,3.2l-8.1,3.2l-4.8-1.6h-4.8l-4.8,3.2l-6.5,4.9l-4.8,3.2l-6.5,3.2l-4.8,8.1l-4.8,8.1v10.3
		l-0.7,7.3l10,4.6l5.3,1.3l17.1,9.2l48.9,15.7l3.8,0.9l6.6-2.8l2.8-6.6v-6l25.1-54.9h2.9l9.4,4.4l1.7-3.7l-9-4.2l-2.3-2.5l20.8-45.5
		l13.3-6.9l297.3,288l11.7,15.2l17.6,17.6h6.4l29.9,30.4h6.1l27.8-29.3v-5.9l-35.4-36.7l-0.2-2l1.9-17.6l-1.9-5.6l-37.4-36.9l-9,9
		l-4.9-0.8l-7.9-4.1l-4.4-3.2l-63.5-58.8l-5.8-3.5l-151.5-147.1l0.8-4.1l11.4-32.7l4.9,1.6l114.4,109.9l-26.7,27.1l6.5,6.3
		l26.6-27.3l64.9,62.3l45-47.5l14.7,13.9l38.4,40.9l25.4,29.5l25.9,31.7l8.5,11.7l0.3,0.3l3-2.8l2.4,4.1l0.8,1.6l5.4,6.2l-3.1,2.3
		l1.6,2.2l2.9-2.1l4.6,8.8l-7.3,5.5l0.7,1l-24.9,17.7c-0.5,0.3-0.8,0.9-0.7,1.5c0.1,0.9,0.9,1.6,1.7,1.5c0.4,0,0.7-0.1,1-0.3
		l24.9-17.8l0.7,1l7.5-5.7l0.2,0.3l17.1,24.7l1.4,2c-0.5,0.1-0.9,0.3-1.2,0.6c-0.5,0.6-0.7,1.4-0.6,2.2l-7.8,7.8l2.9,2.9l7.8-7.8
		c0.8,0.2,1.6,0,2.2-0.5c0.1-0.1,0.2-0.1,0.2-0.2l1.7,2.4l13.4,10.7l6.6,1.1l-6.6,5.7l40.9,49.9l4.9,5.7l32.8,18v-4.6v-17.4
		l-0.5-0.3l-4.1-4.2l0,0l0,0l-0.2,0l0.1,0l-1.1-4v-6.9l1.3-5.4l-1.3-8.2l-2.6-6.3l-6.6-9.2v-19.8L1909,550.4z"/>
	<polygon class="st1" points="1917.7,968.3 1916.2,969.8 1915,971.1 1914,972.1 1912.4,973.6 1912.4,974.8 1906.6,980.6 
		1906.9,981.1 1907.1,981.1 1912.7,975.3 1913.7,975.6 1914.2,975.6 1914.7,975.1 1916,974.1 1917.7,972.1 1919.5,970.3 1920,969.9 
		1920,966.1 1919.3,967 	"/>
	<path class="st1" d="M1354.2,480.6c0,0.7,0.6,1.2,1.2,1.2c0.2,0,0.4,0,0.6-0.1l85.9-45c0,0,0,0,0,0c0.6-0.3,0.8-1.1,0.5-1.6
		c0,0,0,0,0,0c-0.3-0.6-1-0.8-1.6-0.5l-85.9,45C1354.4,479.7,1354.2,480.1,1354.2,480.6z"/>
	<path class="st1" d="M1321.7,391.9C1321.7,391.9,1321.7,391.9,1321.7,391.9c-0.4-0.6-1.1-0.7-1.7-0.4c-0.6,0.4-0.7,1.1-0.3,1.7
		l35.2,54c0.2,0.3,0.6,0.5,1,0.5c0.2,0,0.5-0.1,0.7-0.2c0.6-0.4,0.7-1.1,0.4-1.7L1321.7,391.9z"/>
	<path class="st1" d="M1763.3,574.5c2.7,0,5-0.4,6.6-1.4c4.9-3.3,18.3-13.6,18.9-14l0,0c0.7-0.6,0.9-1.6,0.3-2.3
		c-0.6-0.7-1.6-0.9-2.3-0.3c-0.1,0.1-13.9,10.6-18.7,13.8c-3.1,2.1-14.4,0-20.7-1.8c-0.9-0.2-1.8,0.3-2,1.1s0.3,1.8,1.1,2
		C1747.7,572.1,1756.5,574.5,1763.3,574.5z"/>
	<path class="st1" d="M104.7,324.3h1.6l2.4-0.8l3.6-2l19.3-4.3l4.6-2.8h3.7l37.5,18.5l12.9,68.5c0.3,1.4,1.4,2.3,2.8,2.3
		c0.2,0,0.4,0,0.5,0c1.6-0.3,2.6-1.8,2.3-3.3l-1.7-8.8c1.4-0.9,2.1-2.6,1.8-4.2l-14.4-76.5v-0.1l67.6-12l1.6,3.2l14.2,64l1.4,7.2
		l-55.2,10.4l0.2,1.9l5-1l0.2,1l0.5,0.2l0.5,0.2l1.4-0.2l52.4-9.9l0.5-0.5l0.2-0.5v-0.7l-1.5-9.8l-7.2-47.1v-2.8l7.4-0.9l2.8,0.9
		l2.9-0.4l3.6,3.2l4.7,1.8l3.1,1.1h13.9l6.6,6.1l1.3,2.9l-0.3,3.4v5.7l1.6,8.7l3.1,3.1l5.5,0.8l6.3,2.4l4.7,3.9l1.6,6.3l4.8,7.1
		l4.7,4l4,2.4l3.2,1.6l2.3-2.4l1.6-6.3l1.6-5.5l5.5-7.1l-1.6-4l1.6-6.3l10.5-8.8l3.4,3.1l7.3-8l-3.3-3.3l2-2.8l2-4.7l3.5-3.1l5-1.9
		l1.3-3.7l-3.2-2.4l-2.4-4l-0.8-4.9v-5.4l2.4-5.5l5.7-5.8l2.5-2.5l0.5-3.6l1.6-4l3.6-4.6l6.5-6.5l9-7.4l7.4-4.1l9-2.5l5.6-1l4.7-4
		v-7.1l-1.6-7.9l-4.3-6.4l-2-3.9l-2.4-6.3l-3.3-4.7l-2.9-0.7l-0.4-0.7v-0.5l-0.2-0.5v-0.2l-0.2-0.5l-0.2-0.2l-0.2-0.2l-0.2-0.2
		l-0.5-0.5H425l-0.5-0.2h-0.5l-0.2-0.2h-0.7l-0.5,0.2h-0.5l-6.7-5l-3.3-2.4l-3.3-3.3l-2.5-1.6l-0.8-1.6l-1.6-0.8l-1.6,0.8l-1.6,0.8
		h-3.6l-8.6-5.5c-0.7-0.4-1.6-0.2-2.1,0.5c-0.5,0.7-0.4,1.8,0.4,2.3l13.1,8.3l0.1,0.1l0.8,0.8l-2.9,2.9l-4.8-3.5l-1.1,1.5l4.6,3.4
		l-2.3,2.3l-1.6-1.6l-3.3,3.3l1.8,1.4l-8.4,8.4l-8.1-8.1l-1.2,1.2l8.1,8.1l-0.3,0.3l2.4,2.6l-8.2,9l-3.3-3.3l-0.8,0.8l3.3,3.3
		l-1.4,0.8l-3.1-3.3l-0.9,0.9l-8.5-8.5l-1.2,1.4l11.6,11.6l-11.3,11.3l-7.4-7.2l4.1-4.2l-1-1l-4.1,4.2l-3.9-3.8l4.5-4.5h0.2v-0.3
		H352l-0.5-0.5V227h-0.2v0.2l-4.5,4.5l-1.2-1.4l5.4-5.4l-3.6-3.6l-5.4,5.4l-5.2-6l8.5-8.7v-0.2l-0.5-0.5h-0.2l-8.7,8.7l-0.5-0.5
		v-0.2l-5.2-4.2l-5.4-6.6l1-1l3.5,3.5l0.8-0.8l-3.5-3.5l3.3-3.3l4.5,4.5l0.8-0.8l-4.5-4.5l5.8-5.7l4.5,4.5l0.8-0.8l-4.4-4.4l6.2-6.1
		l0.5-0.4l8.3,8.4l1.2-1.2l-8.2-8.2l5.3-4.2l8.4,8.4l1-1l-8.3-8.3l5.7-3.6l5.4,5.3l1-1l-5.1-5.1l2.9-1.8l5.9,4.3l0.7-0.9l-5.5-4
		l1.6-1l3.4,2.3c0.1,0.1,0.1,0.1,0.2,0.1c0.8,0.4,1.8,0.2,2.2-0.6c0.4-0.8,0.2-1.8-0.6-2.2l-2.3-1.5l-31.5-19.1h-1.2l-0.2,0.2
		l-8.5-5l-13.8-7.5l14.4-23.6l31,19.7l-2.3,3.4l14.1,8.6l0.7-1.4l-11.7-7.3l6.6-10.8l2.6,1.7l0.5-0.8l-2.6-1.8l1.6-2.6l2.8,1.9
		l0.5-0.8l-2.9-1.9l0.1-0.1l1.2-1.9l5.8,3.9l0.5-0.8l-5.9-3.9l1.3-2.1l6.5,4.3l0.5-0.8l-6.5-4.3l6.9-10.8l5.2,3.5l0.5-0.8l-5.3-3.5
		l1.9-3.1l6.1,4.1l0.5-0.8l-6.1-4.1l1.4-2.2l6,3.5l0.5-0.8l-6-3.5l4.4-6.9l8.2,4.1l17,11.9l18.2,10.1l0.3,0h-0.3l13.5,8.5l5.3,3.8
		l10.6,6.5l4.9,4.1l9,7.4l-8.2,9.8l3.3,2.5l8.2-9.8l14.7,12.7l-8,9.7l2.8,2.4l8-9.7l16.6,13.7l-2.3,3l1.2,1l2.6-3.1l9.7,8.3
		l-6.9,8.3l1.4,1.2l6.9-8.3l8.3,6.9l-6.9,8.5l1.4,1.2l6.9-8.5l13.3,10.9l85.2-35.9l-0.1,0l0.1,0h39.4l1.7,15.5l14-1.2l3.2-4.8
		l2.9-3.2h3.6l4.9-1.6l3.9-0.8l4.1-0.8l3.2-1.6l1.6-1.6l3.2-3.2l-1.6-3.2l-3.2-3.2l-3.2-4.8l-1.6-6.5l-1.6-4.8l-3.2-1.6l-1.6-1.6
		h-3.2l-3.2-3.2l-1.6-3.2l-8.1-8.1l-9.7-9.7l-1.6-3.2l1.6-3.2l-1.6-4.8l-4.8-3.2l-9.7-6.5l-4.8-8.1l-1.6-8.1l3.2-3.2l8.1-1.6h8.1
		l6.5,3.2h8.1l8.1,3.2l6.5-8.1l6.5-9.7l-3.2-6.5l-0.3-9.7h-4.6l-6.5-6.5l-8.1-16.2l-6.5-17.8L674.6,0h-81H374.1h-47.9l0.3,0.1l2,1
		L325.9,0H20.2l33.8,107.5l137.4-43.3l6.5,3.3l18,54.8L0,190.5v76.7l101.9,55.5L104.7,324.3z M493.5,0.5L493.5,0.5l-8.2,9.4l0,0
		L493.5,0.5z"/>
</g>
<g>
	<defs>
		<rect id="SVGID_1_" width="1920" height="1080"/>
	</defs>
	<clipPath id="SVGID_2_">
		<use xlink:href="#SVGID_1_"  style="overflow:visible;"/>
	</clipPath>
	<g class="st2">
		<path id="Pre1900_Kln" class="st3" d="M-171-465.9l0.5,1.1l5.3,9.2l2.6,4l2.6,4l1.3,4l1.3,5.3l1.3,2.6l1.3,4l1.3,1.3l4,1.3
			l2.6,2.6l1.3,2.6l2.6,2.6l2.6,1.3h3.9l1.3-1.3l3.8-2.7h5.3l7.9-1.3l7.9-6.6l4-9.2l4-7.9l2.6-11.9l3.9-7.9l7.9-4l8.2-5.6h4.8
			l4.2-1.3l3.9-2.6h10.7l4.8,1.3l3.6,0.6l4.1,0.6l3.9,1.3h2.8l3.4,1.4l3.9,1.3l2.6,1.3l3.9,2.6l3.9,2.6l2.6,2.6l2.6,2.6l2.6,2.6
			l2.6,1.3H-4l0.5-1.3h1.3l1.9,1.3l2-1.3l1.2-1.3l1.3-1.3v-3.7L3-469.3v-2.6l1.3-1.4l1.3-1.2v-6.4l-1.2-1.3L3-483.5l-1.3-1.3
			l-1.3-1.3l-1.3-2.6v-2.6l1.3-2.6l1.3-2.6l1.3-1.3l2.6-2.6l2.6-2.6l2.6-1.3h2.5l2.7-1.3l1.3-2.6v-2.6l1.3-2.6l2.5-2.6l2.6-2.6
			l2.6-1.3l2.6-1.3l2.6-1.3h2.3l2.9-1.3l2.5-1.3l2.6-2.6l2.6-2.6l1.3-1.3l1.3-2.6l2.6-2.6l2.6-1.3h7.7l3.9,1.3H66l3.9,1.3h7.7
			l3.9,1.3l3.8,1.3l3.9,2.6l2.6,1.3h7.7l3.9,1.3l3.9,2.6l3.8,1.3h3.9l5.2-1.3l3.8-1.3l2.6-1.3l3.8-5.2l1.3-3.9l1.3-5.1l1.3-3.9
			l1.3-3.9l2.6-3.9l2.6-3.9l2.6-3.8l2.6-3.9l2.6-3.9l2.6-3.9l3.9-3.9l5.1-3.9c0,0,3.9-3.8,5.1-3.8s2.6-2.6,2.6-2.6v-2.7l-1.3-5
			L165-598l-1.3-3.9l-1.3-3.9l1.3-3.9l2.6-2.6l2.6-1.3h5.2v1.3l-3.9,1.3l-2.6,1.3l-1.3,2.5v2.6l1.3,3.9l1.3,3.8l1.3,3.9l1.3,3.9
			v10.3l-1.3,2.6l-2.6,2.6h-7.7l-2.6,2.6l-2.6,2.6l-3.9,3.9l-2.6,3.9l-3.9,5.1l-2.6,5.2l-2.6,3.8l-1.3,3.9l-1.3,3.9l-1.3,3.9
			l-1.3,3.9l-2.6,3.9l-2.6,2.6l-2.6,3.9l-2.6,3.9l-1.3,3.8l-1.3,5.1v18l-1.3,3.9v2.6l1.3,3.9l1.3,6.4v6.4l-0.9,6.4l-0.4,5.1v9
			l1.3,2.6l1.3,3.9H123l-3-1.3h-5.2l-1.5,1.3l-2.4,2.6l-2.6,2.6l-3.9,3.9l-2.6,2.6l-2.6,2.6l-2.5,2.7l-2.6,1.3l-2.6,5.1l-2.6,5.1
			l-2.6,5.1l-2.6,5.1l-2.6,3.9l-2.6,3.9l-1.3,5.1l-3.9,5.1l-3.9,3.9l-3.9,3.8l-2.6,2.6l-3.9,2.6l-3.8,3.9l-2.6,2.6l-3.8,1.3
			l-3.9,1.3h-3.2L39-360l-1.3,1.3l1.3,2.6v6.4l1.3,2.6l-1.3,2.6l-1.3,2.6l-1.3,3.9l-1.3,3.9l-1.3,3.9l-2.6,5.1v9l-1.3,5.1l-1.3,5.1
			v7.7l1.3,5.1v3.9l1.3,5.1v10.3l-1.3,5.1v27l1.3,5.1l1.3,3.9l1.3,3.9l1.3,3.8l2.6,3.9l2.6,3.9l3.9,2.6l3.8,1.3h6.4l2.6,1.3l2.6,2.6
			l2.6,1.3L66-207l2.6,1.3l2.6,2.6l3.9,2.6l5.1,1.3l3.9,1.3h5.1l3.9,1.3h2.6l1.3,1.3l2.6,2.6l2.6,2.6l2.6,2.6l1.3,1.3h5.3l1.1,1.3
			h10.8l2,1.3l2.6,1.3l2.6,1.3h2.2l2.9,1.3v3.9l1,5.1l1.3,5.3l1.3,5.3l2.6,2.6l4,1.3l1.3,3.9l1.3,2.6l1.3,3.9v4l-1.3,3.9v3.9
			l1.3,2.6l2.6,4h4.4l3.5,1.3h3.7l2.9,1.3l4,1.3l2.6,3.9l1.3,4v4l1.3,3.9l1.3,2.6l1.3,2.6l1.3,2.6h2.6l2.6,1.3h5.3l2.6,1.3l1.3,1.3
			v5.3l-1.4,2.5v2.6l1.3,1.4l1.3,1.3h1.8l2.1-1.3l2.6-1.3h1.3l4-1.3l5.2-1.4l3.9-1.3h2.6l2.6-1.3l1.3-2.6l1.3-2.6l1.3-2.6v-6.6
			l1.3-2.6l1.3-2.6l1.4-2.6v-3.9l-1.3-4v-1.3l2.6-1.3l1.3-2.6v-7.9l1.3-2.6l1.3-2.6v-2.7l-1.3-4v-5.3l1.3-4.4v-3.5l-2.6-4v-4l-4-6.6
			l-1.3-6.6v-5.3l-1.3-5.2l-1.3-5.2l-1.3-2.6l-1.3-2.6l-2.6-2.6l-3.3-0.4h-5.9l-3.5-1.2l-1.6-1.2l-1.3-3.9v-27.7l-1.3-3.9v-2.6
			l1.3-1.3l2.6,4l2.6,1.3l2.6,2.6v4l1.3,2.6l2.6,1.3l2.6,1.3l3.9,0.2l2.6-0.2h2.6l2.6,1.3v9l2.6,1.6l4,1.3l1.3,3.9l1.3,4l1.3,5.3
			l2.6,4l2.6,2.6l4,1.3h2.6l2.6,2.6l2.6,2.6v2.3l-3.9,3l-1.3,2.6l1.2,2.4l1.3,4v27.7l2.6,4l1.3,2.6l2.6,2.6l1.3,2.6l1.3,1.3l1.3,1.3
			l1.3,1.3l1.3,1.3v2.1l1.3,1.6l1.3,1.3l1.3,1.3l4,2.6l5.3,1.3l4,1.3h5.3l4,1.3l4,1.3l4,2.6h2.6l4,1.3l2.6,2.6v13.5l1.3,3.6l1.3,4
			l1.3,2.6l1.3,2.6l1.3,2.6l1.3,2.6l1.2,2.6l1.3,2.6v2.6l1.3,4v2.6l1.3,4l1.3,2.6l1.3,2.6l1.3,1.3l4,2.6l3.9,1.2l4,1.3l3.9,1.3h6.6
			l2.6-1.3l2.6-1.3l2.6-1.3l2.6-1.3l12.3-3.9l10.1-4l5.3,1.3l1.3,1.3l3.4,1.4h4.2l4.3-1.4l5.3-2.6l1.3-2.6l1.3-4v-1.7l1.3-0.9
			l1.3,2.6v2.5l2.6,1.6l4-1.3l10.5-4l5.3-1.3h2.6l4,1.3l1.3,2.6l1.3,2.7l4,2.6h14.5l5.3-1.3l6.6-1.3l4-2.6l1.3-2.6l1.3-2.6l-1.3-4
			l-4-3.9l-7.9-5.3l-2.6-2.6v-2.6l1.3-1.3h2.6l4,2.7l4,2.6l4,4l2.6,3.9l1.3,2.6l1.3,5.3v4.3l1.3,3.6h4l2.6-1.3v-5.9l-1.4-3.4
			l-2.6-5.3l-2.6-9.2v-11.9l1.3-1.3l1.3,1.3v2.6l1.3,2.6l1.3,1.3h2.6l4-2.6l2.6-1.3l1.3,2.6h4l4-1.3l2.6-1.3h2.6l7.8-1.3l5.3-2.6
			l5.3-4l2.6-4l2.6-4l3.5-4.8l8.1,4.8l4.8-1.6l3.2,3.2l4.8,1.6l6.5,6.5l6.5,4.9h3.2l8.1,6.5L598-83l4.8,4.8v4.7l3.2,6.6l4.9,4.9h6.5
			l3.2-3.2h1.6l1.6,4.8l6.5,3.2l3.2,1.6l4.8,3.2l4.9-1.7l1.6,4.8l9.7,4.8l9.7,9.7l6.5,4.9l1.6,8.1v7.9l1.6,11.5l4.8,16.2l6.5,17.8
			l8.1,16.2l6.5,6.5h4.6l0.3,9.7l3.2,6.5l-6.5,9.7l-6.5,8.1l-8.1-3.2h-8.1l-6.5-3.2h-8.1l-8.1,1.6l-3.2,3.2l1.6,8.1l4.8,8.1l9.7,6.5
			l4.8,3.2l1.6,4.8l-1.6,3.2l1.6,3.2l9.7,9.7l8.1,8.1l1.6,3.2l3.2,3.2h3.2l1.6,1.6l3.2,1.6l1.6,4.9l1.6,6.5l3.2,4.9l3.2,3.2l1.6,3.2
			l-3.2,3.2l-1.6,1.6l-3.2,1.6l-4.1,0.8l-3.9,0.8l-4.8,1.6H693l-2.9,3.2l-3.2,4.8l-4.9,16.2l1.6,14.5l-3.2,21l1.6,4.9l3.2,4.9
			l4.8,4.8l6.5,9.7l6.5,3.2l6.5-6.5l6.5-8.1l1.6-8.1l1.6-4.9l8.1-6.5l3.2-4.9l1.6-11.3l1.6-11.3l1.6-8.1l3.2-8.1l1.6-6.5v-9.6
			l1.6-3.3l11.3-1.6l19.4,1.6l16.2,3.2l11.3,3.2l9.8,1.6l6.4,4.9v22.6l-1.6,4.8l1.6,4.9v6.5l-4.8,9.7l-3.2,4.9l-3.2,3.2v4.9l1.6,4.9
			v32.3l1.6,6.5l1.7,4.1v2.1l3.2,6.8v17.8l3.2,3.2l4.8,3.2l3.2,1.6l3.2,4.9v4.9l1.6,4.8l1.6,3.2v4.9l1.6,3.2v4.9l-1.6,1.6l-3.2,1.6
			l-3.2,1.6l-1.6,6.5l1.6,1.6v4.8l4.8,3.2l1.6,1.6l4.8,1.6l1.6,4.9l4.8,6.5l1.6,8.1l3.2,3.2v3.2l-1.6,6.5l-3.2,6.5l-1.6,8.1l3.2,1.6
			l6.5,6.5l6.5,4.9v8.1l-3.2,3.2v6.4l-1.6,4.9v12.9l-1.6,4.9l-3.2,6.5l-4.8,4.9l-6.5,1.6l-4.8,4.9l-1.6,4.8l-3.2,8.1l-3.2,8.1
			l-4.8,11.3l-3.2,1.6l-8.1,3.2l-3.2,3.2l-1.6,4.8l-1.6,4.5v11.6l1.6,3.2l3.2,4.8l6.5,1.6l3.2,1.6l3.2,4.7l1.6,8.2l1.6,6.5l-1.6,9.7
			l-1.6,9v8.8l1.6,9.7l1.6,11.8v15.7l3.2,6.5l3.2,6.5l1.6,6.5v14.5l-3.2,6.5l1.6,11.3l1.6,6.5l1.6,3.2l3.2,6.5l1.6,6.5l1.6,3.5v6.2
			l1.6,4.8l1.6,6.9v4.4l3.2,3.2h3.2l3.2-4.8l1.6-6.5l6.5-3.2l1.6-6.5l6.5-6.5l8.1-1.6l6.5-3.2h21l4.8-1.6h11.3l3.2,4.8l3.2,8.1
			l1.6,4.8l6.5,6v3.8l3.2,4.8h8.1l8.1-8.1l6.5-9.7l3.2-8.1v-9.7l-3.2-4.8l-3.2-9.7l1.6-6.5l1.6-11.3l3.2-12.9l3.2-11.3l3.2-8.1
			l4.8-11.3l3.2-11.3l4.8-16.1l3.2-14.5l3.2-3.2l4.8,1.6l4.8,3.1l4.8-1.6l3.2-4.8l6.5-9.7l3.2-16.2l1.6-11.3l3.2-12.9l3.2-11.3
			l3.2-8.1l4.8-4.8l6.5-8.1l4.8-3.2l3.2-4.8l3.2-3.2l4.8-3.2l4.8-3.2l3.2-2.1v-2.7l1.6-4.8l3.2-1.6l4.8-1.6l14.5-3.2l7.8,12.4
			l8.1-3.2l3.2-3.2l3.2-1.6h4.8l1.6,1.6l3.2,6.5c2.3,1.5,4.4,3.1,6.5,4.8c1.6,1.6,8.1,3.2,8.1,3.2l11.6-9.2l8.1,3.2l6.5,1.6l4.8,1.6
			l4.8,3.2l3.2,4.8l4.8,3.2l3.2,4.8l4.8,5.3v6c0,0,1.6,3.2,1.6,4.8s4.8,3.2,4.8,3.2l6.5,1.6l4.8,3.2l3.2,3.2l4.8,4.8l6.5,3.2
			l3.2,3.2v6.5l1.6,4.8l4.8,3.2l4.8,1.6h3.2l1.6,3.2l3.2,6.5l3.2,3.2l3.2,1.6l6.5,3.2l4.6,3.4l3.7,0.4l1.3-0.7l2.6-2.6l1.3-5.3v-6.6
			l-4-6.6l-2.6-6.6l1.3-9.2l6.6-7.9l1.3-14.8l4.8-11.3l6.5-6.5v-2.6l-0.8-3l-1.3-4l-3.9-4l-1.3-4l-5.3-6.6l-5.3-5.3l-9.2-5.3
			l-10.5-5.1l-9.2-3.8l-9.7-1.6l-4.8-4.9l-1.6-3.2v-6.5l-5-10.4l-6.3-9l-8.1-6.5l-6.5-11.3l-3.2-10.2v-44.7l1.6-17.1v-10.3l4.8-8.1
			l4.8-8.1l6.5-3.2l4.8-3.2l6.5-4.9l4.8-3.2h4.8l4.8,1.6l8.1-3.2l6.5-3.2l3.2-3.2l4.8-3.2l8.1-3.2l9.7-6.5l6.5-9.7l1.6-9.7v-11.3
			l-3.2-4.8l-4.8-4.9l-4.8-8.1l-12.9-8.1l-12.9-6.5l-11.3-4.9l-4.8-6.5l-1.6-12.9l1.6-12.9l1.4-5.1v-2.6h2.6l1.3,2.6v6.6l1.3,2.6
			l1.3,1.3h11.8l2.6-3.9l4-6.6l2.6-6.6l1.3-4l2.6-1.3V170l-4-2.6l-2.6-2.6v-10.5l2.6-1.3h2.6l3.8-1.8l3.2-4.8l3.5-6.6v-6.6l-1.3-6.6
			l-0.9-3.1l1.3-1.3l6.6-2.6l6.6-2.6l6.5-3.4l6.5-8.1l14.5-12.9l6.5-6.5l9.7-6.5l8.1-9.7l14.5-17.8l14.5-16.2l12.9-14.5l9.7-9.7
			c1.6-1.6,11.3-8.1,11.3-8.1l8.1-4.8l12.9-4.8l17.8-3.2l10.1-1.6h64.2l4.8,6.5l4.8,3.2l4.8,4.8l4.8,3.2h1.6l1.6-3.2l6.5,4.8
			l4.8-1.6l1.6,1.6l11.3,9.7l9.7,6.5l6-0.2l5.3-1.4v3.2l-5.3,3.4l1.3,2.1l2.4-0.7l3.9-1.4h2.6l6.5,6.3l-1.6,3.2l-4.8,4.7v5l1.6,6.5
			l4.8,3.2l6.5,3.2l6.5,1.6v1.6l1.6,3.2l3.2,1.6l1.6,1.6l-3.2,3.2l-1.6,4.8v6.5l-3.1,3.2l1.5,1.6l4.8-1.6l6.5,4.8l3.2,4.8l4.8,8.1
			l3.2,1.6l8.1,3.3l9.7,4.8l6.5,3.2l1.6,4.8l3.2,6.5l4.8,4.9l4.1,3.2h5.6l-3.2,2.8v2l3.2,1.6v3.2l6.5,4.9l8.1,6.5l6.5,9.7l3.2,4.8
			l4.8,4.9v4.9l1.6,4.8l-1.9,2.6l-1.3,1.3l-2.6,2.6l-3.9,2.6l-2.6,1.3l-2.6,2.6l-1.3,4l1.3,1.3l1.3,2.6l2.6,2.6l1.3,1.3v2.6l1.3,1.3
			v2.5l1.3,1.3l2.6,1.3l4.5,1.7l-0.6,0.9l-4,2.6l-4,2.6v1.3l1.3,1.3h4l-1.3,3.9l1.3,2.6l-2.6,5.3l-2.6,4h-2.6l-1.3,1.3v2.7l1.3,2.6
			l1.3,4l1.3,4l1.3,4v5.3l-2.6,4l-5.3,2.6l-4,2.6l-1.3,3.1v4.8l1.3,4l2.6,1.3l2.6,5.3v2.5l-1.3,5.3l-2.6,2v1.9l2.6,1.3l3.9,5.3
			l1.3,4l2.6,4l2.6,5.3l2.6,1.3l4,2.6l1.3,2.6l1.3,1.3h5.3l2.6,1.3l1.3,2.6l2.6,4l2.6,1.3l6.6,2.6l4,1.3l4,4l2.6,5.3l4,1.3l2.6,2.6
			h1.3l1.3-1.3l4-2.6h2.6l4,1.3l4,1.3h7.9l2.6,1.3l1.3,2.6l1.3,2.6l5.3,4l2.6,1.3l2.6,1.3l2.6,2.6l2.6,1.3l4,2.6l5.3,1.3l4,1.3h4
			l2.2-1.3h9.2l5.3,1.3l6.6,4l4,1.3l4,2.6l4,4l2.6,5.3l2.6,4l2.6,2.6l4,2.6l5.3,2.6h1.3l2.4-1.3l2.6-5v-5.5l1.3-1.3h4l3.9-1.3l4-1.3
			h1.3l1.3,1.3l15.8,21.1l6.6,9.2l1.3,2.6l3.9,2.6l5.3,2.6l4,2.6l5.3,4l5.3,2.6l2.6,1.3h2.6l4-1.3h2.6l5.3,1.3h7.9l2.6-4v-7.9
			l-1.3-9.2l1.3-5.3v-2.6l-1.3-10.5v-13.1l1.3-4h1.3l4,6.6l7.9,9.2l6.6,6.6l2.6,4l5.3,2.6l2.6,4v4l4,2.6l5.3,1.3l5.3,1.3l5.3,2.6
			l5.3,1.3l2.6-1.3l4-2.6h2.6v1.3l-1.3,1.3l-5.3,6.6l-5.3,6.6l-7.9,5.3l-6.6,4l-11.9,7.9l-5.3,5.3l-1.3,7.9l-2.6,5.3l-5.3,1.3h-6.6
			l-6.6,1.3l-2.6,1.3l-4,5.3l-3.9,5.3l-2.6,4l1.3,4l-1.3,7.9l-1.3,5.3l-1.3,5.3l-2.6,4l-2.6,2.6l1.3,1.3l1.3,2.6l1.3,2.6l-2.6,1.3
			h-5.3l-7.9,1.3l-5.9,2.6l-3.4,2.6l-4,6.5v19.8l6.6,9.2l2.6,6.3l1.3,8.2l-1.3,5.4v6.9l1.1,4l4.1,4.2l10.3,7.1l5.5,4l7.1,7.1
			l1.6,7.1l0.8,6.3l3.2,9.5l5.5,8.7l8.7,10.3l7.9,6.3l11.1,4l10.3,1.6l7.9,0.8l4.7,4.2l10.3,1.3l5.7-1.3l4.6-1.9l5.6-2.6l5.5,1
			l3.1,1.3l7.5,2.1h4.4l7.1-1.9l6.3,0.8l4.4,1.1l3.7,1.3h2.3l3.9,1.3h7.9l6.6-2.6h2.6l7.9,1.3h5.3l1.3,1.3l-1.3,1.3l-2.6,4l-2.6,4
			v2.6l-2.6,1.3l-4,2.6l-1.3,2.6l1.3,7.9l2.6,6.6l2.6,6.6l2.6,4l1.3,11.9l-2.6,1.3h-6.6l-5.3,2.6h-4l-2.6-1.3l-6.4-2.9h-4l-5.3,1.3
			l-6.6,2.6l-1.3,2.6v2.6l1.3,5.3l1.3,9.2l-1.3,2.6h-2.6l-3.9-2.6l-2.6-1.3l-2.6-2.6l-4-1.3l-4-2.6l-4-1.3h-4l-2.6,1.3l-1.3,4
			l2.4,4.7l2.4,4.9l1.6,5.7l6.7,7.1l10.5,7.9l3.9,1.3l5.3,1.3l2.6,1.3l3.9,6.6l-1.3,0.7v2l1.3,1.3l10.5,9.2l9.2,6.6h5.3l5.3-2.6
			l5.3-1.3l5.3-4l7.9-1.3l7.9-4l5.3-1.3l5.3-1.3l4-2.6h1.3v4l-1.3,2.6l-2.6,6.6l-1.3,5.3l-4,11.9l-1.3,6.6l-2.6,6.6l-6.6,7.9
			l-10.5,14.5l-5.3,7.9l-2.6,6.6l-2.6,2.6l-4,5.3v1.3l-2.6,6.6l-1.3,2.6l1.3,1.3l1.3,1.3l2.6,1.3l4,2.6l3.9,1.3l2.6,1.3h6.6l9.2,6.6
			l4,4l3.9,2.6l2.6,1.3l2.6,1.3h7.9l5.3,2.6l1.3,2.2v1.8l2.6,2.6l1.3,1.3h2.6l6,2l7.4,2.8l9.3,0.9h9.2l8.5,1.9l7.1,0.4l3.3,1.3h8.6
			l2.6-1.3l5.3-1.3l4-1.3l1.3-2.6l6.6-13.2l2.6-2.6l11.9-14.5l2.6-4.8v-8.3l1.3-1.3l1.3,1.3l1.3,1.3h2.6l1.3-1.3l2.6-2.6v-4
			l-2.6-2.6l-3.9-3.1v-3.5l3.6-1.3h3l3.9-2.6h2.8l4-1.3l4-4l1.3-4l2.6-1.3l4-1.3l3.9-1.3l1.3-4l1.3-4l1.3-2.6l2.6-4l2.6-4l2.6-2.6
			l3.9-1.3l4-2.6l2.6-4l1.3-3.9v-5.3l1.3-5.3l1.3-4h1.3l2.1,1.3h1.9l1.3-2.6l3.9-1.3h4l2.6-1.3l9.2-6.6l4-5.3l11.9-13.2v-6.6
			l2.1-5.3l1.8-2.6l2.6,1.3l-0.1,1.3h2.8l2.6-2.6l6.6-7.9l1-2.5l-1.3-4v-10.5l2.6-2.6l2.6-1.3l4-1.3l1.3,1.3l1.3,2.6l2.6-1.3
			l11.9-13.2l1.3-2.6v-2.6l1.3-2.6l1.6-2.6l3.6-4l5.3-2.6h4l1.3,1.3l1.3,1.3l1.3,2.6l1.3,1.3l2.6-1.3l4-4l2.6-10.5l1.3-10.5l1.3-2.6
			v-2.6l-1.3-2.6l-2.6-5.3l3.2-4.3h10.2l5.6-16.7v-8.4l-1.9-7.4l-4.6-2.8l-4.6-2.8l0.1-3.8l-1.3-5.3l-1.3-4l-4-2.6l-3.9-1.3
			l-3.9-1.3l-4.5-1.3h-4.7l-5.3-4l-5.3-4l-6.6-4l-1.3-4l-1.3-6.6l-1.3-7.9v-2.4l2.6-5.3l1.3-5.3l1.3-1.3l1.3-1.3l2.6-2.6v-2.6
			l-1.3-1.3l-4-1.3h-2.6l-2.6,1.3l-2.6,1.3h-2.6l-2.6-1.3l-1.3-1.3h-4l-1.3,1.3l-6.6,5.3h-3.9l-2.6,1.3l-4.3,1.3h-6.1l-1.3-1.3
			l-2.6-3.9V582l3.9-10.5l2.6-4l6.6-7.9l4-2.6l2.6-2.6l1.3-4v-2.6l1.3-1.3l2.6-2.6l1.3-2.6l1.3-4l2.6-2.6l5.3-4l2.8-2.6h7.7l6.6-4
			l7.9-5.3l9.2-6.6l6.6-5.3l2.6-5.3l2.6-5.3l4-2.6l2.6-4l3.9-6.6l4-4l1.3-4l1.3-6.6l1.3-6.6l2.6-9.2l1.3-5.3l2.6-2.6l4-5.3l1.3-6.6
			l2.6-6.6l5.3-4l1.3-4l5.3-7.9l1.3-5.3l2.6-7.9l1.3-9.2l1.3-2.6l4-4h1.3l2,1.3h2l1.3-1.3l4-5.3v-6.6l-1.3-4l-1.3-4l-0.7-2.6l-2-1.3
			l-1.3,1.3h-4.3l-2.6-1.3l-4-4v-4l-2.6-4l-1.3-4v-4l-1.3-4l-2.6-4l-2.6-5.3v-2.6l2.6-6.6v-4l-2.6-4l-1.3-2.6v-7.9l1.3-2.6v-2.6
			l-2.6-2.6l-1.3-4l-1.3-13.2l-1.3-9.2v-2.6l-1.3-4l-1.3-2.6l-1.3-1.3l-1.3-1.3l-1.3-1.3h-2.6l-1.3-1.3l-1.3-1.3V244l-1.3-1.3
			l-2.6-1.3l-5.3-1.3l-2.6-1.3l-6.6-2.6h-2.6l-6.6-2.6h-6.6l-9.2-2.6l-6.6-2.6l-4-5.3l-2.6-5.3l-1.3-2.6l-1.3-2.6l-2.6-1.3h-4
			l-4,1.3l-3.9,1.3l-2.6,2.6l-1.3,1.3l-2.6,1.3h-1.3l-1.3-1.3l-1.3-1.3l-1.3-1.3v-3.9l1.3-3.9l1.3-4l1.3-2.6l1.3-2.6l2.6-2.6v-7.9
			l-2.6-4l-1.3-2.6v-2.6l-1.3-1.3h-3.9l-1.3-1.3l-1.3-1.1v-2.9l1.3-2.6l1.3-2.6l2.6-3.1v-2.2l1.3-1.3l6.6-6.6l2.6-1.3l1.3-1.3
			l2.6-1.3h2.6l1.3,1.3l1.3,1.3l2.6,1.3l2.6,2.6l2.6,1.3h6.6l2.6-1.3h2.6l1.3-2.6l1.3-4l1.3-3.9l5.3-1.3h2.6l2.6-2.6l4-1.3h4
			l2.6-1.3l2.6-2.6h6.6l2.6-1.3l2.6-1.3h5.3l2.6,1.3l1.3,1.3l7.8,3.9h16l3.9,1.3l2.6,1.3l2.6,1.3l1.3,1.3l2.6,3.9l1.3,1.3l1.3,1.3
			l1.3,1.3l2.6,1.3l4,1.3l3.9,1.3h6.6l2,0.7l1.3,1.3l1.3,1.3l1.3,1.3l1.3,2.6l1.3,2.6l1.3,4l1.3,2.6v4l1.3,6.6v1.3l2.6,2.6l1.3,3
			v3.6l1.3,5.3l1.3,3.9l3.9,7.9l2.8,4.6l2.5,3.3l1.3,1.3l18.4,17.1l2.6,2.6l1.3,1.3l1.3,2.6l1.3,1.9v2.1l1.3,1.3l1.3,1.3v2.6
			l-0.6,1.8v2.8l1.3,2.7l1.3,2.6v21.1l-1.3,2.5v2.8l2.6,2.6l2.6,4l2.6,4l2.6,4l1.3,4l2.6,2.6l5.3,1.6v3.7l4,1.3l7.9,2.6l6.6,2.6
			l10.5,4l11.5-2.9l13.4-9.5l7.1-14.2l-2.4-16.6l-5.5-17.4l1.2-10.4l6.7-3.2l5.5,11.2l4.7,15l3.9,12.6l17.8,11.1h8.1"/>
		<path id="Pre1900_HKI" class="st3" d="M151.7,1574.2l0.1-0.6l0.8-3.6l1.3-5.3l1.3-4l7.9-14.5l5.3-14.5l1.3-4l-1.3-18.3v-10.7
			l-1.3-4l-2.6-2.9l-1.3-3.8v-4l1.3-1.3v-1.4l-1.3-2.6l-4-6.6l-6-6.6l-2-1.3l-6.6,1.3l-2.6-2.6l-1.3-2.7v-2.6l2.6-6.6l-1.3-2.6
			l-6.6-5.3l-1.3-1.3l1.3-1.3l2.6-1.3v-1.3l1.3-2.7l2.6-2.7v-2.6l-4-2.7l-4-4l-1.3-2.7l-4-1.3l-1.3-1.3l-1.3-2.6l-1.3-2.7l-4-2.6
			l-2.6-2.6h-2.6l-1.3,2.6l-1.1,2.1v2.1l-1.3,2.6l-1.3,1.5v6.4l-2.6,1.3h-5.3l-1.3,1.3l-1.3,2.7v2.6l-1.3,2.6l-2.7,1.3h-1.3
			l-2.6,1.3l-2.6,4l-1.3,2.6l-1.3-1.3v-2.6l-2.6-2.6l-4-1.3h-5.3l-1.3-1.3l-4-1.3l-1.3-1.3l-4-1.3l-2.6-2.7l-5.3-1.3l-4-4l-1.2-5.4
			l-1.3-2.6l-4-6.6l-2.6-7.9v-7.9l-1.3-1.3l-4-4l-1.3-2.6l2.6-4l1.3-9.3l1.3-6.6l2.7-6.6l-1.3-1.3l-1.3-5.8v-4.7l-4-8.5v-6l-2.7-1.3
			l-2.7-2.6l-0.7-5.7l-2-4.9l-1-2.6l-1.6-1.3l-5.3,1.3l-1.3-1.3l-1.3-4l-1.3-1.3l-5.3-4l-4-4l-1.3-4l1.3-2.7l-1.3-2.6l-2.6-1.3
			l-2.6-1.2v-2.7l1.3-1.3v-1.3l-1.3-1.3l2.6-2.7l2.6-2.6v-4l1.3-6.6l2.6-4l2.6-6.6v-5.3l-2.6-6.6l-4-1.3l-5.3-1.3l-2.6-1.3l-1.4,1.3
			l-4,2.6l-6.6,2.6l-4,2.7h-4l-5.3,1.3l-6.6,1.3l-8.7-1.3h-4.5l-4-1.3l-2.8-1.3H-55l-2.6-1.3l-2.6-1.3l-4.2-2.6h-9l-9.3-5.3l-2.6-4
			l-1.3-1.3l-2.7-1.3l-1.3-2.6l-2.6-5.3l-6.6-10.6l-5.3-7.9l-5.3-5.3l-6.6-4l-7.9-2.7l-5.3-5.3l-4-5.3l-1.3-5.3v-11.9l1.3-19.8
			l-1.3-5.3l-1.3-7.9l-1.3-9.3v-4l1.3-2.6l4-5.3l5.3-5.3l2.6-6.6l1.3-9.3l1.3-6.6l1.3-5.3l2.6-4l4-4l10.6-6.6l19.8-9.3l14.5-5.3
			l23-6.6H-35l4-2.6l2.6-2.6l1.3-1.3l1.3,1.3l2.6,1.3h4l6.6-1.3l2.6-1.3l1.3-2.6l2.6-4l1.3-2.7l4-2.6l4-2.6l4-1.3l2.7,1.3l2.1,0.7
			h3.8l4-1.3l5.1-2.7h6.8l5.9,6l5.3,6.8l3.3,1.7l5,3.3l5,1.7l6.7,1.7h6.7l6.7-1.7l6.7-1.7l5-1.7l5-1.7l8.3-5l5-5l3.3-5l3.3-6.7
			l1.7-5l1.7-5l3.3-3.3l3.3-3.3l5-3.3l6.7-3.3l5-5l3.3-3.3l3.3-1.7l5-3.3l1.7-8.3l1.7-5l3.3-5l3.3-5v-8.3v-0.6
			c-0.6-1.1-1.7-2.7-1.7-2.7l1.7-5l3.3-3.3h6.7l5,1.7l6.7,1.7l10.3,1.5l2.9,2.5l2.3,2.3l1.6,1.1l6.6,5l5,1.7h18.2l8.3-1.7l5-1.7
			l6.6-3.3l6.6-3.3l5-3.3l5-3.3l5-1.7l6.6-1.7h9.9l4.8,0.5l5.3,1.3h5.3l5.2-1.3l2-1.8l6.6-3.3l1.6-5l1.7-5l1.6-1.7l3.3-0.3h11.6
			l5,0.3l3.2,0.9l1.7,4v3.3l3.3,3.3l5,1.7h19.9l5,1.7h3.3l6.6,1.7l2.4-1.2l2.6-1.3h2.6l5.3,1.3l1.3,1.3l3.9,3.9l2.6,2.6l3.9,2.6
			l5.2,1.3h3.6l5.3-2.6l5.2-3.9l5.3-2.6l4.9,0.7l5,5l5,3.3l5,5h9.9l1.7-3.3l3.3-1.7h3.3l1.7,3.3l5,3.3l5,3.3l1.7,3.3v5l5,1.7l5,1.7
			h3.3l3.3-1.7l3.3-1.7h1.7l3.3-1.7l1.7-3.3h5l5,1.7h9.9l6.6,3.3l3.3,1.7h8.3l5,1.7l3.3,1.7l1.7,1.7l1.7,1.7l3.3,3.3l5,3.3l1.7,5
			v6.6l1.7,3.3l5,5l1.7,3.3l3.3,3.3l3.3,3.3l1.7,3.3l1.7,1.7l3.3,3.3l3.3,5l1.7,5l3.3,3.3l3.3,5l5,5l3.3,3.3l1.7,3.3l1.7,3.3
			l1.7,3.3l5,3.3l3.3,6.6l3.3,3.3h5l5,1.7h5l3.3,1.7l3.3-1.7h11.6l3.3-1.7l8.3-1.7l8.3,1.7l8.3,1.7l9.9,3.3l8.3,3.3l8.3,3.3l5,3.3
			l6.6,5l6.6,5l6.6,5l1.7,3.3v6.7l1.7,1.6h1.5l1.8-1.7l1.7-1.7l5-1.7h11.6l3.3-1.7l3.3-1.7l3.3-3.3l5-3.3h1.7l1.7,1.7l1.7,1.7
			l3.3,3.3l1.7,1.7l3.3,3.3v1.9l-5,4.5l-3.3,3.3l-3.3,5l1.7,3.3h6.4l6.8,1.7l5,3.3l3.3,1.7l3.3,1.7l5,3.3l3.3,1.7l3.3,3.3l1.7,1.7
			l6.6,5l5,3.3l5,3.3l5,3.3l3.3,3.3l3.3,1.7h8.3l5-1.7h3.3l5,1.7l5,3.3h22.5l4,3.3l6.6-1.7l3.3-1.7l5-1.7l3.3-1.7l5-1.7l6.6-5l5-1.7
			l6.6-1.7h5l5-3.3l3.3-1.7l3.3-1.7l11.6,3.3l11.6-8.3l5-6.6v-6.6h9.9l16.6-5l8.3-6.6l6.6-1.7l9.9,14.9l-1.7,9.9l3.3,14.9l3.3,3.3
			h9.9l6.6-3l6.6-7l5-6.6l5-1.7l11.6-5l8.3-8.3l-5-13.3v-6.6l1.7-5v-3.3l-1.7-5v-3.3l1.7-8.3l1.7-5l3.3-5l1.7-5l1.7-5v-3.3l-3.3-3.3
			l-1.7-1.7v-1.7l1.7-1.7l1.7-1.7l1.7-1.7l3.3-1.7l5-1.7l5,1.7l5,5l1.7,8.3v3.3l-1.7,5l-3.3,3.3l-1.7,3.3v3.3l5,1.7l5,3.3l6.6,6.6
			l6.6,5l8.3,3.3l9.9,3.3l9.9,1.7h13.3l5,6.6l6.6,5l5,1.7l8.3-1.7l8.3-3.3l8.3-1.7l11.6-3.3h24.8l6.6-5l1.7-6.6l-1.7-8.3l-3.3-6.6
			l-3.3-8.3v-11.6l-1.7-9.9l-1.7-9.9v-13.3l-1.7-13.3v-13l-2.9-13.2l-1.7-14.9l-1.7-8.3v-9.9l1.7-6.6l5-5l11.6-14.9l9.9-11.6
			l19.9-23.2l8.3-9.9l6.6-5l6.6-3.3h6.6l8.3,1.7l6.6,1.7l8.3,1.7l6.6,1.7h18.2l6.6-1.7l8.3-1.7l11.6-3.3l11.6-3.3l11.6-1.7l13.3-1.7
			h14.9l4.7-1.2l7.9-3.9l9.2-3.9l10.5-3.9l7.9-2.6l9.2-5.3l5.3-2.6l2.7-0.7h3.2l19.7,2.6l17,5.3l13.1,5.3l10.5,7.9l9.2,13.1
			l6.6,17.1l6.6,26.2l2.6,7.9l2.6,6.6l5.3,13.1l8,16.4l6.4,9.8l7.5,8.6l3,0.6h3.9l5.2-3.9l4-4l1.3-6.6l1.3-3.9l2.6-2.6l3.9-1.3h3.9
			l3.9,2.6l1.9,3.9l2.1,3.9l2.6,3.9l5.3,7.9l3.9,7.9l1.3,1.3h1.5l1.1-1.3l3.9-3.9l5.3-7.9l3.9-3.9l3.9-2.6l6.6-3.9l3.7-1.3h4.1
			l5.3,1.3l5.3,2.6l6.6,3.9l6.6,3.9l13.1,5.3l15.2,2.6h7.1l5.2,1.3l3.9,2.6l7.9,7.9l9.2,9.2l3.9,6.6l2.6,2.6l3.9,6.6l2.6,2.6
			l5.3,6.6l6.6,9.2l5.3,9.2l6.6,6.6l3.9,2.6l6.6,2.6l11.8,6.6l7.9,2.6l11.8,2.6l3,3.2l2.3,5.8l3.3,4.6l4,8l9.2,18.6l9.3,18.6l4,2.7
			l8,4l11.9,5.3l6.6,2.7l4,4l9.3,4h9.3l6.6-6.6l5.3-9.3l2.7-6.6l-1.3-4l-5.3-5.3l-4-17.2l4-8l9.3-23.9v-5.3l-1.3-9.3l-1.4-6.6
			l-1.3-6.6l1.3-4l4-5.3l5.3-4l8-1.3l5.3,1.3l4,1.3l9.3,2.7h8l9.3-4l5.3-5.3l1.3-4l-2.7-1.3l-1.3-4l1.3-2.7v-1.3l-1.3-2.7l1.3-2.7
			l2.7-1.3l-1.3-2.7l1.3-1.3l4-2.7l5.3-2.7l3.5-2.9l4.6-0.9l8.4,2.8l8.4,7.4l6.5,7.4l4.6,5.6l5.6,6.5l3.7,4.6l3.7,2.8l2.8,4.6
			l4.6,2.8l4.6,3.7l3.7,3.7l3.7,2.8l4.6,1.9l6.5,3.7l2.7,3.1l5.3,2.7l3.3,3.3l0.1,1.2l-0.8,0.8l-1.3,1.3l1.3,2.7l1.3,1.3h2.7
			l1.3,1.3v2.7l-1.3,2.7l-1.3,4l-1.3,4l-5.3,9.3l-1.3,4l-2.6,1.3l-4,4l-2.7,1.3l-5.3,1.3h-2.7l-5.3,4h-1.5l-2.6,1.3l-6.6,8l-1.3,4
			v5.3l2.6,2.7l6.6,9.3v1.3l2.7,4l6.6,8l1.3,2.7l1.3,2.7l4,4l5.3,6.6l1.3,6.6l1.3,4l2.7,4l5.3,4h4l4-1.3l5.3-1.3l14.6-4h2.6l4,1.3
			h2.7l1.3-1.3l5.3-5.3h1.3v5.1l1.3,4l-1.3,6.6l-1.3,2.7v1.3l-1.3,1.3h-4l-1.3,1.3l-2.7,1.3l-1.3,2.7h-1.3l-4-2.7l-1.3-1.3l-1.3,1.3
			l-1.3,2.7l-2.6,5.3l-4,2.7h-2.7l-1.3,1.3l1.3,2.7l-1.3,4l-5.3,6.6l-4,2.7l-5.3,6.6l-1.3,4v4l2.6,4l-1.3,1.3l-4,8l-1.3,8l-1.3,2.7
			l-6.6,4v2.7l1.3,5.3l-1.3,2.7v2.7l1.3,2.7l2.6,1.3l1.3,2.7v1.3l1.3,1.3l-4,2.7l-4,4v4l-2.6,1.3l-2.6,1.3v2.7l1.3,5.3l-1.3,4
			l-2.7,4l-2.6,6.6l-2.6,9.3l-4,2.7v2.7l1.3,2.7l2.7,8l5.3,10.6l2.7,4l1.3,2.7h2.7l2.6-2.7l5.3-1.3l1.3,2.7v2.7l-1.3,8l-1.3,4
			l-5.3,10.6l-2.6,1.3h-2.6l-5.3,2.7l-4-1.3l-6.6-4v-4l1.3-2.7l1.3-4v-3l-1.3-1.3l-4-2.7h-1.3l-1.3,2.7l-1.3,1.3l-2.6,1.3h-4
			l-2.6-2.7l1.3-4l1.3-4v-4l-1.3-2.7h-1.3v4h-5.3l-4-2.7h-1.3l-1.3,2.7l-1.3,1.3v2.7l1.3,1.3h-4l-2.6,2.7l1.3,1.3l1.3,1.3v2.7
			l1.3,2.7l1.3,4l-1.3,2.7v1.4l2.7,4l2.6,2.7l1.3,4l2.6,5.3l1.3,1.3h6.6l1.3,1.3l4,6.6h8l2.6,2.7l1.3,4v4h5.3l6.6,4v2.7h5.3l4-1.3
			l6.6,1.3l9.3-6.6h2.6l4-2.7h2.7l5.3-5.3l5.3-2.7l5.3-6.6l5.3-1.3h8l5.3-1.3l6.6-2.7l2.6-4.9l1.4-0.4l8-4l8-4l2.7-4l10.6-10.6h1.3
			l2.7,2.6h2.6l4-1.3h4l1.3-4l5.3-2.7l9.3-2.7v-1.3l4-2.7h5.3l2.6-1.3l2.6,2.7h5.3l2.6,1.3l4,4h1.3l2.6-1.3l1.3,1.3l4,4l4,1.3
			l1.3,1.3v4l2.7,4l4,5.3l1.3,2.7l2.7,4l2.6,1.3l2.6,2.7l11.9,11.9l1.3,5.3l1.3,1.3l2.6,4l5.3,11.9l1.3,2.7l-1.3,2.7l1.3,2.7v4
			l1.3,2.7l5.3,4h1.3l1.3-4l2.6-2.7l4-1.3l4-2.7l6.6-4l6.6-6.6l8-5.3l5.3-5.3l4-9.3l2.7-10.6l-0.6-3.5l-6-12.4l-1.3-2.7l1.3-1.3
			l4-1.3l2.7-1.3l6.6-4l2.3-1.1l2.8-2.8l5.6,3.7l4.6,4.6l3.7,2.8l3.7,0.9l3.7,2.8l6.5,3.7l9.3,11.1l4.4,2.8l2.8,2.8l2.8,2.8l5.6,4.6
			l3.7,4.6l2.8,2.8l4.6,3.7l2.8,1.9l3.7,5.6l9.3,10.2l3.9,8l1.3,3.8l0.3,1.2l-1.9,1.9h-0.9l-2.8-0.9l-1.4-0.6h-4l-3,3.4h-3.7
			l-7.4,0.9l-3.1,3.7h-2.6l-1.3,4l-2.6,4l-4,8l-1.3,6.6l-2.6,6.6v2.7l2.6,2.7v2.7l1.3,1.3l1.3,4h1.3l1.3,1.3l-1.3,2.7l1.3,4
			l-1.3,2.7l1.3,4l1.3,1.3l-1.3,2.7l1.3,2.7h1.3l1.3-1.3l1.3,1.3v1.3l2.7,4l5.3,6.6l-1.3,1.3v2.7l-1.3,2.7l1.3,1.3h1.3l5.3,5.3v1.3
			l-1.3,1.3h-1.3l-2.7,2.7v2.7l2.7,4l-1.3,2.7l-1.3,6.6l-2.6,1.3l-4-2.7h-2.6l-1.3,2.7l-0.7,3.5"/>
		<g id="_2019_HKI_Shoreline">
			<polyline class="st4" points="-18.8,1020.2 14.6,1007.7 29.1,1005 46.1,1002 60.5,999.2 			"/>
			<polyline class="st5" points="64.8,998.3 68.7,997.6 68.7,996.1 70.4,994.3 			"/>
			<polyline class="st6" points="75.9,988.7 82.9,981.6 106.8,958.9 151.9,915.9 			"/>
			<polyline class="st5" points="154.8,913.2 157.6,910.4 161.6,911 			"/>
			<line class="st7" x1="168.6" y1="912.1" x2="192.9" y2="916"/>
			<polyline class="st5" points="196.4,916.5 200.3,917.1 199.7,913.2 			"/>
			<polyline class="st5" points="198,906.2 196.9,902.4 192.9,901.7 			"/>
			<line class="st8" x1="184.2" y1="900.1" x2="153.7" y2="894.5"/>
			<polyline class="st5" points="149.3,893.7 145.4,893 146.6,886 150.5,886.7 			"/>
			<polyline class="st9" points="158.2,888 186.4,893 193.4,893 200.6,891 			"/>
			<polyline class="st5" points="204.4,889.9 208.2,888.8 207.2,885 			"/>
			<polyline class="st5" points="207,884.5 205.9,880.6 210.5,879.3 211.6,883.2 			"/>
			<polyline class="st5" points="211.7,883.8 212.8,887.6 216.7,886.5 			"/>
			<polyline class="st5" points="220.8,885.4 224.7,884.3 222.5,876.6 227.1,875.4 229.2,883 233.1,882 			"/>
			<polyline class="st5" points="239.5,880.2 243.3,879.1 241.5,872.7 246.1,871.4 247.9,877.9 251.7,876.8 			"/>
			<line class="st10" x1="256" y1="875.6" x2="262.3" y2="873.9"/>
			<polyline class="st5" points="264.4,873.3 268.3,872.2 266.4,865.5 270.2,864.4 272.1,871.1 277.7,869.6 275.9,863.1 279.7,862 
				281.5,868.5 285.4,867.5 			"/>
			<polyline class="st11" points="293.3,865.2 298.7,863.8 308.1,861.4 399.4,864.9 484.4,886.4 488.1,891.1 500.2,905.9 
				507.6,907.9 			"/>
			<polyline class="st5" points="511.6,909 515.5,910 516.5,906.1 			"/>
			<polyline class="st5" points="516.7,905.1 517.8,901.3 517.3,900.5 512.3,899.4 512.3,898.7 512.5,897 511.8,896.8 511.4,898.4 
				508,897.5 507.8,897 			"/>
			<polyline class="st5" points="507.3,896.2 506.4,894.9 506.9,892.5 509.5,891.1 509.7,891.1 513,892 512.8,893.7 513.5,893.7 
				514,892.3 514.2,891.5 518.1,892.6 			"/>
			<polyline class="st5" points="529.5,895.7 533.4,896.8 533.8,896.3 534.7,893.1 			"/>
			<polyline class="st5" points="535.3,890.9 536.2,887.5 536,887.1 532,885.9 532.4,884.2 531.7,884 531.2,885.6 529.8,885.4 
				530.3,883.5 529.6,883.5 529.3,885.2 525.5,884.1 			"/>
			<polyline class="st5" points="516.2,881.7 512.3,880.7 510.9,878.1 511.6,875.7 512.3,875.2 516.2,876.3 			"/>
			<polyline class="st12" points="522.6,878 538.8,882.3 545.1,884.1 			"/>
			<polyline class="st5" points="548.3,885 551.3,885.9 551.8,886.6 551.1,889 549.8,889.7 			"/>
			<polyline class="st5" points="549.7,889.8 548.5,890.4 545.9,889.7 546.4,887.8 545.4,887.8 545,889.4 543.8,889 544.3,887.3 
				543.5,887.1 543.1,889 539,887.8 538.6,888 537.6,891.9 			"/>
			<polyline class="st5" points="537.1,893.6 536.2,897 536.5,897.5 541.7,898.9 541.4,899.6 541.7,899.8 541.2,901.3 541.9,901.5 
				542.4,899.8 545.9,900.8 547.3,903.4 546.6,905.8 544.3,907.2 540.7,906.2 540.9,904.8 540.5,904.6 540,906 539.8,906 
				539.5,906.7 534.5,905.3 533.8,905.8 533,908.8 			"/>
			<polyline class="st5" points="532.6,910.4 531.6,914.3 535.5,915.3 			"/>
			<polyline class="st13" points="545.2,917.9 545.7,918 555,918 559,921.5 			"/>
			<polyline class="st5" points="562.4,925.1 564.4,928.6 564.4,928.6 565.8,927.4 567.3,925.9 			"/>
			<line class="st14" x1="572.5" y1="920.7" x2="590.3" y2="902.2"/>
			<polyline class="st5" points="592.8,899.6 595.6,896.7 597.5,897.2 596.4,901 			"/>
			<polyline class="st5" points="595.2,905.4 594.2,909.2 600.1,910.9 601.3,913 605.1,914 606.2,913.5 607.3,909.6 			"/>
			<polyline class="st5" points="608.7,904.3 609.8,900.5 614.5,901.7 613.5,905.5 			"/>
			<polyline class="st5" points="612,910.8 611,914.7 611.2,914.7 611.9,915.8 615.8,916.8 			"/>
			<polyline class="st5" points="618.5,917.5 622.3,918.5 623.3,917.7 624,915 			"/>
			<polyline class="st5" points="625.8,908.2 626.6,905.2 627.3,904.7 631.3,905.9 631.8,906.4 630.8,910.2 			"/>
			<polyline class="st5" points="629.3,915.5 628.3,919.4 629,920.1 631.9,920.8 			"/>
			<polyline class="st5" points="637.1,922.1 639.6,922.7 640.8,922 641.8,918.1 			"/>
			<polyline class="st5" points="643,913 643.9,909.7 644.1,909.5 644.3,909.5 644.3,909.2 644.6,909.2 648.4,910.4 648.6,910.4 
				648.6,910.6 648.8,910.6 648.8,910.9 647.8,914.5 			"/>
			<polyline class="st5" points="646.6,919.3 645.5,923.2 646.2,924.4 648.7,925.1 			"/>
			<polyline class="st5" points="654,926.7 656.6,927.4 657.8,927 659,923.1 			"/>
			<polyline class="st5" points="660.5,918.3 661.6,914.7 661.6,914.4 661.8,914.4 662.1,914.2 662.6,914.4 665.9,915.3 			"/>
			<polyline class="st5" points="663.7,924.6 662.6,928.4 663.3,929.3 663,929.8 666.8,931.1 			"/>
			<polyline class="st5" points="669.7,932.1 673.4,933.4 673.7,932.9 674.6,932.4 675.5,930.2 			"/>
			<polyline class="st5" points="677.8,923.9 679.1,920.3 679.1,920.1 679.3,920.1 679.6,920.1 679.8,920.1 683.4,921.3 
				683.6,921.5 683.8,921.5 683.8,921.8 683.8,922 682.6,925.3 			"/>
			<polyline class="st5" points="680.8,930.3 679.3,934.1 680.1,935.3 679.8,935.5 683.5,937 			"/>
			<polyline class="st5" points="686.3,938 690,939.5 690.2,939.3 691.4,938.6 692.3,936.5 			"/>
			<polyline class="st5" points="694.9,930 696.2,927 696.4,926.7 696.6,926.5 696.9,926.5 700.3,928 			"/>
			<polyline class="st5" points="697.1,938.1 696.2,940.5 696.6,941.9 696.4,942.1 698,942.8 700.1,943.7 			"/>
			<polyline class="st5" points="702.4,944.8 706.1,946.4 707.8,945.4 708.6,943.5 			"/>
			<polyline class="st5" points="711.2,937.3 712.7,933.6 717.5,935.5 715.9,939.2 			"/>
			<polyline class="st15" points="714.3,943.1 712.5,947.3 713.1,949 			"/>
			<polyline class="st5" points="713.9,950.9 715.3,954.7 719.1,953.3 			"/>
			<polyline class="st5" points="724.5,951.5 726.9,950.6 727.4,950.6 727.6,950.6 728.1,950.9 728.3,950.9 728.6,951.1 
				728.8,951.6 729,951.8 729,952.3 729,952.5 728.8,953 728.6,953.5 728.3,953.7 727.9,953.7 724.5,954.9 			"/>
			<polyline class="st5" points="720,956.4 716.3,957.7 717.6,961.5 			"/>
			<polyline class="st5" points="718.9,965.1 720.3,968.8 724.1,967.5 			"/>
			<polyline class="st5" points="729,965.8 731.9,964.8 732.1,964.8 732.3,964.8 732.6,964.8 732.8,964.8 733.1,965.1 733.3,965.1 
				733.5,965.3 733.5,965.5 733.8,965.8 733.8,966 734,966.3 734,966.5 734,966.7 733.8,967 733.8,967.2 733.5,967.4 733.3,967.7 
				733.1,967.9 732.6,968.1 731.2,968.6 			"/>
			<polyline class="st5" points="725,970.7 721.2,971.9 722.5,975.7 			"/>
			<polyline class="st5" points="728.7,984.1 731.9,986.1 732.1,986.1 732.6,988.3 736.3,989.8 			"/>
			<polyline class="st16" points="744.9,993.2 757.2,998.2 762.2,1000.1 764.1,1001 766.2,1001.8 771.9,1004.1 774.5,1005.1 
				775,1005.2 			"/>
			<polyline class="st5" points="779.3,1006.8 783,1008.4 785.1,1007.2 786.7,1007.5 			"/>
			<polyline class="st17" points="794.1,1009 798.1,1009.8 802.4,1010.3 804,1010.5 806.4,1010.7 810,1011 811.6,1011.2 
				813.8,1011.5 815.9,1012.7 818.7,1014.6 820.5,1015.5 822.4,1016.4 824.2,1017.4 827,1018.3 831.5,1018.3 838.8,1018.8 
				839.5,1018.8 848.8,1021.4 857.3,1023.5 862,1024.2 864.8,1024.5 867.5,1024.5 871,1023.8 874.1,1022.8 876.2,1021.9 
				878.8,1020.7 880.7,1019.5 882.1,1017.8 884,1015.5 885,1014 886.2,1012.2 886.4,1011.5 887.3,1010 887.6,1009.1 888.5,1007.4 
				889,1006.2 889.7,1005.1 890.4,1004.3 891.8,1002.7 893.5,1001.3 895.1,999.8 896.1,996.9 			"/>
			<polyline class="st5" points="897.2,993.3 898.5,989.4 898.2,989.4 898,989.2 897.7,989 897.5,988.7 897.3,988.3 897.3,988 
				897.3,987.8 897.3,987.3 897.3,987.1 897.5,986.8 897.7,986.6 900.1,984.3 			"/>
			<polyline class="st18" points="906.3,980.2 907.7,979.5 909.1,979 910.3,978.8 911.7,978.5 912.9,978.3 914.3,978.3 916.7,978.3 
				918.3,978.5 920.7,979 922.3,979.5 923.8,980 924.7,980.5 925.7,980.9 926.4,981.2 927.1,981.6 931.4,981.6 			"/>
			<polyline class="st5" points="935.2,981.6 939.2,981.6 938,977.8 			"/>
			<polyline class="st19" points="939.5,971.7 939.6,971.7 940.1,971.7 940.6,971.9 941,971.9 941.5,972.2 942,972.6 942.2,972.9 
				942.5,973.3 942.5,973.6 942.7,974.1 944.3,980.4 			"/>
			<polyline class="st5" points="945.2,983.9 946.2,987.8 944.3,988.3 944.6,988.5 944.8,988.7 944.8,989.2 944.8,989.7 944.2,992 
							"/>
			<polyline class="st5" points="944,992.5 942.9,996.3 943.2,996.5 943.4,996.1 944.3,996.3 944.1,997.5 943.2,997.3 943.2,997 
				942.7,996.8 942,999.6 942.5,999.6 942.5,999.4 943.4,999.6 943.2,1001 942.2,1000.6 942.2,1000.1 941,999.8 941,1001.5 
				941.2,1003.8 			"/>
			<polyline class="st20" points="941.7,1011.6 941.8,1012.2 942,1012.9 942.5,1013.8 942.9,1014.5 943.4,1015.2 943.9,1015.7 
				944.3,1016.4 945.3,1016.9 946,1017.4 946.7,1017.8 947.4,1018.1 948.4,1018.1 949.1,1018.1 951,1018.1 952.2,1018.1 
				953.8,1017.8 965.6,1016.6 			"/>
			<polyline class="st5" points="969.5,1016.1 973.5,1015.7 973.5,1015.5 973.7,1015 974.2,1014.5 974.2,1014 973.9,1012 			"/>
			<polyline class="st5" points="973.2,1005.5 972.7,1001.8 972.7,1001.5 973,1001.5 973,1001.3 973.2,1001.3 973.5,1001 
				977.2,1000.8 977.5,1000.8 977.7,1000.8 977.7,1001 978,1001.3 978.4,1004.9 			"/>
			<polyline class="st5" points="979.1,1011.3 979.4,1013.8 980.3,1015 983.2,1014.5 984.3,1014.4 			"/>
			<polyline class="st21" points="991.8,1013.5 997.3,1012.6 1001.1,1012.2 1007,1011.2 1015.6,1010 1032.7,1007.4 			"/>
			<polyline class="st5" points="1036.5,1006.8 1040.4,1006.2 1040.1,1006.7 1043.1,1004.1 			"/>
			<line class="st22" x1="1048.6" y1="999.4" x2="1056.9" y2="992.3"/>
			<polyline class="st5" points="1059.8,990.3 1063.8,989.5 1065.6,991.4 1064.7,995.1 1064.6,995.2 			"/>
			<line class="st23" x1="1059.7" y1="999.5" x2="1052.4" y2="1006"/>
			<polyline class="st5" points="1050,1008.2 1047,1010.9 1047,1012.7 1047.6,1014.8 			"/>
			<polyline class="st5" points="1049.7,1022.8 1050.8,1026.6 1054.4,1025 			"/>
			<line class="st24" x1="1060.7" y1="1022.1" x2="1070.2" y2="1017.8"/>
			<polyline class="st5" points="1073.3,1016.4 1077,1014.7 1077,1010.7 			"/>
			<line class="st25" x1="1077" y1="1004.9" x2="1077" y2="996.2"/>
			<polyline class="st5" points="1077,993.2 1077,989.3 1077,989.3 1073.1,988.4 			"/>
			<polyline class="st5" points="1075.2,984.8 1079.1,985.7 1082.3,980.2 1086.2,979.4 			"/>
			<polyline class="st5" points="1089.1,978.9 1091.6,978.4 1093.1,978.4 1091.5,974.7 			"/>
			<path class="st26" d="M1088.2,967.1l-0.1-0.2c-0.6-0.9-0.3-2.2,0.7-2.7s2.2-0.3,2.7,0.7c0.1,0.2,0.2,0.3,0.2,0.5l2.4,5.6"/>
			<polyline class="st5" points="1095.8,974.7 1097.4,978.4 1101.4,978.5 			"/>
			<polyline class="st5" points="1106.3,976.7 1110.2,977.4 1112,981 			"/>
			<polyline class="st27" points="1110,989.6 1108.3,996.9 1104.6,1016.4 1104.6,1019.9 			"/>
			<polyline class="st5" points="1104.6,1024.3 1105.1,1028.3 1109,1027.7 			"/>
			<polyline class="st28" points="1115.7,1023.8 1133.2,1011.2 1136.7,1005.4 1143.7,999.5 1151.9,994.8 1161.3,992.5 1168.3,991.3 
				1195.2,985.5 1206.6,981.2 1209,978.7 1212.3,974.7 1215.6,968.1 1216,965.3 			"/>
			<polyline class="st5" points="1216.3,961.4 1216.3,957.4 1212.9,955.2 			"/>
			<polyline class="st29" points="1211.3,949.6 1210.4,943.3 1209.9,940.9 			"/>
			<polyline class="st5" points="1209.3,938 1209.3,937.5 1209.3,934 1205.9,931.8 			"/>
			<path class="st4" d="M1198.8,926.9l-12.5-8.5c-0.9-0.6-1.2-1.9-0.5-2.8c0.6-0.9,1.9-1.2,2.8-0.5l7.3,4.9"/>
			<polyline class="st5" points="1199.5,922.4 1202.8,924.6 1205.4,921.6 			"/>
			<polyline class="st30" points="1210.4,915.7 1231.8,890.7 1246.5,875.3 1248.9,873.2 1271.8,851.6 1272,851.5 			"/>
			<polyline class="st5" points="1275,849 1275.4,848.8 1276.1,848.5 1276.8,848.5 1277.5,848.5 1278.2,848.8 1278.8,849.1 
				1281.8,846.5 			"/>
			<path class="st26" d="M1288.1,841.1l12.4-10.5l8.2-5.7l11.4-5.7l10.6-4.1l22.9-5.7l18.8-5.7l4.1-0.8h4.1c1.7,0.4,3.3,1,4.9,1.6
				l21.2-0.7"/>
			<polyline class="st5" points="1410.9,803.6 1412.6,803.6 1414.9,803.1 1413.4,801.1 1413.4,799.6 			"/>
			<polyline class="st5" points="1412.3,792 1411.5,788.1 1415.8,787.2 1416.6,791.1 			"/>
			<polyline class="st5" points="1418.6,798.4 1419.1,799.5 1418.7,802.3 1422.6,801.4 			"/>
			<path class="st5" d="M1429.9,799.9l3.9-0.8l-0.7-4c-1.5-0.6-2.2-2.4-1.6-3.9c0.2-0.4,0.4-0.7,0.7-1l-0.7-3.9"/>
			<polyline class="st5" points="1431,783.6 1430.3,779.6 1435.1,778.8 1435.8,782.7 			"/>
			<path class="st5" d="M1436.3,785.2l0.7,3.9c0.9,0.4,1.6,1.2,1.9,2.2c0.2,1.1-0.2,2.1-1,2.9l0.7,3.9l3.9-0.8"/>
			<polyline class="st31" points="1452.2,794 1462.5,790.5 1466.7,789.4 			"/>
			<polyline class="st5" points="1471.7,788.2 1475.6,787.2 1475.6,783.8 1479.6,783.8 			"/>
			<polyline class="st5" points="1479.9,783.8 1483.9,783.8 1483.9,786.6 1487.9,787 			"/>
			<polyline class="st32" points="1495.5,789.7 1518.9,792.1 1529.5,793.7 1543.3,798.7 1557.4,805.2 1572.9,810.1 1588.6,816.3 
				1597.4,821.6 1606.4,828.1 1611.3,831.4 1620.2,834.2 1624.5,834.4 1632.8,838.2 1641.7,843.3 1708.1,874.4 1748,881.8 1757,883 
				1784.8,888.4 1833,910.9 1860.7,938.7 			"/>
			<polyline class="st5" points="1863.5,941.5 1866.3,944.4 1869.3,947.1 			"/>
			<polyline class="st5" points="1872.1,949.6 1875,952.3 1876.2,951.8 1878.8,951.8 1881.6,949 			"/>
			<polyline class="st5" points="1884.6,945.9 1887.4,943.1 1891.7,947.4 1888.9,950.2 			"/>
			<polyline class="st5" points="1886.2,952.9 1883.4,955.7 1883.4,958.6 1882.9,959.5 1885.8,962.2 			"/>
			<polyline class="st5" points="1888.1,964.2 1891,966.9 1891.3,966.8 1893.9,966.8 1894.7,966 			"/>
			<polyline class="st5" points="1899.6,961.3 1902.5,958.5 1906.7,962.6 1903.8,965.4 			"/>
			<polyline class="st5" points="1901.3,967.8 1898.4,970.5 1898.4,973.3 1898,974 1899.3,976.5 1896.4,979.3 			"/>
			<line class="st33" x1="1893.1" y1="982.5" x2="1888.2" y2="987.4"/>
			<polyline class="st5" points="1886.5,989 1883.7,991.8 1886.5,994.6 			"/>
			<line class="st34" x1="1892.6" y1="1000.7" x2="1901.9" y2="1010"/>
			<polyline class="st5" points="1904.9,1013 1907.8,1015.9 1911.8,1015.9 			"/>
			<polyline class="st35" points="1919.8,1015.8 1981.9,1015.7 1984.7,1014 1994.8,1010.1 			"/>
			<path class="st36" d="M1102,964.6c0.2,0,0.4,0,0.6-0.1l83.8-25.3c1.1-0.1,1.9-1.2,1.7-2.2s-1.2-1.9-2.2-1.7
				c-0.2,0-0.4,0.1-0.6,0.2l-83.8,25.3c-1,0.4-1.6,1.5-1.2,2.6C1100.5,964,1101.2,964.5,1102,964.6L1102,964.6z"/>
			<polyline class="st36" points="1914.2,975.6 1913.7,975.6 1912.7,975.4 1907.1,981.2 1906.9,981.2 1906.6,980.7 1912.4,974.9 
				1912.4,974.4 1912.4,974.1 1912.4,973.6 1913.9,972.1 1915,971.1 1916.2,969.8 1917.7,968.3 1919.3,967 1920.3,965.8 
				1921.3,964.5 1923,962.8 1924.6,961.3 1926.1,960 1927.1,959.2 1928.1,958.7 1928.6,958.7 1929.1,959 1929.6,959.5 1929.6,960 
				1929.3,960.7 1928.8,961.3 1928.3,962 1927.6,962.5 1926.1,964 1924.6,965.5 1922,968.1 1919.5,970.3 1917.7,972.1 1916,974.1 
				1914.7,975.1 1914.2,975.6 			"/>
		</g>
		<g id="_2019_KLN_Shoreline">
			<polygon class="st37" points="1526.6,371.3 1421.7,269.5 1422.5,265.4 1434,232.7 1438.9,234.3 1553.3,344.2 			"/>
			<path class="st37" d="M2032,775l-1.6-2.5l-0.8-3.3l0.8-0.9l57.3-29.4l4.1-2.5l-12.3-31.1l-1.6-1.6l-9,0.8l-5.7,0.8l-4.1,0.8
				l-9,4.8l-5.5,2.4l-10.3-0.8l-7.4-2.2l-10.8,1.4l-11.9,1.8h-12.3l-2.4,4.9h-6.6l0.1-6.5l-6.4-0.9l-10-6.4l-8.2-6.5l-5.7-4.9
				l-6.2-10.6l-7.7-14.8l-6.5-14.7l-8.6-7.9l-36.4-19.9l-4.9-5.7l-40.9-49.9l6.6-5.7l-6.6-1.1l-13.4-10.7l-1.7-2.4
				c0,0.1-0.1,0.1-0.2,0.2c-0.6,0.5-1.4,0.7-2.2,0.5l-7.8,7.8l-2.9-2.9l7.8-7.8c-0.2-0.8,0-1.6,0.6-2.2c0.3-0.3,0.8-0.5,1.2-0.6
				l-1.4-2l-17.1-24.7l-0.2-0.3l-7.5,5.7l-0.7-1l-24.9,17.8c-0.3,0.2-0.6,0.3-1,0.3c-0.9,0.1-1.7-0.6-1.7-1.5c0-0.6,0.2-1.2,0.7-1.5
				l24.9-17.7l-0.7-1l7.3-5.5l-4.6-8.8l-2.9,2.1l-1.6-2.2l3.1-2.3l-5.4-6.2l-0.8-1.6l-2.4-4.1l-3,2.8l-0.3-0.3l-8.5-11.7l-25.9-31.7
				l-25.4-29.5l-38.4-40.9l-14.7-13.9l-45,47.5l-64.9-62.3l-26.6,27.3l40.1,39l5.8,3.5l63.5,58.8l4.4,3.2l7.9,4.1l4.9,0.8l9-9
				l37.4,36.9l1.9,5.6l-1.9,17.6l0.2,2l35.4,36.7v5.9l-27.8,29.3h-6.1l-29.9-30.4h-6.4l-17.6-17.6l-11.7-15.2l-297.3-288l-13.3,6.9
				l-20.8,45.5l2.3,2.5l9,4.2l-1.7,3.7l-9.4-4.4h-2.9l-25.1,54.9v6l-2.8,6.5l-6.6,2.8l-3.2-0.8l-2.9,74.1l-0.4,2h8.2v7.4l-8.1,0
				l-0.1,3.7l13.2,11.6l22.9,19.1l2.4,2.5l-7.8,36.5l-11.8,54.3l3.3,11.5l2.5,9l-27.8,19.6l-7.2-0.5l-3.2-2.7l-4.4,9.8l-6.6,2.5
				l1.6,3.3l-10.6,4.9l-1.8-2.9l-6.5,2.8l-4.8,2.6l0.8,4.1l0.8,2.5l3.3,6.5l-4.1,2.5l-3.3-6.6l-0.8-2.5l-2.4-4.1l-89.2,40.1
				l-7.4-16.4l-14.6-0.1l-0.2,36.9l-13.7,8.7l-5.9-7.9l10.6-6.5v-23.7l-9.4,3.8l-5.6-1.8l-20.4-0.9l-68,60.6l-6.3,7.9l-1.6,2.5
				l-6.8,19.1l-2.8,3.9l-0.3,1.5l-4.1,4.1l-18,22.1l-30.3,2.5l-8.2-6.5l-34.6,2.8l-0.6,1.3l-11.5,0.8l-14.7,1.6l-3.2-10l-5-0.7h-3.3
				l-0.1-0.1l-6.3,8.9c-0.3,0.4-0.8,0.7-1.3,0.7c-0.3,0-0.7-0.1-0.9-0.3c-0.7-0.5-0.9-1.5-0.4-2.3c0,0,0,0,0,0l6.7-9.4l-6.6-7.3
				l-0.4,0.3l-7.3,9c-0.3,0.4-0.8,0.6-1.3,0.6c-0.4,0-0.7-0.1-1-0.4c-0.7-0.6-0.8-1.6-0.2-2.3c0,0,0,0,0,0l7.1-8.7l1.5-3.4l3.3-3.3
				l-2.5-11.5l-68,13.9l-2.5-14.5l59.1-12.5l0.8-3.2l0.8-3.3l1.6-0.8h2.1l1.6,0.9l-2.9-11.6l-3.3-16.4l-30.6,6.2h-0.3
				c-1,0-1.9-0.8-1.9-1.8c0-0.9,0.6-1.7,1.5-1.9l24.8-5v-3.3l4.9-1.6l-2.5-9.8c-5,1-38.1,6.8-38.1,6.8c-0.1,0-0.2,0-0.4,0
				c-1,0-1.9-0.8-1.9-1.9c0-0.9,0.6-1.7,1.5-1.9c0,0,32.9-7.1,38-8.1l-2.5-16.4l-46.8,10.3c-0.2,0-0.4,0.1-0.7,0.1
				c-1.7,0-3.2-1.4-3.2-3.1c0-1.5,1.1-2.8,2.5-3.1l38.3-7.4V685l3.3-0.8L802,676l-2.6-10.5l-0.9-7.4l-7.2,0.8l-9,6.3l-1.4-2l7-4.9
				l-1-0.2l-4.8,1.7l-1.6-0.8l-16.4,1.6l-15.4,2l-0.1,1.3l-35.2,4.9l-9,0.8l-2.5-0.8l-12.9,1.4v7.6h2v4.1h-8.2v-4.1h2v-7.2l-9.2,2.3
				l-19.6,7.4l-12.8,12.2l-3.7,9.3l-1.5,1.4l-2.5,0.8l-3.5-0.4h-46.4l-7.4-5.5l-4.6-4.6l-3.8-7.2l-1.4-3.3v-25.1l-0.2-3.3l0.2-2.8
				l-0.2-6.4l0.2-5l0.2-4l1-4.3l1.4-4.1l2.5-3.3l0.8-0.8l1.6-1.6l2.5-1.6l0.2-0.6v-28c0-4-2.3-5.6-4.1-6.8l-0.3-0.2
				c-2.1-1.5-7.4-2.7-9.2-3c-0.8-0.1-1.3-0.9-1.2-1.7c0.1-0.8,0.9-1.3,1.7-1.2c0.3,0,7.3,1.3,10.4,3.5l0.2,0.2
				c2,1.4,5.3,3.7,5.3,9.2V607l40-0.2l50.9-72.7L672,364l-10.3-24.5l-80.1-0.5l0.8,19.6c0,0.9-0.7,1.7-1.6,1.7c0,0,0,0,0,0h-0.1
				c-0.9,0-1.6-0.7-1.6-1.6l-0.8-20.5c0-0.9,0.7-1.7,1.6-1.7h0.1l-0.7-60.5v-22.5l-14.7-25.1l-8.2-6.8L537,245.1h-0.5l-9.5-7.8
				l-0.2-0.7l19.6-23.4l-13.3-10.9l-6.9,8.5l-1.4-1.2l6.9-8.5l-8.3-6.9l-6.9,8.3l-1.4-1.2l6.9-8.3l-9.7-8.3l-2.6,3.1l-1.2-1l2.3-3
				l-16.6-13.7l-8,9.7l-2.8-2.4l8-9.7L476.9,155l-8.2,9.8l-3.3-2.5l8.2-9.8l-9-7.4l-4.9-4.1l-10.6-6.5l-5.4-3.8l-13.5-8.5l0,0
				L412,112l-17-11.9l-8.2-4.1l-4.4,6.9l6,3.5l-0.5,0.8l-6-3.5l-1.4,2.2l6.1,4.1l-0.5,0.8l-6.1-4.1l-1.9,3.1l5.3,3.5L383,114
				l-5.2-3.5l-6.9,10.8l6.5,4.3l-0.5,0.8l-6.5-4.3l-1.3,2.1l5.9,3.9l-0.5,0.8l-5.8-3.9l-1.2,1.9l-0.1,0.1l2.9,1.9l-0.5,0.8l-2.8-1.9
				l-1.6,2.6l2.6,1.8l-0.5,0.8l-2.6-1.7l-6.6,10.8l11.7,7.3l-0.7,1.4l-14.1-8.6l2.3-3.4l-31-19.7L312,142.5l13.8,7.5l8.5,5l0.2-0.2
				h1.2l31.5,19.1l2.3,1.5c0.8,0.4,1.1,1.4,0.6,2.2s-1.4,1.1-2.2,0.6c-0.1,0-0.1-0.1-0.2-0.1l-3.4-2.3l-1.6,1l5.5,4l-0.7,0.9
				l-5.9-4.3l-2.9,1.8l5.1,5.1l-1,1l-5.4-5.3l-5.7,3.6l8.3,8.3l-1,1l-8.4-8.4l-5.3,4.2l8.2,8.2l-1.2,1.2l-8.3-8.4l-0.5,0.4l-6.2,6.1
				l4.4,4.4l-0.8,0.8l-4.4-4.4l-5.8,5.7l4.5,4.5l-0.8,0.8l-4.5-4.5l-3.3,3.3l3.5,3.5l-0.8,0.8l-3.5-3.5l-1,1l5.4,6.6l5.2,4.2v0.2
				l0.5,0.5l8.7-8.7h0.2l0.5,0.5v0.2l-8.5,8.7l5.2,6l5.4-5.4l3.6,3.6l-5.4,5.4l1.2,1.4l4.5-4.5V227h0.2v0.2l0.5,0.5h0.2v0.3H352
				l-4.5,4.5l3.9,3.8l4.1-4.2l1,1l-4.1,4.2l7.4,7.2l11.3-11.3l-11.6-11.6l1.2-1.4l8.5,8.5l0.9-0.9l3.1,3.3l1.4-0.8l-3.3-3.3l0.8-0.8
				l3.3,3.3l8.2-9l-2.4-2.6l0.3-0.3l-8.1-8.1l1.2-1.2l8.1,8.1l8.4-8.4l-1.8-1.4l3.3-3.3l1.6,1.6l2.3-2.3l-4.6-3.4l1.1-1.5l4.8,3.5
				l2.9-2.9l-0.8-0.8l-0.1-0.1l-13.1-8.3c-0.7-0.5-0.9-1.6-0.4-2.3c0.5-0.7,1.4-0.9,2.1-0.5l8.6,5.5h3.6l1.6-0.8l1.6-0.8l1.6,0.8
				l0.8,1.6l2.5,1.6l3.3,3.3l3.3,2.4l6.7,5h0.5l0.5-0.2h0.7l0.2,0.2h0.5l0.5,0.2h0.2l0.5,0.5l0.2,0.2l0.2,0.2l0.2,0.2l0.2,0.5v0.2
				l0.2,0.5v0.5l0.4,0.7l2.9,0.7l3.3,4.7l2.4,6.3l2,3.9l4.3,6.4l1.6,7.9v7.1l-4.7,4l-5.6,1l-9,2.4l-7.4,4.1l-9,7.4l-6.5,6.5
				l-3.6,4.6l-1.6,4l-0.5,3.6l-2.5,2.5l-5.7,5.8l-2.4,5.5v5.4l0.8,4.9l2.4,4l3.2,2.4l-1.3,3.7l-5,1.9l-3.5,3.1l-2,4.7l-2,2.8
				l3.3,3.3l-7.3,8l-3.4-3.1L360,347l-1.6,6.3l1.6,4l-5.5,7.1l-1.6,5.5l-1.6,6.3l-2.3,2.4l-3.2-1.6l-4-2.4l-4.7-4l-4.8-7.1l-1.6-6.3
				l-4.7-3.9l-6.3-2.4l-5.5-0.8L311,347l-1.6-8.7v-5.7l0.3-3.4l-1.3-2.9l-6.6-6.1h-13.9l-3.1-1.1l-4.6-1.9l-3.6-3.2l-2.9,0.4
				l-2.8-0.9l-7.4,0.9v2.8l7.2,47.1l1.5,9.8v0.7l-0.2,0.5l-0.5,0.5l-52.4,9.9l-1.4,0.2l-0.5-0.2l-0.5-0.2l-0.2-1l-5,1l-0.2-1.9
				l55.2-10.4l-1.4-7.2l-14.2-64l-1.6-3.2l-67.6,12v0.1l14.4,76.5c0.3,1.6-0.4,3.3-1.8,4.2l1.7,8.8c0.3,1.6-0.7,3-2.3,3.3
				c-0.2,0-0.4,0-0.5,0c-1.4,0-2.6-1-2.8-2.3L177.5,333L140,314.5h-3.7l-4.6,2.8l-19.3,4.3l-3.6,2l-2.4,0.8h-1.6l-2.7-1.5L-41,245
				l0.8-3.3v-4.9l-2.5-9l6.6-9.8l7.4-7.4l7.4-9l-0.8-4.1L216,122.3l-18-54.8l-6.6-3.3L53.9,107.5L9-35.6l99-31.1L91.6-119l-99,31
				l-66.3-210.2l-81.8,25.4l-1.6-4.9l2.4-0.8l-0.8-2.5l-5.7-18.8l-4.9-9.8l-8.2-24.5l-0.8-3.3l1.6-1.6l-4.9-15.5l-4.1-2.5l-2.4-6.5
				l-5.9-10.8l1-4.7l5.5-6.4l7.6-2.6h2.4l1.6,4.1l-0.8,3.3l3.3,5.7l2.2,7.6l1.9,1.4l2.4-1.6l3.3,3.3l0.8,2.5l-1.6,1.6l1.5,1.4
				l0.2,0.2l10.5-2.3l8.8-58.8"/>
			<path class="st37" d="M593.8,556.6L593.8,556.6c-6.1-0.2-11.5-3.9-13.7-9.5c-1.2-2.7-1.8-5.6-1.9-8.5V397.1c0-7.4-13.1-9-13.2-9
				c-0.9-0.1-1.5-0.9-1.4-1.8s0.9-1.5,1.8-1.4c0.7,0.1,16.1,1.9,16.1,12.3v141.5c0,0.6,0.2,14,12.4,14.7c0.9,0.1,1.6,0.9,1.5,1.8
				C595.3,556,594.7,556.6,593.8,556.6L593.8,556.6z"/>
			
				<rect x="782" y="670.7" transform="matrix(0.9913 -0.1314 0.1314 0.9913 -82.0426 108.7676)" class="st37" width="2.5" height="10.8"/>
			<path class="st37" d="M1355.8,447.8c-0.4,0-0.8-0.2-1-0.5l-35.2-54c-0.5-0.5-0.4-1.3,0.1-1.7c0.5-0.5,1.3-0.4,1.7,0.1
				c0.1,0.1,0.2,0.2,0.2,0.3l35.2,54c0.4,0.6,0.2,1.3-0.4,1.7C1356.3,447.8,1356.1,447.8,1355.8,447.8z"/>
			<path class="st37" d="M1355.4,481.8c-0.7,0-1.2-0.5-1.2-1.2c0-0.5,0.3-0.9,0.7-1.1l85.9-45c0.6-0.3,1.3,0,1.6,0.7
				c0.2,0.6,0,1.2-0.5,1.5l-85.9,45C1355.8,481.7,1355.6,481.8,1355.4,481.8z"/>
			<path class="st37" d="M1763.3,574.5c-6.8,0-15.6-2.4-16.9-2.8c-0.9-0.2-1.4-1.2-1.1-2s1.2-1.4,2-1.1c6.4,1.8,17.6,3.9,20.7,1.8
				c4.8-3.2,18.6-13.7,18.7-13.8c0.7-0.6,1.7-0.4,2.3,0.3c0.6,0.7,0.4,1.7-0.3,2.3l0,0c-0.6,0.4-14,10.7-18.9,14
				C1768.3,574.1,1766,574.5,1763.3,574.5z"/>
			<polyline class="st5" points="521.5,911.6 517.6,910.6 518.8,906.7 			"/>
			<polyline class="st5" points="519.2,905.2 520.1,902 520.6,901.5 524.5,902.5 			"/>
			<polyline class="st5" points="528.2,903.5 531.2,904.3 531.7,905 530.7,908.9 			"/>
			<polyline class="st5" points="530.5,909.8 529.4,913.7 525.6,912.7 			"/>
		</g>
	</g>
</g>
<g class="st38">
	<g class="st39">
		<path d="M925.9,747.4l-1.6-4.8l-3.2-8.1l-3.2-4.8h-11.3l-4.8,1.6h-21l-6.5,3.2l-8.1,1.6l-6.5,6.5l-1.6,6.5l-6.5,3.2l-1.6,6.5
			l-3.2,4.8h-3.2l-3.2-3.2v-4.4l-1.6-6.9l-1.6-4.8V738l-1.6-3.5l-1.6-6.5l-3.2-6.5l-1.6-3.2l-1.6-6.5l-1.6-11.3l3.2-6.5v-14.5
			l-1.6-6.5l-3.2-6.5l-3.2-6.5v-6.7v-9l-1.6-11.8l-1.6-9.7v-8.8l1.6-9l1.6-9.7l-1.6-6.5l-1.6-8.2l-3.2-4.7l-3.2-1.6l-6.5-1.6
			l-3.2-4.8l-1.6-3.2v-11.6l1.6-4.5l1.6-4.8l3.2-3.2l8.1-3.2l3.2-1.6l4.8-11.3l3.2-8.1l-38.2-10.3l-9.2,36.9l-3.9,15.8l-4,2.6v1.3
			l4,5.3h2.6l2.3,4.6l-3.1,1.7l-3.6,3.8l-1.5,3l-1.3,7.5H767l-2,14.2l2.3,0.4l3.3,0.5l3.6-21.6l1.1-2.1l2.9-3.1l2.7-1.3l0.1,0.2
			l4,1.3h4l1.3,4l10.5,35.6v2.6l-4,21.1v4l1.2,9.9l0.5,3.8l0.9,7.4L802,676l3.7,8.2l-3.3,0.8v4.1l-38.3,7.4
			c-1.5,0.3-2.6,1.6-2.5,3.1c0,1.7,1.4,3.1,3.2,3.1c0.2,0,0.4,0,0.7-0.1l46.8-10.3l2.5,16.4c-5.1,1-38,8.1-38,8.1
			c-0.9,0.2-1.5,0.9-1.5,1.9c0,1,0.9,1.9,1.9,1.9c0.1,0,0.2,0,0.4,0c0,0,33.1-5.8,38.1-6.8l2.5,9.8l-4.9,1.6v3.3l-24.8,5
			c-0.9,0.2-1.6,1-1.5,1.9c0,1,0.9,1.9,1.9,1.8h0.3l30.6-6.3l3.3,16.4l4.1,16.4l3.3,14.7l2.5,11.5l-3.3,3.3l4.2,5.5l5.3,2.6l6.6,1.3
			h7.9l101.5-9.2l-7.9,7.9l2.6,2.6l19.8-19.8l-2.6-2.6l7.9-23.7l-4-1.3v-4l11.9-46.1l15.8-25l27.6-101.4l27.7-29l25,15.8l3.9-5.3
			l-2.6-1.3v-1.3l7.9-7.9l2.6-1.3l2.6-4l9.7,14l5.3,2.6v2.6l1.3,2.6h1.3l1.3-2.6h1.4l1.3,2.6l41.7,11l14.5,9.2l3.9,5.3l12.8,9
			l20.1,12.1l10.5,7.9l2.6,1.3l20.3-35.5l-2-2l-3.2-6.5l-1.6-3.2h-3.2l-4.8-1.6l-4.8-3.2l-1.6-4.8v-6.5l-3.2-3.2l-6.5-3.2l-4.8-4.8
			l-3.2-3.2l-4.8-3.2l-6.5-1.6c0,0-4.8-1.6-4.8-3.2s-1.6-4.8-1.6-4.8v-6l-4.8-5.3l-3.2-4.8l-4.8-3.2l-3.2-4.8l-4.8-3.2l-4.8-1.6
			l-6.5-1.6l-8.1-3.2l-11.6,9.2c0,0-6.5-1.6-8.1-3.2c-2.1-1.7-4.2-3.4-6.5-4.8l-3.2-6.5l-1.6-1.6h-4.8l-3.2,1.6l-3.2,3.2l-8.1,3.2
			l-7.8-12.4l-14.5,3.2l-4.8,1.6l-3.2,1.6l-1.6,4.8v2.7l-3.2,2.1l-4.8,3.2l-4.8,3.2l-3.2,3.2l-3.2,4.8l-4.8,3.2l-6.5,8.1l-4.8,4.8
			l-3.2,8.1l-3.2,11.3l-3.2,12.9l-1.6,11.3l-3.2,16.2l-6.5,9.7l-3.2,4.8L997,610l-4.8-3.1l-4.8-1.6l-3.2,3.2l-3.2,14.5l-4.8,16.1
			l-3.2,11.3l-4.8,11.3l-3.2,8.1l-3.2,11.3l-3.2,12.9l-1.6,11.3l-1.6,6.5l3.2,9.7l3.2,4.8v9.7l-3.2,8.1l-6.5,9.7l-8.1,8.1h-8.1
			l-3.2-4.8v-3.8L925.9,747.4z"/>
		<polygon points="682,207.8 663,208.5 663,264.3 701.6,277.6 708.3,271 716.6,262.6 716.6,259.3 718.2,254.3 719.9,251 723.2,251 
			723.2,256 724.9,259.3 728.2,261 738.2,262.7 741.5,261 744.8,257.6 744.8,249.3 754.8,192.7 803.1,192.7 809.8,229.3 
			794.8,249.3 791.5,257.6 786.5,262.6 776.5,275.9 778.3,293.9 812.6,474.4 840.2,469.1 851.6,467.8 853.2,463 853.2,456.6 
			856.5,453.3 856.5,445.3 850,440.4 843.5,433.9 840.3,432.3 841.9,424.2 845.1,417.8 846.8,411.3 846.8,408.1 843.5,404.8 
			841.9,396.8 837.1,390.3 835.5,385.5 830.6,383.8 829,382.2 824.1,379 824.1,374.2 822.5,372.6 824.1,366.1 827.4,364.5 
			830.6,362.9 832.2,361.2 832.2,356.4 830.6,353.2 830.6,348.3 829,345.1 827.4,340.2 827.4,335.4 824.1,330.5 820.9,328.9 
			816.1,325.7 812.8,322.5 812.8,304.7 809.7,297.9 809.7,295.9 808,291.8 806.4,285.3 806.4,253 804.8,248.2 804.8,243.3 
			808,240.1 811.2,235.2 816.1,225.5 816.1,219.1 814.5,214.2 816.1,209.4 816.1,186.8 809.7,181.9 799.9,180.3 788.6,177.1 
			772.5,173.8 753.1,172.2 741.8,173.8 740.1,177.1 740.1,186.8 738.5,193.2 735.3,201.3 733.7,209.4 732.1,220.7 730.5,232 
			727.2,236.8 719.2,243.3 717.5,248.2 715.9,256.2 709.5,264.3 703,270.8 696.5,267.5 690.1,257.8 685.2,253 682,248.2 
			680.4,243.3 683.6,222.3 		"/>
		<polygon points="1215.6,449.1 1203.8,421.7 1203.8,404.6 1209,391.4 1211.7,391.4 1220.9,373 1203.8,363.8 1198.5,362.5 
			1188.5,357.9 1187.6,367.7 1187.6,412.4 1190.8,422.6 1197.3,433.9 1205.3,440.4 1211.7,449.4 1216.7,459.8 1216.7,466.2 
			1218.3,469.5 1223.1,474.3 1232.8,475.9 1242,479.7 1252.6,485 1261.8,490.2 1267,495.5 1270.1,499.4 1272.3,495.5 1259.1,485 		
			"/>
	</g>
	<g class="st39">
		<polygon points="782.7,681.6 785.1,681.2 783.7,670.6 781.3,670.9 		"/>
		<path d="M682,207.8l4.8-16.2l-14,1.2l-1.7-15.5h-39.4l-85.2,35.9l-19.6,23.4l0.2,0.7l9.5,7.8h0.5l19.4-23.4l8.2,6.8l14.7,25.1V276
			l0.7,60.5h-0.1c-0.9,0-1.6,0.8-1.6,1.7l0.8,20.5c0,0.9,0.8,1.6,1.6,1.6h0.1c0,0,0,0,0,0c0.9,0,1.6-0.8,1.6-1.7l-0.8-19.6l80.1,0.5
			L672,364l0.3,170.1l-50.9,72.7l-40,0.2v-15.2c0-5.4-3.3-7.8-5.3-9.2l-0.2-0.2c-3.1-2.2-10.1-3.5-10.4-3.5
			c-0.8-0.1-1.5,0.4-1.7,1.2c-0.1,0.8,0.4,1.5,1.2,1.7c1.8,0.3,7.1,1.5,9.2,3l0.3,0.2c1.8,1.3,4.1,2.8,4.1,6.8v28l-0.2,0.6l-2.5,1.6
			l-1.6,1.6l-0.8,0.8l-2.5,3.3l-1.4,4.1l-1,4.3l-0.2,4l-0.2,5l0.2,6.4l-0.2,2.8l0.2,3.3v25.1l1.4,3.3l3.8,7.2l4.6,4.6l7.4,5.5H632
			l3.5,0.4l2.5-0.8l1.5-1.4l3.7-9.3l12.8-12.2l19.6-7.4l9.2-2.3v7.2h-2v4.1h8.2v-4.1h-2v-7.6l12.9-1.4l2.5,0.8l9-0.8l35.2-4.9
			l0.1-1.3l15.4-2l16.4-1.6l1.6,0.8l4.8-1.6l1,0.2l-7,4.9l1.4,2l9-6.3l7.2-0.8l-0.5-3.8l-1.2-9.9v-4l4-21.1v-2.6l-4.5-15.1
			l-12.9,3.4l-0.7-2.7l12.8-3.3l-5.1-17.8l-1.3-4h-4l-4-1.3l-0.1-0.2l-2.7,1.3l-2.9,3.1l-1.1,2.1l-3.6,21.6l-1.6,12.5l0.2,0.8
			l11.7,25.3l-3,1.4l-11.9-25.5l-0.4-1.7l1.7-13.2l-2.3-0.4l2-14.2h2.8l1.3-7.5l1.5-3l3.6-3.8l3.1-1.7L777,568h-2.7l-4-5.3v-1.3
			l4-2.6l13.2-52.7l21,5.6l5.3-22.7l-1.3-14.5L787,340l-59.4-40.9l-7.9,0.8l-5.3,1.3l-15.8,6.6l-18.4,7.9l-1.3,2.6h-1.3l-14.5,5
			V208.5L682,207.8z"/>
		<path d="M565.5,384.9c-0.9-0.1-1.7,0.5-1.8,1.4s0.5,1.7,1.4,1.8c0.1,0,13.2,1.6,13.2,9v141.5c0.1,2.9,0.7,5.8,1.9,8.5
			c2.2,5.6,7.6,9.3,13.6,9.5h0.1c0.8,0,1.5-0.7,1.6-1.5c0.1-0.9-0.6-1.7-1.5-1.8c-12.2-0.7-12.4-14.1-12.4-14.7V397.1
			C581.6,386.8,566.1,384.9,565.5,384.9z"/>
		<polygon points="1230.2,626 1220.9,623.3 1218.3,622 1207.8,614.1 1187.6,602 1174.8,593 1170.9,587.7 1156.4,578.5 1121.1,569.2 
			1101.6,596.9 1103.7,685.8 1118.2,685.9 1125.6,702.2 1209,664.6 1214.7,662.2 1217.2,666.3 1218,668.7 1221.3,675.3 
			1225.4,672.8 1222.1,666.3 1221.3,663.8 1220.5,659.7 1225.3,657.1 1231.8,654.3 1233.6,657.3 1244.2,652.3 1242.5,649.1 
			1249.1,646.6 1253.5,636.9 1249.9,633.9 		"/>
	</g>
	<g class="st39">
		<polygon points="825.8,516.3 829,508.3 830.6,503.5 835.5,498.6 841.9,497 846.8,492.1 850,485.6 851.7,480.8 851.7,474.3 
			851.6,467.9 840.2,469.2 812.6,474.4 813.9,488.9 808.5,511.7 		"/>
		<path d="M831,814.7c-0.5,0.7-0.3,1.8,0.4,2.3c0.3,0.2,0.6,0.3,0.9,0.3c0.5,0,1-0.2,1.3-0.7l6.3-8.9l0.1,0.1l3.3,0.1l-9.7-9.2
			l-4.2-5.5l-1.5,3.4l-7.1,8.7c0,0,0,0,0,0c-0.6,0.7-0.5,1.7,0.2,2.3c0.3,0.2,0.6,0.4,1,0.4c0.5,0,1-0.2,1.3-0.6l7.3-9l0.4-0.3
			l6.6,7.3L831,814.7C831,814.7,831,814.7,831,814.7z"/>
		<polygon points="719.9,251 718.2,254.3 716.5,259.3 716.5,262.6 708.2,270.9 701.6,277.6 663,264.3 663,278.4 681.5,284 
			684.1,286.6 685.4,289.3 684.1,306.4 682.8,309 677.5,313 677.5,318.3 678.8,318.3 680.2,315.7 698.6,307.8 714.4,301.2 
			719.7,299.9 778.3,293.9 776.5,275.9 786.5,262.6 791.5,257.6 794.8,249.4 809.8,229.4 803.1,192.8 754.9,192.8 744.9,249.3 
			744.9,257.7 741.5,261 738.2,262.6 728.2,261 724.9,259.3 723.2,256 723.2,251 		"/>
		<polygon points="767.4,603.3 765.7,616.5 766.2,618.2 778,643.7 781,642.3 769.3,617.1 769.1,616.3 770.7,603.8 		"/>
		<polygon points="1280.2,487.7 1272.3,495.6 1270.1,499.4 1272.3,502.2 1273.6,506.1 1277.6,510.1 1278.9,514.1 1279.7,517.1 
			1279.7,519.7 1273.2,526.2 1268.4,537.5 1267,552.4 1260.5,560.3 1259.1,569.5 1261.8,576.1 1265.8,582.7 1265.8,589.2 
			1264.5,594.5 1261.8,597.1 1260.6,597.9 1256.9,597.5 1252.3,594.1 1245.8,590.8 1242.6,589.2 1241.4,588 1231.7,604.9 
			1221,623.5 1230.2,626.1 1250,634 1257.9,616.9 1259.2,616.9 1262.7,619.5 1264.5,619.5 1267.1,615.5 1267.1,614.2 1264.5,611.6 
			1267.1,607.6 1267.1,605 1267.2,597.8 1275,581.3 1265.8,576 1264.5,574.7 1267.1,562.8 1269.7,553.6 1271.1,549.6 1272.4,545.6 
			1275,541.6 1289.5,544.3 1297.7,545.7 1305.5,509.2 1303.1,506.8 		"/>
	</g>
	<g class="st39">
		<polygon points="727.6,299.1 787,340 778.3,293.9 		"/>
		<polygon points="782.6,602.3 783.3,605 796.2,601.7 795.4,599 		"/>
		<polygon points="682.8,309.1 684.1,306.5 685.4,289.3 684.1,286.7 681.5,284.1 663,278.4 663,323.4 677.5,318.4 677.5,313.1 		"/>
		<polygon points="762.3,792.2 830.3,778.3 827,763.6 825.8,758.8 824.2,757.9 822.1,757.9 820.5,758.7 819.6,762 818.9,765.1 
			759.8,777.7 		"/>
		<polygon points="1275,541.6 1272.4,545.6 1269.7,553.5 1267.1,562.7 1264.4,574.5 1265.8,575.8 1275,581.1 1267.2,597.7 
			1267.1,607.5 1264.4,611.5 1267.1,614.1 1267.1,615.4 1264.4,619.4 1262.7,619.4 1259.2,616.7 1257.9,616.7 1249.9,633.9 
			1256.7,639.6 1263.8,640.1 1291.7,620.4 1289.2,611.4 1285.9,600 1294.9,558.7 1297.7,545.6 1289.5,544.2 		"/>
		<path d="M853.4,802.5h-7.9l-6.6-1.3l-5.3-2.6l9.7,9.2l5,0.7l3.2,10l14.7-1.6l11.5-0.8l0.6-1.4l34.6-2.8l8.2,6.5l30.3-2.5l18-22.1
			l4.1-4.1l0.3-1.5l2.8-3.9l6.8-19.1l1.6-2.5l4.1-4.9l2.2-3l68-60.6l20.4,0.9l5.6,1.8l9.4-3.8V717l-10.6,6.5l5.9,7.9l13.7-8.7
			l0.2-19.2v-16.7l-2.1-90l19.5-27.7l-6.4-1.7c0,0-1.2-3-1.3-2.6s-1.3,0-1.3,0l-1.3,2.6h-1.3l-1.3-2.6v-2.6l-5.3-2.6l-9.7-14l-2.6,4
			l-2.6,1.3l-7.9,7.9v1.3l2.6,1.3l-3.9,5.3l-25-15.8l-27.7,29l-27.7,101.5l-15.8,25l-11.9,46.1v4l4,1.3l-7.9,23.7l2.6,2.6
			l-19.8,19.8l-2.6-2.6l7.9-7.9L853.4,802.5z"/>
		<polygon points="1270.4,388.9 1269.9,388.8 1220.9,373 1211.7,391.4 1209.1,391.4 1203.8,404.6 1203.8,421.7 1215.7,449.1 
			1272.3,495.5 1280.2,487.6 1267.1,476.1 1267.2,472.4 1275.3,472.4 1275.3,465 1267.1,465 1267.5,463 		"/>
	</g>
</g>
</svg>
