<?xml version="1.0" encoding="utf-8"?>
<!-- Generator: Adobe Illustrator 23.0.3, SVG Export Plug-In . SVG Version: 6.00 Build 0)  -->
<svg width="3840" height="2160" version="1.1" id="_2019" xmlns="http://www.w3.org/2000/svg" xmlns:xlink="http://www.w3.org/1999/xlink" x="0px" y="0px"
	 viewBox="0 0 3840 2160" style="enable-background:new 0 0 3840 2160;" xml:space="preserve">
<style type="text/css">
	.st0{opacity:0.8;}
	.st1{fill:#666666;}
	.st2{clip-path:url(#SVGID_2_);}
	.st3{fill:none;stroke:#FF8300;stroke-width:5;stroke-miterlimit:10;}
	.st4{fill:none;stroke:#FF8300;stroke-width:2.5;stroke-linecap:round;stroke-linejoin:round;stroke-dasharray:8.67,8.67;}
	.st5{fill:none;stroke:#FF8300;stroke-width:2.5;stroke-linecap:round;stroke-linejoin:round;}
	.st6{fill:none;stroke:#FF8300;stroke-width:2.5;stroke-linecap:round;stroke-linejoin:round;stroke-dasharray:7.8,7.8;}
	.st7{fill:none;stroke:#FF8300;stroke-width:2.5;stroke-linecap:round;stroke-linejoin:round;stroke-dasharray:7.04,7.04;}
	.st8{fill:none;stroke:#FF8300;stroke-width:2.5;stroke-linecap:round;stroke-linejoin:round;stroke-dasharray:8.87,8.87;}
	.st9{fill:none;stroke:#FF8300;stroke-width:2.5;stroke-linecap:round;stroke-linejoin:round;stroke-dasharray:7.84,7.84;}
	.st10{fill:none;stroke:#FF8300;stroke-width:2.5;stroke-linecap:round;stroke-linejoin:round;stroke-dasharray:4.39,4.39;}
	.st11{fill:none;stroke:#FF8300;stroke-width:2.5;stroke-linecap:round;stroke-linejoin:round;stroke-dasharray:8.26,8.26;}
	.st12{fill:none;stroke:#FF8300;stroke-width:2.5;stroke-linecap:round;stroke-linejoin:round;stroke-dasharray:6.66,6.66;}
	.st13{fill:none;stroke:#FF8300;stroke-width:2.5;stroke-linecap:round;stroke-linejoin:round;stroke-dasharray:10.07,10.07;}
	.st14{fill:none;stroke:#FF8300;stroke-width:2.5;stroke-linecap:round;stroke-linejoin:round;stroke-dasharray:7.33,7.33;}
	.st15{fill:none;stroke:#FF8300;stroke-width:2.5;stroke-linecap:round;stroke-linejoin:round;stroke-dasharray:4.23,4.23;}
	.st16{fill:none;stroke:#FF8300;stroke-width:2.5;stroke-linecap:round;stroke-linejoin:round;stroke-dasharray:9.26,9.26;}
	.st17{fill:none;stroke:#FF8300;stroke-width:2.5;stroke-linecap:round;stroke-linejoin:round;stroke-dasharray:7.61,7.61;}
	.st18{fill:none;stroke:#FF8300;stroke-width:2.5;stroke-linecap:round;stroke-linejoin:round;stroke-dasharray:7.45,7.45;}
	.st19{fill:none;stroke:#FF8300;stroke-width:2.5;stroke-linecap:round;stroke-linejoin:round;stroke-dasharray:7.29,7.29;}
	.st20{fill:none;stroke:#FF8300;stroke-width:2.5;stroke-linecap:round;stroke-linejoin:round;stroke-dasharray:7.81,7.81;}
	.st21{fill:none;stroke:#FF8300;stroke-width:2.5;stroke-linecap:round;stroke-linejoin:round;stroke-dasharray:7.53,7.53;}
	.st22{fill:none;stroke:#FF8300;stroke-width:2.5;stroke-linecap:round;stroke-linejoin:round;stroke-dasharray:7.25,7.25;}
	.st23{fill:none;stroke:#FF8300;stroke-width:2.5;stroke-linecap:round;stroke-linejoin:round;stroke-dasharray:6.5,6.5;}
	.st24{fill:none;stroke:#FF8300;stroke-width:2.5;stroke-linecap:round;stroke-linejoin:round;stroke-dasharray:6.94,6.94;}
	.st25{fill:none;stroke:#FF8300;stroke-width:2.5;stroke-linecap:round;stroke-linejoin:round;stroke-dasharray:5.83,5.83;}
	.st26{fill:none;stroke:#FF8300;stroke-width:2.5;stroke-linecap:round;stroke-linejoin:round;stroke-dasharray:8.28,8.28;}
	.st27{fill:none;stroke:#FF8300;stroke-width:2.5;stroke-linecap:round;stroke-linejoin:round;stroke-dasharray:8.82,8.82;}
	.st28{fill:none;stroke:#FF8300;stroke-width:2.5;stroke-linecap:round;stroke-linejoin:round;stroke-dasharray:7.89,7.89;}
	.st29{fill:none;stroke:#FF8300;stroke-width:2.5;stroke-linecap:round;stroke-linejoin:round;stroke-dasharray:5.88,5.88;}
	.st30{fill:none;stroke:#FF8300;stroke-width:2.5;stroke-linecap:round;stroke-linejoin:round;stroke-dasharray:7.75,7.75;}
	.st31{fill:none;stroke:#FF8300;stroke-width:2.5;stroke-linecap:round;stroke-linejoin:round;stroke-dasharray:10.19,10.19;}
	.st32{fill:none;stroke:#FF8300;stroke-width:2.5;stroke-linecap:round;stroke-linejoin:round;stroke-dasharray:8.11,8.11;}
	.st33{fill:none;stroke:#FF8300;stroke-width:2.5;stroke-linecap:round;stroke-linejoin:round;stroke-dasharray:4.62,4.62;}
	.st34{fill:none;stroke:#FF8300;stroke-width:2.5;stroke-linecap:round;stroke-linejoin:round;stroke-dasharray:8.7,8.7;}
	.st35{fill:none;stroke:#FF8300;stroke-width:2.5;stroke-linecap:round;stroke-linejoin:round;stroke-dasharray:8.01,8.01;}
	.st36{fill:none;stroke:#FF8300;stroke-width:2.5;stroke-linecap:round;stroke-linejoin:round;stroke-dasharray:8;}
	.st37{fill:none;stroke:#F08219;stroke-width:2.5;stroke-linecap:round;stroke-linejoin:round;stroke-dasharray:8;}
	.st38{display:none;}
	.st39{display:inline;}
</style>
<g class="st0">
	<path class="st1" d="M2204,1929.2c0.4,0,0.8,0,1.2-0.2l167.6-50.6c0.4,0,0.8-0.2,1.2-0.4c2-1,2.8-3.4,1.8-5.4s-3.4-2.8-5.4-1.8
		l-167.6,50.6l0,0c-1.4,0.6-2.4,2-2.6,3.4C2200.2,1927,2201.8,1929,2204,1929.2z"/>
	<path class="st1" d="M3815.6,2031.8l-48.2-48.2h-0.2l31.4-30.6l-2.6-5l0.8-1.4v-5.6l16.6-15.8l-8.4-8.2l-17.2,16.6h-5.2l-0.4,0.2
		L3766,1919l1-1.6v-6l16.6-16.6l-8.6-8.6l-17.4,17.4h-5.2l-2.2,1l-17.4-15.8l0,0l-66.6-67l-96.4-45L3514,1766l0,0l-18-2.4l-80-14.8
		l-132.6-62.2l-17.6-10.2l-16.8-7.4l-8.6-0.8l-17.6-5.6l-9.8-6.6l-18-13l-17.6-10.4l-31.4-12.4l-31-9.8l-28-13l-27.6-9.8l-21.2-3.2
		l-47.4-5l-11.4-5l-11-1.2v-5.6h-16.8v6.8l-26.2,6.6l-37.6,13l-10.2,2.2l-1.4-7.8c1.6-1.4,2.4-3.6,2-5.8c-0.4-2-1.8-3.6-3.8-4.4
		l-3.8-20.8l-9.6,1.8l3.8,21c-0.6,0.6-1,1.2-1.4,2c-1.2,3,0.2,6.6,3.2,7.8l1.4,8l-30.2,6.4l0.8-5.6l-3.2-6.6l-3.2-18l-8.6,1.8
		l3.8,18.2v7.8l3,4l-4.6,1l-54,1.6c-3.2-1.4-6.4-2.4-9.8-3.2h-8.2l-8.2,1.6l-37.6,11.4l-45.8,11.4l-21.2,8.2l-22.8,11.4l-16.4,11.4
		l-43.4,37l-1.2-0.6l-1.4-0.4h-2.8l-1.4,0.4l-1.8,1l-5.2,4.8l-46,43l-4.8,4.2l-29.4,30.8l-58,68l-28.6-19.2c-1.8-1.2-4.4-0.8-5.6,1
		c-1.2,1.8-0.8,4.4,1,5.6l46,31.2v6.6l2.4,11.6l2.4,16.4l2.4,7l7,4.6l0.2,11.6l-1.6,9.8l-6.6,13l-6.6,8.2l-4.8,5l-22.6,8.6
		l-53.8,11.6l-14,2.4l-18.8,4.6l-16.4,9.4l-14,11.6l-7,11.6l-45.4,32.6l-11,1.6l-0.8-8.8v-14.8l7.4-39l7.4-31.6l-3.6-7.4l-9.2-1.8
		l-8,4h-8.4l-11.2-26c0-0.4-0.2-0.8-0.4-1c-1.2-1.8-3.6-2.4-5.4-1.4s-2.4,3.6-1.4,5.4l9.8,23h-3l-18.6,3.8l-6.4,10.8l-10.6-2.2
		c-1.8-0.2-3.4,1-4,2.6c-0.8,2,0.2,4.4,2.4,5.2l8,1.6v51l-52.6,23.8l-7.4-27.8v-3.8l35.4-31.6l1.8-7.4l-3.8-3.8l-9.2,1.8l-37.8,32.2
		l0.4-0.6l-49.6,7.6l-17,2.4l-11.8,2l-7.6,1l-15.6,2.4l-12.8,1.4l-5.6,1l-2-2.4l-2.8-25l-0.4-0.4v-0.4h-1l-7.6,0.4l-0.4,0.4h-1.6
		v0.4h-0.6v0.4l2.8,24.6v1l-1,1l-0.4,1v0.4l-39.2,4.2l-3.4,0.4h-9.4l-1.4-0.4l-1.4-1l-1.4-1l-2-1l-1-1.4l-1-1l-1-1.4l-1-1.4l-1-1.8
		l-0.4-1.4l-1.4-21.4v-3.4l2.4,0.4v1l2,1l0.4-2.8l-1.8-0.4v0.4h-0.8l1.4-5.6l1,0.4v0.4l1.8,0.4l0.4-2.4l-2-0.4l-0.4,1l-0.4-0.4
		l3.8-13.2v-2l-0.4-0.4l-0.4-0.4l3.8-1l-7-27.4l-0.4-1v-0.4l-0.4-1l-0.4-0.4l-1-1l-1-0.4h-0.8l-1-0.4h-1l-1,0.4l-1,0.4l-1,0.4
		l-0.4,1l-1,1l-0.4,1v2.4l3.8,13.2h-24.2l-1.4-1l-1.4-0.4l-2-1l-1.8-1l-2.8-1l-3.4-1l-4.8-1l-3.4-0.4h-7.6l-2.4,0.4l-2.8,0.4
		l-2.4,0.4l-2.8,1l-2.8,1.4l-2.8,1.4l-3.4,2l-3.4,1.8l-0.4,0.4l-7,7l-0.4,0.4l-0.4,0.4v2.4l0.4,1l0.4,0.4l0.4,0.4l0.4,0.4h0.4
		l-6.6,20.8l-3.4,2.8l-3.4,2.8l-2.8,3.4l-1.4,1.4l-1.4,2.4l-1,2.4l-1.8,3.4l-0.4,2l-2,2.8l-0.4,1.4l-2.4,3.8l-1.8,2.8l-3.8,4.8
		l-2.8,3.4l-3.8,2.4l-5.2,2.4l-4.2,2l-6.2,1.8l-7,1.4h-5.2l-5.6-0.4l-9.4-1.4l-17-4.2l-18.4-5.2h-1.4l-14.6-1h-9.4l-5.6-1.8
		l-3.8-1.8l-3.8-1.8l-3.6-1.8l-5.6-3.6l-4.2-2.6l-4.2-0.4l-3.4-0.4l-7-0.4l-4.8-0.4l-3.4-0.4l-8.6-1l-11.8-2.4l-14.2-2.8l-4.2,2.4
		l-11.4-4.8l-5.6-1.8l-5.2-2l-11.4-4.8l-4.2-1.4l-3.8-2l-10-3.8L1465,1976l-1-4.2h-0.4l-7.6-4.8l-7-4.8l-6.6-19l22.8-7.6l1-0.4
		l0.4-0.4l0.4-0.4l0.4-0.4v-0.4l0.4-0.4v-1l-0.4-0.4v-0.4l-0.4-0.4v-0.4l-0.4-0.4h-0.6l-0.4-0.4h-2l-23.2,8l-8-22.2l23.2-8h1
		l0.4-0.4l0.4-1l0.4-1v-1.4l-0.4-0.4l-0.4-1l-0.4-0.4h-0.6l-1-0.4h-1.4l-23.2,8l-5.6-14.6l10-23.6l-9.4-3.8l-10,23.6l-3.4,1.8l-16-7
		l-3.4-1.4l0.4-0.4l-1-2.8l9.4-23.2v-1l-0.4-0.4l-7.6-3.4h-0.4l-0.4,0.4l-0.4,0.4l-9.6,23l-2.4,1.4l-0.4,0.4l-20.4-8l0.4-0.4
		l-1.4-2.4l9-24.2v-0.8h-0.4l-0.4-0.4l-7-2.4h-1.6v0.4l-9,24.2l-1.8,1l-0.4,1l-20.8-7l0.4-1l-1.4-1.8l7.6-24.6v-1l-0.4-0.4l-7-1.8
		l-1-0.4l-0.4,0.4h-0.4v0.4l-7.6,24.6l-2.4,1l-20.8-6.2l-1.4-2.4l6.6-24.6v-0.4h-0.4v-0.4h-0.4l-7.6-2.4h-0.4v0.4h-1l-0.4,0.4
		l-6.2,24.6l-2.4,1.4l-21.2-5.2l-1.4-1.4l7-26l-1-1l-8-2.4l-1.4,1l-6.6,25l-2,1.4l-20.8-5.2l-1.4-2.4h-0.4l7-26l-9.4-2.4l-7,26
		l-2.4,0.8l-7.6-1.8l-2.4-4.2l-11.8-3.4l6.6-24.2l-3.8-1l-52,54l-7.6,7.6l-2.6,2.2l0,0l-5.8-10l-13-11.2h-18.6l-28.2-7.4l4.4-17
		l1.4-1l10,2.8l0.4-1.4h0.4l1-2.8l1,0.4l-0.4,2.8l7,1.8l4.8-2.8l1.4-4.8l-2.8-5.2l-7-1.8l-1,3.4l-1.4-0.4l1-2.8l-0.4-0.4l0.4-1.4
		l-10.4-2.8l-0.4-1l4.8-18l1-0.4l8,2.4l1-3.8l1.4,0.4l-1,3.4l2.4,1l1-3.4h1.8l-1,3.8l5.2,1.4l5.2-2.8l1.4-4.8l-1-1.4l-25-7l-53-14.2
		l-1.4,1l-1.4,4.8l2.8,5.2l34,9l0.4-3.4h1.4l-1,3.8l2.8,0.4l1-3.4l1.4,0.4l-1,3.4l8,2.4l0.4,1l-4.8,17.6l-1,1l-38.4-10.4l-0.4,1.4
		l-1,2.8h-1.4l0.4-3.4l-6.6-1.8h-0.4l-5.2,2.8l-1,4.8l3.2,5.2l6.6,2l1-3.4l1.4,0.4l-0.4,3.4v1.4l10,2.4l1,1.4l-4.6,17.4l-30.4-8
		l-24.2-29.8l-7.4-9.2l-170.2-43l-182.6-7L597,1728l-34.2,9.6l-3.6-13l-7.6,2l3.6,13l-11.2,3.2l-3.8-13.4l-7.6,2.2l3.8,13.4
		l-40.8,11.4l-3.6-12.8l-9.2,2.6l3.6,12.8l-28.2,7.8l-4.2-15.4l-9.2,2.6l4.2,15.4l-23.8,6.6l-4.6-16.6l-9.2,2.6l4.6,16.4l5.2-1.4
		l-35.2,9.8h-14l-79.6-14l-2.4,14l103,19l4.6,16.4l2.2,13l-85.4-13.4l-101.8,97l-47.8,45.4l-28.4,28.8v3l-45.2,8.8l-34,6l-29,5.2
		L0,2026.2v18.6l6.6-4.4l8-2.6l5.4,2.6l4.2,1.4h7.6l8-2.6l10.2-5.4h13.6l0,0l11.8,12l10.6,13.6l6.8,3.2l10,6.6l10,3.4l13.4,3.4h13.4
		l13.4-3.2l13.4-3.4l10-3.4l10-3.4l16.6-10l10-10l6.6-10l6.6-13.4l3.4-10l3.4-10l6.6-6.6l6.6-6.6l10-6.6l13.4-6.6l10-10l6.6-6.6
		l6.6-3.4l10-6.6l3.4-16.8l3.4-10l6.6-10l6.6-10v-10l0.2-8l-3.4-5.4l3.4-10l0,0l0,0l6.6-6.6H343l10,3.4l13.4,3.4l20.6,3h0.2
		l-0.2,0.2l13.6,12h0.2l13,9.8l10,3.4h36.4l16.6-3.2l10-3.4l13.2-6.6l13-6.6l10-6.6l10-6.6l10-3.4l13.2-3.4H576l9.6,1l10.6,2.6h10.6
		l10.6-2.4l4-3.6l13.2-6.6l3.4-10l3.4-10l3.4-3.4l6.6-0.6h23l10,0.6l6.4,1.8l3.4,8v6.4l6.6,6.6l10,3.4h39.6l10,3.4h6.6l13.2,3.4
		l4.8-2.4l5.2-2.6h5.2l10.4,2.6l2.6,2.6l7.8,7.8l5.2,5.2l7.8,5.2l10.4,2.6h7.8l10.4-5.4l10.4-7.8l10.6-5.2l9.8,1.4l10,10l10,6.6
		l10,10h19.6l3.4-6.6l6.6-3.4h6.6l3.4,6.6l10,6.6l10,6.6l3.4,6.6v10l10,3.4l10,3.4h6.8l6.6-3.4l6.6-3.4h2.6l6.6-3.4l3.4-6.6h10
		l10,3.4h19.8l13.2,6.6l6.6,3.4h16.6l10,3.4l6.6,3.4l3.4,3.4l3.4,3.4l6.6,6.6l10,6.6l3.4,10v12.8l3.4,6.6l10,10l3.4,6.6l6.6,6.6
		l6.6,6.6l3.4,6.6l3.4,3.4l6.6,6.6l6.6,10l3.4,10l6.6,6.6l6.6,10l10,10l6.6,6.6l3.4,6.6l3.4,6.6l3.4,6.6l10,6.6l6.6,13.2l6.6,6.6h10
		l10,3.4h10l6.6,3.4l6.6-3.4h23.2l6.6-3.4l16.6-3.4l16.6,3.4l16.6,3.4l19.8,6.6l16.6,6.6l16.6,6.6l10,6.6l13.2,10l3.4,2.6h179h328
		h0.2h150.6l0,0h6.4l0,0l0,0h50h1l-1,0.4h1596l-0.2-0.4h17.2l0.2,0.4h39.8v-0.4v-7.6l0,0v-114.2l0,0v-6.6 M1035.2,1821l5-17.2l1-1
		l21.4,5.6l1,1.4l-4.6,17.2L1035.2,1821z M2201.2,2160l1-4.8h0.2l2.2-10.6l3.4-10l6.6-10l3.4-10l3.4-10v-6.6l-10-10v-3.4l3.4-3.4
		l3.4-3.4l3.4-3.4l0,0l0,0l6.6-3.4l10-3.4l0,0l9.8,3.2l10,10l3.4,16.6v6.6l-3.4,10l-6.6,6.6l-3.4,6.6v6.6l10,3.4l10,6.6l13.2,13.2
		l3.6,2.6h-83.6V2160z M2547.6,2160l-1.8-9.2l-6.6-13.2l-6.6-16.6v-23.2l-3.4-19.8l-2.4-13.8l0,0l-1-6.2v-26.4l-3.4-26.6v-26.6
		l-3.4-26.6l-3.4-29.8l-3.4-16.6v-19.8l3.4-13.2l10-10l23.2-29.8l19.8-23.2l39.8-46.4l16.6-19.8l13.2-10l13.2-6.6h13.2l16.6,3.4
		l13.2,3.4l16.6,3.4l13.2,3.4h36.4l13.2-3.4l16.6-3.4l23.2-6.6l23.2-6.6l23-3.2l26.6-3.4h29.8l9.4-2.4l15.8-7.8l18.4-7.8l21-7.8
		l15.8-5.2l13.2-7.6l0.2-0.4v0.6l5.2-3l10.6-5.2l5.4-1.4h6.4l39.4,5.2l34,10.6l26.2,10.6l21,15.8l18.4,26.2l2.6,6.8l10.6,27.4
		l13.2,52.4l0,0h-0.2l5.2,15.8l5.2,13.2l10.6,26.2l16,32.8l12.8,19.6l15,17.2l6,1.2h7.8l10.6-7.8l8-8l2.4-13l2.6-7.8l5.2-5.2
		l7.8-2.6h7.8l7.8,5.2l3.8,7.8l4.2,7.8l5.2,7.8l10.6,15.8l7.8,15.8l2.6,2.6h3l2.2-2.6l7.8-7.8l10.6-15.8l7.8-7.8l7.8-5.2l13.2-7.8
		l7.4-2.6h8.4l10.6,2.6l10.6,5.2l13.2,7.8l13.2,7.8l26.2,10.4l30.4,5.2h14.2l10.4,2.6l7.8,5.2l15.8,15.8l18.4,18.4l7.8,13.2l5.2,5.2
		l7.8,13.2l5.2,5.2l10.6,13.2l13.2,18.4l1.6,2.8l0,0l8.8,15.6l13.2,13.2l7.8,5.2l13.2,5.2l21.8,12.2l1.8,1l15.8,5.2l23.4,5.2
		l6.2,6.4l4.6,11.6l7.6,11.4v-0.2v0.6l0.4,0.6H2547.6V2160z M3800.2,2160l-0.2-0.2L3800.2,2160L3800.2,2160z M3840,2038.2
		L3840,2038.2L3840,2038.2L3840,2038.2z"/>
	<path class="st1" d="M3818,1100.8l6.8-5.2l11.8-5.2l3.4-0.6V895.6l-0.6-0.2l-10.6-8l-8-5.2l-10.6-5.2l-7.8-5.2l-2.6-5.2l-13.2-18.4
		L3755,806l-2.6-2.6h-2.6l-8,2.6l-7.8,2.6h-8l-2.6,2.6v11l-5.2,10l-4.8,2.6h-2.6l-10.6-5.2l-8-5.2l-5.2-5.2l-5.2-8l-5.2-10.6l-8-8
		l-8-5.2l-8-2.6l-13.2-8l-10.6-2.6h-18.4l-4.6,2.6h-8l-8-2.6l-10.6-2.6l-8-5.2l-5.2-2.6l-5.2-5.2l-5.2-2.6l-5.2-2.6l-10.6-8
		l-2.6-5.2l-2.6-5.2l-5.2-2.6h-15.8l-8-2.6l-8-2.6h-5.2l-8,5.2l-2.6,2.6h-2.6l-5.2-5.2l-8-2.6l-5.2-10.6l-8-8l-8-2.6l-13.2-5.2
		l-5.2-2.6l-5.2-8l-2.6-5.2l-5.2-2.6h-10.6l-2.6-2.6l-2.6-5.2l-8-5.2l-5.2-2.6l-5.2-10.6l-5.2-8l-2.6-8l-7.8-10.6l-5.2-2.6v-3.8
		l5.2-4l2.6-10.6v-5L3361,593l-5.2-2.6l-2.6-8v-9.6l2.6-6.2l8-5.2l10.6-5.2l5.2-8v-10.6l-2.6-8l-2.6-8l-2.6-8l-2.6-5.2V503l2.6-2.6
		h5.2l5.2-8l5.2-10.6l-2.6-5.2l2.6-7.8h-8l-2.6-2.6v-2.6l8-5.2l8-5.2l1.2-1.8l-9-3.4l-5.2-2.6l-2.6-2.6v-5.2l-2.6-2.6v-5.2l-2.6-2.6
		l-5.2-5.2l-2.6-5l0,0l-0.2-0.2v-0.2l0,0l-2.4-2.4l2.6-8l5.2-5.2l5.2-2.6l7.8-5.2l5.2-5.2l2.6-2.6l3.8-5l-3.2-9.6v-9.6l-9.6-9.8
		l-6.4-9.6l-13-19.4l-16.2-13l-13-9.6v-6.4l-6.4-3.2v-4l6.4-5.6h-11.2l-8.2-6.4l-9.6-9.6l-6.4-13l-3.2-9.6l-13-6.4l-19.4-9.6
		l-16.2-6.6l-6.4-3.2l-9.6-16.2l-6.4-9.6l-13-9.6l-9.6,3.2l-3-3.2l6.2-6.4v-13l3.2-9.6l6.4-6.4l-3.2-3.2l-6.4-3.2l-3.2-6.4v-3.2
		l-13-3.2l-13-6.4l-9.6-6.4l-3.2-13v-10l9.6-9.4l3.2-6.4l-13-12.6h-5.2l-7.8,2.8l-4.8,1.4L3141,62l10.6-6.8v-6.4l-10.6,2.8l-12,0.4
		l-19.4-13L3087,19.6l-3.2-3.2l-9.6,3.2l-13-9.8l-3.2,6.4h-3.2l-9.6-6.4L3036,0h-235.4l-12.4,7.4c0,0-19.4,13-22.6,16.2
		S2746.2,43,2746.2,43l-25.8,29l-29,32.2l-29,35.6l-16.2,19.4l-19.4,13l-13,13l-29,25.8l-13,16.2l-13,6.8l-13.2,5.2l-13.2,5.2
		l-2.6,2.6l12.6-1.8L2530,247l1.8,6.2l2.6,13.2v13.2l-7,13.2l-6.4,9.6l-7.6,3.6h-5.2l-5.2,2.6v21l5.2,5.2l7.8,5.2v2.6l-5.2,2.6
		l-2.6,8l-5.2,13.2l-8,13.2l-5.2,8h-23.6l-2.6-2.6l-2.6-5.2v-13.2l-2.6-5.2h-5.2v5.2l-2.8,10.2l-1.2,9.6l0.8,0.4l-0.8-0.2l-2,16.2
		l3.2,25.8l9.6,13l3.2,1.4l0,0l19.4,8.2l25.8,13l25.8,16l8.6,14.4l0,0l0,0l1,1.6l9.6,9.8l6.4,9.6v22.6l-3.2,19.4l-13,19.4l-19.4,13
		l-16.2,6.4l-9.6,6.4l-6.4,6.4l-13,6.4l-16.2,6.4l-9.6-3.2h-9.6l-9.6,6.4l-13,9.8l-9.6,6.4l-13,6.4l-9.6,16.2l-9.6,16.2v20.6
		l-1.4,14.6l20,9.2l10.6,2.6l34.2,18.4l97.8,31.4l7.6,1.8l13.2-5.6l5.6-13.2v-12l50.2-109.8h5.8l18.8,8.8l3.4-7.4l-18-8.4l-4.6-5
		l41.6-91l26.6-13.8l594.6,576l23.4,30.4l35.2,35.2h12.8l59.8,60.8h12.2l55.6-58.6v-11.8l-70.8-73.4l-0.4-4l3.8-35.2l-3.8-11.2
		l-74.8-73.8l-18,18l-9.8-1.6l-15.8-8.2l-8.8-6.4l-127-117.6l-11.6-7l-303-294.2l1.6-8.2l22.8-65.4l9.8,3.2l228.8,219.8l-53.4,54.2
		l13,12.6l53.2-54.6L3249.8,825l90-95l29.4,27.8l76.8,81.8l50.8,59l51.8,63.4l17,23.4l0.6,0.6l6-5.6l4.8,8.2l1.6,3.2l10.8,12.4
		l-6.2,4.6l3.2,4.4l5.8-4.2l9.2,17.6l-14.6,11l1.4,2l-49.8,35.4c-1,0.6-1.6,1.8-1.4,3c0.2,1.8,1.8,3.2,3.4,3c0.8,0,1.4-0.2,2-0.6
		l49.8-35.6l1.4,2l15-11.4l0.4,0.6l34.2,49.4l2.8,4c-1,0.2-1.8,0.6-2.4,1.2c-1,1.2-1.4,2.8-1.2,4.4l-15.6,15.6l5.8,5.8l15.6-15.6
		c1.6,0.4,3.2,0,4.4-1c0.2-0.2,0.4-0.2,0.4-0.4l3.4,4.8l26.8,21.4l13.2,2.2l-13.2,11.4l81.8,99.8l9.8,11.4l65.6,36v-9.2v-34.8
		l-1-0.6l-8.2-8.4l0,0l0,0h-0.4h0.2l-2.2-8v-13.8l2.6-10.8l-2.6-16.4l-5.2-12.6l-13.2-18.4v-39.6L3818,1100.8z"/>
	<polygon class="st1" points="3835.4,1936.6 3832.4,1939.6 3830,1942.2 3828,1944.2 3824.8,1947.2 3824.8,1949.6 3813.2,1961.2 
		3813.8,1962.2 3814.2,1962.2 3825.4,1950.6 3827.4,1951.2 3828.4,1951.2 3829.4,1950.2 3832,1948.2 3835.4,1944.2 3839,1940.6 
		3840,1939.8 3840,1932.2 3838.6,1934 	"/>
	<path class="st1" d="M2708.4,961.2c0,1.4,1.2,2.4,2.4,2.4c0.4,0,0.8,0,1.2-0.2l171.8-90l0,0c1.2-0.6,1.6-2.2,1-3.2l0,0
		c-0.6-1.2-2-1.6-3.2-1l-171.8,90C2708.8,959.4,2708.4,960.2,2708.4,961.2z"/>
	<path class="st1" d="M2643.4,783.8L2643.4,783.8c-0.8-1.2-2.2-1.4-3.4-0.8c-1.2,0.8-1.4,2.2-0.6,3.4l70.4,108c0.4,0.6,1.2,1,2,1
		c0.4,0,1-0.2,1.4-0.4c1.2-0.8,1.4-2.2,0.8-3.4L2643.4,783.8z"/>
	<path class="st1" d="M3526.6,1149c5.4,0,10-0.8,13.2-2.8c9.8-6.6,36.6-27.2,37.8-28l0,0c1.4-1.2,1.8-3.2,0.6-4.6s-3.2-1.8-4.6-0.6
		c-0.2,0.2-27.8,21.2-37.4,27.6c-6.2,4.2-28.8,0-41.4-3.6c-1.8-0.4-3.6,0.6-4,2.2s0.6,3.6,2.2,4
		C3495.4,1144.2,3513,1149,3526.6,1149z"/>
	<path class="st1" d="M209.4,648.6h3.2l4.8-1.6l7.2-4l38.6-8.6l9.2-5.6h7.4l75,37l25.8,137c0.6,2.8,2.8,4.6,5.6,4.6c0.4,0,0.8,0,1,0
		c3.2-0.6,5.2-3.6,4.6-6.6l-3.4-17.6c2.8-1.8,4.2-5.2,3.6-8.4l-28.8-153v-0.2l135.2-24l3.2,6.4L530,732l2.8,14.4l-110.4,20.8
		l0.4,3.8l10-2l0.4,2l1,0.4l1,0.4l2.8-0.4l104.8-19.8l1-1l0.4-1v-1.4l-3-19.6l-14.4-94.2v-5.6l14.8-1.8l5.6,1.8l5.8-0.8l7.2,6.4
		l9.4,3.6l6.2,2.2h27.8l13.2,12.2l2.6,5.8l-0.6,6.8v11.4l3.2,17.4l6.2,6.2l11,1.6l12.6,4.8l9.4,7.8l3.2,12.6L674,741l9.4,8l8,4.8
		l6.4,3.2l4.6-4.8l3.2-12.6l3.2-11l11-14.2l-3.2-8l3.2-12.6l21-17.6l6.8,6.2l14.6-16l-6.6-6.6l4-5.6l4-9.4l7-6.2l10-3.8l2.6-7.4
		l-6.4-4.8l-4.8-8l-1.6-9.8V594l4.8-11l11.4-11.6l5-5l1-7.2l3.2-8l7.2-9.2l13-13l18-14.8l14.8-8.2l18-5l11.2-2l9.4-8v-14.2
		l-3.2-15.8l-8.6-12.8l-4-7.8l-4.8-12.6l-6.6-9.4l-5.8-1.4l-0.8-1.4v-1l-0.4-1v-0.4l-0.4-1l-0.4-0.4l-0.4-0.4l-0.4-0.4l-1-1H850
		l-1-0.4h-1l-0.4-0.4h-1.4l-1,0.4h-1l-13.4-10l-6.6-4.8l-6.6-6.6l-5-3.2l-1.6-3.2l-3.2-1.6l-3.2,1.6l-3.2,1.6h-7.2l-17.2-11
		c-1.4-0.8-3.2-0.4-4.2,1s-0.8,3.6,0.8,4.6l26.2,16.6l0.2,0.2l1.6,1.6l-5.8,5.8l-9.6-7l-2.2,3l9.2,6.8l-4.6,4.6l-3.2-3.2l-6.6,6.6
		l3.6,2.8l-16.8,16.8l-16.2-16.2l-2.4,2.4l16.2,16.2l-0.6,0.6l4.8,5.2l-16.4,18l-6.6-6.6l-1.6,1.6l6.6,6.6l-2.8,1.6l-6.2-6.6
		l-1.8,1.8l-17-17l-2.4,2.8l23.2,23.2l-22.6,22.6L705,474.4l8.2-8.4l-2-2l-8.2,8.4l-7.8-7.6l9-9h0.4v-0.6H704l-1-1V454h-0.4v0.4
		l-9,9l-2.4-2.8l10.8-10.8l-7.2-7.2L684,453.4l-10.4-12l17-17.4v-0.4l-1-1h-0.4L671.8,440l-1-1v-0.4l-10.4-8.4L649.6,417l2-2l7,7
		l1.6-1.6l-7-7l6.6-6.6l9,9l1.6-1.6l-9-9l11.6-11.4l9,9l1.6-1.6l-8.8-8.8l12.4-12.2l1-0.8l16.6,16.8l2.4-2.4l-16.4-16.4l10.6-8.4
		l16.8,16.8l2-2l-16.6-16.6L715,360l10.8,10.6l2-2l-10.2-10.2l5.8-3.6l11.8,8.6l1.4-1.8l-11-8l3.2-2l6.8,4.6
		c0.2,0.2,0.2,0.2,0.4,0.2c1.6,0.8,3.6,0.4,4.4-1.2c0.8-1.6,0.4-3.6-1.2-4.4l-4.6-3l-63-38.2h-2.4l-0.4,0.4l-17-10l-27.6-15
		l28.8-47.2l62,39.4l-4.6,6.8l28.2,17.2l1.4-2.8l-23.4-14.6l13.2-21.6l5.2,3.4l1-1.6l-5.2-3.6l3.2-5.2l5.6,3.8l1-1.6l-5.8-3.8
		l0.2-0.2l2.4-3.8l11.6,7.8l1-1.6l-11.8-7.8l2.6-4.2l13,8.6l1-1.6l-13-8.6l13.8-21.6l10.4,7l1-1.6l-10.6-7l3.8-6.2l12.2,8.2l1-1.6
		l-12.2-8.2l2.8-4.4l12,7l1-1.6l-12-7l8.8-13.8l16.4,8.2l34,23.8l36.4,20.2h0.6h-0.6l27,17l10.6,7.6l21.2,13l9.8,8.2l18,14.8
		l-16.4,19.6l6.6,5l16.4-19.6l29.4,25.4l-16,19.4l5.6,4.8l16-19.4l33.2,27.4l-4.6,6l2.4,2l5.2-6.2l19.4,16.6l-13.8,16.6l2.8,2.4
		l13.8-16.6l16.6,13.8l-13.8,17l2.8,2.4l13.8-17l26.6,21.8l170.4-71.8h-0.2h0.2h78.8l3.4,31l28-2.4l6.4-9.6l5.8-6.4h7.2l9.8-3.2
		l7.8-1.6l8.2-1.6l6.4-3.2l3.2-3.2l6.4-6.4l-3.2-6.4l-6.4-6.4l-6.4-9.6l-3.2-13l-3.2-9.6l-6.4-3.2l-3.2-3.2h-6.4l-6.4-6.4l-3.2-6.4
		l-16.2-16.2l-19.4-19.4l-3.2-6.4l3.2-6.4l-3.2-9.6l-9.6-6.4l-19.4-13l-9.6-16.2l-3.2-16.2l6.4-6.4l16.2-3.2h16.2l13,6.4h16.2
		l16.2,6.4l13-16.2l13-19.4l-6.4-13l-0.6-19.4h-9.2l-13-13L1371.2,63l-13-35.6l-9-27.4h-162h-439h-95.8l0.6,0.2l4,2L651.8,0H40.4
		L108,215l274.8-86.6l13,6.6l36,109.6L0,381v153.4l203.8,111L209.4,648.6z M987,1L987,1l-16.4,18.8l0,0L987,1z"/>
</g>
<g>
	<g>
		<defs>
			<rect id="SVGID_1_" width="3840" height="2160"/>
		</defs>
		<clipPath id="SVGID_2_">
			<use xlink:href="#SVGID_1_"  style="overflow:visible;"/>
		</clipPath>
		<g class="st2">
			<path id="Pre1900_Kln" class="st3" d="M-342-931.8l1,2.2l10.6,18.4l5.2,8l5.2,8l2.6,8l2.6,10.6l2.6,5.2l2.6,8l2.6,2.6l8,2.6
				l5.2,5.2l2.6,5.2l5.2,5.2l5.2,2.6h7.8l2.6-2.6l7.6-5.4h10.6l15.8-2.6l15.8-13.2l8-18.4l8-15.8l5.2-23.8l7.8-15.8l15.8-8
				l16.4-11.2h9.6l8.4-2.6l7.8-5.2h21.4l9.6,2.6l7.2,1.2l8.2,1.2l7.8,2.6h5.6l6.8,2.8l7.8,2.6l5.2,2.6l7.8,5.2l7.8,5.2l5.2,5.2
				l5.2,5.2l5.2,5.2l5.2,2.6H-8l1-2.6h2.6l3.8,2.6l4-2.6l2.4-2.6l2.6-2.6v-7.4l-2.4-3v-5.2l2.6-2.8l2.6-2.4v-12.8l-2.4-2.6L6-967
				l-2.6-2.6l-2.6-2.6l-2.6-5.2v-5.2l2.6-5.2l2.6-5.2l2.6-2.6l5.2-5.2l5.2-5.2l5.2-2.6h5l5.4-2.6l2.6-5.2v-5.2l2.6-5.2l5-5.2
				l5.2-5.2l5.2-2.6l5.2-2.6l5.2-2.6h4.6l5.8-2.6l5-2.6l5.2-5.2l5.2-5.2l2.6-2.6l2.6-5.2l5.2-5.2l5.2-2.6h15.4l7.8,2.6h4.4l7.8,2.6
				h15.4l7.8,2.6l7.6,2.6l7.8,5.2l5.2,2.6H199l7.8,2.6l7.8,5.2l7.6,2.6h7.8l10.4-2.6l7.6-2.6l5.2-2.6l7.6-10.4l2.6-7.8l2.6-10.2
				l2.6-7.8l2.6-7.8l5.2-7.8l5.2-7.8l5.2-7.6l5.2-7.8l5.2-7.8l5.2-7.8l7.8-7.8l10.2-7.8c0,0,7.8-7.6,10.2-7.6s5.2-5.2,5.2-5.2v-5.4
				l-2.6-10l-3.2-6.2l-2.6-7.8l-2.6-7.8l2.6-7.8l5.2-5.2l5.2-2.6h10.4v2.6l-7.8,2.6l-5.2,2.6l-2.6,5v5.2l2.6,7.8l2.6,7.6l2.6,7.8
				l2.6,7.8v20.6l-2.6,5.2l-5.2,5.2h-15.4l-5.2,5.2l-5.2,5.2l-7.8,7.8l-5.2,7.8l-7.8,10.2l-5.2,10.4l-5.2,7.6l-2.6,7.8l-2.6,7.8
				l-2.6,7.8l-2.6,7.8l-5.2,7.8l-5.2,5.2l-5.2,7.8l-5.2,7.8l-2.6,7.6l-2.6,10.2v36l-2.6,7.8v5.2l2.6,7.8l2.6,12.8v12.8l-1.8,12.8
				l-0.8,10.2v18l2.6,5.2l2.6,7.8h-1l-6-2.6h-10.4l-3,2.6l-4.8,5.2l-5.2,5.2l-7.8,7.8l-5.2,5.2l-5.2,5.2l-5,5.4l-5.2,2.6l-5.2,10.2
				l-5.2,10.2l-5.2,10.2l-5.2,10.2l-5.2,7.8L157-786l-2.6,10.2l-7.8,10.2l-7.8,7.8l-7.8,7.6l-5.2,5.2l-7.8,5.2l-7.6,7.8l-5.2,5.2
				l-7.6,2.6l-7.8,2.6h-6.4L78-720l-2.6,2.6l2.6,5.2v12.8l2.6,5.2L78-689l-2.6,5.2l-2.6,7.8l-2.6,7.8l-2.6,7.8l-5.2,10.2v18
				L59.8-622l-2.6,10.2v15.4l2.6,10.2v7.8l2.6,10.2v20.6l-2.6,10.2v54l2.6,10.2l2.6,7.8l2.6,7.8l2.6,7.6l5.2,7.8l5.2,7.8l7.8,5.2
				l7.6,2.6h12.8l5.2,2.6l5.2,5.2l5.2,2.6l7.6,2.2l5.2,2.6l5.2,5.2l7.8,5.2l10.2,2.6l7.8,2.6h10.2l7.8,2.6h5.2l2.6,2.6l5.2,5.2
				l5.2,5.2l5.2,5.2l2.6,2.6h10.6l2.2,2.6h21.6l4,2.6l5.2,2.6l5.2,2.6h4.4l5.8,2.6v7.8l2,10.2l2.6,10.6l2.6,10.6l5.2,5.2l8,2.6
				l2.6,7.8l2.6,5.2l2.6,7.8v8l-2.6,7.8v7.8l2.6,5.2l5.2,8h8.8l7,2.6h7.4l5.8,2.6l8,2.6l5.2,7.8l2.6,8v8l2.6,7.8l2.6,5.2l2.6,5.2
				l2.6,5.2h5.2l5.2,2.6h10.6l5.2,2.6l2.6,2.6v10.6l-2.8,5v5.2l2.6,2.8l2.6,2.6h3.6l4.2-2.6l5.2-2.6h2.6l8-2.6l10.4-2.8l7.8-2.6h5.2
				l5.2-2.6l2.6-5.2l2.6-5.2l2.6-5.2v-13.2l2.6-5.2l2.6-5.2l2.8-5.2v-7.8l-2.6-8v-2.6l5.2-2.6l2.6-5.2V-268l2.6-5.2l2.6-5.2v-5.4
				l-2.6-8v-10.6l2.6-8.8v-7l-5.2-8v-8l-8-13.2l-2.6-13.2v-10.6l-2.6-10.4l-2.6-10.4l-2.6-5.2l-2.6-5.2l-5.2-5.2l-6.6-0.8h-11.8
				l-7-2.4l-3.2-2.4l-2.6-7.8v-55.4l-2.6-7.8v-5.2l2.6-2.6l5.2,8l5.2,2.6l5.2,5.2v8l2.6,5.2l5.2,2.6l5.2,2.6l7.8,0.4l5.2-0.4h5.2
				l5.2,2.6v18l5.2,3.2l8,2.6l2.6,7.8l2.6,8l2.6,10.6l5.2,8l5.2,5.2l8,2.6h5.2l5.2,5.2l5.2,5.2v4.6l-7.8,6l-2.6,5.2l2.4,4.8l2.6,8
				v55.4l5.2,8l2.6,5.2l5.2,5.2l2.6,5.2l2.6,2.6l2.6,2.6l2.6,2.6l2.6,2.6v4.2l2.6,3.2l2.6,2.6l2.6,2.6l8,5.2l10.6,2.6l8,2.6h10.6
				l8,2.6l8,2.6l8,5.2h5.2l8,2.6l5.2,5.2v27l2.6,7.2l2.6,8l2.6,5.2l2.6,5.2l2.6,5.2l2.6,5.2l2.4,5.2l2.6,5.2v5.2l2.6,8v5.2l2.6,8
				l2.6,5.2l2.6,5.2l2.6,2.6l8,5.2l7.8,2.4l8,2.6L687-94h13.2l5.2-2.6l5.2-2.6l5.2-2.6l5.2-2.6l24.6-7.8l20.2-8l10.6,2.6l2.6,2.6
				l6.8,2.8h8.4l8.6-2.8l10.6-5.2l2.6-5.2l2.6-8v-3.4l2.6-1.8l2.6,5.2v5l5.2,3.2l8-2.6l21-8l10.6-2.6h5.2l8,2.6l2.6,5.2l2.6,5.4
				l8,5.2h29l10.6-2.6l13.2-2.6l8-5.2l2.6-5.2l2.6-5.2l-2.6-8l-8-7.8l-15.8-10.6l-5.2-5.2v-5.2l2.6-2.6h5.2l8,5.4l8,5.2l8,8l5.2,7.8
				l2.6,5.2l2.6,10.6v8.6l2.6,7.2h8l5.2-2.6v-11.8l-2.8-6.8l-5.2-10.6l-5.2-18.4v-23.8l2.6-2.6l2.6,2.6v5.2l2.6,5.2l2.6,2.6h5.2
				l8-5.2l5.2-2.6l2.6,5.2h8l8-2.6l5.2-2.6h5.2l15.6-2.6l10.6-5.2l10.6-8l5.2-8l5.2-8l7-9.6l16.2,9.6l9.6-3.2l6.4,6.4l9.6,3.2l13,13
				l13,9.8h6.4l16.2,13L1196-166l9.6,9.6v9.4l6.4,13.2l9.8,9.8h13l6.4-6.4h3.2l3.2,9.6l13,6.4l6.4,3.2l9.6,6.4l9.8-3.4l3.2,9.6
				L1309-89l19.4,19.4l13,9.8l3.2,16.2v15.8l3.2,23l9.6,32.4l13,35.6l16.2,32.4l13,13h9.2l0.6,19.4l6.4,13l-13,19.4l-13,16.2
				l-16.2-6.4h-16.2l-13-6.4h-16.2L1312,167l-6.4,6.4l3.2,16.2l9.6,16.2l19.4,13l9.6,6.4l3.2,9.6l-3.2,6.4l3.2,6.4L1370,267
				l16.2,16.2l3.2,6.4l6.4,6.4h6.4l3.2,3.2l6.4,3.2l3.2,9.8l3.2,13l6.4,9.8l6.4,6.4l3.2,6.4l-6.4,6.4l-3.2,3.2l-6.4,3.2l-8.2,1.6
				l-7.8,1.6l-9.6,3.2h-6.6l-5.8,6.4l-6.4,9.6l-9.8,32.4l3.2,29l-6.4,42l3.2,9.8l6.4,9.8l9.6,9.6l13,19.4l13,6.4l13-13l13-16.2
				l3.2-16.2l3.2-9.8l16.2-13l6.4-9.8l3.2-22.6l3.2-22.6l3.2-16.2l6.4-16.2l3.2-13v-19.2l3.2-6.6l22.6-3.2l38.8,3.2l32.4,6.4
				l22.6,6.4l19.6,3.2l12.8,9.8V418l-3.2,9.6l3.2,9.8v13l-9.6,19.4l-6.4,9.8l-6.4,6.4v9.8l3.2,9.8v64.6l3.2,13l3.4,8.2v4.2l6.4,13.6
				v35.6l6.4,6.4l9.6,6.4l6.4,3.2l6.4,9.8v9.8l3.2,9.6l3.2,6.4v9.8l3.2,6.4v9.8l-3.2,3.2l-6.4,3.2l-6.4,3.2l-3.2,13l3.2,3.2v9.6
				l9.6,6.4l3.2,3.2l9.6,3.2l3.2,9.8l9.6,13l3.2,16.2l6.4,6.4v6.4l-3.2,13l-6.4,13l-3.2,16.2l6.4,3.2l13,13l13,9.8v16.2l-6.4,6.4
				V926l-3.2,9.8v25.8l-3.2,9.8l-6.4,13l-9.6,9.8l-13,3.2l-9.6,9.8l-3.2,9.6l-6.4,16.2l-6.4,16.2l-9.6,22.6l-6.4,3.2l-16.2,6.4
				l-6.4,6.4l-3.2,9.6l-3.2,9v23.2l3.2,6.4l6.4,9.6l13,3.2l6.4,3.2l6.4,9.4l3.2,16.4l3.2,13l-3.2,19.4l-3.2,18v17.6l3.2,19.4
				l3.2,23.6v31.4l6.4,13l6.4,13l3.2,13v29l-6.4,13l3.2,22.6l3.2,13l3.2,6.4l6.4,13l3.2,13l3.2,7v12.4l3.2,9.6l3.2,13.8v8.8l6.4,6.4
				h6.4l6.4-9.6l3.2-13l13-6.4l3.2-13l13-13l16.2-3.2l13-6.4h42l9.6-3.2h22.6l6.4,9.6l6.4,16.2l3.2,9.6l13,12v7.6l6.4,9.6h16.2
				l16.2-16.2l13-19.4l6.4-16.2v-19.4l-6.4-9.6l-6.4-19.4l3.2-13l3.2-22.6l6.4-25.8l6.4-22.6l6.4-16.2l9.6-22.6l6.4-22.6l9.6-32.2
				l6.4-29l6.4-6.4l9.6,3.2l9.6,6.2l9.6-3.2l6.4-9.6l13-19.4l6.4-32.4l3.2-22.6l6.4-25.8l6.4-22.6l6.4-16.2l9.6-9.6l13-16.2l9.6-6.4
				l6.4-9.6l6.4-6.4l9.6-6.4l9.6-6.4l6.4-4.2v-5.4l3.2-9.6l6.4-3.2l9.6-3.2l29-6.4l15.6,24.8l16.2-6.4l6.4-6.4l6.4-3.2h9.6l3.2,3.2
				l6.4,13c4.6,3,8.8,6.2,13,9.6c3.2,3.2,16.2,6.4,16.2,6.4L2286,998l16.2,6.4l13,3.2l9.6,3.2l9.6,6.4l6.4,9.6l9.6,6.4l6.4,9.6
				l9.6,10.6v12c0,0,3.2,6.4,3.2,9.6s9.6,6.4,9.6,6.4l13,3.2l9.6,6.4l6.4,6.4l9.6,9.6l13,6.4l6.4,6.4v13l3.2,9.6l9.6,6.4l9.6,3.2
				h6.4l3.2,6.4l6.4,13l6.4,6.4l6.4,3.2l13,6.4l9.2,6.8l7.4,0.8l2.6-1.4l5.2-5.2l2.6-10.6v-13.2l-8-13.2l-5.2-13.2l2.6-18.4
				l13.2-15.8l2.6-29.6l9.6-22.6l13-13v-5.2l-1.6-6l-2.6-8l-7.8-8l-2.6-8l-10.6-13.2l-10.6-10.6l-18.4-10.6l-21-10.2l-18.4-7.6
				l-19.4-3.2l-9.6-9.8l-3.2-6.4v-13l-10-20.8l-12.6-18l-16.2-13l-13-22.6l-6.4-20.4v-89.4l3.2-34.2V680l9.6-16.2l9.6-16.2l13-6.4
				l9.6-6.4l13-9.8l9.6-6.4h9.6l9.6,3.2l16.2-6.4l13-6.4l6.4-6.4l9.6-6.4l16.2-6.4l19.4-13l13-19.4l3.2-19.4v-22.6l-6.4-9.6
				l-9.6-9.8l-9.6-16.2l-25.8-16.2l-25.8-13l-22.6-9.8l-9.6-13l-3.2-25.8l3.2-25.8l2.8-10.2v-5.2h5.2l2.6,5.2v13.2l2.6,5.2l2.6,2.6
				h23.6l5.2-7.8l8-13.2l5.2-13.2l2.6-8l5.2-2.6V340l-8-5.2l-5.2-5.2v-21l5.2-2.6h5.2l7.6-3.6l6.4-9.6l7-13.2v-13.2l-2.6-13.2
				l-1.8-6.2l2.6-2.6l13.2-5.2l13.2-5.2l13-6.8l13-16.2l29-25.8l13-13l19.4-13l16.2-19.4l29-35.6l29-32.4l25.8-29l19.4-19.4
				c3.2-3.2,22.6-16.2,22.6-16.2l16.2-9.6l25.8-9.6l35.6-6.4l20.2-3.2h128.4l9.6,13l9.6,6.4l9.6,9.6l9.6,6.4h3.2l3.2-6.4l13,9.6
				l9.6-3.2l3.2,3.2l22.6,19.4l19.4,13l12-0.4l10.6-2.8v6.4l-10.6,6.8l2.6,4.2l4.8-1.4l7.8-2.8h5.2l13,12.6l-3.2,6.4l-9.6,9.4v10
				l3.2,13l9.6,6.4l13,6.4l13,3.2v3.2l3.2,6.4l6.4,3.2l3.2,3.2l-6.4,6.4l-3.2,9.6v13l-6.2,6.4l3,3.2l9.6-3.2l13,9.6l6.4,9.6
				l9.6,16.2l6.4,3.2l16.2,6.6l19.4,9.6l13,6.4l3.2,9.6l6.4,13l9.6,9.8l8.2,6.4h11.2l-6.4,5.6v4l6.4,3.2v6.4l13,9.8l16.2,13l13,19.4
				l6.4,9.6l9.6,9.8v9.8l3.2,9.6l-3.8,5.2l-2.6,2.6l-5.2,5.2l-7.8,5.2l-5.2,2.6l-5.2,5.2l-2.6,8l2.6,2.6l2.6,5.2l5.2,5.2l2.6,2.6
				v5.2l2.6,2.6v5l2.6,2.6l5.2,2.6l9,3.4l-1.2,1.8l-8,5.2l-8,5.2v2.6l2.6,2.6h8l-2.6,7.8l2.6,5.2l-5.2,10.6l-5.2,8h-5.2l-2.6,2.6
				v5.4l2.6,5.2l2.6,8l2.6,8l2.6,8v10.6l-5.2,8l-10.6,5.2l-8,5.2l-2.6,6.2v9.6l2.6,8l5.2,2.6l5.2,10.6v5l-2.6,10.6l-5.2,4v3.8
				l5.2,2.6l7.8,10.6l2.6,8l5.2,8l5.2,10.6l5.2,2.6l8,5.2l2.6,5.2l2.6,2.6h10.6l5.2,2.6l2.6,5.2l5.2,8l5.2,2.6l13.2,5.2l8,2.6l8,8
				l5.2,10.6l8,2.6l5.2,5.2h2.6l2.6-2.6l8-5.2h5.2l8,2.6l8,2.6h15.8l5.2,2.6l2.6,5.2l2.6,5.2l10.6,8l5.2,2.6l5.2,2.6l5.2,5.2
				l5.2,2.6l8,5.2l10.6,2.6l8,2.6h8l4.4-2.6h18.4l10.6,2.6l13.2,8l8,2.6l8,5.2l8,8l5.2,10.6l5.2,8l5.2,5.2l8,5.2l10.6,5.2h2.6
				l4.8-2.6l5.2-10v-11l2.6-2.6h8l7.8-2.6l8-2.6h2.6l2.6,2.6l31.6,42.2l13.2,18.4l2.6,5.2l7.8,5.2l10.6,5.2l8,5.2l10.6,8l10.6,5.2
				l5.2,2.6h5.2l8-2.6h5.2l10.6,2.6h15.8l5.2-8v-15.8l-2.6-18.4l2.6-10.6v-5.2l-2.6-21V796l2.6-8h2.6l8,13.2l15.8,18.4l13.2,13.2
				l5.2,8l10.6,5.2l5.2,8v8l8,5.2l10.6,2.6l10.6,2.6l10.6,5.2l10.6,2.6l5.2-2.6l8-5.2h5.2v2.6l-2.6,2.6l-10.6,13.2l-10.6,13.2
				l-15.8,10.6l-13.2,8l-23.8,15.8l-10.6,10.6l-2.6,15.8l-5.2,10.6L3923,978h-13.2l-13.2,2.6l-5.2,2.6l-8,10.6l-7.8,10.6l-5.2,8
				l2.6,8l-2.6,15.8l-2.6,10.6l-2.6,10.6l-5.2,8l-5.2,5.2l2.6,2.6l2.6,5.2l2.6,5.2l-5.2,2.6h-10.6l-15.8,2.6l-11.8,5.2l-6.8,5.2
				l-8,13v39.6l13.2,18.4l5.2,12.6l2.6,16.4l-2.6,10.8v13.8l2.2,8l8.2,8.4l20.6,14.2l11,8l14.2,14.2l3.2,14.2l1.6,12.6l6.4,19
				l11,17.4l17.4,20.6l15.8,12.6l22.2,8l20.6,3.2l15.8,1.6l9.4,8.4l20.6,2.6l11.4-2.6l9.2-3.8l11.2-5.2l11,2l6.2,2.6l15,4.2h8.8
				l14.2-3.8l12.6,1.6l8.8,2.2l7.4,2.6h4.6l7.8,2.6h15.8l13.2-5.2h5.2l15.8,2.6h10.6l2.6,2.6l-2.6,2.6l-5.2,8l-5.2,8v5.2l-5.2,2.6
				l-8,5.2l-2.6,5.2l2.6,15.8l5.2,13.2l5.2,13.2l5.2,8l2.6,23.8l-5.2,2.6H4188l-10.6,5.2h-8l-5.2-2.6l-12.8-5.8h-8l-10.6,2.6
				l-13.2,5.2l-2.6,5.2v5.2l2.6,10.6l2.6,18.4l-2.6,5.2h-5.2l-7.8-5.2l-5.2-2.6l-5.2-5.2l-8-2.6l-8-5.2l-8-2.6h-8l-5.2,2.6l-2.6,8
				l4.8,9.4l4.8,9.8l3.2,11.4l13.4,14.2l21,15.8l7.8,2.6l10.6,2.6l5.2,2.6l7.8,13.2l-2.6,1.4v4l2.6,2.6l21,18.4l18.4,13.2h10.6
				l10.6-5.2l10.6-2.6l10.6-8l15.8-2.6l15.8-8l10.6-2.6l10.6-2.6l8-5.2h2.6v8l-2.6,5.2l-5.2,13.2l-2.6,10.6l-8,23.8l-2.6,13.2
				l-5.2,13.2l-13.2,15.8l-21,29l-10.6,15.8l-5.2,13.2l-5.2,5.2l-8,10.6v2.6l-5.2,13.2l-2.6,5.2l2.6,2.6l2.6,2.6l5.2,2.6l8,5.2
				l7.8,2.6l5.2,2.6h13.2l18.4,13.2l8,8l7.8,5.2l5.2,2.6l5.2,2.6h15.8l10.6,5.2l2.6,4.4v3.6l5.2,5.2l2.6,2.6h5.2l12,4l14.8,5.6
				l18.6,1.8h18.4l17,3.8l14.2,0.8l6.6,2.6h17.2l5.2-2.6l10.6-2.6l8-2.6l2.6-5.2l13.2-26.4l5.2-5.2l23.8-29l5.2-9.6v-16.6l2.6-2.6
				l2.6,2.6l2.6,2.6h5.2l2.6-2.6l5.2-5.2v-8l-5.2-5.2l-7.8-6.2v-7l7.2-2.6h6l7.8-5.2h5.6l8-2.6l8-8l2.6-8l5.2-2.6l8-2.6l7.8-2.6
				l2.6-8l2.6-8l2.6-5.2l5.2-8l5.2-8l5.2-5.2l7.8-2.6l8-5.2l5.2-8l2.6-7.8v-10.6l2.6-10.6l2.6-8h2.6l4.2,2.6h3.8l2.6-5.2l7.8-2.6h8
				l5.2-2.6l18.4-13.2l8-10.6l23.8-26.4v-13.2l4.2-10.6l3.6-5.2l5.2,2.6l-0.2,2.6h5.6l5.2-5.2l13.2-15.8l2-5l-2.6-8v-21l5.2-5.2
				l5.2-2.6l8-2.6l2.6,2.6l2.6,5.2l5.2-2.6l23.8-26.4l2.6-5.2v-5.2l2.6-5.2l3.2-5.2l7.2-8l10.6-5.2h8l2.6,2.6l2.6,2.6l2.6,5.2
				l2.6,2.6l5.2-2.6l8-8l5.2-21l2.6-21l2.6-5.2v-5.2l-2.6-5.2l-5.2-10.6l6.4-8.6h20.4l11.2-33.4v-16.8l-3.8-14.8l-9.2-5.6l-9.2-5.6
				l0.2-7.6l-2.6-10.6l-2.6-8l-8-5.2l-7.8-2.6l-7.8-2.6l-9-2.6h-9.4l-10.6-8l-10.6-8l-13.2-8l-2.6-8l-2.6-13.2l-2.6-15.8v-4.8
				l5.2-10.6l2.6-10.6l2.6-2.6l2.6-2.6l5.2-5.2v-5.2l-2.6-2.6l-8-2.6h-5.2l-5.2,2.6l-5.2,2.6h-5.2l-5.2-2.6l-2.6-2.6h-8l-2.6,2.6
				l-13.2,10.6h-7.8l-5.2,2.6l-8.6,2.6h-12.2l-2.6-2.6l-5.2-7.8v-3.8l7.8-21l5.2-8l13.2-15.8l8-5.2l5.2-5.2l2.6-8v-5.2l2.6-2.6
				l5.2-5.2l2.6-5.2l2.6-8l5.2-5.2l10.6-8l5.6-5.2h15.4l13.2-8l15.8-10.6l18.4-13.2l13.2-10.6l5.2-10.6l5.2-10.6l8-5.2l5.2-8
				l7.8-13.2l8-8l2.6-8l2.6-13.2l2.6-13.2l5.2-18.4l2.6-10.6l5.2-5.2l8-10.6l2.6-13.2l5.2-13.2l10.6-8l2.6-8l10.6-15.8l2.6-10.6
				l5.2-15.8l2.6-18.4l2.6-5.2l8-8h2.6l4,2.6h4l2.6-2.6l8-10.6V739l-2.6-8l-2.6-8l-1.4-5.2l-4-2.6l-2.6,2.6h-8.6l-5.2-2.6l-8-8v-8
				l-5.2-8l-2.6-8v-8l-2.6-8l-5.2-8l-5.2-10.6v-5.2l5.2-13.2v-8l-5.2-8l-2.6-5.2v-15.8l2.6-5.2v-5.2l-5.2-5.2l-2.6-8l-2.6-26.4
				l-2.6-18.4v-5.2l-2.6-8l-2.6-5.2l-2.6-2.6l-2.6-2.6l-2.6-2.6h-5.2l-2.6-2.6l-2.6-2.6V488l-2.6-2.6l-5.2-2.6l-10.6-2.6l-5.2-2.6
				l-13.2-5.2h-5.2l-13.2-5.2h-13.2l-18.4-5.2l-13.2-5.2l-8-10.6l-5.2-10.6l-2.6-5.2l-2.6-5.2l-5.2-2.6h-8l-8,2.6l-7.8,2.6l-5.2,5.2
				l-2.6,2.6l-5.2,2.6h-2.6l-2.6-2.6l-2.6-2.6l-2.6-2.6v-7.8l2.6-7.8l2.6-8l2.6-5.2l2.6-5.2l5.2-5.2v-15.8l-5.2-8l-2.6-5.2V357
				l-2.6-2.6h-7.8l-2.6-2.6l-2.6-2.2v-5.8l2.6-5.2l2.6-5.2l5.2-6.2v-4.4l2.6-2.6l13.2-13.2l5.2-2.6l2.6-2.6l5.2-2.6h5.2l2.6,2.6
				l2.6,2.6l5.2,2.6l5.2,5.2l5.2,2.6h13.2l5.2-2.6h5.2l2.6-5.2l2.6-8l2.6-7.8l10.6-2.6h5.2l5.2-5.2l8-2.6h8l5.2-2.6l5.2-5.2h13.2
				l5.2-2.6l5.2-2.6h10.6l5.2,2.6l2.6,2.6l15.6,7.8h32l7.8,2.6l5.2,2.6l5.2,2.6l2.6,2.6l5.2,7.8l2.6,2.6l2.6,2.6l2.6,2.6l5.2,2.6
				l8,2.6l7.8,2.6h13.2l4,1.4l2.6,2.6l2.6,2.6l2.6,2.6l2.6,5.2l2.6,5.2l2.6,8l2.6,5.2v8l2.6,13.2v2.6l5.2,5.2l2.6,6v7.2l2.6,10.6
				l2.6,7.8l7.8,15.8l5.6,9.2l5,6.6l2.6,2.6l36.8,34.2l5.2,5.2l2.6,2.6l2.6,5.2l2.6,3.8v4.2l2.6,2.6l2.6,2.6v5.2l-1.2,3.6v5.6
				l2.6,5.4l2.6,5.2v42.2l-2.6,5v5.6l5.2,5.2l5.2,8l5.2,8l5.2,8l2.6,8l5.2,5.2l10.6,3.2v7.4l8,2.6l15.8,5.2l13.2,5.2l21,8l23-5.8
				l26.8-19l14.2-28.4l-4.8-33.2l-11-34.8l2.4-20.8l13.4-6.4l11,22.4l9.4,30l7.8,25.2l35.6,22.2h16.2"/>
			<path id="Pre1900_HKI" class="st3" d="M303.4,3148.4l0.2-1.2l1.6-7.2l2.6-10.6l2.6-8l15.8-29l10.6-29l2.6-8l-2.6-36.6v-21.4
				l-2.6-8l-5.2-5.8l-2.6-7.6v-8l2.6-2.6v-2.8l-2.6-5.2l-8-13.2l-12-13.2l-4-2.6l-13.2,2.6l-5.2-5.2l-2.6-5.4v-5.2l5.2-13.2
				l-2.6-5.2l-13.2-10.6l-2.6-2.6l2.6-2.6l5.2-2.6v-2.6l2.6-5.4l5.2-5.4v-5.2l-8-5.4l-8-8l-2.6-5.4l-8-2.6l-2.6-2.6l-2.6-5.2
				l-2.6-5.4l-8-5.2l-5.2-5.2H231l-2.6,5.2l-2.2,4.2v4.2l-2.6,5.2l-2.6,3v12.8l-5.2,2.6h-10.6l-2.6,2.6l-2.6,5.4v5.2l-2.6,5.2
				l-5.4,2.6h-2.6l-5.2,2.6l-5.2,8l-2.6,5.2l-2.6-2.6v-5.2l-5.2-5.2l-8-2.6H150l-2.6-2.6l-8-2.6l-2.6-2.6l-8-2.6l-5.2-5.4l-10.6-2.6
				l-8-8l-2.4-10.8l-2.6-5.2l-8-13.2l-5.2-15.8V2786l-2.6-2.6l-8-8l-2.6-5.2l5.2-8l2.6-18.6l2.6-13.2l5.4-13.2l-2.6-2.6l-2.6-11.6
				v-9.4l-8-17v-12l-5.4-2.6l-5.4-5.2l-1.4-11.4l-4-9.8l-2-5.2l-3.2-2.6l-10.6,2.6l-2.6-2.6l-2.6-8l-2.6-2.6l-10.6-8l-8-8l-2.6-8
				l2.6-5.4l-2.6-5.2L10,2580l-5.2-2.4v-5.4l2.6-2.6v-2.6l-2.6-2.6l5.2-5.4l5.2-5.2v-8l2.6-13.2l5.2-8l5.2-13.2v-10.6l-5.2-13.2
				l-8-2.6l-10.6-2.6l-5.2-2.6l-2.8,2.6l-8,5.2l-13.2,5.2l-8,5.4h-8l-10.6,2.6l-13.2,2.6l-17.4-2.6h-9l-8-2.6l-5.6-2.6h-5.4
				l-5.2-2.6l-5.2-2.6l-8.4-5.2h-18l-18.6-10.6l-5.2-8l-2.6-2.6l-5.4-2.6l-2.6-5.2l-5.2-10.6l-13.2-21.2l-10.6-15.8l-10.6-10.6
				l-13.2-8l-15.8-5.4l-10.6-10.6l-8-10.6l-2.6-10.6V2329l2.6-39.6l-2.6-10.6l-2.6-15.8l-2.6-18.6v-8l2.6-5.2l8-10.6l10.6-10.6
				l5.2-13.2l2.6-18.6l2.6-13.2l2.6-10.6l5.2-8l8-8l21.2-13.2l39.6-18.6l29-10.6l46-13.2h23l8-5.2l5.2-5.2l2.6-2.6l2.6,2.6l5.2,2.6
				h8l13.2-2.6l5.2-2.6l2.6-5.2l5.2-8l2.6-5.4l8-5.2l8-5.2l8-2.6l5.4,2.6l4.2,1.4h7.6l8-2.6l10.2-5.4h13.6l11.8,12l10.6,13.6
				l6.6,3.4l10,6.6l10,3.4l13.4,3.4h13.4l13.4-3.4l13.4-3.4l10-3.4l10-3.4l16.6-10l10-10l6.6-10l6.6-13.4l3.4-10l3.4-10l6.6-6.6
				l6.6-6.6l10-6.6l13.4-6.6l10-10l6.6-6.6l6.6-3.4l10-6.6l3.4-16.6l3.4-10l6.6-10l6.6-10v-16.6v-1.2c-1.2-2.2-3.4-5.4-3.4-5.4
				l3.4-10l6.6-6.6h13.4l10,3.4l13.4,3.4l20.6,3l5.8,5l4.6,4.6l3.2,2.2l13.2,10l10,3.4h36.4l16.6-3.4l10-3.4l13.2-6.6l13.2-6.6
				l10-6.6l10-6.6l10-3.4l13.2-3.4h19.8l9.6,1l10.6,2.6h10.6l10.4-2.6l4-3.6l13.2-6.6l3.2-10l3.4-10l3.2-3.4l6.6-0.6h23.2l10,0.6
				l6.4,1.8l3.4,8v6.6l6.6,6.6l10,3.4h39.8l10,3.4h6.6l13.2,3.4l4.8-2.4l5.2-2.6h5.2l10.6,2.6l2.6,2.6l7.8,7.8l5.2,5.2l7.8,5.2
				l10.4,2.6h7.2l10.6-5.2l10.4-7.8l10.6-5.2l9.8,1.4l10,10l10,6.6l10,10h19.8l3.4-6.6l6.6-3.4h6.6l3.4,6.6l10,6.6l10,6.6l3.4,6.6
				v10l10,3.4l10,3.4h6.6l6.6-3.4l6.6-3.4h3.4l6.6-3.4l3.4-6.6h10l10,3.4h19.8l13.2,6.6l6.6,3.4h16.6l10,3.4l6.6,3.4l3.4,3.4
				l3.4,3.4l6.6,6.6l10,6.6l3.4,10v13.2l3.4,6.6l10,10l3.4,6.6l6.6,6.6l6.6,6.6l3.4,6.6l3.4,3.4l6.6,6.6l6.6,10l3.4,10l6.6,6.6
				l6.6,10l10,10l6.6,6.6l3.4,6.6l3.4,6.6l3.4,6.6l10,6.6l6.6,13.2l6.6,6.6h10l10,3.4h10l6.6,3.4l6.6-3.4h23.2l6.6-3.4l16.6-3.4
				l16.6,3.4l16.6,3.4l19.8,6.6l16.6,6.6l16.6,6.6l10,6.6l13.2,10l13.2,10l13.2,10l3.4,6.6v13.4l3.4,3.2h3l3.6-3.4l3.4-3.4l10-3.4
				h23.2l6.6-3.4l6.6-3.4l6.6-6.6l10-6.6h3.4l3.4,3.4l3.4,3.4l6.6,6.6l3.4,3.4l6.6,6.6v3.8l-10,9l-6.6,6.6l-6.6,10l3.4,6.6h12.8
				l13.6,3.4l10,6.6l6.6,3.4l6.6,3.4l10,6.6l6.6,3.4l6.6,6.6l3.4,3.4l13.2,10l10,6.6l10,6.6l10,6.6l6.6,6.6l6.6,3.4h16.6l10-3.4h6.6
				l10,3.4l10,6.6h45l8,6.6l13.2-3.4l6.6-3.4l10-3.4l6.6-3.4l10-3.4l13.2-10l10-3.4l13.2-3.4h10l10-6.6l6.6-3.4l6.6-3.4l23.2,6.6
				l23.2-16.6l10-13.2v-13.2h19.8l33.2-10l16.6-13.2l13.2-3.4l19.8,29.8l-3.4,19.8l6.6,29.8l6.6,6.6h19.8l13.2-6l13.2-14l10-13.2
				l10-3.4l23.2-10l16.6-16.6l-10-26.6v-13.2l3.4-10v-6.6l-3.4-10v-6.6l3.4-16.6l3.4-10l6.6-10l3.4-10l3.4-10v-6.6l-6.6-6.6
				l-3.4-3.4v-3.4l3.4-3.4l3.4-3.4l3.4-3.4l6.6-3.4l10-3.4l10,3.4l10,10l3.4,16.6v6.6l-3.4,10l-6.6,6.6l-3.4,6.6v6.6l10,3.4l10,6.6
				l13.2,13.2l13.2,10l16.6,6.6l19.8,6.6l19.8,3.4h26.6l10,13.2l13.2,10l10,3.4l16.6-3.4l16.6-6.6l16.6-3.4l23.2-6.6h49.6l13.2-10
				l3.4-13.2l-3.4-16.6l-6.6-13.2l-6.6-16.6v-23.2l-3.4-19.8l-3.4-19.8v-26.6l-3.4-26.6v-26l-5.8-26.4l-3.4-29.8l-3.4-16.6v-19.8
				l3.4-13.2l10-10l23.2-29.8l19.8-23.2l39.8-46.4l16.6-19.8l13.2-10l13.2-6.6h13.2l16.6,3.4l13.2,3.4l16.6,3.4l13.2,3.4h36.4
				l13.2-3.4l16.6-3.4l23.2-6.6l23.2-6.6l23.2-3.4l26.6-3.4h29.8l9.4-2.4l15.8-7.8l18.4-7.8l21-7.8l15.8-5.2l18.4-10.6l10.6-5.2
				l5.4-1.4h6.4l39.4,5.2l34,10.6l26.2,10.6l21,15.8l18.4,26.2l13.2,34.2l13.2,52.4l5.2,15.8l5.2,13.2l10.6,26.2l16,32.8l12.8,19.6
				l15,17.2l6,1.2h7.8l10.4-7.8l8-8l2.6-13.2l2.6-7.8l5.2-5.2l7.8-2.6h7.8l7.8,5.2l3.8,7.8l4.2,7.8l5.2,7.8l10.6,15.8l7.8,15.8
				l2.6,2.6h3l2.2-2.6l7.8-7.8l10.6-15.8l7.8-7.8l7.8-5.2l13.2-7.8l7.4-2.6h8.2l10.6,2.6l10.6,5.2l13.2,7.8l13.2,7.8l26.2,10.6
				l30.4,5.2h14.2l10.4,2.6l7.8,5.2l15.8,15.8l18.4,18.4l7.8,13.2l5.2,5.2l7.8,13.2l5.2,5.2l10.6,13.2l13.2,18.4l10.6,18.4
				l13.2,13.2l7.8,5.2l13.2,5.2l23.6,13.2l15.8,5.2l23.6,5.2l6,6.4l4.6,11.6l6.6,9.2l8,16l18.4,37.2l18.6,37.2l8,5.4l16,8l23.8,10.6
				l13.2,5.4l8,8l18.6,8h18.6l13.2-13.2l10.6-18.6l5.4-13.2l-2.6-8l-10.6-10.6l-8-34.4l8-16l18.6-47.8v-10.6l-2.6-18.6l-2.8-13.2
				l-2.6-13.2l2.6-8l8-10.6l10.6-8l16-2.6l10.6,2.6l8,2.6l18.6,5.4h16l18.6-8l10.6-10.6l2.6-8l-5.4-2.6l-2.6-8l2.6-5.4v-2.6
				l-2.6-5.4l2.6-5.4l5.4-2.6l-2.6-5.4l2.6-2.6l8-5.4l10.6-5.4l7-5.8l9.2-1.8l16.8,5.6l16.8,14.8l13,14.8l9.2,11.2l11.2,13l7.4,9.2
				l7.4,5.6l5.6,9.2l9.2,5.6l9.2,7.4l7.4,7.4l7.4,5.6l9.2,3.8l13,7.4l5.4,6.2l10.6,5.4l6.6,6.6l0.2,2.4l-1.6,1.6l-2.6,2.6l2.6,5.4
				l2.6,2.6h5.4l2.6,2.6v5.4l-2.6,5.4l-2.6,8l-2.6,8l-10.6,18.6l-2.6,8l-5.2,2.6l-8,8l-5.4,2.6l-10.6,2.6h-5.4l-10.6,8h-3l-5.2,2.6
				l-13.2,16l-2.6,8v10.6l5.2,5.4l13.2,18.6v2.6l5.4,8l13.2,16l2.6,5.4l2.6,5.4l8,8l10.6,13.2l2.6,13.2l2.6,8l5.4,8l10.6,8h8l8-2.6
				l10.6-2.6l29.2-8h5.2l8,2.6h5.4l2.6-2.6l10.6-10.6h2.6v10.2l2.6,8l-2.6,13.2l-2.6,5.4v2.6l-2.6,2.6h-8l-2.6,2.6l-5.4,2.6
				l-2.6,5.4h-2.6l-8-5.4l-2.6-2.6l-2.6,2.6l-2.6,5.4l-5.2,10.6l-8,5.4h-5.4l-2.6,2.6l2.6,5.4l-2.6,8l-10.6,13.2l-8,5.4l-10.6,13.2
				l-2.6,8v8l5.2,8l-2.6,2.6l-8,16l-2.6,16l-2.6,5.4l-13.2,8v5.4l2.6,10.6l-2.6,5.4v5.4l2.6,5.4l5.2,2.6l2.6,5.4v2.6l2.6,2.6l-8,5.4
				l-8,8v8l-5.2,2.6l-5.2,2.6v5.4l2.6,10.6l-2.6,8l-5.4,8l-5.2,13.2l-5.2,18.6l-8,5.4v5.4l2.6,5.4l5.4,16l10.6,21.2l5.4,8l2.6,5.4
				h5.4l5.2-5.4l10.6-2.6l2.6,5.4v5.4l-2.6,16l-2.6,8l-10.6,21.2l-5.2,2.6h-5.2l-10.6,5.4l-8-2.6l-13.2-8v-8l2.6-5.4l2.6-8v-6
				l-2.6-2.6l-8-5.4h-2.6l-2.6,5.4l-2.6,2.6l-5.2,2.6h-8l-5.2-5.4l2.6-8l2.6-8v-8l-2.6-5.4h-2.6v8h-10.6l-8-5.4h-2.6l-2.6,5.4
				l-2.6,2.6v5.4l2.6,2.6h-8l-5.2,5.4l2.6,2.6l2.6,2.6v5.4l2.6,5.4l2.6,8l-2.6,5.4v2.8l5.4,8l5.2,5.4l2.6,8l5.2,10.6l2.6,2.6h13.2
				l2.6,2.6l8,13.2h16l5.2,5.4l2.6,8v8h10.6l13.2,8v5.4h10.6l8-2.6l13.2,2.6l18.6-13.2h5.2l8-5.4h5.4l10.6-10.6l10.6-5.4l10.6-13.2
				l10.6-2.6h16l10.6-2.6l13.2-5.4l5.2-9.8l2.8-0.8l16-8l16-8l5.4-8l21.2-21.2h2.6l5.4,5.2h5.2l8-2.6h8l2.6-8l10.6-5.4l18.6-5.4
				v-2.6l8-5.4h10.6l5.2-2.6l5.2,5.4h10.6l5.2,2.6l8,8h2.6l5.2-2.6l2.6,2.6l8,8l8,2.6l2.6,2.6v8l5.4,8l8,10.6l2.6,5.4l5.4,8l5.2,2.6
				l5.2,5.4l23.8,23.8l2.6,10.6l2.6,2.6l5.2,8l10.6,23.8l2.6,5.4l-2.6,5.4l2.6,5.4v8l2.6,5.4l10.6,8h2.6l2.6-8l5.2-5.4l8-2.6l8-5.4
				l13.2-8l13.2-13.2l16-10.6l10.6-10.6l8-18.6l5.4-21.2l-1.2-7l-12-24.8l-2.6-5.4l2.6-2.6l8-2.6l5.4-2.6l13.2-8l4.6-2.2l5.6-5.6
				l11.2,7.4l9.2,9.2l7.4,5.6l7.4,1.8l7.4,5.6l13,7.4l18.6,22.2l8.8,5.6l5.6,5.6l5.6,5.6l11.2,9.2l7.4,9.2l5.6,5.6l9.2,7.4l5.6,3.8
				l7.4,11.2l18.6,20.4l7.8,16l2.6,7.6l0.6,2.4l-3.8,3.8h-1.8l-5.6-1.8l-2.8-1.2h-8l-6,6.8h-7.4l-14.8,1.8l-6.2,7.4h-5.2l-2.6,8
				l-5.2,8l-8,16l-2.6,13.2l-5.2,13.2v5.4l5.2,5.4v5.4l2.6,2.6l2.6,8h2.6l2.6,2.6l-2.6,5.4l2.6,8l-2.6,5.4l2.6,8l2.6,2.6l-2.6,5.4
				l2.6,5.4h2.6l2.6-2.6l2.6,2.6v2.6l5.4,8l10.6,13.2l-2.6,2.6v5.4l-2.6,5.4l2.6,2.6h2.6l10.6,10.6v2.6l-2.6,2.6h-2.6l-5.4,5.4v5.4
				l5.4,8l-2.6,5.4l-2.6,13.2l-5.2,2.6l-8-5.4h-5.2l-2.6,5.4l-1.4,7"/>
			<g id="_2019_HKI_Shoreline">
				<polyline class="st4" points="-37.6,2040.4 29.2,2015.4 58.2,2010 92.2,2004 121,1998.4 				"/>
				<polyline class="st5" points="129.6,1996.6 137.4,1995.2 137.4,1992.2 140.8,1988.6 				"/>
				<polyline class="st6" points="151.8,1977.4 165.8,1963.2 213.6,1917.8 303.8,1831.8 				"/>
				<polyline class="st5" points="309.6,1826.4 315.2,1820.8 323.2,1822 				"/>
				<line class="st7" x1="337.2" y1="1824.2" x2="385.8" y2="1832"/>
				<polyline class="st5" points="392.8,1833 400.6,1834.2 399.4,1826.4 				"/>
				<polyline class="st5" points="396,1812.4 393.8,1804.8 385.8,1803.4 				"/>
				<line class="st8" x1="368.4" y1="1800.2" x2="307.4" y2="1789"/>
				<polyline class="st5" points="298.6,1787.4 290.8,1786 293.2,1772 301,1773.4 				"/>
				<polyline class="st9" points="316.4,1776 372.8,1786 386.8,1786 401.2,1782 				"/>
				<polyline class="st5" points="408.8,1779.8 416.4,1777.6 414.4,1770 				"/>
				<polyline class="st5" points="414,1769 411.8,1761.2 421,1758.6 423.2,1766.4 				"/>
				<polyline class="st5" points="423.4,1767.6 425.6,1775.2 433.4,1773 				"/>
				<polyline class="st5" points="441.6,1770.8 449.4,1768.6 445,1753.2 454.2,1750.8 458.4,1766 466.2,1764 				"/>
				<polyline class="st5" points="479,1760.4 486.6,1758.2 483,1745.4 492.2,1742.8 495.8,1755.8 503.4,1753.6 				"/>
				<line class="st10" x1="512" y1="1751.2" x2="524.6" y2="1747.8"/>
				<polyline class="st5" points="528.8,1746.6 536.6,1744.4 532.8,1731 540.4,1728.8 544.2,1742.2 555.4,1739.2 551.8,1726.2 
					559.4,1724 563,1737 570.8,1735 				"/>
				<polyline class="st11" points="586.6,1730.4 597.4,1727.6 616.2,1722.8 798.8,1729.8 968.8,1772.8 976.2,1782.2 1000.4,1811.8 
					1015.2,1815.8 				"/>
				<polyline class="st5" points="1023.2,1818 1031,1820 1033,1812.2 				"/>
				<polyline class="st5" points="1033.4,1810.2 1035.6,1802.6 1034.6,1801 1024.6,1798.8 1024.6,1797.4 1025,1794 1023.6,1793.6 
					1022.8,1796.8 1016,1795 1015.6,1794 				"/>
				<polyline class="st5" points="1014.6,1792.4 1012.8,1789.8 1013.8,1785 1019,1782.2 1019.4,1782.2 1026,1784 1025.6,1787.4 
					1027,1787.4 1028,1784.6 1028.4,1783 1036.2,1785.2 				"/>
				<polyline class="st5" points="1059,1791.4 1066.8,1793.6 1067.6,1792.6 1069.4,1786.2 				"/>
				<polyline class="st5" points="1070.6,1781.8 1072.4,1775 1072,1774.2 1064,1771.8 1064.8,1768.4 1063.4,1768 1062.4,1771.2 
					1059.6,1770.8 1060.6,1767 1059.2,1767 1058.6,1770.4 1051,1768.2 				"/>
				<polyline class="st5" points="1032.4,1763.4 1024.6,1761.4 1021.8,1756.2 1023.2,1751.4 1024.6,1750.4 1032.4,1752.6 				"/>
				<polyline class="st12" points="1045.2,1756 1077.6,1764.6 1090.2,1768.2 				"/>
				<polyline class="st5" points="1096.6,1770 1102.6,1771.8 1103.6,1773.2 1102.2,1778 1099.6,1779.4 				"/>
				<polyline class="st5" points="1099.4,1779.6 1097,1780.8 1091.8,1779.4 1092.8,1775.6 1090.8,1775.6 1090,1778.8 1087.6,1778 
					1088.6,1774.6 1087,1774.2 1086.2,1778 1078,1775.6 1077.2,1776 1075.2,1783.8 				"/>
				<polyline class="st5" points="1074.2,1787.2 1072.4,1794 1073,1795 1083.4,1797.8 1082.8,1799.2 1083.4,1799.6 1082.4,1802.6 
					1083.8,1803 1084.8,1799.6 1091.8,1801.6 1094.6,1806.8 1093.2,1811.6 1088.6,1814.4 1081.4,1812.4 1081.8,1809.6 1081,1809.2 
					1080,1812 1079.6,1812 1079,1813.4 1069,1810.6 1067.6,1811.6 1066,1817.6 				"/>
				<polyline class="st5" points="1065.2,1820.8 1063.2,1828.6 1071,1830.6 				"/>
				<polyline class="st13" points="1090.4,1835.8 1091.4,1836 1110,1836 1118,1843 				"/>
				<polyline class="st5" points="1124.8,1850.2 1128.8,1857.2 1128.8,1857.2 1131.6,1854.8 1134.6,1851.8 				"/>
				<line class="st14" x1="1145" y1="1841.4" x2="1180.6" y2="1804.4"/>
				<polyline class="st5" points="1185.6,1799.2 1191.2,1793.4 1195,1794.4 1192.8,1802 				"/>
				<polyline class="st5" points="1190.4,1810.8 1188.4,1818.4 1200.2,1821.8 1202.6,1826 1210.2,1828 1212.4,1827 1214.6,1819.2 
									"/>
				<polyline class="st5" points="1217.4,1808.6 1219.6,1801 1229,1803.4 1227,1811 				"/>
				<polyline class="st5" points="1224,1821.6 1222,1829.4 1222.4,1829.4 1223.8,1831.6 1231.6,1833.6 				"/>
				<polyline class="st5" points="1237,1835 1244.6,1837 1246.6,1835.4 1248,1830 				"/>
				<polyline class="st5" points="1251.6,1816.4 1253.2,1810.4 1254.6,1809.4 1262.6,1811.8 1263.6,1812.8 1261.6,1820.4 				"/>
				<polyline class="st5" points="1258.6,1831 1256.6,1838.8 1258,1840.2 1263.8,1841.6 				"/>
				<polyline class="st5" points="1274.2,1844.2 1279.2,1845.4 1281.6,1844 1283.6,1836.2 				"/>
				<polyline class="st5" points="1286,1826 1287.8,1819.4 1288.2,1819 1288.6,1819 1288.6,1818.4 1289.2,1818.4 1296.8,1820.8 
					1297.2,1820.8 1297.2,1821.2 1297.6,1821.2 1297.6,1821.8 1295.6,1829 				"/>
				<polyline class="st5" points="1293.2,1838.6 1291,1846.4 1292.4,1848.8 1297.4,1850.2 				"/>
				<polyline class="st5" points="1308,1853.4 1313.2,1854.8 1315.6,1854 1318,1846.2 				"/>
				<polyline class="st5" points="1321,1836.6 1323.2,1829.4 1323.2,1828.8 1323.6,1828.8 1324.2,1828.4 1325.2,1828.8 
					1331.8,1830.6 				"/>
				<polyline class="st5" points="1327.4,1849.2 1325.2,1856.8 1326.6,1858.6 1326,1859.6 1333.6,1862.2 				"/>
				<polyline class="st5" points="1339.4,1864.2 1346.8,1866.8 1347.4,1865.8 1349.2,1864.8 1351,1860.4 				"/>
				<polyline class="st5" points="1355.6,1847.8 1358.2,1840.6 1358.2,1840.2 1358.6,1840.2 1359.2,1840.2 1359.6,1840.2 
					1366.8,1842.6 1367.2,1843 1367.6,1843 1367.6,1843.6 1367.6,1844 1365.2,1850.6 				"/>
				<polyline class="st5" points="1361.6,1860.6 1358.6,1868.2 1360.2,1870.6 1359.6,1871 1367,1874 				"/>
				<polyline class="st5" points="1372.6,1876 1380,1879 1380.4,1878.6 1382.8,1877.2 1384.6,1873 				"/>
				<polyline class="st5" points="1389.8,1860 1392.4,1854 1392.8,1853.4 1393.2,1853 1393.8,1853 1400.6,1856 				"/>
				<polyline class="st5" points="1394.2,1876.2 1392.4,1881 1393.2,1883.8 1392.8,1884.2 1396,1885.6 1400.2,1887.4 				"/>
				<polyline class="st5" points="1404.8,1889.6 1412.2,1892.8 1415.6,1890.8 1417.2,1887 				"/>
				<polyline class="st5" points="1422.4,1874.6 1425.4,1867.2 1435,1871 1431.8,1878.4 				"/>
				<polyline class="st15" points="1428.6,1886.2 1425,1894.6 1426.2,1898 				"/>
				<polyline class="st5" points="1427.8,1901.8 1430.6,1909.4 1438.2,1906.6 				"/>
				<polyline class="st5" points="1449,1903 1453.8,1901.2 1454.8,1901.2 1455.2,1901.2 1456.2,1901.8 1456.6,1901.8 1457.2,1902.2 
					1457.6,1903.2 1458,1903.6 1458,1904.6 1458,1905 1457.6,1906 1457.2,1907 1456.6,1907.4 1455.8,1907.4 1449,1909.8 				"/>
				<polyline class="st5" points="1440,1912.8 1432.6,1915.4 1435.2,1923 				"/>
				<polyline class="st5" points="1437.8,1930.2 1440.6,1937.6 1448.2,1935 				"/>
				<polyline class="st5" points="1458,1931.6 1463.8,1929.6 1464.2,1929.6 1464.6,1929.6 1465.2,1929.6 1465.6,1929.6 
					1466.2,1930.2 1466.6,1930.2 1467,1930.6 1467,1931 1467.6,1931.6 1467.6,1932 1468,1932.6 1468,1933 1468,1933.4 1467.6,1934 
					1467.6,1934.4 1467,1934.8 1466.6,1935.4 1466.2,1935.8 1465.2,1936.2 1462.4,1937.2 				"/>
				<polyline class="st5" points="1450,1941.4 1442.4,1943.8 1445,1951.4 				"/>
				<polyline class="st5" points="1457.4,1968.2 1463.8,1972.2 1464.2,1972.2 1465.2,1976.6 1472.6,1979.6 				"/>
				<polyline class="st16" points="1489.8,1986.4 1514.4,1996.4 1524.4,2000.2 1528.2,2002 1532.4,2003.6 1543.8,2008.2 
					1549,2010.2 1550,2010.4 				"/>
				<polyline class="st5" points="1558.6,2013.6 1566,2016.8 1570.2,2014.4 1573.4,2015 				"/>
				<polyline class="st17" points="1588.2,2018 1596.2,2019.6 1604.8,2020.6 1608,2021 1612.8,2021.4 1620,2022 1623.2,2022.4 
					1627.6,2023 1631.8,2025.4 1637.4,2029.2 1641,2031 1644.8,2032.8 1648.4,2034.8 1654,2036.6 1663,2036.6 1677.6,2037.6 
					1679,2037.6 1697.6,2042.8 1714.6,2047 1724,2048.4 1729.6,2049 1735,2049 1742,2047.6 1748.2,2045.6 1752.4,2043.8 
					1757.6,2041.4 1761.4,2039 1764.2,2035.6 1768,2031 1770,2028 1772.4,2024.4 1772.8,2023 1774.6,2020 1775.2,2018.2 
					1777,2014.8 1778,2012.4 1779.4,2010.2 1780.8,2008.6 1783.6,2005.4 1787,2002.6 1790.2,1999.6 1792.2,1993.8 				"/>
				<polyline class="st5" points="1794.4,1986.6 1797,1978.8 1796.4,1978.8 1796,1978.4 1795.4,1978 1795,1977.4 1794.6,1976.6 
					1794.6,1976 1794.6,1975.6 1794.6,1974.6 1794.6,1974.2 1795,1973.6 1795.4,1973.2 1800.2,1968.6 				"/>
				<polyline class="st18" points="1812.6,1960.4 1815.4,1959 1818.2,1958 1820.6,1957.6 1823.4,1957 1825.8,1956.6 1828.6,1956.6 
					1833.4,1956.6 1836.6,1957 1841.4,1958 1844.6,1959 1847.6,1960 1849.4,1961 1851.4,1961.8 1852.8,1962.4 1854.2,1963.2 
					1862.8,1963.2 				"/>
				<polyline class="st5" points="1870.4,1963.2 1878.4,1963.2 1876,1955.6 				"/>
				<polyline class="st19" points="1879,1943.4 1879.2,1943.4 1880.2,1943.4 1881.2,1943.8 1882,1943.8 1883,1944.4 1884,1945.2 
					1884.4,1945.8 1885,1946.6 1885,1947.2 1885.4,1948.2 1888.6,1960.8 				"/>
				<polyline class="st5" points="1890.4,1967.8 1892.4,1975.6 1888.6,1976.6 1889.2,1977 1889.6,1977.4 1889.6,1978.4 
					1889.6,1979.4 1888.4,1984 				"/>
				<polyline class="st5" points="1888,1985 1885.8,1992.6 1886.4,1993 1886.8,1992.2 1888.6,1992.6 1888.2,1995 1886.4,1994.6 
					1886.4,1994 1885.4,1993.6 1884,1999.2 1885,1999.2 1885,1998.8 1886.8,1999.2 1886.4,2002 1884.4,2001.2 1884.4,2000.2 
					1882,1999.6 1882,2003 1882.4,2007.6 				"/>
				<polyline class="st20" points="1883.4,2023.2 1883.6,2024.4 1884,2025.8 1885,2027.6 1885.8,2029 1886.8,2030.4 1887.8,2031.4 
					1888.6,2032.8 1890.6,2033.8 1892,2034.8 1893.4,2035.6 1894.8,2036.2 1896.8,2036.2 1898.2,2036.2 1902,2036.2 1904.4,2036.2 
					1907.6,2035.6 1931.2,2033.2 				"/>
				<polyline class="st5" points="1939,2032.2 1947,2031.4 1947,2031 1947.4,2030 1948.4,2029 1948.4,2028 1947.8,2024 				"/>
				<polyline class="st5" points="1946.4,2011 1945.4,2003.6 1945.4,2003 1946,2003 1946,2002.6 1946.4,2002.6 1947,2002 
					1954.4,2001.6 1955,2001.6 1955.4,2001.6 1955.4,2002 1956,2002.6 1956.8,2009.8 				"/>
				<polyline class="st5" points="1958.2,2022.6 1958.8,2027.6 1960.6,2030 1966.4,2029 1968.6,2028.8 				"/>
				<polyline class="st21" points="1983.6,2027 1994.6,2025.2 2002.2,2024.4 2014,2022.4 2031.2,2020 2065.4,2014.8 				"/>
				<polyline class="st5" points="2073,2013.6 2080.8,2012.4 2080.2,2013.4 2086.2,2008.2 				"/>
				<line class="st22" x1="2097.2" y1="1998.8" x2="2113.8" y2="1984.6"/>
				<polyline class="st5" points="2119.6,1980.6 2127.6,1979 2131.2,1982.8 2129.4,1990.2 2129.2,1990.4 				"/>
				<line class="st23" x1="2119.4" y1="1999" x2="2104.8" y2="2012"/>
				<polyline class="st5" points="2100,2016.4 2094,2021.8 2094,2025.4 2095.2,2029.6 				"/>
				<polyline class="st5" points="2099.4,2045.6 2101.6,2053.2 2108.8,2050 				"/>
				<line class="st24" x1="2121.4" y1="2044.2" x2="2140.4" y2="2035.6"/>
				<polyline class="st5" points="2146.6,2032.8 2154,2029.4 2154,2021.4 				"/>
				<line class="st25" x1="2154" y1="2009.8" x2="2154" y2="1992.4"/>
				<polyline class="st5" points="2154,1986.4 2154,1978.6 2154,1978.6 2146.2,1976.8 				"/>
				<polyline class="st5" points="2150.4,1969.6 2158.2,1971.4 2164.6,1960.4 2172.4,1958.8 				"/>
				<polyline class="st5" points="2178.2,1957.8 2183.2,1956.8 2186.2,1956.8 2183,1949.4 				"/>
				<path class="st26" d="M2176.4,1934.2l-0.2-0.4c-1.2-1.8-0.6-4.4,1.4-5.4s4.4-0.6,5.4,1.4c0.2,0.4,0.4,0.6,0.4,1l4.8,11.2"/>
				<polyline class="st5" points="2191.6,1949.4 2194.8,1956.8 2202.8,1957 				"/>
				<polyline class="st5" points="2212.6,1953.4 2220.4,1954.8 2224,1962 				"/>
				<polyline class="st27" points="2220,1979.2 2216.6,1993.8 2209.2,2032.8 2209.2,2039.8 				"/>
				<polyline class="st5" points="2209.2,2048.6 2210.2,2056.6 2218,2055.4 				"/>
				<polyline class="st28" points="2231.4,2047.6 2266.4,2022.4 2273.4,2010.8 2287.4,1999 2303.8,1989.6 2322.6,1985 
					2336.6,1982.6 2390.4,1971 2413.2,1962.4 2418,1957.4 2424.6,1949.4 2431.2,1936.2 2432,1930.6 				"/>
				<polyline class="st5" points="2432.6,1922.8 2432.6,1914.8 2425.8,1910.4 				"/>
				<polyline class="st29" points="2422.6,1899.2 2420.8,1886.6 2419.8,1881.8 				"/>
				<polyline class="st5" points="2418.6,1876 2418.6,1875 2418.6,1868 2411.8,1863.6 				"/>
				<path class="st4" d="M2397.6,1853.8l-25-17c-1.8-1.2-2.4-3.8-1-5.6c1.2-1.8,3.8-2.4,5.6-1l14.6,9.8"/>
				<polyline class="st5" points="2399,1844.8 2405.6,1849.2 2410.8,1843.2 				"/>
				<polyline class="st30" points="2420.8,1831.4 2463.6,1781.4 2493,1750.6 2497.8,1746.4 2543.6,1703.2 2544,1703 				"/>
				<polyline class="st5" points="2550,1698 2550.8,1697.6 2552.2,1697 2553.6,1697 2555,1697 2556.4,1697.6 2557.6,1698.2 
					2563.6,1693 				"/>
				<path class="st26" d="M2576.2,1682.2l24.8-21l16.4-11.4l22.8-11.4l21.2-8.2l45.8-11.4l37.6-11.4l8.2-1.6h8.2
					c3.4,0.8,6.6,2,9.8,3.2l42.4-1.4"/>
				<polyline class="st5" points="2821.8,1607.2 2825.2,1607.2 2829.8,1606.2 2826.8,1602.2 2826.8,1599.2 				"/>
				<polyline class="st5" points="2824.6,1584 2823,1576.2 2831.6,1574.4 2833.2,1582.2 				"/>
				<polyline class="st5" points="2837.2,1596.8 2838.2,1599 2837.4,1604.6 2845.2,1602.8 				"/>
				<path class="st5" d="M2859.8,1599.8l7.8-1.6l-1.4-8c-3-1.2-4.4-4.8-3.2-7.8c0.4-0.8,0.8-1.4,1.4-2l-1.4-7.8"/>
				<polyline class="st5" points="2862,1567.2 2860.6,1559.2 2870.2,1557.6 2871.6,1565.4 				"/>
				<path class="st5" d="M2872.6,1570.4l1.4,7.8c1.8,0.8,3.2,2.4,3.8,4.4c0.4,2.2-0.4,4.2-2,5.8l1.4,7.8l7.8-1.6"/>
				<polyline class="st31" points="2904.4,1588 2925,1581 2933.4,1578.8 				"/>
				<polyline class="st5" points="2943.4,1576.4 2951.2,1574.4 2951.2,1567.6 2959.2,1567.6 				"/>
				<polyline class="st5" points="2959.8,1567.6 2967.8,1567.6 2967.8,1573.2 2975.8,1574 				"/>
				<polyline class="st32" points="2991,1579.4 3037.8,1584.2 3059,1587.4 3086.6,1597.4 3114.8,1610.4 3145.8,1620.2 
					3177.2,1632.6 3194.8,1643.2 3212.8,1656.2 3222.6,1662.8 3240.4,1668.4 3249,1668.8 3265.6,1676.4 3283.4,1686.6 
					3416.2,1748.8 3496,1763.6 3514,1766 3569.6,1776.8 3666,1821.8 3721.4,1877.4 				"/>
				<polyline class="st5" points="3727,1883 3732.6,1888.8 3738.6,1894.2 				"/>
				<polyline class="st5" points="3744.2,1899.2 3750,1904.6 3752.4,1903.6 3757.6,1903.6 3763.2,1898 				"/>
				<polyline class="st5" points="3769.2,1891.8 3774.8,1886.2 3783.4,1894.8 3777.8,1900.4 				"/>
				<polyline class="st5" points="3772.4,1905.8 3766.8,1911.4 3766.8,1917.2 3765.8,1919 3771.6,1924.4 				"/>
				<polyline class="st5" points="3776.2,1928.4 3782,1933.8 3782.6,1933.6 3787.8,1933.6 3789.4,1932 				"/>
				<polyline class="st5" points="3799.2,1922.6 3805,1917 3813.4,1925.2 3807.6,1930.8 				"/>
				<polyline class="st5" points="3802.6,1935.6 3796.8,1941 3796.8,1946.6 3796,1948 3798.6,1953 3792.8,1958.6 				"/>
				<line class="st33" x1="3786.2" y1="1965" x2="3776.4" y2="1974.8"/>
				<polyline class="st5" points="3773,1978 3767.4,1983.6 3773,1989.2 				"/>
				<line class="st34" x1="3785.2" y1="2001.4" x2="3803.8" y2="2020"/>
				<polyline class="st5" points="3809.8,2026 3815.6,2031.8 3823.6,2031.8 				"/>
				<polyline class="st35" points="3839.6,2031.6 3963.8,2031.4 3969.4,2028 3989.6,2020.2 				"/>
				<path class="st36" d="M2204,1929.2c0.4,0,0.8,0,1.2-0.2l167.6-50.6c2.2-0.2,3.8-2.4,3.4-4.4s-2.4-3.8-4.4-3.4
					c-0.4,0-0.8,0.2-1.2,0.4l-167.6,50.6c-2,0.8-3.2,3-2.4,5.2C2201,1928,2202.4,1929,2204,1929.2L2204,1929.2z"/>
				<polyline class="st36" points="3828.4,1951.2 3827.4,1951.2 3825.4,1950.8 3814.2,1962.4 3813.8,1962.4 3813.2,1961.4 
					3824.8,1949.8 3824.8,1948.8 3824.8,1948.2 3824.8,1947.2 3827.8,1944.2 3830,1942.2 3832.4,1939.6 3835.4,1936.6 3838.6,1934 
					3840.6,1931.6 3842.6,1929 3846,1925.6 3849.2,1922.6 3852.2,1920 3854.2,1918.4 3856.2,1917.4 3857.2,1917.4 3858.2,1918 
					3859.2,1919 3859.2,1920 3858.6,1921.4 3857.6,1922.6 3856.6,1924 3855.2,1925 3852.2,1928 3849.2,1931 3844,1936.2 
					3839,1940.6 3835.4,1944.2 3832,1948.2 3829.4,1950.2 3828.4,1951.2 				"/>
			</g>
			<g id="_2019_KLN_Shoreline">
				<polygon class="st37" points="3053.2,742.6 2843.4,539 2845,530.8 2868,465.4 2877.8,468.6 3106.6,688.4 				"/>
				<path class="st37" d="M4064,1550l-3.2-5l-1.6-6.6l1.6-1.8l114.6-58.8l8.2-5l-24.6-62.2l-3.2-3.2l-18,1.6l-11.4,1.6l-8.2,1.6
					l-18,9.6l-11,4.8l-20.6-1.6l-14.8-4.4l-21.6,2.8l-23.8,3.6h-24.6l-4.8,9.8h-13.2l0.2-13l-12.8-1.8l-20-12.8l-16.4-13l-11.4-9.8
					l-12.4-21.2l-15.4-29.6l-13-29.4l-17.2-15.8l-72.8-39.8l-9.8-11.4l-81.8-99.8l13.2-11.4l-13.2-2.2l-26.8-21.4l-3.4-4.8
					c0,0.2-0.2,0.2-0.4,0.4c-1.2,1-2.8,1.4-4.4,1l-15.6,15.6l-5.8-5.8l15.6-15.6c-0.4-1.6,0-3.2,1.2-4.4c0.6-0.6,1.6-1,2.4-1.2
					l-2.8-4l-34.2-49.4l-0.4-0.6l-15,11.4l-1.4-2l-49.8,35.6c-0.6,0.4-1.2,0.6-2,0.6c-1.8,0.2-3.4-1.2-3.4-3c0-1.2,0.4-2.4,1.4-3
					l49.8-35.4l-1.4-2l14.6-11l-9.2-17.6l-5.8,4.2l-3.2-4.4l6.2-4.6l-10.8-12.4l-1.6-3.2l-4.8-8.2l-6,5.6l-0.6-0.6l-17-23.4
					l-51.8-63.4l-50.8-59L3369,758l-29.4-27.8l-90,95l-129.8-124.6l-53.2,54.6l80.2,78l11.6,7l127,117.6l8.8,6.4l15.8,8.2l9.8,1.6
					l18-18l74.8,73.8l3.8,11.2l-3.8,35.2l0.4,4l70.8,73.4v11.8l-55.6,58.6H3416l-59.8-60.8h-12.8l-35.2-35.2l-23.4-30.4l-594.6-576
					l-26.6,13.8l-41.6,91l4.6,5l18,8.4l-3.4,7.4l-18.8-8.8h-5.8l-50.2,109.8v12l-5.6,13l-13.2,5.6l-6.4-1.6l-5.8,148.2l-0.8,4h16.4
					v14.8h-16.2l-0.2,7.4l26.4,23.2l45.8,38.2l4.8,5l-15.6,73l-23.6,108.6l6.6,23l5,18l-55.6,39.2l-14.4-1l-6.4-5.4l-8.8,19.6
					l-13.2,5l3.2,6.6l-21.2,9.8l-3.6-5.8l-13,5.6l-9.6,5.2l1.6,8.2l1.6,5l6.6,13l-8.2,5l-6.6-13.2l-1.6-5l-4.8-8.2l-178.4,80.2
					l-14.8-32.8l-29.2-0.2l-0.4,73.8l-27.4,17.4l-11.8-15.8l21.2-13v-47.4l-18.8,7.6l-11.2-3.6l-40.8-1.8l-136,121.2l-12.6,15.8
					l-3.2,5l-13.6,38.2l-5.6,7.8l-0.6,3l-8.2,8.2l-36,44.2l-60.6,5l-16.4-13l-69.2,5.6l-1.2,2.6l-23,1.6l-29.4,3.2l-6.4-20l-10-1.4
					h-6.6l-0.2-0.2l-12.6,17.8c-0.6,0.8-1.6,1.4-2.6,1.4c-0.6,0-1.4-0.2-1.8-0.6c-1.4-1-1.8-3-0.8-4.6l0,0l13.4-18.8L1662,1596
					l-0.8,0.6l-14.6,18c-0.6,0.8-1.6,1.2-2.6,1.2c-0.8,0-1.4-0.2-2-0.8c-1.4-1.2-1.6-3.2-0.4-4.6l0,0l14.2-17.4l3-6.8l6.6-6.6l-5-23
					l-136,27.8l-5-29l118.2-25l1.6-6.4l1.6-6.6l3.2-1.6h4.2l3.2,1.8l-5.8-23.2l-6.6-32.8l-61.2,12.4h-0.6c-2,0-3.8-1.6-3.8-3.6
					c0-1.8,1.2-3.4,3-3.8l49.6-10v-6.6l9.8-3.2l-5-19.6c-10,2-76.2,13.6-76.2,13.6c-0.2,0-0.4,0-0.8,0c-2,0-3.8-1.6-3.8-3.8
					c0-1.8,1.2-3.4,3-3.8c0,0,65.8-14.2,76-16.2l-5-32.8l-93.6,20.6c-0.4,0-0.8,0.2-1.4,0.2c-3.4,0-6.4-2.8-6.4-6.2
					c0-3,2.2-5.6,5-6.2l76.6-14.8v-7.8l6.6-1.6l-6.8-16.4l-5.2-21l-1.8-14.8l-14.4,1.6l-18,12.6l-2.8-4l14-9.8l-2-0.4l-9.6,3.4
					l-3.2-1.6l-32.8,3.2l-30.8,4l-0.2,2.6l-70.4,9.8l-18,1.6l-5-1.6l-25.8,2.8v15.2h4v8.2h-16.4v-8.2h4v-14.4l-18.4,4.6l-39.2,14.8
					l-25.6,24.4l-7.4,18.6l-3,2.8l-5,1.6l-7-0.8h-92.8l-14.8-11l-9.2-9.2l-7.6-14.4l-2.8-6.6v-50.2l-0.4-6.6l0.4-5.6l-0.4-12.8
					l0.4-10l0.4-8l2-8.6l2.8-8.2l5-6.6l1.6-1.6l3.2-3.2l5-3.2l0.4-1.2v-56c0-8-4.6-11.2-8.2-13.6l-0.6-0.4c-4.2-3-14.8-5.4-18.4-6
					c-1.6-0.2-2.6-1.8-2.4-3.4s1.8-2.6,3.4-2.4c0.6,0,14.6,2.6,20.8,7l0.4,0.4c4,2.8,10.6,7.4,10.6,18.4v29.8l80-0.4l101.8-145.4
					L1344,728l-20.6-49l-160.2-1l1.6,39.2c0,1.8-1.4,3.4-3.2,3.4l0,0h-0.2c-1.8,0-3.2-1.4-3.2-3.2l-1.6-41c0-1.8,1.4-3.4,3.2-3.4
					h0.2l-1.4-121v-45l-29.4-50.2l-16.4-13.6l-38.8,47h-1l-19-15.6l-0.4-1.4l39.2-46.8l-26.6-21.8l-13.8,17l-2.8-2.4l13.8-17
					l-16.6-13.8L1033,405l-2.8-2.4L1044,386l-19.4-16.6l-5.2,6.2l-2.4-2l4.6-6l-33.2-27.4l-16,19.4l-5.6-4.8l16-19.4l-29-25.4
					l-16.4,19.6l-6.6-5l16.4-19.6l-18-14.8l-9.8-8.2l-21.2-13l-10.8-7.6l-27-17l0,0L824,224l-34-23.8l-16.4-8.2l-8.8,13.8l12,7
					l-1,1.6l-12-7l-2.8,4.4l12.2,8.2l-1,1.6l-12.2-8.2l-3.8,6.2l10.6,7L766,228l-10.4-7l-13.8,21.6l13,8.6l-1,1.6l-13-8.6l-2.6,4.2
					l11.8,7.8l-1,1.6l-11.6-7.8l-2.4,3.8l-0.2,0.2l5.8,3.8l-1,1.6l-5.6-3.8l-3.2,5.2l5.2,3.6l-1,1.6l-5.2-3.4l-13.2,21.6l23.4,14.6
					l-1.4,2.8l-28.2-17.2l4.6-6.8l-62-39.4L624,285l27.6,15l17,10l0.4-0.4h2.4l63,38.2l4.6,3c1.6,0.8,2.2,2.8,1.2,4.4
					s-2.8,2.2-4.4,1.2c-0.2,0-0.2-0.2-0.4-0.2l-6.8-4.6l-3.2,2l11,8l-1.4,1.8l-11.8-8.6l-5.8,3.6l10.2,10.2l-2,2L714.8,360
					l-11.4,7.2l16.6,16.6l-2,2L701.2,369l-10.6,8.4l16.4,16.4l-2.4,2.4L688,379.4l-1,0.8l-12.4,12.2l8.8,8.8l-1.6,1.6L673,394
					l-11.6,11.4l9,9l-1.6,1.6l-9-9l-6.6,6.6l7,7l-1.6,1.6l-7-7l-2,2l10.8,13.2l10.4,8.4v0.4l1,1l17.4-17.4h0.4l1,1v0.4l-17,17.4
					l10.4,12l10.8-10.8l7.2,7.2l-10.8,10.8l2.4,2.8l9-9V454h0.4v0.4l1,1h0.4v0.6H704l-9,9l7.8,7.6l8.2-8.4l2,2l-8.2,8.4l14.8,14.4
					l22.6-22.6L719,443.2l2.4-2.8l17,17l1.8-1.8l6.2,6.6l2.8-1.6l-6.6-6.6l1.6-1.6l6.6,6.6l16.4-18l-4.8-5.2l0.6-0.6L746.8,419
					l2.4-2.4l16.2,16.2l16.8-16.8l-3.6-2.8l6.6-6.6l3.2,3.2l4.6-4.6l-9.2-6.8l2.2-3l9.6,7l5.8-5.8l-1.6-1.6l-0.2-0.2l-26.2-16.6
					c-1.4-1-1.8-3.2-0.8-4.6s2.8-1.8,4.2-1l17.2,11h7.2l3.2-1.6l3.2-1.6l3.2,1.6l1.6,3.2l5,3.2l6.6,6.6l6.6,4.8l13.4,10h1l1-0.4h1.4
					l0.4,0.4h1l1,0.4h0.4l1,1l0.4,0.4l0.4,0.4l0.4,0.4l0.4,1v0.4l0.4,1v1l0.8,1.4l5.8,1.4l6.6,9.4l4.8,12.6l4,7.8l8.6,12.8L887,477
					v14.2l-9.4,8l-11.2,2l-18,4.8l-14.8,8.2l-18,14.8l-13,13l-7.2,9.2l-3.2,8l-1,7.2l-5,5L774.8,583l-4.8,11v10.8l1.6,9.8l4.8,8
					l6.4,4.8l-2.6,7.4l-10,3.8l-7,6.2l-4,9.4l-4,5.6l6.6,6.6l-14.6,16l-6.8-6.2L720,694l-3.2,12.6l3.2,8l-11,14.2l-3.2,11l-3.2,12.6
					l-4.6,4.8l-6.4-3.2l-8-4.8l-9.4-8l-9.6-14.2l-3.2-12.6l-9.4-7.8l-12.6-4.8l-11-1.6L622,694l-3.2-17.4v-11.4l0.6-6.8l-2.6-5.8
					l-13.2-12.2h-27.8l-6.2-2.2l-9.2-3.8l-7.2-6.4l-5.8,0.8l-5.6-1.8l-14.8,1.8v5.6l14.4,94.2l3,19.6v1.4l-0.4,1l-1,1l-104.8,19.8
					l-2.8,0.4l-1-0.4l-1-0.4l-0.4-2l-10,2l-0.4-3.8L533,746.4l-2.8-14.4l-28.4-128l-3.2-6.4l-135.2,24v0.2l28.8,153
					c0.6,3.2-0.8,6.6-3.6,8.4l3.4,17.6c0.6,3.2-1.4,6-4.6,6.6c-0.4,0-0.8,0-1,0c-2.8,0-5.2-2-5.6-4.6L355,666l-75-37h-7.4l-9.2,5.6
					l-38.6,8.6l-7.2,4l-4.8,1.6h-3.2l-5.4-3L-82,490l1.6-6.6v-9.8l-5-18l13.2-19.6l14.8-14.8l14.8-18l-1.6-8.2L432,244.6L396,135
					l-13.2-6.6l-275,86.6L18-71.2l198-62.2L183.2-238l-198,62l-132.6-420.4L-311-545.6l-3.2-9.8l4.8-1.6l-1.6-5l-11.4-37.6
					l-9.8-19.6l-16.4-49l-1.6-6.6l3.2-3.2l-9.8-31l-8.2-5l-4.8-13l-11.8-21.6l2-9.4l11-12.8l15.2-5.2h4.8l3.2,8.2l-1.6,6.6l6.6,11.4
					l4.4,15.2l3.8,2.8l4.8-3.2l6.6,6.6l1.6,5l-3.2,3.2l3,2.8l0.4,0.4l21-4.6l17.6-117.6"/>
				<path class="st37" d="M1187.6,1113.2L1187.6,1113.2c-12.2-0.4-23-7.8-27.4-19c-2.4-5.4-3.6-11.2-3.8-17v-283
					c0-14.8-26.2-18-26.4-18c-1.8-0.2-3-1.8-2.8-3.6s1.8-3,3.6-2.8c1.4,0.2,32.2,3.8,32.2,24.6v283c0,1.2,0.4,28,24.8,29.4
					c1.8,0.2,3.2,1.8,3,3.6C1190.6,1112,1189.4,1113.2,1187.6,1113.2L1187.6,1113.2z"/>
				
					<rect x="1564" y="1341.3" transform="matrix(0.9913 -0.1314 0.1314 0.9913 -164.0925 217.564)" class="st37" width="5" height="21.6"/>
				<path class="st37" d="M2711.6,895.6c-0.8,0-1.6-0.4-2-1l-70.4-108c-1-1-0.8-2.6,0.2-3.4c1-1,2.6-0.8,3.4,0.2
					c0.2,0.2,0.4,0.4,0.4,0.6l70.4,108c0.8,1.2,0.4,2.6-0.8,3.4C2712.6,895.6,2712.2,895.6,2711.6,895.6z"/>
				<path class="st37" d="M2710.8,963.6c-1.4,0-2.4-1-2.4-2.4c0-1,0.6-1.8,1.4-2.2l171.8-90c1.2-0.6,2.6,0,3.2,1.4
					c0.4,1.2,0,2.4-1,3l-171.8,90C2711.6,963.4,2711.2,963.6,2710.8,963.6z"/>
				<path class="st37" d="M3526.6,1149c-13.6,0-31.2-4.8-33.8-5.6c-1.8-0.4-2.8-2.4-2.2-4s2.4-2.8,4-2.2c12.8,3.6,35.2,7.8,41.4,3.6
					c9.6-6.4,37.2-27.4,37.4-27.6c1.4-1.2,3.4-0.8,4.6,0.6c1.2,1.4,0.8,3.4-0.6,4.6l0,0c-1.2,0.8-28,21.4-37.8,28
					C3536.6,1148.2,3532,1149,3526.6,1149z"/>
				<polyline class="st5" points="1043,1823.2 1035.2,1821.2 1037.6,1813.4 				"/>
				<polyline class="st5" points="1038.4,1810.4 1040.2,1804 1041.2,1803 1049,1805 				"/>
				<polyline class="st5" points="1056.4,1807 1062.4,1808.6 1063.4,1810 1061.4,1817.8 				"/>
				<polyline class="st5" points="1061,1819.6 1058.8,1827.4 1051.2,1825.4 				"/>
			</g>
		</g>
	</g>
</g>
<g class="st38">
	<g class="st39">
		<path d="M1851.8,1494.8l-3.2-9.6l-6.4-16.2l-6.4-9.6h-22.6l-9.6,3.2h-42l-13,6.4l-16.2,3.2l-13,13l-3.2,13l-13,6.4l-3.2,13
			l-6.4,9.6h-6.4l-6.4-6.4v-8.8l-3.2-13.8l-3.2-9.6V1476l-3.2-7l-3.2-13l-6.4-13l-3.2-6.4l-3.2-13l-3.2-22.6l6.4-13v-29l-3.2-13
			l-6.4-13l-6.4-13v-13.4v-18l-3.2-23.6l-3.2-19.4V1228l3.2-18l3.2-19.4l-3.2-13l-3.2-16.4l-6.4-9.4l-6.4-3.2l-13-3.2l-6.4-9.6
			l-3.2-6.4v-23.2l3.2-9l3.2-9.6l6.4-6.4l16.2-6.4l6.4-3.2l9.6-22.6l6.4-16.2l-76.4-20.6l-18.4,73.8l-7.8,31.6l-8,5.2v2.6l8,10.6
			h5.2l4.6,9.2l-6.2,3.4l-7.2,7.6l-3,6l-2.6,15h-6.2l-4,28.4l4.6,0.8l6.6,1l7.2-43.2l2.2-4.2l5.8-6.2l5.4-2.6l0.2,0.4l8,2.6h8l2.6,8
			l21,71.2v5.2l-8,42.2v8l2.4,19.8l1,7.6l1.8,14.8l5.2,21l7.4,16.4l-6.6,1.6v8.2l-76.6,14.8c-3,0.6-5.2,3.2-5,6.2
			c0,3.4,2.8,6.2,6.4,6.2c0.4,0,0.8,0,1.4-0.2l93.6-20.6l5,32.8c-10.2,2-76,16.2-76,16.2c-1.8,0.4-3,1.8-3,3.8s1.8,3.8,3.8,3.8
			c0.2,0,0.4,0,0.8,0c0,0,66.2-11.6,76.2-13.6l5,19.6l-9.8,3.2v6.6l-49.6,10c-1.8,0.4-3.2,2-3,3.8c0,2,1.8,3.8,3.8,3.6h0.6
			l61.2-12.6l6.6,32.8l8.2,32.8l6.6,29.4l5,23l-6.6,6.6l8.4,11l10.6,5.2l13.2,2.6h15.8l203-18.4l-15.8,15.8l5.2,5.2l39.6-39.6
			l-5.2-5.2l15.8-47.4l-8-2.6v-8l23.8-92.2l31.6-50l55.2-202.8l55.4-58l50,31.6l7.8-10.6l-5.2-2.6v-2.6l15.8-15.8l5.2-2.6l5.2-8
			l19.4,28l10.6,5.2v5.2l2.6,5.2h2.6l2.6-5.2h2.8l2.6,5.2l83.4,22l29,18.4l7.8,10.6l25.6,18l40.2,24.2l21,15.8l5.2,2.6l40.6-71l-4-4
			l-6.4-13l-3.2-6.4h-6.4l-9.6-3.2l-9.6-6.4l-3.2-9.6v-13l-6.4-6.4l-13-6.4l-9.6-9.6l-6.4-6.4l-9.6-6.4l-13-3.2c0,0-9.6-3.2-9.6-6.4
			s-3.2-9.6-3.2-9.6v-12l-9.6-10.6l-6.4-9.6l-9.6-6.4l-6.4-9.6l-9.6-6.4l-9.6-3.2l-13-3.2l-16.2-6.4l-23.2,18.4c0,0-13-3.2-16.2-6.4
			c-4.2-3.4-8.4-6.8-13-9.6l-6.4-13l-3.2-3.2h-9.6l-6.4,3.2l-6.4,6.4l-16.2,6.4l-15.6-24.8l-29,6.4l-9.6,3.2l-6.4,3.2l-3.2,9.6v5.4
			l-6.4,4.2l-9.6,6.4l-9.6,6.4l-6.4,6.4l-6.4,9.6l-9.6,6.4l-13,16.2l-9.6,9.6l-6.4,16.2l-6.4,22.6l-6.4,25.8l-3.2,22.6l-6.4,32.4
			l-13,19.4l-6.4,9.6l-12,2.8l-9.6-6.2l-9.6-3.2l-6.4,6.4l-6.4,29l-9.6,32.2l-6.4,22.6l-9.6,22.6l-6.4,16.2l-6.4,22.6l-6.4,25.8
			l-3.2,22.6l-3.2,13l6.4,19.4l6.4,9.6v19.4l-6.4,16.2l-13,19.4l-16.2,16.2h-16.2l-6.4-9.6v-7.6L1851.8,1494.8z"/>
		<polygon points="1364,415.6 1326,417 1326,528.6 1403.2,555.2 1416.6,542 1433.2,525.2 1433.2,518.6 1436.4,508.6 1439.8,502 
			1446.4,502 1446.4,512 1449.8,518.6 1456.4,522 1476.4,525.4 1483,522 1489.6,515.2 1489.6,498.6 1509.6,385.4 1606.2,385.4 
			1619.6,458.6 1589.6,498.6 1583,515.2 1573,525.2 1553,551.8 1556.6,587.8 1625.2,948.8 1680.4,938.2 1703.2,935.6 1706.4,926 
			1706.4,913.2 1713,906.6 1713,890.6 1700,880.8 1687,867.8 1680.6,864.6 1683.8,848.4 1690.2,835.6 1693.6,822.6 1693.6,816.2 
			1687,809.6 1683.8,793.6 1674.2,780.6 1671,771 1661.2,767.6 1658,764.4 1648.2,758 1648.2,748.4 1645,745.2 1648.2,732.2 
			1654.8,729 1661.2,725.8 1664.4,722.4 1664.4,712.8 1661.2,706.4 1661.2,696.6 1658,690.2 1654.8,680.4 1654.8,670.8 1648.2,661 
			1641.8,657.8 1632.2,651.4 1625.6,645 1625.6,609.4 1619.4,595.8 1619.4,591.8 1616,583.6 1612.8,570.6 1612.8,506 1609.6,496.4 
			1609.6,486.6 1616,480.2 1622.4,470.4 1632.2,451 1632.2,438.2 1629,428.4 1632.2,418.8 1632.2,373.6 1619.4,363.8 1599.8,360.6 
			1577.2,354.2 1545,347.6 1506.2,344.4 1483.6,347.6 1480.2,354.2 1480.2,373.6 1477,386.4 1470.6,402.6 1467.4,418.8 
			1464.2,441.4 1461,464 1454.4,473.6 1438.4,486.6 1435,496.4 1431.8,512.4 1419,528.6 1406,541.6 1393,535 1380.2,515.6 
			1370.4,506 1364,496.4 1360.8,486.6 1367.2,444.6 		"/>
		<polygon points="2431.2,898.2 2407.6,843.4 2407.6,809.2 2418,782.8 2423.4,782.8 2441.8,746 2407.6,727.6 2397,725 2377,715.8 
			2375.2,735.4 2375.2,824.8 2381.6,845.2 2394.6,867.8 2410.6,880.8 2423.4,898.8 2433.4,919.6 2433.4,932.4 2436.6,939 
			2446.2,948.6 2465.6,951.8 2484,959.4 2505.2,970 2523.6,980.4 2534,991 2540.2,998.8 2544.6,991 2518.2,970 		"/>
	</g>
	<g class="st39">
		<polygon points="1565.4,1363.2 1570.2,1362.4 1567.4,1341.2 1562.6,1341.8 		"/>
		<path d="M1364,415.6l9.6-32.4l-28,2.4l-3.4-31h-78.8L1093,426.4l-39.2,46.8l0.4,1.4l19,15.6h1l38.8-46.8l16.4,13.6l29.4,50.2V552
			l1.4,121h-0.2c-1.8,0-3.2,1.6-3.2,3.4l1.6,41c0,1.8,1.6,3.2,3.2,3.2h0.2l0,0c1.8,0,3.2-1.6,3.2-3.4l-1.6-39.2l160.2,1l20.4,49
			l0.6,340.2l-101.8,145.4l-80,0.4v-30.4c0-10.8-6.6-15.6-10.6-18.4l-0.4-0.4c-6.2-4.4-20.2-7-20.8-7c-1.6-0.2-3,0.8-3.4,2.4
			c-0.2,1.6,0.8,3,2.4,3.4c3.6,0.6,14.2,3,18.4,6l0.6,0.4c3.6,2.6,8.2,5.6,8.2,13.6v56l-0.4,1.2l-5,3.2l-3.2,3.2l-1.6,1.6l-5,6.6
			l-2.8,8.2l-2,8.6l-0.4,8l-0.4,10l0.4,12.8l-0.4,5.6l0.4,6.6v50.2l2.8,6.6l7.6,14.4l9.2,9.2l14.8,11h92.8l7,0.8l5-1.6l3-2.8
			l7.4-18.6l25.6-24.4l39.2-14.8l18.4-4.6v14.4h-4v8.2h16.4v-8.2h-4v-15.2l25.8-2.8l5,1.6l18-1.6l70.4-9.8l0.2-2.6l30.8-4l32.8-3.2
			l3.2,1.6l9.6-3.2l2,0.4l-14,9.8l2.8,4l18-12.6l14.4-1.6l-1-7.6l-2.4-19.8v-8l8-42.2v-5.2l-9-30.2l-25.8,6.8l-1.4-5.4l25.6-6.6
			l-10.2-35.6l-2.6-8h-8l-8-2.6l-0.2-0.4l-5.4,2.6l-5.8,6.2l-2.2,4.2l-7.2,43.2l-3.2,25l0.4,1.6l23.4,50.6l-6,2.8l-23.8-51l-0.8-3.4
			l3.4-26.4l-4.6-0.8l4-28.4h5.6l2.6-15l3-6l7.2-7.6l6.2-3.4l-4.8-9.2h-5.4l-8-10.6v-2.6l8-5.2l26.4-105.4l42,11.2l10.6-45.4
			l-2.6-29l-51-269l-118.8-81.8l-15.8,1.6l-10.6,2.6l-31.6,13.2l-36.8,15.8l-2.6,5.2h-2.6l-29,10V417L1364,415.6z"/>
		<path d="M1131,769.8c-1.8-0.2-3.4,1-3.6,2.8s1,3.4,2.8,3.6c0.2,0,26.4,3.2,26.4,18v283c0.2,5.8,1.4,11.6,3.8,17
			c4.4,11.2,15.2,18.6,27.2,19h0.2c1.6,0,3-1.4,3.2-3c0.2-1.8-1.2-3.4-3-3.6c-24.4-1.4-24.8-28.2-24.8-29.4v-283
			C1163.2,773.6,1132.2,769.8,1131,769.8z"/>
		<polygon points="2460.4,1252 2441.8,1246.6 2436.6,1244 2415.6,1228.2 2375.2,1204 2349.6,1186 2341.8,1175.4 2312.8,1157 
			2242.2,1138.4 2203.2,1193.8 2207.4,1371.6 2236.4,1371.8 2251.2,1404.4 2418,1329.2 2429.4,1324.4 2434.4,1332.6 2436,1337.4 
			2442.6,1350.6 2450.8,1345.6 2444.2,1332.6 2442.6,1327.6 2441,1319.4 2450.6,1314.2 2463.6,1308.6 2467.2,1314.6 2488.4,1304.6 
			2485,1298.2 2498.2,1293.2 2507,1273.8 2499.8,1267.8 		"/>
	</g>
	<g class="st39">
		<polygon points="1651.6,1032.6 1658,1016.6 1661.2,1007 1671,997.2 1683.8,994 1693.6,984.2 1700,971.2 1703.4,961.6 
			1703.4,948.6 1703.2,935.8 1680.4,938.4 1625.2,948.8 1627.8,977.8 1617,1023.4 		"/>
		<path d="M1662,1629.4c-1,1.4-0.6,3.6,0.8,4.6c0.6,0.4,1.2,0.6,1.8,0.6c1,0,2-0.4,2.6-1.4l12.6-17.8l0.2,0.2l6.6,0.2l-19.4-18.4
			l-8.4-11l-3,6.8l-14.2,17.4l0,0c-1.2,1.4-1,3.4,0.4,4.6c0.6,0.4,1.2,0.8,2,0.8c1,0,2-0.4,2.6-1.2l14.6-18l0.8-0.6l13.2,14.6
			L1662,1629.4L1662,1629.4z"/>
		<polygon points="1439.8,502 1436.4,508.6 1433,518.6 1433,525.2 1416.4,541.8 1403.2,555.2 1326,528.6 1326,556.8 1363,568 
			1368.2,573.2 1370.8,578.6 1368.2,612.8 1365.6,618 1355,626 1355,636.6 1357.6,636.6 1360.4,631.4 1397.2,615.6 1428.8,602.4 
			1439.4,599.8 1556.6,587.8 1553,551.8 1573,525.2 1583,515.2 1589.6,498.8 1619.6,458.8 1606.2,385.6 1509.8,385.6 1489.8,498.6 
			1489.8,515.4 1483,522 1476.4,525.2 1456.4,522 1449.8,518.6 1446.4,512 1446.4,502 		"/>
		<polygon points="1534.8,1206.6 1531.4,1233 1532.4,1236.4 1556,1287.4 1562,1284.6 1538.6,1234.2 1538.2,1232.6 1541.4,1207.6 		
			"/>
		<polygon points="2560.4,975.4 2544.6,991.2 2540.2,998.8 2544.6,1004.4 2547.2,1012.2 2555.2,1020.2 2557.8,1028.2 2559.4,1034.2 
			2559.4,1039.4 2546.4,1052.4 2536.8,1075 2534,1104.8 2521,1120.6 2518.2,1139 2523.6,1152.2 2531.6,1165.4 2531.6,1178.4 
			2529,1189 2523.6,1194.2 2521.2,1195.8 2513.8,1195 2504.6,1188.2 2491.6,1181.6 2485.2,1178.4 2482.8,1176 2463.4,1209.8 
			2442,1247 2460.4,1252.2 2500,1268 2515.8,1233.8 2518.4,1233.8 2525.4,1239 2529,1239 2534.2,1231 2534.2,1228.4 2529,1223.2 
			2534.2,1215.2 2534.2,1210 2534.4,1195.6 2550,1162.6 2531.6,1152 2529,1149.4 2534.2,1125.6 2539.4,1107.2 2542.2,1099.2 
			2544.8,1091.2 2550,1083.2 2579,1088.6 2595.4,1091.4 2611,1018.4 2606.2,1013.6 		"/>
	</g>
	<g class="st39">
		<polygon points="1455.2,598.2 1574,680 1556.6,587.8 		"/>
		<polygon points="1565.2,1204.6 1566.6,1210 1592.4,1203.4 1590.8,1198 		"/>
		<polygon points="1365.6,618.2 1368.2,613 1370.8,578.6 1368.2,573.4 1363,568.2 1326,556.8 1326,646.8 1355,636.8 1355,626.2 		
			"/>
		<polygon points="1524.6,1584.4 1660.6,1556.6 1654,1527.2 1651.6,1517.6 1648.4,1515.8 1644.2,1515.8 1641,1517.4 1639.2,1524 
			1637.8,1530.2 1519.6,1555.4 		"/>
		<polygon points="2550,1083.2 2544.8,1091.2 2539.4,1107 2534.2,1125.4 2528.8,1149 2531.6,1151.6 2550,1162.2 2534.4,1195.4 
			2534.2,1215 2528.8,1223 2534.2,1228.2 2534.2,1230.8 2528.8,1238.8 2525.4,1238.8 2518.4,1233.4 2515.8,1233.4 2499.8,1267.8 
			2513.4,1279.2 2527.6,1280.2 2583.4,1240.8 2578.4,1222.8 2571.8,1200 2589.8,1117.4 2595.4,1091.2 2579,1088.4 		"/>
		<path d="M1706.8,1605H1691l-13.2-2.6l-10.6-5.2l19.4,18.4l10,1.4l6.4,20l29.4-3.2l23-1.6l1.2-2.8l69.2-5.6l16.4,13l60.6-5l36-44.2
			l8.2-8.2l0.6-3l5.6-7.8l13.6-38.2l3.2-5l8.2-9.8l4.4-6l136-121.2l40.8,1.8l11.2,3.6l18.8-7.6v47.8l-21.2,13l11.8,15.8l27.4-17.4
			l0.4-38.4v-33.4l-4.2-180l39-55.4l-12.8-3.4c0,0-2.4-6-2.6-5.2s-2.6,0-2.6,0l-2.6,5.2h-2.6l-2.6-5.2v-5.2l-10.6-5.2l-19.4-28
			l-5.2,8l-5.2,2.6l-15.8,15.8v2.6l5.2,2.6l-7.8,10.6l-50-31.6l-55.4,58l-55.4,203l-31.6,50l-23.8,92.2v8l8,2.6L1934,1563l5.2,5.2
			l-39.6,39.6l-5.2-5.2l15.8-15.8L1706.8,1605z"/>
		<polygon points="2540.8,777.8 2539.8,777.6 2441.8,746 2423.4,782.8 2418.2,782.8 2407.6,809.2 2407.6,843.4 2431.4,898.2 
			2544.6,991 2560.4,975.2 2534.2,952.2 2534.4,944.8 2550.6,944.8 2550.6,930 2534.2,930 2535,926 		"/>
	</g>
</g>
</svg>
