<?xml version="1.0" encoding="utf-8"?>
<!-- Generator: Adobe Illustrator 23.0.3, SVG Export Plug-In . SVG Version: 6.00 Build 0)  -->
<svg width="3840" height="2160" version="1.1" id="_2019" xmlns="http://www.w3.org/2000/svg" xmlns:xlink="http://www.w3.org/1999/xlink" x="0px" y="0px"
	 viewBox="0 0 1920 1080" style="enable-background:new 0 0 1920 1080;" xml:space="preserve">
<style type="text/css">
	.st0{fill:#70CCB8;}
</style>
<g>
	<polygon class="st0" points="783.7,670.6 781.3,670.9 782.7,681.6 785.1,681.2 	"/>
	<path class="st0" d="M565.5,384.9c-0.9-0.1-1.7,0.5-1.8,1.4s0.5,1.7,1.4,1.8c0.1,0,13.2,1.6,13.2,9v141.5c0.1,2.9,0.7,5.8,1.9,8.5
		c2.2,5.6,7.6,9.3,13.6,9.5h0.1c0.8,0,1.5-0.7,1.6-1.5c0.1-0.9-0.6-1.7-1.5-1.8c-12.2-0.7-12.4-14.1-12.4-14.7V397.1
		C581.6,386.8,566.1,384.9,565.5,384.9z"/>
	<path class="st0" d="M1303.1,506.8l-22.9-19.1l0,0l0,0l-13.2-11.6l0.1-3.7l8.1,0V465h-8.2l0.4-2l2.9-74.1l-0.5-0.1l-48.9-15.8
		l-0.1,0.2l0-0.2l-17.1-9.2l-5.3-1.3l-10-4.6l-0.9,9.8v44.7l3.2,10.2l6.5,11.3l8.1,6.5l6.3,9l5,10.4v6.5l1.6,3.2l4.8,4.8l9.7,1.6
		l9.2,3.8l10.6,5.3l9.2,5.3l5.3,5.3l3.1,3.9l0,0l0,0.1l2.2,2.7l1.3,4l3.9,4l1.3,4l0.8,3v2.6l-6.5,6.5l-4.8,11.3l-1.3,14.8l-6.6,7.9
		l-1.3,9.2l2.6,6.6l4,6.6v6.6l-1.3,5.3l-2.6,2.6l-1.3,0.7l-3.7-0.4l-4.6-3.4l-6.5-3.2l-3.2-1.6l-1.2-1.2l-0.8,1l0.7-1.2l-2-2
		l-3.2-6.5l-1.6-3.2h-3.2l-4.8-1.6l-4.8-3.2l-1.6-4.8v-6.5l-3.2-3.2l-6.5-3.2l-4.8-4.8l-3.2-3.2l-4.8-3.2l-6.5-1.6
		c0,0-4.8-1.6-4.8-3.2s-1.6-4.8-1.6-4.8v-6l-4.8-5.3l-3.2-4.8l-4.8-3.2l-3.2-4.8l-4.8-3.2l-4.8-1.6l-6.5-1.6l-8.1-3.2l-11.6,9.2
		c0,0-6.5-1.6-8.1-3.2c-2.1-1.7-4.2-3.4-6.5-4.8l-3.2-6.5l-1.6-1.6h-4.8l-3.2,1.6l-3.2,3.2l-8.1,3.2l-7.8-12.4l-14.5,3.2l-4.8,1.6
		l-3.2,1.6l-1.6,4.8v2.7l-3.2,2.1l-4.8,3.2l-4.8,3.2l-3.2,3.2l-3.2,4.8l-4.8,3.2l-6.5,8.1l-4.8,4.8l-3.2,8.1l-3.2,11.3l-3.2,12.9
		l-1.6,11.3l-3.2,16.2l-6.5,9.7l-3.2,4.8L997,610l-4.8-3.1l-4.8-1.6l-3.2,3.2l-3.2,14.5l-4.8,16.1l-3.2,11.3l-4.8,11.3l-3.2,8.1
		l-3.2,11.3l-3.2,12.9l-1.6,11.3l-1.6,6.5l3.2,9.7l3.2,4.8v9.7l-3.2,8.1l-6.5,9.7l-8.1,8.1h-8.1l-3.2-4.8v-3.8l-6.5-6l-1.6-4.8
		l-3.2-8.1l-3.2-4.8h-11.3l-4.8,1.6h-21l-6.5,3.2l-8.1,1.6l-6.5,6.5l-1.6,6.5l-6.5,3.2l-1.6,6.5l-3.2,4.8h-3.2l-3.2-3.2v-4.4
		l-1.6-6.9l-1.6-4.8V738l-1.6-3.5l-1.6-6.5l-3.2-6.5l-1.6-3.2l-1.6-6.5l-1.6-11.3l3.2-6.5v-14.5l-1.6-6.5l-3.2-6.5l-3.2-6.5v-6.7v-9
		l-1.6-11.8l-1.6-9.7v-8.8l1.6-9l1.6-9.7l-1.6-6.5l-1.6-8.2l-3.2-4.7l-3.2-1.6l-6.5-1.6l-3.2-4.8l-1.6-3.2v-11.6l1.6-4.5l1.6-4.8
		l3.2-3.2l8.1-3.2l3.2-1.6l4.8-11.3l3.2-8.1l-0.1-0.1l0.1,0l3.2-8.1l1.6-4.8l4.8-4.8l6.5-1.6l4.8-4.9l3.2-6.5l1.7-4.9v-6.5l0-6.5v0
		l1.6-4.8v-6.4l3.2-3.2v-8.1l-6.5-4.9l-6.5-6.5l-3.2-1.6l1.6-8.1l3.2-6.5l1.6-6.5v-3.2l-3.2-3.2l-1.6-8.1l-4.8-6.5l-1.6-4.9
		l-4.8-1.6l-1.6-1.6l-4.8-3.2v-4.8l-1.6-1.6l1.6-6.5l3.2-1.6l3.2-1.6l1.6-1.6v-4.8l-1.6-3.2v-4.8l-1.6-3.2l-1.6-4.8v-4.9l-3.2-4.8
		l-3.2-1.6l-4.8-3.2l-3.2-3.2v-17.8l-3.2-6.8v-2.1l-1.7-4.1l-1.6-6.5V253l-1.6-4.8v-4.9l3.2-3.2l3.2-4.8l4.8-9.7v-6.5l-1.6-4.9
		l1.6-4.8v-22.6l-6.4-4.9l-9.8-1.6l-11.3-3.2l-16.2-3.2l-19.4-1.6l-11.3,1.6l-1.6,3.3v9.6l-1.6,6.5l-3.2,8.1l-1.6,8.1l-1.6,11.3
		l-1.6,11.3l-3.2,4.9l-8.1,6.5l-1.6,4.8l-1.6,8.1l-6.5,8.1l-6.5,6.5l-6.5-3.2l-6.5-9.7l-4.8-4.8l-3.2-4.8l-1.6-4.9l3.2-21l-1.6-14.5
		l4.8-16.2l-14,1.2l-1.7-15.5h-39.4l-85.2,35.9l-19.6,23.4l0.2,0.7l9.5,7.8h0.5l19.4-23.4l8.2,6.8l14.7,25.1V276l0.7,60.5h-0.1
		c-0.9,0-1.6,0.8-1.6,1.7l0.8,20.5c0,0.9,0.8,1.6,1.6,1.6h0.1c0,0,0,0,0,0c0.9,0,1.6-0.8,1.6-1.7l-0.8-19.6l80.1,0.5L672,364
		l0.3,170.1l-50.9,72.7l-40,0.2v-15.2c0-5.4-3.3-7.8-5.3-9.2l-0.2-0.2c-3.1-2.2-10.1-3.5-10.4-3.5c-0.8-0.1-1.5,0.4-1.7,1.2
		c-0.1,0.8,0.4,1.5,1.2,1.7c1.8,0.3,7.1,1.5,9.2,3l0.3,0.2c1.8,1.3,4.1,2.8,4.1,6.8v28l-0.2,0.6l-2.5,1.6l-1.6,1.6l-0.8,0.8
		l-2.5,3.3l-1.4,4.1l-1,4.3l-0.2,4l-0.2,5l0.2,6.4l-0.2,2.8l0.2,3.3v25.1l1.4,3.3l3.8,7.2l4.6,4.6l7.4,5.5H632l3.5,0.4l2.5-0.8
		l1.5-1.4l3.7-9.3l12.8-12.2l19.6-7.4l9.2-2.3v7.2h-2v4.1h8.2v-4.1h-2v-7.6l12.9-1.4l2.5,0.8l9-0.8l35.2-4.9l0.1-1.3l15.4-2
		l16.4-1.6l1.6,0.8l4.8-1.6l1,0.2l-7,4.9l1.4,2l9-6.3l7.2-0.8l0-0.1l0.9,7.4L802,676l3.7,8.2l-3.3,0.8v4.1l-38.3,7.4
		c-1.5,0.3-2.6,1.6-2.5,3.1c0,1.7,1.4,3.1,3.2,3.1c0.2,0,0.4,0,0.7-0.1l46.8-10.3l2.5,16.4c-5.1,1-38,8.1-38,8.1
		c-0.9,0.2-1.5,0.9-1.5,1.9c0,1,0.9,1.9,1.9,1.9c0.1,0,0.2,0,0.4,0c0,0,33.1-5.8,38.1-6.8l2.5,9.8l-4.9,1.6v3.3l-24.8,5
		c-0.9,0.2-1.6,1-1.5,1.9c0,1,0.9,1.9,1.9,1.8h0.3l30.6-6.3l3.3,16.4l4.1,16.4l-1.2-4.8l-1.6-0.9h-2.1l-1.6,0.8l-0.8,3.3l-0.8,3.2
		l-59.1,12.5l2.5,14.5l67.9-13.9l2.5,11.4l-3.3,3.3l0.1,0.1l0,0l-1.5,3.4l-7.1,8.7c0,0,0,0,0,0c-0.6,0.7-0.5,1.7,0.2,2.3
		c0.3,0.2,0.6,0.4,1,0.4c0.5,0,1-0.2,1.3-0.6l7.3-9l0.4-0.3l6.6,7.3l-6.7,9.4c0,0,0,0,0,0c-0.5,0.7-0.3,1.8,0.4,2.3
		c0.3,0.2,0.6,0.3,0.9,0.3c0.5,0,1-0.2,1.3-0.7l6.3-8.9l0.1,0.1l3.3,0.1l0-0.1l5,0.7l3.2,10l14.7-1.6l11.5-0.8l0.6-1.4l34.6-2.8
		l8.2,6.5l30.3-2.5l18-22.1l4.1-4.1l0.3-1.5l2.8-3.9l6.8-19.1l1.6-2.5l4.1-4.9l2.2-3l68-60.6l20.4,0.9l5.6,1.8l9.4-3.8V717
		l-10.6,6.5l5.9,7.9l13.7-8.7l0.2-19.2v-16.7l0-1l14.5,0.1l7.4,16.4l83.4-37.6l5.7-2.5l2.4,4.1l0.8,2.5l3.3,6.5l4.1-2.5l-3.3-6.5
		l-0.8-2.5l-0.8-4.1l4.8-2.6l6.5-2.8l1.8,2.9l10.6-4.9l-1.6-3.3l6.6-2.5l4.4-9.8l3.2,2.7l7.2,0.5l27.8-19.6l-2.5-9l-3.3-11.5l9-41.3
		l2.8-13l0,0l7.8-36.4L1303.1,506.8z"/>
</g>
</svg>
