<?xml version="1.0" encoding="utf-8"?>
<!-- Generator: Adobe Illustrator 23.0.3, SVG Export Plug-In . SVG Version: 6.00 Build 0)  -->
<svg width="1920" height="1080" version="1.1" id="_1900" xmlns="http://www.w3.org/2000/svg" xmlns:xlink="http://www.w3.org/1999/xlink" x="0px" y="0px"
	 viewBox="0 0 1920 1080" style="enable-background:new 0 0 1920 1080;" xml:space="preserve">
<style type="text/css">
	.st0{fill:#70CCB8;}
</style>
<g>
	<polygon class="st0" points="1241.4,401.7 1251.1,409.4 1258.8,417.1 1264.5,432.5 1264.5,440.2 1266.5,444 1272.2,449.8 
		1283.8,451.7 1297.3,451.7 1306.9,455.6 1318.4,459.4 1330,465.2 1331,464.2 1314.8,450.3 1323.4,441.7 1320.7,438.9 1311.8,447.8 
		1265.5,408.3 1261.7,400.6 1250.1,375.6 1250.1,358.3 1252,354.5 1265.5,329.5 1230.9,312.1 1229.9,322.7 1229.9,376 1233.7,388.2 
			"/>
	<path class="st0" d="M827.5,788.6l-3.8,5.8h-3.8l-3.8-3.8v-5.2l-1.9-8.3l-1.9-5.8v-7.4l-1.9-4.1l-1.9-7.7l-3.8-7.7l-1.9-3.8
		l-1.9-7.7l-1.9-13.5l3.9-7.7v-17.3l-1.9-7.7l-3.8-7.7l-3.8-7.7v-18.7l-1.9-14l-1.9-11.5v-10.4l1.9-10.7l1.9-11.5l-1.9-7.7l-1.9-9.8
		l-3.8-5.6l-3.8-1.9l-7.7-1.9l-3.8-5.8l-1.9-3.8v-13.9l1.9-5.4l1.9-5.8l3.8-3.8l9.6-3.8l3.8-1.9l5.8-13.5l3.8-9.6l3.9-9.6l1.9-5.8
		L755.3,470l-22-6.5l-1.5,3.1l22.8,6.3l-10.9,47.2l22.2,5.1l-4.9,6.5l-1.9,7.7l-3.8,11.5l2.7-8.2l-7.7,4.3l-13.9,6.2l-3.1,1.5
		l-1.5,3.1l-1.5,3.1v4.3h-4.9l-1.3,17.4h6.2l1.5-21.6l1.5-3.1l1.5-1.5l3.1-1.5l13.9-4.6l3.4,0.8l3.8,3.8l9.6,44.3l-7.7,36.6l1.4,8.6
		l-12.5,1.7l-4.2,2.1v3.6l3.2,18l4.8,6.5c0.5,0.7,1.5,0.8,2.2,0.3c0,0,0,0,0,0c0.7-0.5,0.8-1.5,0.3-2.2l-4.4-5.9l-3-16.9v-1.6l2-1
		l12.1-1.7l3.6,22.7l-4.4,1.1l-0.3-1.9l-3,0.5l1,6.9l3-0.5l-0.3-2l5-1.2l3.2,3.2l6.4,32.3l-28.3,5.5v3.1l29-5.5l3.8,18.8l-29.6,6.8
		v3.1l30.2-7.1l3.9,19.3l-35.7,6.4v3.1l36.2-6.4l2.7,13.5l-6.5,0.7v3.1l7-1l5.2,26l-3.5,0.5l1.2,7.7l3.8-0.5l1.1,5.5l1.9,3.8
		l3.8,3.8l5.8,3.9l7.7,1.9l4.3-0.3v3.3h4.6v-3.6l87.3-5.3v1.9l3.7-0.2l0.5,15h3.4v-15.3l8.2-0.5v15.8h3.8l-0.5-15.9l13.7-0.8
		l-7.7,5.8l1.9,1.9l27-19.3l-1.9-3.8l5.8-9.6l3.8,1.9l5.8-11.5h-3.8l3.8-7.7l-11.5-3.8l17.3-63.5l21.2-27l30.8-105.9l40.4-44.3
		l21.2,19.3l28.9-36.6l9.6,7.7l3.8-5.8h7.7l5.8,3.9l3.8,3.8l3.8,5.8l3.8,3.8l9.6,5.8l7.7,7.7h3.8l3.8,3.8l1.9,5.8l5.8,3.8l1.9,3.9
		l-5.1,5.8l9.3,6.2l5.4-6.2l5.8,1.9v3.8l3.8,1.9h3.8l1.9,1.9l1.9,3.8l27,17.3h3.8l1.9-1.9l3.8,1.9v5.8l3.8,3.8h1.9l1.9-1.9
		l17.6-27.4l-3.2-6.3l-1.9-3.8h-3.8l-5.8-1.9l-5.8-3.8l-1.9-5.8v-7.7l-3.8-3.8l-7.7-3.8l-5.8-5.8l-3.8-3.8l-5.8-3.8l-7.7-1.9
		c0,0-5.8-1.9-5.8-3.8s-1.9-5.8-1.9-5.8v-7.2l-5.8-6.3l-3.8-5.8l-5.8-3.8l-3.8-5.8l-5.8-3.8l-5.8-1.9l-7.7-1.9l-9.6-3.8l-9.6-5.8
		c0,0-7.7-1.9-9.6-3.8c-2.4-2.1-5-4-7.7-5.8l-3.8-7.7l-1.9-1.9h-5.8l-3.8,1.9l-3.8,3.9l-9.6,3.8l-13.5,1.9l-17.3,3.9l-5.8,1.9
		l-3.8,1.9l-1.9,5.8v3.2l-3.8,2.6l-5.8,3.9l-5.8,3.8l-3.8,3.9l-3.9,5.8l-5.8,3.9l-7.7,9.6l-5.8,5.8l-3.8,9.6l-3.8,13.5l-3.8,15.4
		l-1.9,13.5l-3.8,19.3l-7.7,11.5l-3.8,5.8l-5.8,1.9l-5.8-3.8l-5.8-1.9l-3.8,3.8l-3.8,17.3l-5.8,19.3l-3.8,13.5l-5.8,13.5l-3.8,9.6
		l-3.8,13.5l-3.8,15.4l-1.9,13.5l-1.9,7.7l3.8,11.5l3.8,5.8v11.6l-3.8,9.6l-7.7,11.5l-9.6,9.6h-9.6l-3.8-5.8v-4.5l-7.7-7.1l-1.9-5.8
		l-3.8-9.6l-3.8-5.8h-13.5l-5.8,1.9h-25l-7.7,3.8l-9.6,1.9l-7.7,7.7l-1.9,7.7l-7.7,3.8L827.5,788.6z"/>
	<polygon class="st0" points="608.6,202.1 608.2,199.6 613.8,195.8 620.7,198.6 620.7,198.8 617.6,208.1 620.6,209.1 623.6,199.9 
		653.3,212 661,204.3 670.6,194.7 670.6,190.8 672.5,185.1 674.5,181.2 678.3,181.2 678.3,187 680.2,190.9 684.1,192.8 695.6,194.7 
		699.5,192.8 703.3,188.9 703.3,179.3 714.9,113.8 770.7,113.8 778.4,156.2 761.1,179.3 757.2,188.9 751.5,194.7 739.9,210.1 
		749.5,217.8 751.9,234.3 745.6,234.9 745.9,237.9 752.3,237.4 752.3,237.4 753.1,242.8 743.5,244.7 743.5,247.9 753.6,246 
		757.9,269.3 747.1,270.4 747.4,273.5 758.3,272.4 758.4,272.4 762.6,295.3 762.6,295.3 756.2,296.7 756.8,299.7 763.2,298.3 
		766.8,317.9 769,331.6 761,332.5 761.4,335.6 769.6,334.7 769.6,334.7 775.3,369.9 771.7,370.4 772.1,373.5 775.8,373 775.8,372.9 
		786.2,437.3 831.4,428.6 835.3,424.8 835.3,415.1 827.5,409.4 819.8,401.7 816,399.7 817.9,390.2 821.7,382.5 823.7,374.8 
		823.7,370.9 819.8,367.1 817.9,357.4 812.1,349.7 810.2,344 804.4,342 802.5,340.1 796.7,336.3 796.7,330.5 794.8,328.6 
		796.7,320.8 800.6,318.9 804.4,317 806.3,315 806.3,309.3 804.4,305.4 804.4,299.6 802.5,295.8 800.5,290 800.5,284.3 796.7,278.5 
		792.8,276.6 787.1,272.7 783.2,268.9 783.2,247.7 779.5,239.6 779.5,237.2 777.5,232.3 775.5,224.6 775.5,186.1 773.6,180.3 
		773.6,174.5 777.5,170.7 781.3,164.9 787.1,153.3 787.1,145.7 785.2,139.9 787.1,134.1 787.1,107.1 779.5,101.3 767.8,99.4 
		754.3,95.5 735.1,91.7 712,89.8 698.5,91.7 696.6,95.6 696.6,107.1 694.7,114.8 690.8,124.4 688.9,134.1 687,147.5 685.1,161 
		681.2,166.8 671.6,174.5 669.7,180.3 667.7,189.9 660,199.5 652.3,207.2 644.6,203.4 636.9,191.8 631.2,186 627.3,180.3 
		625.4,174.5 629.2,149.5 627.3,132.1 633.1,112.9 624.3,113 624.3,109.7 618.1,109.7 618.1,113 611,113 611,144.9 612.9,146.6 
		614.8,146.6 614.8,152.3 612.9,152.3 611,153.8 611,193.1 607.5,195.4 607.1,192.8 603.3,193.4 604.8,202.7 	"/>
</g>
</svg>
