<?xml version="1.0" encoding="utf-8"?>
<!-- Generator: Adobe Illustrator 23.0.3, SVG Export Plug-In . SVG Version: 6.00 Build 0)  -->
<svg width="3840" height="2160" version="1.1" id="_1945" xmlns="http://www.w3.org/2000/svg" xmlns:xlink="http://www.w3.org/1999/xlink" x="0px" y="0px"
	 viewBox="0 0 1920 1080" style="enable-background:new 0 0 1920 1080;" xml:space="preserve">
<style type="text/css">
	.st0{fill:#70CCB8;}
</style>
<g>
	<polygon class="st0" points="797.9,367 798.6,369.7 802.4,368.7 801.9,366 	"/>
	<polygon class="st0" points="826.4,742.3 790.3,750 791.1,753.7 827.2,746 	"/>
	<polygon class="st0" points="791.3,310.1 788.6,310.5 789,313.3 791.9,312.8 	"/>
	<polygon class="st0" points="804.2,378 803.7,375.2 798.9,376.4 799.5,379.1 	"/>
	<polygon class="st0" points="795.8,333.7 795.3,331 790.3,332.2 791,334.9 	"/>
	<polygon class="st0" points="861.3,777.3 871.6,776.3 871.6,773 861.3,774 	"/>
	<polygon class="st0" points="739.9,458.2 738.6,458.2 737.8,458.7 733.9,458.7 722.3,453.3 712.3,446.1 705.7,439 699.7,428.9 
		696.1,420.8 675.7,304.8 676.9,303.9 677.8,301.1 675.9,299.2 673.1,299.2 671.8,300.3 670.7,302 670.7,303.7 691.5,421.9 
		691.5,422.2 695.4,430.9 701.9,441.9 709,449.5 719.7,457.3 732.8,463.4 736.2,464.8 739.8,464.8 741.8,463.9 742.8,462 
		741.8,459.2 	"/>
	<path class="st0" d="M1292,454l-8,8l-9.2-7.4l8.1-8.9l-2.6-2.4l-8.3,9.1l-1.6-1.3l-42.4-35l4-4l-2-2l-4,4l-10.2-23.4l6.8-0.5
		l-0.3-3.8l-8.2,0.6l-0.1-0.3v-17.4l5.4-13.4h2.7l9.4-18.8l-17.4-9.4l-5.4-1.3l-10.2-4.7l-0.9,10v45.5l3.3,10.4l6.6,11.5l8.2,6.6
		l6.4,9.2l5.1,10.5v6.6l1.6,3.3l4.9,4.9l9.9,1.6l9.3,3.8l10.7,5.4l9.4,5.4l5.4,5.4l3.2,4l0,0l2.2,2.8l1.3,4l4,4l1.3,4l0.8,3v2.7
		l-6.6,6.6l-4.9,11.5l-1.4,15.1l-6.7,8l-1.3,9.4l2.7,6.7l4,6.7v6.7l-1.3,5.4l-2.7,2.7l-1.3,0.7l-3.8-0.4l-4.7-3.5l-6.6-3.3l-3.3-1.6
		l-1.2-1.2l-0.3,0.4l0.2-0.4l-2.1-2.1l-3.3-6.6l-1.7-3.3h-3.3l-4.9-1.7l-4.9-3.3l-1.6-4.9v-6.5l-3.3-3.3l-6.6-3.3l-4.9-4.9l-3.3-3.3
		l-4.9-3.3l-6.6-1.6c0,0-4.9-1.6-4.9-3.3c0-1.6-1.7-4.9-1.7-4.9v-6.1l-4.9-5.4l-3.3-4.9l-4.9-3.3l-3.3-4.9l-4.9-3.3l-4.9-1.6
		l-6.6-1.6l-8.2-3.3l-8.2-4.9c0,0-6.6-1.6-8.2-3.3c-2.1-1.8-4.3-3.4-6.6-4.9l-3.3-6.6l-1.7-1.6h-4.9l-3.3,1.6l-3.3,3.3l-8.2,3.3
		l-11.5,1.6l-14.8,3.3l-4.9,1.6l-3.3,1.6l-1.6,4.9v2.7l-3.3,2.2l-4.9,3.3l-4.9,3.3l-3.3,3.3l-3.3,4.9l-4.9,3.3l-6.6,8.2l-4.9,4.9
		l-3.3,8.2l-3.3,11.5l-3.3,13.2l-1.7,11.5l-3.3,16.4l-6.6,9.9l-3.3,4.9l-4.9,1.7l-4.9-3.3l-4.9-1.6l-3.3,3.3l-3.3,14.8l-4.9,16.4
		l-3.3,11.5l-4.9,11.5l-3.3,8.2l-3.3,11.5l-3.3,13.2l-1.6,11.5L961,682l3.3,9.8l3.3,4.9v9.9l-3.3,8.2l-6.6,9.9l-8.2,8.2h-8.2
		L938,728v-3.8l-6.6-6l-1.6-4.9l-3.3-8.2l-3.3-4.9h-11.5l-4.9,1.6h-21.4l-6.6,3.3l-8.2,1.7l-6.6,6.6l-1.7,6.6l-6.6,3.3l-1.6,6.6
		l-3.3,4.9h-3.3l-3.3-3.3v-4.5l-1.6-7l-1.7-4.9v-6.3l-1.6-3.5l-1.6-6.6l-3.3-6.6l-1.6-3.3l-1.7-6.6l-1.6-11.5l3.3-6.6v-14.8
		l-1.7-6.6l-3.3-6.6l-3.3-6.6v-16l-1.7-12l-1.6-9.9v-8.9l1.6-9.2l1.7-9.9L823,557l-1.7-8.3l-3.3-4.8l-3.3-1.7l-6.6-1.6l-3.3-4.9
		l-1.6-3.3v-11.8l1.6-4.6l1.6-4.9l3.3-3.3l8.2-3.3l3.3-1.6l4.9-11.5l3.3-8.2l0-0.1l3.3-8.2l1.6-4.9l4.9-4.9l6.6-1.7l4.9-4.9l3.3-6.6
		l1.6-4.9v-6.6l0-6.6l0,0l1.6-4.9v-6.6l3.3-3.3v-8.3l-6.6-4.9l-6.6-6.6l-3.3-1.6l1.7-8.2l3.3-6.6l1.7-6.6v-3.3l-3.3-3.3l-1.6-8.2
		l-4.9-6.6l-1.6-4.9l-4.9-1.6l-1.6-1.6l-4.9-3.3v-4.9l-1.6-1.6l1.6-6.6l3.3-1.6l3.3-1.7l1.6-1.6v-4.9l-1.6-3.3v-4.9l-1.6-3.3
		l-1.7-4.9V299l-3.3-4.9l-3.3-1.7l-4.9-3.3l-3.3-3.3v-18.1l-3.2-6.9v-2.1l-1.7-4.2l-1.7-6.6v-32.9l-1.6-4.9v-4.9l3.3-3.3l3.3-5
		l4.9-9.8v-6.6l-1.7-4.9l1.7-4.9v-23l-6.5-5l-9.9-1.6l-11.5-3.3l-16.4-3.3l-19.7-1.6l-11.5,1.6l-1.6,3.3v9.8l-1.7,6.6l-3.3,8.2
		l-1.6,8.2l-1.6,11.5l-1.7,11.5l-3.3,4.9l-8.2,6.6l-1.7,4.9l-1.6,8.2l-6.6,8.2l-6.6,6.6l-6.6-3.3l-6.6-9.9l-4.9-4.9l-3.3-4.9
		l-1.7-4.9l3.3-21.4l-1.6-14.8l-19.3,0.8v56.7l0.1,0v10.8l-4.4,3.2l-1.2-2.3l-2.5,1.3l3.8,7.5l1.3-0.6l1.3-0.6l-1.4-2.7l3.1-2.2
		l8.3,2.6l-0.6,2.3l-1.9-0.6l-0.9,2.7l5.7,1.9l0.9-2.7l-1.5-0.5l0.7-2.3l8.1,2.5l2.7,2.7l1.3,2.7l-1.3,17.4l-1.3,2.7l-5.4,4v5.4h1.3
		l1.4-2.7l18.8-8l16.1-6.7l5.4-1.3l59.6-6l0.2,1.3l0.5,2.8l1.4,7.2l-6.1,1l0.4,2.8l6.2-1l1.5,7.8l0,0l-10.9,1.7l0.4,2.8l11-1.7
		l3.7,19.3L781,302l0.5,2.8l8.6-1.4l1.3,6.7l0.5,2.7l0.9,4.6l-8.8,1.4l0.4,2.7l8.8-1.4l2.1,10.8l0.5,2.7l3.4,17.9l-5.1,1.2l0.7,2.7
		l4.9-1.2L802,366l2.3,12l1.4,7.4l-5.8,1.4l0.7,2.7l5.7-1.4l5.5,28.9l-3.3,0.8l0.7,2.7l3.2-0.8l3.9,20.7l0,0l1.3,14.8l-5.5,23.2
		l-21.3-5.7l-25-6.1c-0.1,0-0.1,0-0.2,0c-0.9-0.2-1.7,0.5-1.9,1.4c-0.2,0.9,0.5,1.7,1.4,1.9l25,5.8l-8.7,34.6l-4,16.1l-4,2.7v1.3
		l4,5.4h2.7l2.5,5l-3,1.3l-2.8,1.9l-2.8,1.9l-2.8,2.8l-0.9,3.8l-0.9,6.6h-3.2l-1.5,14.1l1.9,0.3l-1.9,15.2l1.9,4.2l10.3,21.7
		l1.9,0.9l1.9-1.7l0-2.1l-1.9-3.8l-7.5-16.3l-1.9-6.3l0.9-5.7l1-5.6l1.4-12.7l1-6.6l1.8-4.7l2.8-2.9l2.9-1.9l3.1-1.6l4,1.3h4l1.3,4
		l10.7,36.2v2.7l-4,21.5v4l0.9,6.9l-13.1,1.2c-0.2,0-0.3,0.1-0.5,0.1l-1.9,0.9c-0.5,0.3-0.9,0.9-0.8,1.5l2.9,19.9
		c0,0.2,0.1,0.4,0.2,0.6l3.8,5.6c0.3,0.4,0.7,0.6,1.2,0.6c0.3,0,0.5-0.1,0.8-0.2c0,0,0,0,0,0c0.6-0.4,0.8-1.3,0.4-2l-3.6-5.4
		l-2.6-18.4l0.7-0.4l12.9-1.2h0l1.5,11.7l2.2,8.8l-5.9,1.1l-0.2-1.4l-2.8,0.5l0.9,5.6l2.8-0.5l-0.2-1.5l6.1-1.2l6.4,28.7l-36.7,8.1
		l0.8,3.7l36.6-8l3.5,15.6l-28.6,6.2l0.7,2.8l28.6-6.2l3.5,15.9l-31,6.8l0.8,3.7l31-6.8l0.3,1.2l8,38.9l1.3,5.4l2.7,4l4,4l0,0l-4-4
		l-0.7-1l-2.1,2.5l3.3,3.8l3.4,2.1l6,1.7l0.5-2.2l5.7,1.1h8l68.5-6.2l-0.9,11.1v5.7l24.7-3.9l-2.1-6.5l-0.4-8.3l13.4-1.2l-8,8
		l2.7,2.7l20.2-20.1l-2.7-2.7l8-24.1l-4-1.3v-4l12-46.9l16.1-25.5l28.2-103.2l28.2-29.5l25.6,16l4-5.4l-2.7-1.3v-1.3l8-8l2.7-1.3
		l2.7-4h13.4l5.4,2.7v2.7l1.3,2.7h1.3l1.3-2.7h1.3l1.3,2.7l38.9,25.5l14.7,9.4l4,5.4l13,9.2l20.5,12.3l10.7,8l2.7,1.3l10.9-18.9
		l1.2,1.5v4l2.7,2.7v1.3l-5.4,12.1l20.1,8l8-17.4h1.3l3.6,2.7h1.8l2.7-4v-1.3l-2.7-2.7l2.7-4v-2.7l0.1-7.3l7.9-16.8l-9.4-5.4
		l-1.3-1.3l2.7-12.1l2.7-9.4l1.3-4l1.3-4l2.7-4l14.7,2.7l1.3-1.3l14.8-36.2l0-1.2L1292,454z"/>
	<polygon class="st0" points="781.5,258.1 777.3,258.7 777.7,261.5 782,260.8 	"/>
	<polygon class="st0" points="823.5,727.9 817.1,729.4 816.2,724.2 812.4,724.9 814.3,736.2 818.1,735.5 817.7,733.1 824.2,731.6 	
		"/>
	<polygon class="st0" points="829.3,756.1 827,756.5 828.1,762.7 830.7,761.9 829.5,756.9 	"/>
	<polygon class="st0" points="773.8,264.4 772.9,265.4 771.9,266.3 771.9,267.2 773.8,267.2 775.7,266.3 777.1,265.5 779.7,264.9 
		782.8,264.9 782.3,262.5 779.4,262.5 775.7,263.5 	"/>
</g>
</svg>
