<svg xmlns="http://www.w3.org/2000/svg" viewBox="0 0 160.91 160.92"><defs><style>.cls-1{fill:#2c9a47;}.cls-1,.cls-2,.cls-3{opacity:0.97;}.cls-2,.cls-4{fill:#fff;}</style></defs><title>資產 3</title><g id="圖層_2" data-name="圖層 2"><g id="ENG"><rect class="cls-1" width="160.91" height="160.92"/><path class="cls-2" d="M23,46.37c5.51,0,7.9-2.92,7.9-7.42V34.17c0-3-1.29-4.89-4-5.51a5.17,5.17,0,0,0,3.73-5.26V20.58c0-4.6-2.2-7.42-7.22-7.42-5.65,0-7.61,3.35-7.61,8.13v2.87h5v-3.3c0-2,.63-3.16,2.35-3.16s2.34,1.15,2.34,2.92v3.5c0,1.72-1.15,2.63-2.91,2.63H20.43v4.16h2.29c1.92,0,2.68.91,2.68,2.63V38.9c0,1.72-.76,2.92-2.44,2.92-1.86,0-2.53-1.24-2.53-3.16V34h-5v4.26c0,4.93,2,8.09,7.51,8.09"/><g class="cls-3"><path class="cls-4" d="M134.41,100.57c0-4.53-2.91-8.2-7.31-8.2-2.2,0-4.85,2.41-6.3,3.89-1.44-1.48-3.92-3.89-6.12-3.89-4.4,0-7.48,3.67-7.48,8.2a8.32,8.32,0,0,0,2.33,5.8h0l11.28,11.3,11.27-11.29h0A8.31,8.31,0,0,0,134.41,100.57Z"/><path class="cls-4" d="M86.38,136.12h-.12a1.86,1.86,0,0,1-1.71-1.53l-5.73-33.37L70.14,117.3a1.85,1.85,0,0,1-3.46-.62L63,90.93l-6.75,15.14a1.84,1.84,0,0,1-1.69,1.1H28.36a1.86,1.86,0,0,1,0-3.71h25l8.87-19.91a1.85,1.85,0,0,1,3.52.49l3.8,26.55,8.56-15.87a1.85,1.85,0,0,1,3.46.57l5.3,30.91L106.21,62a1.85,1.85,0,0,1,3.44-.27l10.18,21.09a1.85,1.85,0,0,1-3.34,1.61l-8.1-16.8L88.15,134.8A1.85,1.85,0,0,1,86.38,136.12Z"/></g><g class="cls-3"><path class="cls-4" d="M49.29,19.6h3.14v7H50.84V25.19a2,2,0,0,1-2.11,1.59c-1.9,0-2.78-1.51-2.78-3.55V16.87c0-2.06,1-3.55,3.32-3.55s3.16,1.36,3.16,3.3v1.16h-2V16.44c0-.81-.31-1.28-1.1-1.28s-1.15.56-1.15,1.36v7.06c0,.79.33,1.36,1.09,1.36s1.09-.41,1.09-1.26V21.35H49.29Z"/><path class="cls-4" d="M53.89,23.23V16.87c0-2.06,1-3.55,3.33-3.55s3.36,1.49,3.36,3.55v6.36c0,2-1,3.55-3.36,3.55S53.89,25.27,53.89,23.23Zm4.48.35V16.52c0-.8-.35-1.36-1.15-1.36s-1.12.56-1.12,1.36v7.06c0,.79.35,1.36,1.12,1.36S58.37,24.37,58.37,23.58Z"/><path class="cls-4" d="M62,23.23V16.87c0-2.06,1-3.55,3.33-3.55s3.36,1.49,3.36,3.55v6.36c0,2-1,3.55-3.36,3.55S62,25.27,62,23.23Zm4.48.35V16.52c0-.8-.35-1.36-1.15-1.36s-1.12.56-1.12,1.36v7.06c0,.79.35,1.36,1.12,1.36S66.52,24.37,66.52,23.58Z"/><path class="cls-4" d="M76.8,17v6.09c0,2-.84,3.53-3.2,3.53H70.18V13.48H73.6C76,13.48,76.8,15,76.8,17Zm-3.47,7.82c.91,0,1.26-.54,1.26-1.34V16.6a1.15,1.15,0,0,0-1.26-1.32h-.94v9.54Z"/><path class="cls-4" d="M85.6,20.83H83.47v5.79H81.26V13.48h2.21V19H85.6V13.48h2.24V26.62H85.6Z"/><path class="cls-4" d="M89.39,13.48h5.27v1.8H91.6V19h2.19v1.79H91.6v4h3.06v1.8H89.39Z"/><path class="cls-4" d="M95.69,26.62l2.49-13.14h2.52l2.5,13.14h-2.27l-.41-2.4H98.18l-.39,2.4Zm2.78-4.17h1.76l-.87-5.27h0Z"/><path class="cls-4" d="M104.31,13.48h2.21V24.82h2.64v1.8h-4.85Z"/><path class="cls-4" d="M108.85,13.48h5.87v1.8H112.9V26.62h-2.23V15.28h-1.82Z"/><path class="cls-4" d="M120.29,20.83h-2.13v5.79H116V13.48h2.21V19h2.13V13.48h2.23V26.62h-2.23Z"/></g><g class="cls-3"><path class="cls-4" d="M45.62,45.91,48.1,32.76h2.52l2.51,13.15H50.86l-.41-2.4H48.1l-.38,2.4Zm2.77-4.17h1.77l-.87-5.27h0Z"/><path class="cls-4" d="M55.9,37.65v8.26H54V32.76h2.17l2.39,7.55V32.76h1.84V45.91H58.5Z"/><path class="cls-4" d="M68.61,36.29v6.09c0,2-.84,3.53-3.2,3.53H62V32.76h3.42C67.77,32.76,68.61,34.25,68.61,36.29Zm-3.48,7.82c.92,0,1.27-.55,1.27-1.34V35.88a1.15,1.15,0,0,0-1.27-1.31H64.2v9.54Z"/><path class="cls-4" d="M77.07,37.78l-1.25,8.13H73.75L72,32.76h2.14l1,8.34h0l1.1-8.34h1.8L79.3,41.1h0l1-8.34h1.87L80.48,45.91h-2.1l-1.29-8.13Z"/><path class="cls-4" d="M83.33,32.76h5.28v1.81H85.54v3.76h2.2v1.78h-2.2v4h3.07v1.8H83.33Z"/><path class="cls-4" d="M90,32.76H92.2V44.11h2.64v1.8H90Z"/><path class="cls-4" d="M96,32.76h2.21V44.11h2.64v1.8H96Z"/><path class="cls-4" d="M100.6,38.13h3.1v1.79h-3.1Z"/><path class="cls-4" d="M105,32.76h3.2c2.21,0,3,1,3,2.89V37a1.92,1.92,0,0,1-1.32,2.09,2,2,0,0,1,1.65,2.2V43c0,1.86-.83,2.89-3,2.89H105Zm2.21,5.55H108c.72,0,1-.37,1-1.07V35.63c0-.72-.32-1.06-1.06-1.06h-.76Zm0,1.69v4.11h1A1,1,0,0,0,109.29,43v-2c0-.7-.33-1.06-1.11-1.06Z"/><path class="cls-4" d="M112.8,32.76h5.28v1.81H115v3.76h2.19v1.78H115v4h3.07v1.8H112.8Z"/><path class="cls-4" d="M119.45,32.76h2.22V45.91h-2.22Z"/><path class="cls-4" d="M125.1,37.65v8.26h-1.86V32.76h2.17l2.39,7.55V32.76h1.84V45.91H127.7Z"/><path class="cls-4" d="M134.53,38.89h3.14v7h-1.59V44.48A2,2,0,0,1,134,46.07c-1.91,0-2.78-1.52-2.78-3.55V36.16c0-2.06,1-3.55,3.32-3.55s3.16,1.35,3.16,3.29v1.17h-2V35.73c0-.82-.31-1.28-1.1-1.28s-1.15.56-1.15,1.36v7.06c0,.79.33,1.35,1.09,1.35s1.09-.4,1.09-1.26V40.64h-1.05Z"/></g></g></g></svg>