<svg xmlns="http://www.w3.org/2000/svg" width="139" height="59" viewBox="0 0 139 59">
  <g id="helsiki_icon2_EN" transform="translate(-15 2552)">
    <g id="组_4438" data-name="组 4438" transform="translate(2757 246)">
      <g id="组_4433" data-name="组 4433" transform="translate(-2732.302 -2785.338)">
        <path id="路径_2237" data-name="路径 2237" d="M206.735,467.844c-6.952,0-11.9,3.911-14.494,6.609-.011-.03-.018-.061-.029-.091a9.86,9.86,0,0,0-3.626-4.895,9.964,9.964,0,0,0-5.418-1.959,13.815,13.815,0,0,1,0,18.182,10.251,10.251,0,0,0,8.987-6.7c2.71,2.485,7.991,6.362,14.579,6.362,8.221,0,15.344-8.755,15.344-8.755S214.956,467.844,206.735,467.844Zm4.809,10.105a2.672,2.672,0,1,1,2.672-2.672A2.672,2.672,0,0,1,211.544,477.949Z" transform="translate(-182.831 -452.452)" fill="#1c97d3"/>
        <path id="路径_2238" data-name="路径 2238" d="M221.522,452.662c-.924,1.325-1.489,1.333-3.887,1.333s-4.432-.97-5.185-2.321h0c-.754,1.351-2.788,2.321-5.185,2.321s-4.432-.97-5.185-2.321l-.006.012-.006-.012c-.754,1.351-2.788,2.321-5.185,2.321a6.167,6.167,0,0,1-5.009-2.068c-.06-.09-.118-.176-.15-.214a2.219,2.219,0,0,0-.149.214,6.167,6.167,0,0,1-5.009,2.068c-2.4,0-2.963-.008-3.886-1.333-.594,2.584,1.954,3.638,3.886,3.638,2.37,0,4.385-.948,5.158-2.275.774,1.327,2.789,2.275,5.159,2.275,2.4,0,4.442-.974,5.191-2.331.749,1.356,2.788,2.331,5.191,2.331s4.432-.97,5.185-2.322c.754,1.351,2.788,2.322,5.186,2.322C219.568,456.3,222.116,455.246,221.522,452.662Z" transform="translate(-182.591 -445.885)" fill="#1c97d3"/>
        <path id="路径_2239" data-name="路径 2239" d="M221.522,442.771c-.924,1.324-1.489,1.333-3.887,1.333s-4.432-.97-5.185-2.321h0c-.754,1.351-2.788,2.321-5.185,2.321s-4.432-.97-5.185-2.321l-.006.012-.006-.012c-.754,1.351-2.788,2.321-5.185,2.321a6.167,6.167,0,0,1-5.009-2.069c-.06-.09-.118-.176-.15-.214a2.15,2.15,0,0,0-.149.214,6.167,6.167,0,0,1-5.009,2.068c-2.4,0-2.963-.008-3.886-1.333-.594,2.583,1.954,3.637,3.886,3.637,2.37,0,4.385-.948,5.158-2.274.774,1.326,2.789,2.274,5.159,2.274,2.4,0,4.442-.974,5.191-2.33.749,1.356,2.788,2.33,5.191,2.33s4.432-.97,5.185-2.321c.754,1.351,2.788,2.321,5.186,2.321C219.568,446.408,222.116,445.354,221.522,442.771Z" transform="translate(-182.591 -441.783)" fill="#1c97d3"/>
      </g>
      <g id="椭圆_16" data-name="椭圆 16" transform="translate(-2742 -2798)" fill="none" stroke="#1c97d3" stroke-width="3">
        <circle cx="29.5" cy="29.5" r="29.5" stroke="none"/>
        <circle cx="29.5" cy="29.5" r="28" fill="none"/>
      </g>
    </g>
    <g id="组_4440" data-name="组 4440" transform="translate(-101.311 -2531.862)">
      <text id="Life_Blow_Water" data-name="Life Blow Water" transform="translate(185.311 -8.138)" fill="#1c97d3" font-size="15" font-family="SegoeUI-Bold, Segoe UI" font-weight="700"><tspan x="0" y="16">Life Blow </tspan><tspan x="0" y="34">Water</tspan></text>
    </g>
  </g>
</svg>
