<svg xmlns="http://www.w3.org/2000/svg" viewBox="0 0 160.92 160.93"><defs><style>.cls-1{fill:#f99d24;}.cls-1,.cls-2,.cls-3{opacity:0.97;}.cls-2,.cls-4{fill:#fff;}</style></defs><title>資產 11</title><g id="圖層_2" data-name="圖層 2"><g id="ENG"><rect class="cls-1" width="160.92" height="160.93"/><polygon class="cls-2" points="11.53 19.37 11.53 25.07 11.58 25.07 15.4 21.09 15.45 21.09 15.45 45.93 20.91 45.93 20.91 13.49 16.55 13.49 11.53 19.37"/><polygon class="cls-2" points="23.97 19.37 23.97 25.07 24.02 25.07 27.85 21.09 27.9 21.09 27.9 45.93 33.35 45.93 33.35 13.49 29 13.49 23.97 19.37"/><g class="cls-3"><path class="cls-4" d="M26.54,122.51H50.75a.58.58,0,0,0,.59-.59.64.64,0,0,0-.15-.4l0,0-12-15.58-.12-.13a.57.57,0,0,0-.43-.2.6.6,0,0,0-.39.16l-.08.08L38,106,26.23,121.37l-.18.22a.59.59,0,0,0,.49.92Z"/><path class="cls-4" d="M50.68,124.71H26.42a.6.6,0,0,0-.59.59v19a.6.6,0,0,0,.59.59h7.81V132.94a.58.58,0,0,1,.59-.59h7.25a.58.58,0,0,1,.59.59v11.94h8a.6.6,0,0,0,.59-.59v-19A.6.6,0,0,0,50.68,124.71Z"/><path class="cls-4" d="M134.5,119.74h-24a.57.57,0,0,0-.59.57v24.24a.57.57,0,0,0,.59.57h24a.57.57,0,0,0,.59-.57V120.31a.57.57,0,0,0-.59-.57m-13.13,15.83a.58.58,0,0,1-.59.57h-7.17a.58.58,0,0,1-.59-.57v-4.36a.57.57,0,0,1,.59-.57h7.17a.57.57,0,0,1,.59.57Zm0-8.06a.57.57,0,0,1-.59.57h-7.17a.57.57,0,0,1-.59-.57v-4.36a.58.58,0,0,1,.59-.57h7.17a.58.58,0,0,1,.59.57Zm11,8.06a.58.58,0,0,1-.59.57h-7.17a.58.58,0,0,1-.59-.57v-4.36a.57.57,0,0,1,.59-.57h7.17a.57.57,0,0,1,.59.57Zm0-8.06a.57.57,0,0,1-.59.57h-7.17a.57.57,0,0,1-.59-.57v-4.36a.58.58,0,0,1,.59-.57h7.17a.58.58,0,0,1,.59.57Z"/><path class="cls-4" d="M78.7,63.48H55.21a.57.57,0,0,0-.58.57v80.29a.58.58,0,0,0,.58.57H78.7a.59.59,0,0,0,.58-.57V64.05a.58.58,0,0,0-.58-.57m-14,72.29a.3.3,0,0,1-.31.3H59a.3.3,0,0,1-.31-.3v-6a.31.31,0,0,1,.31-.31h5.38a.31.31,0,0,1,.31.31Zm0-13.77a.31.31,0,0,1-.31.31H59a.31.31,0,0,1-.31-.31v-6a.31.31,0,0,1,.31-.31h5.38a.31.31,0,0,1,.31.31Zm0-13.77a.31.31,0,0,1-.31.31H59a.31.31,0,0,1-.31-.31v-6a.31.31,0,0,1,.31-.31h5.38a.31.31,0,0,1,.31.31Zm0-13.76a.31.31,0,0,1-.31.31H59a.31.31,0,0,1-.31-.31v-6a.3.3,0,0,1,.31-.3h5.38a.3.3,0,0,1,.31.3Zm0-13.77a.31.31,0,0,1-.31.31H59a.31.31,0,0,1-.31-.31v-6A.31.31,0,0,1,59,74.4h5.38a.31.31,0,0,1,.31.31Zm10.54,55.07a.3.3,0,0,1-.31.3H69.59a.3.3,0,0,1-.31-.3v-6a.31.31,0,0,1,.31-.31H75a.31.31,0,0,1,.31.31Zm0-13.77a.31.31,0,0,1-.31.31H69.59a.31.31,0,0,1-.31-.31v-6a.3.3,0,0,1,.31-.31H75a.3.3,0,0,1,.31.31Zm0-13.77a.31.31,0,0,1-.31.31H69.59a.31.31,0,0,1-.31-.31v-6a.31.31,0,0,1,.31-.31H75a.31.31,0,0,1,.31.31Zm0-13.76a.31.31,0,0,1-.31.31H69.59a.31.31,0,0,1-.31-.31v-6a.3.3,0,0,1,.31-.3H75a.3.3,0,0,1,.31.3Zm0-13.77A.31.31,0,0,1,75,81H69.59a.31.31,0,0,1-.31-.31v-6a.31.31,0,0,1,.31-.31H75a.31.31,0,0,1,.31.31Z"/><rect class="cls-4" x="109.94" y="111.99" width="25.13" height="5.8" rx="0.48"/><path class="cls-4" d="M107.08,78.64a.62.62,0,0,0-.59-.45.58.58,0,0,0-.34.11l0,0-.2.25L82.82,107.87l-.11.14a.7.7,0,0,0-.2.46v36a.57.57,0,0,0,.58.57h23.47a.56.56,0,0,0,.57-.57V78.88A.6.6,0,0,0,107.08,78.64Zm-9.72,15.9.16-.2c1.58-2,4.24-5.31,5.54-6.9l.17-.2a.67.67,0,0,1,.52-.25.66.66,0,0,1,.64.54v7.41a.67.67,0,0,1-.64.66H97.86a.66.66,0,0,1-.63-.66A.62.62,0,0,1,97.36,94.54Zm-3.66,41a.57.57,0,0,1-.57.58h-7a.58.58,0,0,1-.58-.58v-4.38a.57.57,0,0,1,.58-.57h7a.56.56,0,0,1,.57.57Zm0-8.1a.57.57,0,0,1-.57.58h-7a.58.58,0,0,1-.58-.58v-4.38a.57.57,0,0,1,.58-.57h7a.56.56,0,0,1,.57.57Zm0-8.09a.57.57,0,0,1-.57.57h-7a.58.58,0,0,1-.58-.57V115a.57.57,0,0,1,.58-.57h7a.56.56,0,0,1,.57.57Zm0-17.75v9.66a.58.58,0,0,1-.57.57h-7a.58.58,0,0,1-.58-.57v-1.22a.65.65,0,0,1,0-.21.25.25,0,0,1,0-.07.35.35,0,0,1,0-.08l.06-.09c.9-1.28,4.94-6.26,6.63-8.34l.17-.2a.69.69,0,0,1,.52-.25.66.66,0,0,1,.64.54Zm10.68,33.94a.57.57,0,0,1-.57.58h-7a.58.58,0,0,1-.58-.58v-4.38a.57.57,0,0,1,.58-.57h7a.56.56,0,0,1,.57.57Zm0-8.1a.57.57,0,0,1-.57.58h-7a.58.58,0,0,1-.58-.58v-4.38a.57.57,0,0,1,.58-.57h7a.56.56,0,0,1,.57.57Zm0-8.09a.57.57,0,0,1-.57.57h-7a.58.58,0,0,1-.58-.57V115a.57.57,0,0,1,.58-.57h7a.56.56,0,0,1,.57.57Zm0-8.1a.57.57,0,0,1-.57.57h-7a.58.58,0,0,1-.58-.57v-4.39a.58.58,0,0,1,.58-.57h7a.57.57,0,0,1,.57.57Zm0-8.1a.56.56,0,0,1-.57.57h-7a.57.57,0,0,1-.58-.57V98.79a.57.57,0,0,1,.58-.58h7a.57.57,0,0,1,.57.58Z"/></g><g class="cls-3"><path class="cls-4" d="M44,23.78V22H46v1.8c0,.74.33,1.16,1.08,1.16s1-.46,1-1.16v-.5a2.37,2.37,0,0,0-1-1.86l-1.29-1.3c-1.27-1.25-1.85-2-1.85-3.51V16.2c0-1.63,1-2.89,3.1-2.89s3.09,1.09,3.09,3v1.06h-2V16.22c0-.76-.35-1.13-1-1.13a1,1,0,0,0-1,1.09v.27c0,.74.4,1.16,1,1.79l1.42,1.39c1.2,1.22,1.78,2,1.78,3.42v.63c0,1.81-1,3.09-3.22,3.09S44,25.51,44,23.78Z"/><path class="cls-4" d="M57.69,13.46v10c0,2-.88,3.36-3.13,3.36s-3.29-1.32-3.29-3.36V13.46h2.21V23.63c0,.77.31,1.3,1.08,1.3s1.09-.53,1.09-1.3V13.46Z"/><path class="cls-4" d="M58.81,23.78V22h2.06v1.8c0,.74.33,1.16,1.09,1.16s1-.46,1-1.16v-.5a2.37,2.37,0,0,0-1-1.86l-1.3-1.3c-1.26-1.25-1.84-2-1.84-3.51V16.2c0-1.63,1-2.89,3.11-2.89S65,14.4,65,16.3v1.06H63V16.22c0-.76-.35-1.13-1-1.13a1,1,0,0,0-1.05,1.09v.27c0,.74.41,1.16,1.05,1.79l1.41,1.39c1.2,1.22,1.78,2,1.78,3.42v.63c0,1.81-1,3.09-3.21,3.09S58.81,25.51,58.81,23.78Z"/><path class="cls-4" d="M65.68,13.46h5.88v1.81H69.73V26.61H67.5V15.27H65.68Z"/><path class="cls-4" d="M71.15,26.61l2.48-13.15h2.52l2.51,13.15H76.39L76,24.21H73.63l-.38,2.4Zm2.77-4.17h1.77l-.87-5.27h0Z"/><path class="cls-4" d="M79.55,13.46h2.21V26.61H79.55Z"/><path class="cls-4" d="M84.89,18.35v8.26H83V13.46H85.2L87.58,21V13.46h1.84V26.61H87.48Z"/><path class="cls-4" d="M90.14,26.61l2.49-13.15h2.52l2.5,13.15H95.38L95,24.21H92.63l-.39,2.4Zm2.78-4.17h1.76l-.87-5.27h0Z"/><path class="cls-4" d="M98.35,13.46h3.2c2.21,0,3,1,3,2.89v1.34a1.92,1.92,0,0,1-1.32,2.1A2,2,0,0,1,104.83,22v1.74c0,1.87-.84,2.89-3,2.89H98.35ZM100.56,19h.78a.93.93,0,0,0,1-1.07V16.33a.93.93,0,0,0-1.06-1.06h-.76Zm0,1.69v4.11h1a1,1,0,0,0,1.09-1.07v-2c0-.7-.33-1.07-1.11-1.07Z"/><path class="cls-4" d="M105.74,13.46H108V24.81h2.64v1.8h-4.85Z"/><path class="cls-4" d="M111.4,13.46h5.28v1.81h-3.06V19h2.19v1.78h-2.19v4h3.06v1.8H111.4Z"/><path class="cls-4" d="M120.4,23.22V16.86c0-2.06,1-3.55,3.3-3.55s3.12,1.36,3.12,3.3v1.55h-2V16.43c0-.81-.27-1.28-1.07-1.28s-1.12.56-1.12,1.36v7.06c0,.79.33,1.36,1.12,1.36s1.07-.51,1.07-1.28V21.22h2v2.27c0,1.88-.77,3.28-3.12,3.28S120.4,25.26,120.4,23.22Z"/><path class="cls-4" d="M127.85,13.46h2.22V26.61h-2.22Z"/><path class="cls-4" d="M130.9,13.46h5.88v1.81H135V26.61h-2.23V15.27H130.9Z"/><path class="cls-4" d="M137.65,13.46h2.21V26.61h-2.21Z"/><path class="cls-4" d="M141,13.46h5.27v1.81h-3.06V19h2.19v1.78h-2.19v4h3.06v1.8H141Z"/><path class="cls-4" d="M146.89,23.78V22h2.05v1.8c0,.74.33,1.16,1.09,1.16s1-.46,1-1.16v-.5a2.37,2.37,0,0,0-1-1.86l-1.3-1.3c-1.26-1.25-1.85-2-1.85-3.51V16.2c0-1.63,1-2.89,3.11-2.89s3.08,1.09,3.08,3v1.06h-2V16.22c0-.76-.34-1.13-1-1.13A1,1,0,0,0,149,16.18v.27c0,.74.41,1.16,1.05,1.79l1.41,1.39c1.21,1.22,1.79,2,1.79,3.42v.63c0,1.81-1,3.09-3.22,3.09S146.89,25.51,146.89,23.78Z"/></g><g class="cls-3"><path class="cls-4" d="M44,45.93l2.48-13.15H49L51.5,45.93H49.23l-.41-2.4H46.47l-.38,2.4Zm2.77-4.17h1.77l-.87-5.27h0Z"/><path class="cls-4" d="M54.23,37.67v8.26H52.37V32.78h2.17l2.39,7.55V32.78h1.84V45.93H56.83Z"/><path class="cls-4" d="M66.61,36.31V42.4c0,2-.83,3.53-3.2,3.53H60V32.78h3.42C65.78,32.78,66.61,34.28,66.61,36.31Zm-3.47,7.82c.91,0,1.26-.54,1.26-1.34V35.91a1.15,1.15,0,0,0-1.26-1.32h-.93v9.54Z"/><path class="cls-4" d="M69.83,42.54V36.18c0-2.06,1-3.55,3.3-3.55s3.12,1.36,3.12,3.3v1.55h-2V35.75c0-.81-.27-1.28-1.06-1.28S72,35,72,35.83v7.06c0,.79.33,1.36,1.13,1.36s1.06-.51,1.06-1.28V40.54h2v2.27c0,1.88-.77,3.28-3.12,3.28S69.83,44.58,69.83,42.54Z"/><path class="cls-4" d="M77.42,42.54V36.18c0-2.06,1-3.55,3.33-3.55s3.36,1.49,3.36,3.55v6.36c0,2-1,3.55-3.36,3.55S77.42,44.58,77.42,42.54Zm4.48.35V35.83c0-.8-.35-1.36-1.15-1.36s-1.12.56-1.12,1.36v7.06c0,.79.35,1.36,1.12,1.36S81.9,43.68,81.9,42.89Z"/><path class="cls-4" d="M91.42,37.4h-.06l-1.49,8.53h-1L87.19,37.4h0v8.53H85.33V32.78h2.58l1.44,7.41h0l1.28-7.41h2.79V45.93h-2Z"/><path class="cls-4" d="M100.75,37.4h-.06L99.2,45.93h-1L96.52,37.4h0v8.53H94.66V32.78h2.58l1.44,7.41h0L100,32.78h2.79V45.93h-2Z"/><path class="cls-4" d="M110.41,32.78v9.95c0,2-.87,3.36-3.12,3.36s-3.3-1.32-3.3-3.36V32.78h2.21V43c0,.77.31,1.3,1.09,1.3s1.09-.53,1.09-1.3V32.78Z"/><path class="cls-4" d="M113.5,37.67v8.26h-1.86V32.78h2.17l2.38,7.55V32.78H118V45.93H116.1Z"/><path class="cls-4" d="M119.26,32.78h2.21V45.93h-2.21Z"/><path class="cls-4" d="M122.44,32.78h5.88v1.81H126.5V45.93h-2.23V34.59h-1.83Z"/><path class="cls-4" d="M129.31,32.78h2.21V45.93h-2.21Z"/><path class="cls-4" d="M132.76,32.78H138v1.81H135v3.76h2.2v1.78H135v4H138v1.8h-5.28Z"/><path class="cls-4" d="M139,43.1V41.34H141v1.8c0,.74.33,1.16,1.08,1.16s1-.46,1-1.16v-.5a2.38,2.38,0,0,0-1-1.87l-1.3-1.29c-1.26-1.25-1.84-2-1.84-3.52v-.44c0-1.63.95-2.89,3.1-2.89s3.09,1.08,3.09,3v1.06h-2V35.54c0-.76-.35-1.13-1-1.13a1,1,0,0,0-1,1.09v.27c0,.74.4,1.16,1,1.79L143.53,39c1.2,1.22,1.78,2,1.78,3.41V43c0,1.81-1,3.09-3.22,3.09S139,44.83,139,43.1Z"/></g></g></g></svg>