<svg xmlns="http://www.w3.org/2000/svg" viewBox="0 0 160.92 160.93"><defs><style>.cls-1{fill:#3fae49;}.cls-1,.cls-2,.cls-3{opacity:0.97;}.cls-2,.cls-4{fill:#fff;}</style></defs><title>資產 15</title><g id="圖層_2" data-name="圖層 2"><g id="ENG"><rect class="cls-1" width="160.92" height="160.93"/><polygon class="cls-2" points="11.78 19.36 11.78 25.05 11.83 25.05 15.66 21.08 15.71 21.08 15.71 45.92 21.16 45.92 21.16 13.47 16.81 13.47 11.78 19.36"/><path class="cls-2" d="M34.13,23.76c-2.15,0-3.73.76-4.59,2.25h-.05V17.92h9.38V13.47H24.51V31.75h5V31c0-1.91.86-3,2.39-3,1.68,0,2.35,1.15,2.35,2.92v7.85c0,1.72-.62,2.91-2.3,2.91-1.87,0-2.53-1.24-2.53-3.15V34.53h-5v3.69c0,4.92,2,8.08,7.51,8.08s7.75-2.92,7.75-7.42V30.94c0-5.12-2.63-7.18-5.55-7.18"/><g class="cls-3"><path class="cls-4" d="M62.71,108.81h4.74a.36.36,0,0,1,.36.36v11.72a.36.36,0,0,1-.36.36H62.71a.36.36,0,0,1-.36-.36V109.16A.35.35,0,0,1,62.71,108.81Z"/><path class="cls-4" d="M119.53,126.27H41.39a.37.37,0,0,0-.36.37v4.77a.35.35,0,0,0,.36.35h78.14a.35.35,0,0,0,.36-.35v-4.77a.37.37,0,0,0-.36-.37"/><path class="cls-4" d="M119.53,135.76H41.39a.36.36,0,0,0-.36.35v4.79a.36.36,0,0,0,.36.36h78.14a.36.36,0,0,0,.36-.36v-4.79a.36.36,0,0,0-.36-.35"/><path class="cls-4" d="M104.66,95.84a11.49,11.49,0,0,0-6.76-2.55A9,9,0,0,0,91.63,96a.64.64,0,0,0-.21.49v.42a.7.7,0,0,0,.22.54.64.64,0,0,0,.55.12.8.8,0,0,0,.15,0,1.08,1.08,0,0,0,.39-.25,6.26,6.26,0,0,1,3.13-.65,11.82,11.82,0,0,1,8,3.37l.07.07a1,1,0,0,0,.68.28.89.89,0,0,0,.66-.28l.07-.06a11.84,11.84,0,0,1,8.06-3.38,6.28,6.28,0,0,1,3.14.65,1.08,1.08,0,0,0,.43.26,1.06,1.06,0,0,0,.46,0,.67.67,0,0,0,.49-.65v-.37a.71.71,0,0,0-.21-.49,9,9,0,0,0-6.35-2.73,11.47,11.47,0,0,0-6.75,2.55"/><path class="cls-4" d="M99.81,64.69a.7.7,0,0,0-.34.41l-.08.26a.65.65,0,0,0,.11.59.63.63,0,0,0,.48.26.18.18,0,0,0,.1,0,1,1,0,0,0,.37-.1,2.4,2.4,0,0,1,.48-.05,6.76,6.76,0,0,1,5.58,3.64l0,.06a.83.83,0,0,0,.5.4,1,1,0,0,0,.25,0,.8.8,0,0,0,.39-.09l0,0a7.78,7.78,0,0,1,3.49-.86,5.28,5.28,0,0,1,3.56,1.14,1,1,0,0,0,.26.29,1.51,1.51,0,0,0,.26.12l.11,0h.07a.67.67,0,0,0,.31-.07.66.66,0,0,0,.33-.4l.07-.23a.63.63,0,0,0,0-.19.64.64,0,0,0-.09-.34,5.89,5.89,0,0,0-5.3-3.19,8.44,8.44,0,0,0-2.82.53,6.81,6.81,0,0,0-5.27-3,6.56,6.56,0,0,0-2.93.74"/><path class="cls-4" d="M83.3,76.71l0,.35a.66.66,0,0,0,.32.53.64.64,0,0,0,.52.08l.12,0a1,1,0,0,0,.33-.25,5.76,5.76,0,0,1,3-.68,9.61,9.61,0,0,1,6.18,2.34l.06,0a.9.9,0,0,0,.6.23h.06a.89.89,0,0,0,.61-.3l.05,0A9.39,9.39,0,0,1,102,75.81a4.66,4.66,0,0,1,2,.37,1,1,0,0,0,.41.21,1,1,0,0,0,.28,0,.53.53,0,0,0,.17,0,.66.66,0,0,0,.44-.67l0-.31a.64.64,0,0,0-.23-.46,7.66,7.66,0,0,0-5-2,9.35,9.35,0,0,0-5.85,2.42A9.81,9.81,0,0,0,89,73.65a7.49,7.49,0,0,0-5.55,2.56.72.72,0,0,0-.18.5"/><path class="cls-4" d="M43.76,83a8.47,8.47,0,0,1,8.47-8.47l.54,0a11.46,11.46,0,0,1,22.88.87,11.31,11.31,0,0,1-1.16,5,12.8,12.8,0,0,1-2.77,25.3l-17.1-.1h0A9.06,9.06,0,0,1,48,90.33,8.47,8.47,0,0,1,43.76,83Z"/></g><g class="cls-3"><path class="cls-4" d="M51.42,13.48h2.22V24.82h2.63v1.81H51.42Z"/><path class="cls-4" d="M57.48,13.48h2.21V26.63H57.48Z"/><path class="cls-4" d="M61.36,13.48h5.18v1.8h-3V19h2.21v1.79H63.57v5.8H61.36Z"/><path class="cls-4" d="M67.68,13.48H73v1.8H69.89V19h2.19v1.79H69.89v4H73v1.81H67.68Z"/></g><g class="cls-3"><path class="cls-4" d="M51.41,42.56V36.19c0-2,1-3.55,3.33-3.55s3.36,1.5,3.36,3.55v6.37c0,2-1,3.54-3.36,3.54S51.41,44.59,51.41,42.56Zm4.48.34v-7c0-.8-.35-1.36-1.15-1.36s-1.12.56-1.12,1.36v7c0,.8.35,1.36,1.12,1.36S55.89,43.7,55.89,42.9Z"/><path class="cls-4" d="M61.19,37.69V46H59.32V32.8H61.5l2.38,7.54V32.8h1.84V46H63.78Z"/><path class="cls-4" d="M70.5,32.8h2.21V44.15h2.64V46H70.5Z"/><path class="cls-4" d="M76,46,78.43,32.8H81L83.46,46H81.19l-.41-2.41H78.43L78,46Zm2.77-4.17h1.77l-.88-5.28h0Z"/><path class="cls-4" d="M86.21,37.69V46H84.35V32.8h2.17l2.39,7.54V32.8h1.84V46H88.81Z"/><path class="cls-4" d="M98.78,36.33v6.09c0,2-.83,3.53-3.2,3.53H92.17V32.8h3.41C98,32.8,98.78,34.29,98.78,36.33Zm-3.47,7.82c.91,0,1.26-.55,1.26-1.34V35.92a1.16,1.16,0,0,0-1.26-1.32h-.93v9.55Z"/></g></g></g></svg>