<svg xmlns="http://www.w3.org/2000/svg" width="136" height="59" viewBox="0 0 136 59">
  <g id="helsiki_icon3_EN" transform="translate(-168 2552)">
    <g id="组_4439" data-name="组 4439" transform="translate(7 7)">
      <g id="组_4437" data-name="组 4437" transform="translate(161 -2559)">
        <g id="组_4382" data-name="组 4382" transform="translate(10.424 10.507)">
          <rect id="矩形_234" data-name="矩形 234" width="38.013" height="2.476" transform="translate(0 30.12)" fill="#5dbb47"/>
          <rect id="矩形_235" data-name="矩形 235" width="38.013" height="2.476" transform="translate(0 34.702)" fill="#5dbb47"/>
          <path id="路径_2219" data-name="路径 2219" d="M345.256,455.836a6.088,6.088,0,0,0-6.088-6.088l-.056,0a5.526,5.526,0,1,0-10.475-2.72,4.041,4.041,0,0,0-2.57,7.523,4.537,4.537,0,0,0,3.547,7.37,4.567,4.567,0,0,0,.648-.052,3.124,3.124,0,0,0,.508.052h8.585c.063,0,.122-.015.184-.019A6.083,6.083,0,0,0,345.256,455.836Z" transform="translate(-322.844 -441.751)" fill="#5dbb47"/>
          <rect id="矩形_236" data-name="矩形 236" width="2.559" height="6.109" transform="translate(10.401 21.659)" fill="#5dbb47"/>
          <path id="路径_2220" data-name="路径 2220" d="M362.547,448.85a3.23,3.23,0,0,0-2.792.994,3.247,3.247,0,0,0-2.883-.686,3.993,3.993,0,0,0-2.779,1.919,8.166,8.166,0,0,1,2.995-.546c2.311.192,2.775,1.324,2.775,1.324l0-.048,0,.048s.339-1.175,2.616-1.616a8.168,8.168,0,0,1,3.036.219A3.992,3.992,0,0,0,362.547,448.85Z" transform="translate(-333.893 -444.336)" fill="#5dbb47"/>
          <path id="路径_2221" data-name="路径 2221" d="M373.477,443.14a4.174,4.174,0,0,1-4.334-1.37,3.194,3.194,0,0,0-2.622.654,6.535,6.535,0,0,1,2.4.436c1.676.8,1.7,1.773,1.7,1.773l.012-.036-.011.037s.585-.784,2.413-.471a6.527,6.527,0,0,1,2.211,1.02A3.2,3.2,0,0,0,373.477,443.14Z" transform="translate(-338.455 -441.732)" fill="#5dbb47"/>
          <path id="路径_2222" data-name="路径 2222" d="M370.614,464.433a3.716,3.716,0,0,0-3.273.947,3.735,3.735,0,0,0-3.262-.987,4.592,4.592,0,0,0-3.323,2.013,9.4,9.4,0,0,1,3.476-.42c2.64.38,3.094,1.711,3.094,1.711v0s.47-1.325,3.114-1.675a9.393,9.393,0,0,1,3.47.461A4.592,4.592,0,0,0,370.614,464.433Z" transform="translate(-336.339 -450.031)" fill="#5dbb47"/>
        </g>
        <g id="组_4384" data-name="组 4384" transform="translate(0 0)">
          <g id="椭圆_9" data-name="椭圆 9" fill="none" stroke="#5dbb47" stroke-width="3">
            <circle cx="29.5" cy="29.5" r="29.5" stroke="none"/>
            <circle cx="29.5" cy="29.5" r="28" fill="none"/>
          </g>
        </g>
      </g>
    </g>
    <g id="组_4442" data-name="组 4442" transform="translate(48.689 -2541.862)">
      <text id="Life_on_Land" data-name="Life on Land" transform="translate(185.311 -0.138)" fill="#5dbb47" font-size="15" font-family="SegoeUI-Bold, Segoe UI" font-weight="700"><tspan x="0" y="16">Life on </tspan><tspan x="0" y="34">Land</tspan></text>
    </g>
  </g>
</svg>
