<svg xmlns="http://www.w3.org/2000/svg" viewBox="0 0 160.92 160.93"><defs><style>.cls-1{fill:#fdb713;}.cls-1,.cls-2,.cls-3{opacity:0.97;}.cls-2,.cls-4{fill:#fff;}</style></defs><title>資產 7</title><g id="圖層_2" data-name="圖層 2"><g id="ENG"><rect class="cls-1" width="160.92" height="160.93"/><polygon class="cls-2" points="16.51 17.94 24.93 17.94 17.65 45.93 23.06 45.93 30.19 18.51 30.19 13.49 16.51 13.49 16.51 17.94"/><g class="cls-3"><path class="cls-4" d="M45.63,26.62l2.48-13.15h2.52l2.51,13.15H50.87l-.41-2.41H48.11l-.38,2.41Zm2.77-4.17h1.77l-.87-5.28h0Z"/><path class="cls-4" d="M54,13.47h5.18v1.8h-3V19h2.21v1.78H56.16v5.8H54Z"/><path class="cls-4" d="M60,13.47h5.18v1.8h-3V19h2.21v1.78H62.22v5.8H60Z"/><path class="cls-4" d="M65.86,23.23V16.86c0-2,1-3.54,3.34-3.54s3.36,1.49,3.36,3.54v6.37c0,2-1,3.54-3.36,3.54S65.86,25.26,65.86,23.23Zm4.48.34v-7c0-.8-.34-1.36-1.14-1.36s-1.13.56-1.13,1.36v7.05c0,.8.35,1.36,1.13,1.36S70.34,24.37,70.34,23.57Z"/><path class="cls-4" d="M75.93,20.59v6H73.72V13.47h3.22c2.23,0,3,1.11,3,3v1.69c0,1.41-.5,2.25-1.76,2.54l2.11,6H78Zm0-5.32v4.1h.74a1,1,0,0,0,1.08-1.09V16.34c0-.72-.32-1.07-1.08-1.07Z"/><path class="cls-4" d="M87.71,17v6.09c0,2-.84,3.53-3.2,3.53H81.09V13.47h3.42C86.87,13.47,87.71,15,87.71,17Zm-3.48,7.82c.92,0,1.27-.55,1.27-1.34V16.59a1.16,1.16,0,0,0-1.27-1.32H83.3v9.55Z"/><path class="cls-4" d="M88.23,26.62l2.48-13.15h2.53l2.5,13.15H93.47l-.41-2.41H90.71l-.38,2.41ZM91,22.45h1.76l-.87-5.28h0Z"/><path class="cls-4" d="M96.55,13.47h3.2c2.21,0,3,1,3,2.89V17.7a1.92,1.92,0,0,1-1.32,2.09A2,2,0,0,1,103,22v1.75c0,1.86-.83,2.89-3,2.89H96.55ZM98.76,19h.78a.93.93,0,0,0,1-1.07V16.34a.93.93,0,0,0-1.07-1.07h-.76Zm0,1.68v4.12h1a1,1,0,0,0,1.09-1.07v-2c0-.7-.33-1.07-1.1-1.07Z"/><path class="cls-4" d="M104,13.47h2.21V24.82h2.64v1.8H104Z"/><path class="cls-4" d="M109.8,13.47h5.28v1.8H112V19h2.2v1.78H112v4h3.07v1.8H109.8Z"/><path class="cls-4" d="M117.76,26.62l2.48-13.15h2.52l2.5,13.15H123l-.4-2.41h-2.35l-.39,2.41Zm2.77-4.17h1.77l-.88-5.28h0Z"/><path class="cls-4" d="M127.94,18.36v8.26h-1.86V13.47h2.17L130.64,21V13.47h1.84V26.62h-1.94Z"/><path class="cls-4" d="M140.26,17v6.09c0,2-.83,3.53-3.2,3.53h-3.41V13.47h3.41C139.43,13.47,140.26,15,140.26,17Zm-3.47,7.82c.91,0,1.26-.55,1.26-1.34V16.59a1.16,1.16,0,0,0-1.26-1.32h-.93v9.55Z"/></g><g class="cls-3"><path class="cls-4" d="M46,42.54V36.21c0-2.05,1-3.53,3.28-3.53S52.35,34,52.35,36V37.5h-2V35.78c0-.81-.27-1.27-1.06-1.27s-1.12.56-1.12,1.35v7c0,.79.33,1.35,1.12,1.35s1.06-.5,1.06-1.28V40.55h2v2.26c0,1.87-.77,3.26-3.11,3.26S46,44.57,46,42.54Z"/><path class="cls-4" d="M53.74,32.83h2.2V44.12h2.62v1.8H53.74Z"/><path class="cls-4" d="M59.76,32.83H65v1.79H62v3.75h2.18v1.77H62v4H65v1.8H59.76Z"/><path class="cls-4" d="M66,45.92,68.5,32.83H71L73.5,45.92H71.24l-.4-2.4H68.5l-.38,2.4Zm2.76-4.15h1.76l-.87-5.25h0Z"/><path class="cls-4" d="M76.46,37.69v8.23H74.6V32.83h2.16l2.38,7.51V32.83H81V45.92H79Z"/><path class="cls-4" d="M86.86,32.83h5.25v1.79h-3v3.75h2.18v1.77H89.06v4h3v1.8H86.86Z"/><path class="cls-4" d="M95.27,37.69v8.23H93.42V32.83h2.16L98,40.34V32.83h1.84V45.92H97.86Z"/><path class="cls-4" d="M101.22,32.83h5.25v1.79h-3v3.75h2.18v1.77h-2.18v4h3v1.8h-5.25Z"/><path class="cls-4" d="M110,39.91v6h-2.2V32.83H111c2.22,0,3,1.1,3,2.93v1.68c0,1.41-.5,2.24-1.75,2.53l2.1,6h-2.32Zm0-5.29V38.7h.73a1,1,0,0,0,1.08-1.08V35.69c0-.72-.33-1.07-1.08-1.07Z"/><path class="cls-4" d="M118.74,38.93h3.13v7h-1.59V44.49a2,2,0,0,1-2.1,1.58c-1.89,0-2.76-1.5-2.76-3.53V36.21c0-2.05,1-3.53,3.3-3.53S121.87,34,121.87,36v1.15h-2V35.78c0-.81-.31-1.27-1.1-1.27s-1.14.56-1.14,1.35v7c0,.79.33,1.35,1.08,1.35s1.08-.41,1.08-1.26V40.67h-1Z"/><path class="cls-4" d="M127.56,40.94v5h-2.2v-5l-2.45-8.11h2.3l1.33,5h0l1.33-5H130Z"/></g><g class="cls-3"><path class="cls-4" d="M80.67,142.4a2,2,0,0,0,1.94-1.82V130.26a1.94,1.94,0,0,0-3.88,0v10.32a2,2,0,0,0,1.94,1.82"/><path class="cls-4" d="M80.46,78A23.59,23.59,0,1,0,104,101.55,23.59,23.59,0,0,0,80.46,78m-1.75,9.32a1.75,1.75,0,0,1,3.5,0v8.09a1.75,1.75,0,0,1-3.5,0Zm1.75,26.35a12.27,12.27,0,0,1-3.65-24v4.56a8,8,0,1,0,7.27,0V89.65a12.27,12.27,0,0,1-3.62,24"/><path class="cls-4" d="M53.38,101.35a2,2,0,0,0-1.81-1.94H41.24a1.94,1.94,0,0,0,0,3.88H51.57a2,2,0,0,0,1.81-1.94"/><path class="cls-4" d="M121.51,101.35a2,2,0,0,0-1.82-1.94H109.37a1.94,1.94,0,0,0,0,3.88h10.32a2,2,0,0,0,1.82-1.94"/><path class="cls-4" d="M80.47,74.27a2,2,0,0,0,1.93-1.81V62.13a1.94,1.94,0,0,0-3.88,0V72.46a2,2,0,0,0,2,1.81"/><path class="cls-4" d="M57,87.9a2,2,0,0,0-.61-2.58l-9-5.13a1.94,1.94,0,0,0-1.93,3.36l9,5.13A2,2,0,0,0,57,87.9"/><path class="cls-4" d="M116.09,121.74a2,2,0,0,0-.61-2.58l-9-5.13a1.94,1.94,0,0,0-1.92,3.36l9,5.13a2,2,0,0,0,2.54-.78"/><path class="cls-4" d="M93.92,77.85a2,2,0,0,0,2.57-.61l5.13-9a1.94,1.94,0,0,0-3.36-1.93l-5.13,9a2,2,0,0,0,.79,2.54"/><path class="cls-4" d="M60.08,137a2,2,0,0,0,2.58-.62l5.13-9a1.95,1.95,0,0,0-3.37-1.93l-5.13,9a2,2,0,0,0,.79,2.54"/><path class="cls-4" d="M67,77.87a2,2,0,0,0,.77-2.53l-5.15-9a1.94,1.94,0,0,0-3.36,1.94l5.15,9a2,2,0,0,0,2.59.6"/><path class="cls-4" d="M100.93,136.93a2,2,0,0,0,.77-2.53l-5.15-9a1.94,1.94,0,0,0-3.36,1.94l5.15,9a2,2,0,0,0,2.59.6"/><path class="cls-4" d="M103.94,87.85a2,2,0,0,0,2.53.78l9-5.15a1.94,1.94,0,0,0-1.94-3.36l-8.95,5.15a2,2,0,0,0-.6,2.58"/><path class="cls-4" d="M44.88,121.82a2,2,0,0,0,2.54.77l8.95-5.15a1.94,1.94,0,0,0-1.93-3.36l-9,5.15a2,2,0,0,0-.6,2.59"/></g></g></g></svg>