<svg xmlns="http://www.w3.org/2000/svg" viewBox="0 0 160.92 160.93"><defs><style>.cls-1{fill:#007dbb;}.cls-1,.cls-2,.cls-3{opacity:0.97;}.cls-2,.cls-4{fill:#fff;}</style></defs><title>資產 14</title><g id="圖層_2" data-name="圖層 2"><g id="ENG"><rect class="cls-1" width="160.92" height="160.93"/><polygon class="cls-2" points="20.97 13.54 20.97 45.97 15.51 45.97 15.51 21.15 15.46 21.15 11.64 25.12 11.59 25.12 11.59 19.42 16.61 13.54 20.97 13.54"/><path class="cls-2" d="M37.57,46V40.72h2.2V36.46h-2.2V13.53H32.21L22.79,37.37v3.35H32.4V46Zm-10-9.52L32.45,23.1h0V36.46Z"/><g class="cls-3"><path class="cls-4" d="M123.84,117.42c-2-2.74-15.11-19.42-33.45-19.42-15.92,0-33,14.45-33,14.45S51,99.35,37.94,98.09l-.25,0h-.08a.54.54,0,0,0-.5.52,1.57,1.57,0,0,0,.2.48c1.69,2.8,6,10.77,6,18.74s-4.33,16-6,18.76l-.11.18a.54.54,0,0,0-.08.28.51.51,0,0,0,.48.51h.28C51,136.3,57.43,123.16,57.43,123.16s17,14.44,33,14.44c18.34,0,31.43-16.68,33.45-19.41.06-.07.1-.14.14-.18a.49.49,0,0,0,0-.2.39.39,0,0,0,0-.2,1.82,1.82,0,0,0-.14-.19m-23.25,2.49a5.35,5.35,0,1,1,5.36-5.35,5.35,5.35,0,0,1-5.36,5.35"/><path class="cls-4" d="M37.52,66.65l-.1,0a.52.52,0,0,0-.52.53v3.65a.5.5,0,0,0,.15.38c8.85,7.69,17.24.48,19.18-1.42a.5.5,0,0,1,.14-.15.55.55,0,0,1,.29-.09.5.5,0,0,1,.35.14l0,0c10,9.54,20.48,1.81,22.67,0l.21-.2a.45.45,0,0,1,.2,0,.49.49,0,0,1,.21,0l.21.2c2.18,1.81,12.67,9.54,22.67,0,0,0,0,0,0,0a.51.51,0,0,1,.36-.14.62.62,0,0,1,.29.09.5.5,0,0,1,.14.15c1.94,1.9,10.32,9.11,19.18,1.42a.55.55,0,0,0,.15-.38V67.16a.52.52,0,0,0-.52-.53l-.11,0-.27.14c-2.72,1.36-11.17,4.61-18.83-2.64l-.23-.22a.51.51,0,0,0-.22,0l-.16,0a.61.61,0,0,0-.26.21C100.46,65.86,90,73,80.64,64.25l-.14-.14a.54.54,0,0,0-.75,0l-.14.14C70.28,73,59.78,65.86,57.5,64.12a.61.61,0,0,0-.26-.21,1,1,0,0,0-.17,0,.59.59,0,0,0-.22,0c-.07.08-.15.15-.22.22-7.67,7.25-16.11,4-18.84,2.64l-.27-.14"/><path class="cls-4" d="M56.23,83.05a.47.47,0,0,1,.14-.14.48.48,0,0,1,.29-.1A.47.47,0,0,1,57,83l0,0c10,9.53,20.48,1.8,22.67,0l.21-.21a.64.64,0,0,1,.2,0,.66.66,0,0,1,.21,0l.21.21c2.18,1.8,12.67,9.53,22.67,0a0,0,0,0,1,0,0,.48.48,0,0,1,.36-.15.51.51,0,0,1,.29.1.47.47,0,0,1,.14.14C106,85,114.34,92.17,123.2,84.47a.54.54,0,0,0,.15-.37V80.44a.52.52,0,0,0-.52-.52l-.11,0-.27.13c-2.72,1.37-11.17,4.6-18.83-2.64l-.22-.21a.46.46,0,0,0-.23,0,.32.32,0,0,0-.16,0,.42.42,0,0,0-.26.19c-2.29,1.74-12.78,8.84-22.12.13l-.13-.14a.56.56,0,0,0-.38-.14.55.55,0,0,0-.37.14l-.14.14c-9.33,8.71-19.83,1.61-22.11-.13a.42.42,0,0,0-.26-.19.35.35,0,0,0-.17,0,.42.42,0,0,0-.22,0l-.23.21c-7.66,7.24-16.1,4-18.83,2.64l-.27-.13-.1,0a.52.52,0,0,0-.52.52V84.1a.5.5,0,0,0,.15.37c8.85,7.7,17.24.49,19.18-1.42"/></g><g class="cls-3"><path class="cls-4" d="M51.35,13.48h2.21V24.82H56.2v1.81H51.35Z"/><path class="cls-4" d="M57.23,13.48h2.21V26.63H57.23Z"/><path class="cls-4" d="M60.92,13.48h5.17v1.8h-3V19h2.21v1.79H63.13v5.8H60.92Z"/><path class="cls-4" d="M67.08,13.48h5.28v1.8H69.3V19h2.19v1.79H69.3v4h3.06v1.81H67.08Z"/><path class="cls-4" d="M76.49,13.48h3.2c2.22,0,3,1,3,2.89V17.7a1.91,1.91,0,0,1-1.32,2.1A2,2,0,0,1,83,22v1.75c0,1.86-.83,2.89-3,2.89H76.49ZM78.71,19h.77a.93.93,0,0,0,1-1.06V16.35a.93.93,0,0,0-1.07-1.07h-.75Zm0,1.69v4.11h1a1,1,0,0,0,1.09-1.06v-2c0-.7-.33-1.07-1.1-1.07Z"/><path class="cls-4" d="M83.92,13.48H89.2v1.8H86.13V19h2.2v1.79h-2.2v4H89.2v1.81H83.92Z"/><path class="cls-4" d="M90.54,13.48h2.21V24.82h2.64v1.81H90.54Z"/><path class="cls-4" d="M96.24,23.23V16.87c0-2.06,1-3.55,3.34-3.55s3.35,1.49,3.35,3.55v6.36c0,2-1,3.55-3.35,3.55S96.24,25.27,96.24,23.23Zm4.48.35V16.52c0-.79-.34-1.36-1.14-1.36s-1.13.57-1.13,1.36v7.06c0,.8.35,1.36,1.13,1.36S100.72,24.38,100.72,23.58Z"/><path class="cls-4" d="M108.79,18.5l-1.24,8.13h-2.07l-1.77-13.15h2.13l1,8.34h0L108,13.48h1.8L111,21.82h0l1-8.34h1.86l-1.7,13.15h-2.1l-1.3-8.13Z"/></g><g class="cls-3"><path class="cls-4" d="M56.13,37.8l-1.24,8.13H52.81L51.05,32.78h2.13l1,8.34h0l1.1-8.34h1.81l1.22,8.34h0l1-8.34h1.86L59.54,45.93H57.45l-1.3-8.13Z"/><path class="cls-4" d="M61,45.93l2.48-13.15H66l2.5,13.15H66.27l-.4-2.41H63.52l-.39,2.41Zm2.77-4.17h1.77l-.88-5.28h0Z"/><path class="cls-4" d="M68.12,32.78H74v1.8H72.17V45.93H69.94V34.58H68.12Z"/><path class="cls-4" d="M75,32.78H80.3v1.8H77.23v3.77h2.2v1.78h-2.2v4H80.3v1.81H75Z"/><path class="cls-4" d="M83.69,39.9v6H81.48V32.78H84.7c2.23,0,3,1.1,3,2.95v1.68c0,1.42-.51,2.25-1.77,2.55l2.12,6H85.77Zm0-5.32v4.09h.74a1,1,0,0,0,1.09-1.08V35.65c0-.72-.33-1.07-1.09-1.07Z"/></g></g></g></svg>