<svg xmlns="http://www.w3.org/2000/svg" width="195" height="58" viewBox="0 0 195 58">
  <g id="huainam_icon1_EN" transform="translate(-1291 -102)">
    <text id="Affordable_and_Clean_Energy" data-name="Affordable and Clean Energy" transform="translate(1360 114)" fill="#f9b31f" font-size="15" font-family="SegoeUI-Bold, Segoe UI" font-weight="700"><tspan x="0" y="16">Affordable and </tspan><tspan x="0" y="34">Clean Energy</tspan></text>
    <g id="组_4468" data-name="组 4468" transform="translate(1490.689 68)">
      <g id="组_4455" data-name="组 4455">
        <g id="组_4404" data-name="组 4404" transform="translate(-5.483 13)">
          <g id="组_4401" data-name="组 4401" transform="translate(-194.207 21)">
            <g id="椭圆_15" data-name="椭圆 15" transform="translate(0 0)" fill="none" stroke="#f9b31f" stroke-width="3">
              <ellipse cx="29.5" cy="29" rx="29.5" ry="29" stroke="none"/>
              <ellipse cx="29.5" cy="29" rx="28" ry="27.5" fill="none"/>
            </g>
          </g>
        </g>
        <g id="组_4456" data-name="组 4456" transform="translate(-239.972 -240.022)">
          <path id="路径_2246" data-name="路径 2246" d="M74.757,296.236a11.8,11.8,0,1,0,11.8,11.8A11.8,11.8,0,0,0,74.757,296.236Zm-.574,4.413a.678.678,0,0,1,1.356,0v4.329a.678.678,0,0,1-1.356,0Zm7.107,8.152a11.757,11.757,0,0,1-1.136,2.5,7.1,7.1,0,0,1-3.935,2.576H74c-.246-.086-.491-.178-.738-.259a6.142,6.142,0,0,1-4.255-4.538c-.092-.352-.158-.711-.236-1.066v-.634c.171-.661.294-1.34.524-1.98a6.12,6.12,0,0,1,2.807-3.209c.42-.248.691-.162.864.286a2.727,2.727,0,0,0,.215.51c.37.572.2.893-.37,1.251a4.067,4.067,0,0,0-1.673,4.72,4.181,4.181,0,0,0,4.209,2.843,4.135,4.135,0,0,0,3.77-3.2,3.962,3.962,0,0,0-1.737-4.335c-.884-.52-.867-1.039-.506-1.784.1-.213.2-.431.3-.647h.317a17.794,17.794,0,0,1,1.815,1.238,7.6,7.6,0,0,1,1.988,3.516Z" transform="translate(-4.474 -4.658)" fill="#fac315"/>
          <rect id="矩形_239" data-name="矩形 239" width="1.809" height="6.632" rx="0.904" transform="translate(69.378 282.522)" fill="#fac315"/>
          <rect id="矩形_240" data-name="矩形 240" width="1.809" height="6.632" rx="0.904" transform="translate(69.378 316.889)" fill="#fac315"/>
          <rect id="矩形_241" data-name="矩形 241" width="1.809" height="6.632" rx="0.904" transform="translate(90.783 302.117) rotate(90)" fill="#fac315"/>
          <rect id="矩形_242" data-name="矩形 242" width="1.809" height="6.632" rx="0.904" transform="translate(56.415 302.117) rotate(90)" fill="#fac315"/>
          <rect id="矩形_243" data-name="矩形 243" width="1.809" height="6.632" rx="0.904" transform="translate(88.546 312.377) rotate(119.65)" fill="#fac315"/>
          <rect id="矩形_244" data-name="矩形 244" width="1.809" height="6.632" rx="0.904" transform="translate(58.678 295.375) rotate(119.65)" fill="#fac315"/>
          <rect id="矩形_245" data-name="矩形 245" width="1.809" height="6.632" rx="0.904" transform="matrix(-0.872, 0.489, -0.489, -0.872, 81.102, 320.458)" fill="#fac315"/>
          <rect id="矩形_246" data-name="矩形 246" width="1.809" height="6.632" rx="0.904" transform="translate(64.286 290.485) rotate(150.706)" fill="#fac315"/>
          <rect id="矩形_247" data-name="矩形 247" width="1.809" height="6.632" rx="0.904" transform="translate(60.903 321.272) rotate(-150.274)" fill="#fac315"/>
          <rect id="矩形_248" data-name="矩形 248" width="1.809" height="6.632" rx="0.904" transform="translate(77.944 291.427) rotate(-150.274)" fill="#fac315"/>
          <rect id="矩形_249" data-name="矩形 249" width="1.809" height="6.632" rx="0.904" transform="matrix(-0.502, -0.865, 0.865, -0.502, 53.012, 314.102)" fill="#fac315"/>
          <rect id="矩形_250" data-name="矩形 250" width="1.809" height="6.632" rx="0.904" transform="matrix(-0.502, -0.865, 0.865, -0.502, 82.728, 296.837)" fill="#fac315"/>
        </g>
      </g>
    </g>
  </g>
</svg>
