<svg xmlns="http://www.w3.org/2000/svg" viewBox="0 0 160.92 160.93"><defs><style>.cls-1{fill:#48773c;}.cls-1,.cls-2,.cls-3{opacity:0.97;}.cls-2,.cls-4{fill:#fff;}</style></defs><title>資產 13</title><g id="圖層_2" data-name="圖層 2"><g id="ENG"><rect class="cls-1" width="160.92" height="160.93"/><polygon class="cls-2" points="20.31 13.5 20.31 45.93 14.86 45.93 14.86 21.11 14.81 21.11 10.98 25.07 10.94 25.07 10.94 19.38 15.96 13.5 20.31 13.5"/><path class="cls-2" d="M38.3,20.53v2.82a5.2,5.2,0,0,1-3.73,5.27c2.72.62,4,2.53,4,5.5V38.9c0,4.5-2.39,7.41-7.89,7.41s-7.51-3.15-7.51-8.08V34h5v4.64c0,1.92.66,3.16,2.53,3.16,1.67,0,2.44-1.19,2.44-2.92V33.5c0-1.73-.77-2.64-2.68-2.64H28.16V26.7h2.05c1.77,0,2.92-.91,2.92-2.63V20.58c0-1.77-.62-2.92-2.34-2.92s-2.35,1.15-2.35,3.16v3.3h-5V21.25c0-4.79,2-8.13,7.6-8.13,5,0,7.23,2.82,7.23,7.41"/><path class="cls-2" d="M139.53,100.75a73.61,73.61,0,0,0-118.14,0l-.46.66.46.67a73.62,73.62,0,0,0,118.14,0c.18-.26.34-.48.46-.67-.12-.19-.28-.41-.46-.66M60.58,86.07c.32-.47,1.39-1.82,1.52-2a1.9,1.9,0,0,1,1.2-.49c.38-.07.88.14.94.42a3.32,3.32,0,0,1-.33,1.58,4.14,4.14,0,0,1-2.64,1.19c-.58-.09-.8-.54-.69-.71M59.3,88.6l.13-.15a3.28,3.28,0,0,1,2-.71c.62-.11,1.44.2,1.54.61s-1.55,1.16-1.85,1.44c-.86.79-2.2,2.4-3,2.58a1,1,0,0,1-.64-.07,25.55,25.55,0,0,1,1.85-3.7M72.64,116a7.1,7.1,0,0,1-1.52,3.19,5.2,5.2,0,0,1-3.39,1.29c-1.13-.08-1.28-3.1-1.28-4.65,0-.53-.76,1-1.16-2.17-.25-2.07-1.58.21-1.67-1.16s-.76-1.1-1.45-2-1.56.08-2.53.51-.57.66-1.94.23l-.08,0a24.65,24.65,0,0,1-1.95-9.66c0-.84,0-1.67.12-2.48l.15-.23c1.32-1.56,1.29-1.92,1.29-1.92l1.45-.5a23.85,23.85,0,0,1,4.07,1c1.44.54,3.71,1.76,5,1.23,1-.4,1.7-.92,1.61-1.71-.1-1-.89-1.24-1.84-.56-.35.24-1.09-1.5-1.68-1.42s.72,2.06.23,2.14-1.5-2-1.67-2.39-.94-1.2-1.63-.55c-1.47,1.39-3.85,1.31-4.33,1.66-1.45,1.09-1.83-.35-1.8-1.24l.18-.6a3,3,0,0,1,2.76-.31c.65.43,1.11-.11,1.36-.37s.16-.66,0-1,.33-.59.66-.68A19.61,19.61,0,0,0,63.5,90.5a6.12,6.12,0,0,1,3.77,0A2,2,0,0,0,69.75,90a6.88,6.88,0,0,1,1.8-1.5c.36-.16-.88-1.33-1.91-.06s-1.55,1.38-2,1.38-3.35-.72-3.7-1.62.89-1.59,2-2.1,4-.5,4.69-.66C72.06,85.08,74,84.32,75,85s-4,1.79-2.4,2.68c.59.32,3.24-1.53,4.15-2,2.13-1.1-2.08-1.46-1.53-3.7.62-2.53-5.16-1.55-8-1.34a24.83,24.83,0,0,1,37.52,15.12,3.81,3.81,0,0,1-.12,1.15,1.63,1.63,0,0,1-2.91.22c-.25-.36-1.31-1.37-1.28.35s1.68,1.9.09,2.93a6.09,6.09,0,0,1-2.61,1c-.73.26-1.44,2-1.27,3s2.44,3.53.76,3.43c-.39,0-3.36-2.06-3.85-3.36s-1.08-2.72-1.48-3.75a1.48,1.48,0,0,0-2.34-.69c-.88.61.25,1.21-.39,2.5s-1.09,2.45-2,1.38c-2.42-2.78-6-1.41-6.5-4.5-.3-1.67-1.74-1.51-3-2.46s-1.88-1.46-2.09-.77,3.8,3.75,4.08,4.55c.42,1.2-1.19,2.26-2.37,2.55s-1.69-.67-2.85-1.87-1.66-2.07-1.74-1.12a5.43,5.43,0,0,0,2.27,4.12c1,.64,2.14.93,1.81,2s0,.45-1.13,1.56-1.34,1.48-1.26,3-.32,1.64-.57,2.93-.8.17-1.29,2.06m26.65-9.9c.83-.07,2.09,1.09,1.6,1.53a2.21,2.21,0,0,1-2.37-.21c-.63-.48.39-1.29.77-1.32m-1.06-.76c-.27-.1-.5-.36-.71-1s.31-1,.82-.71a2.4,2.4,0,0,1,1.17,1.43c0,.4-1,.36-1.28.25m-11,0a2.25,2.25,0,0,1-2.37-.22c-.63-.48.39-1.29.77-1.32.83-.07,2.09,1.09,1.6,1.54M77.13,110.2c-.34.56-1.28,4.73-1.9,4.25s.25-4.85.43-5.18c1-1.8,3.1-1.71,1.47.93m3.37,16.18a24.79,24.79,0,0,1-7-1,1,1,0,0,1-.3-1.21c.77-2,3.06-2.79,4.87-3,4-.39,9.32,2.61,10.16,2.13s2.55-2.7,5-2.61a3.91,3.91,0,0,1,2.27.57,24.71,24.71,0,0,1-15.06,5.08M98,119.15a4.94,4.94,0,0,1-.78-.28c-1.36-.69-1.19.41-1.86.17s.75-1.8-1.25-.49-1.46-.2-2.33-2.41,1-4.74,2.57-5.31a31.82,31.82,0,0,1,4.51-1.19c3-.75,3.62-2.52,4.16-1.44l.29.58a4,4,0,0,1,.38,1.61A24.8,24.8,0,0,1,98,119.15m6.8-12.53c-.66-.19-3.45-4-1.25-6.58.37-.42-.74-1.64-.43-1.67,1.2-.09,1.84.66,2.16,1.74,0,.47,0,1,0,1.44a25,25,0,0,1-.52,5.07"/><g class="cls-3"><path class="cls-4" d="M51.32,23.22V16.86c0-2.06,1-3.55,3.3-3.55s3.12,1.35,3.12,3.29v1.55h-2V16.43c0-.82-.27-1.28-1.06-1.28s-1.13.56-1.13,1.36v7.06c0,.79.33,1.35,1.13,1.35s1.06-.5,1.06-1.28V21.22h2v2.27c0,1.88-.78,3.28-3.12,3.28S51.32,25.25,51.32,23.22Z"/><path class="cls-4" d="M59.16,13.46h2.21V24.81H64v1.8H59.16Z"/><path class="cls-4" d="M65.21,13.46h2.21V26.61H65.21Z"/><path class="cls-4" d="M75.16,18.08H75.1l-1.49,8.53h-1l-1.65-8.53h0v8.53H69.07V13.46h2.58l1.43,7.41h0l1.28-7.41h2.8V26.61h-2Z"/><path class="cls-4" d="M78.29,26.61l2.48-13.15h2.52l2.5,13.15H83.52l-.41-2.4H80.77l-.39,2.4Zm2.77-4.17h1.76L82,17.17h0Z"/><path class="cls-4" d="M85.5,13.46h5.88v1.81H89.56V26.61H87.32V15.27H85.5Z"/><path class="cls-4" d="M92.6,13.46h5.28v1.81H94.81V19H97v1.78h-2.2v4h3.07v1.8H92.6Z"/></g><g class="cls-3"><path class="cls-4" d="M51,45.66l2.48-13.15H56l2.51,13.15H56.2l-.41-2.4H53.44l-.39,2.4Zm2.77-4.17H55.5l-.88-5.27h0Z"/><path class="cls-4" d="M59.09,42.27V35.91c0-2.06,1-3.55,3.3-3.55s3.12,1.36,3.12,3.3v1.55h-2V35.48c0-.81-.27-1.28-1.07-1.28s-1.12.56-1.12,1.36v7.06c0,.79.33,1.36,1.12,1.36s1.07-.51,1.07-1.28V40.27h2v2.27c0,1.88-.78,3.28-3.12,3.28S59.09,44.31,59.09,42.27Z"/><path class="cls-4" d="M66.3,32.51h5.88v1.81H70.36V45.66H68.13V34.32H66.3Z"/><path class="cls-4" d="M73.4,32.51h2.21V45.66H73.4Z"/><path class="cls-4" d="M77.09,42.27V35.91c0-2.06,1-3.55,3.34-3.55s3.35,1.49,3.35,3.55v6.36c0,2-1,3.55-3.35,3.55S77.09,44.31,77.09,42.27Zm4.48.35V35.56c0-.8-.35-1.36-1.14-1.36s-1.13.56-1.13,1.36v7.06c0,.79.35,1.36,1.13,1.36S81.57,43.41,81.57,42.62Z"/><path class="cls-4" d="M87.08,37.4v8.26H85.22V32.51h2.17l2.39,7.55V32.51h1.84V45.66H89.68Z"/></g></g></g></svg>