<svg xmlns="http://www.w3.org/2000/svg" width="143" height="58" viewBox="0 0 143 58">
  <g id="huainam_icon3_EN" transform="translate(-1642 -102)">
    <path id="路径_2241" data-name="路径 2241" d="M58.688,447.824c-14.259,0-25.818,12.225-25.818,12.225s11.559,12.225,25.818,12.225,25.818-12.225,25.818-12.225S72.948,447.824,58.688,447.824Zm-7.981,5.8c.193-.407.421-.837.975-.841.252,0,.372.143.341.348-.076.63-.543.755-.984.861A.27.27,0,0,1,50.707,453.628Zm.806,1.075-2.09,1.766C49.9,454.554,50.219,454.3,51.513,454.7Zm2.153,13.014c-.726-.052-.638-.755-.694-1.275a4.583,4.583,0,0,0-1.722-2.676c-.315-.317-.645-.067-.912.1-.735.452-1.058.127-1.237-.581-.439-1.733-1.021-3.466.12-5.162a4.133,4.133,0,0,1,.757-.251,4.022,4.022,0,0,1-.781-.024c-.25-.392-.333-1.017.186-.94,1.234.182,1.516-.991,2.329-1.357a4.044,4.044,0,0,1,1.546-.148,1.206,1.206,0,0,1-.554-.293c-.273-.212-.818-.214-.7-.729a.946.946,0,0,1,.86-.632c1.1-.2,2.2-.363,3.314-.543.133.676-.685.517-.643,1.059.519.083.9-.277,1.307-.5.37-.2.527-.391.164-.859-1.116-1.442-1.083-1.468-3.489-1.5a9.4,9.4,0,0,1,7.074-1.281,9.78,9.78,0,0,1,7.716,6.744c.175.5.476,1.043-.025,1.508-.522.485-.876-.245-1.453-.268a1.343,1.343,0,0,1-1.029,1.983c-.546.161-.675.791-.441,1.39.129.33.479.6.3,1.109A2.783,2.783,0,0,1,63.89,461c-.158-.386-.286-.784-.464-1.16-.124-.262-.294-.528-.654-.48s-.453.278-.474.617c-.059.96-.227,1.291-1.358.725a8.833,8.833,0,0,1-2.853-2.224,1.912,1.912,0,0,0-1.293-.492c.4.424.816.835,1.2,1.276.254.293.7.6.21,1.036-.419.371-.893.69-1.432.213-.334-.3-.619-.646-1.074-1.13a1.621,1.621,0,0,0,.717,1.751c.7.509,1.278.918.16,1.6a.935.935,0,0,0-.312.768c.167,1.279-.713,2.185-1.1,3.259A1.444,1.444,0,0,1,53.666,467.717Zm3.779-4.306c-.323.552-.272,1.294-.87,1.809a2.794,2.794,0,0,1,.22-2.126.43.43,0,0,1,.611-.25C57.622,462.974,57.546,463.239,57.446,463.411Zm-1.066,6.5c-.881-.19-.781-.615-.311-1.111a2.533,2.533,0,0,1,2.063-.7,6.345,6.345,0,0,1,2.188.453,2.007,2.007,0,0,0,2.408-.244,1.417,1.417,0,0,1,1.954-.064A10.3,10.3,0,0,1,56.379,469.915Zm11.709-6.084a8.145,8.145,0,0,1-2.008,3.111c-.5.5-1.148.009-1.7,0-.427.251-.722.24-.888-.269a2.127,2.127,0,0,1,.215-2.336,2.981,2.981,0,0,1,1.422-.728c.634-.192,1.267-.385,1.9-.587.291-.093.575-.479.879-.127A.936.936,0,0,1,68.088,463.831Zm.65-1.786c-1.458-1.056-.789-2.139-.571-3.389C69.228,459.687,68.659,460.776,68.738,462.044Z" transform="translate(1612.13 -328.824)" fill="#417f45"/>
    <g id="组_4449" data-name="组 4449">
      <g id="组_4448" data-name="组 4448">
        <g id="组_4447" data-name="组 4447">
          <g id="组_4432" data-name="组 4432" transform="translate(217 -31)">
            <g id="组_4427" data-name="组 4427" transform="translate(1425.333 133.333)">
              <g id="椭圆_9" data-name="椭圆 9" transform="translate(-0.333 -0.333)" fill="none" stroke="#417f45" stroke-width="3">
                <circle cx="29" cy="29" r="29" stroke="none"/>
                <circle cx="29" cy="29" r="27.5" fill="none"/>
              </g>
            </g>
          </g>
          <text id="Climate_Action" data-name="Climate
Action" transform="translate(1708 111)" fill="#417f45" font-size="15" font-family="SegoeUI-Bold, Segoe UI" font-weight="700"><tspan x="0" y="16">Climate</tspan><tspan x="0" y="34">Action</tspan></text>
        </g>
      </g>
    </g>
  </g>
</svg>
