<svg xmlns="http://www.w3.org/2000/svg" viewBox="0 0 160.92 160.93"><defs><style>.cls-1{fill:#193667;}.cls-1,.cls-2,.cls-3{opacity:0.97;}.cls-2,.cls-4{fill:#fff;}</style></defs><title>資產 17</title><g id="圖層_2" data-name="圖層 2"><g id="ENG"><rect class="cls-1" width="160.92" height="160.93"/><polygon class="cls-2" points="24.08 13.49 24.08 45.93 18.62 45.93 18.62 21.1 18.57 21.1 14.75 25.07 14.7 25.07 14.7 19.37 19.73 13.49 24.08 13.49"/><polygon class="cls-2" points="26.57 13.49 40.26 13.49 40.26 18.51 33.12 45.93 27.71 45.93 34.99 17.94 26.57 17.94 26.57 13.49"/><path class="cls-2" d="M121.36,97.6a21,21,0,0,0-20.19-20.94,21,21,0,0,0-39.52,0,20.94,20.94,0,0,0-12.1,37.46,20.73,20.73,0,0,0-.83,5.82,21,21,0,0,0,32.79,17.29A21,21,0,0,0,114.1,119.8a20.6,20.6,0,0,0-.8-5.7,20.94,20.94,0,0,0,8.06-16.5m-23.21-14a16.75,16.75,0,0,1-14.27,16.54A16.58,16.58,0,0,1,97.93,81.06a16.81,16.81,0,0,1,.22,2.57M81.49,131.79a16.7,16.7,0,0,1-.16-23.85,16.7,16.7,0,0,1,.16,23.85M64.89,81.06a16.58,16.58,0,0,1,14,19.11,16.58,16.58,0,0,1-14-19.11m12.48,24a16.67,16.67,0,0,1-22.64,7.36,16.67,16.67,0,0,1,22.64-7.36m8-.12a16.69,16.69,0,0,1,22.75,7.45,16.58,16.58,0,0,1-7.74,1.92,16.76,16.76,0,0,1-15-9.37m-4-38.07A16.74,16.74,0,0,1,96.75,77,21,21,0,0,0,81.41,88.74,21,21,0,0,0,66.07,77,16.74,16.74,0,0,1,81.41,66.9M45.68,97.6A16.76,16.76,0,0,1,60.63,81a19.63,19.63,0,0,0-.18,2.67A20.91,20.91,0,0,0,67.3,99.12,21,21,0,0,0,51.23,110,16.68,16.68,0,0,1,45.68,97.6m7.26,22.34a16.54,16.54,0,0,1,.37-3.47,20.88,20.88,0,0,0,19.23-.53,21.31,21.31,0,0,0-.36,3.86,20.9,20.9,0,0,0,5.92,14.58,16.7,16.7,0,0,1-25.16-14.44m56.94-.14a16.71,16.71,0,0,1-25,14.54,20.85,20.85,0,0,0,5.76-14.4,21.22,21.22,0,0,0-.39-4,20.88,20.88,0,0,0,19.29.52,16.84,16.84,0,0,1,.34,3.35M95.65,99a20.92,20.92,0,0,0,6.72-15.37,21.38,21.38,0,0,0-.18-2.67,16.71,16.71,0,0,1,9.45,29,21,21,0,0,0-16-11"/><g class="cls-3"><path class="cls-4" d="M51.36,13.48h3.27c2.23,0,3,1.11,3,2.95V19.2c0,1.85-.82,3-3,3H53.57v4.46H51.36Zm2.21,1.81v5.17h.81a1,1,0,0,0,1.09-1.08v-3c0-.72-.33-1.06-1.09-1.06Z"/><path class="cls-4" d="M58,26.63l2.49-13.15H63l2.5,13.15H63.19l-.41-2.4H60.44l-.39,2.4Zm2.78-4.17h1.76l-.87-5.27h0Z"/><path class="cls-4" d="M68.78,20.6v6H66.57V13.48h3.21c2.24,0,3,1.11,3,2.95v1.69c0,1.41-.5,2.25-1.76,2.54l2.11,6H70.85Zm0-5.31v4.09h.73a1,1,0,0,0,1.09-1.09V16.35c0-.72-.33-1.06-1.09-1.06Z"/><path class="cls-4" d="M73.61,13.48h5.88v1.81H77.66V26.63H75.43V15.29H73.61Z"/><path class="cls-4" d="M82.74,18.37v8.26H80.88V13.48h2.18L85.44,21V13.48h1.84V26.63H85.34Z"/><path class="cls-4" d="M89.11,13.48h5.27v1.81H91.32v3.76h2.19v1.78H91.32v4h3.06v1.8H89.11Z"/><path class="cls-4" d="M98,20.6v6H95.76V13.48H99c2.23,0,3,1.11,3,2.95v1.69c0,1.41-.51,2.25-1.77,2.54l2.12,6h-2.33Zm0-5.31v4.09h.74a1,1,0,0,0,1.09-1.09V16.35c0-.72-.33-1.06-1.09-1.06Z"/><path class="cls-4" d="M103.13,23.8V22h2.06v1.81c0,.74.33,1.16,1.09,1.16s1-.46,1-1.16v-.51a2.38,2.38,0,0,0-1-1.86L105,20.17c-1.26-1.24-1.85-2-1.85-3.51v-.44c0-1.63.95-2.89,3.11-2.89s3.08,1.08,3.08,3v1.07h-2V16.24c0-.76-.35-1.13-1-1.13a1,1,0,0,0-1,1.09v.27c0,.74.41,1.16,1,1.78l1.41,1.4c1.2,1.22,1.79,2,1.79,3.41v.64c0,1.81-1,3.09-3.22,3.09S103.13,25.53,103.13,23.8Z"/><path class="cls-4" d="M115.18,20.83h-2.13v5.8h-2.21V13.48h2.21v5.57h2.13V13.48h2.23V26.63h-2.23Z"/><path class="cls-4" d="M118.87,13.48h2.21V26.63h-2.21Z"/><path class="cls-4" d="M122.55,13.48h3.28c2.23,0,3,1.11,3,2.95V19.2c0,1.85-.82,3-3,3h-1.07v4.46h-2.21Zm2.21,1.81v5.17h.82a.94.94,0,0,0,1.08-1.08v-3c0-.72-.33-1.06-1.08-1.06Z"/><path class="cls-4" d="M129.73,23.8V22h2.06v1.81c0,.74.33,1.16,1.08,1.16s1-.46,1-1.16v-.51a2.38,2.38,0,0,0-1-1.86l-1.3-1.3c-1.26-1.24-1.84-2-1.84-3.51v-.44c0-1.63.95-2.89,3.1-2.89s3.09,1.08,3.09,3v1.07h-2V16.24c0-.76-.35-1.13-1-1.13a1,1,0,0,0-1,1.09v.27c0,.74.4,1.16,1,1.78l1.42,1.4c1.2,1.22,1.78,2,1.78,3.41v.64c0,1.81-1,3.09-3.22,3.09S129.73,25.53,129.73,23.8Z"/></g><g class="cls-3"><path class="cls-4" d="M51.36,32.59h5.17v1.8h-3v3.76h2.21v1.79H53.57v5.79H51.36Z"/><path class="cls-4" d="M57.29,42.34V36c0-2.06,1-3.55,3.34-3.55S64,33.92,64,36v6.36c0,2-1,3.55-3.35,3.55S57.29,44.38,57.29,42.34Zm4.48.35V35.63c0-.79-.35-1.36-1.14-1.36s-1.13.57-1.13,1.36v7.06c0,.8.35,1.36,1.13,1.36S61.77,43.49,61.77,42.69Z"/><path class="cls-4" d="M67.65,39.7v6H65.44V32.59h3.22c2.23,0,3,1.1,3,2.94v1.69c0,1.42-.5,2.25-1.76,2.54l2.11,6H69.73Zm0-5.31v4.09h.74a1,1,0,0,0,1.08-1.08V35.46c0-.72-.32-1.07-1.08-1.07Z"/><path class="cls-4" d="M75.18,32.59h5.88v1.8H79.23V45.73H77V34.39H75.18Z"/><path class="cls-4" d="M86.45,39.94H84.32v5.79H82.1V32.59h2.22v5.56h2.13V32.59h2.23V45.73H86.45Z"/><path class="cls-4" d="M90.14,32.59h5.27v1.8H92.35v3.76h2.19v1.79H92.35v4h3.06v1.8H90.14Z"/><path class="cls-4" d="M102.47,38.71h3.15v7H104V44.3a2,2,0,0,1-2.12,1.59c-1.9,0-2.77-1.51-2.77-3.55V36c0-2.06,1-3.55,3.31-3.55s3.17,1.36,3.17,3.3v1.16h-2V35.55c0-.81-.31-1.28-1.11-1.28s-1.14.57-1.14,1.36v7.06c0,.8.33,1.36,1.09,1.36s1.08-.41,1.08-1.26V40.46h-1Z"/><path class="cls-4" d="M106.86,42.34V36c0-2.06,1-3.55,3.33-3.55s3.36,1.49,3.36,3.55v6.36c0,2-1,3.55-3.36,3.55S106.86,44.38,106.86,42.34Zm4.48.35V35.63c0-.79-.35-1.36-1.15-1.36s-1.12.57-1.12,1.36v7.06c0,.8.35,1.36,1.12,1.36S111.34,43.49,111.34,42.69Z"/><path class="cls-4" d="M114.17,45.73l2.49-13.14h2.52l2.5,13.14h-2.27l-.41-2.4h-2.34l-.39,2.4ZM117,41.56h1.76l-.87-5.27h0Z"/><path class="cls-4" d="M122.77,32.59H125V43.93h2.63v1.8h-4.84Z"/><path class="cls-4" d="M128.41,42.9V41.14h2.06v1.8c0,.74.33,1.17,1.08,1.17s1-.47,1-1.17v-.5a2.37,2.37,0,0,0-1-1.86l-1.3-1.3c-1.26-1.24-1.84-2-1.84-3.51v-.45c0-1.63.95-2.89,3.1-2.89s3.09,1.09,3.09,3v1.06h-2V35.34c0-.76-.35-1.13-1-1.13a1,1,0,0,0-1,1.09v.27c0,.74.4,1.17,1,1.79L133,38.75c1.2,1.23,1.78,2,1.78,3.42v.64c0,1.8-1,3.08-3.22,3.08S128.41,44.63,128.41,42.9Z"/></g></g></g></svg>