<svg xmlns="http://www.w3.org/2000/svg" viewBox="0 0 160.92 160.93"><defs><style>.cls-1{fill:#d19f29;}.cls-1,.cls-2,.cls-3{opacity:0.97;}.cls-2,.cls-4{fill:#fff;}</style></defs><title>資產 2</title><g id="圖層_2" data-name="圖層 2"><g id="ENG"><rect class="cls-1" width="160.92" height="160.93"/><path class="cls-2" d="M30.1,41.48h-9V40c0-2.53.91-3.49,2.29-5l3.5-3.68c2.82-3,3.44-4.93,3.44-8.19V20c0-4.64-2.25-6.85-7.13-6.85S16,15.64,16,20.19v3.92h5V20c0-2,1-2.53,2.11-2.53s2,.43,2,2.44v2.68c0,2.68-.24,3.73-2,5.6L20,31.48c-3,3.16-4.07,5.27-4.07,8.47v6H30.1Z"/><g class="cls-3"><path class="cls-4" d="M66.48,136.74V139s0,0,0,.06,0,0,0,.05a1.06,1.06,0,0,0,1,1H94.16a1.08,1.08,0,0,0,1-1.07h0v-2.56c14.94-4.9,26.14-17,28.6-31.77,0,0,0-.06,0-.09a.77.77,0,0,0,0-.15,1.07,1.07,0,0,0-1.08-1.07H38.16a1.07,1.07,0,0,0-1.08,1.07l.06.48c2.59,14.9,14.09,27.08,29.34,31.78"/><path class="cls-4" d="M95.18,67.3c-.35.5-8.52,12.26.19,21.78,4,4.37,3.64,8.22,2.5,10.82h5.59c1.13-3.84.66-8.66-3.87-13.61-6.42-7,.08-16.49.18-16.64a2.09,2.09,0,0,0-.91-3.12,3,3,0,0,0-3.68.77"/><path class="cls-4" d="M81,99.9h5.59c1.13-3.84.66-8.66-3.88-13.61-6.41-7,.08-16.49.18-16.64A2.09,2.09,0,0,0,82,66.53a3,3,0,0,0-3.67.77c-.35.49-8.53,12.26.18,21.78,4,4.37,3.65,8.22,2.51,10.82"/><path class="cls-4" d="M61.52,67.3c-.35.5-8.53,12.26.18,21.78,4,4.37,3.65,8.22,2.51,10.82h5.58c1.13-3.84.67-8.66-3.87-13.61-6.42-7,.08-16.49.18-16.64a2.09,2.09,0,0,0-.91-3.12,3,3,0,0,0-3.67.77"/></g><g class="cls-3"><path class="cls-4" d="M48.12,24.84h3.36v1.8H45.82v-1.8l3.47-9.55H46.17v-1.8h5.45v1.8Z"/><path class="cls-4" d="M53,13.49h5.28v1.8H55.19v3.77h2.19v1.78H55.19v4h3.06v1.8H53Z"/><path class="cls-4" d="M61.84,20.61v6H59.63V13.49h3.22c2.23,0,3,1.11,3,3v1.69c0,1.41-.5,2.25-1.76,2.54l2.11,6H63.91Zm0-5.32v4.1h.74a1,1,0,0,0,1.08-1.09V16.36c0-.72-.33-1.07-1.08-1.07Z"/><path class="cls-4" d="M67.29,23.25V16.88c0-2,1-3.54,3.34-3.54S74,14.83,74,16.88v6.37c0,2-1,3.54-3.35,3.54S67.29,25.28,67.29,23.25Zm4.48.34v-7c0-.8-.35-1.36-1.14-1.36s-1.13.56-1.13,1.36v7.05c0,.8.35,1.36,1.13,1.36S71.77,24.39,71.77,23.59Z"/></g><g class="cls-3"><path class="cls-4" d="M50.28,40.11H48.15v5.8H45.94V32.76h2.21v5.57h2.13V32.76h2.24V45.91H50.28Z"/><path class="cls-4" d="M60.39,32.76v10c0,2-.87,3.36-3.12,3.36S54,44.75,54,42.71v-10h2.21V42.92c0,.78.31,1.3,1.09,1.3s1.08-.52,1.08-1.3V32.76Z"/><path class="cls-4" d="M63.71,37.65v8.26H61.85V32.76H64l2.39,7.55V32.76h1.84V45.91H66.31Z"/><path class="cls-4" d="M73,38.89h3.14v7H74.59V44.48a2,2,0,0,1-2.11,1.59c-1.9,0-2.78-1.52-2.78-3.55V36.16c0-2.06,1-3.55,3.32-3.55S76.18,34,76.18,35.9v1.17h-2V35.73c0-.82-.32-1.28-1.11-1.28s-1.14.56-1.14,1.36v7.06c0,.79.33,1.35,1.08,1.35s1.09-.4,1.09-1.26V40.64H73Z"/><path class="cls-4" d="M77.64,32.76h5.27v1.81H79.85v3.76H82v1.78H79.85v4h3.06v1.8H77.64Z"/><path class="cls-4" d="M86.5,39.88v6H84.29V32.76h3.22c2.23,0,3,1.11,3,3V37.4c0,1.41-.51,2.25-1.77,2.54l2.12,6H88.58Zm0-5.31v4.09h.74a1,1,0,0,0,1.09-1.09V35.63c0-.72-.33-1.06-1.09-1.06Z"/></g></g></g></svg>