<svg xmlns="http://www.w3.org/2000/svg" width="137" height="58" viewBox="0 0 137 58">
  <g id="rotterdam_icon1_EN" transform="translate(-1315 -102)">
    <g id="组_4464" data-name="组 4464" transform="translate(1514.689 68)">
      <g id="组_4455" data-name="组 4455">
        <g id="组_4404" data-name="组 4404" transform="translate(-5.483 13)">
          <g id="组_4401" data-name="组 4401" transform="translate(-194.207 21)">
            <g id="椭圆_15" data-name="椭圆 15" transform="translate(0 0)" fill="none" stroke="#dea73a" stroke-width="3">
              <ellipse cx="29.5" cy="29" rx="29.5" ry="29" stroke="none"/>
              <ellipse cx="29.5" cy="29" rx="28" ry="27.5" fill="none"/>
            </g>
          </g>
        </g>
        <g id="组_4451" data-name="组 4451" transform="translate(-370.057 -82.526)">
          <path id="路径_2242" data-name="路径 2242" d="M217.954,158.23H181.565c0,6.968,5.109,12.343,12.224,14.507v1.735h12.082V172.7C212.912,170.5,217.954,165.152,217.954,158.23Z" transform="translate(0 -12.947)" fill="#dea73a"/>
          <g id="组_4454" data-name="组 4454" transform="translate(190.23 129.783)">
            <g id="组_4451-2" data-name="组 4451" transform="translate(0)">
              <path id="路径_2243" data-name="路径 2243" d="M197.888,137.642a11.56,11.56,0,0,0,1.01,1.826c.253.372.531.726.806,1.08a5.634,5.634,0,0,1,.483.684,2.041,2.041,0,0,1,.195.556,5.784,5.784,0,0,1,.118.866c.022.315.019.632.013.947,0,.177-.02.353-.032.529,0,.023,0,.044,0,.066h2.138c.018-.233.034-.465.036-.7a.246.246,0,0,1,.006-.039v-.414a.18.18,0,0,1-.007-.064,7.826,7.826,0,0,0-.266-1.981,4.168,4.168,0,0,0-.662-1.326c-.252-.346-.522-.678-.779-1.021a9.231,9.231,0,0,1-1.157-2.013,2.412,2.412,0,0,1-.166-.707,5.272,5.272,0,0,1,.149-1.662,11.319,11.319,0,0,1,.736-2.129c.121-.27.254-.533.392-.795a1.071,1.071,0,0,0-.818-1.558l-.039-.008h-.178c-.044.008-.088.014-.131.023a1.036,1.036,0,0,0-.709.514,12.556,12.556,0,0,0-.654,1.369,13.322,13.322,0,0,0-.666,2.017,9,9,0,0,0-.214,1.28c-.009.1-.012.2-.019.3,0,.016,0,.032-.007.048v.5a.932.932,0,0,1,.013.165A4.773,4.773,0,0,0,197.888,137.642Z" transform="translate(-197.468 -129.783)" fill="#dea73a"/>
            </g>
            <g id="组_4452" data-name="组 4452" transform="translate(6.932)">
              <path id="路径_2244" data-name="路径 2244" d="M210.611,137.642a11.514,11.514,0,0,0,1.01,1.826c.253.372.531.726.806,1.08a5.757,5.757,0,0,1,.483.684,2.021,2.021,0,0,1,.194.556,5.714,5.714,0,0,1,.118.866c.022.315.019.632.013.947,0,.177-.02.353-.032.529,0,.023,0,.044,0,.066h2.138c.017-.233.034-.465.035-.7a.328.328,0,0,1,.007-.039v-.414a.181.181,0,0,1-.007-.064,7.824,7.824,0,0,0-.266-1.981,4.154,4.154,0,0,0-.661-1.326c-.252-.346-.522-.678-.779-1.021a9.186,9.186,0,0,1-1.157-2.013,2.4,2.4,0,0,1-.167-.707,5.273,5.273,0,0,1,.15-1.662,11.319,11.319,0,0,1,.735-2.129c.122-.27.254-.533.392-.795a1.07,1.07,0,0,0-.817-1.558l-.04-.008h-.178c-.044.008-.088.014-.131.023a1.035,1.035,0,0,0-.708.514,12.455,12.455,0,0,0-.654,1.369,13.2,13.2,0,0,0-.666,2.017,9.011,9.011,0,0,0-.214,1.28c-.009.1-.013.2-.019.3a.458.458,0,0,1-.007.048v.5a.887.887,0,0,1,.013.165A4.773,4.773,0,0,0,210.611,137.642Z" transform="translate(-210.19 -129.783)" fill="#dea73a"/>
            </g>
            <g id="组_4453" data-name="组 4453" transform="translate(14.039)">
              <path id="路径_2245" data-name="路径 2245" d="M223.654,137.642a11.561,11.561,0,0,0,1.01,1.826c.253.372.53.726.806,1.08a5.635,5.635,0,0,1,.483.684,2.04,2.04,0,0,1,.195.556,5.782,5.782,0,0,1,.118.866c.022.315.019.632.013.947,0,.177-.02.353-.032.529,0,.023,0,.044,0,.066h2.137c.018-.233.034-.465.036-.7a.246.246,0,0,1,.006-.039v-.414a.181.181,0,0,1-.007-.064,7.825,7.825,0,0,0-.266-1.981,4.167,4.167,0,0,0-.662-1.326c-.252-.346-.521-.678-.779-1.021a9.231,9.231,0,0,1-1.157-2.013,2.412,2.412,0,0,1-.166-.707,5.273,5.273,0,0,1,.149-1.662,11.36,11.36,0,0,1,.736-2.129c.121-.27.254-.533.392-.795a1.071,1.071,0,0,0-.818-1.558l-.039-.008h-.178c-.044.008-.088.014-.131.023a1.036,1.036,0,0,0-.709.514,12.562,12.562,0,0,0-.654,1.369,13.322,13.322,0,0,0-.666,2.017,8.933,8.933,0,0,0-.213,1.28c-.009.1-.013.2-.019.3,0,.016,0,.032-.007.048v.5a.931.931,0,0,1,.013.165A4.773,4.773,0,0,0,223.654,137.642Z" transform="translate(-223.234 -129.783)" fill="#dea73a"/>
            </g>
          </g>
        </g>
      </g>
    </g>
    <text id="Zero_Hunger" data-name="Zero Hunger" transform="translate(1382 112)" fill="#dea73a" font-size="15" font-family="SegoeUI-Bold, Segoe UI" font-weight="700"><tspan x="0" y="16">Zero </tspan><tspan x="0" y="34">Hunger</tspan></text>
  </g>
</svg>
