<svg xmlns="http://www.w3.org/2000/svg" width="176" height="58" viewBox="0 0 176 58">
  <g id="seoul_icon1_EN" transform="translate(199.69 -34)">
    <g id="组_4404" data-name="组 4404" transform="translate(-5.483 13)">
      <g id="组_4401" data-name="组 4401" transform="translate(-194.207 21)">
        <path id="路径_2234" data-name="路径 2234" d="M312,147.657h12.9l4.46-9.717,2.23,14.815,5.257-9.239,3.027,17.364,10.2-32.975,4.46,9.717" transform="translate(-308.039 -115.193)" fill="none" stroke="#4c9f45" stroke-linecap="round" stroke-linejoin="round" stroke-width="3"/>
        <g id="组_4399" data-name="组 4399" transform="translate(40.748 25.901)">
          <path id="路径_2235" data-name="路径 2235" d="M379.074,151.606c-.016-.029-.025-.044-.032-.059a3.556,3.556,0,0,0-3.629-2.02,3.43,3.43,0,0,0-2.264,1.174,3.571,3.571,0,0,0-.873,2.932,5.927,5.927,0,0,0,.682,2.078,10.427,10.427,0,0,0,1.783,2.379,19.977,19.977,0,0,0,4.126,3.2.367.367,0,0,0,.412,0,20.927,20.927,0,0,0,3.266-2.382,12.9,12.9,0,0,0,2.21-2.48,6.469,6.469,0,0,0,1.114-2.808,3.781,3.781,0,0,0-.133-1.627,3.564,3.564,0,0,0-3.785-2.471,3.5,3.5,0,0,0-2.272,1.161A3.535,3.535,0,0,0,379.074,151.606Z" transform="translate(-372.242 -149.504)" fill="#4c9f45"/>
          <path id="路径_2236" data-name="路径 2236" d="M379.074,151.606a3.535,3.535,0,0,1,.6-.921,3.5,3.5,0,0,1,2.272-1.161A3.564,3.564,0,0,1,385.735,152a3.781,3.781,0,0,1,.133,1.627,6.469,6.469,0,0,1-1.114,2.808,12.9,12.9,0,0,1-2.21,2.48,20.927,20.927,0,0,1-3.266,2.382.367.367,0,0,1-.412,0,19.977,19.977,0,0,1-4.126-3.2,10.427,10.427,0,0,1-1.783-2.379,5.927,5.927,0,0,1-.682-2.078,3.571,3.571,0,0,1,.873-2.932,3.43,3.43,0,0,1,2.264-1.174,3.556,3.556,0,0,1,3.629,2.02C379.049,151.562,379.058,151.577,379.074,151.606Z" transform="translate(-372.242 -149.504)" fill="#4c9f45"/>
        </g>
        <g id="椭圆_15" data-name="椭圆 15" transform="translate(0 0)" fill="none" stroke="#4c9f45" stroke-width="3">
          <ellipse cx="29.5" cy="29" rx="29.5" ry="29" stroke="none"/>
          <ellipse cx="29.5" cy="29" rx="28" ry="27.5" fill="none"/>
        </g>
      </g>
    </g>
    <g id="组_4408" data-name="组 4408" transform="translate(-318 46.138)">
      <text id="Good_Health_and_Well-Being" data-name="Good Health and Well-Being" transform="translate(185.311 -0.138)" fill="#4c9f45" font-size="15" font-family="SegoeUI-Bold, Segoe UI" font-weight="700"><tspan x="0" y="16">Good Health </tspan><tspan x="0" y="34">and Well-Being</tspan></text>
    </g>
  </g>
</svg>
