<svg xmlns="http://www.w3.org/2000/svg" viewBox="0 0 160.92 160.93"><defs><style>.cls-1{fill:#f36d23;}.cls-1,.cls-2,.cls-3{opacity:0.97;}.cls-2,.cls-4{fill:#fff;}</style></defs><title>資產 9</title><g id="圖層_2" data-name="圖層 2"><g id="ENG"><rect class="cls-1" width="160.92" height="160.93"/><path class="cls-2" d="M29.47,21.65c0-5-2.2-8.66-7.94-8.66s-8,3.16-8,8.18V26c0,5.31,2.1,8,6,8A4.66,4.66,0,0,0,24,31.31h.05v7c0,2-.77,3.35-2.73,3.35s-2.68-1.14-2.68-3.15V36.33h-5v1.73c0,4.78,1.72,8.13,7.75,8.13,5.73,0,8-3.69,8-8.76Zm-5.4,5c-.1,1.81-.86,3-2.59,3s-2.58-1.15-2.58-3.25V20.69c0-2.05.76-3.25,2.63-3.25s2.54,1.24,2.54,3.25Z"/><path class="cls-2" d="M120.67,105.77l-19.13-11V72.65a1.3,1.3,0,0,0-.65-1.13L81.11,60.1a1.26,1.26,0,0,0-1.3,0L60,71.52a1.28,1.28,0,0,0-.65,1.13V94.73l-19.13,11a1.33,1.33,0,0,0-.65,1.13v22.84a1.3,1.3,0,0,0,.65,1.13L60,142.29a1.28,1.28,0,0,0,.65.18,1.25,1.25,0,0,0,.65-.18l19.13-11,19.13,11a1.25,1.25,0,0,0,.65.18,1.28,1.28,0,0,0,.65-.18l19.78-11.42a1.28,1.28,0,0,0,.65-1.13V106.9A1.29,1.29,0,0,0,120.67,105.77ZM79.16,127.48l-15.87-9.16,15.87-9.16Zm18.47-32-15.86,9.15V86.32Zm-18.47,9.15L63.29,95.49l15.87-9.17Zm3.91,2.26L100.24,97l17.17,9.91-17.17,9.92ZM98.93,93.23,83.07,84.06l15.86-9.15ZM77.85,84.06,62,93.23V74.91ZM59.38,138.9,42.21,129V109.16l17.17,9.92Zm2.61,0V120.58l15.86,9.16ZM118.72,129l-17.18,9.91V119.08l17.18-9.92Z"/><g class="cls-3"><path class="cls-4" d="M38,13.74h2V26H38Z"/><path class="cls-4" d="M43.05,18.28V26H41.32V13.74h2l2.21,7v-7h1.71V26h-1.8Z"/><path class="cls-4" d="M54.66,17v5.65c0,1.87-.78,3.28-3,3.28H48.52V13.74h3.17C53.88,13.74,54.66,15.13,54.66,17Zm-3.22,7.25c.84,0,1.17-.5,1.17-1.24V16.64a1.08,1.08,0,0,0-1.17-1.23h-.87v8.86Z"/><path class="cls-4" d="M61.88,13.74V23c0,1.89-.81,3.11-2.9,3.11S55.92,24.87,55.92,23V13.74h2v9.43c0,.72.29,1.21,1,1.21s1-.49,1-1.21V13.74Z"/><path class="cls-4" d="M63,23.32V21.68h1.91v1.67c0,.69.3,1.08,1,1.08s.94-.43.94-1.08v-.46A2.19,2.19,0,0,0,66,21.16L64.76,20c-1.17-1.15-1.71-1.85-1.71-3.26v-.41a2.55,2.55,0,0,1,2.88-2.69c2,0,2.86,1,2.86,2.78v1H66.92V16.3c0-.71-.33-1.05-1-1.05a.91.91,0,0,0-1,1v.25c0,.69.38,1.08,1,1.66l1.32,1.29c1.12,1.14,1.66,1.82,1.66,3.17v.6a2.65,2.65,0,0,1-3,2.86C63.84,26.09,63,24.92,63,23.32Z"/><path class="cls-4" d="M69.4,13.74h5.45v1.67H73.16V26H71.09V15.41H69.4Z"/><path class="cls-4" d="M78,20.35V26h-2V13.74h3c2.07,0,2.82,1,2.82,2.74V18c0,1.32-.47,2.09-1.64,2.36L82,26H79.88Zm0-4.94v3.8h.68a.89.89,0,0,0,1-1V16.4c0-.66-.3-1-1-1Z"/><path class="cls-4" d="M86.46,21.3V26h-2V21.3l-2.28-7.56h2.14l1.24,4.63h0l1.24-4.63h2Z"/><path class="cls-4" d="M90.86,24.15l-1,2.75H88.66L88.91,24h2Z"/><path class="cls-4" d="M94.09,13.74h2.06V26H94.09Z"/><path class="cls-4" d="M99.15,18.28V26H97.42V13.74h2l2.22,7v-7h1.71V26h-1.8Z"/><path class="cls-4" d="M106.35,18.28V26h-1.73V13.74h2l2.22,7v-7h1.71V26h-1.8Z"/><path class="cls-4" d="M111.82,22.8V16.89c0-1.91.94-3.3,3.1-3.3S118,15,118,16.89V22.8c0,1.89-.94,3.29-3.12,3.29S111.82,24.69,111.82,22.8Zm4.16.32V16.57c0-.74-.32-1.26-1.06-1.26s-1,.52-1,1.26v6.55c0,.74.32,1.26,1,1.26S116,23.86,116,23.12Z"/><path class="cls-4" d="M125.87,13.74,123.54,26h-2.23L119,13.74h2.09l1.4,8.52h0l1.44-8.52Z"/><path class="cls-4" d="M125.58,26l2.3-12.21h2.34L132.54,26h-2.1l-.38-2.24h-2.18L127.52,26Zm2.57-3.87h1.64l-.81-4.9h0Z"/><path class="cls-4" d="M132.34,13.74h5.46v1.67h-1.69V26H134V15.41h-1.7Z"/><path class="cls-4" d="M138.84,13.74h2V26h-2Z"/><path class="cls-4" d="M142.17,22.8V16.89c0-1.91.94-3.3,3.1-3.3s3.11,1.39,3.11,3.3V22.8c0,1.89-.93,3.29-3.11,3.29S142.17,24.69,142.17,22.8Zm4.16.32V16.57c0-.74-.32-1.26-1.06-1.26s-1.05.52-1.05,1.26v6.55c0,.74.33,1.26,1.05,1.26S146.33,23.86,146.33,23.12Z"/><path class="cls-4" d="M151.37,18.28V26h-1.73V13.74h2l2.21,7v-7h1.71V26h-1.8Z"/></g><g class="cls-3"><path class="cls-4" d="M37.66,45.28,40,33.07H42.3l2.32,12.21h-2.1L42.14,43H40l-.36,2.24Zm2.57-3.88h1.64l-.81-4.89h0Z"/><path class="cls-4" d="M47.11,37.61v7.67H45.38V33.07h2l2.22,7v-7h1.71V45.28h-1.8Z"/><path class="cls-4" d="M58.72,36.35V42c0,1.87-.78,3.28-3,3.28H52.58V33.07h3.17C57.94,33.07,58.72,34.45,58.72,36.35ZM55.5,43.6c.84,0,1.17-.5,1.17-1.24V36a1.08,1.08,0,0,0-1.17-1.23h-.87V43.6Z"/><path class="cls-4" d="M62,33.07H64V45.28H62Z"/><path class="cls-4" d="M67,37.61v7.67H65.29V33.07h2l2.22,7v-7h1.71V45.28h-1.8Z"/><path class="cls-4" d="M72.49,33.07h4.8v1.67H74.54v3.5h2v1.65h-2v5.39H72.49Z"/><path class="cls-4" d="M80.33,39.68v5.6h-2V33.07h3c2.07,0,2.83,1,2.83,2.74v1.56c0,1.32-.47,2.09-1.64,2.36l2,5.55H82.26Zm0-4.94v3.8H81a.89.89,0,0,0,1-1v-1.8c0-.66-.31-1-1-1Z"/><path class="cls-4" d="M85,45.28l2.3-12.21h2.34L92,45.28H89.84L89.46,43H87.28l-.36,2.24Zm2.57-3.88h1.64l-.81-4.89h0Z"/><path class="cls-4" d="M92.59,42.65V41H94.5v1.67c0,.69.31,1.08,1,1.08s.93-.43.93-1.08v-.47a2.18,2.18,0,0,0-.91-1.72l-1.21-1.21c-1.17-1.15-1.71-1.85-1.71-3.26v-.41a2.55,2.55,0,0,1,2.88-2.69c2.05,0,2.86,1,2.86,2.78v1H96.48V35.63c0-.71-.32-1.05-1-1.05a.9.9,0,0,0-1,1v.25c0,.69.37,1.08,1,1.66l1.31,1.29c1.12,1.14,1.66,1.82,1.66,3.17v.6a2.64,2.64,0,0,1-3,2.86C93.4,45.42,92.59,44.25,92.59,42.65Z"/><path class="cls-4" d="M99.14,33.07h5.46v1.67h-1.69V45.28h-2.07V34.74h-1.7Z"/><path class="cls-4" d="M107.69,39.68v5.6h-2V33.07h3c2.07,0,2.83,1,2.83,2.74v1.56c0,1.32-.47,2.09-1.64,2.36l2,5.55h-2.16Zm0-4.94v3.8h.69a.89.89,0,0,0,1-1v-1.8c0-.66-.31-1-1-1Z"/><path class="cls-4" d="M118.62,33.07v9.24c0,1.89-.81,3.11-2.9,3.11s-3.06-1.22-3.06-3.11V33.07h2V42.5c0,.72.29,1.21,1,1.21s1-.49,1-1.21V33.07Z"/><path class="cls-4" d="M119.88,42.13V36.22c0-1.91.9-3.3,3.06-3.3s2.9,1.26,2.9,3.06v1.45H124V35.82c0-.75-.26-1.19-1-1.19s-1,.53-1,1.27v6.55c0,.74.31,1.26,1,1.26s1-.47,1-1.19V40.27h1.87v2.11c0,1.74-.72,3-2.9,3S119.88,44,119.88,42.13Z"/><path class="cls-4" d="M126.36,33.07h5.45v1.67h-1.69V45.28h-2.07V34.74h-1.69Z"/><path class="cls-4" d="M138.82,33.07v9.24c0,1.89-.81,3.11-2.9,3.11s-3.06-1.22-3.06-3.11V33.07h2V42.5c0,.72.29,1.21,1,1.21s1-.49,1-1.21V33.07Z"/><path class="cls-4" d="M142.13,39.68v5.6h-2.06V33.07h3c2.07,0,2.83,1,2.83,2.74v1.56c0,1.32-.47,2.09-1.64,2.36l2,5.55h-2.16Zm0-4.94v3.8h.68a.89.89,0,0,0,1-1v-1.8c0-.66-.31-1-1-1Z"/><path class="cls-4" d="M147.09,33.07H152v1.67h-2.84v3.5h2v1.65h-2V43.6H152v1.68h-4.9Z"/></g></g></g></svg>