<svg xmlns="http://www.w3.org/2000/svg" viewBox="0 0 160.91 160.92"><defs><style>.cls-1{fill:#2c9a47;}.cls-1,.cls-2,.cls-3{opacity:0.97;}.cls-2,.cls-4{fill:#fff;}</style></defs><title>資產 3_1</title><g id="圖層_2" data-name="圖層 2"><g id="CHI"><rect class="cls-1" width="160.91" height="160.92"/><path class="cls-2" d="M23,46.37c5.51,0,7.9-2.92,7.9-7.42V34.17c0-3-1.29-4.89-4-5.51a5.17,5.17,0,0,0,3.73-5.26V20.58c0-4.6-2.2-7.42-7.22-7.42-5.65,0-7.61,3.35-7.61,8.13v2.87h5v-3.3c0-2,.63-3.16,2.35-3.16s2.34,1.15,2.34,2.92v3.5c0,1.72-1.15,2.63-2.91,2.63H20.43v4.16h2.29c1.92,0,2.68.91,2.68,2.63V38.9c0,1.72-.76,2.92-2.44,2.92-1.86,0-2.53-1.24-2.53-3.16V34h-5v4.26c0,4.93,2,8.09,7.51,8.09"/><g class="cls-3"><path class="cls-4" d="M134.41,100.57c0-4.53-2.91-8.2-7.31-8.2-2.2,0-4.85,2.41-6.3,3.89-1.44-1.48-3.92-3.89-6.12-3.89-4.4,0-7.48,3.67-7.48,8.2a8.32,8.32,0,0,0,2.33,5.8h0l11.28,11.3,11.27-11.29h0A8.31,8.31,0,0,0,134.41,100.57Z"/><path class="cls-4" d="M86.38,136.12h-.12a1.86,1.86,0,0,1-1.71-1.53l-5.73-33.37L70.14,117.3a1.85,1.85,0,0,1-3.46-.62L63,90.93l-6.75,15.14a1.84,1.84,0,0,1-1.69,1.1H28.36a1.86,1.86,0,0,1,0-3.71h25l8.87-19.91a1.85,1.85,0,0,1,3.52.49l3.8,26.55,8.56-15.87a1.85,1.85,0,0,1,3.46.57l5.3,30.91L106.21,62a1.85,1.85,0,0,1,3.44-.27l10.18,21.09a1.85,1.85,0,0,1-3.34,1.61l-8.1-16.8L88.15,134.8A1.85,1.85,0,0,1,86.38,136.12Z"/></g><g class="cls-3"><path class="cls-4" d="M54.12,24a7.55,7.55,0,0,0,1.93,2.73,25.27,25.27,0,0,0,4.58-2.42l.8,1.18a25.13,25.13,0,0,1-4,2.15,13,13,0,0,0,4.35,1.23l-.67,1.35c-4-.53-7.07-2.66-8.46-6.22H49.57v4.58A30.62,30.62,0,0,0,54,27.86l.33,1.31a32.48,32.48,0,0,1-7.28,1L47,28.75l1.17-.05V16.86a.36.36,0,0,1,.4-.4h5.08V15.31h1.4v1.15H60c.29,0,.42.14.42.4v6.71c0,.3-.13.44-.43.44Zm-4.55-4.43h9.51V18.14c0-.21-.1-.32-.34-.32H49.89a.29.29,0,0,0-.32.32Zm9.51,1.36H49.57v1.71h9.3c.15,0,.21-.08.21-.22Z"/><path class="cls-4" d="M62.9,29a11.36,11.36,0,0,0,2.75-2.4L63.35,25a.78.78,0,0,1-.24-.57A1.28,1.28,0,0,1,63.2,24a32.34,32.34,0,0,0,1.36-5H63V17.64h1.8l.36-2.3,1.35.22-.31,2.08h2.63a.28.28,0,0,1,.33.28c0,3.71-.62,6.48-1.72,8.24l1.87,1.28-.62,1.23-2-1.33a14.35,14.35,0,0,1-2.86,2.77Zm3.49-3.55A14.49,14.49,0,0,0,68,19H66a42.74,42.74,0,0,1-1.37,5.09v.1l.21.18Zm9-8.31H69.91V15.77h6.93l.75,1.07-3.06,2.95c-.31.35-.36.48-.36.61a.62.62,0,0,0,.24.46l.57,1H77.7V23.2H75.53a8.75,8.75,0,0,1,.41,2.66c0,2.35-1,3.84-2.81,3.84a5.67,5.67,0,0,1-2.77-.92l.29-1.5a5,5,0,0,0,2.35.91,1.11,1.11,0,0,0,.54-.11,2.31,2.31,0,0,0,1-2.19A9,9,0,0,0,74,23.2h-4.4V21.84h3.76a9.55,9.55,0,0,0-.75-1.2.89.89,0,0,1-.22-.48.5.5,0,0,1,.22-.36Z"/><path class="cls-4" d="M80.42,22.08l-.34.61-1.26-.45A15.25,15.25,0,0,0,81,15.47l1.28.13a23.05,23.05,0,0,1-.52,3V30.08h-1.3Zm2.9,1A13.07,13.07,0,0,0,84,25.38a10.27,10.27,0,0,0,.61-3.16c0-.13,0-.21-.1-.21H83l-.5-.64,1.68-4.08a.24.24,0,0,0,0-.13s0,0,0,0H82.6V15.88h2.64l.56.71L84,20.77h1.44c.27,0,.42.09.43.36a14.65,14.65,0,0,1-1.07,5.69,4.26,4.26,0,0,0,3.65,1.52h5.3l-.34,1.36H89c-2.34-.11-3.91-.69-4.65-1.7a14.52,14.52,0,0,1-1.26,2.11l-1.17-.89a16.75,16.75,0,0,0,1.54-2.42,14.12,14.12,0,0,1-1.3-3.43Zm5.55,3.3H86.05V25.25h2.82V24.11H86.42V22.93h2.45v-1h-2.3V20.75h2.3V19.66H85.73V18.49h3.14v-1h-2.3V16.3h2.3v-.93h1.3v.93h2.54c.27,0,.39.13.39.4v1.79h.72v1.17H93.1v1.86c0,.27-.12.4-.39.4H90.17v1h3v1.18h-3v1.14h3.34v1.17H90.17V28h-1.3Zm1.3-9v1H91.8v-.91a.1.1,0,0,0-.11-.11Zm0,2.19v1.09h1.52a.12.12,0,0,0,.11-.13v-1Z"/><path class="cls-4" d="M109,29.89A10.71,10.71,0,0,1,103.64,26v2.49a1.57,1.57,0,0,1-1.79,1.62,9.22,9.22,0,0,1-1.91-.27V28.45l1.06.27a3.74,3.74,0,0,0,.54.05c.64,0,.74-.26.74-.63v-4H98.77l1.62,1.65-1,.8a16,16,0,0,0-1.65-1.65l.88-.8h-.75V22.93h4.4V22H97.22V23.1a19.14,19.14,0,0,1-1.09,6.77l-1.26-.41a16.94,16.94,0,0,0,1-6.74v-6.1c0-.24.11-.35.36-.35h5.81v-1h1.36v1h5.9V17.5h-5.71v1.06h4.58a.33.33,0,0,1,.38.38v1.78h1.15V22H108.6v1.76c0,.4-.24.4-.53.4l.77.87a13.93,13.93,0,0,1-2.13,1.76l-.81-1a17.54,17.54,0,0,0,1.95-1.59h-4a12.74,12.74,0,0,0,1.68,2.37,9.55,9.55,0,0,0,4.18,2.24ZM97,28.27a17.13,17.13,0,0,0,4.13-2.06l.77,1.05a25,25,0,0,1-4.21,2.15Zm5.32-9.71V17.5h-4.9a.14.14,0,0,0-.16.16v3.06h5.06v-1H97.94V18.56Zm1.36,1.16v1h3.66v-.88a.11.11,0,0,0-.12-.12Zm0,2.23v1h3.54c.08,0,.12-.05.12-.13V22Z"/><path class="cls-4" d="M59.56,44V42.27H57.3V41h2.26V39.33H57.3V38.09h2.26V36.44c0-.11-.06-.17-.18-.17H57.25V35h3.29a.29.29,0,0,1,.32.32V44h.89v1.3H46.93V44H48V35.63c0-.18.08-.29.32-.31a10.08,10.08,0,0,0,2.89-.52L51.81,36a12.54,12.54,0,0,1-2.43.5c-.1,0-.11.06-.1.14v1.62h2.29v1.23H49.28V41h2.29v1.23H49.28V44h3.11V40.19h1.25V44h1.53V39.57a.18.18,0,0,0-.2-.21H52.63c-.23,0-.32-.1-.32-.34V34.56h1.3v1.1h2.78v1.23H53.61V38c0,.15.06.23.19.23h2.33c.24,0,.34.11.34.33V44ZM52.68,46.8a14.7,14.7,0,0,1-5.11,2.5A4.12,4.12,0,0,0,47.28,48a10.79,10.79,0,0,0,4.58-2.35Zm8.42,2.48a27.31,27.31,0,0,0-5-2.3l.53-1.27A25.19,25.19,0,0,1,61.72,48Z"/><path class="cls-4" d="M65.25,42.43a21.51,21.51,0,0,1-1.63,1.41l-.87-1a10.46,10.46,0,0,0,4.1-4.91H63.44V36.67h1.75v-2h1.28v2h1.25l.67.51a14.33,14.33,0,0,1-1.62,3.39l-.29.37a16,16,0,0,1,2,1.73l-.81.94c-.44-.4-.84-.76-1.19-1v6.61H65.25Zm11.53-.69c.28,0,.44.07.44.43v7H75.94V48H70V49.2H68.73v-7c0-.32.11-.43.43-.43Zm-7.72-6.53H76.9v1.28H69.06Zm.67,5.68V37.36h6.6v3.53ZM72.41,43h-2.2c-.12,0-.17,0-.17.17v1.14h2.37Zm0,2.46H70v1.32h2.37Zm2.69-5.61V38.46H71v1.35Zm-1.46,4.46h2.3V43.13a.2.2,0,0,0-.19-.17H73.64Zm0,2.47h2.3V45.42h-2.3Z"/><path class="cls-4" d="M83,49.17H81.75V42.8a18,18,0,0,1-2.23,1.86l-.81-1A12.15,12.15,0,0,0,83.56,38H79.38V36.7h2.26V34.76h1.28V36.7h1.57l.65.56A16,16,0,0,1,83.24,41s0,0,0,0a19.37,19.37,0,0,1,2.26,2.27l-.94.92c-.53-.6-1-1.13-1.48-1.57Zm4.31-1.89H89V34.83H90.3v4.56h2.78v1.28H90.3v6.61h3.16v1.28H84.39V47.28h1.68v-9h1.28Z"/></g></g></g></svg>