<svg xmlns="http://www.w3.org/2000/svg" viewBox="0 0 160.92 160.93"><defs><style>.cls-1{fill:#f99d24;}.cls-1,.cls-2,.cls-3{opacity:0.97;}.cls-2,.cls-4{fill:#fff;}</style></defs><title>資產 11_1</title><g id="圖層_2" data-name="圖層 2"><g id="CHI"><rect class="cls-1" width="160.92" height="160.93"/><polygon class="cls-2" points="11.53 19.37 11.53 25.07 11.58 25.07 15.4 21.09 15.45 21.09 15.45 45.93 20.91 45.93 20.91 13.49 16.55 13.49 11.53 19.37"/><polygon class="cls-2" points="23.97 19.37 23.97 25.07 24.02 25.07 27.85 21.09 27.89 21.09 27.89 45.93 33.35 45.93 33.35 13.49 29 13.49 23.97 19.37"/><g class="cls-3"><path class="cls-4" d="M26.54,122.51H50.75a.58.58,0,0,0,.59-.59.64.64,0,0,0-.15-.4l0,0-12-15.58-.12-.13a.57.57,0,0,0-.43-.2.6.6,0,0,0-.39.16l-.08.08L38,106,26.23,121.37l-.18.22a.59.59,0,0,0,.49.92Z"/><path class="cls-4" d="M50.68,124.71H26.42a.6.6,0,0,0-.59.59v19a.6.6,0,0,0,.59.59h7.81V132.94a.58.58,0,0,1,.59-.59h7.25a.58.58,0,0,1,.59.59v11.94h8a.6.6,0,0,0,.59-.59v-19A.6.6,0,0,0,50.68,124.71Z"/><path class="cls-4" d="M134.5,119.74h-24a.57.57,0,0,0-.59.57v24.24a.57.57,0,0,0,.59.57h24a.57.57,0,0,0,.59-.57V120.31a.57.57,0,0,0-.59-.57m-13.13,15.83a.58.58,0,0,1-.59.57h-7.17a.58.58,0,0,1-.59-.57v-4.36a.57.57,0,0,1,.59-.57h7.17a.57.57,0,0,1,.59.57Zm0-8.06a.57.57,0,0,1-.59.57h-7.17a.57.57,0,0,1-.59-.57v-4.36a.58.58,0,0,1,.59-.57h7.17a.58.58,0,0,1,.59.57Zm11,8.06a.58.58,0,0,1-.59.57h-7.17a.58.58,0,0,1-.59-.57v-4.36a.57.57,0,0,1,.59-.57h7.17a.57.57,0,0,1,.59.57Zm0-8.06a.57.57,0,0,1-.59.57h-7.17a.57.57,0,0,1-.59-.57v-4.36a.58.58,0,0,1,.59-.57h7.17a.58.58,0,0,1,.59.57Z"/><path class="cls-4" d="M78.7,63.48H55.21a.57.57,0,0,0-.58.57v80.29a.58.58,0,0,0,.58.57H78.7a.59.59,0,0,0,.58-.57V64.05a.58.58,0,0,0-.58-.57m-14,72.29a.3.3,0,0,1-.31.3H59a.3.3,0,0,1-.31-.3v-6a.31.31,0,0,1,.31-.31h5.38a.31.31,0,0,1,.31.31Zm0-13.77a.31.31,0,0,1-.31.31H59a.31.31,0,0,1-.31-.31v-6a.31.31,0,0,1,.31-.31h5.38a.31.31,0,0,1,.31.31Zm0-13.77a.31.31,0,0,1-.31.31H59a.31.31,0,0,1-.31-.31v-6a.31.31,0,0,1,.31-.31h5.38a.31.31,0,0,1,.31.31Zm0-13.76a.31.31,0,0,1-.31.31H59a.31.31,0,0,1-.31-.31v-6a.3.3,0,0,1,.31-.3h5.38a.3.3,0,0,1,.31.3Zm0-13.77a.31.31,0,0,1-.31.31H59a.31.31,0,0,1-.31-.31v-6A.31.31,0,0,1,59,74.4h5.38a.31.31,0,0,1,.31.31Zm10.54,55.07a.3.3,0,0,1-.31.3H69.59a.3.3,0,0,1-.31-.3v-6a.31.31,0,0,1,.31-.31H75a.31.31,0,0,1,.31.31Zm0-13.77a.31.31,0,0,1-.31.31H69.59a.31.31,0,0,1-.31-.31v-6a.3.3,0,0,1,.31-.31H75a.3.3,0,0,1,.31.31Zm0-13.77a.31.31,0,0,1-.31.31H69.59a.31.31,0,0,1-.31-.31v-6a.31.31,0,0,1,.31-.31H75a.31.31,0,0,1,.31.31Zm0-13.76a.31.31,0,0,1-.31.31H69.59a.31.31,0,0,1-.31-.31v-6a.3.3,0,0,1,.31-.3H75a.3.3,0,0,1,.31.3Zm0-13.77A.31.31,0,0,1,75,81H69.59a.31.31,0,0,1-.31-.31v-6a.31.31,0,0,1,.31-.31H75a.31.31,0,0,1,.31.31Z"/><rect class="cls-4" x="109.94" y="111.99" width="25.13" height="5.8" rx="0.48"/><path class="cls-4" d="M107.08,78.64a.62.62,0,0,0-.59-.45.58.58,0,0,0-.34.11l0,0-.2.25L82.82,107.87l-.11.14a.7.7,0,0,0-.2.46v36a.57.57,0,0,0,.58.57h23.47a.56.56,0,0,0,.57-.57V78.88A.6.6,0,0,0,107.08,78.64Zm-9.73,15.9.17-.2c1.58-2,4.24-5.31,5.54-6.9l.17-.2a.67.67,0,0,1,.52-.25.66.66,0,0,1,.64.54v7.41a.67.67,0,0,1-.64.66H97.86a.66.66,0,0,1-.63-.66A.68.68,0,0,1,97.35,94.54Zm-3.65,41a.57.57,0,0,1-.57.58h-7a.58.58,0,0,1-.58-.58v-4.38a.57.57,0,0,1,.58-.57h7a.56.56,0,0,1,.57.57Zm0-8.1a.57.57,0,0,1-.57.58h-7a.58.58,0,0,1-.58-.58v-4.38a.57.57,0,0,1,.58-.57h7a.56.56,0,0,1,.57.57Zm0-8.09a.57.57,0,0,1-.57.57h-7a.58.58,0,0,1-.58-.57V115a.57.57,0,0,1,.58-.57h7a.56.56,0,0,1,.57.57Zm0-17.75v9.66a.58.58,0,0,1-.57.57h-7a.58.58,0,0,1-.58-.57v-1.22a.65.65,0,0,1,0-.21.25.25,0,0,1,0-.07.35.35,0,0,1,0-.08l.06-.09c.9-1.28,4.94-6.26,6.63-8.34l.17-.2a.69.69,0,0,1,.52-.25.66.66,0,0,1,.64.54Zm10.68,33.94a.58.58,0,0,1-.57.58h-7a.58.58,0,0,1-.58-.58v-4.38a.57.57,0,0,1,.58-.57h7a.57.57,0,0,1,.57.57Zm0-8.1a.58.58,0,0,1-.57.58h-7a.58.58,0,0,1-.58-.58v-4.38a.57.57,0,0,1,.58-.57h7a.57.57,0,0,1,.57.57Zm0-8.09a.58.58,0,0,1-.57.57h-7a.58.58,0,0,1-.58-.57V115a.57.57,0,0,1,.58-.57h7a.57.57,0,0,1,.57.57Zm0-8.1a.58.58,0,0,1-.57.57h-7a.58.58,0,0,1-.58-.57v-4.39a.58.58,0,0,1,.58-.57h7a.58.58,0,0,1,.57.57Zm0-8.1a.57.57,0,0,1-.57.57h-7a.57.57,0,0,1-.58-.57V98.79a.57.57,0,0,1,.58-.58h7a.57.57,0,0,1,.57.58Z"/></g><g class="cls-3"><path class="cls-4" d="M62.84,16H51.27V14.67H65.8V16H64.26V26.66a2.11,2.11,0,0,1-1.18,1.8,4,4,0,0,1-1.67.34,13.62,13.62,0,0,1-3-.4l-.13-1.58a12.75,12.75,0,0,0,3,.49c1.2,0,1.52-.46,1.52-.94Zm-2.11,8.35c0,.15-.07.21-.19.21H52.68c-.13,0-.18-.06-.18-.21V18c0-.13,0-.19.18-.19h7.86a.17.17,0,0,1,.19.19Zm-1.44-5.23H53.91s0,0,0,.06v3.94c0,.05,0,.08,0,.08h5.38a.08.08,0,0,0,.08-.08V19.21Z"/><path class="cls-4" d="M69,22.21V18.65h-1.7V17.29H69v-3.1h1.29v3.1h1.54v1.36H70.32v2.63l1-.83.94,1-1.89,1.44v4.56a1.41,1.41,0,0,1-1.48,1.5,5.31,5.31,0,0,1-1.54-.28l0-1.35a5.73,5.73,0,0,0,1.35.26c.27,0,.35-.13.35-.47V23.71l-1.14.67L67,23.33Zm9.41.68h-6V21.53h6v-1.6H72.21V18.64h3.91V17H72.65v-1.3h3.47V14.07h1.36v1.62h3.7V17h-3.7v1.65h4.26v1.29H79.8v1.6h1.87v1.36H79.8v4.26c0,1.14-.78,1.65-2,1.65a10,10,0,0,1-2.46-.37V27l1.41.38.92.11a.71.71,0,0,0,.74-.7Zm-3.68,3.7A22.21,22.21,0,0,0,73.17,24l1.16-.68A22.73,22.73,0,0,1,76,26Z"/><path class="cls-4" d="M85.12,22l-1.74.27A8.69,8.69,0,0,0,83,21.07l.89-.16a13.35,13.35,0,0,0,1.32-1.81A10.82,10.82,0,0,0,83,17.4l.61-1.08.46.28c.37-.8.72-1.66,1.06-2.61l1.12.52A20.49,20.49,0,0,1,85,17.31l.82.7a11.09,11.09,0,0,0,.81-2.32l1.22.31a12.56,12.56,0,0,1-2.4,4.64l1.33-.24-.26-.88,1.07-.31a15.71,15.71,0,0,1,.71,3l-1.09.23-.14-.77-.72.14v7.08H85.12ZM83.06,27.9a24.75,24.75,0,0,0,.54-4.83l1.17.1a23.52,23.52,0,0,1-.54,4.89Zm4.21-.72a22.26,22.26,0,0,0-.58-4l1.17-.15c.29,1.64.5,3,.58,4.07Zm.72.56a15.67,15.67,0,0,0,3.34-.56l.36,1.19a15.94,15.94,0,0,1-3.61.61Zm9.62-6.53c0,.12,0,.16-.16.16H88.63c-.08,0-.13,0-.13-.16V17.84c0-.1,0-.15.13-.15h8.82c.11,0,.16,0,.16.15Zm-5.17-5v-.61H88.58v-1h3.86v-.6h1.23v.6h3.62v1H93.67v.61H97v.93H89.16v-.93Zm4.8,10.65a.14.14,0,0,1-.16.16H89.14c-.09,0-.14,0-.14-.16V22c0-.1,0-.15.14-.15h7.94c.11,0,.16.05.16.15ZM94,20.06c-.29,0-.45-.16-.45-.48v-1h-1l-.18.48a2.89,2.89,0,0,1-2.29,1.17l-.33-.95a2.35,2.35,0,0,0,1.73-.67v0H89.64l0,.05v1.71l0,.07h6.82c0-.07,0-.1,0-.39Zm-3.78,3.33H96V22.8l0-.05H90.26l0,.05Zm0,1.44H96v-.64H90.23Zm5.76.79H90.23c0,.41,0,.46,0,.52h5.68l0-.06ZM97.54,29a16.2,16.2,0,0,0-3.34-.55l.06-1.23a16.89,16.89,0,0,1,3.61.58ZM94.66,18.62c0,.56,0,.64.28.64H96.5v-.59l0-.05Z"/><path class="cls-4" d="M100.61,23.77V18.52H99.2V17.16h1.41v-3H102v3h1.44v1.36H102v4.37l.83-.64.92,1a21.94,21.94,0,0,1-3.85,2.45L99,24.59Zm5.35,4a14.43,14.43,0,0,0,4-3.1,31.22,31.22,0,0,1-1.09-7.54h-3.34c-.12,0-.18.06-.18.17V18.8H108c.4,0,.51.09.53.22v3.92a3.12,3.12,0,0,1-.31,1.44c-.48,1.08-.89,1.14-1.49,1.14a6.51,6.51,0,0,1-1.32-.16V23.92a2.89,2.89,0,0,0,1.07.32c.51,0,.69-1,.69-1.06V20.32c0-.11-.07-.16-.2-.16h-1.58v1a10.38,10.38,0,0,1-3.07,7.55L101.09,28a9,9,0,0,0,2.9-7.24V16.17a.34.34,0,0,1,.38-.38h4.44V14.06l1.36.13,0,1.6H112l-.72-1.06,1.1-.7A13.77,13.77,0,0,1,114,16.54l-1.14.64-.61-1.1v1.07h-2a27.76,27.76,0,0,0,.72,5.94,13.78,13.78,0,0,0,.91-4.42l1.28.11-.16,1.75a16.25,16.25,0,0,1-1.54,4.38,15.85,15.85,0,0,0,.61,1.51c.15.35.29.51.42.51s.13-.05.16-.15a9.94,9.94,0,0,0,.13-2.11L114,25a16.78,16.78,0,0,1-.35,2.94,1.13,1.13,0,0,1-1,.84c-.69,0-1.4-.9-2.13-2.66a14.93,14.93,0,0,1-3.44,2.72Z"/><path class="cls-4" d="M121.78,20.21h-4.29c-.08,0-.11,0-.11.11v7.57H116V19.2c0-.24.11-.34.35-.34h5.47v-2h-6.51V15.53h6.51V14.14h1.43v1.39h6.53v1.36h-6.53v2h5.57c.24,0,.36.1.36.34v7.07c0,1.07-.78,1.73-2.33,1.73a10.49,10.49,0,0,1-2.1-.27l0-1.57a8.73,8.73,0,0,0,2,.34c.82,0,1.06-.44,1.06-.79V20.32c0-.08,0-.11-.13-.11h-4.38v8.57h-1.43Z"/><path class="cls-4" d="M57.83,43.62c-.54-.89-1.18-1.86-1.92-2.9v7.33H54.55V40.94a19.63,19.63,0,0,1-2.21,3.67l-1.25-.56a17,17,0,0,0,3.17-5.27H51.33V37.42h3.22V35.21l-2.47.13L51.87,34a41.75,41.75,0,0,0,6.33-.64l.24,1.34c-.53.11-1.35.24-2.53.38v2.34h2.75v1.36H55.94a49.63,49.63,0,0,1,3,4Zm2.83,3.2v.72H59.3V34.14c0-.13.07-.21.23-.21H65c.21,0,.29.1.29.27V47.54H63.93v-.72Zm0-1.36h3.27v-10c0-.11,0-.18-.19-.18H60.86c-.15,0-.21.07-.2.18Z"/><path class="cls-4" d="M73.48,43.76a31,31,0,0,0-2.26-2.61v7H69.88V42.24L67.94,44l-.88-1.17a14.8,14.8,0,0,0,5-5.51.13.13,0,0,0,0-.08c0-.09-.08-.14-.23-.14H67.6V35.74h2.32v-2.4h1.37v2.4h1.8l.74.59a13.92,13.92,0,0,1-2,3.75c.92.83,1.81,1.74,2.68,2.69Zm3.68,2.48V37.79H74.53V36.43h2.63v-3h1.41v3h3v1.36h-3v8.45H82V47.6H73.59V46.24Z"/><path class="cls-4" d="M83.92,35.1h-.59V33.87H97.74V35.1H85.28V45.94c0,.22.13.33.37.33H97.56v1.3h-13a.58.58,0,0,1-.64-.66Zm7.3,10.34c0,.13,0,.19-.17.19H86.36c-.12,0-.18-.06-.18-.19V40.75c0-.1.06-.16.18-.16h4.69c.12,0,.17.06.17.16ZM96,39.5a.17.17,0,0,1-.18.19H87c-.11,0-.17-.06-.17-.19V36.12A.16.16,0,0,1,87,36h8.82a.16.16,0,0,1,.18.16Zm-6.08,2.26H87.46s-.06,0,0,.05V44.4l0,.06h2.47L90,44.4V41.81Zm4.72-4.63H88.18c-.05,0-.06,0-.05,0v1.28l.05.06h6.47l.06-.06V37.18Zm2.46,8.26a.17.17,0,0,1-.19.18H92.29a.16.16,0,0,1-.17-.18V40.75a.15.15,0,0,1,.17-.16h4.63c.13,0,.19.06.19.16Zm-1.29-3.63H93.4c-.05,0-.07,0-.05.05v2.53l.05.06h2.42l.06-.06V41.81Z"/></g></g></g></svg>