<svg xmlns="http://www.w3.org/2000/svg" viewBox="0 0 160.92 160.93"><defs><style>.cls-1{fill:#193667;}.cls-1,.cls-2,.cls-3{opacity:0.97;}.cls-2,.cls-4{fill:#fff;}</style></defs><title>資產 17_1</title><g id="圖層_2" data-name="圖層 2"><g id="CHI"><rect class="cls-1" width="160.92" height="160.93"/><polygon class="cls-2" points="24.08 13.49 24.08 45.93 18.62 45.93 18.62 21.1 18.57 21.1 14.75 25.07 14.7 25.07 14.7 19.37 19.73 13.49 24.08 13.49"/><polygon class="cls-2" points="26.57 13.49 40.26 13.49 40.26 18.51 33.12 45.93 27.71 45.93 34.99 17.94 26.57 17.94 26.57 13.49"/><path class="cls-2" d="M121.36,97.6a21,21,0,0,0-20.19-20.94,21,21,0,0,0-39.52,0,20.94,20.94,0,0,0-12.1,37.46,20.73,20.73,0,0,0-.83,5.82,21,21,0,0,0,32.79,17.29A21,21,0,0,0,114.1,119.8a20.6,20.6,0,0,0-.8-5.7,20.94,20.94,0,0,0,8.06-16.5m-23.21-14a16.75,16.75,0,0,1-14.27,16.54A16.58,16.58,0,0,1,97.93,81.06a16.81,16.81,0,0,1,.22,2.57M81.49,131.79a16.7,16.7,0,0,1-.16-23.85,16.7,16.7,0,0,1,.16,23.85M64.89,81.06a16.58,16.58,0,0,1,14,19.11,16.58,16.58,0,0,1-14-19.11m12.48,24a16.67,16.67,0,0,1-22.64,7.36,16.67,16.67,0,0,1,22.64-7.36m8-.12a16.69,16.69,0,0,1,22.75,7.45,16.58,16.58,0,0,1-7.74,1.92,16.76,16.76,0,0,1-15-9.37m-4-38.07A16.74,16.74,0,0,1,96.75,77,21,21,0,0,0,81.41,88.74,21,21,0,0,0,66.07,77,16.74,16.74,0,0,1,81.41,66.9M45.68,97.6A16.76,16.76,0,0,1,60.62,81a21.38,21.38,0,0,0-.17,2.67A20.91,20.91,0,0,0,67.3,99.12,21,21,0,0,0,51.23,110,16.68,16.68,0,0,1,45.68,97.6m7.26,22.34a16.54,16.54,0,0,1,.37-3.47,20.88,20.88,0,0,0,19.23-.53,21.31,21.31,0,0,0-.36,3.86,20.9,20.9,0,0,0,5.92,14.58,16.7,16.7,0,0,1-25.16-14.44m56.94-.14a16.71,16.71,0,0,1-25,14.54,20.85,20.85,0,0,0,5.76-14.4,21.22,21.22,0,0,0-.39-4,20.88,20.88,0,0,0,19.29.52,16.84,16.84,0,0,1,.34,3.35M95.65,99a20.92,20.92,0,0,0,6.72-15.37,21.38,21.38,0,0,0-.18-2.67,16.71,16.71,0,0,1,9.45,29,21,21,0,0,0-16-11"/><g class="cls-3"><path class="cls-4" d="M53.3,20.59l-.43.71-1.32-.53A15.17,15.17,0,0,0,54,14l1.35.17a24.62,24.62,0,0,1-.72,3.25V28.64H53.3ZM60.1,28a4.72,4.72,0,0,1-2.67-2.32,13.34,13.34,0,0,1-1,2.84l-1.36-.34A15,15,0,0,0,56.59,21H58l-.16,2.5a5.17,5.17,0,0,0,2.38,3.06V19.82h-3.7c-.11,0-.17-.06-.17-.21v-5c0-.13.06-.19.17-.19h9c.15,0,.21.06.21.19v5c0,.15-.06.21-.21.21H61.54V22.4H66v1.36H61.54V27a11.7,11.7,0,0,0,1.59.1h3.39l-.37,1.42h-2.5a14.39,14.39,0,0,1-2.68-.3Zm4.13-12.19h-6.5s-.06,0-.06.06v2.56c0,.05,0,.08.06.08h6.5a.07.07,0,0,0,.08-.08V15.82Z"/><path class="cls-4" d="M67.62,27.65c1.66-.78,2.17-1.42,2.17-2.85V22.75c0-.11,0-.17-.16-.17H67.91V21.22h2.91c.24,0,.33.11.33.33v3.72c.71,1.66,2.18,1.93,3.59,1.93,2.59,0,5.76-.08,7.68-.16l-.37,1.52-7.6-.09c-1.94-.12-3.23-.76-3.87-1.91a4.58,4.58,0,0,1-2.23,2.27Zm2.61-7.52a17,17,0,0,0-2.48-1.75l.73-1.13A13.28,13.28,0,0,1,71.06,19Zm.59-3.19a14.81,14.81,0,0,0-2.52-1.66L69,14.11a15.18,15.18,0,0,1,2.58,1.71Zm7.75,7.89H82v1.24H73.54c-.3,0-.45-.15-.45-.47V18.09l-.9,1a4,4,0,0,0-.91-.92,9.2,9.2,0,0,0,2.48-4.29l1.27.52L74.32,16h3a18.78,18.78,0,0,0,1.09-2l1.22.63L78.92,16H82l-.12,1.23H78.57V19h3.16v1.23H78.57V21.9h3.16v1.24H78.57ZM77.27,19V17.26H74.56a.16.16,0,0,0-.17.18V19Zm0,2.88V20.25H74.39V21.9Zm0,2.93V23.14H74.39v1.52a.15.15,0,0,0,.17.17Z"/><path class="cls-4" d="M86.07,28v.71H84.64V14.81a.42.42,0,0,1,.48-.48H97a.44.44,0,0,1,.5.48V28.66H96.09V28Zm0-9.42h10V15.9a.19.19,0,0,0-.21-.21H86.27c-.16,0-.22.08-.2.21Zm0,4.06h10v-2.7h-10Zm10,1.36h-10v2.64h10Z"/><path class="cls-4" d="M103,21.18v7.46h-1.3V22.27c-.26.74-.51,1.39-.75,1.94L99.55,24a16.23,16.23,0,0,0,1.8-5.5H99.76V17.09h1.89V14H103v3.09h1.28v1.36H103v.35c.65,1,1.26,2,1.84,3l-1.17.7Zm.56,6a7.61,7.61,0,0,0,2.7-1.87l1,.89a7.62,7.62,0,0,1-2.91,2.13Zm5.29-2.32h-4.4v-1.3h10v1.3h-4.25v2.42a1.5,1.5,0,0,1-1.62,1.56,7.69,7.69,0,0,1-1.83-.28l0-1.43a5.17,5.17,0,0,0,1.52.34c.33,0,.52-.08.52-.56Zm2.65-8.2h2.43c.13,0,.19.07.19.16v3.64a.17.17,0,0,1-.19.19H105c-.11,0-.17-.06-.17-.19V16.81a.16.16,0,0,1,.17-.16h2.51v-1h-2.94V14.46h9.65v1.23h-2.78Zm-5.93,4.81h8.09V22.7h-8.09Zm2-2.07v-1.5h-1.34c-.05,0-.06,0-.05,0v1.41l.05.05Zm2.63-2.74v-1h-1.33v1Zm0,2.74v-1.5h-1.33v1.5Zm3.47,9.24a15.31,15.31,0,0,0-2.48-2l.83-1.11a16.6,16.6,0,0,1,2.53,2Zm-2.17-10.74v1.5h1.26l.06-.05V17.93l-.06,0Z"/><path class="cls-4" d="M128.17,19l-.1,1.21-.11.18-.24.08h-10c-.17-.05-.19-.19-.19-.38l.19-1.09h-1.93V18H118l.26-1.3.08-.13.18,0H128c.19.06.35.11.32.27l-.11,1.2h2.05v1Zm-5.73-4.24v-.87h1.34v.87h5.7l1.06.54a8.15,8.15,0,0,1-.45,2.27l-1.2-.3a4.9,4.9,0,0,0,.25-1.15c0-.1,0-.18-.14-.18H117.46c-.08,0-.11,0-.11.1v1.39h-1.24V15a.21.21,0,0,1,.24-.24Zm3,11.81h-4.31l.26.88a33.48,33.48,0,0,1-4.6,1.38l-.27-1.25,3.52-1h-2.41c-.12,0-.16-.06-.16-.18V21.22c0-.12,0-.16.16-.16h11c.12,0,.18,0,.18.16v5.21a.16.16,0,0,1-.18.18h-2.4a28.31,28.31,0,0,0,3.3,1.07l-.43,1.22c-2.05-.66-3.41-1.12-4.05-1.41Zm-6.74-4h8.9v-.48l-.07,0h-8.78s-.07,0,0,0Zm0,1.49h8.9v-.57h-8.9Zm8.9.93h-8.9v.45l0,.06h8.78l.07-.06Zm-5.38-5.52.1-.48H119l0,.22a.21.21,0,0,0,0,.11c0,.07,0,.12.14.15Zm.3-1.52.1-.5h-3.11c-.14,0-.2.08-.2.23l-.07.27Zm1.06,1-.1.48h3.27c.17,0,.19-.1.21-.48Zm.3-1.54-.08.5H127l0-.27c0-.15-.08-.21-.23-.23Z"/><path class="cls-4" d="M133.83,25.23V20.82h-1.75V19.58h1.75V15.69H132V14.46H137v1.23h-1.92v3.89h1.73v1.24h-1.73v3.9l1.73-.82.61,1.22a28.94,28.94,0,0,1-5.24,2.15L131.65,26Zm8.35-1.6H140.6v.43c0,1-.47,3.35-4.66,4.76l-.66-1.23a6.6,6.6,0,0,0,3-1.43,2.84,2.84,0,0,0,1-2.53h-1.32c-.12,0-.17-.06-.17-.19V14.52c0-.12.05-.19.17-.19h7.69a.17.17,0,0,1,.19.19v8.92a.17.17,0,0,1-.19.19h-2.07v3c0,.25.13.41.42.43h1c.06,0,.11-.13.16-.37l.19-1.49,1.28.44c-.09,1.48-.3,2.33-.59,2.51a1.52,1.52,0,0,1-.87.27h-2.24a.62.62,0,0,1-.67-.67ZM139.11,17h5.33V15.63c0-.05,0-.06-.07-.06h-5.23s0,0,0,.06Zm5.33,4h-5.33v1.31c0,.05,0,.06,0,.08h5.23l.07-.08Zm-5.33-1.24h5.33V18.25h-5.33Z"/><path class="cls-4" d="M53.54,47.06v.72H52.18V35.44c0-.15.06-.21.22-.21h1.65l.7-2.1L56,33.6l-.55,1.63h2.39c.21,0,.3.08.3.27V47.78H56.8v-.72Zm0-6.52H56.8V36.77c0-.13-.06-.18-.21-.18H53.73c-.14,0-.21,0-.19.18ZM56.8,41.9H53.54v3.8H56.8Zm3.84-5.76a9.35,9.35,0,0,1-1.07,2.5l-1.33-.45a11.08,11.08,0,0,0,1.59-4.91l1.34.12L61,34.77h4.55c.36.08.49.11.49.78,0,2.37,0,4.43-.09,6.27-.08,3-.69,4.9-1.81,5.59a2.27,2.27,0,0,1-1.33.32,10.8,10.8,0,0,1-2.91-.53V45.6a9,9,0,0,0,2.73.63c.61,0,1-.13,1.59-1.38.4-1.1.48-4.55.48-7.14,0-1.07,0-1.57-.24-1.57Zm1.51,7.65a28.2,28.2,0,0,0-1.86-5.15l1.28-.43a50.07,50.07,0,0,1,1.88,5.23Z"/><path class="cls-4" d="M69.36,40.05l-.48.86-1.33-.46a15.84,15.84,0,0,0,2.34-7.22l1.34.11a22.22,22.22,0,0,1-.52,3h0v11.4H69.36Zm8-6.61v4.7l0,.55c.19,3.12,1.91,5.9,5.09,8.3l-1.23.92c-2.4-2-3.92-4-4.53-5.81a10.4,10.4,0,0,1-4.58,5.79l-1.07-1.1a8.17,8.17,0,0,0,2.19-1.59A9.69,9.69,0,0,0,76,38.14v-4.7Zm-3.91,7.38a29.57,29.57,0,0,0-1.93-5.32L72.8,35a26.39,26.39,0,0,1,2,5.38Zm5.1-.55a32.72,32.72,0,0,0,1.66-5.18l1.28.41a36.29,36.29,0,0,1-1.71,5.28Z"/><path class="cls-4" d="M85.43,39.62l-.6.89-1.28-.57a15,15,0,0,0,1.75-3,17.07,17.07,0,0,0,1.07-3.77l1.35.22a29.7,29.7,0,0,1-.93,3.39V47.84H85.43Zm6.75,4.59H87.46V42.85h4.72V40.14h-4.4V38.78h4.4V33.13h1.36v5.65h4.69v1.36H93.54v2.71h4.93v1.36H93.54v3.7H92.18Zm-2.34-6A24.25,24.25,0,0,0,88,34.33l1.22-.62a20.07,20.07,0,0,1,1.87,3.9Zm4.93-.65a22.07,22.07,0,0,0,2-3.94l1.23.59a19.26,19.26,0,0,1-2,4Z"/><path class="cls-4" d="M106.34,33.44a.31.31,0,0,1,.35.35v4a.33.33,0,0,1-.37.36h-2l.59.55A12.45,12.45,0,0,1,103.73,40l.66.58a9.69,9.69,0,0,0,1.21-1.7l1,.51a9.92,9.92,0,0,1-2.11,2.5l1.3-.14-.26-.58,1-.37a8.75,8.75,0,0,1,.75,2.21l-.83.26v2c0,.52-.35,2-2.9,2.75L103,46.87a3.22,3.22,0,0,0,2.06-1h-1.92c-.37,0-.54-.19-.54-.56V43.5h1.12v.93c0,.2.09.29.27.29h1.26V43.26h1l-.1-.38-4,.4a6.35,6.35,0,0,0-.25-1.09l.83-.08.93-.73a10.31,10.31,0,0,0-1.84-1.4l.56-1,.57.36,1-1.21h-2.47v9.67h-1.3V33.79a.31.31,0,0,1,.34-.35Zm-4.9,1.84h4v-.53c0-.16-.1-.26-.29-.26h-3.36c-.21,0-.32.1-.31.29Zm4,1h-4v.86h3.65a.29.29,0,0,0,.31-.32Zm7.5,1.9h-3.23l.48.37a17.5,17.5,0,0,1-1.31,1.73l.62.53a8,8,0,0,0,1.23-1.87l1,.46a10.08,10.08,0,0,1-1.76,2.34l1.14-.11-.26-.5,1-.46a10.18,10.18,0,0,1,.88,2.09l-1,.4-.16-.45-4,.41A7.25,7.25,0,0,0,107.3,42l1.06-.1.33-.3a7.58,7.58,0,0,0-1.77-1.34l.52-1,.6.37,1-1.46h-1.15a.35.35,0,0,1-.39-.4v-4a.34.34,0,0,1,.37-.38h5.91a.36.36,0,0,1,.4.4V46.48c0,.43-.24,1.47-2,1.47a6.48,6.48,0,0,1-1.25-.12l0-1.43a4.89,4.89,0,0,0,1.2.18c.22,0,.7,0,.7-.63Zm-3.85,6.49h1.32c.12,0,.18,0,.18-.18v-1h1.12v1.94a.29.29,0,0,1-.32.32h-2.3v2.13H107.8V43.38h1.25Zm-.23-9.38h4.08c0-.67,0-.79-.37-.79h-3.42c-.21,0-.31.1-.29.28Zm4.08,1h-4.08v.5c0,.24.11.36.34.36h3.74Z"/><path class="cls-4" d="M117.49,39.71l-.66,1-1.28-.56a15.39,15.39,0,0,0,2.88-7l1.35.24a28.13,28.13,0,0,1-.93,3.45V47.91h-1.36Zm1.63,6.95a10,10,0,0,0,2.53-3.84l1.28.48a11.37,11.37,0,0,1-2.64,4.14Zm5-4.95-4.21.32-.36-1.34,3.32-.23.59-.64A17.07,17.07,0,0,0,120,37.47l.61-1.22a3.72,3.72,0,0,1,1.4.82c.43-.61.88-1.26,1.29-2-1,0-2,.08-2.82.07l0-1.35a52,52,0,0,0,8.7-.61l.08,1.36-3.92.37L125,35A30.67,30.67,0,0,1,123,37.82l1.25,1q1.27-1.63,2.48-3.52l1.11.78a38.71,38.71,0,0,1-3.12,4.28l3.39-.26-.74-1.43,1.24-.54c1.07,2.16,1.76,3.59,2,4.27l-1.27.47-.64-1.54-3.26.29V48h-1.36Zm4.94,5.86a24.7,24.7,0,0,0-2.29-4.39l1.19-.67A22.68,22.68,0,0,1,130.31,47Z"/></g></g></g></svg>