<svg xmlns="http://www.w3.org/2000/svg" viewBox="0 0 160.92 160.93"><defs><style>.cls-1{fill:#007dbb;}.cls-1,.cls-2,.cls-3{opacity:0.97;}.cls-2,.cls-4{fill:#fff;}</style></defs><title>資產 14_1</title><g id="圖層_2" data-name="圖層 2"><g id="CHI"><rect class="cls-1" width="160.92" height="160.93"/><polygon class="cls-2" points="20.97 13.54 20.97 45.97 15.51 45.97 15.51 21.15 15.46 21.15 11.64 25.12 11.59 25.12 11.59 19.42 16.61 13.54 20.97 13.54"/><path class="cls-2" d="M37.57,46V40.72h2.2V36.46h-2.2V13.53H32.21L22.79,37.37v3.35H32.4V46Zm-10-9.52L32.45,23.1h0V36.46Z"/><g class="cls-3"><path class="cls-4" d="M123.84,117.42c-2-2.74-15.11-19.42-33.45-19.42-15.92,0-33,14.45-33,14.45S51,99.35,37.94,98.09l-.25,0h-.08a.54.54,0,0,0-.5.52,1.57,1.57,0,0,0,.2.48c1.69,2.8,6,10.77,6,18.74s-4.33,16-6,18.76l-.11.18a.54.54,0,0,0-.08.28.51.51,0,0,0,.48.51h.28C51,136.3,57.43,123.16,57.43,123.16s17,14.44,33,14.44c18.34,0,31.43-16.68,33.45-19.41.06-.07.1-.14.14-.18a.49.49,0,0,0,0-.2.39.39,0,0,0,0-.2,1.82,1.82,0,0,0-.14-.19m-23.25,2.49a5.35,5.35,0,1,1,5.36-5.35,5.35,5.35,0,0,1-5.36,5.35"/><path class="cls-4" d="M37.52,66.65l-.1,0a.52.52,0,0,0-.52.53v3.65a.5.5,0,0,0,.15.38c8.85,7.69,17.24.48,19.18-1.42a.5.5,0,0,1,.14-.15.55.55,0,0,1,.29-.09.5.5,0,0,1,.35.14l0,0c10,9.54,20.48,1.81,22.67,0l.21-.2a.45.45,0,0,1,.2,0,.49.49,0,0,1,.21,0l.21.2c2.18,1.81,12.67,9.54,22.67,0,0,0,0,0,0,0a.51.51,0,0,1,.36-.14.62.62,0,0,1,.29.09.5.5,0,0,1,.14.15c1.94,1.9,10.32,9.11,19.18,1.42a.55.55,0,0,0,.15-.38V67.16a.52.52,0,0,0-.52-.53l-.11,0-.27.14c-2.72,1.36-11.17,4.61-18.83-2.64l-.23-.22a.51.51,0,0,0-.22,0l-.16,0a.61.61,0,0,0-.26.21C100.46,65.86,90,73,80.64,64.25l-.14-.14a.54.54,0,0,0-.75,0l-.14.14C70.28,73,59.78,65.86,57.5,64.12a.61.61,0,0,0-.26-.21,1,1,0,0,0-.17,0,.59.59,0,0,0-.22,0,2.39,2.39,0,0,1-.23.22c-7.66,7.25-16.1,4-18.83,2.64l-.27-.14"/><path class="cls-4" d="M56.23,83.05a.47.47,0,0,1,.14-.14.48.48,0,0,1,.29-.1A.47.47,0,0,1,57,83l0,0c10,9.53,20.48,1.8,22.67,0l.21-.21a.64.64,0,0,1,.2,0,.66.66,0,0,1,.21,0l.21.21c2.18,1.8,12.67,9.53,22.67,0a0,0,0,0,1,0,0,.47.47,0,0,1,.35-.15.46.46,0,0,1,.29.1.41.41,0,0,1,.15.14C106,85,114.33,92.17,123.2,84.47a.54.54,0,0,0,.15-.37V80.44a.52.52,0,0,0-.52-.52l-.11,0-.27.13c-2.72,1.37-11.17,4.6-18.83-2.64l-.22-.21a.46.46,0,0,0-.23,0,.32.32,0,0,0-.16,0,.42.42,0,0,0-.26.19c-2.29,1.74-12.78,8.84-22.12.13l-.13-.14a.56.56,0,0,0-.38-.14.55.55,0,0,0-.37.14l-.14.14c-9.33,8.71-19.83,1.61-22.11-.13a.42.42,0,0,0-.26-.19.35.35,0,0,0-.17,0,.42.42,0,0,0-.22,0l-.23.21c-7.66,7.24-16.1,4-18.83,2.64l-.27-.13-.1,0a.52.52,0,0,0-.52.52V84.1a.5.5,0,0,0,.15.37c8.85,7.7,17.24.49,19.18-1.42"/></g><g class="cls-3"><path class="cls-4" d="M54.6,25.09h5.19l.35.38A15.32,15.32,0,0,1,55.48,35l-1.25-.93a17.09,17.09,0,0,0,3-3.26,11.41,11.41,0,0,0,1.7-3.94.29.29,0,0,0,0-.14c0-.15-.21-.19-.42-.21H54.6ZM67.79,35.78a25.87,25.87,0,0,1-5.31-7.44v6.91A1.7,1.7,0,0,1,60.54,37a9.18,9.18,0,0,1-2.83-.59l.09-1.47,1.51.48a4,4,0,0,0,.93.14c.67,0,.81-.25.81-.65V22.4h1.43v1.94l.09.54a20.21,20.21,0,0,0,6.49,10Zm-3.46-7.9a25.13,25.13,0,0,0,3.08-4l1.1.8a24.47,24.47,0,0,1-3.12,4.05Z"/><path class="cls-4" d="M83.18,31.73a64.94,64.94,0,0,0-5.2-3.9v9.28H76.56V24.39H70.49V23H84.9v1.43H78v1.89a67.31,67.31,0,0,1,6.1,4.19Z"/><path class="cls-4" d="M93.18,35.37V31.48H88.12V30.12h5.06V26.47h-4a9.91,9.91,0,0,1-1.87,2.73l-1.15-.86a9.69,9.69,0,0,0,2.69-5.71l1.4.2a14.06,14.06,0,0,1-.52,2.29h3.42V22.4h1.43v2.72h5.66v1.35H94.61v3.65h5.15v1.36H94.61v3.89h6.22v1.36H86.56V35.37Z"/><path class="cls-4" d="M102.22,32.33c1.17-.42,2.13-.79,2.86-1.12V26.66h-1a20.19,20.19,0,0,1-.53,2.82l-1.33-.2a18.89,18.89,0,0,0,.77-5.55V22.9h1.3v.83l-.08,1.57h.92v-3h1.36v3h1.38v1.36h-1.38v3.87l1.25-.75.77,1.1a15.48,15.48,0,0,1-2,1.14v5.14h-1.36v-4.5l-2.13.9Zm6.07,3.34c3.26-1.9,5-5.27,5.1-10.07h-1l-.26,1.88a14.07,14.07,0,0,1-3.9,6.53l-1.19-.74c3.25-3.25,3.73-4.91,4-7.67H110A14.41,14.41,0,0,1,108.4,29l-1.32-.51a14,14,0,0,0,2.25-6l1.34.18-.32,1.65h6.15c.36.09.51.12.51.78l-.08,6.23c-.08,3-.64,4.88-1.65,5.57a2,2,0,0,1-1.22.3,9.3,9.3,0,0,1-2.3-.38l-.05-1.59a7.25,7.25,0,0,0,2.14.48,1.08,1.08,0,0,0,.65-.16,2.61,2.61,0,0,0,.73-1.21,12.43,12.43,0,0,0,.35-3.2c.07-1.7.08-3,.08-3.89a5.11,5.11,0,0,0-.08-1.45.16.16,0,0,0-.17-.11h-.66a17.27,17.27,0,0,1-1.44,6.45,12.54,12.54,0,0,1-4,4.61Z"/></g></g></g></svg>