<svg xmlns="http://www.w3.org/2000/svg" viewBox="0 0 160.92 160.93"><defs><style>.cls-1{fill:#3fae49;}.cls-1,.cls-2,.cls-3{opacity:0.97;}.cls-2,.cls-4{fill:#fff;}</style></defs><title>資產 15_1</title><g id="圖層_2" data-name="圖層 2"><g id="CHI"><rect class="cls-1" width="160.92" height="160.93"/><polygon class="cls-2" points="11.78 19.36 11.78 25.05 11.83 25.05 15.66 21.08 15.71 21.08 15.71 45.92 21.16 45.92 21.16 13.47 16.81 13.47 11.78 19.36"/><path class="cls-2" d="M34.13,23.76c-2.15,0-3.73.76-4.59,2.25h-.05V17.92h9.38V13.47H24.51V31.75h5V31c0-1.91.86-3,2.39-3,1.68,0,2.35,1.15,2.35,2.92v7.85c0,1.72-.62,2.91-2.3,2.91-1.87,0-2.53-1.24-2.53-3.15V34.53h-5v3.69c0,4.92,2,8.08,7.51,8.08s7.75-2.92,7.75-7.42V30.94c0-5.12-2.63-7.18-5.55-7.18"/><g class="cls-3"><path class="cls-4" d="M62.71,108.81h4.74a.35.35,0,0,1,.35.35v11.72a.36.36,0,0,1-.36.36H62.71a.36.36,0,0,1-.36-.36V109.16A.36.36,0,0,1,62.71,108.81Z"/><path class="cls-4" d="M119.53,126.27H41.39a.37.37,0,0,0-.36.37v4.77a.35.35,0,0,0,.36.35h78.14a.35.35,0,0,0,.36-.35v-4.77a.37.37,0,0,0-.36-.37"/><path class="cls-4" d="M119.53,135.76H41.39a.36.36,0,0,0-.36.35v4.79a.36.36,0,0,0,.36.36h78.14a.36.36,0,0,0,.36-.36v-4.79a.36.36,0,0,0-.36-.35"/><path class="cls-4" d="M104.66,95.84a11.49,11.49,0,0,0-6.76-2.55A9,9,0,0,0,91.63,96a.64.64,0,0,0-.21.49v.42a.7.7,0,0,0,.22.54.64.64,0,0,0,.55.12.8.8,0,0,0,.15,0,1.08,1.08,0,0,0,.39-.25,6.26,6.26,0,0,1,3.13-.65,11.82,11.82,0,0,1,8,3.37l.07.07a1,1,0,0,0,.68.28.89.89,0,0,0,.66-.28l.07-.06a11.84,11.84,0,0,1,8.06-3.38,6.28,6.28,0,0,1,3.14.65,1.08,1.08,0,0,0,.43.26,1.06,1.06,0,0,0,.46,0,.67.67,0,0,0,.49-.65v-.37a.71.71,0,0,0-.21-.49,9,9,0,0,0-6.35-2.73,11.47,11.47,0,0,0-6.75,2.55"/><path class="cls-4" d="M99.81,64.69a.7.7,0,0,0-.34.41l-.08.26a.65.65,0,0,0,.11.59.63.63,0,0,0,.48.26.18.18,0,0,0,.1,0,1,1,0,0,0,.37-.1,2.4,2.4,0,0,1,.48-.05,6.76,6.76,0,0,1,5.58,3.64l0,.06a.83.83,0,0,0,.5.4,1,1,0,0,0,.25,0,.8.8,0,0,0,.39-.09l0,0a7.78,7.78,0,0,1,3.49-.86,5.28,5.28,0,0,1,3.56,1.14,1,1,0,0,0,.26.29,1.51,1.51,0,0,0,.26.12l.11,0h.07a.67.67,0,0,0,.31-.07.66.66,0,0,0,.33-.4l.07-.23a.63.63,0,0,0,0-.19.64.64,0,0,0-.09-.34,5.89,5.89,0,0,0-5.3-3.19,8.44,8.44,0,0,0-2.82.53,6.81,6.81,0,0,0-5.27-3,6.56,6.56,0,0,0-2.93.74"/><path class="cls-4" d="M83.3,76.71l0,.35a.66.66,0,0,0,.32.53.64.64,0,0,0,.52.08l.12,0a1,1,0,0,0,.33-.25,5.76,5.76,0,0,1,3-.68,9.61,9.61,0,0,1,6.18,2.34l.06,0a.9.9,0,0,0,.6.23h.06a.89.89,0,0,0,.61-.3l.05,0A9.39,9.39,0,0,1,102,75.81a4.66,4.66,0,0,1,2,.37,1,1,0,0,0,.41.21,1,1,0,0,0,.28,0,.53.53,0,0,0,.17,0,.66.66,0,0,0,.44-.67l0-.31a.64.64,0,0,0-.23-.46,7.66,7.66,0,0,0-5-2,9.35,9.35,0,0,0-5.85,2.42A9.81,9.81,0,0,0,89,73.65a7.49,7.49,0,0,0-5.55,2.56.72.72,0,0,0-.18.5"/><path class="cls-4" d="M43.76,83a8.47,8.47,0,0,1,8.47-8.47l.54,0a11.46,11.46,0,0,1,22.88.87,11.31,11.31,0,0,1-1.16,5,12.8,12.8,0,0,1-2.77,25.3l-17.1-.1h0A9.06,9.06,0,0,1,48,90.33,8.47,8.47,0,0,1,43.76,83Z"/></g><g class="cls-3"><path class="cls-4" d="M54.57,26.66a.87.87,0,0,0-.07.3.36.36,0,0,0,.07.22,6.23,6.23,0,0,1,1.31,3.49,2,2,0,0,1-2.05,2.16,3.69,3.69,0,0,1-1.15-.19v3.88h-1.3V22.33l0-.16.14,0h3.32l.89.58Zm-.37-3a.32.32,0,0,0,0-.14c0-.18-.16-.18-.29-.18H52.79l-.08,0,0,.08V31.3a2.09,2.09,0,0,0,1,.27c.44,0,.9-.13.9-1a7.63,7.63,0,0,0-1.39-3.46V27Zm5.71,11.05V32.59H56.5V31.3h3.41V29.81h1.36V31.3h3.88v1.29H61.27v2.15h4.5V36H55.32v-1.3Zm1.44-7.8H59.47v.26a4.11,4.11,0,0,1-2.82,3.65l-.79-1.09a5.21,5.21,0,0,0,1.08-.48,2.54,2.54,0,0,0,1.29-2.34H55.75V25.71h4.1V24.19H56.63V23h3.22V21.74h1.36V23H65v1.23H61.21v1.52h4.32v1.23H62.59v1.67a.68.68,0,0,0,.67.69h.86a.66.66,0,0,0,.36-.13l.08-.16L64.67,28l1.15.29A5.36,5.36,0,0,1,65.47,30a1.18,1.18,0,0,1-.83.48H62.55a1.36,1.36,0,0,1-1.2-1.23Z"/><path class="cls-4" d="M68.66,33.14V26.88H67V25.52h1.66V21.85H70v3.67h1.51v1.36H70v5.51l1.17-.84.87,1a21.25,21.25,0,0,1-4.42,2.57L66.82,34Zm3.94-4.61-1.26.54-.69-1.25L72.6,27V23.07H74v3.31L76,25.49V21.68H77.4V24.9l2.92-1.25.92.41v5.61a2,2,0,0,1-2.11,2,6.61,6.61,0,0,1-1-.09L78,30.26l1,.14c.93-.08.93-.88.93-1.3V25.58l-.08-.14h-.12l-2.35,1V33H76V27l-2.08.9v5.93c0,.58.06.9.93.87h4.18c1.1,0,1.1-.47,1.1-1.17,0-.34,0-.74-.06-1.23l1.37.16c0,.33,0,.64,0,.93a4.52,4.52,0,0,1-.29,2.09c-.41.56-.69.64-1.68.64H74.28c-1.6,0-1.71-1.44-1.68-2.08Z"/><path class="cls-4" d="M89.82,34.77V30.88H84.76V29.52h5.06V25.87h-4A10.21,10.21,0,0,1,84,28.61l-1.15-.87A9.57,9.57,0,0,0,85.51,22l1.41.21a15.45,15.45,0,0,1-.53,2.29h3.43V21.81h1.42v2.72h5.67v1.34H91.24v3.65H96.4v1.36H91.24v3.89h6.23v1.36H83.19V34.77Z"/><path class="cls-4" d="M98.85,31.73c1.17-.42,2.13-.78,2.87-1.12V26.06h-1.06a20.19,20.19,0,0,1-.53,2.82l-1.32-.19a19.31,19.31,0,0,0,.76-5.56V22.3h1.3v.83l-.08,1.57h.93v-3h1.36v3h1.38v1.36h-1.38v3.88l1.25-.76.77,1.11a17.54,17.54,0,0,1-2,1.14v5.13h-1.36V32.07L99.59,33Zm6.07,3.35Q109.82,32.22,110,25h-1l-.26,1.87a14,14,0,0,1-3.91,6.53l-1.18-.74c3.25-3.25,3.73-4.91,4-7.66H106.6A13.73,13.73,0,0,1,105,28.35l-1.31-.51a14.12,14.12,0,0,0,2.24-6l1.35.17L107,23.63h6.14c.37.1.51.13.51.78l-.08,6.23c-.08,3-.64,4.88-1.65,5.57a2,2,0,0,1-1.21.31,8.93,8.93,0,0,1-2.31-.39l0-1.58a7.12,7.12,0,0,0,2.14.48,1,1,0,0,0,.64-.16,2.6,2.6,0,0,0,.74-1.22,12.91,12.91,0,0,0,.35-3.2c.06-1.7.08-3,.08-3.89a5.42,5.42,0,0,0-.08-1.44A.17.17,0,0,0,112,25h-.65A17.32,17.32,0,0,1,110,31.46a12.56,12.56,0,0,1-4,4.61Z"/></g></g></g></svg>