<svg xmlns="http://www.w3.org/2000/svg" viewBox="0 0 160.92 160.93"><defs><style>.cls-1{fill:#fdb713;}.cls-1,.cls-2,.cls-3{opacity:0.97;}.cls-2,.cls-4{fill:#fff;}</style></defs><title>資產 7_1</title><g id="圖層_2" data-name="圖層 2"><g id="CHI"><rect class="cls-1" width="160.92" height="160.93"/><polygon class="cls-2" points="16.51 17.94 24.93 17.94 17.65 45.93 23.06 45.93 30.19 18.51 30.19 13.49 16.51 13.49 16.51 17.94"/><g class="cls-3"><path class="cls-4" d="M80.67,142.4a2,2,0,0,0,1.94-1.82V130.26a1.94,1.94,0,0,0-3.88,0v10.32a2,2,0,0,0,1.94,1.82"/><path class="cls-4" d="M80.46,78A23.59,23.59,0,1,0,104,101.55,23.59,23.59,0,0,0,80.46,78m-1.75,9.32a1.75,1.75,0,0,1,3.5,0v8.09a1.75,1.75,0,0,1-3.5,0Zm1.75,26.35a12.27,12.27,0,0,1-3.65-24v4.56a8,8,0,1,0,7.27,0V89.65a12.27,12.27,0,0,1-3.62,24"/><path class="cls-4" d="M53.38,101.35a2,2,0,0,0-1.81-1.94H41.24a1.94,1.94,0,0,0,0,3.88H51.57a2,2,0,0,0,1.81-1.94"/><path class="cls-4" d="M121.51,101.35a2,2,0,0,0-1.82-1.94H109.37a1.94,1.94,0,0,0,0,3.88h10.32a2,2,0,0,0,1.82-1.94"/><path class="cls-4" d="M80.47,74.27a2,2,0,0,0,1.93-1.81V62.13a1.94,1.94,0,0,0-3.88,0V72.46a2,2,0,0,0,2,1.81"/><path class="cls-4" d="M57,87.9a2,2,0,0,0-.61-2.58l-9-5.13a1.94,1.94,0,0,0-1.93,3.36l9,5.13A2,2,0,0,0,57,87.9"/><path class="cls-4" d="M116.09,121.74a2,2,0,0,0-.61-2.58l-9-5.13a1.94,1.94,0,0,0-1.92,3.36l9,5.13a2,2,0,0,0,2.54-.78"/><path class="cls-4" d="M93.92,77.85a2,2,0,0,0,2.57-.61l5.13-9a1.94,1.94,0,0,0-3.36-1.93l-5.13,9a2,2,0,0,0,.79,2.54"/><path class="cls-4" d="M60.08,137a2,2,0,0,0,2.58-.62l5.13-9a1.95,1.95,0,0,0-3.37-1.93l-5.13,9a2,2,0,0,0,.79,2.54"/><path class="cls-4" d="M67,77.87a2,2,0,0,0,.77-2.53l-5.15-9a1.94,1.94,0,0,0-3.36,1.94l5.15,9a2,2,0,0,0,2.59.6"/><path class="cls-4" d="M100.93,136.93a2,2,0,0,0,.77-2.53l-5.15-9a1.94,1.94,0,0,0-3.36,1.94l5.15,9a2,2,0,0,0,2.59.6"/><path class="cls-4" d="M103.94,87.85a2,2,0,0,0,2.53.78l9-5.15a1.94,1.94,0,0,0-1.94-3.36l-8.95,5.15a2,2,0,0,0-.6,2.58"/><path class="cls-4" d="M44.88,121.82a2,2,0,0,0,2.54.77l8.95-5.15a1.94,1.94,0,0,0-1.93-3.36l-9,5.15a2,2,0,0,0-.6,2.59"/></g><g class="cls-3"><path class="cls-4" d="M46.72,22l-2.28.29a5.52,5.52,0,0,0-.3-1.2L45.23,21a20.91,20.91,0,0,0,1.39-1.76,12.33,12.33,0,0,0-2.54-1.91l.57-1.09.71.44A25.58,25.58,0,0,0,46.51,14l1.12.56a24.56,24.56,0,0,1-1.35,2.8l1,.82a13.23,13.23,0,0,0,1-2.36l1.19.36a13.05,13.05,0,0,1-2.65,4.59l1.94-.27-.38-1,1.13-.32a22.4,22.4,0,0,1,.92,3.09l-1.14.24-.18-.76-1.1.17v7H46.72Zm-2.56,5.8a25.66,25.66,0,0,0,.68-4.56l1.17.14a22.67,22.67,0,0,1-.7,4.63Zm5.49-4.63.49,3.41L49,26.75l-.48-3.31Zm2.19-1a13.79,13.79,0,0,0-1.44-2.5,1.09,1.09,0,0,1-.32-.65.17.17,0,0,1,.05-.15,10.2,10.2,0,0,0,1.5-2.67l1.09.57A16.18,16.18,0,0,1,51.36,19a.1.1,0,0,0,0,.08.61.61,0,0,0,0,.11,12.74,12.74,0,0,1,1.56,2.26Zm2.06,5V23.9H50.75V22.67h8V23.9H55.26v3.27H59V28.4H50.19V27.17ZM50.25,14.54H58.9v1.23H50.25Zm4.63,7.57A12.6,12.6,0,0,0,53.3,19.6,1,1,0,0,1,53,19a.23.23,0,0,1,.07-.18,9.27,9.27,0,0,0,1.58-2.69l1.07.61A13.88,13.88,0,0,1,54.3,19s0,0,0,.05a.85.85,0,0,1,0,.09,12.55,12.55,0,0,1,1.59,2.21Zm3-.06a13.2,13.2,0,0,0-1.47-2.32,1.18,1.18,0,0,1-.34-.61.23.23,0,0,1,0-.15,9.12,9.12,0,0,0,1.36-2.78l1.12.53a12.67,12.67,0,0,1-1.25,2.33.19.19,0,0,0,0,.08.24.24,0,0,0,0,.12,13.06,13.06,0,0,1,1.54,2.06Z"/><path class="cls-4" d="M62.06,20.93A16.07,16.07,0,0,0,60.16,19l.94-1a13.74,13.74,0,0,1,2,2Zm-1.9,7.38a13.27,13.27,0,0,0,2.12-5.89l1.3.16a15.2,15.2,0,0,1-2.11,6.22ZM62.48,17.2a13.92,13.92,0,0,0-2.18-2l.88-1.05a14.67,14.67,0,0,1,2.26,2Zm.77,3.93a8.36,8.36,0,0,0,1.28-2.73h-.88V17.28h3.63a.46.46,0,0,1,.37.22,17.46,17.46,0,0,1-.23,3.6,1,1,0,0,1-1.07.63,5.54,5.54,0,0,1-1-.13l-.1-1.3a2.7,2.7,0,0,0,.92.24c.16,0,.17,0,.35-.25A7,7,0,0,0,66.59,19c0-.53,0-.53-.21-.64H65.6a9.19,9.19,0,0,1-1.28,3.18Zm9.25,5.08H65.85A5.21,5.21,0,0,1,64.33,29l-1.07-.79c1-.75,1.49-2.06,1.55-3.95V22h1.3v.79H72.5v-1h1.29v7H72.5ZM68.62,15v-.89h1.3V15h4.59v1.12H64.13V15ZM72.5,25.1V23.9H66.11v.31l-.06.89Zm-3.91-6.54a17.28,17.28,0,0,0-1.34-1.73l.89-.66,1,1.35L69.6,17l.58-.77.83.72L69.7,18.57V22H68.59ZM74,21.44A9.66,9.66,0,0,1,72.64,18l-.48.07c-.08,0-.1.05-.08.11v2.19l.93-.25.25,1a14.84,14.84,0,0,1-2.91.61l-.17-1,.8-.11V17.37c0-.16,0-.24.25-.25a11.32,11.32,0,0,0,2.71-.52l.54,1-.88.26a8.49,8.49,0,0,0,1.47,3.25Z"/><path class="cls-4" d="M76.11,27.71a3.64,3.64,0,0,0,1.65-.8,2.49,2.49,0,0,0,.52-1V23.25c0-.11-.06-.16-.17-.16H76.38V21.73h2.91q.36,0,.36.33v3.73a1.62,1.62,0,0,0,.62.8c1,.9,2.7.9,4.39.9,1.53,0,3.61-.08,6.25-.21l-.28,1.54H83.89c-2.37-.08-4-.58-4.77-1.43A4.49,4.49,0,0,1,76.6,29ZM78.6,20.4a13.28,13.28,0,0,0-2.44-1.59l.72-1.18a14,14,0,0,1,2.53,1.65Zm.24-3.25a17,17,0,0,0-2.62-1.81L77,14.19A14.49,14.49,0,0,1,79.65,16Zm9.74,8.16c0,.13-.07.19-.2.19H82.89c-.11,0-.17-.06-.17-.19V22.13c0-.12.06-.18.17-.18H85v-.9H82.62V19.89H85V19H82.14a.08.08,0,0,0-.09.09v7.46h-1.3V18.05a.28.28,0,0,1,.3-.32h1.83l-.32-1.46H80.43V15h4.48v-.9h1.36V15H90.9v1.23H88.43l-.3,1.46h2.16a.29.29,0,0,1,.32.32v7.66c0,1-.72,1.48-1.78,1.48a6.22,6.22,0,0,1-1.13-.12l-.07-1.44a4.27,4.27,0,0,0,1,.21.62.62,0,0,0,.64-.64V19.05c0-.06,0-.09-.11-.09H86.3v.93h2.41v1.16H86.3V22h2.08c.13,0,.2.06.2.18Zm-4.36-7.58h2.53l.32-1.46H83.93Zm3.06,5.39H84s-.07,0,0,.05v1.09l0,.06h3.28l.06-.06V23.17Z"/><path class="cls-4" d="M94.83,24.1a19.63,19.63,0,0,1-1.25,4.48l-1.42-.42A19,19,0,0,0,93.6,22V15a.35.35,0,0,1,.4-.4h11.52A.38.38,0,0,1,106,15v12c0,1.74-1.49,1.74-2,1.74a13.52,13.52,0,0,1-2.07-.19L101.82,27a8.82,8.82,0,0,0,2,.37c.5,0,.75-.13.75-.77V24.1h-4.27v4.3H99V24.1Zm.11-1.37h4V20h-4Zm4-4.12V16H95.12C95,16,95,16,95,16.14v2.47ZM100.32,16v2.65h4.27V16.14a.16.16,0,0,0-.17-.18Zm0,6.77h4.27V20h-4.27Z"/><path class="cls-4" d="M110.08,28v.72h-1.36V16.38c0-.14.06-.21.22-.21h1.65l.7-2.09,1.27.46L112,16.17h2.39c.21,0,.3.08.3.27V28.72h-1.36V28Zm0-6.51h3.26V17.71c0-.13-.06-.18-.21-.18h-2.86c-.14,0-.21,0-.19.18Zm3.26,1.36h-3.26v3.79h3.26Zm3.84-5.76a9.28,9.28,0,0,1-1.07,2.49l-1.33-.45a11.08,11.08,0,0,0,1.59-4.91l1.34.13-.19,1.36h4.55c.36.08.49.11.49.78,0,2.37,0,4.44-.09,6.28-.08,3-.69,4.9-1.81,5.58a2.22,2.22,0,0,1-1.33.32,10.72,10.72,0,0,1-2.91-.52V26.54a9,9,0,0,0,2.73.63c.61,0,1-.13,1.59-1.38.4-1.1.48-4.54.48-7.14,0-1.07,0-1.56-.24-1.56Zm1.51,7.65a29.07,29.07,0,0,0-1.86-5.16l1.28-.43A50.34,50.34,0,0,1,120,24.38Z"/><path class="cls-4" d="M46.81,40.29A16.77,16.77,0,0,0,44.3,38.7L45,37.52a14.66,14.66,0,0,1,2.59,1.63Zm-2.51,7a29.92,29.92,0,0,0,2.35-5.94L48,41.7a32.08,32.08,0,0,1-2.43,6.19Zm2.79-10.8a15.87,15.87,0,0,0-2.63-1.81l.74-1.15a14.2,14.2,0,0,1,2.7,1.85Zm7,1.58H59v1.23H48.13V38.06h4.59v-.83H48.88V36.11h3.84v-.88h-4.4V34.11h4.4v-.83h1.36v.83h4.5v1.12h-4.5v.88h4v1.12h-4ZM50.24,45.7V48h-1.3V40.38c0-.21.08-.3.29-.3h8.56c.21,0,.32.09.32.3v6.23c0,1.33-1.24,1.54-2.11,1.54a9.1,9.1,0,0,1-1.74-.2l0-1.44a7.89,7.89,0,0,0,1.71.28c.9,0,.9-.52.9-1.09Zm0-3.43h6.58v-.91c0-.06,0-.1-.11-.1H50.32s-.08,0-.08.1Zm0,2.26h6.58V43.44H50.24Z"/><path class="cls-4" d="M62.3,40.59a13.7,13.7,0,0,0-2.19-2L61,37.58a15.68,15.68,0,0,1,2.26,2Zm-2.14,6.56a12.44,12.44,0,0,0,2.24-5.52l1.34.24a14,14,0,0,1-2.3,5.84ZM62.3,36.62a13.27,13.27,0,0,0-2-2.06l1-1a13.35,13.35,0,0,1,2,2.11ZM63,46.72a8.17,8.17,0,0,0,3.29-1.57l.82,1.08A8.75,8.75,0,0,1,63.53,48Zm5.26-2.21-4.14.24-.32-1.28,4-.19A13.09,13.09,0,0,0,65,41.54l.52-1.13a4.42,4.42,0,0,1,1.32.72l1.24-1.6H67v.69H65.68v-.69H63.5V38.3h2.18v-.86H63.63V36.27h2.05V35.4H63.57V34.17h2.11v-.83H67v.83h2V35.4H67v.87h1.84v1.17H67v.86H68.9v1.23h-.65l.81.69a15.76,15.76,0,0,1-1.32,1.59l1,.69a26.92,26.92,0,0,0,2-2.41l1,.79a24.9,24.9,0,0,1-1.87,2.27L72.56,43,71.86,42,73,41.31c1,1.49,1.6,2.58,1.92,3.2l-1.16.56-.49-.91-3.68.26v3.63H68.22Zm.84-5.3a7.59,7.59,0,0,0,1.55-4.11H69.52V33.85h4.66a.45.45,0,0,1,.46.39c0,2.85-.14,4.51-.38,5a1.47,1.47,0,0,1-1.47.86,5.19,5.19,0,0,1-1.61-.3l0-1.52a3.39,3.39,0,0,0,1.33.45c.22,0,.38-.08.6-.43l.13-.47c.06-.81.1-1.44.1-1.87s0-.85-.24-.85h-1.3a9.85,9.85,0,0,1-1.58,4.67Zm5.13,8.84a21.17,21.17,0,0,0-3.36-1.79L71.44,45a20,20,0,0,1,3.43,1.81Z"/><path class="cls-4" d="M82.45,37l-5.91.8-.42-1.33.8-.08a21.12,21.12,0,0,0,1.65-3.14l1.17.56a17.5,17.5,0,0,1-1.17,2.37l3.19-.38-.63-1,1.19-.64c.91,1.51,1.57,2.66,1.93,3.44L83,38.08Zm-4.31,8v3H76.78V38.69a.42.42,0,0,1,.46-.48h5.54a.42.42,0,0,1,.48.48v7.74a1.57,1.57,0,0,1-.64,1.35,2.22,2.22,0,0,1-1.2.27,8.43,8.43,0,0,1-1.65-.19l-.09-1.54a4.68,4.68,0,0,0,1.49.35.69.69,0,0,0,.73-.7v-1Zm0-4H81.9V39.61c0-.08-.05-.11-.13-.11H78.25c-.08,0-.11,0-.11.11Zm0,2.69H81.9V42.26H78.14ZM85.66,43a20.54,20.54,0,0,0,4.49-1.76l.67,1.17a29.09,29.09,0,0,1-5.16,2v1.33c0,.53.07.88.9.85h2.08c1,0,1.11-.29,1.14-1.94l1.29.21a6.27,6.27,0,0,1-.38,2.48c-.42.5-.58.61-1.62.61H86c-1.07,0-1.65-.72-1.6-2V40.91h1.29Zm.13-7.57A18.81,18.81,0,0,0,90,34l.66,1.19a28.68,28.68,0,0,1-4.84,1.7v1.47c0,.54.07.88.9.85h1.82c1.08,0,1.08-.32,1.08-1.78l1.31.14a5.74,5.74,0,0,1-.34,2.39c-.4.49-.57.61-1.6.61H86.1c-1,0-1.65-.6-1.6-2V33.36h1.29Z"/><path class="cls-4" d="M92.16,47.2a13.14,13.14,0,0,0,2-5.71l1.29.16a15.27,15.27,0,0,1-2,6Zm2.44-6.93a16.82,16.82,0,0,0-2.4-1.82L93,37.34a14.27,14.27,0,0,1,2.5,1.87Zm.28-3.79a14.62,14.62,0,0,0-2.5-1.83l.78-1.13a14.62,14.62,0,0,1,2.57,1.87Zm7,5.68H98.73c-.11,0-.17-.06-.17-.18V36.41a.15.15,0,0,1,.17-.17h2.93V35.07H97.84a.16.16,0,0,0-.18.17v6a10.79,10.79,0,0,1-2,6.57l-1.2-.6a9.43,9.43,0,0,0,2-6.37V34.12a.32.32,0,0,1,.36-.35h10v1.3H103v1.17h3.17c.13,0,.17.06.17.17V42c0,.12,0,.18-.17.18h-3v4.32A1.45,1.45,0,0,1,101.62,48a6.6,6.6,0,0,1-1.73-.27l0-1.42.86.27a2.38,2.38,0,0,0,.56.06c.29,0,.5-.08.5-.56ZM97,46.66A21.05,21.05,0,0,0,99.34,43l1.17.7a19.6,19.6,0,0,1-2.37,3.72Zm2.86-8h5.21V37.52l-.07-.05H99.9c-.05,0-.06,0-.05.05Zm5.21,1.23H99.85v.94l.05.07H105l.07-.07Zm.75,7.39a20.21,20.21,0,0,0-1.68-3.66l1.23-.61a19.7,19.7,0,0,1,1.71,3.71Z"/></g></g></g></svg>