<svg xmlns="http://www.w3.org/2000/svg" viewBox="0 0 160.92 160.93"><defs><style>.cls-1{fill:#d19f29;}.cls-1,.cls-2,.cls-3{opacity:0.97;}.cls-2,.cls-4{fill:#fff;}</style></defs><title>資產 2_1</title><g id="圖層_2" data-name="圖層 2"><g id="CHI"><rect class="cls-1" width="160.92" height="160.93"/><path class="cls-2" d="M30.1,41.48h-9V40c0-2.53.91-3.49,2.29-5l3.5-3.68c2.82-3,3.44-4.93,3.44-8.19V20c0-4.64-2.25-6.85-7.13-6.85S16,15.64,16,20.19v3.92h5V20c0-2,1-2.53,2.11-2.53s2,.43,2,2.44v2.68c0,2.68-.24,3.73-2,5.6L20,31.48c-3,3.16-4.07,5.27-4.07,8.47v6H30.1Z"/><g class="cls-3"><path class="cls-4" d="M66.48,136.74V139s0,0,0,.06,0,0,0,.05a1.06,1.06,0,0,0,1,1H94.16a1.08,1.08,0,0,0,1-1.07h0v-2.56c14.94-4.9,26.14-17,28.6-31.77,0,0,0-.06,0-.09a.77.77,0,0,0,0-.15,1.07,1.07,0,0,0-1.08-1.07H38.16a1.07,1.07,0,0,0-1.08,1.07l.06.48c2.59,14.9,14.09,27.08,29.34,31.78"/><path class="cls-4" d="M95.18,67.3c-.35.5-8.52,12.26.19,21.78,4,4.37,3.64,8.22,2.5,10.82h5.59c1.13-3.84.66-8.66-3.87-13.61-6.42-7,.08-16.49.18-16.64a2.09,2.09,0,0,0-.91-3.12,3,3,0,0,0-3.68.77"/><path class="cls-4" d="M81,99.9h5.59c1.13-3.84.66-8.66-3.88-13.61-6.41-7,.08-16.49.18-16.64A2.09,2.09,0,0,0,82,66.53a3,3,0,0,0-3.67.77c-.35.49-8.53,12.26.18,21.78,4,4.37,3.65,8.22,2.51,10.82"/><path class="cls-4" d="M61.52,67.3c-.35.5-8.53,12.26.18,21.78,4,4.37,3.65,8.22,2.51,10.82h5.58c1.13-3.84.67-8.66-3.87-13.61-6.42-7,.08-16.49.18-16.64a2.09,2.09,0,0,0-.91-3.12,3,3,0,0,0-3.67.77"/></g><g class="cls-3"><path class="cls-4" d="M65.16,26.17h-5a.11.11,0,0,0-.12.11v2.13h-1.3V25.23A.21.21,0,0,1,59,25h6.19v-.61H59.8v-1.1h12v1.1H66.48V25h5.71l1.06.54a11.14,11.14,0,0,1-.58,3l-1.25-.4a9.76,9.76,0,0,0,.43-1.84c0-.1,0-.15-.14-.15H66.48v2.72h-.64l1,.36-.13.14a19.35,19.35,0,0,0,6.6,2l-.53,1.35a24.3,24.3,0,0,1-3.87-1.09v1h-6v-.91A32.4,32.4,0,0,1,58.87,33l-.53-1.35c3.48-.59,5.86-1.52,7.16-2.74h-.34Zm.56,8.31v3.15H64.43V34.48H59.19V33.31h12.3c.27,0,.4.15.38.4v1.95c0,1.75-1.79,1.75-2.59,1.75a8.24,8.24,0,0,1-1.65-.16L67.47,36a9.42,9.42,0,0,0,2,.26c.65,0,1.17-.1,1.2-1v-.56a.17.17,0,0,0-.19-.19Zm-5.18-7.67h3.95v1H60.54Zm0,1.62h3.95v1.06H60.54Zm7.92,3.11c-.83-.37-1.73-.79-2.67-1.3a17.32,17.32,0,0,1-2.36,1.3Zm-1.3-4.73h3.91v1H67.16Zm0,1.62h4v1.06h-4Z"/><path class="cls-4" d="M80.73,25.77A19.07,19.07,0,0,1,78.39,24a11.92,11.92,0,0,1-3,2.56l-1.16-.83a9.12,9.12,0,0,0,3.56-3l1.23.07L79,23a31,31,0,0,0,2.68,1.69Zm-1.25,10.5a32.94,32.94,0,0,1-4.83,1.25l-.32-1.26.89-.18v-8.8c0-.26.13-.37.39-.37h1.84V25.5h1.36v1.41h1.76c.27,0,.4.11.4.37v5.58a.37.37,0,0,1-.42.4h-4v2.5A23.74,23.74,0,0,0,79.05,35l-.4-1,1.17-.37A27.56,27.56,0,0,1,81,37l-1.18.31Zm-3-6.74h3.15v-1.1c0-.19-.11-.29-.32-.29H76.84a.28.28,0,0,0-.32.31Zm3.15,1.24H76.52V32h3c.14,0,.2-.06.2-.21Zm4.13-6a.16.16,0,0,0-.17.18v6.75a11.07,11.07,0,0,1-1.3,5.85l-1.25-.8.4-.66a11.83,11.83,0,0,0,.79-4.84V23.72l.08-.2.21-.08h4.06l.23.08.09.2V35.5c0,.52.16.6.55.63l.36-.1c.13,0,.16-.38.15-.81l0-1.73,1.3.08v2.64A1.39,1.39,0,0,1,88,37.43h-1a1.31,1.31,0,0,1-1.36-1.33V24.92a.19.19,0,0,0-.22-.19Z"/><path class="cls-4" d="M95.55,25.63a20.72,20.72,0,0,1-1.62-1.46,15.66,15.66,0,0,1-2.51,2.21l-1.16-.82a7.8,7.8,0,0,0,3.11-2.67l1.23.05-.09.22c.64.53,1.31,1,2,1.51ZM94.7,36.75c-1.47.4-2.79.74-3.87.92l-.39-1.32.58-.09V27.13a.32.32,0,0,1,.35-.35H93V25.44h1.24v1.34h1.24c.26,0,.39.13.39.35v5.93a.35.35,0,0,1-.4.4H92.25V36l2.06-.54L94,34.4l1.19-.3.93,3.12-1.19.24Zm-2.45-7.22h2.32V28.3a.26.26,0,0,0-.3-.29H92.54a.26.26,0,0,0-.29.29Zm2.32,1.24H92.25v1.45h2.13c.13,0,.19-.06.19-.2Zm5.07,5.53A12.84,12.84,0,0,0,102,33.71a28.63,28.63,0,0,1-.78-5.1H99.4v2.28l.84-.54.78,1.14-1.62.88v3.81a1.32,1.32,0,0,1-1.31,1.44,7,7,0,0,1-1.77-.31L96.4,36l.76.29a3.25,3.25,0,0,0,.55.06c.19,0,.4,0,.4-.48V33l-1.17.48-.7-1.18,1.87-.72V28.61H96.43v-1.3h1.68v-2L97,25.6l-.42-1.27a16.56,16.56,0,0,0,3.46-1.23l.48,1.22-1.14.52v2.47h1.7C101,26,101,24.51,101,22.92l1.3.13c0,.58,0,1.14,0,1.7,0,.86,0,1.71.07,2.56h2.75v1.3h-2.66a26.9,26.9,0,0,0,.42,3.58,17.5,17.5,0,0,0,.94-2.75l1.19.32A13.9,13.9,0,0,1,103.2,34l.37,1.2c.11.35.2.51.27.51l0-.14,0-2,1.25.32c-.12,2.66-.29,3.65-1.22,3.65-.64,0-1.26-1.45-1.55-2.32a12.77,12.77,0,0,1-1.67,1.92ZM104,26.46a13.4,13.4,0,0,0-1.16-2.53l1.12-.54a12.39,12.39,0,0,1,1.2,2.59Z"/></g></g></g></svg>