<svg xmlns="http://www.w3.org/2000/svg" viewBox="0 0 160.92 160.93"><defs><style>.cls-1{fill:#f36d23;}.cls-1,.cls-2,.cls-3{opacity:0.97;}.cls-2,.cls-4{fill:#fff;}</style></defs><title>資產 9_1</title><g id="圖層_2" data-name="圖層 2"><g id="CHI"><rect class="cls-1" width="160.92" height="160.93"/><path class="cls-2" d="M29.47,21.65c0-5-2.2-8.66-7.94-8.66s-8,3.16-8,8.18V26c0,5.31,2.1,8,6,8A4.66,4.66,0,0,0,24,31.31h.05v7c0,2-.77,3.35-2.73,3.35s-2.68-1.14-2.68-3.15V36.33h-5v1.73c0,4.78,1.72,8.13,7.75,8.13,5.73,0,8-3.69,8-8.76Zm-5.4,5c-.1,1.81-.86,3-2.59,3s-2.58-1.15-2.58-3.25V20.69c0-2.05.76-3.25,2.63-3.25s2.54,1.24,2.54,3.25Z"/><path class="cls-2" d="M120.67,105.77l-19.13-11V72.65a1.3,1.3,0,0,0-.65-1.13L81.11,60.1a1.26,1.26,0,0,0-1.3,0L60,71.52a1.28,1.28,0,0,0-.65,1.13V94.73l-19.13,11a1.33,1.33,0,0,0-.65,1.13v22.84a1.3,1.3,0,0,0,.65,1.13L60,142.29a1.28,1.28,0,0,0,.65.18,1.25,1.25,0,0,0,.65-.18l19.13-11,19.13,11a1.25,1.25,0,0,0,.65.18,1.28,1.28,0,0,0,.65-.18l19.78-11.42a1.28,1.28,0,0,0,.65-1.13V106.9A1.29,1.29,0,0,0,120.67,105.77ZM79.16,127.48l-15.87-9.16,15.87-9.16Zm18.47-32-15.86,9.15V86.32Zm-18.47,9.15L63.29,95.49l15.87-9.17Zm3.91,2.26L100.24,97l17.17,9.91-17.17,9.92ZM98.93,93.23,83.07,84.06l15.86-9.15ZM77.85,84.06,62,93.23V74.91ZM59.38,138.9,42.21,129V109.16l17.17,9.92Zm2.61,0V120.58l15.86,9.16ZM118.72,129l-17.18,9.91V119.08l17.18-9.92Z"/><g class="cls-3"><path class="cls-4" d="M55.24,27.56V26h-4V24.81h4v-1.4H52A7.06,7.06,0,0,1,50.72,25l-.94-.85a10.78,10.78,0,0,1-1.28,5l-1.23-.5A10.82,10.82,0,0,0,48.51,23V20a.3.3,0,0,1,.34-.34h1.63l-.33-1a22.89,22.89,0,0,0,2.94-.56l-2-.48.32-1H48V15.3h6.17v-.9h1.34v.9h6.07v1.25H59.17l-2.49,1.37c.94.27,1.81.58,2.61.88l-.34.82h2.74v1.23H56.6v1.33h4.75v1.23H56.6v1.4H61V26H56.6v1.52H62v1.23H50.51V27.56Zm0-5.38V20.85H50c-.11,0-.16,0-.18.16v3a5.46,5.46,0,0,0,1.81-3.14l1.27.31-.29,1Zm2.89-2.56c-.91-.37-1.93-.69-3-1a21.67,21.67,0,0,1-3.49,1ZM55,17.41v0h0l1.89-.88H51.78Z"/><path class="cls-4" d="M77.48,28.55a19.17,19.17,0,0,1-6-2.62v3.31H70.13V26.05a17.21,17.21,0,0,1-6.19,2.44l-.5-1.32a16.56,16.56,0,0,0,6.24-2.25H63.89V23.69h6.24v-.9H64.71V21.68h5.42v-1H64.26v-1.1h3.52a15.82,15.82,0,0,0-.63-1.46H63.7V16.93h2.72a10.34,10.34,0,0,0-1-1.65l1.07-.65a9.86,9.86,0,0,1,1.12,1.95l-.67.35h1.87V14.47H70.1v2.46h1.44V14.47h1.25v2.46h1.54l-.48-.35a14.07,14.07,0,0,0,1.31-2l1,.65a11.06,11.06,0,0,1-1.07,1.7h2.64v1.23H74.15l-.56,1.46h3.7v1.1H71.44v1h5.4v1.11h-5.4v.9h6.21v1.23H72.1a16.38,16.38,0,0,0,6,2.4Zm-8.37-8.93h3.1l.63-1.46H68.55Z"/><path class="cls-4" d="M88.37,17.52a17.36,17.36,0,0,1-4.13-1.76A15.71,15.71,0,0,1,79.84,18l-.59-1.23c2.37-.63,4-1.43,4.77-2.35l1.18.33-.14.19a12.77,12.77,0,0,0,3.87,1.35ZM80.16,19.6c0-.3.16-.44.47-.44h7.18c.32,0,.47.14.47.44v4.18a.42.42,0,0,1-.48.48H81.39a15.06,15.06,0,0,1-.88,4.85l-1.21-.53a13.84,13.84,0,0,0,.86-5.09Zm1.25,1.49H87v-.57a.18.18,0,0,0-.2-.2H81.59c-.13,0-.18.07-.18.2ZM87,22.26H81.41v.83h5.43c.14,0,.2-.06.2-.21Zm-5.28-5H86.9v1.18H81.76ZM83,28.55v.61H81.79V25.41a.37.37,0,0,1,.42-.41h5.51c.3,0,.43.14.43.41v3.75H86.92v-.61Zm0-1.25h3.89v-.89a.16.16,0,0,0-.18-.18H83.2c-.13,0-.19.06-.17.18Zm6.54-11.59h1.3v9.77h-1.3Zm2.66-1.13h1.36v13a1.61,1.61,0,0,1-1.84,1.65,7.31,7.31,0,0,1-2.1-.37l0-1.42,1.15.33.77.12a.59.59,0,0,0,.62-.66Z"/><path class="cls-4" d="M99.94,24.9v4.39h-1.3V25.05a15,15,0,0,1-2.3,2.89l-1.11-.69a14.78,14.78,0,0,0,3.06-3.71H95.51V22.31h3.13v-1.2H95.57V19.88H100a14.37,14.37,0,0,0,.9-2.58l1.2.4a13.71,13.71,0,0,1-.74,2.18H103v1.23h-3v1.2h3v1.23h-2.81c.85.74,1.66,1.52,2.46,2.35l-.91.92Zm-1.2-9.31V14.47h1.36v1.12h2.8v1.29H95.76V15.59Zm-1.25,4.16a10.09,10.09,0,0,0-.9-2l1.12-.55a11.31,11.31,0,0,1,1,2Zm9.65.51h-2.08V22.6a9.4,9.4,0,0,1-2.48,6.51l-1.1-.93a7.77,7.77,0,0,0,2.28-5.58v-7c0-.3.1-.43.34-.45a29.89,29.89,0,0,0,5.38-.57l.48,1.29a38.63,38.63,0,0,1-4.69.56c-.18,0-.23.1-.21.23V19h5v1.3h-1.6v9h-1.3Z"/><path class="cls-4" d="M118.07,24.81c-.55-.88-1.19-1.86-1.92-2.9v7.33h-1.36V22.13a19.63,19.63,0,0,1-2.21,3.67l-1.25-.56A17.23,17.23,0,0,0,114.5,20h-2.93V18.61h3.22V16.4l-2.47.13-.21-1.34a40.49,40.49,0,0,0,6.33-.64l.24,1.34c-.53.11-1.35.24-2.53.38v2.34h2.75V20h-2.72c1,1.3,2,2.64,3,4.05ZM120.9,28v.72h-1.36V15.33c0-.13.06-.21.22-.21h5.48c.21,0,.29.1.29.27V28.73h-1.36V28Zm0-1.36h3.27v-10c0-.11,0-.18-.2-.18h-2.88c-.14,0-.21.07-.19.18Z"/><path class="cls-4" d="M61.33,45.75a14.7,14.7,0,0,1-4.43-3.38H52.37a13,13,0,0,1-4.26,3.32l-.81-1.14a12.16,12.16,0,0,0,3.29-2.18H47.44V41.12h2.72V35.79H47.82V34.56h2.34v-.89h1.36v.89h6.41v-.89h1.36v.89h2.43v1.23H59.29v5.33H62.1v1.27H58.58a12.14,12.14,0,0,0,3.65,2.27Zm-7.28,1.14V45.43H50.71V44.2h3.34V43.05h1.36V44.2h3.32v1.23H55.41v1.46h6.18v1.23H48V46.89ZM51.52,36.82h6.41v-1H51.52Zm0,2.19h6.41V37.92H51.52Zm0,2.11h6.41v-1H51.52Z"/><path class="cls-4" d="M66,47.24V48H64.74V41.41l-.23.45-1.29-.32a14.53,14.53,0,0,0,1.53-5.92H63.44V34.39H68.1v1.23H66a16.47,16.47,0,0,1-.59,3.76H68a.35.35,0,0,1,.4.4v7c0,.29-.14.42-.41.42Zm1.2-6.42a.19.19,0,0,0-.22-.21h-.79c-.13,0-.19.07-.19.21V46h.94c.18,0,.26-.08.26-.24Zm7.3,7.59a7.53,7.53,0,0,1-1.79-.26,3.12,3.12,0,0,1-2.36-1.89,11.17,11.17,0,0,1-1.2,2.21L68,47.88a9.1,9.1,0,0,0,1.93-5.25l1.23.11a7.12,7.12,0,0,1-.26,1.86,3.58,3.58,0,0,0,1.7,2.3v-5H68.9V40.63h8.56l.71.54c-.31.88-.66,1.7-1,2.47L76,43.19l.66-1.33H73.78V44H77v1.23H73.78v1.87H78l-.36,1.3ZM71.32,37.56v2.62H70.13V37.64L69,39.17l-1-.54a11,11,0,0,0,1.81-2.52H68.52V35h1.61V33.6h1.19V35h1.47v1.1H71.32v.12l1.49,1.28-.74.83Zm6,1.95a15.44,15.44,0,0,1-1.41-2v2.67H74.77V37.65a14.48,14.48,0,0,1-1.37,1.79l-1-.59a11.48,11.48,0,0,0,2.13-2.74H73.27V35h1.5V33.6h1.17V35h1.54v1.1h-1.3a19,19,0,0,0,2,2.68Z"/><path class="cls-4" d="M79.44,36.29h6v1.3h-6Zm1.68,11.14v.69h-1.3V42.73a.37.37,0,0,1,.41-.41h4.41a.37.37,0,0,1,.42.41V47a.38.38,0,0,1-.43.43Zm-1-9.11h4.53v1.24H80.13Zm0,2h4.53v1.24H80.13Zm.06-6.09h4.53v1.29H80.19Zm3.57,9.54c0-.15-.08-.21-.22-.21H81.33c-.14,0-.21.06-.21.21V46.2h2.37a.24.24,0,0,0,.27-.27Zm4.44-8.41a.16.16,0,0,0-.16.18v.59a4.06,4.06,0,0,1-2,3.65l-.91-1,.55-.37a3.34,3.34,0,0,0,1.07-2.71V34.4l.08-.19.19-.08h4.5l.19.06.1.21v3.33c0,.53.2.58.57.59a1.66,1.66,0,0,0,.48-.09q.12,0,.15-.48l0-1,1.18.14-.11,1.76a1.26,1.26,0,0,1-1.15,1H91.86a1.21,1.21,0,0,1-1.25-1.24V35.55a.19.19,0,0,0-.2-.19Zm5.28,13.16a13.62,13.62,0,0,1-4-1.75,24.42,24.42,0,0,1-3.33,1.73l-.82-1.17a13.41,13.41,0,0,0,3.12-1.47,13.85,13.85,0,0,1-2.36-3.26L87.25,42a11.07,11.07,0,0,0,2.26,3.15,6.69,6.69,0,0,0,2.35-3.46c0-.21-.21-.21-.38-.19H86.13v-1.3h6.5l.74.58a8.73,8.73,0,0,1-2.79,5.2,10.38,10.38,0,0,0,3.59,1.28Z"/><path class="cls-4" d="M98.07,40.18c-.2,3.71-.68,6.42-1.43,8L95.27,48a22.26,22.26,0,0,0,1.47-8.55V37H95.51V35.63H97.6v-2H99v2h2V37H98.1v1.83h2.37c.22,0,.32.1.32.3,0,1,0,2,0,2.84,0,3-.18,4.93-.55,5.7-.21.49-.43.78-1.42.78a8.26,8.26,0,0,1-1.28-.13V46.92a6.47,6.47,0,0,0,1.16.16.47.47,0,0,0,.24,0c.47-.28.53-2.69.53-5,0-.56,0-1.15,0-1.81,0,0-.05-.08-.16-.08Zm5.17-4.13a13.41,13.41,0,0,1-1.8,2.82l-1.15-.77a8.45,8.45,0,0,0,2.23-4.45l1.32.26-.17.78h6.24v1.36Zm-.82,5.84-.72.29L101,41l1.41-.55V38h1.36v1.9l1.58-.65V36.59h1.37v2.1l2-.83.82.42v5c0,1.27-.66,1.46-1.23,1.51h-1.11l-.36-1.49a9.58,9.58,0,0,0,1,.1c.19,0,.32,0,.32-.29V39.8c0-.15-.08-.21-.11-.2l-1.39.56v5.59h-1.37v-5l-1.58.64V46.1c0,.5,0,.9.87.9h3.07c1,0,1.07-.48,1.1-2l1.36.2a5.89,5.89,0,0,1-.4,2.52c-.45.48-.57.59-1.63.59h-4.1c-1,0-1.68-.7-1.63-2Z"/></g></g></g></svg>