<svg xmlns="http://www.w3.org/2000/svg" width="19.116" height="19.113" viewBox="0 0 19.116 19.113"><defs><style>.a{fill:#fff;}</style></defs><g transform="translate(-2 -2)"><g transform="translate(2 2)"><path class="a" d="M19.065,21.113H4.048A2.048,2.048,0,0,1,2,19.065V4.048A2.048,2.048,0,0,1,4.048,2H19.065a2.048,2.048,0,0,1,2.048,2.048V19.065A2.048,2.048,0,0,1,19.065,21.113ZM4.048,3.365a.683.683,0,0,0-.683.683V19.065a.683.683,0,0,0,.683.683H19.065a.683.683,0,0,0,.683-.683V4.048a.683.683,0,0,0-.683-.683Z" transform="translate(-2 -2)"/><path class="a" d="M20.064,24.555a.683.683,0,0,1-.485-.2l-7.707-7.714L4.166,24.357a.685.685,0,1,1-.969-.969L11.388,15.2a.683.683,0,0,1,.969,0l8.191,8.191a.683.683,0,0,1-.485,1.167Z" transform="translate(-2.316 -6.124)"/><path class="a" d="M20.681,17.825a.683.683,0,0,1-.485-1.167L25.657,11.2a.685.685,0,1,1,.969.969l-5.461,5.461A.683.683,0,0,1,20.681,17.825Z" transform="translate(-7.711 -4.855)"/><path class="a" d="M8.389,10.778a2.389,2.389,0,1,1,2.389-2.389A2.389,2.389,0,0,1,8.389,10.778Zm0-3.413A1.024,1.024,0,1,0,9.413,8.389,1.024,1.024,0,0,0,8.389,7.365Z" transform="translate(-3.27 -3.27)"/></g></g></svg>